#N canvas 528 17 450 300 10;
#X obj 166 132 s sendreceive_getName;
#X msg 166 108 bang;
#X obj 166 153 r sendreceive_setName;
#X obj 166 201 textfile;
#X msg 166 173 add \$1;
#X msg 96 8 bang;
#X obj 95 30 savepanel;
#X obj 95 58 symbol;
#X msg 222 173 clear;
#X msg 78 153 write \$1 cr;
#X obj 95 80 t b s b b;
#X obj 75 132 print;
#X msg 75 110 done;
#X obj 144 8 inlet;
#X connect 1 0 0 0;
#X connect 2 0 4 0;
#X connect 4 0 3 0;
#X connect 5 0 6 0;
#X connect 6 0 7 0;
#X connect 7 0 10 0;
#X connect 8 0 3 0;
#X connect 9 0 3 0;
#X connect 10 0 12 0;
#X connect 10 1 9 0;
#X connect 10 2 1 0;
#X connect 10 3 8 0;
#X connect 12 0 11 0;
#X connect 13 0 6 0;
