#N canvas 155 0 800 684 10;
#X declare -path ../../abstractions/in -path ../../abstractions/out
-path ../../abstractions/tools -path ../../abstractions/filters -path
../../abstractions/fx-video -path ../../abstractions/fx-audio -path
../../abstractions/master;
#X declare -path abstractions/in -path abstractions/out -path abstractions/tools
-path abstractions/filters -path abstractions/fx-video -path abstractions/fx-audio
-path abstractions/master;
#N canvas 468 137 801 468 INIT 0;
#X obj 101 101 cnv 8 48 8 empty empty INCLUDE 2 4 0 10 -233017 -66577
0;
#X obj 102 261 declare -path ../../abstractions/in -path ../../abstractions/out
-path ../../abstractions/tools -path ../../abstractions/filters -path
../../abstractions/fx-video -path ../../abstractions/fx-audio -path
../../abstractions/master;
#X text 100 240 Use for standalone :;
#X text 100 140 Use with the main.pd :;
#X text 97 25 Import paths to find abstractions \; Always use it in
the examples patchs.;
#X obj 102 162 declare -path abstractions/in -path abstractions/out
-path abstractions/tools -path abstractions/filters -path abstractions/fx-video
-path abstractions/fx-audio -path abstractions/master;
#X obj 565 311 savepanel;
#X obj 565 146 route savetofile;
#X obj 565 166 unpack s s;
#X obj 565 125 iemguts/receivecanvas 1;
#X text 562 96 Get new saved file;
#X text 562 289 Or inside this abstraction ?;
#X obj 565 209 s CURRENT-FILE;
#X obj 622 189 s CURRENT-FOLDER;
#X connect 7 0 8 0;
#X connect 8 0 12 0;
#X connect 8 1 13 0;
#X connect 9 0 7 0;
#X coords 0 -1 1 1 50 10 2 100 100;
#X restore 711 18 pd INIT;
#X text 597 13 ! Do not delete >;
#X obj 7 242 cnv 1 786 1 empty empty FX 2 -6 1 12 -228856 -191407 0
;
#X obj 7 431 cnv 1 786 1 empty empty OUT 2 -6 1 12 -228856 -191407
0;
#X obj 7 53 cnv 1 786 1 empty empty IN 2 -6 1 12 -228856 -191407 0
;
#X obj 75 137 video-in;
#X obj 72 514 video-screen;
#X obj 530 536 3d-object;
#X obj 123 246 tgl 15 0 empty empty empty 17 7 0 10 -262144 -1 -1 1
1;
#X obj 74 336 3d-transform;
#X text 150 239 ferme ou ouvert le robinet;
#X obj 75 268 spigot 1;
#X obj 124 196 tgl 15 0 empty empty empty 17 7 0 10 -262144 -1 -1 0
1;
#X obj 123 218 metro 100;
#X obj 183 510 3d-object;
#X obj 673 372 gemhead;
#X floatatom 286 351 5 0 0 0 - - -;
#X obj 530 327 3d-transform 1;
#X obj 286 290 seq-counter 80 1 360;
#X obj 183 416 video-multifx;
#X obj 563 69 audio-in;
#X obj 641 119 oscilloscope;
#X floatatom 654 95 5 0 0 0 - - -;
#X obj 632 253 * 360;
#X msg 631 282 rx \$1;
#X obj 434 100 audio-sampler;
#X obj 433 219 env~;
#X floatatom 499 275 5 0 0 0 - - -;
#X obj 472 164 audio-out;
#X msg 187 311 ry \$1;
#X msg 305 384 rx \$1;
#X connect 5 0 11 0;
#X connect 8 0 11 1;
#X connect 9 0 19 0;
#X connect 11 0 9 0;
#X connect 12 0 13 0;
#X connect 13 0 8 0;
#X connect 16 0 29 0;
#X connect 17 0 7 0;
#X connect 18 0 16 0;
#X connect 19 0 14 0;
#X connect 19 0 6 0;
#X connect 20 2 21 0;
#X connect 20 2 22 0;
#X connect 23 0 24 0;
#X connect 24 0 17 1;
#X connect 25 0 26 0;
#X connect 25 0 28 0;
#X connect 25 0 28 1;
#X connect 26 0 27 0;
#X connect 27 0 24 0;
#X connect 27 0 30 0;
#X connect 29 0 9 1;
#X connect 30 0 9 1;
