#N canvas 195 79 1027 660 10;
#X declare -path ../../abstractions/in -path ../../abstractions/out
-path ../../abstractions/data -path ../../abstractions/video -path
../../abstractions/audio -path ../../abstractions/master;
#X obj 613 376 key-num;
#X obj 614 213 arduino-digital-in;
#X obj 129 5 r reed1;
#X obj 315 5 r reed2;
#X obj 613 428 s reed1;
#X obj 628 452 s reed2;
#N canvas 727 223 450 300 bip 0;
#X obj 100 18 change;
#X obj 155 22 change;
#X obj 155 -1 sel 1;
#X obj 100 -5 sel 1;
#X obj 155 100 bng 15 250 50 0 empty empty empty 17 7 0 10 -262144
-1 -1;
#X obj 100 100 bng 15 250 50 0 empty empty empty 17 7 0 10 -262144
-1 -1;
#N canvas 902 159 450 300 sonbip 0;
#X obj -5 53 inlet;
#X obj -78 195 *~;
#X obj 19 129 vline~;
#X obj -71 300 dac~;
#X obj -77 241 *~ 1;
#X obj 100 100 tgl 15 0 empty empty empty 17 7 0 10 -257985 -1 -1 1
1;
#X obj -79 139 osc~ 600;
#X obj 101 50 loadbang;
#X msg -4 80 1 \, 0 50;
#X connect 0 0 8 0;
#X connect 1 0 4 0;
#X connect 2 0 1 1;
#X connect 4 0 3 0;
#X connect 4 0 3 1;
#X connect 5 0 4 1;
#X connect 6 0 1 0;
#X connect 7 0 5 0;
#X connect 8 0 2 0;
#X coords 0 -1 1 1 15 15 2 100 100;
#X restore 115 100 pd sonbip;
#N canvas 901 160 450 300 sonbip 0;
#X obj -5 53 inlet;
#X obj -78 195 *~;
#X obj 19 129 vline~;
#X obj -71 300 dac~;
#X obj -77 241 *~ 1;
#X obj 100 100 tgl 15 0 empty empty empty 17 7 0 10 -257985 -1 -1 1
1;
#X obj -79 139 osc~ 1000;
#X obj 125 22 loadbang;
#X msg -4 80 1 \, 0 50;
#X connect 0 0 8 0;
#X connect 1 0 4 0;
#X connect 2 0 1 1;
#X connect 4 0 3 0;
#X connect 4 0 3 1;
#X connect 5 0 4 1;
#X connect 6 0 1 0;
#X connect 7 0 5 0;
#X connect 8 0 2 0;
#X coords 0 -1 1 1 15 15 2 100 100;
#X restore 170 100 pd sonbip;
#X obj 100 -31 inlet;
#X obj 155 -28 inlet;
#X obj 100 42 s reed1;
#X obj 155 47 s reed2;
#X connect 0 0 10 0;
#X connect 0 0 6 0;
#X connect 0 0 5 0;
#X connect 1 0 11 0;
#X connect 1 0 7 0;
#X connect 1 0 4 0;
#X connect 2 0 1 0;
#X connect 3 0 0 0;
#X connect 8 0 3 0;
#X connect 9 0 2 0;
#X coords 0 -1 1 1 85 15 2 100 100;
#X restore 634 282 pd bip;
#N canvas 418 232 450 300 metrotest 0;
#X obj 100 175 metro;
#X obj 100 115 tgl 15 0 empty empty empty 17 7 0 10 -260097 -1 -1 0
1;
#X floatatom 264 114 5 0 0 0 - - -;
#X obj 100 204 s reed1;
#X obj 131 33 loadbang;
#X obj 134 115 hsl 128 15 0 500 0 0 empty empty speed_(ms) 3 8 0 10
-260097 -1 -1 4572 1;
#X obj 213 53 cnv 2 2 7 empty empty empty 20 12 0 14 -86853 -66577
0;
#X text 278 66 <<<<<<<<<;
#X obj 115 115 bng 15 50 10 0 empty empty empty 17 7 0 10 -262144 -1
-1;
#X obj 197 25 inverse;
#X obj 207 74 + 500;
#X floatatom 174 159 5 0 0 0 - - -;
#X msg 131 56 180;
#X obj 298 136 s changementdesens;
#X obj 298 115 hradio 15 1 0 2 empty empty <_> 3 7 0 14 -162280 -1
-262144 0;
#X connect 0 0 3 0;
#X connect 0 0 8 0;
#X connect 1 0 0 0;
#X connect 2 0 0 1;
#X connect 4 0 12 0;
#X connect 5 0 9 0;
#X connect 5 0 11 0;
#X connect 9 0 10 0;
#X connect 10 0 2 0;
#X connect 12 0 5 0;
#X connect 14 0 13 0;
#X coords 0 -1 1 1 228 30 2 100 100;
#X restore 772 377 pd metrotest;
#X text 743 244 << detection ILS arduino;
#X text 612 354 simulation (clavier ou metronome) :;
#X text 611 -16 Veloprojecteur : patch pour Arduino et 2 ILS \; ------------------------------------------------------
\; - 2 aimants sont collés a la roue du velo \, les capteurs sont
deux petites pieces metalliques dans une ampoule qui se touche lorsque
qu'il ya la présence de l'aimant \; \; -on calcule la vitesse pour
l'utiliser sur un lecteur audio et video \, on detecte aussi le sens
de rotation...;
#X obj 614 170 loadbang;
#X msg 614 192 4 8;
#X obj 602 -15 cnv 2 2 600 empty empty empty 20 12 0 14 -233017 -66577
0;
#X text 742 280 << SON TESTS;
#X obj 315 38 bng 15 250 50 0 empty empty empty 17 7 0 10 -262144 -1
-1;
#X obj 129 38 bng 15 250 50 0 empty empty empty 17 7 0 10 -262144 -1
-1;
#X obj 96 -23 ../../abstractions/include;
#X connect 0 0 4 0;
#X connect 0 1 5 0;
#X connect 1 2 6 0;
#X connect 1 6 6 1;
#X connect 2 0 16 0;
#X connect 3 0 15 0;
#X connect 11 0 12 0;
#X connect 12 0 1 0;
