#N canvas 136 79 1141 688 10;
#X declare -path ../../abstractions/in -path ../../abstractions/out
-path ../../abstractions/data -path ../../abstractions/video -path
../../abstractions/audio -path ../../abstractions/master;
#X obj 337 147 timer;
#X obj 377 134 timer;
#X obj 42 171 counter 100;
#X obj 42 213 / 100;
#X floatatom 70 57 5 0 0 0 - - -;
#X obj 213 147 counter 2;
#X obj 213 179 sel 0 1;
#X obj 213 207 timer;
#X obj 42 392 video-scratch;
#X obj 613 376 key-num;
#X obj 366 107 bang;
#X text 273 204 periode;
#X obj 12 10 r duree;
#X floatatom 185 457 5 0 0 0 - - -;
#X text 215 479 fps;
#X floatatom 185 499 5 0 0 1 sec. - -;
#X obj 185 478 / 23;
#X obj 614 242 arduino-digital-in;
#X obj 213 288 s fondu;
#X obj 227 114 t b b b b;
#X obj 337 216 s changementdesens;
#X obj 42 370 f;
#X obj 42 241 fade;
#X obj 57 111 r changementdesens;
#X obj 227 90 r reed1;
#X obj 377 90 r reed2;
#X obj 613 428 s reed1;
#X obj 628 452 s reed2;
#N canvas 727 223 450 300 bip 0;
#X obj 100 18 change;
#X obj 155 22 change;
#X obj 155 -1 sel 1;
#X obj 100 -5 sel 1;
#X obj 155 100 bng 15 250 50 0 empty empty empty 17 7 0 10 -262144
-1 -1;
#X obj 100 100 bng 15 250 50 0 empty empty empty 17 7 0 10 -262144
-1 -1;
#N canvas 902 159 450 300 sonbip 0;
#X obj -5 53 inlet;
#X obj -78 195 *~;
#X obj 19 129 vline~;
#X obj -71 300 dac~;
#X obj -77 241 *~ 1;
#X obj 100 100 tgl 15 0 empty empty empty 17 7 0 10 -257985 -1 -1 1
1;
#X obj -79 139 osc~ 600;
#X obj 101 50 loadbang;
#X msg -4 80 1 \, 0 50;
#X connect 0 0 8 0;
#X connect 1 0 4 0;
#X connect 2 0 1 1;
#X connect 4 0 3 0;
#X connect 4 0 3 1;
#X connect 5 0 4 1;
#X connect 6 0 1 0;
#X connect 7 0 5 0;
#X connect 8 0 2 0;
#X coords 0 -1 1 1 15 15 2 100 100;
#X restore 115 100 pd sonbip;
#N canvas 901 160 450 300 sonbip 0;
#X obj -5 53 inlet;
#X obj -78 195 *~;
#X obj 19 129 vline~;
#X obj -71 300 dac~;
#X obj -77 241 *~ 1;
#X obj 100 100 tgl 15 0 empty empty empty 17 7 0 10 -257985 -1 -1 1
1;
#X obj -79 139 osc~ 1000;
#X obj 125 22 loadbang;
#X msg -4 80 1 \, 0 50;
#X connect 0 0 8 0;
#X connect 1 0 4 0;
#X connect 2 0 1 1;
#X connect 4 0 3 0;
#X connect 4 0 3 1;
#X connect 5 0 4 1;
#X connect 6 0 1 0;
#X connect 7 0 5 0;
#X connect 8 0 2 0;
#X coords 0 -1 1 1 15 15 2 100 100;
#X restore 170 100 pd sonbip;
#X obj 100 -31 inlet;
#X obj 155 -28 inlet;
#X obj 100 42 s reed1;
#X obj 155 47 s reed2;
#X connect 0 0 10 0;
#X connect 0 0 6 0;
#X connect 0 0 5 0;
#X connect 1 0 11 0;
#X connect 1 0 7 0;
#X connect 1 0 4 0;
#X connect 2 0 1 0;
#X connect 3 0 0 0;
#X connect 8 0 3 0;
#X connect 9 0 2 0;
#X coords 0 -1 1 1 85 15 2 100 100;
#X restore 634 311 pd bip;
#N canvas 418 232 450 300 metrotest 0;
#X obj 100 175 metro;
#X obj 100 115 tgl 15 0 empty empty empty 17 7 0 10 -260097 -1 -1 0
1;
#X floatatom 264 114 5 0 0 0 - - -;
#X obj 100 204 s reed1;
#X obj 131 33 loadbang;
#X obj 134 115 hsl 128 15 0 500 0 0 empty empty speed_(ms) 3 8 0 10
-260097 -1 -1 4572 1;
#X obj 213 53 cnv 2 2 7 empty empty empty 20 12 0 14 -86853 -66577
0;
#X text 278 66 <<<<<<<<<;
#X obj 115 115 bng 15 50 10 0 empty empty empty 17 7 0 10 -262144 -1
-1;
#X obj 197 25 inverse;
#X obj 207 74 + 500;
#X floatatom 174 159 5 0 0 0 - - -;
#X msg 131 56 180;
#X obj 298 136 s changementdesens;
#X obj 298 115 hradio 15 1 0 2 empty empty <_> 3 7 0 14 -162280 -1
-262144 0;
#X connect 0 0 3 0;
#X connect 0 0 8 0;
#X connect 1 0 0 0;
#X connect 2 0 0 1;
#X connect 4 0 12 0;
#X connect 5 0 9 0;
#X connect 5 0 11 0;
#X connect 9 0 10 0;
#X connect 10 0 2 0;
#X connect 12 0 5 0;
#X connect 14 0 13 0;
#X coords 0 -1 1 1 228 30 2 100 100;
#X restore 772 377 pd metrotest;
#N canvas 178 371 450 488 lecteurmedia 0;
#X msg 142 263 set \$1.wav;
#X msg 142 310 1.wav;
#X msg 58 306 file 1.mov;
#X obj 92 170 t b f;
#X obj 142 340 s wavfile;
#X obj 58 392 s movfile;
#X msg 58 268 set file \$1.mov;
#X text 114 99 Ouvrir fichiers;
#X obj 100 129 cnv 15 120 20 empty wavfil 1.wav/mov 5 12 0 14 -233017
-66577 0;
#X msg 297 385 label \$1;
#X obj 297 407 s wavfil;
#X obj 255 328 symbol;
#X obj 297 365 makefilename %s/mov;
#X obj 100 116 hradio 12 1 0 10 empty empty empty 0 -8 0 10 -4034 -1
-1 0;
#X text 235 111 mettre les fichiers a la racine de la malinette !;
#X connect 0 0 1 0;
#X connect 1 0 4 0;
#X connect 1 0 11 0;
#X connect 2 0 5 0;
#X connect 3 0 1 0;
#X connect 3 0 2 0;
#X connect 3 1 0 0;
#X connect 3 1 6 0;
#X connect 6 0 2 0;
#X connect 9 0 10 0;
#X connect 11 0 12 0;
#X connect 12 0 9 0;
#X connect 13 0 3 0;
#X coords 0 -1 1 1 120 50 2 100 100;
#X restore 614 137 pd lecteurmedia;
#X obj 337 173 <;
#X obj 70 35 * 3;
#X floatatom 2 188 5 0 0 0 - - -;
#N canvas 575 265 450 300 multiplier 0;
#X obj 100 100 hradio 16 1 0 8 empty empty empty 0 -8 0 10 -260097
-1 -1 3;
#X obj 103 33 loadbang;
#X msg 103 73 3;
#X obj 99 271 outlet;
#X obj 237 238 s multip;
#X obj 96 207 t b f;
#X obj 149 272 outlet;
#X floatatom 233 100 5 0 0 0 - - -;
#X obj 219 160 f;
#X obj 102 134 + 5;
#X obj 204 213;
#X connect 0 0 9 0;
#X connect 1 0 2 0;
#X connect 2 0 0 0;
#X connect 5 0 3 0;
#X connect 5 1 6 0;
#X connect 7 0 8 0;
#X connect 8 0 4 0;
#X connect 8 0 5 0;
#X connect 9 0 7 0;
#X coords 0 -1 1 1 170 16 1 100 100;
#X restore 70 10 pd multiplier;
#X text 84 -8 vache;
#X text 159 -7 chevre;
#X obj 185 370 r movfile;
#X obj 337 195 hradio 15 1 0 2 empty empty <_> 3 7 0 14 -162280 -1
-262144 0;
#X text 748 142 << 1.ouvrir un fichier;
#X text 743 273 << detection ILS arduino;
#X text 612 354 simulation (clavier ou metronome) :;
#X obj 46 347 cnv 15 15 20 empty empty lecteur_video_________________
4 7 1 10 -262144 -260097 0;
#N canvas 69 494 580 434 scratch 0;
#X obj 339 203 soundfiler;
#X obj 339 155 openpanel;
#X obj 233 114 bng 15 250 50 0 empty empty empty 17 7 0 10 -4034 -1
-1;
#X msg 339 181 read -resize \$1 tab;
#X obj 161 314 tabread4~ tab;
#X obj 160 292 vline~;
#X obj 103 114 hsl 128 15 0 1 0 0 empty empty scratch 3 6 0 10 -262144
-1 -1 0 1;
#X obj 160 247 *;
#N canvas 1 70 450 300 wave 0;
#N canvas 0 0 450 300 (subpatch) 0;
#X array tab 6.00466e+06 float 2;
#X coords 0 1 6.00466e+06 -1 100 70 1;
#X restore -488 7 graph;
#X restore 154 166 pd wave;
#X obj 162 361 outlet~;
#X obj 100 87 inlet;
#X obj 287 76 inlet;
#X obj 339 301 outlet;
#X obj 251 255 / 100;
#X obj 193 87 inlet;
#X obj 160 271 pack 0 100;
#X obj 250 306 outlet;
#X obj 287 103 symbol;
#X symbolatom 360 126 10 0 0 0 - - -;
#X msg 387 52 1.wav;
#X connect 0 0 7 1;
#X connect 0 0 12 0;
#X connect 0 0 13 0;
#X connect 1 0 3 0;
#X connect 2 0 1 0;
#X connect 3 0 0 0;
#X connect 4 0 9 0;
#X connect 5 0 4 0;
#X connect 6 0 7 0;
#X connect 6 0 16 0;
#X connect 7 0 15 0;
#X connect 10 0 6 0;
#X connect 11 0 17 0;
#X connect 14 0 15 1;
#X connect 15 0 5 0;
#X connect 17 0 3 0;
#X connect 17 0 18 0;
#X connect 19 0 17 0;
#X coords 0 -1 1 1 150 40 1 100 100;
#X restore 319 391 pd scratch;
#X floatatom 462 439 12 0 0 0 - - -;
#X obj 462 460 / 44100;
#X floatatom 462 482 12 0 0 1 secondes - -;
#X obj 462 503 s duree;
#X floatatom 390 439 5 0 0 0 - - -;
#X obj 390 460 *;
#X floatatom 390 482 5 0 0 1 / - -;
#X obj 318 449 audio-out;
#N canvas 772 565 450 300 speedtest 0;
#X obj 53 -139 inlet;
#X obj 53 -112 int;
#X obj 53 -84 change;
#X obj 37 16 timer;
#X obj 40 -48 counter 2;
#X obj 40 -20 sel 0 1;
#X floatatom 116 21 6 0 0 0 - - -;
#X floatatom 112 102 6 0 0 0 % - -;
#X obj 107 53 / 10;
#X connect 0 0 1 0;
#X connect 1 0 2 0;
#X connect 2 0 4 0;
#X connect 3 0 6 0;
#X connect 3 0 8 0;
#X connect 4 0 5 0;
#X connect 5 0 3 0;
#X connect 5 1 3 1;
#X connect 8 0 7 0;
#X coords 0 -1 1 1 50 20 2 100 100;
#X restore 390 503 pd speedtest;
#X obj 312 352 cnv 15 15 20 empty empty lecteur_audio_________________
4 7 1 10 -262144 -260097 0;
#X floatatom 390 369 5 0 0 0 - - -;
#X obj 390 345 * 3;
#X obj 405 323 r multip;
#X obj 462 369 r wavfile;
#X obj 337 75 cnv 15 15 20 empty empty sens_de_rotation________________
0 7 1 10 -262144 -260097 0;
#X obj 182 75 cnv 15 15 20 empty empty fondu________________ 0 7 1
10 -262144 -260097 0;
#X obj -4 73 cnv 15 15 20 empty empty compteur________________ 0 7
1 10 -262144 -260097 0;
#X text 244 13 coeficient fromage de sportif;
#X obj 614 199 loadbang;
#X msg 614 221 4 8;
#X obj 602 -15 cnv 2 2 600 empty empty empty 20 12 0 14 -233017 -66577
0;
#X obj 57 136 inverse;
#N canvas 609 201 450 300 change 0;
#X msg 178 169 jam \$1;
#X floatatom 178 150 5 0 0 0 - - -;
#X text 218 148 immediately;
#X obj 181 233 outlet;
#X obj 128 73 inlet;
#X obj 55 134 map 0 1 0 12;
#X msg 246 62 0;
#X obj 246 85 s defade;
#X obj 103 100 hsl 60 17 0 1 0 0 empty empty scan 4 9 0 10 -262144
-260097 -1 0 1;
#X connect 0 0 3 0;
#X connect 1 0 0 0;
#X connect 4 0 5 4;
#X connect 5 0 1 0;
#X connect 6 0 7 0;
#X connect 8 0 5 0;
#X connect 8 0 6 0;
#X coords 0 -1 1 1 65 17 2 100 100;
#X restore -14 112 pd change;
#X obj 116 179 r defade;
#X obj 447 349 r defade;
#X text 747 156 fichiers a la racine de la malinette !;
#X floatatom 271 177 5 0 0 0 - - -;
#X obj 280 276 nbx 5 40 -1e+37 1e+37 0 0 empty empty empty 0 -8 0 40
-262144 -1 -1 0 256;
#X obj 16 504 video-screen;
#X msg 109 476 16 9;
#X floatatom 62 478 5 0 0 0 - - -;
#X msg 62 452 0.23;
#X obj 911 213 arduino-analog-in;
#X floatatom 898 267 5 0 0 0 - - -;
#X obj 947 272 counter 2;
#X obj 947 304 sel 0 1;
#X obj 947 332 timer;
#X floatatom 1007 342 5 0 0 0 - - -;
#X obj 213 243 f;
#X obj 10 722 synth-drums;
#X obj 10 685 sel 0 1 2 3 4 5 6 7;
#X obj 184 808 audio-out;
#X obj 19 653 counter 7;
#X obj 366 845 gamme;
#X obj 366 971 audio-out;
#X obj 366 654 bang;
#X obj 606 1041 audio-freeze;
#X obj 605 1121 audio-out;
#N canvas 304 314 728 681 bass 0;
#X obj 112 227 gamme;
#X obj 112 328 synth;
#X obj 44 537 audio-out;
#X obj 112 149 bang;
#X obj 189 474 audio-freeze;
#X obj 188 549 audio-out;
#X obj 112 123 sel 0;
#X obj 112 57 inlet;
#X obj 112 178 random 20;
#X obj 112 379 audio-attackdecay;
#X obj 112 203 + 30;
#X obj 112 93 counter 1;
#X obj 377 452 audio-delay;
#X obj 376 558 audio-out;
#X connect 0 0 1 0;
#X connect 1 0 9 0;
#X connect 3 0 8 0;
#X connect 3 0 9 1;
#X connect 4 0 5 0;
#X connect 4 0 5 1;
#X connect 6 0 3 0;
#X connect 7 0 11 0;
#X connect 8 0 10 0;
#X connect 9 0 2 0;
#X connect 9 0 2 1;
#X connect 9 0 4 0;
#X connect 9 0 12 0;
#X connect 10 0 0 0;
#X connect 11 0 6 0;
#X connect 12 0 13 0;
#X connect 12 0 13 1;
#X restore 634 691 pd bass;
#X obj 366 675 seq-sliders;
#X obj 493 973 audio-cutoff;
#X obj 494 1042 audio-out;
#X obj 366 822 map 0 1 20 40 65;
#X obj 366 930 synth;
#X text 610 -13 Veloprojecteur : patch pour Arduino et 2 ILS (Interrupteur
à Lames Souples). En aéronautique ILS signfie : Instrument Landing
System. ----------------------------------------------------------
- 2 aimants sont collés a la roue du velo \, les capteurs sont deux
petites pieces metalliques dans une ampoule qui se touche lorsque qu'il
ya la présence de l'aimant \; -on calcule la vitesse pour l'utiliser
sur un lecteur audio et video \, on detecte aussi le sens de rotation...
;
#X obj 415 620 initbang;
#X msg 415 651 onoff 0 \, rand 1;
#X obj 634 659 r reed1;
#X obj 366 630 r reed1;
#X obj 19 629 r reed1;
#X text 9 582 PARTIE MUSIQUE GENERATIVE ////////////////////////////////////////////////////////
;
#X text 386 584 PARTIE MUSIQUE GENERATIVE ////////////////////////////////////////////////////////
;
#X text 752 583 PARTIE MUSIQUE GENERATIVE ////////////////////////////////////////////////////////
;
#X obj 446 27 ../../abstractions/include;
#X connect 0 0 31 0;
#X connect 1 0 31 1;
#X connect 2 0 3 0;
#X connect 2 0 33 0;
#X connect 3 0 22 0;
#X connect 4 0 2 4;
#X connect 4 0 3 1;
#X connect 4 0 66 0;
#X connect 5 0 6 0;
#X connect 5 0 70 0;
#X connect 6 0 7 0;
#X connect 6 1 7 1;
#X connect 7 0 82 0;
#X connect 8 0 72 0;
#X connect 8 1 13 0;
#X connect 9 0 26 0;
#X connect 9 1 27 0;
#X connect 10 0 0 1;
#X connect 10 0 1 0;
#X connect 12 0 32 0;
#X connect 13 0 16 0;
#X connect 16 0 15 0;
#X connect 17 2 28 0;
#X connect 17 6 28 1;
#X connect 19 2 2 0;
#X connect 19 3 0 0;
#X connect 19 3 1 1;
#X connect 21 0 8 0;
#X connect 22 0 21 0;
#X connect 22 0 43 0;
#X connect 23 0 65 0;
#X connect 24 0 19 0;
#X connect 24 0 5 0;
#X connect 25 0 10 0;
#X connect 31 0 38 0;
#X connect 32 0 4 0;
#X connect 34 0 32 0;
#X connect 34 1 32 1;
#X connect 37 0 8 1;
#X connect 38 0 20 0;
#X connect 43 0 51 0;
#X connect 43 0 51 1;
#X connect 43 1 48 0;
#X connect 43 2 44 0;
#X connect 44 0 45 0;
#X connect 45 0 46 0;
#X connect 46 0 47 0;
#X connect 46 0 49 1;
#X connect 48 0 49 0;
#X connect 49 0 50 0;
#X connect 50 0 52 0;
#X connect 54 0 43 1;
#X connect 55 0 54 0;
#X connect 56 0 55 1;
#X connect 57 0 43 2;
#X connect 62 0 63 0;
#X connect 63 0 17 0;
#X connect 65 0 2 1;
#X connect 66 0 2 0;
#X connect 67 0 22 1;
#X connect 68 0 54 0;
#X connect 73 0 72 2;
#X connect 74 0 72 1;
#X connect 75 0 74 0;
#X connect 76 0 77 0;
#X connect 76 0 78 0;
#X connect 78 0 79 0;
#X connect 79 0 80 0;
#X connect 79 1 80 1;
#X connect 80 0 81 0;
#X connect 82 0 18 0;
#X connect 82 0 22 1;
#X connect 82 0 71 0;
#X connect 83 4 85 0;
#X connect 83 4 85 1;
#X connect 84 0 83 0;
#X connect 84 4 83 1;
#X connect 84 7 83 3;
#X connect 86 0 84 0;
#X connect 86 0 83 2;
#X connect 87 0 97 0;
#X connect 89 0 93 0;
#X connect 90 0 91 0;
#X connect 90 0 91 1;
#X connect 93 0 96 0;
#X connect 94 0 95 0;
#X connect 94 0 95 1;
#X connect 94 0 90 0;
#X connect 96 0 87 0;
#X connect 97 0 88 0;
#X connect 97 0 88 1;
#X connect 97 0 94 0;
#X connect 99 0 100 0;
#X connect 100 0 93 0;
#X connect 101 0 92 0;
#X connect 102 0 89 0;
#X connect 103 0 86 0;
