#N canvas 574 67 450 278 10;
#X obj 177 -7 spigot 0;
#X obj 327 102 tgl 12 0 empty empty empty 0 -6 0 8 -258699 -1 -1 0
1;
#X text 262 -5 <- enable analog inputs;
#X floatatom 102 116 5 0 0 3 a0 - -;
#X floatatom 137 116 5 0 0 3 a1 - -;
#X floatatom 172 116 5 0 0 3 a2 - -;
#X floatatom 207 116 5 0 0 3 a3 - -;
#X floatatom 242 116 5 0 0 3 a4 - -;
#X floatatom 277 116 5 0 0 3 a5 - -;
#X floatatom 312 116 5 0 0 3 a6 - -;
#X floatatom 347 116 5 0 0 3 a7 - -;
#X obj 177 14 route analog;
#X obj 177 36 route 0 1 2 3 4 5 6 7;
#N canvas 0 22 499 396 display 0;
#X obj 6 7 inlet;
#X obj 6 28 mapping/resample 100;
#X obj 6 50 outlet;
#X obj 54 50 inlet;
#X obj 54 71 mapping/resample 100;
#X obj 54 93 outlet;
#X obj 103 93 inlet;
#X obj 103 114 mapping/resample 100;
#X obj 103 136 outlet;
#X obj 151 136 inlet;
#X obj 151 157 mapping/resample 100;
#X obj 151 179 outlet;
#X obj 200 179 inlet;
#X obj 200 200 mapping/resample 100;
#X obj 200 222 outlet;
#X obj 247 222 inlet;
#X obj 247 243 mapping/resample 100;
#X obj 247 265 outlet;
#X obj 295 265 inlet;
#X obj 295 286 mapping/resample 100;
#X obj 295 308 outlet;
#X obj 345 308 inlet;
#X obj 345 329 mapping/resample 100;
#X obj 345 351 outlet;
#X connect 0 0 1 0;
#X connect 1 0 2 0;
#X connect 3 0 4 0;
#X connect 4 0 5 0;
#X connect 6 0 7 0;
#X connect 7 0 8 0;
#X connect 9 0 10 0;
#X connect 10 0 11 0;
#X connect 12 0 13 0;
#X connect 13 0 14 0;
#X connect 15 0 16 0;
#X connect 16 0 17 0;
#X connect 18 0 19 0;
#X connect 19 0 20 0;
#X connect 21 0 22 0;
#X connect 22 0 23 0;
#X restore 102 61 pd display values without pegging the CPU;
#X obj 56 185 outlet;
#X obj 98 185 outlet;
#X obj 140 185 outlet;
#X obj 182 185 outlet;
#X obj 224 185 outlet;
#X obj 266 185 outlet;
#X obj 308 185 outlet;
#X obj 350 185 outlet;
#X obj 376 35 inlet;
#X obj 177 -29 r EHU_arduino-out;
#X text 340 99 enable;
#X connect 0 0 11 0;
#X connect 1 0 0 1;
#X connect 3 0 14 0;
#X connect 4 0 15 0;
#X connect 5 0 16 0;
#X connect 6 0 17 0;
#X connect 7 0 18 0;
#X connect 8 0 19 0;
#X connect 9 0 20 0;
#X connect 10 0 21 0;
#X connect 11 0 12 0;
#X connect 12 0 13 0;
#X connect 12 1 13 1;
#X connect 12 2 13 2;
#X connect 12 3 13 3;
#X connect 12 4 13 4;
#X connect 12 5 13 5;
#X connect 12 6 13 6;
#X connect 12 7 13 7;
#X connect 13 0 3 0;
#X connect 13 1 4 0;
#X connect 13 2 5 0;
#X connect 13 3 6 0;
#X connect 13 4 7 0;
#X connect 13 5 8 0;
#X connect 13 6 9 0;
#X connect 13 7 10 0;
#X connect 22 0 1 0;
#X connect 23 0 0 0;
#X coords 0 -1 1 1 281 46 1 100 100;
