#N canvas 221 233 476 360 12;
#X obj 101 30 inlet;
#X obj 53 309 outlet;
#X obj 128 309 outlet;
#X obj 275 30 loadbang;
#X obj 275 61 pack \$1 \$2;
#X text 372 128 swap;
#X obj 275 94 moses;
#X obj 101 207 expr if(($f1>=$f2) && ($f1<=$f3) \, 1 \, 0);
#X obj 250 129 t f b;
#X obj 280 164 f \$2;
#X obj 317 129 t b f;
#X obj 317 164 f \$2;
#X obj 80 269 route 1 0;
#X obj 80 237 pack f f;
#X obj 101 61 t f f;
#X text 181 93 if Arg1 < Arg2;
#X text 323 94 if Arg1 >= Arg2;
#X text 205 181 Arg1;
#X text 381 185 Arg2;
#X connect 0 0 14 0;
#X connect 3 0 4 0;
#X connect 4 0 6 0;
#X connect 6 0 8 0;
#X connect 6 1 10 0;
#X connect 7 0 13 0;
#X connect 8 0 7 1;
#X connect 8 1 9 0;
#X connect 9 0 7 2;
#X connect 10 0 11 0;
#X connect 10 1 7 2;
#X connect 11 0 7 1;
#X connect 12 0 1 0;
#X connect 12 1 2 0;
#X connect 13 0 12 0;
#X connect 14 0 7 0;
#X connect 14 1 13 1;
