#N canvas 233 109 641 507 12;
#X obj 141 111 inlet;
#X obj 229 111 inlet;
#X obj 334 111 inlet;
#X obj 141 151 clip -30 30;
#X obj 229 151 clip 5 22050;
#X obj 334 151 clip 0.05 9;
#X obj 229 186 t b f;
#X obj 334 186 t b f;
#X obj 229 354 biquad~;
#X obj 230 378 outlet~;
#X obj 23 111 inlet~;
#X text 8 12 note: arguments are optional \; No arguments will default
to : 'peq~.abs 0dB 500Hz 0.5 octaves;
#X text 118 68 boost/cut;
#X text 109 86 (-30...30 dB);
#X text 217 68 center FQ;
#X text 208 87 (5...SR/2 Hz);
#X text 302 68 bandwidth in octaves;
#X text 333 86 (.05...9);
#X text 296 378 filtered signal output;
#X text 63 404 Has symmetrical cut and boost \; Bandwidth is always
measured at gain (in dB) / 2 \; Bandwidth and Center-frequency are
constrained such that: Center Fq. + bandwidth < SR/2;
#X obj 354 275 * -1;
#X obj 320 275 * -1;
#X obj 229 304 pack f f f f f;
#X msg 229 328 \$4 \$5 \$1 \$2 \$3;
#X text 392 277 *(-1) to adopt for pd's [biquad~];
#X text 344 330 -b1 -b2 a0 a1 a2;
#X text 389 246 a0 a1 a2 b1 b2;
#X obj 229 246 coef_bpass3~ 0 \$1 \$2;
#X connect 0 0 3 0;
#X connect 1 0 4 0;
#X connect 2 0 5 0;
#X connect 3 0 27 0;
#X connect 4 0 6 0;
#X connect 5 0 7 0;
#X connect 6 0 27 0;
#X connect 6 1 27 1;
#X connect 7 0 27 0;
#X connect 7 1 27 2;
#X connect 8 0 9 0;
#X connect 10 0 8 0;
#X connect 20 0 22 4;
#X connect 21 0 22 3;
#X connect 22 0 23 0;
#X connect 23 0 8 0;
#X connect 27 0 22 0;
#X connect 27 1 22 1;
#X connect 27 2 22 2;
#X connect 27 3 21 0;
#X connect 27 4 20 0;
