#N canvas 500 185 493 400 12;
#X obj 171 269 +~;
#X obj 187 166 osc~;
#X obj 186 210 *~;
#X text 217 211 modulator amplitude;
#X obj 170 317 osc~;
#X obj 171 355 outlet~;
#X text 53 84 Carrier frequency;
#X text 167 22 Harmonicity ratio;
#X text 289 76 Modulation index;
#X text 228 356 FM signal;
#X obj 171 85 inlet~;
#X obj 202 43 inlet~;
#X obj 242 75 inlet~;
#X obj 187 120 *~;
#X obj 225 166 *~;
#X text 323 94 (Mi);
#X text 88 103 (Fc);
#X text 279 23 (H);
#X text 204 270 Fout = Fc + Am;
#X text 214 122 Fm = Fc * H;
#X text 218 230 Am = -Fc*H*Mi \, ... \, +Fc*H*Mi;
#X text 38 316 carrier oscillator ->;
#X text 17 164 modulating oscillator ->;
#X connect 0 0 4 0;
#X connect 1 0 2 0;
#X connect 2 0 0 1;
#X connect 4 0 5 0;
#X connect 10 0 0 0;
#X connect 10 0 13 0;
#X connect 11 0 13 1;
#X connect 12 0 14 1;
#X connect 13 0 1 0;
#X connect 13 0 14 0;
#X connect 14 0 2 1;
