#N canvas 299 265 389 281 10;
#X obj 22 42 inlet~;
#X obj 55 65 inlet;
#X obj 22 186 outlet~;
#X text 15 229 (c) musil@iem.kug.ac.at;
#X text 57 242 IEM KUG;
#X text 62 42 ~signal_in~;
#X obj 88 89 inlet;
#X text 191 113 <float> interpolation_time [ms];
#X text 28 157 ~filtered signal_out~;
#X obj 155 113 inlet;
#X text 91 64 <float> center_frequency [Hz];
#X text 32 254 graz \, austria 2001;
#X text 64 9 bandstop 2.order with bandwidth-inlet;
#X text 123 89 <float> bandwidth [Hz];
#X text 11 9 bsw2~;
#X obj 22 136 filter~ bsw2 \$1 \$2 1 \$3;
#X text 97 178 1.arg: <float> center_frequency [Hz];
#X text 97 188 2.arg: <float> bandwidth [Hz];
#X text 97 198 3.arg: <float> interpolation_time [ms] (opt.);
#X connect 0 0 15 0;
#X connect 1 0 15 1;
#X connect 6 0 15 2;
#X connect 9 0 15 4;
#X connect 15 0 2 0;
