#N canvas 12 93 431 198 10;
#X obj 15 70 tgl 30 0 \$0dsp_tgl \$0dsp_tgl empty 0 -6 1728 8 -262144
-258699 -1 0 1;
#N canvas 16 113 486 500 dsp 0;
#X obj 20 65 inlet;
#X obj 20 406 outlet;
#X obj 20 199 cputime;
#X obj 20 178 t b b;
#X text 15 11 dsp;
#X text 48 439 (c) musil@iem.kug.ac.at;
#X text 90 452 IEM KUG;
#X text 59 65 1/0 = ON/OFF;
#X text 97 313 CPU-load;
#X obj 62 126 loadbang;
#X obj 20 126 sel 1;
#X text 65 464 graz \, austria 2001;
#X text 64 12 turn dsp-kernel on & off \,;
#X obj 20 240 t f f;
#X obj 51 263 once;
#X obj 211 405 outlet;
#X text 65 408 average;
#X text 177 405 peak;
#X obj 211 154 f;
#X obj 146 179 > -1;
#X obj 169 155 f -1;
#X obj 179 91 t f b f;
#X obj 146 204 sel 1;
#X obj 192 132 f -1;
#X obj 20 154 metro 500;
#X obj 20 220 * 0.2;
#X text 74 37 -dsp-load in %;
#X text 65 24 measure average- and peak-;
#X obj 20 292 1p1z 0.1 0 0.9;
#X obj 20 315 * 100;
#X obj 20 360 int;
#X obj 20 338 + 0.499;
#X obj 20 383 * 0.01;
#X obj 306 207 r pd;
#X obj 306 231 route dsp;
#X obj 306 257 route float;
#X obj 146 227 del 3990;
#X obj 306 328 outlet;
#X msg 306 301 set \$1;
#X msg 20 88 \; pd dsp \$1;
#X connect 0 0 39 0;
#X connect 2 0 25 0;
#X connect 3 0 2 0;
#X connect 3 1 2 1;
#X connect 9 0 24 0;
#X connect 10 0 24 0;
#X connect 13 0 28 0;
#X connect 13 1 14 0;
#X connect 14 0 28 5;
#X connect 14 0 28 4;
#X connect 18 0 20 1;
#X connect 18 0 15 0;
#X connect 19 0 22 0;
#X connect 20 0 19 1;
#X connect 21 0 19 0;
#X connect 21 1 20 0;
#X connect 21 2 18 1;
#X connect 22 0 18 0;
#X connect 22 0 36 0;
#X connect 23 0 20 1;
#X connect 24 0 3 0;
#X connect 25 0 13 0;
#X connect 25 0 21 0;
#X connect 28 0 29 0;
#X connect 29 0 31 0;
#X connect 30 0 32 0;
#X connect 31 0 30 0;
#X connect 32 0 1 0;
#X connect 33 0 34 0;
#X connect 34 0 35 0;
#X connect 35 0 10 0;
#X connect 35 0 38 0;
#X connect 36 0 23 0;
#X connect 38 0 37 0;
#X restore 133 89 pd dsp;
#X obj 29 143 outlet;
#X obj 100 143 outlet;
#X floatatom 185 133 5 0 0 0 - - -;
#X floatatom 185 70 5 0 0 2 CPU - -;
#X connect 0 0 1 0;
#X connect 1 0 5 0;
#X connect 1 1 4 0;
#X connect 1 2 0 0;
#X connect 4 0 3 0;
#X connect 5 0 2 0;
#X coords 0 0 1 1 80 50 1;
