#N canvas 545 52 820 826 10;
#X obj 5 5 cnv 15 800 40 empty empty my_grainer~_tutorial:_04_-_grain_waveform
3 12 0 18 -204280 -1 0;
#X obj 6 710 cnv 15 800 50 empty empty empty 3 12 0 18 -203904 -1 0
;
#X obj 515 28 pddplink http://puredata.info/Members/pdiliscia/grainer/
;
#X text 797 29 );
#X obj 587 292 vradio 35 1 0 5 gtable-ctrl-GUIout gtable-ctrl-GUIin
empty 0 -8 0 10 -262144 -1 -1 0;
#X obj 85 317 output~;
#N canvas 580 315 450 300 (subpatch) 0;
#X array \$0-oboe 70800 float 2 black black;
#X coords 0 1 70800 -1 200 20 1;
#X restore 384 335 graph;
#N canvas 0 0 450 300 (subpatch) 0;
#X array \$0-clarinete 70003 float 2 black black;
#X coords 0 1 70003 -1 200 20 1;
#X restore 384 370 graph;
#N canvas 0 0 450 300 (subpatch) 0;
#X array \$0-fagot 62188 float 2 black black;
#X coords 0 1 62188 -1 200 20 1;
#X restore 384 405 graph;
#N canvas 0 0 450 300 (subpatch) 0;
#X array \$0-female-voice 160087 float 2 black black;
#X coords 0 1 160087 -1 200 20 1;
#X restore 384 440 graph;
#N canvas 0 0 450 300 (subpatch) 0;
#X array \$0-flauta 80900 float 2 black black;
#X coords 0 1 80900 -1 200 20 1;
#X restore 384 300 graph;
#X obj 413 507 tgl 15 0 \$0-shuffleOnOffGUIout \$0-shuffleOnOffGUIin
empty 17 7 0 10 -262144 -1 -1 0 1;
#X floatatom 480 506 5 0 0 0 - #0-shuffleTimeGUIin #0-shuffleTimeGUIout
, f 5;
#X text 431 504 on/off;
#N canvas 55 131 1145 671 activeWaveform 0;
#X obj 106 163 hsl 240 8 0 1 0 0 \$0-activeWaveform-selectionStartGUIout
\$0-activeWaveform-selectionStartGUIin empty -2 -8 0 10 -262144 -1
-1 2390 1;
#X obj 129 104 cnv 1 216 57 empty \$0-activeWaveform-selectionGUI empty
20 12 0 14 -225271 -262144 0;
#N canvas 1 73 883 555 (subpatch) 0;
#X array activeWaveform 62188 float 2 black black;
#X coords 0 1 62188 -1 240 60 1;
#X restore 539 25 graph;
#X obj 839 613 s \$0-activeWaveform-selectionGUI;
#X msg 848 588 vis_size \$1 57;
#X msg 839 389 pos \$1 104;
#X obj 107 195 hsl 240 8 0 1 0 0 \$0-activeWaveform-selectionEndGUIout
\$0-activeWaveform-selectionEndGUIin empty -2 -8 0 10 -262144 -1 -1
23900 1;
#X floatatom 848 565 5 0 0 0 - - -, f 5;
#X obj 157 545 outlet;
#X floatatom 78 286 5 0 0 0 - - -, f 5;
#X floatatom 338 286 5 0 0 0 - - -, f 5;
#X obj 78 312 min;
#X floatatom 56 498 5 0 0 0 - - -, f 5;
#X floatatom 316 498 5 0 0 0 - - -, f 5;
#X obj 338 312 max;
#X obj 338 226 r \$0-activeWaveform-selectionEndGUIout;
#X obj 78 226 r \$0-activeWaveform-selectionStartGUIout;
#X obj 838 23 r \$0-activeWaveform-selectionFixGUIout;
#X obj 838 43 tgl 15 0 empty empty empty 17 7 0 10 -262144 -1 -1 0
1;
#X obj 839 174 -;
#X obj 839 148 f;
#X obj 849 117 t b f;
#X obj 839 75 r \$0-activeWaveform-selectionEndGUIout;
#X obj 849 97 r \$0-activeWaveform-selectionStartGUIout;
#X floatatom 839 278 5 0 0 0 - - -, f 5;
#X obj 839 195 max 0;
#X text 879 277 ancho;
#N canvas 437 320 689 357 escalamientoRango 0;
#X text 127 52 min;
#X text 212 52 max;
#X text 294 52 min;
#X text 382 52 max;
#X obj 41 80 inlet;
#X obj 41 264 outlet;
#X obj 456 86 loadbang;
#X text 167 29 input;
#X text 327 29 output;
#X obj 41 173 expr (1 - (($f3-$f1) / ($f3 - $f2))) * ($f5 - $f4) +
$f4;
#X msg 134 103 0;
#X msg 300 103 0;
#X obj 124 80 inlet;
#X obj 207 77 inlet;
#X obj 290 80 inlet;
#X obj 374 80 inlet;
#X msg 217 103 1;
#X msg 384 103 240;
#X connect 4 0 9 0;
#X connect 6 0 10 0;
#X connect 6 0 16 0;
#X connect 6 0 11 0;
#X connect 6 0 17 0;
#X connect 9 0 5 0;
#X connect 10 0 9 1;
#X connect 11 0 9 3;
#X connect 12 0 9 1;
#X connect 13 0 9 2;
#X connect 14 0 9 3;
#X connect 15 0 9 4;
#X connect 16 0 9 2;
#X connect 17 0 9 4;
#X restore 848 543 pd escalamientoRango;
#X text 91 499 inicio;
#X text 351 499 final;
#X obj 56 466 switch 2;
#X obj 56 425 r \$0-activeWaveform-selectionFixGUIout;
#X obj 56 445 + 1;
#X obj 316 466 switch 2;
#X obj 316 359 r \$0-activeWaveform-selectionFixGUIout;
#X obj 316 379 + 1;
#X obj 361 424 +;
#X obj 361 382 r \$0-activeWaveform-selectionStartGUIout;
#X obj 839 256 spigot;
#X obj 872 216 r \$0-activeWaveform-selectionFixGUIout;
#X obj 872 236 invert;
#X obj 361 445 min 1;
#X obj 839 298 s \$0-activeWaveform-selectionGUIwidth;
#X obj 376 402 r \$0-activeWaveform-selectionGUIwidth;
#X obj 848 522 -;
#X obj 879 481 t b f;
#X obj 848 498 f;
#X obj 338 266 f;
#X obj 78 266 f;
#X obj 527 524 s \$0-activeWaveform-selectionEndGUIin;
#X obj 527 503 spigot;
#X obj 560 424 r \$0-activeWaveform-selectionFixGUIout;
#X obj 527 462 sel 0;
#X obj 560 445 t f f;
#X obj 527 483 f;
#X obj 848 441 r \$0-activeWaveform-selectionEnd;
#X obj 316 577 s \$0-activeWaveform-selectionEnd;
#X obj 56 578 s \$0-activeWaveform-selectionStart;
#X obj 839 346 r \$0-activeWaveform-selectionStart;
#X obj 879 461 r \$0-activeWaveform-selectionStart;
#X text 882 566 ancho GUI;
#N canvas 494 598 450 300 autopack2 0;
#X obj 160 87 inlet;
#X obj 200 87 inlet;
#X obj 200 110 t b f;
#X obj 160 173 outlet;
#X obj 160 147 pack f f;
#X connect 0 0 4 0;
#X connect 1 0 2 0;
#X connect 2 0 4 0;
#X connect 2 1 4 1;
#X connect 4 0 3 0;
#X restore 157 514 pd autopack2;
#N canvas 435 325 689 357 escalamientoRango 0;
#X text 127 52 min;
#X text 212 52 max;
#X text 294 52 min;
#X text 382 52 max;
#X obj 41 80 inlet;
#X obj 41 264 outlet;
#X obj 456 86 loadbang;
#X text 167 29 input;
#X text 327 29 output;
#X obj 41 173 expr (1 - (($f3-$f1) / ($f3 - $f2))) * ($f5 - $f4) +
$f4;
#X msg 134 103 0;
#X obj 124 80 inlet;
#X obj 207 77 inlet;
#X obj 290 80 inlet;
#X obj 374 80 inlet;
#X msg 217 103 1;
#X msg 300 103 105;
#X msg 384 103 345;
#X connect 4 0 9 0;
#X connect 6 0 10 0;
#X connect 6 0 15 0;
#X connect 6 0 16 0;
#X connect 6 0 17 0;
#X connect 9 0 5 0;
#X connect 10 0 9 1;
#X connect 11 0 9 1;
#X connect 12 0 9 2;
#X connect 13 0 9 3;
#X connect 14 0 9 4;
#X connect 15 0 9 2;
#X connect 16 0 9 3;
#X connect 17 0 9 4;
#X restore 839 368 pd escalamientoRango;
#X obj 27 79 loadbang;
#X msg 61 178 1;
#X obj 275 66 tgl 10 0 \$0-activeWaveform-selectionFixGUIout \$0-activeWaveform-selectionFixGUIin
empty 17 7 0 10 -262144 -1 -1 0 1;
#X text 287 62 fix size;
#X msg 275 46 0;
#X obj 275 25 loadbang;
#X msg 44 146 0.1;
#X obj 27 119 t b b b b;
#X obj 78 246 pipe 1;
#X obj 338 246 pipe 1;
#X obj 235 174 nbx 5 10 0 1e+37 0 0 empty empty empty 0 -8 0 10 -262144
-1 -1 0.1 256 0;
#X obj 27 99 del 1;
#X obj 395 137 r \$0-mess;
#X obj 395 157 route gst;
#X text 289 170 secs;
#X text 141 169 starting point:;
#X msg 360 146 0;
#X obj 360 115 r \$0-updateWaveformStart;
#X connect 4 0 3 0;
#X connect 5 0 3 0;
#X connect 7 0 4 0;
#X connect 9 0 11 0;
#X connect 9 0 14 1;
#X connect 9 0 30 2;
#X connect 10 0 14 0;
#X connect 10 0 11 1;
#X connect 11 0 30 1;
#X connect 12 0 57 0;
#X connect 12 0 61 0;
#X connect 13 0 56 0;
#X connect 13 0 61 1;
#X connect 14 0 33 1;
#X connect 15 0 72 0;
#X connect 16 0 71 0;
#X connect 17 0 18 0;
#X connect 19 0 25 0;
#X connect 20 0 19 0;
#X connect 21 0 20 0;
#X connect 21 1 19 1;
#X connect 22 0 20 0;
#X connect 23 0 21 0;
#X connect 24 0 42 0;
#X connect 25 0 38 0;
#X connect 27 0 7 0;
#X connect 30 0 12 0;
#X connect 31 0 32 0;
#X connect 32 0 30 0;
#X connect 33 0 13 0;
#X connect 33 0 54 0;
#X connect 34 0 35 0;
#X connect 35 0 33 0;
#X connect 36 0 41 0;
#X connect 37 0 36 0;
#X connect 38 0 24 0;
#X connect 39 0 40 0;
#X connect 40 0 38 1;
#X connect 41 0 33 2;
#X connect 43 0 36 1;
#X connect 44 0 27 0;
#X connect 45 0 46 0;
#X connect 45 1 44 1;
#X connect 46 0 44 0;
#X connect 47 0 10 0;
#X connect 48 0 9 0;
#X connect 50 0 49 0;
#X connect 51 0 53 0;
#X connect 52 0 54 0;
#X connect 53 0 50 1;
#X connect 53 1 52 0;
#X connect 54 0 50 0;
#X connect 55 0 46 0;
#X connect 58 0 62 0;
#X connect 59 0 45 0;
#X connect 61 0 8 0;
#X connect 62 0 5 0;
#X connect 63 0 74 0;
#X connect 64 0 6 0;
#X connect 67 0 65 0;
#X connect 68 0 67 0;
#X connect 69 0 0 0;
#X connect 70 1 69 0;
#X connect 70 2 64 0;
#X connect 71 0 48 0;
#X connect 72 0 47 0;
#X connect 74 0 70 0;
#X connect 75 0 76 0;
#X connect 76 0 73 0;
#X connect 79 0 0 0;
#X connect 80 0 79 0;
#X coords 0 -1 1 1 57 15 2 538 102;
#X restore 58 563 pd activeWaveform;
#X text 51 473 INCR;
#X text 53 433 SIZE;
#X text 56 453 GAP;
#X obj 90 456 hsl 128 15 0.02 2 1 0 \$0-gapGUIout \$0-gapGUIin empty
-2 -8 0 10 -262144 -1 -1 0 1;
#X obj 90 436 hsl 128 15 0.02 2 1 0 \$0-sizeGUIout \$0-sizeGUIin empty
-2 -8 0 10 -262144 -1 -1 3550 1;
#X obj 90 476 hsl 128 15 0.02 2 1 0 \$0-incrGUIout \$0-incrGUIin empty
-2 -8 0 10 -262144 -1 -1 10788 1;
#N canvas 197 86 1148 748 setup 0;
#N canvas 0 0 450 300 (subpatch) 0;
#X array \$0-envelope 121 float 0 black black;
#X coords 0 1 120 0 250 50 1;
#X restore 570 137 graph;
#X text 553 281 SIZE;
#X text 645 281 INCR;
#X text 742 281 START;
#X text 940 281 AMP;
#X text 682 293 rnd dev;
#X text 491 293 rnd dev;
#X text 457 281 GAP;
#X text 450 293 (secs);
#X text 549 293 (secs);
#X text 587 293 rnd dev;
#X text 638 293 (ref:1);
#X text 739 293 (ini:0);
#X text 783 293 rnd dev;
#X text 935 293 (0-1);
#X text 971 293 rnd dev;
#X text 835 293 (ini:0);
#X text 879 293 rnd dev;
#X text 838 281 END;
#X obj 1061 298 loadbang;
#X msg 503 315 gar 0;
#X msg 599 315 gsr 0;
#X msg 645 315 gf 1;
#X msg 689 315 gfr 0;
#X msg 745 315 gst 0;
#X msg 791 315 gstr 0;
#X msg 887 315 genr 0;
#X msg 937 315 ag 1;
#X msg 981 315 agr 0;
#X obj 1069 332 s \$0-mess;
#X obj 243 167 soundfiler;
#X obj 216 87 loadbang;
#X obj 216 207 s \$0-mess;
#X obj 476 576 s \$0-mess;
#X msg 476 554 gf \$1;
#X floatatom 476 532 5 0 0 0 - - -, f 5;
#X obj 694 577 s \$0-mess;
#X msg 694 555 ga \$1;
#X obj 585 577 s \$0-mess;
#X msg 585 555 gs \$1;
#X floatatom 585 532 5 0 0 0 - - -, f 5;
#X floatatom 694 532 5 0 0 0 - - -, f 5;
#X obj 694 511 r \$0-gapGUIout;
#X obj 585 511 r \$0-sizeGUIout;
#X obj 476 511 r \$0-incrGUIout;
#X obj 476 480 s \$0-incrGUIin;
#X obj 585 480 s \$0-sizeGUIin;
#X obj 694 480 s \$0-gapGUIin;
#X msg 476 459 1;
#X obj 426 422 loadbang;
#X obj 426 442 del 1;
#X text 224 59 Grain Envelope;
#X text 654 249 my_grainer initial values;
#X text 638 401 GUI setup;
#X msg 585 459 0.25;
#X msg 694 459 0.3;
#X msg 804 459 1;
#X obj 804 577 s \$0-mess;
#X msg 804 555 ag \$1;
#X obj 804 480 s \$0-ampGUIin;
#X obj 804 510 r \$0-ampGUIout;
#X floatatom 804 533 5 0 0 0 - - -, f 5;
#X text 522 11 my_grainer's initial setup;
#X obj 216 107 f \$0;
#X msg 243 147 read -resize envelopes/01-gaussian.wav \$1-envelope
;
#X msg 216 187 atab \$1-envelope;
#X obj 216 127 t f f;
#X msg 546 315 gs 0.25;
#X msg 455 315 ga 0.3;
#X msg 841 315 gen 0;
#X obj 1061 52 r \$0-reset;
#X obj 1061 72 bng 15 250 50 0 empty empty empty 17 7 0 10 -262144
-1 -1;
#X obj 1061 425 b;
#X msg 902 125 0;
#X text 522 27 **************************;
#X obj 902 146 s gtable-ctrl-GUIin;
#X obj 902 104 del 1;
#X obj 919 481 s \$0-shuffleOnOffGUIin;
#X msg 919 459 0;
#X msg 82 144 start;
#X msg 39 143 stop;
#X obj 39 167 s \$0-mess;
#X obj 39 102 tgl 15 0 empty empty empty 17 7 0 10 -262144 -1 -1 0
1;
#X obj 82 122 sel 1;
#X obj 39 122 sel 0;
#X text 39 59 Start / Stop;
#X obj 39 80 r \$0-StartStop-GUIout;
#X obj 40 395 r \$0-print;
#X msg 40 416 print;
#X obj 40 437 s \$0-mess;
#X text 39 375 Print;
#X obj 39 210 r \$0-pause-GUIout;
#X msg 39 232 pause \$1;
#X obj 39 254 s \$0-mess;
#X text 38 190 Pause;
#X obj 39 348 s \$0-mess;
#X msg 39 326 post_ctrl \$1;
#X obj 39 304 r \$0-postCtrl-GUIout;
#X text 38 282 Post Control;
#X obj 39 505 f \$0;
#X obj 39 483 loadbang;
#X msg 39 527 \; \$1-postCtrl-GUIin 1 \; \$1-StartStop-GUIin 0 \;;
#X text 34 12 General Purpose Messages;
#X text 34 25 ************************;
#X obj 198 13 cnv 1 1 700 empty empty empty 20 12 0 14 -228856 -66577
0;
#X obj 39 687 outlet;
#X obj 39 664 r \$0-mess;
#X connect 19 0 68 0;
#X connect 19 0 20 0;
#X connect 19 0 67 0;
#X connect 19 0 21 0;
#X connect 19 0 22 0;
#X connect 19 0 23 0;
#X connect 19 0 24 0;
#X connect 19 0 25 0;
#X connect 19 0 69 0;
#X connect 19 0 26 0;
#X connect 19 0 27 0;
#X connect 19 0 28 0;
#X connect 20 0 29 0;
#X connect 21 0 29 0;
#X connect 22 0 29 0;
#X connect 23 0 29 0;
#X connect 24 0 29 0;
#X connect 25 0 29 0;
#X connect 26 0 29 0;
#X connect 27 0 29 0;
#X connect 28 0 29 0;
#X connect 31 0 63 0;
#X connect 31 0 76 0;
#X connect 34 0 33 0;
#X connect 35 0 34 0;
#X connect 37 0 36 0;
#X connect 39 0 38 0;
#X connect 40 0 39 0;
#X connect 41 0 37 0;
#X connect 42 0 41 0;
#X connect 43 0 40 0;
#X connect 44 0 35 0;
#X connect 48 0 45 0;
#X connect 49 0 50 0;
#X connect 50 0 48 0;
#X connect 50 0 54 0;
#X connect 50 0 55 0;
#X connect 50 0 56 0;
#X connect 50 0 78 0;
#X connect 54 0 46 0;
#X connect 55 0 47 0;
#X connect 56 0 59 0;
#X connect 58 0 57 0;
#X connect 60 0 61 0;
#X connect 61 0 58 0;
#X connect 63 0 66 0;
#X connect 64 0 30 0;
#X connect 65 0 32 0;
#X connect 66 0 65 0;
#X connect 66 1 64 0;
#X connect 67 0 29 0;
#X connect 68 0 29 0;
#X connect 69 0 29 0;
#X connect 70 0 71 0;
#X connect 71 0 72 0;
#X connect 72 0 50 0;
#X connect 73 0 75 0;
#X connect 76 0 73 0;
#X connect 78 0 77 0;
#X connect 79 0 81 0;
#X connect 80 0 81 0;
#X connect 82 0 83 0;
#X connect 82 0 84 0;
#X connect 83 0 79 0;
#X connect 84 0 80 0;
#X connect 86 0 82 0;
#X connect 87 0 88 0;
#X connect 88 0 89 0;
#X connect 91 0 92 0;
#X connect 92 0 93 0;
#X connect 96 0 95 0;
#X connect 97 0 96 0;
#X connect 99 0 101 0;
#X connect 100 0 99 0;
#X connect 106 0 105 0;
#X restore 86 235 pd setup;
#X floatatom 224 455 5 0 0 0 - #0-gapGUIout -, f 5;
#X floatatom 224 435 5 0 0 0 - #0-sizeGUIout -, f 5;
#X floatatom 224 475 5 0 0 0 - #0-incrGUIout -, f 5;
#X text 644 436 female-speech;
#X text 644 448 female-sing;
#X obj 627 437 vradio 14 1 0 2 \$0-femaleVoiceContentGUI empty empty
0 -8 0 10 -262144 -1 -1 0;
#X obj 5 51 cnv 10 800 160 empty empty empty 8 12 0 13 -228856 -1 0
;
#X text 404 140 usegtn (float): use the table number (float) for the
audio of the next grain. The table (float) must have been requested
previously. Tables are numbered starting from 0 in the order that were
requested.";
#X text 404 57 gtable tablename: request the use of table tablename
for the audio of the next grain. If the same tablename was previously
requested \, its contains is overwritten. If the user wants to request
a previously requested table with its contain unchanged \, then he/she
should use the usegtn message.;
#X text 629 492 may produce audio drops );
#X text 515 505 time (msecs);
#X text 413 485 Grain waveform shuffle mode;
#X obj 5 672 cnv 3 800 3 empty empty empty 8 12 0 13 -228856 -1 0;
#X text 5 28 A guide to manage granular synthesis through my_grainer~
;
#X text 346 28 (external by O.P. Di Liscia;
#X obj 6 765 cnv 15 800 40 empty empty empty 3 12 0 18 -203904 -1 0
;
#X text 204 783 (Consejo Nacional de Investigaciones Científicas y
Técnicas);
#X text 158 783 CONICET;
#X text 569 783 + UNQ (Universidad Nacional de Quilmes);
#X obj 551 767 pddplink http://puredata.info/author/damiananache/;
#X text 797 768 );
#X text 364 710 that is being developed by Oscar Pablo Di Liscia with
the;
#X text 712 710 collaboration;
#X text 10 710 my_grainer~ is a Pure Data external for granular synthesis
of Damián Anache and Esteban Calcagno as part of the;
#X text 323 723 research program "Sistemas Temporales y de Sintesis
;
#X text 640 723 Espacial en el Arte Sonoro";
#X text 10 737 (Universidad Nacional de Quilmes \, 2015-2019).;
#X text 236 767 mGT (my_grainer~ tutorial) by Damian Anache - 2016
(;
#X obj 90 496 hsl 128 15 0.02 2 1 0 \$0-ampGUIout \$0-ampGUIin empty
-2 -8 0 10 -262144 -1 -1 10788 1;
#X floatatom 224 496 5 0 0 0 - #0-ampGUIout -, f 5;
#X text 55 494 AMP;
#X text 113 415 GRAIN PARAMETERS;
#X text 56 526 Grain envelope is fixed on this patch.;
#X text 133 542 (see setup);
#N canvas 112 368 450 300 shuffleMode 0;
#X obj 120 219 metro 500;
#X obj 120 91 tgl 15 0 empty empty empty 17 7 0 10 -262144 -1 -1 0
1;
#X floatatom 171 198 5 0 0 0 - - -, f 5;
#X text 118 28 grain waveform shuffle mode;
#X obj 171 110 loadbang;
#X obj 171 152 s \$0-shuffleTimeGUIin;
#X obj 171 174 r \$0-shuffleTimeGUIout;
#X obj 120 70 r \$0-shuffleOnOffGUIout;
#X obj 120 239 shuffle 0 4;
#X msg 171 131 250;
#X obj 120 262 s gtable-ctrl-GUIin;
#X connect 0 0 8 0;
#X connect 1 0 0 0;
#X connect 2 0 0 1;
#X connect 4 0 9 0;
#X connect 6 0 2 0;
#X connect 7 0 1 0;
#X connect 8 0 10 0;
#X connect 9 0 5 0;
#X restore 718 682 pd shuffleMode;
#X text 457 221 Grain Waveform;
#X text 389 239 Selects the active table (by usegtn);
#X text 383 255 (see "waveformSetup" for more details);
#N canvas 155 39 1118 677 waveformSetup 0;
#X obj 534 526 prepend copy;
#X floatatom 581 460 0 0 0 0 - - -;
#X obj 581 440 arraysize;
#X msg 581 480 \; activeWaveform resize \$1;
#X obj 581 419 prepend set;
#X obj 554 399 t b a;
#X text 504 91 Active Waveform Display;
#X obj 869 130 inlet;
#X obj 869 151 unpack f f;
#X text 68 86 table selection;
#N canvas 433 330 689 357 escalamientoRango 0;
#X text 127 52 min;
#X text 212 52 max;
#X text 294 52 min;
#X text 382 52 max;
#X obj 41 80 inlet;
#X obj 41 264 outlet;
#X obj 456 86 loadbang;
#X text 167 29 input;
#X text 327 29 output;
#X obj 41 173 expr (1 - (($f3-$f1) / ($f3 - $f2))) * ($f5 - $f4) +
$f4;
#X msg 134 103 0;
#X obj 124 80 inlet;
#X obj 207 77 inlet;
#X obj 290 80 inlet;
#X obj 374 80 inlet;
#X msg 217 103 1;
#X msg 300 103 0;
#X msg 384 103 1;
#X connect 4 0 9 0;
#X connect 6 0 10 0;
#X connect 6 0 15 0;
#X connect 6 0 16 0;
#X connect 6 0 17 0;
#X connect 9 0 5 0;
#X connect 10 0 9 1;
#X connect 11 0 9 1;
#X connect 12 0 9 2;
#X connect 13 0 9 3;
#X connect 14 0 9 4;
#X connect 15 0 9 2;
#X connect 16 0 9 3;
#X connect 17 0 9 4;
#X restore 869 553 pd escalamientoRango;
#X msg 869 574 gst \$1;
#X obj 959 494 /;
#X obj 986 478 samplerate~;
#X obj 959 457 t f b;
#X obj 533 114 r \$0-mess;
#X obj 70 163 s \$0-mess;
#X obj 869 594 s \$0-mess;
#X obj 70 143 prepend usegtn;
#X obj 533 145 route usegtn;
#X obj 533 232 route 0 1 2 3 4;
#X obj 624 150 r \$0-updateActiveWaveform;
#X obj 533 167 any;
#X obj 68 582 s \$0-updateActiveWaveform;
#X obj 68 342 route 1 0;
#X obj 68 259 r \$0-femaleVoiceContentGUI;
#X text 68 228 female-voice table content;
#X text 858 88 Selection starting point scaling;
#X obj 869 533 f;
#X obj 959 516 t b f;
#X obj 515 582 s \$0-updateWaveformStart;
#X obj 515 378 t b a a;
#N canvas 613 345 774 528 waveformInitialSetup 0;
#X obj 56 405 soundfiler;
#X text 48 6 initial setup;
#X obj 53 64 loadbang;
#X obj 540 399 prepend gtab;
#X obj 540 419 s \$0-mess;
#X text 200 90 loading files in tables;
#X text 550 90 loading tables in my_grainer;
#X obj 53 84 f \$0;
#X msg 80 321 read -resize audioFiles/female-speech.wav \$1-female-voice
;
#X obj 53 104 t f f f f f;
#X obj 119 69 bng 15 250 50 0 empty empty empty 17 7 0 10 -262144 -1
-1;
#X msg 559 315 \$1-female-voice;
#X obj 53 298 t f f;
#X obj 116 128 t f f;
#X msg 607 145 \$1-flauta;
#X msg 143 150 read -resize audioFiles/flute-C7.wav \$1-flauta;
#X obj 100 168 t f f;
#X obj 84 212 t f f;
#X obj 68 257 t f f;
#X msg 127 193 read -resize audioFiles/oboe-C6.wav \$1-oboe;
#X msg 111 237 read -resize audioFiles/clarinet-C5.wav \$1-clarinete
;
#X msg 95 282 read -resize audioFiles/basoon-C4.wav \$1-fagot;
#X msg 596 185 \$1-oboe;
#X msg 583 229 \$1-clarinete;
#X msg 570 274 \$1-fagot;
#X connect 2 0 7 0;
#X connect 3 0 4 0;
#X connect 7 0 9 0;
#X connect 8 0 0 0;
#X connect 9 0 12 0;
#X connect 9 1 18 0;
#X connect 9 2 17 0;
#X connect 9 3 16 0;
#X connect 9 4 13 0;
#X connect 10 0 7 0;
#X connect 11 0 3 0;
#X connect 12 0 11 0;
#X connect 12 1 8 0;
#X connect 13 0 14 0;
#X connect 13 1 15 0;
#X connect 14 0 3 0;
#X connect 15 0 0 0;
#X connect 16 0 22 0;
#X connect 16 1 19 0;
#X connect 17 0 23 0;
#X connect 17 1 20 0;
#X connect 18 0 24 0;
#X connect 18 1 21 0;
#X connect 19 0 0 0;
#X connect 20 0 0 0;
#X connect 21 0 0 0;
#X connect 22 0 3 0;
#X connect 23 0 3 0;
#X connect 24 0 3 0;
#X restore 73 25 pd waveformInitialSetup;
#X obj 70 122 r gtable-ctrl-GUIout;
#X msg 533 341 \$1-flauta;
#X obj 578 190 f \$0;
#X obj 533 211 pack f f;
#X obj 578 169 loadbang;
#X msg 550 321 \$1-oboe;
#X msg 567 301 \$1-clarinete;
#X msg 602 261 \$1-female-voice;
#X msg 585 281 \$1-fagot;
#X obj 113 300 f \$0;
#X obj 68 321 pack f f;
#X obj 113 279 loadbang;
#X obj 534 548 arraycopy activeWaveform;
#X obj 95 467 soundfiler;
#X obj 95 542 prepend gtab;
#X obj 95 562 s \$0-mess;
#X msg 95 522 \$1-female-voice;
#X obj 68 502 t b f;
#X obj 68 427 t f f;
#X obj 120 405 soundfiler;
#X msg 120 385 read -resize audioFiles/female-speech.wav \$1-female-voice
;
#X obj 93 365 t f f;
#X msg 95 447 read -resize audioFiles/female-sing.wav \$1-female-voice
;
#X connect 0 0 45 0;
#X connect 1 0 3 0;
#X connect 2 0 1 0;
#X connect 2 0 14 0;
#X connect 4 0 2 0;
#X connect 5 0 2 0;
#X connect 5 1 4 0;
#X connect 7 0 8 0;
#X connect 8 0 28 0;
#X connect 10 0 11 0;
#X connect 11 0 17 0;
#X connect 12 0 29 0;
#X connect 13 0 12 1;
#X connect 14 0 12 0;
#X connect 14 1 13 0;
#X connect 18 0 16 0;
#X connect 19 0 22 0;
#X connect 20 0 34 0;
#X connect 20 1 38 0;
#X connect 20 2 39 0;
#X connect 20 3 41 0;
#X connect 20 4 40 0;
#X connect 21 0 22 0;
#X connect 22 0 36 0;
#X connect 24 0 51 0;
#X connect 24 1 54 0;
#X connect 25 0 43 0;
#X connect 28 0 10 0;
#X connect 29 0 28 0;
#X connect 29 1 10 4;
#X connect 31 0 30 0;
#X connect 31 1 0 0;
#X connect 31 2 5 0;
#X connect 33 0 18 0;
#X connect 34 0 31 0;
#X connect 35 0 36 1;
#X connect 36 0 20 0;
#X connect 37 0 35 0;
#X connect 38 0 31 0;
#X connect 39 0 31 0;
#X connect 40 0 31 0;
#X connect 41 0 31 0;
#X connect 42 0 43 1;
#X connect 43 0 24 0;
#X connect 44 0 42 0;
#X connect 47 0 48 0;
#X connect 49 0 47 0;
#X connect 50 0 23 0;
#X connect 50 1 49 0;
#X connect 51 0 50 0;
#X connect 51 1 55 0;
#X connect 53 0 52 0;
#X connect 54 0 50 0;
#X connect 54 1 53 0;
#X connect 55 0 46 0;
#X restore 58 584 pd waveformSetup;
#X text 624 467 (tables' content changes;
#X text 647 479 during performance;
#X obj 86 292 my_grainer~ 1;
#X obj 173 273 bng 15 250 50 0 \$0-reset empty Reset 17 7 0 10 -262144
-1 -1;
#X obj 257 233 tgl 15 0 \$0-pause-GUIout \$0-pause-GUIin Pause 17 7
0 10 -262144 -1 -1 0 1;
#X obj 257 253 bng 15 250 50 0 \$0-print empty Print 17 7 0 10 -262144
-1 -1;
#X obj 173 233 tgl 15 0 \$0-StartStop-GUIout \$0-StartStop-GUIin Start/Stop
17 7 0 10 -262144 -1 -1 0 1;
#X obj 173 253 tgl 15 0 \$0-postCtrl-GUIout \$0-postCtrl-GUIin Post_Ctrl
17 7 0 10 -262144 -1 -1 1 1;
#X text 18 57 "my_grainer~ uses a "pool" of tables (max. 24 tables
for audio and 24 tables for envelopes). Each table is requested by
means of a special message (see below). The last table requested (either
for audio or for the envelope) will be used in the next grain to be
synthesized. If there are overlapping grains (i.e. \, that are not
yet finished) \, these will be finished using the previous requested
tables in order to avoid discontinuities. Note that if the user delete
a table that is in use \, audio discontinuities will happen \, however.
;
#X obj 388 604 s mess0;
#X obj 86 261 r mess0;
#X msg 388 584 gtab_table 0 1 2 3;
#X msg 388 564 gtab_table;
#X text 388 545 alternative method for table shuffling;
#X connect 14 0 60 0;
#X connect 21 0 63 0;
#X connect 63 0 5 0;
#X connect 63 0 5 1;
#X connect 71 0 63 0;
#X connect 72 0 70 0;
#X connect 73 0 70 0;
#X coords 0 826 1 825 85 60 0;
