#N canvas 369 582 685 305 10;
#X obj 218 -19 gemhead;
#X msg 42 192 4;
#X obj 517 13 gemhead;
#X obj 517 34 world_light;
#X msg 183 197 2;
#X msg 322 202 -3;
#X msg 463 221 -5;
#X obj 218 78 rotateXYZ 0 0 0;
#X floatatom 236 52 5 0 0 0 - - -;
#X floatatom 286 52 5 0 0 0 - - -;
#X obj 88 144 loadbang;
#X obj 61 17 inlet;
#X obj 42 221 s sceleton/scale;
#X obj 183 222 s sceleton/offset;
#X obj 322 223 s sceleton/z_scale;
#X obj 463 244 s sceleton/z_offset;
#X obj 61 61 s sceleton/joint;
#X obj 218 103 s sceleton/gemhead;
#X obj 61 38 route joint;
#X text 330 49 ROTATE SCELETON;
#N canvas 465 367 610 353 joint_orientation 0;
#X obj 60 42 r sceleton/joint;
#X obj 60 84 unpack f f f f f f f f f;
#X floatatom 266 102 5 0 0 0 - - -;
#X obj 148 110 * 57.2958;
#X obj 208 130 * 57.2958;
#X obj 278 130 * 57.2958;
#X obj 380 192 translateXYZ 0 0 0;
#X obj 378 268 cylinder;
#X obj 378 228 rotateXYZ 0 0 0;
#X text 297 44 not sure about right computation of euler angles!!;
#X obj 60 62 route head;
#X obj 378 303 rectangle 2 0.3;
#X obj 380 146 alpha;
#X obj 380 169 color 1 1 1 0.4;
#X obj 380 124 gemhead 70;
#X text 178 22 userid \, x \, y \, z \, posconfidence;
#X text 381 23 (xrot \, yrot \, zrot \, rotconfidence);
#X text 380 10 if euler_output 1;
#X text 105 22 joint_name;
#X obj 488 73 initbang;
#X msg 488 93 0;
#X connect 0 0 10 0;
#X connect 1 5 3 0;
#X connect 1 6 4 0;
#X connect 1 7 5 0;
#X connect 1 8 2 0;
#X connect 4 0 8 3;
#X connect 6 0 8 0;
#X connect 7 0 11 0;
#X connect 8 0 7 0;
#X connect 10 0 1 0;
#X connect 12 0 13 0;
#X connect 13 0 6 0;
#X connect 14 0 12 0;
#X connect 19 0 20 0;
#X connect 20 0 14 0;
#X restore 23 118 pd joint_orientation;
#N canvas 285 361 658 378 joints 1;
#X obj 266 22 Pix_openni/joint head;
#X obj 267 53 Pix_openni/joint neck;
#X obj 265 80 Pix_openni/joint torso;
#X obj 356 106 Pix_openni/joint r_shoulder;
#X obj 450 130 Pix_openni/joint r_elbow;
#X obj 525 155 Pix_openni/joint r_hand;
#X obj 342 208 Pix_openni/joint r_hip;
#X obj 373 260 Pix_openni/joint r_knee;
#X obj 414 336 Pix_openni/joint r_foot;
#X obj 115 348 Pix_openni/joint l_foot;
#X obj 122 278 Pix_openni/joint l_knee;
#X obj 179 207 Pix_openni/joint l_hip;
#X obj 50 142 Pix_openni/joint l_elbow;
#X obj -52 172 Pix_openni/joint l_hand;
#X obj 119 109 Pix_openni/joint l_shoulder;
#X restore 22 96 pd joints;
#X obj 218 23 translateXYZ 0 0 -1;
#X obj 656 112 * 1;
#X obj 656 151 - 0;
#N canvas 0 0 450 300 handd 0;
#X obj 471 58 route l_hand;
#X obj 571 88 unpack f f f f;
#X obj 602 123 * 1;
#X obj 634 122 * 1;
#X obj 666 122 * 1;
#X obj 602 164 - 0;
#X obj 634 163 - 0;
#X obj 666 161 - 0;
#X obj 634 182 * -1;
#X obj 431 28 inlet;
#X obj 367 199 output~;
#X obj 346 84 osc~;
#X floatatom 317 51 5 0 0 0 - - -;
#X floatatom 495 162 5 0 0 0 - - -;
#X obj 503 223 autoscale 200 2000;
#X connect 0 0 1 0;
#X connect 1 1 2 0;
#X connect 1 2 3 0;
#X connect 1 3 4 0;
#X connect 2 0 5 0;
#X connect 3 0 6 0;
#X connect 4 0 7 0;
#X connect 5 0 13 0;
#X connect 5 0 14 0;
#X connect 6 0 8 0;
#X connect 9 0 0 0;
#X connect 11 0 10 0;
#X connect 12 0 11 0;
#X connect 14 0 11 0;
#X restore 332 156 pd handd;
#X text 399 157 << hand oscillator;
#X connect 0 0 22 0;
#X connect 1 0 12 0;
#X connect 2 0 3 0;
#X connect 4 0 13 0;
#X connect 5 0 14 0;
#X connect 6 0 15 0;
#X connect 7 0 17 0;
#X connect 8 0 7 1;
#X connect 9 0 7 2;
#X connect 10 0 1 0;
#X connect 10 0 4 0;
#X connect 10 0 5 0;
#X connect 10 0 6 0;
#X connect 11 0 18 0;
#X connect 18 0 16 0;
#X connect 18 0 25 0;
#X connect 22 0 7 0;
#X connect 23 0 24 0;
