#N canvas 1811 350 450 417 10;
#X obj 113 95 list split 1;
#X obj 113 268 list append;
#X obj 113 320 outlet;
#X obj 113 151 matchbox OSC;
#X obj 113 124 t s s;
#X obj 192 197 symbol;
#X obj 192 177 select 0;
#X obj 113 235 t l;
#X obj 243 109 s sendreceive_getName;
#X obj 243 130 r sendreceive_setName;
#X msg 251 88 bang;
#X obj 243 39 loadbang;
#X obj 243 63 del 2000;
#X obj 113 294 list trim;
#X text 63 360 LATER remove this from the NET-module \, and make it
available for other modules (like CUE \, ...) too;
#X obj 113 74 inlet;
#X connect 0 0 4 0;
#X connect 0 1 1 1;
#X connect 1 0 13 0;
#X connect 3 0 7 0;
#X connect 3 1 6 0;
#X connect 4 0 3 0;
#X connect 4 1 5 1;
#X connect 5 0 7 0;
#X connect 6 0 5 0;
#X connect 7 0 1 0;
#X connect 9 0 3 1;
#X connect 10 0 8 0;
#X connect 11 0 12 0;
#X connect 12 0 8 0;
#X connect 13 0 2 0;
#X connect 15 0 0 0;
