#N canvas 164 0 738 495 10;
#X msg 94 158 set \$1;
#X obj 94 139 l2s;
#X obj 87 398 pp send \$1;
#X obj 94 99 t b b;
#X obj 173 119 symbol _;
#X obj 190 79 loadbang;
#X obj 94 119 l \$2NET \$1;
#X obj 94 185 iem_r \$2NET_\$1;
#X text 28 10 [sendreceive2netsend]:: [receive] -> [netsend];
#X text 336 92 create like: [sendreceive2netsend MAIN_GAIN \$0];
#X text 287 131 this will receive things at "MAIN_GAIN" \,;
#X text 288 148 and send a string "send MAIN_GAIN <args>" to "\$0NET_tonetsend"
(where it can be fed directly into a [netsend]);
#X text 289 204 additionally it will receive things on "\$0NET_MAIN_GAIN"
and forward it to "MAIN_GAIN" \; useful in combination with [netreceive]
;
#X text 288 258 note: to use this abstraction with dynamic patching
\, send a "bang" to "\$0NET_init" \, in order to initialize the additional
receiver;
#X text 53 444 (c) IOhannes m zmoelnig \, IEM 2005-2006;
#X text 95 462 published under GnuGPLv2.0;
#X obj 87 419 s \$2NET_tonetsend;
#X obj 94 78 r \$2NET_init;
#X obj 159 265 t b a b;
#X msg 203 335 0;
#X msg 87 314 1;
#X obj 203 356 f;
#X obj 87 335 r \$1;
#X obj 146 334 s \$1;
#X obj 94 242 route bang;
#X obj 94 265 t b b b;
#X obj 87 377 spigot 1;
#X connect 0 0 7 0;
#X connect 1 0 0 0;
#X connect 2 0 16 0;
#X connect 3 0 6 0;
#X connect 3 1 4 0;
#X connect 4 0 1 1;
#X connect 5 0 3 0;
#X connect 6 0 1 0;
#X connect 7 0 24 0;
#X connect 17 0 3 0;
#X connect 18 0 20 0;
#X connect 18 1 23 0;
#X connect 18 2 19 0;
#X connect 19 0 21 0;
#X connect 20 0 21 0;
#X connect 21 0 26 1;
#X connect 22 0 26 0;
#X connect 24 0 25 0;
#X connect 24 1 18 0;
#X connect 25 0 20 0;
#X connect 25 1 23 0;
#X connect 25 2 19 0;
#X connect 26 0 2 0;
