#N canvas 126 111 1680 801 10;
#X obj 253 244 text set \$0seq;
#X obj 34 341 text get \$0seq;
#X obj 237 84 inlet;
#X obj 712 234 text delete \$0seq;
#X msg 703 211 -1;
#X obj 839 534 outlet;
#X text 840 560 pattern-list;
#X obj 830 430 text tolist \$0seq;
#X obj 827 387 t b;
#X obj 949 39 inlet;
#X text 955 15 from list;
#X obj 956 73 text fromlist \$0seq;
#X text 237 64 set row;
#X obj 29 99 inlet;
#X text 28 78 get row (pos);
#X obj 223 156 t a a;
#X obj 288 194 list split 1;
#X obj 203 192 list split 1;
#X obj 103 107 text define \$0seq;
#X obj 618 330 text set \$0seq;
#X msg 649 304 256;
#X obj 626 150 t b b b;
#X obj 599 228 until;
#X msg 589 205 256;
#X obj 639 115 loadbang;
#X obj 381 373 text get \$0seq;
#X obj 422 80 inlet;
#X text 421 59 get 16 rows 2 display (ofs);
#X obj 408 215 until;
#X msg 409 189 16;
#X obj 411 252 int;
#X obj 441 252 + 1;
#X msg 454 203 0;
#X obj 469 132 t b b f;
#X obj 390 330 +;
#X obj 436 475 outlet;
#X obj 395 415 list prepend;
#X obj 429 296 t f f;
#X msg 599 256 0 0 0 0 0 0 0 0 0 0 0 0 0 0 0 0 0 0;
#X obj 618 26 inlet;
#X text 619 7 action;
#X obj 25 514 outlet;
#X text 84 22 text based sequencer for the 6tracker;
#X text 825 259 init 6 triplets;
#X obj 269 114 text define \$0cpbuf;
#X obj 946 438 text get \$0seq;
#X obj 1060 411 text set \$0cpbuf;
#X text 954 178 copy;
#X obj 943 277 until;
#X obj 942 300 int;
#X obj 972 300 + 1;
#X obj 950 361 t f f;
#X obj 945 232 swap;
#X obj 714 84 route copy paste up down;
#X obj 620 51 route init dump list;
#X msg 1007 336 -1;
#X obj 785 123 t a b;
#X obj 1021 363 text delete \$0cpbuf;
#X obj 1396 673 outlet;
#X obj 1396 652 t b;
#X obj 1141 280 until;
#X obj 1156 302 int;
#X obj 1186 302 + 1;
#X obj 1157 329 t f f;
#X obj 1159 234 swap;
#X text 1168 180 paste;
#X obj 1166 400 text get \$0cpbuf;
#X obj 1277 387 text set \$0seq;
#X obj 1167 364 -;
#X obj 1213 252 t b;
#X obj 1214 280 delay 50;
#X obj 941 203 unpack f f f;
#X obj 1156 206 unpack f f f;
#X obj 1010 240 * 3;
#X msg 995 410 3;
#X obj 1014 273 t f b;
#X obj 942 255 + 1;
#X obj 1130 255 + 1;
#X obj 1292 262 * 3;
#X text 1396 637 refresh display;
#X obj 1386 446 text get \$0seq;
#X obj 1383 285 until;
#X obj 1382 308 int;
#X obj 1412 308 + 1;
#X obj 1390 369 t f f;
#X obj 1385 240 swap;
#X obj 1450 248 * 3;
#X obj 1382 263 + 1;
#X text 1379 190 transpose;
#X obj 1381 211 unpack f f f f;
#X obj 1500 447 text set \$0seq;
#X msg 1441 422 1;
#X obj 1454 281 t f f b;
#X obj 1462 520 +;
#X obj 1482 550 clip 0 127;
#X obj 1399 475 moses 0.1;
#X msg 1400 507 0;
#X obj 1238 116 pack f f f 1;
#X obj 1189 74 unpack f f f;
#X obj 1328 78 unpack f f f;
#X obj 1377 120 pack f f f -1;
#X obj 1336 470 t b;
#X obj 1337 498 delay 50;
#X connect 1 0 41 0;
#X connect 2 0 15 0;
#X connect 4 0 3 0;
#X connect 7 0 5 0;
#X connect 8 0 7 0;
#X connect 9 0 11 0;
#X connect 13 0 1 0;
#X connect 15 0 17 0;
#X connect 15 1 16 0;
#X connect 16 0 0 1;
#X connect 17 1 0 0;
#X connect 20 0 19 1;
#X connect 21 0 23 0;
#X connect 21 1 20 0;
#X connect 21 2 4 0;
#X connect 22 0 38 0;
#X connect 23 0 22 0;
#X connect 24 0 21 0;
#X connect 25 0 36 0;
#X connect 26 0 33 0;
#X connect 28 0 30 0;
#X connect 29 0 28 0;
#X connect 30 0 31 0;
#X connect 30 0 37 0;
#X connect 31 0 30 1;
#X connect 32 0 30 1;
#X connect 33 0 29 0;
#X connect 33 1 32 0;
#X connect 33 2 34 1;
#X connect 34 0 25 0;
#X connect 36 0 35 0;
#X connect 37 0 34 0;
#X connect 37 1 36 1;
#X connect 38 0 19 0;
#X connect 39 0 54 0;
#X connect 45 0 46 0;
#X connect 48 0 49 0;
#X connect 49 0 50 0;
#X connect 49 0 51 0;
#X connect 50 0 49 1;
#X connect 51 0 45 0;
#X connect 51 1 46 1;
#X connect 52 0 76 0;
#X connect 52 1 49 1;
#X connect 53 0 56 0;
#X connect 53 1 72 0;
#X connect 53 2 98 0;
#X connect 53 3 99 0;
#X connect 54 0 21 0;
#X connect 54 1 8 0;
#X connect 54 2 53 0;
#X connect 55 0 57 0;
#X connect 56 0 71 0;
#X connect 56 1 55 0;
#X connect 59 0 58 0;
#X connect 60 0 61 0;
#X connect 61 0 62 0;
#X connect 61 0 63 0;
#X connect 62 0 61 1;
#X connect 63 0 68 0;
#X connect 63 1 67 1;
#X connect 64 0 77 0;
#X connect 64 1 61 1;
#X connect 64 1 68 1;
#X connect 66 0 67 0;
#X connect 68 0 66 0;
#X connect 69 0 70 0;
#X connect 70 0 59 0;
#X connect 71 0 52 0;
#X connect 71 1 52 1;
#X connect 71 2 73 0;
#X connect 72 0 64 0;
#X connect 72 0 69 0;
#X connect 72 1 64 1;
#X connect 72 2 78 0;
#X connect 73 0 75 0;
#X connect 74 0 45 2;
#X connect 75 0 45 1;
#X connect 75 1 74 0;
#X connect 76 0 48 0;
#X connect 77 0 60 0;
#X connect 78 0 67 2;
#X connect 80 0 95 0;
#X connect 81 0 82 0;
#X connect 82 0 83 0;
#X connect 82 0 84 0;
#X connect 83 0 82 1;
#X connect 84 0 80 0;
#X connect 84 1 90 1;
#X connect 85 0 87 0;
#X connect 85 1 82 1;
#X connect 86 0 92 0;
#X connect 87 0 81 0;
#X connect 89 0 85 0;
#X connect 89 0 101 0;
#X connect 89 1 85 1;
#X connect 89 2 86 0;
#X connect 89 3 93 1;
#X connect 91 0 80 2;
#X connect 92 0 80 1;
#X connect 92 1 90 2;
#X connect 92 2 91 0;
#X connect 93 0 94 0;
#X connect 94 0 90 0;
#X connect 95 0 96 0;
#X connect 95 1 93 0;
#X connect 96 0 94 0;
#X connect 97 0 89 0;
#X connect 98 0 97 0;
#X connect 98 1 97 1;
#X connect 98 2 97 2;
#X connect 99 0 100 0;
#X connect 99 1 100 1;
#X connect 99 2 100 2;
#X connect 100 0 89 0;
#X connect 101 0 102 0;
#X connect 102 0 59 0;
