#N canvas 298 141 1427 576 10;
#X obj 16 31 inlet;
#X obj 59 31 inlet;
#X obj 99 30 inlet;
#X obj 151 30 inlet;
#X obj 192 30 inlet;
#X obj 234 29 inlet;
#X obj 297 27 inlet;
#X obj 340 27 inlet;
#X obj 380 26 inlet;
#X obj 432 26 inlet;
#X obj 475 26 inlet;
#X obj 518 27 inlet;
#X obj 572 24 inlet;
#X obj 615 24 inlet;
#X obj 655 23 inlet;
#X obj 707 23 inlet;
#X obj 750 23 inlet;
#X obj 790 22 inlet;
#X obj 867 21 inlet;
#X obj 6 438 outlet;
#X obj 99 382 outlet;
#X obj 145 382 outlet;
#X obj 191 382 outlet;
#X obj 243 383 outlet;
#X obj 289 383 outlet;
#X obj 335 383 outlet;
#X obj 393 382 outlet;
#X obj 439 382 outlet;
#X obj 485 382 outlet;
#X obj 537 383 outlet;
#X obj 583 383 outlet;
#X obj 629 383 outlet;
#X obj 678 382 outlet;
#X obj 724 382 outlet;
#X obj 770 382 outlet;
#X obj 822 381 outlet;
#X obj 868 381 outlet;
#X obj 914 381 outlet;
#X obj 975 384 outlet;
#X text 287 6 6 triplets;
#X text 8 465 row-nr;
#X text 362 409 6 triplets;
#X text 979 401 row;
#X text 871 1 row;
#X obj 419 188 pack f f f f f f f f f f f f f f f f f f f;
#X obj 341 220 f;
#X obj 959 22 inlet;
#X text 959 4 ofset;
#X obj 42 336 +;
#X obj 45 266 t b f;
#X obj 323 284 unpack f f f f f f f f f f f f f f f f f f;
#X obj 339 192 delay 100;
#X obj 890 74 route vis;
#X obj 12 300 \$1;
#X obj 670 133 int;
#X obj 598 136 int;
#X obj 516 118 int;
#X obj 396 110 int;
#X obj 241 99 int;
#X obj 114 94 int;
#X obj 14 402 + 1;
#X obj 1077 -23 inlet;
#X text 1077 -40 default;
#X text 248 187 write to text;
#X msg 75 338 set \$1;
#X msg 125 334 set \$1;
#X msg 175 336 set \$1;
#N canvas 1 77 824 486 defaultvals 0;
#X obj 36 33 inlet;
#X obj 88 34 inlet;
#X obj 140 34 inlet;
#X obj 279 11 inlet;
#X obj 29 225 outlet;
#X obj 83 227 outlet;
#X obj 141 227 outlet;
#X obj 280 43 unpack f f f;
#X obj 111 107 t b;
#X obj 220 92 f;
#X obj 283 101 f;
#X obj 331 97 f;
#X obj 237 234 outlet;
#X obj 204 138 moses -0.5;
#X obj 277 142 moses -0.5;
#X obj 350 145 moses -0.5;
#X obj 189 47 delay 50;
#X text 323 23 if a default is enabled \, set the step-values;
#X connect 0 0 4 0;
#X connect 0 0 8 0;
#X connect 1 0 5 0;
#X connect 1 0 8 0;
#X connect 2 0 6 0;
#X connect 2 0 8 0;
#X connect 3 0 7 0;
#X connect 7 0 9 1;
#X connect 7 1 10 1;
#X connect 7 2 11 1;
#X connect 8 0 12 0;
#X connect 8 0 16 0;
#X connect 9 0 13 0;
#X connect 10 0 14 0;
#X connect 11 0 15 0;
#X connect 13 1 4 0;
#X connect 14 1 5 0;
#X connect 15 1 6 0;
#X connect 16 0 9 0;
#X connect 16 0 10 0;
#X connect 16 0 11 0;
#X restore 27 62 pd defaultvals;
#N canvas 1 77 824 486 defaultvals 0;
#X obj 36 33 inlet;
#X obj 88 34 inlet;
#X obj 140 34 inlet;
#X obj 279 11 inlet;
#X obj 29 225 outlet;
#X obj 83 227 outlet;
#X obj 141 227 outlet;
#X obj 280 43 unpack f f f;
#X obj 111 107 t b;
#X obj 220 92 f;
#X obj 283 101 f;
#X obj 331 97 f;
#X obj 237 234 outlet;
#X obj 204 138 moses -0.5;
#X obj 277 142 moses -0.5;
#X obj 350 145 moses -0.5;
#X obj 189 47 delay 50;
#X text 323 23 if a default is enabled \, set the step-values;
#X connect 0 0 4 0;
#X connect 0 0 8 0;
#X connect 1 0 5 0;
#X connect 1 0 8 0;
#X connect 2 0 6 0;
#X connect 2 0 8 0;
#X connect 3 0 7 0;
#X connect 7 0 9 1;
#X connect 7 1 10 1;
#X connect 7 2 11 1;
#X connect 8 0 12 0;
#X connect 8 0 16 0;
#X connect 9 0 13 0;
#X connect 10 0 14 0;
#X connect 11 0 15 0;
#X connect 13 1 4 0;
#X connect 14 1 5 0;
#X connect 15 1 6 0;
#X connect 16 0 9 0;
#X connect 16 0 10 0;
#X connect 16 0 11 0;
#X restore 172 66 pd defaultvals;
#N canvas 1 77 824 486 defaultvals 0;
#X obj 36 33 inlet;
#X obj 88 34 inlet;
#X obj 140 34 inlet;
#X obj 279 11 inlet;
#X obj 29 225 outlet;
#X obj 83 227 outlet;
#X obj 141 227 outlet;
#X obj 280 43 unpack f f f;
#X obj 111 107 t b;
#X obj 220 92 f;
#X obj 283 101 f;
#X obj 331 97 f;
#X obj 237 234 outlet;
#X obj 204 138 moses -0.5;
#X obj 277 142 moses -0.5;
#X obj 350 145 moses -0.5;
#X obj 189 47 delay 50;
#X text 323 23 if a default is enabled \, set the step-values;
#X connect 0 0 4 0;
#X connect 0 0 8 0;
#X connect 1 0 5 0;
#X connect 1 0 8 0;
#X connect 2 0 6 0;
#X connect 2 0 8 0;
#X connect 3 0 7 0;
#X connect 7 0 9 1;
#X connect 7 1 10 1;
#X connect 7 2 11 1;
#X connect 8 0 12 0;
#X connect 8 0 16 0;
#X connect 9 0 13 0;
#X connect 10 0 14 0;
#X connect 11 0 15 0;
#X connect 13 1 4 0;
#X connect 14 1 5 0;
#X connect 15 1 6 0;
#X connect 16 0 9 0;
#X connect 16 0 10 0;
#X connect 16 0 11 0;
#X restore 322 68 pd defaultvals;
#N canvas 1 77 824 486 defaultvals 0;
#X obj 36 33 inlet;
#X obj 88 34 inlet;
#X obj 140 34 inlet;
#X obj 279 11 inlet;
#X obj 29 225 outlet;
#X obj 83 227 outlet;
#X obj 141 227 outlet;
#X obj 280 43 unpack f f f;
#X obj 111 107 t b;
#X obj 220 92 f;
#X obj 283 101 f;
#X obj 331 97 f;
#X obj 237 234 outlet;
#X obj 204 138 moses -0.5;
#X obj 277 142 moses -0.5;
#X obj 350 145 moses -0.5;
#X obj 189 47 delay 50;
#X text 323 23 if a default is enabled \, set the step-values;
#X connect 0 0 4 0;
#X connect 0 0 8 0;
#X connect 1 0 5 0;
#X connect 1 0 8 0;
#X connect 2 0 6 0;
#X connect 2 0 8 0;
#X connect 3 0 7 0;
#X connect 7 0 9 1;
#X connect 7 1 10 1;
#X connect 7 2 11 1;
#X connect 8 0 12 0;
#X connect 8 0 16 0;
#X connect 9 0 13 0;
#X connect 10 0 14 0;
#X connect 11 0 15 0;
#X connect 13 1 4 0;
#X connect 14 1 5 0;
#X connect 15 1 6 0;
#X connect 16 0 9 0;
#X connect 16 0 10 0;
#X connect 16 0 11 0;
#X restore 450 75 pd defaultvals;
#N canvas 1 77 824 486 defaultvals 0;
#X obj 36 33 inlet;
#X obj 88 34 inlet;
#X obj 140 34 inlet;
#X obj 279 11 inlet;
#X obj 29 225 outlet;
#X obj 83 227 outlet;
#X obj 141 227 outlet;
#X obj 280 43 unpack f f f;
#X obj 111 107 t b;
#X obj 220 92 f;
#X obj 283 101 f;
#X obj 331 97 f;
#X obj 237 234 outlet;
#X obj 204 138 moses -0.5;
#X obj 277 142 moses -0.5;
#X obj 350 145 moses -0.5;
#X obj 189 47 delay 50;
#X text 323 23 if a default is enabled \, set the step-values;
#X connect 0 0 4 0;
#X connect 0 0 8 0;
#X connect 1 0 5 0;
#X connect 1 0 8 0;
#X connect 2 0 6 0;
#X connect 2 0 8 0;
#X connect 3 0 7 0;
#X connect 7 0 9 1;
#X connect 7 1 10 1;
#X connect 7 2 11 1;
#X connect 8 0 12 0;
#X connect 8 0 16 0;
#X connect 9 0 13 0;
#X connect 10 0 14 0;
#X connect 11 0 15 0;
#X connect 13 1 4 0;
#X connect 14 1 5 0;
#X connect 15 1 6 0;
#X connect 16 0 9 0;
#X connect 16 0 10 0;
#X connect 16 0 11 0;
#X restore 566 77 pd defaultvals;
#N canvas 1 77 824 486 defaultvals 0;
#X obj 36 33 inlet;
#X obj 88 34 inlet;
#X obj 140 34 inlet;
#X obj 279 11 inlet;
#X obj 29 225 outlet;
#X obj 83 227 outlet;
#X obj 141 227 outlet;
#X obj 280 43 unpack f f f;
#X obj 111 107 t b;
#X obj 220 92 f;
#X obj 283 101 f;
#X obj 331 97 f;
#X obj 237 234 outlet;
#X obj 204 138 moses -0.5;
#X obj 277 142 moses -0.5;
#X obj 350 145 moses -0.5;
#X obj 189 47 delay 50;
#X text 323 23 if a default is enabled \, set the step-values;
#X connect 0 0 4 0;
#X connect 0 0 8 0;
#X connect 1 0 5 0;
#X connect 1 0 8 0;
#X connect 2 0 6 0;
#X connect 2 0 8 0;
#X connect 3 0 7 0;
#X connect 7 0 9 1;
#X connect 7 1 10 1;
#X connect 7 2 11 1;
#X connect 8 0 12 0;
#X connect 8 0 16 0;
#X connect 9 0 13 0;
#X connect 10 0 14 0;
#X connect 11 0 15 0;
#X connect 13 1 4 0;
#X connect 14 1 5 0;
#X connect 15 1 6 0;
#X connect 16 0 9 0;
#X connect 16 0 10 0;
#X connect 16 0 11 0;
#X restore 674 81 pd defaultvals;
#X msg 240 344 set \$1;
#X msg 290 340 set \$1;
#X msg 340 342 set \$1;
#X msg 395 337 set \$1;
#X msg 445 333 set \$1;
#X msg 495 335 set \$1;
#X msg 561 341 set \$1;
#X msg 611 337 set \$1;
#X msg 661 339 set \$1;
#X msg 726 347 set \$1;
#X msg 776 343 set \$1;
#X msg 826 345 set \$1;
#X msg 881 340 set \$1;
#X msg 931 336 set \$1;
#X msg 981 338 set \$1;
#X connect 0 0 67 0;
#X connect 1 0 67 1;
#X connect 2 0 67 2;
#X connect 3 0 68 0;
#X connect 4 0 68 1;
#X connect 5 0 68 2;
#X connect 6 0 69 0;
#X connect 7 0 69 1;
#X connect 8 0 69 2;
#X connect 9 0 70 0;
#X connect 10 0 70 1;
#X connect 11 0 70 2;
#X connect 12 0 71 0;
#X connect 13 0 71 1;
#X connect 14 0 71 2;
#X connect 15 0 72 0;
#X connect 16 0 72 1;
#X connect 17 0 72 2;
#X connect 18 0 52 0;
#X connect 44 0 38 0;
#X connect 45 0 44 0;
#X connect 46 0 49 0;
#X connect 48 0 45 1;
#X connect 48 0 60 0;
#X connect 49 0 53 0;
#X connect 49 1 48 1;
#X connect 50 0 20 0;
#X connect 50 1 21 0;
#X connect 50 2 22 0;
#X connect 50 3 23 0;
#X connect 50 4 24 0;
#X connect 50 5 25 0;
#X connect 50 6 26 0;
#X connect 50 7 27 0;
#X connect 50 8 28 0;
#X connect 50 9 29 0;
#X connect 50 10 30 0;
#X connect 50 11 31 0;
#X connect 50 12 32 0;
#X connect 50 13 33 0;
#X connect 50 14 34 0;
#X connect 50 15 35 0;
#X connect 50 16 36 0;
#X connect 50 17 37 0;
#X connect 51 0 45 0;
#X connect 52 0 19 0;
#X connect 52 1 50 0;
#X connect 53 0 48 0;
#X connect 54 0 44 17;
#X connect 55 0 44 14;
#X connect 56 0 44 11;
#X connect 57 0 44 8;
#X connect 58 0 44 5;
#X connect 59 0 44 2;
#X connect 60 0 19 0;
#X connect 61 0 67 3;
#X connect 61 0 68 3;
#X connect 61 0 69 3;
#X connect 61 0 70 3;
#X connect 61 0 71 3;
#X connect 61 0 72 3;
#X connect 64 0 20 0;
#X connect 65 0 21 0;
#X connect 66 0 22 0;
#X connect 67 0 44 1;
#X connect 67 0 64 0;
#X connect 67 1 59 0;
#X connect 67 1 65 0;
#X connect 67 2 44 3;
#X connect 67 2 66 0;
#X connect 67 3 51 0;
#X connect 68 0 44 4;
#X connect 68 0 73 0;
#X connect 68 1 58 0;
#X connect 68 1 74 0;
#X connect 68 2 44 6;
#X connect 68 2 75 0;
#X connect 68 3 51 0;
#X connect 69 0 44 7;
#X connect 69 0 76 0;
#X connect 69 1 57 0;
#X connect 69 1 77 0;
#X connect 69 2 44 9;
#X connect 69 2 78 0;
#X connect 69 3 51 0;
#X connect 70 0 44 10;
#X connect 70 0 79 0;
#X connect 70 1 56 0;
#X connect 70 1 80 0;
#X connect 70 2 44 12;
#X connect 70 2 81 0;
#X connect 70 3 51 0;
#X connect 71 0 44 13;
#X connect 71 0 82 0;
#X connect 71 1 55 0;
#X connect 71 1 83 0;
#X connect 71 2 44 15;
#X connect 71 2 84 0;
#X connect 71 3 51 0;
#X connect 72 0 44 16;
#X connect 72 0 85 0;
#X connect 72 1 54 0;
#X connect 72 1 86 0;
#X connect 72 2 44 18;
#X connect 72 2 87 0;
#X connect 72 3 51 0;
#X connect 73 0 23 0;
#X connect 74 0 24 0;
#X connect 75 0 25 0;
#X connect 76 0 26 0;
#X connect 77 0 27 0;
#X connect 78 0 28 0;
#X connect 79 0 29 0;
#X connect 80 0 30 0;
#X connect 81 0 31 0;
#X connect 82 0 32 0;
#X connect 83 0 33 0;
#X connect 84 0 34 0;
#X connect 85 0 35 0;
#X connect 86 0 36 0;
#X connect 87 0 37 0;
