#N canvas 213 152 1171 642 10;
#X obj 117 374 outlet~;
#X obj 117 253 bmod~ 0-\$1;
#X obj 183 253 bmod~ 1-\$1;
#X obj 249 253 bmod~ 2-\$1;
#X obj 315 253 bmod~ 3-\$1;
#X obj 381 253 bmod~ 4-\$1;
#X obj 447 253 bmod~ 5-\$1;
#X obj 513 253 bmod~ 6-\$1;
#X obj 579 253 bmod~ 7-\$1;
#X obj 645 253 bmod~ 8-\$1;
#X obj 711 253 bmod~ 9-\$1;
#X obj 777 253 bmod~ a-\$1;
#X obj 843 253 bmod~ b-\$1;
#X obj 117 298 +~;
#X obj 249 301 +~;
#X obj 381 301 +~;
#X obj 513 304 +~;
#X obj 645 320 +~;
#X obj 777 323 +~;
#X obj 117 317 +~;
#X obj 381 320 +~;
#X obj 645 339 +~;
#X obj 117 336 +~;
#X obj 117 355 +~;
#X connect 1 0 13 0;
#X connect 2 0 13 1;
#X connect 3 0 14 0;
#X connect 4 0 14 1;
#X connect 5 0 15 0;
#X connect 6 0 15 1;
#X connect 7 0 16 0;
#X connect 8 0 16 1;
#X connect 9 0 17 0;
#X connect 10 0 17 1;
#X connect 11 0 18 0;
#X connect 12 0 18 1;
#X connect 13 0 19 0;
#X connect 14 0 19 1;
#X connect 15 0 20 0;
#X connect 16 0 20 1;
#X connect 17 0 21 0;
#X connect 18 0 21 1;
#X connect 19 0 22 0;
#X connect 20 0 22 1;
#X connect 21 0 23 1;
#X connect 22 0 23 0;
#X connect 23 0 0 0;
