#N canvas 224 514 599 300 10;
#X obj 70 26 inlet~;
#X obj 71 241 outlet~;
#X obj 192 0 inlet;
#X obj 130 46 t b f;
#X obj 108 63 *;
#X obj 127 141 t b f;
#X obj 105 158 *;
#X obj 71 121 biquad~;
#X obj 71 217 biquad~;
#X obj 127 121 r \$1-hpdb;
#X obj 71 178 r \$1-hpf;
#X obj 140 178 r \$1-hps;
#X obj 130 26 r \$1-lpdb;
#X obj 71 83 r \$1-lpf;
#X obj 146 83 r \$1-lps;
#X text 232 -1 delay time;
#X obj 192 46 f 1000;
#X obj 204 23 loadbang;
#X obj 71 102 lpsh 5000 0 1;
#X obj 71 197 hpsh 100 0 1;
#X text 218 102 biquad high/low equalizer \, second inlet is for loop
delay time in ms. If not used in a feedback loop \, ignore this and
it will be used as an ordinary shelf filter.;
#X text 257 200 Scott Nordlund \, 2011;
#X text 257 218 Contact: limina@live.com.;
#X text 258 237 Last revised: 08-03-2011.;
#X connect 0 0 7 0;
#X connect 2 0 16 0;
#X connect 3 0 4 0;
#X connect 3 1 4 1;
#X connect 4 0 18 1;
#X connect 5 0 6 0;
#X connect 5 1 6 1;
#X connect 6 0 19 1;
#X connect 7 0 8 0;
#X connect 8 0 1 0;
#X connect 9 0 5 0;
#X connect 10 0 19 0;
#X connect 11 0 19 2;
#X connect 12 0 3 0;
#X connect 13 0 18 0;
#X connect 14 0 18 2;
#X connect 16 0 4 0;
#X connect 16 0 6 0;
#X connect 17 0 16 0;
#X connect 18 0 7 0;
#X connect 19 0 8 0;
