#N canvas 286 43 1200 508 10;
#X obj 462 314 /~;
#X obj 462 335 clip~ 0 1;
#X obj 574 313 -~;
#X obj 601 313 -~;
#X obj 574 336 /~;
#X obj 574 359 clip~ 0 1;
#X obj 1003 311 -~;
#X obj 1003 334 /~;
#X obj 1003 357 clip~ 0 1;
#X obj 462 378 *~ -1;
#X obj 559 396 -~;
#X obj 653 398 -~;
#X obj 668 311 -~;
#X obj 695 311 -~;
#X obj 668 334 /~;
#X obj 668 357 clip~ 0 1;
#X obj 718 398 -~;
#X obj 587 55 exp~;
#X obj 630 55 exp~;
#X obj 711 55 exp~;
#X obj 775 55 exp~;
#X obj 658 71 +~;
#X obj 684 71 +~;
#X obj 658 90 +~;
#X obj 588 151 /~;
#X obj 631 147 /~;
#X obj 710 147 /~;
#X obj 616 167 +~;
#X obj 694 183 +~;
#X obj 1035 298 -~ 1;
#X obj 1035 317 *~ -1;
#X obj 462 356 -~ 1;
#X obj 586 36 inlet~;
#X obj 630 36 inlet~;
#X obj 711 36 inlet~;
#X obj 775 36 inlet~;
#X obj 462 476 outlet~;
#X obj 559 478 outlet~;
#X obj 653 477 outlet~;
#X obj 718 476 outlet~;
#X obj 462 200 wrap~;
#X obj 462 180 inlet~;
#X obj 1048 472 outlet~;
#X obj 841 55 exp~;
#X obj 909 55 exp~;
#X obj 1032 55 exp~;
#X obj 1076 55 exp~;
#X obj 937 71 +~;
#X obj 963 71 +~;
#X obj 937 90 +~;
#X obj 840 36 inlet~;
#X obj 909 36 inlet~;
#X obj 1032 36 inlet~;
#X obj 1076 36 inlet~;
#X obj 811 106 +~;
#X obj 775 147 /~;
#X obj 759 199 +~;
#X obj 842 153 /~;
#X obj 827 215 +~;
#X obj 909 154 /~;
#X obj 895 231 +~;
#X obj 1033 153 /~;
#X obj 1017 247 +~;
#X obj 733 312 -~;
#X obj 760 312 -~;
#X obj 733 335 /~;
#X obj 733 357 clip~ 0 1;
#X obj 801 312 -~;
#X obj 828 312 -~;
#X obj 801 335 /~;
#X obj 801 357 clip~ 0 1;
#X obj 869 311 -~;
#X obj 896 311 -~;
#X obj 869 334 /~;
#X obj 869 356 clip~ 0 1;
#X obj 933 311 -~;
#X obj 960 311 -~;
#X obj 933 334 /~;
#X obj 933 356 clip~ 0 1;
#X obj 786 397 -~;
#X obj 786 475 outlet~;
#X obj 854 396 -~;
#X obj 854 474 outlet~;
#X obj 917 395 -~;
#X obj 917 473 outlet~;
#X obj 988 394 -~;
#X obj 988 472 outlet~;
#X obj 462 419 *~ 0.25;
#X obj 462 438 -~ 0.25;
#X obj 462 457 cos~;
#X obj 559 421 *~ 0.25;
#X obj 559 440 -~ 0.25;
#X obj 559 459 cos~;
#X obj 653 420 *~ 0.25;
#X obj 653 439 -~ 0.25;
#X obj 653 458 cos~;
#X obj 718 419 *~ 0.25;
#X obj 718 438 -~ 0.25;
#X obj 718 457 cos~;
#X obj 786 418 *~ 0.25;
#X obj 786 437 -~ 0.25;
#X obj 786 456 cos~;
#X obj 854 417 *~ 0.25;
#X obj 854 436 -~ 0.25;
#X obj 854 455 cos~;
#X obj 917 416 *~ 0.25;
#X obj 917 435 -~ 0.25;
#X obj 917 454 cos~;
#X obj 988 415 *~ 0.25;
#X obj 988 434 -~ 0.25;
#X obj 988 453 cos~;
#X obj 1048 415 *~ 0.25;
#X obj 1048 434 -~ 0.25;
#X obj 1048 453 cos~;
#X text 115 239 other variants: 8 \, 4 \, 4c;
#X text 52 68 permits construction of piecewise defined constant power
arbitrary functions with 8 breakpoints \, similar to Xenakis's GENDY
software \, but with independent control of period. The first inlet
is a phasor (or arbitrary signal if you want to use it as a waveshaper
\, it's wrapped to [0 \, 1]) \, and the others control the relative
length of each stage (if nothing is connected \, they will all be the
same length). The abstraction outputs 9 sinusoidal envelopes that may
be used to crossfade arbitrary points or signals \, either to combine
them or to route one signal to multiple destinations. For periodic
(i.e. circular) crossfades you'll want to sum the first and ninth outlets.
;
#X connect 0 0 1 0;
#X connect 1 0 10 0;
#X connect 1 0 31 0;
#X connect 2 0 4 0;
#X connect 3 0 4 1;
#X connect 4 0 5 0;
#X connect 5 0 10 1;
#X connect 5 0 11 0;
#X connect 6 0 7 0;
#X connect 7 0 8 0;
#X connect 8 0 85 1;
#X connect 8 0 111 0;
#X connect 9 0 87 0;
#X connect 10 0 90 0;
#X connect 11 0 93 0;
#X connect 12 0 14 0;
#X connect 13 0 14 1;
#X connect 14 0 15 0;
#X connect 15 0 11 1;
#X connect 15 0 16 0;
#X connect 16 0 96 0;
#X connect 17 0 21 0;
#X connect 17 0 24 0;
#X connect 18 0 21 1;
#X connect 18 0 25 0;
#X connect 19 0 22 0;
#X connect 19 0 26 0;
#X connect 20 0 22 1;
#X connect 20 0 55 0;
#X connect 21 0 23 0;
#X connect 22 0 23 1;
#X connect 23 0 54 0;
#X connect 24 0 27 0;
#X connect 24 0 0 1;
#X connect 24 0 2 1;
#X connect 24 0 3 1;
#X connect 25 0 27 1;
#X connect 26 0 28 1;
#X connect 27 0 28 0;
#X connect 27 0 3 0;
#X connect 27 0 12 1;
#X connect 27 0 13 1;
#X connect 28 0 13 0;
#X connect 28 0 56 0;
#X connect 28 0 63 1;
#X connect 28 0 64 1;
#X connect 29 0 30 0;
#X connect 30 0 7 1;
#X connect 31 0 9 0;
#X connect 32 0 17 0;
#X connect 33 0 18 0;
#X connect 34 0 19 0;
#X connect 35 0 20 0;
#X connect 40 0 0 0;
#X connect 40 0 2 0;
#X connect 40 0 6 0;
#X connect 40 0 12 0;
#X connect 40 0 63 0;
#X connect 40 0 67 0;
#X connect 40 0 71 0;
#X connect 40 0 75 0;
#X connect 41 0 40 0;
#X connect 43 0 47 0;
#X connect 43 0 57 0;
#X connect 44 0 47 1;
#X connect 44 0 59 0;
#X connect 45 0 48 0;
#X connect 45 0 61 0;
#X connect 46 0 48 1;
#X connect 47 0 49 0;
#X connect 48 0 49 1;
#X connect 49 0 54 1;
#X connect 50 0 43 0;
#X connect 51 0 44 0;
#X connect 52 0 45 0;
#X connect 53 0 46 0;
#X connect 54 0 24 1;
#X connect 54 0 25 1;
#X connect 54 0 26 1;
#X connect 54 0 55 1;
#X connect 54 0 57 1;
#X connect 54 0 59 1;
#X connect 54 0 61 1;
#X connect 55 0 56 1;
#X connect 56 0 58 0;
#X connect 56 0 64 0;
#X connect 56 0 67 1;
#X connect 56 0 68 1;
#X connect 57 0 58 1;
#X connect 58 0 60 0;
#X connect 58 0 68 0;
#X connect 58 0 71 1;
#X connect 58 0 72 1;
#X connect 59 0 60 1;
#X connect 60 0 62 0;
#X connect 60 0 72 0;
#X connect 60 0 75 1;
#X connect 60 0 76 1;
#X connect 61 0 62 1;
#X connect 62 0 6 1;
#X connect 62 0 29 0;
#X connect 62 0 76 0;
#X connect 63 0 65 0;
#X connect 64 0 65 1;
#X connect 65 0 66 0;
#X connect 66 0 16 1;
#X connect 66 0 79 0;
#X connect 67 0 69 0;
#X connect 68 0 69 1;
#X connect 69 0 70 0;
#X connect 70 0 79 1;
#X connect 70 0 81 0;
#X connect 71 0 73 0;
#X connect 72 0 73 1;
#X connect 73 0 74 0;
#X connect 74 0 81 1;
#X connect 74 0 83 0;
#X connect 75 0 77 0;
#X connect 76 0 77 1;
#X connect 77 0 78 0;
#X connect 78 0 83 1;
#X connect 78 0 85 0;
#X connect 79 0 99 0;
#X connect 81 0 102 0;
#X connect 83 0 105 0;
#X connect 85 0 108 0;
#X connect 87 0 88 0;
#X connect 88 0 89 0;
#X connect 89 0 36 0;
#X connect 90 0 91 0;
#X connect 91 0 92 0;
#X connect 92 0 37 0;
#X connect 93 0 94 0;
#X connect 94 0 95 0;
#X connect 95 0 38 0;
#X connect 96 0 97 0;
#X connect 97 0 98 0;
#X connect 98 0 39 0;
#X connect 99 0 100 0;
#X connect 100 0 101 0;
#X connect 101 0 80 0;
#X connect 102 0 103 0;
#X connect 103 0 104 0;
#X connect 104 0 82 0;
#X connect 105 0 106 0;
#X connect 106 0 107 0;
#X connect 107 0 84 0;
#X connect 108 0 109 0;
#X connect 109 0 110 0;
#X connect 110 0 86 0;
#X connect 111 0 112 0;
#X connect 112 0 113 0;
#X connect 113 0 42 0;
