#N canvas 103 104 1118 756 10;
#X msg 124 269 1;
#X obj 85 317 bng 15 250 50 0 empty empty empty 17 7 0 10 -262144 -1
-1;
#X text 107 316 start;
#X obj 124 333 bng 15 250 50 0 empty empty empty 17 7 0 10 -262144
-1 -1;
#X text 144 334 stop;
#X msg 143 436 0;
#X obj 85 86 r init_cfg_live;
#X obj 754 691 s init_cfg_live;
#X msg 754 668 3;
#X obj 85 539 f 10000;
#X obj 308 386 r init_cfg_current;
#X obj 308 408 + 10000;
#X msg 124 490 10000;
#X obj 293 433 f;
#X obj 85 138 sel 1;
#X obj 143 459 s read_data_live;
#X obj 124 295 s read_data_live;
#X obj 124 247 delay 25000;
#X msg 163 380 stop;
#X obj 85 226 t b b b;
#X obj 163 539 delay 3000;
#X obj 85 562 t f f b;
#X msg 85 584 send \$1;
#X obj 261 317 + 1;
#X obj 234 296 t f f;
#X obj 124 353 t b b b;
#X obj 667 122 == 2;
#X obj 634 148 spigot;
#X obj 85 605 s \$0-tosend_tcp;
#N canvas 0 50 819 478 url_parameters 0;
#X obj 39 128 r download_url-root;
#X obj 39 195 list prepend send download_url-root;
#X obj 39 217 list trim;
#X obj 39 173 list;
#X obj 39 152 t b a;
#X obj 264 217 list trim;
#X obj 264 172 list;
#X obj 264 150 t b a;
#X obj 264 127 r download_url-dir;
#X obj 264 195 list prepend send download_url-dir;
#X obj 484 216 list trim;
#X obj 484 171 list;
#X obj 484 148 t b a;
#X obj 484 123 r download_url-root-decimal;
#X obj 484 194 list prepend send download_url-root-decimal;
#X obj 307 77 t b b;
#X obj 39 243 t a;
#X obj 39 333 s \$0-tosend_tcp;
#X obj 307 47 r \$0-ask_url;
#X connect 0 0 4 0;
#X connect 1 0 2 0;
#X connect 2 0 16 0;
#X connect 3 0 1 0;
#X connect 4 0 3 0;
#X connect 4 1 3 1;
#X connect 5 0 16 0;
#X connect 6 0 9 0;
#X connect 7 0 6 0;
#X connect 7 1 6 1;
#X connect 8 0 7 0;
#X connect 9 0 5 0;
#X connect 10 0 16 0;
#X connect 11 0 14 0;
#X connect 12 0 11 0;
#X connect 12 1 11 1;
#X connect 13 0 12 0;
#X connect 14 0 10 0;
#X connect 15 0 6 0;
#X connect 15 0 3 0;
#X connect 15 1 11 0;
#X connect 16 0 17 0;
#X connect 18 0 15 0;
#X restore 200 26 pd url_parameters ---------------;
#X obj 200 67 tgl 15 0 empty empty empty 17 7 0 10 -262144 -1 -1 1
1;
#X text 218 68 TO TCP CONNECTED;
#N canvas 724 178 1009 564 connect_tcp 0;
#X obj 24 23 loadbang;
#X obj 24 188 spigot 1;
#X obj 69 161 == 0;
#X obj 85 229 spigot;
#X msg 24 128 connect localhost 65333;
#X obj 24 412 sel 1;
#X obj 24 388 t f f;
#X msg 86 264 disconnect;
#X obj 24 264 netsend 1;
#X obj 85 180 r \$0-tosend_tcp;
#X obj 24 439 s \$0-ask_url;
#X obj 40 317 outlet;
#X obj 400 265 t b;
#X obj 400 82 netreceive 65334 1;
#X obj 400 291 s \$0-ask_url;
#X text 112 31 TO TCP CLIENT;
#X text 402 36 FROM TCP CLIENT;
#X obj 840 444 outlet;
#X obj 808 421 s \$0-written_file;
#X obj 760 466 s written_file;
#X obj 760 445 - 10000;
#X obj 96 318 print_debug TO_TCP_CONNECTION;
#X obj 129 228 print_debug TO_TCP_DATA;
#X obj 413 112 print_debug FROM_TCP_DATA;
#X obj 186 180 r tosend_tcp;
#X msg 185 203 send get_config_txt;
#X obj 808 391 t a;
#X obj 400 141 route ask;
#X obj 451 234 s init_cfg_current;
#X obj 495 256 s init_cfg_live;
#X obj 540 278 s performance_date;
#X obj 584 299 s download_url-root;
#X obj 629 326 s download_url-dir;
#X obj 674 355 s download_url-root-decimal;
#X obj 24 45 delay 1000;
#X obj 24 89 metro 500;
#X obj 686 220 s ligne2;
#X obj 728 245 s ligne3;
#X obj 451 168 route init_cfg_current init_cfg_live performance_date
download_url-root download_url-dir download_url-root-decimal ligne2
ligne3;
#X connect 0 0 34 0;
#X connect 1 0 8 0;
#X connect 2 0 1 1;
#X connect 3 0 8 0;
#X connect 3 0 22 0;
#X connect 4 0 1 0;
#X connect 5 0 10 0;
#X connect 6 1 2 0;
#X connect 6 1 3 1;
#X connect 7 0 8 0;
#X connect 8 0 3 1;
#X connect 8 0 6 0;
#X connect 8 0 11 0;
#X connect 8 0 21 0;
#X connect 9 0 3 0;
#X connect 12 0 14 0;
#X connect 13 0 23 0;
#X connect 13 0 27 0;
#X connect 20 0 19 0;
#X connect 24 0 3 0;
#X connect 25 0 3 0;
#X connect 26 0 18 0;
#X connect 26 0 17 0;
#X connect 26 0 20 0;
#X connect 27 0 12 0;
#X connect 27 1 38 0;
#X connect 34 0 35 0;
#X connect 35 0 4 0;
#X connect 38 0 28 0;
#X connect 38 1 29 0;
#X connect 38 2 30 0;
#X connect 38 3 31 0;
#X connect 38 4 32 0;
#X connect 38 5 33 0;
#X connect 38 6 36 0;
#X connect 38 7 37 0;
#X connect 38 8 26 0;
#X restore 200 47 pd connect_tcp ------------------;
#X obj 85 112 t f f;
#X obj 234 262 spigot;
#X obj 267 240 == 1;
#X floatatom 395 68 7 0 0 0 - - -;
#X text 394 84 no file;
#X obj 634 201 bng 15 250 50 0 empty empty empty 17 7 0 10 -262144
-1 -1;
#X text 656 200 start;
#X obj 673 221 bng 15 250 50 0 empty empty empty 17 7 0 10 -262144
-1 -1;
#X text 693 222 stop;
#X msg 692 324 0;
#X obj 634 417 f 10000;
#X msg 673 378 10000;
#X obj 692 347 s read_data_live;
#X msg 712 268 stop;
#X msg 634 572 send \$1;
#X obj 779 268 + 1;
#X obj 752 247 t f f;
#X obj 673 241 t b b b;
#X obj 634 593 s \$0-tosend_tcp;
#X obj 752 213 spigot;
#X obj 634 92 r dowload_live2;
#X obj 634 173 t b b;
#X obj 634 550 t f b;
#X obj 634 505 spigot;
#X obj 634 470 t f f;
#X obj 799 453 r init_cfg_current;
#X obj 799 475 + 10000;
#X obj 754 526 t f f;
#X obj 754 547 sel 0;
#X obj 754 499 <= 20000;
#X msg 838 598 1;
#X obj 838 621 s data_completed;
#X obj 754 638 delay 1000;
#X obj 234 213 r \$0-written_file;
#X obj 752 164 r \$0-written_file;
#X obj 754 573 t b b b;
#X obj 773 609 s save_window_settings;
#X msg 837 643 vis 0;
#X obj 837 663 s pd-live2;
#X obj 680 693 s pd-live3;
#X msg 680 673 vis 1;
#X obj 952 621 s nb_file;
#X obj 952 592 r init_cfg_current;
#X obj 234 366 print_debug DATA_FILE;
#X msg 234 339 \$1 written;
#X obj 909 690 print_debug DATA_FILE;
#X msg 909 664 ALL files downloaded;
#X obj 752 324 print_debug DATA_FILE;
#X msg 752 297 \$1 written;
#X obj 712 418 delay 500;
#X connect 0 0 16 0;
#X connect 1 0 9 0;
#X connect 3 0 25 0;
#X connect 5 0 15 0;
#X connect 6 0 33 0;
#X connect 8 0 7 0;
#X connect 9 0 21 0;
#X connect 10 0 11 0;
#X connect 11 0 13 1;
#X connect 12 0 9 1;
#X connect 13 0 9 1;
#X connect 14 0 19 0;
#X connect 14 1 3 0;
#X connect 17 0 0 0;
#X connect 18 0 20 0;
#X connect 19 0 1 0;
#X connect 19 1 13 0;
#X connect 19 2 17 0;
#X connect 20 0 9 0;
#X connect 21 0 22 0;
#X connect 21 2 20 0;
#X connect 22 0 28 0;
#X connect 23 0 9 1;
#X connect 24 0 77 0;
#X connect 24 1 23 0;
#X connect 25 0 12 0;
#X connect 25 1 5 0;
#X connect 25 2 18 0;
#X connect 26 0 27 1;
#X connect 26 0 52 1;
#X connect 27 0 54 0;
#X connect 32 0 30 0;
#X connect 32 1 36 0;
#X connect 33 0 14 0;
#X connect 33 1 35 0;
#X connect 33 1 26 0;
#X connect 34 0 24 0;
#X connect 35 0 34 1;
#X connect 38 0 43 0;
#X connect 40 0 50 0;
#X connect 42 0 45 0;
#X connect 43 0 57 0;
#X connect 44 0 43 1;
#X connect 46 0 82 0;
#X connect 47 0 51 0;
#X connect 48 0 43 1;
#X connect 49 0 81 0;
#X connect 49 1 48 0;
#X connect 50 0 44 0;
#X connect 50 1 42 0;
#X connect 50 2 46 0;
#X connect 52 0 49 0;
#X connect 53 0 27 0;
#X connect 54 0 38 0;
#X connect 54 1 40 0;
#X connect 55 0 47 0;
#X connect 55 1 82 0;
#X connect 56 0 55 0;
#X connect 57 0 56 0;
#X connect 57 1 62 0;
#X connect 58 0 59 0;
#X connect 59 0 62 1;
#X connect 60 0 61 0;
#X connect 60 1 56 1;
#X connect 61 0 68 0;
#X connect 62 0 60 0;
#X connect 63 0 64 0;
#X connect 65 0 8 0;
#X connect 65 0 73 0;
#X connect 65 0 79 0;
#X connect 66 0 34 0;
#X connect 67 0 52 0;
#X connect 68 0 65 0;
#X connect 68 1 69 0;
#X connect 68 1 70 0;
#X connect 68 2 63 0;
#X connect 70 0 71 0;
#X connect 73 0 72 0;
#X connect 75 0 74 0;
#X connect 77 0 76 0;
#X connect 79 0 78 0;
#X connect 81 0 80 0;
#X connect 82 0 43 0;
