#N canvas 552 163 1132 814 10;
#X obj 144 585 scaleXYZ 0.05 0.05 1;
#X obj 832 708 loadbang;
#X obj 167 650 list prepend text;
#X obj 167 671 list trim;
#X obj 167 626 r \$0-ligne0;
#X obj 144 116 s \$0-ligne0;
#X obj 224 116 s \$0-ligne1;
#X obj 354 231 gemhead 20;
#X obj 354 580 scaleXYZ 0.05 0.05 1;
#X obj 354 145 loadbang;
#X obj 377 659 list prepend text;
#X obj 377 680 list trim;
#X msg 423 452 1 500;
#X obj 374 477 line;
#X msg 374 451 0 500;
#X msg 386 172 1;
#X obj 452 427 delay 500;
#X msg 354 172 0;
#X msg 452 341 stop;
#X obj 374 324 t b b b;
#X obj 374 297 r \$0-ligne1;
#X msg 212 47 ligne0 waiting for data \, ligne1 connected to 345.567.67.12
;
#X obj 144 22 r \$0-text;
#X obj 205 22 r text_display;
#X obj 377 633 r \$0-ligne1;
#X obj 27 35 r chdh_post;
#X obj 27 252 route interface;
#X obj 374 394 t b;
#X obj 144 231 gemhead 20;
#X obj 144 145 loadbang;
#X msg 213 452 1 500;
#X obj 164 477 line;
#X msg 164 451 0 500;
#X msg 176 172 1;
#X obj 242 427 delay 500;
#X msg 144 172 0;
#X msg 242 341 stop;
#X obj 164 324 t b b b;
#X obj 164 394 t b;
#X obj 164 371 delay 30000;
#X obj 374 371 delay 30000;
#X obj 27 317 route rythme;
#X obj 27 361 sel 1;
#X obj 27 231 spigot;
#X obj 144 204 f;
#X obj 164 297 r \$0-ligne0;
#X obj 144 257 alpha 1;
#X obj 354 257 alpha 1;
#X msg 27 339 \$2;
#X obj 27 273 list split 2;
#X obj 27 297 list trim;
#N canvas 725 258 592 633 receive_config 0;
#X obj 32 17 r init_cfg_live;
#X obj 32 42 sel -1 0 1 2 3;
#X obj 53 77 r performance_date;
#X obj 32 105 list;
#X obj 32 166 s \$0-text;
#X obj 48 325 s \$0-text;
#X obj 64 434 s \$0-text;
#X obj 64 367 f;
#X obj 149 325 r init_cfg_current;
#X obj 69 207 r performance_date;
#X obj 48 235 list;
#X obj 80 494 s \$0-text;
#X msg 80 460 ligne1 A live is available for download : \, ligne0 click
[live] to download it;
#X obj 100 564 s \$0-text;
#X obj 149 349 / 6;
#X msg 64 400 ligne1 LIVE mode on \, ligne0 getting current state -
performance started \$1 min ago;
#X obj 149 371 i;
#X msg 32 132 ligne1 A live performance will happen the : \, ligne0
\$1 \$2 \$3 / \$4\$5:\$6\$7 CEST (UTC+2);
#X msg 48 290 ligne1 Live will happen soon : \, ligne0 \$1 \$2 \$3
/ \$4\$5:\$6\$7 CEST (UTC+2);
#X msg 100 530 ligne1 The remote performance of the 27th May 2015 can
be replayed \, ligne0 Click [live] for more infos;
#X connect 0 0 1 0;
#X connect 1 0 3 0;
#X connect 1 1 10 0;
#X connect 1 2 7 0;
#X connect 1 3 12 0;
#X connect 1 4 19 0;
#X connect 2 0 3 1;
#X connect 3 0 17 0;
#X connect 7 0 15 0;
#X connect 8 0 14 0;
#X connect 9 0 10 1;
#X connect 10 0 18 0;
#X connect 12 0 11 0;
#X connect 14 0 16 0;
#X connect 15 0 6 0;
#X connect 16 0 7 1;
#X connect 17 0 4 0;
#X connect 18 0 5 0;
#X connect 19 0 13 0;
#X restore 712 23 pd receive_config;
#X obj 559 587 scaleXYZ 0.05 0.05 1;
#X obj 769 233 gemhead 20;
#X obj 769 582 scaleXYZ 0.05 0.05 1;
#X obj 769 147 loadbang;
#X obj 792 682 list trim;
#X msg 838 454 1 500;
#X obj 789 479 line;
#X msg 789 453 0 500;
#X msg 801 174 1;
#X obj 867 429 delay 500;
#X msg 769 174 0;
#X msg 867 343 stop;
#X obj 789 326 t b b b;
#X obj 789 396 t b;
#X obj 559 233 gemhead 20;
#X obj 559 147 loadbang;
#X msg 628 454 1 500;
#X obj 579 479 line;
#X msg 579 453 0 500;
#X msg 591 174 1;
#X obj 657 429 delay 500;
#X msg 559 174 0;
#X msg 657 343 stop;
#X obj 579 326 t b b b;
#X obj 579 396 t b;
#X obj 579 373 delay 30000;
#X obj 789 373 delay 30000;
#X obj 559 206 f;
#X obj 559 259 alpha 1;
#X obj 769 259 alpha 1;
#X obj 144 81 route ligne0 ligne1;
#X obj 582 673 list trim;
#X obj 582 652 list prepend string;
#X obj 792 661 list prepend string;
#X msg 923 74 77 78 79 80 60 61 62;
#X obj 769 544 translateXYZ -1.25 -0.77 0;
#X obj 559 549 translateXYZ -1.25 -0.83 0;
#X obj 354 542 translateXYZ -1.25 -0.89 0;
#X obj 144 547 translateXYZ -1.25 -0.95 0;
#X msg 789 503 color \$1;
#X msg 579 503 color \$1;
#X msg 374 503 color \$1;
#X msg 164 503 color \$1;
#X msg 922 122 77 78 79 80 60 61 62;
#X obj 579 299 r ligne2;
#X obj 581 628 r ligne2;
#X obj 789 299 r ligne3;
#X obj 792 635 r ligne3;
#X obj 922 150 s ligne3;
#X obj 923 99 s ligne2;
#X msg 832 730 size 0.6;
#X obj 144 757 text_shader;
#X obj 354 757 text_shader;
#X obj 559 759 text_shader;
#X obj 770 759 text_shader;
#X connect 0 0 103 0;
#X connect 1 0 102 0;
#X connect 2 0 3 0;
#X connect 3 0 103 1;
#X connect 4 0 2 0;
#X connect 7 0 47 0;
#X connect 8 0 104 0;
#X connect 9 0 17 0;
#X connect 10 0 11 0;
#X connect 11 0 104 1;
#X connect 12 0 13 0;
#X connect 13 0 93 0;
#X connect 14 0 13 0;
#X connect 15 0 7 0;
#X connect 16 0 17 0;
#X connect 17 0 7 0;
#X connect 18 0 16 0;
#X connect 18 0 40 0;
#X connect 19 0 40 0;
#X connect 19 1 12 0;
#X connect 19 1 15 0;
#X connect 19 2 18 0;
#X connect 20 0 19 0;
#X connect 21 0 82 0;
#X connect 22 0 82 0;
#X connect 23 0 82 0;
#X connect 24 0 10 0;
#X connect 25 0 43 0;
#X connect 26 0 49 0;
#X connect 27 0 14 0;
#X connect 27 0 16 0;
#X connect 28 0 46 0;
#X connect 29 0 35 0;
#X connect 30 0 31 0;
#X connect 31 0 94 0;
#X connect 32 0 31 0;
#X connect 33 0 44 0;
#X connect 34 0 35 0;
#X connect 35 0 44 0;
#X connect 36 0 34 0;
#X connect 36 0 39 0;
#X connect 37 0 39 0;
#X connect 37 1 30 0;
#X connect 37 1 33 0;
#X connect 37 2 36 0;
#X connect 38 0 32 0;
#X connect 38 0 34 0;
#X connect 39 0 38 0;
#X connect 40 0 27 0;
#X connect 41 0 48 0;
#X connect 42 0 38 0;
#X connect 42 0 27 0;
#X connect 42 0 76 0;
#X connect 42 0 65 0;
#X connect 43 0 26 0;
#X connect 44 0 28 0;
#X connect 44 0 43 1;
#X connect 45 0 37 0;
#X connect 46 0 90 0;
#X connect 47 0 89 0;
#X connect 48 0 42 0;
#X connect 49 1 50 0;
#X connect 50 0 41 0;
#X connect 52 0 105 0;
#X connect 53 0 81 0;
#X connect 54 0 106 0;
#X connect 55 0 62 0;
#X connect 56 0 106 1;
#X connect 57 0 58 0;
#X connect 58 0 91 0;
#X connect 59 0 58 0;
#X connect 60 0 53 0;
#X connect 61 0 62 0;
#X connect 62 0 53 0;
#X connect 63 0 61 0;
#X connect 63 0 78 0;
#X connect 64 0 78 0;
#X connect 64 1 57 0;
#X connect 64 1 60 0;
#X connect 64 2 63 0;
#X connect 65 0 59 0;
#X connect 65 0 61 0;
#X connect 66 0 80 0;
#X connect 67 0 73 0;
#X connect 68 0 69 0;
#X connect 69 0 92 0;
#X connect 70 0 69 0;
#X connect 71 0 79 0;
#X connect 72 0 73 0;
#X connect 73 0 79 0;
#X connect 74 0 72 0;
#X connect 74 0 77 0;
#X connect 75 0 77 0;
#X connect 75 1 68 0;
#X connect 75 1 71 0;
#X connect 75 2 74 0;
#X connect 76 0 70 0;
#X connect 76 0 72 0;
#X connect 77 0 76 0;
#X connect 78 0 65 0;
#X connect 79 0 66 0;
#X connect 80 0 88 0;
#X connect 81 0 87 0;
#X connect 82 0 5 0;
#X connect 82 1 6 0;
#X connect 83 0 105 1;
#X connect 84 0 83 0;
#X connect 85 0 56 0;
#X connect 86 0 101 0;
#X connect 87 0 54 0;
#X connect 88 0 52 0;
#X connect 89 0 8 0;
#X connect 90 0 0 0;
#X connect 91 0 106 1;
#X connect 92 0 105 1;
#X connect 93 0 104 1;
#X connect 94 0 103 1;
#X connect 95 0 100 0;
#X connect 96 0 75 0;
#X connect 97 0 84 0;
#X connect 98 0 64 0;
#X connect 99 0 85 0;
#X connect 102 0 103 1;
#X connect 102 0 104 1;
#X connect 102 0 105 1;
#X connect 102 0 106 1;
