#N canvas 716 384 482 508 10;
#X obj 34 117 inlet;
#X obj 169 43 inlet;
#X msg 254 136 size \$1;
#X msg 296 160 quality \$1;
#X floatatom 264 117 5 0 0 0 - - -;
#X obj 34 285 until;
#X obj 34 307 gemlist;
#X obj 34 241 t b a b;
#X obj 148 320 list;
#X obj 34 415 list split 1;
#X obj 34 383 list;
#X obj 34 328 t b a;
#X obj 54 167 loadbang;
#X msg 54 189 quality 1 \, rectangle 0;
#X obj 34 211 pix_texture;
#N canvas 619 323 554 621 lettre_shader 0;
#X obj 74 472 glsl_program;
#X obj 147 371 pack 0 0;
#X obj 168 306 change;
#X msg 147 394 link \$1 \$2;
#X floatatom 146 234 3 0 0 0 ID - -;
#X obj 74 286 glsl_fragment;
#X obj 124 149 bng 15 250 50 0 empty empty empty 0 -6 0 8 -262144 -1
-1;
#N canvas 1 85 450 300 load_shader 0;
#X obj 89 99 t b b;
#X msg 119 126 0;
#X obj 89 154 outlet;
#X obj 89 71 gemhead 1;
#X connect 0 0 2 0;
#X connect 0 1 1 0;
#X connect 1 0 3 0;
#X connect 3 0 0 0;
#X restore 124 128 pd load_shader;
#X msg 88 170 open ascii.vert;
#X msg 85 256 open ascii.frag;
#X msg 400 404 letter_ascii \$1;
#X obj 74 542 square 0.5;
#X obj 74 25 inlet;
#X obj 253 27 inlet;
#X obj 157 515 t f;
#X text 217 542 ESPACEMENT;
#X obj 157 542 * 1.1;
#X obj 400 25 inlet;
#X obj 74 567 translateXYZ 0.55 0 0;
#X obj 168 351 t b f;
#X floatatom 168 332 3 0 0 0 ID - -;
#X obj 74 192 glsl_vertex;
#X obj 146 211 change -1;
#X obj 253 55 route size color;
#X msg 299 371 color \$1;
#X connect 0 0 11 0;
#X connect 1 0 3 0;
#X connect 2 0 20 0;
#X connect 3 0 0 0;
#X connect 4 0 1 0;
#X connect 5 0 0 0;
#X connect 5 1 2 0;
#X connect 6 0 8 0;
#X connect 6 0 9 0;
#X connect 7 0 6 0;
#X connect 8 0 21 0;
#X connect 9 0 5 0;
#X connect 10 0 0 0;
#X connect 11 0 18 0;
#X connect 12 0 21 0;
#X connect 13 0 23 0;
#X connect 14 0 11 1;
#X connect 14 0 16 0;
#X connect 16 0 18 1;
#X connect 17 0 10 0;
#X connect 19 0 1 0;
#X connect 19 1 1 1;
#X connect 20 0 19 0;
#X connect 21 0 5 0;
#X connect 21 1 22 0;
#X connect 22 0 4 0;
#X connect 23 0 14 0;
#X connect 23 1 24 0;
#X connect 24 0 0 0;
#X restore 61 466 pd lettre_shader;
#X obj 169 68 route string text size quality color;
#X msg 339 213 color \$1;
#X obj 34 143 pix_image ascii.tif;
#N canvas 86 300 452 399 list_2_ascii 0;
#X obj 61 181 list fromsymbol;
#X obj 113 157 makefilename %d;
#X obj 61 134 route symbol float;
#X obj 61 85 list split 1;
#X obj 95 108 list;
#X obj 42 55 t b a b;
#X msg 182 92 list;
#X obj 42 313 list;
#X obj 61 275 list;
#X msg 61 226 32;
#X obj 61 203 t b a;
#X obj 61 249 list append;
#X obj 42 32 list;
#X obj 42 341 outlet;
#X obj 42 12 inlet;
#X connect 0 0 10 0;
#X connect 1 0 0 0;
#X connect 2 0 0 0;
#X connect 2 1 1 0;
#X connect 3 0 2 0;
#X connect 3 1 4 0;
#X connect 4 0 3 0;
#X connect 5 0 7 0;
#X connect 5 1 3 0;
#X connect 5 2 6 0;
#X connect 6 0 11 1;
#X connect 7 0 13 0;
#X connect 8 0 7 1;
#X connect 8 0 11 1;
#X connect 9 0 11 0;
#X connect 10 0 9 0;
#X connect 10 1 11 0;
#X connect 11 0 8 0;
#X connect 12 0 5 0;
#X connect 14 0 12 0;
#X restore 211 94 pd list_2_ascii;
#X connect 0 0 18 0;
#X connect 1 0 16 0;
#X connect 2 0 15 1;
#X connect 3 0 14 0;
#X connect 4 0 2 0;
#X connect 5 0 6 0;
#X connect 6 0 11 0;
#X connect 7 0 5 0;
#X connect 7 1 6 1;
#X connect 7 2 8 0;
#X connect 8 0 10 0;
#X connect 9 0 15 2;
#X connect 9 1 10 1;
#X connect 9 2 5 1;
#X connect 10 0 9 0;
#X connect 11 0 10 0;
#X connect 11 1 15 0;
#X connect 12 0 13 0;
#X connect 13 0 14 0;
#X connect 14 0 7 0;
#X connect 16 0 8 1;
#X connect 16 1 19 0;
#X connect 16 2 2 0;
#X connect 16 3 3 0;
#X connect 16 4 17 0;
#X connect 17 0 15 1;
#X connect 18 0 14 0;
#X connect 19 0 8 1;
