#N canvas 392 199 669 508 10;
#X obj 180 77 t b f;
#X obj 207 96 int;
#X obj 180 58 f 1;
#X obj 126 41 loadbang;
#X obj 180 39 clip 0 4;
#N canvas 158 185 314 343 apf 0;
#X obj 165 86 inlet;
#X obj 165 105 switch~ 64 1 1;
#X obj 98 74 pois;
#X obj 148 150 tgl 15 0 empty empty empty 17 7 0 10 -262144 -1 -1 0
1;
#X obj 148 131 t b f;
#X obj 148 205 line~;
#X obj 148 167 * 20;
#X obj 148 186 - 10;
#X obj 148 224 tanh~;
#X obj 92 262 rpole~;
#X obj 92 243 rzero_rev~;
#X obj 92 224 inlet~;
#X obj 184 150 * 2;
#X obj 92 281 outlet~;
#X obj 98 36 r \$1-go;
#X obj 123 55 r \$1-apf_lambda;
#X obj 184 131 r \$1-apf_range;
#X connect 0 0 1 0;
#X connect 2 1 4 0;
#X connect 3 0 6 0;
#X connect 4 0 3 0;
#X connect 4 1 5 1;
#X connect 5 0 8 0;
#X connect 6 0 7 0;
#X connect 7 0 5 0;
#X connect 8 0 10 1;
#X connect 8 0 9 1;
#X connect 9 0 13 0;
#X connect 10 0 9 0;
#X connect 11 0 10 0;
#X connect 12 0 6 1;
#X connect 14 0 2 0;
#X connect 15 0 2 1;
#X connect 16 0 12 0;
#X connect 16 0 7 1;
#X restore 19 360 pd apf;
#N canvas 158 185 455 529 del 0;
#X obj 120 46 inlet~;
#X obj 253 65 inlet;
#X obj 120 352 outlet~;
#X obj 253 84 switch~ 64 1 1;
#X obj 120 65 delwrite~ \$0-del \$2;
#X obj 120 103 pois;
#X obj 120 276 sig~;
#X obj 120 295 lop~ 1;
#X obj 153 276 tctofc;
#X obj 120 333 vd~ \$0-del;
#X obj 237 162 loadbang;
#X obj 147 179 f 0;
#X obj 174 200 f \$2;
#X obj 120 238 qdist 10 100 0;
#X obj 72 86 r \$1-go;
#X obj 145 84 r \$1-delay_lambda;
#X obj 153 257 r \$1-delay_tc;
#X obj 201 219 r \$1-delay_dist;
#X obj 147 160 r \$1-delay_min;
#X obj 174 181 r \$1-delay_max;
#X obj 120 314 lop~ 1;
#X connect 0 0 4 0;
#X connect 1 0 3 0;
#X connect 5 0 13 0;
#X connect 6 0 7 0;
#X connect 7 0 20 0;
#X connect 8 0 7 1;
#X connect 8 0 20 1;
#X connect 9 0 2 0;
#X connect 10 0 11 0;
#X connect 10 0 12 0;
#X connect 11 0 13 1;
#X connect 12 0 13 2;
#X connect 13 0 6 0;
#X connect 14 0 5 0;
#X connect 15 0 5 1;
#X connect 16 0 8 0;
#X connect 17 0 13 3;
#X connect 18 0 11 0;
#X connect 19 0 12 0;
#X connect 20 0 9 0;
#X restore 19 420 pd del;
#X obj 19 113 inlet~;
#X obj 19 477 outlet~;
#N canvas 158 185 450 300 stage 0;
#X obj 120 46 inlet~;
#X obj 216 66 inlet;
#X obj 121 122 outlet~;
#X obj 121 103 vcf~;
#X obj 132 65 r~ \$0-freq;
#X obj 142 84 r \$1-q;
#X obj 216 85 switch~ 64 1 1;
#X connect 0 0 3 0;
#X connect 1 0 6 0;
#X connect 3 0 2 0;
#X connect 4 0 3 1;
#X connect 5 0 3 2;
#X restore 19 189 pd stage;
#X obj 73 189 == 0;
#X obj 52 208 *~ 1;
#X obj 19 224 +~;
#N canvas 158 185 450 300 stage 0;
#X obj 120 46 inlet~;
#X obj 216 66 inlet;
#X obj 121 122 outlet~;
#X obj 121 103 vcf~;
#X obj 132 65 r~ \$0-freq;
#X obj 142 84 r \$1-q;
#X obj 216 85 switch~ 64 1 1;
#X connect 0 0 3 0;
#X connect 1 0 6 0;
#X connect 3 0 2 0;
#X connect 4 0 3 1;
#X connect 5 0 3 2;
#X restore 19 246 pd stage;
#X obj 73 246 == 0;
#X obj 52 265 *~ 1;
#X obj 19 281 +~;
#N canvas 158 185 450 300 stage 0;
#X obj 120 46 inlet~;
#X obj 216 66 inlet;
#X obj 121 122 outlet~;
#X obj 121 103 vcf~;
#X obj 132 65 r~ \$0-freq;
#X obj 142 84 r \$1-q;
#X obj 216 85 switch~ 64 1 1;
#X connect 0 0 3 0;
#X connect 1 0 6 0;
#X connect 3 0 2 0;
#X connect 4 0 3 1;
#X connect 5 0 3 2;
#X restore 19 303 pd stage;
#X obj 73 303 == 0;
#X obj 52 322 *~ 1;
#X obj 19 338 +~;
#X obj 64 170 >= 2;
#X obj 64 227 >= 3;
#X obj 64 284 >= 4;
#X obj 73 363 == 0;
#X obj 52 382 *~ 1;
#X obj 19 398 +~;
#X obj 73 423 == 0;
#X obj 52 442 *~ 1;
#X obj 19 458 +~;
#N canvas 158 185 450 300 stage 0;
#X obj 120 46 inlet~;
#X obj 216 66 inlet;
#X obj 121 122 outlet~;
#X obj 121 103 vcf~;
#X obj 132 65 r~ \$0-freq;
#X obj 142 84 r \$1-q;
#X obj 216 85 switch~ 64 1 1;
#X connect 0 0 3 0;
#X connect 1 0 6 0;
#X connect 3 0 2 0;
#X connect 4 0 3 1;
#X connect 5 0 3 2;
#X restore 19 132 pd stage;
#X obj 73 132 == 0;
#X obj 52 151 *~ 1;
#X obj 19 167 +~;
#X obj 64 113 >= 1;
#X obj 392 339 s~ \$0-freq;
#X obj 425 282 tctofc;
#X obj 392 301 lop~ 1;
#X obj 566 208 t b f;
#X obj 566 227 -;
#X obj 392 244 *;
#X obj 392 282 sig~;
#X obj 392 320 mtof~;
#X obj 346 168 inlet;
#X text 344 151 new_frequency;
#X obj 392 206 random 1e+008;
#X obj 392 225 * 1e-008;
#X obj 566 189 ftom;
#X obj 476 210 ftom;
#X obj 392 263 +;
#X obj 180 20 r \$1-n_stages;
#X obj 425 263 r \$1-filter_tc;
#X obj 476 191 r \$1-freq_high;
#X obj 566 170 r \$1-freq_low;
#X obj 52 341 r \$1-apf_enable;
#X obj 52 401 r \$1-delay_enable;
#X obj 346 187 route float bang;
#X text 285 39 inlets: audio in (signal in) \, new band center frequency
(bang for random or frequency in Hz to set explictly);
#X text 285 16 arguments: control panel name \, max delay time in ms
;
#X obj 346 206 ftom;
#X obj 346 280 outlet;
#X text 391 371 last revision: 2015-03-28;
#X text 285 71 outlets: audio out \, filter frequency out (good for
controlling further fbank~ units \, for a vocoder or something);
#X connect 0 1 1 0;
#X connect 1 0 21 0;
#X connect 1 0 22 0;
#X connect 1 0 23 0;
#X connect 1 0 34 0;
#X connect 2 0 0 0;
#X connect 3 0 2 0;
#X connect 4 0 2 0;
#X connect 5 0 26 0;
#X connect 6 0 29 0;
#X connect 7 0 30 0;
#X connect 7 0 32 0;
#X connect 9 0 12 0;
#X connect 10 0 11 1;
#X connect 11 0 12 1;
#X connect 12 0 13 0;
#X connect 12 0 15 0;
#X connect 13 0 16 0;
#X connect 14 0 15 1;
#X connect 15 0 16 1;
#X connect 16 0 17 0;
#X connect 16 0 19 0;
#X connect 17 0 20 0;
#X connect 18 0 19 1;
#X connect 19 0 20 1;
#X connect 20 0 25 0;
#X connect 20 0 5 0;
#X connect 21 0 9 1;
#X connect 21 0 10 0;
#X connect 22 0 13 1;
#X connect 22 0 14 0;
#X connect 23 0 17 1;
#X connect 23 0 18 0;
#X connect 24 0 25 1;
#X connect 25 0 26 1;
#X connect 26 0 28 0;
#X connect 26 0 6 0;
#X connect 27 0 28 1;
#X connect 28 0 29 1;
#X connect 29 0 8 0;
#X connect 30 0 33 0;
#X connect 31 0 32 1;
#X connect 32 0 33 1;
#X connect 33 0 9 0;
#X connect 33 0 11 0;
#X connect 34 0 30 1;
#X connect 34 0 31 0;
#X connect 36 0 37 1;
#X connect 37 0 42 0;
#X connect 38 0 39 0;
#X connect 38 1 39 1;
#X connect 39 0 40 1;
#X connect 40 0 49 0;
#X connect 41 0 37 0;
#X connect 42 0 35 0;
#X connect 43 0 56 0;
#X connect 45 0 46 0;
#X connect 46 0 40 0;
#X connect 47 0 38 0;
#X connect 47 0 49 1;
#X connect 48 0 39 0;
#X connect 49 0 41 0;
#X connect 49 0 60 0;
#X connect 50 0 4 0;
#X connect 51 0 36 0;
#X connect 52 0 48 0;
#X connect 53 0 47 0;
#X connect 54 0 24 0;
#X connect 54 0 5 1;
#X connect 55 0 27 0;
#X connect 55 0 6 1;
#X connect 56 0 59 0;
#X connect 56 1 45 0;
#X connect 59 0 41 0;
#X connect 59 0 60 0;
