#N canvas 717 128 357 498 10;
#X obj 17 17 inlet~;
#X text 16 -1 audio;
#X obj 62 17 inlet~;
#X text 60 -1 low;
#X obj 158 17 inlet~;
#X text 161 -2 high;
#N canvas 594 298 361 306 unit 0;
#X obj -2 63 inlet~;
#X text -2 42 audio;
#X obj -2 126 outlet~;
#X obj -2 105 rpole~;
#X obj -2 84 rzero_rev~;
#X obj 96 -16 + 1;
#X obj 119 26 /;
#X obj 98 47 *~ 0;
#X obj 98 68 +~;
#X obj 258 15 -;
#X obj 258 35 /;
#X obj 144 52 *~ 0;
#X obj 96 -37 inlet;
#X obj 96 3 outlet;
#X obj 134 -37 r \$0-total;
#X obj -1 26 tabreceive~ \$0-high;
#X obj 144 33 tabreceive~ \$0-low;
#X connect 0 0 4 0;
#X connect 3 0 2 0;
#X connect 4 0 3 0;
#X connect 5 0 13 0;
#X connect 6 0 7 1;
#X connect 7 0 8 0;
#X connect 8 0 4 1;
#X connect 8 0 3 1;
#X connect 9 0 10 0;
#X connect 10 0 11 1;
#X connect 11 0 8 1;
#X connect 12 0 5 0;
#X connect 12 0 6 0;
#X connect 12 0 9 1;
#X connect 14 0 6 1;
#X connect 14 0 9 0;
#X connect 14 0 10 1;
#X connect 15 0 7 0;
#X connect 16 0 11 0;
#X restore 17 119 pd unit;
#X obj 165 326 outlet~;
#X obj 56 78 loadbang;
#X msg 56 99 0;
#X obj 205 286 - 1;
#X obj 62 37 clip~ -1 1;
#X obj 158 37 clip~ -1 1;
#X obj 91 425 table \$0-high 1024;
#X obj 91 444 table \$0-low 1024;
#X obj 62 57 tabsend~ \$0-low;
#X obj 158 57 tabsend~ \$0-high;
#X obj 205 305 s \$0-total;
#N canvas 594 298 361 306 unit 0;
#X obj -2 63 inlet~;
#X text -2 42 audio;
#X obj -2 126 outlet~;
#X obj -2 105 rpole~;
#X obj -2 84 rzero_rev~;
#X obj 96 -16 + 1;
#X obj 119 26 /;
#X obj 98 47 *~ 0;
#X obj 98 68 +~;
#X obj 258 15 -;
#X obj 258 35 /;
#X obj 144 52 *~ 0;
#X obj 96 -37 inlet;
#X obj 96 3 outlet;
#X obj 134 -37 r \$0-total;
#X obj -1 26 tabreceive~ \$0-high;
#X obj 144 33 tabreceive~ \$0-low;
#X connect 0 0 4 0;
#X connect 3 0 2 0;
#X connect 4 0 3 0;
#X connect 5 0 13 0;
#X connect 6 0 7 1;
#X connect 7 0 8 0;
#X connect 8 0 4 1;
#X connect 8 0 3 1;
#X connect 9 0 10 0;
#X connect 10 0 11 1;
#X connect 11 0 8 1;
#X connect 12 0 5 0;
#X connect 12 0 6 0;
#X connect 12 0 9 1;
#X connect 14 0 6 1;
#X connect 14 0 9 0;
#X connect 14 0 10 1;
#X connect 15 0 7 0;
#X connect 16 0 11 0;
#X restore 17 138 pd unit;
#N canvas 594 298 361 306 unit 0;
#X obj -2 63 inlet~;
#X text -2 42 audio;
#X obj -2 126 outlet~;
#X obj -2 105 rpole~;
#X obj -2 84 rzero_rev~;
#X obj 96 -16 + 1;
#X obj 119 26 /;
#X obj 98 47 *~ 0;
#X obj 98 68 +~;
#X obj 258 15 -;
#X obj 258 35 /;
#X obj 144 52 *~ 0;
#X obj 96 -37 inlet;
#X obj 96 3 outlet;
#X obj 134 -37 r \$0-total;
#X obj -1 26 tabreceive~ \$0-high;
#X obj 144 33 tabreceive~ \$0-low;
#X connect 0 0 4 0;
#X connect 3 0 2 0;
#X connect 4 0 3 0;
#X connect 5 0 13 0;
#X connect 6 0 7 1;
#X connect 7 0 8 0;
#X connect 8 0 4 1;
#X connect 8 0 3 1;
#X connect 9 0 10 0;
#X connect 10 0 11 1;
#X connect 11 0 8 1;
#X connect 12 0 5 0;
#X connect 12 0 6 0;
#X connect 12 0 9 1;
#X connect 14 0 6 1;
#X connect 14 0 9 0;
#X connect 14 0 10 1;
#X connect 15 0 7 0;
#X connect 16 0 11 0;
#X restore 17 157 pd unit;
#N canvas 594 298 361 306 unit 0;
#X obj -2 63 inlet~;
#X text -2 42 audio;
#X obj -2 126 outlet~;
#X obj -2 105 rpole~;
#X obj -2 84 rzero_rev~;
#X obj 96 -16 + 1;
#X obj 119 26 /;
#X obj 98 47 *~ 0;
#X obj 98 68 +~;
#X obj 258 15 -;
#X obj 258 35 /;
#X obj 144 52 *~ 0;
#X obj 96 -37 inlet;
#X obj 96 3 outlet;
#X obj 134 -37 r \$0-total;
#X obj -1 26 tabreceive~ \$0-high;
#X obj 144 33 tabreceive~ \$0-low;
#X connect 0 0 4 0;
#X connect 3 0 2 0;
#X connect 4 0 3 0;
#X connect 5 0 13 0;
#X connect 6 0 7 1;
#X connect 7 0 8 0;
#X connect 8 0 4 1;
#X connect 8 0 3 1;
#X connect 9 0 10 0;
#X connect 10 0 11 1;
#X connect 11 0 8 1;
#X connect 12 0 5 0;
#X connect 12 0 6 0;
#X connect 12 0 9 1;
#X connect 14 0 6 1;
#X connect 14 0 9 0;
#X connect 14 0 10 1;
#X connect 15 0 7 0;
#X connect 16 0 11 0;
#X restore 17 176 pd unit;
#N canvas 594 298 361 306 unit 0;
#X obj -2 63 inlet~;
#X text -2 42 audio;
#X obj -2 126 outlet~;
#X obj -2 105 rpole~;
#X obj -2 84 rzero_rev~;
#X obj 96 -16 + 1;
#X obj 119 26 /;
#X obj 98 47 *~ 0;
#X obj 98 68 +~;
#X obj 258 15 -;
#X obj 258 35 /;
#X obj 144 52 *~ 0;
#X obj 96 -37 inlet;
#X obj 96 3 outlet;
#X obj 134 -37 r \$0-total;
#X obj -1 26 tabreceive~ \$0-high;
#X obj 144 33 tabreceive~ \$0-low;
#X connect 0 0 4 0;
#X connect 3 0 2 0;
#X connect 4 0 3 0;
#X connect 5 0 13 0;
#X connect 6 0 7 1;
#X connect 7 0 8 0;
#X connect 8 0 4 1;
#X connect 8 0 3 1;
#X connect 9 0 10 0;
#X connect 10 0 11 1;
#X connect 11 0 8 1;
#X connect 12 0 5 0;
#X connect 12 0 6 0;
#X connect 12 0 9 1;
#X connect 14 0 6 1;
#X connect 14 0 9 0;
#X connect 14 0 10 1;
#X connect 15 0 7 0;
#X connect 16 0 11 0;
#X restore 17 195 pd unit;
#N canvas 594 298 361 306 unit 0;
#X obj -2 63 inlet~;
#X text -2 42 audio;
#X obj -2 126 outlet~;
#X obj -2 105 rpole~;
#X obj -2 84 rzero_rev~;
#X obj 96 -16 + 1;
#X obj 119 26 /;
#X obj 98 47 *~ 0;
#X obj 98 68 +~;
#X obj 258 15 -;
#X obj 258 35 /;
#X obj 144 52 *~ 0;
#X obj 96 -37 inlet;
#X obj 96 3 outlet;
#X obj 134 -37 r \$0-total;
#X obj -1 26 tabreceive~ \$0-high;
#X obj 144 33 tabreceive~ \$0-low;
#X connect 0 0 4 0;
#X connect 3 0 2 0;
#X connect 4 0 3 0;
#X connect 5 0 13 0;
#X connect 6 0 7 1;
#X connect 7 0 8 0;
#X connect 8 0 4 1;
#X connect 8 0 3 1;
#X connect 9 0 10 0;
#X connect 10 0 11 1;
#X connect 11 0 8 1;
#X connect 12 0 5 0;
#X connect 12 0 6 0;
#X connect 12 0 9 1;
#X connect 14 0 6 1;
#X connect 14 0 9 0;
#X connect 14 0 10 1;
#X connect 15 0 7 0;
#X connect 16 0 11 0;
#X restore 17 214 pd unit;
#N canvas 594 298 361 306 unit 0;
#X obj -2 63 inlet~;
#X text -2 42 audio;
#X obj -2 126 outlet~;
#X obj -2 105 rpole~;
#X obj -2 84 rzero_rev~;
#X obj 96 -16 + 1;
#X obj 119 26 /;
#X obj 98 47 *~ 0;
#X obj 98 68 +~;
#X obj 258 15 -;
#X obj 258 35 /;
#X obj 144 52 *~ 0;
#X obj 96 -37 inlet;
#X obj 96 3 outlet;
#X obj 134 -37 r \$0-total;
#X obj -1 26 tabreceive~ \$0-high;
#X obj 144 33 tabreceive~ \$0-low;
#X connect 0 0 4 0;
#X connect 3 0 2 0;
#X connect 4 0 3 0;
#X connect 5 0 13 0;
#X connect 6 0 7 1;
#X connect 7 0 8 0;
#X connect 8 0 4 1;
#X connect 8 0 3 1;
#X connect 9 0 10 0;
#X connect 10 0 11 1;
#X connect 11 0 8 1;
#X connect 12 0 5 0;
#X connect 12 0 6 0;
#X connect 12 0 9 1;
#X connect 14 0 6 1;
#X connect 14 0 9 0;
#X connect 14 0 10 1;
#X connect 15 0 7 0;
#X connect 16 0 11 0;
#X restore 17 233 pd unit;
#N canvas 594 298 361 306 unit 0;
#X obj -2 63 inlet~;
#X text -2 42 audio;
#X obj -2 126 outlet~;
#X obj -2 105 rpole~;
#X obj -2 84 rzero_rev~;
#X obj 96 -16 + 1;
#X obj 119 26 /;
#X obj 98 47 *~ 0;
#X obj 98 68 +~;
#X obj 258 15 -;
#X obj 258 35 /;
#X obj 144 52 *~ 0;
#X obj 96 -37 inlet;
#X obj 96 3 outlet;
#X obj 134 -37 r \$0-total;
#X obj -1 26 tabreceive~ \$0-high;
#X obj 144 33 tabreceive~ \$0-low;
#X connect 0 0 4 0;
#X connect 3 0 2 0;
#X connect 4 0 3 0;
#X connect 5 0 13 0;
#X connect 6 0 7 1;
#X connect 7 0 8 0;
#X connect 8 0 4 1;
#X connect 8 0 3 1;
#X connect 9 0 10 0;
#X connect 10 0 11 1;
#X connect 11 0 8 1;
#X connect 12 0 5 0;
#X connect 12 0 6 0;
#X connect 12 0 9 1;
#X connect 14 0 6 1;
#X connect 14 0 9 0;
#X connect 14 0 10 1;
#X connect 15 0 7 0;
#X connect 16 0 11 0;
#X restore 17 252 pd unit;
#N canvas 594 298 361 306 unit 0;
#X obj -2 63 inlet~;
#X text -2 42 audio;
#X obj -2 126 outlet~;
#X obj -2 105 rpole~;
#X obj -2 84 rzero_rev~;
#X obj 96 -16 + 1;
#X obj 119 26 /;
#X obj 98 47 *~ 0;
#X obj 98 68 +~;
#X obj 258 15 -;
#X obj 258 35 /;
#X obj 144 52 *~ 0;
#X obj 96 -37 inlet;
#X obj 96 3 outlet;
#X obj 134 -37 r \$0-total;
#X obj -1 26 tabreceive~ \$0-high;
#X obj 144 33 tabreceive~ \$0-low;
#X connect 0 0 4 0;
#X connect 3 0 2 0;
#X connect 4 0 3 0;
#X connect 5 0 13 0;
#X connect 6 0 7 1;
#X connect 7 0 8 0;
#X connect 8 0 4 1;
#X connect 8 0 3 1;
#X connect 9 0 10 0;
#X connect 10 0 11 1;
#X connect 11 0 8 1;
#X connect 12 0 5 0;
#X connect 12 0 6 0;
#X connect 12 0 9 1;
#X connect 14 0 6 1;
#X connect 14 0 9 0;
#X connect 14 0 10 1;
#X connect 15 0 7 0;
#X connect 16 0 11 0;
#X restore 67 119 pd unit;
#N canvas 594 298 361 306 unit 0;
#X obj -2 63 inlet~;
#X text -2 42 audio;
#X obj -2 126 outlet~;
#X obj -2 105 rpole~;
#X obj -2 84 rzero_rev~;
#X obj 96 -16 + 1;
#X obj 119 26 /;
#X obj 98 47 *~ 0;
#X obj 98 68 +~;
#X obj 258 15 -;
#X obj 258 35 /;
#X obj 144 52 *~ 0;
#X obj 96 -37 inlet;
#X obj 96 3 outlet;
#X obj 134 -37 r \$0-total;
#X obj -1 26 tabreceive~ \$0-high;
#X obj 144 33 tabreceive~ \$0-low;
#X connect 0 0 4 0;
#X connect 3 0 2 0;
#X connect 4 0 3 0;
#X connect 5 0 13 0;
#X connect 6 0 7 1;
#X connect 7 0 8 0;
#X connect 8 0 4 1;
#X connect 8 0 3 1;
#X connect 9 0 10 0;
#X connect 10 0 11 1;
#X connect 11 0 8 1;
#X connect 12 0 5 0;
#X connect 12 0 6 0;
#X connect 12 0 9 1;
#X connect 14 0 6 1;
#X connect 14 0 9 0;
#X connect 14 0 10 1;
#X connect 15 0 7 0;
#X connect 16 0 11 0;
#X restore 67 138 pd unit;
#N canvas 594 298 361 306 unit 0;
#X obj -2 63 inlet~;
#X text -2 42 audio;
#X obj -2 126 outlet~;
#X obj -2 105 rpole~;
#X obj -2 84 rzero_rev~;
#X obj 96 -16 + 1;
#X obj 119 26 /;
#X obj 98 47 *~ 0;
#X obj 98 68 +~;
#X obj 258 15 -;
#X obj 258 35 /;
#X obj 144 52 *~ 0;
#X obj 96 -37 inlet;
#X obj 96 3 outlet;
#X obj 134 -37 r \$0-total;
#X obj -1 26 tabreceive~ \$0-high;
#X obj 144 33 tabreceive~ \$0-low;
#X connect 0 0 4 0;
#X connect 3 0 2 0;
#X connect 4 0 3 0;
#X connect 5 0 13 0;
#X connect 6 0 7 1;
#X connect 7 0 8 0;
#X connect 8 0 4 1;
#X connect 8 0 3 1;
#X connect 9 0 10 0;
#X connect 10 0 11 1;
#X connect 11 0 8 1;
#X connect 12 0 5 0;
#X connect 12 0 6 0;
#X connect 12 0 9 1;
#X connect 14 0 6 1;
#X connect 14 0 9 0;
#X connect 14 0 10 1;
#X connect 15 0 7 0;
#X connect 16 0 11 0;
#X restore 67 157 pd unit;
#N canvas 594 298 361 306 unit 0;
#X obj -2 63 inlet~;
#X text -2 42 audio;
#X obj -2 126 outlet~;
#X obj -2 105 rpole~;
#X obj -2 84 rzero_rev~;
#X obj 96 -16 + 1;
#X obj 119 26 /;
#X obj 98 47 *~ 0;
#X obj 98 68 +~;
#X obj 258 15 -;
#X obj 258 35 /;
#X obj 144 52 *~ 0;
#X obj 96 -37 inlet;
#X obj 96 3 outlet;
#X obj 134 -37 r \$0-total;
#X obj -1 26 tabreceive~ \$0-high;
#X obj 144 33 tabreceive~ \$0-low;
#X connect 0 0 4 0;
#X connect 3 0 2 0;
#X connect 4 0 3 0;
#X connect 5 0 13 0;
#X connect 6 0 7 1;
#X connect 7 0 8 0;
#X connect 8 0 4 1;
#X connect 8 0 3 1;
#X connect 9 0 10 0;
#X connect 10 0 11 1;
#X connect 11 0 8 1;
#X connect 12 0 5 0;
#X connect 12 0 6 0;
#X connect 12 0 9 1;
#X connect 14 0 6 1;
#X connect 14 0 9 0;
#X connect 14 0 10 1;
#X connect 15 0 7 0;
#X connect 16 0 11 0;
#X restore 67 176 pd unit;
#N canvas 594 298 361 306 unit 0;
#X obj -2 63 inlet~;
#X text -2 42 audio;
#X obj -2 126 outlet~;
#X obj -2 105 rpole~;
#X obj -2 84 rzero_rev~;
#X obj 96 -16 + 1;
#X obj 119 26 /;
#X obj 98 47 *~ 0;
#X obj 98 68 +~;
#X obj 258 15 -;
#X obj 258 35 /;
#X obj 144 52 *~ 0;
#X obj 96 -37 inlet;
#X obj 96 3 outlet;
#X obj 134 -37 r \$0-total;
#X obj -1 26 tabreceive~ \$0-high;
#X obj 144 33 tabreceive~ \$0-low;
#X connect 0 0 4 0;
#X connect 3 0 2 0;
#X connect 4 0 3 0;
#X connect 5 0 13 0;
#X connect 6 0 7 1;
#X connect 7 0 8 0;
#X connect 8 0 4 1;
#X connect 8 0 3 1;
#X connect 9 0 10 0;
#X connect 10 0 11 1;
#X connect 11 0 8 1;
#X connect 12 0 5 0;
#X connect 12 0 6 0;
#X connect 12 0 9 1;
#X connect 14 0 6 1;
#X connect 14 0 9 0;
#X connect 14 0 10 1;
#X connect 15 0 7 0;
#X connect 16 0 11 0;
#X restore 67 195 pd unit;
#N canvas 594 298 361 306 unit 0;
#X obj -2 63 inlet~;
#X text -2 42 audio;
#X obj -2 126 outlet~;
#X obj -2 105 rpole~;
#X obj -2 84 rzero_rev~;
#X obj 96 -16 + 1;
#X obj 119 26 /;
#X obj 98 47 *~ 0;
#X obj 98 68 +~;
#X obj 258 15 -;
#X obj 258 35 /;
#X obj 144 52 *~ 0;
#X obj 96 -37 inlet;
#X obj 96 3 outlet;
#X obj 134 -37 r \$0-total;
#X obj -1 26 tabreceive~ \$0-high;
#X obj 144 33 tabreceive~ \$0-low;
#X connect 0 0 4 0;
#X connect 3 0 2 0;
#X connect 4 0 3 0;
#X connect 5 0 13 0;
#X connect 6 0 7 1;
#X connect 7 0 8 0;
#X connect 8 0 4 1;
#X connect 8 0 3 1;
#X connect 9 0 10 0;
#X connect 10 0 11 1;
#X connect 11 0 8 1;
#X connect 12 0 5 0;
#X connect 12 0 6 0;
#X connect 12 0 9 1;
#X connect 14 0 6 1;
#X connect 14 0 9 0;
#X connect 14 0 10 1;
#X connect 15 0 7 0;
#X connect 16 0 11 0;
#X restore 67 214 pd unit;
#N canvas 594 298 361 306 unit 0;
#X obj -2 63 inlet~;
#X text -2 42 audio;
#X obj -2 126 outlet~;
#X obj -2 105 rpole~;
#X obj -2 84 rzero_rev~;
#X obj 96 -16 + 1;
#X obj 119 26 /;
#X obj 98 47 *~ 0;
#X obj 98 68 +~;
#X obj 258 15 -;
#X obj 258 35 /;
#X obj 144 52 *~ 0;
#X obj 96 -37 inlet;
#X obj 96 3 outlet;
#X obj 134 -37 r \$0-total;
#X obj -1 26 tabreceive~ \$0-high;
#X obj 144 33 tabreceive~ \$0-low;
#X connect 0 0 4 0;
#X connect 3 0 2 0;
#X connect 4 0 3 0;
#X connect 5 0 13 0;
#X connect 6 0 7 1;
#X connect 7 0 8 0;
#X connect 8 0 4 1;
#X connect 8 0 3 1;
#X connect 9 0 10 0;
#X connect 10 0 11 1;
#X connect 11 0 8 1;
#X connect 12 0 5 0;
#X connect 12 0 6 0;
#X connect 12 0 9 1;
#X connect 14 0 6 1;
#X connect 14 0 9 0;
#X connect 14 0 10 1;
#X connect 15 0 7 0;
#X connect 16 0 11 0;
#X restore 67 233 pd unit;
#N canvas 594 298 361 306 unit 0;
#X obj -2 63 inlet~;
#X text -2 42 audio;
#X obj -2 126 outlet~;
#X obj -2 105 rpole~;
#X obj -2 84 rzero_rev~;
#X obj 96 -16 + 1;
#X obj 119 26 /;
#X obj 98 47 *~ 0;
#X obj 98 68 +~;
#X obj 258 15 -;
#X obj 258 35 /;
#X obj 144 52 *~ 0;
#X obj 96 -37 inlet;
#X obj 96 3 outlet;
#X obj 134 -37 r \$0-total;
#X obj -1 26 tabreceive~ \$0-high;
#X obj 144 33 tabreceive~ \$0-low;
#X connect 0 0 4 0;
#X connect 3 0 2 0;
#X connect 4 0 3 0;
#X connect 5 0 13 0;
#X connect 6 0 7 1;
#X connect 7 0 8 0;
#X connect 8 0 4 1;
#X connect 8 0 3 1;
#X connect 9 0 10 0;
#X connect 10 0 11 1;
#X connect 11 0 8 1;
#X connect 12 0 5 0;
#X connect 12 0 6 0;
#X connect 12 0 9 1;
#X connect 14 0 6 1;
#X connect 14 0 9 0;
#X connect 14 0 10 1;
#X connect 15 0 7 0;
#X connect 16 0 11 0;
#X restore 67 252 pd unit;
#N canvas 594 298 361 306 unit 0;
#X obj -2 63 inlet~;
#X text -2 42 audio;
#X obj -2 126 outlet~;
#X obj -2 105 rpole~;
#X obj -2 84 rzero_rev~;
#X obj 96 -16 + 1;
#X obj 119 26 /;
#X obj 98 47 *~ 0;
#X obj 98 68 +~;
#X obj 258 15 -;
#X obj 258 35 /;
#X obj 144 52 *~ 0;
#X obj 96 -37 inlet;
#X obj 96 3 outlet;
#X obj 134 -37 r \$0-total;
#X obj -1 26 tabreceive~ \$0-high;
#X obj 144 33 tabreceive~ \$0-low;
#X connect 0 0 4 0;
#X connect 3 0 2 0;
#X connect 4 0 3 0;
#X connect 5 0 13 0;
#X connect 6 0 7 1;
#X connect 7 0 8 0;
#X connect 8 0 4 1;
#X connect 8 0 3 1;
#X connect 9 0 10 0;
#X connect 10 0 11 1;
#X connect 11 0 8 1;
#X connect 12 0 5 0;
#X connect 12 0 6 0;
#X connect 12 0 9 1;
#X connect 14 0 6 1;
#X connect 14 0 9 0;
#X connect 14 0 10 1;
#X connect 15 0 7 0;
#X connect 16 0 11 0;
#X restore 116 119 pd unit;
#N canvas 594 298 361 306 unit 0;
#X obj -2 63 inlet~;
#X text -2 42 audio;
#X obj -2 126 outlet~;
#X obj -2 105 rpole~;
#X obj -2 84 rzero_rev~;
#X obj 96 -16 + 1;
#X obj 119 26 /;
#X obj 98 47 *~ 0;
#X obj 98 68 +~;
#X obj 258 15 -;
#X obj 258 35 /;
#X obj 144 52 *~ 0;
#X obj 96 -37 inlet;
#X obj 96 3 outlet;
#X obj 134 -37 r \$0-total;
#X obj -1 26 tabreceive~ \$0-high;
#X obj 144 33 tabreceive~ \$0-low;
#X connect 0 0 4 0;
#X connect 3 0 2 0;
#X connect 4 0 3 0;
#X connect 5 0 13 0;
#X connect 6 0 7 1;
#X connect 7 0 8 0;
#X connect 8 0 4 1;
#X connect 8 0 3 1;
#X connect 9 0 10 0;
#X connect 10 0 11 1;
#X connect 11 0 8 1;
#X connect 12 0 5 0;
#X connect 12 0 6 0;
#X connect 12 0 9 1;
#X connect 14 0 6 1;
#X connect 14 0 9 0;
#X connect 14 0 10 1;
#X connect 15 0 7 0;
#X connect 16 0 11 0;
#X restore 116 138 pd unit;
#N canvas 594 298 361 306 unit 0;
#X obj -2 63 inlet~;
#X text -2 42 audio;
#X obj -2 126 outlet~;
#X obj -2 105 rpole~;
#X obj -2 84 rzero_rev~;
#X obj 96 -16 + 1;
#X obj 119 26 /;
#X obj 98 47 *~ 0;
#X obj 98 68 +~;
#X obj 258 15 -;
#X obj 258 35 /;
#X obj 144 52 *~ 0;
#X obj 96 -37 inlet;
#X obj 96 3 outlet;
#X obj 134 -37 r \$0-total;
#X obj -1 26 tabreceive~ \$0-high;
#X obj 144 33 tabreceive~ \$0-low;
#X connect 0 0 4 0;
#X connect 3 0 2 0;
#X connect 4 0 3 0;
#X connect 5 0 13 0;
#X connect 6 0 7 1;
#X connect 7 0 8 0;
#X connect 8 0 4 1;
#X connect 8 0 3 1;
#X connect 9 0 10 0;
#X connect 10 0 11 1;
#X connect 11 0 8 1;
#X connect 12 0 5 0;
#X connect 12 0 6 0;
#X connect 12 0 9 1;
#X connect 14 0 6 1;
#X connect 14 0 9 0;
#X connect 14 0 10 1;
#X connect 15 0 7 0;
#X connect 16 0 11 0;
#X restore 116 157 pd unit;
#N canvas 594 298 361 306 unit 0;
#X obj -2 63 inlet~;
#X text -2 42 audio;
#X obj -2 126 outlet~;
#X obj -2 105 rpole~;
#X obj -2 84 rzero_rev~;
#X obj 96 -16 + 1;
#X obj 119 26 /;
#X obj 98 47 *~ 0;
#X obj 98 68 +~;
#X obj 258 15 -;
#X obj 258 35 /;
#X obj 144 52 *~ 0;
#X obj 96 -37 inlet;
#X obj 96 3 outlet;
#X obj 134 -37 r \$0-total;
#X obj -1 26 tabreceive~ \$0-high;
#X obj 144 33 tabreceive~ \$0-low;
#X connect 0 0 4 0;
#X connect 3 0 2 0;
#X connect 4 0 3 0;
#X connect 5 0 13 0;
#X connect 6 0 7 1;
#X connect 7 0 8 0;
#X connect 8 0 4 1;
#X connect 8 0 3 1;
#X connect 9 0 10 0;
#X connect 10 0 11 1;
#X connect 11 0 8 1;
#X connect 12 0 5 0;
#X connect 12 0 6 0;
#X connect 12 0 9 1;
#X connect 14 0 6 1;
#X connect 14 0 9 0;
#X connect 14 0 10 1;
#X connect 15 0 7 0;
#X connect 16 0 11 0;
#X restore 116 176 pd unit;
#N canvas 594 298 361 306 unit 0;
#X obj -2 63 inlet~;
#X text -2 42 audio;
#X obj -2 126 outlet~;
#X obj -2 105 rpole~;
#X obj -2 84 rzero_rev~;
#X obj 96 -16 + 1;
#X obj 119 26 /;
#X obj 98 47 *~ 0;
#X obj 98 68 +~;
#X obj 258 15 -;
#X obj 258 35 /;
#X obj 144 52 *~ 0;
#X obj 96 -37 inlet;
#X obj 96 3 outlet;
#X obj 134 -37 r \$0-total;
#X obj -1 26 tabreceive~ \$0-high;
#X obj 144 33 tabreceive~ \$0-low;
#X connect 0 0 4 0;
#X connect 3 0 2 0;
#X connect 4 0 3 0;
#X connect 5 0 13 0;
#X connect 6 0 7 1;
#X connect 7 0 8 0;
#X connect 8 0 4 1;
#X connect 8 0 3 1;
#X connect 9 0 10 0;
#X connect 10 0 11 1;
#X connect 11 0 8 1;
#X connect 12 0 5 0;
#X connect 12 0 6 0;
#X connect 12 0 9 1;
#X connect 14 0 6 1;
#X connect 14 0 9 0;
#X connect 14 0 10 1;
#X connect 15 0 7 0;
#X connect 16 0 11 0;
#X restore 116 195 pd unit;
#N canvas 594 298 361 306 unit 0;
#X obj -2 63 inlet~;
#X text -2 42 audio;
#X obj -2 126 outlet~;
#X obj -2 105 rpole~;
#X obj -2 84 rzero_rev~;
#X obj 96 -16 + 1;
#X obj 119 26 /;
#X obj 98 47 *~ 0;
#X obj 98 68 +~;
#X obj 258 15 -;
#X obj 258 35 /;
#X obj 144 52 *~ 0;
#X obj 96 -37 inlet;
#X obj 96 3 outlet;
#X obj 134 -37 r \$0-total;
#X obj -1 26 tabreceive~ \$0-high;
#X obj 144 33 tabreceive~ \$0-low;
#X connect 0 0 4 0;
#X connect 3 0 2 0;
#X connect 4 0 3 0;
#X connect 5 0 13 0;
#X connect 6 0 7 1;
#X connect 7 0 8 0;
#X connect 8 0 4 1;
#X connect 8 0 3 1;
#X connect 9 0 10 0;
#X connect 10 0 11 1;
#X connect 11 0 8 1;
#X connect 12 0 5 0;
#X connect 12 0 6 0;
#X connect 12 0 9 1;
#X connect 14 0 6 1;
#X connect 14 0 9 0;
#X connect 14 0 10 1;
#X connect 15 0 7 0;
#X connect 16 0 11 0;
#X restore 116 214 pd unit;
#N canvas 594 298 361 306 unit 0;
#X obj -2 63 inlet~;
#X text -2 42 audio;
#X obj -2 126 outlet~;
#X obj -2 105 rpole~;
#X obj -2 84 rzero_rev~;
#X obj 96 -16 + 1;
#X obj 119 26 /;
#X obj 98 47 *~ 0;
#X obj 98 68 +~;
#X obj 258 15 -;
#X obj 258 35 /;
#X obj 144 52 *~ 0;
#X obj 96 -37 inlet;
#X obj 96 3 outlet;
#X obj 134 -37 r \$0-total;
#X obj -1 26 tabreceive~ \$0-high;
#X obj 144 33 tabreceive~ \$0-low;
#X connect 0 0 4 0;
#X connect 3 0 2 0;
#X connect 4 0 3 0;
#X connect 5 0 13 0;
#X connect 6 0 7 1;
#X connect 7 0 8 0;
#X connect 8 0 4 1;
#X connect 8 0 3 1;
#X connect 9 0 10 0;
#X connect 10 0 11 1;
#X connect 11 0 8 1;
#X connect 12 0 5 0;
#X connect 12 0 6 0;
#X connect 12 0 9 1;
#X connect 14 0 6 1;
#X connect 14 0 9 0;
#X connect 14 0 10 1;
#X connect 15 0 7 0;
#X connect 16 0 11 0;
#X restore 116 233 pd unit;
#N canvas 594 298 361 306 unit 0;
#X obj -2 63 inlet~;
#X text -2 42 audio;
#X obj -2 126 outlet~;
#X obj -2 105 rpole~;
#X obj -2 84 rzero_rev~;
#X obj 96 -16 + 1;
#X obj 119 26 /;
#X obj 98 47 *~ 0;
#X obj 98 68 +~;
#X obj 258 15 -;
#X obj 258 35 /;
#X obj 144 52 *~ 0;
#X obj 96 -37 inlet;
#X obj 96 3 outlet;
#X obj 134 -37 r \$0-total;
#X obj -1 26 tabreceive~ \$0-high;
#X obj 144 33 tabreceive~ \$0-low;
#X connect 0 0 4 0;
#X connect 3 0 2 0;
#X connect 4 0 3 0;
#X connect 5 0 13 0;
#X connect 6 0 7 1;
#X connect 7 0 8 0;
#X connect 8 0 4 1;
#X connect 8 0 3 1;
#X connect 9 0 10 0;
#X connect 10 0 11 1;
#X connect 11 0 8 1;
#X connect 12 0 5 0;
#X connect 12 0 6 0;
#X connect 12 0 9 1;
#X connect 14 0 6 1;
#X connect 14 0 9 0;
#X connect 14 0 10 1;
#X connect 15 0 7 0;
#X connect 16 0 11 0;
#X restore 116 252 pd unit;
#N canvas 594 298 361 306 unit 0;
#X obj -2 63 inlet~;
#X text -2 42 audio;
#X obj -2 126 outlet~;
#X obj -2 105 rpole~;
#X obj -2 84 rzero_rev~;
#X obj 96 -16 + 1;
#X obj 119 26 /;
#X obj 98 47 *~ 0;
#X obj 98 68 +~;
#X obj 258 15 -;
#X obj 258 35 /;
#X obj 144 52 *~ 0;
#X obj 96 -37 inlet;
#X obj 96 3 outlet;
#X obj 134 -37 r \$0-total;
#X obj -1 26 tabreceive~ \$0-high;
#X obj 144 33 tabreceive~ \$0-low;
#X connect 0 0 4 0;
#X connect 3 0 2 0;
#X connect 4 0 3 0;
#X connect 5 0 13 0;
#X connect 6 0 7 1;
#X connect 7 0 8 0;
#X connect 8 0 4 1;
#X connect 8 0 3 1;
#X connect 9 0 10 0;
#X connect 10 0 11 1;
#X connect 11 0 8 1;
#X connect 12 0 5 0;
#X connect 12 0 6 0;
#X connect 12 0 9 1;
#X connect 14 0 6 1;
#X connect 14 0 9 0;
#X connect 14 0 10 1;
#X connect 15 0 7 0;
#X connect 16 0 11 0;
#X restore 166 119 pd unit;
#N canvas 594 298 361 306 unit 0;
#X obj -2 63 inlet~;
#X text -2 42 audio;
#X obj -2 126 outlet~;
#X obj -2 105 rpole~;
#X obj -2 84 rzero_rev~;
#X obj 96 -16 + 1;
#X obj 119 26 /;
#X obj 98 47 *~ 0;
#X obj 98 68 +~;
#X obj 258 15 -;
#X obj 258 35 /;
#X obj 144 52 *~ 0;
#X obj 96 -37 inlet;
#X obj 96 3 outlet;
#X obj 134 -37 r \$0-total;
#X obj -1 26 tabreceive~ \$0-high;
#X obj 144 33 tabreceive~ \$0-low;
#X connect 0 0 4 0;
#X connect 3 0 2 0;
#X connect 4 0 3 0;
#X connect 5 0 13 0;
#X connect 6 0 7 1;
#X connect 7 0 8 0;
#X connect 8 0 4 1;
#X connect 8 0 3 1;
#X connect 9 0 10 0;
#X connect 10 0 11 1;
#X connect 11 0 8 1;
#X connect 12 0 5 0;
#X connect 12 0 6 0;
#X connect 12 0 9 1;
#X connect 14 0 6 1;
#X connect 14 0 9 0;
#X connect 14 0 10 1;
#X connect 15 0 7 0;
#X connect 16 0 11 0;
#X restore 166 138 pd unit;
#N canvas 594 298 361 306 unit 0;
#X obj -2 63 inlet~;
#X text -2 42 audio;
#X obj -2 126 outlet~;
#X obj -2 105 rpole~;
#X obj -2 84 rzero_rev~;
#X obj 96 -16 + 1;
#X obj 119 26 /;
#X obj 98 47 *~ 0;
#X obj 98 68 +~;
#X obj 258 15 -;
#X obj 258 35 /;
#X obj 144 52 *~ 0;
#X obj 96 -37 inlet;
#X obj 96 3 outlet;
#X obj 134 -37 r \$0-total;
#X obj -1 26 tabreceive~ \$0-high;
#X obj 144 33 tabreceive~ \$0-low;
#X connect 0 0 4 0;
#X connect 3 0 2 0;
#X connect 4 0 3 0;
#X connect 5 0 13 0;
#X connect 6 0 7 1;
#X connect 7 0 8 0;
#X connect 8 0 4 1;
#X connect 8 0 3 1;
#X connect 9 0 10 0;
#X connect 10 0 11 1;
#X connect 11 0 8 1;
#X connect 12 0 5 0;
#X connect 12 0 6 0;
#X connect 12 0 9 1;
#X connect 14 0 6 1;
#X connect 14 0 9 0;
#X connect 14 0 10 1;
#X connect 15 0 7 0;
#X connect 16 0 11 0;
#X restore 166 157 pd unit;
#N canvas 594 298 361 306 unit 0;
#X obj -2 63 inlet~;
#X text -2 42 audio;
#X obj -2 126 outlet~;
#X obj -2 105 rpole~;
#X obj -2 84 rzero_rev~;
#X obj 96 -16 + 1;
#X obj 119 26 /;
#X obj 98 47 *~ 0;
#X obj 98 68 +~;
#X obj 258 15 -;
#X obj 258 35 /;
#X obj 144 52 *~ 0;
#X obj 96 -37 inlet;
#X obj 96 3 outlet;
#X obj 134 -37 r \$0-total;
#X obj -1 26 tabreceive~ \$0-high;
#X obj 144 33 tabreceive~ \$0-low;
#X connect 0 0 4 0;
#X connect 3 0 2 0;
#X connect 4 0 3 0;
#X connect 5 0 13 0;
#X connect 6 0 7 1;
#X connect 7 0 8 0;
#X connect 8 0 4 1;
#X connect 8 0 3 1;
#X connect 9 0 10 0;
#X connect 10 0 11 1;
#X connect 11 0 8 1;
#X connect 12 0 5 0;
#X connect 12 0 6 0;
#X connect 12 0 9 1;
#X connect 14 0 6 1;
#X connect 14 0 9 0;
#X connect 14 0 10 1;
#X connect 15 0 7 0;
#X connect 16 0 11 0;
#X restore 166 176 pd unit;
#N canvas 594 298 361 306 unit 0;
#X obj -2 63 inlet~;
#X text -2 42 audio;
#X obj -2 126 outlet~;
#X obj -2 105 rpole~;
#X obj -2 84 rzero_rev~;
#X obj 96 -16 + 1;
#X obj 119 26 /;
#X obj 98 47 *~ 0;
#X obj 98 68 +~;
#X obj 258 15 -;
#X obj 258 35 /;
#X obj 144 52 *~ 0;
#X obj 96 -37 inlet;
#X obj 96 3 outlet;
#X obj 134 -37 r \$0-total;
#X obj -1 26 tabreceive~ \$0-high;
#X obj 144 33 tabreceive~ \$0-low;
#X connect 0 0 4 0;
#X connect 3 0 2 0;
#X connect 4 0 3 0;
#X connect 5 0 13 0;
#X connect 6 0 7 1;
#X connect 7 0 8 0;
#X connect 8 0 4 1;
#X connect 8 0 3 1;
#X connect 9 0 10 0;
#X connect 10 0 11 1;
#X connect 11 0 8 1;
#X connect 12 0 5 0;
#X connect 12 0 6 0;
#X connect 12 0 9 1;
#X connect 14 0 6 1;
#X connect 14 0 9 0;
#X connect 14 0 10 1;
#X connect 15 0 7 0;
#X connect 16 0 11 0;
#X restore 166 195 pd unit;
#N canvas 594 298 361 306 unit 0;
#X obj -2 63 inlet~;
#X text -2 42 audio;
#X obj -2 126 outlet~;
#X obj -2 105 rpole~;
#X obj -2 84 rzero_rev~;
#X obj 96 -16 + 1;
#X obj 119 26 /;
#X obj 98 47 *~ 0;
#X obj 98 68 +~;
#X obj 258 15 -;
#X obj 258 35 /;
#X obj 144 52 *~ 0;
#X obj 96 -37 inlet;
#X obj 96 3 outlet;
#X obj 134 -37 r \$0-total;
#X obj -1 26 tabreceive~ \$0-high;
#X obj 144 33 tabreceive~ \$0-low;
#X connect 0 0 4 0;
#X connect 3 0 2 0;
#X connect 4 0 3 0;
#X connect 5 0 13 0;
#X connect 6 0 7 1;
#X connect 7 0 8 0;
#X connect 8 0 4 1;
#X connect 8 0 3 1;
#X connect 9 0 10 0;
#X connect 10 0 11 1;
#X connect 11 0 8 1;
#X connect 12 0 5 0;
#X connect 12 0 6 0;
#X connect 12 0 9 1;
#X connect 14 0 6 1;
#X connect 14 0 9 0;
#X connect 14 0 10 1;
#X connect 15 0 7 0;
#X connect 16 0 11 0;
#X restore 166 214 pd unit;
#N canvas 594 298 361 306 unit 0;
#X obj -2 63 inlet~;
#X text -2 42 audio;
#X obj -2 126 outlet~;
#X obj -2 105 rpole~;
#X obj -2 84 rzero_rev~;
#X obj 96 -16 + 1;
#X obj 119 26 /;
#X obj 98 47 *~ 0;
#X obj 98 68 +~;
#X obj 258 15 -;
#X obj 258 35 /;
#X obj 144 52 *~ 0;
#X obj 96 -37 inlet;
#X obj 96 3 outlet;
#X obj 134 -37 r \$0-total;
#X obj -1 26 tabreceive~ \$0-high;
#X obj 144 33 tabreceive~ \$0-low;
#X connect 0 0 4 0;
#X connect 3 0 2 0;
#X connect 4 0 3 0;
#X connect 5 0 13 0;
#X connect 6 0 7 1;
#X connect 7 0 8 0;
#X connect 8 0 4 1;
#X connect 8 0 3 1;
#X connect 9 0 10 0;
#X connect 10 0 11 1;
#X connect 11 0 8 1;
#X connect 12 0 5 0;
#X connect 12 0 6 0;
#X connect 12 0 9 1;
#X connect 14 0 6 1;
#X connect 14 0 9 0;
#X connect 14 0 10 1;
#X connect 15 0 7 0;
#X connect 16 0 11 0;
#X restore 166 233 pd unit;
#N canvas 594 298 361 306 unit 0;
#X obj -2 63 inlet~;
#X text -2 42 audio;
#X obj -2 126 outlet~;
#X obj -2 105 rpole~;
#X obj -2 84 rzero_rev~;
#X obj 96 -16 + 1;
#X obj 119 26 /;
#X obj 98 47 *~ 0;
#X obj 98 68 +~;
#X obj 258 15 -;
#X obj 258 35 /;
#X obj 144 52 *~ 0;
#X obj 96 -37 inlet;
#X obj 96 3 outlet;
#X obj 134 -37 r \$0-total;
#X obj -1 26 tabreceive~ \$0-high;
#X obj 144 33 tabreceive~ \$0-low;
#X connect 0 0 4 0;
#X connect 3 0 2 0;
#X connect 4 0 3 0;
#X connect 5 0 13 0;
#X connect 6 0 7 1;
#X connect 7 0 8 0;
#X connect 8 0 4 1;
#X connect 8 0 3 1;
#X connect 9 0 10 0;
#X connect 10 0 11 1;
#X connect 11 0 8 1;
#X connect 12 0 5 0;
#X connect 12 0 6 0;
#X connect 12 0 9 1;
#X connect 14 0 6 1;
#X connect 14 0 9 0;
#X connect 14 0 10 1;
#X connect 15 0 7 0;
#X connect 16 0 11 0;
#X restore 166 252 pd unit;
#X connect 0 0 6 0;
#X connect 2 0 11 0;
#X connect 4 0 12 0;
#X connect 6 0 18 0;
#X connect 6 1 18 1;
#X connect 8 0 9 0;
#X connect 9 0 6 1;
#X connect 10 0 17 0;
#X connect 11 0 15 0;
#X connect 12 0 16 0;
#X connect 18 0 19 0;
#X connect 18 1 19 1;
#X connect 19 0 20 0;
#X connect 19 1 20 1;
#X connect 20 0 21 0;
#X connect 20 1 21 1;
#X connect 21 0 22 0;
#X connect 21 1 22 1;
#X connect 22 0 23 0;
#X connect 22 1 23 1;
#X connect 23 0 24 0;
#X connect 23 1 24 1;
#X connect 24 0 25 0;
#X connect 24 1 25 1;
#X connect 25 0 26 0;
#X connect 25 1 26 1;
#X connect 26 0 27 0;
#X connect 26 1 27 1;
#X connect 27 0 28 0;
#X connect 27 1 28 1;
#X connect 28 0 29 0;
#X connect 28 1 29 1;
#X connect 29 0 30 0;
#X connect 29 1 30 1;
#X connect 30 0 31 0;
#X connect 30 1 31 1;
#X connect 31 0 32 0;
#X connect 31 1 32 1;
#X connect 32 0 33 0;
#X connect 32 1 33 1;
#X connect 33 0 34 0;
#X connect 33 1 34 1;
#X connect 34 0 35 0;
#X connect 34 1 35 1;
#X connect 35 0 36 0;
#X connect 35 1 36 1;
#X connect 36 0 37 0;
#X connect 36 1 37 1;
#X connect 37 0 38 0;
#X connect 37 1 38 1;
#X connect 38 0 39 0;
#X connect 38 1 39 1;
#X connect 39 0 40 0;
#X connect 39 1 40 1;
#X connect 40 0 41 0;
#X connect 40 1 41 1;
#X connect 41 0 42 0;
#X connect 41 1 42 1;
#X connect 42 0 43 0;
#X connect 42 1 43 1;
#X connect 43 0 44 0;
#X connect 43 1 44 1;
#X connect 44 0 45 0;
#X connect 44 1 45 1;
#X connect 45 0 46 0;
#X connect 45 1 46 1;
#X connect 46 0 47 0;
#X connect 46 1 47 1;
#X connect 47 0 48 0;
#X connect 47 1 48 1;
#X connect 48 0 7 0;
#X connect 48 1 10 0;
