#N canvas 1028 499 588 388 10;
#X msg 158 183 start;
#X msg 206 228 stop;
#X obj 158 139 t b b;
#X obj 172 288 writesf~ 2;
#X obj 233 136 prepend set open -bytes 4;
#X obj 206 209 r playrec_stop;
#X obj 158 98 r playrec_record;
#X obj 61 193 inlet~;
#X obj 103 193 inlet~;
#X obj 233 117 inlet;
#X msg 172 162;
#X connect 0 0 3 0;
#X connect 1 0 3 0;
#X connect 2 0 0 0;
#X connect 2 1 10 0;
#X connect 4 0 10 0;
#X connect 5 0 1 0;
#X connect 6 0 2 0;
#X connect 7 0 3 0;
#X connect 8 0 3 1;
#X connect 9 0 4 0;
#X connect 10 0 3 0;
