#N canvas 312 184 313 167 10;
#X obj 110 49 inlet;
#X obj 110 121 outlet f;
#N canvas 0 0 588 407 RGB 0;
#X obj 122 18 inlet;
#X obj 199 20 inlet;
#X obj 265 21 inlet;
#X obj 199 195 +;
#X obj 183 221 +;
#X obj 122 164 * -65536;
#X obj 199 165 * -256;
#X obj 265 165 * -1;
#X obj 183 252 - 1;
#X obj 183 278 outlet;
#X obj 122 100 pack 0 0 0;
#X obj 122 126 unpack 0 0 0;
#X obj 199 44 t b f;
#X obj 265 44 t b f;
#X connect 0 0 10 0;
#X connect 1 0 12 0;
#X connect 2 0 13 0;
#X connect 3 0 4 1;
#X connect 4 0 8 0;
#X connect 5 0 4 0;
#X connect 6 0 3 0;
#X connect 7 0 3 1;
#X connect 8 0 9 0;
#X connect 10 0 11 0;
#X connect 11 0 5 0;
#X connect 11 1 6 0;
#X connect 11 2 7 0;
#X connect 12 0 10 0;
#X connect 12 1 10 1;
#X connect 13 0 10 0;
#X connect 13 1 10 2;
#X restore 110 91 pd RGB;
#X msg 110 71 182 200 252;
#X connect 0 0 3 0;
#X connect 2 0 1 0;
#X connect 3 0 2 0;
