#N canvas 391 108 294 214 10;
#N canvas 707 200 428 489 Help------- 0;
#X obj -7 58 cnv 15 400 54 empty empty empty 20 12 0 14 -224896 -66577
0;
#X text -5 57 Construit sous/Build under;
#X text -5 69 Pd 0.38.4-extended;
#X obj -7 115 cnv 15 400 30 empty empty empty 20 12 0 14 -259090 -66577
0;
#X text -5 82 Voir/Look at:;
#X text -5 95 http://sourceforge.net/projects/pure-data/;
#X text 0 116 - Un module "ARGOGeneral" (et un seul) doit etre ouvert
avant l'ouverture de ce module.;
#N canvas 424 171 268 347 /SUBPATCH/ 0;
#X obj -15 200 pix_texture;
#N canvas 409 216 728 338 rotatXYZ 0;
#X obj -147 277 outlet;
#X msg 395 163 set \$1;
#X obj 395 83 +~;
#X obj 396 115 snapshot~;
#X obj 396 137 change;
#X obj -38 215 * 400;
#X obj 417 53 r \$0-SendRotateZ;
#X obj 393 12 r \$0-SendARGOBusInput11;
#X obj 395 185 s \$0-ReceiveRotateZ;
#X msg 219 163 set \$1;
#X obj 219 83 +~;
#X obj 220 115 snapshot~;
#X obj 220 137 change;
#X obj -79 215 * 400;
#X obj 217 12 r \$0-SendARGOBusInput10;
#X obj 241 53 r \$0-SendRotateY;
#X obj 219 185 s \$0-ReceiveRotateY;
#X msg -53 163 set \$1;
#X obj -96 83 +~;
#X obj -52 115 snapshot~;
#X obj -52 137 change;
#X obj -121 215 * 400;
#X obj -98 12 r \$0-SendARGOBusInput9;
#X obj -74 54 r \$0-SendRotateX;
#X obj -53 185 s \$0-ReceiveRotateX;
#X obj -121 235 - 200;
#X obj -80 235 - 200;
#X obj -39 235 - 200;
#N canvas 512 263 257 200 InputARGOBusv3 0;
#X obj 48 74 sprintf ARGOBus%d;
#X obj 46 30 inlet;
#X obj 49 158 outlet~;
#X msg 49 116 set \$1;
#X obj 49 95 tosymbol;
#X obj 47 52 change;
#X text 88 30 <- No ARGObus 1..16;
#X obj 49 137 r~ ARGOBus0;
#X connect 0 0 4 0;
#X connect 1 0 5 0;
#X connect 3 0 7 0;
#X connect 4 0 3 0;
#X connect 5 0 0 0;
#X connect 7 0 2 0;
#X restore 217 33 pd InputARGOBusv3;
#N canvas 512 263 257 200 InputARGOBusv3 0;
#X obj 48 74 sprintf ARGOBus%d;
#X obj 46 30 inlet;
#X obj 49 158 outlet~;
#X msg 49 116 set \$1;
#X obj 49 95 tosymbol;
#X obj 47 52 change;
#X text 88 30 <- No ARGObus 1..16;
#X obj 49 137 r~ ARGOBus0;
#X connect 0 0 4 0;
#X connect 1 0 5 0;
#X connect 3 0 7 0;
#X connect 4 0 3 0;
#X connect 5 0 0 0;
#X connect 7 0 2 0;
#X restore 394 35 pd InputARGOBusv3;
#N canvas 512 263 257 200 InputARGOBusv3 0;
#X obj 48 74 sprintf ARGOBus%d;
#X obj 46 30 inlet;
#X obj 49 158 outlet~;
#X msg 49 116 set \$1;
#X obj 49 95 tosymbol;
#X obj 47 52 change;
#X text 88 30 <- No ARGObus 1..16;
#X obj 49 137 r~ ARGOBus0;
#X connect 0 0 4 0;
#X connect 1 0 5 0;
#X connect 3 0 7 0;
#X connect 4 0 3 0;
#X connect 5 0 0 0;
#X connect 7 0 2 0;
#X restore -97 33 pd InputARGOBusv3;
#X obj -147 257 rotateXYZ 0 0 0;
#X obj -147 12 inlet;
#X obj 121 33 r \$0-SendClic;
#X obj 61 12 loadbang;
#X obj 60 33 metro 40;
#X obj 327 116 snapshot~;
#X obj 327 138 change;
#X obj 153 115 snapshot~;
#X obj 153 137 change;
#X obj -122 116 snapshot~;
#X obj -122 138 change;
#X connect 1 0 8 0;
#X connect 2 0 3 0;
#X connect 2 0 36 0;
#X connect 3 0 4 0;
#X connect 4 0 1 0;
#X connect 5 0 27 0;
#X connect 6 0 2 1;
#X connect 7 0 29 0;
#X connect 9 0 16 0;
#X connect 10 0 11 0;
#X connect 10 0 38 0;
#X connect 11 0 12 0;
#X connect 12 0 9 0;
#X connect 13 0 26 0;
#X connect 14 0 28 0;
#X connect 15 0 10 1;
#X connect 17 0 24 0;
#X connect 18 0 19 0;
#X connect 18 0 40 0;
#X connect 19 0 20 0;
#X connect 20 0 17 0;
#X connect 21 0 25 0;
#X connect 22 0 30 0;
#X connect 23 0 18 1;
#X connect 25 0 31 1;
#X connect 26 0 31 2;
#X connect 27 0 31 3;
#X connect 28 0 10 0;
#X connect 29 0 2 0;
#X connect 30 0 18 0;
#X connect 31 0 0 0;
#X connect 32 0 31 0;
#X connect 33 0 19 0;
#X connect 33 0 11 0;
#X connect 33 0 3 0;
#X connect 34 0 35 0;
#X connect 35 0 36 0;
#X connect 35 0 38 0;
#X connect 35 0 40 0;
#X connect 36 0 37 0;
#X connect 37 0 5 0;
#X connect 38 0 39 0;
#X connect 39 0 13 0;
#X connect 40 0 41 0;
#X connect 41 0 21 0;
#X restore -15 244 pd rotatXYZ;
#N canvas 423 204 691 339 couleurRVB 0;
#X obj 14 238 t b f;
#X obj -47 238 t b f;
#X obj -48 262 pack 0 0 0;
#X obj -111 196 clip 0 1;
#X obj -47 196 clip 0 1;
#X obj 15 196 clip 0 1;
#X obj -150 310 outlet;
#X msg -39 149 set \$1;
#X obj -110 8 r \$0-SendARGOBusInput3;
#X msg 206 149 set \$1;
#X msg 369 148 set \$1;
#X obj 367 73 +~;
#X obj 368 103 snapshot~;
#X obj 368 125 change;
#X obj 206 75 +~;
#X obj 206 105 snapshot~;
#X obj 206 127 change;
#X obj -110 75 +~;
#X obj -40 105 snapshot~;
#X obj -40 127 change;
#X obj 206 8 r \$0-SendARGOBusInput4;
#X obj 366 8 r \$0-SendARGOBusInput5;
#X obj 222 48 r \$0-SendColorV;
#X obj 382 50 r \$0-SendColorB;
#X obj -94 47 r \$0-SendColorR;
#X obj -39 171 s \$0-ReceiveColorR;
#X obj 206 171 s \$0-ReceiveColorV;
#X obj 369 170 s \$0-ReceiveColorB;
#N canvas 512 263 257 200 InputARGOBusv3 0;
#X obj 48 74 sprintf ARGOBus%d;
#X obj 46 30 inlet;
#X obj 49 158 outlet~;
#X msg 49 116 set \$1;
#X obj 49 95 tosymbol;
#X obj 47 52 change;
#X text 88 30 <- No ARGObus 1..16;
#X obj 49 137 r~ ARGOBus0;
#X connect 0 0 4 0;
#X connect 1 0 5 0;
#X connect 3 0 7 0;
#X connect 4 0 3 0;
#X connect 5 0 0 0;
#X connect 7 0 2 0;
#X restore -110 28 pd InputARGOBusv3;
#N canvas 512 263 257 200 InputARGOBusv3 0;
#X obj 48 74 sprintf ARGOBus%d;
#X obj 46 30 inlet;
#X obj 49 158 outlet~;
#X msg 49 116 set \$1;
#X obj 49 95 tosymbol;
#X obj 47 52 change;
#X text 88 30 <- No ARGObus 1..16;
#X obj 49 137 r~ ARGOBus0;
#X connect 0 0 4 0;
#X connect 1 0 5 0;
#X connect 3 0 7 0;
#X connect 4 0 3 0;
#X connect 5 0 0 0;
#X connect 7 0 2 0;
#X restore 206 28 pd InputARGOBusv3;
#N canvas 512 263 257 200 InputARGOBusv3 0;
#X obj 48 74 sprintf ARGOBus%d;
#X obj 46 30 inlet;
#X obj 49 158 outlet~;
#X msg 49 116 set \$1;
#X obj 49 95 tosymbol;
#X obj 47 52 change;
#X text 88 30 <- No ARGObus 1..16;
#X obj 49 137 r~ ARGOBus0;
#X connect 0 0 4 0;
#X connect 1 0 5 0;
#X connect 3 0 7 0;
#X connect 4 0 3 0;
#X connect 5 0 0 0;
#X connect 7 0 2 0;
#X restore 367 30 pd InputARGOBusv3;
#X obj -150 288 color;
#X obj -151 7 inlet;
#X obj 110 30 r \$0-SendClic;
#X obj 50 8 loadbang;
#X obj 49 29 metro 40;
#X obj 301 104 snapshot~;
#X obj 138 106 snapshot~;
#X obj -110 106 snapshot~;
#X obj -111 216 change;
#X obj -47 216 change;
#X obj 14 216 change;
#X connect 0 0 2 0;
#X connect 0 1 2 2;
#X connect 1 0 2 0;
#X connect 1 1 2 1;
#X connect 2 0 31 1;
#X connect 3 0 39 0;
#X connect 4 0 40 0;
#X connect 5 0 41 0;
#X connect 7 0 25 0;
#X connect 8 0 28 0;
#X connect 9 0 26 0;
#X connect 10 0 27 0;
#X connect 11 0 12 0;
#X connect 11 0 36 0;
#X connect 12 0 13 0;
#X connect 13 0 10 0;
#X connect 14 0 15 0;
#X connect 14 0 37 0;
#X connect 15 0 16 0;
#X connect 16 0 9 0;
#X connect 17 0 18 0;
#X connect 17 0 38 0;
#X connect 18 0 19 0;
#X connect 19 0 7 0;
#X connect 20 0 29 0;
#X connect 21 0 30 0;
#X connect 22 0 14 1;
#X connect 23 0 11 1;
#X connect 24 0 17 1;
#X connect 28 0 17 0;
#X connect 29 0 14 0;
#X connect 30 0 11 0;
#X connect 31 0 6 0;
#X connect 32 0 31 0;
#X connect 33 0 18 0;
#X connect 33 0 15 0;
#X connect 33 0 12 0;
#X connect 34 0 35 0;
#X connect 35 0 36 0;
#X connect 35 0 37 0;
#X connect 35 0 38 0;
#X connect 36 0 5 0;
#X connect 37 0 4 0;
#X connect 38 0 3 0;
#X connect 39 0 2 0;
#X connect 40 0 1 0;
#X connect 41 0 0 0;
#X restore -15 167 pd couleurRVB;
#N canvas 708 196 415 301 Intensite 0;
#X obj 166 63 r \$0-SendIntensity1;
#X msg 151 157 set \$1;
#X obj 149 87 +~;
#X obj 150 112 snapshot~;
#X obj 150 134 change;
#X obj 151 179 s \$0-ReceiveIntensity1;
#X obj 48 156 * 2;
#X obj 127 21 r \$0-SendARGOBusInput12;
#X obj 23 248 outlet;
#N canvas 512 263 257 200 InputARGOBusv3 0;
#X obj 48 74 sprintf ARGOBus%d;
#X obj 46 30 inlet;
#X obj 49 158 outlet~;
#X msg 49 116 set \$1;
#X obj 49 95 tosymbol;
#X obj 47 52 change;
#X text 88 30 <- No ARGObus 1..16;
#X obj 49 137 r~ ARGOBus0;
#X connect 0 0 4 0;
#X connect 1 0 5 0;
#X connect 3 0 7 0;
#X connect 4 0 3 0;
#X connect 5 0 0 0;
#X connect 7 0 2 0;
#X restore 149 42 pd InputARGOBusv3;
#X obj 23 226 pix_gain;
#X obj 22 21 inlet;
#X obj 209 85 r \$0-SendClic;
#X obj 64 21 loadbang;
#X obj 64 113 snapshot~;
#X obj 64 135 change;
#X obj 34 57 bng 15 250 50 0 empty empty empty 0 -6 0 8 -262144 -1
-1;
#X obj 64 39 metro 40;
#X connect 0 0 2 1;
#X connect 1 0 5 0;
#X connect 2 0 3 0;
#X connect 2 0 14 0;
#X connect 3 0 4 0;
#X connect 4 0 1 0;
#X connect 6 0 10 1;
#X connect 7 0 9 0;
#X connect 9 0 2 0;
#X connect 10 0 8 0;
#X connect 11 0 10 0;
#X connect 12 0 3 0;
#X connect 13 0 17 0;
#X connect 14 0 15 0;
#X connect 15 0 6 0;
#X connect 16 0 17 0;
#X connect 17 0 14 0;
#X restore -15 119 pd Intensite;
#N canvas 573 193 414 225 pixinfo 0;
#X obj 78 86 s \$0-ReceiveSizeX;
#X obj 202 86 s \$0-ReceiveSizeY;
#X obj 31 40 pix_info;
#X obj 30 117 outlet;
#X obj 30 8 inlet;
#X obj 80 117 outlet;
#X obj 205 116 outlet;
#X connect 2 0 3 0;
#X connect 2 1 0 0;
#X connect 2 1 5 0;
#X connect 2 2 1 0;
#X connect 2 2 6 0;
#X connect 4 0 2 0;
#X restore -15 98 pd pixinfo;
#X obj 15 288 rectangle;
#N canvas 914 354 187 211 clic 0;
#X obj 23 17 MouseState;
#X obj 23 82 &;
#X obj 23 100 == 0;
#X obj 23 136 s \$0-SendClic;
#X obj 32 58 t b f;
#X obj 32 37 r \$0-SendActive;
#X obj 23 118 metro 200;
#X connect 0 0 1 0;
#X connect 1 0 2 0;
#X connect 2 0 6 0;
#X connect 4 0 1 0;
#X connect 4 1 1 1;
#X connect 5 0 4 0;
#X connect 6 0 3 0;
#X restore 120 90 pd clic;
#X msg 83 167 quality \$1;
#X obj 82 144 r \$0-SendQuality;
#N canvas 716 145 343 324 size 0;
#X obj 121 11 r \$0-SendARGOBusInput;
#X msg 125 147 set \$1;
#X obj 123 75 +~;
#X obj 124 103 snapshot~;
#X obj 124 125 change;
#X obj 56 11 loadbang;
#X obj 143 52 r \$0-SendSize;
#X obj 125 169 s \$0-ReceiveSize;
#X obj 61 190 / 5;
#X obj 60 210 clip 0 10;
#X obj 62 169 *;
#X obj 54 148 t f f;
#N canvas 512 263 257 200 InputARGOBusv3 0;
#X obj 48 74 sprintf ARGOBus%d;
#X obj 46 30 inlet;
#X obj 49 158 outlet~;
#X msg 49 116 set \$1;
#X obj 49 95 tosymbol;
#X obj 47 52 change;
#X text 88 30 <- No ARGObus 1..16;
#X obj 49 137 r~ ARGOBus0;
#X connect 0 0 4 0;
#X connect 1 0 5 0;
#X connect 3 0 7 0;
#X connect 4 0 3 0;
#X connect 5 0 0 0;
#X connect 7 0 2 0;
#X restore 122 32 pd InputARGOBusv3;
#X obj 17 284 outlet;
#X obj 275 281 outlet;
#X obj 15 11 inlet;
#X obj 275 11 inlet;
#X obj 16 260 * 1;
#X obj 278 259 * 1;
#X obj 16 212 t b f;
#X obj 275 213 t b f;
#X obj 166 76 r \$0-SendClic;
#X obj 54 104 snapshot~;
#X obj 54 126 change;
#X obj 55 32 metro 40;
#X connect 0 0 12 0;
#X connect 1 0 7 0;
#X connect 2 0 3 0;
#X connect 2 0 22 0;
#X connect 3 0 4 0;
#X connect 4 0 1 0;
#X connect 5 0 24 0;
#X connect 6 0 2 1;
#X connect 8 0 9 0;
#X connect 9 0 17 0;
#X connect 9 0 18 0;
#X connect 10 0 8 0;
#X connect 11 0 10 0;
#X connect 11 1 10 1;
#X connect 12 0 2 0;
#X connect 15 0 19 0;
#X connect 16 0 20 0;
#X connect 17 0 13 0;
#X connect 18 0 14 0;
#X connect 19 0 17 0;
#X connect 19 1 17 1;
#X connect 20 0 18 0;
#X connect 20 1 18 1;
#X connect 21 0 3 0;
#X connect 22 0 23 0;
#X connect 23 0 11 0;
#X connect 24 0 22 0;
#X restore 90 222 pd size;
#N canvas 25 214 752 338 translatXYZ 0;
#X obj 135 8 loadbang;
#X msg 45 161 set \$1;
#X obj -24 87 +~;
#X obj -25 117 snapshot~;
#X obj -25 139 change;
#X obj -26 8 r \$0-SendARGOBusInput6;
#X obj -9 49 r \$0-SendPositionX;
#X obj 45 183 s \$0-ReceivePositionX;
#X obj -26 214 - 0.5;
#X obj -26 235 * 10;
#X msg 299 159 set \$1;
#X obj 298 85 +~;
#X obj 229 116 snapshot~;
#X obj 229 138 change;
#X obj 296 6 r \$0-SendARGOBusInput7;
#X obj 315 48 r \$0-SendPositionY;
#X obj 299 181 s \$0-ReceivePositionY;
#X obj 14 214 - 0.5;
#X obj 14 235 * 10;
#X obj 57 214 - 0.5;
#X msg 468 159 set \$1;
#X obj 467 85 +~;
#X obj 398 116 snapshot~;
#X obj 398 138 change;
#X obj 465 6 r \$0-SendARGOBusInput8;
#X obj 484 51 r \$0-SendPositionZ;
#X obj 468 181 s \$0-ReceivePositionZ;
#X obj 57 235 * 5;
#X obj -64 290 outlet;
#N canvas 512 263 257 200 InputARGOBusv3 0;
#X obj 48 74 sprintf ARGOBus%d;
#X obj 46 30 inlet;
#X obj 49 158 outlet~;
#X msg 49 116 set \$1;
#X obj 49 95 tosymbol;
#X obj 47 52 change;
#X text 88 30 <- No ARGObus 1..16;
#X obj 49 137 r~ ARGOBus0;
#X connect 0 0 4 0;
#X connect 1 0 5 0;
#X connect 3 0 7 0;
#X connect 4 0 3 0;
#X connect 5 0 0 0;
#X connect 7 0 2 0;
#X restore -25 29 pd InputARGOBusv3;
#N canvas 512 263 257 200 InputARGOBusv3 0;
#X obj 48 74 sprintf ARGOBus%d;
#X obj 46 30 inlet;
#X obj 49 158 outlet~;
#X msg 49 116 set \$1;
#X obj 49 95 tosymbol;
#X obj 47 52 change;
#X text 88 30 <- No ARGObus 1..16;
#X obj 49 137 r~ ARGOBus0;
#X connect 0 0 4 0;
#X connect 1 0 5 0;
#X connect 3 0 7 0;
#X connect 4 0 3 0;
#X connect 5 0 0 0;
#X connect 7 0 2 0;
#X restore 297 27 pd InputARGOBusv3;
#N canvas 512 263 257 200 InputARGOBusv3 0;
#X obj 48 74 sprintf ARGOBus%d;
#X obj 46 30 inlet;
#X obj 49 158 outlet~;
#X msg 49 116 set \$1;
#X obj 49 95 tosymbol;
#X obj 47 52 change;
#X text 88 30 <- No ARGObus 1..16;
#X obj 49 137 r~ ARGOBus0;
#X connect 0 0 4 0;
#X connect 1 0 5 0;
#X connect 3 0 7 0;
#X connect 4 0 3 0;
#X connect 5 0 0 0;
#X connect 7 0 2 0;
#X restore 466 31 pd InputARGOBusv3;
#X obj -65 264 translateXYZ 1 2 0;
#X obj -66 8 inlet;
#X obj 197 30 r \$0-SendClic;
#X obj 468 115 snapshot~;
#X obj 468 137 change;
#X obj 134 29 metro 40;
#X obj 298 116 snapshot~;
#X obj 298 138 change;
#X obj 45 117 snapshot~;
#X obj 45 139 change;
#X connect 0 0 37 0;
#X connect 1 0 7 0;
#X connect 2 0 3 0;
#X connect 2 0 40 0;
#X connect 3 0 4 0;
#X connect 4 0 8 0;
#X connect 5 0 29 0;
#X connect 6 0 2 1;
#X connect 8 0 9 0;
#X connect 9 0 32 1;
#X connect 10 0 16 0;
#X connect 11 0 12 0;
#X connect 11 0 38 0;
#X connect 12 0 13 0;
#X connect 13 0 17 0;
#X connect 14 0 30 0;
#X connect 15 0 11 1;
#X connect 17 0 18 0;
#X connect 18 0 32 2;
#X connect 19 0 27 0;
#X connect 20 0 26 0;
#X connect 21 0 22 0;
#X connect 21 0 35 0;
#X connect 22 0 23 0;
#X connect 23 0 19 0;
#X connect 24 0 31 0;
#X connect 25 0 21 1;
#X connect 27 0 32 3;
#X connect 29 0 2 0;
#X connect 30 0 11 0;
#X connect 31 0 21 0;
#X connect 32 0 28 0;
#X connect 33 0 32 0;
#X connect 34 0 35 0;
#X connect 34 0 38 0;
#X connect 34 0 40 0;
#X connect 35 0 36 0;
#X connect 36 0 20 0;
#X connect 37 0 3 0;
#X connect 37 0 12 0;
#X connect 37 0 22 0;
#X connect 38 0 39 0;
#X connect 39 0 10 0;
#X connect 40 0 41 0;
#X connect 41 0 1 0;
#X restore -15 222 pd translatXYZ;
#X obj 14 -23 r \$0-SendOnOff;
#X obj 172 49 switch~;
#X obj -15 76 pix_image;
#X obj 31 51 gemhead;
#N canvas 254 142 532 263 open 0;
#X obj 127 9 r \$0-SendOpen;
#X msg 153 139 open \$1;
#X obj 128 30 openpanel;
#X msg 158 70 set \$1;
#X text 179 119 -> pour les noms de fichier avec espace;
#X obj 8 176 s \$0-ReceiveFileName;
#X obj 7 154 stripdir;
#X obj 153 119 l2s;
#X obj 129 50 t b s;
#X msg 157 97 C:/Image/feather.jpg;
#X obj 153 176 outlet;
#X obj 224 9 inlet;
#X connect 0 0 2 0;
#X connect 1 0 10 0;
#X connect 2 0 8 0;
#X connect 3 0 9 0;
#X connect 6 0 5 0;
#X connect 7 0 6 0;
#X connect 7 0 1 0;
#X connect 8 0 9 0;
#X connect 8 1 3 0;
#X connect 9 0 7 0;
#X connect 11 0 9 0;
#X restore -29 50 pd open;
#X obj -14 25 sel 1;
#X obj 14 0 t f f b f;
#X obj 114 -23 r \$0-SendMode;
#X msg 85 51 mode \$1;
#X obj 114 0 == 0;
#X connect 0 0 10 0;
#X connect 1 0 5 0;
#X connect 2 0 0 0;
#X connect 3 0 2 0;
#X connect 4 0 3 0;
#X connect 4 1 9 0;
#X connect 4 2 9 1;
#X connect 7 0 0 0;
#X connect 8 0 7 0;
#X connect 9 0 5 1;
#X connect 9 1 5 2;
#X connect 10 0 1 0;
#X connect 11 0 17 0;
#X connect 13 0 4 0;
#X connect 14 0 13 0;
#X connect 15 0 13 0;
#X connect 16 0 15 0;
#X connect 17 0 16 0;
#X connect 17 1 14 0;
#X connect 17 3 12 0;
#X connect 18 0 20 0;
#X connect 19 0 0 0;
#X connect 20 0 19 0;
#X restore 268 21 pd;
#X obj -6 3 cnv 10 250 52 empty empty http://perso.orange.fr/Paresys/ARGOPd/
5 44 1 9 -4033 -1 1.04858e+06;
#X obj 189 12 cnv 10 10 10 empty empty Aide/Help 0 5 1 9 -4033 -1 1.04858e+06
;
#X obj -6 5 cnv 20 20 20 \$0-Help empty ARGOGEMImage+ 5 12 1 18 -4033
-1 1.04858e+06;
#X obj -2 29 cnv 10 10 10 empty empty Gerard 0 5 1 9 -4033 -1 1.04858e+06
;
#X obj 35 29 cnv 10 10 10 empty empty Paresys 0 5 1 9 -4033 -1 1.04858e+06
;
#X text -4 149 - Ouvre des fichiers image JPEG \, TIFF \, PNG...;
#X text -4 175 - 11 entrées de contrôle par ARGOBus;
#X text 294 23 <- Clic;
#X text -5 162 - ATTENTION: Audio doit etre On (Voir module ARGOGeneral)
;
#X text -3 192 - Si le module est sauvé avec 1 nom de fichier \, Ce
fichier sera lu automatiquement a la prochaine ouverture s'il n'a pas
changé d'emplacement.;
#X text 2 228 - Peut Ouvrir automatiquement 1 fichier qui se trouve
dans le même dossier que lui \, quelquesoit l'emplacement du dossier.
Pour cela taper le nom du fichier (sans chemin d'accés) dans le message
dans "pd open". Sauver le module. Le dossier contenant le module ARGO
et le fichier image est ainsi transportable.;
#X obj -6 313 cnv 15 400 150 empty empty empty 20 12 0 14 -224896 -66577
0;
#X text 19 340 Solution: ne pas utiliser d'accent dans les noms de
fichier;
#X text 21 382 Solution: cocher Compatible;
#X text 20 329 error:GemImageLoad:Unable to find file: C:/Image/Gérard.jpg
;
#X text 21 393 Se produit avec certaines cartes video \, de certains
PC \, sous Windows...;
#X text 21 418 Inconvenient: Charge CPU => la texture est calculée
(objet pix_texture) par le processeur de l'ordinateur et pas par la
carte video);
#X text -3 316 - Erreur dans la fenêtre Pd:;
#X text 21 357 GL: énumérant non valide (répété);
#X text 21 369 OpenGL: invalid enumérant (repeat);
#X restore 26 13 pd Help-------;
#X obj 23 12 cnv 18 110 18 empty empty GEMImage+ 1 9 1 14 -4033 -1
1.04858e+06;
#X obj 4 12 tgl 18 1 \$0-SendOnOff \$0-ReceiveOnOff empty 0 0 0 9 -4033
-1 -1 1 1;
#X obj 59 73 nbx 2 12 0 16 0 1 \$0-SendARGOBusInput \$0-ReceiveARGOBusInput
ARGOBus -55 6 1 9 -228856 -1 -1 0 256;
#X obj 83 73 hsl 201 12 0 1 0 1 \$0-SendSize \$0-ReceiveSize Size 0
5 1 9 -228856 -1 -1 4100 0;
#X obj 59 169 nbx 2 12 0 16 0 1 \$0-SendARGOBusInput3 \$0-ReceiveARGOBusInput3
ARGOBus -55 6 1 9 -258049 -262144 -1 0 256;
#X obj 59 181 nbx 2 12 0 16 0 1 \$0-SendARGOBusInput4 \$0-ReceiveARGOBusInput4
ARGOBus -55 6 1 9 -4033 -262144 -1 0 256;
#X obj 59 193 nbx 2 12 0 16 0 1 \$0-SendARGOBusInput5 \$0-ReceiveARGOBusInput5
ARGOBus -55 6 1 9 -64 -262144 -1 0 256;
#X obj 59 129 nbx 2 12 0 16 0 1 \$0-SendARGOBusInput6 \$0-ReceiveARGOBusInput6
ARGOBus -55 6 1 9 -228856 -1 -1 0 256;
#X obj 83 129 hsl 201 12 0 1 0 1 \$0-SendPositionX \$0-ReceivePositionX
PositionX 0 5 1 9 -228856 -1 -1 10000 0;
#X obj 59 141 nbx 2 12 0 16 0 1 \$0-SendARGOBusInput7 \$0-ReceiveARGOBusInput7
ARGOBus -55 6 1 9 -228856 -1 -1 0 256;
#X obj 83 141 hsl 201 12 0 1 0 1 \$0-SendPositionY \$0-ReceivePositionY
PositionY 0 5 1 9 -228856 -1 -1 10000 0;
#X obj 59 153 nbx 2 12 0 16 0 1 \$0-SendARGOBusInput8 \$0-ReceiveARGOBusInput8
ARGOBus -55 6 1 9 -228856 -1 -1 0 256;
#X obj 83 153 hsl 201 12 0 1 0 1 \$0-SendPositionZ \$0-ReceivePositionZ
PositionZ 0 5 1 9 -228856 -1 -1 10000 0;
#X obj 59 89 nbx 2 12 0 16 0 1 \$0-SendARGOBusInput9 \$0-ReceiveARGOBusInput9
ARGOBus -55 6 1 9 -228856 -1 -1 0 256;
#X obj 83 89 hsl 201 12 0 1 0 1 \$0-SendRotateX \$0-ReceiveRotateX
RotateX 0 5 1 9 -228856 -1 -1 10000 0;
#X obj 59 101 nbx 2 12 0 16 0 1 \$0-SendARGOBusInput10 \$0-ReceiveARGOBusInput10
ARGOBus -55 6 1 9 -228856 -1 -1 0 256;
#X obj 83 101 hsl 201 12 0 1 0 1 \$0-SendRotateY \$0-ReceiveRotateY
RotateY 0 5 1 9 -228856 -1 -1 10000 0;
#X obj 59 113 nbx 2 12 0 16 0 1 \$0-SendARGOBusInput11 \$0-ReceiveARGOBusInput11
ARGOBus -55 6 1 9 -228856 -1 -1 0 256;
#X obj 83 113 hsl 201 12 0 1 0 1 \$0-SendRotateZ \$0-ReceiveRotateZ
RotateZ 0 5 1 9 -228856 -1 -1 10000 0;
#X obj 178 41 bng 13 250 50 0 \$0-SendOpen \$0-ReceiveOpen Open(JPEG..TIFF...)
16 6 1 9 -262144 -1 -1;
#X symbolatom 4 40 24 0 0 0 - #0-ReceiveFileName #0;
#X obj 59 57 nbx 2 12 0 16 0 1 \$0-SendARGOBusInput12 \$0-ReceiveARGOBusInput12
ARGOBus -55 6 1 9 -228856 -1 -1 0 256;
#X obj 83 57 hsl 201 12 0 1 0 1 \$0-SendIntensity1 \$0-ReceiveIntensity1
Intensity 0 5 1 9 -228856 -1 -1 10000 0;
#X obj 235 11 cnv 10 20 10 empty empty X 0 4 1 9 -262144 -1 0;
#X obj 264 11 cnv 10 20 10 empty empty Y 0 4 1 9 -262144 -1 0;
#X obj 201 23 cnv 10 20 10 empty empty Size 0 4 1 9 -262144 -1 0;
#X obj 172 170 active;
#X obj 172 186 s \$0-SendActive;
#X obj 83 169 hsl 201 12 0 1 0 1 \$0-SendColorR \$0-ReceiveColorR empty
0 6 1 9 -258049 -262144 -1 20000 0;
#X obj 83 181 hsl 201 12 0 1 0 1 \$0-SendColorV \$0-ReceiveColorV empty
0 6 1 9 -4033 -262144 -1 20000 0;
#X obj 83 193 hsl 201 12 0 1 0 1 \$0-SendColorB \$0-ReceiveColorB empty
0 6 1 9 -64 -262144 -1 20000 0;
#X obj 137 21 tgl 12 1 \$0-SendQuality \$0-ReceiveQuality Quality 15
6 1 9 -262144 -1 -1 1 1;
#X floatatom 226 21 4 0 0 1 - #0-ReceiveSizeX #0;
#X floatatom 256 21 4 0 0 1 - #0-ReceiveSizeY #0;
#X obj 137 3 tgl 12 1 \$0-SendMode \$0-ReceiveMode Compatible 15 6
1 9 -262144 -1 -1 1 1;
#X connect 27 0 28 0;
