#N canvas 471 55 257 242 10;
#X obj 1 50 cnv 20 246 60 empty ColorForm empty 20 12 0 14 -188398
-1 1.04858e+06;
#N canvas 260 131 515 383 Help-- 0;
#X obj 9 65 cnv 15 400 54 empty empty empty 20 12 0 14 -224896 -66577
0;
#X text 11 64 Construit sous/Build under;
#X text 11 76 Pd 0.38.4-extended;
#X obj 10 122 cnv 15 400 30 empty empty empty 20 12 0 14 -259090 -66577
0;
#X text 11 89 Voir/Look at:;
#X text 11 102 http://sourceforge.net/projects/pure-data/;
#X text 17 123 - Un module "ARGOGeneral" (et un seul) doit etre ouvert
avant l'ouverture de ce module.;
#N canvas 196 135 620 396 /SUBPATCH/ 0;
#X obj 88 310 switch~;
#N canvas 250 86 728 269 OutputMono2v3 0;
#X obj 215 16 + 100;
#X obj 215 38 dbtorms;
#X msg 247 96 set \$1;
#N canvas 264 25 362 334 8Dac 0;
#X obj 34 92 *~;
#X obj 53 110 *~;
#X obj 34 241 dac~ 1 2 3 4 5 6 7 8;
#X obj 72 128 *~;
#X obj 91 146 *~;
#X obj 111 164 *~;
#X obj 130 182 *~;
#X obj 149 200 *~;
#X obj 169 218 *~;
#X obj 34 24 inlet~;
#X obj 51 68 r \$0-SendDac21;
#X obj 70 86 r \$0-SendDac22;
#X obj 89 105 r \$0-SendDac23;
#X obj 108 122 r \$0-SendDac24;
#X obj 127 142 r \$0-SendDac25;
#X obj 145 158 r \$0-SendDac26;
#X obj 166 176 r \$0-SendDac27;
#X obj 187 194 r \$0-SendDac28;
#X connect 0 0 2 0;
#X connect 1 0 2 1;
#X connect 3 0 2 2;
#X connect 4 0 2 3;
#X connect 5 0 2 4;
#X connect 6 0 2 5;
#X connect 7 0 2 6;
#X connect 8 0 2 7;
#X connect 9 0 0 0;
#X connect 9 0 1 0;
#X connect 9 0 3 0;
#X connect 9 0 4 0;
#X connect 9 0 5 0;
#X connect 9 0 6 0;
#X connect 9 0 7 0;
#X connect 9 0 8 0;
#X connect 10 0 0 1;
#X connect 11 0 1 1;
#X connect 12 0 3 1;
#X connect 13 0 4 1;
#X connect 14 0 5 1;
#X connect 15 0 6 1;
#X connect 16 0 7 1;
#X connect 17 0 8 1;
#X restore 126 210 pd 8Dac;
#X obj 182 165 env~;
#X obj 181 187 - 96.98;
#X obj 150 141 *~;
#X obj 151 -9 inlet~;
#X obj 555 -7 r \$0-SendVolume2;
#X obj 181 210 s \$0-Vumetre2;
#X obj 556 208 s \$0-ReceivedB2;
#X obj 278 209 s \$0-ReceiveVolume2;
#X obj 304 -8 r \$0-SenddB2;
#X obj 393 -8 r \$0-SendVolumeGeneral;
#X obj 417 209 s \$0-ReceiveVolume1;
#X obj 199 -9 r \$0-SendOnOff;
#X obj 165 75 * 1;
#X obj 173 15 t b f;
#X obj 165 119 line~;
#X msg 165 98 \$1 100;
#X obj -16 -9 r \$0-SendARGOBusSortie2;
#N canvas 314 184 318 216 OutputARGOBusv3 0;
#X obj 54 5 inlet;
#X obj 99 5 inlet~;
#X obj -25 100 sprintf ARGOBus%d;
#X obj 53 32 change;
#X msg -24 144 set \$1;
#X obj -24 123 tosymbol;
#X text -84 4 No ARGObus 1..16 ->;
#X obj 97 182 throw~ ARGOBus0;
#X connect 0 0 3 0;
#X connect 1 0 7 0;
#X connect 2 0 5 0;
#X connect 3 0 2 0;
#X connect 4 0 7 0;
#X connect 5 0 4 0;
#X restore -17 210 pd OutputARGOBusv3;
#X connect 0 0 1 0;
#X connect 1 0 16 0;
#X connect 2 0 11 0;
#X connect 4 0 5 0;
#X connect 5 0 9 0;
#X connect 6 0 3 0;
#X connect 6 0 4 0;
#X connect 6 0 21 1;
#X connect 7 0 6 0;
#X connect 8 0 10 0;
#X connect 12 0 0 0;
#X connect 12 0 2 0;
#X connect 13 0 14 0;
#X connect 13 0 11 0;
#X connect 15 0 17 0;
#X connect 16 0 19 0;
#X connect 17 0 16 0;
#X connect 17 1 16 1;
#X connect 18 0 6 1;
#X connect 19 0 18 0;
#X connect 20 0 21 0;
#X restore 429 293 pd OutputMono2v3;
#N canvas 379 112 661 278 OutputMono1v3 0;
#X obj 291 33 + 100;
#X obj 292 54 dbtorms;
#X msg 291 197 set \$1;
#N canvas 264 25 378 350 8Dac 0;
#X obj 34 92 *~;
#X obj 53 110 *~;
#X obj 34 241 dac~ 1 2 3 4 5 6 7 8;
#X obj 72 128 *~;
#X obj 91 146 *~;
#X obj 111 164 *~;
#X obj 130 182 *~;
#X obj 149 200 *~;
#X obj 169 218 *~;
#X obj 34 24 inlet~;
#X obj 51 68 r \$0-SendDac11;
#X obj 70 86 r \$0-SendDac12;
#X obj 89 104 r \$0-SendDac13;
#X obj 108 122 r \$0-SendDac14;
#X obj 127 141 r \$0-SendDac15;
#X obj 145 158 r \$0-SendDac16;
#X obj 166 176 r \$0-SendDac17;
#X obj 187 194 r \$0-SendDac18;
#X connect 0 0 2 0;
#X connect 1 0 2 1;
#X connect 3 0 2 2;
#X connect 4 0 2 3;
#X connect 5 0 2 4;
#X connect 6 0 2 5;
#X connect 7 0 2 6;
#X connect 8 0 2 7;
#X connect 9 0 0 0;
#X connect 9 0 1 0;
#X connect 9 0 3 0;
#X connect 9 0 4 0;
#X connect 9 0 5 0;
#X connect 9 0 6 0;
#X connect 9 0 7 0;
#X connect 9 0 8 0;
#X connect 10 0 0 1;
#X connect 11 0 1 1;
#X connect 12 0 3 1;
#X connect 13 0 4 1;
#X connect 14 0 5 1;
#X connect 15 0 6 1;
#X connect 16 0 7 1;
#X connect 17 0 8 1;
#X restore 141 221 pd 8Dac;
#X obj 196 179 env~;
#X obj 195 199 - 96.98;
#X obj 196 157 *~;
#X obj 196 12 inlet~;
#X obj 476 12 r \$0-SendVolume1;
#X obj 195 221 s \$0-Vumetre1;
#X obj 477 220 s \$0-ReceivedB1;
#X obj 291 221 s \$0-ReceiveVolume1;
#X obj 282 12 r \$0-SenddB1;
#X obj 372 12 r \$0-SendOnOff;
#X obj 342 89 * 1;
#X obj 347 54 t b f;
#X obj 303 134 line~;
#X msg 342 110 \$1 100;
#X obj 429 220 outlet;
#X obj 390 54 pipe 500;
#X obj 11 12 r \$0-SendARGOBusSortie1;
#N canvas 314 184 341 243 OutputARGOBusv3 0;
#X obj 54 5 inlet;
#X obj 99 5 inlet~;
#X obj -25 100 sprintf ARGOBus%d;
#X obj 53 32 change;
#X msg -24 144 set \$1;
#X obj -24 123 tosymbol;
#X text -84 4 No ARGObus 1..16 ->;
#X obj 97 182 throw~ ARGOBus0;
#X connect 0 0 3 0;
#X connect 1 0 7 0;
#X connect 2 0 5 0;
#X connect 3 0 2 0;
#X connect 4 0 7 0;
#X connect 5 0 4 0;
#X restore 10 222 pd OutputARGOBusv3;
#X connect 0 0 1 0;
#X connect 1 0 14 0;
#X connect 2 0 11 0;
#X connect 4 0 5 0;
#X connect 5 0 9 0;
#X connect 6 0 3 0;
#X connect 6 0 4 0;
#X connect 6 0 21 1;
#X connect 7 0 6 0;
#X connect 8 0 10 0;
#X connect 12 0 0 0;
#X connect 12 0 2 0;
#X connect 13 0 15 0;
#X connect 13 0 19 0;
#X connect 14 0 17 0;
#X connect 15 0 14 0;
#X connect 15 1 14 1;
#X connect 16 0 6 1;
#X connect 17 0 16 0;
#X connect 19 0 18 0;
#X connect 20 0 21 0;
#X restore 89 289 pd OutputMono1v3;
#X obj 266 68 phasor~;
#X obj 268 170 -~ 0.5;
#X obj 41 260 *~;
#X obj 58 213 == 1;
#X obj 105 213 == 2;
#X obj 140 213 == 3;
#X obj 176 213 == 4;
#X obj 89 259 *~;
#X obj 124 259 *~;
#X obj 160 258 *~;
#X obj 7 260 *~;
#X obj 22 213 == 0;
#X obj 22 235 * 2;
#X obj 57 234 * -2;
#X obj 57 177 r \$0-SendWaveForm;
#X obj 380 255 *~;
#X obj 397 208 == 1;
#X obj 444 208 == 2;
#X obj 480 208 == 3;
#X obj 514 208 == 4;
#X obj 428 254 *~;
#X obj 464 254 *~;
#X obj 498 253 *~;
#X obj 336 255 *~;
#X obj 351 208 == 0;
#X obj 351 230 * 2;
#X obj 396 229 * -2;
#X obj 466 167 r \$0-SendWaveForm2;
#X obj 137 115 samphold~;
#N canvas 786 433 252 239 Chaos 0;
#X obj 57 26 inlet~;
#X obj 78 169 outlet~;
#X obj 93 90 *~;
#X obj 77 119 *~;
#X obj 40 67 -~ 1;
#X obj 39 90 *~ -1;
#X obj 139 26 inlet;
#X obj 77 144 clip~ 0.001 0.999;
#X text 152 7 P;
#X text 73 7 X;
#X text 41 187 P * X * (1 - X);
#X text 9 145 0 < X < 1;
#X connect 0 0 2 0;
#X connect 0 0 4 0;
#X connect 2 0 3 1;
#X connect 3 0 7 0;
#X connect 4 0 5 0;
#X connect 5 0 3 0;
#X connect 6 0 2 1;
#X connect 7 0 1 0;
#X restore 109 -3 pd Chaos;
#X obj 159 -27 r \$0-SendP;
#X obj 5 -46 loadbang;
#X obj 3 117 snapshot~;
#X obj 4 -26 metro 109;
#X obj 4 157 s \$0-ReceiveX;
#X obj 152 138 send~ \$0-Chaos;
#X obj 109 -46 receive~ \$0-Chaos;
#X obj 102 140 -~ 0.5;
#X obj 104 233 * 2;
#X obj 141 236 * -2;
#X obj 459 116 samphold~;
#N canvas 786 433 244 231 Chaos 0;
#X obj 57 26 inlet~;
#X obj 78 169 outlet~;
#X obj 93 90 *~;
#X obj 77 119 *~;
#X obj 40 67 -~ 1;
#X obj 39 90 *~ -1;
#X obj 139 26 inlet;
#X obj 77 144 clip~ 0.001 0.999;
#X text 152 7 P;
#X text 73 7 X;
#X text 41 187 P * X * (1 - X);
#X text 9 145 0 < X < 1;
#X connect 0 0 2 0;
#X connect 0 0 4 0;
#X connect 2 0 3 1;
#X connect 3 0 7 0;
#X connect 4 0 5 0;
#X connect 5 0 3 0;
#X connect 6 0 2 1;
#X connect 7 0 1 0;
#X restore 458 16 pd Chaos;
#X obj 317 106 snapshot~;
#X obj 439 142 -~ 0.5;
#X obj 458 -44 receive~ \$0-Chaos2;
#X obj 508 -23 r \$0-SendP2;
#X obj 487 141 send~ \$0-Chaos2;
#X obj 318 147 s \$0-ReceiveX2;
#X obj 481 231 * -2;
#X obj 444 229 * 2;
#X obj 515 231 * 2;
#X obj 175 235 * 2;
#X obj 266 27 *~;
#X obj 283 -25 / 1000;
#X obj 4 137 change;
#X obj 317 127 change;
#N canvas 281 75 460 417 Freq2 0;
#X obj 325 176 clip~ 0 20000;
#X obj 175 243 ftom;
#X obj 254 -32 r \$0-SendARGOBusFreq;
#X obj 176 314 s \$0-ReceiveFreqMIDI;
#X obj 176 221 r \$0-SendFreq;
#X obj 175 155 mtof;
#X obj 263 9 r \$0-SendFreqMIDI;
#X obj 176 199 s \$0-ReceiveFreq;
#X obj 189 34 +~;
#X obj 145 62 snapshot~;
#X obj 145 84 change;
#X obj 174 108 * 240;
#X obj 175 131 - 108;
#X obj 325 154 mtof~;
#X obj 323 107 *~ 240;
#X obj 324 129 -~ 108;
#X obj 176 266 + 108;
#X obj 177 288 / 240;
#X msg 110 271 set \$1;
#X msg 176 177 set \$1;
#X obj 27 -31 r ColorTime;
#X obj 10 315 s \$0-ReceiveARGOBusFreq;
#X obj 322 314 outlet~;
#N canvas 512 263 257 200 InputARGOBusv3 0;
#X obj 48 74 sprintf ARGOBus%d;
#X obj 46 30 inlet;
#X obj 49 158 outlet~;
#X msg 49 116 set \$1;
#X obj 49 95 tosymbol;
#X obj 47 52 change;
#X text 88 30 <- No ARGObus 1..16;
#X obj 49 137 r~ ARGOBus0;
#X connect 0 0 4 0;
#X connect 1 0 5 0;
#X connect 3 0 7 0;
#X connect 4 0 3 0;
#X connect 5 0 0 0;
#X connect 7 0 2 0;
#X restore 254 -10 pd InputARGOBusv3;
#X obj 109 -31 r \$0-SendClic;
#X obj 206 -32 inlet~;
#X obj 63 -3 s \$0-ReceiveChaosFreq;
#X connect 0 0 22 0;
#X connect 1 0 16 0;
#X connect 2 0 23 0;
#X connect 4 0 1 0;
#X connect 5 0 19 0;
#X connect 6 0 8 1;
#X connect 8 0 9 0;
#X connect 8 0 14 0;
#X connect 9 0 10 0;
#X connect 10 0 11 0;
#X connect 10 0 18 0;
#X connect 11 0 12 0;
#X connect 12 0 5 0;
#X connect 13 0 0 0;
#X connect 14 0 15 0;
#X connect 15 0 13 0;
#X connect 16 0 17 0;
#X connect 17 0 3 0;
#X connect 18 0 3 0;
#X connect 19 0 7 0;
#X connect 20 0 3 0;
#X connect 20 0 7 0;
#X connect 20 0 21 0;
#X connect 20 0 26 0;
#X connect 23 0 8 0;
#X connect 24 0 9 0;
#X connect 25 0 8 0;
#X restore 267 48 pd Freq2;
#X obj 283 -45 r \$0-SendChaosFreq;
#N canvas 424 161 175 199 clic 0;
#X obj 23 17 MouseState;
#X obj 23 82 &;
#X obj 23 100 == 0;
#X obj 23 136 s \$0-SendClic;
#X obj 32 58 t b f;
#X obj 23 118 metro 200;
#X obj 32 37 r \$0-SendActive;
#X connect 0 0 1 0;
#X connect 1 0 2 0;
#X connect 2 0 5 0;
#X connect 4 0 1 0;
#X connect 4 1 1 1;
#X connect 5 0 3 0;
#X connect 6 0 4 0;
#X restore 536 8 pd clic;
#X obj 260 255 r ColorForm;
#X obj 211 301 s \$0-ReceiveWaveForm;
#X obj 211 321 s \$0-ReceiveWaveForm2;
#X obj 203 281 s \$0-ReceiveP;
#X obj 288 282 s \$0-ReceiveP2;
#X connect 2 0 0 0;
#X connect 3 0 4 0;
#X connect 3 0 31 1;
#X connect 3 0 43 1;
#X connect 4 0 13 0;
#X connect 4 0 5 0;
#X connect 4 0 26 0;
#X connect 4 0 18 0;
#X connect 5 0 2 0;
#X connect 6 0 16 0;
#X connect 7 0 41 0;
#X connect 8 0 42 0;
#X connect 9 0 54 0;
#X connect 10 0 2 0;
#X connect 11 0 2 0;
#X connect 12 0 2 0;
#X connect 13 0 2 0;
#X connect 14 0 15 0;
#X connect 15 0 13 1;
#X connect 16 0 5 1;
#X connect 17 0 6 0;
#X connect 17 0 7 0;
#X connect 17 0 8 0;
#X connect 17 0 9 0;
#X connect 17 0 14 0;
#X connect 18 0 1 0;
#X connect 19 0 29 0;
#X connect 20 0 52 0;
#X connect 21 0 51 0;
#X connect 22 0 53 0;
#X connect 23 0 1 0;
#X connect 24 0 1 0;
#X connect 25 0 1 0;
#X connect 26 0 1 0;
#X connect 27 0 28 0;
#X connect 28 0 26 1;
#X connect 29 0 18 1;
#X connect 30 0 19 0;
#X connect 30 0 20 0;
#X connect 30 0 21 0;
#X connect 30 0 22 0;
#X connect 30 0 27 0;
#X connect 31 0 38 0;
#X connect 31 0 40 0;
#X connect 32 0 35 0;
#X connect 32 0 55 0;
#X connect 32 0 31 0;
#X connect 33 0 32 1;
#X connect 34 0 36 0;
#X connect 35 0 57 0;
#X connect 36 0 35 0;
#X connect 36 0 45 0;
#X connect 39 0 32 0;
#X connect 40 0 10 0;
#X connect 40 0 11 0;
#X connect 40 0 23 0;
#X connect 40 0 24 0;
#X connect 41 0 10 1;
#X connect 42 0 11 1;
#X connect 43 0 49 0;
#X connect 43 0 46 0;
#X connect 44 0 43 0;
#X connect 44 0 45 0;
#X connect 45 0 58 0;
#X connect 46 0 25 0;
#X connect 46 0 12 0;
#X connect 47 0 44 0;
#X connect 48 0 44 1;
#X connect 51 0 24 1;
#X connect 52 0 23 1;
#X connect 53 0 25 1;
#X connect 54 0 12 1;
#X connect 55 0 59 0;
#X connect 56 0 55 1;
#X connect 57 0 37 0;
#X connect 58 0 50 0;
#X connect 59 0 3 0;
#X connect 60 0 56 0;
#X connect 62 0 63 0;
#X connect 62 0 64 0;
#X connect 62 0 65 0;
#X connect 62 0 66 0;
#X connect 62 0 50 0;
#X connect 62 0 37 0;
#X restore 255 31 pd;
#X obj 10 11 cnv 10 220 50 empty empty http://perso.orange.fr/Paresys/ARGOPd/
5 44 1 9 -4033 -1 1.04858e+06;
#X obj 179 18 cnv 10 10 10 empty empty Aide/Help 0 5 1 9 -4033 -1 1.04858e+06
;
#X obj 10 12 cnv 20 20 20 \$0-Help empty ARGO2Chaos1 5 12 1 18 -4033
-1 1.04858e+06;
#X obj 14 35 cnv 10 10 10 empty empty Gerard 0 5 1 9 -4033 -1 1.04858e+06
;
#X obj 51 35 cnv 10 10 10 empty empty Paresys 0 5 1 9 -4033 -1 1.04858e+06
;
#X text 14 341 - 2 x 8 sorties Audio DAC;
#X text 13 354 - 2 x 1 sortie Audio ARGOBus;
#X text 281 31 <- Clic;
#X text 14 328 - Fréquence contrôlée par ARGOBus;
#X text 34 168 n+1;
#X text 111 167 n;
#X text 174 167 n;
#X text 61 163 = P * X * (1 - X );
#X text 12 162 - X;
#X text 79 186 http://fr.wikipedia.org/wiki/Image:Diagramme_de_bifurcation.png
;
#X text 11 186 - Voir ->;
#X text 79 254 http://fr.wikipedia.org/wiki/Théorie_du_chaos;
#X text 13 254 - Voir ->;
#X text 191 162 chaotique si 0 < X < 1 et 3.57 < P < 4;
#X text 11 214 - En faisant varier P de 3 à 4 \, on passe d'une oscillation
régulière \, stable \, à une variation chaotique... La limite est P
= 3.57. C'est le "scénario de Feigenbaum".;
#X text 79 265 http://en.wikipedia.org/wiki/Chaos_theory;
#X text 28 306 - Chaos1 controle la fréquence;
#X text 13 293 - 2 Chaos indépendants dans ce module: Chaos1 et Chaos2
;
#X restore 99 3 pd Help--;
#X obj 98 3 cnv 18 90 18 empty empty Chaos1 0 9 1 14 -4033 -1 1.04858e+06
;
#X obj 79 3 tgl 18 1 \$0-SendOnOff \$0-ReceiveOnOff empty 0 0 0 9 -4033
-1 -1 1 1;
#X obj 116 49 vradio 12 1 1 5 \$0-SendWaveForm2 \$0-ReceiveWaveForm2
empty 0 -6 1 9 -188398 -1 -1 1;
#X obj 129 98 cnv 10 60 10 empty ColorForm Chaos2--> 1 5 1 9 -188398
-1 1.04858e+06;
#X obj 129 50 cnv 10 60 10 empty ColorForm RampUp 1 5 1 9 -188398 -1
1.04858e+06;
#X obj 129 62 cnv 10 60 10 empty ColorForm RampDown 1 5 1 9 -188398
-1 1.04858e+06;
#X obj 129 73 cnv 10 60 10 empty ColorForm Chaos1--> 1 5 1 9 -188398
-1 1.04858e+06;
#X obj 129 86 cnv 10 60 10 empty ColorForm Chaos1_Inv 1 5 1 9 -188398
-1 1.04858e+06;
#X obj 96 49 vradio 12 1 1 5 \$0-SendWaveForm \$0-ReceiveWaveForm empty
0 -6 1 9 -188398 -1 -1 2;
#X obj 47 73 nbx 4 12 3 4 0 1 \$0-SendP \$0-ReceiveP P 39 6 1 9 -188398
-1 -1 3.82 256;
#X obj 186 73 nbx 6 12 0 1 0 0 \$0-SendX \$0-ReceiveX X 52 6 1 9 -188398
-1 -1 0 256;
#X obj 47 97 nbx 4 12 3 4 0 1 \$0-SendP2 \$0-ReceiveP2 P 39 6 1 9 -188398
-1 -1 3.94 256;
#X obj 186 97 nbx 6 12 0 1 0 0 \$0-SendX2 \$0-ReceiveX2 X 52 6 1 9
-188398 -1 -1 0 256;
#X obj 1 49 nbx 4 12 0 1000 0 1 \$0-SendChaosFreq \$0-ReceiveChaosFreq
Chaos1 40 6 1 9 -208064 -1 -1 100 256;
#X obj 12 131 active;
#X obj 12 147 s \$0-SendActive;
#X obj 1 110 cnv 20 246 100 empty ColorAmpli empty 20 12 0 14 -261299
-1 1.04858e+06;
#X obj 116 111 vsl 11 119 -98 20 0 0 \$0-SendVolume2 \$0-ReceiveVolume2
empty -3 -8 1 10 -262144 -1 -1 9800 0;
#X obj 128 111 vu 8 120 \$0-Vumetre2 empty -1 -8 1 9 -1 -1 0 0;
#X obj 137 223 tgl 10 1 \$0-SendDac21 \$0-ReceiveDac21 empty 0 -6 0
8 -262144 -1 -1 0 1;
#X obj 147 223 tgl 10 1 \$0-SendDac22 \$0-ReceiveDac22 empty 0 -6 0
8 -262144 -1 -1 0 1;
#X obj 157 223 tgl 10 1 \$0-SendDac23 \$0-ReceiveDac23 empty 0 -6 0
8 -262144 -1 -1 0 1;
#X obj 167 223 tgl 10 1 \$0-SendDac24 \$0-ReceiveDac24 empty 0 -6 0
8 -262144 -1 -1 0 1;
#X obj 177 223 tgl 10 1 \$0-SendDac25 \$0-ReceiveDac25 empty 0 -6 0
8 -262144 -1 -1 0 1;
#X obj 187 223 tgl 10 1 \$0-SendDac26 \$0-ReceiveDac26 empty 0 -6 0
8 -262144 -1 -1 0 1;
#X obj 197 223 tgl 10 1 \$0-SendDac27 \$0-ReceiveDac27 empty 0 -6 0
8 -262144 -1 -1 0 1;
#X obj 207 223 tgl 10 1 \$0-SendDac28 \$0-ReceiveDac28 empty 0 -6 0
8 -262144 -1 -1 0 1;
#X obj 137 162 nbx 4 12 -100 60 0 1 \$0-SenddB2 \$0-ReceivedB2 dB 40
6 1 9 -262144 -1 -1 0 256;
#X obj 97 111 vsl 11 119 -98 20 0 1 \$0-SendVolume1 \$0-ReceiveVolume1
empty -3 -8 1 10 -262144 -1 -1 7800 0;
#X obj 88 111 vu 8 120 \$0-Vumetre1 empty -1 -8 1 9 -1 -1 0 0;
#X obj 64 211 nbx 2 12 0 16 0 1 \$0-SendARGOBusSortie1 \$0-ReceiveARGOBusSortie1
ARGOBus -55 6 1 9 -262144 -1 -1 1 256;
#X obj 7 223 tgl 10 1 \$0-SendDac11 \$0-ReceiveDac11 empty 0 -6 0 8
-262144 -1 -1 0 1;
#X obj 17 223 tgl 10 1 \$0-SendDac12 \$0-ReceiveDac12 empty 0 -6 0
8 -262144 -1 -1 0 1;
#X obj 27 223 tgl 10 1 \$0-SendDac13 \$0-ReceiveDac13 empty 0 -6 0
8 -262144 -1 -1 0 1;
#X obj 37 223 tgl 10 1 \$0-SendDac14 \$0-ReceiveDac14 empty 0 -6 0
8 -262144 -1 -1 0 1;
#X obj 47 223 tgl 10 1 \$0-SendDac15 \$0-ReceiveDac15 empty 0 -6 0
8 -262144 -1 -1 0 1;
#X obj 57 223 tgl 10 1 \$0-SendDac16 \$0-ReceiveDac16 empty 0 -6 0
8 -262144 -1 -1 0 1;
#X obj 67 223 tgl 10 1 \$0-SendDac17 \$0-ReceiveDac17 empty 0 -6 0
8 -262144 -1 -1 0 1;
#X obj 77 223 tgl 10 1 \$0-SendDac18 \$0-ReceiveDac18 empty 0 -6 0
8 -262144 -1 -1 0 1;
#X obj 33 162 nbx 4 12 -100 60 0 1 \$0-SenddB1 \$0-ReceivedB1 dB 40
6 1 9 -262144 -1 -1 -20 256;
#X obj 108 111 vsl 8 119 -98 20 0 0 \$0-SendVolumeGeneral \$0-ReceiveVolumeGeneral
empty -3 -8 1 10 -262144 -1 -1 0 0;
#X obj 194 211 nbx 2 12 0 16 0 1 \$0-SendARGOBusSortie2 \$0-ReceiveARGOBusSortie2
ARGOBus -55 6 1 9 -262144 -1 -1 2 256;
#X obj 1 25 cnv 20 246 12 empty ColorTime empty 20 12 0 14 -208064
-1 1.04858e+06;
#X obj 4 37 hsl 241 12 0 1 0 0 \$0-SendFreqMIDI \$0-ReceiveFreqMIDI
Freq 0 5 1 9 -208064 -1 -1 8864 0;
#X obj 224 25 nbx 2 12 0 16 0 1 \$0-SendARGOBusFreq \$0-ReceiveARGOBusFreq
ARGOBus -55 6 1 9 -208064 -1 -1 0 256;
#X obj 1 25 nbx 7 12 0 20000 0 1 \$0-SendFreq \$0-ReceiveFreq Hz 60
6 1 9 -208064 -1 -1 2.67262 256;
#X connect 16 0 17 0;
