#N canvas 445 135 288 150 10;
#N canvas 276 88 517 455 Help------- 0;
#X obj 8 70 cnv 15 400 54 empty empty empty 20 12 0 14 -224896 -66577
0;
#X text 10 69 Construit sous/Build under;
#X text 10 81 Pd 0.38.4-extended;
#X obj 9 137 cnv 15 400 50 empty empty empty 20 12 0 14 -259090 -66577
0;
#X text 10 94 Voir/Look at:;
#X text 10 107 http://sourceforge.net/projects/pure-data/;
#X text 16 138 - Un module "ARGOGeneral" (et un seul) doit etre ouvert
avant l'ouverture de ce module.;
#N canvas 791 320 318 213 /SUBPATCH/ 0;
#X obj -169 11 r \$0-SendOnOff;
#X obj -168 160 switch~;
#X msg -42 89 debug \$1;
#X obj -42 11 r \$0-SendSource;
#X obj -168 34 t f f f;
#X obj -147 59 pipe 500;
#X obj -41 164 light;
#N canvas 914 354 187 211 clic 0;
#X obj 23 17 MouseState;
#X obj 23 82 &;
#X obj 23 100 == 0;
#X obj 23 136 s \$0-SendClic;
#X obj 32 58 t b f;
#X obj 32 37 r \$0-SendActive;
#X obj 23 118 metro 200;
#X connect 0 0 1 0;
#X connect 1 0 2 0;
#X connect 2 0 6 0;
#X connect 4 0 1 0;
#X connect 4 1 1 1;
#X connect 5 0 4 0;
#X connect 6 0 3 0;
#X restore 52 42 pd clic;
#N canvas 409 216 732 342 rotatXYZ 0;
#X obj -147 277 outlet;
#X msg 395 163 set \$1;
#X obj 395 83 +~;
#X obj 396 115 snapshot~;
#X obj 396 137 change;
#X obj -38 215 * 400;
#X obj 417 53 r \$0-SendRotateZ;
#X obj 393 12 r \$0-SendARGOBusInput11;
#X obj 395 185 s \$0-ReceiveRotateZ;
#X msg 219 163 set \$1;
#X obj 219 83 +~;
#X obj 220 115 snapshot~;
#X obj 220 137 change;
#X obj -79 215 * 400;
#X obj 217 12 r \$0-SendARGOBusInput10;
#X obj 241 53 r \$0-SendRotateY;
#X obj 219 185 s \$0-ReceiveRotateY;
#X msg -53 163 set \$1;
#X obj -96 83 +~;
#X obj -52 115 snapshot~;
#X obj -52 137 change;
#X obj -121 215 * 400;
#X obj -98 12 r \$0-SendARGOBusInput9;
#X obj -74 54 r \$0-SendRotateX;
#X obj -53 185 s \$0-ReceiveRotateX;
#X obj -121 235 - 200;
#X obj -80 235 - 200;
#X obj -39 235 - 200;
#N canvas 512 263 257 200 InputARGOBusv3 0;
#X obj 48 74 sprintf ARGOBus%d;
#X obj 46 30 inlet;
#X obj 49 158 outlet~;
#X msg 49 116 set \$1;
#X obj 49 95 tosymbol;
#X obj 47 52 change;
#X text 88 30 <- No ARGObus 1..16;
#X obj 49 137 r~ ARGOBus0;
#X connect 0 0 4 0;
#X connect 1 0 5 0;
#X connect 3 0 7 0;
#X connect 4 0 3 0;
#X connect 5 0 0 0;
#X connect 7 0 2 0;
#X restore 217 33 pd InputARGOBusv3;
#N canvas 512 263 257 200 InputARGOBusv3 0;
#X obj 48 74 sprintf ARGOBus%d;
#X obj 46 30 inlet;
#X obj 49 158 outlet~;
#X msg 49 116 set \$1;
#X obj 49 95 tosymbol;
#X obj 47 52 change;
#X text 88 30 <- No ARGObus 1..16;
#X obj 49 137 r~ ARGOBus0;
#X connect 0 0 4 0;
#X connect 1 0 5 0;
#X connect 3 0 7 0;
#X connect 4 0 3 0;
#X connect 5 0 0 0;
#X connect 7 0 2 0;
#X restore 394 35 pd InputARGOBusv3;
#N canvas 512 263 257 200 InputARGOBusv3 0;
#X obj 48 74 sprintf ARGOBus%d;
#X obj 46 30 inlet;
#X obj 49 158 outlet~;
#X msg 49 116 set \$1;
#X obj 49 95 tosymbol;
#X obj 47 52 change;
#X text 88 30 <- No ARGObus 1..16;
#X obj 49 137 r~ ARGOBus0;
#X connect 0 0 4 0;
#X connect 1 0 5 0;
#X connect 3 0 7 0;
#X connect 4 0 3 0;
#X connect 5 0 0 0;
#X connect 7 0 2 0;
#X restore -97 33 pd InputARGOBusv3;
#X obj -147 257 rotateXYZ 0 0 0;
#X obj -147 12 inlet;
#X obj 121 33 r \$0-SendClic;
#X obj 61 12 loadbang;
#X obj 60 33 metro 40;
#X obj 327 116 snapshot~;
#X obj 327 138 change;
#X obj 153 115 snapshot~;
#X obj 153 137 change;
#X obj -122 116 snapshot~;
#X obj -122 138 change;
#X connect 1 0 8 0;
#X connect 2 0 3 0;
#X connect 2 0 36 0;
#X connect 3 0 4 0;
#X connect 4 0 1 0;
#X connect 5 0 27 0;
#X connect 6 0 2 1;
#X connect 7 0 29 0;
#X connect 9 0 16 0;
#X connect 10 0 11 0;
#X connect 10 0 38 0;
#X connect 11 0 12 0;
#X connect 12 0 9 0;
#X connect 13 0 26 0;
#X connect 14 0 28 0;
#X connect 15 0 10 1;
#X connect 17 0 24 0;
#X connect 18 0 19 0;
#X connect 18 0 40 0;
#X connect 19 0 20 0;
#X connect 20 0 17 0;
#X connect 21 0 25 0;
#X connect 22 0 30 0;
#X connect 23 0 18 1;
#X connect 25 0 31 1;
#X connect 26 0 31 2;
#X connect 27 0 31 3;
#X connect 28 0 10 0;
#X connect 29 0 2 0;
#X connect 30 0 18 0;
#X connect 31 0 0 0;
#X connect 32 0 31 0;
#X connect 33 0 19 0;
#X connect 33 0 11 0;
#X connect 33 0 3 0;
#X connect 34 0 35 0;
#X connect 35 0 36 0;
#X connect 35 0 38 0;
#X connect 35 0 40 0;
#X connect 36 0 37 0;
#X connect 37 0 5 0;
#X connect 38 0 39 0;
#X connect 39 0 13 0;
#X connect 40 0 41 0;
#X connect 41 0 21 0;
#X restore -147 104 pd rotatXYZ;
#N canvas 25 214 752 338 translatXYZ 0;
#X obj 135 8 loadbang;
#X msg 45 161 set \$1;
#X obj -24 87 +~;
#X obj -25 117 snapshot~;
#X obj -25 139 change;
#X obj -26 8 r \$0-SendARGOBusInput6;
#X obj -9 49 r \$0-SendPositionX;
#X obj 45 183 s \$0-ReceivePositionX;
#X obj -26 214 - 0.5;
#X obj -26 235 * 10;
#X msg 299 159 set \$1;
#X obj 298 85 +~;
#X obj 229 116 snapshot~;
#X obj 229 138 change;
#X obj 296 6 r \$0-SendARGOBusInput7;
#X obj 315 48 r \$0-SendPositionY;
#X obj 299 181 s \$0-ReceivePositionY;
#X obj 14 214 - 0.5;
#X obj 14 235 * 10;
#X obj 57 214 - 0.5;
#X msg 468 159 set \$1;
#X obj 467 85 +~;
#X obj 398 116 snapshot~;
#X obj 398 138 change;
#X obj 465 6 r \$0-SendARGOBusInput8;
#X obj 484 51 r \$0-SendPositionZ;
#X obj 468 181 s \$0-ReceivePositionZ;
#X obj 57 235 * 5;
#X obj -64 290 outlet;
#N canvas 512 263 257 200 InputARGOBusv3 0;
#X obj 48 74 sprintf ARGOBus%d;
#X obj 46 30 inlet;
#X obj 49 158 outlet~;
#X msg 49 116 set \$1;
#X obj 49 95 tosymbol;
#X obj 47 52 change;
#X text 88 30 <- No ARGObus 1..16;
#X obj 49 137 r~ ARGOBus0;
#X connect 0 0 4 0;
#X connect 1 0 5 0;
#X connect 3 0 7 0;
#X connect 4 0 3 0;
#X connect 5 0 0 0;
#X connect 7 0 2 0;
#X restore -25 29 pd InputARGOBusv3;
#N canvas 512 263 257 200 InputARGOBusv3 0;
#X obj 48 74 sprintf ARGOBus%d;
#X obj 46 30 inlet;
#X obj 49 158 outlet~;
#X msg 49 116 set \$1;
#X obj 49 95 tosymbol;
#X obj 47 52 change;
#X text 88 30 <- No ARGObus 1..16;
#X obj 49 137 r~ ARGOBus0;
#X connect 0 0 4 0;
#X connect 1 0 5 0;
#X connect 3 0 7 0;
#X connect 4 0 3 0;
#X connect 5 0 0 0;
#X connect 7 0 2 0;
#X restore 297 27 pd InputARGOBusv3;
#N canvas 512 263 257 200 InputARGOBusv3 0;
#X obj 48 74 sprintf ARGOBus%d;
#X obj 46 30 inlet;
#X obj 49 158 outlet~;
#X msg 49 116 set \$1;
#X obj 49 95 tosymbol;
#X obj 47 52 change;
#X text 88 30 <- No ARGObus 1..16;
#X obj 49 137 r~ ARGOBus0;
#X connect 0 0 4 0;
#X connect 1 0 5 0;
#X connect 3 0 7 0;
#X connect 4 0 3 0;
#X connect 5 0 0 0;
#X connect 7 0 2 0;
#X restore 466 31 pd InputARGOBusv3;
#X obj -65 264 translateXYZ 1 2 0;
#X obj -66 8 inlet;
#X obj 197 30 r \$0-SendClic;
#X obj 468 115 snapshot~;
#X obj 468 137 change;
#X obj 134 29 metro 40;
#X obj 298 116 snapshot~;
#X obj 298 138 change;
#X obj 45 117 snapshot~;
#X obj 45 139 change;
#X connect 0 0 37 0;
#X connect 1 0 7 0;
#X connect 2 0 3 0;
#X connect 2 0 40 0;
#X connect 3 0 4 0;
#X connect 4 0 8 0;
#X connect 5 0 29 0;
#X connect 6 0 2 1;
#X connect 8 0 9 0;
#X connect 9 0 32 1;
#X connect 10 0 16 0;
#X connect 11 0 12 0;
#X connect 11 0 38 0;
#X connect 12 0 13 0;
#X connect 13 0 17 0;
#X connect 14 0 30 0;
#X connect 15 0 11 1;
#X connect 17 0 18 0;
#X connect 18 0 32 2;
#X connect 19 0 27 0;
#X connect 20 0 26 0;
#X connect 21 0 22 0;
#X connect 21 0 35 0;
#X connect 22 0 23 0;
#X connect 23 0 19 0;
#X connect 24 0 31 0;
#X connect 25 0 21 1;
#X connect 27 0 32 3;
#X connect 29 0 2 0;
#X connect 30 0 11 0;
#X connect 31 0 21 0;
#X connect 32 0 28 0;
#X connect 33 0 32 0;
#X connect 34 0 35 0;
#X connect 34 0 38 0;
#X connect 34 0 40 0;
#X connect 35 0 36 0;
#X connect 36 0 20 0;
#X connect 37 0 3 0;
#X connect 37 0 12 0;
#X connect 37 0 22 0;
#X connect 38 0 39 0;
#X connect 39 0 10 0;
#X connect 40 0 41 0;
#X connect 41 0 1 0;
#X restore -147 124 pd translatXYZ;
#N canvas 423 204 701 341 couleurRVBModif 0;
#X obj 14 265 t b f;
#X obj -47 265 t b f;
#X obj -48 289 pack 0 0 0;
#X obj -111 196 clip 0 1;
#X obj -47 196 clip 0 1;
#X obj 15 196 clip 0 1;
#X obj -48 317 outlet;
#X msg -39 149 set \$1;
#X obj -110 8 r \$0-SendARGOBusInput3;
#X msg 206 149 set \$1;
#X msg 369 148 set \$1;
#X obj 367 73 +~;
#X obj 368 103 snapshot~;
#X obj 368 125 change;
#X obj 206 75 +~;
#X obj 206 105 snapshot~;
#X obj 206 127 change;
#X obj -110 75 +~;
#X obj -40 105 snapshot~;
#X obj -40 127 change;
#X obj 206 8 r \$0-SendARGOBusInput4;
#X obj 366 8 r \$0-SendARGOBusInput5;
#X obj 222 48 r \$0-SendColorV;
#X obj 382 50 r \$0-SendColorB;
#X obj -94 47 r \$0-SendColorR;
#X obj -39 171 s \$0-ReceiveColorR;
#X obj 206 171 s \$0-ReceiveColorV;
#X obj 369 170 s \$0-ReceiveColorB;
#N canvas 512 263 257 200 InputARGOBusv3 0;
#X obj 48 74 sprintf ARGOBus%d;
#X obj 46 30 inlet;
#X obj 49 158 outlet~;
#X msg 49 116 set \$1;
#X obj 49 95 tosymbol;
#X obj 47 52 change;
#X text 88 30 <- No ARGObus 1..16;
#X obj 49 137 r~ ARGOBus0;
#X connect 0 0 4 0;
#X connect 1 0 5 0;
#X connect 3 0 7 0;
#X connect 4 0 3 0;
#X connect 5 0 0 0;
#X connect 7 0 2 0;
#X restore -110 28 pd InputARGOBusv3;
#N canvas 512 263 257 200 InputARGOBusv3 0;
#X obj 48 74 sprintf ARGOBus%d;
#X obj 46 30 inlet;
#X obj 49 158 outlet~;
#X msg 49 116 set \$1;
#X obj 49 95 tosymbol;
#X obj 47 52 change;
#X text 88 30 <- No ARGObus 1..16;
#X obj 49 137 r~ ARGOBus0;
#X connect 0 0 4 0;
#X connect 1 0 5 0;
#X connect 3 0 7 0;
#X connect 4 0 3 0;
#X connect 5 0 0 0;
#X connect 7 0 2 0;
#X restore 206 28 pd InputARGOBusv3;
#N canvas 512 263 257 200 InputARGOBusv3 0;
#X obj 48 74 sprintf ARGOBus%d;
#X obj 46 30 inlet;
#X obj 49 158 outlet~;
#X msg 49 116 set \$1;
#X obj 49 95 tosymbol;
#X obj 47 52 change;
#X text 88 30 <- No ARGObus 1..16;
#X obj 49 137 r~ ARGOBus0;
#X connect 0 0 4 0;
#X connect 1 0 5 0;
#X connect 3 0 7 0;
#X connect 4 0 3 0;
#X connect 5 0 0 0;
#X connect 7 0 2 0;
#X restore 367 30 pd InputARGOBusv3;
#X obj 110 30 r \$0-SendClic;
#X obj 50 8 loadbang;
#X obj 49 29 metro 40;
#X obj 301 104 snapshot~;
#X obj 138 106 snapshot~;
#X obj -110 106 snapshot~;
#X obj -111 216 change;
#X obj -47 216 change;
#X obj 14 216 change;
#X obj -94 237 * 3;
#X obj -39 240 * 3;
#X obj 23 239 * 3;
#X connect 0 0 2 0;
#X connect 0 1 2 2;
#X connect 1 0 2 0;
#X connect 1 1 2 1;
#X connect 2 0 6 0;
#X connect 3 0 37 0;
#X connect 4 0 38 0;
#X connect 5 0 39 0;
#X connect 7 0 25 0;
#X connect 8 0 28 0;
#X connect 9 0 26 0;
#X connect 10 0 27 0;
#X connect 11 0 12 0;
#X connect 11 0 34 0;
#X connect 12 0 13 0;
#X connect 13 0 10 0;
#X connect 14 0 15 0;
#X connect 14 0 35 0;
#X connect 15 0 16 0;
#X connect 16 0 9 0;
#X connect 17 0 18 0;
#X connect 17 0 36 0;
#X connect 18 0 19 0;
#X connect 19 0 7 0;
#X connect 20 0 29 0;
#X connect 21 0 30 0;
#X connect 22 0 14 1;
#X connect 23 0 11 1;
#X connect 24 0 17 1;
#X connect 28 0 17 0;
#X connect 29 0 14 0;
#X connect 30 0 11 0;
#X connect 31 0 18 0;
#X connect 31 0 15 0;
#X connect 31 0 12 0;
#X connect 32 0 33 0;
#X connect 33 0 34 0;
#X connect 33 0 35 0;
#X connect 33 0 36 0;
#X connect 34 0 5 0;
#X connect 35 0 4 0;
#X connect 36 0 3 0;
#X connect 37 0 40 0;
#X connect 38 0 41 0;
#X connect 39 0 42 0;
#X connect 40 0 2 0;
#X connect 41 0 1 0;
#X connect 42 0 0 0;
#X restore -10 141 pd couleurRVBModif;
#X obj -21 55 tgl 15 0 empty empty empty 0 -6 0 8 -262144 -1 -1 0 1
;
#X obj -147 82 gemhead;
#X connect 0 0 4 0;
#X connect 2 0 6 0;
#X connect 3 0 2 0;
#X connect 4 0 1 0;
#X connect 4 1 5 0;
#X connect 4 2 6 0;
#X connect 5 0 12 0;
#X connect 8 0 9 0;
#X connect 9 0 6 0;
#X connect 10 0 6 1;
#X connect 11 0 2 0;
#X connect 12 0 8 0;
#X restore 302 23 pd;
#X obj 8 8 cnv 10 250 50 empty empty http://perso.orange.fr/Paresys/ARGOPd/
5 44 1 9 -4033 -1 1.04858e+06;
#X obj 201 15 cnv 10 10 10 empty empty Aide/Help 0 5 1 9 -4033 -1 1.04858e+06
;
#X obj 8 9 cnv 20 20 20 empty empty ARGOGEMLight 5 12 1 18 -4033 -1
1.04858e+06;
#X obj 12 32 cnv 10 10 10 empty empty Gerard 0 5 1 9 -4033 -1 1.04858e+06
;
#X obj 49 32 cnv 10 10 10 empty empty Paresys 0 5 1 9 -4033 -1 1.04858e+06
;
#X text 14 168 - Allumer la lumière en cochant Light dans ARGOGeneral.
;
#X text 9 358 - 9 entrées de contrôle par ARGOBus;
#X text 8 337 - Voir le module ARGOGEMWLightvxx.pd;
#X obj 7 198 cnv 15 430 130 empty empty empty 20 12 0 14 -233017 -66577
0;
#X text 15 201 "Description: adds a point-light to the scene";
#X text 14 219 "[light] produces a light which is local to the scene
(unlike [world_light] (cf module ARGOWLight) which is at an infinite
distance). Because light is local light \, there is more computation
required. Use a world_light if you don't mind parallel light rays."
;
#X text 11 308 "... set the color of the light-source.";
#X text 13 281 "You can adjust the light with [rotate]. If you are
lost use "Source" to display the light source as a small sphere.";
#X restore 24 5 pd Help-------;
#X obj 147 7 tgl 12 1 \$0-SendSource \$0-ReceiveSource Source 14 6
1 9 -262144 -1 -1 1 1;
#X obj 3 4 tgl 18 1 \$0-SendOnOff \$0-ReceiveOnOff empty 0 0 0 9 -4033
-1 -1 1 1;
#X obj 22 4 cnv 18 110 18 empty empty GEMLight 1 9 1 14 -4033 -1 1.04858e+06
;
#X obj 58 107 nbx 2 12 0 16 0 1 \$0-SendARGOBusInput3 \$0-ReceiveARGOBusInput3
ARGOBus -55 6 1 9 -258049 -262144 -1 0 256;
#X obj 58 119 nbx 2 12 0 16 0 1 \$0-SendARGOBusInput4 \$0-ReceiveARGOBusInput4
ARGOBus -55 6 1 9 -4033 -262144 -1 0 256;
#X obj 58 131 nbx 2 12 0 16 0 1 \$0-SendARGOBusInput5 \$0-ReceiveARGOBusInput5
ARGOBus -55 6 1 9 -64 -262144 -1 0 256;
#X obj 58 67 nbx 2 12 0 16 0 1 \$0-SendARGOBusInput6 \$0-ReceiveARGOBusInput6
ARGOBus -55 6 1 9 -228856 -1 -1 0 256;
#X obj 82 67 hsl 201 12 0 1 0 1 \$0-SendPositionX \$0-ReceivePositionX
PositionX 0 5 1 9 -228856 -1 -1 10000 0;
#X obj 58 79 nbx 2 12 0 16 0 1 \$0-SendARGOBusInput7 \$0-ReceiveARGOBusInput7
ARGOBus -55 6 1 9 -228856 -1 -1 0 256;
#X obj 82 79 hsl 201 12 0 1 0 1 \$0-SendPositionY \$0-ReceivePositionY
PositionY 0 5 1 9 -228856 -1 -1 10000 0;
#X obj 58 91 nbx 2 12 0 16 0 1 \$0-SendARGOBusInput8 \$0-ReceiveARGOBusInput8
ARGOBus -55 6 1 9 -228856 -1 -1 0 256;
#X obj 82 91 hsl 201 12 0 1 0 1 \$0-SendPositionZ \$0-ReceivePositionZ
PositionZ 0 5 1 9 -228856 -1 -1 10000 0;
#X obj 58 27 nbx 2 12 0 16 0 1 \$0-SendARGOBusInput9 \$0-ReceiveARGOBusInput9
ARGOBus -55 6 1 9 -228856 -1 -1 0 256;
#X obj 82 27 hsl 201 12 0 1 0 1 \$0-SendRotateX \$0-ReceiveRotateX
RotateX 0 5 1 9 -228856 -1 -1 10000 0;
#X obj 58 39 nbx 2 12 0 16 0 1 \$0-SendARGOBusInput10 \$0-ReceiveARGOBusInput10
ARGOBus -55 6 1 9 -228856 -1 -1 0 256;
#X obj 82 39 hsl 201 12 0 1 0 1 \$0-SendRotateY \$0-ReceiveRotateY
RotateY 0 5 1 9 -228856 -1 -1 10000 0;
#X obj 58 51 nbx 2 12 0 16 0 1 \$0-SendARGOBusInput11 \$0-ReceiveARGOBusInput11
ARGOBus -55 6 1 9 -228856 -1 -1 0 256;
#X obj 82 51 hsl 201 12 0 1 0 1 \$0-SendRotateZ \$0-ReceiveRotateZ
RotateZ 0 5 1 9 -228856 -1 -1 10000 0;
#X obj 171 108 active;
#X obj 171 124 s \$0-SendActive;
#X obj 82 107 hsl 201 12 0 1 0 1 \$0-SendColorR \$0-ReceiveColorR empty
0 6 1 9 -258049 -262144 -1 10000 0;
#X obj 82 119 hsl 201 12 0 1 0 1 \$0-SendColorV \$0-ReceiveColorV empty
0 6 1 9 -4033 -262144 -1 10000 0;
#X obj 82 131 hsl 201 12 0 1 0 1 \$0-SendColorB \$0-ReceiveColorB empty
0 6 1 9 -64 -262144 -1 10000 0;
#X connect 19 0 20 0;
