#N canvas 5 193 318 258 10;
#X obj 3 121 cnv 30 190 55 empty ColorForm Shape&Timbre 5 28 1 14 -188398
-1 1.04858e+06;
#X obj 119 128 nbx 3 14 0 255 0 1 \$0-SendRForm \$0-ReceiveRForm empty
0 -6 1 9 -258049 -262144 -262144 180 256;
#X obj 119 142 nbx 3 14 0 255 0 1 \$0-SendVForm \$0-ReceiveVForm empty
0 -6 1 9 -4033 -1 -1 255 256;
#X obj 119 156 nbx 3 14 0 255 0 1 \$0-SendBForm \$0-ReceiveBForm empty
0 -6 1 9 -64 -262144 -1 180 256;
#X obj 155 128 nbx 3 14 0 255 0 1 \$0-SendRTForm \$0-ReceiveRTForm
empty 0 -6 1 9 -258049 -262144 -262144 0 256;
#X obj 155 142 nbx 3 14 0 255 0 1 \$0-SendVTForm \$0-ReceiveVTForm
empty 0 -6 1 9 -4033 -1 -1 0 256;
#X obj 155 156 nbx 3 14 0 255 0 1 \$0-SendBTForm \$0-ReceiveBTForm
empty 0 -6 1 9 -64 -262144 -1 0 256;
#X obj 3 179 cnv 30 190 55 empty ColorAmpli Amplitude 5 28 1 14 -261299
-1 1.04858e+06;
#X obj 119 186 nbx 3 14 0 255 0 1 \$0-SendRAmpli \$0-ReceiveRAmpli
empty 0 -6 1 9 -258049 -262144 -262144 255 256;
#X obj 119 200 nbx 3 14 0 255 0 1 \$0-SendVAmpli \$0-ReceiveVAmpli
empty 0 -6 1 9 -4033 -1 -1 200 256;
#X obj 119 214 nbx 3 14 0 255 0 1 \$0-SendBAmpli \$0-ReceiveBAmpli
empty 0 -6 1 9 -64 -262144 -1 200 256;
#X obj 155 186 nbx 3 14 0 255 0 1 \$0-SendRTAmpli \$0-ReceiveRTAmpli
empty 0 -6 1 9 -258049 -262144 -262144 0 256;
#X obj 155 200 nbx 3 14 0 255 0 1 \$0-SendVTAmpli \$0-ReceiveVTAmpli
empty 0 -6 1 9 -4033 -1 -1 0 256;
#X obj 155 214 nbx 3 14 0 255 0 1 \$0-SendBTAmpli \$0-ReceiveBTAmpli
empty 0 -6 1 9 -64 -262144 -1 0 256;
#X obj 3 63 cnv 30 190 55 empty ColorTime Time&Freq 5 28 1 14 -208064
-1 1.04858e+06;
#X obj 119 70 nbx 3 14 0 255 0 1 \$0-SendRTime \$0-ReceiveRTime empty
0 -6 1 9 -258049 -262144 -262144 200 256;
#X obj 119 84 nbx 3 14 0 255 0 1 \$0-SendVTime \$0-ReceiveVTime empty
0 -6 1 9 -4033 -1 -1 200 256;
#X obj 119 98 nbx 3 14 0 255 0 1 \$0-SendBTime \$0-ReceiveBTime empty
0 -6 1 9 -64 -262144 -1 255 256;
#X obj 155 70 nbx 3 14 0 255 0 1 \$0-SendRTTime \$0-ReceiveRTTime empty
0 -6 1 9 -258049 -262144 -262144 0 256;
#X obj 155 84 nbx 3 14 0 255 0 1 \$0-SendVTTime \$0-ReceiveVTTime empty
0 -6 1 9 -4033 -1 -1 0 256;
#X obj 155 98 nbx 3 14 0 255 0 1 \$0-SendBTTime \$0-ReceiveBTTime empty
0 -6 1 9 -64 -262144 -1 0 256;
#X obj 3 5 cnv 30 190 55 empty ColorMIDI MIDI 5 28 1 14 -262103 -1
1.04858e+06;
#X obj 119 12 nbx 3 14 0 255 0 1 \$0-SendRMIDI \$0-ReceiveRMIDI empty
0 -6 1 9 -258049 -262144 -262144 255 256;
#X obj 119 26 nbx 3 14 0 255 0 1 \$0-SendVMIDI \$0-ReceiveVMIDI empty
0 -6 1 9 -4033 -1 -1 255 256;
#X obj 119 40 nbx 3 14 0 255 0 1 \$0-SendBMIDI \$0-ReceiveBMIDI empty
0 -6 1 9 -64 -262144 -1 91 256;
#X obj 155 12 nbx 3 14 0 255 0 1 \$0-SendRTMIDI \$0-ReceiveRTMIDI empty
0 -6 1 9 -258049 -262144 -262144 0 256;
#X obj 155 26 nbx 3 14 0 255 0 1 \$0-SendVTMIDI \$0-ReceiveVTMIDI empty
0 -6 1 9 -4033 -1 -1 0 256;
#X obj 155 40 nbx 3 14 0 255 0 1 \$0-SendBTMIDI \$0-ReceiveBTMIDI empty
0 -6 1 9 -64 -262144 -1 0 256;
#X obj 203 82 vradio 15 1 1 5 \$0-SendInit \$0-ReceiveInit empty 0
-6 0 8 -262144 -1 -1 0;
#X text 222 82 Init;
#X text 222 97 Black & White;
#X text 222 113 White & Black;
#X obj 155 240 nbx 3 14 0 255 0 0 \$0-SendColorTextGeneral \$0-ReceiveColorTextGeneral
empty 0 -6 1 9 -262144 -1 -1 0 256;
#X obj 119 240 nbx 3 14 0 255 0 0 \$0-SendColorBackGeneral \$0-ReceiveColorBackGeneral
empty 0 -6 1 9 -262144 -1 -1 255 256;
#X text 221 141 ...;
#X text 222 128 R G B Y;
#N canvas 195 187 435 250 Help---- 0;
#X obj 9 75 cnv 15 400 54 empty empty empty 20 12 0 14 -224896 -66577
0;
#X text 11 74 Construit sous/Build under;
#X text 11 86 Pd 0.38.4-extended;
#X obj 10 146 cnv 15 400 30 empty empty empty 20 12 0 14 -259090 -66577
0;
#X text 11 99 Voir/Look at:;
#X text 11 112 http://sourceforge.net/projects/pure-data/;
#X text 17 147 - Un module "ARGOGeneral" (et un seul) doit etre ouvert
avant l'ouverture de ce module.;
#X obj 10 11 cnv 10 220 50 empty empty http://perso.orange.fr/Paresys/ARGOPd/
5 44 1 9 -4033 -1 1.04858e+06;
#X obj 179 18 cnv 10 10 10 empty empty Aide/Help 0 5 1 9 -4033 -1 1.04858e+06
;
#X obj 11 12 cnv 20 20 20 empty empty ARGOCosmetic 5 12 1 18 -4033
-1 1.04858e+06;
#X obj 14 35 cnv 10 10 10 empty empty Gerard 0 5 1 9 -4033 -1 1.04858e+06
;
#X obj 51 35 cnv 10 10 10 empty empty Paresys 0 5 1 9 -4033 -1 1.04858e+06
;
#X text 15 194 - Contrôle les couleurs des autres modules ARGO ouverts
;
#X text 15 213 - Enregistrer les modules apres le changement des couleurs
;
#X text 29 225 pour préserver ces changements;
#N canvas 355 27 618 638 Pd 0;
#X obj 225 464 r \$0-SendRAmpli;
#N canvas 291 185 333 296 6Couleurs 0;
#X obj 107 65 t b f;
#X obj 70 90 +;
#X obj 70 115 t b f;
#X obj 71 141 +;
#X obj 7 41 * -65536;
#X obj 69 41 * -256;
#X obj 117 41 * -1;
#X obj 107 165 - 1;
#X obj 262 65 t b f;
#X obj 222 91 +;
#X obj 222 116 t b f;
#X obj 222 140 +;
#X obj 160 42 * -65536;
#X obj 222 42 * -256;
#X obj 270 41 * -1;
#X obj 199 168 - 1;
#X obj 6 11 inlet;
#X obj 69 9 inlet;
#X obj 117 10 inlet;
#X obj 160 10 inlet;
#X obj 223 8 inlet;
#X obj 271 8 inlet;
#X obj 141 260 outlet;
#X obj 142 216 pack 0 0 0;
#X obj 155 193 t b f f;
#X msg 141 237 color \$1 \$2 \$3;
#X connect 0 0 1 0;
#X connect 0 1 1 1;
#X connect 1 0 2 0;
#X connect 2 0 3 0;
#X connect 2 1 3 1;
#X connect 3 0 7 0;
#X connect 4 0 3 0;
#X connect 5 0 1 0;
#X connect 6 0 0 0;
#X connect 7 0 23 0;
#X connect 8 0 9 0;
#X connect 8 1 9 1;
#X connect 9 0 10 0;
#X connect 10 0 11 0;
#X connect 10 1 11 1;
#X connect 11 0 15 0;
#X connect 12 0 11 0;
#X connect 13 0 9 0;
#X connect 14 0 8 0;
#X connect 15 0 24 0;
#X connect 16 0 4 0;
#X connect 17 0 5 0;
#X connect 18 0 6 0;
#X connect 19 0 12 0;
#X connect 20 0 13 0;
#X connect 21 0 14 0;
#X connect 23 0 25 0;
#X connect 24 0 23 0;
#X connect 24 1 23 1;
#X connect 24 2 23 2;
#X connect 25 0 22 0;
#X restore 226 575 pd 6Couleurs;
#X obj 227 595 s ColorAmpli;
#X obj 240 482 r \$0-SendVAmpli;
#X obj 256 500 r \$0-SendBAmpli;
#X obj 272 518 r \$0-SendRTAmpli;
#X obj 288 537 r \$0-SendVTAmpli;
#X obj 304 555 r \$0-SendBTAmpli;
#X msg -58 92 200;
#X obj -39 501 s \$0-ReceiveRAmpli;
#X obj -24 519 s \$0-ReceiveVAmpli;
#X obj -8 537 s \$0-ReceiveBAmpli;
#X obj 6 559 s \$0-ReceiveRTAmpli;
#X obj 22 578 s \$0-ReceiveVTAmpli;
#X obj 38 596 s \$0-ReceiveBTAmpli;
#N canvas 291 185 337 300 6Couleurs 0;
#X obj 107 65 t b f;
#X obj 70 90 +;
#X obj 70 115 t b f;
#X obj 71 141 +;
#X obj 7 41 * -65536;
#X obj 69 41 * -256;
#X obj 117 41 * -1;
#X obj 107 165 - 1;
#X obj 262 65 t b f;
#X obj 222 91 +;
#X obj 222 116 t b f;
#X obj 222 140 +;
#X obj 160 42 * -65536;
#X obj 222 42 * -256;
#X obj 270 41 * -1;
#X obj 199 168 - 1;
#X obj 6 11 inlet;
#X obj 69 9 inlet;
#X obj 117 10 inlet;
#X obj 160 10 inlet;
#X obj 223 8 inlet;
#X obj 271 8 inlet;
#X obj 141 260 outlet;
#X obj 142 216 pack 0 0 0;
#X obj 155 193 t b f f;
#X msg 141 237 color \$1 \$2 \$3;
#X connect 0 0 1 0;
#X connect 0 1 1 1;
#X connect 1 0 2 0;
#X connect 2 0 3 0;
#X connect 2 1 3 1;
#X connect 3 0 7 0;
#X connect 4 0 3 0;
#X connect 5 0 1 0;
#X connect 6 0 0 0;
#X connect 7 0 23 0;
#X connect 8 0 9 0;
#X connect 8 1 9 1;
#X connect 9 0 10 0;
#X connect 10 0 11 0;
#X connect 10 1 11 1;
#X connect 11 0 15 0;
#X connect 12 0 11 0;
#X connect 13 0 9 0;
#X connect 14 0 8 0;
#X connect 15 0 24 0;
#X connect 16 0 4 0;
#X connect 17 0 5 0;
#X connect 18 0 6 0;
#X connect 19 0 12 0;
#X connect 20 0 13 0;
#X connect 21 0 14 0;
#X connect 23 0 25 0;
#X connect 24 0 23 0;
#X connect 24 1 23 1;
#X connect 24 2 23 2;
#X connect 25 0 22 0;
#X restore 224 424 pd 6Couleurs;
#X obj 224 310 r \$0-SendRForm;
#X obj 238 330 r \$0-SendVForm;
#X obj 255 348 r \$0-SendBForm;
#X obj 271 366 r \$0-SendRTForm;
#X obj 287 385 r \$0-SendVTForm;
#X obj 303 403 r \$0-SendBTForm;
#X obj 224 444 s ColorForm;
#X obj -37 387 s \$0-ReceiveRForm;
#X obj -22 405 s \$0-ReceiveVForm;
#X obj -6 423 s \$0-ReceiveBForm;
#X obj 2 442 s \$0-ReceiveRTForm;
#X obj 18 461 s \$0-ReceiveVTForm;
#X obj 34 479 s \$0-ReceiveBTForm;
#X msg -25 92 180;
#N canvas 291 185 333 296 6Couleurs 0;
#X obj 107 65 t b f;
#X obj 70 90 +;
#X obj 70 115 t b f;
#X obj 71 141 +;
#X obj 7 41 * -65536;
#X obj 69 41 * -256;
#X obj 117 41 * -1;
#X obj 107 165 - 1;
#X obj 262 65 t b f;
#X obj 222 91 +;
#X obj 222 116 t b f;
#X obj 222 140 +;
#X obj 160 42 * -65536;
#X obj 222 42 * -256;
#X obj 270 41 * -1;
#X obj 199 168 - 1;
#X obj 6 11 inlet;
#X obj 69 9 inlet;
#X obj 117 10 inlet;
#X obj 160 10 inlet;
#X obj 223 8 inlet;
#X obj 271 8 inlet;
#X obj 141 260 outlet;
#X obj 141 217 pack 0 0 0;
#X obj 154 194 t b f f;
#X msg 140 238 color \$1 \$2 \$3;
#X connect 0 0 1 0;
#X connect 0 1 1 1;
#X connect 1 0 2 0;
#X connect 2 0 3 0;
#X connect 2 1 3 1;
#X connect 3 0 7 0;
#X connect 4 0 3 0;
#X connect 5 0 1 0;
#X connect 6 0 0 0;
#X connect 7 0 23 0;
#X connect 8 0 9 0;
#X connect 8 1 9 1;
#X connect 9 0 10 0;
#X connect 10 0 11 0;
#X connect 10 1 11 1;
#X connect 11 0 15 0;
#X connect 12 0 11 0;
#X connect 13 0 9 0;
#X connect 14 0 8 0;
#X connect 15 0 24 0;
#X connect 16 0 4 0;
#X connect 17 0 5 0;
#X connect 18 0 6 0;
#X connect 19 0 12 0;
#X connect 20 0 13 0;
#X connect 21 0 14 0;
#X connect 23 0 25 0;
#X connect 24 0 23 0;
#X connect 24 1 23 1;
#X connect 24 2 23 2;
#X connect 25 0 22 0;
#X restore 224 271 pd 6Couleurs;
#X obj 224 290 s ColorTime;
#X obj 224 157 r \$0-SendRTime;
#X obj 255 195 r \$0-SendBTime;
#X obj 271 213 r \$0-SendRTTime;
#X obj 287 232 r \$0-SendVTTime;
#X obj 304 250 r \$0-SendBTTime;
#X obj -34 274 s \$0-ReceiveRTime;
#X obj -19 292 s \$0-ReceiveVTime;
#X obj -3 310 s \$0-ReceiveBTime;
#X obj 4 330 s \$0-ReceiveRTTime;
#X obj 20 349 s \$0-ReceiveVTTime;
#X obj 36 367 s \$0-ReceiveBTTime;
#X obj 238 177 r \$0-SendVTime;
#N canvas 291 185 333 296 6Couleurs 0;
#X obj 107 65 t b f;
#X obj 70 90 +;
#X obj 70 115 t b f;
#X obj 71 141 +;
#X obj 7 41 * -65536;
#X obj 69 41 * -256;
#X obj 117 41 * -1;
#X obj 107 165 - 1;
#X obj 262 65 t b f;
#X obj 222 91 +;
#X obj 222 116 t b f;
#X obj 222 140 +;
#X obj 160 42 * -65536;
#X obj 222 42 * -256;
#X obj 270 41 * -1;
#X obj 199 168 - 1;
#X obj 6 11 inlet;
#X obj 69 9 inlet;
#X obj 117 10 inlet;
#X obj 160 10 inlet;
#X obj 223 8 inlet;
#X obj 271 8 inlet;
#X obj 141 260 outlet;
#X obj 142 215 pack 0 0 0;
#X obj 155 192 t b f f;
#X msg 141 236 color \$1 \$2 \$3;
#X connect 0 0 1 0;
#X connect 0 1 1 1;
#X connect 1 0 2 0;
#X connect 2 0 3 0;
#X connect 2 1 3 1;
#X connect 3 0 7 0;
#X connect 4 0 3 0;
#X connect 5 0 1 0;
#X connect 6 0 0 0;
#X connect 7 0 23 0;
#X connect 8 0 9 0;
#X connect 8 1 9 1;
#X connect 9 0 10 0;
#X connect 10 0 11 0;
#X connect 10 1 11 1;
#X connect 11 0 15 0;
#X connect 12 0 11 0;
#X connect 13 0 9 0;
#X connect 14 0 8 0;
#X connect 15 0 24 0;
#X connect 16 0 4 0;
#X connect 17 0 5 0;
#X connect 18 0 6 0;
#X connect 19 0 12 0;
#X connect 20 0 13 0;
#X connect 21 0 14 0;
#X connect 23 0 25 0;
#X connect 24 0 23 0;
#X connect 24 1 23 1;
#X connect 24 2 23 2;
#X connect 25 0 22 0;
#X restore 223 119 pd 6Couleurs;
#X obj 223 138 s ColorMIDI;
#X obj 223 5 r \$0-SendRMIDI;
#X obj 237 25 r \$0-SendVMIDI;
#X obj 254 43 r \$0-SendBMIDI;
#X obj 270 61 r \$0-SendRTMIDI;
#X obj 286 80 r \$0-SendVTMIDI;
#X obj 303 98 r \$0-SendBTMIDI;
#X obj -32 161 s \$0-ReceiveRMIDI;
#X obj -17 179 s \$0-ReceiveVMIDI;
#X obj -1 197 s \$0-ReceiveBMIDI;
#X obj 8 216 s \$0-ReceiveRTMIDI;
#X obj 24 235 s \$0-ReceiveVTMIDI;
#X obj 40 253 s \$0-ReceiveBTMIDI;
#X msg 8 92 91;
#X obj 37 7 r \$0-SendInit;
#X obj 37 28 sel 0 1 2 3;
#X msg 177 94 255;
#X obj -171 5 r \$0-SendColorBackGeneral;
#X obj -148 28 r \$0-SendColorTextGeneral;
#X obj 15 120 s \$0-ReceiveColorBackGeneral;
#X obj 22 140 s \$0-ReceiveColorTextGeneral;
#X msg 40 92 255;
#X msg 73 93 0;
#X msg 141 93 255;
#X msg 108 93 0;
#X obj 90 56 b;
#X obj 56 69 b;
#X obj 12 49 t b b;
#X obj 119 56 t b b;
#X connect 0 0 1 0;
#X connect 1 0 2 0;
#X connect 3 0 1 1;
#X connect 4 0 1 2;
#X connect 5 0 1 3;
#X connect 6 0 1 4;
#X connect 7 0 1 5;
#X connect 8 0 10 0;
#X connect 8 0 11 0;
#X connect 8 0 37 0;
#X connect 8 0 38 0;
#X connect 15 0 22 0;
#X connect 16 0 15 0;
#X connect 17 0 15 1;
#X connect 18 0 15 2;
#X connect 19 0 15 3;
#X connect 20 0 15 4;
#X connect 21 0 15 5;
#X connect 29 0 23 0;
#X connect 29 0 25 0;
#X connect 30 0 31 0;
#X connect 32 0 30 0;
#X connect 33 0 30 2;
#X connect 34 0 30 3;
#X connect 35 0 30 4;
#X connect 36 0 30 5;
#X connect 43 0 30 1;
#X connect 44 0 45 0;
#X connect 46 0 44 0;
#X connect 47 0 44 1;
#X connect 48 0 44 2;
#X connect 49 0 44 3;
#X connect 50 0 44 4;
#X connect 51 0 44 5;
#X connect 58 0 54 0;
#X connect 59 0 60 0;
#X connect 60 0 72 0;
#X connect 60 1 71 0;
#X connect 60 2 70 0;
#X connect 60 3 73 0;
#X connect 61 0 52 0;
#X connect 61 0 39 0;
#X connect 61 0 24 0;
#X connect 61 0 9 0;
#X connect 61 0 53 0;
#X connect 62 0 52 0;
#X connect 62 0 53 0;
#X connect 62 0 54 0;
#X connect 62 0 37 0;
#X connect 62 0 38 0;
#X connect 62 0 39 0;
#X connect 62 0 23 0;
#X connect 62 0 24 0;
#X connect 62 0 25 0;
#X connect 62 0 9 0;
#X connect 62 0 10 0;
#X connect 62 0 11 0;
#X connect 63 0 55 0;
#X connect 63 0 56 0;
#X connect 63 0 57 0;
#X connect 63 0 40 0;
#X connect 63 0 41 0;
#X connect 63 0 42 0;
#X connect 63 0 26 0;
#X connect 63 0 27 0;
#X connect 63 0 28 0;
#X connect 63 0 12 0;
#X connect 63 0 13 0;
#X connect 63 0 14 0;
#X connect 66 0 64 0;
#X connect 67 0 65 0;
#X connect 68 0 65 0;
#X connect 69 0 64 0;
#X connect 70 0 68 0;
#X connect 70 0 69 0;
#X connect 71 0 66 0;
#X connect 71 0 67 0;
#X connect 72 0 8 0;
#X connect 72 0 29 0;
#X connect 72 0 58 0;
#X connect 72 1 71 0;
#X connect 73 0 61 0;
#X connect 73 1 69 0;
#X connect 73 1 67 0;
#X restore 257 29 pd;
#X text 283 29 <- Clic;
#X restore 206 29 pd Help----;
#X obj 203 29 cnv 18 95 18 \$0-Help empty Cosmetic 1 9 1 14 -4033 -1
1.04858e+06;
