#N canvas 497 207 219 196 10;
#X obj 95 49 tgl 15 0 \$0-SendRecord \$0-ReceiveRecord (R)ecord -45
7 1 9 -33289 -33289 -33289 0 1;
#X obj 63 5 tgl 18 1 \$0-SendOnOff \$0-ReceiveOnOff empty 0 0 0 9 -4033
-1 -1 1 1;
#X obj 5 68 cnv 20 210 113 empty ColorAmpli empty 20 12 0 14 -261299
-1 1.04858e+06;
#X obj 114 70 vsl 11 119 -98 20 0 0 \$0-SendVolume2 \$0-ReceiveVolume2
empty -3 -8 1 10 -262144 -1 -1 9800 0;
#X obj 126 70 vu 8 120 \$0-Vumetre2 empty -1 -8 1 9 -1 -1 0 0;
#X obj 135 182 tgl 10 1 \$0-SendDac21 \$0-ReceiveDac21 empty 0 -6 0
8 -262144 -1 -1 0 1;
#X obj 145 182 tgl 10 1 \$0-SendDac22 \$0-ReceiveDac22 empty 0 -6 0
8 -262144 -1 -1 1 1;
#X obj 155 182 tgl 10 1 \$0-SendDac23 \$0-ReceiveDac23 empty 0 -6 0
8 -262144 -1 -1 0 1;
#X obj 165 182 tgl 10 1 \$0-SendDac24 \$0-ReceiveDac24 empty 0 -6 0
8 -262144 -1 -1 0 1;
#X obj 175 182 tgl 10 1 \$0-SendDac25 \$0-ReceiveDac25 empty 0 -6 0
8 -262144 -1 -1 0 1;
#X obj 185 182 tgl 10 1 \$0-SendDac26 \$0-ReceiveDac26 empty 0 -6 0
8 -262144 -1 -1 0 1;
#X obj 195 182 tgl 10 1 \$0-SendDac27 \$0-ReceiveDac27 empty 0 -6 0
8 -262144 -1 -1 0 1;
#X obj 205 182 tgl 10 1 \$0-SendDac28 \$0-ReceiveDac28 empty 0 -6 0
8 -262144 -1 -1 0 1;
#X obj 135 121 nbx 4 12 -100 60 0 1 \$0-SenddB2 \$0-ReceivedB2 dB 40
6 1 9 -262144 -1 -1 0 256;
#X obj 95 70 vsl 11 119 -98 20 0 1 \$0-SendVolume1 \$0-ReceiveVolume1
empty -3 -8 1 10 -262144 -1 -1 9800 0;
#X obj 86 70 vu 8 120 \$0-Vumetre1 empty -1 -8 1 9 -1 -1 0 0;
#X obj 5 182 tgl 10 1 \$0-SendDac11 \$0-ReceiveDac11 empty 0 -6 0 8
-262144 -1 -1 1 1;
#X obj 15 182 tgl 10 1 \$0-SendDac12 \$0-ReceiveDac12 empty 0 -6 0
8 -262144 -1 -1 0 1;
#X obj 25 182 tgl 10 1 \$0-SendDac13 \$0-ReceiveDac13 empty 0 -6 0
8 -262144 -1 -1 0 1;
#X obj 35 182 tgl 10 1 \$0-SendDac14 \$0-ReceiveDac14 empty 0 -6 0
8 -262144 -1 -1 0 1;
#X obj 45 182 tgl 10 1 \$0-SendDac15 \$0-ReceiveDac15 empty 0 -6 0
8 -262144 -1 -1 0 1;
#X obj 55 182 tgl 10 1 \$0-SendDac16 \$0-ReceiveDac16 empty 0 -6 0
8 -262144 -1 -1 0 1;
#X obj 65 182 tgl 10 1 \$0-SendDac17 \$0-ReceiveDac17 empty 0 -6 0
8 -262144 -1 -1 0 1;
#X obj 75 182 tgl 10 1 \$0-SendDac18 \$0-ReceiveDac18 empty 0 -6 0
8 -262144 -1 -1 0 1;
#X obj 31 121 nbx 4 12 -100 60 0 1 \$0-SenddB1 \$0-ReceivedB1 dB 40
6 1 9 -262144 -1 -1 0 256;
#X obj 106 70 vsl 8 119 -98 20 0 0 \$0-SendVolumeGeneral \$0-ReceiveVolumeGeneral
empty -3 -8 1 10 -262144 -1 -1 0 0;
#N canvas 318 178 483 255 Help-- 0;
#X obj 7 60 cnv 15 400 54 empty empty empty 20 12 0 14 -224896 -66577
0;
#X text 9 59 Construit sous/Build under;
#X text 9 71 Pd 0.38.4-extended;
#X obj 8 116 cnv 15 400 30 empty empty empty 20 12 0 14 -259090 -66577
0;
#X text 9 84 Voir/Look at:;
#X text 9 97 http://sourceforge.net/projects/pure-data/;
#X text 15 117 - Un module "ARGOGeneral" (et un seul) doit etre ouvert
avant l'ouverture de ce module.;
#X text 8 163 Raccourci clavier -> R Record;
#X text 8 151 Enregistreur Audio au format wave stereo;
#N canvas 371 239 437 194 Pd 0;
#X obj 163 130 switch~;
#N canvas 207 221 559 255 OutputMonorecord1 0;
#X obj 151 36 + 100;
#X obj 152 57 dbtorms;
#X msg 220 192 set \$1;
#N canvas 264 25 362 334 8Dac 0;
#X obj 34 92 *~;
#X obj 53 110 *~;
#X obj 34 241 dac~ 1 2 3 4 5 6 7 8;
#X obj 72 128 *~;
#X obj 91 146 *~;
#X obj 111 164 *~;
#X obj 130 182 *~;
#X obj 149 200 *~;
#X obj 169 218 *~;
#X obj 34 24 inlet~;
#X obj 51 68 r \$0-SendDac11;
#X obj 70 86 r \$0-SendDac12;
#X obj 89 104 r \$0-SendDac13;
#X obj 108 122 r \$0-SendDac14;
#X obj 127 141 r \$0-SendDac15;
#X obj 145 158 r \$0-SendDac16;
#X obj 166 176 r \$0-SendDac17;
#X obj 187 194 r \$0-SendDac18;
#X connect 0 0 2 0;
#X connect 1 0 2 1;
#X connect 3 0 2 2;
#X connect 4 0 2 3;
#X connect 5 0 2 4;
#X connect 6 0 2 5;
#X connect 7 0 2 6;
#X connect 8 0 2 7;
#X connect 9 0 0 0;
#X connect 9 0 1 0;
#X connect 9 0 3 0;
#X connect 9 0 4 0;
#X connect 9 0 5 0;
#X connect 9 0 6 0;
#X connect 9 0 7 0;
#X connect 9 0 8 0;
#X connect 10 0 0 1;
#X connect 11 0 1 1;
#X connect 12 0 3 1;
#X connect 13 0 4 1;
#X connect 14 0 5 1;
#X connect 15 0 6 1;
#X connect 16 0 7 1;
#X connect 17 0 8 1;
#X restore 67 216 pd 8Dac;
#X obj 125 172 env~;
#X obj 124 194 - 96.98;
#X obj 91 151 *~;
#X obj 89 6 inlet~;
#X obj 334 8 r \$0-SendVolume1;
#X obj 124 216 s \$0-Vumetre1;
#X obj 359 216 s \$0-ReceivedB1;
#X obj 220 216 s \$0-ReceiveVolume1;
#X obj 241 7 r \$0-SenddB1;
#X obj 137 6 r \$0-SendOnOff;
#X obj 107 83 * 1;
#X obj 107 35 t b f;
#X obj 107 130 line~;
#X msg 107 106 \$1 100;
#X obj 471 215 outlet;
#X obj 242 96 pipe 500;
#X obj 6 216 outlet~;
#X connect 0 0 1 0;
#X connect 1 0 14 0;
#X connect 2 0 11 0;
#X connect 4 0 5 0;
#X connect 5 0 9 0;
#X connect 6 0 3 0;
#X connect 6 0 4 0;
#X connect 6 0 20 0;
#X connect 7 0 6 0;
#X connect 8 0 10 0;
#X connect 12 0 0 0;
#X connect 12 0 2 0;
#X connect 13 0 15 0;
#X connect 13 0 19 0;
#X connect 14 0 17 0;
#X connect 15 0 14 0;
#X connect 15 1 14 1;
#X connect 16 0 6 1;
#X connect 17 0 16 0;
#X connect 19 0 18 0;
#X restore 29 71 pd OutputMonorecord1;
#N canvas 662 178 307 231 2Adc 0;
#X obj 82 81 *~;
#X obj 134 114 *~;
#X obj 82 27 adc~ 1 2;
#X obj 77 147 outlet~;
#X obj 99 57 r \$0-SendInput1;
#X obj 151 90 r \$0-SendInput2;
#X obj 134 146 outlet~;
#X connect 0 0 3 0;
#X connect 1 0 6 0;
#X connect 2 0 0 0;
#X connect 2 1 1 0;
#X connect 4 0 0 1;
#X connect 5 0 1 1;
#X restore 117 9 pd 2Adc;
#N canvas 151 186 636 252 OutputMonorecord2 0;
#X obj 172 41 + 100;
#X obj 173 62 dbtorms;
#X msg 231 91 set \$1;
#X obj 135 176 env~;
#X obj 134 198 - 96.98;
#X obj 101 155 *~;
#X obj 99 10 inlet~;
#X obj 147 10 r \$0-SendOnOff;
#X obj 117 87 * 1;
#X obj 117 39 t b f;
#X obj 117 134 line~;
#X msg 117 110 \$1 100;
#X obj 16 220 outlet~;
#X obj 251 11 r \$0-SenddB2;
#X obj 508 10 r \$0-SendVolume2;
#X obj 509 219 s \$0-ReceivedB2;
#X obj 230 220 s \$0-ReceiveVolume2;
#X obj 134 220 s \$0-Vumetre2;
#X obj 341 12 r \$0-SendVolumeGeneral;
#X obj 369 220 s \$0-ReceiveVolume1;
#N canvas 264 25 354 326 8Dac 0;
#X obj 34 92 *~;
#X obj 53 110 *~;
#X obj 34 241 dac~ 1 2 3 4 5 6 7 8;
#X obj 72 128 *~;
#X obj 91 146 *~;
#X obj 111 164 *~;
#X obj 130 182 *~;
#X obj 149 200 *~;
#X obj 169 218 *~;
#X obj 34 24 inlet~;
#X obj 51 68 r \$0-SendDac21;
#X obj 70 86 r \$0-SendDac22;
#X obj 89 105 r \$0-SendDac23;
#X obj 108 122 r \$0-SendDac24;
#X obj 127 142 r \$0-SendDac25;
#X obj 145 158 r \$0-SendDac26;
#X obj 166 176 r \$0-SendDac27;
#X obj 187 194 r \$0-SendDac28;
#X connect 0 0 2 0;
#X connect 1 0 2 1;
#X connect 3 0 2 2;
#X connect 4 0 2 3;
#X connect 5 0 2 4;
#X connect 6 0 2 5;
#X connect 7 0 2 6;
#X connect 8 0 2 7;
#X connect 9 0 0 0;
#X connect 9 0 1 0;
#X connect 9 0 3 0;
#X connect 9 0 4 0;
#X connect 9 0 5 0;
#X connect 9 0 6 0;
#X connect 9 0 7 0;
#X connect 9 0 8 0;
#X connect 10 0 0 1;
#X connect 11 0 1 1;
#X connect 12 0 3 1;
#X connect 13 0 4 1;
#X connect 14 0 5 1;
#X connect 15 0 6 1;
#X connect 16 0 7 1;
#X connect 17 0 8 1;
#X restore 77 220 pd 8Dac;
#X connect 0 0 1 0;
#X connect 1 0 8 0;
#X connect 2 0 16 0;
#X connect 3 0 4 0;
#X connect 4 0 17 0;
#X connect 5 0 3 0;
#X connect 5 0 12 0;
#X connect 5 0 20 0;
#X connect 6 0 5 0;
#X connect 7 0 9 0;
#X connect 8 0 11 0;
#X connect 9 0 8 0;
#X connect 9 1 8 1;
#X connect 10 0 5 1;
#X connect 11 0 10 0;
#X connect 13 0 0 0;
#X connect 13 0 2 0;
#X connect 14 0 15 0;
#X connect 18 0 19 0;
#X connect 18 0 16 0;
#X restore 179 70 pd OutputMonorecord2;
#X obj 76 130 writesf~ 2;
#X obj -44 9 r \$0-SendARGOBusInput;
#X obj 179 9 r \$0-SendARGOBusInput2;
#N canvas 264 25 244 299 InputARGOBusv2 0;
#X obj 105 162 r~ ARGOBus1;
#X obj 104 99 sprintf ARGOBus%d;
#X obj 53 74 select 0;
#X obj 121 213 > 0;
#X obj 104 233 *~;
#X obj 28 29 inlet;
#X obj 104 255 outlet~;
#X text 14 13 No ARGObus;
#X msg 105 141 set \$1;
#X obj 105 120 tosymbol;
#X obj 29 51 change;
#X connect 0 0 4 0;
#X connect 1 0 9 0;
#X connect 2 1 1 0;
#X connect 3 0 4 1;
#X connect 4 0 6 0;
#X connect 5 0 10 0;
#X connect 8 0 0 0;
#X connect 9 0 8 0;
#X connect 10 0 2 0;
#X connect 10 0 3 0;
#X restore -43 33 pd InputARGOBusv2;
#N canvas 264 25 252 307 InputARGOBusv2 0;
#X obj 105 162 r~ ARGOBus1;
#X obj 104 99 sprintf ARGOBus%d;
#X obj 53 74 select 0;
#X obj 121 213 > 0;
#X obj 104 233 *~;
#X obj 28 29 inlet;
#X obj 104 255 outlet~;
#X text 14 13 No ARGObus;
#X msg 105 141 set \$1;
#X obj 105 120 tosymbol;
#X obj 29 51 change;
#X connect 0 0 4 0;
#X connect 1 0 9 0;
#X connect 2 1 1 0;
#X connect 3 0 4 1;
#X connect 4 0 6 0;
#X connect 5 0 10 0;
#X connect 8 0 0 0;
#X connect 9 0 8 0;
#X connect 10 0 2 0;
#X connect 10 0 3 0;
#X restore 179 33 pd InputARGOBusv2;
#N canvas 573 187 460 348 Record 0;
#X msg 133 221 color 13 13 13;
#X msg 93 250 color 12 12 12;
#X obj 93 37 sel 0 1;
#X msg 117 178 start;
#X msg -68 176 stop;
#X msg 116 117 open \$1;
#X obj 116 57 savepanel;
#X obj 92 16 r \$0-SendRecord;
#X obj 243 313 s \$0-ReceiveRecord;
#X obj 117 137 b 1;
#X obj 117 158 delay 1000;
#X obj 130 97 print Record;
#X obj 130 77 unsymbol;
#X obj 132 199 b 1;
#X obj 243 15 key;
#X obj 243 220 select 82 114;
#X obj -67 278 outlet;
#X obj 18 290 float;
#X obj 63 290 + 1;
#X obj 17 249 metro 1000;
#X msg 63 270 -1;
#X obj 60 223 b 1;
#X obj 91 313 s \$0-ReceiveTime;
#X obj 90 291 r ColorTime;
#X connect 0 0 8 0;
#X connect 1 0 8 0;
#X connect 2 0 1 0;
#X connect 2 0 4 0;
#X connect 2 1 6 0;
#X connect 3 0 13 0;
#X connect 3 0 16 0;
#X connect 3 0 21 0;
#X connect 4 0 16 0;
#X connect 4 0 19 0;
#X connect 5 0 9 0;
#X connect 5 0 16 0;
#X connect 6 0 12 0;
#X connect 6 0 5 0;
#X connect 7 0 2 0;
#X connect 9 0 10 0;
#X connect 9 0 20 0;
#X connect 10 0 3 0;
#X connect 10 0 20 0;
#X connect 12 0 11 0;
#X connect 13 0 0 0;
#X connect 14 0 15 0;
#X connect 15 0 8 0;
#X connect 15 1 8 0;
#X connect 17 0 18 0;
#X connect 18 0 17 1;
#X connect 18 0 22 0;
#X connect 19 0 17 0;
#X connect 20 0 18 0;
#X connect 21 0 19 0;
#X connect 23 0 22 0;
#X restore 76 103 pd Record;
#X connect 1 0 4 0;
#X connect 1 1 0 0;
#X connect 2 0 1 0;
#X connect 2 1 3 0;
#X connect 3 0 4 1;
#X connect 5 0 7 0;
#X connect 6 0 8 0;
#X connect 7 0 1 0;
#X connect 8 0 3 0;
#X connect 9 0 4 0;
#X restore 262 23 pd;
#X obj 7 7 cnv 10 220 50 empty empty http://perso.orange.fr/Paresys/ARGOPd/
5 44 1 9 -4033 -1 1.04858e+06;
#X obj 176 14 cnv 10 10 10 empty empty Aide/Help 0 5 1 9 -4033 -1 1.04858e+06
;
#X obj 7 8 cnv 20 20 20 empty empty ARGO2Record1 5 12 1 18 -4033 -1
1.04858e+06;
#X obj 11 31 cnv 10 10 10 empty empty Gerard 0 5 1 9 -4033 -1 1.04858e+06
;
#X obj 51 31 cnv 10 10 10 empty empty Paresys 0 5 1 9 -4033 -1 1.04858e+06
;
#X text 287 24 <- Clic;
#X text 11 231 - 2 x 8 sorties Audio DAC;
#X text 195 180 (Entrée gauche d'une carte-son standard);
#X text 195 192 (Entrée droite d'une carte-son standard);
#X text 11 180 - 1 = Entrée (ADC) Audio 1;
#X text 11 192 - 2 = Entrée (ADC) Audio 2;
#X text 11 205 - 2 x 1 entrée Audio ARGOBus;
#X restore 86 5 pd Help--;
#X obj 82 5 cnv 18 80 18 empty empty Record 1 9 1 14 -4033 -1 1.04858e+06
;
#X obj 88 30 nbx 2 12 -0 16 0 1 \$0-SendARGOBusInput \$0-ReceiveARGOBusInput
ARGOBus -55 6 1 9 -262144 -1 -1 0 256;
#X obj 5 31 tgl 10 1 \$0-SendInput1 \$0-ReceiveInput1 1 2 -6 1 9 -262144
-1 -1 0 1;
#X obj 205 31 tgl 10 1 \$0-SendInput2 \$0-ReceiveInput2 2 2 -6 1 9
-262144 -1 -1 0 1;
#X obj 110 30 nbx 2 12 -0 16 0 1 \$0-SendARGOBusInput2 \$0-ReceiveARGOBusInput2
empty 0 6 1 9 -262144 -1 -1 0 256;
#X obj 110 49 nbx 4 15 0 9999 0 0 \$0-SendTime \$0-ReceiveTime sec
50 7 1 12 -208064 -1 -1 0 256;
