#N canvas 149 72 649 203 10;
#X declare -path ../;
#N canvas 491 224 496 257 complexify~10 0;
#X obj 230 30 inlet~;
#X obj 41 87 complexify~;
#X obj 124 88 complexify~;
#X obj 42 124 complexify~;
#X obj 125 125 complexify~;
#X obj 209 88 complexify~;
#X obj 292 89 complexify~;
#X obj 210 125 complexify~;
#X obj 293 126 complexify~;
#X obj 386 88 complexify~;
#X obj 387 125 complexify~;
#X obj 94 204 outlet~;
#X obj 404 201 outlet~;
#X connect 0 0 1 0;
#X connect 0 0 2 0;
#X connect 0 0 5 0;
#X connect 0 0 6 0;
#X connect 0 0 9 0;
#X connect 0 0 3 0;
#X connect 0 0 4 0;
#X connect 0 0 7 0;
#X connect 0 0 8 0;
#X connect 0 0 10 0;
#X connect 1 0 11 0;
#X connect 1 1 12 0;
#X connect 2 0 11 0;
#X connect 2 1 12 0;
#X connect 3 0 11 0;
#X connect 3 1 12 0;
#X connect 4 0 11 0;
#X connect 4 1 12 0;
#X connect 5 0 11 0;
#X connect 5 1 12 0;
#X connect 6 0 11 0;
#X connect 6 1 12 0;
#X connect 7 0 11 0;
#X connect 7 1 12 0;
#X connect 8 0 11 0;
#X connect 8 1 12 0;
#X connect 9 0 11 0;
#X connect 9 1 12 0;
#X connect 10 0 11 0;
#X connect 10 1 12 0;
#X restore 23 110 pd complexify~10;
#N canvas 491 224 496 257 complexify~10 0;
#X obj 230 30 inlet~;
#X obj 41 87 complexify~;
#X obj 124 88 complexify~;
#X obj 42 124 complexify~;
#X obj 125 125 complexify~;
#X obj 209 88 complexify~;
#X obj 292 89 complexify~;
#X obj 210 125 complexify~;
#X obj 293 126 complexify~;
#X obj 386 88 complexify~;
#X obj 387 125 complexify~;
#X obj 94 204 outlet~;
#X obj 404 201 outlet~;
#X connect 0 0 1 0;
#X connect 0 0 2 0;
#X connect 0 0 5 0;
#X connect 0 0 6 0;
#X connect 0 0 9 0;
#X connect 0 0 3 0;
#X connect 0 0 4 0;
#X connect 0 0 7 0;
#X connect 0 0 8 0;
#X connect 0 0 10 0;
#X connect 1 0 11 0;
#X connect 1 1 12 0;
#X connect 2 0 11 0;
#X connect 2 1 12 0;
#X connect 3 0 11 0;
#X connect 3 1 12 0;
#X connect 4 0 11 0;
#X connect 4 1 12 0;
#X connect 5 0 11 0;
#X connect 5 1 12 0;
#X connect 6 0 11 0;
#X connect 6 1 12 0;
#X connect 7 0 11 0;
#X connect 7 1 12 0;
#X connect 8 0 11 0;
#X connect 8 1 12 0;
#X connect 9 0 11 0;
#X connect 9 1 12 0;
#X connect 10 0 11 0;
#X connect 10 1 12 0;
#X restore 22 153 pd complexify~10;
#N canvas 491 224 496 257 complexify~10 0;
#X obj 230 30 inlet~;
#X obj 41 87 complexify~;
#X obj 124 88 complexify~;
#X obj 42 124 complexify~;
#X obj 125 125 complexify~;
#X obj 209 88 complexify~;
#X obj 292 89 complexify~;
#X obj 210 125 complexify~;
#X obj 293 126 complexify~;
#X obj 386 88 complexify~;
#X obj 387 125 complexify~;
#X obj 94 204 outlet~;
#X obj 404 201 outlet~;
#X connect 0 0 1 0;
#X connect 0 0 2 0;
#X connect 0 0 5 0;
#X connect 0 0 6 0;
#X connect 0 0 9 0;
#X connect 0 0 3 0;
#X connect 0 0 4 0;
#X connect 0 0 7 0;
#X connect 0 0 8 0;
#X connect 0 0 10 0;
#X connect 1 0 11 0;
#X connect 1 1 12 0;
#X connect 2 0 11 0;
#X connect 2 1 12 0;
#X connect 3 0 11 0;
#X connect 3 1 12 0;
#X connect 4 0 11 0;
#X connect 4 1 12 0;
#X connect 5 0 11 0;
#X connect 5 1 12 0;
#X connect 6 0 11 0;
#X connect 6 1 12 0;
#X connect 7 0 11 0;
#X connect 7 1 12 0;
#X connect 8 0 11 0;
#X connect 8 1 12 0;
#X connect 9 0 11 0;
#X connect 9 1 12 0;
#X connect 10 0 11 0;
#X connect 10 1 12 0;
#X restore 141 110 pd complexify~10;
#N canvas 491 224 496 257 complexify~10 0;
#X obj 230 30 inlet~;
#X obj 41 87 complexify~;
#X obj 124 88 complexify~;
#X obj 42 124 complexify~;
#X obj 125 125 complexify~;
#X obj 209 88 complexify~;
#X obj 292 89 complexify~;
#X obj 210 125 complexify~;
#X obj 293 126 complexify~;
#X obj 386 88 complexify~;
#X obj 387 125 complexify~;
#X obj 94 204 outlet~;
#X obj 404 201 outlet~;
#X connect 0 0 1 0;
#X connect 0 0 2 0;
#X connect 0 0 5 0;
#X connect 0 0 6 0;
#X connect 0 0 9 0;
#X connect 0 0 3 0;
#X connect 0 0 4 0;
#X connect 0 0 7 0;
#X connect 0 0 8 0;
#X connect 0 0 10 0;
#X connect 1 0 11 0;
#X connect 1 1 12 0;
#X connect 2 0 11 0;
#X connect 2 1 12 0;
#X connect 3 0 11 0;
#X connect 3 1 12 0;
#X connect 4 0 11 0;
#X connect 4 1 12 0;
#X connect 5 0 11 0;
#X connect 5 1 12 0;
#X connect 6 0 11 0;
#X connect 6 1 12 0;
#X connect 7 0 11 0;
#X connect 7 1 12 0;
#X connect 8 0 11 0;
#X connect 8 1 12 0;
#X connect 9 0 11 0;
#X connect 9 1 12 0;
#X connect 10 0 11 0;
#X connect 10 1 12 0;
#X restore 140 153 pd complexify~10;
#N canvas 491 224 496 257 complexify~10 0;
#X obj 230 30 inlet~;
#X obj 41 87 complexify~;
#X obj 124 88 complexify~;
#X obj 42 124 complexify~;
#X obj 125 125 complexify~;
#X obj 209 88 complexify~;
#X obj 292 89 complexify~;
#X obj 210 125 complexify~;
#X obj 293 126 complexify~;
#X obj 386 88 complexify~;
#X obj 387 125 complexify~;
#X obj 94 204 outlet~;
#X obj 404 201 outlet~;
#X connect 0 0 1 0;
#X connect 0 0 2 0;
#X connect 0 0 5 0;
#X connect 0 0 6 0;
#X connect 0 0 9 0;
#X connect 0 0 3 0;
#X connect 0 0 4 0;
#X connect 0 0 7 0;
#X connect 0 0 8 0;
#X connect 0 0 10 0;
#X connect 1 0 11 0;
#X connect 1 1 12 0;
#X connect 2 0 11 0;
#X connect 2 1 12 0;
#X connect 3 0 11 0;
#X connect 3 1 12 0;
#X connect 4 0 11 0;
#X connect 4 1 12 0;
#X connect 5 0 11 0;
#X connect 5 1 12 0;
#X connect 6 0 11 0;
#X connect 6 1 12 0;
#X connect 7 0 11 0;
#X connect 7 1 12 0;
#X connect 8 0 11 0;
#X connect 8 1 12 0;
#X connect 9 0 11 0;
#X connect 9 1 12 0;
#X connect 10 0 11 0;
#X connect 10 1 12 0;
#X restore 262 110 pd complexify~10;
#N canvas 491 224 496 257 complexify~10 0;
#X obj 230 30 inlet~;
#X obj 41 87 complexify~;
#X obj 124 88 complexify~;
#X obj 42 124 complexify~;
#X obj 125 125 complexify~;
#X obj 209 88 complexify~;
#X obj 292 89 complexify~;
#X obj 210 125 complexify~;
#X obj 293 126 complexify~;
#X obj 386 88 complexify~;
#X obj 387 125 complexify~;
#X obj 94 204 outlet~;
#X obj 404 201 outlet~;
#X connect 0 0 1 0;
#X connect 0 0 2 0;
#X connect 0 0 5 0;
#X connect 0 0 6 0;
#X connect 0 0 9 0;
#X connect 0 0 3 0;
#X connect 0 0 4 0;
#X connect 0 0 7 0;
#X connect 0 0 8 0;
#X connect 0 0 10 0;
#X connect 1 0 11 0;
#X connect 1 1 12 0;
#X connect 2 0 11 0;
#X connect 2 1 12 0;
#X connect 3 0 11 0;
#X connect 3 1 12 0;
#X connect 4 0 11 0;
#X connect 4 1 12 0;
#X connect 5 0 11 0;
#X connect 5 1 12 0;
#X connect 6 0 11 0;
#X connect 6 1 12 0;
#X connect 7 0 11 0;
#X connect 7 1 12 0;
#X connect 8 0 11 0;
#X connect 8 1 12 0;
#X connect 9 0 11 0;
#X connect 9 1 12 0;
#X connect 10 0 11 0;
#X connect 10 1 12 0;
#X restore 261 153 pd complexify~10;
#N canvas 491 224 496 257 complexify~10 0;
#X obj 230 30 inlet~;
#X obj 41 87 complexify~;
#X obj 124 88 complexify~;
#X obj 42 124 complexify~;
#X obj 125 125 complexify~;
#X obj 209 88 complexify~;
#X obj 292 89 complexify~;
#X obj 210 125 complexify~;
#X obj 293 126 complexify~;
#X obj 386 88 complexify~;
#X obj 387 125 complexify~;
#X obj 94 204 outlet~;
#X obj 404 201 outlet~;
#X connect 0 0 1 0;
#X connect 0 0 2 0;
#X connect 0 0 5 0;
#X connect 0 0 6 0;
#X connect 0 0 9 0;
#X connect 0 0 3 0;
#X connect 0 0 4 0;
#X connect 0 0 7 0;
#X connect 0 0 8 0;
#X connect 0 0 10 0;
#X connect 1 0 11 0;
#X connect 1 1 12 0;
#X connect 2 0 11 0;
#X connect 2 1 12 0;
#X connect 3 0 11 0;
#X connect 3 1 12 0;
#X connect 4 0 11 0;
#X connect 4 1 12 0;
#X connect 5 0 11 0;
#X connect 5 1 12 0;
#X connect 6 0 11 0;
#X connect 6 1 12 0;
#X connect 7 0 11 0;
#X connect 7 1 12 0;
#X connect 8 0 11 0;
#X connect 8 1 12 0;
#X connect 9 0 11 0;
#X connect 9 1 12 0;
#X connect 10 0 11 0;
#X connect 10 1 12 0;
#X restore 380 110 pd complexify~10;
#N canvas 491 224 496 257 complexify~10 0;
#X obj 230 30 inlet~;
#X obj 41 87 complexify~;
#X obj 124 88 complexify~;
#X obj 42 124 complexify~;
#X obj 125 125 complexify~;
#X obj 209 88 complexify~;
#X obj 292 89 complexify~;
#X obj 210 125 complexify~;
#X obj 293 126 complexify~;
#X obj 386 88 complexify~;
#X obj 387 125 complexify~;
#X obj 94 204 outlet~;
#X obj 404 201 outlet~;
#X connect 0 0 1 0;
#X connect 0 0 2 0;
#X connect 0 0 5 0;
#X connect 0 0 6 0;
#X connect 0 0 9 0;
#X connect 0 0 3 0;
#X connect 0 0 4 0;
#X connect 0 0 7 0;
#X connect 0 0 8 0;
#X connect 0 0 10 0;
#X connect 1 0 11 0;
#X connect 1 1 12 0;
#X connect 2 0 11 0;
#X connect 2 1 12 0;
#X connect 3 0 11 0;
#X connect 3 1 12 0;
#X connect 4 0 11 0;
#X connect 4 1 12 0;
#X connect 5 0 11 0;
#X connect 5 1 12 0;
#X connect 6 0 11 0;
#X connect 6 1 12 0;
#X connect 7 0 11 0;
#X connect 7 1 12 0;
#X connect 8 0 11 0;
#X connect 8 1 12 0;
#X connect 9 0 11 0;
#X connect 9 1 12 0;
#X connect 10 0 11 0;
#X connect 10 1 12 0;
#X restore 379 153 pd complexify~10;
#N canvas 491 224 496 257 complexify~10 0;
#X obj 230 30 inlet~;
#X obj 41 87 complexify~;
#X obj 124 88 complexify~;
#X obj 42 124 complexify~;
#X obj 125 125 complexify~;
#X obj 209 88 complexify~;
#X obj 292 89 complexify~;
#X obj 210 125 complexify~;
#X obj 293 126 complexify~;
#X obj 386 88 complexify~;
#X obj 387 125 complexify~;
#X obj 94 204 outlet~;
#X obj 404 201 outlet~;
#X connect 0 0 1 0;
#X connect 0 0 2 0;
#X connect 0 0 5 0;
#X connect 0 0 6 0;
#X connect 0 0 9 0;
#X connect 0 0 3 0;
#X connect 0 0 4 0;
#X connect 0 0 7 0;
#X connect 0 0 8 0;
#X connect 0 0 10 0;
#X connect 1 0 11 0;
#X connect 1 1 12 0;
#X connect 2 0 11 0;
#X connect 2 1 12 0;
#X connect 3 0 11 0;
#X connect 3 1 12 0;
#X connect 4 0 11 0;
#X connect 4 1 12 0;
#X connect 5 0 11 0;
#X connect 5 1 12 0;
#X connect 6 0 11 0;
#X connect 6 1 12 0;
#X connect 7 0 11 0;
#X connect 7 1 12 0;
#X connect 8 0 11 0;
#X connect 8 1 12 0;
#X connect 9 0 11 0;
#X connect 9 1 12 0;
#X connect 10 0 11 0;
#X connect 10 1 12 0;
#X restore 507 111 pd complexify~10;
#N canvas 491 224 496 257 complexify~10 0;
#X obj 230 30 inlet~;
#X obj 41 87 complexify~;
#X obj 124 88 complexify~;
#X obj 42 124 complexify~;
#X obj 125 125 complexify~;
#X obj 209 88 complexify~;
#X obj 292 89 complexify~;
#X obj 210 125 complexify~;
#X obj 293 126 complexify~;
#X obj 386 88 complexify~;
#X obj 387 125 complexify~;
#X obj 94 204 outlet~;
#X obj 404 201 outlet~;
#X connect 0 0 1 0;
#X connect 0 0 2 0;
#X connect 0 0 5 0;
#X connect 0 0 6 0;
#X connect 0 0 9 0;
#X connect 0 0 3 0;
#X connect 0 0 4 0;
#X connect 0 0 7 0;
#X connect 0 0 8 0;
#X connect 0 0 10 0;
#X connect 1 0 11 0;
#X connect 1 1 12 0;
#X connect 2 0 11 0;
#X connect 2 1 12 0;
#X connect 3 0 11 0;
#X connect 3 1 12 0;
#X connect 4 0 11 0;
#X connect 4 1 12 0;
#X connect 5 0 11 0;
#X connect 5 1 12 0;
#X connect 6 0 11 0;
#X connect 6 1 12 0;
#X connect 7 0 11 0;
#X connect 7 1 12 0;
#X connect 8 0 11 0;
#X connect 8 1 12 0;
#X connect 9 0 11 0;
#X connect 9 1 12 0;
#X connect 10 0 11 0;
#X connect 10 1 12 0;
#X restore 506 154 pd complexify~10;
#X obj 360 43 osc~ 200;
#X obj 470 32 declare -path ../;
#X connect 10 0 0 0;
#X connect 10 0 2 0;
#X connect 10 0 1 0;
#X connect 10 0 3 0;
#X connect 10 0 4 0;
#X connect 10 0 5 0;
#X connect 10 0 6 0;
#X connect 10 0 7 0;
#X connect 10 0 8 0;
#X connect 10 0 9 0;
