#N canvas 103 22 655 471 10;
#X obj 283 425 dac~;
#N canvas 0 22 546 426 ezplay 0;
#X obj -31 141 tabplay~ \$0-sample;
#X obj 104 142 tgl 15 0 empty empty empty 0 -6 0 10 -262144 -1 -1 1
1;
#X obj 229 219 soundfiler;
#X msg 229 189 read -resize \$1 \$2-sample;
#X obj 228 166 pack s f;
#X obj 272 144 f \$0;
#X obj 104 123 bng 15 250 50 0 empty empty empty 0 -6 0 10 -262144
-1 -1;
#X obj -30 184 outlet~;
#X obj 231 118 openpanel;
#X obj 293 122 loadbang;
#X text 120 122 load;
#X text 122 140 play(loop);
#X obj 234 283 table \$0-sample;
#X obj 75 210 spigot;
#X obj 124 209 sel 1 0;
#X msg 141 235 0 1;
#X msg 292 88 bang;
#X msg 229 244 1;
#X connect 0 0 7 0;
#X connect 0 1 13 0;
#X connect 1 0 13 1;
#X connect 1 0 14 0;
#X connect 2 0 17 0;
#X connect 3 0 2 0;
#X connect 4 0 3 0;
#X connect 5 0 4 1;
#X connect 6 0 8 0;
#X connect 8 0 4 0;
#X connect 9 0 5 0;
#X connect 13 0 0 0;
#X connect 14 0 0 0;
#X connect 14 1 15 0;
#X connect 15 0 0 0;
#X connect 16 0 5 0;
#X connect 17 0 1 0;
#X coords 0 -1 1 1 90 60 1 100 100;
#X restore 273 26 pd ezplay;
#X obj 46 214 grannie-basher;
#X connect 1 0 2 0;
#X connect 1 0 2 1;
#X connect 2 0 0 0;
#X connect 2 1 0 1;
#X coords 0 0 1 1 400 140 0;
