#N canvas 565 134 547 602 10;
#X obj 70 -6 inlet~;
#X obj 140 547 outlet~;
#X text 162 12 only the 'early reflections';
#X obj 23 53 reverb-echo echo-del1 5.43216;
#X obj 38 448 *~ 1;
#X obj 14 19 *~ 0.4;
#X obj 23 77 reverb-echo echo-del2 8.4535;
#X obj 23 101 reverb-echo echo-del3 13.4367;
#X obj 23 125 reverb-echo echo-del4 21.5463;
#X obj 37 489 hml_shelf~ 0 220 0 220 -4 200;
#X connect 0 0 5 0;
#X connect 3 0 6 0;
#X connect 3 1 6 1;
#X connect 3 1 4 0;
#X connect 4 0 9 0;
#X connect 5 0 3 0;
#X connect 5 0 3 1;
#X connect 6 0 7 0;
#X connect 6 1 7 1;
#X connect 7 0 8 0;
#X connect 7 1 8 1;
#X connect 8 0 4 0;
#X connect 9 0 1 0;
