#N canvas 380 101 462 409 10;
#X msg 72 227 add \$1;
#X obj 72 208 splitfilename .;
#X obj 72 135 loadbang;
#X msg 184 176 clear;
#X obj 157 154 t b b;
#X obj 157 118 r \$2-update-presets;
#X obj 184 264 s \$2-r-menu-\$1;
#X text 66 23 buttons-list \; ------------ \; List files from \$1 folder
without "-help.pd" files \; Arguments \; \$1: folder (symbol) \; \$2:
\$0 from parent patch \;;
#N canvas 1 80 433 263 _WITH_SHELL 0;
#X obj 110 165 hcs/split_path;
#X obj 41 123 route <init>;
#X obj 110 144 symbol;
#X msg 41 80 ls ../\$1/*[!-help].pd;
#X obj 41 60 symbol \$1;
#X obj 41 40 inlet bang;
#X obj 191 187 outlet;
#X text 38 100 [shell];
#X connect 0 1 6 0;
#X connect 1 1 2 0;
#X connect 2 0 0 0;
#X connect 4 0 3 0;
#X connect 5 0 4 0;
#X restore 80 365 pd _WITH_SHELL;
#N canvas 251 89 572 536 _WITH_LISTS 0;
#X obj 116 154 bng 15 250 50 0 empty empty empty 17 7 0 10 -262144
-1 -1;
#X obj 485 201 b;
#X obj 335 127 bng 15 250 50 0 empty empty empty 17 7 0 10 -262144
-1 -1;
#X text 138 152 All "-help.pd" files;
#X text 354 127 All "*.pd" files;
#X obj 499 221 list;
#X obj 97 439 list;
#X obj 197 273 list-abs/list-find;
#X obj 197 336 list-abs/list-delete;
#X obj 335 175 hcs/folder_list ../\$1/*.pd;
#X obj 97 461 list-abs/list-iter;
#X obj 416 222 list prepend;
#X obj 97 59 bng 15 250 50 0 empty empty empty 17 7 0 10 -262144 -1
-1;
#X obj 97 482 outlet;
#X obj 97 39 inlet;
#X obj 335 199 hcs/split_path;
#X obj 116 201 hcs/split_path;
#X obj 116 177 hcs/folder_list ../\$1/*-help.pd;
#X obj 335 149 t b b;
#X obj 302 239 list;
#X obj 197 222 t a b;
#X obj 197 315 list;
#X obj 197 294 t b f;
#X obj 97 84 t b b b;
#X obj 318 382 list length;
#X obj 302 425 == 0;
#X obj 302 445 sel 1;
#X obj 302 472 list;
#X obj 303 402 f;
#X obj 98 324 t b b;
#X text 405 399 if no help files;
#X connect 0 0 17 0;
#X connect 1 0 5 1;
#X connect 1 0 11 1;
#X connect 2 0 18 0;
#X connect 5 0 11 1;
#X connect 6 0 10 0;
#X connect 7 0 22 0;
#X connect 8 0 19 1;
#X connect 8 0 6 1;
#X connect 8 0 24 0;
#X connect 9 0 15 0;
#X connect 10 0 13 0;
#X connect 11 0 5 0;
#X connect 11 0 19 1;
#X connect 11 0 27 1;
#X connect 12 0 23 0;
#X connect 14 0 12 0;
#X connect 15 1 11 0;
#X connect 16 1 20 0;
#X connect 17 0 16 0;
#X connect 18 0 9 0;
#X connect 18 1 1 0;
#X connect 19 0 7 1;
#X connect 19 0 21 1;
#X connect 20 0 7 0;
#X connect 20 1 19 0;
#X connect 21 0 8 0;
#X connect 22 0 21 0;
#X connect 22 1 8 1;
#X connect 23 0 29 0;
#X connect 23 1 0 0;
#X connect 23 2 2 0;
#X connect 24 0 28 1;
#X connect 25 0 26 0;
#X connect 26 0 27 0;
#X connect 27 0 6 1;
#X connect 28 0 25 0;
#X connect 29 0 6 0;
#X connect 29 1 28 0;
#X restore 72 184 pd _WITH_LISTS;
#X obj 157 137 bng 15 250 50 0 empty empty empty 17 7 0 10 -262144
-1 -1;
#X text 72 332 The best solution is with the [shell] object \, but
it doesn't work on Windows.;
#X connect 0 0 6 0;
#X connect 1 0 0 0;
#X connect 2 0 9 0;
#X connect 3 0 6 0;
#X connect 4 0 9 0;
#X connect 4 1 3 0;
#X connect 5 0 10 0;
#X connect 9 0 1 0;
#X connect 10 0 4 0;
