#N canvas 299 91 719 525 10;
#X obj 100 100 cnv 15 100 48 empty \$0-cnv TOOLS 2 10 1 12 -166441
-262144 0;
#X obj 407 281 r \$0-menu;
#X obj 407 304 unpack f s;
#X obj 532 316 r \$0-upper-case;
#X obj 487 337 pack s s;
#X msg 487 360 \; MENU-\$2 symbol \$1;
#X text 337 116 [tof/menubutton 200 25 \$0-menu \$0-menu-in 0 grey90
black grey95 black -1];
#X obj 100 120 tof/menubutton 100 25 \$0-menu \$0-menu-in 0 grey90
black grey95 black -1;
#X msg 106 398 add \$1;
#X obj 106 379 splitfilename .;
#X obj 106 306 loadbang;
#X msg 218 347 clear;
#X obj 191 325 t b b;
#N canvas 33 96 572 598 _WITH_LISTS 0;
#X obj 87 140 bng 15 250 50 0 empty empty empty 17 7 0 10 -262144 -1
-1;
#X obj 456 187 b;
#X obj 306 113 bng 15 250 50 0 empty empty empty 17 7 0 10 -262144
-1 -1;
#X text 109 138 All "-help.pd" files;
#X text 325 113 All "*.pd" files;
#X obj 470 207 list;
#X obj 69 505 list;
#X obj 168 259 list-abs/list-find;
#X obj 168 322 list-abs/list-delete;
#X obj 69 527 list-abs/list-iter;
#X obj 387 208 list prepend;
#X obj 68 45 bng 15 250 50 0 empty empty empty 17 7 0 10 -262144 -1
-1;
#X obj 69 548 outlet;
#X obj 68 25 inlet;
#X obj 306 185 hcs/split_path;
#X obj 87 187 hcs/split_path;
#X obj 306 135 t b b;
#X obj 273 225 list;
#X obj 168 208 t a b;
#X obj 168 301 list;
#X obj 168 280 t b f;
#X obj 68 70 t b b b;
#X obj 168 400 list length;
#X obj 153 443 == 0;
#X obj 153 463 sel 1;
#X obj 153 488 list;
#X obj 153 420 f;
#X obj 69 310 t b b;
#X text 267 420 <- if no help files \, send the list of .pd files;
#X text 319 319 <- delete help files from the list;
#X obj 87 163 hcs/folder_list \$1/*-help.pd;
#X obj 306 161 hcs/folder_list \$1/*.pd;
#X connect 0 0 30 0;
#X connect 1 0 5 1;
#X connect 1 0 10 1;
#X connect 2 0 16 0;
#X connect 5 0 10 1;
#X connect 6 0 9 0;
#X connect 7 0 20 0;
#X connect 8 0 17 1;
#X connect 8 0 6 1;
#X connect 8 0 22 0;
#X connect 9 0 12 0;
#X connect 10 0 5 0;
#X connect 10 0 17 1;
#X connect 10 0 25 1;
#X connect 11 0 21 0;
#X connect 13 0 11 0;
#X connect 14 1 10 0;
#X connect 15 1 18 0;
#X connect 16 0 31 0;
#X connect 16 1 1 0;
#X connect 17 0 7 1;
#X connect 17 0 19 1;
#X connect 18 0 7 0;
#X connect 18 1 17 0;
#X connect 19 0 8 0;
#X connect 20 0 19 0;
#X connect 20 1 8 1;
#X connect 21 0 27 0;
#X connect 21 1 0 0;
#X connect 21 2 2 0;
#X connect 22 0 26 1;
#X connect 23 0 24 0;
#X connect 24 0 25 0;
#X connect 25 0 6 1;
#X connect 26 0 23 0;
#X connect 27 0 6 0;
#X connect 27 1 26 0;
#X connect 30 0 15 0;
#X connect 31 0 14 0;
#X restore 106 355 pd _WITH_LISTS;
#X obj 191 308 bng 15 250 50 0 empty empty empty 17 7 0 10 -262144
-1 -1;
#X obj 218 435 s \$0-menu-in;
#X obj 191 289 r MENU-UPDATE;
#X text 102 252 Fill the button \; ------------------------------;
#X text 405 247 Send the files \; ------------------------------;
#X obj 464 418 outlet;
#X obj 100 214 namecanvas \$0-CANVAS;
#X text 96 14 Arguments \; \$1: folder (symbol) \; \$2: color (symbol)
\; \$3: size (int) \;;
#N canvas 111 269 1113 403 \$0-arguments 0;
#X obj 30 50 loadbang;
#X obj 105 98 symbol;
#X obj 30 121 select symbol;
#X obj 30 70 t b b;
#X obj 30 95 symbol \$1;
#X symbolatom 162 163 10 0 0 0 - - -;
#X obj 162 255 s \$0-cnv;
#X msg 162 233 label \$1;
#X obj 341 46 loadbang;
#X obj 416 94 symbol;
#X obj 341 117 select symbol;
#X obj 341 66 t b b;
#X symbolatom 416 141 10 0 0 0 - - -;
#X obj 341 371 s \$0-cnv;
#X obj 105 141 split_path;
#X symbolatom 162 211 10 0 0 0 - - -;
#X obj 234 238 s \$0-upper-case;
#N canvas 1046 530 450 372 _TO_UPPER_CASE_ 0;
#X obj 85 116 iter;
#X obj 182 206 list;
#X obj 64 231 list;
#X obj 187 184 bng 15 250 50 0 empty empty empty 17 7 0 10 -262144
-1 -1;
#X obj 64 50 t b a b;
#X obj 85 160 - 32;
#X obj 85 204 list prepend;
#X obj 64 272 l2s;
#X msg 103 287 symbol;
#X obj 103 266 loadbang;
#X obj 64 26 symbol;
#X obj 64 5 inlet;
#X obj 64 322 outlet;
#X obj 85 94 moonlib/dripchar;
#X obj 85 137 moonlib/char2f;
#X obj 85 183 moonlib/f2char;
#X connect 0 0 14 0;
#X connect 1 0 6 1;
#X connect 2 0 7 0;
#X connect 3 0 1 1;
#X connect 3 0 6 1;
#X connect 4 0 2 0;
#X connect 4 1 13 0;
#X connect 4 2 3 0;
#X connect 5 0 15 0;
#X connect 6 0 1 0;
#X connect 6 0 2 1;
#X connect 7 0 12 0;
#X connect 8 0 7 1;
#X connect 9 0 8 0;
#X connect 10 0 4 0;
#X connect 11 0 10 0;
#X connect 13 0 0 0;
#X connect 14 0 5 0;
#X connect 15 0 6 0;
#X restore 162 186 pd _TO_UPPER_CASE_;
#X msg 341 305 color \$1 0 \$2;
#X msg 493 220 0 2;
#X msg 532 222 12 0;
#X msg 610 222 18 0;
#X msg 341 149 10 2;
#N canvas 1382 456 442 420 _color_ 0;
#X obj 268 193 t b f;
#X obj 202 251 +;
#X obj 202 276 t b f;
#X obj 202 307 +;
#X obj 134 170 * -65536;
#X obj 202 171 * -256;
#X obj 268 171 * -1;
#X obj 202 338 - 1;
#X obj 133 60 unpack f f f;
#X obj 133 32 inlet;
#X obj 202 359 list prepend color;
#X obj 203 379 list trim;
#X obj 204 401 outlet;
#X connect 0 0 1 0;
#X connect 0 1 1 1;
#X connect 1 0 2 0;
#X connect 2 0 3 0;
#X connect 2 1 3 1;
#X connect 3 0 7 0;
#X connect 4 0 3 0;
#X connect 5 0 1 0;
#X connect 6 0 0 0;
#X connect 7 0 10 0;
#X connect 8 0 4 0;
#X connect 8 1 5 0;
#X connect 8 2 6 0;
#X connect 9 0 8 0;
#X connect 10 0 11 0;
#X connect 11 0 12 0;
#X restore 363 212 pd _color_;
#X msg 571 222 16 12;
#X msg 363 188 255 120 0;
#N canvas 76 244 614 300 _TEST_COLOR 0;
#X obj 44 100 bng 15 250 50 0 empty empty empty 17 7 0 10 -262144 -1
-1;
#X obj 233 228 cnv 30 30 30 empty \$0-cnv-test test 0 12 0 14 -260818
-262144 0;
#X obj 243 200 s \$0-cnv-test;
#X floatatom 242 83 5 0 0 0 - - -;
#X obj 243 70 hradio 10 1 0 30 empty empty empty 0 -8 0 10 -262144
-1 -1 0;
#X obj 243 153 pack f 1;
#X obj 259 131 t b f;
#X floatatom 259 113 5 0 0 0 - - -;
#X obj 258 104 hradio 10 1 0 30 empty empty empty 0 -8 0 10 -262144
-1 -1 0;
#X msg 243 178 color \$1 0 \$2;
#X msg 44 163 set \$1;
#N canvas 1369 619 454 420 _SET_COLOR_ 0;
#X obj 258 183 t b f;
#X obj 192 241 +;
#X obj 192 266 t b f;
#X obj 192 297 +;
#X obj 124 160 * -65536;
#X obj 192 161 * -256;
#X obj 258 161 * -1;
#X obj 192 328 - 1;
#X obj 124 71 colorpanel;
#X obj 124 49 bng 15 250 50 0 empty empty empty 17 7 0 10 -262144 -1
-1;
#X obj 124 97 unpack f f f;
#X floatatom 192 363 10 0 0 0 - - -;
#X obj 230 328 bng 15 250 50 0 empty empty empty 17 7 0 10 -262144
-1 -1;
#X obj 124 137 * 255;
#X obj 192 138 * 255;
#X obj 259 138 * 255;
#X obj 113 13 inlet;
#X obj 195 392 outlet;
#X floatatom 140 120 5 0 0 0 - - -;
#X floatatom 190 118 5 0 0 0 - - -;
#X floatatom 258 117 5 0 0 0 - - -;
#X connect 0 0 1 0;
#X connect 0 1 1 1;
#X connect 1 0 2 0;
#X connect 2 0 3 0;
#X connect 2 1 3 1;
#X connect 3 0 7 0;
#X connect 4 0 3 0;
#X connect 5 0 1 0;
#X connect 6 0 0 0;
#X connect 7 0 11 0;
#X connect 8 0 10 0;
#X connect 9 0 8 0;
#X connect 10 0 13 0;
#X connect 10 0 18 0;
#X connect 10 1 14 0;
#X connect 10 1 19 0;
#X connect 10 2 15 0;
#X connect 10 2 20 0;
#X connect 11 0 17 0;
#X connect 12 0 11 0;
#X connect 13 0 4 0;
#X connect 14 0 5 0;
#X connect 15 0 6 0;
#X connect 16 0 9 0;
#X restore 44 122 pd _SET_COLOR_;
#X msg 43 184 -1.67444e+07;
#X obj 477 192 list prepend set;
#X obj 486 214 list trim;
#X msg 492 240 -1.67508e+07;
#X connect 0 0 11 0;
#X connect 3 0 5 0;
#X connect 4 0 3 0;
#X connect 5 0 9 0;
#X connect 6 0 5 0;
#X connect 6 1 5 1;
#X connect 7 0 6 0;
#X connect 8 0 7 0;
#X connect 9 0 2 0;
#X connect 10 0 12 0;
#X connect 11 0 10 0;
#X connect 11 0 5 0;
#X connect 13 0 14 0;
#X connect 14 0 15 0;
#X restore 489 52 pd _TEST_COLOR;
#X obj 815 171 s \$0-CANVAS;
#X obj 773 45 loadbang;
#X obj 773 93 sel 0;
#X obj 341 91 symbol \$2;
#X obj 773 68 f \$3;
#X obj 800 230 s \$0-cnv;
#X msg 800 203 vis_size \$1 48;
#X msg 853 94 size \$1 25;
#X obj 853 120 s \$0-menu-in;
#X msg 881 56 200;
#X text 769 11 3d argument (size) \; ----------------------------;
#X text 338 12 2nd argument (color) \; ----------------------------
;
#X text 27 18 1st argument (folder) \; ----------------------------
;
#X msg 815 146 donecanvasdialog 1 -1 2 0 -1 1 1 \$1 48 100 100;
#X msg 454 220 20 0;
#X obj 800 120 + 0;
#X msg 929 56 100;
#N canvas 1382 456 442 420 _color_ 0;
#X obj 268 193 t b f;
#X obj 202 251 +;
#X obj 202 276 t b f;
#X obj 202 307 +;
#X obj 134 170 * -65536;
#X obj 202 171 * -256;
#X obj 268 171 * -1;
#X obj 202 338 - 1;
#X obj 133 60 unpack f f f;
#X obj 133 32 inlet;
#X obj 202 359 list prepend color;
#X obj 203 379 list trim;
#X obj 204 401 outlet;
#X connect 0 0 1 0;
#X connect 0 1 1 1;
#X connect 1 0 2 0;
#X connect 2 0 3 0;
#X connect 2 1 3 1;
#X connect 3 0 7 0;
#X connect 4 0 3 0;
#X connect 5 0 1 0;
#X connect 6 0 0 0;
#X connect 7 0 10 0;
#X connect 8 0 4 0;
#X connect 8 1 5 0;
#X connect 8 2 6 0;
#X connect 9 0 8 0;
#X connect 10 0 11 0;
#X connect 11 0 12 0;
#X restore 650 247 pd _color_;
#X obj 415 162 sel orange grey white black green blue default light-grey
;
#X msg 650 223 160 160 160;
#X connect 0 0 3 0;
#X connect 1 0 2 1;
#X connect 2 1 14 0;
#X connect 3 0 4 0;
#X connect 3 1 1 0;
#X connect 4 0 2 0;
#X connect 5 0 17 0;
#X connect 7 0 6 0;
#X connect 8 0 11 0;
#X connect 9 0 10 1;
#X connect 10 0 22 0;
#X connect 10 1 12 0;
#X connect 11 0 30 0;
#X connect 11 1 9 0;
#X connect 12 0 45 0;
#X connect 14 1 5 0;
#X connect 15 0 7 0;
#X connect 15 0 16 0;
#X connect 17 0 15 0;
#X connect 18 0 13 0;
#X connect 19 0 18 0;
#X connect 20 0 18 0;
#X connect 21 0 18 0;
#X connect 22 0 18 0;
#X connect 23 0 13 0;
#X connect 24 0 18 0;
#X connect 25 0 23 0;
#X connect 28 0 31 0;
#X connect 29 1 34 0;
#X connect 29 1 42 0;
#X connect 30 0 10 0;
#X connect 31 0 29 0;
#X connect 33 0 32 0;
#X connect 34 0 35 0;
#X connect 36 0 29 0;
#X connect 40 0 27 0;
#X connect 41 0 18 0;
#X connect 42 0 40 0;
#X connect 42 0 33 0;
#X connect 43 0 29 0;
#X connect 44 0 13 0;
#X connect 45 0 25 0;
#X connect 45 1 41 0;
#X connect 45 2 19 0;
#X connect 45 3 20 0;
#X connect 45 4 24 0;
#X connect 45 5 21 0;
#X connect 45 6 22 0;
#X connect 45 7 46 0;
#X connect 46 0 44 0;
#X restore 100 191 pd \$0-arguments;
#X connect 1 0 2 0;
#X connect 2 1 4 0;
#X connect 2 1 19 0;
#X connect 3 0 4 1;
#X connect 4 0 5 0;
#X connect 8 0 15 0;
#X connect 9 0 8 0;
#X connect 10 0 13 0;
#X connect 11 0 15 0;
#X connect 12 0 13 0;
#X connect 12 1 11 0;
#X connect 13 0 9 0;
#X connect 14 0 12 0;
#X connect 16 0 14 0;
#X coords 0 -1 1 1 100 48 2 100 100;
