#N canvas 422 79 571 521 10;
#X obj 258 414 r \$0-upper-case;
#X obj 213 435 pack s s;
#X msg 213 458 \; MENU-\$2 symbol \$1;
#X msg 115 338 add \$1;
#X obj 115 319 splitfilename .;
#X obj 115 246 loadbang;
#X msg 227 320 clear;
#X obj 200 265 t b b;
#N canvas 31 97 572 598 _WITH_LISTS 0;
#X obj 87 140 bng 15 250 50 0 empty empty empty 17 7 0 10 -262144 -1
-1;
#X obj 456 187 b;
#X obj 306 113 bng 15 250 50 0 empty empty empty 17 7 0 10 -262144
-1 -1;
#X text 109 138 All "-help.pd" files;
#X text 325 113 All "*.pd" files;
#X obj 470 207 list;
#X obj 69 505 list;
#X obj 168 259 list-abs/list-find;
#X obj 168 322 list-abs/list-delete;
#X obj 69 527 list-abs/list-iter;
#X obj 387 208 list prepend;
#X obj 68 45 bng 15 250 50 0 empty empty empty 17 7 0 10 -262144 -1
-1;
#X obj 69 548 outlet;
#X obj 68 25 inlet;
#X obj 306 185 hcs/split_path;
#X obj 87 187 hcs/split_path;
#X obj 306 135 t b b;
#X obj 273 225 list;
#X obj 168 208 t a b;
#X obj 168 301 list;
#X obj 168 280 t b f;
#X obj 68 70 t b b b;
#X obj 168 400 list length;
#X obj 153 443 == 0;
#X obj 153 463 sel 1;
#X obj 153 488 list;
#X obj 153 420 f;
#X obj 69 310 t b b;
#X text 267 420 <- if no help files \, send the list of .pd files;
#X text 319 319 <- delete help files from the list;
#X obj 87 163 hcs/folder_list \$1/*-help.pd;
#X obj 306 161 hcs/folder_list \$1/*.pd;
#X connect 0 0 30 0;
#X connect 1 0 5 1;
#X connect 1 0 10 1;
#X connect 2 0 16 0;
#X connect 5 0 10 1;
#X connect 6 0 9 0;
#X connect 7 0 20 0;
#X connect 8 0 17 1;
#X connect 8 0 6 1;
#X connect 8 0 22 0;
#X connect 9 0 12 0;
#X connect 10 0 5 0;
#X connect 10 0 17 1;
#X connect 10 0 25 1;
#X connect 11 0 21 0;
#X connect 13 0 11 0;
#X connect 14 1 10 0;
#X connect 15 1 18 0;
#X connect 16 0 31 0;
#X connect 16 1 1 0;
#X connect 17 0 7 1;
#X connect 17 0 19 1;
#X connect 18 0 7 0;
#X connect 18 1 17 0;
#X connect 19 0 8 0;
#X connect 20 0 19 0;
#X connect 20 1 8 1;
#X connect 21 0 27 0;
#X connect 21 1 0 0;
#X connect 21 2 2 0;
#X connect 22 0 26 1;
#X connect 23 0 24 0;
#X connect 24 0 25 0;
#X connect 25 0 6 1;
#X connect 26 0 23 0;
#X connect 27 0 6 0;
#X connect 27 1 26 0;
#X connect 30 0 15 0;
#X connect 31 0 14 0;
#X restore 115 295 pd _WITH_LISTS;
#X obj 200 248 bng 15 250 50 0 empty empty empty 17 7 0 10 -262144
-1 -1;
#X obj 200 229 r MENU-UPDATE;
#X text 111 192 Fill the button \; ------------------------------;
#X obj 166 434 outlet;
#X obj 400 128 namecanvas \$0-CANVAS;
#X text 96 14 Arguments \; \$1: folder (symbol) \; \$2: color (symbol)
\; \$3: size (int) \;;
#N canvas 633 310 1013 368 \$0-arguments 0;
#X obj 30 50 loadbang;
#X obj 105 98 symbol;
#X obj 30 121 select symbol;
#X obj 30 70 t b b;
#X obj 30 95 symbol \$1;
#X symbolatom 162 163 10 0 0 0 - - -;
#X obj 194 256 s \$0-cnv;
#X msg 194 234 label \$1;
#X obj 323 44 loadbang;
#X obj 398 92 symbol;
#X obj 323 115 select symbol;
#X obj 323 64 t b b;
#X symbolatom 398 139 10 0 0 0 - - -;
#X obj 323 331 s \$0-cnv;
#X obj 105 141 split_path;
#X symbolatom 162 211 10 0 0 0 - - -;
#X obj 162 280 s \$0-upper-case;
#N canvas 911 397 444 471 _TO_UPPER_CASE_ 0;
#X obj 84 116 iter;
#X obj 181 281 list;
#X obj 63 306 list;
#X obj 202 257 bng 15 250 50 0 empty empty empty 17 7 0 10 -262144
-1 -1;
#X obj 63 61 t b a b;
#X obj 129 205 - 32;
#X obj 84 279 list prepend;
#X obj 63 347 l2s;
#X msg 102 362 symbol;
#X obj 102 341 loadbang;
#X obj 63 37 symbol;
#X obj 63 16 inlet;
#X obj 63 397 outlet;
#X obj 84 94 moonlib/dripchar;
#X obj 84 137 moonlib/char2f;
#X obj 84 258 moonlib/f2char;
#X obj 84 162 moses 97;
#X obj 129 183 moses 123;
#X text 187 207 lower case - 32 = upper case;
#X connect 0 0 14 0;
#X connect 1 0 6 1;
#X connect 2 0 7 0;
#X connect 3 0 1 1;
#X connect 3 0 6 1;
#X connect 4 0 2 0;
#X connect 4 1 13 0;
#X connect 4 2 3 0;
#X connect 5 0 15 0;
#X connect 6 0 1 0;
#X connect 6 0 2 1;
#X connect 7 0 12 0;
#X connect 8 0 7 1;
#X connect 9 0 8 0;
#X connect 10 0 4 0;
#X connect 11 0 10 0;
#X connect 13 0 0 0;
#X connect 14 0 16 0;
#X connect 15 0 6 0;
#X connect 16 0 15 0;
#X connect 16 1 17 0;
#X connect 17 0 5 0;
#X connect 17 1 15 0;
#X restore 162 186 pd _TO_UPPER_CASE_;
#X msg 323 303 color \$1 0 \$2;
#X msg 476 218 0 2;
#X msg 515 218 12 0;
#X msg 593 218 18 0;
#N canvas 1382 456 442 420 _color_ 0;
#X obj 268 193 t b f;
#X obj 202 251 +;
#X obj 202 276 t b f;
#X obj 202 307 +;
#X obj 134 170 * -65536;
#X obj 202 171 * -256;
#X obj 268 171 * -1;
#X obj 202 338 - 1;
#X obj 133 60 unpack f f f;
#X obj 133 32 inlet;
#X obj 202 359 list prepend color;
#X obj 203 379 list trim;
#X obj 204 401 outlet;
#X connect 0 0 1 0;
#X connect 0 1 1 1;
#X connect 1 0 2 0;
#X connect 2 0 3 0;
#X connect 2 1 3 1;
#X connect 3 0 7 0;
#X connect 4 0 3 0;
#X connect 5 0 1 0;
#X connect 6 0 0 0;
#X connect 7 0 10 0;
#X connect 8 0 4 0;
#X connect 8 1 5 0;
#X connect 8 2 6 0;
#X connect 9 0 8 0;
#X connect 10 0 11 0;
#X connect 11 0 12 0;
#X restore 345 210 pd _color_;
#X msg 554 218 16 12;
#X msg 345 186 255 120 0;
#N canvas 74 245 614 300 _TEST_COLOR 0;
#X obj 44 100 bng 15 250 50 0 empty empty empty 17 7 0 10 -262144 -1
-1;
#X obj 233 228 cnv 30 30 30 empty \$0-cnv-test test 0 12 0 14 -195568
-166441 0;
#X obj 243 200 s \$0-cnv-test;
#X floatatom 242 83 5 0 0 0 - - -;
#X obj 243 70 hradio 10 1 0 30 empty empty empty 0 -8 0 10 -262144
-1 -1 0;
#X obj 243 153 pack f 1;
#X obj 259 131 t b f;
#X floatatom 259 113 5 0 0 0 - - -;
#X obj 258 104 hradio 10 1 0 30 empty empty empty 0 -8 0 10 -262144
-1 -1 0;
#X msg 243 178 color \$1 0 \$2;
#X msg 44 163 set \$1;
#N canvas 1369 619 454 420 _SET_COLOR_ 0;
#X obj 258 183 t b f;
#X obj 192 241 +;
#X obj 192 266 t b f;
#X obj 192 297 +;
#X obj 124 160 * -65536;
#X obj 192 161 * -256;
#X obj 258 161 * -1;
#X obj 192 328 - 1;
#X obj 124 71 colorpanel;
#X obj 124 49 bng 15 250 50 0 empty empty empty 17 7 0 10 -262144 -1
-1;
#X obj 124 97 unpack f f f;
#X floatatom 192 363 10 0 0 0 - - -;
#X obj 230 328 bng 15 250 50 0 empty empty empty 17 7 0 10 -262144
-1 -1;
#X obj 124 137 * 255;
#X obj 192 138 * 255;
#X obj 259 138 * 255;
#X obj 113 13 inlet;
#X obj 195 392 outlet;
#X floatatom 140 120 5 0 0 0 - - -;
#X floatatom 190 118 5 0 0 0 - - -;
#X floatatom 258 117 5 0 0 0 - - -;
#X connect 0 0 1 0;
#X connect 0 1 1 1;
#X connect 1 0 2 0;
#X connect 2 0 3 0;
#X connect 2 1 3 1;
#X connect 3 0 7 0;
#X connect 4 0 3 0;
#X connect 5 0 1 0;
#X connect 6 0 0 0;
#X connect 7 0 11 0;
#X connect 8 0 10 0;
#X connect 9 0 8 0;
#X connect 10 0 13 0;
#X connect 10 0 18 0;
#X connect 10 1 14 0;
#X connect 10 1 19 0;
#X connect 10 2 15 0;
#X connect 10 2 20 0;
#X connect 11 0 17 0;
#X connect 12 0 11 0;
#X connect 13 0 4 0;
#X connect 14 0 5 0;
#X connect 15 0 6 0;
#X connect 16 0 9 0;
#X restore 44 122 pd _SET_COLOR_;
#X msg 43 184 -1.67444e+07;
#X obj 477 192 list prepend set;
#X obj 486 214 list trim;
#X msg 492 240 -1.67508e+07;
#X connect 0 0 11 0;
#X connect 3 0 5 0;
#X connect 4 0 3 0;
#X connect 5 0 9 0;
#X connect 6 0 5 0;
#X connect 6 1 5 1;
#X connect 7 0 6 0;
#X connect 8 0 7 0;
#X connect 9 0 2 0;
#X connect 10 0 12 0;
#X connect 11 0 10 0;
#X connect 11 0 5 0;
#X connect 13 0 14 0;
#X connect 14 0 15 0;
#X restore 471 50 pd _TEST_COLOR;
#X obj 720 168 s \$0-CANVAS;
#X obj 678 42 loadbang;
#X obj 678 90 sel 0;
#X obj 398 160 sel orange grey white black green blue default;
#X obj 323 89 symbol \$2;
#X obj 678 65 f \$3;
#X obj 706 244 s \$0-cnv;
#X obj 758 117 s \$0-menu-in;
#X text 674 8 3d argument (size) \; ----------------------------;
#X text 320 10 2nd argument (color) \; ----------------------------
;
#X text 27 18 1st argument (folder) \; ----------------------------
;
#X obj 705 118 + 0;
#X msg 323 147 10 2;
#X msg 432 226 11 0;
#X msg 758 91 size \$1 15;
#X msg 720 143 donecanvasdialog 1 -1 2 0 -1 1 1 \$1 15 100 100;
#X msg 705 217 vis_size \$1 15;
#X obj 705 196 - 17;
#X msg 737 60 167;
#X msg 785 62 84;
#X obj 181 130 bng 15 250 50 0 empty empty empty 17 7 0 10 -262144
-1 -1;
#X connect 0 0 3 0;
#X connect 1 0 2 1;
#X connect 2 1 14 0;
#X connect 3 0 4 0;
#X connect 3 1 1 0;
#X connect 4 0 2 0;
#X connect 5 0 17 0;
#X connect 7 0 6 0;
#X connect 8 0 11 0;
#X connect 9 0 10 1;
#X connect 10 0 38 0;
#X connect 10 1 12 0;
#X connect 11 0 30 0;
#X connect 11 1 9 0;
#X connect 12 0 29 0;
#X connect 14 1 5 0;
#X connect 15 0 7 0;
#X connect 15 0 16 0;
#X connect 17 0 15 0;
#X connect 18 0 13 0;
#X connect 19 0 18 0;
#X connect 20 0 18 0;
#X connect 21 0 18 0;
#X connect 22 0 13 0;
#X connect 23 0 18 0;
#X connect 24 0 22 0;
#X connect 27 0 31 0;
#X connect 28 1 40 0;
#X connect 28 1 37 0;
#X connect 29 0 24 0;
#X connect 29 1 39 0;
#X connect 29 2 19 0;
#X connect 29 3 20 0;
#X connect 29 4 23 0;
#X connect 29 5 21 0;
#X connect 29 6 38 0;
#X connect 30 0 10 0;
#X connect 31 0 28 0;
#X connect 37 0 41 0;
#X connect 37 0 43 0;
#X connect 38 0 18 0;
#X connect 39 0 18 0;
#X connect 40 0 33 0;
#X connect 41 0 26 0;
#X connect 42 0 32 0;
#X connect 43 0 42 0;
#X connect 44 0 28 0;
#X connect 45 0 28 0;
#X connect 46 0 5 0;
#X restore 400 105 pd \$0-arguments;
#X obj 115 372 tof/pmenu;
#X obj 40 337 r \$0-bang;
#X text 215 375 Send the files \; -----------------------;
#X msg 334 330 colors #444 #fc7800 black;
#X obj 334 304 loadbang;
#X obj 100 100 bng 15 250 50 0 \$0-bang empty empty 17 7 0 10 -262144
-1 -1;
#X obj 115 100 bng 15 250 50 0 \$0-bang empty empty 17 7 0 10 -262144
-1 -1;
#X obj 130 100 bng 15 250 50 0 \$0-bang empty empty 17 7 0 10 -262144
-1 -1;
#X obj 145 100 bng 15 250 50 0 \$0-bang empty empty 17 7 0 10 -262144
-1 -1;
#X obj 160 100 bng 15 250 50 0 \$0-bang empty empty 17 7 0 10 -262144
-1 -1;
#X obj 100 100 cnv 15 15 15 empty \$0-cnv-plus + 3 6 1 16 -33289 -228856
0;
#X obj 116 100 cnv 15 67 15 empty \$0-cnv TOOLS 2 9 1 12 -233017 -66577
0;
#X connect 0 0 1 1;
#X connect 1 0 2 0;
#X connect 3 0 16 0;
#X connect 4 0 3 0;
#X connect 5 0 8 0;
#X connect 6 0 16 0;
#X connect 7 0 8 0;
#X connect 7 1 6 0;
#X connect 8 0 4 0;
#X connect 9 0 7 0;
#X connect 10 0 9 0;
#X connect 16 1 1 0;
#X connect 16 1 12 0;
#X connect 17 0 16 0;
#X connect 19 0 16 0;
#X connect 20 0 19 0;
#X coords 0 -1 1 1 83 15 2 100 100;
