#N canvas 0 0 450 300 10;
#X obj 63 100 symbol;
#X msg 63 122 set \$1;
#X text 57 10 1.arg: Source Number;
#X text 56 28 2.arg: Default value;
#X obj 62 148 r~ \$2;
#X obj 44 207 outlet~;
#X obj 109 180 pvu~;
#X obj 306 68 inlet on_off;
#X obj 297 110 select 0 1;
#X msg 230 142 stop;
#X msg 270 143 start;
#X obj 64 79 receive_setting /EXT/OGGCAST/IN/\$1/SRC;
#X obj 109 203 send_regname /EXT/OGGCAST/IN/\$1/VU/LEVEL;
#X connect 0 0 1 0;
#X connect 1 0 4 0;
#X connect 4 0 5 0;
#X connect 4 0 6 0;
#X connect 6 0 12 0;
#X connect 7 0 8 0;
#X connect 8 0 9 0;
#X connect 8 1 10 0;
#X connect 9 0 6 0;
#X connect 10 0 6 0;
#X connect 11 0 0 0;
