#N canvas 0 0 450 300 10;
#X obj 202 140 ==;
#X obj 202 106 t a a a;
#X obj 202 163 select 0 1;
#X obj 264 195 outlet;
#X obj 203 83 inlet;
#X obj 206 233 outlet;
#X obj 201 199 f;
#X connect 0 0 2 0;
#X connect 1 0 0 1;
#X connect 1 1 0 0;
#X connect 1 2 6 1;
#X connect 2 0 6 0;
#X connect 2 1 3 0;
#X connect 4 0 1 0;
#X connect 6 0 5 0;
