#N canvas 0 54 1024 546 10;
#X obj 104 104 cnv 15 100 94 empty empty empty 20 12 0 14 -245500 -66577
0;
#X obj 209 104 cnv 15 200 45 empty empty empty 20 12 0 14 -3707 -66577
0;
#X obj 209 153 cnv 15 200 45 empty empty empty 20 12 0 14 -3707 -66577
0;
#X obj 432 104 cnv 15 260 94 empty empty empty 20 12 0 14 -13330 -66577
0;
#X obj 261 104 cnv 15 100 94 empty empty empty 20 12 0 14 -3707 -66577
0;
#X obj 219 126 hradio 10 1 0 12 empty empty empty 0 -8 0 10 -66577
-3707 -1 3;
#X obj 96 316 select 0 1 2 3 4 5 6 7 8 9 10 11;
#X msg 96 346 60;
#X msg 126 346 61;
#X msg 156 346 62;
#X msg 186 346 63;
#X msg 216 346 64;
#X msg 246 346 65;
#X msg 276 346 66;
#X msg 306 346 67;
#X msg 336 346 68;
#X msg 366 346 69;
#X msg 396 346 70;
#X msg 426 346 71;
#X obj 96 434 +;
#X obj 349 126 hradio 10 1 0 5 empty empty empty 0 -8 0 10 -66577 -3707
-1 2;
#X obj 225 414 select 0 1 2 3 4;
#X msg 224 437 -36;
#X msg 254 437 -24;
#X msg 284 437 -12;
#X msg 314 437 0;
#X msg 344 437 12;
#X obj 96 511 phasor~;
#X obj 96 490 mtof;
#X obj 96 212 loadbang;
#X msg 126 264 2;
#X obj 107 115 vsl 15 24 1 24 0 0 empty empty empty 0 -9 0 10 -66577
-3707 -1 100 1;
#X floatatom 107 145 2 0 0 0 - - -, f 2;
#X floatatom 127 145 2 0 0 0 - - -, f 2;
#X floatatom 147 145 2 0 0 0 - - -, f 2;
#X floatatom 167 145 2 0 0 0 - - -, f 2;
#X obj 324 490 +;
#X obj 384 490 +;
#X obj 444 490 +;
#X obj 504 490 +;
#X obj 324 606 phasor~;
#X obj 324 515 mtof;
#X obj 384 606 phasor~;
#X obj 384 515 mtof;
#X obj 444 606 phasor~;
#X obj 444 515 mtof;
#X obj 504 607 phasor~;
#X obj 504 515 mtof;
#X obj 323 782 *~;
#X obj 342 760 line~;
#X msg 342 740 \$1 20;
#X obj 107 164 vsl 15 24 0 23 0 0 empty empty empty 0 -9 0 10 -66577
-3707 -1 2000 1;
#X obj 383 782 *~;
#X obj 402 760 line~;
#X msg 402 740 \$1 20;
#X obj 127 164 vsl 15 24 0 23 0 0 empty empty empty 0 -9 0 10 -66577
-3707 -1 2000 1;
#X obj 443 782 *~;
#X obj 462 760 line~;
#X msg 462 740 \$1 20;
#X obj 147 164 vsl 15 24 0 23 0 0 empty empty empty 0 -9 0 10 -66577
-3707 -1 2000 1;
#X obj 503 782 *~;
#X obj 522 760 line~;
#X msg 522 740 \$1 20;
#X obj 167 164 vsl 15 24 0 23 0 0 empty empty empty 0 -9 0 10 -66577
-3707 -1 2000 1;
#X obj 95 838 *~;
#X obj 342 720 * 0.2;
#X obj 402 720 * 0.2;
#X obj 462 720 * 0.2;
#X obj 522 720 * 0.2;
#X obj 96 532 *~ 0.2;
#X obj 265 838 *~;
#X obj 265 859 clip~ -1 1;
#X obj 265 881 bp~ 500 4;
#X obj 324 586 +;
#X obj 384 586 +;
#X obj 444 586 +;
#X obj 504 587 +;
#X obj 342 566 * 1;
#X obj 402 566 * 2;
#X obj 462 566 * 3;
#X obj 519 563 * 4;
#X obj 186 115 vsl 15 24 0 2 0 0 empty empty empty 0 -9 0 10 -66577
-3707 -1 0 1;
#X obj 112 790 line~;
#X msg 112 770 \$1 20;
#X obj 162 790 line~;
#X msg 162 770 \$1 20;
#X obj 413 115 vsl 15 64 0 127 0 0 empty empty empty 0 -9 0 10 -66577
-3707 -1 5800 1;
#X obj 123 697 - 127;
#X obj 123 718 / -127;
#X obj 179 717 / 127;
#X msg 96 265 0;
#X obj 178 740 * 2;
#X text 203 740 drive distortion;
#X obj 435 115 vsl 15 64 0 127 0 0 empty empty empty 0 -9 0 10 -66577
-3707 -1 3975 1;
#X obj 454 115 vsl 15 28 0 1 0 0 empty empty empty 0 -9 0 10 -66577
-3707 -1 200 1;
#X obj 369 911 mtof;
#X obj 546 1010 snapshot~;
#X msg 487 895 1;
#X obj 454 151 vsl 15 28 0 27 0 0 empty empty empty 0 -9 0 10 -66577
-3707 -1 2000 1;
#X obj 369 933 +;
#X obj 475 1031 t b b b;
#X obj 506 1055 f;
#X obj 187 1324 r onseq;
#X obj 165 1158 mod 16;
#X obj 165 1180 select 0 1 2 3 4 5 6 7 8 9 10 11 12 13 14 15;
#X obj 165 1202 f;
#X obj 184 1222 f;
#X obj 203 1242 f;
#X obj 222 1262 f;
#X obj 241 1202 f;
#X obj 260 1222 f;
#X obj 279 1242 f;
#X obj 298 1262 f;
#X obj 317 1202 f;
#X obj 336 1222 f;
#X obj 355 1242 f;
#X obj 374 1262 f;
#X obj 393 1202 f;
#X obj 412 1222 f;
#X obj 431 1242 f;
#X obj 450 1262 f;
#X obj 214 176 vradio 10 1 0 2 empty empty empty 0 -8 0 10 -66577 -3707
-1 1;
#X obj 226 176 vradio 10 1 0 2 empty empty empty 0 -8 0 10 -66577 -3707
-1 0;
#X obj 238 176 vradio 10 1 0 2 empty empty empty 0 -8 0 10 -66577 -3707
-1 1;
#X obj 250 176 vradio 10 1 0 2 empty empty empty 0 -8 0 10 -66577 -3707
-1 1;
#X obj 262 176 vradio 10 1 0 2 empty empty empty 0 -8 0 10 -66577 -3707
-1 0;
#X obj 274 176 vradio 10 1 0 2 empty empty empty 0 -8 0 10 -66577 -3707
-1 0;
#X obj 286 176 vradio 10 1 0 2 empty empty empty 0 -8 0 10 -66577 -3707
-1 1;
#X obj 298 176 vradio 10 1 0 2 empty empty empty 0 -8 0 10 -66577 -3707
-1 0;
#X obj 310 176 vradio 10 1 0 2 empty empty empty 0 -8 0 10 -66577 -3707
-1 1;
#X obj 322 176 vradio 10 1 0 2 empty empty empty 0 -8 0 10 -66577 -3707
-1 0;
#X obj 334 176 vradio 10 1 0 2 empty empty empty 0 -8 0 10 -66577 -3707
-1 0;
#X obj 346 176 vradio 10 1 0 2 empty empty empty 0 -8 0 10 -66577 -3707
-1 1;
#X obj 358 176 vradio 10 1 0 2 empty empty empty 0 -8 0 10 -66577 -3707
-1 0;
#X obj 370 176 vradio 10 1 0 2 empty empty empty 0 -8 0 10 -66577 -3707
-1 1;
#X obj 382 176 vradio 10 1 0 2 empty empty empty 0 -8 0 10 -66577 -3707
-1 1;
#X obj 394 176 vradio 10 1 0 2 empty empty empty 0 -8 0 10 -66577 -3707
-1 1;
#X obj 76 1330 line~;
#X obj 57 1350 *~;
#X msg 76 1311 \$1 20;
#X obj 127 115 vsl 15 24 1 24 0 0 empty empty empty 0 -9 0 10 -66577
-3707 -1 200 1;
#X obj 147 115 vsl 15 24 1 24 0 0 empty empty empty 0 -9 0 10 -66577
-3707 -1 600 1;
#X obj 167 115 vsl 15 24 1 24 0 0 empty empty empty 0 -9 0 10 -66577
-3707 -1 900 1;
#X msg 160 264 3;
#X msg 192 264 5;
#X msg 222 264 7;
#X msg 254 264 10;
#X obj 220 113 cnv 8 8 10 empty empty empty 20 12 0 14 -253822 -66577
0;
#X obj 230 113 cnv 8 8 10 empty empty empty 20 12 0 14 -66577 -66577
0;
#X obj 240 113 cnv 8 8 10 empty empty empty 20 12 0 14 -253822 -66577
0;
#X obj 250 113 cnv 8 8 10 empty empty empty 20 12 0 14 -66577 -66577
0;
#X obj 260 113 cnv 8 8 10 empty empty empty 20 12 0 14 -253822 -66577
0;
#X obj 270 113 cnv 8 8 10 empty empty empty 20 12 0 14 -253822 -66577
0;
#X obj 280 113 cnv 8 8 10 empty empty empty 20 12 0 14 -66577 -66577
0;
#X obj 290 113 cnv 8 8 10 empty empty empty 20 12 0 14 -253822 -66577
0;
#X obj 300 113 cnv 8 8 10 empty empty empty 20 12 0 14 -66577 -66577
0;
#X obj 310 113 cnv 8 8 10 empty empty empty 20 12 0 14 -253822 -66577
0;
#X obj 320 113 cnv 8 8 10 empty empty empty 20 12 0 14 -66577 -66577
0;
#X obj 330 113 cnv 8 8 10 empty empty empty 20 12 0 14 -253822 -66577
0;
#X obj 342 700 / 23;
#X obj 402 700 / 23;
#X obj 462 700 / 23;
#X obj 522 700 / 23;
#X obj 116 1350 line~;
#X obj 97 1370 *~;
#X msg 116 1331 \$1 20;
#X obj 696 115 vsl 30 64 0 127 0 0 empty empty empty 0 -9 0 10 -66577
-3707 -1 6175 1;
#X obj 116 1309 / 127;
#X obj 97 1412 outlet~;
#X obj 93 291 t b f;
#X obj 107 459 t b f;
#X obj 545 966 osc~;
#X obj 545 988 +~ 1;
#X obj 476 999 metro 50;
#X msg 369 888 \$1 20;
#X obj 473 107 cnv 15 216 42 empty empty empty 20 12 0 14 -3707 -66577
0;
#X obj 473 153 cnv 15 216 42 empty empty empty 20 12 0 14 -3707 -66577
0;
#X obj 521 107 cnv 15 120 88 empty empty empty 20 12 0 14 -3707 -66577
0;
#X obj 486 113 cnv 6 24 6 empty empty rst 2 4 1 9 -3707 -1 0;
#X obj 554 388 mod 8;
#X obj 554 460 sel 0 1 2 3 4 5 6 7;
#X obj 583 490 f;
#X obj 613 490 f;
#X obj 643 490 f;
#X obj 673 490 f;
#X obj 703 490 f;
#X obj 733 490 f;
#X obj 763 490 f;
#X obj 793 490 f;
#X obj 532 112 vsl 15 32 0 127 0 0 empty empty empty 0 -9 0 10 -66577
-3707 -1 1367 1;
#X obj 662 519 mtof;
#X obj 650 553 bp~ 200 1;
#X obj 805 87 loadbang;
#X msg 804 109 4;
#X obj 671 112 vsl 15 32 1 10 0 0 empty empty empty 0 -9 0 10 -66577
-3707 -1 0 1;
#X msg 1186 217 6;
#X obj 625 989 *~ 1;
#X msg 1158 282 1;
#X obj 549 112 vsl 15 32 0 127 0 0 empty empty empty 0 -9 0 10 -66577
-3707 -1 3002 1;
#X obj 566 112 vsl 15 32 0 127 0 0 empty empty empty 0 -9 0 10 -66577
-3707 -1 2514 1;
#X obj 583 112 vsl 15 32 0 127 0 0 empty empty empty 0 -9 0 10 -66577
-3707 -1 1757 1;
#X obj 600 112 vsl 15 32 0 127 0 0 empty empty empty 0 -9 0 10 -66577
-3707 -1 2392 1;
#X obj 617 112 vsl 15 32 0 127 0 0 empty empty empty 0 -9 0 10 -66577
-3707 -1 195 1;
#X obj 634 112 vsl 15 32 0 127 0 0 empty empty empty 0 -9 0 10 -66577
-3707 -1 513 1;
#X obj 651 112 vsl 15 32 0 127 0 0 empty empty empty 0 -9 0 10 -66577
-3707 -1 2099 1;
#X obj 476 111 bng 10 250 50 0 empty empty empty 17 7 0 10 -66577 -3707
-1;
#X obj 488 126 cnv 6 10 6 empty empty cut 0 4 1 9 -3707 -1 0;
#X obj 476 124 bng 10 250 50 0 empty empty empty 17 7 0 10 -66577 -3707
-1;
#N canvas 305 219 450 300 randomfiltercutoff 0;
#X obj 12 9 inlet;
#X obj 12 47 random 128;
#X obj 82 47 random 128;
#X obj 152 47 random 128;
#X obj 222 47 random 128;
#X obj 42 67 random 128;
#X obj 112 67 random 128;
#X obj 182 67 random 128;
#X obj 252 67 random 128;
#X obj 7 188 outlet;
#X obj 49 188 outlet;
#X obj 91 188 outlet;
#X obj 133 188 outlet;
#X obj 175 188 outlet;
#X obj 217 188 outlet;
#X obj 259 188 outlet;
#X obj 301 188 outlet;
#X obj 12 123 moses 0;
#X obj 42 143 moses 0;
#X obj 62 123 moses 0;
#X obj 92 143 moses 0;
#X obj 112 123 moses 0;
#X obj 142 143 moses 0;
#X obj 162 123 moses 0;
#X obj 192 143 moses 0;
#X obj 209 12 inlet;
#X obj 289 12 inlet;
#X connect 0 0 1 0;
#X connect 0 0 2 0;
#X connect 0 0 5 0;
#X connect 0 0 6 0;
#X connect 0 0 3 0;
#X connect 0 0 7 0;
#X connect 0 0 4 0;
#X connect 0 0 8 0;
#X connect 1 0 17 0;
#X connect 2 0 19 0;
#X connect 3 0 21 0;
#X connect 4 0 23 0;
#X connect 5 0 18 0;
#X connect 6 0 20 0;
#X connect 7 0 22 0;
#X connect 8 0 24 0;
#X connect 17 1 9 0;
#X connect 18 1 10 0;
#X connect 19 1 11 0;
#X connect 20 1 12 0;
#X connect 21 1 13 0;
#X connect 22 1 14 0;
#X connect 23 1 15 0;
#X connect 24 1 16 0;
#X connect 25 0 1 1;
#X connect 25 0 2 1;
#X connect 25 0 3 1;
#X connect 25 0 4 1;
#X connect 25 0 5 1;
#X connect 25 0 6 1;
#X connect 25 0 7 1;
#X connect 25 0 8 1;
#X connect 26 0 17 1;
#X connect 26 0 19 1;
#X connect 26 0 21 1;
#X connect 26 0 23 1;
#X connect 26 0 18 1;
#X connect 26 0 20 1;
#X connect 26 0 22 1;
#X connect 26 0 24 1;
#X restore 953 266 pd randomfiltercutoff;
#X msg 1101 336 128;
#X msg 1102 373 0;
#X obj 554 436 spigot;
#X obj 600 436 spigot;
#X obj 503 111 tgl 10 0 empty empty empty 17 7 0 10 -66577 -3707 -1
0 1;
#X obj 1223 293 select 0 1;
#X obj 1222 319 t b b;
#X obj 1262 319 t b b;
#X msg 1195 349 0;
#X msg 1255 349 0;
#X msg 1225 349 1;
#X msg 1285 349 1;
#X obj 515 113 cnv 6 14 6 empty empty sq 0 4 1 9 -3707 -1 0;
#X obj 597 397 random 8;
#X obj 476 137 hradio 10 1 0 5 empty empty empty 0 -8 0 10 -66577 -3707
-1 4;
#X obj 767 527 random 11;
#X obj 767 549 spigot;
#X obj 503 124 tgl 10 0 empty empty empty 17 7 0 10 -66577 -3707 -1
0 1;
#X obj 515 127 cnv 6 14 6 empty empty res 0 4 1 9 -3707 -1 0;
#X obj 486 159 cnv 6 24 6 empty empty rst 2 4 1 9 -3707 -1 0;
#X obj 564 788 mod 8;
#X obj 564 860 sel 0 1 2 3 4 5 6 7;
#X obj 593 890 f;
#X obj 623 890 f;
#X obj 653 890 f;
#X obj 683 890 f;
#X obj 713 890 f;
#X obj 743 890 f;
#X obj 773 890 f;
#X obj 803 890 f;
#X obj 532 158 vsl 15 32 0 127 0 0 empty empty empty 0 -9 0 10 -66577
-3707 -1 3027 1;
#X obj 672 919 mtof;
#X obj 660 953 bp~ 200 1;
#X obj 671 158 vsl 15 32 1 10 0 0 empty empty empty 0 -9 0 10 -66577
-3707 -1 689 1;
#X msg 1196 617 6;
#X obj 665 989 *~ 1;
#X msg 1168 682 1;
#X obj 549 158 vsl 15 32 0 127 0 0 empty empty empty 0 -9 0 10 -66577
-3707 -1 1953 1;
#X obj 566 158 vsl 15 32 0 127 0 0 empty empty empty 0 -9 0 10 -66577
-3707 -1 2880 1;
#X obj 583 158 vsl 15 32 0 127 0 0 empty empty empty 0 -9 0 10 -66577
-3707 -1 98 1;
#X obj 600 158 vsl 15 32 0 127 0 0 empty empty empty 0 -9 0 10 -66577
-3707 -1 293 1;
#X obj 617 158 vsl 15 32 0 127 0 0 empty empty empty 0 -9 0 10 -66577
-3707 -1 195 1;
#X obj 634 158 vsl 15 32 0 127 0 0 empty empty empty 0 -9 0 10 -66577
-3707 -1 830 1;
#X obj 651 158 vsl 15 32 0 127 0 0 empty empty empty 0 -9 0 10 -66577
-3707 -1 1245 1;
#X obj 476 157 bng 10 250 50 0 empty empty empty 17 7 0 10 -66577 -3707
-1;
#X obj 488 172 cnv 6 10 6 empty empty cut 0 4 1 9 -3707 -1 0;
#X obj 476 170 bng 10 250 50 0 empty empty empty 17 7 0 10 -66577 -3707
-1;
#N canvas 305 219 450 300 randomfiltercutoff 0;
#X obj 12 9 inlet;
#X obj 12 47 random 128;
#X obj 82 47 random 128;
#X obj 152 47 random 128;
#X obj 222 47 random 128;
#X obj 42 67 random 128;
#X obj 112 67 random 128;
#X obj 182 67 random 128;
#X obj 252 67 random 128;
#X obj 7 188 outlet;
#X obj 49 188 outlet;
#X obj 91 188 outlet;
#X obj 133 188 outlet;
#X obj 175 188 outlet;
#X obj 217 188 outlet;
#X obj 259 188 outlet;
#X obj 301 188 outlet;
#X obj 12 123 moses 0;
#X obj 42 143 moses 0;
#X obj 62 123 moses 0;
#X obj 92 143 moses 0;
#X obj 112 123 moses 0;
#X obj 142 143 moses 0;
#X obj 162 123 moses 0;
#X obj 192 143 moses 0;
#X obj 209 12 inlet;
#X obj 289 12 inlet;
#X connect 0 0 1 0;
#X connect 0 0 2 0;
#X connect 0 0 5 0;
#X connect 0 0 6 0;
#X connect 0 0 3 0;
#X connect 0 0 7 0;
#X connect 0 0 4 0;
#X connect 0 0 8 0;
#X connect 1 0 17 0;
#X connect 2 0 19 0;
#X connect 3 0 21 0;
#X connect 4 0 23 0;
#X connect 5 0 18 0;
#X connect 6 0 20 0;
#X connect 7 0 22 0;
#X connect 8 0 24 0;
#X connect 17 1 9 0;
#X connect 18 1 10 0;
#X connect 19 1 11 0;
#X connect 20 1 12 0;
#X connect 21 1 13 0;
#X connect 22 1 14 0;
#X connect 23 1 15 0;
#X connect 24 1 16 0;
#X connect 25 0 1 1;
#X connect 25 0 2 1;
#X connect 25 0 3 1;
#X connect 25 0 4 1;
#X connect 25 0 5 1;
#X connect 25 0 6 1;
#X connect 25 0 7 1;
#X connect 25 0 8 1;
#X connect 26 0 17 1;
#X connect 26 0 19 1;
#X connect 26 0 21 1;
#X connect 26 0 23 1;
#X connect 26 0 18 1;
#X connect 26 0 20 1;
#X connect 26 0 22 1;
#X connect 26 0 24 1;
#X restore 963 666 pd randomfiltercutoff;
#X msg 1111 736 128;
#X msg 1112 773 0;
#X obj 564 836 spigot;
#X obj 610 836 spigot;
#X obj 503 157 tgl 10 0 empty empty empty 17 7 0 10 -66577 -3707 -1
0 1;
#X obj 1233 693 select 0 1;
#X obj 1232 719 t b b;
#X obj 1272 719 t b b;
#X msg 1205 749 0;
#X msg 1265 749 0;
#X msg 1235 749 1;
#X msg 1295 749 1;
#X obj 515 159 cnv 6 14 6 empty empty sq 0 4 1 9 -3707 -1 0;
#X obj 607 797 random 8;
#X obj 476 183 hradio 10 1 0 5 empty empty empty 0 -8 0 10 -66577 -3707
-1 1;
#X obj 777 927 random 11;
#X obj 777 949 spigot;
#X obj 503 170 tgl 10 0 empty empty empty 17 7 0 10 -66577 -3707 -1
0 1;
#X obj 515 173 cnv 6 14 6 empty empty res 0 4 1 9 -3707 -1 0;
#X msg 60 265 20;
#X obj 531 587 +;
#X obj 469 586 +;
#X obj 417 587 +;
#X obj 354 586 +;
#X obj 96 235 t b b b b b b b;
#X msg 287 265 0;
#X msg 60 291 64;
#X obj 215 165 bng 8 250 50 0 empty empty empty 17 7 0 10 -66577 -3707
-1;
#X obj 228 166 cnv 6 10 6 empty empty gate 0 4 1 9 -3707 -1 0;
#X obj 219 139 cnv 6 10 6 empty empty 1st.tone 0 4 1 9 -3707 -1 0;
#X obj 385 139 cnv 6 10 6 empty empty oct 0 4 1 9 -3707 -1 0;
#X obj 413 187 cnv 6 10 6 empty empty mix 0 4 1 9 -262144 -1 0;
#X obj 436 187 cnv 6 10 6 empty empty BP 0 4 1 9 -13330 -3707 0;
#X obj 703 187 cnv 6 10 6 empty empty amp 0 4 1 9 -262144 -1 0;
#N canvas 373 182 450 300 creaciondeacorde 0;
#X obj 14 12 inlet;
#X obj 14 227 unpack 0 0 0 0;
#X obj 14 272 outlet;
#X obj 64 272 outlet;
#X obj 114 272 outlet;
#X obj 164 272 outlet;
#X msg 14 75 4 7 11 12;
#X msg 29 98 3 7 10 12;
#X msg 45 120 4 7 11 14;
#X msg 59 141 3 7 10 14;
#X msg 128 74 2 3 7 10;
#X msg 147 96 2 3 5 10;
#X msg 165 119 3 5 8 10;
#X msg 186 140 2 7 11 14;
#X msg 202 161 2 3 5 8;
#X msg 218 182 5 7 10 13;
#X obj 14 34 select 0 1 2 3 4 5 6 7 8 9 10 11;
#X msg 221 75 6 9 11 16;
#X connect 0 0 16 0;
#X connect 1 0 2 0;
#X connect 1 1 3 0;
#X connect 1 2 4 0;
#X connect 1 3 5 0;
#X connect 6 0 1 0;
#X connect 7 0 1 0;
#X connect 8 0 1 0;
#X connect 9 0 1 0;
#X connect 10 0 1 0;
#X connect 11 0 1 0;
#X connect 12 0 1 0;
#X connect 13 0 1 0;
#X connect 14 0 1 0;
#X connect 15 0 1 0;
#X connect 16 1 6 0;
#X connect 16 2 7 0;
#X connect 16 3 8 0;
#X connect 16 4 9 0;
#X connect 16 5 10 0;
#X connect 16 6 11 0;
#X connect 16 7 12 0;
#X connect 16 8 13 0;
#X connect 16 9 14 0;
#X connect 16 10 15 0;
#X connect 16 11 17 0;
#X connect 17 0 1 0;
#X restore 107 58 pd creaciondeacorde;
#X floatatom 187 177 2 0 11 0 - - -, f 2;
#X obj 186 168 cnv 6 10 6 empty empty type 0 4 1 9 -253822 -1 0;
#N canvas 348 159 655 308 randomchord 0;
#X obj 8 8 inlet;
#X obj 10 270 outlet;
#X obj 60 270 outlet;
#X obj 110 270 outlet;
#X obj 160 270 outlet;
#X obj 6 98 random 24;
#X obj 6 120 + 1;
#X obj 76 98 random 24;
#X obj 76 120 + 1;
#X obj 146 98 random 24;
#X obj 146 120 + 1;
#X obj 216 98 random 24;
#X obj 216 120 + 1;
#X connect 0 0 5 0;
#X connect 0 0 7 0;
#X connect 0 0 9 0;
#X connect 0 0 11 0;
#X connect 5 0 6 0;
#X connect 6 0 1 0;
#X connect 7 0 8 0;
#X connect 8 0 2 0;
#X connect 9 0 10 0;
#X connect 10 0 3 0;
#X connect 11 0 12 0;
#X connect 12 0 4 0;
#X restore 230 57 pd randomchord;
#X obj 188 154 bng 10 250 50 0 empty empty empty 17 7 0 10 -66577 -3707
-1;
#X obj 187 145 cnv 6 10 6 empty empty rnd 0 4 1 9 -253822 -1 0;
#X obj 546 1035 *;
#X obj 546 1057 pow 2;
#X obj 351 114 cnv 6 10 6 empty empty c 0 4 1 12 -3707 -1 0;
#X floatatom 296 143 2 1 12 0 - - -, f 2;
#X floatatom 312 143 2 1 12 0 - - -, f 2;
#X obj 9 56 spigot;
#X floatatom 328 143 2 1 12 0 - - -, f 2;
#X floatatom 344 143 2 1 12 0 - - -, f 2;
#X obj 9 34 mod 4;
#X obj 9 76 select 0 1 2 3;
#X obj 264 146 tgl 10 0 empty empty empty 17 7 0 10 -66577 -3707 -1
1 1;
#X obj 276 148 cnv 6 14 6 empty empty seq 0 4 1 9 -3707 -1 0;
#X obj 361 114 cnv 6 10 6 empty empty o 0 4 1 12 -3707 -1 0;
#X obj 372 114 cnv 6 10 6 empty empty r 0 4 1 12 -3707 -1 0;
#X obj 381 114 cnv 6 10 6 empty empty a 0 4 1 12 -3707 -1 0;
#X obj 391 114 cnv 6 10 6 empty empty l 0 4 1 12 -3707 -1 0;
#X obj 10 10 f;
#X obj 38 11 + 1;
#X floatatom 296 159 2 1 12 0 - - -, f 2;
#X floatatom 312 159 2 1 12 0 - - -, f 2;
#X floatatom 328 159 2 1 12 0 - - -, f 2;
#X floatatom 344 159 2 1 12 0 - - -, f 2;
#X obj 9 136 spigot;
#X obj 9 114 mod 4;
#X obj 9 156 select 0 1 2 3;
#X obj 264 160 tgl 10 0 empty empty empty 17 7 0 10 -66577 -3707 -1
1 1;
#X obj 276 162 cnv 6 14 6 empty empty tch 0 4 1 9 -3707 -1 0;
#X obj 187 1352 select 0 1;
#X msg 187 1376 0;
#X msg 217 1376 1;
#X obj 371 65 f;
#X obj 401 65 f;
#X obj 431 65 f;
#X obj 461 65 f;
#X obj 491 65 f;
#X obj 521 65 f;
#X obj 551 65 f;
#X obj 581 65 f;
#N canvas 297 221 543 303 randomgatesequence16steps 0;
#X obj 16 17 inlet;
#X obj 18 63 random 2;
#X obj 78 63 random 2;
#X obj 138 63 random 2;
#X obj 198 63 random 2;
#X obj 258 63 random 2;
#X obj 318 63 random 2;
#X obj 378 63 random 2;
#X obj 438 63 random 2;
#X obj 28 83 random 2;
#X obj 88 83 random 2;
#X obj 148 83 random 2;
#X obj 208 83 random 2;
#X obj 268 83 random 2;
#X obj 328 83 random 2;
#X obj 388 83 random 2;
#X obj 448 83 random 2;
#X obj 13 155 outlet;
#X obj 55 155 outlet;
#X obj 97 155 outlet;
#X obj 139 155 outlet;
#X obj 181 155 outlet;
#X obj 223 155 outlet;
#X obj 265 155 outlet;
#X obj 307 155 outlet;
#X obj 33 175 outlet;
#X obj 75 175 outlet;
#X obj 117 175 outlet;
#X obj 159 175 outlet;
#X obj 201 175 outlet;
#X obj 243 175 outlet;
#X obj 285 175 outlet;
#X obj 327 175 outlet;
#X connect 0 0 1 0;
#X connect 0 0 2 0;
#X connect 0 0 9 0;
#X connect 0 0 10 0;
#X connect 0 0 3 0;
#X connect 0 0 4 0;
#X connect 0 0 5 0;
#X connect 0 0 6 0;
#X connect 0 0 7 0;
#X connect 0 0 8 0;
#X connect 0 0 11 0;
#X connect 0 0 12 0;
#X connect 0 0 13 0;
#X connect 0 0 14 0;
#X connect 0 0 15 0;
#X connect 0 0 16 0;
#X connect 1 0 17 0;
#X connect 2 0 18 0;
#X connect 3 0 19 0;
#X connect 4 0 20 0;
#X connect 5 0 21 0;
#X connect 6 0 22 0;
#X connect 7 0 23 0;
#X connect 8 0 24 0;
#X connect 9 0 25 0;
#X connect 10 0 26 0;
#X connect 11 0 27 0;
#X connect 12 0 28 0;
#X connect 13 0 29 0;
#X connect 14 0 30 0;
#X connect 15 0 31 0;
#X connect 16 0 32 0;
#X restore 149 27 pd randomgatesequence16steps;
#X obj 215 155 bng 8 250 50 0 empty empty empty 17 7 0 10 -66577 -3707
-1;
#X obj 228 156 cnv 6 10 6 empty empty rndg 0 4 1 9 -3707 -1 0;
#X obj 386 45 - 1;
#X obj 416 45 - 1;
#X obj 446 45 - 1;
#X obj 476 45 - 1;
#X floatatom 390 159 2 1 16 0 - - -, f 2;
#X obj 374 163 cnv 6 10 6 empty empty rdx 0 4 1 9 -3707 -1 0;
#X msg 318 265 16;
#X obj 456 187 cnv 6 10 6 empty empty lfo 0 4 1 9 -13330 -3707 0;
#X obj 104 201 cnv 6 10 6 empty empty mixout 0 4 1 9 -262144 -1 0;
#X obj 97 1390 *~ 1;
#X obj 129 1113 r pscorchea;
#N canvas 243 281 604 300 recibepulsos 0;
#X obj 216 -4 inlet;
#X obj 7 272 outlet;
#X obj 216 22 sel 0 1 2 3 4;
#X obj 132 164 r pbar;
#X obj 175 164 r pblanca;
#X obj 236 164 r pnegra;
#X obj 291 164 r pcorchea;
#X obj 358 164 r pscorchea;
#X obj 132 186 spigot;
#X obj 175 186 spigot;
#X obj 236 186 spigot;
#X obj 291 186 spigot;
#X obj 358 186 spigot;
#X msg 13 60 1 0 0 0 0;
#X obj 13 82 unpack f f f f f;
#X msg 123 60 1 0 0 0 0;
#X obj 123 82 unpack f f f f f;
#X msg 233 60 1 0 0 0 0;
#X obj 233 82 unpack f f f f f;
#X msg 343 60 1 0 0 0 0;
#X obj 343 82 unpack f f f f f;
#X msg 453 60 1 0 0 0 0;
#X obj 453 82 unpack f f f f f;
#X connect 0 0 2 0;
#X connect 2 0 13 0;
#X connect 2 1 15 0;
#X connect 2 2 17 0;
#X connect 2 3 19 0;
#X connect 2 4 21 0;
#X connect 3 0 8 0;
#X connect 4 0 9 0;
#X connect 5 0 10 0;
#X connect 6 0 11 0;
#X connect 7 0 12 0;
#X connect 8 0 1 0;
#X connect 9 0 1 0;
#X connect 10 0 1 0;
#X connect 11 0 1 0;
#X connect 12 0 1 0;
#X connect 13 0 14 0;
#X connect 14 0 8 1;
#X connect 14 1 12 1;
#X connect 14 2 11 1;
#X connect 14 3 10 1;
#X connect 14 4 9 1;
#X connect 15 0 16 0;
#X connect 16 0 9 1;
#X connect 16 1 12 1;
#X connect 16 2 11 1;
#X connect 16 3 10 1;
#X connect 16 4 8 1;
#X connect 17 0 18 0;
#X connect 18 0 10 1;
#X connect 18 1 12 1;
#X connect 18 2 11 1;
#X connect 18 3 9 1;
#X connect 18 4 8 1;
#X connect 19 0 20 0;
#X connect 20 0 11 1;
#X connect 20 1 12 1;
#X connect 20 2 10 1;
#X connect 20 3 9 1;
#X connect 20 4 8 1;
#X connect 21 0 22 0;
#X connect 22 0 12 1;
#X connect 22 1 11 1;
#X connect 22 2 10 1;
#X connect 22 3 9 1;
#X connect 22 4 8 1;
#X restore 786 272 pd recibepulsos;
#N canvas 243 281 604 300 recibepulsos 0;
#X obj 216 -4 inlet;
#X obj 7 272 outlet;
#X obj 216 22 sel 0 1 2 3 4;
#X obj 132 164 r pbar;
#X obj 175 164 r pblanca;
#X obj 236 164 r pnegra;
#X obj 291 164 r pcorchea;
#X obj 358 164 r pscorchea;
#X obj 132 186 spigot;
#X obj 175 186 spigot;
#X obj 236 186 spigot;
#X obj 291 186 spigot;
#X obj 358 186 spigot;
#X msg 13 60 1 0 0 0 0;
#X obj 13 82 unpack f f f f f;
#X msg 123 60 1 0 0 0 0;
#X obj 123 82 unpack f f f f f;
#X msg 233 60 1 0 0 0 0;
#X obj 233 82 unpack f f f f f;
#X msg 343 60 1 0 0 0 0;
#X obj 343 82 unpack f f f f f;
#X msg 453 60 1 0 0 0 0;
#X obj 453 82 unpack f f f f f;
#X connect 0 0 2 0;
#X connect 2 0 13 0;
#X connect 2 1 15 0;
#X connect 2 2 17 0;
#X connect 2 3 19 0;
#X connect 2 4 21 0;
#X connect 3 0 8 0;
#X connect 4 0 9 0;
#X connect 5 0 10 0;
#X connect 6 0 11 0;
#X connect 7 0 12 0;
#X connect 8 0 1 0;
#X connect 9 0 1 0;
#X connect 10 0 1 0;
#X connect 11 0 1 0;
#X connect 12 0 1 0;
#X connect 13 0 14 0;
#X connect 14 0 8 1;
#X connect 14 1 12 1;
#X connect 14 2 11 1;
#X connect 14 3 10 1;
#X connect 14 4 9 1;
#X connect 15 0 16 0;
#X connect 16 0 9 1;
#X connect 16 1 12 1;
#X connect 16 2 11 1;
#X connect 16 3 10 1;
#X connect 16 4 8 1;
#X connect 17 0 18 0;
#X connect 18 0 10 1;
#X connect 18 1 12 1;
#X connect 18 2 11 1;
#X connect 18 3 9 1;
#X connect 18 4 8 1;
#X connect 19 0 20 0;
#X connect 20 0 11 1;
#X connect 20 1 12 1;
#X connect 20 2 10 1;
#X connect 20 3 9 1;
#X connect 20 4 8 1;
#X connect 21 0 22 0;
#X connect 22 0 12 1;
#X connect 22 1 11 1;
#X connect 22 2 10 1;
#X connect 22 3 9 1;
#X connect 22 4 8 1;
#X restore 789 687 pd recibepulsos;
#X obj 793 303 t b;
#X obj 796 723 t b;
#X connect 5 0 169 0;
#X connect 6 0 7 0;
#X connect 6 1 8 0;
#X connect 6 2 9 0;
#X connect 6 3 10 0;
#X connect 6 4 11 0;
#X connect 6 5 12 0;
#X connect 6 6 13 0;
#X connect 6 7 14 0;
#X connect 6 8 15 0;
#X connect 6 9 16 0;
#X connect 6 10 17 0;
#X connect 6 11 18 0;
#X connect 7 0 19 1;
#X connect 8 0 19 1;
#X connect 9 0 19 1;
#X connect 10 0 19 1;
#X connect 11 0 19 1;
#X connect 12 0 19 1;
#X connect 13 0 19 1;
#X connect 14 0 19 1;
#X connect 15 0 19 1;
#X connect 16 0 19 1;
#X connect 17 0 19 1;
#X connect 18 0 19 1;
#X connect 19 0 28 0;
#X connect 19 0 170 0;
#X connect 20 0 21 0;
#X connect 21 0 22 0;
#X connect 21 1 23 0;
#X connect 21 2 24 0;
#X connect 21 3 25 0;
#X connect 21 4 26 0;
#X connect 22 0 19 0;
#X connect 23 0 19 0;
#X connect 24 0 19 0;
#X connect 25 0 19 0;
#X connect 26 0 19 0;
#X connect 27 0 69 0;
#X connect 28 0 27 0;
#X connect 29 0 97 0;
#X connect 29 0 281 0;
#X connect 29 0 283 0;
#X connect 29 0 344 0;
#X connect 30 0 20 0;
#X connect 31 0 32 0;
#X connect 32 0 36 0;
#X connect 33 0 37 0;
#X connect 34 0 38 0;
#X connect 35 0 39 0;
#X connect 36 0 41 0;
#X connect 37 0 43 0;
#X connect 38 0 45 0;
#X connect 39 0 47 0;
#X connect 40 0 48 0;
#X connect 41 0 73 0;
#X connect 41 0 280 1;
#X connect 42 0 52 0;
#X connect 43 0 74 0;
#X connect 43 0 279 1;
#X connect 44 0 56 0;
#X connect 45 0 75 0;
#X connect 45 0 278 1;
#X connect 46 0 60 0;
#X connect 47 0 76 0;
#X connect 47 0 277 1;
#X connect 48 0 64 0;
#X connect 48 0 70 0;
#X connect 49 0 48 1;
#X connect 50 0 49 0;
#X connect 51 0 159 0;
#X connect 52 0 64 0;
#X connect 52 0 70 0;
#X connect 53 0 52 1;
#X connect 54 0 53 0;
#X connect 55 0 160 0;
#X connect 56 0 64 0;
#X connect 56 0 70 0;
#X connect 57 0 56 1;
#X connect 58 0 57 0;
#X connect 59 0 161 0;
#X connect 60 0 64 0;
#X connect 60 0 70 0;
#X connect 61 0 60 1;
#X connect 62 0 61 0;
#X connect 63 0 162 0;
#X connect 64 0 138 0;
#X connect 65 0 50 0;
#X connect 66 0 54 0;
#X connect 67 0 58 0;
#X connect 68 0 62 0;
#X connect 69 0 64 0;
#X connect 69 0 70 0;
#X connect 70 0 71 0;
#X connect 71 0 72 0;
#X connect 72 0 191 0;
#X connect 72 0 241 0;
#X connect 73 0 40 0;
#X connect 74 0 42 0;
#X connect 75 0 44 0;
#X connect 76 0 46 0;
#X connect 77 0 73 1;
#X connect 77 0 280 0;
#X connect 78 0 74 1;
#X connect 78 0 279 0;
#X connect 79 0 75 1;
#X connect 79 0 278 0;
#X connect 80 0 76 1;
#X connect 80 0 277 0;
#X connect 81 0 80 0;
#X connect 81 0 79 0;
#X connect 81 0 78 0;
#X connect 81 0 77 0;
#X connect 82 0 64 1;
#X connect 83 0 82 0;
#X connect 84 0 70 1;
#X connect 85 0 84 0;
#X connect 86 0 87 0;
#X connect 86 0 89 0;
#X connect 87 0 88 0;
#X connect 88 0 83 0;
#X connect 88 0 71 1;
#X connect 89 0 91 0;
#X connect 90 0 5 0;
#X connect 90 0 292 0;
#X connect 91 0 85 0;
#X connect 93 0 174 0;
#X connect 94 0 171 0;
#X connect 95 0 99 0;
#X connect 96 0 297 0;
#X connect 97 0 121 0;
#X connect 97 0 124 0;
#X connect 97 0 131 0;
#X connect 97 0 132 0;
#X connect 97 0 173 0;
#X connect 98 0 297 1;
#X connect 99 0 72 1;
#X connect 100 0 93 0;
#X connect 100 1 101 0;
#X connect 100 2 96 0;
#X connect 101 0 99 1;
#X connect 102 0 324 0;
#X connect 103 0 104 0;
#X connect 104 0 105 0;
#X connect 104 0 284 0;
#X connect 104 0 313 0;
#X connect 104 1 106 0;
#X connect 104 2 107 0;
#X connect 104 3 108 0;
#X connect 104 4 109 0;
#X connect 104 5 110 0;
#X connect 104 6 111 0;
#X connect 104 7 112 0;
#X connect 104 8 113 0;
#X connect 104 9 114 0;
#X connect 104 10 115 0;
#X connect 104 11 116 0;
#X connect 104 12 117 0;
#X connect 104 13 118 0;
#X connect 104 14 119 0;
#X connect 104 15 120 0;
#X connect 105 0 139 0;
#X connect 106 0 139 0;
#X connect 107 0 139 0;
#X connect 108 0 139 0;
#X connect 109 0 139 0;
#X connect 110 0 139 0;
#X connect 111 0 139 0;
#X connect 112 0 139 0;
#X connect 113 0 139 0;
#X connect 114 0 139 0;
#X connect 115 0 139 0;
#X connect 116 0 139 0;
#X connect 117 0 139 0;
#X connect 118 0 139 0;
#X connect 119 0 139 0;
#X connect 120 0 139 0;
#X connect 121 0 105 1;
#X connect 122 0 106 1;
#X connect 123 0 107 1;
#X connect 124 0 108 1;
#X connect 125 0 109 1;
#X connect 126 0 110 1;
#X connect 127 0 111 1;
#X connect 128 0 112 1;
#X connect 129 0 113 1;
#X connect 130 0 114 1;
#X connect 131 0 115 1;
#X connect 132 0 116 1;
#X connect 133 0 117 1;
#X connect 134 0 118 1;
#X connect 135 0 119 1;
#X connect 136 0 120 1;
#X connect 137 0 138 1;
#X connect 138 0 164 0;
#X connect 139 0 137 0;
#X connect 140 0 33 0;
#X connect 141 0 34 0;
#X connect 142 0 35 0;
#X connect 143 0 31 0;
#X connect 144 0 140 0;
#X connect 145 0 141 0;
#X connect 146 0 142 0;
#X connect 159 0 65 0;
#X connect 160 0 66 0;
#X connect 161 0 67 0;
#X connect 162 0 68 0;
#X connect 163 0 164 1;
#X connect 164 0 347 0;
#X connect 165 0 163 0;
#X connect 166 0 167 0;
#X connect 167 0 165 0;
#X connect 169 0 20 0;
#X connect 169 1 6 0;
#X connect 170 0 31 0;
#X connect 170 0 140 0;
#X connect 170 0 141 0;
#X connect 170 0 142 0;
#X connect 170 1 36 1;
#X connect 170 1 37 1;
#X connect 170 1 38 1;
#X connect 170 1 39 1;
#X connect 171 0 172 0;
#X connect 172 0 96 0;
#X connect 173 0 100 0;
#X connect 174 0 95 0;
#X connect 179 0 211 0;
#X connect 180 0 181 0;
#X connect 180 1 182 0;
#X connect 180 2 183 0;
#X connect 180 3 184 0;
#X connect 180 4 185 0;
#X connect 180 5 186 0;
#X connect 180 6 187 0;
#X connect 180 7 188 0;
#X connect 181 0 190 0;
#X connect 182 0 190 0;
#X connect 183 0 190 0;
#X connect 184 0 190 0;
#X connect 185 0 190 0;
#X connect 186 0 190 0;
#X connect 187 0 190 0;
#X connect 188 0 190 0;
#X connect 189 0 181 1;
#X connect 190 0 191 1;
#X connect 191 0 196 0;
#X connect 192 0 193 0;
#X connect 192 0 195 0;
#X connect 192 0 197 0;
#X connect 192 0 209 0;
#X connect 192 0 210 0;
#X connect 192 0 207 0;
#X connect 192 0 255 0;
#X connect 193 0 223 0;
#X connect 193 0 271 0;
#X connect 193 0 242 0;
#X connect 194 0 191 2;
#X connect 195 0 194 0;
#X connect 196 0 138 0;
#X connect 197 0 211 1;
#X connect 198 0 182 1;
#X connect 199 0 183 1;
#X connect 200 0 184 1;
#X connect 201 0 185 1;
#X connect 202 0 186 1;
#X connect 203 0 187 1;
#X connect 204 0 188 1;
#X connect 207 0 208 0;
#X connect 208 0 189 0;
#X connect 208 1 198 0;
#X connect 208 2 199 0;
#X connect 208 3 200 0;
#X connect 208 4 201 0;
#X connect 208 5 202 0;
#X connect 208 6 203 0;
#X connect 208 7 204 0;
#X connect 210 0 212 1;
#X connect 211 0 180 0;
#X connect 212 0 180 0;
#X connect 213 0 214 0;
#X connect 214 0 215 0;
#X connect 214 1 216 0;
#X connect 215 0 219 0;
#X connect 215 1 217 0;
#X connect 216 0 220 0;
#X connect 216 1 218 0;
#X connect 217 0 212 1;
#X connect 218 0 211 1;
#X connect 219 0 211 1;
#X connect 220 0 212 1;
#X connect 222 0 212 0;
#X connect 223 0 349 0;
#X connect 224 0 225 0;
#X connect 225 0 194 0;
#X connect 226 0 225 1;
#X connect 229 0 259 0;
#X connect 230 0 231 0;
#X connect 230 1 232 0;
#X connect 230 2 233 0;
#X connect 230 3 234 0;
#X connect 230 4 235 0;
#X connect 230 5 236 0;
#X connect 230 6 237 0;
#X connect 230 7 238 0;
#X connect 231 0 240 0;
#X connect 232 0 240 0;
#X connect 233 0 240 0;
#X connect 234 0 240 0;
#X connect 235 0 240 0;
#X connect 236 0 240 0;
#X connect 237 0 240 0;
#X connect 238 0 240 0;
#X connect 239 0 231 1;
#X connect 240 0 241 1;
#X connect 241 0 244 0;
#X connect 242 0 241 2;
#X connect 243 0 242 0;
#X connect 244 0 138 0;
#X connect 245 0 259 1;
#X connect 246 0 232 1;
#X connect 247 0 233 1;
#X connect 248 0 234 1;
#X connect 249 0 235 1;
#X connect 250 0 236 1;
#X connect 251 0 237 1;
#X connect 252 0 238 1;
#X connect 255 0 256 0;
#X connect 256 0 239 0;
#X connect 256 1 246 0;
#X connect 256 2 247 0;
#X connect 256 3 248 0;
#X connect 256 4 249 0;
#X connect 256 5 250 0;
#X connect 256 6 251 0;
#X connect 256 7 252 0;
#X connect 258 0 260 1;
#X connect 259 0 230 0;
#X connect 260 0 230 0;
#X connect 261 0 262 0;
#X connect 262 0 263 0;
#X connect 262 1 264 0;
#X connect 263 0 267 0;
#X connect 263 1 265 0;
#X connect 264 0 268 0;
#X connect 264 1 266 0;
#X connect 265 0 260 1;
#X connect 266 0 259 1;
#X connect 267 0 259 1;
#X connect 268 0 260 1;
#X connect 270 0 260 0;
#X connect 271 0 350 0;
#X connect 272 0 273 0;
#X connect 273 0 242 0;
#X connect 274 0 273 1;
#X connect 276 0 51 0;
#X connect 276 0 55 0;
#X connect 276 0 59 0;
#X connect 276 0 63 0;
#X connect 277 0 46 0;
#X connect 278 0 44 0;
#X connect 279 0 42 0;
#X connect 280 0 40 0;
#X connect 281 0 90 0;
#X connect 281 0 276 0;
#X connect 281 1 30 0;
#X connect 281 2 143 0;
#X connect 281 3 144 0;
#X connect 281 4 145 0;
#X connect 281 5 146 0;
#X connect 281 6 282 0;
#X connect 282 0 81 0;
#X connect 283 0 166 0;
#X connect 283 0 86 0;
#X connect 283 0 93 0;
#X connect 291 0 31 0;
#X connect 291 1 140 0;
#X connect 291 2 141 0;
#X connect 291 3 142 0;
#X connect 292 0 291 0;
#X connect 294 0 31 0;
#X connect 294 1 140 0;
#X connect 294 2 141 0;
#X connect 294 3 142 0;
#X connect 295 0 294 0;
#X connect 297 0 298 0;
#X connect 298 0 101 1;
#X connect 300 0 338 0;
#X connect 301 0 339 0;
#X connect 302 0 306 0;
#X connect 303 0 340 0;
#X connect 304 0 341 0;
#X connect 305 0 302 0;
#X connect 306 0 327 0;
#X connect 306 1 328 0;
#X connect 306 2 329 0;
#X connect 306 3 330 0;
#X connect 307 0 302 1;
#X connect 313 0 314 0;
#X connect 313 0 305 0;
#X connect 313 0 320 0;
#X connect 314 0 313 1;
#X connect 315 0 331 1;
#X connect 316 0 332 1;
#X connect 317 0 333 1;
#X connect 318 0 334 1;
#X connect 319 0 321 0;
#X connect 320 0 319 0;
#X connect 321 0 331 0;
#X connect 321 1 332 0;
#X connect 321 2 333 0;
#X connect 321 3 334 0;
#X connect 322 0 319 1;
#X connect 324 0 325 0;
#X connect 324 1 326 0;
#X connect 325 0 347 1;
#X connect 326 0 347 1;
#X connect 327 0 5 0;
#X connect 328 0 5 0;
#X connect 329 0 5 0;
#X connect 330 0 5 0;
#X connect 331 0 292 0;
#X connect 332 0 292 0;
#X connect 333 0 292 0;
#X connect 334 0 292 0;
#X connect 335 0 121 0;
#X connect 335 1 122 0;
#X connect 335 2 123 0;
#X connect 335 3 124 0;
#X connect 335 4 125 0;
#X connect 335 5 126 0;
#X connect 335 6 127 0;
#X connect 335 7 128 0;
#X connect 335 8 129 0;
#X connect 335 9 130 0;
#X connect 335 10 131 0;
#X connect 335 11 132 0;
#X connect 335 12 133 0;
#X connect 335 13 134 0;
#X connect 335 14 135 0;
#X connect 335 15 136 0;
#X connect 336 0 335 0;
#X connect 338 0 327 1;
#X connect 339 0 328 1;
#X connect 340 0 329 1;
#X connect 341 0 330 1;
#X connect 342 0 103 1;
#X connect 344 0 342 0;
#X connect 347 0 168 0;
#X connect 348 0 103 0;
#X connect 349 0 179 0;
#X connect 349 0 351 0;
#X connect 350 0 229 0;
#X connect 350 0 352 0;
#X connect 351 0 224 0;
#X connect 351 0 222 0;
#X connect 352 0 272 0;
#X connect 352 0 270 0;
#X coords 0 -1 1 1 630 110 2 100 100;
