#N canvas 0 54 1024 546 10;
#X obj 103 103 cnv 8 240 104 empty empty empty 20 12 0 14 -1 -66577
0;
#X obj 104 127 bng 10 100 50 0 empty empty empty 17 7 0 10 -1 -3707
-1;
#X obj 104 139 bng 10 100 50 0 empty empty empty 17 7 0 10 -1 -3707
-1;
#X obj 104 151 bng 10 100 50 0 empty empty empty 17 7 0 10 -1 -3707
-1;
#X obj 104 163 bng 10 100 50 0 empty empty empty 17 7 0 10 -1 -3707
-1;
#X obj 115 127 bng 10 250 50 0 empty empty s1 12 6 1 10 -3707 -1 -3707
;
#X obj 115 139 bng 10 250 50 0 empty empty s2 12 6 1 10 -3707 -1 -3707
;
#X obj 115 151 bng 10 250 50 0 empty empty s3 12 6 1 10 -3707 -1 -3707
;
#X obj 115 163 bng 10 250 50 0 empty empty s4 12 6 1 10 -3707 -1 -3707
;
#X obj 320 243 openpanel;
#X obj 320 287 soundfiler;
#X obj 490 243 openpanel;
#X obj 490 287 soundfiler;
#X obj 660 243 openpanel;
#X obj 660 287 soundfiler;
#X obj 750 193 openpanel;
#X obj 750 237 soundfiler;
#X obj 314 350 tabplay~ muestra01;
#X obj 304 432 *~;
#X obj 352 427 line~;
#X msg 352 397 \$1 20;
#X obj 283 515 outlet~;
#X obj 237 481 *~ 1;
#X obj 457 428 *~;
#X obj 542 419 line~;
#X msg 542 397 \$1 20;
#X obj 614 414 *~;
#X obj 692 427 line~;
#X msg 692 397 \$1 20;
#X obj 764 412 *~;
#X obj 842 427 line~;
#X msg 842 397 \$1 20;
#X obj 464 350 tabplay~ muestra02;
#X obj 614 350 tabplay~ muestra03;
#X obj 734 350 tabplay~ muestra04;
#X obj 333 515 outlet~;
#X obj 383 515 outlet~;
#X obj 433 515 outlet~;
#X obj 224 514 outlet~;
#X obj 351 376 / 127;
#X obj 558 375 / 127;
#X obj 691 376 / 127;
#X obj 840 377 / 127;
#X obj 180 14 loadbang;
#X msg 180 36 64;
#X obj 142 125 cnv 8 52 60 empty empty empty 20 12 0 14 -3707 -66577
0;
#X obj 146 126 hsl 45 10 0 127 0 0 empty empty empty -2 -8 0 10 -1
-3707 -1 2217 1;
#X obj 146 138 hsl 45 10 0 127 0 0 empty empty empty -2 -8 0 10 -1
-3707 -1 2217 1;
#X obj 146 150 hsl 45 10 0 127 0 0 empty empty empty -2 -8 0 10 -1
-3707 -1 2217 1;
#X obj 146 162 hsl 45 10 0 127 0 0 empty empty empty -2 -8 0 10 -1
-3707 -1 2217 1;
#N canvas 290 216 641 304 sampler01 0;
#N canvas 0 82 450 250 (subpatch) 0;
#X array muestra01 100 float 2;
#X coords 0 -1 100 1 100 70 2 0 0;
#X restore 16 22 graph;
#N canvas 0 50 450 250 (subpatch) 0;
#X array muestra02 200 float 2;
#X coords 0 1 200 -1 100 70 1 0 0;
#X restore 123 22 graph;
#N canvas 0 50 450 250 (subpatch) 0;
#X array muestra03 300 float 2;
#X coords 0 1 300 -1 100 70 1 0 0;
#X restore 229 22 graph;
#N canvas 0 82 450 250 (subpatch) 0;
#X array muestra04 400 float 2;
#X coords 0 1 400 -1 100 70 1 0 0;
#X restore 333 22 graph;
#N canvas 0 82 450 250 (subpatch) 0;
#X array muestra05 500 float 0;
#X coords 0 1 499 -1 100 70 1 0 0;
#X restore 437 22 graph;
#X restore 175 296 pd sampler01;
#X obj 156 113 cnv 10 10 10 empty empty amp 2 5 1 9 -1 -3707 0;
#X obj 114 113 cnv 10 10 10 empty empty open 2 5 1 9 -1 -3707 0;
#N canvas 0 82 541 300 distfilter 0;
#X obj 143 86 clip~ -1 1;
#X obj 144 64 *~ 1;
#X obj 192 118 hip~ 2000;
#X obj 53 118 vcf~ 120 2;
#X obj 123 118 bp~ 500 2;
#X obj 83 210 *~ 1;
#X obj 153 210 *~ 1;
#X obj 222 210 *~ 1;
#X obj 40 19 inlet~;
#X obj 97 19 inlet;
#X obj 58 72 mtof;
#X obj 144 19 inlet;
#X obj 185 19 inlet;
#X obj 152 251 outlet~;
#X obj 225 19 inlet;
#X obj 313 71 select 0 1 2;
#X obj 313 93 t b b;
#X obj 356 93 t b b;
#X obj 413 91 t b b;
#X msg 296 118 1;
#X msg 326 118 0;
#X msg 356 118 1;
#X msg 386 118 0;
#X msg 414 118 1;
#X msg 444 118 0;
#X connect 0 0 3 0;
#X connect 0 0 4 0;
#X connect 0 0 2 0;
#X connect 1 0 0 0;
#X connect 2 0 7 0;
#X connect 3 0 5 0;
#X connect 4 0 6 0;
#X connect 5 0 13 0;
#X connect 6 0 13 0;
#X connect 7 0 13 0;
#X connect 8 0 1 0;
#X connect 9 0 1 1;
#X connect 10 0 3 1;
#X connect 10 0 4 1;
#X connect 10 0 2 1;
#X connect 11 0 10 0;
#X connect 12 0 3 2;
#X connect 12 0 4 2;
#X connect 14 0 15 0;
#X connect 15 0 16 0;
#X connect 15 1 17 0;
#X connect 15 2 18 0;
#X connect 16 0 19 0;
#X connect 16 1 20 0;
#X connect 17 0 21 0;
#X connect 17 1 22 0;
#X connect 18 0 23 0;
#X connect 18 1 24 0;
#X connect 19 0 5 1;
#X connect 20 0 6 1;
#X connect 20 0 7 1;
#X connect 21 0 6 1;
#X connect 22 0 7 1;
#X connect 22 0 5 1;
#X connect 23 0 7 1;
#X connect 24 0 6 1;
#X connect 24 0 5 1;
#X restore 257 393 pd distfilter;
#X obj 197 125 cnv 8 27 60 empty empty empty 20 12 0 14 -3707 -66577
0;
#X obj 201 126 hsl 20 10 1 20 0 0 empty empty empty -2 -8 0 10 -1 -3707
-1 0 1;
#X obj 199 113 cnv 10 10 10 empty empty sat 2 5 1 9 -1 -3707 0;
#X obj 227 125 cnv 8 111 60 empty empty empty 20 12 0 14 -3707 -66577
0;
#X obj 228 126 hradio 10 1 0 3 empty empty empty 0 -8 0 10 -1 -3707
-1 1;
#X obj 263 126 hsl 45 10 0 127 0 0 empty empty empty -2 -8 0 10 -1
-3707 -1 4400 1;
#X obj 315 126 hsl 20 10 0 9 0 0 empty empty empty -2 -8 0 10 -1 -3707
-1 0 1;
#X obj 226 113 cnv 10 10 10 empty empty type 2 5 1 9 -1 -3707 0;
#X obj 258 113 cnv 10 10 10 empty empty cutoff 2 5 1 9 -1 -3707 0;
#X obj 311 113 cnv 10 10 10 empty empty res 2 5 1 9 -1 -3707 0;
#X msg 231 39 0;
#X msg 264 39 127;
#X msg 296 39 1;
#X obj 201 138 hsl 20 10 1 20 0 0 empty empty empty -2 -8 0 10 -1 -3707
-1 0 1;
#X obj 201 150 hsl 20 10 1 20 0 0 empty empty empty -2 -8 0 10 -1 -3707
-1 0 1;
#X obj 201 162 hsl 20 10 1 20 0 0 empty empty empty -2 -8 0 10 -1 -3707
-1 0 1;
#X obj 228 138 hradio 10 1 0 3 empty empty empty 0 -8 0 10 -1 -3707
-1 1;
#X obj 263 138 hsl 45 10 0 127 0 0 empty empty empty -2 -8 0 10 -1
-3707 -1 4400 1;
#X obj 315 138 hsl 20 10 0 9 0 0 empty empty empty -2 -8 0 10 -1 -3707
-1 0 1;
#X obj 228 150 hradio 10 1 0 3 empty empty empty 0 -8 0 10 -1 -3707
-1 1;
#X obj 263 150 hsl 45 10 0 127 0 0 empty empty empty -2 -8 0 10 -1
-3707 -1 4400 1;
#X obj 315 150 hsl 20 10 0 9 0 0 empty empty empty -2 -8 0 10 -1 -3707
-1 0 1;
#X obj 228 162 hradio 10 1 0 3 empty empty empty 0 -8 0 10 -1 -3707
-1 1;
#X obj 263 162 hsl 45 10 0 127 0 0 empty empty empty -2 -8 0 10 -1
-3707 -1 4400 1;
#X obj 315 162 hsl 20 10 0 9 0 0 empty empty empty -2 -8 0 10 -1 -3707
-1 0 1;
#N canvas 0 87 541 300 distfilter 0;
#X obj 143 86 clip~ -1 1;
#X obj 144 64 *~ 1;
#X obj 192 118 hip~ 2000;
#X obj 53 118 vcf~ 120 2;
#X obj 123 118 bp~ 500 2;
#X obj 83 210 *~ 1;
#X obj 153 210 *~ 1;
#X obj 222 210 *~ 1;
#X obj 40 19 inlet~;
#X obj 97 19 inlet;
#X obj 58 72 mtof;
#X obj 144 19 inlet;
#X obj 185 19 inlet;
#X obj 152 251 outlet~;
#X obj 225 19 inlet;
#X obj 313 71 select 0 1 2;
#X obj 313 93 t b b;
#X obj 356 93 t b b;
#X obj 413 91 t b b;
#X msg 296 118 1;
#X msg 326 118 0;
#X msg 356 118 1;
#X msg 386 118 0;
#X msg 414 118 1;
#X msg 444 118 0;
#X connect 0 0 3 0;
#X connect 0 0 4 0;
#X connect 0 0 2 0;
#X connect 1 0 0 0;
#X connect 2 0 7 0;
#X connect 3 0 5 0;
#X connect 4 0 6 0;
#X connect 5 0 13 0;
#X connect 6 0 13 0;
#X connect 7 0 13 0;
#X connect 8 0 1 0;
#X connect 9 0 1 1;
#X connect 10 0 3 1;
#X connect 10 0 4 1;
#X connect 10 0 2 1;
#X connect 11 0 10 0;
#X connect 12 0 3 2;
#X connect 12 0 4 2;
#X connect 14 0 15 0;
#X connect 15 0 16 0;
#X connect 15 1 17 0;
#X connect 15 2 18 0;
#X connect 16 0 19 0;
#X connect 16 1 20 0;
#X connect 17 0 21 0;
#X connect 17 1 22 0;
#X connect 18 0 23 0;
#X connect 18 1 24 0;
#X connect 19 0 5 1;
#X connect 20 0 6 1;
#X connect 20 0 7 1;
#X connect 21 0 6 1;
#X connect 22 0 7 1;
#X connect 22 0 5 1;
#X connect 23 0 7 1;
#X connect 24 0 6 1;
#X connect 24 0 5 1;
#X restore 457 393 pd distfilter;
#N canvas 0 82 541 300 distfilter 0;
#X obj 143 86 clip~ -1 1;
#X obj 144 64 *~ 1;
#X obj 192 118 hip~ 2000;
#X obj 53 118 vcf~ 120 2;
#X obj 123 118 bp~ 500 2;
#X obj 83 210 *~ 1;
#X obj 153 210 *~ 1;
#X obj 222 210 *~ 1;
#X obj 40 19 inlet~;
#X obj 97 19 inlet;
#X obj 58 72 mtof;
#X obj 144 19 inlet;
#X obj 185 19 inlet;
#X obj 152 251 outlet~;
#X obj 225 19 inlet;
#X obj 313 71 select 0 1 2;
#X obj 313 93 t b b;
#X obj 356 93 t b b;
#X obj 413 91 t b b;
#X msg 296 118 1;
#X msg 326 118 0;
#X msg 356 118 1;
#X msg 386 118 0;
#X msg 414 118 1;
#X msg 444 118 0;
#X connect 0 0 3 0;
#X connect 0 0 4 0;
#X connect 0 0 2 0;
#X connect 1 0 0 0;
#X connect 2 0 7 0;
#X connect 3 0 5 0;
#X connect 4 0 6 0;
#X connect 5 0 13 0;
#X connect 6 0 13 0;
#X connect 7 0 13 0;
#X connect 8 0 1 0;
#X connect 9 0 1 1;
#X connect 10 0 3 1;
#X connect 10 0 4 1;
#X connect 10 0 2 1;
#X connect 11 0 10 0;
#X connect 12 0 3 2;
#X connect 12 0 4 2;
#X connect 14 0 15 0;
#X connect 15 0 16 0;
#X connect 15 1 17 0;
#X connect 15 2 18 0;
#X connect 16 0 19 0;
#X connect 16 1 20 0;
#X connect 17 0 21 0;
#X connect 17 1 22 0;
#X connect 18 0 23 0;
#X connect 18 1 24 0;
#X connect 19 0 5 1;
#X connect 20 0 6 1;
#X connect 20 0 7 1;
#X connect 21 0 6 1;
#X connect 22 0 7 1;
#X connect 22 0 5 1;
#X connect 23 0 7 1;
#X connect 24 0 6 1;
#X connect 24 0 5 1;
#X restore 587 393 pd distfilter;
#N canvas 0 82 541 300 distfilter 0;
#X obj 143 86 clip~ -1 1;
#X obj 144 64 *~ 1;
#X obj 192 118 hip~ 2000;
#X obj 53 118 vcf~ 120 2;
#X obj 123 118 bp~ 500 2;
#X obj 83 210 *~ 1;
#X obj 153 210 *~ 1;
#X obj 222 210 *~ 1;
#X obj 40 19 inlet~;
#X obj 97 19 inlet;
#X obj 58 72 mtof;
#X obj 144 19 inlet;
#X obj 185 19 inlet;
#X obj 152 251 outlet~;
#X obj 225 19 inlet;
#X obj 313 71 select 0 1 2;
#X obj 313 93 t b b;
#X obj 356 93 t b b;
#X obj 413 91 t b b;
#X msg 296 118 1;
#X msg 326 118 0;
#X msg 356 118 1;
#X msg 386 118 0;
#X msg 414 118 1;
#X msg 444 118 0;
#X connect 0 0 3 0;
#X connect 0 0 4 0;
#X connect 0 0 2 0;
#X connect 1 0 0 0;
#X connect 2 0 7 0;
#X connect 3 0 5 0;
#X connect 4 0 6 0;
#X connect 5 0 13 0;
#X connect 6 0 13 0;
#X connect 7 0 13 0;
#X connect 8 0 1 0;
#X connect 9 0 1 1;
#X connect 10 0 3 1;
#X connect 10 0 4 1;
#X connect 10 0 2 1;
#X connect 11 0 10 0;
#X connect 12 0 3 2;
#X connect 12 0 4 2;
#X connect 14 0 15 0;
#X connect 15 0 16 0;
#X connect 15 1 17 0;
#X connect 15 2 18 0;
#X connect 16 0 19 0;
#X connect 16 1 20 0;
#X connect 17 0 21 0;
#X connect 17 1 22 0;
#X connect 18 0 23 0;
#X connect 18 1 24 0;
#X connect 19 0 5 1;
#X connect 20 0 6 1;
#X connect 20 0 7 1;
#X connect 21 0 6 1;
#X connect 22 0 7 1;
#X connect 22 0 5 1;
#X connect 23 0 7 1;
#X connect 24 0 6 1;
#X connect 24 0 5 1;
#X restore 737 393 pd distfilter;
#X obj 402 54 inlet;
#X obj 438 54 inlet;
#X obj 474 54 inlet;
#X obj 510 54 inlet;
#X obj 852 143 openpanel;
#X obj 852 187 soundfiler;
#X obj 906 412 *~;
#X obj 984 427 line~;
#X msg 984 397 \$1 20;
#X obj 982 377 / 127;
#N canvas 0 82 541 300 distfilter 0;
#X obj 143 86 clip~ -1 1;
#X obj 144 64 *~ 1;
#X obj 192 118 hip~ 2000;
#X obj 53 118 vcf~ 120 2;
#X obj 123 118 bp~ 500 2;
#X obj 83 210 *~ 1;
#X obj 153 210 *~ 1;
#X obj 222 210 *~ 1;
#X obj 40 19 inlet~;
#X obj 97 19 inlet;
#X obj 58 72 mtof;
#X obj 144 19 inlet;
#X obj 185 19 inlet;
#X obj 152 251 outlet~;
#X obj 225 19 inlet;
#X obj 313 71 select 0 1 2;
#X obj 313 93 t b b;
#X obj 356 93 t b b;
#X obj 413 91 t b b;
#X msg 296 118 1;
#X msg 326 118 0;
#X msg 356 118 1;
#X msg 386 118 0;
#X msg 414 118 1;
#X msg 444 118 0;
#X connect 0 0 3 0;
#X connect 0 0 4 0;
#X connect 0 0 2 0;
#X connect 1 0 0 0;
#X connect 2 0 7 0;
#X connect 3 0 5 0;
#X connect 4 0 6 0;
#X connect 5 0 13 0;
#X connect 6 0 13 0;
#X connect 7 0 13 0;
#X connect 8 0 1 0;
#X connect 9 0 1 1;
#X connect 10 0 3 1;
#X connect 10 0 4 1;
#X connect 10 0 2 1;
#X connect 11 0 10 0;
#X connect 12 0 3 2;
#X connect 12 0 4 2;
#X connect 14 0 15 0;
#X connect 15 0 16 0;
#X connect 15 1 17 0;
#X connect 15 2 18 0;
#X connect 16 0 19 0;
#X connect 16 1 20 0;
#X connect 17 0 21 0;
#X connect 17 1 22 0;
#X connect 18 0 23 0;
#X connect 18 1 24 0;
#X connect 19 0 5 1;
#X connect 20 0 6 1;
#X connect 20 0 7 1;
#X connect 21 0 6 1;
#X connect 22 0 7 1;
#X connect 22 0 5 1;
#X connect 23 0 7 1;
#X connect 24 0 6 1;
#X connect 24 0 5 1;
#X restore 879 393 pd distfilter;
#X obj 115 175 bng 10 250 50 0 empty empty s5 12 6 1 10 -3707 -1 -3707
;
#X obj 146 174 hsl 45 10 0 127 0 0 empty empty empty -2 -8 0 10 -1
-3707 -1 2217 1;
#X obj 201 174 hsl 20 10 1 20 0 0 empty empty empty -2 -8 0 10 -1 -3707
-1 0 1;
#X obj 228 174 hradio 10 1 0 3 empty empty empty 0 -8 0 10 -1 -3707
-1 1;
#X obj 263 174 hsl 45 10 0 127 0 0 empty empty empty -2 -8 0 10 -1
-3707 -1 4400 1;
#X obj 315 174 hsl 20 10 0 9 0 0 empty empty empty -2 -8 0 10 -1 -3707
-1 0 1;
#X obj 104 175 bng 10 100 50 0 empty empty empty 17 7 0 10 -1 -3707
-1;
#X obj 547 55 inlet;
#X obj 483 515 outlet~;
#X obj 103 103 cnv 10 10 10 empty empty g1in 2 5 1 9 -1 -162280 0;
#X obj 322 103 cnv 10 10 10 empty empty g5in 2 5 1 9 -1 -162280 0;
#X obj 212 103 cnv 10 10 10 empty empty g3in 2 5 1 9 -1 -162280 0;
#X obj 272 103 cnv 10 10 10 empty empty g4in 2 5 1 9 -1 -162280 0;
#X obj 152 103 cnv 10 10 10 empty empty g2in 2 5 1 9 -1 -162280 0;
#X obj 876 343 tabplay~ muestra05;
#X obj 103 197 cnv 10 10 10 empty empty mix 2 5 1 9 -1 -162280 0;
#X obj 321 197 cnv 10 10 10 empty empty 5out 2 5 1 9 -1 -162280 0;
#X obj 139 197 cnv 10 10 10 empty empty 1out 2 5 1 9 -1 -162280 0;
#X obj 187 197 cnv 10 10 10 empty empty 2out 2 5 1 9 -1 -162280 0;
#X obj 234 197 cnv 10 10 10 empty empty 3out 2 5 1 9 -1 -162280 0;
#X obj 280 197 cnv 10 10 10 empty empty 4out 2 5 1 9 -1 -162280 0;
#X obj 295 187 cnv 10 10 10 empty empty microfile 2 5 1 10 -1 -3707
0;
#X msg 320 265 read -resize \$1 muestra01;
#X msg 490 265 read -resize \$1 muestra02;
#X msg 660 265 read -resize \$1 muestra03;
#X msg 750 215 read -resize \$1 muestra04;
#X msg 852 165 read -resize \$1 muestra05;
#X connect 5 0 9 0;
#X connect 6 0 11 0;
#X connect 7 0 13 0;
#X connect 8 0 15 0;
#X connect 9 0 115 0;
#X connect 11 0 116 0;
#X connect 13 0 117 0;
#X connect 15 0 118 0;
#X connect 17 0 53 0;
#X connect 18 0 22 0;
#X connect 18 0 21 0;
#X connect 19 0 18 1;
#X connect 20 0 19 0;
#X connect 22 0 38 0;
#X connect 23 0 22 0;
#X connect 23 0 35 0;
#X connect 24 0 23 1;
#X connect 25 0 24 0;
#X connect 26 0 22 0;
#X connect 26 0 36 0;
#X connect 27 0 26 1;
#X connect 28 0 27 0;
#X connect 29 0 22 0;
#X connect 29 0 37 0;
#X connect 30 0 29 1;
#X connect 31 0 30 0;
#X connect 32 0 79 0;
#X connect 33 0 80 0;
#X connect 34 0 81 0;
#X connect 39 0 20 0;
#X connect 40 0 25 0;
#X connect 41 0 28 0;
#X connect 42 0 31 0;
#X connect 43 0 44 0;
#X connect 43 0 64 0;
#X connect 43 0 65 0;
#X connect 43 0 66 0;
#X connect 44 0 46 0;
#X connect 44 0 47 0;
#X connect 44 0 48 0;
#X connect 44 0 49 0;
#X connect 44 0 94 0;
#X connect 46 0 39 0;
#X connect 47 0 40 0;
#X connect 48 0 41 0;
#X connect 49 0 42 0;
#X connect 53 0 18 0;
#X connect 55 0 53 1;
#X connect 58 0 53 4;
#X connect 59 0 53 2;
#X connect 60 0 53 3;
#X connect 64 0 60 0;
#X connect 64 0 72 0;
#X connect 64 0 75 0;
#X connect 64 0 78 0;
#X connect 64 0 98 0;
#X connect 65 0 59 0;
#X connect 65 0 71 0;
#X connect 65 0 74 0;
#X connect 65 0 77 0;
#X connect 65 0 97 0;
#X connect 66 0 58 0;
#X connect 66 0 55 0;
#X connect 66 0 67 0;
#X connect 66 0 68 0;
#X connect 66 0 69 0;
#X connect 66 0 70 0;
#X connect 66 0 73 0;
#X connect 66 0 76 0;
#X connect 66 0 95 0;
#X connect 66 0 96 0;
#X connect 67 0 79 1;
#X connect 68 0 80 1;
#X connect 69 0 81 1;
#X connect 70 0 79 4;
#X connect 71 0 79 2;
#X connect 72 0 79 3;
#X connect 73 0 80 4;
#X connect 74 0 80 2;
#X connect 75 0 80 3;
#X connect 76 0 81 4;
#X connect 77 0 81 2;
#X connect 78 0 81 3;
#X connect 79 0 23 0;
#X connect 80 0 26 0;
#X connect 81 0 29 0;
#X connect 82 0 17 0;
#X connect 82 0 1 0;
#X connect 83 0 32 0;
#X connect 83 0 2 0;
#X connect 84 0 33 0;
#X connect 84 0 3 0;
#X connect 85 0 34 0;
#X connect 85 0 4 0;
#X connect 86 0 119 0;
#X connect 88 0 22 0;
#X connect 88 0 101 0;
#X connect 89 0 88 1;
#X connect 90 0 89 0;
#X connect 91 0 90 0;
#X connect 92 0 88 0;
#X connect 93 0 86 0;
#X connect 94 0 91 0;
#X connect 95 0 92 1;
#X connect 96 0 92 4;
#X connect 97 0 92 2;
#X connect 98 0 92 3;
#X connect 99 0 107 0;
#X connect 100 0 99 0;
#X connect 107 0 92 0;
#X connect 115 0 10 0;
#X connect 116 0 12 0;
#X connect 117 0 14 0;
#X connect 118 0 16 0;
#X connect 119 0 87 0;
#X coords 0 -1 1 1 246 110 1 100 100;
