#N canvas 0 54 1024 546 10;
#X obj 103 103 cnv 15 186 96 empty empty empty 20 12 0 14 -3707 -66577
0;
#X obj 105 122 vsl 30 64 0 500 0 0 empty empty empty 0 -9 0 10 -66577
-3707 -1 0 1;
#X obj 108 190 cnv 8 24 8 empty empty amp 2 4 1 9 -3707 -1 0;
#X obj 105 105 cnv 12 182 12 empty empty modDRIPS 2 7 1 9 -66577 -3707
0;
#X obj 138 120 cnv 15 127 69 empty empty empty 20 12 0 14 -1 -66577
0;
#X obj 191 190 cnv 8 24 8 empty empty rain 2 4 1 9 -3707 -1 0;
#X obj -52 7 r bpm;
#N canvas 571 87 450 472 secuenciadornucleo 0;
#X obj 47 281 metro 1000;
#X obj 113 206 /;
#X msg 52 111 60000;
#X msg 62 131 30000;
#X msg 72 151 15000;
#X msg 82 171 7500;
#X msg 42 91 120000;
#X msg 32 71 240000;
#X obj 137 206 /;
#X obj 161 206 /;
#X obj 185 206 /;
#X obj 209 206 /;
#X obj 233 206 /;
#X obj 113 256 f;
#X obj 137 256 f;
#X obj 161 256 f;
#X obj 185 256 f;
#X obj 209 256 f;
#X obj 233 256 f;
#X obj 47 303 random 6;
#X obj 47 325 select 0 1 2 3 4 5;
#X obj 68 42 t b f;
#X obj 7 9 inlet;
#X obj 47 9 inlet;
#X obj 102 355 random 8;
#X obj 102 377 select 0 1 2 3 4 5 6 7;
#X obj 3 442 outlet;
#X obj 45 442 outlet;
#X obj 87 442 outlet;
#X obj 129 442 outlet;
#X obj 171 442 outlet;
#X obj 213 442 outlet;
#X obj 255 442 outlet;
#X obj 297 442 outlet;
#X connect 0 0 19 0;
#X connect 0 0 24 0;
#X connect 1 0 13 1;
#X connect 2 0 9 0;
#X connect 3 0 10 0;
#X connect 4 0 11 0;
#X connect 5 0 12 0;
#X connect 6 0 8 0;
#X connect 7 0 1 0;
#X connect 8 0 14 1;
#X connect 9 0 15 1;
#X connect 10 0 16 1;
#X connect 11 0 17 1;
#X connect 12 0 18 1;
#X connect 13 0 0 1;
#X connect 14 0 0 1;
#X connect 15 0 0 1;
#X connect 16 0 0 1;
#X connect 17 0 0 1;
#X connect 18 0 0 1;
#X connect 19 0 20 0;
#X connect 20 0 13 0;
#X connect 20 1 14 0;
#X connect 20 2 15 0;
#X connect 20 3 16 0;
#X connect 20 4 17 0;
#X connect 20 5 18 0;
#X connect 21 0 7 0;
#X connect 21 0 6 0;
#X connect 21 0 2 0;
#X connect 21 0 3 0;
#X connect 21 0 4 0;
#X connect 21 0 5 0;
#X connect 21 1 1 1;
#X connect 21 1 8 1;
#X connect 21 1 9 1;
#X connect 21 1 10 1;
#X connect 21 1 11 1;
#X connect 21 1 12 1;
#X connect 22 0 21 0;
#X connect 23 0 0 0;
#X connect 24 0 25 0;
#X connect 25 0 26 0;
#X connect 25 1 27 0;
#X connect 25 2 28 0;
#X connect 25 3 29 0;
#X connect 25 4 30 0;
#X connect 25 5 31 0;
#X connect 25 6 32 0;
#X connect 25 7 33 0;
#X restore -52 67 pd secuenciadornucleo;
#N canvas 571 87 450 472 secuenciadornucleo 0;
#X obj 47 281 metro 1000;
#X obj 113 206 /;
#X msg 52 111 60000;
#X msg 62 131 30000;
#X msg 72 151 15000;
#X msg 82 171 7500;
#X msg 42 91 120000;
#X msg 32 71 240000;
#X obj 137 206 /;
#X obj 161 206 /;
#X obj 185 206 /;
#X obj 209 206 /;
#X obj 233 206 /;
#X obj 113 256 f;
#X obj 137 256 f;
#X obj 161 256 f;
#X obj 185 256 f;
#X obj 209 256 f;
#X obj 233 256 f;
#X obj 47 303 random 6;
#X obj 47 325 select 0 1 2 3 4 5;
#X obj 68 42 t b f;
#X obj 7 9 inlet;
#X obj 47 9 inlet;
#X obj 102 355 random 8;
#X obj 102 377 select 0 1 2 3 4 5 6 7;
#X obj 3 442 outlet;
#X obj 45 442 outlet;
#X obj 87 442 outlet;
#X obj 129 442 outlet;
#X obj 171 442 outlet;
#X obj 213 442 outlet;
#X obj 255 442 outlet;
#X obj 297 442 outlet;
#X connect 0 0 19 0;
#X connect 0 0 24 0;
#X connect 1 0 13 1;
#X connect 2 0 9 0;
#X connect 3 0 10 0;
#X connect 4 0 11 0;
#X connect 5 0 12 0;
#X connect 6 0 8 0;
#X connect 7 0 1 0;
#X connect 8 0 14 1;
#X connect 9 0 15 1;
#X connect 10 0 16 1;
#X connect 11 0 17 1;
#X connect 12 0 18 1;
#X connect 13 0 0 1;
#X connect 14 0 0 1;
#X connect 15 0 0 1;
#X connect 16 0 0 1;
#X connect 17 0 0 1;
#X connect 18 0 0 1;
#X connect 19 0 20 0;
#X connect 20 0 13 0;
#X connect 20 1 14 0;
#X connect 20 2 15 0;
#X connect 20 3 16 0;
#X connect 20 4 17 0;
#X connect 20 5 18 0;
#X connect 21 0 7 0;
#X connect 21 0 6 0;
#X connect 21 0 2 0;
#X connect 21 0 3 0;
#X connect 21 0 4 0;
#X connect 21 0 5 0;
#X connect 21 1 1 1;
#X connect 21 1 8 1;
#X connect 21 1 9 1;
#X connect 21 1 10 1;
#X connect 21 1 11 1;
#X connect 21 1 12 1;
#X connect 22 0 21 0;
#X connect 23 0 0 0;
#X connect 24 0 25 0;
#X connect 25 0 26 0;
#X connect 25 1 27 0;
#X connect 25 2 28 0;
#X connect 25 3 29 0;
#X connect 25 4 30 0;
#X connect 25 5 31 0;
#X connect 25 6 32 0;
#X connect 25 7 33 0;
#X restore -52 107 pd secuenciadornucleo;
#N canvas 571 87 450 472 secuenciadornucleo 0;
#X obj 47 281 metro 1000;
#X obj 113 206 /;
#X msg 52 111 60000;
#X msg 62 131 30000;
#X msg 72 151 15000;
#X msg 82 171 7500;
#X msg 42 91 120000;
#X msg 32 71 240000;
#X obj 137 206 /;
#X obj 161 206 /;
#X obj 185 206 /;
#X obj 209 206 /;
#X obj 233 206 /;
#X obj 113 256 f;
#X obj 137 256 f;
#X obj 161 256 f;
#X obj 185 256 f;
#X obj 209 256 f;
#X obj 233 256 f;
#X obj 47 303 random 6;
#X obj 47 325 select 0 1 2 3 4 5;
#X obj 68 42 t b f;
#X obj 7 9 inlet;
#X obj 47 9 inlet;
#X obj 102 355 random 8;
#X obj 102 377 select 0 1 2 3 4 5 6 7;
#X obj 3 442 outlet;
#X obj 45 442 outlet;
#X obj 87 442 outlet;
#X obj 129 442 outlet;
#X obj 171 442 outlet;
#X obj 213 442 outlet;
#X obj 255 442 outlet;
#X obj 297 442 outlet;
#X connect 0 0 19 0;
#X connect 0 0 24 0;
#X connect 1 0 13 1;
#X connect 2 0 9 0;
#X connect 3 0 10 0;
#X connect 4 0 11 0;
#X connect 5 0 12 0;
#X connect 6 0 8 0;
#X connect 7 0 1 0;
#X connect 8 0 14 1;
#X connect 9 0 15 1;
#X connect 10 0 16 1;
#X connect 11 0 17 1;
#X connect 12 0 18 1;
#X connect 13 0 0 1;
#X connect 14 0 0 1;
#X connect 15 0 0 1;
#X connect 16 0 0 1;
#X connect 17 0 0 1;
#X connect 18 0 0 1;
#X connect 19 0 20 0;
#X connect 20 0 13 0;
#X connect 20 1 14 0;
#X connect 20 2 15 0;
#X connect 20 3 16 0;
#X connect 20 4 17 0;
#X connect 20 5 18 0;
#X connect 21 0 7 0;
#X connect 21 0 6 0;
#X connect 21 0 2 0;
#X connect 21 0 3 0;
#X connect 21 0 4 0;
#X connect 21 0 5 0;
#X connect 21 1 1 1;
#X connect 21 1 8 1;
#X connect 21 1 9 1;
#X connect 21 1 10 1;
#X connect 21 1 11 1;
#X connect 21 1 12 1;
#X connect 22 0 21 0;
#X connect 23 0 0 0;
#X connect 24 0 25 0;
#X connect 25 0 26 0;
#X connect 25 1 27 0;
#X connect 25 2 28 0;
#X connect 25 3 29 0;
#X connect 25 4 30 0;
#X connect 25 5 31 0;
#X connect 25 6 32 0;
#X connect 25 7 33 0;
#X restore -52 147 pd secuenciadornucleo;
#N canvas 571 87 450 472 secuenciadornucleo 0;
#X obj 47 281 metro 1000;
#X obj 113 206 /;
#X msg 52 111 60000;
#X msg 62 131 30000;
#X msg 72 151 15000;
#X msg 82 171 7500;
#X msg 42 91 120000;
#X msg 32 71 240000;
#X obj 137 206 /;
#X obj 161 206 /;
#X obj 185 206 /;
#X obj 209 206 /;
#X obj 233 206 /;
#X obj 113 256 f;
#X obj 137 256 f;
#X obj 161 256 f;
#X obj 185 256 f;
#X obj 209 256 f;
#X obj 233 256 f;
#X obj 47 303 random 6;
#X obj 47 325 select 0 1 2 3 4 5;
#X obj 68 42 t b f;
#X obj 7 9 inlet;
#X obj 47 9 inlet;
#X obj 102 355 random 8;
#X obj 102 377 select 0 1 2 3 4 5 6 7;
#X obj 3 442 outlet;
#X obj 45 442 outlet;
#X obj 87 442 outlet;
#X obj 129 442 outlet;
#X obj 171 442 outlet;
#X obj 213 442 outlet;
#X obj 255 442 outlet;
#X obj 297 442 outlet;
#X connect 0 0 19 0;
#X connect 0 0 24 0;
#X connect 1 0 13 1;
#X connect 2 0 9 0;
#X connect 3 0 10 0;
#X connect 4 0 11 0;
#X connect 5 0 12 0;
#X connect 6 0 8 0;
#X connect 7 0 1 0;
#X connect 8 0 14 1;
#X connect 9 0 15 1;
#X connect 10 0 16 1;
#X connect 11 0 17 1;
#X connect 12 0 18 1;
#X connect 13 0 0 1;
#X connect 14 0 0 1;
#X connect 15 0 0 1;
#X connect 16 0 0 1;
#X connect 17 0 0 1;
#X connect 18 0 0 1;
#X connect 19 0 20 0;
#X connect 20 0 13 0;
#X connect 20 1 14 0;
#X connect 20 2 15 0;
#X connect 20 3 16 0;
#X connect 20 4 17 0;
#X connect 20 5 18 0;
#X connect 21 0 7 0;
#X connect 21 0 6 0;
#X connect 21 0 2 0;
#X connect 21 0 3 0;
#X connect 21 0 4 0;
#X connect 21 0 5 0;
#X connect 21 1 1 1;
#X connect 21 1 8 1;
#X connect 21 1 9 1;
#X connect 21 1 10 1;
#X connect 21 1 11 1;
#X connect 21 1 12 1;
#X connect 22 0 21 0;
#X connect 23 0 0 0;
#X connect 24 0 25 0;
#X connect 25 0 26 0;
#X connect 25 1 27 0;
#X connect 25 2 28 0;
#X connect 25 3 29 0;
#X connect 25 4 30 0;
#X connect 25 5 31 0;
#X connect 25 6 32 0;
#X connect 25 7 33 0;
#X restore -52 187 pd secuenciadornucleo;
#N canvas 279 169 712 300 distribuidordeamplificaciones 0;
#X obj 174 203 *~;
#X obj 204 203 *~;
#X obj 234 203 *~;
#X obj 264 203 *~;
#X obj 294 203 *~;
#X obj 324 203 *~;
#X obj 354 203 *~;
#X obj 384 203 *~;
#X obj 7 6 inlet;
#X obj 7 28 t b b;
#X msg 7 63 0;
#X msg 17 83 1;
#X obj 47 6 inlet;
#X obj 47 28 t b b;
#X msg 47 63 0;
#X msg 57 83 1;
#X obj 87 6 inlet;
#X obj 87 28 t b b;
#X msg 87 63 0;
#X msg 97 83 1;
#X obj 127 6 inlet;
#X obj 127 28 t b b;
#X msg 127 63 0;
#X msg 137 83 1;
#X obj 167 6 inlet;
#X obj 167 28 t b b;
#X msg 167 63 0;
#X msg 177 83 1;
#X obj 207 6 inlet;
#X obj 207 28 t b b;
#X msg 207 63 0;
#X msg 217 83 1;
#X obj 247 6 inlet;
#X obj 247 28 t b b;
#X msg 247 63 0;
#X msg 257 83 1;
#X obj 287 6 inlet;
#X obj 287 28 t b b;
#X msg 287 63 0;
#X msg 297 83 1;
#X obj 130 250 outlet~;
#X obj 180 250 outlet~;
#X obj 230 250 outlet~;
#X obj 280 250 outlet~;
#X obj 330 250 outlet~;
#X obj 380 250 outlet~;
#X obj 430 250 outlet~;
#X obj 480 250 outlet~;
#X obj 333 6 inlet~;
#X obj 378 6 inlet~;
#X obj 423 6 inlet~;
#X obj 468 6 inlet~;
#X obj 513 6 inlet~;
#X obj 558 6 inlet~;
#X obj 603 6 inlet~;
#X obj 648 6 inlet~;
#X connect 0 0 40 0;
#X connect 1 0 41 0;
#X connect 2 0 42 0;
#X connect 3 0 43 0;
#X connect 4 0 44 0;
#X connect 5 0 45 0;
#X connect 6 0 46 0;
#X connect 7 0 47 0;
#X connect 8 0 9 0;
#X connect 9 0 11 0;
#X connect 9 1 10 0;
#X connect 10 0 1 1;
#X connect 10 0 2 1;
#X connect 10 0 3 1;
#X connect 10 0 4 1;
#X connect 10 0 5 1;
#X connect 10 0 6 1;
#X connect 10 0 7 1;
#X connect 11 0 0 1;
#X connect 12 0 13 0;
#X connect 13 0 15 0;
#X connect 13 1 14 0;
#X connect 14 0 0 1;
#X connect 14 0 2 1;
#X connect 14 0 3 1;
#X connect 14 0 4 1;
#X connect 14 0 5 1;
#X connect 14 0 6 1;
#X connect 14 0 7 1;
#X connect 15 0 1 1;
#X connect 16 0 17 0;
#X connect 17 0 19 0;
#X connect 17 1 18 0;
#X connect 18 0 0 1;
#X connect 18 0 1 1;
#X connect 18 0 3 1;
#X connect 18 0 4 1;
#X connect 18 0 5 1;
#X connect 18 0 6 1;
#X connect 18 0 7 1;
#X connect 19 0 2 1;
#X connect 20 0 21 0;
#X connect 21 0 23 0;
#X connect 21 1 22 0;
#X connect 22 0 0 1;
#X connect 22 0 1 1;
#X connect 22 0 2 1;
#X connect 22 0 4 1;
#X connect 22 0 5 1;
#X connect 22 0 6 1;
#X connect 22 0 7 1;
#X connect 23 0 3 1;
#X connect 24 0 25 0;
#X connect 25 0 27 0;
#X connect 25 1 26 0;
#X connect 26 0 0 1;
#X connect 26 0 1 1;
#X connect 26 0 2 1;
#X connect 26 0 3 1;
#X connect 26 0 5 1;
#X connect 26 0 6 1;
#X connect 26 0 7 1;
#X connect 27 0 4 1;
#X connect 28 0 29 0;
#X connect 29 0 31 0;
#X connect 29 1 30 0;
#X connect 30 0 0 1;
#X connect 30 0 1 1;
#X connect 30 0 2 1;
#X connect 30 0 3 1;
#X connect 30 0 4 1;
#X connect 30 0 6 1;
#X connect 30 0 7 1;
#X connect 31 0 5 1;
#X connect 32 0 33 0;
#X connect 33 0 35 0;
#X connect 33 1 34 0;
#X connect 34 0 0 1;
#X connect 34 0 1 1;
#X connect 34 0 2 1;
#X connect 34 0 3 1;
#X connect 34 0 4 1;
#X connect 34 0 5 1;
#X connect 34 0 7 1;
#X connect 35 0 6 1;
#X connect 36 0 37 0;
#X connect 37 0 39 0;
#X connect 37 1 38 0;
#X connect 38 0 0 1;
#X connect 38 0 1 1;
#X connect 38 0 2 1;
#X connect 38 0 3 1;
#X connect 38 0 4 1;
#X connect 38 0 5 1;
#X connect 38 0 6 1;
#X connect 39 0 7 1;
#X connect 48 0 0 0;
#X connect 49 0 1 0;
#X connect 50 0 2 0;
#X connect 51 0 3 0;
#X connect 52 0 4 0;
#X connect 53 0 5 0;
#X connect 54 0 6 0;
#X connect 55 0 7 0;
#X restore 14 363 pd distribuidordeamplificaciones;
#N canvas 279 169 712 300 distribuidordeamplificaciones 0;
#X obj 174 203 *~;
#X obj 204 203 *~;
#X obj 234 203 *~;
#X obj 264 203 *~;
#X obj 294 203 *~;
#X obj 324 203 *~;
#X obj 354 203 *~;
#X obj 384 203 *~;
#X obj 7 6 inlet;
#X obj 7 28 t b b;
#X msg 7 63 0;
#X msg 17 83 1;
#X obj 47 6 inlet;
#X obj 47 28 t b b;
#X msg 47 63 0;
#X msg 57 83 1;
#X obj 87 6 inlet;
#X obj 87 28 t b b;
#X msg 87 63 0;
#X msg 97 83 1;
#X obj 127 6 inlet;
#X obj 127 28 t b b;
#X msg 127 63 0;
#X msg 137 83 1;
#X obj 167 6 inlet;
#X obj 167 28 t b b;
#X msg 167 63 0;
#X msg 177 83 1;
#X obj 207 6 inlet;
#X obj 207 28 t b b;
#X msg 207 63 0;
#X msg 217 83 1;
#X obj 247 6 inlet;
#X obj 247 28 t b b;
#X msg 247 63 0;
#X msg 257 83 1;
#X obj 287 6 inlet;
#X obj 287 28 t b b;
#X msg 287 63 0;
#X msg 297 83 1;
#X obj 130 250 outlet~;
#X obj 180 250 outlet~;
#X obj 230 250 outlet~;
#X obj 280 250 outlet~;
#X obj 330 250 outlet~;
#X obj 380 250 outlet~;
#X obj 430 250 outlet~;
#X obj 480 250 outlet~;
#X obj 333 6 inlet~;
#X obj 378 6 inlet~;
#X obj 423 6 inlet~;
#X obj 468 6 inlet~;
#X obj 513 6 inlet~;
#X obj 558 6 inlet~;
#X obj 603 6 inlet~;
#X obj 648 6 inlet~;
#X connect 0 0 40 0;
#X connect 1 0 41 0;
#X connect 2 0 42 0;
#X connect 3 0 43 0;
#X connect 4 0 44 0;
#X connect 5 0 45 0;
#X connect 6 0 46 0;
#X connect 7 0 47 0;
#X connect 8 0 9 0;
#X connect 9 0 11 0;
#X connect 9 1 10 0;
#X connect 10 0 1 1;
#X connect 10 0 2 1;
#X connect 10 0 3 1;
#X connect 10 0 4 1;
#X connect 10 0 5 1;
#X connect 10 0 6 1;
#X connect 10 0 7 1;
#X connect 11 0 0 1;
#X connect 12 0 13 0;
#X connect 13 0 15 0;
#X connect 13 1 14 0;
#X connect 14 0 0 1;
#X connect 14 0 2 1;
#X connect 14 0 3 1;
#X connect 14 0 4 1;
#X connect 14 0 5 1;
#X connect 14 0 6 1;
#X connect 14 0 7 1;
#X connect 15 0 1 1;
#X connect 16 0 17 0;
#X connect 17 0 19 0;
#X connect 17 1 18 0;
#X connect 18 0 0 1;
#X connect 18 0 1 1;
#X connect 18 0 3 1;
#X connect 18 0 4 1;
#X connect 18 0 5 1;
#X connect 18 0 6 1;
#X connect 18 0 7 1;
#X connect 19 0 2 1;
#X connect 20 0 21 0;
#X connect 21 0 23 0;
#X connect 21 1 22 0;
#X connect 22 0 0 1;
#X connect 22 0 1 1;
#X connect 22 0 2 1;
#X connect 22 0 4 1;
#X connect 22 0 5 1;
#X connect 22 0 6 1;
#X connect 22 0 7 1;
#X connect 23 0 3 1;
#X connect 24 0 25 0;
#X connect 25 0 27 0;
#X connect 25 1 26 0;
#X connect 26 0 0 1;
#X connect 26 0 1 1;
#X connect 26 0 2 1;
#X connect 26 0 3 1;
#X connect 26 0 5 1;
#X connect 26 0 6 1;
#X connect 26 0 7 1;
#X connect 27 0 4 1;
#X connect 28 0 29 0;
#X connect 29 0 31 0;
#X connect 29 1 30 0;
#X connect 30 0 0 1;
#X connect 30 0 1 1;
#X connect 30 0 2 1;
#X connect 30 0 3 1;
#X connect 30 0 4 1;
#X connect 30 0 6 1;
#X connect 30 0 7 1;
#X connect 31 0 5 1;
#X connect 32 0 33 0;
#X connect 33 0 35 0;
#X connect 33 1 34 0;
#X connect 34 0 0 1;
#X connect 34 0 1 1;
#X connect 34 0 2 1;
#X connect 34 0 3 1;
#X connect 34 0 4 1;
#X connect 34 0 5 1;
#X connect 34 0 7 1;
#X connect 35 0 6 1;
#X connect 36 0 37 0;
#X connect 37 0 39 0;
#X connect 37 1 38 0;
#X connect 38 0 0 1;
#X connect 38 0 1 1;
#X connect 38 0 2 1;
#X connect 38 0 3 1;
#X connect 38 0 4 1;
#X connect 38 0 5 1;
#X connect 38 0 6 1;
#X connect 39 0 7 1;
#X connect 48 0 0 0;
#X connect 49 0 1 0;
#X connect 50 0 2 0;
#X connect 51 0 3 0;
#X connect 52 0 4 0;
#X connect 53 0 5 0;
#X connect 54 0 6 0;
#X connect 55 0 7 0;
#X restore 214 363 pd distribuidordeamplificaciones;
#N canvas 279 169 712 300 distribuidordeamplificaciones 0;
#X obj 174 203 *~;
#X obj 204 203 *~;
#X obj 234 203 *~;
#X obj 264 203 *~;
#X obj 294 203 *~;
#X obj 324 203 *~;
#X obj 354 203 *~;
#X obj 384 203 *~;
#X obj 7 6 inlet;
#X obj 7 28 t b b;
#X msg 7 63 0;
#X msg 17 83 1;
#X obj 47 6 inlet;
#X obj 47 28 t b b;
#X msg 47 63 0;
#X msg 57 83 1;
#X obj 87 6 inlet;
#X obj 87 28 t b b;
#X msg 87 63 0;
#X msg 97 83 1;
#X obj 127 6 inlet;
#X obj 127 28 t b b;
#X msg 127 63 0;
#X msg 137 83 1;
#X obj 167 6 inlet;
#X obj 167 28 t b b;
#X msg 167 63 0;
#X msg 177 83 1;
#X obj 207 6 inlet;
#X obj 207 28 t b b;
#X msg 207 63 0;
#X msg 217 83 1;
#X obj 247 6 inlet;
#X obj 247 28 t b b;
#X msg 247 63 0;
#X msg 257 83 1;
#X obj 287 6 inlet;
#X obj 287 28 t b b;
#X msg 287 63 0;
#X msg 297 83 1;
#X obj 130 250 outlet~;
#X obj 180 250 outlet~;
#X obj 230 250 outlet~;
#X obj 280 250 outlet~;
#X obj 330 250 outlet~;
#X obj 380 250 outlet~;
#X obj 430 250 outlet~;
#X obj 480 250 outlet~;
#X obj 333 6 inlet~;
#X obj 378 6 inlet~;
#X obj 423 6 inlet~;
#X obj 468 6 inlet~;
#X obj 513 6 inlet~;
#X obj 558 6 inlet~;
#X obj 603 6 inlet~;
#X obj 648 6 inlet~;
#X connect 0 0 40 0;
#X connect 1 0 41 0;
#X connect 2 0 42 0;
#X connect 3 0 43 0;
#X connect 4 0 44 0;
#X connect 5 0 45 0;
#X connect 6 0 46 0;
#X connect 7 0 47 0;
#X connect 8 0 9 0;
#X connect 9 0 11 0;
#X connect 9 1 10 0;
#X connect 10 0 1 1;
#X connect 10 0 2 1;
#X connect 10 0 3 1;
#X connect 10 0 4 1;
#X connect 10 0 5 1;
#X connect 10 0 6 1;
#X connect 10 0 7 1;
#X connect 11 0 0 1;
#X connect 12 0 13 0;
#X connect 13 0 15 0;
#X connect 13 1 14 0;
#X connect 14 0 0 1;
#X connect 14 0 2 1;
#X connect 14 0 3 1;
#X connect 14 0 4 1;
#X connect 14 0 5 1;
#X connect 14 0 6 1;
#X connect 14 0 7 1;
#X connect 15 0 1 1;
#X connect 16 0 17 0;
#X connect 17 0 19 0;
#X connect 17 1 18 0;
#X connect 18 0 0 1;
#X connect 18 0 1 1;
#X connect 18 0 3 1;
#X connect 18 0 4 1;
#X connect 18 0 5 1;
#X connect 18 0 6 1;
#X connect 18 0 7 1;
#X connect 19 0 2 1;
#X connect 20 0 21 0;
#X connect 21 0 23 0;
#X connect 21 1 22 0;
#X connect 22 0 0 1;
#X connect 22 0 1 1;
#X connect 22 0 2 1;
#X connect 22 0 4 1;
#X connect 22 0 5 1;
#X connect 22 0 6 1;
#X connect 22 0 7 1;
#X connect 23 0 3 1;
#X connect 24 0 25 0;
#X connect 25 0 27 0;
#X connect 25 1 26 0;
#X connect 26 0 0 1;
#X connect 26 0 1 1;
#X connect 26 0 2 1;
#X connect 26 0 3 1;
#X connect 26 0 5 1;
#X connect 26 0 6 1;
#X connect 26 0 7 1;
#X connect 27 0 4 1;
#X connect 28 0 29 0;
#X connect 29 0 31 0;
#X connect 29 1 30 0;
#X connect 30 0 0 1;
#X connect 30 0 1 1;
#X connect 30 0 2 1;
#X connect 30 0 3 1;
#X connect 30 0 4 1;
#X connect 30 0 6 1;
#X connect 30 0 7 1;
#X connect 31 0 5 1;
#X connect 32 0 33 0;
#X connect 33 0 35 0;
#X connect 33 1 34 0;
#X connect 34 0 0 1;
#X connect 34 0 1 1;
#X connect 34 0 2 1;
#X connect 34 0 3 1;
#X connect 34 0 4 1;
#X connect 34 0 5 1;
#X connect 34 0 7 1;
#X connect 35 0 6 1;
#X connect 36 0 37 0;
#X connect 37 0 39 0;
#X connect 37 1 38 0;
#X connect 38 0 0 1;
#X connect 38 0 1 1;
#X connect 38 0 2 1;
#X connect 38 0 3 1;
#X connect 38 0 4 1;
#X connect 38 0 5 1;
#X connect 38 0 6 1;
#X connect 39 0 7 1;
#X connect 48 0 0 0;
#X connect 49 0 1 0;
#X connect 50 0 2 0;
#X connect 51 0 3 0;
#X connect 52 0 4 0;
#X connect 53 0 5 0;
#X connect 54 0 6 0;
#X connect 55 0 7 0;
#X restore 413 363 pd distribuidordeamplificaciones;
#N canvas 279 169 712 300 distribuidordeamplificaciones 0;
#X obj 174 203 *~;
#X obj 204 203 *~;
#X obj 234 203 *~;
#X obj 264 203 *~;
#X obj 294 203 *~;
#X obj 324 203 *~;
#X obj 354 203 *~;
#X obj 384 203 *~;
#X obj 7 6 inlet;
#X obj 7 28 t b b;
#X msg 7 63 0;
#X msg 17 83 1;
#X obj 47 6 inlet;
#X obj 47 28 t b b;
#X msg 47 63 0;
#X msg 57 83 1;
#X obj 87 6 inlet;
#X obj 87 28 t b b;
#X msg 87 63 0;
#X msg 97 83 1;
#X obj 127 6 inlet;
#X obj 127 28 t b b;
#X msg 127 63 0;
#X msg 137 83 1;
#X obj 167 6 inlet;
#X obj 167 28 t b b;
#X msg 167 63 0;
#X msg 177 83 1;
#X obj 207 6 inlet;
#X obj 207 28 t b b;
#X msg 207 63 0;
#X msg 217 83 1;
#X obj 247 6 inlet;
#X obj 247 28 t b b;
#X msg 247 63 0;
#X msg 257 83 1;
#X obj 287 6 inlet;
#X obj 287 28 t b b;
#X msg 287 63 0;
#X msg 297 83 1;
#X obj 130 250 outlet~;
#X obj 180 250 outlet~;
#X obj 230 250 outlet~;
#X obj 280 250 outlet~;
#X obj 330 250 outlet~;
#X obj 380 250 outlet~;
#X obj 430 250 outlet~;
#X obj 480 250 outlet~;
#X obj 333 6 inlet~;
#X obj 378 6 inlet~;
#X obj 423 6 inlet~;
#X obj 468 6 inlet~;
#X obj 513 6 inlet~;
#X obj 558 6 inlet~;
#X obj 603 6 inlet~;
#X obj 648 6 inlet~;
#X connect 0 0 40 0;
#X connect 1 0 41 0;
#X connect 2 0 42 0;
#X connect 3 0 43 0;
#X connect 4 0 44 0;
#X connect 5 0 45 0;
#X connect 6 0 46 0;
#X connect 7 0 47 0;
#X connect 8 0 9 0;
#X connect 9 0 11 0;
#X connect 9 1 10 0;
#X connect 10 0 1 1;
#X connect 10 0 2 1;
#X connect 10 0 3 1;
#X connect 10 0 4 1;
#X connect 10 0 5 1;
#X connect 10 0 6 1;
#X connect 10 0 7 1;
#X connect 11 0 0 1;
#X connect 12 0 13 0;
#X connect 13 0 15 0;
#X connect 13 1 14 0;
#X connect 14 0 0 1;
#X connect 14 0 2 1;
#X connect 14 0 3 1;
#X connect 14 0 4 1;
#X connect 14 0 5 1;
#X connect 14 0 6 1;
#X connect 14 0 7 1;
#X connect 15 0 1 1;
#X connect 16 0 17 0;
#X connect 17 0 19 0;
#X connect 17 1 18 0;
#X connect 18 0 0 1;
#X connect 18 0 1 1;
#X connect 18 0 3 1;
#X connect 18 0 4 1;
#X connect 18 0 5 1;
#X connect 18 0 6 1;
#X connect 18 0 7 1;
#X connect 19 0 2 1;
#X connect 20 0 21 0;
#X connect 21 0 23 0;
#X connect 21 1 22 0;
#X connect 22 0 0 1;
#X connect 22 0 1 1;
#X connect 22 0 2 1;
#X connect 22 0 4 1;
#X connect 22 0 5 1;
#X connect 22 0 6 1;
#X connect 22 0 7 1;
#X connect 23 0 3 1;
#X connect 24 0 25 0;
#X connect 25 0 27 0;
#X connect 25 1 26 0;
#X connect 26 0 0 1;
#X connect 26 0 1 1;
#X connect 26 0 2 1;
#X connect 26 0 3 1;
#X connect 26 0 5 1;
#X connect 26 0 6 1;
#X connect 26 0 7 1;
#X connect 27 0 4 1;
#X connect 28 0 29 0;
#X connect 29 0 31 0;
#X connect 29 1 30 0;
#X connect 30 0 0 1;
#X connect 30 0 1 1;
#X connect 30 0 2 1;
#X connect 30 0 3 1;
#X connect 30 0 4 1;
#X connect 30 0 6 1;
#X connect 30 0 7 1;
#X connect 31 0 5 1;
#X connect 32 0 33 0;
#X connect 33 0 35 0;
#X connect 33 1 34 0;
#X connect 34 0 0 1;
#X connect 34 0 1 1;
#X connect 34 0 2 1;
#X connect 34 0 3 1;
#X connect 34 0 4 1;
#X connect 34 0 5 1;
#X connect 34 0 7 1;
#X connect 35 0 6 1;
#X connect 36 0 37 0;
#X connect 37 0 39 0;
#X connect 37 1 38 0;
#X connect 38 0 0 1;
#X connect 38 0 1 1;
#X connect 38 0 2 1;
#X connect 38 0 3 1;
#X connect 38 0 4 1;
#X connect 38 0 5 1;
#X connect 38 0 6 1;
#X connect 39 0 7 1;
#X connect 48 0 0 0;
#X connect 49 0 1 0;
#X connect 50 0 2 0;
#X connect 51 0 3 0;
#X connect 52 0 4 0;
#X connect 53 0 5 0;
#X connect 54 0 6 0;
#X connect 55 0 7 0;
#X restore 614 363 pd distribuidordeamplificaciones;
#X obj 401 427 *~;
#X obj 505 449 line~;
#X msg 505 430 \$1 20;
#X obj 398 6 inlet~;
#X obj 401 449 outlet~;
#X obj 398 123 bp~ 100 100;
#X obj 468 123 bp~ 200 100;
#X obj 528 123 bp~ 300 100;
#X obj 588 123 bp~ 400 100;
#X obj 648 123 bp~ 500 100;
#X obj 708 123 bp~ 600 100;
#X obj 768 123 bp~ 700 100;
#X obj 828 123 bp~ 800 100;
#X obj 398 173 bp~ 900 100;
#X obj 458 173 bp~ 1000 100;
#X obj 524 173 bp~ 1100 100;
#X obj 590 173 bp~ 1200 100;
#X obj 656 173 bp~ 1300 100;
#X obj 722 173 bp~ 1400 100;
#X obj 788 173 bp~ 1500 100;
#X obj 854 173 bp~ 1600 100;
#X obj 398 223 bp~ 1700 100;
#X obj 464 223 bp~ 1800 100;
#X obj 530 223 bp~ 1900 100;
#X obj 596 223 bp~ 2000 100;
#X obj 662 223 bp~ 2100 100;
#X obj 728 223 bp~ 2200 100;
#X obj 794 223 bp~ 2300 100;
#X obj 860 223 bp~ 2400 100;
#X obj 398 273 bp~ 2500 100;
#X obj 464 273 bp~ 2600 100;
#X obj 530 273 bp~ 2700 100;
#X obj 596 273 bp~ 2800 100;
#X obj 662 273 bp~ 2900 100;
#X obj 728 273 bp~ 3000 100;
#X obj 794 273 bp~ 3100 100;
#X obj 860 273 bp~ 3200 100;
#X obj 138 123 bng 15 250 50 0 empty empty empty 17 7 0 10 -1 -3707
-1;
#X obj 154 123 bng 15 250 50 0 empty empty empty 17 7 0 10 -1 -3707
-1;
#X obj 170 123 bng 15 250 50 0 empty empty empty 17 7 0 10 -1 -3707
-1;
#X obj 186 123 bng 15 250 50 0 empty empty empty 17 7 0 10 -1 -3707
-1;
#X obj 202 123 bng 15 250 50 0 empty empty empty 17 7 0 10 -1 -3707
-1;
#X obj 218 123 bng 15 250 50 0 empty empty empty 17 7 0 10 -1 -3707
-1;
#X obj 234 123 bng 15 250 50 0 empty empty empty 17 7 0 10 -1 -3707
-1;
#X obj 250 123 bng 15 250 50 0 empty empty empty 17 7 0 10 -1 -3707
-1;
#X obj 138 139 bng 15 250 50 0 empty empty empty 17 7 0 10 -1 -3707
-1;
#X obj 154 139 bng 15 250 50 0 empty empty empty 17 7 0 10 -1 -3707
-1;
#X obj 170 139 bng 15 250 50 0 empty empty empty 17 7 0 10 -1 -3707
-1;
#X obj 186 139 bng 15 250 50 0 empty empty empty 17 7 0 10 -1 -3707
-1;
#X obj 202 139 bng 15 250 50 0 empty empty empty 17 7 0 10 -1 -3707
-1;
#X obj 218 139 bng 15 250 50 0 empty empty empty 17 7 0 10 -1 -3707
-1;
#X obj 234 139 bng 15 250 50 0 empty empty empty 17 7 0 10 -1 -3707
-1;
#X obj 250 139 bng 15 250 50 0 empty empty empty 17 7 0 10 -1 -3707
-1;
#X obj 138 155 bng 15 250 50 0 empty empty empty 17 7 0 10 -1 -3707
-1;
#X obj 154 155 bng 15 250 50 0 empty empty empty 17 7 0 10 -1 -3707
-1;
#X obj 170 155 bng 15 250 50 0 empty empty empty 17 7 0 10 -1 -3707
-1;
#X obj 186 155 bng 15 250 50 0 empty empty empty 17 7 0 10 -1 -3707
-1;
#X obj 202 155 bng 15 250 50 0 empty empty empty 17 7 0 10 -1 -3707
-1;
#X obj 218 155 bng 15 250 50 0 empty empty empty 17 7 0 10 -1 -3707
-1;
#X obj 234 155 bng 15 250 50 0 empty empty empty 17 7 0 10 -1 -3707
-1;
#X obj 250 155 bng 15 250 50 0 empty empty empty 17 7 0 10 -1 -3707
-1;
#X obj 138 171 bng 15 250 50 0 empty empty empty 17 7 0 10 -1 -3707
-1;
#X obj 154 171 bng 15 250 50 0 empty empty empty 17 7 0 10 -1 -3707
-1;
#X obj 170 171 bng 15 250 50 0 empty empty empty 17 7 0 10 -1 -3707
-1;
#X obj 186 171 bng 15 250 50 0 empty empty empty 17 7 0 10 -1 -3707
-1;
#X obj 202 171 bng 15 250 50 0 empty empty empty 17 7 0 10 -1 -3707
-1;
#X obj 218 171 bng 15 250 50 0 empty empty empty 17 7 0 10 -1 -3707
-1;
#X obj 234 171 bng 15 250 50 0 empty empty empty 17 7 0 10 -1 -3707
-1;
#X obj 250 171 bng 15 250 50 0 empty empty empty 17 7 0 10 -1 -3707
-1;
#N canvas 452 274 450 300 selectordefrecuenciassobrefundamental 0;
#X obj 9 10 inlet;
#X text 47 12 fundamental;
#X obj 9 40 mtof;
#X obj 9 71 * 1;
#X obj 39 71 * 2;
#X obj 69 71 * 3;
#X obj 99 71 * 4;
#X obj 129 71 * 5;
#X obj 159 71 * 6;
#X obj 189 71 * 7;
#X obj 219 71 * 8;
#X obj 249 71 * 9;
#X obj 279 71 * 10;
#X obj 309 71 * 11;
#X obj 339 71 * 12;
#X obj 19 101 * 13;
#X obj 49 101 * 14;
#X obj 79 101 * 15;
#X obj 4 176 outlet;
#X obj 46 176 outlet;
#X obj 88 176 outlet;
#X obj 130 176 outlet;
#X obj 172 176 outlet;
#X obj 214 176 outlet;
#X obj 256 176 outlet;
#X obj 298 176 outlet;
#X obj 14 196 outlet;
#X obj 56 196 outlet;
#X obj 98 196 outlet;
#X obj 140 196 outlet;
#X obj 182 196 outlet;
#X obj 224 196 outlet;
#X obj 266 196 outlet;
#X obj 308 196 outlet;
#X obj 109 101 * 16;
#X connect 0 0 2 0;
#X connect 2 0 3 0;
#X connect 2 0 4 0;
#X connect 2 0 5 0;
#X connect 2 0 6 0;
#X connect 2 0 7 0;
#X connect 2 0 8 0;
#X connect 2 0 9 0;
#X connect 2 0 10 0;
#X connect 2 0 11 0;
#X connect 2 0 12 0;
#X connect 2 0 13 0;
#X connect 2 0 14 0;
#X connect 2 0 15 0;
#X connect 2 0 16 0;
#X connect 2 0 17 0;
#X connect 2 0 34 0;
#X connect 3 0 18 0;
#X connect 4 0 19 0;
#X connect 5 0 20 0;
#X connect 6 0 21 0;
#X connect 7 0 22 0;
#X connect 8 0 23 0;
#X connect 9 0 24 0;
#X connect 10 0 25 0;
#X connect 11 0 26 0;
#X connect 12 0 27 0;
#X connect 13 0 28 0;
#X connect 14 0 29 0;
#X connect 15 0 30 0;
#X connect 16 0 31 0;
#X connect 17 0 32 0;
#X connect 34 0 33 0;
#X restore 441 7 pd selectordefrecuenciassobrefundamental;
#N canvas 452 274 450 300 selectordefrecuenciassobrefundamental 0;
#X obj 9 10 inlet;
#X text 47 12 fundamental;
#X obj 9 40 mtof;
#X obj 4 176 outlet;
#X obj 46 176 outlet;
#X obj 88 176 outlet;
#X obj 130 176 outlet;
#X obj 172 176 outlet;
#X obj 214 176 outlet;
#X obj 256 176 outlet;
#X obj 298 176 outlet;
#X obj 14 196 outlet;
#X obj 56 196 outlet;
#X obj 98 196 outlet;
#X obj 140 196 outlet;
#X obj 182 196 outlet;
#X obj 224 196 outlet;
#X obj 266 196 outlet;
#X obj 308 196 outlet;
#X obj 9 71 * 17;
#X obj 39 71 * 18;
#X obj 69 71 * 19;
#X obj 99 71 * 20;
#X obj 129 71 * 21;
#X obj 159 71 * 22;
#X obj 189 71 * 23;
#X obj 219 71 * 24;
#X obj 249 71 * 25;
#X obj 279 71 * 26;
#X obj 309 71 * 27;
#X obj 339 71 * 28;
#X obj 19 101 * 29;
#X obj 49 101 * 30;
#X obj 79 101 * 31;
#X obj 109 101 * 32;
#X connect 0 0 2 0;
#X connect 2 0 19 0;
#X connect 2 0 20 0;
#X connect 2 0 21 0;
#X connect 2 0 22 0;
#X connect 2 0 23 0;
#X connect 2 0 24 0;
#X connect 2 0 25 0;
#X connect 2 0 26 0;
#X connect 2 0 27 0;
#X connect 2 0 28 0;
#X connect 2 0 29 0;
#X connect 2 0 30 0;
#X connect 2 0 31 0;
#X connect 2 0 32 0;
#X connect 2 0 33 0;
#X connect 2 0 34 0;
#X connect 19 0 3 0;
#X connect 20 0 4 0;
#X connect 21 0 5 0;
#X connect 22 0 6 0;
#X connect 23 0 7 0;
#X connect 24 0 8 0;
#X connect 25 0 9 0;
#X connect 26 0 10 0;
#X connect 27 0 11 0;
#X connect 28 0 12 0;
#X connect 29 0 13 0;
#X connect 30 0 14 0;
#X connect 31 0 15 0;
#X connect 32 0 16 0;
#X connect 33 0 17 0;
#X connect 34 0 18 0;
#X restore 696 7 pd selectordefrecuenciassobrefundamental;
#X floatatom 267 148 3 0 127 0 - - -, f 3;
#X obj 552 425 / 100;
#X obj 267 127 tgl 10 0 empty empty on 0 14 1 9 -66577 -3707 -1 1 1
;
#X obj 114 25 s initsec;
#X obj 157 70 t b f;
#X obj 208 13 loadbang;
#X msg 269 45 1;
#X connect 1 0 87 0;
#X connect 6 0 7 0;
#X connect 6 0 8 0;
#X connect 6 0 9 0;
#X connect 6 0 10 0;
#X connect 7 0 11 0;
#X connect 7 0 52 0;
#X connect 7 1 11 1;
#X connect 7 1 61 0;
#X connect 7 2 11 2;
#X connect 7 2 70 0;
#X connect 7 3 11 3;
#X connect 7 3 79 0;
#X connect 7 4 11 4;
#X connect 7 4 53 0;
#X connect 7 5 11 5;
#X connect 7 5 62 0;
#X connect 7 6 11 6;
#X connect 7 6 71 0;
#X connect 7 7 11 7;
#X connect 7 7 80 0;
#X connect 8 0 12 0;
#X connect 8 0 54 0;
#X connect 8 1 12 1;
#X connect 8 1 63 0;
#X connect 8 2 12 2;
#X connect 8 2 72 0;
#X connect 8 3 12 3;
#X connect 8 3 81 0;
#X connect 8 4 12 4;
#X connect 8 4 55 0;
#X connect 8 5 12 5;
#X connect 8 5 64 0;
#X connect 8 6 12 6;
#X connect 8 6 73 0;
#X connect 8 7 12 7;
#X connect 8 7 82 0;
#X connect 9 0 13 0;
#X connect 9 0 83 0;
#X connect 9 1 13 1;
#X connect 9 1 74 0;
#X connect 9 2 13 2;
#X connect 9 2 65 0;
#X connect 9 3 13 3;
#X connect 9 3 56 0;
#X connect 9 4 13 4;
#X connect 9 4 60 0;
#X connect 9 5 13 5;
#X connect 9 5 69 0;
#X connect 9 6 13 6;
#X connect 9 6 75 0;
#X connect 9 7 13 7;
#X connect 9 7 66 0;
#X connect 10 0 14 0;
#X connect 10 0 78 0;
#X connect 10 1 14 1;
#X connect 10 1 57 0;
#X connect 10 2 14 2;
#X connect 10 2 68 0;
#X connect 10 3 14 3;
#X connect 10 3 77 0;
#X connect 10 4 14 4;
#X connect 10 4 76 0;
#X connect 10 5 14 5;
#X connect 10 5 58 0;
#X connect 10 6 14 6;
#X connect 10 6 67 0;
#X connect 10 7 14 7;
#X connect 10 7 59 0;
#X connect 11 0 15 0;
#X connect 11 1 15 0;
#X connect 11 2 15 0;
#X connect 11 3 15 0;
#X connect 11 4 15 0;
#X connect 11 5 15 0;
#X connect 11 6 15 0;
#X connect 11 7 15 0;
#X connect 12 0 15 0;
#X connect 12 1 15 0;
#X connect 12 2 15 0;
#X connect 12 3 15 0;
#X connect 12 4 15 0;
#X connect 12 5 15 0;
#X connect 12 6 15 0;
#X connect 12 7 15 0;
#X connect 13 0 15 0;
#X connect 13 1 15 0;
#X connect 13 2 15 0;
#X connect 13 3 15 0;
#X connect 13 4 15 0;
#X connect 13 5 15 0;
#X connect 13 6 15 0;
#X connect 13 7 15 0;
#X connect 14 0 15 0;
#X connect 14 1 15 0;
#X connect 14 2 15 0;
#X connect 14 3 15 0;
#X connect 14 4 15 0;
#X connect 14 5 15 0;
#X connect 14 6 15 0;
#X connect 14 7 15 0;
#X connect 15 0 19 0;
#X connect 16 0 15 1;
#X connect 17 0 16 0;
#X connect 18 0 20 0;
#X connect 18 0 21 0;
#X connect 18 0 22 0;
#X connect 18 0 23 0;
#X connect 18 0 24 0;
#X connect 18 0 25 0;
#X connect 18 0 26 0;
#X connect 18 0 27 0;
#X connect 18 0 28 0;
#X connect 18 0 29 0;
#X connect 18 0 30 0;
#X connect 18 0 31 0;
#X connect 18 0 32 0;
#X connect 18 0 33 0;
#X connect 18 0 34 0;
#X connect 18 0 35 0;
#X connect 18 0 36 0;
#X connect 18 0 37 0;
#X connect 18 0 38 0;
#X connect 18 0 39 0;
#X connect 18 0 40 0;
#X connect 18 0 41 0;
#X connect 18 0 42 0;
#X connect 18 0 43 0;
#X connect 18 0 44 0;
#X connect 18 0 45 0;
#X connect 18 0 46 0;
#X connect 18 0 47 0;
#X connect 18 0 48 0;
#X connect 18 0 49 0;
#X connect 18 0 50 0;
#X connect 18 0 51 0;
#X connect 20 0 11 8;
#X connect 21 0 11 9;
#X connect 22 0 11 10;
#X connect 23 0 11 11;
#X connect 24 0 11 12;
#X connect 25 0 11 13;
#X connect 26 0 11 14;
#X connect 27 0 11 15;
#X connect 28 0 12 8;
#X connect 29 0 12 9;
#X connect 30 0 12 10;
#X connect 31 0 12 11;
#X connect 32 0 12 12;
#X connect 33 0 12 13;
#X connect 34 0 12 14;
#X connect 35 0 12 15;
#X connect 36 0 13 8;
#X connect 37 0 13 9;
#X connect 38 0 13 10;
#X connect 39 0 13 11;
#X connect 40 0 13 12;
#X connect 41 0 13 13;
#X connect 42 0 13 14;
#X connect 43 0 13 15;
#X connect 44 0 14 8;
#X connect 45 0 14 9;
#X connect 46 0 14 10;
#X connect 47 0 14 11;
#X connect 48 0 14 12;
#X connect 49 0 14 13;
#X connect 50 0 14 14;
#X connect 51 0 14 15;
#X connect 84 0 20 1;
#X connect 84 1 21 1;
#X connect 84 2 22 1;
#X connect 84 3 23 1;
#X connect 84 4 24 1;
#X connect 84 5 25 1;
#X connect 84 6 26 1;
#X connect 84 7 27 1;
#X connect 84 8 28 1;
#X connect 84 9 29 1;
#X connect 84 10 30 1;
#X connect 84 11 31 1;
#X connect 84 12 32 1;
#X connect 84 13 33 1;
#X connect 84 14 34 1;
#X connect 84 15 35 1;
#X connect 85 0 36 1;
#X connect 85 1 37 1;
#X connect 85 2 38 1;
#X connect 85 3 39 1;
#X connect 85 4 40 1;
#X connect 85 5 41 1;
#X connect 85 6 42 1;
#X connect 85 7 43 1;
#X connect 85 8 44 1;
#X connect 85 9 45 1;
#X connect 85 10 46 1;
#X connect 85 11 47 1;
#X connect 85 12 48 1;
#X connect 85 13 49 1;
#X connect 85 14 50 1;
#X connect 85 15 51 1;
#X connect 86 0 84 0;
#X connect 86 0 85 0;
#X connect 87 0 17 0;
#X connect 88 0 90 0;
#X connect 90 0 7 1;
#X connect 90 0 8 1;
#X connect 90 0 9 1;
#X connect 90 0 10 1;
#X connect 90 1 89 0;
#X connect 91 0 92 0;
#X connect 92 0 88 0;
#X coords 0 -1 1 1 191 102 2 100 100;
