#N canvas 0 54 1024 546 10;
#X obj 103 103 cnv 15 99 96 empty empty empty 20 12 0 14 -3707 -66577
0;
#X obj 114 127 cnv 8 24 8 empty empty wave 2 4 1 9 -3707 -1 0;
#X obj 128 143 cnv 8 22 8 empty empty sin 2 4 1 9 -3707 -1 0;
#X obj 178 191 cnv 8 10 8 empty empty hz 2 4 1 9 -3707 -1 0;
#X obj 105 105 cnv 12 94 12 empty empty modPAN 2 7 1 9 -66577 -3707
0;
#X obj 289 10 inlet~;
#X obj 252 112 *~;
#X obj 352 112 *~;
#X obj 226 189 outlet~;
#X obj 366 189 outlet~;
#X obj 566 137 osc~ 1;
#X obj 566 159 +~ 1;
#X obj 566 201 snapshot~;
#X obj 566 181 *~ 0.5;
#X obj 566 251 pipe 500;
#X obj 278 94 line~;
#X obj 378 94 line~;
#X msg 278 74 \$1 20;
#X msg 378 74 \$1 20;
#X floatatom 511 6 5 0 0 0 - - -, f 5;
#X obj 519 80 /;
#X msg 486 58 1000;
#X obj 511 25 t b f;
#X obj 519 100 / 2;
#X obj 652 137 phasor~ 1;
#X obj 652 159 snapshot~;
#X obj 652 211 pipe 500;
#X obj 566 229 spigot;
#X obj 652 189 spigot;
#X obj 117 142 vradio 10 1 0 2 empty empty empty 0 -8 0 10 -66577 -4032
-1 1;
#X obj 767 81 select 0 1;
#X obj 767 103 t b b;
#X obj 807 103 t b b;
#X msg 767 125 1;
#X msg 807 125 1;
#X msg 794 147 0;
#X msg 834 147 0;
#X obj 626 12 loadbang;
#X msg 626 34 1;
#X obj 169 122 vsl 30 64 0 4 0 0 empty empty empty 0 -9 0 10 -66577
-3707 -1 1575 1;
#X obj 128 153 cnv 8 22 8 empty empty saw 2 4 1 9 -3707 -1 0;
#X obj 626 64 metro 50;
#X connect 5 0 6 0;
#X connect 5 0 7 0;
#X connect 6 0 8 0;
#X connect 7 0 9 0;
#X connect 10 0 11 0;
#X connect 11 0 13 0;
#X connect 12 0 27 0;
#X connect 13 0 12 0;
#X connect 14 0 18 0;
#X connect 15 0 6 1;
#X connect 16 0 7 1;
#X connect 17 0 15 0;
#X connect 18 0 16 0;
#X connect 19 0 22 0;
#X connect 19 0 10 0;
#X connect 19 0 24 0;
#X connect 20 0 23 0;
#X connect 21 0 20 0;
#X connect 22 0 21 0;
#X connect 22 1 20 1;
#X connect 23 0 14 1;
#X connect 23 0 26 1;
#X connect 24 0 25 0;
#X connect 25 0 28 0;
#X connect 26 0 18 0;
#X connect 27 0 14 0;
#X connect 27 0 17 0;
#X connect 28 0 26 0;
#X connect 28 0 17 0;
#X connect 29 0 30 0;
#X connect 30 0 31 0;
#X connect 30 1 32 0;
#X connect 31 0 33 0;
#X connect 31 1 35 0;
#X connect 32 0 34 0;
#X connect 32 1 36 0;
#X connect 33 0 27 1;
#X connect 34 0 28 1;
#X connect 35 0 28 1;
#X connect 36 0 27 1;
#X connect 37 0 38 0;
#X connect 38 0 29 0;
#X connect 38 0 39 0;
#X connect 38 0 41 0;
#X connect 39 0 19 0;
#X connect 41 0 12 0;
#X connect 41 0 25 0;
#X coords 0 -1 1 1 104 102 2 100 100;
