#N canvas 262 141 759 436 10;
#X obj 103 103 cnv 15 99 96 empty empty empty 20 12 0 14 -3707 -66577
0;
#X obj 257 32 inlet~;
#X obj 281 109 *~;
#X obj 316 89 *~;
#X obj 355 88 line~;
#X msg 355 67 \$1 20;
#X obj 355 47 / 127;
#X obj 315 55 osc~;
#X obj 266 162 outlet~;
#X obj 162 365 * 1;
#X obj 197 265 / 12;
#X obj 134 33 loadbang;
#X obj 204 327 t b f;
#X msg 131 69 127;
#X obj 105 122 vsl 30 64 0 127 0 0 empty empty empty 0 -9 0 10 -66577
-3707 -1 6300 1;
#X obj 137 122 vsl 30 64 1 120 0 0 empty empty empty 0 -9 0 10 -66577
-3707 -1 0 1;
#X obj 169 122 vsl 30 64 1 120 0 0 empty empty empty 0 -9 0 10 -66577
-3707 -1 0 1;
#X obj 108 191 cnv 8 24 8 empty empty amp 2 4 1 9 -3707 -1 0;
#X obj 143 191 cnv 8 24 8 empty empty rate 2 4 1 9 -3707 -1 0;
#X obj 172 191 cnv 8 26 8 empty empty multi 2 4 1 9 -3707 -1 0;
#X obj 105 105 cnv 12 94 12 empty empty modRING 2 7 1 9 -66577 -3707
0;
#X connect 1 0 2 0;
#X connect 2 0 8 0;
#X connect 3 0 2 1;
#X connect 4 0 3 1;
#X connect 5 0 4 0;
#X connect 6 0 5 0;
#X connect 7 0 3 0;
#X connect 9 0 7 0;
#X connect 10 0 12 0;
#X connect 11 0 13 0;
#X connect 12 0 15 0;
#X connect 12 1 9 1;
#X connect 13 0 14 0;
#X connect 14 0 6 0;
#X connect 15 0 9 0;
#X connect 16 0 10 0;
#X coords 0 -1 1 1 104 102 2 100 100;
