#N canvas 0 54 1024 546 10;
#X obj 103 103 cnv 15 67 96 empty empty empty 20 12 0 14 -3707 -66577
0;
#X obj 248 36 inlet~;
#X obj 280 164 *~;
#X obj 281 238 outlet~;
#X obj 355 75 osc~;
#X obj 355 119 +~ 1;
#X obj 356 146 *~ 0.5;
#X obj 426 118 line~;
#X obj 355 97 *~;
#X msg 426 94 \$1 20;
#X obj 105 122 vsl 30 64 0 127 0 0 empty empty empty 0 -9 0 10 -66577
-3707 -1 0 1;
#X obj 426 72 / 127;
#X obj 137 122 vsl 30 64 1 20 0 0 empty empty empty 0 -9 0 10 -66577
-3707 -1 0 1;
#X obj 108 191 cnv 8 24 8 empty empty amp 2 4 1 9 -3707 -1 0;
#X obj 141 191 cnv 8 24 8 empty empty rate 2 4 1 9 -3707 -1 0;
#X obj 105 105 cnv 12 62 12 empty empty modtremolo 2 7 1 9 -66577 -3707
0;
#X connect 1 0 2 0;
#X connect 2 0 3 0;
#X connect 4 0 8 0;
#X connect 5 0 6 0;
#X connect 6 0 2 1;
#X connect 7 0 8 1;
#X connect 8 0 5 0;
#X connect 9 0 7 0;
#X connect 10 0 11 0;
#X connect 11 0 9 0;
#X connect 12 0 4 0;
#X coords 0 -1 1 1 72 102 2 100 100;
