#N canvas 0 54 1024 546 10;
#X obj 102 102 cnv 15 296 16 empty empty empty 20 12 0 14 -1 -66577
0;
#X obj 117 103 cnv 14 15 14 empty empty on 2 8 1 10 -1 -3707 0;
#X obj 156 103 cnv 14 24 14 empty empty bpm 2 8 1 10 -1 -3707 0;
#X obj 215 103 cnv 14 18 14 empty empty hh 2 8 1 10 -1 -3707 0;
#X obj 349 103 cnv 14 22 14 empty empty cpu 2 8 1 10 -1 -3707 0;
#X obj 134 105 bng 10 100 50 0 empty empty empty 17 7 0 10 -1 -3707
-1;
#X obj 102 205 send bpm;
#X obj 33 205 send onseq;
#X obj 211 178 metro;
#X obj 135 19 r initsec;
#X obj 404 64 loadbang;
#X msg 404 85 1;
#X obj 404 106 metro 1000;
#X obj 404 127 t b b;
#X obj 404 148 cputime;
#X obj 404 168 int;
#X obj 404 188 * 0.1;
#X msg 205 79 101;
#X obj 263 179 t b f;
#X obj 267 218 /;
#X msg 207 216 60000;
#X obj 33 137 t f b;
#X obj 211 57 select 0;
#X msg 519 175 \; pd dsp 1;
#X obj 178 103 nbx 3 14 1 999 0 0 empty empty empty 0 -8 0 10 -1 -3707
-1 101 256;
#X obj 369 103 nbx 2 14 -1e+37 1e+37 0 0 empty empty empty 0 -8 0 10
-1 -3707 -1 5 256;
#X obj 104 104 cnv 12 12 12 empty empty empty 20 12 0 14 -3707 -66577
0;
#X obj 105 105 tgl 10 0 empty empty empty 17 7 0 10 -1 -3707 -1 0 1
;
#N canvas 504 145 450 300 generadordepulsoredonda 0;
#X obj 14 16 inlet;
#X text 52 17 on/off;
#X obj 153 16 inlet;
#X text 190 15 valor bpm;
#X obj 71 132 metro;
#X obj 71 154 f;
#X obj 104 155 + 1;
#X obj 71 176 s pbar;
#X obj 153 38 t b f;
#X obj 153 85 /;
#X msg 119 61 240000;
#X obj 47 50 select 0;
#X msg 66 82 0;
#X connect 0 0 4 0;
#X connect 0 0 11 0;
#X connect 2 0 8 0;
#X connect 4 0 5 0;
#X connect 5 0 6 0;
#X connect 5 0 7 0;
#X connect 6 0 5 1;
#X connect 8 0 10 0;
#X connect 8 1 9 1;
#X connect 9 0 4 1;
#X connect 10 0 9 0;
#X connect 11 0 12 0;
#X connect 12 0 5 1;
#X restore 65 309 pd generadordepulsoredonda;
#X obj 105 273 t f b;
#N canvas 501 150 450 300 generadordepulsoblanca 0;
#X obj 14 16 inlet;
#X text 52 17 on/off;
#X obj 153 16 inlet;
#X text 190 15 valor bpm;
#X obj 71 132 metro;
#X obj 71 154 f;
#X obj 104 155 + 1;
#X obj 153 38 t b f;
#X obj 153 85 /;
#X obj 47 50 select 0;
#X msg 66 82 0;
#X msg 119 61 120000;
#X obj 71 176 s pblanca;
#X connect 0 0 4 0;
#X connect 0 0 9 0;
#X connect 2 0 7 0;
#X connect 4 0 5 0;
#X connect 5 0 6 0;
#X connect 5 0 12 0;
#X connect 6 0 5 1;
#X connect 7 0 11 0;
#X connect 7 1 8 1;
#X connect 8 0 4 1;
#X connect 9 0 10 0;
#X connect 10 0 5 1;
#X connect 11 0 8 0;
#X restore 85 329 pd generadordepulsoblanca;
#N canvas 501 150 450 300 generadordepulsonegra 0;
#X obj 14 16 inlet;
#X text 52 17 on/off;
#X obj 153 16 inlet;
#X text 190 15 valor bpm;
#X obj 71 132 metro;
#X obj 71 154 f;
#X obj 104 155 + 1;
#X obj 153 38 t b f;
#X obj 153 85 /;
#X obj 47 50 select 0;
#X msg 66 82 0;
#X msg 119 61 60000;
#X obj 71 176 s pnegra;
#X connect 0 0 4 0;
#X connect 0 0 9 0;
#X connect 2 0 7 0;
#X connect 4 0 5 0;
#X connect 5 0 6 0;
#X connect 5 0 12 0;
#X connect 6 0 5 1;
#X connect 7 0 11 0;
#X connect 7 1 8 1;
#X connect 8 0 4 1;
#X connect 9 0 10 0;
#X connect 10 0 5 1;
#X connect 11 0 8 0;
#X restore 105 349 pd generadordepulsonegra;
#N canvas 501 150 450 300 generadordepulsocorchea 0;
#X obj 14 16 inlet;
#X text 52 17 on/off;
#X obj 153 16 inlet;
#X text 190 15 valor bpm;
#X obj 71 132 metro;
#X obj 71 154 f;
#X obj 104 155 + 1;
#X obj 153 38 t b f;
#X obj 153 85 /;
#X obj 47 50 select 0;
#X msg 66 82 0;
#X msg 119 61 30000;
#X obj 71 176 s pcorchea;
#X connect 0 0 4 0;
#X connect 0 0 9 0;
#X connect 2 0 7 0;
#X connect 4 0 5 0;
#X connect 5 0 6 0;
#X connect 5 0 12 0;
#X connect 6 0 5 1;
#X connect 7 0 11 0;
#X connect 7 1 8 1;
#X connect 8 0 4 1;
#X connect 9 0 10 0;
#X connect 10 0 5 1;
#X connect 11 0 8 0;
#X restore 125 369 pd generadordepulsocorchea;
#N canvas 501 150 450 300 generadordepulsosemicorchea 0;
#X obj 14 16 inlet;
#X text 52 17 on/off;
#X obj 153 16 inlet;
#X text 190 15 valor bpm;
#X obj 71 132 metro;
#X obj 71 154 f;
#X obj 104 155 + 1;
#X obj 153 38 t b f;
#X obj 153 85 /;
#X obj 47 50 select 0;
#X msg 66 82 0;
#X msg 119 61 15000;
#X obj 71 176 s pscorchea;
#X connect 0 0 4 0;
#X connect 0 0 9 0;
#X connect 2 0 7 0;
#X connect 4 0 5 0;
#X connect 5 0 6 0;
#X connect 5 0 12 0;
#X connect 6 0 5 1;
#X connect 7 0 11 0;
#X connect 7 1 8 1;
#X connect 8 0 4 1;
#X connect 9 0 10 0;
#X connect 10 0 5 1;
#X connect 11 0 8 0;
#X restore 145 389 pd generadordepulsosemicorchea;
#N canvas 501 150 450 300 generadordepulsofusa 0;
#X obj 14 16 inlet;
#X text 52 17 on/off;
#X obj 153 16 inlet;
#X text 190 15 valor bpm;
#X obj 71 132 metro;
#X obj 71 154 f;
#X obj 104 155 + 1;
#X obj 153 38 t b f;
#X obj 153 85 /;
#X obj 47 50 select 0;
#X msg 66 82 0;
#X obj 71 176 s pfusa;
#X msg 119 61 7500;
#X connect 0 0 4 0;
#X connect 0 0 9 0;
#X connect 2 0 7 0;
#X connect 4 0 5 0;
#X connect 5 0 6 0;
#X connect 5 0 11 0;
#X connect 6 0 5 1;
#X connect 7 0 12 0;
#X connect 7 1 8 1;
#X connect 8 0 4 1;
#X connect 9 0 10 0;
#X connect 10 0 5 1;
#X connect 12 0 8 0;
#X restore 165 409 pd generadordepulsofusa;
#N canvas 498 155 450 300 generadordepulsoredondadiv3 0;
#X obj 14 16 inlet;
#X text 52 17 on/off;
#X obj 153 16 inlet;
#X text 190 15 valor bpm;
#X obj 71 132 metro;
#X obj 71 154 f;
#X obj 104 155 + 1;
#X obj 153 38 t b f;
#X obj 153 85 /;
#X msg 119 61 240000;
#X obj 47 50 select 0;
#X msg 66 82 0;
#X obj 153 114 / 3;
#X obj 71 176 s pbardiv3;
#X connect 0 0 4 0;
#X connect 0 0 10 0;
#X connect 2 0 7 0;
#X connect 4 0 5 0;
#X connect 5 0 6 0;
#X connect 5 0 13 0;
#X connect 6 0 5 1;
#X connect 7 0 9 0;
#X connect 7 1 8 1;
#X connect 8 0 12 0;
#X connect 9 0 8 0;
#X connect 10 0 11 0;
#X connect 11 0 5 1;
#X connect 12 0 4 1;
#X restore 314 307 pd generadordepulsoredondadiv3;
#N canvas 495 160 450 300 generadordepulsoredondadiv5 0;
#X obj 14 16 inlet;
#X text 52 17 on/off;
#X obj 153 16 inlet;
#X text 190 15 valor bpm;
#X obj 71 132 metro;
#X obj 71 154 f;
#X obj 104 155 + 1;
#X obj 153 38 t b f;
#X obj 153 85 /;
#X msg 119 61 240000;
#X obj 47 50 select 0;
#X msg 66 82 0;
#X obj 153 114 / 5;
#X obj 71 176 s pbardiv5;
#X connect 0 0 4 0;
#X connect 0 0 10 0;
#X connect 2 0 7 0;
#X connect 4 0 5 0;
#X connect 5 0 6 0;
#X connect 5 0 13 0;
#X connect 6 0 5 1;
#X connect 7 0 9 0;
#X connect 7 1 8 1;
#X connect 8 0 12 0;
#X connect 9 0 8 0;
#X connect 10 0 11 0;
#X connect 11 0 5 1;
#X connect 12 0 4 1;
#X restore 324 327 pd generadordepulsoredondadiv5;
#N canvas 492 165 450 300 generadordepulsoredondadiv6 0;
#X obj 14 16 inlet;
#X text 52 17 on/off;
#X obj 153 16 inlet;
#X text 190 15 valor bpm;
#X obj 71 132 metro;
#X obj 71 154 f;
#X obj 104 155 + 1;
#X obj 153 38 t b f;
#X obj 153 85 /;
#X msg 119 61 240000;
#X obj 47 50 select 0;
#X msg 66 82 0;
#X obj 153 114 / 6;
#X obj 71 176 s pbardiv6;
#X connect 0 0 4 0;
#X connect 0 0 10 0;
#X connect 2 0 7 0;
#X connect 4 0 5 0;
#X connect 5 0 6 0;
#X connect 5 0 13 0;
#X connect 6 0 5 1;
#X connect 7 0 9 0;
#X connect 7 1 8 1;
#X connect 8 0 12 0;
#X connect 9 0 8 0;
#X connect 10 0 11 0;
#X connect 11 0 5 1;
#X connect 12 0 4 1;
#X restore 334 347 pd generadordepulsoredondadiv6;
#N canvas 489 170 450 300 generadordepulsoredondadiv7 0;
#X obj 14 16 inlet;
#X text 52 17 on/off;
#X obj 153 16 inlet;
#X text 190 15 valor bpm;
#X obj 71 132 metro;
#X obj 71 154 f;
#X obj 104 155 + 1;
#X obj 153 38 t b f;
#X obj 153 85 /;
#X msg 119 61 240000;
#X obj 47 50 select 0;
#X msg 66 82 0;
#X obj 153 114 / 7;
#X obj 71 176 s pbardiv7;
#X connect 0 0 4 0;
#X connect 0 0 10 0;
#X connect 2 0 7 0;
#X connect 4 0 5 0;
#X connect 5 0 6 0;
#X connect 5 0 13 0;
#X connect 6 0 5 1;
#X connect 7 0 9 0;
#X connect 7 1 8 1;
#X connect 8 0 12 0;
#X connect 9 0 8 0;
#X connect 10 0 11 0;
#X connect 11 0 5 1;
#X connect 12 0 4 1;
#X restore 344 367 pd generadordepulsoredondadiv7;
#N canvas 538 178 450 300 generadordepulsoredondadiv9 0;
#X obj 14 16 inlet;
#X text 52 17 on/off;
#X obj 153 16 inlet;
#X text 190 15 valor bpm;
#X obj 71 132 metro;
#X obj 71 154 f;
#X obj 104 155 + 1;
#X obj 153 38 t b f;
#X obj 153 85 /;
#X msg 119 61 240000;
#X obj 47 50 select 0;
#X msg 66 82 0;
#X obj 153 114 / 9;
#X obj 71 176 s pbardiv9;
#X connect 0 0 4 0;
#X connect 0 0 10 0;
#X connect 2 0 7 0;
#X connect 4 0 5 0;
#X connect 5 0 6 0;
#X connect 5 0 13 0;
#X connect 6 0 5 1;
#X connect 7 0 9 0;
#X connect 7 1 8 1;
#X connect 8 0 12 0;
#X connect 9 0 8 0;
#X connect 10 0 11 0;
#X connect 11 0 5 1;
#X connect 12 0 4 1;
#X restore 354 387 pd generadordepulsoredondadiv9;
#N canvas 489 170 450 300 generadordepulsoredondadiv10 0;
#X obj 14 16 inlet;
#X text 52 17 on/off;
#X obj 153 16 inlet;
#X text 190 15 valor bpm;
#X obj 71 132 metro;
#X obj 71 154 f;
#X obj 104 155 + 1;
#X obj 153 38 t b f;
#X obj 153 85 /;
#X msg 119 61 240000;
#X obj 47 50 select 0;
#X msg 66 82 0;
#X obj 153 114 / 10;
#X obj 71 176 s pbardiv10;
#X connect 0 0 4 0;
#X connect 0 0 10 0;
#X connect 2 0 7 0;
#X connect 4 0 5 0;
#X connect 5 0 6 0;
#X connect 5 0 13 0;
#X connect 6 0 5 1;
#X connect 7 0 9 0;
#X connect 7 1 8 1;
#X connect 8 0 12 0;
#X connect 9 0 8 0;
#X connect 10 0 11 0;
#X connect 11 0 5 1;
#X connect 12 0 4 1;
#X restore 364 407 pd generadordepulsoredondadiv10;
#N canvas 489 170 450 300 generadordepulsoredondadiv11 0;
#X obj 14 16 inlet;
#X text 52 17 on/off;
#X obj 153 16 inlet;
#X text 190 15 valor bpm;
#X obj 71 132 metro;
#X obj 71 154 f;
#X obj 104 155 + 1;
#X obj 153 38 t b f;
#X obj 153 85 /;
#X msg 119 61 240000;
#X obj 47 50 select 0;
#X msg 66 82 0;
#X obj 153 114 / 11;
#X obj 71 176 s pbardiv11;
#X connect 0 0 4 0;
#X connect 0 0 10 0;
#X connect 2 0 7 0;
#X connect 4 0 5 0;
#X connect 5 0 6 0;
#X connect 5 0 13 0;
#X connect 6 0 5 1;
#X connect 7 0 9 0;
#X connect 7 1 8 1;
#X connect 8 0 12 0;
#X connect 9 0 8 0;
#X connect 10 0 11 0;
#X connect 11 0 5 1;
#X connect 12 0 4 1;
#X restore 374 427 pd generadordepulsoredondadiv11;
#N canvas 489 170 450 300 generadordepulsoredondadiv12 0;
#X obj 14 16 inlet;
#X text 52 17 on/off;
#X obj 153 16 inlet;
#X text 190 15 valor bpm;
#X obj 71 132 metro;
#X obj 71 154 f;
#X obj 104 155 + 1;
#X obj 153 38 t b f;
#X obj 153 85 /;
#X msg 119 61 240000;
#X obj 47 50 select 0;
#X msg 66 82 0;
#X obj 153 114 / 12;
#X obj 71 176 s pbardiv12;
#X connect 0 0 4 0;
#X connect 0 0 10 0;
#X connect 2 0 7 0;
#X connect 4 0 5 0;
#X connect 5 0 6 0;
#X connect 5 0 13 0;
#X connect 6 0 5 1;
#X connect 7 0 9 0;
#X connect 7 1 8 1;
#X connect 8 0 12 0;
#X connect 9 0 8 0;
#X connect 10 0 11 0;
#X connect 11 0 5 1;
#X connect 12 0 4 1;
#X restore 384 447 pd generadordepulsoredondadiv12;
#N canvas 489 170 450 300 generadordepulsoredondadiv13 0;
#X obj 14 16 inlet;
#X text 52 17 on/off;
#X obj 153 16 inlet;
#X text 190 15 valor bpm;
#X obj 71 132 metro;
#X obj 71 154 f;
#X obj 104 155 + 1;
#X obj 153 38 t b f;
#X obj 153 85 /;
#X msg 119 61 240000;
#X obj 47 50 select 0;
#X msg 66 82 0;
#X obj 153 114 / 13;
#X obj 71 176 s pbardiv13;
#X connect 0 0 4 0;
#X connect 0 0 10 0;
#X connect 2 0 7 0;
#X connect 4 0 5 0;
#X connect 5 0 6 0;
#X connect 5 0 13 0;
#X connect 6 0 5 1;
#X connect 7 0 9 0;
#X connect 7 1 8 1;
#X connect 8 0 12 0;
#X connect 9 0 8 0;
#X connect 10 0 11 0;
#X connect 11 0 5 1;
#X connect 12 0 4 1;
#X restore 394 467 pd generadordepulsoredondadiv13;
#N canvas 489 170 450 300 generadordepulsoredondadiv14 0;
#X obj 14 16 inlet;
#X text 52 17 on/off;
#X obj 153 16 inlet;
#X text 190 15 valor bpm;
#X obj 71 132 metro;
#X obj 71 154 f;
#X obj 104 155 + 1;
#X obj 153 38 t b f;
#X obj 153 85 /;
#X msg 119 61 240000;
#X obj 47 50 select 0;
#X msg 66 82 0;
#X obj 153 114 / 14;
#X obj 71 176 s pbardiv14;
#X connect 0 0 4 0;
#X connect 0 0 10 0;
#X connect 2 0 7 0;
#X connect 4 0 5 0;
#X connect 5 0 6 0;
#X connect 5 0 13 0;
#X connect 6 0 5 1;
#X connect 7 0 9 0;
#X connect 7 1 8 1;
#X connect 8 0 12 0;
#X connect 9 0 8 0;
#X connect 10 0 11 0;
#X connect 11 0 5 1;
#X connect 12 0 4 1;
#X restore 404 487 pd generadordepulsoredondadiv14;
#N canvas 489 170 450 300 generadordepulsoredondadiv15 0;
#X obj 14 16 inlet;
#X text 52 17 on/off;
#X obj 153 16 inlet;
#X text 190 15 valor bpm;
#X obj 71 132 metro;
#X obj 71 154 f;
#X obj 104 155 + 1;
#X obj 153 38 t b f;
#X obj 153 85 /;
#X msg 119 61 240000;
#X obj 47 50 select 0;
#X msg 66 82 0;
#X obj 153 114 / 15;
#X obj 71 176 s pbardiv15;
#X connect 0 0 4 0;
#X connect 0 0 10 0;
#X connect 2 0 7 0;
#X connect 4 0 5 0;
#X connect 5 0 6 0;
#X connect 5 0 13 0;
#X connect 6 0 5 1;
#X connect 7 0 9 0;
#X connect 7 1 8 1;
#X connect 8 0 12 0;
#X connect 9 0 8 0;
#X connect 10 0 11 0;
#X connect 11 0 5 1;
#X connect 12 0 4 1;
#X restore 414 507 pd generadordepulsoredondadiv15;
#X obj 139 50 select 1;
#N canvas 356 152 512 421 cronometro 0;
#X obj 92 94 metro 1000;
#X obj 92 116 f;
#X obj 92 138 + 1;
#X obj 92 164 mod 60;
#X obj 91 195 select 0;
#X obj 92 226 f;
#X obj 92 248 + 1;
#X msg 163 58 0;
#X obj 100 39 sel 0;
#X obj 92 270 mod 60;
#X obj 90 296 select 0;
#X obj 90 318 f;
#X obj 90 340 + 1;
#X obj 13 18 inlet;
#X obj 143 391 outlet;
#X obj 193 391 outlet;
#X obj 243 391 outlet;
#X obj 293 391 outlet;
#X obj 90 362 mod 10;
#X connect 0 0 1 0;
#X connect 1 0 2 0;
#X connect 2 0 1 1;
#X connect 2 0 3 0;
#X connect 3 0 4 0;
#X connect 3 0 16 0;
#X connect 4 0 5 0;
#X connect 5 0 6 0;
#X connect 6 0 5 1;
#X connect 6 0 9 0;
#X connect 7 0 1 1;
#X connect 7 0 5 1;
#X connect 7 0 11 1;
#X connect 7 0 17 0;
#X connect 8 0 7 0;
#X connect 9 0 10 0;
#X connect 9 0 15 0;
#X connect 10 0 11 0;
#X connect 11 0 12 0;
#X connect 12 0 11 1;
#X connect 12 0 18 0;
#X connect 13 0 0 0;
#X connect 13 0 8 0;
#X connect 18 0 14 0;
#X restore 277 24 pd cronometro;
#X obj 229 103 nbx 1 14 -1e+37 1e+37 0 0 empty empty empty 0 -8 0 10
-1 -3707 -1 0 256;
#X obj 251 103 cnv 14 18 14 empty empty mm 2 8 1 10 -1 -3707 0;
#X obj 270 103 nbx 2 14 -1e+37 1e+37 0 0 empty empty empty 0 -8 0 10
-1 -3707 -1 0 256;
#X obj 299 103 cnv 14 18 14 empty empty ss 2 8 1 10 -1 -3707 0;
#X obj 312 103 nbx 2 14 -1e+37 1e+37 0 0 empty empty empty 0 -8 0 10
-1 -3707 -1 0 256;
#X connect 8 0 5 0;
#X connect 9 0 46 0;
#X connect 10 0 11 0;
#X connect 10 0 17 0;
#X connect 10 0 23 0;
#X connect 11 0 12 0;
#X connect 12 0 13 0;
#X connect 13 0 14 0;
#X connect 13 1 14 1;
#X connect 14 0 15 0;
#X connect 15 0 16 0;
#X connect 16 0 25 0;
#X connect 17 0 24 0;
#X connect 18 0 20 0;
#X connect 18 1 19 1;
#X connect 19 0 8 1;
#X connect 20 0 19 0;
#X connect 21 0 7 0;
#X connect 21 1 24 0;
#X connect 24 0 6 0;
#X connect 24 0 18 0;
#X connect 24 0 28 1;
#X connect 24 0 30 1;
#X connect 24 0 31 1;
#X connect 24 0 32 1;
#X connect 24 0 33 1;
#X connect 24 0 34 1;
#X connect 24 0 35 1;
#X connect 24 0 36 1;
#X connect 24 0 37 1;
#X connect 24 0 38 1;
#X connect 24 0 39 1;
#X connect 24 0 40 1;
#X connect 24 0 41 1;
#X connect 24 0 42 1;
#X connect 24 0 43 1;
#X connect 24 0 44 1;
#X connect 24 0 45 1;
#X connect 27 0 21 0;
#X connect 27 0 8 0;
#X connect 27 0 22 0;
#X connect 27 0 29 0;
#X connect 27 0 47 0;
#X connect 29 0 28 0;
#X connect 29 0 30 0;
#X connect 29 0 31 0;
#X connect 29 0 32 0;
#X connect 29 0 33 0;
#X connect 29 0 34 0;
#X connect 29 0 35 0;
#X connect 29 0 36 0;
#X connect 29 0 37 0;
#X connect 29 0 38 0;
#X connect 29 0 39 0;
#X connect 29 0 40 0;
#X connect 29 0 41 0;
#X connect 29 0 42 0;
#X connect 29 0 43 0;
#X connect 29 0 44 0;
#X connect 29 0 45 0;
#X connect 29 1 24 0;
#X connect 46 0 24 0;
#X connect 47 0 48 0;
#X connect 47 1 50 0;
#X connect 47 2 52 0;
#X connect 47 3 48 0;
#X connect 47 3 50 0;
#X connect 47 3 52 0;
#X coords 0 -1 1 1 300 20 2 100 100;
