#N canvas 0 92 793 467 10;
#X obj 102 102 cnv 8 296 16 empty empty empty 20 12 0 14 -1 -66577
0;
#X obj 131 104 cnv 10 12 12 empty empty empty 20 12 0 14 -3707 -66577
0;
#X obj 132 105 tgl 10 0 empty empty rec-on 14 5 1 9 -1 -3707 -3707
0 1;
#X obj 177 103 bng 15 250 50 0 empty empty r 6 8 1 10 -1 -258113 -1
;
#X msg 371 173 start;
#X msg 420 172 stop;
#X obj 372 42 select 1;
#X obj 372 64 t b b;
#X obj 426 95 f;
#X obj 425 117 + 1;
#X msg 426 139 open proceso-rec\$1.wav;
#X obj 138 245 writesf~ 2;
#X obj 48 16 inlet~ ch-izquierdo;
#X obj 231 14 inlet~ ch-derecho;
#X obj 467 40 loadbang;
#X msg 467 62 0;
#X obj 136 54 metro 1000;
#X obj 104 105 cnv 8 10 8 empty empty inL 0 5 1 9 -1 -3707 0;
#X obj 381 105 cnv 8 10 8 empty empty inR 0 5 1 9 -1 -3707 0;
#N canvas 356 152 512 421 cronometro 0;
#X obj 92 94 metro 1000;
#X obj 92 116 f;
#X obj 92 138 + 1;
#X obj 92 164 mod 60;
#X obj 91 195 select 0;
#X obj 92 226 f;
#X obj 92 248 + 1;
#X msg 163 58 0;
#X obj 100 39 sel 0;
#X obj 92 270 mod 60;
#X obj 90 296 select 0;
#X obj 90 318 f;
#X obj 90 340 + 1;
#X obj 13 18 inlet;
#X obj 143 391 outlet;
#X obj 193 391 outlet;
#X obj 243 391 outlet;
#X obj 293 391 outlet;
#X obj 90 362 mod 10;
#X connect 0 0 1 0;
#X connect 1 0 2 0;
#X connect 2 0 1 1;
#X connect 2 0 3 0;
#X connect 3 0 4 0;
#X connect 3 0 16 0;
#X connect 4 0 5 0;
#X connect 5 0 6 0;
#X connect 6 0 5 1;
#X connect 6 0 9 0;
#X connect 7 0 1 1;
#X connect 7 0 5 1;
#X connect 7 0 11 1;
#X connect 7 0 17 0;
#X connect 8 0 7 0;
#X connect 9 0 10 0;
#X connect 9 0 15 0;
#X connect 10 0 11 0;
#X connect 11 0 12 0;
#X connect 12 0 11 1;
#X connect 12 0 18 0;
#X connect 13 0 0 0;
#X connect 13 0 8 0;
#X connect 18 0 14 0;
#X restore 240 54 pd cronometro;
#X obj 203 103 cnv 14 18 14 empty empty hh 2 8 1 10 -1 -3707 0;
#X obj 217 103 nbx 1 14 -1e+37 1e+37 0 0 empty empty empty 0 -8 0 10
-1 -3707 -1 0 256;
#X obj 239 103 cnv 14 18 14 empty empty mm 2 8 1 10 -1 -3707 0;
#X obj 258 103 nbx 2 14 -1e+37 1e+37 0 0 empty empty empty 0 -8 0 10
-1 -3707 -1 0 256;
#X obj 287 103 cnv 14 18 14 empty empty ss 2 8 1 10 -1 -3707 0;
#X obj 300 103 nbx 2 14 -1e+37 1e+37 0 0 empty empty empty 0 -8 0 10
-1 -3707 -1 0 256;
#X obj 350 103 nbx 2 14 -1e+37 1e+37 0 0 empty empty empty 0 -8 0 10
-1 -3707 -1 0 256;
#X obj 329 103 cnv 14 18 14 empty empty take 2 8 1 10 -1 -3707 0;
#X connect 2 0 6 0;
#X connect 2 0 16 0;
#X connect 2 0 19 0;
#X connect 4 0 11 0;
#X connect 5 0 11 0;
#X connect 6 0 7 0;
#X connect 6 1 5 0;
#X connect 7 0 4 0;
#X connect 7 1 8 0;
#X connect 8 0 9 0;
#X connect 8 0 10 0;
#X connect 8 0 26 0;
#X connect 9 0 8 1;
#X connect 10 0 11 0;
#X connect 12 0 11 0;
#X connect 13 0 11 1;
#X connect 14 0 15 0;
#X connect 15 0 8 1;
#X connect 16 0 3 0;
#X connect 19 0 21 0;
#X connect 19 1 23 0;
#X connect 19 2 25 0;
#X connect 19 3 21 0;
#X connect 19 3 23 0;
#X connect 19 3 25 0;
#X coords 0 -1 1 1 300 20 1 100 100;
