#N canvas 242 191 335 232 10;
#X obj 43 110 until;
#X obj 43 77 f \$1;
#X obj 43 163 f;
#X msg 58 138 0;
#X obj 43 22 inlet;
#X obj 43 191 outlet;
#X obj 72 163 + 1;
#X obj 43 48 t b b;
#X text 79 76 \$1 is argument: number of iterations;
#X connect 0 0 2 0;
#X connect 1 0 0 0;
#X connect 2 0 5 0;
#X connect 2 0 6 0;
#X connect 3 0 2 1;
#X connect 4 0 7 0;
#X connect 6 0 2 1;
#X connect 7 0 1 0;
#X connect 7 1 3 0;
