#N canvas 415 23 396 413 10;
#X obj 26 121 nilwind/MouseState;
#X msg 26 93 poll;
#X msg 68 93 nopoll;
#X obj 26 41 t b b;
#X obj 26 13 r \$1guisend;
#X obj 68 41 sel 0;
#X obj 273 182 t f f;
#N canvas 0 22 377 272 xy-deltas-------------- 0;
#X obj 31 40 inlet;
#X obj 84 39 inlet;
#X obj 133 39 inlet;
#X obj 31 217 outlet;
#X obj 31 118 spigot;
#X obj 84 118 spigot;
#X msg 133 71 0;
#X text 162 70 skip first value after mousedown;
#X msg 48 72 1;
#X msg 98 71 1;
#X obj 84 217 outlet;
#X connect 0 0 4 0;
#X connect 0 0 8 0;
#X connect 1 0 5 0;
#X connect 1 0 9 0;
#X connect 2 0 6 0;
#X connect 4 0 3 0;
#X connect 5 0 10 0;
#X connect 6 0 4 1;
#X connect 6 0 5 1;
#X connect 8 0 4 1;
#X connect 9 0 5 1;
#X restore 104 155 pd xy-deltas--------------;
#N canvas 0 22 220 232 help 0;
#X obj 21 32 inlet;
#X obj 103 33 inlet;
#X obj 21 87 symbol \$1;
#X msg 21 118 label \$1;
#X obj 21 183 s helpcanvas;
#X msg 34 151 label;
#X connect 0 0 2 0;
#X connect 1 0 5 0;
#X connect 2 0 3 0;
#X connect 3 0 4 0;
#X connect 5 0 4 0;
#X restore 42 69 pd help;
#N canvas 0 22 264 214 clipint 0;
#X obj 37 28 inlet;
#X obj 37 135 outlet;
#X obj 37 67 +;
#X obj 37 101 clip 0 475;
#X obj 76 28 inlet;
#X text 116 27 reset to absolute;
#X text 35 166 clipping integrator;
#X connect 0 0 2 0;
#X connect 2 0 3 0;
#X connect 3 0 1 0;
#X connect 3 0 2 1;
#X connect 4 0 3 0;
#X restore 104 238 pd clipint;
#N canvas 0 22 264 214 clipint 0;
#X obj 37 28 inlet;
#X obj 37 135 outlet;
#X obj 37 67 +;
#X obj 37 101 clip 0 475;
#X obj 76 28 inlet;
#X text 116 27 reset to absolute;
#X text 35 166 clipping integrator;
#X connect 0 0 2 0;
#X connect 2 0 3 0;
#X connect 3 0 1 0;
#X connect 3 0 2 1;
#X connect 4 0 3 0;
#X restore 257 238 pd clipint;
#N canvas 0 22 312 242 tabread 0;
#X obj 22 35 inlet;
#X obj 22 180 outlet;
#X obj 142 80 + 1;
#X obj 22 63 * 2;
#X obj 142 123 tabread \$1-presets;
#X obj 22 122 tabread \$1-presets;
#X obj 142 179 outlet;
#X connect 0 0 3 0;
#X connect 2 0 4 0;
#X connect 3 0 2 0;
#X connect 3 0 5 0;
#X connect 4 0 6 0;
#X connect 5 0 1 0;
#X restore 161 199 pd tabread;
#N canvas 0 22 379 192 tabwrite 0;
#X obj 30 36 inlet;
#X obj 294 99 + 1;
#X obj 294 72 * 2;
#X obj 30 126 tabwrite \$1-presets;
#X obj 183 127 tabwrite \$1-presets;
#X obj 183 38 inlet;
#X obj 294 36 inlet;
#X connect 0 0 3 0;
#X connect 1 0 4 1;
#X connect 2 0 1 0;
#X connect 2 0 3 1;
#X connect 5 0 4 0;
#X connect 6 0 2 0;
#X restore 237 290 pd tabwrite;
#N canvas 866 364 264 236 to-parameters 0;
#X obj 29 11 inlet;
#X obj 116 125 t b f;
#X obj 116 153 pack;
#X obj 29 93 * 0.00210526;
#X msg 116 182 \$1 \$2;
#X obj 116 210 s \$1;
#X text 208 93 map;
#X obj 116 8 inlet;
#X obj 116 34 moses 425;
#X msg 167 61 0;
#X obj 116 93 * -0.00235941;
#X obj 116 61 - 425;
#X connect 0 0 3 0;
#X connect 1 0 2 0;
#X connect 1 1 2 1;
#X connect 2 0 4 0;
#X connect 3 0 2 0;
#X connect 4 0 5 0;
#X connect 7 0 8 0;
#X connect 8 0 11 0;
#X connect 8 1 9 0;
#X connect 9 0 1 0;
#X connect 10 0 1 0;
#X connect 11 0 10 0;
#X restore 104 355 pd to-parameters;
#N canvas 0 22 266 185 to-yx-objects 0;
#X obj 81 97 pack;
#X obj 81 72 t b f;
#X msg 81 124 pos \$1 \$2;
#X obj 81 151 s \$1guireceive;
#X obj 26 34 inlet;
#X obj 81 34 inlet;
#X connect 0 0 2 0;
#X connect 1 0 0 0;
#X connect 1 1 0 1;
#X connect 2 0 3 0;
#X connect 4 0 0 0;
#X connect 5 0 1 0;
#X restore 164 324 pd to-yx-objects;
#X obj 273 154 r voicenumber;
#X connect 0 0 5 0;
#X connect 0 3 7 0;
#X connect 0 4 7 1;
#X connect 1 0 0 0;
#X connect 2 0 0 0;
#X connect 3 0 1 0;
#X connect 3 0 8 0;
#X connect 4 0 3 0;
#X connect 5 0 2 0;
#X connect 5 0 7 2;
#X connect 5 0 8 1;
#X connect 6 0 11 0;
#X connect 6 1 12 2;
#X connect 7 0 9 0;
#X connect 7 1 10 0;
#X connect 9 0 13 0;
#X connect 9 0 12 0;
#X connect 9 0 14 0;
#X connect 10 0 12 1;
#X connect 10 0 14 1;
#X connect 10 0 13 1;
#X connect 11 0 9 1;
#X connect 11 1 10 1;
#X connect 15 0 6 0;
