#N canvas 264 150 1204 846 10;
#X msg 55 40 0;
#X obj 221 381 send;
#X obj 213 104 symbol;
#X symbolatom 213 124 10 0 0 0 - - -;
#X symbolatom 50 638 15 0 0 2 Bccc B0ccc filename;
#X symbolatom 151 638 15 0 0 2 B1ccc B1ccc filename;
#X symbolatom 251 638 15 0 0 2 B2ccc B2ccc filename;
#X symbolatom 353 638 15 0 0 2 B3ccc B3ccc filename;
#X symbolatom 451 638 15 0 0 2 B4ccc B4ccc filename;
#X symbolatom 552 638 15 0 0 2 B5ccc B5ccc filename;
#X symbolatom 653 638 15 0 0 2 B6ccc B6ccc filename;
#X symbolatom 748 638 15 0 0 2 Bccv B0ccv filename;
#X symbolatom 846 638 15 0 0 2 B1ccv B1ccv filename;
#X symbolatom 53 670 15 0 0 2 Bcvc B0cvc filename;
#X symbolatom 153 670 15 0 0 2 Bcvv B0cvv filename;
#X symbolatom 252 670 15 0 0 2 Bvcc B0vcc filename;
#X symbolatom 353 670 15 0 0 2 B1vcc B1vcc filename;
#X symbolatom 452 670 15 0 0 2 Bvcv B0vcv filename;
#X symbolatom 652 670 15 0 0 2 Bvvv B0vvv filename;
#X symbolatom 752 670 15 0 0 2 B1vvv B1vvv filename;
#X obj 674 179 symbol;
#X symbolatom 673 204 10 0 0 0 - - -;
#X obj 512 339 send;
#X msg 551 66 0;
#X msg 595 67 1;
#X msg 91 40 1;
#X msg 126 42 2;
#X msg 162 42 3;
#X msg 198 43 4;
#X msg 235 42 5;
#X msg 269 40 6;
#X obj 769 319 send;
#X obj 864 102 symbol;
#X symbolatom 863 127 10 0 0 0 - - -;
#X msg 783 65 0;
#X msg 34 354 0;
#X msg 78 355 1;
#X obj 42 599 send;
#X obj 202 440 symbol;
#X symbolatom 201 465 10 0 0 0 - - -;
#X symbolatom 554 670 15 0 0 2 Bvvc B0vvc filename;
#X msg 682 311 0;
#X msg 726 312 1;
#X obj 860 433 symbol;
#X symbolatom 859 458 10 0 0 0 - - -;
#X obj 801 593 send;
#X obj 548 4 t b b b b b b b b b b b b b b b b b;
#X obj 443 6 bng 15 250 50 0 empty empty empty 17 7 0 10 -262144 -1
-1;
#X msg 39 212 mpBccc.wav;
#X msg 39 234 treBccc1.wav;
#X msg 39 256 treBccc2.wav;
#X msg 38 323 treBccc3.wav;
#X msg 38 278 treBccc4.wav;
#X msg 38 301 treBccc5.wav;
#X msg 121 211 sdBccc1.wav;
#X msg 122 235 sdBccc2.wav;
#X msg 124 258 kcBccc.wav;
#X obj 221 360 symbol;
#X obj 213 83 sprintf B%dccc;
#X msg 503 181 cbBccv.wav;
#X msg 504 203 mpBccv.wav;
#X msg 503 225 treBccv1.wav;
#X msg 502 248 treBccv2.wav;
#X msg 503 270 treBccv3.wav;
#X msg 582 205 sdBccv1.wav;
#X obj 515 318 symbol;
#X obj 674 159 sprintf B%dccv;
#X msg 771 173 jdBcvc1.wav;
#X msg 771 217 sglBcvc.wav;
#X msg 772 196 treBcvc2.wav;
#X obj 770 289 symbol;
#X obj 864 82 sprintf B%dcvc;
#X msg 1012 155 cbBcvv.wav;
#X msg 1014 176 jdBcvv1.wav;
#X msg 1015 197 mpBcvv.wav;
#X msg 1015 244 kcBcvv.wav;
#X obj 1013 290 symbol;
#X obj 202 420 sprintf B%dvcc;
#X msg 32 531 treBvcc3.wav;
#X obj 40 576 symbol;
#X msg 35 553 sdBvcc1.wav;
#X msg 311 462 cbBvcv.wav;
#X msg 310 507 mpBvcv.wav;
#X obj 308 574 symbol;
#X msg 471 514 treBvvc1.wav;
#X msg 468 468 sdBvvc1.wav;
#X msg 471 537 kcBvvc.wav;
#X msg 470 492 mtBvvc.wav;
#X obj 477 580 symbol;
#X msg 687 505 mpBvvv.wav;
#X msg 685 481 treBvvv3.wav;
#X msg 691 529 treBvvv4.wav;
#X obj 786 562 symbol;
#X obj 860 413 sprintf B%dvvv;
#X obj 367 5 inlet;
#X msg 773 434 smBvvv3.wav;
#X msg 774 411 smBvvv1.wav;
#X msg 310 530 smBvcv2.wav;
#X msg 309 485 smBvcv1.wav;
#X msg 34 510 smBvcc2.wav;
#X msg 36 491 smBvcc1.wav;
#X msg 775 242 smBcvc1.wav;
#X msg 128 281 mtBccc1.wav;
#X msg 128 302 sdBccc3.wav;
#X msg 126 327 sdBccc4.wav;
#X msg 203 192 kcBccc1.wav;
#X msg 203 214 kcBccc2.wav;
#X msg 203 235 kcBcccP1.wav;
#X msg 205 255 kcBcccP2.wav;
#X msg 206 280 kcBcccP3.wav;
#X msg 476 558 gdiBvvc.wav;
#X msg 308 553 gdiBvcv.wav;
#X msg 105 446 gdiBvcc1.wav;
#X msg 1014 222 gdiBcvv.wav;
#X msg 578 183 gdiBccv.wav;
#X msg 120 191 gdiBccc.wav;
#X msg 207 302 gdiBccc1.wav;
#X msg 209 328 gdiBccc2.wav;
#X msg 1015 266 treBcvv1.wav;
#X obj 1012 131 sel 0 1 2 3 4 5;
#X msg 503 291 treBccv4.wav;
#X msg 590 231 treBccv5.wav;
#X msg 292 261 treBccc9.wav;
#X msg 289 239 treBccc8.wav;
#X msg 288 213 treBccc7.wav;
#X msg 287 192 treBccc6.wav;
#X msg 591 253 tdBccv1.wav;
#X msg 32 466 mpBvccP1.wav;
#X msg 294 286 mpBccc1.wav;
#X msg 294 307 mpBccc2.wav;
#X msg 590 275 rnBccv1.wav;
#X obj 506 155 sel 0 1 2 3 4 5 6 7 8 9 10;
#X obj 550 128 shuffle 0 10;
#X msg 291 329 rnBccc1.wav;
#X msg 775 267 gdBcvcP1.wav;
#X obj 773 146 sel 0 1 2 3 4;
#X obj 783 121 shuffle 0 4;
#X msg 389 191 gdBccc1.wav;
#X msg 389 216 gdBccc2.wav;
#X msg 39 190 elBccc.wav;
#X msg 31 444 elBvcc.wav;
#X msg 690 435 csBvvv1.wav;
#X msg 689 457 csBvvv2.wav;
#X msg 689 413 cbBvvv.wav;
#X obj 690 387 sel 0 1 2 3 4 5 6 7;
#X obj 690 365 shuffle 0 7;
#X obj 464 446 sel 0 1 2 3 4;
#X obj 310 439 sel 0 1 2 3 4;
#X msg 116 472 jdBvcc1.wav;
#X msg 117 497 jdBvccP1.wav;
#X obj 34 419 sel 0 1 2 3 4 5 6 7 8;
#X obj 33 397 shuffle 0 8;
#X msg 387 245 jdBccc1.wav;
#X obj 40 145 sel 0 1 2 3 4 5 6 7 8 9 10 11 12 13 14 15 16 17 18 19
20 21 22 23 24 25 26 27 28 29 30;
#X obj 40 121 shuffle 0 30;
#X symbolatom 57 714 15 0 0 2 B20ccc B20ccc filename;
#X symbolatom 158 714 15 0 0 2 B21ccc B21ccc filename;
#X symbolatom 258 714 15 0 0 2 B22ccc B22ccc filename;
#X symbolatom 360 714 15 0 0 2 B23ccc B23ccc filename;
#X symbolatom 458 714 15 0 0 2 B24ccc B24ccc filename;
#X symbolatom 559 714 15 0 0 2 B25ccc B25ccc filename;
#X symbolatom 660 714 15 0 0 2 B26ccc B26ccc filename;
#X symbolatom 755 714 15 0 0 2 B20ccv B20ccv filename;
#X symbolatom 853 714 15 0 0 2 B21ccv B21ccv filename;
#X symbolatom 60 746 15 0 0 2 B20cvc B20cvc filename;
#X symbolatom 160 746 15 0 0 2 B20cvv B20cvv filename;
#X symbolatom 259 746 15 0 0 2 B20vcc B20vcc filename;
#X symbolatom 360 746 15 0 0 2 B21vcc B21vcc filename;
#X symbolatom 459 746 15 0 0 2 B20vcv B20vcv filename;
#X symbolatom 659 746 15 0 0 2 B20vvv B20vvv filename;
#X symbolatom 759 746 15 0 0 2 B21vvv B21vvv filename;
#X symbolatom 561 746 15 0 0 2 B20vvc B20vvc filename;
#X obj 40 98 t b f b f;
#X obj 151 111 + 20;
#X obj 552 94 t b f b f;
#X obj 641 102 + 20;
#X obj 862 59 + 20;
#X obj 784 93 t b f b f;
#X obj 1098 77 symbol;
#X symbolatom 1097 102 10 0 0 0 - - -;
#X msg 1017 40 0;
#X obj 1096 34 + 20;
#X obj 1018 68 t b f b f;
#X obj 1017 96 shuffle 0 5;
#X obj 1098 57 sprintf B%dcvv;
#X obj 1009 317 send;
#X obj 35 376 t b f b f;
#X obj 163 392 + 20;
#X obj 397 392 symbol;
#X symbolatom 396 417 10 0 0 0 - - -;
#X msg 316 355 0;
#X obj 395 349 + 20;
#X obj 317 383 t b f b f;
#X obj 397 372 sprintf B%dvcv;
#X obj 316 411 shuffle 0 4;
#X obj 306 599 send;
#X obj 571 402 symbol;
#X symbolatom 570 427 10 0 0 0 - - -;
#X msg 490 365 0;
#X obj 569 359 + 20;
#X obj 491 393 t b f b f;
#X obj 490 421 shuffle 0 4;
#X obj 571 381 sprintf B%dvvc;
#X obj 478 600 send;
#X obj 860 388 + 20;
#X obj 693 338 t b f b f;
#X connect 0 0 172 0;
#X connect 2 0 3 0;
#X connect 3 0 1 1;
#X connect 20 0 21 0;
#X connect 21 0 22 1;
#X connect 23 0 174 0;
#X connect 24 0 174 0;
#X connect 25 0 172 0;
#X connect 26 0 172 0;
#X connect 27 0 172 0;
#X connect 28 0 172 0;
#X connect 29 0 172 0;
#X connect 30 0 172 0;
#X connect 32 0 33 0;
#X connect 33 0 31 1;
#X connect 34 0 177 0;
#X connect 35 0 186 0;
#X connect 36 0 186 0;
#X connect 38 0 39 0;
#X connect 39 0 37 1;
#X connect 41 0 205 0;
#X connect 42 0 205 0;
#X connect 43 0 44 0;
#X connect 44 0 45 1;
#X connect 46 0 0 0;
#X connect 46 1 25 0;
#X connect 46 2 26 0;
#X connect 46 4 27 0;
#X connect 46 5 28 0;
#X connect 46 6 29 0;
#X connect 46 7 30 0;
#X connect 46 7 23 0;
#X connect 46 8 24 0;
#X connect 46 8 34 0;
#X connect 46 9 180 0;
#X connect 46 11 35 0;
#X connect 46 12 36 0;
#X connect 46 13 190 0;
#X connect 46 14 198 0;
#X connect 46 15 41 0;
#X connect 46 16 42 0;
#X connect 47 0 46 0;
#X connect 48 0 57 0;
#X connect 49 0 57 0;
#X connect 50 0 57 0;
#X connect 51 0 57 0;
#X connect 52 0 57 0;
#X connect 53 0 57 0;
#X connect 54 0 57 0;
#X connect 55 0 57 0;
#X connect 56 0 57 0;
#X connect 57 0 1 0;
#X connect 58 0 2 0;
#X connect 59 0 65 0;
#X connect 60 0 65 0;
#X connect 61 0 65 0;
#X connect 62 0 65 0;
#X connect 63 0 65 0;
#X connect 64 0 65 0;
#X connect 65 0 22 0;
#X connect 66 0 20 0;
#X connect 67 0 70 0;
#X connect 68 0 70 0;
#X connect 69 0 70 0;
#X connect 70 0 31 0;
#X connect 71 0 32 0;
#X connect 72 0 76 0;
#X connect 73 0 76 0;
#X connect 74 0 76 0;
#X connect 75 0 76 0;
#X connect 76 0 185 0;
#X connect 77 0 38 0;
#X connect 78 0 79 0;
#X connect 79 0 37 0;
#X connect 80 0 79 0;
#X connect 81 0 83 0;
#X connect 82 0 83 0;
#X connect 83 0 195 0;
#X connect 84 0 88 0;
#X connect 85 0 88 0;
#X connect 86 0 88 0;
#X connect 87 0 88 0;
#X connect 88 0 203 0;
#X connect 89 0 92 0;
#X connect 90 0 92 0;
#X connect 91 0 92 0;
#X connect 92 0 45 0;
#X connect 93 0 43 0;
#X connect 94 0 47 0;
#X connect 95 0 92 0;
#X connect 96 0 92 0;
#X connect 97 0 83 0;
#X connect 98 0 83 0;
#X connect 99 0 79 0;
#X connect 100 0 79 0;
#X connect 101 0 70 0;
#X connect 102 0 57 0;
#X connect 103 0 57 0;
#X connect 104 0 57 0;
#X connect 105 0 57 0;
#X connect 106 0 57 0;
#X connect 107 0 57 0;
#X connect 108 0 57 0;
#X connect 109 0 57 0;
#X connect 110 0 88 0;
#X connect 111 0 83 0;
#X connect 112 0 79 0;
#X connect 113 0 76 0;
#X connect 114 0 65 0;
#X connect 115 0 57 0;
#X connect 116 0 57 0;
#X connect 117 0 57 0;
#X connect 118 0 76 0;
#X connect 119 0 72 0;
#X connect 119 1 73 0;
#X connect 119 2 74 0;
#X connect 119 3 113 0;
#X connect 119 4 75 0;
#X connect 119 5 118 0;
#X connect 120 0 65 0;
#X connect 121 0 65 0;
#X connect 122 0 57 0;
#X connect 123 0 57 0;
#X connect 124 0 57 0;
#X connect 125 0 57 0;
#X connect 126 0 65 0;
#X connect 127 0 79 0;
#X connect 128 0 57 0;
#X connect 129 0 57 0;
#X connect 130 0 65 0;
#X connect 131 0 59 0;
#X connect 131 1 60 0;
#X connect 131 2 61 0;
#X connect 131 3 62 0;
#X connect 131 4 63 0;
#X connect 131 5 120 0;
#X connect 131 6 114 0;
#X connect 131 7 64 0;
#X connect 131 8 121 0;
#X connect 131 9 126 0;
#X connect 131 10 130 0;
#X connect 132 0 131 0;
#X connect 133 0 57 0;
#X connect 134 0 70 0;
#X connect 135 0 67 0;
#X connect 135 1 69 0;
#X connect 135 2 68 0;
#X connect 135 3 101 0;
#X connect 135 4 134 0;
#X connect 136 0 135 0;
#X connect 137 0 57 0;
#X connect 138 0 57 0;
#X connect 139 0 57 0;
#X connect 140 0 79 0;
#X connect 141 0 92 0;
#X connect 142 0 92 0;
#X connect 143 0 92 0;
#X connect 144 0 143 0;
#X connect 144 1 141 0;
#X connect 144 2 142 0;
#X connect 144 3 90 0;
#X connect 144 4 89 0;
#X connect 144 5 91 0;
#X connect 144 6 96 0;
#X connect 144 7 95 0;
#X connect 145 0 144 0;
#X connect 146 0 85 0;
#X connect 146 1 87 0;
#X connect 146 2 84 0;
#X connect 146 3 86 0;
#X connect 146 4 110 0;
#X connect 147 0 81 0;
#X connect 147 1 98 0;
#X connect 147 2 82 0;
#X connect 147 3 97 0;
#X connect 147 4 111 0;
#X connect 148 0 79 0;
#X connect 149 0 79 0;
#X connect 150 0 140 0;
#X connect 150 1 127 0;
#X connect 150 2 100 0;
#X connect 150 3 99 0;
#X connect 150 4 78 0;
#X connect 150 5 80 0;
#X connect 150 6 112 0;
#X connect 150 7 148 0;
#X connect 150 8 149 0;
#X connect 151 0 150 0;
#X connect 152 0 57 0;
#X connect 153 0 139 0;
#X connect 153 1 48 0;
#X connect 153 2 49 0;
#X connect 153 3 50 0;
#X connect 153 4 52 0;
#X connect 153 5 53 0;
#X connect 153 6 51 0;
#X connect 153 7 115 0;
#X connect 153 8 54 0;
#X connect 153 9 55 0;
#X connect 153 10 56 0;
#X connect 153 11 102 0;
#X connect 153 12 103 0;
#X connect 153 13 104 0;
#X connect 153 14 105 0;
#X connect 153 15 106 0;
#X connect 153 16 107 0;
#X connect 153 17 108 0;
#X connect 153 18 109 0;
#X connect 153 19 116 0;
#X connect 153 20 117 0;
#X connect 153 21 125 0;
#X connect 153 22 124 0;
#X connect 153 23 123 0;
#X connect 153 24 122 0;
#X connect 153 25 128 0;
#X connect 153 26 129 0;
#X connect 153 27 133 0;
#X connect 153 28 137 0;
#X connect 153 29 138 0;
#X connect 153 30 152 0;
#X connect 154 0 153 0;
#X connect 172 0 154 0;
#X connect 172 1 58 0;
#X connect 172 2 154 0;
#X connect 172 3 173 0;
#X connect 173 0 58 0;
#X connect 174 0 132 0;
#X connect 174 1 66 0;
#X connect 174 2 132 0;
#X connect 174 3 175 0;
#X connect 175 0 66 0;
#X connect 176 0 71 0;
#X connect 177 0 136 0;
#X connect 177 1 71 0;
#X connect 177 2 136 0;
#X connect 177 3 176 0;
#X connect 178 0 179 0;
#X connect 179 0 185 1;
#X connect 180 0 182 0;
#X connect 181 0 184 0;
#X connect 182 0 183 0;
#X connect 182 1 184 0;
#X connect 182 2 183 0;
#X connect 182 3 181 0;
#X connect 183 0 119 0;
#X connect 184 0 178 0;
#X connect 186 0 151 0;
#X connect 186 1 77 0;
#X connect 186 2 151 0;
#X connect 186 3 187 0;
#X connect 187 0 77 0;
#X connect 188 0 189 0;
#X connect 189 0 195 1;
#X connect 190 0 192 0;
#X connect 191 0 193 0;
#X connect 192 0 194 0;
#X connect 192 1 193 0;
#X connect 192 2 194 0;
#X connect 192 3 191 0;
#X connect 193 0 188 0;
#X connect 194 0 147 0;
#X connect 196 0 197 0;
#X connect 197 0 203 1;
#X connect 198 0 200 0;
#X connect 199 0 202 0;
#X connect 200 0 201 0;
#X connect 200 1 202 0;
#X connect 200 2 201 0;
#X connect 200 3 199 0;
#X connect 201 0 146 0;
#X connect 202 0 196 0;
#X connect 204 0 93 0;
#X connect 205 0 145 0;
#X connect 205 1 93 0;
#X connect 205 2 145 0;
#X connect 205 3 204 0;
#X coords 0 -1 1 1 910 75 1 40 620;
