#N canvas 435 157 1165 897 10;
#X msg -69 14 0;
#X obj 238 557 send;
#X obj 260 194 symbol;
#X symbolatom 259 219 10 0 0 0 - - -;
#X symbolatom 52 614 15 0 0 2 Dccc D0ccc filename;
#X symbolatom 153 614 15 0 0 2 D1ccc D1ccc filename;
#X symbolatom 253 614 15 0 0 2 D2ccc D2ccc filename;
#X symbolatom 355 614 15 0 0 2 D3ccc D3ccc filename;
#X symbolatom 453 614 15 0 0 2 D4ccc D4ccc filename;
#X symbolatom 554 614 15 0 0 2 D5ccc D5ccc filename;
#X symbolatom 655 614 15 0 0 2 D6ccc D6ccc filename;
#X symbolatom 750 614 15 0 0 2 D7ccc D7ccc filename;
#X symbolatom 848 614 15 0 0 2 D8ccc D8ccc filename;
#X symbolatom 654 646 15 0 0 2 D1ccv D1ccv filename;
#X symbolatom 853 646 15 0 0 2 Dcvv D0cvv filename;
#X symbolatom 53 676 15 0 0 2 Dvcc D0vcc filename;
#X symbolatom 154 676 15 0 0 2 D1vcc D1vcc filename;
#X symbolatom 255 676 15 0 0 2 Dvcv D0vcv filename;
#X symbolatom 456 676 15 0 0 2 Dvvv D0vvv filename;
#X obj 437 78 symbol;
#X symbolatom 436 103 10 0 0 0 - - -;
#X msg 353 47 0;
#X msg 388 47 1;
#X msg -33 14 1;
#X msg 2 14 2;
#X msg 38 14 3;
#X msg 74 14 4;
#X msg 111 14 5;
#X msg 145 14 6;
#X msg 342 333 0;
#X msg 373 333 1;
#X obj 338 566 send;
#X obj 454 351 symbol;
#X symbolatom 453 376 10 0 0 0 - - -;
#X symbolatom 354 676 15 0 0 2 Dvvc D0vvc filename;
#X obj 34 -17 bng 15 250 50 0 empty empty empty 17 7 0 10 -262144 -1
-1;
#X msg -71 38 7;
#X msg -35 38 8;
#X msg 0 38 9;
#X obj 298 -25 t b b b b b b b b b b b b b b b b b b b b b b b b b
b;
#X symbolatom 53 645 15 0 0 2 D9ccc D9ccc filename;
#X symbolatom 255 646 15 0 0 2 D11ccc D11ccc filename;
#X symbolatom 354 646 15 0 0 2 D12ccc D12ccc filename;
#X symbolatom 456 646 15 0 0 2 D13ccc D13ccc filename;
#X symbolatom 554 646 15 0 0 2 Dccv D0ccv filename;
#X symbolatom 756 646 15 0 0 2 Dcvc D0cvc filename;
#X obj 414 292 send;
#X obj 353 102 shuffle 0 9;
#X msg 37 38 10;
#X msg 74 38 11;
#X msg 108 38 12;
#X msg 142 39 13;
#X msg -77 226 mpDccc.wav;
#X msg -77 249 treDccc1.wav;
#X msg 3 145 treDccc2.wav;
#X msg 2 187 treDccc3.wav;
#X msg 2 207 treDccc4.wav;
#X msg -1 231 treDccc5.wav;
#X msg 0 251 treDccc6.wav;
#X msg 90 146 kcDccc.wav;
#X msg 90 167 mtDccc.wav;
#X msg 169 168 dvnDccc6.wav;
#X msg 174 210 dvnDccc5.wav;
#X msg 172 148 dvnDccc4.wav;
#X msg 90 253 dvnDccc3.wav;
#X msg 90 230 dvnDccc2.wav;
#X msg 92 189 dvnDccc.wav;
#X obj 236 535 symbol;
#X obj 260 160 sprintf D%dccc;
#X symbolatom 153 645 15 0 0 2 D10ccc D10ccc filename;
#X obj 437 58 sprintf D%dccv;
#X msg 437 216 mpDccv.wav;
#X msg 359 240 kcDccv.wav;
#X obj 415 265 symbol;
#X msg 572 136 ccDcvc1.wav;
#X msg 570 204 mpDcvc.wav;
#X msg 570 227 treDcvc.wav;
#X obj 568 272 symbol;
#X msg 739 138 jdDcvv1.wav;
#X msg 739 160 mpDcvv.wav;
#X msg 740 183 treDcvv.wav;
#X msg 740 205 dvnDcvv2.wav;
#X obj 744 262 symbol;
#X msg 339 419 cbDvcc.wav;
#X msg 339 440 mpDvcc.wav;
#X msg 339 482 treDvcc1.wav;
#X msg 418 420 kcDvcc.wav;
#X obj 339 545 symbol;
#X obj 454 331 sprintf D%dvcc;
#X msg 546 502 treDvcv4.wav;
#X obj 547 546 symbol;
#X msg 713 433 mpDvvc.wav;
#X msg 712 452 treDvvc1.wav;
#X msg 712 475 treDvvc2.wav;
#X obj 706 544 symbol;
#X msg 913 396 cbDvvv3.wav;
#X msg 913 488 jdDvvv2.wav;
#X msg 913 465 tdDvvv2.wav;
#X msg 913 442 treDvvv4.wav;
#X obj 913 534 symbol;
#X obj -38 -17 inlet;
#X msg 418 440 smDvcc1.wav;
#X msg -77 299 smDccc1.wav;
#X msg -78 321 smDccc2.wav;
#X msg -78 345 smDccc3.wav;
#X msg -78 366 smDccc4.wav;
#X msg -78 388 smDccc5.wav;
#X msg -78 410 smDccc6.wav;
#X obj -75 274 sel 22 23 24 25 26 27 28 29 30 31 32 33 34 35 36 37
38 39 40;
#X obj -76 122 sel 0 1 2 3 4 5 6 7 8 9 10 11 12 13 14 15 16 17 18 19
20 21;
#X msg 92 211 dvnDccc1.wav;
#X msg 170 190 dvnDccc7.wav;
#X msg 8 299 dvnDccc8.wav;
#X msg 5 322 dvnDccc9.wav;
#X msg 3 346 dvnDccc10.wav;
#X msg 5 369 dvnDccc11.wav;
#X msg 4 387 dvnDcccP1.wav;
#X msg 438 151 cbDccv1.wav;
#X msg 436 194 cbDccv3.wav;
#X msg 436 173 cbDccv2.wav;
#X msg 711 498 ccDvvc1.wav;
#X msg 913 419 csDvvv2.wav;
#X msg -76 164 csDccc1.wav;
#X msg 546 421 csDvcv1.wav;
#X msg 548 441 elDvcv.wav;
#X msg 2 408 elDccc1.wav;
#X msg 93 301 elDccc2.wav;
#X msg 423 460 gdDvcc1.wav;
#X msg 570 249 gdDcvc.wav;
#X msg 358 193 gdDccv.wav;
#X msg 357 151 gdDccv1.wav;
#X msg 361 173 gdDccv2.wav;
#X msg 913 511 gdiDvvv.wav;
#X msg 707 519 gdiDvvc.wav;
#X msg 546 483 gdiDvcv.wav;
#X msg 339 503 gdiDvcc.wav;
#X msg 742 227 gdiDcvv.wav;
#X msg 571 181 gdiDcvc.wav;
#X msg 359 215 gdiDccv.wav;
#X msg 3 165 gdiDccc.wav;
#X msg 89 325 jdDccc1.wav;
#X msg 570 159 jkDcvc.wav;
#X msg -78 185 jkDccc.wav;
#X msg -78 205 jkDccc1.wav;
#X msg 90 349 jkDccc2.wav;
#X msg 93 370 jkDcccP1.wav;
#X msg 91 390 kcDccc1.wav;
#X msg 92 411 kcDccc2.wav;
#X msg 177 299 kcDccc3.wav;
#X msg -81 456 kcDccc4.wav;
#X msg -82 477 kcDccc5.wav;
#X obj 356 128 sel 0 1 2 3 4 5 6 7 8 9;
#X msg 439 238 mpDccv1.wav;
#X msg -83 499 mpDccc1.wav;
#X msg -1 522 msDccc7.wav;
#X msg -2 500 msDccc6.wav;
#X msg -3 477 msDccc5.wav;
#X msg -2 457 msDccc4.wav;
#X msg -86 563 msDccc3.wav;
#X msg -85 543 msDccc2.wav;
#X msg -84 520 msDccc1.wav;
#X msg 423 480 mtDvcc1.wav;
#X msg -4 543 mtDcccP1.wav;
#X msg 547 462 tdDvcv1.wav;
#X msg 549 524 treDvcv2.wav;
#X msg 421 522 treDvcc4.wav;
#X msg 421 502 treDvcc2.wav;
#X obj 339 398 sel 0 1 2 3 4 5 6 7 8 9 10;
#X msg -6 564 treDccc7.wav;
#X msg 77 459 treDccc8.wav;
#X msg 76 481 treDccc9.wav;
#X msg -77 146 treDcccP1.wav;
#X msg 339 461 tdDvcc.wav;
#X obj 913 373 sel 0 1 2 3 4 5;
#X obj 713 410 sel 0 1 2 3 4;
#X obj 547 394 sel 0 1 2 3 4 5;
#X obj 339 378 shuffle 0 10;
#X obj 740 117 sel 0 1 2 3 4;
#X obj 572 114 sel 0 1 2 3 4 5;
#X obj -83 436 sel 41 42 43 44 45 46 47 48 49 50 51 52 53 54;
#X obj 34 92 shuffle 0 54;
#X symbolatom 56 719 15 0 0 2 D20ccc D20ccc filename;
#X symbolatom 157 719 15 0 0 2 D21ccc D21ccc filename;
#X symbolatom 257 719 15 0 0 2 D22ccc D22ccc filename;
#X symbolatom 359 719 15 0 0 2 D23ccc D23ccc filename;
#X symbolatom 457 719 15 0 0 2 D24ccc D24ccc filename;
#X symbolatom 558 719 15 0 0 2 D25ccc D25ccc filename;
#X symbolatom 656 719 15 0 0 2 D26ccc D26ccc filename;
#X symbolatom 754 719 15 0 0 2 D27ccc D27ccc filename;
#X symbolatom 852 719 15 0 0 2 D28ccc D28ccc filename;
#X symbolatom 658 751 15 0 0 2 D21ccv D21ccv filename;
#X symbolatom 857 751 15 0 0 2 D20cvv D20cvv filename;
#X symbolatom 57 781 15 0 0 2 D20vcc D20vcc filename;
#X symbolatom 158 781 15 0 0 2 D21vcc D21vcc filename;
#X symbolatom 259 781 15 0 0 2 D20vcv D20vcv filename;
#X symbolatom 460 781 15 0 0 2 D20vvv D20vvv filename;
#X symbolatom 358 781 15 0 0 2 D20vvc D20vvc filename;
#X symbolatom 57 750 15 0 0 2 D29ccc D29ccc filename;
#X symbolatom 259 751 15 0 0 2 D31ccc D31ccc filename;
#X symbolatom 358 751 15 0 0 2 D32ccc D32ccc filename;
#X symbolatom 460 751 15 0 0 2 D33ccc D33ccc filename;
#X symbolatom 558 751 15 0 0 2 D20ccv D20ccv filename;
#X symbolatom 760 751 15 0 0 2 D20cvc D20cvc filename;
#X symbolatom 157 750 15 0 0 2 D30ccc D30ccc filename;
#X obj 33 70 t b f b f;
#X obj 143 88 + 20;
#X obj 354 78 t b f b f;
#X obj 440 36 + 20;
#X obj 342 357 t b f b f;
#X obj 418 356 + 20;
#X obj 643 66 symbol;
#X symbolatom 642 91 10 0 0 0 - - -;
#X msg 560 42 0;
#X obj 560 66 t b f b f;
#X obj 646 24 + 20;
#X obj 559 90 shuffle 0 5;
#X obj 643 46 sprintf D%dcvc;
#X obj 569 294 send;
#X obj 821 69 symbol;
#X symbolatom 820 94 10 0 0 0 - - -;
#X msg 738 45 0;
#X obj 738 69 t b f b f;
#X obj 824 27 + 20;
#X obj 821 49 sprintf D%dcvv;
#X obj 737 93 shuffle 0 4;
#X obj 743 284 send;
#X obj 629 346 symbol;
#X symbolatom 628 371 10 0 0 0 - - -;
#X msg 546 322 0;
#X obj 546 346 t b f b f;
#X obj 632 304 + 20;
#X obj 545 369 shuffle 0 5;
#X obj 547 568 send;
#X obj 629 326 sprintf D%dvcv;
#X obj 805 358 symbol;
#X symbolatom 804 383 10 0 0 0 - - -;
#X msg 722 334 0;
#X obj 722 358 t b f b f;
#X obj 808 316 + 20;
#X obj 721 381 shuffle 0 4;
#X obj 805 338 sprintf D%dvvc;
#X obj 706 565 send;
#X obj 973 275 symbol;
#X symbolatom 972 300 10 0 0 0 - - -;
#X msg 890 251 0;
#X obj 890 275 t b f b f;
#X obj 976 233 + 20;
#X obj 889 298 shuffle 0 5;
#X obj 973 255 sprintf D%dvvv;
#X obj 913 557 send;
#X connect 0 0 204 0;
#X connect 2 0 3 0;
#X connect 3 0 1 1;
#X connect 19 0 20 0;
#X connect 20 0 46 1;
#X connect 21 0 206 0;
#X connect 22 0 206 0;
#X connect 23 0 204 0;
#X connect 24 0 204 0;
#X connect 25 0 204 0;
#X connect 26 0 204 0;
#X connect 27 0 204 0;
#X connect 28 0 204 0;
#X connect 29 0 208 0;
#X connect 30 0 208 0;
#X connect 32 0 33 0;
#X connect 33 0 31 1;
#X connect 35 0 39 0;
#X connect 36 0 204 0;
#X connect 37 0 204 0;
#X connect 38 0 204 0;
#X connect 39 0 0 0;
#X connect 39 1 23 0;
#X connect 39 2 24 0;
#X connect 39 4 25 0;
#X connect 39 5 26 0;
#X connect 39 6 27 0;
#X connect 39 7 28 0;
#X connect 39 8 36 0;
#X connect 39 9 37 0;
#X connect 39 10 38 0;
#X connect 39 11 48 0;
#X connect 39 12 49 0;
#X connect 39 13 50 0;
#X connect 39 14 51 0;
#X connect 39 15 21 0;
#X connect 39 16 22 0;
#X connect 39 17 212 0;
#X connect 39 18 220 0;
#X connect 39 19 29 0;
#X connect 39 20 30 0;
#X connect 39 21 228 0;
#X connect 39 22 236 0;
#X connect 39 23 244 0;
#X connect 47 0 151 0;
#X connect 48 0 204 0;
#X connect 49 0 204 0;
#X connect 50 0 204 0;
#X connect 51 0 204 0;
#X connect 52 0 67 0;
#X connect 53 0 67 0;
#X connect 54 0 67 0;
#X connect 55 0 67 0;
#X connect 56 0 67 0;
#X connect 57 0 67 0;
#X connect 58 0 67 0;
#X connect 59 0 67 0;
#X connect 60 0 67 0;
#X connect 61 0 67 0;
#X connect 62 0 67 0;
#X connect 63 0 67 0;
#X connect 64 0 67 0;
#X connect 65 0 67 0;
#X connect 66 0 67 0;
#X connect 67 0 1 0;
#X connect 68 0 2 0;
#X connect 70 0 19 0;
#X connect 71 0 73 0;
#X connect 72 0 73 0;
#X connect 73 0 46 0;
#X connect 74 0 77 0;
#X connect 75 0 77 0;
#X connect 76 0 77 0;
#X connect 77 0 217 0;
#X connect 78 0 82 0;
#X connect 79 0 82 0;
#X connect 80 0 82 0;
#X connect 81 0 82 0;
#X connect 82 0 225 0;
#X connect 83 0 87 0;
#X connect 84 0 87 0;
#X connect 85 0 87 0;
#X connect 86 0 87 0;
#X connect 87 0 31 0;
#X connect 88 0 32 0;
#X connect 89 0 90 0;
#X connect 90 0 232 0;
#X connect 91 0 94 0;
#X connect 92 0 94 0;
#X connect 93 0 94 0;
#X connect 94 0 241 0;
#X connect 95 0 99 0;
#X connect 96 0 99 0;
#X connect 97 0 99 0;
#X connect 98 0 99 0;
#X connect 99 0 249 0;
#X connect 100 0 35 0;
#X connect 101 0 87 0;
#X connect 102 0 67 0;
#X connect 103 0 67 0;
#X connect 104 0 67 0;
#X connect 105 0 67 0;
#X connect 106 0 67 0;
#X connect 107 0 67 0;
#X connect 108 0 102 0;
#X connect 108 1 103 0;
#X connect 108 2 104 0;
#X connect 108 3 105 0;
#X connect 108 4 106 0;
#X connect 108 5 107 0;
#X connect 108 6 112 0;
#X connect 108 7 113 0;
#X connect 108 8 114 0;
#X connect 108 9 115 0;
#X connect 108 10 116 0;
#X connect 108 11 125 0;
#X connect 108 12 126 0;
#X connect 108 13 140 0;
#X connect 108 14 144 0;
#X connect 108 15 145 0;
#X connect 108 16 146 0;
#X connect 108 17 147 0;
#X connect 108 18 148 0;
#X connect 108 19 179 0;
#X connect 109 0 171 0;
#X connect 109 1 122 0;
#X connect 109 2 142 0;
#X connect 109 3 143 0;
#X connect 109 4 52 0;
#X connect 109 5 53 0;
#X connect 109 6 54 0;
#X connect 109 7 139 0;
#X connect 109 8 55 0;
#X connect 109 9 56 0;
#X connect 109 10 57 0;
#X connect 109 11 58 0;
#X connect 109 12 59 0;
#X connect 109 13 60 0;
#X connect 109 14 66 0;
#X connect 109 15 110 0;
#X connect 109 16 65 0;
#X connect 109 17 64 0;
#X connect 109 18 63 0;
#X connect 109 19 62 0;
#X connect 109 20 61 0;
#X connect 109 21 111 0;
#X connect 109 22 108 0;
#X connect 110 0 67 0;
#X connect 111 0 67 0;
#X connect 112 0 67 0;
#X connect 113 0 67 0;
#X connect 114 0 67 0;
#X connect 115 0 67 0;
#X connect 116 0 67 0;
#X connect 117 0 73 0;
#X connect 118 0 73 0;
#X connect 119 0 73 0;
#X connect 120 0 94 0;
#X connect 121 0 99 0;
#X connect 122 0 67 0;
#X connect 123 0 90 0;
#X connect 124 0 90 0;
#X connect 125 0 67 0;
#X connect 126 0 67 0;
#X connect 127 0 87 0;
#X connect 128 0 77 0;
#X connect 129 0 73 0;
#X connect 130 0 73 0;
#X connect 131 0 73 0;
#X connect 132 0 99 0;
#X connect 133 0 94 0;
#X connect 134 0 90 0;
#X connect 135 0 87 0;
#X connect 136 0 82 0;
#X connect 137 0 77 0;
#X connect 138 0 73 0;
#X connect 139 0 67 0;
#X connect 140 0 67 0;
#X connect 141 0 77 0;
#X connect 142 0 67 0;
#X connect 143 0 67 0;
#X connect 144 0 67 0;
#X connect 145 0 67 0;
#X connect 146 0 67 0;
#X connect 147 0 67 0;
#X connect 148 0 67 0;
#X connect 149 0 67 0;
#X connect 150 0 67 0;
#X connect 151 0 130 0;
#X connect 151 1 131 0;
#X connect 151 2 129 0;
#X connect 151 3 138 0;
#X connect 151 4 72 0;
#X connect 151 5 117 0;
#X connect 151 6 119 0;
#X connect 151 7 118 0;
#X connect 151 8 71 0;
#X connect 151 9 152 0;
#X connect 152 0 73 0;
#X connect 153 0 67 0;
#X connect 154 0 67 0;
#X connect 155 0 67 0;
#X connect 156 0 67 0;
#X connect 157 0 67 0;
#X connect 158 0 67 0;
#X connect 159 0 67 0;
#X connect 160 0 67 0;
#X connect 161 0 87 0;
#X connect 162 0 67 0;
#X connect 163 0 90 0;
#X connect 164 0 90 0;
#X connect 165 0 87 0;
#X connect 166 0 87 0;
#X connect 167 0 83 0;
#X connect 167 1 84 0;
#X connect 167 2 172 0;
#X connect 167 3 85 0;
#X connect 167 4 135 0;
#X connect 167 5 86 0;
#X connect 167 6 101 0;
#X connect 167 7 127 0;
#X connect 167 8 161 0;
#X connect 167 9 166 0;
#X connect 167 10 165 0;
#X connect 168 0 67 0;
#X connect 169 0 67 0;
#X connect 170 0 67 0;
#X connect 171 0 67 0;
#X connect 172 0 87 0;
#X connect 173 0 95 0;
#X connect 173 1 121 0;
#X connect 173 2 98 0;
#X connect 173 3 97 0;
#X connect 173 4 96 0;
#X connect 173 5 132 0;
#X connect 174 0 91 0;
#X connect 174 1 92 0;
#X connect 174 2 93 0;
#X connect 174 3 120 0;
#X connect 174 4 133 0;
#X connect 175 0 123 0;
#X connect 175 1 124 0;
#X connect 175 2 163 0;
#X connect 175 3 134 0;
#X connect 175 4 89 0;
#X connect 175 5 164 0;
#X connect 176 0 167 0;
#X connect 177 0 78 0;
#X connect 177 1 79 0;
#X connect 177 2 80 0;
#X connect 177 3 81 0;
#X connect 177 4 136 0;
#X connect 178 0 74 0;
#X connect 178 1 141 0;
#X connect 178 2 137 0;
#X connect 178 3 75 0;
#X connect 178 4 76 0;
#X connect 178 5 128 0;
#X connect 179 0 149 0;
#X connect 179 1 150 0;
#X connect 179 2 153 0;
#X connect 179 3 160 0;
#X connect 179 4 159 0;
#X connect 179 5 158 0;
#X connect 179 6 157 0;
#X connect 179 7 156 0;
#X connect 179 8 155 0;
#X connect 179 9 154 0;
#X connect 179 10 162 0;
#X connect 179 11 168 0;
#X connect 179 12 169 0;
#X connect 179 13 170 0;
#X connect 180 0 109 0;
#X connect 204 0 180 0;
#X connect 204 1 68 0;
#X connect 204 2 180 0;
#X connect 204 3 205 0;
#X connect 205 0 68 0;
#X connect 206 0 47 0;
#X connect 206 1 70 0;
#X connect 206 2 47 0;
#X connect 206 3 207 0;
#X connect 207 0 70 0;
#X connect 208 0 176 0;
#X connect 208 1 88 0;
#X connect 208 2 176 0;
#X connect 208 3 209 0;
#X connect 209 0 88 0;
#X connect 210 0 211 0;
#X connect 211 0 217 1;
#X connect 212 0 213 0;
#X connect 213 0 215 0;
#X connect 213 1 216 0;
#X connect 213 2 215 0;
#X connect 213 3 214 0;
#X connect 214 0 216 0;
#X connect 215 0 178 0;
#X connect 216 0 210 0;
#X connect 218 0 219 0;
#X connect 219 0 225 1;
#X connect 220 0 221 0;
#X connect 221 0 224 0;
#X connect 221 1 223 0;
#X connect 221 2 224 0;
#X connect 221 3 222 0;
#X connect 222 0 223 0;
#X connect 223 0 218 0;
#X connect 224 0 177 0;
#X connect 226 0 227 0;
#X connect 227 0 232 1;
#X connect 228 0 229 0;
#X connect 229 0 231 0;
#X connect 229 1 233 0;
#X connect 229 2 231 0;
#X connect 229 3 230 0;
#X connect 230 0 233 0;
#X connect 231 0 175 0;
#X connect 233 0 226 0;
#X connect 234 0 235 0;
#X connect 235 0 241 1;
#X connect 236 0 237 0;
#X connect 237 0 239 0;
#X connect 237 1 240 0;
#X connect 237 2 239 0;
#X connect 237 3 238 0;
#X connect 238 0 240 0;
#X connect 239 0 174 0;
#X connect 240 0 234 0;
#X connect 242 0 243 0;
#X connect 243 0 249 1;
#X connect 244 0 245 0;
#X connect 245 0 247 0;
#X connect 245 1 248 0;
#X connect 245 2 247 0;
#X connect 245 3 246 0;
#X connect 246 0 248 0;
#X connect 247 0 173 0;
#X connect 248 0 242 0;
#X coords 0 -1 1 1 910 105 1 45 595;
