#N canvas 218 194 1188 802 10;
#X msg 28 262 mpAccc.wav;
#X msg 26 196 treAccc1.wav;
#X msg 27 217 treAccc2.wav;
#X msg 27 283 sdAccc1.wav;
#X msg 103 175 sdAccc2.wav;
#X msg 112 237 treAccc3.wav;
#X msg 111 260 treAccc4.wav;
#X msg 105 285 treAccc5.wav;
#X msg 194 177 kcAccc.wav;
#X msg 193 199 mtAccc.wav;
#X msg 197 219 mtAccc2.wav;
#X msg 55 40 0;
#X obj 225 350 send;
#X obj 251 89 symbol;
#X symbolatom 250 114 10 0 0 0 - - -;
#X symbolatom 50 638 15 0 0 2 Accc A0ccc filename;
#X symbolatom 149 638 15 0 0 2 A1ccc A1ccc filename;
#X symbolatom 249 638 15 0 0 2 A2ccc A2ccc filename;
#X symbolatom 351 639 15 0 0 2 A3ccc A3ccc filename;
#X symbolatom 449 638 15 0 0 2 A4ccc A4ccc filename;
#X symbolatom 550 639 15 0 0 2 A5ccc A5ccc filename;
#X symbolatom 650 639 15 0 0 2 A6ccc A6ccc filename;
#X obj 225 321 symbol;
#X floatatom 72 117 5 0 0 0 - - -;
#X symbolatom 746 638 15 0 0 2 Accv A0ccv filename;
#X symbolatom 844 638 15 0 0 2 A1ccv A1ccv filename;
#X symbolatom 53 670 15 0 0 2 Acvc A0cvc filename;
#X symbolatom 151 669 15 0 0 2 A1cvc A1cvc filename;
#X symbolatom 249 671 15 0 0 2 Acvv A0cvv filename;
#X symbolatom 347 672 15 0 0 2 Avcc A0vcc filename;
#X symbolatom 446 671 15 0 0 2 A1vcc A1vcc filename;
#X obj 257 69 sprintf A%dccc;
#X symbolatom 548 670 15 0 0 2 Avcv A0vcv filename;
#X symbolatom 751 671 15 0 0 2 Avvv A0vvv filename;
#X symbolatom 850 671 15 0 0 2 A1vvv A1vvv filename;
#X msg 463 186 mpAccv.wav;
#X msg 464 207 treAccv1.wav;
#X msg 548 194 mtAccv.wav;
#X obj 632 167 symbol;
#X symbolatom 631 192 10 0 0 0 - - -;
#X obj 463 279 symbol;
#X obj 462 308 send;
#X obj 631 141 sprintf A%dccv;
#X msg 464 56 0;
#X msg 508 57 1;
#X msg 91 40 1;
#X msg 126 42 2;
#X msg 162 42 3;
#X msg 198 43 4;
#X msg 235 42 5;
#X msg 269 40 6;
#X msg 901 209 mpAcvc.wav;
#X msg 902 230 treAcvc.wav;
#X msg 903 272 kcAcvc.wav;
#X obj 972 344 symbol;
#X obj 972 368 send;
#X obj 984 119 symbol;
#X symbolatom 983 144 10 0 0 0 - - -;
#X obj 984 99 sprintf A%dcvc;
#X msg 902 83 0;
#X msg 946 84 1;
#X msg 42 439 jdAcvv.wav;
#X msg 43 480 treAcvv.wav;
#X obj 38 555 symbol;
#X msg 230 474 mpAvcc.wav;
#X obj 223 562 symbol;
#X msg 326 332 0;
#X msg 370 333 1;
#X obj 225 585 send;
#X obj 388 429 symbol;
#X symbolatom 387 454 10 0 0 0 - - -;
#X obj 388 409 sprintf A%dvcc;
#X msg 482 450 mpAvcv.wav;
#X msg 483 491 treAvcv2.wav;
#X msg 482 537 kcAvcv.wav;
#X msg 483 471 mtAvcv.wav;
#X obj 472 566 symbol;
#X symbolatom 650 670 15 0 0 2 Avvc A0vvc filename;
#X msg 644 448 mpAvvc.wav;
#X msg 645 469 treAvvc.wav;
#X msg 649 496 kcAvvc.wav;
#X obj 640 568 symbol;
#X msg 815 458 mpAvvv.wav;
#X msg 816 502 tdAvvv2.wav;
#X msg 895 418 treAvvv7.wav;
#X msg 815 526 treAvvv3.wav;
#X msg 895 443 mtAvvv.wav;
#X msg 816 305 0;
#X msg 860 306 1;
#X obj 987 445 symbol;
#X symbolatom 986 470 10 0 0 0 - - -;
#X obj 987 425 sprintf A%dvvv;
#X obj 875 564 symbol;
#X obj 887 591 send;
#X obj 548 4 t b b b b b b b b b b b b b b b b b;
#X obj 443 6 bng 15 250 50 0 empty empty empty 17 7 0 10 -262144 -1
-1;
#X msg 313 482 sdAvcc1.wav;
#X obj 221 9 inlet;
#X msg 199 238 smAccc1.wav;
#X msg 200 260 smAccc2.wav;
#X msg 198 286 smAccc3.wav;
#X msg 272 178 smAccc4.wav;
#X msg 903 293 smAcvc1.wav;
#X msg 903 315 smAcvc2.wav;
#X msg 302 433 smAvcc1.wav;
#X msg 311 454 smAvcc2.wav;
#X msg 812 438 smAvvv1.wav;
#X msg 227 520 mtAvccP1.wav;
#X msg 113 195 sdAccc3.wav;
#X msg 118 216 sdAccc4.wav;
#X msg 271 200 kcAccc1.wav;
#X msg 276 220 kcAcccP1.wav;
#X msg 280 242 kcAcccP2.wav;
#X msg 534 173 kcAccv1.wav;
#X msg 27 239 gdiAccc.wav;
#X msg 464 249 gdiAccv.wav;
#X msg 903 251 gdiAcvc.wav;
#X msg 41 460 gdiAcvv.wav;
#X msg 228 497 gdiAvcc.wav;
#X msg 480 514 gdiAvcv.wav;
#X msg 655 521 gdiAvvc.wav;
#X msg 896 466 gdiAvvv.wav;
#X msg 280 265 treAcccP.wav;
#X msg 463 228 treAccv3.wav;
#X msg 552 218 treAccv4.wav;
#X msg 551 240 treAccvP1.wav;
#X obj 463 142 sel 0 1 2 3 4 5 6 7 8;
#X obj 463 118 shuffle 0 8;
#X msg 985 190 treAcvcP1.wav;
#X msg 40 504 treAcvv1.wav;
#X msg 41 526 treAcvv2.wav;
#X msg 116 443 treAcvv5.wav;
#X msg 318 503 treAvcc1.wav;
#X msg 229 454 treAvccP1.wav;
#X obj 482 426 sel 0 1 2 3 4;
#X msg 816 480 tdAvvv1.wav;
#X msg 278 287 mpAccc2.wav;
#X obj 42 415 sel 0 1 2 3 4 5;
#X msg 27 176 gdAccc.wav;
#X msg 358 178 gdAccc1.wav;
#X obj 901 165 sel 0 1 2 3 4 5 6 7 8;
#X obj 901 141 shuffle 0 8;
#X obj 644 404 sel 0 1 2 3 4;
#X obj 229 409 sel 0 1 2 3 4 5 6 7 8;
#X obj 236 384 shuffle 0 8;
#X obj 814 394 sel 0 1 2 3 4 5 6 7 8;
#X obj 815 363 shuffle 0 8;
#X msg 367 201 jdAccc1.wav;
#X msg 367 227 jdAccc2.wav;
#X obj 23 136 sel 0 1 2 3 4 5 6 7 8 9 10 11 12 13 14 15 16 17 18 19
20 21 22 23 24 25 26;
#X msg 902 188 elAcvc.wav;
#X msg 644 428 elAvvc.wav;
#X msg 812 417 csAvvv1.wav;
#X msg 463 166 csAccv.wav;
#X msg 229 433 ccAvcc.wav;
#X obj 55 96 shuffle 0 26;
#X msg 1005 216 gdAcvcP1.wav;
#X symbolatom 54 710 15 0 0 2 A20ccc A20ccc filename;
#X symbolatom 153 710 15 0 0 2 A21ccc A21ccc filename;
#X symbolatom 253 710 15 0 0 2 A22ccc A22ccc filename;
#X symbolatom 355 711 15 0 0 2 A23ccc A23ccc filename;
#X symbolatom 453 710 15 0 0 2 A24ccc A24ccc filename;
#X symbolatom 554 711 15 0 0 2 A25ccc A25ccc filename;
#X symbolatom 654 711 15 0 0 2 A26ccc A26ccc filename;
#X symbolatom 750 710 15 0 0 2 A20ccv A20ccv filename;
#X symbolatom 848 710 15 0 0 2 A21ccv A21ccv filename;
#X symbolatom 57 742 15 0 0 2 A20cvc A20cvc filename;
#X symbolatom 155 741 15 0 0 2 A21cvc A21cvc filename;
#X symbolatom 253 743 15 0 0 2 A20cvv A20cvv filename;
#X symbolatom 351 744 15 0 0 2 A20vcc A20vcc filename;
#X symbolatom 450 743 15 0 0 2 A21vcc A21vcc filename;
#X symbolatom 552 742 15 0 0 2 A20vcv A20vcv filename;
#X symbolatom 755 743 15 0 0 2 A20vvv A20vvv filename;
#X symbolatom 854 743 15 0 0 2 A21vvv A21vvv filename;
#X symbolatom 654 742 15 0 0 2 A20vvc A20vvc filename;
#X obj 146 67 + 20;
#X obj 56 66 t b f b f;
#X obj 465 84 t b f b f;
#X obj 553 88 + 20;
#X obj 903 111 t b f b f;
#X obj 984 77 + 20;
#X msg 43 340 0;
#X obj 144 390 symbol;
#X symbolatom 143 415 10 0 0 0 - - -;
#X obj 42 364 t b f b f;
#X obj 42 391 shuffle 0 5;
#X obj 143 348 + 20;
#X obj 36 582 send;
#X obj 144 370 sprintf A%dcvv;
#X obj 327 360 t b f b f;
#X obj 393 383 + 20;
#X msg 483 351 0;
#X obj 560 402 symbol;
#X obj 482 375 t b f b f;
#X obj 559 360 + 20;
#X obj 482 402 shuffle 0 4;
#X obj 560 382 sprintf A%dvcv;
#X obj 473 588 send;
#X msg 650 324 0;
#X obj 727 375 symbol;
#X obj 649 348 t b f b f;
#X obj 726 333 + 20;
#X obj 649 375 shuffle 0 4;
#X obj 656 590 send;
#X obj 727 355 sprintf A%dvvc;
#X obj 817 333 t b f b f;
#X obj 986 399 + 20;
#X connect 0 0 22 0;
#X connect 1 0 22 0;
#X connect 2 0 22 0;
#X connect 3 0 22 0;
#X connect 4 0 22 0;
#X connect 5 0 22 0;
#X connect 6 0 22 0;
#X connect 7 0 22 0;
#X connect 8 0 22 0;
#X connect 9 0 22 0;
#X connect 10 0 22 0;
#X connect 11 0 176 0;
#X connect 13 0 14 0;
#X connect 14 0 12 1;
#X connect 22 0 12 0;
#X connect 31 0 13 0;
#X connect 35 0 40 0;
#X connect 36 0 40 0;
#X connect 37 0 40 0;
#X connect 38 0 39 0;
#X connect 39 0 41 1;
#X connect 40 0 41 0;
#X connect 42 0 38 0;
#X connect 43 0 177 0;
#X connect 44 0 177 0;
#X connect 45 0 176 0;
#X connect 46 0 176 0;
#X connect 47 0 176 0;
#X connect 48 0 176 0;
#X connect 49 0 176 0;
#X connect 50 0 176 0;
#X connect 51 0 54 0;
#X connect 52 0 54 0;
#X connect 53 0 54 0;
#X connect 54 0 55 0;
#X connect 56 0 57 0;
#X connect 57 0 55 1;
#X connect 58 0 56 0;
#X connect 59 0 179 0;
#X connect 60 0 179 0;
#X connect 61 0 63 0;
#X connect 62 0 63 0;
#X connect 63 0 187 0;
#X connect 64 0 65 0;
#X connect 65 0 68 0;
#X connect 66 0 189 0;
#X connect 67 0 189 0;
#X connect 69 0 70 0;
#X connect 70 0 68 1;
#X connect 71 0 69 0;
#X connect 72 0 76 0;
#X connect 73 0 76 0;
#X connect 74 0 76 0;
#X connect 75 0 76 0;
#X connect 76 0 197 0;
#X connect 78 0 81 0;
#X connect 79 0 81 0;
#X connect 80 0 81 0;
#X connect 81 0 203 0;
#X connect 82 0 92 0;
#X connect 83 0 92 0;
#X connect 84 0 92 0;
#X connect 85 0 92 0;
#X connect 86 0 92 0;
#X connect 87 0 205 0;
#X connect 88 0 205 0;
#X connect 89 0 90 0;
#X connect 90 0 93 1;
#X connect 91 0 89 0;
#X connect 92 0 93 0;
#X connect 94 0 11 0;
#X connect 94 1 45 0;
#X connect 94 2 46 0;
#X connect 94 4 47 0;
#X connect 94 5 48 0;
#X connect 94 6 49 0;
#X connect 94 7 50 0;
#X connect 94 7 43 0;
#X connect 94 8 44 0;
#X connect 94 8 59 0;
#X connect 94 9 60 0;
#X connect 94 10 181 0;
#X connect 94 11 66 0;
#X connect 94 12 67 0;
#X connect 94 13 191 0;
#X connect 94 14 198 0;
#X connect 94 15 87 0;
#X connect 94 16 88 0;
#X connect 95 0 94 0;
#X connect 96 0 65 0;
#X connect 97 0 95 0;
#X connect 98 0 22 0;
#X connect 99 0 22 0;
#X connect 100 0 22 0;
#X connect 101 0 22 0;
#X connect 102 0 54 0;
#X connect 103 0 54 0;
#X connect 104 0 65 0;
#X connect 105 0 65 0;
#X connect 106 0 92 0;
#X connect 107 0 65 0;
#X connect 108 0 22 0;
#X connect 109 0 22 0;
#X connect 110 0 22 0;
#X connect 111 0 22 0;
#X connect 112 0 22 0;
#X connect 113 0 40 0;
#X connect 114 0 22 0;
#X connect 115 0 40 0;
#X connect 116 0 54 0;
#X connect 117 0 63 0;
#X connect 118 0 65 0;
#X connect 119 0 76 0;
#X connect 120 0 81 0;
#X connect 121 0 92 0;
#X connect 122 0 22 0;
#X connect 123 0 40 0;
#X connect 124 0 40 0;
#X connect 125 0 40 0;
#X connect 126 0 153 0;
#X connect 126 1 35 0;
#X connect 126 2 36 0;
#X connect 126 3 123 0;
#X connect 126 4 115 0;
#X connect 126 5 113 0;
#X connect 126 6 37 0;
#X connect 126 7 124 0;
#X connect 126 8 125 0;
#X connect 127 0 126 0;
#X connect 128 0 54 0;
#X connect 129 0 63 0;
#X connect 130 0 63 0;
#X connect 131 0 63 0;
#X connect 132 0 65 0;
#X connect 133 0 65 0;
#X connect 134 0 72 0;
#X connect 134 1 75 0;
#X connect 134 2 73 0;
#X connect 134 3 119 0;
#X connect 134 4 74 0;
#X connect 135 0 92 0;
#X connect 136 0 22 0;
#X connect 137 0 61 0;
#X connect 137 1 117 0;
#X connect 137 2 62 0;
#X connect 137 3 129 0;
#X connect 137 4 130 0;
#X connect 137 5 131 0;
#X connect 138 0 22 0;
#X connect 139 0 22 0;
#X connect 140 0 150 0;
#X connect 140 1 51 0;
#X connect 140 2 52 0;
#X connect 140 3 116 0;
#X connect 140 4 53 0;
#X connect 140 5 102 0;
#X connect 140 6 103 0;
#X connect 140 7 128 0;
#X connect 140 8 156 0;
#X connect 141 0 140 0;
#X connect 142 0 151 0;
#X connect 142 1 78 0;
#X connect 142 2 79 0;
#X connect 142 3 80 0;
#X connect 142 4 120 0;
#X connect 143 0 154 0;
#X connect 143 1 133 0;
#X connect 143 2 64 0;
#X connect 143 3 118 0;
#X connect 143 4 107 0;
#X connect 143 5 104 0;
#X connect 143 6 105 0;
#X connect 143 7 96 0;
#X connect 143 8 132 0;
#X connect 144 0 143 0;
#X connect 145 0 152 0;
#X connect 145 1 106 0;
#X connect 145 2 82 0;
#X connect 145 3 135 0;
#X connect 145 4 83 0;
#X connect 145 5 85 0;
#X connect 145 6 84 0;
#X connect 145 7 86 0;
#X connect 145 8 121 0;
#X connect 146 0 145 0;
#X connect 147 0 22 0;
#X connect 148 0 22 0;
#X connect 149 0 138 0;
#X connect 149 1 1 0;
#X connect 149 2 2 0;
#X connect 149 3 114 0;
#X connect 149 4 0 0;
#X connect 149 5 3 0;
#X connect 149 6 4 0;
#X connect 149 7 108 0;
#X connect 149 8 109 0;
#X connect 149 9 5 0;
#X connect 149 10 6 0;
#X connect 149 11 7 0;
#X connect 149 12 8 0;
#X connect 149 13 9 0;
#X connect 149 14 10 0;
#X connect 149 15 98 0;
#X connect 149 16 99 0;
#X connect 149 17 100 0;
#X connect 149 18 101 0;
#X connect 149 19 110 0;
#X connect 149 20 111 0;
#X connect 149 21 112 0;
#X connect 149 22 122 0;
#X connect 149 23 136 0;
#X connect 149 24 139 0;
#X connect 149 25 147 0;
#X connect 149 26 148 0;
#X connect 150 0 54 0;
#X connect 151 0 81 0;
#X connect 152 0 92 0;
#X connect 153 0 40 0;
#X connect 154 0 65 0;
#X connect 155 0 23 0;
#X connect 155 0 149 0;
#X connect 156 0 54 0;
#X connect 175 0 31 0;
#X connect 176 0 155 0;
#X connect 176 1 175 0;
#X connect 176 2 155 0;
#X connect 176 3 31 0;
#X connect 177 0 127 0;
#X connect 177 1 42 0;
#X connect 177 2 127 0;
#X connect 177 3 178 0;
#X connect 178 0 42 0;
#X connect 179 0 141 0;
#X connect 179 1 58 0;
#X connect 179 2 141 0;
#X connect 179 3 180 0;
#X connect 180 0 58 0;
#X connect 181 0 184 0;
#X connect 182 0 183 0;
#X connect 183 0 187 1;
#X connect 184 0 185 0;
#X connect 184 1 186 0;
#X connect 184 2 185 0;
#X connect 184 3 188 0;
#X connect 185 0 137 0;
#X connect 186 0 188 0;
#X connect 188 0 182 0;
#X connect 189 0 144 0;
#X connect 189 1 71 0;
#X connect 189 2 144 0;
#X connect 189 3 190 0;
#X connect 190 0 71 0;
#X connect 191 0 193 0;
#X connect 192 0 197 1;
#X connect 193 0 195 0;
#X connect 193 1 194 0;
#X connect 193 2 195 0;
#X connect 193 3 196 0;
#X connect 194 0 196 0;
#X connect 195 0 134 0;
#X connect 196 0 192 0;
#X connect 198 0 200 0;
#X connect 199 0 203 1;
#X connect 200 0 202 0;
#X connect 200 1 201 0;
#X connect 200 2 202 0;
#X connect 200 3 204 0;
#X connect 201 0 204 0;
#X connect 202 0 142 0;
#X connect 204 0 199 0;
#X connect 205 0 146 0;
#X connect 205 1 91 0;
#X connect 205 2 146 0;
#X connect 205 3 206 0;
#X connect 206 0 91 0;
#X coords 0 -1 1 1 910 75 1 45 620;
