#N canvas 177 225 528 387 10;
#X obj 37 81 inlet~ signal;
#X obj 189 81 inlet~ frequency;
#X obj 235 107 inlet~ Q/BW/slope;
#X obj 282 131 inlet~ gain;
#N canvas 240 287 660 305 \$0-lowpass 0;
#X obj 81 24 r~ \$0-freq;
#X obj 66 70 sig~ 1;
#X obj 66 92 -~;
#X obj 66 144 /~ 2;
#X obj 80 171 throw~ \$0-b2;
#X obj 167 171 *~ -2;
#X obj 167 193 throw~ \$0-a1;
#X obj 371 117 max~ 0.01;
#X obj 371 139 *~ 2;
#X obj 259 156 /~;
#X text 286 158 alpha;
#X obj 259 178 +~ 1;
#X obj 259 200 throw~ \$0-a0;
#X obj 340 178 sig~ 1;
#X obj 340 200 -~;
#X obj 340 222 throw~ \$0-a2;
#X obj 444 27 r \$0-type;
#X obj 444 49 == 0;
#X obj 444 71 switch~;
#X obj 371 95 r~ \$0-slope;
#X obj 66 193 throw~ \$0-b0;
#X obj 83 118 throw~ \$0-b1;
#N canvas 603 236 261 233 sin~ 0;
#X obj 75 55 inlet~;
#X obj 75 99 cos~;
#X obj 75 121 outlet~;
#X obj 75 77 -~ 0.25;
#X connect 0 0 3 0;
#X connect 1 0 2 0;
#X connect 3 0 1 0;
#X restore 259 113 pd sin~;
#X obj 81 48 cos~;
#X connect 0 0 22 0;
#X connect 0 0 23 0;
#X connect 1 0 2 0;
#X connect 2 0 3 0;
#X connect 2 0 21 0;
#X connect 3 0 4 0;
#X connect 3 0 20 0;
#X connect 5 0 6 0;
#X connect 7 0 8 0;
#X connect 8 0 9 1;
#X connect 9 0 11 0;
#X connect 9 0 14 1;
#X connect 11 0 12 0;
#X connect 13 0 14 0;
#X connect 14 0 15 0;
#X connect 16 0 17 0;
#X connect 17 0 18 0;
#X connect 19 0 7 0;
#X connect 22 0 9 0;
#X connect 23 0 2 1;
#X connect 23 0 5 0;
#X restore 378 128 pd \$0-lowpass;
#N canvas 176 113 721 305 \$0-highpass 0;
#X obj 76 24 r~ \$0-freq;
#X obj 76 114 /~ 2;
#X obj 90 141 throw~ \$0-b2;
#X obj 455 117 max~ 0.01;
#X obj 455 139 *~ 2;
#X obj 359 156 /~;
#X text 386 158 alpha;
#X obj 359 178 +~ 1;
#X obj 359 200 throw~ \$0-a0;
#X obj 440 178 sig~ 1;
#X obj 440 200 -~;
#X obj 440 222 throw~ \$0-a2;
#X obj 544 27 r \$0-type;
#X obj 544 71 switch~;
#X obj 76 68 +~ 1;
#X obj 177 141 *~ -1;
#X obj 177 163 throw~ \$0-b1;
#X obj 267 141 *~ -2;
#X obj 267 163 throw~ \$0-a1;
#X obj 544 49 == 1;
#X obj 455 95 r~ \$0-slope;
#X obj 76 163 throw~ \$0-b0;
#N canvas 603 236 261 233 sin~ 0;
#X obj 75 55 inlet~;
#X obj 75 99 cos~;
#X obj 75 121 outlet~;
#X obj 75 77 -~ 0.25;
#X connect 0 0 3 0;
#X connect 1 0 2 0;
#X connect 3 0 1 0;
#X restore 359 108 pd sin~;
#X obj 76 46 cos~;
#X connect 0 0 22 0;
#X connect 0 0 23 0;
#X connect 1 0 2 0;
#X connect 1 0 21 0;
#X connect 3 0 4 0;
#X connect 4 0 5 1;
#X connect 5 0 7 0;
#X connect 5 0 10 1;
#X connect 7 0 8 0;
#X connect 9 0 10 0;
#X connect 10 0 11 0;
#X connect 12 0 19 0;
#X connect 14 0 1 0;
#X connect 14 0 15 0;
#X connect 15 0 16 0;
#X connect 17 0 18 0;
#X connect 19 0 13 0;
#X connect 20 0 3 0;
#X connect 22 0 5 0;
#X connect 23 0 17 0;
#X connect 23 0 14 0;
#X restore 378 151 pd \$0-highpass;
#N canvas 255 219 673 395 \$0-resonant 0;
#X obj 74 88 r~ \$0-freq;
#X obj 200 84 r~ \$0-slope;
#X obj 200 106 max~ 0.01;
#X obj 200 128 *~ 2;
#X obj 74 145 /~;
#X obj 74 195 *~;
#X obj 74 267 throw~ \$0-b0;
#X obj 89 219 *~ -1;
#X obj 89 241 throw~ \$0-b2;
#X obj 197 245 sig~ 0;
#X obj 197 267 throw~ \$0-b1;
#X obj 288 245 +~ 1;
#X obj 288 267 throw~ \$0-a0;
#X obj 376 244 sig~ 1;
#X obj 376 266 -~;
#X obj 376 288 throw~ \$0-a2;
#X obj 461 266 *~ -2;
#X obj 461 288 throw~ \$0-a1;
#X obj 430 82 r \$0-type;
#X obj 430 126 switch~;
#X obj 430 104 == 7;
#N canvas 603 236 261 233 sin~ 0;
#X obj 75 55 inlet~;
#X obj 75 99 cos~;
#X obj 75 121 outlet~;
#X obj 75 77 -~ 0.25;
#X connect 0 0 3 0;
#X connect 1 0 2 0;
#X connect 3 0 1 0;
#X restore 74 121 pd sin~;
#X obj 461 244 cos~;
#X connect 0 0 21 0;
#X connect 0 0 22 0;
#X connect 1 0 2 0;
#X connect 2 0 3 0;
#X connect 2 0 5 1;
#X connect 3 0 4 1;
#X connect 4 0 5 0;
#X connect 4 0 11 0;
#X connect 4 0 14 1;
#X connect 5 0 6 0;
#X connect 5 0 7 0;
#X connect 7 0 8 0;
#X connect 9 0 10 0;
#X connect 11 0 12 0;
#X connect 13 0 14 0;
#X connect 14 0 15 0;
#X connect 16 0 17 0;
#X connect 18 0 20 0;
#X connect 20 0 19 0;
#X connect 21 0 4 0;
#X connect 22 0 16 0;
#X restore 378 286 pd \$0-resonant;
#N canvas 293 261 673 395 \$0-bandpass 0;
#X obj 75 29 r~ \$0-freq;
#X obj 125 208 throw~ \$0-b2;
#X obj 112 96 max~ 0.01;
#X obj 112 118 *~ 2;
#X obj 75 135 /~;
#X text 102 137 alpha;
#X obj 75 234 +~ 1;
#X obj 75 256 throw~ \$0-a0;
#X obj 451 236 sig~ 1;
#X obj 451 258 -~;
#X obj 451 280 throw~ \$0-a2;
#X obj 475 85 r \$0-type;
#X obj 475 129 switch~;
#X obj 208 208 throw~ \$0-b1;
#X obj 278 160 *~ -2;
#X obj 278 182 throw~ \$0-a1;
#X obj 112 74 r~ \$0-slope;
#X obj 111 230 throw~ \$0-b0;
#X obj 208 181 sig~ 0;
#X obj 125 184 *~ -1;
#X obj 475 107 == 2;
#X obj 278 138 cos~;
#N canvas 603 236 261 233 sin~ 0;
#X obj 75 55 inlet~;
#X obj 75 99 cos~;
#X obj 75 121 outlet~;
#X obj 75 77 -~ 0.25;
#X connect 0 0 3 0;
#X connect 1 0 2 0;
#X connect 3 0 1 0;
#X restore 75 51 pd sin~;
#X connect 0 0 21 0;
#X connect 0 0 22 0;
#X connect 2 0 3 0;
#X connect 3 0 4 1;
#X connect 4 0 6 0;
#X connect 4 0 9 1;
#X connect 4 0 17 0;
#X connect 4 0 19 0;
#X connect 6 0 7 0;
#X connect 8 0 9 0;
#X connect 9 0 10 0;
#X connect 11 0 20 0;
#X connect 14 0 15 0;
#X connect 16 0 2 0;
#X connect 18 0 13 0;
#X connect 19 0 1 0;
#X connect 20 0 12 0;
#X connect 21 0 14 0;
#X connect 22 0 4 0;
#X restore 378 173 pd \$0-bandpass;
#N canvas 0 22 995 450 \$0-lowshelf 0;
#X obj 141 33 r~ \$0-freq;
#X obj 443 229 sqrt~;
#X obj 328 63 clip~ 0.001 1;
#X obj 464 42 r~ \$0-gain;
#X obj 464 64 /~ 40;
#X obj 443 86 sig~ 10;
#X obj 443 108 pow~;
#X obj 443 130 *~;
#X obj 443 152 +~ 1;
#X obj 500 135 /~;
#X obj 500 113 sig~ 1;
#X obj 500 157 -~ 1;
#X obj 443 174 *~;
#X obj 500 189 *~ 2;
#X obj 443 206 +~;
#X obj 428 252 *~;
#X text 454 250 alpha;
#X obj 257 225 +~ 1;
#X obj 302 225 -~ 1;
#X obj 302 247 *~;
#X obj 257 264 -~;
#X obj 257 286 +~;
#X text 283 308 first line of left [expr~];
#X obj 257 308 *~;
#X obj 141 242 *~;
#X obj 126 302 -~;
#X obj 126 324 *~;
#X obj 126 386 *~ 2;
#X text 159 387 2nd line of left [expr~];
#X obj 413 341 -~;
#X obj 385 341 -~;
#X obj 413 363 *~;
#X text 441 363 3rd line of left [expr~];
#X obj 257 330 throw~ \$0-b0;
#X obj 126 408 throw~ \$0-b1;
#X obj 413 385 throw~ \$0-b2;
#X obj 665 103 +~;
#X obj 665 125 +~;
#X text 694 122 1st line of right [expr~];
#X obj 665 171 +~;
#X text 695 172 2nd line of right [expr~];
#X obj 664 241 +~;
#X obj 664 263 -~;
#X obj 665 147 throw~ \$0-a0;
#X obj 665 216 throw~ \$0-a1;
#X obj 664 285 throw~ \$0-a2;
#X obj 906 126 r \$0-type;
#X obj 906 170 switch~;
#X obj 328 41 r~ \$0-slope;
#X obj 665 193 *~ -2;
#X obj 906 148 == 4;
#N canvas 603 236 261 233 sin~ 0;
#X obj 75 55 inlet~;
#X obj 75 99 cos~;
#X obj 75 121 outlet~;
#X obj 75 77 -~ 0.25;
#X connect 0 0 3 0;
#X connect 1 0 2 0;
#X connect 3 0 1 0;
#X restore 246 98 pd sin~;
#X obj 141 95 cos~;
#X connect 0 0 51 0;
#X connect 0 0 52 0;
#X connect 1 0 15 1;
#X connect 2 0 9 1;
#X connect 3 0 4 0;
#X connect 4 0 6 1;
#X connect 5 0 6 0;
#X connect 6 0 7 0;
#X connect 6 0 7 1;
#X connect 6 0 13 0;
#X connect 6 0 17 0;
#X connect 6 0 18 0;
#X connect 6 0 23 1;
#X connect 6 0 26 1;
#X connect 6 0 31 1;
#X connect 7 0 8 0;
#X connect 8 0 12 0;
#X connect 9 0 11 0;
#X connect 10 0 9 0;
#X connect 11 0 12 1;
#X connect 12 0 14 0;
#X connect 13 0 14 1;
#X connect 14 0 1 0;
#X connect 15 0 21 1;
#X connect 15 0 29 1;
#X connect 15 0 37 1;
#X connect 15 0 42 1;
#X connect 17 0 20 0;
#X connect 17 0 24 1;
#X connect 17 0 30 0;
#X connect 17 0 36 0;
#X connect 17 0 41 0;
#X connect 18 0 19 0;
#X connect 18 0 25 0;
#X connect 18 0 39 0;
#X connect 19 0 30 1;
#X connect 19 0 36 1;
#X connect 19 0 41 1;
#X connect 19 0 20 1;
#X connect 20 0 21 0;
#X connect 21 0 23 0;
#X connect 23 0 33 0;
#X connect 24 0 25 1;
#X connect 24 0 39 1;
#X connect 25 0 26 0;
#X connect 26 0 27 0;
#X connect 27 0 34 0;
#X connect 29 0 31 0;
#X connect 30 0 29 0;
#X connect 31 0 35 0;
#X connect 36 0 37 0;
#X connect 37 0 43 0;
#X connect 39 0 49 0;
#X connect 41 0 42 0;
#X connect 42 0 45 0;
#X connect 46 0 50 0;
#X connect 48 0 2 0;
#X connect 49 0 44 0;
#X connect 50 0 47 0;
#X connect 51 0 15 0;
#X connect 52 0 19 1;
#X connect 52 0 24 0;
#X restore 378 219 pd \$0-lowshelf;
#N canvas 129 172 995 450 \$0-highshelf 0;
#X obj 161 33 r~ \$0-freq;
#X obj 463 229 sqrt~;
#X obj 348 63 clip~ 0.001 1;
#X obj 484 42 r~ \$0-gain;
#X obj 484 64 /~ 40;
#X obj 463 86 sig~ 10;
#X obj 463 108 pow~;
#X obj 463 130 *~;
#X obj 463 152 +~ 1;
#X obj 520 135 /~;
#X obj 520 113 sig~ 1;
#X obj 520 157 -~ 1;
#X obj 463 174 *~;
#X obj 520 189 *~ 2;
#X obj 463 206 +~;
#X obj 448 252 *~;
#X text 474 250 alpha;
#X obj 277 225 +~ 1;
#X obj 322 225 -~ 1;
#X obj 322 247 *~;
#X obj 322 269 +~;
#X text 303 308 first line of left [expr~];
#X obj 277 308 *~;
#X obj 161 242 *~;
#X obj 146 324 *~;
#X text 189 387 2nd line of left [expr~];
#X obj 433 341 -~;
#X obj 433 363 *~;
#X text 461 363 3rd line of left [expr~];
#X obj 277 330 throw~ \$0-b0;
#X obj 146 408 throw~ \$0-b1;
#X obj 433 385 throw~ \$0-b2;
#X obj 685 125 +~;
#X text 714 122 1st line of right [expr~];
#X text 715 192 2nd line of right [expr~];
#X obj 684 283 -~;
#X obj 685 147 throw~ \$0-a0;
#X obj 685 236 throw~ \$0-a1;
#X obj 684 305 throw~ \$0-a2;
#X obj 926 126 r \$0-type;
#X obj 926 170 switch~;
#X obj 277 286 +~;
#X obj 146 302 +~;
#X obj 146 386 *~ -2;
#X obj 405 341 +~;
#X obj 685 103 -~;
#X obj 685 191 -~;
#X obj 684 261 -~;
#X obj 348 41 r~ \$0-slope;
#X obj 685 213 *~ 2;
#X obj 926 148 == 6;
#N canvas 603 236 261 233 sin~ 0;
#X obj 75 55 inlet~;
#X obj 75 99 cos~;
#X obj 75 121 outlet~;
#X obj 75 77 -~ 0.25;
#X connect 0 0 3 0;
#X connect 1 0 2 0;
#X connect 3 0 1 0;
#X restore 267 95 pd sin~;
#X obj 161 95 cos~;
#X connect 0 0 51 0;
#X connect 0 0 52 0;
#X connect 1 0 15 1;
#X connect 2 0 9 1;
#X connect 3 0 4 0;
#X connect 4 0 6 1;
#X connect 5 0 6 0;
#X connect 6 0 7 0;
#X connect 6 0 7 1;
#X connect 6 0 13 0;
#X connect 6 0 17 0;
#X connect 6 0 18 0;
#X connect 6 0 22 1;
#X connect 6 0 24 1;
#X connect 6 0 27 1;
#X connect 7 0 8 0;
#X connect 8 0 12 0;
#X connect 9 0 11 0;
#X connect 10 0 9 0;
#X connect 11 0 12 1;
#X connect 12 0 14 0;
#X connect 13 0 14 1;
#X connect 14 0 1 0;
#X connect 15 0 20 1;
#X connect 15 0 32 1;
#X connect 15 0 35 1;
#X connect 15 0 26 1;
#X connect 17 0 23 1;
#X connect 17 0 41 0;
#X connect 17 0 44 0;
#X connect 17 0 45 0;
#X connect 17 0 47 0;
#X connect 18 0 19 0;
#X connect 18 0 42 0;
#X connect 18 0 46 0;
#X connect 19 0 20 0;
#X connect 19 0 44 1;
#X connect 19 0 45 1;
#X connect 19 0 47 1;
#X connect 20 0 41 1;
#X connect 22 0 29 0;
#X connect 23 0 42 1;
#X connect 23 0 46 1;
#X connect 24 0 43 0;
#X connect 26 0 27 0;
#X connect 27 0 31 0;
#X connect 32 0 36 0;
#X connect 35 0 38 0;
#X connect 39 0 50 0;
#X connect 41 0 22 0;
#X connect 42 0 24 0;
#X connect 43 0 30 0;
#X connect 44 0 26 0;
#X connect 45 0 32 0;
#X connect 46 0 49 0;
#X connect 47 0 35 0;
#X connect 48 0 2 0;
#X connect 49 0 37 0;
#X connect 50 0 40 0;
#X connect 51 0 15 0;
#X connect 52 0 19 1;
#X connect 52 0 23 0;
#X restore 378 264 pd \$0-highshelf;
#N canvas 0 22 592 409 \$0-allpass 0;
#X obj 208 16 r~ \$0-freq;
#X obj 242 98 log~;
#X obj 242 74 sig~ 2;
#X obj 327 57 r~ \$0-slope;
#X obj 327 79 max~ 0.01;
#X obj 327 103 *~ 2;
#X obj 242 120 /~;
#X obj 242 200 /~;
#X obj 242 245 *~;
#X obj 242 267 +~ 1;
#X obj 242 329 throw~ \$0-a0;
#X obj 355 268 sig~ 1;
#X obj 355 290 -~;
#X obj 355 342 throw~ \$0-a2;
#X obj 368 317 throw~ \$0-b0;
#X obj 255 305 throw~ \$0-b2;
#X obj 104 167 *~ -2;
#X obj 104 221 throw~ \$0-b1;
#X obj 120 193 throw~ \$0-a1;
#X obj 472 65 r \$0-type;
#X obj 472 109 switch~;
#X obj 242 172 *~;
#N canvas 795 167 367 284 sinh~ 0;
#X obj 120 50 inlet~;
#X obj 158 115 *~ -1;
#X obj 120 199 outlet~;
#X obj 120 177 *~ 0.5;
#X obj 120 155 -~;
#X obj 120 87 exp~;
#X obj 158 138 exp~;
#X connect 0 0 1 0;
#X connect 0 0 5 0;
#X connect 1 0 6 0;
#X connect 3 0 2 0;
#X connect 4 0 3 0;
#X connect 5 0 4 0;
#X connect 6 0 4 1;
#X restore 242 223 pd sinh~;
#X obj 472 87 == 3;
#N canvas 0 22 374 273 twopi 0;
#X obj 165 66 loadbang;
#X obj 165 113 atan;
#X msg 165 91 1;
#X obj 165 157 outlet;
#X obj 165 135 * 8;
#X connect 0 0 2 0;
#X connect 1 0 4 0;
#X connect 2 0 1 0;
#X connect 4 0 3 0;
#X restore 293 134 pd twopi;
#N canvas 603 236 261 233 sin~ 0;
#X obj 75 55 inlet~;
#X obj 75 99 cos~;
#X obj 75 121 outlet~;
#X obj 75 77 -~ 0.25;
#X connect 0 0 3 0;
#X connect 1 0 2 0;
#X connect 3 0 1 0;
#X restore 208 43 pd sin~;
#X obj 278 155 *~;
#X obj 104 145 cos~;
#X connect 0 0 25 0;
#X connect 0 0 26 0;
#X connect 0 0 27 0;
#X connect 1 0 6 0;
#X connect 2 0 1 0;
#X connect 3 0 4 0;
#X connect 4 0 5 0;
#X connect 5 0 6 1;
#X connect 6 0 21 0;
#X connect 7 0 22 0;
#X connect 8 0 9 0;
#X connect 8 0 12 1;
#X connect 9 0 10 0;
#X connect 9 0 15 0;
#X connect 11 0 12 0;
#X connect 12 0 13 0;
#X connect 12 0 14 0;
#X connect 16 0 17 0;
#X connect 16 0 18 0;
#X connect 19 0 23 0;
#X connect 21 0 7 0;
#X connect 22 0 8 0;
#X connect 23 0 20 0;
#X connect 24 0 26 1;
#X connect 25 0 7 1;
#X connect 25 0 8 1;
#X connect 26 0 21 1;
#X connect 27 0 16 0;
#X restore 378 196 pd \$0-allpass;
#X obj 378 81 inlet type;
#N canvas 0 22 657 331 \$0-unpack_coeff 0;
#X obj 52 191 /~;
#X obj 482 62 catch~ \$0-a0;
#X obj 52 239 outlet~;
#X obj 132 191 /~;
#X obj 132 239 outlet~;
#X obj 212 62 catch~ \$0-b0;
#X obj 212 191 /~;
#X obj 212 239 outlet~;
#X obj 292 191 /~;
#X obj 292 239 outlet~;
#X obj 372 191 /~;
#X obj 372 239 outlet~;
#X obj 52 62 catch~ \$0-a1;
#X obj 132 62 catch~ \$0-a2;
#X obj 292 62 catch~ \$0-b1;
#X obj 372 62 catch~ \$0-b2;
#X obj 52 125 *~ -1;
#X obj 132 126 *~ -1;
#X connect 0 0 2 0;
#X connect 1 0 0 1;
#X connect 1 0 3 1;
#X connect 1 0 6 1;
#X connect 1 0 8 1;
#X connect 1 0 10 1;
#X connect 3 0 4 0;
#X connect 5 0 6 0;
#X connect 6 0 7 0;
#X connect 8 0 9 0;
#X connect 10 0 11 0;
#X connect 12 0 16 0;
#X connect 13 0 17 0;
#X connect 14 0 8 0;
#X connect 15 0 10 0;
#X connect 16 0 0 0;
#X connect 17 0 3 0;
#X restore 50 105 pd \$0-unpack_coeff;
#X obj 37 158 outlet~;
#N canvas 315 150 450 291 \$0-pack_input 0;
#X obj 56 101 loadbang;
#X obj 56 123 samplerate~;
#X obj 41 189 s~ \$0-freq;
#X obj 151 98 s~ \$0-slope;
#X obj 261 98 s~ \$0-gain;
#X obj 41 72 inlet~;
#X obj 151 72 inlet~;
#X obj 261 72 inlet~;
#X obj 56 145 pow -1;
#X obj 41 167 *~;
#X connect 0 0 1 0;
#X connect 1 0 8 0;
#X connect 5 0 9 0;
#X connect 6 0 3 0;
#X connect 7 0 4 0;
#X connect 8 0 9 1;
#X connect 9 0 2 0;
#X restore 189 153 pd \$0-pack_input;
#N canvas 562 354 452 351 \$0-set_type 0;
#X obj 29 37 inlet;
#X obj 74 37 loadbang;
#X obj 29 293 s \$0-type;
#X obj 74 59 t b b;
#X msg 101 105 lowpass;
#X msg 29 201 0;
#X msg 72 201 1;
#X msg 115 201 2;
#X msg 158 201 3;
#X msg 201 201 4;
#X msg 244 201 5;
#X msg 287 201 6;
#X msg 330 201 7;
#X obj 74 83 list append \$1;
#X msg 74 105 \$1;
#X obj 29 156 route lowpass highpass bandpass allpass lowshelf peaknotch
highshelf resonant;
#X connect 0 0 15 0;
#X connect 1 0 3 0;
#X connect 3 0 13 0;
#X connect 3 1 4 0;
#X connect 4 0 15 0;
#X connect 5 0 2 0;
#X connect 6 0 2 0;
#X connect 7 0 2 0;
#X connect 8 0 2 0;
#X connect 9 0 2 0;
#X connect 10 0 2 0;
#X connect 11 0 2 0;
#X connect 12 0 2 0;
#X connect 13 0 14 0;
#X connect 14 0 15 0;
#X connect 15 0 5 0;
#X connect 15 1 6 0;
#X connect 15 2 7 0;
#X connect 15 3 8 0;
#X connect 15 4 9 0;
#X connect 15 5 10 0;
#X connect 15 6 11 0;
#X connect 15 7 12 0;
#X restore 378 104 pd \$0-set_type;
#N canvas 237 205 768 462 \$0-peaknotch 0;
#X obj 131 45 r~ \$0-freq;
#X obj 131 89 *~ -2;
#X obj 131 141 throw~ \$0-b1;
#X obj 149 116 throw~ \$0-a1;
#X obj 292 147 /~;
#X obj 401 86 r~ \$0-slope;
#X obj 401 108 max~ 0.01;
#X obj 401 130 *~ 2;
#X obj 526 83 r~ \$0-gain;
#X obj 526 105 /~ 40;
#X obj 505 130 sig~ 10;
#X obj 505 152 pow~;
#X obj 292 169 *~;
#X obj 292 234 +~ 1;
#X obj 292 256 throw~ \$0-b0;
#X obj 379 258 throw~ \$0-b2;
#X obj 379 213 sig~ 1;
#X obj 379 235 -~;
#X obj 490 192 /~;
#X obj 490 236 +~ 1;
#X obj 490 258 throw~ \$0-a0;
#X obj 579 213 sig~ 1;
#X obj 579 235 -~;
#X obj 579 258 throw~ \$0-a2;
#X obj 666 62 r \$0-type;
#X obj 666 106 switch~;
#X obj 666 84 == 5;
#N canvas 603 236 261 233 sin~ 0;
#X obj 75 55 inlet~;
#X obj 75 99 cos~;
#X obj 75 121 outlet~;
#X obj 75 77 -~ 0.25;
#X connect 0 0 3 0;
#X connect 1 0 2 0;
#X connect 3 0 1 0;
#X restore 292 125 pd sin~;
#X obj 131 67 cos~;
#X connect 0 0 27 0;
#X connect 0 0 28 0;
#X connect 1 0 2 0;
#X connect 1 0 3 0;
#X connect 4 0 12 0;
#X connect 4 0 18 0;
#X connect 5 0 6 0;
#X connect 6 0 7 0;
#X connect 7 0 4 1;
#X connect 8 0 9 0;
#X connect 9 0 11 1;
#X connect 10 0 11 0;
#X connect 11 0 12 1;
#X connect 11 0 18 1;
#X connect 12 0 13 0;
#X connect 12 0 17 1;
#X connect 13 0 14 0;
#X connect 16 0 17 0;
#X connect 17 0 15 0;
#X connect 18 0 19 0;
#X connect 18 0 22 1;
#X connect 19 0 20 0;
#X connect 21 0 22 0;
#X connect 22 0 23 0;
#X connect 24 0 26 0;
#X connect 26 0 25 0;
#X connect 27 0 4 0;
#X connect 28 0 1 0;
#X restore 378 242 pd \$0-peaknotch;
#N canvas 0 22 740 504 \$0-biquad 0;
#X obj 56 23 inlet~ sig;
#X obj 140 23 inlet~ a1;
#X obj 210 23 inlet~ a2;
#X obj 276 23 inlet~ b0;
#X obj 350 23 inlet~ b1;
#X obj 420 23 inlet~ b2;
#X obj 56 104 *~;
#X obj 56 216 czero~;
#X obj 56 248 czero~;
#X obj 56 320 cpole~;
#X obj 56 362 cpole~;
#X obj 56 384 outlet~;
#X text 456 182 y[n] = b0*x[n] + b1*x[n-1] + b2*x[n-2];
#X text 499 199 - a1*y[n-1] - a2*y[n-2];
#X text 399 154 Difference Equation:;
#X text 408 260 z-Transform:;
#X text 457 287 H(z) = b0 + b1*z^-1 + b2*z^-2;
#X text 499 296 ----------------------;
#X text 503 307 1 + a1*z^-1 + a2*z^-2;
#N canvas 245 129 664 509 get_pole_locations 0;
#X obj 125 76 inlet~;
#X obj 324 76 inlet~;
#X obj 125 336 outlet~;
#X obj 170 313 outlet~;
#X obj 227 336 outlet~;
#X obj 272 313 outlet~;
#N canvas 516 138 715 527 pole1 0;
#X obj 78 86 inlet~;
#X obj 224 86 inlet~;
#X obj 78 350 outlet~;
#X obj 165 350 outlet~;
#X obj 136 290 sig~ 2;
#X text 324 183 if sqrt(b^2-4ac) is less than 0 \, make it the imaginary
part of the numerator. Else \, add it to the real part (imaginary stays
zero).;
#X text 226 223 -b + ...;
#X obj 136 137 max~ 0;
#X obj 136 159 sqrt~;
#X obj 224 128 min~ 0;
#X obj 224 150 abs~;
#X obj 224 172 sqrt~;
#N canvas 0 22 450 300 complex_add~ 0;
#X obj 42 41 inlet~;
#X obj 122 41 inlet~;
#X obj 242 41 inlet~;
#X obj 322 41 inlet~;
#X obj 130 154 +~;
#X obj 250 154 +~;
#X obj 130 197 outlet~;
#X obj 250 197 outlet~;
#X connect 0 0 4 0;
#X connect 1 0 5 0;
#X connect 2 0 4 1;
#X connect 3 0 5 1;
#X connect 4 0 6 0;
#X connect 5 0 7 0;
#X restore 78 223 pd complex_add~;
#N canvas 0 22 596 441 complex_div~ 0;
#X obj 142 65 inlet~;
#X obj 193 65 inlet~;
#X obj 420 65 inlet~;
#X obj 469 65 inlet~;
#X obj 142 332 outlet~;
#X obj 390 332 outlet~;
#X obj 142 286 /~;
#X obj 390 286 /~;
#X obj 405 185 *~;
#X obj 454 195 *~;
#X obj 405 212 +~;
#X obj 142 185 *~;
#X obj 193 195 *~;
#X obj 142 212 +~;
#X obj 271 185 *~;
#X obj 316 195 *~;
#X obj 271 212 -~;
#X connect 0 0 11 0;
#X connect 0 0 15 0;
#X connect 1 0 12 0;
#X connect 1 0 14 0;
#X connect 2 0 8 0;
#X connect 2 0 8 1;
#X connect 2 0 11 1;
#X connect 2 0 14 1;
#X connect 3 0 9 0;
#X connect 3 0 9 1;
#X connect 3 0 12 1;
#X connect 3 0 15 1;
#X connect 6 0 4 0;
#X connect 7 0 5 0;
#X connect 8 0 10 0;
#X connect 9 0 10 1;
#X connect 10 0 7 1;
#X connect 10 0 6 1;
#X connect 11 0 13 0;
#X connect 12 0 13 1;
#X connect 13 0 6 0;
#X connect 14 0 16 0;
#X connect 15 0 16 1;
#X connect 16 0 7 0;
#X restore 78 316 pd complex_div~;
#X connect 0 0 12 0;
#X connect 1 0 7 0;
#X connect 1 0 9 0;
#X connect 4 0 13 2;
#X connect 7 0 8 0;
#X connect 8 0 12 2;
#X connect 9 0 10 0;
#X connect 10 0 11 0;
#X connect 11 0 12 3;
#X connect 12 0 13 0;
#X connect 12 1 13 1;
#X connect 13 0 2 0;
#X connect 13 1 3 0;
#X restore 125 242 pd pole1;
#N canvas 392 46 701 467 pole2 0;
#X obj 78 86 inlet~;
#X obj 206 86 inlet~;
#X obj 78 380 outlet~;
#X obj 165 380 outlet~;
#X obj 136 321 sig~ 2;
#X text 310 185 if sqrt(b^2-4ac) is less than 0 \, make it the imaginary
part of the numerator. Else \, add it to the real part (imaginary stays
zero).;
#X text 226 253 -b - ...;
#X obj 136 161 max~ 0;
#X obj 136 183 sqrt~;
#X obj 206 161 min~ 0;
#X obj 206 183 abs~;
#X obj 206 205 sqrt~;
#N canvas 0 22 450 300 complex_sub~ 0;
#X obj 42 41 inlet~;
#X obj 122 41 inlet~;
#X obj 242 41 inlet~;
#X obj 322 41 inlet~;
#X obj 130 197 outlet~;
#X obj 250 197 outlet~;
#X obj 130 154 -~;
#X obj 250 154 -~;
#X connect 0 0 6 0;
#X connect 1 0 7 0;
#X connect 2 0 6 1;
#X connect 3 0 7 1;
#X connect 6 0 4 0;
#X connect 7 0 5 0;
#X restore 78 253 pd complex_sub~;
#N canvas 0 22 596 441 complex_div~ 0;
#X obj 142 65 inlet~;
#X obj 193 65 inlet~;
#X obj 420 65 inlet~;
#X obj 469 65 inlet~;
#X obj 142 332 outlet~;
#X obj 390 332 outlet~;
#X obj 142 286 /~;
#X obj 390 286 /~;
#X obj 405 185 *~;
#X obj 454 195 *~;
#X obj 405 212 +~;
#X obj 142 185 *~;
#X obj 193 195 *~;
#X obj 142 212 +~;
#X obj 271 185 *~;
#X obj 316 195 *~;
#X obj 271 212 -~;
#X connect 0 0 11 0;
#X connect 0 0 15 0;
#X connect 1 0 12 0;
#X connect 1 0 14 0;
#X connect 2 0 8 0;
#X connect 2 0 8 1;
#X connect 2 0 11 1;
#X connect 2 0 14 1;
#X connect 3 0 9 0;
#X connect 3 0 9 1;
#X connect 3 0 12 1;
#X connect 3 0 15 1;
#X connect 6 0 4 0;
#X connect 7 0 5 0;
#X connect 8 0 10 0;
#X connect 9 0 10 1;
#X connect 10 0 7 1;
#X connect 10 0 6 1;
#X connect 11 0 13 0;
#X connect 12 0 13 1;
#X connect 13 0 6 0;
#X connect 14 0 16 0;
#X connect 15 0 16 1;
#X connect 16 0 7 0;
#X restore 78 346 pd complex_div~;
#X connect 0 0 12 0;
#X connect 1 0 7 0;
#X connect 1 0 9 0;
#X connect 4 0 13 2;
#X connect 7 0 8 0;
#X connect 8 0 12 2;
#X connect 9 0 10 0;
#X connect 10 0 11 0;
#X connect 11 0 12 3;
#X connect 12 0 13 0;
#X connect 12 1 13 1;
#X connect 13 0 2 0;
#X connect 13 1 3 0;
#X restore 227 243 pd pole2;
#X obj 125 159 *~ 1;
#X text 395 225 ---------------------;
#X text 440 236 2a;
#X text 349 211 roots = -b +/- sqrt(b^2 - 4ac);
#X text 285 253 Note: since a0 is assumed to be 1 \, a in the quadratic
will always be 1;
#X text 344 160 < - because it should be -a1 and -a2;
#X obj 203 148 *~;
#X obj 324 98 *~ 4;
#X obj 203 170 +~;
#X connect 0 0 8 0;
#X connect 0 0 14 1;
#X connect 0 0 14 0;
#X connect 1 0 15 0;
#X connect 6 0 2 0;
#X connect 6 1 3 0;
#X connect 7 0 4 0;
#X connect 7 1 5 0;
#X connect 8 0 6 0;
#X connect 8 0 7 0;
#X connect 14 0 16 0;
#X connect 15 0 16 1;
#X connect 16 0 6 1;
#X connect 16 0 7 1;
#X restore 140 276 pd get_pole_locations;
#N canvas 0 22 668 429 get_zero_locations 0;
#X obj 125 76 inlet~;
#X obj 254 76 inlet~;
#N canvas 193 58 715 527 zero1 0;
#X obj 78 86 inlet~;
#X obj 214 86 inlet~;
#X obj 78 420 outlet~;
#X obj 165 420 outlet~;
#X obj 136 339 sig~ 2;
#X text 310 185 if sqrt(b^2-4ac) is less than 0 \, make it the imaginary
part of the numerator. Else \, add it to the real part (imaginary stays
zero).;
#X text 226 273 -b + ...;
#X obj 136 166 max~ 0;
#X obj 136 188 sqrt~;
#X obj 214 152 min~ 0;
#X obj 214 174 abs~;
#X obj 214 196 sqrt~;
#N canvas 0 22 450 300 complex_add~ 0;
#X obj 42 41 inlet~;
#X obj 122 41 inlet~;
#X obj 242 41 inlet~;
#X obj 322 41 inlet~;
#X obj 130 154 +~;
#X obj 250 154 +~;
#X obj 130 197 outlet~;
#X obj 250 197 outlet~;
#X connect 0 0 4 0;
#X connect 1 0 5 0;
#X connect 2 0 4 1;
#X connect 3 0 5 1;
#X connect 4 0 6 0;
#X connect 5 0 7 0;
#X restore 78 273 pd complex_add~;
#N canvas 0 22 596 441 complex_div~ 0;
#X obj 142 65 inlet~;
#X obj 193 65 inlet~;
#X obj 420 65 inlet~;
#X obj 469 65 inlet~;
#X obj 142 332 outlet~;
#X obj 390 332 outlet~;
#X obj 142 286 /~;
#X obj 390 286 /~;
#X obj 405 185 *~;
#X obj 454 195 *~;
#X obj 405 212 +~;
#X obj 142 185 *~;
#X obj 193 195 *~;
#X obj 142 212 +~;
#X obj 271 185 *~;
#X obj 316 195 *~;
#X obj 271 212 -~;
#X connect 0 0 11 0;
#X connect 0 0 15 0;
#X connect 1 0 12 0;
#X connect 1 0 14 0;
#X connect 2 0 8 0;
#X connect 2 0 8 1;
#X connect 2 0 11 1;
#X connect 2 0 14 1;
#X connect 3 0 9 0;
#X connect 3 0 9 1;
#X connect 3 0 12 1;
#X connect 3 0 15 1;
#X connect 6 0 4 0;
#X connect 7 0 5 0;
#X connect 8 0 10 0;
#X connect 9 0 10 1;
#X connect 10 0 7 1;
#X connect 10 0 6 1;
#X connect 11 0 13 0;
#X connect 12 0 13 1;
#X connect 13 0 6 0;
#X connect 14 0 16 0;
#X connect 15 0 16 1;
#X connect 16 0 7 0;
#X restore 78 366 pd complex_div~;
#X connect 0 0 12 0;
#X connect 1 0 7 0;
#X connect 1 0 9 0;
#X connect 4 0 13 2;
#X connect 7 0 8 0;
#X connect 8 0 12 2;
#X connect 9 0 10 0;
#X connect 10 0 11 0;
#X connect 11 0 12 3;
#X connect 12 0 13 0;
#X connect 12 1 13 1;
#X connect 13 0 2 0;
#X connect 13 1 3 0;
#X restore 125 242 pd zero1;
#N canvas 404 56 721 425 zero2 0;
#X obj 78 86 inlet~;
#X obj 223 86 inlet~;
#X obj 78 360 outlet~;
#X obj 165 360 outlet~;
#X obj 136 280 sig~ 2;
#X text 310 185 if sqrt(b^2-4ac) is less than 0 \, make it the imaginary
part of the numerator. Else \, add it to the real part (imaginary stays
zero).;
#X text 226 213 -b - ...;
#X obj 136 136 max~ 0;
#X obj 136 158 sqrt~;
#X obj 223 125 min~ 0;
#X obj 223 147 abs~;
#X obj 223 169 sqrt~;
#N canvas 0 22 450 300 complex_sub~ 0;
#X obj 42 41 inlet~;
#X obj 122 41 inlet~;
#X obj 242 41 inlet~;
#X obj 322 41 inlet~;
#X obj 130 197 outlet~;
#X obj 250 197 outlet~;
#X obj 130 154 -~;
#X obj 250 154 -~;
#X connect 0 0 6 0;
#X connect 1 0 7 0;
#X connect 2 0 6 1;
#X connect 3 0 7 1;
#X connect 6 0 4 0;
#X connect 7 0 5 0;
#X restore 78 213 pd complex_sub~;
#N canvas 0 22 596 441 complex_div~ 0;
#X obj 142 65 inlet~;
#X obj 193 65 inlet~;
#X obj 420 65 inlet~;
#X obj 469 65 inlet~;
#X obj 142 332 outlet~;
#X obj 390 332 outlet~;
#X obj 142 286 /~;
#X obj 390 286 /~;
#X obj 405 185 *~;
#X obj 454 195 *~;
#X obj 405 212 +~;
#X obj 142 185 *~;
#X obj 193 195 *~;
#X obj 142 212 +~;
#X obj 271 185 *~;
#X obj 316 195 *~;
#X obj 271 212 -~;
#X connect 0 0 11 0;
#X connect 0 0 15 0;
#X connect 1 0 12 0;
#X connect 1 0 14 0;
#X connect 2 0 8 0;
#X connect 2 0 8 1;
#X connect 2 0 11 1;
#X connect 2 0 14 1;
#X connect 3 0 9 0;
#X connect 3 0 9 1;
#X connect 3 0 12 1;
#X connect 3 0 15 1;
#X connect 6 0 4 0;
#X connect 7 0 5 0;
#X connect 8 0 10 0;
#X connect 9 0 10 1;
#X connect 10 0 7 1;
#X connect 10 0 6 1;
#X connect 11 0 13 0;
#X connect 12 0 13 1;
#X connect 13 0 6 0;
#X connect 14 0 16 0;
#X connect 15 0 16 1;
#X connect 16 0 7 0;
#X restore 78 312 pd complex_div~;
#X connect 0 0 12 0;
#X connect 1 0 7 0;
#X connect 1 0 9 0;
#X connect 4 0 13 2;
#X connect 7 0 8 0;
#X connect 8 0 12 2;
#X connect 9 0 10 0;
#X connect 10 0 11 0;
#X connect 11 0 12 3;
#X connect 12 0 13 0;
#X connect 12 1 13 1;
#X connect 13 0 2 0;
#X connect 13 1 3 0;
#X restore 227 243 pd zero2;
#X obj 125 336 outlet~;
#X obj 170 312 outlet~;
#X obj 227 336 outlet~;
#X obj 272 312 outlet~;
#X obj 125 159 *~ -1;
#X text 416 207 ---------------------;
#X text 461 218 2a;
#X text 370 193 roots = -b +/- sqrt(b^2 - 4ac);
#X text 305 244 Note: becase b0 is extracted from coefficents \, a
in the quadratic will always be 1;
#X obj 171 137 *~;
#X obj 171 159 -~;
#X obj 254 142 *~ 4;
#X connect 0 0 8 0;
#X connect 0 0 13 1;
#X connect 0 0 13 0;
#X connect 1 0 15 0;
#X connect 2 0 4 0;
#X connect 2 1 5 0;
#X connect 3 0 6 0;
#X connect 3 1 7 0;
#X connect 8 0 2 0;
#X connect 8 0 3 0;
#X connect 13 0 14 0;
#X connect 14 0 3 1;
#X connect 14 0 2 1;
#X connect 15 0 14 1;
#X restore 240 138 pd get_zero_locations;
#N canvas 0 22 450 300 extract_gain 0;
#X obj 92 74 inlet~;
#X obj 92 185 outlet~;
#X obj 212 74 inlet~;
#X obj 352 74 inlet~;
#X obj 212 185 outlet~;
#X obj 352 185 outlet~;
#X obj 212 141 /~;
#X obj 352 141 /~;
#X connect 0 0 6 1;
#X connect 0 0 7 1;
#X connect 0 0 1 0;
#X connect 2 0 6 0;
#X connect 3 0 7 0;
#X connect 6 0 4 0;
#X connect 7 0 5 0;
#X restore 276 87 pd extract_gain;
#X connect 0 0 6 0;
#X connect 1 0 19 0;
#X connect 2 0 19 1;
#X connect 3 0 21 0;
#X connect 4 0 21 1;
#X connect 5 0 21 2;
#X connect 6 0 7 0;
#X connect 7 0 8 0;
#X connect 7 1 8 1;
#X connect 8 0 9 0;
#X connect 8 1 9 1;
#X connect 9 0 10 0;
#X connect 9 1 10 1;
#X connect 10 0 11 0;
#X connect 19 0 9 2;
#X connect 19 1 9 3;
#X connect 19 2 10 2;
#X connect 19 3 10 3;
#X connect 20 0 7 2;
#X connect 20 1 7 3;
#X connect 20 2 8 2;
#X connect 20 3 8 3;
#X connect 21 0 6 1;
#X connect 21 1 20 0;
#X connect 21 2 20 1;
#X restore 37 135 pd \$0-biquad;
#X text 36 21 This abstraction packs [filtercoeff.mmb~] and [biquad.mmb~]
abstractions by Mike-Moser Booth omiting the use of [expr~] completely.
;
#X text 259 334 Put together by Alexandros Drymonitis;
#X connect 0 0 17 0;
#X connect 1 0 14 0;
#X connect 2 0 14 1;
#X connect 3 0 14 2;
#X connect 11 0 15 0;
#X connect 12 0 17 1;
#X connect 12 1 17 2;
#X connect 12 2 17 3;
#X connect 12 3 17 4;
#X connect 12 4 17 5;
#X connect 17 0 13 0;
