#N canvas 1381 550 450 300 10;
#X obj 53 68 inlet~;
#X obj 53 110 *~;
#X obj 53 254 throw~ \$1_OUT;
#X obj 74 89 r~ \$2_fade~;
#X msg 110 200 set \$1;
#X obj 149 166 makefilename \$1_%s;
#X obj 163 127 r \$2_OUT_SRC;
#X connect 0 0 1 0;
#X connect 1 0 2 0;
#X connect 3 0 1 1;
#X connect 4 0 2 0;
#X connect 5 0 4 0;
#X connect 6 0 5 0;
