#N canvas 532 266 608 557 10;
#X obj 122 133 inlet;
#X obj 237 356 outlet send;
#X obj 437 466 outlet receive;
#X text 165 132 <sendhost:sendport>;
#X obj 391 138 inlet send;
#X obj 237 286 t a;
#X text 148 66 [cubemixer_server <receivport> <sendhost:sendport>]
;
#X obj 237 316 NET/UDP_OSC/autonet \$1 \$2;
#X obj 407 439 sprinkler;
#X obj 407 415 route /NET;
#X obj 407 395 NET/helper/oscmatcher;
#X obj 407 371 t a a;
#X connect 0 0 7 1;
#X connect 4 0 5 0;
#X connect 5 0 7 0;
#X connect 7 0 1 0;
#X connect 7 1 11 0;
#X connect 9 1 8 0;
#X connect 10 0 9 0;
#X connect 11 0 10 0;
#X connect 11 1 2 0;
