#N canvas 841 79 500 399 10;
#N canvas 111 114 1018 653 control 0;
#X obj 434 130 s grille;
#X obj 120 115 tgl 15 0 empty empty empty 17 7 0 10 -262144 -1 -1 1
1;
#X obj 120 140 tgl 15 0 empty empty empty 17 7 0 10 -262144 -1 -1 1
1;
#X obj 120 215 tgl 15 0 empty empty empty 17 7 0 10 -262144 -1 -1 1
1;
#X floatatom 173 291 5 0 0 0 - - -;
#X obj 341 307 s latence;
#X obj 20 98 init 1;
#X text 140 111 Afficher la grille;
#X obj 434 155 s nombre;
#X text 117 291 Latence;
#X text 213 291 ms;
#X obj 173 419 pix_video;
#X obj 173 594 s flux-gem;
#X obj 173 507 pix_flip;
#X obj 201 462 init horizontal;
#X msg 173 359 device \$1;
#X obj 173 320 hradio 15 1 0 4 empty empty empty 0 -8 0 10 -262144
-1 -1 0;
#X obj 53 402 gemhead 50;
#X text 116 317 Camera;
#X text 140 136 Afficher les nombres;
#X obj 443 579 separator;
#X obj 443 626 pix_texture;
#X obj 173 545 t a a;
#X obj 333 562 spigot 1;
#X obj 120 165 tgl 15 0 empty empty empty 17 7 0 10 -262144 -1 -1 1
1;
#X text 140 161 Afficher le fond;
#X obj 120 190 tgl 15 0 empty empty empty 17 7 0 10 -262144 -1 -1 1
1;
#X text 140 186 Mode video;
#X obj 434 205 s video-bt;
#X obj -9 173 init 0;
#X obj 434 230 s color;
#X obj 120 240 tgl 15 0 empty empty empty 17 7 0 10 -262144 -1 -1 0
1;
#X text 140 211 Mode blanc ou rouge;
#X text 140 236 Mode fantome;
#X obj 434 255 s ghost;
#X obj 0 223 init 0;
#X obj 443 651 rectangle 13.325 10;
#X obj 443 604 translateXYZ 11.99 9 0;
#X obj 36 274 init 500;
#N canvas 609 79 706 411 GEM 0;
#X floatatom 13 23 5 0 0 0 - - -;
#X floatatom 48 23 5 0 0 0 - - -;
#X floatatom 83 23 5 0 0 0 - - -;
#X obj 13 116 pack f f f;
#X obj 83 64 t b f;
#X obj 48 64 t b f;
#X msg 13 148 view \$1 \$2 \$3;
#X obj 125 28 tgl 15 0 empty empty empty 17 7 0 10 -262144 -1 -1 1
1;
#X obj 234 1 sel 1 0;
#X msg 253 199 0 \, destroy;
#X obj 13 -124 t b b b;
#X obj 203 49 t b b;
#X obj 221 -135 gemkeyboard;
#X obj 267 -101 key;
#X obj 221 -85 sel 9;
#X obj 267 -48 sel 27;
#X text 39 4 Affichage;
#X text 24 39 X;
#X text 61 39 Y;
#X text 95 39 Z;
#X msg 13 -97 12;
#X msg 48 -91 9;
#X msg 83 -76 10;
#X obj 125 -77 del 15000;
#X obj 125 -100 loadbang;
#X msg 125 -54 1;
#X obj 13 216 gemwin 25;
#X msg 230 98 reset \, border 1 \, dimen 800 600 \, offset 1024 0 \,
create \, 1;
#X connect 0 0 3 0;
#X connect 1 0 5 0;
#X connect 2 0 4 0;
#X connect 3 0 6 0;
#X connect 4 0 3 0;
#X connect 4 1 3 2;
#X connect 5 0 3 0;
#X connect 5 1 3 1;
#X connect 6 0 26 0;
#X connect 7 0 8 0;
#X connect 8 0 11 0;
#X connect 8 1 9 0;
#X connect 9 0 26 0;
#X connect 10 0 20 0;
#X connect 10 1 21 0;
#X connect 10 2 22 0;
#X connect 11 0 10 0;
#X connect 11 1 27 0;
#X connect 12 0 14 0;
#X connect 13 0 15 0;
#X connect 14 0 7 0;
#X connect 15 0 7 0;
#X connect 20 0 0 0;
#X connect 21 0 1 0;
#X connect 22 0 2 0;
#X connect 24 0 23 0;
#X connect 24 0 25 0;
#X connect 25 0 7 0;
#X connect 27 0 26 0;
#X coords 0 -1 1 1 150 60 2 0 0;
#X restore 572 175 pd GEM;
#X obj 433 280 s puzzle;
#X obj 120 265 tgl 15 0 empty empty empty 17 7 0 10 -262144 -1 -1 0
1;
#X text 139 263 Mode puzzle;
#X connect 1 0 0 0;
#X connect 2 0 8 0;
#X connect 3 0 30 0;
#X connect 4 0 5 0;
#X connect 6 0 1 0;
#X connect 6 0 3 0;
#X connect 6 0 24 0;
#X connect 6 0 2 0;
#X connect 6 0 26 0;
#X connect 11 0 13 0;
#X connect 13 0 22 0;
#X connect 14 0 13 0;
#X connect 15 0 11 0;
#X connect 16 0 15 0;
#X connect 17 0 11 0;
#X connect 20 0 37 0;
#X connect 21 0 36 0;
#X connect 22 0 12 0;
#X connect 22 1 23 0;
#X connect 23 0 20 0;
#X connect 24 0 23 1;
#X connect 26 0 28 0;
#X connect 31 0 34 0;
#X connect 35 0 31 0;
#X connect 37 0 21 0;
#X connect 38 0 4 0;
#X connect 41 0 40 0;
#X coords 0 -1 1 1 200 240 2 100 100;
#X restore 277 27 pd control;
#X floatatom 350 364 5 0 0 0 - - -;
#X obj 350 334 r nb-out;
#X obj 13 115 bng 15 250 50 0 empty empty empty 17 7 0 10 -262144 -1
-1;
#X obj 13 240 bng 15 250 50 0 empty empty empty 17 7 0 10 -262144 -1
-1;
#X obj 147 115 bng 15 250 50 0 empty empty empty 17 7 0 10 -262144
-1 -1;
#X text 301 7 Gestion de l'affichage;
#N canvas 514 164 596 484 positions 0;
#X obj 391 114 s X;
#X obj 415 60 s Y;
#X obj 440 6 s bt-G;
#X obj 490 6 s bt-D;
#X obj 390 149 gemkeyname;
#X obj 390 300 spigot;
#X obj 481 317 sel 0 1;
#X msg 447 283 1;
#X msg 481 341 0;
#X obj 447 199 sel Control_L Control_R;
#X obj 390 372 s maintient;
#X obj 202 103 bng 10 250 50 0 empty empty empty 17 7 0 10 -262144
-1 -1;
#X text 217 99 save;
#X obj 202 146 s save;
#X obj 251 103 bng 10 250 50 0 empty empty empty 17 7 0 10 -262144
-1 -1;
#X text 266 99 reset;
#X obj 251 146 s reset;
#X obj 311 310 loadbang;
#X msg 311 355 1 \, 0;
#X obj 391 87 - 1.33;
#X obj 415 33 expr ($f1 - 19)* (-1);
#X obj 391 -21 gemmouse 26.66 20;
#X connect 4 0 5 0;
#X connect 4 1 9 0;
#X connect 5 0 6 0;
#X connect 5 0 10 0;
#X connect 6 0 8 0;
#X connect 7 0 5 1;
#X connect 8 0 5 1;
#X connect 9 0 7 0;
#X connect 9 1 7 0;
#X connect 11 0 13 0;
#X connect 14 0 16 0;
#X connect 17 0 18 0;
#X connect 18 0 10 0;
#X connect 19 0 0 0;
#X connect 20 0 1 0;
#X connect 21 0 19 0;
#X connect 21 1 20 0;
#X connect 21 2 2 0;
#X connect 21 4 3 0;
#X coords 0 -1 1 1 200 16 1 100 100;
#X restore 277 277 pd positions;
#X obj 147 240 bng 15 250 50 0 empty empty empty 17 7 0 10 -262144
-1 -1;
#X obj 13 155 cellule 3;
#X obj 13 30 cellule 1;
#X obj 147 155 cellule 4;
#X obj 147 30 cellule 2;
#N canvas 1 107 340 141 infos 0;
#X text 17 53 http://www.labomedia.net;
#X text 17 18 http://www.yamatierea.org/papatchs;
#X text 17 41 Pour le Labomedia.;
#X text 18 108 15/02/11;
#X text 17 6 Tisse par Olivier Baudu.;
#X text 18 80 Avec l'aide precieuse de Benjamin Cadon.;
#X restore 348 306 pd infos;
#X obj 87 334 net/udpsend 13000;
#X connect 2 0 1 0;
#X connect 9 0 4 0;
#X connect 10 0 3 0;
#X connect 11 0 8 0;
#X connect 12 0 5 0;
