#N canvas 342 25 1001 632 10;
#X obj 101 115 cnv 15 68 20 empty \$1-color empty 20 12 0 14 -262144
-262144 0;
#X text 1048 -410 1;
#X text 1086 -456 - x -;
#X text 1048 -396 2;
#X text 1048 -384 3;
#X text 1048 -374 4;
#X text 1048 -363 5;
#X text 1048 -352 6;
#X text 1048 -342 7;
#X text 1006 -389 - y -;
#X obj 447 -27 pix_mean_color;
#X obj 528 14 unpack 0 0 0 0;
#X obj 555 186 -;
#X obj 528 127 t 0 0;
#X obj 555 267 change;
#X obj 373 -137 pix_crop 1 1 0 0;
#X obj 582 43 +;
#X obj 555 72 +;
#X obj 528 101 +;
#X obj 679 401 outlet;
#X obj 555 213 abs;
#X text 1049 -422 0;
#X text 1057 -435 0 1 2 3 4 5 6 7;
#X obj 284 581 pix_texture;
#X obj 284 684 rectangle 0.5 0.5;
#X obj 350 -804 separator;
#X obj 284 549 alpha;
#X obj 525 367 line;
#X obj 371 551 loadbang;
#X obj 371 -766 pix_info;
#X obj 350 -872 r flux-gem;
#X obj 377 -571 change;
#X obj 622 -510 change;
#X msg 371 580 draw fill;
#X obj 71 680 rectangle 0.5 0.5;
#X obj -33 634 loadbang;
#X msg -33 663 draw line;
#X obj 116 457 r grille;
#X obj 546 -106 r niveau-mvt;
#X obj 447 -54 pix_movement 0.05;
#X obj 46 -437 text2d;
#X msg 66 -474 text \$1;
#X obj 91 -702 r nombre;
#X obj 555 240 > 0.3;
#X obj 617 284 once;
#X obj 617 322 t b b;
#X obj 677 306 del 300;
#X obj 716 264 r latence;
#X obj 71 -129 gemhead 60;
#X obj 550 -649 t b f;
#X obj 655 -390 *;
#X obj 817 -581 t b f;
#X obj 710 -154 +;
#X obj 766 -328 -;
#X obj 754 -373 t b f;
#X obj 766 -212 / 2;
#X obj 636 -436 t f f f;
#X obj 396 -466 *;
#X obj 442 -278 +;
#X obj 498 -404 -;
#X obj 486 -449 t b f;
#X obj 498 -336 / 2;
#X obj 377 -503 t f f f;
#X msg 525 339 1 \, 0 100;
#X obj 237 -84 r video-bt;
#X obj 237 10 == 0;
#X obj 373 -108 t a a;
#X obj 126 -454 init 16;
#X obj 344 355 r color;
#X obj 344 401 sel 0 1;
#X msg 344 431 1;
#X msg 376 431 0;
#X obj 329 222 r ghost;
#X obj 329 248 == 0;
#X obj 377 -545 / 10;
#X obj 622 -467 / 10;
#X obj 46 -726 gemhead 65;
#X obj 71 369 gemhead 63;
#X obj 71 459 spigot;
#X obj 104 122 tgl 8 0 empty empty empty 17 7 0 10 -262144 -258113
-1 1 1;
#X obj 350 -841 spigot;
#X obj 71 -92 spigot;
#X obj 48 105 init 1;
#X obj 430 -615 t b f;
#X msg 430 -588 1;
#X obj 698 -636 t b f;
#X msg 698 -603 1;
#X obj 442 -421 *;
#X obj 710 -345 *;
#X obj 698 -667 / 2;
#X obj 430 -642 / 2.66;
#X obj 66 -508 init \$1;
#X obj 128 185 rect-DnD \$1;
#X obj 71 490 spigot 1;
#X obj 550 -703 r \$0-X-rect-sml;
#X obj 817 -611 r \$0-Y-rect-sml;
#X obj 383 617 r \$0-X-rect-sml;
#X obj 404 646 r \$0-Y-rect-sml;
#X obj 170 652 r \$0-Y-rect-sml;
#X obj 120 625 r \$0-X-rect-sml;
#X obj 159 239 s \$0-X-rect-sml;
#X obj 175 212 s \$0-Y-rect-sml;
#X obj 284 275 spigot 1;
#X obj 617 364 \$1;
#X obj 284 25 spigot 0;
#X obj 192 46 spigot 1;
#X obj 284 480 colorRGB 1 0 0;
#X obj 617 401 s nb-out;
#X obj 128 293 s \$0-posX;
#X obj 143 266 s \$0-posY;
#X obj 46 -572 translateXYZ;
#X obj 69 -626 r \$0-posX;
#X obj 92 -599 r \$0-posY;
#X obj 71 581 translateXYZ;
#X obj 94 527 r \$0-posX;
#X obj 117 554 r \$0-posY;
#X text 45 -749 Affichage des nombres;
#X obj 284 155 translateXYZ;
#X obj 307 101 r \$0-posX;
#X obj 330 128 r \$0-posY;
#X obj 698 -699 r \$0-posY;
#X obj 430 -669 r \$0-posX;
#X text 124 117 actif;
#X obj 105 149 hsl 61 10 0.6 0.05 0 0 empty empty empty -2 -8 0 10
-262144 -1 -1 2591 1;
#X floatatom 582 159 5 0 0 0 - - -;
#X msg 139 -491 font DejaVuSans.ttf;
#X text 101 134 sensibilite;
#X obj 550 -676 / 1.33;
#X obj 446 463 spigot 1;
#X obj 464 341 r puzzle;
#X obj 491 394 == 0;
#X obj 464 364 t f f;
#X obj 46 -677 spigot 1;
#X connect 10 1 11 0;
#X connect 11 0 18 0;
#X connect 11 1 17 0;
#X connect 11 2 16 0;
#X connect 11 3 16 1;
#X connect 12 0 20 0;
#X connect 13 0 12 1;
#X connect 13 1 12 0;
#X connect 14 0 44 0;
#X connect 15 0 66 0;
#X connect 16 0 17 1;
#X connect 17 0 18 1;
#X connect 18 0 13 0;
#X connect 20 0 43 0;
#X connect 23 0 24 0;
#X connect 25 0 29 0;
#X connect 25 0 15 0;
#X connect 26 0 23 0;
#X connect 27 0 128 0;
#X connect 28 0 33 0;
#X connect 29 1 31 0;
#X connect 29 2 32 0;
#X connect 30 0 80 0;
#X connect 31 0 74 0;
#X connect 32 0 75 0;
#X connect 33 0 24 0;
#X connect 35 0 36 0;
#X connect 36 0 34 0;
#X connect 37 0 93 1;
#X connect 38 0 39 1;
#X connect 39 0 10 0;
#X connect 41 0 40 0;
#X connect 42 0 132 1;
#X connect 43 0 14 0;
#X connect 44 0 45 0;
#X connect 45 0 103 0;
#X connect 45 0 63 0;
#X connect 45 0 19 0;
#X connect 45 1 46 0;
#X connect 46 0 44 1;
#X connect 47 0 46 1;
#X connect 48 0 81 0;
#X connect 49 0 74 0;
#X connect 49 1 57 1;
#X connect 50 0 15 2;
#X connect 50 0 54 0;
#X connect 51 0 75 0;
#X connect 51 1 50 1;
#X connect 52 0 15 4;
#X connect 53 0 55 0;
#X connect 54 0 53 0;
#X connect 54 1 53 1;
#X connect 55 0 52 1;
#X connect 56 0 88 0;
#X connect 56 1 50 0;
#X connect 56 2 53 0;
#X connect 57 0 60 0;
#X connect 57 0 15 1;
#X connect 58 0 15 3;
#X connect 59 0 61 0;
#X connect 60 0 59 0;
#X connect 60 1 59 1;
#X connect 61 0 58 1;
#X connect 62 0 87 0;
#X connect 62 1 57 0;
#X connect 62 2 59 0;
#X connect 63 0 27 0;
#X connect 64 0 65 0;
#X connect 64 0 104 1;
#X connect 65 0 105 1;
#X connect 66 0 39 0;
#X connect 66 1 104 0;
#X connect 67 0 40 1;
#X connect 68 0 69 0;
#X connect 69 0 70 0;
#X connect 69 1 71 0;
#X connect 70 0 106 2;
#X connect 70 0 106 3;
#X connect 71 0 106 2;
#X connect 71 0 106 3;
#X connect 72 0 73 0;
#X connect 73 0 102 1;
#X connect 74 0 62 0;
#X connect 75 0 56 0;
#X connect 76 0 132 0;
#X connect 77 0 78 0;
#X connect 78 0 93 0;
#X connect 79 0 78 1;
#X connect 79 0 80 1;
#X connect 79 0 81 1;
#X connect 80 0 25 0;
#X connect 81 0 105 0;
#X connect 82 0 79 0;
#X connect 83 0 84 0;
#X connect 83 1 87 1;
#X connect 84 0 31 0;
#X connect 85 0 86 0;
#X connect 85 1 88 1;
#X connect 86 0 32 0;
#X connect 87 0 58 0;
#X connect 88 0 52 0;
#X connect 89 0 85 0;
#X connect 90 0 83 0;
#X connect 91 0 41 0;
#X connect 91 0 125 0;
#X connect 92 0 108 0;
#X connect 92 1 109 0;
#X connect 92 2 100 0;
#X connect 92 3 101 0;
#X connect 92 4 123 0;
#X connect 93 0 113 0;
#X connect 94 0 127 0;
#X connect 95 0 51 0;
#X connect 96 0 24 1;
#X connect 97 0 24 2;
#X connect 98 0 34 2;
#X connect 99 0 34 1;
#X connect 102 0 106 0;
#X connect 103 0 107 0;
#X connect 104 0 117 0;
#X connect 105 0 117 0;
#X connect 106 0 26 0;
#X connect 110 0 40 0;
#X connect 111 0 110 1;
#X connect 112 0 110 2;
#X connect 113 0 34 0;
#X connect 114 0 113 1;
#X connect 115 0 113 2;
#X connect 117 0 102 0;
#X connect 118 0 117 1;
#X connect 119 0 117 2;
#X connect 120 0 89 0;
#X connect 121 0 90 0;
#X connect 123 0 124 0;
#X connect 123 0 92 0;
#X connect 124 0 43 1;
#X connect 125 0 40 0;
#X connect 127 0 49 0;
#X connect 128 0 106 4;
#X connect 129 0 131 0;
#X connect 130 0 128 1;
#X connect 131 0 106 4;
#X connect 131 1 130 0;
#X connect 132 0 110 0;
#X coords 0 -1 1 1 74 65 1 98 100;
