#N canvas 549 27 988 697 10;
#X obj 52 574 outlet~;
#X obj 164 201 phasor~;
#X floatatom 164 96 5 0 0 0 - - -, f 5;
#X obj 164 74 expr 1/$f1;
#X obj 181 335 *~;
#X obj 47 528 *~;
#X obj 63 427 line~;
#X obj 66 138 t f b;
#X msg 97 169 0;
#X obj 423 613 spigot;
#X obj 61 109 r \$1-playing;
#X obj 463 591 r \$1-playing;
#X obj 250 60 r \$1-pitch;
#X floatatom 251 90 5 0 0 0 - - -, f 5;
#X obj 50 482 tabread4~ \$1-sound-L;
#X obj 227 580 outlet~;
#X obj 222 534 *~;
#X obj 225 488 tabread4~ \$1-sound-R;
#X obj 163 125 sig~;
#X msg 256 120 \$1 20;
#X obj 256 142 line~;
#X obj 164 153 *~;
#X obj 63 405 pack 0 20;
#X obj 549 175 -;
#X obj 604 151 t b f;
#X floatatom 549 197 5 0 0 0 - - -, f 5;
#X obj 547 236 *;
#X obj 607 71 r \$1-loopstart;
#X obj 505 94 r \$1-loopend;
#X floatatom 547 258 5 0 0 0 - - -, f 5;
#X obj 718 169 *;
#X floatatom 718 191 5 0 0 0 - - -, f 5;
#X obj 741 143 r \$1-sample_samples;
#X obj 244 410 +~;
#X obj 403 219 r \$1-sample_samples;
#X obj 370 243 *~;
#X obj 362 209 sig~;
#X obj 582 275 sig~;
#X obj 124 363 r \$1-envelope;
#X obj 164 38 r \$1-sample_s;
#X obj 602 202 r \$1-sample_s;
#X obj 419 571 ys.snapshot 10;
#X obj 103 278 tabread4~ \$1-wavetable-L;
#X obj 362 345 *~;
#X obj 395 404 +~;
#X obj 318 284 tabread4~ \$1-wavetable-R;
#X obj 431 642 s \$1-currentloc-L;
#X obj 572 616 spigot;
#X obj 612 594 r \$1-playing;
#X obj 568 574 ys.snapshot 10;
#X obj 580 647 s \$1-currentloc-R;
#X obj 740 386 spigot;
#X obj 780 364 r \$1-playing;
#X obj 736 326 ys.snapshot 10;
#X obj 746 416 s \$1-currentloc-clock;
#X obj 567 351 samphold~;
#X obj 567 376 ys.snapshot 10;
#X floatatom 567 398 5 0 0 0 - - -, f 5;
#X obj 566 322 osc~ 10;
#X obj 566 418 change;
#X floatatom 566 440 5 0 0 0 - - -, f 5;
#X obj 565 532 s \$1-loopbang;
#X obj 566 459 t b;
#X obj 620 497 spigot;
#X obj 660 475 r \$1-playing;
#X obj 98 209 bng 15 250 50 0 empty empty empty 17 7 0 10 -262144 -1
-1;
#X obj 651 285 r \$1-playing;
#X obj 643 325 *~;
#X obj 737 516 sel 0;
#X obj 410 500 ys.snapshot 10;
#X floatatom 406 523 15 0 0 0 - - -, f 15;
#X obj 39 38 r \$1-samplerate;
#X obj 106 237 *~ 44100;
#X connect 1 0 53 0;
#X connect 1 0 67 0;
#X connect 1 0 72 0;
#X connect 2 0 18 0;
#X connect 3 0 2 0;
#X connect 4 0 33 0;
#X connect 5 0 0 0;
#X connect 6 0 5 1;
#X connect 6 0 16 1;
#X connect 7 0 22 0;
#X connect 7 1 8 0;
#X connect 7 1 65 0;
#X connect 8 0 1 1;
#X connect 9 0 46 0;
#X connect 10 0 7 0;
#X connect 11 0 9 1;
#X connect 12 0 13 0;
#X connect 13 0 19 0;
#X connect 14 0 5 0;
#X connect 16 0 15 0;
#X connect 17 0 16 0;
#X connect 18 0 21 0;
#X connect 19 0 20 0;
#X connect 20 0 21 1;
#X connect 21 0 1 0;
#X connect 22 0 6 0;
#X connect 23 0 25 0;
#X connect 24 0 23 0;
#X connect 24 1 23 1;
#X connect 25 0 26 0;
#X connect 25 0 36 0;
#X connect 26 0 29 0;
#X connect 27 0 24 0;
#X connect 27 0 30 0;
#X connect 28 0 23 0;
#X connect 29 0 3 0;
#X connect 30 0 31 0;
#X connect 31 0 37 0;
#X connect 32 0 30 1;
#X connect 33 0 14 0;
#X connect 33 0 41 0;
#X connect 34 0 35 1;
#X connect 35 0 4 1;
#X connect 35 0 43 1;
#X connect 36 0 35 0;
#X connect 37 0 33 1;
#X connect 37 0 44 1;
#X connect 38 0 22 1;
#X connect 39 0 3 0;
#X connect 40 0 26 1;
#X connect 41 0 9 0;
#X connect 42 0 4 0;
#X connect 43 0 44 0;
#X connect 44 0 17 0;
#X connect 44 0 49 0;
#X connect 45 0 43 0;
#X connect 47 0 50 0;
#X connect 48 0 47 1;
#X connect 49 0 47 0;
#X connect 51 0 54 0;
#X connect 52 0 51 1;
#X connect 53 0 51 0;
#X connect 55 0 56 0;
#X connect 56 0 57 0;
#X connect 57 0 59 0;
#X connect 58 0 55 0;
#X connect 59 0 60 0;
#X connect 60 0 62 0;
#X connect 62 0 63 0;
#X connect 63 0 61 0;
#X connect 64 0 63 1;
#X connect 64 0 68 0;
#X connect 66 0 67 1;
#X connect 67 0 55 1;
#X connect 68 0 61 0;
#X connect 69 0 70 0;
#X connect 72 0 42 0;
#X connect 72 0 45 0;
