#N canvas 246 79 818 627 12;
#X declare -path ../in -path ../out -path ../tools -path ../filters
-path ../lib;
#X obj 7 217 cnv 1 396 1 empty empty FILTERS 2 -6 1 12 -228856 -191407
0;
#X obj 7 394 cnv 1 800 1 empty empty OUT 2 -6 1 12 -228856 -191407
0;
#X obj 7 35 cnv 1 800 1 empty empty IN 2 -6 1 12 -228856 -191407 0
;
#X obj 7 217 cnv 1 800 1 empty empty TOOLS 400 -6 1 12 -228856 -191407
0;
#N canvas 390 316 645 287 INIT 0;
#X obj 103 161 declare -path ../in -path ../out -path ../tools -path
../filters -path ../lib;
#X text 103 132 Always use this subpatch in the presets;
#X obj 101 101 cnv 8 38 8 empty empty INIT 5 4 0 10 -233017 -66577
0;
#X coords 0 -1 1 1 40 10 2 100 100;
#X restore 765 6 pd INIT;
#X obj 208 73 oscilloscope;
#X obj 317 74 arduino-analog-in;
#X obj 299 419 3d-transform 1;
#X floatatom 317 138 5 0 0 0 - - -;
#X obj 517 426 repeat 10;
#X obj 517 449 translateXYZ 0.1 0.1 0;
#X obj 517 402 gemhead;
#X obj 299 526 3d-object 1 0.2;
#X obj 103 418 3d-transform 1;
#X obj 103 525 3d-object 0 0.4;
#N canvas 212 144 770 577 GRAVITATION 0;
#X obj 608 328 physics;
#X msg 594 367 ty \$1;
#X obj 577 200 + 1;
#X obj 467 199 tgl 15 0 empty empty empty 17 7 0 10 -262144 -1 -1 1
1;
#X obj 534 225 / 40;
#X obj 470 45 moses 0.1;
#X obj 470 116 change;
#X msg 357 213 0;
#X obj 470 142 t b f;
#X obj 534 146 change;
#X msg 467 171 1;
#X obj 534 199 f 0;
#X msg 470 82 -1.5;
#X obj 536 290 moses -3;
#X obj 660 363 abs;
#X obj 657 389 / 4;
#X msg 500 451 g 0.5 \, b 1 \, r 0.1;
#X obj 502 424 loadbang;
#X msg 657 418 r \$1;
#X obj 534 171 metro 30;
#X obj 537 73 * 8;
#X obj 21 327 loadbang;
#X msg 22 355 tx -2 tz 0.3 \, rx 45 \, r 0.2 \, g 0.8 \, b 0.2;
#X obj 182 390 - 1;
#X obj 22 449 outlet;
#X msg 71 433 ty \$1;
#X obj 71 408 physics 3;
#X obj 500 487 outlet;
#X obj 644 271 moses 5;
#X obj 470 9 inlet;
#X msg 588 129 80;
#X obj 582 93 loadbang;
#X msg 537 111 - 1.6;
#X floatatom 689 307 5 0 0 0 - - -;
#X connect 0 0 1 0;
#X connect 0 0 14 0;
#X connect 0 0 23 0;
#X connect 1 0 27 0;
#X connect 2 0 11 1;
#X connect 3 0 9 0;
#X connect 4 0 13 0;
#X connect 5 0 12 0;
#X connect 5 1 20 0;
#X connect 6 0 8 0;
#X connect 7 0 3 0;
#X connect 8 0 10 0;
#X connect 8 1 2 1;
#X connect 9 0 19 0;
#X connect 10 0 3 0;
#X connect 11 0 2 0;
#X connect 11 0 4 0;
#X connect 12 0 6 0;
#X connect 13 0 7 0;
#X connect 13 1 28 0;
#X connect 14 0 15 0;
#X connect 15 0 18 0;
#X connect 16 0 27 0;
#X connect 17 0 16 0;
#X connect 18 0 27 0;
#X connect 19 0 11 0;
#X connect 20 0 6 0;
#X connect 21 0 22 0;
#X connect 22 0 24 0;
#X connect 23 0 26 0;
#X connect 25 0 24 0;
#X connect 26 0 25 0;
#X connect 28 0 0 0;
#X connect 28 1 32 0;
#X connect 28 1 33 0;
#X connect 29 0 5 0;
#X connect 30 0 11 1;
#X connect 31 0 30 0;
#X connect 32 0 6 0;
#X connect 32 0 2 1;
#X restore 317 291 pd GRAVITATION;
#X obj 317 241 average 5;
#X obj 317 266 fade 5;
#X connect 6 0 8 0;
#X connect 7 0 12 0;
#X connect 8 0 5 0;
#X connect 8 0 16 0;
#X connect 9 0 10 0;
#X connect 11 0 9 0;
#X connect 13 0 14 0;
#X connect 15 0 13 1;
#X connect 15 1 7 1;
#X connect 16 0 17 0;
#X connect 17 0 15 0;
