#N canvas 747 117 450 300 10;
#X obj 163 120 gemhead;
#X obj 100 105 tgl 15 0 empty empty empty 17 7 0 10 -262144 -1 -1 1
1;
#X obj 163 188 rotateXYZ;
#X obj 195 53 loadbang;
#X msg 195 76 0;
#X obj 290 56 inlet;
#X obj 330 56 inlet;
#X obj 370 56 inlet;
#X obj 265 104 * 360;
#X obj 305 105 * 360;
#X obj 344 106 * 360;
#X obj 404 119 inlet;
#X obj 29 162 initbang;
#X msg 69 194 draw line;
#X obj 163 262 mesh_square 100 100;
#X obj 163 154 translateXYZ 0 -1 0;
#X connect 0 0 15 0;
#X connect 1 0 0 0;
#X connect 2 0 14 0;
#X connect 3 0 4 0;
#X connect 4 0 0 0;
#X connect 5 0 8 0;
#X connect 6 0 9 0;
#X connect 7 0 10 0;
#X connect 8 0 2 1;
#X connect 9 0 2 2;
#X connect 10 0 2 3;
#X connect 11 0 14 1;
#X connect 12 0 13 0;
#X connect 13 0 14 0;
#X connect 15 0 2 0;
#X coords 0 -1 1 1 85 20 1 100 100;
