#N canvas 236 131 463 630 10;
#X obj 164 120 inlet;
#X obj 164 188 unpack f f f;
#X msg 176 164 0 0 0;
#X obj 176 142 loadbang;
#X obj 72 372 translateXYZ 0 0 0;
#X obj 72 119 inlet;
#X obj 72 188 gemhead 90;
#X floatatom 107 243 5 0 0 0 - - -;
#X floatatom 142 244 5 0 0 0 - - -;
#X obj 107 306 * 8;
#X obj 107 327 - 4;
#X obj 142 305 * 6;
#X obj 142 325 - 3;
#X obj 142 263 * -1;
#X obj 142 283 + 1;
#X obj 233 359 / 6.28;
#X obj 233 379 * 360;
#X obj 72 416 rotateXYZ 0 0 0;
#X obj 250 491 separator;
#X obj 250 559 text3d \$1;
#X obj 250 514 translateXYZ 0 0.03 0;
#X obj 331 535 initbang;
#X msg 331 557 4;
#X obj 107 263 * -1;
#X obj 107 285 + 1;
#X obj 233 316 * -1;
#X obj 233 336 + 1;
#X obj 233 399 + 33.333;
#X text 248 582 Id du fiducial;
#X text 160 101 list (x \, y \, angle);
#X text 71 101 toggle;
#X text 70 9 Visualisation du fiducial par identifiant;
#X text 72 22 -------------------------------------------;
#X text 72 36 Argument \; \$1:id du fiducial (0-5 ici);
#X obj 341 117 bng 15 250 50 0 empty empty empty 17 7 0 10 -262144
-1 -1;
#X text 340 91 Timer;
#X msg 360 214 0;
#X obj 341 137 t b b b;
#X obj 341 238 change;
#X obj 87 161 r \$0gemhead;
#X obj 341 260 s \$0gemhead;
#X msg 381 160 stop;
#X msg 341 159 1;
#X obj 360 191 del 4000;
#X obj 70 547 outlet;
#X obj 250 537 color 1 0 0;
#X obj 71 485 separator;
#X text 77 572 GemList (Geos);
#X obj 71 515 color \$2 \$3 \$4;
#X connect 0 0 1 0;
#X connect 0 0 34 0;
#X connect 1 0 7 0;
#X connect 1 1 8 0;
#X connect 1 2 25 0;
#X connect 2 0 1 0;
#X connect 3 0 2 0;
#X connect 4 0 17 0;
#X connect 5 0 6 0;
#X connect 6 0 4 0;
#X connect 7 0 23 0;
#X connect 8 0 13 0;
#X connect 9 0 10 0;
#X connect 10 0 4 1;
#X connect 11 0 12 0;
#X connect 12 0 4 2;
#X connect 13 0 14 0;
#X connect 14 0 11 0;
#X connect 15 0 16 0;
#X connect 16 0 27 0;
#X connect 17 0 18 0;
#X connect 17 0 46 0;
#X connect 18 0 20 0;
#X connect 20 0 45 0;
#X connect 21 0 22 0;
#X connect 22 0 19 1;
#X connect 23 0 24 0;
#X connect 24 0 9 0;
#X connect 25 0 26 0;
#X connect 26 0 15 0;
#X connect 27 0 17 3;
#X connect 34 0 37 0;
#X connect 36 0 38 0;
#X connect 37 0 42 0;
#X connect 37 1 43 0;
#X connect 37 2 41 0;
#X connect 38 0 40 0;
#X connect 39 0 6 0;
#X connect 41 0 43 0;
#X connect 42 0 38 0;
#X connect 43 0 36 0;
#X connect 45 0 19 0;
#X connect 46 0 48 0;
#X connect 48 0 44 0;
