#N canvas 202 0 822 660 10;
#X declare -path ../../abstractions/in -path ../../abstractions/out
-path ../../abstractions/tools -path ../../abstractions/filters -path
../../abstractions/fx-video -path ../../abstractions/fx-audio -path
../../abstractions/master;
#X declare -path abstractions/in -path abstractions/out -path abstractions/tools
-path abstractions/filters -path abstractions/fx-video -path abstractions/fx-audio
-path abstractions/master;
#N canvas 362 156 563 434 INIT 0;
#X obj 101 101 cnv 8 48 8 empty empty INCLUDE 2 4 0 10 -233017 -66577
0;
#X obj 102 261 declare -path ../../abstractions/in -path ../../abstractions/out
-path ../../abstractions/tools -path ../../abstractions/filters -path
../../abstractions/fx-video -path ../../abstractions/fx-audio -path
../../abstractions/master;
#X text 100 240 Use for standalone :;
#X text 100 140 Use with the main.pd :;
#X text 97 25 Import paths to find abstractions \; Always use it in
the examples patchs.;
#X obj 102 162 declare -path abstractions/in -path abstractions/out
-path abstractions/tools -path abstractions/filters -path abstractions/fx-video
-path abstractions/fx-audio -path abstractions/master;
#X coords 0 -1 1 1 50 10 2 100 100;
#X restore 756 16 pd INIT;
#X obj 105 506 lib/autechre/autechre;
#X obj 40 104 metro 200;
#X obj 40 78 tgl 15 0 empty empty empty 17 7 0 10 -260097 -1 -1 1 1
;
#X msg 40 166 step \$1;
#X obj 40 124 counter 15;
#X obj -8 150 s stepp;
#X floatatom 91 45 5 0 0 0 bpm - -;
#X obj 91 63 expr 60000/$f1/4;
#N canvas 105 593 1004 354 simu 0;
#X obj 111 76 noise~;
#X obj 86 170 +~;
#X obj 110 113 *~ 0.1;
#X obj 110 144 lop~ 125;
#X obj 86 208 *~;
#X obj 185 164 line~;
#X obj 186 35 inlet time;
#X obj 284 253 *~ 0.3;
#X obj 344 74 noise~;
#X obj 319 168 +~;
#X obj 319 206 *~;
#X obj 418 162 line~;
#X obj 419 33 inlet time;
#X obj 263 106 *~ 0.5;
#X obj 586 75 noise~;
#X obj 561 169 +~;
#X obj 561 207 *~;
#X obj 661 34 inlet time;
#X obj 585 112 *~ 0.8;
#X obj 585 143 lop~ 500;
#X obj 505 107 *~ 0.2;
#X obj 10 104 osc~ 100;
#X obj 49 53 *~ 0.8;
#X obj 50 23 osc~ 50;
#X obj 9 134 *~ 0.1;
#X obj 264 76 osc~ 50;
#X obj 343 142 lop~ 225;
#X msg 186 128 \$1;
#X msg 418 127 \$1;
#X msg 661 127 \$1;
#X obj 238 302 outlet~;
#X obj 825 75 noise~;
#X obj 800 169 +~;
#X obj 800 207 *~;
#X obj 900 34 inlet time;
#X obj 745 77 osc~ 100;
#X obj 824 143 lop~ 500;
#X msg 900 127 \$1;
#X obj 745 54 line;
#X msg 745 29 500 \, 100 10;
#X obj 264 51 line;
#X msg 264 26 5000 \, 50 1;
#X obj 343 111 *~ 0.8;
#X obj 744 107 *~ 0.6;
#X obj 824 112 *~ 0.6;
#X obj 506 77 osc~ 200;
#X obj 506 47 line;
#X msg 506 22 5000 \, 200 1;
#X connect 0 0 2 0;
#X connect 1 0 4 0;
#X connect 2 0 3 0;
#X connect 3 0 1 1;
#X connect 4 0 7 0;
#X connect 5 0 4 1;
#X connect 6 0 27 0;
#X connect 7 0 30 0;
#X connect 8 0 42 0;
#X connect 9 0 10 0;
#X connect 10 0 7 0;
#X connect 11 0 10 1;
#X connect 12 0 28 0;
#X connect 12 0 41 0;
#X connect 13 0 9 0;
#X connect 14 0 18 0;
#X connect 15 0 16 0;
#X connect 16 0 7 0;
#X connect 17 0 29 0;
#X connect 17 0 47 0;
#X connect 18 0 19 0;
#X connect 19 0 15 1;
#X connect 20 0 15 0;
#X connect 21 0 24 0;
#X connect 22 0 1 0;
#X connect 22 0 1 1;
#X connect 23 0 22 0;
#X connect 24 0 1 0;
#X connect 25 0 13 0;
#X connect 26 0 9 1;
#X connect 27 0 5 0;
#X connect 28 0 11 0;
#X connect 29 0 16 1;
#X connect 31 0 44 0;
#X connect 32 0 33 0;
#X connect 33 0 7 0;
#X connect 34 0 37 0;
#X connect 34 0 39 0;
#X connect 35 0 43 0;
#X connect 36 0 32 1;
#X connect 37 0 33 1;
#X connect 38 0 35 0;
#X connect 39 0 38 0;
#X connect 40 0 25 0;
#X connect 41 0 40 0;
#X connect 42 0 26 0;
#X connect 43 0 32 0;
#X connect 44 0 36 0;
#X connect 45 0 20 0;
#X connect 46 0 45 0;
#X connect 47 0 46 0;
#X restore 403 518 pd simu;
#N canvas 637 129 450 370 play 0;
#X obj -1 284 del 1000;
#X msg -59 307 1;
#X msg -1 307 0;
#X obj -31 346 outlet;
#X obj 103 41 inlet time;
#X obj -59 36 inlet bang;
#X obj 103 103 nbx 5 14 -1e+37 1e+37 0 0 empty empty empty 0 -8 0 10
-261682 -1 -1 20 256;
#X obj 185 15 loadbang;
#X msg 185 39 20;
#X obj 163 102 hsl 30 15 0 1 0 0 empty empty empty -2 -8 0 10 -262144
-1 -1 0 1;
#X obj -59 91 t b b b;
#X obj 44 254 +;
#X floatatom 97 286 5 0 0 0 - - -;
#X obj 85 219 t b f;
#X floatatom 139 227 5 0 0 0 - - -;
#X obj 85 197 random 100;
#X obj 160 131 t b f;
#X obj 146 155 *;
#X obj 218 240 print;
#X floatatom 230 176 5 0 0 0 - - -;
#X connect 0 0 2 0;
#X connect 1 0 3 0;
#X connect 2 0 3 0;
#X connect 4 0 6 0;
#X connect 5 0 10 0;
#X connect 6 0 11 0;
#X connect 6 0 17 0;
#X connect 7 0 8 0;
#X connect 8 0 6 0;
#X connect 9 0 16 0;
#X connect 10 0 1 0;
#X connect 10 1 0 0;
#X connect 10 2 15 0;
#X connect 11 0 0 1;
#X connect 11 0 12 0;
#X connect 13 0 11 0;
#X connect 13 1 11 1;
#X connect 15 0 13 0;
#X connect 15 0 14 0;
#X connect 16 0 17 0;
#X connect 16 1 17 1;
#X connect 17 0 15 1;
#X connect 19 0 18 0;
#X coords 0 -1 1 1 100 20 2 100 100;
#X restore 36 336 pd play;
#X obj 10 578 s autki;
#X obj 63 578 s autsn;
#X obj 115 578 s authit;
#X obj 176 578 s authat;
#X obj 109 105 s tempoms;
#X floatatom 91 85 5 0 0 0 ms - -;
#X obj 105 480 r tempoms;
#X obj 36 393 s ki;
#X obj 195 393 s sn;
#X obj 36 313 r autki;
#X obj 195 313 r autsn;
#X obj 484 313 r authat;
#X obj 353 487 r ki;
#X obj 417 488 r sn;
#X obj 249 15 cnv 15 500 22 empty empty sous.patchs: 10 12 1 14 -260097
-262144 0;
#N canvas 693 234 510 707 video 0;
#X obj 4 3 cnv 15 500 700 empty empty empty 20 12 0 14 -232576 -66577
0;
#X obj 24 31 video-in;
#X obj 24 162 video-kaleidoscope;
#X obj 176 110 random 30;
#X msg 176 132 seg \$1;
#X obj 173 36 r ki;
#X obj 209 36 r sn;
#X obj 257 36 r hit;
#X obj 302 36 r hat;
#X obj 237 353 video-halftone;
#X obj 237 281 video-crop;
#X obj 367 191 random 300;
#X obj 237 477 video-multifx;
#X obj 237 420 video-lumaoffset;
#X obj 274 182 fade;
#X obj 274 141 random 300;
#X floatatom 295 163 5 0 0 0 - - -;
#X floatatom 331 119 5 0 0 0 - - -;
#X obj 237 615 video-screen;
#X text 8 0 Chaine video ! (Attention au cpu !!! si tout les effets
sont allumés !);
#X obj 221 69 bang;
#X obj 302 73 t b b;
#X connect 1 0 2 0;
#X connect 2 0 10 0;
#X connect 3 0 4 0;
#X connect 4 0 2 1;
#X connect 7 0 20 0;
#X connect 8 0 21 0;
#X connect 9 0 13 0;
#X connect 10 0 9 0;
#X connect 11 0 10 3;
#X connect 11 0 10 4;
#X connect 12 0 18 0;
#X connect 13 0 12 0;
#X connect 14 0 10 1;
#X connect 14 0 10 2;
#X connect 15 0 14 0;
#X connect 16 0 14 1;
#X connect 17 0 15 1;
#X connect 20 0 3 0;
#X connect 21 0 15 0;
#X connect 21 1 11 0;
#X restore 465 17 pd video;
#N canvas 259 196 1008 705 audio 1;
#X obj 4 -5 cnv 15 1000 700 empty empty AUDIO 20 12 1 14 -249659 -66577
0;
#X obj 716 6 r stepp;
#N canvas 304 276 937 587 idea1 0;
#X obj 262 47 r ki;
#X obj 262 72 change;
#X obj 262 118 random 55;
#X floatatom 291 152 5 0 0 0 - - -;
#X obj 195 146 bng 15 250 50 0 empty empty empty 17 7 0 10 -262144
-1 -1;
#X obj 262 96 sel 1;
#X obj 268 184 gamme;
#X obj 377 388 audio-freeze;
#X obj 54 185 seq-sliders;
#X obj 54 102 r stepp;
#X obj 54 286 map 0 1 20 60;
#X obj 46 405 audio-pitchshift;
#X msg 54 128 step \$1;
#X obj 54 161 spigot-toggle;
#X obj 260 387 audio-out o;
#X obj 377 468 audio-out o;
#X obj 52 486 audio-out o;
#X obj 632 197 gamme;
#X obj 624 400 audio-out o;
#X obj 514 73 sel 0;
#X floatatom 462 144 5 0 0 0 - - -;
#X obj 514 97 counter 3;
#X obj 512 136 + 15;
#X obj 759 341 audio-pitchshift;
#X obj 765 422 audio-out o;
#X obj 552 484 audio-freeze;
#X obj 552 564 audio-out o;
#X obj 260 339 synth-xylophone;
#X obj 624 324 synth-vowel;
#X connect 0 0 1 0;
#X connect 1 0 4 0;
#X connect 1 0 5 0;
#X connect 2 0 3 0;
#X connect 5 0 2 0;
#X connect 6 0 27 0;
#X connect 7 0 15 0;
#X connect 7 0 15 1;
#X connect 8 0 10 0;
#X connect 9 0 12 0;
#X connect 9 0 19 0;
#X connect 10 0 6 0;
#X connect 11 0 16 0;
#X connect 11 0 16 1;
#X connect 12 0 13 0;
#X connect 13 0 8 0;
#X connect 17 0 28 0;
#X connect 19 0 21 0;
#X connect 21 0 22 0;
#X connect 22 0 17 0;
#X connect 23 0 24 0;
#X connect 23 0 24 1;
#X connect 23 0 25 0;
#X connect 25 0 26 0;
#X connect 25 0 26 1;
#X connect 27 0 7 0;
#X connect 27 0 11 0;
#X connect 27 0 14 0;
#X connect 27 0 14 1;
#X connect 28 0 18 0;
#X connect 28 0 18 1;
#X connect 28 0 23 0;
#X restore 848 6 pd idea1;
#N canvas 257 316 915 637 lpd8 0;
#X obj 124 313 notein;
#X obj 124 341 sel 40 41 42 43;
#X obj 220 538 outlet;
#X obj 206 477 tgl 15 0 empty empty empty 17 7 0 10 -262144 -1 -1 0
1;
#X obj 271 538 outlet;
#X obj 257 477 tgl 15 0 empty empty empty 17 7 0 10 -262144 -1 -1 0
1;
#X obj 347 538 outlet;
#X obj 333 477 tgl 15 0 empty empty empty 17 7 0 10 -262144 -1 -1 0
1;
#X obj 407 538 outlet;
#X obj 393 477 tgl 15 0 empty empty empty 17 7 0 10 -262144 -1 -1 0
1;
#X obj 109 199 metro;
#X obj 545 104 tgl 15 0 empty empty empty 17 7 0 10 -262144 -1 -1 0
1;
#X obj 636 293 f;
#X obj 665 293 + 1;
#X obj 636 316 % 4;
#X obj 636 339 sel 0 1 2 3;
#X msg 636 362 1 0 0 0;
#X obj 636 391 unpack f f f f;
#X obj 636 412 change;
#X obj 686 412 change;
#X obj 740 412 change;
#X obj 791 412 change;
#X msg 691 362 0 1 0 0;
#X msg 747 362 0 0 1 0;
#X msg 801 362 0 0 0 1;
#X floatatom 580 103 5 0 0 0 ms - -;
#X text 117 294 Midi controller LPD8;
#X obj 455 346 r tog1;
#X obj 494 346 r tog2;
#X obj 534 346 r tog3;
#X obj 574 346 r tog4;
#X text 490 325 Touchscreen;
#N canvas 157 260 309 217 recplay 0;
#X obj 169 96 sel 0 1;
#X msg 165 122 play;
#X msg 202 120 rec;
#X obj 188 148 outlet;
#X obj 169 67 inlet;
#X connect 0 0 1 0;
#X connect 0 1 2 0;
#X connect 1 0 3 0;
#X connect 2 0 3 0;
#X connect 4 0 0 0;
#X restore 205 499 pd recplay;
#N canvas 159 237 309 217 recplay 0;
#X obj 169 96 sel 0 1;
#X msg 165 122 play;
#X msg 202 120 rec;
#X obj 188 148 outlet;
#X obj 169 67 inlet;
#X connect 0 0 1 0;
#X connect 0 1 2 0;
#X connect 1 0 3 0;
#X connect 2 0 3 0;
#X connect 4 0 0 0;
#X restore 278 499 pd recplay;
#N canvas 155 283 309 217 recplay 0;
#X obj 169 96 sel 0 1;
#X msg 165 122 play;
#X msg 202 120 rec;
#X obj 188 148 outlet;
#X obj 169 67 inlet;
#X connect 0 0 1 0;
#X connect 0 1 2 0;
#X connect 1 0 3 0;
#X connect 2 0 3 0;
#X connect 4 0 0 0;
#X restore 353 499 pd recplay;
#N canvas 159 237 309 217 recplay 0;
#X obj 169 96 sel 0 1;
#X msg 165 122 play;
#X msg 202 120 rec;
#X obj 188 148 outlet;
#X obj 169 67 inlet;
#X connect 0 0 1 0;
#X connect 0 1 2 0;
#X connect 1 0 3 0;
#X connect 2 0 3 0;
#X connect 4 0 0 0;
#X restore 426 499 pd recplay;
#X obj 55 333 sel 0;
#X msg 55 357 0;
#N canvas 424 341 844 729 pitchfade 0;
#X obj 143 111 hradio 10 1 0 8 empty empty empty 0 -8 0 10 -262144
-1 -1 1;
#X msg 222 411 speed \$1;
#X obj 137 367 fade;
#X floatatom 193 124 5 0 0 0 fadetime - -;
#X floatatom 105 105 5 0 0 0 - - -;
#X obj 222 448 outlet;
#X text 140 96 speed;
#X msg 94 56 100;
#X obj 49 22 initbang;
#X obj 106 127 hradio 10 1 0 2 empty empty empty 0 -8 0 10 -261682
-1 -1 0;
#X obj 70 163 f;
#X msg 50 73 0;
#X connect 0 0 10 0;
#X connect 1 0 5 0;
#X connect 2 0 1 0;
#X connect 3 0 2 1;
#X connect 4 0 10 0;
#X connect 7 0 3 0;
#X connect 8 0 7 0;
#X connect 8 0 11 0;
#X connect 10 0 2 0;
#X connect 11 0 9 0;
#X coords 0 -1 1 1 130 40 2 100 100;
#X restore 490 119 pd pitchfade;
#N canvas 424 341 844 729 pitchfade 0;
#X obj 143 111 hradio 10 1 0 8 empty empty empty 0 -8 0 10 -262144
-1 -1 0;
#X msg 222 411 speed \$1;
#X obj 137 367 fade;
#X floatatom 193 124 5 0 0 0 fadetime - -;
#X floatatom 105 105 5 0 0 0 - - -;
#X obj 222 448 outlet;
#X text 140 96 speed;
#X msg 94 56 100;
#X obj 49 22 initbang;
#X obj 106 127 hradio 10 1 0 2 empty empty empty 0 -8 0 10 -261682
-1 -1 0;
#X obj 70 163 f;
#X msg 50 73 0;
#X connect 0 0 10 0;
#X connect 1 0 5 0;
#X connect 2 0 1 0;
#X connect 3 0 2 1;
#X connect 4 0 10 0;
#X connect 7 0 3 0;
#X connect 8 0 7 0;
#X connect 8 0 11 0;
#X connect 10 0 2 0;
#X connect 11 0 9 0;
#X coords 0 -1 1 1 130 40 2 100 100;
#X restore 360 119 pd pitchfade;
#N canvas 424 341 844 729 pitchfade 0;
#X obj 143 111 hradio 10 1 0 8 empty empty empty 0 -8 0 10 -262144
-1 -1 1;
#X msg 222 411 speed \$1;
#X obj 137 367 fade;
#X floatatom 193 124 5 0 0 0 fadetime - -;
#X floatatom 105 105 5 0 0 0 - - -;
#X obj 222 448 outlet;
#X text 140 96 speed;
#X msg 94 56 100;
#X obj 49 22 initbang;
#X obj 106 127 hradio 10 1 0 2 empty empty empty 0 -8 0 10 -261682
-1 -1 0;
#X obj 70 163 f;
#X msg 50 73 0;
#X connect 0 0 10 0;
#X connect 1 0 5 0;
#X connect 2 0 1 0;
#X connect 3 0 2 1;
#X connect 4 0 10 0;
#X connect 7 0 3 0;
#X connect 8 0 7 0;
#X connect 8 0 11 0;
#X connect 10 0 2 0;
#X connect 11 0 9 0;
#X coords 0 -1 1 1 130 40 2 100 100;
#X restore 230 119 pd pitchfade;
#N canvas 422 266 844 729 pitchfade 0;
#X obj 143 111 hradio 10 1 0 8 empty empty empty 0 -8 0 10 -262144
-1 -1 0;
#X msg 222 411 speed \$1;
#X obj 137 367 fade;
#X floatatom 193 124 5 0 0 0 fadetime - -;
#X floatatom 105 105 5 0 0 0 - - -;
#X obj 222 448 outlet;
#X text 140 96 speed;
#X msg 94 56 100;
#X obj 49 22 initbang;
#X obj 106 127 hradio 10 1 0 2 empty empty empty 0 -8 0 10 -261682
-1 -1 0;
#X obj 70 163 f;
#X msg 50 73 0;
#X connect 0 0 10 0;
#X connect 1 0 5 0;
#X connect 2 0 1 0;
#X connect 3 0 2 1;
#X connect 4 0 10 0;
#X connect 7 0 3 0;
#X connect 8 0 7 0;
#X connect 8 0 11 0;
#X connect 10 0 2 0;
#X connect 11 0 9 0;
#X coords 0 -1 1 1 130 40 2 100 100;
#X restore 100 119 pd pitchfade;
#X obj 591 45 inlet;
#X connect 0 0 1 0;
#X connect 1 0 3 0;
#X connect 1 1 5 0;
#X connect 1 2 7 0;
#X connect 1 3 9 0;
#X connect 3 0 32 0;
#X connect 5 0 33 0;
#X connect 7 0 34 0;
#X connect 9 0 35 0;
#X connect 10 0 12 0;
#X connect 11 0 10 0;
#X connect 11 0 36 0;
#X connect 12 0 13 0;
#X connect 12 0 14 0;
#X connect 13 0 12 1;
#X connect 14 0 15 0;
#X connect 15 0 16 0;
#X connect 15 1 22 0;
#X connect 15 2 23 0;
#X connect 15 3 24 0;
#X connect 16 0 17 0;
#X connect 17 0 18 0;
#X connect 17 1 19 0;
#X connect 17 2 20 0;
#X connect 17 3 21 0;
#X connect 18 0 3 0;
#X connect 19 0 5 0;
#X connect 20 0 7 0;
#X connect 21 0 9 0;
#X connect 22 0 17 0;
#X connect 23 0 17 0;
#X connect 24 0 17 0;
#X connect 25 0 10 1;
#X connect 27 0 3 0;
#X connect 28 0 5 0;
#X connect 29 0 7 0;
#X connect 30 0 9 0;
#X connect 32 0 2 0;
#X connect 33 0 4 0;
#X connect 34 0 6 0;
#X connect 35 0 8 0;
#X connect 36 0 37 0;
#X connect 37 0 3 0;
#X connect 37 0 5 0;
#X connect 37 0 7 0;
#X connect 37 0 9 0;
#X connect 38 0 8 0;
#X connect 39 0 6 0;
#X connect 40 0 4 0;
#X connect 41 0 2 0;
#X connect 42 0 25 0;
#X coords 0 -1 1 1 520 60 1 100 100;
#X restore 59 89 pd lpd8;
#X obj 350 219 audio-freeze;
#X obj 349 372 audio-out;
#X obj 86 480 audio-out;
#X obj 531 430 audio-out;
#X obj 532 364 audio-pitchshift -24;
#X obj 366 347 delay~;
#X floatatom 399 326 5 0 0 0 - - -;
#X obj 425 542 audio-out;
#X obj 87 369 audio-delay 50;
#X obj 564 308 fade 300;
#X obj 564 330 map 0 1 -24 24;
#X obj 655 306 fade 300;
#X obj 655 328 map 0 1 10 10000;
#X obj 564 286 r slid1;
#X obj 655 284 r slid2;
#X obj 425 505 audio-disto;
#X obj 424 441 audio-3eq;
#X obj 598 567 audio-out;
#X obj 599 456 audio-delay 50;
#X obj 42 62 audio-in;
#X obj 43 150 audio-volume;
#X obj 43 161 audio-sampler;
#X obj 174 161 audio-sampler;
#X obj 303 161 audio-sampler;
#X obj 433 161 audio-sampler;
#X obj 177 10 r tempoms;
#X obj 224 58 catch~ pddd;
#X obj 139 22 bng 15 250 50 0 empty empty empty 17 7 0 10 -262144 -1
-1;
#X obj 149 62 * 8;
#X obj 223 602 audio-out;
#X floatatom 101 260 5 0 0 0 - - -;
#X obj 97 295 f;
#X obj 168 265 sel 1;
#X obj 287 302 change;
#X floatatom 215 234 5 0 0 0 - - -;
#X obj 165 236 > 0.7;
#X obj 73 215 resample 50;
#X obj 200 329 pipe 20;
#X obj 247 496 synth;
#X obj 271 548 audio-attackdecay;
#X connect 3 0 25 1;
#X connect 3 1 26 1;
#X connect 3 2 27 1;
#X connect 3 3 28 1;
#X connect 4 0 5 0;
#X connect 4 0 8 0;
#X connect 4 0 9 0;
#X connect 8 0 7 0;
#X connect 8 0 7 1;
#X connect 8 0 20 0;
#X connect 8 0 22 0;
#X connect 9 0 5 1;
#X connect 10 0 9 1;
#X connect 12 0 6 0;
#X connect 12 1 6 1;
#X connect 13 0 14 0;
#X connect 14 0 8 1;
#X connect 15 0 16 0;
#X connect 16 0 8 2;
#X connect 17 0 13 0;
#X connect 18 0 15 0;
#X connect 19 0 11 0;
#X connect 19 0 11 1;
#X connect 19 0 22 0;
#X connect 20 0 19 0;
#X connect 22 0 21 0;
#X connect 22 1 21 1;
#X connect 23 0 24 0;
#X connect 23 1 40 0;
#X connect 23 2 38 0;
#X connect 23 2 39 0;
#X connect 24 0 12 0;
#X connect 24 0 25 0;
#X connect 24 0 26 0;
#X connect 24 0 27 0;
#X connect 24 0 28 0;
#X connect 24 0 4 0;
#X connect 25 0 4 0;
#X connect 25 0 12 0;
#X connect 26 0 4 0;
#X connect 26 0 12 0;
#X connect 27 0 4 0;
#X connect 27 0 12 0;
#X connect 28 0 4 0;
#X connect 28 0 12 0;
#X connect 29 0 32 0;
#X connect 31 0 32 0;
#X connect 32 0 3 0;
#X connect 34 0 35 1;
#X connect 34 0 35 0;
#X connect 35 0 42 0;
#X connect 36 0 41 0;
#X connect 36 0 43 1;
#X connect 37 0 36 0;
#X connect 39 0 37 0;
#X connect 40 0 34 0;
#X connect 42 0 43 0;
#X connect 43 0 33 0;
#X connect 43 0 33 1;
#X restore 410 17 pd audio;
#N canvas 452 338 624 515 arduino 1;
#X obj 14 8 cnv 15 600 500 empty empty empty 20 12 0 14 -262077 -66577
0;
#X obj 44 393 arduino-out;
#X obj 144 364 randomF 0.8;
#X text 33 18 Ce sous patchs contient les actions sur arduino :;
#X obj 55 140 r ki;
#X obj 115 140 r sn;
#X obj 167 140 r hit;
#X obj 229 140 r hat;
#X text 33 121 Signaux 1-0 (avec un delai entre):;
#X text 379 50 Touches clavier :;
#X obj 381 69 key-char;
#X obj 381 119 tgl 15 0 empty empty empty 17 7 0 10 -262144 -1 -1 0
1;
#X obj 396 119 tgl 15 0 empty empty empty 17 7 0 10 -262144 -1 -1 0
1;
#X obj 412 119 tgl 15 0 empty empty empty 17 7 0 10 -262144 -1 -1 0
1;
#X obj 428 119 tgl 15 0 empty empty empty 17 7 0 10 -262144 -1 -1 0
1;
#X msg 222 364 2 digital \, 3 digital \, 4 digital \, 5 digital \,
10 servo;
#X obj 222 341 loadbang;
#X obj 356 158 s ki;
#X obj 416 158 s sn;
#X obj 468 158 s hit;
#X obj 530 158 s hat;
#X connect 2 0 1 9;
#X connect 4 0 1 1;
#X connect 5 0 1 2;
#X connect 6 0 1 3;
#X connect 7 0 1 4;
#X connect 10 0 11 0;
#X connect 10 1 12 0;
#X connect 10 2 13 0;
#X connect 10 3 14 0;
#X connect 11 0 17 0;
#X connect 12 0 18 0;
#X connect 13 0 19 0;
#X connect 14 0 20 0;
#X connect 15 0 1 16;
#X connect 16 0 15 0;
#X restore 342 17 pd arduino;
#X obj 8 456 r stepp;
#X obj 8 450 sel 0;
#X obj 8 489 spigot-toggle;
#X msg 8 471 start;
#X obj 232 578 audio-out;
#X obj 402 565 audio-out;
#N canvas 643 144 450 370 play 0;
#X obj -1 284 del 1000;
#X msg -59 307 1;
#X msg -1 307 0;
#X obj -31 346 outlet;
#X obj 103 41 inlet time;
#X obj -59 36 inlet bang;
#X obj 103 103 nbx 5 14 -1e+37 1e+37 0 0 empty empty empty 0 -8 0 10
-261682 -1 -1 100 256;
#X obj 185 15 loadbang;
#X msg 185 39 20;
#X obj 163 102 hsl 30 15 0 1 0 0 empty empty empty -2 -8 0 10 -262144
-1 -1 0 1;
#X obj -59 91 t b b b;
#X obj 44 254 +;
#X floatatom 97 286 5 0 0 0 - - -;
#X obj 85 219 t b f;
#X floatatom 139 227 5 0 0 0 - - -;
#X obj 85 197 random 100;
#X obj 160 131 t b f;
#X obj 146 155 *;
#X connect 0 0 2 0;
#X connect 1 0 3 0;
#X connect 2 0 3 0;
#X connect 4 0 6 0;
#X connect 5 0 10 0;
#X connect 6 0 11 0;
#X connect 6 0 17 0;
#X connect 7 0 8 0;
#X connect 8 0 6 0;
#X connect 9 0 16 0;
#X connect 10 0 1 0;
#X connect 10 1 0 0;
#X connect 10 2 15 0;
#X connect 11 0 0 1;
#X connect 11 0 12 0;
#X connect 13 0 11 0;
#X connect 13 1 11 1;
#X connect 15 0 13 0;
#X connect 15 0 14 0;
#X connect 16 0 17 0;
#X connect 16 1 17 1;
#X connect 17 0 15 1;
#X coords 0 -1 1 1 100 20 2 100 100;
#X restore 195 336 pd play;
#N canvas 639 134 450 370 play 0;
#X obj -1 284 del 1000;
#X msg -59 307 1;
#X msg -1 307 0;
#X obj -31 346 outlet;
#X obj 103 41 inlet time;
#X obj -59 36 inlet bang;
#X obj 103 103 nbx 5 14 -1e+37 1e+37 0 0 empty empty empty 0 -8 0 10
-261682 -1 -1 20 256;
#X obj 185 15 loadbang;
#X msg 185 39 20;
#X obj 163 102 hsl 30 15 0 1 0 0 empty empty empty -2 -8 0 10 -262144
-1 -1 0 1;
#X obj -59 91 t b b b;
#X obj 44 254 +;
#X floatatom 97 286 5 0 0 0 - - -;
#X obj 85 219 t b f;
#X floatatom 139 227 5 0 0 0 - - -;
#X obj 85 197 random 100;
#X obj 160 131 t b f;
#X obj 146 155 *;
#X obj 228 194 print;
#X connect 0 0 2 0;
#X connect 1 0 3 0;
#X connect 2 0 3 0;
#X connect 4 0 6 0;
#X connect 5 0 10 0;
#X connect 6 0 11 0;
#X connect 6 0 17 0;
#X connect 7 0 8 0;
#X connect 8 0 6 0;
#X connect 9 0 16 0;
#X connect 10 0 1 0;
#X connect 10 1 0 0;
#X connect 10 2 15 0;
#X connect 11 0 0 1;
#X connect 11 0 12 0;
#X connect 13 0 11 0;
#X connect 13 1 11 1;
#X connect 15 0 13 0;
#X connect 15 0 14 0;
#X connect 16 0 17 0;
#X connect 16 1 17 1;
#X connect 17 0 15 1;
#X coords 0 -1 1 1 100 20 2 100 100;
#X restore 318 336 pd play;
#N canvas 643 144 450 370 play 0;
#X obj -1 284 del 1000;
#X msg -59 307 1;
#X msg -1 307 0;
#X obj -31 346 outlet;
#X obj 103 41 inlet time;
#X obj -59 36 inlet bang;
#X obj 103 103 nbx 5 14 -1e+37 1e+37 0 0 empty empty empty 0 -8 0 10
-261682 -1 -1 20 256;
#X obj 185 15 loadbang;
#X msg 185 39 20;
#X obj 163 102 hsl 30 15 0 1 0 0 empty empty empty -2 -8 0 10 -262144
-1 -1 0 1;
#X obj -59 91 t b b b;
#X obj 44 254 +;
#X floatatom 97 286 5 0 0 0 - - -;
#X obj 85 219 t b f;
#X floatatom 139 227 5 0 0 0 - - -;
#X obj 85 197 random 100;
#X obj 160 131 t b f;
#X obj 146 155 *;
#X connect 0 0 2 0;
#X connect 1 0 3 0;
#X connect 2 0 3 0;
#X connect 4 0 6 0;
#X connect 5 0 10 0;
#X connect 6 0 11 0;
#X connect 6 0 17 0;
#X connect 7 0 8 0;
#X connect 8 0 6 0;
#X connect 9 0 16 0;
#X connect 10 0 1 0;
#X connect 10 1 0 0;
#X connect 10 2 15 0;
#X connect 11 0 0 1;
#X connect 11 0 12 0;
#X connect 13 0 11 0;
#X connect 13 1 11 1;
#X connect 15 0 13 0;
#X connect 15 0 14 0;
#X connect 16 0 17 0;
#X connect 16 1 17 1;
#X connect 17 0 15 1;
#X coords 0 -1 1 1 100 20 2 100 100;
#X restore 484 336 pd play;
#X obj 318 313 r authit;
#X obj 318 393 s hit;
#X obj 484 393 s hat;
#X obj 471 486 r hit;
#X obj 533 486 r hat;
#X obj 20 11 loadbang;
#X msg 20 28 120;
#X obj 36 370 spigot-toggle;
#X obj 195 369 spigot-toggle;
#X obj 318 368 spigot-toggle;
#X obj 484 369 spigot-toggle;
#X obj 129 315 audio-attackdecay;
#X obj 153 203 seq-sliders16;
#X obj 313 203 seq-sliders16;
#X obj 473 203 seq-sliders16;
#X obj -7 203 seq-sliders16;
#X connect 1 0 11 0;
#X connect 1 1 12 0;
#X connect 1 2 13 0;
#X connect 1 3 14 0;
#X connect 1 4 33 0;
#X connect 1 5 33 1;
#X connect 2 0 5 0;
#X connect 3 0 2 0;
#X connect 4 0 50 0;
#X connect 4 0 51 0;
#X connect 4 0 52 0;
#X connect 4 0 53 0;
#X connect 5 0 4 0;
#X connect 5 0 6 0;
#X connect 7 0 8 0;
#X connect 8 0 16 0;
#X connect 9 0 34 1;
#X connect 9 0 34 0;
#X connect 10 0 45 0;
#X connect 16 0 2 1;
#X connect 16 0 15 0;
#X connect 17 0 1 0;
#X connect 20 0 10 0;
#X connect 21 0 35 0;
#X connect 22 0 37 0;
#X connect 23 0 9 0;
#X connect 24 0 9 1;
#X connect 29 0 30 0;
#X connect 30 0 32 0;
#X connect 31 0 1 0;
#X connect 32 0 31 0;
#X connect 35 0 46 0;
#X connect 36 0 47 0;
#X connect 37 0 48 0;
#X connect 38 0 36 0;
#X connect 41 0 9 2;
#X connect 42 0 9 3;
#X connect 43 0 44 0;
#X connect 44 0 7 0;
#X connect 45 0 18 0;
#X connect 46 0 19 0;
#X connect 47 0 39 0;
#X connect 48 0 40 0;
#X connect 50 1 35 0;
#X connect 51 1 36 0;
#X connect 52 1 37 0;
#X connect 53 1 10 0;
