#N canvas 240 111 841 646 10;
#X declare -path ../in -path ../out -path ../tools -path ../filters
-path ../lib;
#X obj -25 187 cnv 1 396 1 empty empty FILTERS 2 -6 1 12 -228856 -191407
0;
#N canvas 400 311 645 287 INIT 0;
#X obj 240 100 bng 10 250 50 0 empty empty SAVE-AS -45 6 0 9 -260097
-1 -1;
#X obj 103 200 namecanvas \$0-patch-name;
#X obj 100 160 s \$0-patch-name;
#X msg 100 131 menusaveas;
#X obj 220 130 savepanel;
#X obj 220 157 s UPDATE_PATCH;
#X obj 50 33 declare -path ../in -path ../out -path ../tools -path
../filters -path ../lib;
#X text 50 4 Always use this subpatch in the presets;
#X obj 101 101 cnv 8 80 8 empty empty INIT 5 5 0 10 -233017 -66577
0;
#X connect 0 0 3 0;
#X connect 0 0 4 0;
#X connect 3 0 2 0;
#X connect 4 0 5 0;
#X coords 0 -1 1 1 150 10 2 100 100;
#X restore 625 -2 pd INIT;
#X obj -25 354 cnv 1 800 1 empty empty OUT 2 -6 1 12 -228856 -191407
0;
#X obj -25 63 cnv 1 800 1 empty empty IN 2 -6 1 12 -228856 -191407
0;
#X obj -25 187 cnv 1 800 1 empty empty TOOLS 400 -6 1 12 -228856 -191407
0;
#N canvas 131 257 734 518 lpd8 0;
#X obj -199 217 notein;
#X obj -199 245 sel 40 41 42 43;
#X obj -120 469 outlet;
#X obj -120 449 tgl 15 0 empty empty empty 17 7 0 10 -262144 -1 -1
0 1;
#X obj -69 469 outlet;
#X obj -69 449 tgl 15 0 empty empty empty 17 7 0 10 -262144 -1 -1 0
1;
#X obj 7 469 outlet;
#X obj 7 449 tgl 15 0 empty empty empty 17 7 0 10 -262144 -1 -1 0 1
;
#X obj 67 469 outlet;
#X obj 67 449 tgl 15 0 empty empty empty 17 7 0 10 -262144 -1 -1 0
1;
#X obj 111 167 metro;
#X obj 111 142 tgl 15 0 empty empty empty 17 7 0 10 -262144 -1 -1 0
1;
#X obj 111 191 f;
#X obj 140 191 + 1;
#X obj 111 214 % 4;
#X obj 111 237 sel 0 1 2 3;
#X msg 111 260 1 0 0 0;
#X obj 111 289 unpack f f f f;
#X obj 111 310 change;
#X obj 161 310 change;
#X obj 215 310 change;
#X obj 266 310 change;
#X msg 166 260 0 1 0 0;
#X msg 222 260 0 0 1 0;
#X msg 286 260 0 0 0 1;
#X floatatom 146 141 5 0 0 0 ms - -;
#X text -206 198 Midi controller LPD8;
#X obj -70 246 r tog1;
#X obj -31 246 r tog2;
#X obj 9 246 r tog3;
#X obj 49 246 r tog4;
#X text -35 225 Touchscreen;
#X connect 0 0 1 0;
#X connect 1 0 3 0;
#X connect 1 1 5 0;
#X connect 1 2 7 0;
#X connect 1 3 9 0;
#X connect 3 0 2 0;
#X connect 5 0 4 0;
#X connect 7 0 6 0;
#X connect 9 0 8 0;
#X connect 10 0 12 0;
#X connect 11 0 10 0;
#X connect 12 0 13 0;
#X connect 12 0 14 0;
#X connect 13 0 12 1;
#X connect 14 0 15 0;
#X connect 15 0 16 0;
#X connect 15 1 22 0;
#X connect 15 2 23 0;
#X connect 15 3 24 0;
#X connect 16 0 17 0;
#X connect 17 0 18 0;
#X connect 17 1 19 0;
#X connect 17 2 20 0;
#X connect 17 3 21 0;
#X connect 18 0 2 0;
#X connect 19 0 4 0;
#X connect 20 0 6 0;
#X connect 21 0 8 0;
#X connect 22 0 17 0;
#X connect 23 0 17 0;
#X connect 24 0 17 0;
#X connect 25 0 10 1;
#X connect 27 0 3 0;
#X connect 28 0 5 0;
#X connect 29 0 7 0;
#X connect 30 0 9 0;
#X coords 0 -1 1 1 85 60 1 100 100;
#X restore 344 13 pd lpd8;
#X obj 340 209 audio-freeze;
#X obj 310 467 audio-out;
#X obj 76 470 audio-out;
#X obj 521 420 audio-out;
#X obj 522 354 audio-pitchshift -24;
#X obj 327 442 delay~;
#X floatatom 360 421 5 0 0 0 - - -;
#X obj 415 532 audio-out;
#X obj 446 68 autechre/autechre;
#X obj 564 168 audio-out;
#X obj 77 359 audio-delay 50;
#X obj 554 298 fade 300;
#X obj 554 320 map 0 1 -24 24;
#X obj 647 296 fade 300;
#X obj 647 318 map 0 1 10 10000;
#X obj 554 276 r slid1;
#X obj 647 274 r slid2;
#X obj 415 495 audio-disto;
#X obj 414 431 audio-3eq;
#X obj 563 144 audio-volume;
#X obj 588 557 audio-out;
#X obj 589 446 audio-delay 50;
#X obj 481 199 audio-volume;
#X obj 348 87 audio-sampler;
#X obj 78 87 audio-sampler;
#X obj 168 87 audio-sampler;
#X obj 258 87 audio-sampler;
#X obj 77 21 audio-in;
#X obj 76 48 audio-volume;
#X connect 5 0 30 1;
#X connect 5 1 31 1;
#X connect 5 2 32 1;
#X connect 5 3 29 1;
#X connect 6 0 7 0;
#X connect 6 0 10 0;
#X connect 6 0 11 0;
#X connect 10 0 9 0;
#X connect 10 0 9 1;
#X connect 10 0 24 0;
#X connect 11 0 7 1;
#X connect 12 0 11 1;
#X connect 14 4 25 0;
#X connect 14 4 28 0;
#X connect 14 5 25 0;
#X connect 16 0 8 0;
#X connect 16 1 8 1;
#X connect 17 0 18 0;
#X connect 18 0 10 1;
#X connect 19 0 20 0;
#X connect 20 0 10 2;
#X connect 21 0 17 0;
#X connect 22 0 19 0;
#X connect 23 0 13 0;
#X connect 23 0 13 1;
#X connect 23 0 27 0;
#X connect 24 0 23 0;
#X connect 25 0 15 0;
#X connect 25 0 15 1;
#X connect 27 0 26 0;
#X connect 27 1 26 1;
#X connect 28 0 10 0;
#X connect 29 0 6 0;
#X connect 29 0 16 0;
#X connect 30 0 6 0;
#X connect 30 0 16 0;
#X connect 31 0 6 0;
#X connect 31 0 16 0;
#X connect 32 0 6 0;
#X connect 32 0 16 0;
#X connect 33 0 34 0;
#X connect 34 0 16 0;
#X connect 34 0 29 0;
#X connect 34 0 30 0;
#X connect 34 0 31 0;
#X connect 34 0 32 0;
