#N canvas 171 100 811 644 10;
#X declare -path ../in -path ../out -path ../tools -path ../filters
-path ../lib;
#X declare -path ../in -path ../out -path ../tools -path ../filters
-path ../lib;
#X obj -25 187 cnv 1 396 1 empty empty FILTERS 2 -6 1 12 -228856 -191407
0;
#N canvas 400 311 645 287 INIT 0;
#X obj 240 100 bng 10 250 50 0 empty empty SAVE-AS -45 6 0 9 -260097
-1 -1;
#X obj 103 200 namecanvas \$0-patch-name;
#X obj 100 160 s \$0-patch-name;
#X msg 100 131 menusaveas;
#X obj 220 130 savepanel;
#X obj 220 157 s UPDATE_PATCH;
#X obj 50 33 declare -path ../in -path ../out -path ../tools -path
../filters -path ../lib;
#X text 50 4 Always use this subpatch in the presets;
#X obj 101 101 cnv 8 80 8 empty empty INIT 5 5 0 10 -233017 -66577
0;
#X connect 0 0 3 0;
#X connect 0 0 4 0;
#X connect 3 0 2 0;
#X connect 4 0 5 0;
#X coords 0 -1 1 1 150 10 2 100 100;
#X restore 625 -2 pd INIT;
#X obj -25 354 cnv 1 800 1 empty empty OUT 2 -6 1 12 -228856 -191407
0;
#X obj -25 63 cnv 1 800 1 empty empty IN 2 -6 1 12 -228856 -191407
0;
#X obj -25 187 cnv 1 800 1 empty empty TOOLS 400 -6 1 12 -228856 -191407
0;
#X obj 261 25 video-in;
#X obj 308 387 video-screen;
#X obj 198 557 audio-out;
#X obj 39 231 gamme;
#X obj 308 325 videofx-halftone;
#X obj 166 374 video-to-sound;
#X obj 267 234 videofx-mix;
#X obj 261 457 audio-delay;
#X obj 540 28 video-scratch;
#X msg 543 230 angle \$1;
#X obj 542 179 physics;
#X obj 39 355 synth;
#X obj 353 26 videofx-multi;
#X obj 577 454 gamme;
#X obj 578 268 seq-sliders;
#X obj 577 534 synth;
#X obj 474 635 audio-out;
#X obj 641 82 seq-randomizer;
#X msg 594 139 10;
#X msg 644 141 60;
#X msg 676 226 size \$1;
#X obj 39 214 map 0 1 20 28;
#X obj 96 311 fade 500;
#X obj 39 319 + 12;
#X obj 577 413 map 0 1 40 60;
#X obj 473 327 * 2;
#X obj 353 274 spigot;
#X obj 393 274 tgl 15 0 empty empty empty 17 7 0 10 -262144 -1 -1 1
1;
#X obj 267 274 spigot;
#X obj 307 274 inverse;
#X obj 198 416 video-to-sound;
#X floatatom 486 309 5 0 0 0 - - -;
#X floatatom 459 129 5 0 0 0 - - -;
#X obj 393 169 seq-toggles;
#X obj 267 195 videofx-rtx;
#X obj 267 162 videofx-rtx;
#N canvas 115 367 605 466 ppend 0;
#X obj 122 152 prepend;
#X obj 121 173 prepend set;
#X obj 106 44 inlet;
#X obj 124 253 outlet;
#X obj 194 81 inlet;
#X msg 218 219 blur 1.00615;
#X obj 120 193 t b a;
#X msg 314 77 threshold;
#X msg 327 104 gain;
#X obj 102 124 vradio 10 1 0 3 empty empty empty 0 -8 0 10 -262144
-1 -1 2;
#X obj 297 14 sel 0 1 2;
#X msg 364 103 blur;
#X obj 103 106 bng 10 250 50 0 empty empty empty 17 7 0 10 -262144
-1 -1;
#X msg 165 38 nada;
#X connect 0 0 1 0;
#X connect 1 0 6 0;
#X connect 2 0 0 0;
#X connect 4 0 0 1;
#X connect 5 0 3 0;
#X connect 6 0 5 0;
#X connect 6 1 5 0;
#X connect 7 0 0 1;
#X connect 8 0 0 1;
#X connect 9 0 10 0;
#X connect 10 0 7 0;
#X connect 10 1 8 0;
#X connect 10 2 11 0;
#X connect 11 0 0 1;
#X connect 12 0 13 0;
#X connect 13 0 0 1;
#X coords 0 -1 1 1 20 100 2 100 100;
#X restore 473 26 pd ppend;
#X obj 39 52 seq-sliders 3000;
#X obj 473 376 + 0;
#X floatatom 503 344 5 0 0 0 - - -;
#N canvas 329 166 830 715 drum 1;
#N canvas 400 311 645 287 INIT 0;
#X obj 240 100 bng 10 250 50 0 empty empty SAVE-AS -45 6 0 9 -260097
-1 -1;
#X obj 103 200 namecanvas \$0-patch-name;
#X obj 100 160 s \$0-patch-name;
#X msg 100 131 menusaveas;
#X obj 220 130 savepanel;
#X obj 220 157 s UPDATE_PATCH;
#X obj 50 33 declare -path ../in -path ../out -path ../tools -path
../filters -path ../lib;
#X text 50 4 Always use this subpatch in the presets;
#X obj 101 101 cnv 8 80 8 empty empty INIT 5 5 0 10 -233017 -66577
0;
#X connect 0 0 3 0;
#X connect 0 0 4 0;
#X connect 3 0 2 0;
#X connect 4 0 5 0;
#X coords 0 -1 1 1 150 10 2 100 100;
#X restore 635 8 pd INIT;
#X obj 366 338 synth-drums;
#X obj 73 117 tgl 15 0 empty empty on/off 17 7 0 10 -262144 -1 -1 0
1;
#X floatatom 218 81 5 0 0 2 time - -;
#X msg 73 136 onoff \$1;
#X msg 218 100 time \$1;
#X obj 545 451 audio-disto;
#X obj 380 639 audio-reverb;
#X obj 218 153 seq-sliders;
#X obj 383 153 seq-sliders;
#X obj 551 153 seq-sliders;
#X msg 291 90 seq 0.8 0 0.7 0 0 0.3 0 0.4;
#X msg 416 113 seq 0 0 0 0.3 0.8 0 0 0.3;
#X msg 551 85 seq 0.8 0.5 0.8 0.5 0.8 0.5 0.8 0.5;
#X obj 417 50 loadbang;
#X text 651 457 << distortion !;
#X text 701 505 << reverb !;
#X text 127 243 probabilités >;
#X text 163 221 forte;
#X text 164 265 faible;
#X obj 391 561 audio-cutoff;
#X obj 112 483 audio-delay;
#X obj 9 333 r tone;
#X msg 90 409 cutoff \$1;
#X obj 83 379 + 24;
#X obj 430 438 audio-out 0.01;
#X obj 624 610 audio-out 0.01;
#X obj 593 363 env~;
#X obj 682 377 s envdrum;
#X connect 1 4 6 0;
#X connect 1 4 25 0;
#X connect 1 4 25 1;
#X connect 1 4 27 0;
#X connect 2 0 4 0;
#X connect 3 0 5 0;
#X connect 4 0 8 0;
#X connect 4 0 9 0;
#X connect 4 0 10 0;
#X connect 5 0 9 0;
#X connect 5 0 10 0;
#X connect 5 0 8 0;
#X connect 6 0 20 0;
#X connect 7 0 26 0;
#X connect 7 1 26 1;
#X connect 8 1 1 0;
#X connect 9 1 1 1;
#X connect 10 1 1 2;
#X connect 11 0 8 0;
#X connect 12 0 9 0;
#X connect 13 0 10 0;
#X connect 14 0 11 0;
#X connect 14 0 12 0;
#X connect 14 0 13 0;
#X connect 20 0 21 0;
#X connect 21 0 7 0;
#X connect 21 0 26 1;
#X connect 21 1 26 0;
#X connect 22 0 24 0;
#X connect 23 0 20 1;
#X connect 24 0 23 0;
#X connect 27 0 28 0;
#X restore 42 485 pd drum;
#X obj 0 323 s tone;
#X msg 638 436 0;
#X obj 581 434 + 0;
#X msg 671 435 -12;
#X msg 708 435 12;
#X obj 600 192 map 40 60 4 30;
#X obj 415 426 pix_puzzle;
#X obj 416 406 pix_grey;
#X obj 425 390 tgl 15 1 empty empty empty 0 -6 0 8 -262144 -1 -1 1
1;
#X msg 424 275 0;
#X obj 424 253 pipe 100;
#X obj 487 242 hsl 50 15 0 500 0 0 empty empty empty -2 -8 0 10 -262144
-1 -1 0 1;
#X obj 717 568 bang;
#X obj 598 637 ead~ 10 1000;
#X obj 630 582 vsl 15 50 0 1000 0 0 empty empty empty 0 -9 0 10 -262144
-1 -1 4800 1;
#X obj 667 582 vsl 15 50 0 1000 0 0 empty empty empty 0 -9 0 10 -262144
-1 -1 0 1;
#X obj 521 591 *~;
#X obj 702 195 r envdrum;
#X obj 486 479 pix_motionblur;
#X obj 557 408 vsl 15 50 0 1 0 0 empty empty empty 0 -9 0 10 -262144
-1 -1 0 1;
#X msg 481 407 size \$1 1;
#X connect 5 0 17 0;
#X connect 8 0 27 0;
#X connect 8 0 28 0;
#X connect 8 0 46 0;
#X connect 9 0 6 0;
#X connect 9 0 35 0;
#X connect 10 0 7 0;
#X connect 10 0 7 1;
#X connect 11 0 31 0;
#X connect 11 0 33 0;
#X connect 12 0 7 0;
#X connect 12 0 7 1;
#X connect 12 0 21 1;
#X connect 12 1 21 0;
#X connect 15 0 14 0;
#X connect 15 0 51 0;
#X connect 16 0 7 0;
#X connect 16 0 7 1;
#X connect 17 0 40 0;
#X connect 18 0 20 0;
#X connect 18 0 58 0;
#X connect 19 0 29 0;
#X connect 19 0 30 0;
#X connect 20 0 62 0;
#X connect 23 0 15 0;
#X connect 24 0 15 0;
#X connect 25 0 9 1;
#X connect 25 0 66 0;
#X connect 26 0 8 0;
#X connect 27 0 10 1;
#X connect 28 0 16 0;
#X connect 29 0 15 0;
#X connect 29 0 48 0;
#X connect 30 0 43 0;
#X connect 31 0 53 0;
#X connect 32 0 31 1;
#X connect 32 0 34 0;
#X connect 33 0 10 0;
#X connect 33 0 6 0;
#X connect 33 0 35 0;
#X connect 34 0 33 1;
#X connect 35 0 7 0;
#X connect 35 0 7 1;
#X connect 36 0 30 1;
#X connect 38 0 32 0;
#X connect 38 0 56 0;
#X connect 39 0 11 0;
#X connect 40 0 39 0;
#X connect 40 0 11 1;
#X connect 41 0 17 1;
#X connect 42 0 26 0;
#X connect 43 0 41 0;
#X connect 44 0 43 1;
#X connect 47 0 48 1;
#X connect 48 0 18 0;
#X connect 49 0 48 1;
#X connect 50 0 48 1;
#X connect 52 0 64 0;
#X connect 53 0 52 0;
#X connect 54 0 53 0;
#X connect 55 0 32 0;
#X connect 56 0 55 0;
#X connect 57 0 56 1;
#X connect 58 0 59 0;
#X connect 59 0 62 1;
#X connect 60 0 59 1;
#X connect 61 0 59 2;
#X connect 62 0 21 0;
#X connect 62 0 21 1;
#X connect 62 0 12 0;
#X connect 63 0 25 0;
#X connect 64 0 9 0;
#X connect 65 0 64 1;
#X connect 66 0 52 0;
