#N canvas 155 27 949 735 10;
#X declare -path ../in -path ../out -path ../tools -path ../filters
;
#X obj -5 19 cnv 5 800 5 empty empty IN 2 15 1 15 -260097 -191407 0
;
#X obj -5 169 cnv 5 800 5 empty empty FILTERS 2 15 1 15 -260097 -191407
0;
#X obj -5 330 cnv 5 800 5 empty empty OUT 2 15 1 15 -260097 -191407
0;
#N canvas 390 263 645 287 INIT 0;
#X obj 104 35 declare -path ../in -path ../out -path ../tools -path
../filters;
#X obj 154 102 bng 12 250 50 0 empty empty Save-as 16 7 0 10 -260097
-1 -1;
#X obj 157 201 namecanvas \$0-patch-name;
#X obj 154 162 s \$0-patch-name;
#X msg 154 133 menusaveas;
#X obj 274 132 savepanel;
#X obj 274 159 s UPDATE_PATCH;
#X connect 1 0 4 0;
#X connect 1 0 5 0;
#X connect 4 0 3 0;
#X connect 5 0 6 0;
#X coords 0 -1 1 1 150 17 1 100 100;
#X restore 645 2 pd INIT;
#X obj 170 50 arduino-analog-in;
#X obj 170 136 inverse;
#X obj 170 230 gamme;
#X obj 170 425 synth-theremin;
#X floatatom 416 214 5 0 0 0 main_tone - -;
#X floatatom 238 166 5 0 0 0 - - -;
#X obj 335 335 kicksound;
#X obj 521 192 seq-taptempo;
#X obj 520 52 arduino-analog-in;
#X obj 170 341 rampe 1000;
#X floatatom 199 479 0 0 120 0 - - -;
#X floatatom 229 478 0 0 100 0 - - -;
#X floatatom 258 478 0 0 120 0 - - -;
#X floatatom 288 479 0 0 120 0 - - -;
#X obj 171 508 rev2~ 100 90 3000 20;
#X obj 627 175 map 0.9 1 0 1;
#X obj 13 398 audio-scratch;
#X floatatom 661 25 5 0 0 0 photoresistor_level - -;
#X floatatom 487 114 5 0 0 0 - - -;
#X obj 504 243 gamme;
#X obj 530 350 kicksound;
#X obj 358 50 seq-randomizer 1000;
#X obj 358 79 map 0 1 0.7 0.8;
#X floatatom 558 531 0 0 120 0 - - -;
#X floatatom 588 530 0 0 100 0 - - -;
#X floatatom 617 530 0 0 120 0 - - -;
#X floatatom 647 531 0 0 120 0 - - -;
#X obj 530 560 rev2~ 100 90 3000 20;
#X obj 661 103 / 100;
#X floatatom 362 527 0 0 120 0 - - -;
#X floatatom 392 526 0 0 100 0 - - -;
#X floatatom 421 526 0 0 120 0 - - -;
#X floatatom 451 527 0 0 120 0 - - -;
#X obj 334 556 rev2~ 100 90 3000 20;
#X obj 801 58 arduino-analog-in;
#X obj 719 350 kicksound;
#X obj 801 130 inverse;
#X floatatom 813 152 5 0 0 0 - - -;
#X obj 801 198 map 0.6 1 20 1000;
#X text 165 28 pin 3;
#X text 521 33 pin 5;
#X text 801 41 pin 2;
#X obj 520 140 map 0.9 1 20 500;
#X obj 839 241 physics;
#X floatatom 293 179 5 0 0 0 - - -;
#X obj 173 182 map 0.8 1 0.6 0.95;
#N canvas 0 0 450 300 octaver 0;
#X obj 66 215 +;
#X msg 135 204 -12;
#X msg 165 204 0;
#X obj 53 137 * 127;
#X obj 54 261 / 127;
#X obj 106 102 hradio 15 1 0 5 empty empty empty 0 -8 0 10 -262144
-1 -1 0;
#X obj 121 124 sel 0 1 2 3 4;
#X msg 104 204 -24;
#X msg 197 204 12;
#X msg 227 204 24;
#X obj 58 75 inlet;
#X obj 151 268 outlet;
#X connect 0 0 4 0;
#X connect 1 0 0 1;
#X connect 2 0 0 1;
#X connect 3 0 0 0;
#X connect 4 0 11 0;
#X connect 5 0 6 0;
#X connect 6 0 7 0;
#X connect 6 1 1 0;
#X connect 6 2 2 0;
#X connect 6 3 8 0;
#X connect 6 4 9 0;
#X connect 7 0 0 1;
#X connect 8 0 0 1;
#X connect 9 0 0 1;
#X connect 10 0 3 0;
#X coords 0 -1 1 1 85 20 2 100 100;
#X restore 170 372 pd octaver;
#X floatatom 358 18 5 0 0 0 - - -;
#X text 888 526 q;
#X floatatom 857 575 0 0 0 0 - - -;
#X text 813 530 gain;
#X text 595 709 filtered output;
#X obj 820 551 Line~ 200;
#X floatatom 785 534 0 0 0 0 - - -;
#X floatatom 832 527 5 0 0 0 - - -;
#X obj 654 204 s photo;
#X obj 892 559 r photo;
#X obj 836 606 map 0 1 1000 2000;
#X obj 723 624 delay~ 200000;
#X obj 828 670 * 4410;
#X floatatom 828 640 5 0 0 0 - - -;
#X obj 753 656 *~ 0.3;
#X obj 170 536 audio-bus2;
#X obj 757 574 reson~ 50 200 23;
#X obj 14 50 arduino-analog-in;
#X obj 25 158 synth-theremin;
#X floatatom 44 127 5 0 0 0 - - -;
#X obj 114 122 vsl 15 50 0 2 0 0 empty empty empty 0 -9 0 10 -262144
-1 -1 0 1;
#X obj 333 583 audio-bus2;
#X obj 14 535 audio-bus2;
#X obj 529 590 audio-bus2;
#X obj 647 621 audio-bus2;
#X obj 25 269 audio-bus2;
#X connect 4 0 5 0;
#X connect 5 0 9 0;
#X connect 5 0 20 0;
#X connect 5 0 49 0;
#X connect 6 0 10 1;
#X connect 6 0 13 0;
#X connect 7 0 18 0;
#X connect 8 0 6 1;
#X connect 8 0 23 1;
#X connect 10 0 37 0;
#X connect 10 1 37 0;
#X connect 11 0 10 0;
#X connect 11 0 24 0;
#X connect 12 0 19 0;
#X connect 12 0 22 0;
#X connect 12 0 46 0;
#X connect 13 0 50 0;
#X connect 14 0 18 1;
#X connect 15 0 18 2;
#X connect 16 0 18 3;
#X connect 17 0 18 4;
#X connect 18 0 66 0;
#X connect 18 1 66 1;
#X connect 19 0 7 1;
#X connect 19 0 59 0;
#X connect 20 0 18 0;
#X connect 20 0 73 0;
#X connect 20 0 73 1;
#X connect 21 0 32 0;
#X connect 23 0 24 0;
#X connect 23 0 24 1;
#X connect 23 0 39 1;
#X connect 24 0 31 0;
#X connect 25 0 26 0;
#X connect 26 0 23 0;
#X connect 27 0 31 1;
#X connect 28 0 31 2;
#X connect 29 0 31 3;
#X connect 30 0 31 4;
#X connect 31 0 74 0;
#X connect 31 1 74 1;
#X connect 32 0 19 1;
#X connect 32 0 46 1;
#X connect 33 0 37 1;
#X connect 34 0 37 2;
#X connect 35 0 37 3;
#X connect 36 0 37 4;
#X connect 37 0 72 0;
#X connect 37 1 72 1;
#X connect 38 0 40 0;
#X connect 39 0 67 0;
#X connect 40 0 41 0;
#X connect 40 0 42 0;
#X connect 42 0 47 0;
#X connect 46 0 11 1;
#X connect 47 0 39 2;
#X connect 48 0 6 0;
#X connect 49 0 6 0;
#X connect 50 0 7 0;
#X connect 51 0 25 0;
#X connect 53 0 67 3;
#X connect 56 0 67 2;
#X connect 57 0 67 1;
#X connect 58 0 56 0;
#X connect 60 0 61 0;
#X connect 61 0 56 0;
#X connect 62 0 65 0;
#X connect 62 0 75 1;
#X connect 63 0 62 1;
#X connect 64 0 63 0;
#X connect 67 0 62 0;
#X connect 67 0 75 0;
#X connect 68 0 69 0;
#X connect 68 0 70 0;
#X connect 69 0 76 0;
#X connect 69 0 76 1;
#X connect 71 0 69 1;
