#N canvas 244 67 860 806 10;
#X declare -path ../in -path ../out -path ../tools -path ../filters
-path ../lib;
#N canvas 401 334 645 287 INIT 0;
#X obj 240 100 bng 10 250 50 0 empty empty SAVE-AS -45 6 0 9 -260097
-1 -1;
#X obj 103 200 namecanvas \$0-patch-name;
#X obj 100 160 s \$0-patch-name;
#X msg 100 131 menusaveas;
#X obj 220 130 savepanel;
#X obj 220 157 s UPDATE_PATCH;
#X obj 50 33 declare -path ../in -path ../out -path ../tools -path
../filters -path ../lib;
#X text 50 4 Always use this subpatch in the presets;
#X obj 101 101 cnv 8 80 8 empty empty INIT 5 5 0 10 -233017 -66577
0;
#X connect 0 0 3 0;
#X connect 0 0 4 0;
#X connect 3 0 2 0;
#X connect 4 0 5 0;
#X coords 0 -1 1 1 150 10 2 100 100;
#X restore 701 -44 pd INIT;
#X obj 51 207 gemwin;
#X msg 51 59 create;
#X msg 51 78 destroy;
#X obj 208 259 part_color;
#X text 319 279 set the size;
#X floatatom 378 450 0 0 0 0 - - -;
#X obj 403 242 loadbang;
#X obj 208 471 part_killold 35;
#X obj 208 279 part_size 0.8;
#X msg 95 367 0 1 0;
#X msg 153 367 0 -1 0;
#X obj 208 340 part_gravity 0.07 0 0;
#X obj 208 532 translateXYZ -1 0.5 0;
#X obj 208 512 rotateXYZ 0 1 0;
#X floatatom 30 452 0 0 0 0 - - -;
#X obj 208 450 part_orbitpoint 0 -1 0 0.88;
#X msg 363 242 1 0 0;
#X obj 95 300 metro 2000;
#X obj 30 300 metro 50;
#X obj 208 320 part_source 10;
#N canvas 289 476 792 325 Gem.init 0;
#X obj 118 46 loadbang;
#X msg 118 81 reset;
#X obj 118 113 outlet;
#X obj 483 219 gemwin;
#X msg 495 195 0 \, destroy;
#X msg 483 172 FSAA 4 \, create \, 1 \, dimen 800 600;
#X msg 204 159 color 0 0.133858 0;
#X msg 200 187 fogcolor 1 1 1;
#X msg 175 219 fogmode 2;
#X msg 199 265 specular 1 0.897638 1;
#X connect 0 0 1 0;
#X connect 0 0 5 0;
#X connect 0 0 6 0;
#X connect 0 0 7 0;
#X connect 0 0 8 0;
#X connect 0 0 9 0;
#X connect 1 0 2 0;
#X connect 4 0 3 0;
#X connect 5 0 3 0;
#X connect 6 0 3 0;
#X connect 7 0 3 0;
#X connect 8 0 3 0;
#X connect 9 0 3 0;
#X restore 100 185 pd Gem.init;
#X obj 89 114 tgl 40 0 empty empty empty 0 -6 0 8 -262144 -1 -1 0 1
;
#X obj 65 259 t f f;
#X obj 30 413 i;
#X obj 61 413 + 1;
#X obj 91 413 % 360;
#X obj 89 159 t f f;
#N canvas 0 0 450 300 alternate 0;
#X obj 82 126 inlet;
#X obj 82 239 outlet;
#X obj 82 192 select 0 1;
#X obj 145 239 outlet;
#X obj 82 147 i;
#X obj 117 146 == 0;
#X obj 82 167 t f f;
#X connect 0 0 4 0;
#X connect 2 0 1 0;
#X connect 2 1 3 0;
#X connect 4 0 6 0;
#X connect 5 0 4 1;
#X connect 6 0 2 0;
#X connect 6 1 5 0;
#X restore 95 337 pd alternate;
#X floatatom 307 471 0 0 0 0 - - -;
#X obj 207 591 part_draw;
#X msg 356 549 draw \$1;
#X floatatom 409 549 5 0 0 0 - - -;
#X obj 674 426 output~;
#X obj 631 452 env~;
#X floatatom 294 279 0 0 0 0 - - -;
#X obj 208 384 part_targetcolor;
#X floatatom 373 383 0 0 0 0 - - -;
#X obj 432 383 hsl 128 15 0 1 0 0 empty empty empty -2 -8 0 10 -257985
-1 -1 0 1;
#X obj 681 207 tgl 15 0 empty empty empty 17 7 0 10 -260097 -1 -1 1
1;
#X floatatom 758 246 5 0 0 0 - - -;
#X floatatom 794 248 5 0 0 0 - - -;
#X obj 679 252 60;
#X obj 679 276 +~;
#X obj 679 304 osc~;
#X obj 697 325 *~;
#X floatatom 641 158 5 0 0 0 - - -;
#X obj 680 352 *~ 9;
#X obj 736 96 vsl 15 128 0 127 0 0 empty empty empty 0 -9 0 10 -262144
-1 -1 200 1;
#X obj 743 269 ead~ 160 0;
#X obj 596 -2 tgl 15 0 empty empty empty 17 7 0 10 -258113 -1 -1 0
1;
#X floatatom 675 37 5 0 0 0 - - -;
#X floatatom 711 39 5 0 0 0 - - -;
#X obj 596 43 60;
#X obj 596 67 +~;
#X obj 596 87 osc~;
#X obj 596 108 *~;
#X obj 660 60 ead~ 160 0;
#X obj 596 16 metro 1000;
#X obj 745 426 output~;
#X obj 745 379 delay~ 441000;
#X text 538 -3 kick >>;
#N canvas 0 0 450 300 kiki 0;
#X floatatom 185 46 5 0 0 0 - - -;
#X floatatom 221 48 5 0 0 0 - - -;
#X obj 106 52 60;
#X obj 106 76 +~;
#X obj 106 104 osc~;
#X obj 107 125 *~;
#X obj 114 167 outlet~;
#X obj 38 -13 inlet;
#X obj 118 -15 inlet;
#X obj 207 -15 inlet;
#X obj 263 -13 inlet;
#X obj 170 69 ead~ 1 176;
#X connect 0 0 11 1;
#X connect 1 0 11 2;
#X connect 2 0 3 0;
#X connect 3 0 4 0;
#X connect 4 0 5 0;
#X connect 5 0 6 0;
#X connect 7 0 2 0;
#X connect 7 0 11 0;
#X connect 8 0 2 0;
#X connect 9 0 0 0;
#X connect 10 0 1 0;
#X connect 11 0 5 1;
#X restore 461 97 pd kiki;
#X obj 391 62 tgl 15 0 empty empty empty 17 7 0 10 -258113 -1 -1 0
1;
#X obj 389 80 metro 500;
#X floatatom 461 54 5 0 0 0 - - -;
#X floatatom 499 55 5 0 0 0 - - -;
#X floatatom 535 55 5 0 0 0 - - -;
#X text 439 -36 tempo general;
#X obj 441 -3 s tempo;
#X obj 440 31 r tempo;
#X obj 653 -9 r tempo;
#X floatatom 398 -4 5 0 0 0 - - -;
#X obj 398 15 bng 15 250 50 0 empty empty empty 17 7 0 10 -262144 -1
-1;
#X obj 428 57 / 3;
#X obj 415 122 env~;
#X msg 288 144 draw line;
#X obj 415 143 / 10;
#X floatatom 631 509 5 0 0 0 - - -;
#X obj 634 562 s env;
#X obj 409 521 r env;
#X obj 30 486 s rotat;
#X obj 641 135 r rotat;
#X obj 444 -19 hsl 128 15 0 2000 0 0 empty empty empty -2 -8 0 10 -262144
-1 -1 0 1;
#X msg 316 383 0 0 0 0.5;
#N canvas 165 208 523 533 sink 0;
#X obj 409 521 r env;
#X obj 409 521 r env;
#X obj 430 444 r env;
#X obj 181 22 gemhead;
#X obj 177 91 part_head;
#X text 303 272 set the number per frame;
#X text 301 300 set the age to kill at;
#X text 306 120 the velocity domain;
#X text 305 135 a sphere at 0 \, 0.2 \, 0;
#X text 306 154 radius = 0.3;
#X msg 281 180 0 0.2 0 0.3;
#X msg 368 179 0.2 0 0 0.3;
#X obj 177 241 part_velocity sphere 0 0.2 0 0.3;
#X obj 177 340 part_render;
#X obj 57 318 gemhead;
#X obj 57 341 world_light;
#X obj 177 138 part_size 1;
#X msg 267 115 2;
#X obj 177 214 part_color;
#X msg 200 160 1 0 0;
#X obj 177 271 part_source 5;
#X obj 177 302 part_killold 10;
#X msg 212 188 0 1 0;
#X msg 237 114 1;
#X floatatom 308 390 5 0 0 0 - - -;
#X obj 339 357 rotate 45 0 0 1;
#X floatatom 356 333 5 0 0 0 - - -;
#X msg 438 332 0 1 1;
#X obj 12 408 cnv 15 150 100 empty empty empty 20 12 0 14 -24198 -66577
0;
#X msg 15 415 draw line;
#X msg 15 436 draw fill;
#X msg 15 458 draw point;
#X obj 373 406 * 50;
#X obj 178 64 spigot;
#X obj 248 54 inlet;
#X msg 390 206 0.2 0 0 1;
#X obj 256 453 / 0.2;
#X obj 36 374 loadbang;
#X obj 82 490 triangle;
#X connect 2 0 32 0;
#X connect 2 0 36 0;
#X connect 3 0 33 0;
#X connect 4 0 16 0;
#X connect 10 0 12 2;
#X connect 11 0 12 2;
#X connect 12 0 20 0;
#X connect 13 0 25 0;
#X connect 14 0 15 0;
#X connect 16 0 18 0;
#X connect 17 0 16 1;
#X connect 18 0 12 0;
#X connect 19 0 18 1;
#X connect 20 0 21 0;
#X connect 21 0 13 0;
#X connect 22 0 18 2;
#X connect 23 0 16 1;
#X connect 24 0 36 1;
#X connect 25 0 38 0;
#X connect 26 0 25 1;
#X connect 27 0 25 2;
#X connect 29 0 38 0;
#X connect 30 0 38 0;
#X connect 31 0 38 0;
#X connect 32 0 26 0;
#X connect 33 0 4 0;
#X connect 34 0 33 1;
#X connect 35 0 12 2;
#X connect 36 0 38 1;
#X connect 37 0 29 0;
#X restore 501 267 pd sink;
#X obj 501 250 tgl 15 0 empty empty empty 17 7 0 10 -262144 -1 -1 0
1;
#X text 447 268 cube 3d;
#X msg 287 123 draw fill;
#X msg 384 345 0 0 1 0.5;
#X msg 303 242 1 1 1 0;
#X obj 116 227 vsl 15 50 0 1000 0 0 empty empty empty 0 -9 0 10 -260097
-1 -1 200 1;
#X obj 149 228 vsl 15 50 0 10000 0 0 empty empty empty 0 -9 0 10 -262144
-1 -1 0 1;
#X obj 208 300 part_velocity sphere -1 0 0 0.05;
#X floatatom 482 303 5 0 0 0 - - -;
#X msg 410 302 0 \$1 0 0.3;
#X obj 815 427 output~;
#X obj 392 473 s killold;
#N canvas 1 48 450 300 noise 0;
#X obj 45 95 noise~;
#X obj 135 158 lop~;
#X obj 137 25 r killold;
#X obj 137 50 range 0 100 0 20000;
#X obj 131 218 outlet~;
#X obj 228 127 line;
#X msg 236 91 \$1 200;
#X connect 0 0 1 0;
#X connect 1 0 4 0;
#X connect 2 0 3 0;
#X connect 3 0 6 0;
#X connect 5 0 1 1;
#X connect 6 0 5 0;
#X restore 816 405 pd noise;
#X msg 518 365 1 1 1 0;
#X msg 275 215 speed \$1;
#X obj 338 216 hsl 50 15 0 5 0 0 empty empty empty -2 -8 0 10 -262144
-1 -1 0 1;
#N canvas 0 0 450 300 lop 0;
#X obj 131 218 outlet~;
#X obj 228 127 line;
#X msg 236 91 \$1 200;
#X obj 130 24 r speed;
#X obj 65 99 inlet~;
#X obj 135 158 lop~ 20000;
#X obj 137 50 range 0 5 0 20000;
#X connect 1 0 5 1;
#X connect 2 0 1 0;
#X connect 3 0 6 0;
#X connect 4 0 5 0;
#X connect 5 0 0 0;
#X connect 6 0 2 0;
#X restore 582 319 pd lop;
#X obj 394 215 s speed;
#X msg 435 449 0.88;
#N canvas 0 0 450 300 beating 0;
#X obj 118 85 +~;
#X obj 118 17 +~;
#X obj 167 61 +~;
#X obj 167 8 osc~ 440;
#X obj 188 31 osc~ 440.33;
#X obj 290 76 +~;
#X obj 291 26 osc~ 587;
#X obj 312 49 osc~ 587.25;
#X obj 119 54 +~;
#X obj 118 -36 noise~ 330;
#X obj 139 -12 phasor~ 330.2;
#X obj 116 202 outlet~;
#X connect 0 0 11 0;
#X connect 1 0 8 0;
#X connect 2 0 8 1;
#X connect 3 0 2 0;
#X connect 4 0 2 1;
#X connect 5 0 0 1;
#X connect 6 0 5 0;
#X connect 7 0 5 1;
#X connect 8 0 0 0;
#X connect 9 0 1 0;
#X connect 10 0 1 1;
#X restore 755 353 pd beating;
#X obj 679 225 metro 1;
#X obj 336 473 hsl 50 15 0 50 0 1 empty empty empty -2 -8 0 10 -262144
-1 -1 4200 1;
#X obj 208 491 part_gravity 0 0 -0.05;
#N canvas 0 0 908 606 color 0;
#X obj -1 378 outlet;
#X obj 31 302 list;
#X obj 99 205 t b f;
#X obj 142 205 t b f;
#X obj -1 279 t b a;
#X obj 89 260 pack 0 0 0 0;
#X obj 192 205 t b f;
#X msg 31 321 set \$1 \$2 \$3 \$4;
#X obj 101 103 vsl 10 50 0 1 0 1 empty empty empty 0 -9 0 10 -261234
-1 -1 4900 1;
#X obj 112 103 vsl 10 50 0 1 0 1 empty empty empty 0 -9 0 10 -204786
-1 -1 4900 1;
#X obj 123 103 vsl 10 50 0 1 0 1 empty empty empty 0 -9 0 10 -203904
-1 -1 4900 1;
#X obj 134 103 vsl 10 50 0 1 0 0 empty empty empty 0 -9 0 10 -228856
-1 -1 0 1;
#X connect 1 0 7 0;
#X connect 2 0 5 0;
#X connect 2 1 5 1;
#X connect 3 0 5 0;
#X connect 3 1 5 2;
#X connect 4 0 0 0;
#X connect 4 1 1 0;
#X connect 5 0 4 0;
#X connect 6 0 5 0;
#X connect 6 1 5 3;
#X connect 7 0 0 0;
#X connect 8 0 5 0;
#X connect 9 0 2 0;
#X connect 10 0 3 0;
#X connect 11 0 6 0;
#X coords 0 -1 1 1 45 60 2 100 100;
#X restore 519 306 pd color;
#N canvas 0 0 908 606 color 0;
#X obj -1 378 outlet;
#X obj 31 302 list;
#X obj 99 205 t b f;
#X obj 142 205 t b f;
#X obj -1 279 t b a;
#X obj 89 260 pack 0 0 0 0;
#X obj 192 205 t b f;
#X msg 31 321 set \$1 \$2 \$3 \$4;
#X obj 101 103 vsl 10 50 0 1 0 1 empty empty empty 0 -9 0 10 -261234
-1 -1 4900 1;
#X obj 112 103 vsl 10 50 0 1 0 1 empty empty empty 0 -9 0 10 -204786
-1 -1 4900 1;
#X obj 123 103 vsl 10 50 0 1 0 1 empty empty empty 0 -9 0 10 -203904
-1 -1 4900 1;
#X obj 134 103 vsl 10 50 0 1 0 0 empty empty empty 0 -9 0 10 -228856
-1 -1 0 1;
#X connect 1 0 7 0;
#X connect 2 0 5 0;
#X connect 2 1 5 1;
#X connect 3 0 5 0;
#X connect 3 1 5 2;
#X connect 4 0 0 0;
#X connect 4 1 1 0;
#X connect 5 0 4 0;
#X connect 6 0 5 0;
#X connect 6 1 5 3;
#X connect 7 0 0 0;
#X connect 8 0 5 0;
#X connect 9 0 2 0;
#X connect 10 0 3 0;
#X connect 11 0 6 0;
#X coords 0 -1 1 1 45 60 2 100 100;
#X restore 466 170 pd color;
#X obj 208 193 metro 100;
#X obj 208 175 tgl 15 0 empty empty empty 17 7 0 10 -262144 -1 -1 0
1;
#X obj 208 551 depth;
#X obj 208 570 alpha;
#N canvas 0 0 1280 736 reverbb 0;
#X obj 21 615 freeverb~;
#X msg 20 121 roomsize \$1;
#X msg 20 166 damping \$1;
#X msg 20 210 width \$1;
#X msg 20 254 wet \$1;
#X msg 20 298 dry \$1;
#X msg 54 321 print;
#X msg 73 360 freeze \$1;
#X msg 78 397 bypass \$1;
#X obj 153 197 tgl 15 0 empty empty empty 0 -6 0 8 -262144 -1 -1 0
1;
#X obj 103 197 tgl 15 0 empty empty empty 0 -6 0 8 -262144 -1 -1 0
1;
#X obj 106 178 hsl 60 18 0 1 0 1 empty empty dry 2 9 1 12 -225271 -1
-1 5900 0;
#X obj 106 159 hsl 60 18 0 1 0 1 empty empty wet 2 9 1 12 -225271 -1
-1 5900 0;
#X obj 106 140 hsl 60 18 0 1 0 1 empty empty width 2 9 1 12 -262131
-1 -1 5900 0;
#X obj 106 121 hsl 60 18 0 2 0 1 empty empty damping 2 9 1 12 -261689
-1 -1 5900 0;
#X obj 106 102 hsl 60 18 0.11 1.1 0 1 empty empty roomsize 2 9 1 12
-261689 -1 -1 5000 0;
#X floatatom 2 102 3 0 0 0 - - -;
#X floatatom 2 147 3 0 0 0 - - -;
#X floatatom 2 192 3 0 0 0 - - -;
#X floatatom 2 235 3 0 0 0 - - -;
#X floatatom 2 279 3 0 0 0 - - -;
#X obj 131 494 inlet~;
#X obj 181 495 inlet~;
#X obj 133 649 outlet~;
#X obj 191 648 outlet~;
#X obj 271 201 s wet;
#X connect 0 0 23 0;
#X connect 0 1 24 0;
#X connect 1 0 0 0;
#X connect 2 0 0 0;
#X connect 3 0 0 0;
#X connect 4 0 0 0;
#X connect 5 0 0 0;
#X connect 6 0 0 0;
#X connect 7 0 0 0;
#X connect 8 0 0 0;
#X connect 9 0 8 0;
#X connect 10 0 7 0;
#X connect 11 0 5 0;
#X connect 11 0 20 0;
#X connect 12 0 4 0;
#X connect 12 0 19 0;
#X connect 12 0 25 0;
#X connect 13 0 3 0;
#X connect 13 0 18 0;
#X connect 14 0 2 0;
#X connect 14 0 17 0;
#X connect 15 0 1 0;
#X connect 15 0 16 0;
#X connect 21 0 0 0;
#X connect 22 0 0 1;
#X coords 0 -1 1 1 85 100 1 100 100;
#X restore 521 469 pd reverbb;
#X obj 208 213 gemhead 10;
#X obj 681 184 loadbang;
#X obj 362 122 gemhead 5;
#N canvas 481 206 875 613 artifice 1;
#X obj 191 32 gemhead;
#X obj 187 101 part_head;
#X text 313 282 set the number per frame;
#X text 311 310 set the age to kill at;
#X text 316 130 the velocity domain;
#X text 315 145 a sphere at 0 \, 0.2 \, 0;
#X text 316 164 radius = 0.3;
#X obj 187 251 part_velocity sphere 0 0.2 0 0.3;
#X obj 187 350 part_render;
#X obj 187 148 part_size 1;
#X msg 277 125 2;
#X obj 187 224 part_color;
#X obj 187 281 part_source 5;
#X msg 247 124 1;
#X obj 349 367 rotate 45 0 0 1;
#X floatatom 416 309 5 0 0 0 - - -;
#X msg 448 342 0 1 1;
#X obj 22 418 cnv 15 150 100 empty empty empty 20 12 0 14 -24198 -66577
0;
#X msg 25 425 draw line;
#X msg 25 446 draw fill;
#X msg 25 468 draw point;
#X obj 188 74 spigot;
#X obj 258 64 inlet;
#X obj 46 384 loadbang;
#N canvas 0 0 450 300 kiki 0;
#X floatatom 185 46 5 0 0 0 - - -;
#X floatatom 221 48 5 0 0 0 - - -;
#X obj 106 52 60;
#X obj 106 76 +~;
#X obj 106 104 osc~;
#X obj 107 125 *~;
#X obj 114 167 outlet~;
#X obj 38 -13 inlet;
#X obj 118 -15 inlet;
#X obj 207 -15 inlet;
#X obj 263 -13 inlet;
#X obj 170 69 ead~ 1 176;
#X connect 0 0 11 1;
#X connect 1 0 11 2;
#X connect 2 0 3 0;
#X connect 3 0 4 0;
#X connect 4 0 5 0;
#X connect 5 0 6 0;
#X connect 7 0 2 0;
#X connect 7 0 11 0;
#X connect 8 0 2 0;
#X connect 9 0 0 0;
#X connect 10 0 1 0;
#X connect 11 0 5 1;
#X restore 701 438 pd kiki;
#X obj 631 403 tgl 15 0 empty empty empty 17 7 0 10 -262144 -1 -1 0
1;
#X obj 629 421 metro 500;
#X floatatom 701 395 5 0 0 0 - - -;
#X floatatom 739 396 5 0 0 0 - - -;
#X floatatom 775 396 5 0 0 0 - - -;
#X obj 680 372 r tempo;
#X obj 700 471 outlet~;
#X obj 509 503 env~;
#X floatatom 231 460 5 0 0 0 - - -;
#X obj 584 131 metro;
#X obj 584 191 line;
#X obj 584 113 tgl 15 0 empty empty empty 17 7 0 10 -262144 -1 -1 0
1;
#X obj 667 136 metro;
#X obj 667 196 line;
#X obj 667 118 tgl 15 0 empty empty empty 17 7 0 10 -262144 -1 -1 0
1;
#X msg 667 176 \$1 100;
#X obj 763 135 metro;
#X obj 763 195 line;
#X obj 763 117 tgl 15 0 empty empty empty 17 7 0 10 -262144 -1 -1 0
1;
#X msg 763 175 \$1 100;
#X msg 584 171 \$1 10;
#X obj 584 151 random 3000;
#X obj 461 168 range 0 3000 0 1;
#X floatatom 524 45 5 0 0 0 - - -;
#X obj 82 1 pack;
#X obj 372 229 pack f f f f;
#X obj 667 158 random 1;
#X obj 498 219 range 0 1 0 1;
#X obj 93 499 rectangle;
#X obj 668 398 * 3;
#X obj 763 155 random 3000;
#X obj 467 253 range 0 3000 0 1;
#X floatatom 725 51 5 0 0 0 - - -;
#X obj 510 299 range 0 3000 0 360;
#X obj 556 429 tgl 15 0 empty empty empty 17 7 0 10 -262144 -1 -1 0
1;
#X obj 554 447 metro 500;
#X obj 598 425 / 4;
#N canvas 0 0 450 300 kiki 0;
#X floatatom 185 46 5 0 0 0 - - -;
#X floatatom 221 48 5 0 0 0 - - -;
#X obj 106 52 60;
#X obj 106 76 +~;
#X obj 106 104 osc~;
#X obj 107 125 *~;
#X obj 114 167 outlet~;
#X obj 38 -13 inlet;
#X obj 118 -15 inlet;
#X obj 207 -15 inlet;
#X obj 263 -13 inlet;
#X obj 170 69 ead~ 1 176;
#X connect 0 0 11 1;
#X connect 1 0 11 2;
#X connect 2 0 3 0;
#X connect 3 0 4 0;
#X connect 4 0 5 0;
#X connect 5 0 6 0;
#X connect 7 0 2 0;
#X connect 7 0 11 0;
#X connect 8 0 2 0;
#X connect 9 0 0 0;
#X connect 10 0 1 0;
#X connect 11 0 5 1;
#X restore 626 503 pd kiki;
#X obj 304 526 range 0 100 0 10;
#X obj 187 312 part_killold 100;
#X floatatom 666 42 5 0 0 0 - - -;
#X obj 186 332 alpha;
#X msg 222 198 0.2 0.2 0.2 0.3;
#X msg 229 180 0.1 0.1 0.1 0.2;
#X obj 429 571 output~;
#X obj 345 425 noise~;
#X obj 415 529 *~;
#X obj 407 420 audio-cutoff;
#X obj 297 452 bang;
#X obj 322 484 line;
#X msg 441 399 cutoff \$1;
#X obj 567 358 map 0 360 20 100;
#X msg 325 464 0.3 \, 0 10000;
#X obj 507 364 physics;
#X obj 468 323 hsl 128 15 0 360 0 0 empty empty empty -2 -8 0 10 -257985
-1 -1 0 1;
#X obj 322 57 loadbang;
#X connect 0 0 21 0;
#X connect 1 0 9 0;
#X connect 7 0 12 0;
#X connect 8 0 14 0;
#X connect 9 0 11 0;
#X connect 10 0 9 1;
#X connect 11 0 7 0;
#X connect 12 0 64 0;
#X connect 13 0 9 1;
#X connect 14 0 53 0;
#X connect 15 0 73 0;
#X connect 15 0 78 0;
#X connect 16 0 14 2;
#X connect 18 0 53 0;
#X connect 19 0 53 0;
#X connect 20 0 53 0;
#X connect 21 0 1 0;
#X connect 22 0 21 1;
#X connect 23 0 20 0;
#X connect 24 0 31 0;
#X connect 24 0 32 0;
#X connect 25 0 26 0;
#X connect 26 0 24 0;
#X connect 27 0 24 1;
#X connect 28 0 24 2;
#X connect 29 0 24 3;
#X connect 30 0 54 0;
#X connect 32 0 63 0;
#X connect 33 0 53 2;
#X connect 34 0 46 0;
#X connect 35 0 27 0;
#X connect 35 0 47 0;
#X connect 35 0 58 0;
#X connect 36 0 34 0;
#X connect 37 0 51 0;
#X connect 38 0 28 0;
#X connect 38 0 52 0;
#X connect 39 0 37 0;
#X connect 40 0 38 0;
#X connect 41 0 55 0;
#X connect 42 0 29 0;
#X connect 42 0 56 0;
#X connect 43 0 41 0;
#X connect 44 0 42 0;
#X connect 45 0 35 0;
#X connect 46 0 45 0;
#X connect 47 0 50 0;
#X connect 48 0 46 1;
#X connect 48 0 47 2;
#X connect 48 0 58 2;
#X connect 50 0 7 2;
#X connect 51 0 40 0;
#X connect 52 0 50 1;
#X connect 54 0 26 1;
#X connect 54 0 61 0;
#X connect 55 0 44 0;
#X connect 56 0 50 2;
#X connect 56 0 53 1;
#X connect 57 0 55 1;
#X connect 57 0 56 2;
#X connect 58 0 15 0;
#X connect 59 0 60 0;
#X connect 60 0 62 0;
#X connect 60 0 16 0;
#X connect 61 0 60 1;
#X connect 62 0 31 0;
#X connect 63 0 33 0;
#X connect 64 0 66 0;
#X connect 65 0 51 1;
#X connect 65 0 52 1;
#X connect 66 0 8 0;
#X connect 67 0 11 2;
#X connect 68 0 11 1;
#X connect 70 0 72 0;
#X connect 71 0 69 0;
#X connect 71 0 69 1;
#X connect 72 0 71 0;
#X connect 73 0 77 0;
#X connect 74 0 71 1;
#X connect 75 0 72 1;
#X connect 76 0 75 0;
#X connect 77 0 74 0;
#X connect 78 0 76 0;
#X connect 78 0 14 1;
#X connect 79 0 15 0;
#X connect 80 0 68 0;
#X connect 80 0 67 0;
#X restore 245 -7 pd artifice;
#X obj 245 -27 tgl 15 0 empty empty empty 17 7 0 10 -262144 -1 -1 1
1;
#X obj 245 15 output~;
#X obj 363 182 sphere;
#X obj 34 238 tgl 15 0 empty empty empty 17 7 0 10 -258113 -1 -1 1
1;
#X obj 691 536 i;
#X floatatom 634 540 5 0 0 0 - - -;
#N canvas 3 94 908 606 color 0;
#X obj -1 378 outlet;
#X obj 31 302 list;
#X obj 99 205 t b f;
#X obj 142 205 t b f;
#X obj -1 279 t b a;
#X obj 89 260 pack 0 0 0 0;
#X obj 192 205 t b f;
#X obj 101 103 vsl 10 50 0 1 0 1 empty empty empty 0 -9 0 10 -261234
-1 -1 1900 1;
#X obj 112 103 vsl 10 50 0 1 0 1 empty empty empty 0 -9 0 10 -204786
-1 -1 4900 1;
#X obj 123 103 vsl 10 50 0 1 0 1 empty empty empty 0 -9 0 10 -203904
-1 -1 2700 1;
#X obj 134 103 vsl 10 50 0 1 0 0 empty empty empty 0 -9 0 10 -228856
-1 -1 0 1;
#X msg 31 321 \$1 \$2 \$3 \$4;
#X connect 1 0 11 0;
#X connect 2 0 5 0;
#X connect 2 1 5 1;
#X connect 3 0 5 0;
#X connect 3 1 5 2;
#X connect 4 0 0 0;
#X connect 4 1 1 0;
#X connect 5 0 4 0;
#X connect 6 0 5 0;
#X connect 6 1 5 3;
#X connect 7 0 5 0;
#X connect 8 0 2 0;
#X connect 9 0 3 0;
#X connect 10 0 6 0;
#X connect 11 0 0 0;
#X coords 0 -1 1 1 45 60 2 100 100;
#X restore 239 123 pd color;
#X obj 361 142 color;
#X obj 361 161 alpha;
#X floatatom 406 168 5 0 0 0 - - -;
#X obj 449 152 % 10;
#X obj 691 510 map 90 115 1 9;
#X obj 208 232 part_head 2000;
#X obj 475 582 audio-cutoff;
#X msg 714 626 mode \$1;
#X obj 714 589 nbx 5 14 0 4 0 0 empty empty empty 0 -8 0 10 -262144
-1 -1 0 256;
#X obj 755 568 random 5;
#X msg 775 631 cutoff \$1;
#X obj 775 611 random 127;
#X obj 775 591 bang;
#X obj 475 646 audio-delay;
#X obj 703 680 output~;
#X connect 2 0 1 0;
#X connect 3 0 1 0;
#X connect 4 0 9 0;
#X connect 6 0 16 2;
#X connect 7 0 17 0;
#X connect 7 0 90 0;
#X connect 8 0 108 0;
#X connect 9 0 93 0;
#X connect 10 0 16 1;
#X connect 11 0 16 1;
#X connect 12 0 36 0;
#X connect 13 0 113 0;
#X connect 14 0 13 0;
#X connect 15 0 14 2;
#X connect 15 0 81 0;
#X connect 16 0 8 0;
#X connect 17 0 4 2;
#X connect 18 0 28 0;
#X connect 19 0 24 0;
#X connect 20 0 12 0;
#X connect 21 0 1 0;
#X connect 22 0 27 0;
#X connect 23 0 19 0;
#X connect 23 1 18 0;
#X connect 24 0 25 0;
#X connect 24 0 15 0;
#X connect 25 0 26 0;
#X connect 26 0 24 1;
#X connect 27 0 1 0;
#X connect 27 1 23 0;
#X connect 28 0 10 0;
#X connect 28 1 11 0;
#X connect 29 0 8 1;
#X connect 29 0 97 0;
#X connect 31 0 30 0;
#X connect 32 0 31 0;
#X connect 34 0 78 0;
#X connect 35 0 9 1;
#X connect 36 0 16 0;
#X connect 37 0 36 2;
#X connect 38 0 37 0;
#X connect 39 0 106 0;
#X connect 40 0 49 1;
#X connect 41 0 49 2;
#X connect 42 0 43 0;
#X connect 43 0 44 0;
#X connect 44 0 45 0;
#X connect 45 0 47 0;
#X connect 46 0 42 0;
#X connect 47 0 34 0;
#X connect 47 0 60 0;
#X connect 47 0 115 0;
#X connect 47 0 115 1;
#X connect 48 0 106 1;
#X connect 49 0 45 1;
#X connect 50 0 58 0;
#X connect 51 0 57 1;
#X connect 52 0 57 2;
#X connect 53 0 54 0;
#X connect 54 0 55 0;
#X connect 55 0 56 0;
#X connect 56 0 47 0;
#X connect 57 0 56 1;
#X connect 58 0 53 0;
#X connect 58 0 57 0;
#X connect 60 0 59 0;
#X connect 60 0 59 1;
#X connect 62 0 47 0;
#X connect 62 0 75 0;
#X connect 63 0 64 0;
#X connect 64 0 62 0;
#X connect 64 0 136 0;
#X connect 65 0 62 1;
#X connect 66 0 62 2;
#X connect 67 0 62 3;
#X connect 70 0 74 0;
#X connect 71 0 58 1;
#X connect 72 0 73 0;
#X connect 72 0 74 1;
#X connect 73 0 83 0;
#X connect 74 0 64 1;
#X connect 75 0 77 0;
#X connect 76 0 122 0;
#X connect 77 0 122 1;
#X connect 78 0 131 0;
#X connect 80 0 32 0;
#X connect 82 0 46 0;
#X connect 82 0 130 0;
#X connect 83 0 69 0;
#X connect 84 0 36 1;
#X connect 86 0 85 0;
#X connect 88 0 122 0;
#X connect 89 0 36 1;
#X connect 90 0 4 1;
#X connect 91 0 19 1;
#X connect 92 0 18 1;
#X connect 93 0 20 0;
#X connect 94 0 95 0;
#X connect 95 0 93 2;
#X connect 98 0 96 1;
#X connect 98 0 96 0;
#X connect 99 0 36 1;
#X connect 100 0 132 0;
#X connect 101 0 100 0;
#X connect 101 0 103 0;
#X connect 101 0 29 0;
#X connect 104 0 16 2;
#X connect 105 0 59 0;
#X connect 105 0 59 1;
#X connect 106 0 42 0;
#X connect 106 0 49 0;
#X connect 107 0 97 0;
#X connect 107 0 29 0;
#X connect 108 0 14 0;
#X connect 109 0 99 0;
#X connect 110 0 90 0;
#X connect 111 0 116 0;
#X connect 112 0 111 0;
#X connect 113 0 114 0;
#X connect 114 0 30 0;
#X connect 115 0 33 1;
#X connect 115 0 133 0;
#X connect 115 1 33 0;
#X connect 115 1 133 0;
#X connect 116 0 132 0;
#X connect 117 0 39 0;
#X connect 118 0 127 0;
#X connect 119 0 121 0;
#X connect 120 0 119 0;
#X connect 123 0 23 0;
#X connect 124 0 79 0;
#X connect 125 0 79 0;
#X connect 126 0 127 1;
#X connect 127 0 128 0;
#X connect 128 0 122 0;
#X connect 129 0 122 2;
#X connect 130 0 129 0;
#X connect 131 0 124 0;
#X connect 132 0 4 0;
#X connect 133 0 33 0;
#X connect 133 0 140 0;
#X connect 134 0 133 1;
#X connect 135 0 134 0;
#X connect 136 0 135 0;
#X connect 136 0 139 0;
#X connect 137 0 133 1;
#X connect 138 0 137 0;
#X connect 139 0 138 0;
#X connect 140 0 141 1;
#X connect 140 1 141 0;
