#N canvas 248 163 811 658 10;
#X declare -path ../in -path ../out -path ../tools -path ../filters
-path ../lib;
#X obj -25 187 cnv 1 396 1 empty empty FILTERS 2 -6 1 12 -228856 -191407
0;
#N canvas 400 311 645 287 INIT 0;
#X obj 240 100 bng 10 250 50 0 empty empty SAVE-AS -45 6 0 9 -260097
-1 -1;
#X obj 103 200 namecanvas \$0-patch-name;
#X obj 100 160 s \$0-patch-name;
#X msg 100 131 menusaveas;
#X obj 220 130 savepanel;
#X obj 220 157 s UPDATE_PATCH;
#X obj 50 33 declare -path ../in -path ../out -path ../tools -path
../filters -path ../lib;
#X text 50 4 Always use this subpatch in the presets;
#X obj 101 101 cnv 8 80 8 empty empty INIT 5 5 0 10 -233017 -66577
0;
#X connect 0 0 3 0;
#X connect 0 0 4 0;
#X connect 3 0 2 0;
#X connect 4 0 5 0;
#X coords 0 -1 1 1 150 10 2 100 100;
#X restore 625 -2 pd INIT;
#X obj -25 354 cnv 1 800 1 empty empty OUT 2 -6 1 12 -228856 -191407
0;
#X obj -25 63 cnv 1 800 1 empty empty IN 2 -6 1 12 -228856 -191407
0;
#X obj -25 187 cnv 1 800 1 empty empty TOOLS 400 -6 1 12 -228856 -191407
0;
#X obj 27 429 audio-out;
#X obj 189 553 audio-out;
#X obj 188 437 audio-delay 33;
#N canvas 438 256 360 705 melo 1;
#X obj 89 237 map 0 1 20 60;
#X obj 112 352 synth;
#X obj 205 607 audio-out;
#X obj 180 400 audio-attackdecay;
#X obj 70 469 audio-delay 50;
#X obj 75 84 seq-sliders 100;
#X obj 101 262 gamme 2;
#X obj 95 622 audio-out;
#X connect 0 0 6 0;
#X connect 1 0 3 0;
#X connect 2 0 7 0;
#X connect 2 0 7 1;
#X connect 3 0 2 1;
#X connect 3 0 4 0;
#X connect 4 0 2 0;
#X connect 5 0 0 0;
#X connect 6 0 1 0;
#X connect 6 0 3 1;
#X restore 281 37 pd melo;
#N canvas 310 116 971 733 melo 1;
#X obj 112 352 synth;
#X obj 76 586 audio-out;
#X obj 180 400 audio-attackdecay;
#X obj 70 469 audio-delay 50;
#X obj 101 262 gamme 2;
#X obj 75 84 seq-sliders 800;
#X obj 89 237 map 0 1 10 35;
#X obj 473 344 audio-cutoff;
#X obj 543 554 audio-out;
#X obj 544 479 audio-reverb;
#X msg 585 316 cutoff \$1;
#X obj 566 413 audio-cutoff;
#X obj 325 230 gamme 2;
#X obj 325 209 map 0 1 40 80;
#X obj 331 162 sel 0;
#X obj 326 188 spigot-toggle;
#X obj 297 114 count 4;
#X obj 300 86 bang;
#X obj 716 146 synth;
#X floatatom 716 108 5 0 0 0 - - -;
#X msg 585 31 seq 0.36 0.39 0.41 0.36 0.36 0.39 0.41 0.35;
#X obj 543 230 * 100;
#X obj 507 58 seq-sliders 1600;
#X obj 789 189 synth;
#X floatatom 862 131 5 0 0 0 - - -;
#X obj 789 98 expr $f1+$f1/$f2;
#X floatatom 887 65 5 0 0 0 - - -;
#X msg 674 382 cutoff \$1;
#X msg 678 308 84;
#X msg 705 307 78;
#X obj 678 349 fade 1000;
#X obj 355 473 audio-sampler-transpose;
#X obj 350 440 audio-in;
#X obj 437 603 audio-out;
#X msg 458 451 rec;
#X obj 185 582 audio-delay 50;
#X obj 315 321 bang;
#X obj 353 323 count 8;
#X obj 406 323 sel 0;
#X obj 776 253 audio-decimate;
#X obj 789 358 audio-out;
#X obj 787 310 *~ 2;
#X obj 133 656 audio-out;
#X connect 0 0 2 0;
#X connect 0 0 7 0;
#X connect 0 0 11 0;
#X connect 1 0 42 0;
#X connect 1 0 42 1;
#X connect 2 0 1 1;
#X connect 2 0 3 0;
#X connect 3 0 1 0;
#X connect 4 0 0 0;
#X connect 4 0 2 1;
#X connect 4 0 31 1;
#X connect 4 0 36 0;
#X connect 5 0 6 0;
#X connect 5 0 15 0;
#X connect 5 0 17 0;
#X connect 6 0 4 0;
#X connect 7 0 8 0;
#X connect 7 0 8 1;
#X connect 7 0 9 0;
#X connect 9 0 8 0;
#X connect 9 1 8 1;
#X connect 10 0 7 1;
#X connect 11 0 9 0;
#X connect 12 0 10 0;
#X connect 13 0 12 0;
#X connect 14 0 15 0;
#X connect 15 0 13 0;
#X connect 16 0 14 0;
#X connect 17 0 16 0;
#X connect 18 0 39 0;
#X connect 18 0 39 1;
#X connect 19 0 18 0;
#X connect 19 0 25 0;
#X connect 20 0 22 0;
#X connect 21 0 19 0;
#X connect 22 0 21 0;
#X connect 23 0 39 0;
#X connect 23 0 39 1;
#X connect 25 0 23 0;
#X connect 25 0 24 0;
#X connect 26 0 25 1;
#X connect 27 0 11 1;
#X connect 28 0 30 0;
#X connect 29 0 30 0;
#X connect 30 0 27 0;
#X connect 31 0 35 0;
#X connect 32 0 31 0;
#X connect 34 0 31 2;
#X connect 35 0 33 0;
#X connect 35 1 33 1;
#X connect 36 0 37 0;
#X connect 37 0 38 0;
#X connect 38 0 34 0;
#X connect 39 0 41 0;
#X connect 41 0 40 0;
#X connect 41 0 40 1;
#X restore 337 37 pd melo;
#X obj 478 303 synth-drums;
#X obj 641 507 audio-out;
#X obj 50 23 audio-in;
#X obj 48 249 audio-out;
#X obj 47 133 audio-delay 33;
#X obj 425 24 tgl 15 0 empty empty on/off 17 7 0 10 -262144 -1 -1 0
1;
#X msg 425 46 onoff \$1;
#X obj 604 167 seq-toggles 100;
#X obj 629 399 audio-disto;
#X floatatom 257 313 5 0 0 0 - - -;
#X msg 379 320 ms \$1;
#X floatatom 379 298 5 0 0 0 - - -;
#X obj 301 309 map 40 70 0 10;
#X obj 391 368 spigot-toggle;
#X obj 548 40 seq-toggles 200;
#X obj 560 104 seq-toggles 200;
#X obj 314 170 audio-out;
#X obj 315 98 audio-pitchshift -12;
#X obj 26 353 audio-freeze;
#X obj 47 104 *~ 1;
#X obj 149 55 audio-sampler;
#X obj 513 459 audio-decimate;
#X obj 459 532 synth-moog;
#X floatatom 361 276 5 0 0 0 - - -;
#N canvas 558 526 450 300 lpd8 0;
#X obj 134 97 notein;
#X obj 134 125 sel 40 41 42 43;
#X obj 41 206 f;
#X obj 76 205 + 1;
#X obj 44 234 % 2;
#X obj 40 265 sel 0;
#X obj 145 180 outlet;
#X obj 143 160 tgl 15 0 empty empty empty 17 7 0 10 -262144 -1 -1 0
1;
#X obj 196 183 outlet;
#X obj 194 163 tgl 15 0 empty empty empty 17 7 0 10 -262144 -1 -1 0
1;
#X obj 272 186 outlet;
#X obj 270 166 tgl 15 0 empty empty empty 17 7 0 10 -262144 -1 -1 0
1;
#X obj 332 187 outlet;
#X obj 330 167 tgl 15 0 empty empty empty 17 7 0 10 -262144 -1 -1 0
1;
#X connect 0 0 1 0;
#X connect 1 0 7 0;
#X connect 1 1 9 0;
#X connect 1 2 11 0;
#X connect 1 3 13 0;
#X connect 2 0 3 0;
#X connect 2 0 4 0;
#X connect 3 0 2 1;
#X connect 4 0 5 0;
#X connect 7 0 6 0;
#X connect 9 0 8 0;
#X connect 11 0 10 0;
#X connect 13 0 12 0;
#X restore 203 23 pd lpd8;
#X obj 280 66 count 8;
#X obj 270 93 sel 0;
#X obj 270 115 tgl 15 0 empty empty empty 17 7 0 10 -262144 -1 -1 0
1;
#X obj 473 199 spigot-toggle;
#X connect 7 0 6 0;
#X connect 7 1 6 1;
#X connect 10 4 18 0;
#X connect 10 4 7 0;
#X connect 10 4 31 0;
#X connect 12 0 29 0;
#X connect 12 0 30 0;
#X connect 12 1 19 0;
#X connect 14 0 13 0;
#X connect 14 0 28 0;
#X connect 14 1 13 1;
#X connect 15 0 16 0;
#X connect 16 0 17 0;
#X connect 16 0 24 0;
#X connect 16 0 25 0;
#X connect 17 0 10 2;
#X connect 18 0 11 0;
#X connect 18 0 11 1;
#X connect 19 0 22 0;
#X connect 20 0 23 0;
#X connect 21 0 20 0;
#X connect 22 0 21 0;
#X connect 23 0 7 1;
#X connect 24 0 10 0;
#X connect 25 0 10 1;
#X connect 25 0 38 0;
#X connect 27 0 26 0;
#X connect 27 0 26 1;
#X connect 28 0 5 0;
#X connect 28 0 5 1;
#X connect 29 0 14 0;
#X connect 29 0 27 0;
#X connect 30 0 29 0;
#X connect 31 0 11 0;
#X connect 31 0 11 1;
#X connect 31 0 18 0;
#X connect 31 0 32 1;
#X connect 32 0 11 0;
#X connect 32 0 11 1;
#X connect 33 0 22 4;
#X connect 34 0 30 1;
#X connect 35 0 36 0;
#X connect 36 0 37 0;
#X connect 37 0 30 1;
#X connect 38 0 35 0;
