#N canvas 64 82 973 756 10;
#X declare -path ../in -path ../out -path ../tools -path ../filters
-path ../lib;
#X obj -25 187 cnv 1 396 1 empty empty FILTERS 2 -6 1 12 -228856 -191407
0;
#N canvas 400 311 645 287 INIT 0;
#X obj 240 100 bng 10 250 50 0 empty empty SAVE-AS -45 6 0 9 -260097
-1 -1;
#X obj 103 200 namecanvas \$0-patch-name;
#X obj 100 160 s \$0-patch-name;
#X msg 100 131 menusaveas;
#X obj 220 130 savepanel;
#X obj 220 157 s UPDATE_PATCH;
#X obj 50 33 declare -path ../in -path ../out -path ../tools -path
../filters -path ../lib;
#X text 50 4 Always use this subpatch in the presets;
#X obj 101 101 cnv 8 80 8 empty empty INIT 5 5 0 10 -233017 -66577
0;
#X connect 0 0 3 0;
#X connect 0 0 4 0;
#X connect 3 0 2 0;
#X connect 4 0 5 0;
#X coords 0 -1 1 1 150 10 2 100 100;
#X restore 625 -2 pd INIT;
#X obj -25 354 cnv 1 800 1 empty empty OUT 2 -6 1 12 -228856 -191407
0;
#X obj -25 63 cnv 1 800 1 empty empty IN 2 -6 1 12 -228856 -191407
0;
#X obj -25 187 cnv 1 800 1 empty empty TOOLS 400 -6 1 12 -228856 -191407
0;
#X obj 612 440 pdp_scan~;
#X floatatom 573 368 5 0 0 0 - - -;
#X obj 573 392 phasor~ 30;
#X obj 689 438 pdp_scan~;
#X floatatom 688 387 5 0 0 0 - - -;
#X obj 612 462 +~;
#X obj 688 401 phasor~ 30.03;
#X obj 690 335 r finvid;
#X obj 8 90 metro 40;
#X obj -7 64 bng 15 250 50 0 empty empty empty 0 -6 0 8 -262144 -1
-1;
#X msg 251 114 record;
#X msg 15 63 stop;
#X floatatom 250 269 5 0 0 0 - - -;
#X floatatom 261 238 5 0 0 0 - - -;
#X msg 251 87 store \$1;
#X floatatom 251 62 5 0 0 0 - - -;
#X msg 299 113 stop;
#X obj 98 113 pdp_help_input;
#X msg 98 92 start;
#X msg 143 92 stop;
#X text 304 240 set playback position;
#X text 248 299 creation arg: loop size;
#X msg 250 214 loop \$1;
#X obj 233 215 tgl 15 0 empty empty empty 0 -6 0 8 -262144 -1 -1 0
1;
#X text 395 215 looping on/off;
#X msg 233 238 0;
#X msg 337 214 size \$1;
#X floatatom 304 215 5 0 0 0 - - -;
#X floatatom 183 320 5 0 0 0 - - -;
#X obj 129 319 pdp_gain;
#X obj 129 422 pdp_contrast;
#X obj 220 321 hsl 100 15 0 8 0 0 empty empty empty -2 -8 0 10 -260097
-1 -1 6626 1;
#X floatatom 213 423 5 0 0 0 - - -;
#X obj 250 424 hsl 100 15 0 2 0 0 empty empty empty -2 -8 0 10 -260097
-1 -1 0 1;
#X obj 129 466 pdp_randmix;
#X floatatom 202 467 5 0 0 0 - - -;
#X obj 240 468 hsl 128 15 0 1 0 0 empty empty empty -2 -6 0 8 -262144
-1 -1 6700 1;
#X obj 160 445 pdp_reg;
#X obj 230 445 metro 25;
#X obj 213 446 tgl 15 0 empty empty empty 17 7 0 10 -260097 -1 -1 0
1;
#X floatatom 284 446 5 0 0 0 - - -;
#X obj 87 503 s finvid;
#X obj 310 45 ctlin 1;
#X msg 252 137 record 10 25;
#X obj 419 320 ctlin 5;
#X obj 322 320 expr $f1/127*10;
#X obj 456 422 ctlin 6;
#X obj 359 422 expr $f1/127*2;
#X obj 475 467 ctlin 8;
#X obj 382 467 expr $f1/127*1;
#N canvas 9 232 932 371 padddddddddd 0;
#X obj 386 79 pack f f;
#X obj 386 108 route 40 41 42 43;
#X obj 386 130 route 36 37 38 39;
#X obj 386 58 stripnote;
#X obj 386 36 notein;
#X obj 344 240 outlet;
#X obj 344 213 bang;
#X obj 391 240 outlet;
#X obj 391 213 bang;
#X obj 439 240 outlet;
#X obj 439 213 bang;
#X obj 486 240 outlet;
#X obj 486 213 bang;
#X obj 543 237 outlet;
#X obj 543 210 bang;
#X obj 590 237 outlet;
#X obj 590 210 bang;
#X obj 638 237 outlet;
#X obj 638 210 bang;
#X obj 685 237 outlet;
#X obj 685 210 bang;
#X obj 765 157 noteout;
#X msg 764 121 39 100;
#X msg 765 90 39 0;
#X obj 682 147 tgl 15 0 empty empty empty 17 7 0 10 -262144 -1 -1 0
1;
#X obj 708 138 sel 0 1;
#X obj 627 133 tgl 15 0 empty empty empty 17 7 0 10 -262144 -1 -1 0
1;
#X obj 560 98 once;
#X obj 561 15 count 2;
#X obj 564 52 sel 1;
#X floatatom 627 51 5 0 0 0 - - -;
#X msg 634 97 0;
#X msg 668 98 1;
#X obj 162 45 notein;
#X floatatom 136 88 5 0 0 0 - - -;
#X floatatom 196 86 5 0 0 0 - - -;
#X floatatom 242 85 5 0 0 0 - - -;
#X connect 0 0 1 0;
#X connect 0 0 2 0;
#X connect 1 0 6 0;
#X connect 1 1 8 0;
#X connect 1 2 10 0;
#X connect 1 3 12 0;
#X connect 2 0 14 0;
#X connect 2 1 16 0;
#X connect 2 2 18 0;
#X connect 2 3 20 0;
#X connect 2 3 28 0;
#X connect 3 0 0 0;
#X connect 3 1 0 1;
#X connect 4 0 3 0;
#X connect 4 1 3 1;
#X connect 6 0 5 0;
#X connect 8 0 7 0;
#X connect 10 0 9 0;
#X connect 12 0 11 0;
#X connect 14 0 13 0;
#X connect 16 0 15 0;
#X connect 18 0 17 0;
#X connect 20 0 19 0;
#X connect 22 0 21 0;
#X connect 23 0 21 0;
#X connect 24 0 25 0;
#X connect 25 0 23 0;
#X connect 25 1 22 0;
#X connect 28 0 29 0;
#X connect 28 0 30 0;
#X connect 29 0 31 0;
#X connect 29 1 32 0;
#X connect 31 0 26 0;
#X connect 32 0 26 0;
#X connect 33 0 34 0;
#X connect 33 1 35 0;
#X connect 33 2 36 0;
#X restore 391 55 pd padddddddddd;
#X floatatom 309 345 5 0 0 0 - - -;
#X floatatom 168 345 5 0 0 0 - - -;
#X obj 119 346 pdp_mix;
#X msg 204 345 0.5;
#X obj 238 345 pdp_del 50;
#X obj 98 62 cnv 10 40 10 empty empty v.click 0 6 0 9 -258113 -66577
0;
#X obj -6 50 cnv 10 40 10 empty empty v.click 0 6 0 9 -258113 -66577
0;
#X obj 129 394 pdp_spigot;
#X obj 214 394 pdp_invert;
#X obj 196 395 tgl 15 0 empty empty empty 17 7 0 10 -262144 -1 -1 1
1;
#X obj 129 370 pdp_saturation;
#X floatatom 260 370 5 0 0 0 - - -;
#X obj 303 374 hsl 100 15 0 8 0 0 empty empty empty -2 -8 0 10 -260097
-1 -1 0 1;
#X obj 405 373 expr $f1/127*10;
#X obj 502 373 ctlin 7;
#X obj 172 563 tgl 15 0 empty empty empty 17 7 0 10 -261234 -1 -1 0
1;
#X obj 128 562 spigot;
#X obj 788 493 audio-cutoff;
#X obj 788 392 gamme;
#X msg 788 476 cutoff \$1;
#X obj 788 330 mouse;
#X obj 788 350 map 0 1 20 60;
#N canvas 1 48 450 300 random 0;
#X obj 490 114 random 100;
#X obj 561 125 random 100;
#X obj 580 173 pack f f;
#X msg 435 150 record \$1 \$2;
#X obj 466 63 inlet;
#X obj 414 212 outlet;
#X connect 0 0 2 0;
#X connect 1 0 2 1;
#X connect 2 0 3 0;
#X connect 3 0 5 0;
#X connect 4 0 0 0;
#X connect 4 0 1 0;
#X restore 276 161 pd random rec;
#X obj 677 123 synth-drums;
#X obj 138 679 pdp_help_output;
#X obj 612 483 hip~ 30;
#N canvas 1 48 450 300 ranger 0;
#X msg 90 204 collectgarbage;
#X obj 90 235 pdp_control;
#X msg 75 177 thread 1;
#X connect 0 0 1 0;
#X connect 2 0 1 0;
#X restore 778 1 pd ranger;
#N canvas 5 214 1115 772 pdpnoise 0;
#X obj 131 198 pdp_grey;
#X obj 131 234 pdp_reg;
#X floatatom 113 88 5 0 0 0 - - -;
#X floatatom 188 331 5 0 0 0 - - -;
#X obj 130 378 pdp_zrot;
#X floatatom 186 378 5 0 0 0 - - -;
#X obj 130 421 pdp_blur;
#X floatatom 186 421 5 0 0 0 - - -;
#X obj 131 181 pdp_noise;
#X obj 131 163 bng 15 250 50 0 empty empty empty 0 -6 0 8 -262144 -1
-1;
#N canvas 623 175 567 478 nlmap 0;
#X obj 89 138 pdp_affine;
#X msg 123 108 -1;
#X msg 156 108 1;
#X obj 92 161 pdp_mul;
#X obj 95 189 pdp_gain;
#X floatatom 234 159 5 0 0 0 - - -;
#X msg 259 119 3.73;
#X obj 100 272 pdp_affine;
#X msg 134 242 -1;
#X msg 167 242 1;
#X obj 103 295 pdp_mul;
#X obj 106 323 pdp_gain;
#X floatatom 168 299 5 0 0 0 - - -;
#X msg 185 271 3.73;
#X obj 254 54 inlet;
#X obj 79 55 inlet;
#X obj 98 405 outlet;
#X obj 164 60 loadbang;
#X obj 190 84 bng 15 250 50 0 empty empty empty 0 -6 0 8 -262144 -1
-1;
#X text 260 220 this computes f(f(image));
#X text 261 236 with f(x) = k*x*(1-x);
#X text 286 160 k;
#X text 260 253 the logistic map;
#X text 173 353 2 iterations are used to eliminate most of the high
frequency flickering;
#X connect 0 0 3 0;
#X connect 1 0 0 1;
#X connect 2 0 0 2;
#X connect 3 0 4 0;
#X connect 4 0 10 1;
#X connect 4 0 7 0;
#X connect 5 0 4 1;
#X connect 5 0 12 0;
#X connect 6 0 5 0;
#X connect 7 0 10 0;
#X connect 8 0 7 1;
#X connect 9 0 7 2;
#X connect 10 0 11 0;
#X connect 11 0 16 0;
#X connect 12 0 11 1;
#X connect 13 0 12 0;
#X connect 14 0 5 0;
#X connect 15 0 3 1;
#X connect 15 0 0 0;
#X connect 17 0 18 0;
#X connect 18 0 2 0;
#X connect 18 0 1 0;
#X connect 18 0 6 0;
#X connect 18 0 8 0;
#X connect 18 0 9 0;
#X restore 131 284 pd nlmap;
#X floatatom 187 283 5 0 0 0 - - -;
#X obj 131 215 pdp_mul;
#X obj 260 184 pdp_noise;
#X obj 260 163 bng 15 250 50 0 empty empty empty 0 -6 0 8 -262144 -1
-1;
#X obj 260 211 pdp_mul;
#X obj 83 482 pdp_saturation;
#X floatatom 172 482 5 0 0 0 - - -;
#X obj 68 117 metro 70;
#X msg 188 257 3.8;
#X msg 187 308 1.17;
#X msg 186 357 -2.33;
#X text 243 331 zoom;
#X text 251 359 rotate;
#X msg 114 66 40;
#X msg 148 66 500;
#X text 149 162 grey1;
#X obj 192 209 pdp_grey;
#X obj 192 163 bng 15 250 50 0 empty empty empty 0 -6 0 8 -262144 -1
-1;
#X text 211 162 grey2;
#X text 278 162 colour1;
#X obj 328 184 pdp_noise;
#X obj 328 163 bng 15 250 50 0 empty empty empty 0 -6 0 8 -262144 -1
-1;
#X text 344 162 colour2;
#X obj 642 274 pdp_scanxy~;
#X obj 395 554 s video;
#X obj 642 218 r video;
#N canvas 744 167 450 300 melo 0;
#X obj 129 172 outlet;
#N canvas 0 0 450 300 (subpatch) 0;
#X array seqq 100 float 3;
#A 0 0.257997 0.329426 3.11514 3.32942 3.40085 3.54371 3.68656 3.82942
3.97228 4.32942 5.11513 5.47228 5.82942 6.25799 6.97227 8.11513 7.18656
5.90084 3.40085 2.97228 2.82942 2.82942 2.68656 2.61513 2.18656 2.11513
1.90085 1.68656 1.82942 2.25799 2.82942 2.86513 2.97228 3.0437 3.11513
3.11513 3.18656 3.22228 3.25799 3.25799 3.18656 3.18656 3.11513 3.11513
3.11513 3.0437 3.0437 0.472283 0.472283 0.615139 0.757996 0.829425
0.829425 0.972282 1.04371 1.11514 1.258 1.18657 1.11514 0.900853 0.900853
0.900853 1.04371 1.18657 1.32942 1.258 1.18657 1.18657 1.04371 0.972282
0.972282 0.829425 0.757996 0.757996 1.258 1.258 1.40085 1.54371 1.68657
1.75799 1.75799 1.75799 1.75799 1.75799 1.75799 1.68657 1.68657 1.68657
1.68657 1.82942 2.04371 2.25799 2.47228 2.61514 2.82942 3.11513 3.32942
3.61513 3.40085 2.90085;
#X coords 0 10 99 0 200 140 1;
#X restore 214 39 graph;
#X obj 129 145 tabread seqq;
#X obj 129 99 metro 100;
#X obj 129 75 tgl 15 0 empty empty empty 17 7 0 10 -258113 -1 -1 1
1;
#X obj 129 119 count 100;
#X obj 217 184 hsl 200 15 0 127 0 0 empty empty empty -2 -8 0 10 -262144
-1 -1 3447 1;
#X obj 85 37 inlet;
#X connect 2 0 0 0;
#X connect 3 0 5 0;
#X connect 4 0 3 0;
#X connect 5 0 2 0;
#X connect 5 0 6 0;
#X connect 7 0 4 0;
#X restore 319 292 pd melo;
#X obj 655 253 osc~ 200;
#N canvas 375 395 679 324 meloline 0;
#X obj 47 134 outlet;
#N canvas 0 0 450 300 (subpatch) 0;
#X array gamme 100 float 3;
#A 0 3 3 5 7 8 10 7 3 5 7 7 556.629 556.629 549.493 549.493 542.357
542.357 535.222 542.357 542.357 535.222 506.679 485.272 471 435.322
421.05 399.643 385.371 371.1 342.557 321.15 278.336 285.471 292.607
306.879 314.014 321.15 335.421 335.421 363.964 363.964 363.964 385.371
399.643 406.779 421.05 428.186 442.457 456.729 463.864 478.136 485.271
492.407 499.543 499.543 506.679 506.679 492.407 463.864 449.593 435.321
413.914 399.643 363.964 356.828 335.421 314.014 299.743 299.743 299.743
314.014 321.15 328.285 356.828 363.964 371.1 385.371 399.643 406.778
406.778 413.914 428.186 435.321 442.457 442.457 442.457 378.235 278.335
278.335 292.607 306.878 321.15 342.557 371.1 406.778 563.764 556.629
549.493 535.221 185.571;
#X coords 0 1 99 1000 200 140 1;
#X restore 457 19 graph;
#X obj 47 40 metro 100;
#X obj 56 12 tgl 15 0 empty empty empty 17 7 0 10 -262144 -1 -1 0 1
;
#X msg 47 89 \$1 1000;
#X obj 47 111 line;
#X obj 47 67 random 500;
#X obj 119 24 inlet;
#X text 384 23 DONT TOUCH;
#X connect 2 0 6 0;
#X connect 3 0 2 0;
#X connect 4 0 5 0;
#X connect 5 0 0 0;
#X connect 6 0 4 0;
#X connect 7 0 3 0;
#X restore 481 205 pd meloline;
#N canvas 281 242 743 429 gamme 0;
#X obj 57 31 tgl 15 0 empty empty empty 17 7 0 10 -258113 -1 -1 0 1
;
#X obj 57 111 count 100;
#X floatatom 123 191 5 0 0 0 - - -;
#X obj 123 165 tabread gamme;
#X obj 123 81 random 5;
#X obj 123 235 mtof;
#X obj 123 258 outlet;
#X obj 123 214 + 40;
#X obj 57 50 metro 2000;
#X obj 145 137 s color;
#X obj 57 9 inlet;
#N canvas 0 0 450 300 (subpatch) 0;
#X array gamme 100 float 3;
#A 0 3 3 5 7 8 10 7 3 5 7 7 5.88571 5.11428 549.493 549.493 542.357
542.357 535.222 542.357 542.357 535.222 506.679 485.272 471 435.322
421.05 399.643 385.371 371.1 342.557 321.15 278.336 285.471 292.607
306.879 314.014 321.15 335.421 335.421 363.964 363.964 363.964 385.371
399.643 406.779 421.05 428.186 442.457 456.729 463.864 478.136 485.271
492.407 499.543 499.543 506.679 506.679 492.407 463.864 449.593 435.321
413.914 399.643 363.964 356.828 335.421 314.014 299.743 299.743 299.743
314.014 321.15 328.285 356.828 363.964 371.1 385.371 399.643 406.778
406.778 413.914 428.186 435.321 442.457 442.457 442.457 378.235 278.335
278.335 292.607 306.878 321.15 342.557 371.1 406.778 563.764 556.629
549.493 535.221 185.571;
#X coords 0 0 12 12 200 140 1;
#X restore 231 22 graph;
#X msg 231 165 \; gamme 1 3 5 7 8 10 7 3 5 7;
#X connect 0 0 8 0;
#X connect 2 0 7 0;
#X connect 3 0 2 0;
#X connect 4 0 3 0;
#X connect 4 0 9 0;
#X connect 5 0 6 0;
#X connect 7 0 5 0;
#X connect 8 0 1 0;
#X connect 8 0 4 0;
#X connect 10 0 0 0;
#X restore 977 267 pd gamme;
#X obj 725 291 osc~ 200;
#X obj 546 319 pdp_scan~;
#X obj 546 298 r video;
#X obj 489 303 osc~ 200;
#X obj 83 524 pdp_chrot;
#X floatatom 142 524 5 0 0 0 - - -;
#X text 177 523 < color;
#X msg 186 400 0;
#X obj 188 502 hsl 128 15 0 1 0 1 empty empty empty -2 -6 0 8 -262144
-1 -1 0 1;
#X obj 83 501 pdp_motion_phase;
#X obj 426 487 r color;
#X obj 426 508 range 0 5 0 360;
#X obj 83 441 pdp_zrot;
#X floatatom 136 441 5 0 0 0 - - -;
#X floatatom 170 441 5 0 0 0 - - -;
#X obj 32 198 pdp_v4l2;
#X obj 15 199 bng 15 250 50 0 empty empty empty 0 -6 0 8 -262144 -1
-1;
#X obj 224 422 hsl 128 15 0 1 0 1 empty empty empty -2 -6 0 8 -262144
-1 -1 0 1;
#X obj 705 311 min~;
#X msg 362 523 color \$1;
#X obj 433 524 tgl 15 0 empty empty empty 0 -6 0 8 -262144 -1 -1 0
1;
#X obj 83 462 pdp_blur;
#X obj 140 464 hsl 128 15 0 1 0 1 empty empty empty -2 -6 0 8 -262144
-1 -1 2800 1;
#X obj 790 314 osc~ 200;
#X obj 790 295 line;
#X floatatom 845 312 5 0 0 0 - - -;
#X msg 790 273 \$1 1000;
#X obj 790 253 pipe 200;
#X obj 790 229 * 4;
#X obj 192 184 pdp_plasma;
#X obj 140 613 pdp_dot;
#X floatatom 155 583 5 0 0 0 - - -;
#X floatatom 191 583 5 0 0 0 - - -;
#X floatatom 452 303 5 0 0 0 - - -;
#X obj 83 554 pdp_spigot;
#X obj 148 553 tgl 15 0 empty empty dot 0 -6 0 8 -4034 -1 -1 0 1;
#X msg 215 440 1;
#X obj 220 483 hsl 128 15 0 1 0 1 empty empty empty -2 -6 0 8 -262144
-1 -1 9000 1;
#X obj 977 246 tgl 15 0 empty empty empty 17 7 0 10 -258113 -1 -1 0
1;
#X floatatom 480 242 5 0 0 0 - - -;
#X obj 481 177 tgl 15 0 empty empty empty 17 7 0 10 -258113 -1 -1 0
1;
#X obj 327 257 tgl 15 0 empty empty empty 17 7 0 10 -258113 -1 -1 1
1;
#X obj 83 654 outlet;
#X obj 47 116 tgl 15 0 empty empty empty 17 7 0 10 -258113 -1 -1 0
1;
#X obj 231 63 inlet;
#X obj 576 409 audio-out;
#X obj 674 370 audio-out 0.001;
#X obj 705 66 gamme;
#X obj 564 7 seq-randomizer;
#X obj 678 164 mtof;
#X floatatom 619 175 5 0 0 0 - - -;
#X obj 577 87 map 0 1 20 60;
#X connect 0 0 12 1;
#X connect 0 0 12 0;
#X connect 1 0 10 0;
#X connect 2 0 18 1;
#X connect 3 0 4 1;
#X connect 4 0 6 0;
#X connect 5 0 4 2;
#X connect 6 0 1 1;
#X connect 7 0 6 1;
#X connect 8 0 0 0;
#X connect 9 0 8 0;
#X connect 10 0 4 0;
#X connect 10 0 53 0;
#X connect 11 0 10 1;
#X connect 12 0 1 0;
#X connect 13 0 15 1;
#X connect 13 0 15 0;
#X connect 14 0 13 0;
#X connect 15 0 1 0;
#X connect 16 0 50 0;
#X connect 17 0 16 1;
#X connect 19 0 11 0;
#X connect 20 0 3 0;
#X connect 21 0 5 0;
#X connect 24 0 2 0;
#X connect 25 0 2 0;
#X connect 27 0 1 0;
#X connect 28 0 70 0;
#X connect 31 0 1 0;
#X connect 32 0 31 0;
#X connect 34 0 59 0;
#X connect 34 0 87 0;
#X connect 34 0 87 1;
#X connect 36 0 34 0;
#X connect 37 0 3 0;
#X connect 38 0 34 0;
#X connect 39 0 80 0;
#X connect 40 0 41 0;
#X connect 40 0 38 0;
#X connect 40 0 69 0;
#X connect 41 0 59 1;
#X connect 42 0 86 0;
#X connect 42 0 86 1;
#X connect 43 0 42 0;
#X connect 44 0 42 0;
#X connect 45 0 35 0;
#X connect 45 0 75 0;
#X connect 46 0 45 1;
#X connect 48 0 7 0;
#X connect 49 0 50 1;
#X connect 50 0 45 0;
#X connect 51 0 52 0;
#X connect 52 0 46 0;
#X connect 53 0 62 0;
#X connect 54 0 53 1;
#X connect 55 0 53 2;
#X connect 56 0 1 0;
#X connect 57 0 56 0;
#X connect 58 0 7 0;
#X connect 59 0 87 1;
#X connect 61 0 60 0;
#X connect 62 0 16 0;
#X connect 63 0 62 1;
#X connect 64 0 87 0;
#X connect 64 0 87 1;
#X connect 65 0 64 0;
#X connect 65 0 66 0;
#X connect 67 0 65 0;
#X connect 68 0 67 0;
#X connect 69 0 68 0;
#X connect 70 0 27 0;
#X connect 71 0 83 0;
#X connect 72 0 71 1;
#X connect 73 0 71 2;
#X connect 74 0 44 0;
#X connect 75 0 83 0;
#X connect 75 1 71 0;
#X connect 76 0 75 1;
#X connect 77 0 53 1;
#X connect 78 0 17 0;
#X connect 79 0 40 0;
#X connect 80 0 44 0;
#X connect 81 0 39 0;
#X connect 82 0 37 0;
#X connect 84 0 18 0;
#X connect 85 0 1 0;
#X connect 88 0 90 0;
#X connect 89 0 92 0;
#X connect 90 0 38 0;
#X connect 90 0 69 0;
#X connect 90 0 41 0;
#X connect 90 0 91 0;
#X connect 92 0 88 0;
#X restore 38 312 pd pdpnoise;
#N canvas 2 71 450 300 spigot 0;
#X obj 9 126 spigot;
#X obj 100 100 tgl 15 0 empty empty empty 17 7 0 10 -257985 -1 -1 1
1;
#X obj -6 83 inlet;
#X obj 5 169 outlet;
#X connect 0 0 3 0;
#X connect 1 0 0 1;
#X connect 2 0 0 0;
#X coords 0 -1 1 1 15 15 2 100 100;
#X restore 38 451 pd spigot;
#N canvas 3 94 450 300 spigot 0;
#X obj 9 126 spigot;
#X obj 100 100 tgl 15 0 empty empty empty 17 7 0 10 -257985 -1 -1 0
1;
#X obj -6 83 inlet;
#X obj 5 169 outlet;
#X obj 109 40 inlet;
#X connect 0 0 3 0;
#X connect 1 0 0 1;
#X connect 2 0 0 0;
#X connect 4 0 1 0;
#X coords 0 -1 1 1 15 15 2 100 100;
#X restore 58 451 pd spigot;
#X obj 804 224 audio-out 1e-07;
#X obj 38 334 pdp_convert;
#N canvas 2 71 450 300 eclaire 0;
#X obj 280 603 noteout;
#X obj 197 593 tgl 15 0 empty empty empty 17 7 0 10 -262144 -1 -1 0
1;
#X obj 223 584 sel 0 1;
#X msg 280 536 36 0;
#X msg 279 567 36 100;
#X obj 178 474 inlet;
#X connect 1 0 2 0;
#X connect 2 0 3 0;
#X connect 2 1 4 0;
#X connect 3 0 0 0;
#X connect 4 0 0 0;
#X connect 5 0 1 0;
#X restore 172 581 pd eclaire;
#X obj 464 444 ctlin 4;
#X obj 344 445 expr $f1*10;
#X obj 511 22 autechre/autechre;
#N canvas 6 163 450 300 infos 0;
#X text 33 153 ==========LPD8 config;
#X text 33 174 Pad config \; 5: record \; 6: stop \; 7: record 10 25
\; 8: record random \; -------- \; 1 \; 2: reg randmix \; 3: invert
\; 4: mode feedback \;;
#X text 201 171 button config \; 1: image enregistres \; 2: \; 3: \;
4: time randmix \; 5: gain \; 6: contrast \; 7: saturation \; 8: random
mix grain \;;
#X restore 838 3 pd infos;
#X obj 204 116 cnv 10 40 10 empty empty v.click 0 6 0 9 -258113 -66577
0;
#N canvas 1 48 450 431 rand 0;
#X obj 156 134 random 100;
#X obj 156 83 inlet;
#X msg 129 284 \$1 100;
#X obj 227 362 outlet;
#X obj 129 317 line;
#X floatatom 120 378 5 0 0 0 - - -;
#X obj 156 178 t f f;
#X obj 183 211 f;
#X obj 129 235 f;
#X obj 121 87 bng 15 250 50 0 empty empty empty 17 7 0 10 -262144 -1
-1;
#X obj 74 198 del 1000;
#X connect 0 0 6 0;
#X connect 0 0 10 0;
#X connect 1 0 0 0;
#X connect 2 0 4 0;
#X connect 4 0 3 0;
#X connect 4 0 5 0;
#X connect 6 0 8 1;
#X connect 6 1 7 0;
#X connect 8 0 2 0;
#X connect 9 0 0 0;
#X connect 10 0 8 0;
#X restore 529 197 pd rand;
#X floatatom 571 298 5 0 0 0 - - -;
#X floatatom 647 370 5 0 0 0 - - -;
#N canvas 9 232 450 483 autechre 0;
#X obj 104 149 gamme;
#X obj 53 12 inlet;
#X obj 71 284 outlet;
#X obj 103 49 sel 0;
#X obj 104 100 random 20;
#X floatatom 162 235 5 0 0 0 - - -;
#X obj 277 152 gamme;
#X obj 300 296 outlet;
#X obj 276 52 sel 0;
#X floatatom 335 238 5 0 0 0 - - -;
#X obj 277 103 random 50;
#X obj 103 29 count 8;
#X obj 104 123 + 10;
#X obj 277 126 + 20;
#X obj 203 77 timer;
#X obj 203 108 metro;
#X obj 162 70 tgl 15 0 empty empty empty 17 7 0 10 -262144 -1 -1 1
1;
#X floatatom 255 85 5 0 0 0 - - -;
#X obj 276 32 count 2;
#X obj 200 45 bng 15 250 50 0 empty empty empty 17 7 0 10 -262144 -1
-1;
#X obj 230 53 bng 15 250 50 0 empty empty empty 17 7 0 10 -262144 -1
-1;
#X obj 84 255 mtof;
#X obj 287 259 mtof;
#X obj 159 10 loadbang;
#X connect 0 0 5 0;
#X connect 0 0 21 0;
#X connect 1 0 11 0;
#X connect 1 0 18 0;
#X connect 3 0 4 0;
#X connect 4 0 12 0;
#X connect 6 0 9 0;
#X connect 8 0 19 0;
#X connect 8 1 20 0;
#X connect 9 0 7 0;
#X connect 10 0 13 0;
#X connect 11 0 3 0;
#X connect 12 0 0 0;
#X connect 13 0 6 0;
#X connect 14 0 17 0;
#X connect 14 0 15 1;
#X connect 15 0 10 0;
#X connect 16 0 15 0;
#X connect 18 0 8 0;
#X connect 19 0 14 0;
#X connect 20 0 14 1;
#X connect 21 0 2 0;
#X connect 23 0 16 0;
#X restore 558 257 pd autechre bass;
#X obj 648 346 fade 1000;
#X obj 600 316 expr $f1*2.4;
#X obj 552 457 env~;
#N canvas 2 71 450 300 spigot 0;
#X obj 9 126 spigot;
#X obj 100 100 tgl 15 0 empty empty empty 17 7 0 10 -257985 -1 -1 0
1;
#X obj -6 83 inlet;
#X obj 5 169 outlet;
#X connect 0 0 3 0;
#X connect 1 0 0 1;
#X connect 2 0 0 0;
#X coords 0 -1 1 1 15 15 2 100 100;
#X restore 546 425 pd spigot;
#N canvas 263 252 450 300 conut 0;
#X obj -111 136 sel 0;
#X obj -213 74 f;
#X obj -200 11 inlet;
#X obj -204 187 outlet;
#X obj -153 189 outlet;
#X obj -101 186 outlet;
#X obj -50 188 outlet;
#X obj -50 137 sel 0;
#X obj -223 119 count 16;
#X obj -222 138 sel 0;
#X obj -168 118 count 16;
#X obj -167 138 sel 8;
#X obj -112 117 count 2;
#X obj -51 118 count 32;
#X obj -206 32 count 2;
#X obj -205 58 sel 0;
#X connect 0 0 5 0;
#X connect 1 0 8 0;
#X connect 1 0 10 0;
#X connect 1 0 12 0;
#X connect 1 0 13 0;
#X connect 2 0 14 0;
#X connect 7 0 6 0;
#X connect 8 0 9 0;
#X connect 9 0 3 0;
#X connect 10 0 11 0;
#X connect 11 0 4 0;
#X connect 12 0 0 0;
#X connect 13 0 7 0;
#X connect 14 0 15 0;
#X connect 15 0 1 0;
#X restore 741 91 pd conut;
#X obj 622 614 audio-sampler-transpose;
#X obj 697 580 ftom;
#X obj 808 196 audio-disto;
#X obj 128 299 pdp_loop 32;
#X obj 416 266 s tempooo;
#X floatatom 682 283 5 0 0 0 - - -;
#X obj 788 371 physics 2;
#X obj 690 310 map 0 127 20 60;
#X obj 529 643 audio-disto;
#N canvas 623 175 567 478 nlmap 0;
#X obj 89 138 pdp_affine;
#X msg 123 108 -1;
#X msg 156 108 1;
#X obj 92 161 pdp_mul;
#X obj 95 189 pdp_gain;
#X floatatom 234 159 5 0 0 0 - - -;
#X msg 259 119 3.73;
#X obj 100 272 pdp_affine;
#X msg 134 242 -1;
#X msg 167 242 1;
#X obj 103 295 pdp_mul;
#X obj 106 323 pdp_gain;
#X floatatom 168 299 5 0 0 0 - - -;
#X msg 185 271 3.73;
#X obj 254 54 inlet;
#X obj 79 55 inlet;
#X obj 98 405 outlet;
#X obj 164 60 loadbang;
#X obj 190 84 bng 15 250 50 0 empty empty empty 0 -6 0 8 -262144 -1
-1;
#X text 260 220 this computes f(f(image));
#X text 261 236 with f(x) = k*x*(1-x);
#X text 286 160 k;
#X text 260 253 the logistic map;
#X text 173 353 2 iterations are used to eliminate most of the high
frequency flickering;
#X connect 0 0 3 0;
#X connect 1 0 0 1;
#X connect 2 0 0 2;
#X connect 3 0 4 0;
#X connect 4 0 10 1;
#X connect 4 0 7 0;
#X connect 5 0 4 1;
#X connect 5 0 12 0;
#X connect 6 0 5 0;
#X connect 7 0 10 0;
#X connect 8 0 7 1;
#X connect 9 0 7 2;
#X connect 10 0 11 0;
#X connect 11 0 16 0;
#X connect 12 0 11 1;
#X connect 13 0 12 0;
#X connect 14 0 5 0;
#X connect 15 0 3 1;
#X connect 15 0 0 0;
#X connect 17 0 18 0;
#X connect 18 0 2 0;
#X connect 18 0 1 0;
#X connect 18 0 6 0;
#X connect 18 0 8 0;
#X connect 18 0 9 0;
#X restore 28 622 pd nlmap;
#X floatatom 84 621 5 0 0 0 - - -;
#X obj 188 636 pdp_zrot;
#X obj 278 537 map 0 127 0 3;
#N canvas 2 71 450 300 spigot 0;
#X obj 9 126 spigot;
#X obj 100 100 tgl 15 0 empty empty empty 17 7 0 10 -257985 -1 -1 1
1;
#X obj -6 83 inlet;
#X obj 5 169 outlet;
#X connect 0 0 3 0;
#X connect 1 0 0 1;
#X connect 2 0 0 0;
#X coords 0 -1 1 1 15 15 2 100 100;
#X restore 328 505 pd spigot;
#X obj 26 653 pdp_motion_phase;
#X obj 8 43 bangstart 0;
#X obj 98 72 bangstart 10;
#X obj 212 36 bangstart 30;
#X obj 62 395 bangstart 100;
#X msg 866 576 reso \$1;
#X obj 869 560 hsl 50 15 0 2 0 0 empty empty empty -2 -8 0 10 -262144
-1 -1 1200 1;
#N canvas 2 71 450 300 spigot 0;
#X obj 9 126 spigot;
#X obj 100 100 tgl 15 0 empty empty empty 17 7 0 10 -257985 -1 -1 0
1;
#X obj -6 83 inlet;
#X obj 5 169 outlet;
#X connect 0 0 3 0;
#X connect 1 0 0 1;
#X connect 2 0 0 0;
#X coords 0 -1 1 1 15 15 2 100 100;
#X restore 462 143 pd spigot;
#X obj 371 500 audio-delay 33;
#X obj 280 623 map 0 3 0 180;
#N canvas 413 202 459 559 music+ 1;
#X obj 102 8 inlet;
#X obj 95 296 audio-attackdecay;
#X obj 316 60 inlet;
#X obj 95 64 gamme;
#X obj 94 44 map 0 127 20 40;
#X obj 95 167 fade 100;
#X obj 94 232 synth;
#X obj 280 221 seq-taptempo;
#X floatatom 368 278 5 0 0 0 - - -;
#X obj 244 292 metro;
#X obj 226 265 tgl 15 0 empty empty empty 17 7 0 10 -262144 -1 -1 1
1;
#X floatatom 348 304 5 0 0 0 - - -;
#X obj 228 163 count 8;
#X obj 227 186 sel 0 1;
#X floatatom 283 130 5 0 0 0 - - -;
#X obj 324 309 * 3;
#X obj 78 341 audio-delay;
#X msg 343 356 ms \$1;
#X obj 350 333 / 3;
#X msg 20 276 cutoff \$1;
#X obj 32 216 fade 500;
#X obj 94 199 - 24;
#X floatatom 55 94 5 0 0 0 - - -;
#X msg 35 67 34;
#X obj 80 455 audio-out;
#X connect 0 0 4 0;
#X connect 1 0 16 0;
#X connect 1 0 24 0;
#X connect 1 0 24 1;
#X connect 2 0 7 0;
#X connect 2 0 12 0;
#X connect 3 0 5 0;
#X connect 4 0 3 0;
#X connect 5 0 19 0;
#X connect 5 0 21 0;
#X connect 6 0 1 0;
#X connect 7 1 8 0;
#X connect 8 0 15 0;
#X connect 8 0 18 0;
#X connect 9 0 1 1;
#X connect 10 0 9 0;
#X connect 11 0 15 1;
#X connect 12 0 13 0;
#X connect 13 0 10 0;
#X connect 13 1 10 0;
#X connect 14 0 12 1;
#X connect 15 0 9 1;
#X connect 16 0 24 0;
#X connect 16 1 24 1;
#X connect 17 0 16 1;
#X connect 18 0 17 0;
#X connect 21 0 6 0;
#X connect 22 0 3 0;
#X connect 23 0 3 0;
#X restore 688 257 pd music+;
#N canvas 2 71 450 300 spigot 0;
#X obj 9 126 spigot;
#X obj 100 100 tgl 15 0 empty empty empty 17 7 0 10 -257985 -1 -1 1
1;
#X obj -6 83 inlet;
#X obj 5 169 outlet;
#X connect 0 0 3 0;
#X connect 1 0 0 1;
#X connect 2 0 0 0;
#X coords 0 -1 1 1 15 15 2 100 100;
#X restore 209 600 pd spigot;
#N canvas 2 71 450 300 spigot 0;
#X obj 9 126 spigot;
#X obj 100 100 tgl 15 0 empty empty empty 17 7 0 10 -257985 -1 -1 1
1;
#X obj -6 83 inlet;
#X obj 5 169 outlet;
#X connect 0 0 3 0;
#X connect 1 0 0 1;
#X connect 2 0 0 0;
#X coords 0 -1 1 1 15 15 2 100 100;
#X restore 233 600 pd spigot;
#X floatatom 208 617 5 0 0 0 - - -;
#X floatatom 234 619 5 0 0 0 - - -;
#X obj 612 522 audio-out;
#X obj 370 605 audio-out;
#X obj 787 558 audio-out;
#X obj 613 124 audio-out;
#X obj 462 656 audio-out;
#X msg 214 513 1;
#X obj 211 542 fade 5000;
#N canvas 2 71 450 300 spigot 0;
#X obj 9 126 spigot;
#X obj 100 100 tgl 15 0 empty empty empty 17 7 0 10 -257985 -1 -1 1
1;
#X obj -6 83 inlet;
#X obj 5 169 outlet;
#X connect 0 0 3 0;
#X connect 1 0 0 1;
#X connect 2 0 0 0;
#X coords 0 -1 1 1 15 15 2 100 100;
#X restore 142 656 pd spigot;
#X floatatom 326 589 5 0 0 0 - - -;
#X connect 5 0 10 0;
#X connect 5 0 100 0;
#X connect 6 0 7 0;
#X connect 7 0 5 0;
#X connect 8 0 10 1;
#X connect 9 0 11 0;
#X connect 10 0 81 0;
#X connect 11 0 8 0;
#X connect 12 0 5 0;
#X connect 12 0 8 0;
#X connect 13 0 106 0;
#X connect 14 0 13 0;
#X connect 15 0 106 0;
#X connect 16 0 13 0;
#X connect 17 0 106 1;
#X connect 18 0 106 0;
#X connect 19 0 106 0;
#X connect 20 0 19 0;
#X connect 21 0 106 0;
#X connect 22 0 106 0;
#X connect 22 1 83 0;
#X connect 23 0 22 0;
#X connect 24 0 22 0;
#X connect 27 0 106 0;
#X connect 28 0 27 0;
#X connect 30 0 18 0;
#X connect 31 0 106 0;
#X connect 32 0 31 0;
#X connect 33 0 34 1;
#X connect 34 0 60 0;
#X connect 34 0 58 0;
#X connect 35 0 42 1;
#X connect 35 0 85 0;
#X connect 36 0 33 0;
#X connect 37 0 35 1;
#X connect 38 0 37 0;
#X connect 39 0 46 0;
#X connect 39 0 72 0;
#X connect 39 0 114 0;
#X connect 40 0 39 2;
#X connect 41 0 40 0;
#X connect 42 0 39 1;
#X connect 43 0 42 0;
#X connect 44 0 43 0;
#X connect 45 0 43 1;
#X connect 47 0 20 0;
#X connect 48 0 106 0;
#X connect 49 0 50 0;
#X connect 50 0 36 0;
#X connect 51 0 52 0;
#X connect 52 0 38 0;
#X connect 53 0 54 0;
#X connect 54 0 41 0;
#X connect 55 0 15 0;
#X connect 55 1 21 0;
#X connect 55 2 48 0;
#X connect 55 3 78 0;
#X connect 55 5 44 0;
#X connect 55 6 65 0;
#X connect 55 7 71 0;
#X connect 56 0 60 1;
#X connect 57 0 58 2;
#X connect 58 0 66 0;
#X connect 59 0 57 0;
#X connect 60 0 58 1;
#X connect 63 0 35 0;
#X connect 63 1 64 0;
#X connect 64 0 35 0;
#X connect 65 0 63 1;
#X connect 66 0 63 0;
#X connect 67 0 66 1;
#X connect 68 0 67 0;
#X connect 69 0 68 0;
#X connect 70 0 69 0;
#X connect 71 0 72 1;
#X connect 71 0 88 0;
#X connect 72 0 106 0;
#X connect 73 0 134 0;
#X connect 73 0 134 1;
#X connect 74 0 75 0;
#X connect 75 0 73 1;
#X connect 76 0 77 0;
#X connect 77 0 109 0;
#X connect 78 0 106 0;
#X connect 79 4 105 0;
#X connect 81 0 73 0;
#X connect 81 0 132 0;
#X connect 81 0 132 1;
#X connect 83 0 87 0;
#X connect 84 0 39 0;
#X connect 85 0 39 0;
#X connect 87 0 84 0;
#X connect 89 0 90 0;
#X connect 90 0 45 0;
#X connect 91 0 94 0;
#X connect 91 1 124 0;
#X connect 91 4 135 0;
#X connect 91 5 135 1;
#X connect 94 0 116 0;
#X connect 95 0 6 0;
#X connect 95 0 99 0;
#X connect 96 0 9 0;
#X connect 97 0 95 0;
#X connect 97 1 108 0;
#X connect 98 0 96 0;
#X connect 99 0 98 0;
#X connect 100 0 101 0;
#X connect 100 0 103 1;
#X connect 101 0 95 0;
#X connect 102 0 79 0;
#X connect 102 0 97 0;
#X connect 102 1 79 1;
#X connect 102 2 79 2;
#X connect 102 2 94 0;
#X connect 102 3 79 3;
#X connect 103 0 132 0;
#X connect 103 0 132 1;
#X connect 104 0 103 1;
#X connect 105 0 86 0;
#X connect 105 0 86 1;
#X connect 106 0 34 0;
#X connect 106 1 102 0;
#X connect 106 1 107 0;
#X connect 108 0 110 0;
#X connect 109 0 74 0;
#X connect 110 0 109 0;
#X connect 111 0 136 0;
#X connect 111 0 136 1;
#X connect 113 0 112 1;
#X connect 114 0 80 0;
#X connect 114 0 139 0;
#X connect 115 0 117 1;
#X connect 115 0 126 0;
#X connect 115 0 128 0;
#X connect 116 0 115 0;
#X connect 117 0 80 0;
#X connect 118 0 13 0;
#X connect 119 0 23 0;
#X connect 120 0 15 0;
#X connect 121 0 85 1;
#X connect 122 0 73 1;
#X connect 123 0 122 0;
#X connect 124 0 65 0;
#X connect 125 0 133 0;
#X connect 125 1 133 1;
#X connect 126 0 129 0;
#X connect 128 0 130 0;
#X connect 129 0 131 0;
#X connect 130 0 114 1;
#X connect 131 0 114 2;
#X connect 132 0 111 0;
#X connect 132 0 125 0;
#X connect 132 1 125 0;
#X connect 134 0 125 0;
#X connect 135 0 125 0;
#X connect 137 0 138 0;
#X connect 138 0 130 0;
#X connect 138 0 131 0;
#X connect 139 0 117 0;
#X connect 140 0 126 4;
