#N canvas 48 56 538 530 10;
#X declare -path ../../abstractions/in -path ../../abstractions/out
-path ../../abstractions/tools -path ../../abstractions/filters -path
../../abstractions/fx-video -path ../../abstractions/fx-audio -path
../../abstractions/master;
#X declare -path abstractions/in -path abstractions/out -path abstractions/tools
-path abstractions/filters -path abstractions/fx-video -path abstractions/fx-audio
-path abstractions/master;
#X declare -lib mrpeach;
#X obj 123 159 udpsend;
#X obj 123 76 packOSC;
#X obj 123 110 spigot;
#X obj 123 203 tgl 15 0 empty empty empty 17 7 0 10 -262144 -1 -1 0
1;
#X obj 39 45 inlet;
#X obj 123 45 inlet;
#X text 39 24 connection;
#X text 122 23 value in;
#N canvas 362 156 563 434 INIT 0;
#X obj 101 101 cnv 8 48 8 empty empty INCLUDE 2 4 0 10 -233017 -66577
0;
#X obj 102 261 declare -path ../../abstractions/in -path ../../abstractions/out
-path ../../abstractions/tools -path ../../abstractions/filters -path
../../abstractions/fx-video -path ../../abstractions/fx-audio -path
../../abstractions/master;
#X text 100 240 Use for standalone :;
#X text 100 140 Use with the main.pd :;
#X text 97 25 Import paths to find abstractions \; Always use it in
the examples patchs.;
#X obj 102 162 declare -path abstractions/in -path abstractions/out
-path abstractions/tools -path abstractions/filters -path abstractions/fx-video
-path abstractions/fx-audio -path abstractions/master;
#X coords 0 -1 1 1 50 10 2 100 100;
#X restore 424 24 pd INIT;
#X obj 385 45 import mrpeach;
#X connect 0 0 3 0;
#X connect 1 0 2 0;
#X connect 2 0 0 0;
#X connect 3 0 2 1;
#X connect 4 0 0 0;
#X connect 5 0 1 0;
