#N canvas 215 0 814 660 10;
#X declare -path ../../abstractions/in -path ../../abstractions/out
-path ../../abstractions/tools -path ../../abstractions/filters -path
../../abstractions/fx-video -path ../../abstractions/fx-audio -path
../../abstractions/master;
#X declare -path abstractions/in -path abstractions/out -path abstractions/tools
-path abstractions/filters -path abstractions/fx-video -path abstractions/fx-audio
-path abstractions/master;
#X obj 17 257 cnv 1 396 1 empty empty FILTERS 2 -6 1 12 -228856 -191407
0;
#X obj 17 424 cnv 1 800 1 empty empty OUT 2 -6 1 12 -228856 -191407
0;
#X obj 17 85 cnv 1 800 1 empty empty IN 2 -6 1 12 -228856 -191407 0
;
#X obj 17 257 cnv 1 800 1 empty empty TOOLS 400 -6 1 12 -228856 -191407
0;
#X obj 445 493 arduino-out;
#X obj 623 442 loadbang;
#X text 642 520 <= sorties (numériques \; ou analogiques);
#N canvas 362 156 563 434 INIT 0;
#X obj 101 101 cnv 8 48 8 empty empty INCLUDE 2 4 0 10 -233017 -66577
0;
#X obj 102 261 declare -path ../../abstractions/in -path ../../abstractions/out
-path ../../abstractions/tools -path ../../abstractions/filters -path
../../abstractions/fx-video -path ../../abstractions/fx-audio -path
../../abstractions/master;
#X text 100 240 Use for standalone :;
#X text 100 140 Use with the main.pd :;
#X text 97 25 Import paths to find abstractions \; Always use it in
the examples patchs.;
#X obj 102 162 declare -path abstractions/in -path abstractions/out
-path abstractions/tools -path abstractions/filters -path abstractions/fx-video
-path abstractions/fx-audio -path abstractions/master;
#X coords 0 -1 1 1 50 10 2 100 100;
#X restore 767 61 pd INIT;
#X obj 545 345 iter;
#X obj 556 408 print;
#X msg 602 362 symbol digital;
#X obj 540 381 list append;
#X obj 545 453 tgl 15 0 empty empty empty 17 7 0 10 -262144 -1 -1 0
1;
#X obj 496 451 tgl 15 0 empty empty empty 17 7 0 10 -262144 -1 -1 0
1;
#X obj 477 451 tgl 15 0 empty empty empty 17 7 0 10 -262144 -1 -1 0
1;
#X obj 560 455 tgl 15 0 empty empty empty 17 7 0 10 -262144 -1 -1 0
1;
#X msg 542 320 1 2 3 4 5 6 7 8 9 10 11 12 13;
#X msg 489 258 3 5 6 9 10 11;
#X obj 534 426 tgl 15 0 empty empty empty 17 7 0 10 -262144 -1 -1 0
1;
#X obj 443 418 tgl 15 0 empty empty empty 17 7 0 10 -262144 -1 -1 0
1;
#X connect 5 0 10 0;
#X connect 8 0 11 0;
#X connect 10 0 11 1;
#X connect 11 0 9 0;
#X connect 11 0 4 15;
#X connect 12 0 4 9;
#X connect 13 0 4 5;
#X connect 14 0 4 4;
#X connect 15 0 4 10;
#X connect 16 0 8 0;
#X connect 17 0 8 0;
#X connect 18 0 4 8;
#X connect 19 0 4 2;
