#N canvas 425 94 834 675 10;
#X obj 149 484 initbang;
#X obj 87 43 ../util/actionneurActivation \$1 \$2;
#X obj 344 139 route 0 1 2 3 4 5;
#X obj 344 117 s2l;
#X obj 564 185 nbx 8 40 -1e+37 1e+37 0 0 empty empty empty 0 -8 0 35
-262144 -1 -1 0 256;
#X obj 564 225 nbx 8 40 -1e+37 1e+37 0 0 empty empty empty 0 -8 0 35
-262144 -1 -1 0 256;
#X obj 564 265 nbx 8 40 -1e+37 1e+37 0 0 empty empty empty 0 -8 0 35
-262144 -1 -1 0 256;
#X text 465 140 <- 6 formes imprimées (x \, y \, angle);
#X obj 564 163 unpack f f f;
#X obj 126 155 s \$0gemhead;
#X obj 20 192 r \$0gemhead;
#X obj 23 277 r \$0gemhead;
#X obj 19 360 r \$0gemhead;
#X obj 18 450 r \$0gemhead;
#X obj 329 233 r \$0gemhead;
#X obj 265 367 r \$0gemhead;
#X obj 20 407 sphere 0.3;
#X obj 20 240 cube 0.3;
#X obj 23 323 circle 0.3;
#X obj 330 281 triangle 0.3;
#X obj 265 417 teapot 0.3;
#X obj 18 501 model;
#X obj 227 546 bng 15 250 50 0 empty empty empty 0 -6 0 8 -262144 -1
-1;
#X obj 227 564 openpanel;
#X msg 149 550 open \$1;
#X obj 23 302 fiducial 1 0.5 0.3 1;
#X msg 149 511 symbol ../../../media/defaut/3D/BAOBAB1.obj;
#X obj 20 217 fiducial 0 1 0 1;
#X obj 19 385 fiducial 2 0.5 0.5 0.2;
#X obj 18 475 fiducial 3 0 0.3 1;
#X obj 265 392 fiducial 5 0 1 0;
#X obj 329 258 fiducial 4 0 1 1;
#X obj 126 113 initbang;
#X msg 126 134 0;
#X obj 87 110 sel 0;
#X connect 0 0 26 0;
#X connect 1 0 34 0;
#X connect 1 7 24 0;
#X connect 1 10 3 0;
#X connect 2 0 27 1;
#X connect 2 1 25 1;
#X connect 2 2 28 1;
#X connect 2 3 29 1;
#X connect 2 4 31 1;
#X connect 2 5 30 1;
#X connect 3 0 2 0;
#X connect 8 0 4 0;
#X connect 8 1 5 0;
#X connect 8 2 6 0;
#X connect 10 0 27 0;
#X connect 11 0 25 0;
#X connect 12 0 28 0;
#X connect 13 0 29 0;
#X connect 14 0 31 0;
#X connect 15 0 30 0;
#X connect 22 0 23 0;
#X connect 23 0 24 0;
#X connect 24 0 21 0;
#X connect 25 0 18 0;
#X connect 26 0 24 0;
#X connect 27 0 17 0;
#X connect 28 0 16 0;
#X connect 29 0 21 0;
#X connect 30 0 20 0;
#X connect 31 0 19 0;
#X connect 32 0 33 0;
#X connect 33 0 9 0;
#X connect 34 0 33 0;
