#N canvas 431 89 768 823 10;
#X declare -path ../in -path ../out -path ../tools -path ../filters
-path ../lib;
#N canvas 400 311 645 287 INIT 0;
#X obj 240 100 bng 10 250 50 0 empty empty SAVE-AS -45 6 0 9 -260097
-1 -1;
#X obj 103 200 namecanvas \$0-patch-name;
#X obj 100 160 s \$0-patch-name;
#X msg 100 131 menusaveas;
#X obj 220 130 savepanel;
#X obj 220 157 s UPDATE_PATCH;
#X obj 50 33 declare -path ../in -path ../out -path ../tools -path
../filters -path ../lib;
#X text 50 4 Always use this subpatch in the presets;
#X obj 101 101 cnv 8 80 8 empty empty INIT 5 5 0 10 -233017 -66577
0;
#X connect 0 0 3 0;
#X connect 0 0 4 0;
#X connect 3 0 2 0;
#X connect 4 0 5 0;
#X coords 0 -1 1 1 150 10 2 100 100;
#X restore 625 -2 pd INIT;
#X obj 8 676 arduino-out;
#N canvas 365 190 779 687 STEPPER_ 0;
#X obj 159 513 sel 0 1 2 3;
#X msg 99 544 0 0 0 0;
#X obj 159 578 unpack f f f f;
#X obj 125 349 f;
#X obj 155 349 + 1;
#X obj 181 412 sel;
#X msg 181 444 0;
#X obj 99 259 tgl 15 0 empty empty empty 17 7 0 10 -262144 -1 -1 0
1;
#X obj 99 499 sel 0;
#X obj 196 365 - 1;
#X msg 140 224 0;
#X msg 99 221 1;
#X obj 125 378 t f f;
#X obj 196 340 abs;
#X obj 285 511 sel 3 2 1 0;
#X obj 179 160 t b f f b;
#X obj 252 452 gate 2;
#X obj 252 415 + 1;
#X obj 140 72 inlet float;
#X obj 158 617 outlet;
#X obj 201 617 outlet;
#X obj 245 617 outlet;
#X obj 288 617 outlet;
#X text 146 46 nb of steps;
#X text 327 270 4 steps ?;
#X obj 293 269 * 4;
#X text 303 486 rotation direction;
#X obj 285 409 mod 4;
#X obj 99 522 del 1;
#X obj 125 290 metro 20;
#X obj 318 105 inlet time;
#X obj 251 378 < 0;
#X obj 496 616 outlet enable;
#X obj 486 538 f;
#X obj 523 539 + 1;
#X obj 486 559 % 2;
#X obj 486 581 sel 1;
#X msg 159 541 1 0 1 0;
#X msg 211 542 0 1 1 0;
#X msg 266 542 0 1 0 1;
#X msg 321 542 1 0 0 1;
#X obj 140 107 route 0;
#X connect 0 0 37 0;
#X connect 0 1 38 0;
#X connect 0 2 39 0;
#X connect 0 3 40 0;
#X connect 1 0 2 0;
#X connect 2 0 19 0;
#X connect 2 1 20 0;
#X connect 2 2 21 0;
#X connect 2 3 22 0;
#X connect 3 0 4 0;
#X connect 3 0 12 0;
#X connect 4 0 3 1;
#X connect 5 0 6 0;
#X connect 6 0 7 0;
#X connect 7 0 8 0;
#X connect 7 0 29 0;
#X connect 8 0 28 0;
#X connect 9 0 5 1;
#X connect 10 0 7 0;
#X connect 10 0 3 1;
#X connect 11 0 7 0;
#X connect 12 0 27 0;
#X connect 12 1 5 0;
#X connect 13 0 9 0;
#X connect 14 0 37 0;
#X connect 14 1 38 0;
#X connect 14 2 39 0;
#X connect 14 3 40 0;
#X connect 15 0 11 0;
#X connect 15 1 13 0;
#X connect 15 2 31 0;
#X connect 15 3 10 0;
#X connect 16 0 0 0;
#X connect 16 1 14 0;
#X connect 17 0 16 0;
#X connect 18 0 41 0;
#X connect 27 0 16 1;
#X connect 28 0 1 0;
#X connect 28 0 33 0;
#X connect 29 0 3 0;
#X connect 30 0 29 1;
#X connect 31 0 17 0;
#X connect 33 0 34 0;
#X connect 33 0 35 0;
#X connect 34 0 33 1;
#X connect 35 0 36 0;
#X connect 36 0 32 0;
#X connect 37 0 2 0;
#X connect 38 0 2 0;
#X connect 39 0 2 0;
#X connect 40 0 2 0;
#X connect 41 1 15 0;
#X restore 211 504 pd STEPPER_;
#N canvas 365 190 779 687 STEPPER_ 0;
#X obj 159 513 sel 0 1 2 3;
#X msg 99 544 0 0 0 0;
#X obj 159 578 unpack f f f f;
#X obj 125 349 f;
#X obj 155 349 + 1;
#X obj 181 412 sel;
#X msg 181 444 0;
#X obj 99 259 tgl 15 0 empty empty empty 17 7 0 10 -262144 -1 -1 0
1;
#X obj 99 499 sel 0;
#X obj 196 365 - 1;
#X msg 140 224 0;
#X msg 99 221 1;
#X obj 125 378 t f f;
#X obj 196 340 abs;
#X obj 285 511 sel 3 2 1 0;
#X obj 179 160 t b f f b;
#X obj 252 452 gate 2;
#X obj 252 415 + 1;
#X obj 140 61 inlet float;
#X obj 158 617 outlet;
#X obj 201 617 outlet;
#X obj 245 617 outlet;
#X obj 288 617 outlet;
#X text 146 35 nb of steps;
#X text 327 270 4 steps ?;
#X obj 293 269 * 4;
#X text 303 486 rotation direction;
#X obj 285 409 mod 4;
#X msg 299 48 10;
#X obj 99 522 del 1;
#X obj 125 290 metro 20;
#X obj 318 105 inlet time;
#X obj 251 378 < 0;
#X obj 496 616 outlet enable;
#X obj 486 538 f;
#X obj 523 539 + 1;
#X obj 486 559 % 2;
#X obj 486 581 sel 1;
#X msg 159 541 1 0 1 0;
#X msg 211 542 0 1 1 0;
#X msg 266 542 0 1 0 1;
#X msg 321 542 1 0 0 1;
#X obj 140 111 route 0;
#X msg 369 50 0;
#X connect 0 0 38 0;
#X connect 0 1 39 0;
#X connect 0 2 40 0;
#X connect 0 3 41 0;
#X connect 1 0 2 0;
#X connect 2 0 19 0;
#X connect 2 1 20 0;
#X connect 2 2 21 0;
#X connect 2 3 22 0;
#X connect 3 0 4 0;
#X connect 3 0 12 0;
#X connect 4 0 3 1;
#X connect 5 0 6 0;
#X connect 6 0 7 0;
#X connect 7 0 8 0;
#X connect 7 0 30 0;
#X connect 8 0 29 0;
#X connect 9 0 5 1;
#X connect 10 0 7 0;
#X connect 10 0 3 1;
#X connect 11 0 7 0;
#X connect 12 0 27 0;
#X connect 12 1 5 0;
#X connect 13 0 9 0;
#X connect 14 0 38 0;
#X connect 14 1 39 0;
#X connect 14 2 40 0;
#X connect 14 3 41 0;
#X connect 15 0 11 0;
#X connect 15 1 13 0;
#X connect 15 2 32 0;
#X connect 15 3 10 0;
#X connect 16 0 0 0;
#X connect 16 1 14 0;
#X connect 17 0 16 0;
#X connect 18 0 42 0;
#X connect 27 0 16 1;
#X connect 29 0 1 0;
#X connect 29 0 34 0;
#X connect 30 0 3 0;
#X connect 31 0 30 1;
#X connect 32 0 17 0;
#X connect 34 0 35 0;
#X connect 34 0 36 0;
#X connect 35 0 34 1;
#X connect 36 0 37 0;
#X connect 37 0 33 0;
#X connect 38 0 2 0;
#X connect 39 0 2 0;
#X connect 40 0 2 0;
#X connect 41 0 2 0;
#X connect 42 1 15 0;
#X restore 30 507 pd STEPPER_;
#X msg 573 609 3 4 5 6 9 10 11 12;
#X obj 573 634 iter;
#X msg 615 679 symbol pwm;
#X obj 573 659 list;
#X obj 574 568 loadbang;
#X msg 615 656 symbol digital;
#X obj 573 588 t b b;
#X obj 206 238 bng 15 250 50 0 empty empty empty 17 7 0 10 -262144
-1 -1;
#X obj 206 268 bng 15 250 50 0 empty empty empty 17 7 0 10 -262144
-1 -1;
#X obj 190 253 bng 15 250 50 0 empty empty empty 17 7 0 10 -262144
-1 -1;
#X obj 222 253 bng 15 250 50 0 empty empty empty 17 7 0 10 -262144
-1 -1;
#X obj 192 272 bng 10 250 50 0 empty empty empty 17 7 0 10 -262144
-1 -1;
#X obj 192 239 bng 10 250 50 0 empty empty empty 17 7 0 10 -262144
-1 -1;
#X obj 225 272 bng 10 250 50 0 empty empty empty 17 7 0 10 -262144
-1 -1;
#X obj 225 239 bng 10 250 50 0 empty empty empty 17 7 0 10 -262144
-1 -1;
#X text 440 310 n s e w;
#X obj 191 180 route n s e w;
#X msg 466 50 n w s e;
#X obj 131 411 unpack f f f f;
#X text 250 408 step step speed speed;
#X msg 57 316 10 -10 20 20;
#X msg 173 314 -10 10 20 20;
#X msg 267 314 -10 -10 20 20;
#X msg 368 313 10 10 20 20;
#X text 306 375 nw se;
#N canvas 656 262 450 300 fleche 0;
#X obj 98 73 key;
#X obj 87 137 sel 56 50 54 52;
#X msg 84 167 n;
#X msg 114 168 s;
#X msg 145 167 e;
#X msg 175 167 w;
#X obj 86 236 outlet;
#X floatatom 52 154 5 0 0 0 - - -;
#X obj 233 137 sel 55 57 49 51;
#X msg 225 167 nw;
#X msg 255 168 ne;
#X msg 286 167 sw;
#X msg 316 167 se;
#X obj 114 115 spigot;
#X obj 167 103 tgl 15 0 empty empty empty 17 7 0 10 -257985 -1 -1 0
1;
#X connect 0 0 13 0;
#X connect 1 0 2 0;
#X connect 1 1 3 0;
#X connect 1 2 4 0;
#X connect 1 3 5 0;
#X connect 2 0 6 0;
#X connect 3 0 6 0;
#X connect 4 0 6 0;
#X connect 5 0 6 0;
#X connect 8 0 9 0;
#X connect 8 1 10 0;
#X connect 8 2 11 0;
#X connect 8 3 12 0;
#X connect 9 0 6 0;
#X connect 10 0 6 0;
#X connect 11 0 6 0;
#X connect 12 0 6 0;
#X connect 13 0 1 0;
#X connect 13 0 8 0;
#X connect 14 0 13 1;
#X coords 0 -1 1 1 85 20 1 100 100;
#X restore 191 64 pd fleche;
#X obj 211 477 * 1;
#X obj 31 477 * 1;
#X floatatom 448 461 5 0 0 0 step_multiplier - -;
#X text 498 377 sw ne;
#X obj 263 203 route nw se sw ne;
#X msg 479 81 n ne se s w;
#X msg 230 394 20 0 20 20;
#X msg 330 394 -20 0 20 20;
#X msg 430 394 0 20 20 20;
#X msg 528 394 0 -20 20 20;
#N canvas 406 539 671 627 mouse 0;
#X obj 231 61 i;
#X obj 305 59 i;
#X obj 109 244 -;
#X obj 108 219 t f f;
#X obj 108 192 f;
#X obj 109 272 route 0;
#X obj 185 247 -;
#X obj 184 222 t f f;
#X obj 184 195 f;
#X obj 185 275 route 0;
#X obj 96 316 sel 1 -1;
#X obj 214 319 sel 1 -1;
#X msg 74 356 e;
#X msg 110 356 w;
#X msg 183 356 s;
#X msg 218 356 n;
#X floatatom 318 299 5 0 0 0 - - -;
#X obj 99 399 outlet;
#X obj 247 23 * 50;
#X obj 306 23 * 50;
#X obj 146 12 inlet;
#X obj 358 0 inlet;
#X connect 0 0 4 0;
#X connect 1 0 8 0;
#X connect 2 0 5 0;
#X connect 3 0 2 1;
#X connect 3 1 2 0;
#X connect 4 0 3 0;
#X connect 5 1 10 0;
#X connect 6 0 9 0;
#X connect 7 0 6 1;
#X connect 7 1 6 0;
#X connect 8 0 7 0;
#X connect 9 1 11 0;
#X connect 9 1 16 0;
#X connect 10 0 12 0;
#X connect 10 1 13 0;
#X connect 11 0 14 0;
#X connect 11 1 15 0;
#X connect 12 0 17 0;
#X connect 13 0 17 0;
#X connect 14 0 17 0;
#X connect 15 0 17 0;
#X connect 18 0 0 0;
#X connect 19 0 1 0;
#X connect 20 0 18 0;
#X connect 21 0 19 0;
#X restore 44 112 pd mouse;
#X obj 44 83 mouse;
#X obj 274 477 * 1;
#X obj 93 477 * 1;
#X floatatom 590 461 5 0 0 0 speed_multiplier - -;
#N canvas 786 212 450 300 sequence 0;
#X msg 201 164 e;
#X msg 201 140 set \$1;
#X obj 174 120 t b a;
#X obj 174 98 drip 3000;
#X obj 183 207 outlet;
#X obj 127 40 inlet;
#X connect 0 0 4 0;
#X connect 1 0 0 0;
#X connect 2 0 0 0;
#X connect 2 1 1 0;
#X connect 3 0 2 0;
#X connect 5 0 3 0;
#X restore 387 110 pd sequence;
#X text 556 80 maison;
#X text 520 49 carré;
#N canvas 155 175 1059 692 cardinaux 0;
#X obj 259 140 bng 15 250 50 0 empty empty empty 17 7 0 10 -262144
-1 -1;
#X obj 259 170 bng 15 250 50 0 empty empty empty 17 7 0 10 -262144
-1 -1;
#X obj 243 155 bng 15 250 50 0 empty empty empty 17 7 0 10 -262144
-1 -1;
#X obj 275 155 bng 15 250 50 0 empty empty empty 17 7 0 10 -262144
-1 -1;
#X obj 245 174 bng 10 250 50 0 empty empty empty 17 7 0 10 -262144
-1 -1;
#X obj 245 141 bng 10 250 50 0 empty empty empty 17 7 0 10 -262144
-1 -1;
#X obj 278 174 bng 10 250 50 0 empty empty empty 17 7 0 10 -262144
-1 -1;
#X obj 278 141 bng 10 250 50 0 empty empty empty 17 7 0 10 -262144
-1 -1;
#X text 633 257 n s e w;
#X obj 244 82 route n s e w;
#X obj 184 313 unpack f f f f;
#X text 303 310 step step speed speed;
#X msg 250 258 10 -10 20 20;
#X msg 366 258 -10 10 20 20;
#X msg 460 258 -10 -10 20 20;
#X msg 561 258 10 10 20 20;
#X text 359 277 nw se;
#X obj 84 330 * 1;
#X obj -96 330 * 1;
#X floatatom 204 145 5 0 0 0 step_multiplier - -;
#X text 551 279 sw ne;
#X obj 316 105 route nw se sw ne;
#X msg 283 296 20 0 20 20;
#X msg 383 296 -20 0 20 20;
#X msg 483 296 0 20 20 20;
#X msg 581 296 0 -20 20 20;
#X obj 147 330 * 1;
#X obj -34 330 * 1;
#X floatatom 206 166 5 0 0 0 speed_multiplier - -;
#X obj 244 39 inlet;
#X obj -85 387 outlet;
#X obj -30 387 outlet;
#X obj 86 387 outlet;
#X obj 141 387 outlet;
#X text -85 407 pd stepper 2;
#X text 86 407 pd stepper 1;
#X connect 0 0 12 0;
#X connect 1 0 13 0;
#X connect 2 0 15 0;
#X connect 3 0 14 0;
#X connect 4 0 24 0;
#X connect 5 0 22 0;
#X connect 6 0 23 0;
#X connect 7 0 25 0;
#X connect 9 0 0 0;
#X connect 9 1 1 0;
#X connect 9 2 3 0;
#X connect 9 3 2 0;
#X connect 9 4 21 0;
#X connect 10 0 18 0;
#X connect 10 1 17 0;
#X connect 10 2 27 0;
#X connect 10 3 17 0;
#X connect 12 0 10 0;
#X connect 13 0 10 0;
#X connect 14 0 10 0;
#X connect 15 0 10 0;
#X connect 17 0 32 0;
#X connect 18 0 30 0;
#X connect 19 0 18 1;
#X connect 19 0 17 1;
#X connect 21 0 5 0;
#X connect 21 1 6 0;
#X connect 21 2 4 0;
#X connect 21 3 7 0;
#X connect 22 0 10 0;
#X connect 23 0 10 0;
#X connect 24 0 10 0;
#X connect 25 0 10 0;
#X connect 26 0 33 0;
#X connect 27 0 31 0;
#X connect 28 0 26 1;
#X connect 28 0 27 1;
#X connect 29 0 9 0;
#X coords 0 -1 1 1 200 100 1 100 100;
#X restore 505 242 pd cardinaux;
#X connect 2 0 1 8;
#X connect 2 1 1 9;
#X connect 2 2 1 10;
#X connect 2 3 1 11;
#X connect 3 0 1 2;
#X connect 3 1 1 3;
#X connect 3 2 1 4;
#X connect 3 3 1 5;
#X connect 4 0 5 0;
#X connect 5 0 7 0;
#X connect 6 0 7 1;
#X connect 7 0 1 17;
#X connect 8 0 10 0;
#X connect 9 0 7 1;
#X connect 10 0 4 0;
#X connect 10 1 9 0;
#X connect 11 0 24 0;
#X connect 12 0 25 0;
#X connect 13 0 27 0;
#X connect 14 0 26 0;
#X connect 15 0 38 0;
#X connect 16 0 36 0;
#X connect 17 0 37 0;
#X connect 18 0 39 0;
#X connect 20 0 11 0;
#X connect 20 1 12 0;
#X connect 20 2 14 0;
#X connect 20 3 13 0;
#X connect 20 4 34 0;
#X connect 21 0 45 0;
#X connect 22 0 31 0;
#X connect 22 1 30 0;
#X connect 22 2 43 0;
#X connect 22 3 30 0;
#X connect 24 0 22 0;
#X connect 25 0 22 0;
#X connect 26 0 22 0;
#X connect 27 0 22 0;
#X connect 29 0 20 0;
#X connect 30 0 2 0;
#X connect 31 0 3 0;
#X connect 32 0 31 1;
#X connect 32 0 30 1;
#X connect 34 0 16 0;
#X connect 34 1 17 0;
#X connect 34 2 15 0;
#X connect 34 3 18 0;
#X connect 35 0 45 0;
#X connect 36 0 22 0;
#X connect 37 0 22 0;
#X connect 38 0 22 0;
#X connect 39 0 22 0;
#X connect 40 0 20 0;
#X connect 41 0 40 0;
#X connect 41 1 40 1;
#X connect 42 0 2 1;
#X connect 43 0 3 1;
#X connect 44 0 42 1;
#X connect 44 0 43 1;
#X connect 45 0 20 0;
