#N canvas 194 77 827 537 10;
#X declare -path ../in -path ../out -path ../tools -path ../filters
-path ../lib;
#N canvas 398 310 645 287 INIT 0;
#X obj 50 33 declare -path ../in -path ../out -path ../tools -path
../filters -path ../lib;
#X text 50 4 Always use this subpatch in the presets;
#X coords 0 -1 1 1 150 10 2 100 100;
#X restore 627 20 pd INIT;
#X msg 362 111 n w s e;
#N canvas 784 210 450 300 sequence 0;
#X msg 201 164 w;
#X msg 201 140 set \$1;
#X obj 174 120 t b a;
#X obj 183 207 outlet;
#X obj 127 40 inlet;
#X obj 174 98 drip 500;
#X connect 0 0 3 0;
#X connect 1 0 0 0;
#X connect 2 0 0 0;
#X connect 2 1 1 0;
#X connect 4 0 5 0;
#X connect 5 0 2 0;
#X restore 362 167 pd sequence;
#X text 469 141 maison;
#X text 416 110 carré;
#N canvas 202 77 821 563 cardinaux 0;
#X obj 259 119 bng 15 250 50 0 empty empty empty 17 7 0 10 -262144
-1 -1;
#X obj 259 149 bng 15 250 50 0 empty empty empty 17 7 0 10 -262144
-1 -1;
#X obj 243 134 bng 15 250 50 0 empty empty empty 17 7 0 10 -262144
-1 -1;
#X obj 275 134 bng 15 250 50 0 empty empty empty 17 7 0 10 -262144
-1 -1;
#X obj 245 153 bng 10 250 50 0 empty empty empty 17 7 0 10 -262144
-1 -1;
#X obj 245 120 bng 10 250 50 0 empty empty empty 17 7 0 10 -262144
-1 -1;
#X obj 278 153 bng 10 250 50 0 empty empty empty 17 7 0 10 -262144
-1 -1;
#X obj 278 120 bng 10 250 50 0 empty empty empty 17 7 0 10 -262144
-1 -1;
#X text 673 236 n s e w;
#X obj 244 61 route n s e w;
#X obj 184 292 unpack f f f f;
#X text 303 289 step step speed speed;
#X text 359 256 nw se;
#X obj 105 432 * 1;
#X obj -75 432 * 1;
#X floatatom 204 124 5 0 0 0 step_multiplier - -;
#X text 551 258 sw ne;
#X obj 316 84 route nw se sw ne;
#X obj 168 432 * 1;
#X obj -13 432 * 1;
#X floatatom 204 145 5 0 0 0 speed_multiplier - -;
#X obj 244 18 inlet;
#X obj -64 489 outlet;
#X obj -9 489 outlet;
#X obj 107 489 outlet;
#X obj 162 489 outlet;
#X text -64 509 pd stepper 2;
#X text 107 509 pd stepper 1;
#X floatatom 273 358 5 0 0 0 - - -;
#X floatatom 309 356 5 0 0 0 - - -;
#X floatatom 348 358 5 0 0 0 - - -;
#X floatatom 384 356 5 0 0 0 - - -;
#X obj 63 9 loadbang;
#X msg 71 53 1;
#X msg 104 41 1;
#X msg 292 239 4 -4 20 20;
#X msg 406 237 -4 4 20 20;
#X msg 500 237 4 4 20 20;
#X msg 601 237 -4 -4 20 20;
#X msg 282 275 0 -4 20 20;
#X msg 383 276 0 4 20 20;
#X msg 483 276 -4 0 20 20;
#X msg 580 275 4 0 20 20;
#X connect 0 0 35 0;
#X connect 1 0 36 0;
#X connect 2 0 38 0;
#X connect 3 0 37 0;
#X connect 4 0 41 0;
#X connect 5 0 39 0;
#X connect 6 0 40 0;
#X connect 7 0 42 0;
#X connect 9 0 0 0;
#X connect 9 1 1 0;
#X connect 9 2 3 0;
#X connect 9 3 2 0;
#X connect 9 4 17 0;
#X connect 10 0 14 0;
#X connect 10 0 28 0;
#X connect 10 1 13 0;
#X connect 10 1 29 0;
#X connect 10 2 19 0;
#X connect 10 2 30 0;
#X connect 10 3 18 0;
#X connect 10 3 31 0;
#X connect 13 0 24 0;
#X connect 14 0 22 0;
#X connect 15 0 14 1;
#X connect 15 0 13 1;
#X connect 17 0 5 0;
#X connect 17 1 6 0;
#X connect 17 2 4 0;
#X connect 17 3 7 0;
#X connect 18 0 25 0;
#X connect 19 0 23 0;
#X connect 20 0 18 1;
#X connect 20 0 19 1;
#X connect 21 0 9 0;
#X connect 32 0 34 0;
#X connect 32 0 33 0;
#X connect 33 0 20 0;
#X connect 34 0 15 0;
#X connect 35 0 10 0;
#X connect 36 0 10 0;
#X connect 37 0 10 0;
#X connect 38 0 10 0;
#X connect 39 0 10 0;
#X connect 40 0 10 0;
#X connect 41 0 10 0;
#X connect 42 0 10 0;
#X coords 0 -1 1 1 200 70 1 100 100;
#X restore 130 184 pd cardinaux;
#X msg 375 142 n ne se s w w;
#X obj 139 92 rec-number;
#N canvas 612 443 450 300 ministep 0;
#X obj 97 136 * 4;
#X obj 93 190 outlet;
#X obj 147 191 outlet;
#X obj 104 82 unpack f f;
#X obj 147 136 * 4;
#X msg 76 21 1 1;
#X msg 154 21 -1 -1;
#X msg 156 46 -1 1;
#X msg 108 45 1 -1;
#X connect 0 0 1 0;
#X connect 3 0 0 0;
#X connect 3 1 4 0;
#X connect 4 0 2 0;
#X connect 5 0 3 0;
#X connect 6 0 3 0;
#X connect 7 0 3 0;
#X connect 8 0 3 0;
#X restore 625 102 pd ministep;
#N canvas 811 215 450 300 _SONS_ 0;
#X obj 195 142 synth;
#X obj 179 227 audio-out;
#X obj 155 110 + 50;
#X obj 118 39 seq-randomizer 500 8;
#X obj 121 147 i;
#X connect 0 0 1 0;
#X connect 0 0 1 1;
#X connect 2 0 0 0;
#X connect 2 0 4 0;
#X connect 3 0 2 0;
#X restore 626 34 pd _SONS_;
#N canvas 298 198 895 439 KEY_PAD 0;
#X msg 110 312 n;
#X msg 140 313 s;
#X obj 110 357 outlet;
#X msg 251 312 nw;
#X msg 281 313 ne;
#X msg 312 312 sw;
#X msg 346 312 se;
#X obj 107 125 spigot;
#X obj 167 103 tgl 15 0 empty empty empty 17 7 0 10 -257985 -1 -1 0
1;
#X obj 107 66 keyname;
#X obj 18 250 sel Up Down Left Right;
#X obj 697 208 sel 56 50 54 52;
#X msg 694 238 n;
#X msg 724 239 s;
#X msg 755 238 e;
#X msg 785 238 w;
#X obj 843 208 sel 55 57 49 51;
#X msg 835 238 nw;
#X msg 865 239 ne;
#X msg 896 238 sw;
#X msg 930 238 se;
#X obj 696 309 symbol;
#X obj 107 147 sel 1;
#X obj 107 169 symbol;
#X text 229 159 7 8 9 \; 4 5 6 \; 1 2 3 \;;
#X symbolatom 165 70 10 0 0 0 - - -;
#X obj 142 218 sel KP_Up KP_Down KP_Left KP_Right;
#X obj 256 260 sel KP_Home KP_Prior KP_End KP_Next;
#X msg 171 312 w;
#X msg 201 312 e;
#X connect 0 0 2 0;
#X connect 1 0 2 0;
#X connect 3 0 2 0;
#X connect 4 0 2 0;
#X connect 5 0 2 0;
#X connect 6 0 2 0;
#X connect 7 0 22 0;
#X connect 8 0 7 1;
#X connect 9 0 7 0;
#X connect 9 1 23 1;
#X connect 9 1 25 0;
#X connect 10 0 0 0;
#X connect 10 1 1 0;
#X connect 10 2 28 0;
#X connect 10 3 29 0;
#X connect 11 0 12 0;
#X connect 11 1 13 0;
#X connect 11 2 14 0;
#X connect 11 3 15 0;
#X connect 12 0 21 0;
#X connect 13 0 21 0;
#X connect 14 0 21 0;
#X connect 15 0 21 0;
#X connect 16 0 17 0;
#X connect 16 1 18 0;
#X connect 16 2 19 0;
#X connect 16 3 20 0;
#X connect 17 0 21 0;
#X connect 18 0 21 0;
#X connect 19 0 21 0;
#X connect 20 0 21 0;
#X connect 22 0 23 0;
#X connect 23 0 26 0;
#X connect 26 0 0 0;
#X connect 26 1 1 0;
#X connect 26 2 28 0;
#X connect 26 3 29 0;
#X connect 26 4 27 0;
#X connect 27 0 3 0;
#X connect 27 1 4 0;
#X connect 27 2 5 0;
#X connect 27 3 6 0;
#X connect 28 0 2 0;
#X connect 29 0 2 0;
#X coords 0 -1 1 1 85 20 1 100 100;
#X restore 130 56 pd KEY_PAD;
#N canvas 492 151 450 300 _STEPPERS_ 0;
#N canvas 352 77 779 687 STEPPER_ 0;
#X obj 159 513 sel 0 1 2 3;
#X obj 159 578 unpack f f f f;
#X obj 125 349 f;
#X obj 155 349 + 1;
#X obj 181 412 sel;
#X msg 181 444 0;
#X obj 99 259 tgl 15 0 empty empty empty 17 7 0 10 -262144 -1 -1 1
1;
#X obj 99 496 sel 0;
#X obj 196 365 - 1;
#X msg 140 224 0;
#X msg 99 221 1;
#X obj 125 378 t f f;
#X obj 196 340 abs;
#X obj 285 511 sel 3 2 1 0;
#X obj 179 160 t b f f b;
#X obj 252 452 gate 2;
#X obj 252 415 + 1;
#X obj 140 72 inlet float;
#X obj 158 617 outlet;
#X obj 201 617 outlet;
#X obj 245 617 outlet;
#X obj 288 617 outlet;
#X text 146 46 nb of steps;
#X text 327 270 4 steps ?;
#X obj 293 269 * 4;
#X text 303 486 rotation direction;
#X obj 285 409 mod 4;
#X obj 99 519 del 1;
#X obj 125 290 metro 20;
#X obj 318 105 inlet time;
#X obj 251 378 < 0;
#X obj 496 616 outlet enable;
#X obj 486 538 f;
#X obj 523 539 + 1;
#X obj 486 559 % 2;
#X obj 486 581 sel 1;
#X msg 159 541 1 0 1 0;
#X msg 211 542 0 1 1 0;
#X msg 266 542 0 1 0 1;
#X msg 321 542 1 0 0 1;
#X obj 140 107 route 0;
#X obj 565 104 inlet off;
#X msg 99 544 0 0 0 0;
#X msg 223 99 1;
#X msg 235 125 -1;
#X obj 351 186 r STOP;
#X connect 0 0 36 0;
#X connect 0 1 37 0;
#X connect 0 2 38 0;
#X connect 0 3 39 0;
#X connect 1 0 18 0;
#X connect 1 1 19 0;
#X connect 1 2 20 0;
#X connect 1 3 21 0;
#X connect 2 0 3 0;
#X connect 2 0 11 0;
#X connect 3 0 2 1;
#X connect 4 0 5 0;
#X connect 5 0 6 0;
#X connect 6 0 7 0;
#X connect 6 0 28 0;
#X connect 7 0 27 0;
#X connect 8 0 4 1;
#X connect 9 0 6 0;
#X connect 9 0 2 1;
#X connect 10 0 6 0;
#X connect 11 0 26 0;
#X connect 11 1 4 0;
#X connect 12 0 8 0;
#X connect 13 0 36 0;
#X connect 13 1 37 0;
#X connect 13 2 38 0;
#X connect 13 3 39 0;
#X connect 14 0 10 0;
#X connect 14 1 12 0;
#X connect 14 2 30 0;
#X connect 14 3 9 0;
#X connect 15 0 0 0;
#X connect 15 1 13 0;
#X connect 16 0 15 0;
#X connect 17 0 40 0;
#X connect 26 0 15 1;
#X connect 27 0 32 0;
#X connect 28 0 2 0;
#X connect 29 0 28 1;
#X connect 30 0 16 0;
#X connect 32 0 33 0;
#X connect 32 0 34 0;
#X connect 33 0 32 1;
#X connect 34 0 35 0;
#X connect 35 0 31 0;
#X connect 36 0 1 0;
#X connect 37 0 1 0;
#X connect 38 0 1 0;
#X connect 39 0 1 0;
#X connect 40 1 14 0;
#X connect 41 0 42 0;
#X connect 42 0 1 0;
#X connect 43 0 14 0;
#X connect 44 0 14 0;
#X connect 45 0 9 0;
#X restore 197 66 pd STEPPER_;
#N canvas 345 77 779 687 STEPPER_ 0;
#X obj 159 513 sel 0 1 2 3;
#X obj 159 578 unpack f f f f;
#X obj 125 349 f;
#X obj 155 349 + 1;
#X obj 181 412 sel;
#X msg 181 444 0;
#X obj 99 259 tgl 15 0 empty empty empty 17 7 0 10 -262144 -1 -1 0
1;
#X obj 99 499 sel 0;
#X obj 196 365 - 1;
#X msg 140 224 0;
#X msg 99 221 1;
#X obj 125 378 t f f;
#X obj 196 340 abs;
#X obj 285 511 sel 3 2 1 0;
#X obj 179 160 t b f f b;
#X obj 252 452 gate 2;
#X obj 252 415 + 1;
#X obj 140 61 inlet float;
#X obj 158 617 outlet;
#X obj 201 617 outlet;
#X obj 245 617 outlet;
#X obj 288 617 outlet;
#X text 146 35 nb of steps;
#X text 303 486 rotation direction;
#X obj 285 409 mod 4;
#X obj 99 522 del 1;
#X obj 125 290 metro 20;
#X obj 318 105 inlet time;
#X obj 251 378 < 0;
#X obj 486 602 outlet enable;
#X obj 486 538 f;
#X obj 523 539 + 1;
#X obj 486 559 % 2;
#X obj 486 581 sel 1;
#X msg 159 541 1 0 1 0;
#X msg 211 542 0 1 1 0;
#X msg 266 542 0 1 0 1;
#X msg 321 542 1 0 0 1;
#X obj 140 111 route 0;
#X obj 555 94 inlet off;
#X msg 98 557 0 0 0 0;
#X msg 250 65 4;
#X floatatom 293 204 5 0 0 0 - - -;
#X obj 224 462 bng 15 250 50 0 empty empty empty 17 7 0 10 -262144
-1 -1;
#X obj 375 146 r STOP;
#X connect 0 0 34 0;
#X connect 0 1 35 0;
#X connect 0 2 36 0;
#X connect 0 3 37 0;
#X connect 1 0 18 0;
#X connect 1 1 19 0;
#X connect 1 2 20 0;
#X connect 1 3 21 0;
#X connect 2 0 3 0;
#X connect 2 0 11 0;
#X connect 3 0 2 1;
#X connect 4 0 5 0;
#X connect 4 0 43 0;
#X connect 5 0 6 0;
#X connect 6 0 7 0;
#X connect 6 0 26 0;
#X connect 7 0 25 0;
#X connect 8 0 4 1;
#X connect 9 0 6 0;
#X connect 9 0 2 1;
#X connect 10 0 6 0;
#X connect 11 0 24 0;
#X connect 11 1 4 0;
#X connect 12 0 8 0;
#X connect 13 0 34 0;
#X connect 13 1 35 0;
#X connect 13 2 36 0;
#X connect 13 3 37 0;
#X connect 14 0 10 0;
#X connect 14 1 12 0;
#X connect 14 2 28 0;
#X connect 14 3 9 0;
#X connect 15 0 0 0;
#X connect 15 1 13 0;
#X connect 16 0 15 0;
#X connect 17 0 38 0;
#X connect 24 0 15 1;
#X connect 25 0 30 0;
#X connect 26 0 2 0;
#X connect 27 0 26 1;
#X connect 28 0 16 0;
#X connect 30 0 31 0;
#X connect 30 0 32 0;
#X connect 31 0 30 1;
#X connect 32 0 33 0;
#X connect 33 0 29 0;
#X connect 34 0 1 0;
#X connect 35 0 1 0;
#X connect 36 0 1 0;
#X connect 37 0 1 0;
#X connect 38 1 14 0;
#X connect 39 0 40 0;
#X connect 40 0 1 0;
#X connect 41 0 38 0;
#X connect 42 0 26 1;
#X connect 44 0 9 0;
#X restore 69 67 pd STEPPER_;
#X obj 143 68 bng 15 250 50 0 empty empty off 17 7 0 10 -262144 -1
-1;
#X obj 276 68 bng 15 250 50 0 empty empty empty 17 7 0 10 -262144 -1
-1;
#X obj 69 38 inlet;
#X obj 105 38 inlet;
#X obj 198 38 inlet;
#X obj 234 38 inlet;
#X obj 286 35 inlet;
#X obj 66 240 outlet;
#X obj 93 220 outlet;
#X obj 113 197 outlet;
#X obj 140 177 outlet;
#X obj 252 239 outlet;
#X obj 279 219 outlet;
#X obj 299 196 outlet;
#X obj 326 176 outlet;
#X connect 0 0 13 0;
#X connect 0 1 14 0;
#X connect 0 2 15 0;
#X connect 0 3 16 0;
#X connect 1 0 9 0;
#X connect 1 1 10 0;
#X connect 1 2 11 0;
#X connect 1 3 12 0;
#X connect 2 0 1 2;
#X connect 3 0 0 2;
#X connect 4 0 1 0;
#X connect 5 0 1 1;
#X connect 6 0 0 0;
#X connect 7 0 0 1;
#X connect 8 0 3 0;
#X connect 8 0 2 0;
#X coords 0 300 1 299 140 17 0;
#X restore 130 312 pd _STEPPERS_;
#N canvas 523 325 450 300 _ARDUINO__ 0;
#X obj 50 121 arduino-out;
#X msg 246 54 3 4 5 6 9 10 11 12;
#X obj 246 79 iter;
#X obj 246 104 list;
#X obj 246 13 loadbang;
#X msg 273 81 symbol digital;
#X obj 246 33 t b b;
#X obj 68 -28 inlet;
#X obj 77 -8 inlet;
#X obj 86 13 inlet;
#X obj 95 33 inlet;
#X obj 138 -28 inlet;
#X obj 147 -8 inlet;
#X obj 156 13 inlet;
#X obj 165 33 inlet;
#X text 243 -43 Deux steppers \; 3 \, 4 \, 5 \, 6 \; 9 \, 10 \, 11
\, 12;
#X obj 358 -2 bng 15 250 50 0 empty empty empty 17 7 0 10 -262144 -1
-1;
#X connect 1 0 2 0;
#X connect 2 0 3 0;
#X connect 3 0 0 17;
#X connect 4 0 6 0;
#X connect 5 0 3 1;
#X connect 6 0 1 0;
#X connect 6 1 5 0;
#X connect 7 0 0 2;
#X connect 8 0 0 3;
#X connect 9 0 0 4;
#X connect 10 0 0 5;
#X connect 11 0 0 8;
#X connect 12 0 0 9;
#X connect 13 0 0 10;
#X connect 14 0 0 11;
#X connect 16 0 6 0;
#X restore 130 346 pd _ARDUINO__;
#X obj 214 315 bng 15 250 50 0 empty empty off 17 7 0 10 -262144 -1
-1;
#N canvas 330 238 450 300 _MOUSE_ 0;
#N canvas 406 368 671 627 mouse 0;
#X obj 231 61 i;
#X obj 305 59 i;
#X obj 109 244 -;
#X obj 108 219 t f f;
#X obj 108 192 f;
#X obj 109 272 route 0;
#X obj 185 247 -;
#X obj 184 222 t f f;
#X obj 184 195 f;
#X obj 185 275 route 0;
#X obj 96 316 sel 1 -1;
#X obj 214 319 sel 1 -1;
#X msg 74 356 e;
#X msg 110 356 w;
#X msg 183 356 s;
#X msg 218 356 n;
#X floatatom 318 299 5 0 0 0 - - -;
#X obj 99 399 outlet;
#X obj 146 12 inlet;
#X obj 358 0 inlet;
#X obj 247 23 * 100;
#X obj 306 23 * 100;
#X connect 0 0 4 0;
#X connect 1 0 8 0;
#X connect 2 0 5 0;
#X connect 3 0 2 1;
#X connect 3 1 2 0;
#X connect 4 0 3 0;
#X connect 5 1 10 0;
#X connect 6 0 9 0;
#X connect 7 0 6 1;
#X connect 7 1 6 0;
#X connect 8 0 7 0;
#X connect 9 1 11 0;
#X connect 9 1 16 0;
#X connect 10 0 12 0;
#X connect 10 1 13 0;
#X connect 11 0 14 0;
#X connect 11 1 15 0;
#X connect 12 0 17 0;
#X connect 13 0 17 0;
#X connect 14 0 17 0;
#X connect 15 0 17 0;
#X connect 18 0 20 0;
#X connect 19 0 21 0;
#X connect 20 0 0 0;
#X connect 21 0 1 0;
#X restore 90 145 pd mouse;
#X obj 90 116 mouse;
#X obj 90 37 key;
#X obj 91 62 sel 339;
#X obj 92 84 tgl 15 0 empty empty empty 17 7 0 10 -262144 -1 -1 0 1
;
#X obj 27 173 list 0;
#X obj 27 144 metro 100;
#X obj 27 121 tgl 15 0 empty empty empty 17 7 0 10 -260097 -1 -1 0
1;
#X msg 27 194 set \$1;
#X msg 27 220 s;
#X obj 78 176 bng 15 250 50 0 empty empty empty 17 7 0 10 -262144 -1
-1;
#N canvas 191 295 1084 626 maths 0;
#X floatatom 113 254 5 0 0 0 y1 - -;
#X floatatom 255 255 5 0 0 0 y - -;
#X floatatom 398 255 5 0 0 0 x - -;
#X floatatom 113 311 8 0 0 0 R1 - -;
#X floatatom 556 258 5 0 0 0 x2 - -;
#X floatatom 671 258 5 0 0 0 x - -;
#X floatatom 786 258 5 0 0 0 y1 - -;
#X floatatom 556 325 8 0 0 0 R2 - -;
#X floatatom 901 258 5 0 0 0 y - -;
#X floatatom 556 16 5 0 0 0 y - -;
#X floatatom 489 16 5 0 0 0 x - -;
#X floatatom 113 82 5 0 0 0 y1 - -;
#X floatatom 200 81 5 0 0 0 x2 - -;
#X msg 113 61 4;
#X msg 200 60 4;
#X obj 489 50 t b f;
#X obj 556 48 t b f;
#X obj 113 279 expr sqrt(($f1 - $f2)*($f1 - $f2) + ($f3 * $f3));
#X obj 556 283 expr sqrt(($f1 - $f2)*($f1 - $f2) + (($f3 - $f4) * ($f3
- $f4)));
#X text 232 80 = y2;
#X text 33 82 x1 = 0;
#X text 87 460 Calcul des rayons (donc nombre de tour de moteur par
exemple) en fonctions de la position d'un pont (x \, y). l'origine
est en bas a gauche. dans tout les cas : x1 = 0 \; x2 = y2 \;;
#X text 519 388 CODE PROCESSING ////////////;
#X text 540 405 // On a x \, y > on déduit les rayons // coordonnees
x \, y float x = 1 \; float y = 1 \; // Inconnues float R1 \, R2 \,
delta \, b \, c \; // Coordonnées des moteurs float x1 = 0 \; float
y1 = 4 \; float x2 = 4 \; float y2 = 4 \; // Calcul intersection de
deux cercles avec y1 = y2 R1 = sqrt(sq(y1 - y) + sq(x)) \; R2 = sqrt(sq(x2
- x) + sq(y1 - y)) \; println(R1) \; println(R2) \;;
#X obj 493 -12 inlet x;
#X obj 553 -11 inlet y;
#X obj 113 348 outlet R1;
#X obj 556 354 outlet R2;
#X connect 0 0 17 0;
#X connect 1 0 17 1;
#X connect 2 0 17 2;
#X connect 3 0 26 0;
#X connect 4 0 18 0;
#X connect 5 0 18 1;
#X connect 6 0 18 2;
#X connect 7 0 27 0;
#X connect 8 0 18 3;
#X connect 9 0 16 0;
#X connect 10 0 15 0;
#X connect 11 0 0 0;
#X connect 11 0 6 0;
#X connect 12 0 4 0;
#X connect 13 0 11 0;
#X connect 14 0 12 0;
#X connect 15 0 4 0;
#X connect 15 0 0 0;
#X connect 15 1 2 0;
#X connect 15 1 5 0;
#X connect 16 0 0 0;
#X connect 16 0 4 0;
#X connect 16 1 8 0;
#X connect 16 1 1 0;
#X connect 17 0 3 0;
#X connect 18 0 7 0;
#X connect 24 0 10 0;
#X connect 25 0 9 0;
#X restore 210 74 pd maths;
#X obj 211 24 mouse;
#N canvas 345 368 671 627 mouse 0;
#X obj 231 61 i;
#X obj 305 59 i;
#X obj 109 244 -;
#X obj 108 219 t f f;
#X obj 108 192 f;
#X obj 109 272 route 0;
#X obj 185 247 -;
#X obj 184 222 t f f;
#X obj 184 195 f;
#X obj 185 275 route 0;
#X obj 146 329 outlet;
#X obj 146 12 inlet;
#X obj 358 0 inlet;
#X obj 247 23 * 100;
#X obj 306 23 * 100;
#X obj 223 327 outlet;
#X connect 0 0 4 0;
#X connect 1 0 8 0;
#X connect 2 0 5 0;
#X connect 3 0 2 1;
#X connect 3 1 2 0;
#X connect 4 0 3 0;
#X connect 5 1 10 0;
#X connect 6 0 9 0;
#X connect 7 0 6 1;
#X connect 7 1 6 0;
#X connect 8 0 7 0;
#X connect 9 1 15 0;
#X connect 11 0 13 0;
#X connect 12 0 14 0;
#X connect 13 0 0 0;
#X connect 14 0 1 0;
#X restore 210 95 pd mouse;
#X floatatom 208 125 5 0 0 0 - - -;
#X floatatom 256 124 5 0 0 0 - - -;
#X obj 210 52 * 4;
#X obj 255 52 * 4;
#X connect 0 0 5 1;
#X connect 0 0 10 0;
#X connect 1 0 0 0;
#X connect 1 1 0 1;
#X connect 2 0 3 0;
#X connect 3 0 4 0;
#X connect 5 0 8 0;
#X connect 6 0 5 0;
#X connect 7 0 6 0;
#X connect 8 0 9 0;
#X connect 10 0 9 0;
#X connect 11 0 13 0;
#X connect 11 1 13 1;
#X connect 12 0 16 0;
#X connect 12 1 17 0;
#X connect 13 0 14 0;
#X connect 13 1 15 0;
#X connect 16 0 11 0;
#X connect 17 0 11 1;
#X restore 626 55 pd _MOUSE_;
#N canvas 567 77 972 653 polargraph 0;
#X obj 40 528 outlet;
#X obj 118 525 outlet;
#X obj 278 544 outlet;
#X obj 335 540 outlet;
#X obj 40 353 f;
#X obj 40 148 tgl 15 0 empty empty empty 17 7 0 10 -262144 -1 -1 0
1;
#X obj 66 353 + 1;
#X floatatom 335 513 5 0 0 0 - - -;
#X floatatom 91 291 5 0 0 0 - - -;
#X floatatom 118 477 5 0 0 0 - - -;
#X obj 739 315 f;
#X obj 765 315 + 1;
#X obj 739 338 % 10;
#N canvas 33 77 450 300 (subpatch) 0;
#X array \$0-seq 10 float 3;
#A 0 0.457133 9.65714 9.50714 9.65714 0.357135 0.307135 10.2071 7.40714
3.60714 3.55714;
#X coords 0 0 10 10 200 200 1 0 0;
#X restore 713 45 graph;
#X obj 739 384 i;
#X obj 739 408 * 50;
#X obj 739 431 + 50;
#N canvas 41 116 826 645 timechange 0;
#N canvas 0 0 450 300 (subpatch) 0;
#X array array1 10 float 3;
#A 0 5000 1000 2000 3000 1000 5000 9000 1000 3000 1000;
#X coords 0 0 10 300 200 140 1 0 0;
#X restore 559 196 graph;
#X obj 106 292 bng 15 250 50 0 empty empty empty 17 7 0 10 -262144
-1 -1;
#X msg 62 194 start;
#X obj 187 326 f;
#X obj 229 326 + 1;
#X obj 418 142 tabwrite;
#X obj 190 364 % 10;
#X obj 171 422 tabread array1;
#X floatatom 225 387 5 0 0 0 - - -;
#X floatatom 204 487 5 0 0 0 - - -;
#X obj 159 530 outlet;
#X obj 135 250 metroplus 5000 1000 2000 3000 1000 5000 9000 1000 3000
1000;
#X msg 250 71 \; array1 0 5000 1000 2000 3000 1000 5000 9000 1000 3000
1000;
#X msg 113 330 0;
#X obj 179 453 / 20;
#X connect 2 0 11 0;
#X connect 3 0 4 0;
#X connect 3 0 6 0;
#X connect 4 0 3 1;
#X connect 6 0 7 0;
#X connect 6 0 8 0;
#X connect 7 0 14 0;
#X connect 9 0 10 0;
#X connect 11 0 1 0;
#X connect 11 0 3 0;
#X connect 13 0 3 0;
#X connect 13 0 2 0;
#X connect 14 0 9 0;
#X restore 741 469 pd timechange;
#X floatatom 741 513 5 0 0 0 - - -;
#X msg 118 447 20;
#X msg 335 489 20;
#X obj 335 439 bng 15 250 50 0 empty empty empty 17 7 0 10 -262144
-1 -1;
#X obj 40 377 mod 2;
#X obj 40 400 sel 0 1;
#X msg 202 318 80;
#X obj 246 288 sel 1;
#X obj 739 360 tabread \$0-eq;
#X msg 199 290 240;
#X obj 40 328 metro 160;
#X msg 246 479 -200;
#X msg 278 479 200;
#X floatatom 240 530 5 0 0 0 - - -;
#X obj 58 268 tgl 15 0 empty empty empty 17 7 0 10 -262144 -1 -1 0
1;
#X msg 374 479 400;
#X msg 175 328;
#X msg 124 235 480;
#X msg 157 236 700;
#X obj 138 410 delay 240;
#X msg 91 231 241;
#X obj 121 384 t f b;
#X obj 195 110 random 3;
#X obj 197 135 sel 0 1 2;
#X msg 268 451 -50;
#X msg 294 374 50;
#X msg 267 412;
#X floatatom 324 406 5 0 0 0 - - -;
#X msg 357 382 3;
#X msg 388 506 200;
#X obj 516 452 bng 15 250 50 0 empty empty empty 17 7 0 10 -262144
-1 -1;
#X obj 347 169 bng 15 250 50 0 empty empty empty 17 7 0 10 -262144
-1 -1;
#X obj 97 72 line;
#X obj 223 10 bng 15 250 50 0 empty empty empty 17 7 0 10 -262144 -1
-1;
#X msg 43 34 1;
#X obj 239 513 bng 15 250 50 0 empty empty empty 17 7 0 10 -262144
-1 -1;
#X obj 538 512 bng 15 250 50 0 empty empty empty 17 7 0 10 -262144
-1 -1;
#X obj 463 225 bng 15 250 50 0 empty empty empty 17 7 0 10 -262144
-1 -1;
#X obj 164 71 delay 40000;
#X msg 158 99 0;
#X msg 80 36 2000 \, 240 38000;
#X msg 40 450 4;
#X msg 70 450 -4;
#X connect 4 0 6 0;
#X connect 4 0 22 0;
#X connect 5 0 28 0;
#X connect 6 0 4 1;
#X connect 7 0 3 0;
#X connect 8 0 28 1;
#X connect 9 0 1 0;
#X connect 10 0 11 0;
#X connect 10 0 12 0;
#X connect 11 0 10 1;
#X connect 12 0 26 0;
#X connect 14 0 15 0;
#X connect 15 0 16 0;
#X connect 17 0 18 0;
#X connect 19 0 9 0;
#X connect 20 0 7 0;
#X connect 21 0 20 0;
#X connect 21 0 30 0;
#X connect 22 0 39 0;
#X connect 22 0 23 0;
#X connect 23 0 59 0;
#X connect 23 1 60 0;
#X connect 24 0 8 0;
#X connect 25 0 29 0;
#X connect 26 0 14 0;
#X connect 27 0 8 0;
#X connect 28 0 4 0;
#X connect 29 0 2 0;
#X connect 30 0 2 0;
#X connect 31 0 2 0;
#X connect 32 0 28 0;
#X connect 33 0 7 0;
#X connect 35 0 8 0;
#X connect 36 0 8 0;
#X connect 38 0 8 0;
#X connect 39 1 37 0;
#X connect 40 0 41 0;
#X connect 41 0 38 0;
#X connect 41 1 35 0;
#X connect 41 2 36 0;
#X connect 42 0 2 0;
#X connect 43 0 2 0;
#X connect 45 0 2 0;
#X connect 46 0 45 0;
#X connect 47 0 7 0;
#X connect 48 0 47 0;
#X connect 48 0 30 0;
#X connect 49 0 29 0;
#X connect 49 0 33 0;
#X connect 50 0 8 0;
#X connect 51 0 52 0;
#X connect 51 0 58 0;
#X connect 51 0 49 0;
#X connect 51 0 56 0;
#X connect 52 0 5 0;
#X connect 53 0 31 0;
#X connect 54 0 29 0;
#X connect 54 0 20 0;
#X connect 55 0 30 0;
#X connect 55 0 20 0;
#X connect 56 0 57 0;
#X connect 57 0 5 0;
#X connect 58 0 50 0;
#X connect 59 0 0 0;
#X connect 60 0 0 0;
#X restore 21 295 pd polargraph;
#N canvas 391 89 972 653 polargraph_1 0;
#X obj 66 542 outlet;
#X obj 136 541 outlet;
#X obj 286 540 outlet;
#X obj 335 540 outlet;
#X obj 70 314 f;
#X obj 34 167 tgl 15 0 empty empty empty 17 7 0 10 -262144 -1 -1 0
1;
#X obj 70 338 % 2;
#X obj 70 378 - 1;
#X obj 96 314 + 1;
#X obj 70 357 * 2;
#X obj 280 172 f;
#X obj 244 25 tgl 15 0 empty empty empty 17 7 0 10 -262144 -1 -1 0
1;
#X obj 280 196 % 2;
#X obj 280 236 - 1;
#X obj 306 172 + 1;
#X obj 280 215 * 2;
#X obj 290 311 * 8;
#X msg 478 194 160;
#X msg 485 232 1;
#X floatatom 558 424 5 0 0 0 - - -;
#X floatatom 343 97 5 0 0 0 sec - -;
#X floatatom 260 275 5 0 0 0 - - -;
#X obj 280 145 metro 10000;
#X obj 343 121 * 1000;
#X msg 218 132 0;
#X floatatom 121 250 5 0 0 0 - - -;
#X msg 471 368 300;
#X msg 240 401 1;
#X msg 170 418 20;
#X obj 231 369 sel 0;
#X floatatom 157 352 5 0 0 0 - - -;
#X obj 70 415 * 8;
#X obj 70 287 metro 300;
#X msg 579 244 300 50 200 150;
#X obj 490 85 table;
#X obj 729 364 metro 100;
#X obj 694 356 tgl 15 0 empty empty empty 17 7 0 10 -262144 -1 -1 0
1;
#X obj 729 389 f;
#X obj 755 389 + 1;
#X msg 784 324 300;
#X msg 854 322 50;
#X obj 664 172 list;
#X obj 734 415 % 10;
#N canvas 0 0 450 300 (subpatch) 0;
#X array seq 10 float 3;
#A 0 1 0 1 0 1 1 0 1 0 1;
#X coords 0 0 10 10 200 200 1 0 0;
#X restore 709 12 graph;
#X obj 736 441 tabread seq;
#X obj 740 473 i;
#X obj 669 485 * 50;
#X floatatom 736 279 5 0 0 0 - - -;
#X obj 620 488 + 50;
#N canvas 43 117 826 645 timechange 0;
#N canvas 0 0 450 300 (subpatch) 0;
#X array array1 10 float 3;
#A 0 5000 1000 2000 3000 1000 5000 9000 1000 3000 1000;
#X coords 0 0 10 300 200 140 1 0 0;
#X restore 559 196 graph;
#X obj 106 292 bng 15 250 50 0 empty empty empty 17 7 0 10 -262144
-1 -1;
#X msg 62 194 start;
#X obj 187 326 f;
#X obj 229 326 + 1;
#X obj 418 142 tabwrite;
#X obj 190 364 % 10;
#X obj 171 422 tabread array1;
#X floatatom 225 387 5 0 0 0 - - -;
#X floatatom 204 487 5 0 0 0 - - -;
#X obj 159 530 outlet;
#X obj 135 250 metroplus 5000 1000 2000 3000 1000 5000 9000 1000 3000
1000;
#X msg 250 71 \; array1 0 5000 1000 2000 3000 1000 5000 9000 1000 3000
1000;
#X msg 113 330 0;
#X obj 179 453 / 20;
#X connect 2 0 11 0;
#X connect 3 0 4 0;
#X connect 3 0 6 0;
#X connect 4 0 3 1;
#X connect 6 0 7 0;
#X connect 6 0 8 0;
#X connect 7 0 14 0;
#X connect 9 0 10 0;
#X connect 11 0 1 0;
#X connect 11 0 3 0;
#X connect 13 0 3 0;
#X connect 13 0 2 0;
#X connect 14 0 9 0;
#X restore 476 -20 pd timechange;
#X floatatom 476 24 5 0 0 0 - - -;
#X connect 4 0 6 0;
#X connect 4 0 8 0;
#X connect 5 0 32 0;
#X connect 6 0 9 0;
#X connect 7 0 31 0;
#X connect 8 0 4 1;
#X connect 9 0 7 0;
#X connect 10 0 12 0;
#X connect 10 0 14 0;
#X connect 11 0 22 0;
#X connect 11 0 24 0;
#X connect 11 0 26 0;
#X connect 11 0 5 0;
#X connect 11 0 29 0;
#X connect 11 0 33 0;
#X connect 12 0 15 0;
#X connect 13 0 16 0;
#X connect 13 0 21 0;
#X connect 14 0 10 1;
#X connect 15 0 13 0;
#X connect 16 0 2 0;
#X connect 17 0 16 1;
#X connect 18 0 16 1;
#X connect 19 0 3 0;
#X connect 20 0 23 0;
#X connect 22 0 10 0;
#X connect 23 0 22 1;
#X connect 24 0 10 0;
#X connect 25 0 32 1;
#X connect 26 0 3 0;
#X connect 27 0 2 0;
#X connect 28 0 1 0;
#X connect 29 0 27 0;
#X connect 30 0 1 0;
#X connect 31 0 0 0;
#X connect 32 0 4 0;
#X connect 35 0 37 0;
#X connect 36 0 35 0;
#X connect 37 0 38 0;
#X connect 37 0 42 0;
#X connect 38 0 37 1;
#X connect 39 0 35 1;
#X connect 40 0 35 1;
#X connect 42 0 44 0;
#X connect 44 0 45 0;
#X connect 45 0 46 0;
#X connect 46 0 48 0;
#X connect 47 0 35 1;
#X connect 49 0 50 0;
#X connect 50 0 3 0;
#X restore 626 77 pd polargraph_1;
#N canvas 47 77 972 653 pixels 1;
#X obj 40 558 outlet;
#X obj 145 556 outlet;
#X obj 385 549 outlet;
#X obj 569 552 outlet;
#X floatatom 569 525 5 0 0 0 - - -;
#X msg 584 502 20;
#X msg 787 365 -220;
#X obj 569 460 loadbang;
#X msg 53 488 12;
#X msg 61 510 -12;
#X text 31 19 Position de départ : rayon en haut à droite \; --------------------------------------------
;
#X obj 785 51 bng 40 250 50 0 STOP STOP-in STOP 0 -8 0 20 -258113 -1
-258113;
#X obj 795 136 nbx 2 30 -1e+37 1e+37 0 0 empty NB_PIXELS PIXELS 0 -8
0 15 -262144 -1 -1 1 256;
#X obj 734 136 nbx 2 30 -1e+37 1e+37 0 0 empty NB_LIGNES LIGNES 0 -8
0 15 -262144 -1 -1 61 256;
#X text 734 98 11 lignes x 11 pixels;
#X msg 782 388 220;
#X obj 400 248 bng 15 250 50 0 empty empty ligne 17 7 0 10 -262144
-1 -1;
#X obj 732 51 bng 40 250 50 0 RUN RUN-in RUN 0 -8 0 20 -4034 -1 -4034
;
#N canvas 227 160 450 508 montee/descente 0;
#X obj 78 410 outlet;
#X obj 156 407 outlet;
#X obj 78 235 f;
#X obj 104 235 + 1;
#X floatatom 156 382 5 0 0 0 - - -;
#X obj 78 259 mod 2;
#X obj 78 282 sel 0 1;
#X obj 156 341 loadbang;
#X msg 43 384 12;
#X msg 43 408 -12;
#X obj 78 128 tgl 15 0 empty empty pixel_N/B 17 7 0 10 -262144 -1 -1
1 1;
#X text 157 291 début 0 : montee \; fin 1 : descente;
#X msg 156 361 25;
#X msg 139 211 0;
#X obj 78 157 t f f;
#X obj 139 190 sel 1;
#X msg 106 333 -4;
#X msg 78 332 4;
#X obj 78 93 inlet;
#X floatatom 309 281 5 0 0 0 - - -;
#X text 73 38 Gérer temps du metronome \, nb de pas et temps entre
chaque pas \;;
#X obj 78 189 metro 125;
#X obj 309 306 print A/R;
#X connect 2 0 3 0;
#X connect 2 0 5 0;
#X connect 3 0 2 1;
#X connect 4 0 1 0;
#X connect 5 0 6 0;
#X connect 6 0 17 0;
#X connect 6 1 16 0;
#X connect 7 0 12 0;
#X connect 8 0 0 0;
#X connect 9 0 0 0;
#X connect 10 0 14 0;
#X connect 12 0 4 0;
#X connect 13 0 2 1;
#X connect 14 0 21 0;
#X connect 14 1 15 0;
#X connect 15 0 13 0;
#X connect 16 0 0 0;
#X connect 17 0 0 0;
#X connect 18 0 10 0;
#X connect 19 0 22 0;
#X connect 21 0 2 0;
#X restore 40 458 pd montee/descente;
#X floatatom 40 537 5 0 0 0 - - -;
#X floatatom 145 530 5 0 0 0 - - -;
#X obj 40 432 tgl 15 0 empty empty empty 17 7 0 10 -262144 -1 -1 1
1;
#X msg 160 478 25;
#X msg 179 500 200;
#X obj 400 343 f;
#X obj 430 343 + 1;
#X msg 415 322 0;
#X obj 400 366 % 2;
#X obj 415 302 r RUN;
#X msg 400 415 -4;
#X msg 427 415 4;
#X obj 400 388 sel 0 1;
#X floatatom 400 443 5 0 0 0 - - -;
#X obj 67 328 t b b;
#X obj 67 367 s NEXT;
#X msg 93 347 0;
#X obj 385 470 f;
#X obj 40 283 t f b b;
#X obj 50 332 bng 15 250 50 0 empty empty empty 17 7 0 10 -262144 -1
-1;
#X obj 400 271 t b b;
#X msg 73 533 -4;
#X msg 569 482 250;
#X obj 67 306 delay 999;
#X obj 40 175 f;
#X obj 70 175 + 1;
#X msg 82 154 0;
#X obj 55 112 r RUN;
#X obj 40 252 tgl 15 0 empty empty empty 17 7 0 10 -262144 -1 -1 1
1;
#X obj 170 305 print;
#X obj 541 256 table \$0-pixels;
#X obj 543 228 tabwrite \$0-pixels;
#X obj 40 220 tabread \$0-pixels;
#X text 143 577 STEPPER1 msec;
#X text 37 576 STEPPER1 pas;
#X text 379 576 STEPPER2 pas;
#X text 565 577 STEPPER2 msec;
#X text 155 455 125msec : 8 A/R en 1000s;
#X obj 543 155 f;
#X obj 573 155 + 1;
#X msg 582 132 0;
#X obj 543 183 t b f;
#X obj 543 207 random 2;
#X obj 543 106 t f b;
#X msg 543 78 100;
#X obj 543 132 until;
#X obj 301 187 f;
#X obj 331 187 + 1;
#X msg 316 166 0;
#X obj 316 146 r RUN;
#X obj 249 105 mod 10;
#X obj 301 122 sel 0;
#X obj 40 88 r NEXT;
#X obj 55 134 t b b;
#X msg 92 285 stop;
#X obj 40 197 t f f;
#X obj 249 135 == 9;
#X obj 249 164 change;
#X obj 249 188 sel 0 1;
#X msg 249 209 999;
#X obj 92 245 r STOP;
#X obj 70 407 r STOP;
#X msg 70 429 0;
#X msg 268 235 1200;
#X obj 301 210 s NB_LIGNES;
#X obj 303 94 s NB_PIXELS;
#X floatatom 124 123 5 0 0 0 - - -;
#X floatatom 279 63 5 0 0 0 - - -;
#X floatatom 331 236 5 0 0 0 - - -;
#X connect 4 0 3 0;
#X connect 5 0 4 0;
#X connect 7 0 41 0;
#X connect 8 0 19 0;
#X connect 9 0 19 0;
#X connect 16 0 39 0;
#X connect 18 0 19 0;
#X connect 18 1 20 0;
#X connect 19 0 0 0;
#X connect 20 0 1 0;
#X connect 21 0 18 0;
#X connect 22 0 20 0;
#X connect 23 0 20 0;
#X connect 24 0 25 0;
#X connect 24 0 27 0;
#X connect 25 0 24 1;
#X connect 26 0 24 1;
#X connect 27 0 31 0;
#X connect 28 0 26 0;
#X connect 29 0 32 0;
#X connect 30 0 32 0;
#X connect 31 0 29 0;
#X connect 31 1 30 0;
#X connect 32 0 36 1;
#X connect 33 0 34 0;
#X connect 33 0 38 0;
#X connect 33 1 35 0;
#X connect 35 0 21 0;
#X connect 36 0 2 0;
#X connect 37 0 21 0;
#X connect 37 1 42 0;
#X connect 37 2 36 0;
#X connect 39 0 24 0;
#X connect 39 1 40 0;
#X connect 40 0 19 0;
#X connect 41 0 4 0;
#X connect 42 0 33 0;
#X connect 43 0 44 0;
#X connect 43 0 74 0;
#X connect 44 0 43 1;
#X connect 45 0 43 1;
#X connect 46 0 72 0;
#X connect 47 0 37 0;
#X connect 51 0 47 0;
#X connect 57 0 58 0;
#X connect 57 0 60 0;
#X connect 58 0 57 1;
#X connect 59 0 57 1;
#X connect 60 0 61 0;
#X connect 60 1 50 1;
#X connect 61 0 50 0;
#X connect 62 0 64 0;
#X connect 62 1 59 0;
#X connect 63 0 62 0;
#X connect 64 0 57 0;
#X connect 65 0 66 0;
#X connect 65 0 83 0;
#X connect 65 0 87 0;
#X connect 66 0 65 1;
#X connect 67 0 65 1;
#X connect 68 0 67 0;
#X connect 69 0 70 0;
#X connect 69 0 75 0;
#X connect 69 0 84 0;
#X connect 69 0 86 0;
#X connect 70 0 65 0;
#X connect 70 0 16 0;
#X connect 71 0 43 0;
#X connect 72 0 43 0;
#X connect 72 1 45 0;
#X connect 73 0 42 0;
#X connect 74 0 51 0;
#X connect 74 1 69 0;
#X connect 74 1 85 0;
#X connect 75 0 76 0;
#X connect 76 0 77 0;
#X connect 77 0 78 0;
#X connect 77 1 82 0;
#X connect 78 0 42 1;
#X connect 79 0 73 0;
#X connect 80 0 81 0;
#X connect 81 0 21 0;
#X connect 82 0 42 1;
#X restore 10 234 pd pixels;
#X msg 394 223 n ne se s e n ne se s e n ne se s e n n n n n e s s
s se n se se n se se n se se s se w w w w w w w w w w w;
#X text 391 201 dessin USINES;
#N canvas 49 77 972 653 pixels 0;
#X obj 40 558 outlet;
#X obj 118 555 outlet;
#X obj 476 533 outlet;
#X obj 683 579 outlet;
#X obj 40 383 f;
#X obj 66 383 + 1;
#X floatatom 683 552 5 0 0 0 - - -;
#X floatatom 118 530 5 0 0 0 - - -;
#X msg 698 529 20;
#X obj 40 407 mod 2;
#X obj 40 430 sel 0 1;
#X obj 116 478 loadbang;
#X msg 438 495 12;
#X msg 438 516 -12;
#X msg 476 476 -220;
#X obj 683 487 loadbang;
#X msg 683 509 300;
#X msg 5 532 12;
#X msg 5 556 -12;
#X text 47 16 Position de départ : rayon en haut à droite \; --------------------------------------------
;
#X obj 40 127 f;
#X obj 66 127 + 1;
#X obj 40 158 hradio 15 1 0 8 empty empty empty 0 -8 0 10 -262144 -1
-1 7;
#X obj 403 303 % 2;
#X obj 476 418 sel 0 1;
#X floatatom 442 307 5 0 0 0 - - -;
#X obj 40 97 bng 15 250 50 0 empty empty empty 17 7 0 10 -262144 -1
-1;
#X obj 40 179 t f f b;
#X msg 66 90 0;
#X obj 387 35 bng 30 250 50 0 empty empty RUN 17 7 0 10 -4034 -1 -1
;
#X msg 340 332 stop;
#X obj 755 51 bng 40 250 50 0 STOP STOP-in STOP 0 -8 0 20 -258113 -1
-258113;
#X obj 150 63 r STOP;
#X obj 95 97 s OK;
#X text 117 311 6000/250 = 24 allers/retours;
#X obj 734 195 nbx 5 30 -1e+37 1e+37 0 0 empty NB_PIXELS PIXELS 0 -8
0 20 -262144 -1 -1 1 256;
#N canvas 237 357 450 300 drip 0;
#X obj 81 211 tgl 15 0 empty empty pixel_N/B 17 7 0 10 -262144 -1 -1
0 1;
#X floatatom 82 159 5 0 0 0 - - -;
#X obj 82 183 spigot;
#X obj 205 110 r STOP;
#X msg 198 147 0;
#X obj 144 152 r OK;
#X msg 140 179 1;
#X obj 196 177 t b f f;
#X msg 104 112 0;
#X obj 81 38 inlet;
#X obj 86 246 outlet;
#X obj 81 135 drip 6000;
#X obj 262 191 f;
#X obj 288 191 + 1;
#X msg 324 157 0;
#X obj 265 165 bng 15 250 50 0 empty empty empty 17 7 0 10 -262144
-1 -1;
#X obj 325 135 r STOP;
#X obj 316 239 s NB_PIXELS;
#X obj 314 215 + 1;
#X connect 0 0 10 0;
#X connect 1 0 2 0;
#X connect 2 0 0 0;
#X connect 3 0 4 0;
#X connect 4 0 7 0;
#X connect 5 0 6 0;
#X connect 6 0 2 1;
#X connect 7 0 8 0;
#X connect 7 1 0 0;
#X connect 7 2 2 1;
#X connect 8 0 11 0;
#X connect 9 0 11 0;
#X connect 11 0 1 0;
#X connect 11 0 15 0;
#X connect 12 0 13 0;
#X connect 12 0 18 0;
#X connect 13 0 12 1;
#X connect 14 0 12 1;
#X connect 15 0 12 0;
#X connect 16 0 14 0;
#X connect 18 0 17 0;
#X restore 40 239 pd drip;
#X obj 40 276 tgl 15 0 empty empty pixel_N/B 17 7 0 10 -262144 -1 -1
0 1;
#X obj 371 419 delay 800;
#X text 94 423 début 0 : montee \; fin 1 : descente;
#X obj 734 136 nbx 5 30 -1e+37 1e+37 0 0 empty NB_LIGNES LIGNES 0 -8
0 20 -262144 -1 -1 61 256;
#X msg 118 500 25;
#X obj 649 485 r OK;
#X msg 104 371 0;
#X obj 40 305 t f f;
#X obj 103 350 sel 1;
#N canvas 204 269 450 300 SEQUENCES 0;
#X msg 39 133 0 0 1 0 0 0 0 0 1 0 0;
#X msg 181 130 1 1 0 1 1 1 1 1 0 1 1;
#X obj 42 94 sel 0 1 2 3 4 5 6;
#X msg 327 128 0 0 1 0 0 1 0 0 1 0 0 1;
#X msg 355 157 1 1 0 1 1 0 1 1 0 1 0;
#X obj 39 198 t a;
#X obj 68 59 inlet int;
#X obj 88 260 outlet list;
#X connect 0 0 5 0;
#X connect 1 0 5 0;
#X connect 2 0 0 0;
#X connect 2 1 1 0;
#X connect 2 2 3 0;
#X connect 2 3 4 0;
#X connect 3 0 5 0;
#X connect 4 0 5 0;
#X connect 5 0 7 0;
#X connect 6 0 2 0;
#X restore 40 212 pd SEQUENCES;
#X obj 133 130 s NB_LIGNES;
#X obj 133 109 + 1;
#X text 734 98 11 lignes x 11 pixels;
#X obj 340 312 r STOP;
#X obj 45 69 t b b b b;
#X obj 345 397 t b b;
#X obj 372 442 s NEXT;
#X obj 210 96 r NEXT;
#X msg 605 474 220;
#X obj 346 375 delay 66100;
#X obj 403 334 t f b;
#X msg 66 521 4;
#X obj 308 155 t f b b;
#X obj 406 238 * 1;
#X msg 302 214 0;
#X msg 306 114 0;
#X msg 335 115 1;
#X msg 445 116 1;
#X msg 419 113 -1;
#X obj 280 114 bng 15 250 50 0 empty empty empty 17 7 0 10 -262144
-1 -1;
#X obj 435 202 bng 15 250 50 0 empty empty empty 17 7 0 10 -262144
-1 -1;
#X msg 70 478 -4;
#X msg 40 480 4;
#X msg 390 207 4;
#X obj 416 172 delay 1200;
#X obj 40 337 metro 151;
#X msg 172 517 100;
#X obj 299 460 bng 15 250 50 0 empty empty empty 17 7 0 10 -262144
-1 -1;
#X msg 275 485 -8;
#X msg 316 483 8;
#X connect 4 0 5 0;
#X connect 4 0 9 0;
#X connect 5 0 4 1;
#X connect 6 0 3 0;
#X connect 7 0 1 0;
#X connect 8 0 6 0;
#X connect 9 0 10 0;
#X connect 10 0 69 0;
#X connect 10 1 68 0;
#X connect 11 0 41 0;
#X connect 12 0 2 0;
#X connect 13 0 2 0;
#X connect 14 0 2 0;
#X connect 15 0 16 0;
#X connect 16 0 6 0;
#X connect 17 0 0 0;
#X connect 18 0 0 0;
#X connect 20 0 21 0;
#X connect 20 0 22 0;
#X connect 20 0 48 0;
#X connect 21 0 20 1;
#X connect 22 0 27 0;
#X connect 23 0 25 0;
#X connect 23 0 57 0;
#X connect 24 0 14 0;
#X connect 24 1 55 0;
#X connect 26 0 20 0;
#X connect 27 0 46 0;
#X connect 27 1 23 0;
#X connect 28 0 20 1;
#X connect 29 0 51 0;
#X connect 30 0 56 0;
#X connect 32 0 28 0;
#X connect 36 0 37 0;
#X connect 37 0 44 0;
#X connect 38 0 53 0;
#X connect 41 0 7 0;
#X connect 42 0 16 0;
#X connect 43 0 4 1;
#X connect 44 0 72 0;
#X connect 44 1 45 0;
#X connect 45 0 43 0;
#X connect 46 0 36 0;
#X connect 48 0 47 0;
#X connect 50 0 30 0;
#X connect 51 0 26 0;
#X connect 51 1 28 0;
#X connect 51 2 33 0;
#X connect 52 0 68 0;
#X connect 52 1 38 0;
#X connect 54 0 26 0;
#X connect 55 0 2 0;
#X connect 56 0 52 0;
#X connect 57 0 24 0;
#X connect 57 1 56 0;
#X connect 58 0 0 0;
#X connect 59 0 37 0;
#X connect 59 1 70 0;
#X connect 59 2 71 0;
#X connect 60 0 2 0;
#X connect 61 0 37 0;
#X connect 62 0 59 0;
#X connect 63 0 59 0;
#X connect 64 0 60 1;
#X connect 65 0 60 1;
#X connect 66 0 68 0;
#X connect 68 0 0 0;
#X connect 69 0 0 0;
#X connect 70 0 60 0;
#X connect 71 0 61 0;
#X connect 71 0 67 0;
#X connect 72 0 4 0;
#X connect 73 0 7 0;
#X connect 73 0 6 0;
#X connect 74 0 75 0;
#X connect 74 0 76 0;
#X connect 75 0 0 0;
#X connect 76 0 2 0;
#X restore 624 131 pd pixels;
#N canvas 501 375 450 300 visualisation 0;
#X obj 61 57 inlet;
#X obj 117 57 inlet;
#X obj 183 53 inlet;
#X obj 239 53 inlet;
#X restore 425 456 pd visualisation;
#X connect 1 0 2 0;
#X connect 2 0 5 0;
#X connect 5 0 11 0;
#X connect 5 1 11 1;
#X connect 5 2 11 2;
#X connect 5 3 11 3;
#X connect 6 0 2 0;
#X connect 7 0 5 0;
#X connect 10 0 7 0;
#X connect 10 0 5 0;
#X connect 11 0 12 0;
#X connect 11 1 12 1;
#X connect 11 2 12 2;
#X connect 11 3 12 3;
#X connect 11 4 12 4;
#X connect 11 5 12 5;
#X connect 11 6 12 6;
#X connect 11 7 12 7;
#X connect 13 0 11 4;
#X connect 15 0 11 0;
#X connect 15 1 11 1;
#X connect 15 2 11 2;
#X connect 15 3 11 3;
#X connect 17 0 11 0;
#X connect 17 1 11 1;
#X connect 17 2 11 2;
#X connect 17 3 11 3;
#X connect 18 0 2 0;
