#N canvas 49 180 1164 692 10;
#X declare -path ../in -path ../out -path ../tools -path ../filters
-path ../lib;
#X obj -25 187 cnv 1 396 1 empty empty FILTERS 2 -6 1 12 -228856 -191407
0;
#N canvas 400 311 645 287 INIT 0;
#X obj 240 100 bng 10 250 50 0 empty empty SAVE-AS -45 6 0 9 -260097
-1 -1;
#X obj 103 200 namecanvas \$0-patch-name;
#X obj 100 160 s \$0-patch-name;
#X msg 100 131 menusaveas;
#X obj 220 130 savepanel;
#X obj 220 157 s UPDATE_PATCH;
#X obj 50 33 declare -path ../in -path ../out -path ../tools -path
../filters -path ../lib;
#X text 50 4 Always use this subpatch in the presets;
#X obj 101 101 cnv 8 80 8 empty empty INIT 5 5 0 10 -233017 -66577
0;
#X connect 0 0 3 0;
#X connect 0 0 4 0;
#X connect 3 0 2 0;
#X connect 4 0 5 0;
#X coords 0 -1 1 1 150 10 2 100 100;
#X restore 625 -2 pd INIT;
#X obj -25 354 cnv 1 800 1 empty empty OUT 2 -6 1 12 -228856 -191407
0;
#X obj -25 63 cnv 1 800 1 empty empty IN 2 -6 1 12 -228856 -191407
0;
#X obj -25 187 cnv 1 800 1 empty empty TOOLS 400 -6 1 12 -228856 -191407
0;
#X obj 301 476 arduino-out;
#X msg 376 343 1 0 0 1;
#X msg 435 344 1 1 0 0;
#X msg 495 345 0 1 1 0;
#X msg 556 346 0 0 1 1;
#X obj 393 387 unpack f f f f;
#X obj 377 303 sel 0 1 2 3;
#X obj 356 218 seq-counter2;
#X floatatom 564 387 5 0 0 0 - - -;
#X msg 602 164 mode 1;
#X msg 651 165 mode 2;
#X obj 378 279 % 4;
#X msg 780 240 max \$1;
#X floatatom 510 290 5 0 0 0 - - -;
#X obj 592 309 sel 1;
#X msg 698 299 onoff 0;
#X floatatom 867 224 5 0 0 0 - - -;
#X floatatom 756 67 5 0 0 0 - - -;
#X obj 343 425 fade 100;
#X obj 402 425 fade 100;
#X obj 459 425 fade 100;
#X obj 519 425 fade 100;
#X msg 680 345 0 0 0 0;
#X obj 602 120 > 0;
#X obj 651 122 < 0;
#X obj 481 106 bang;
#X msg 481 128 onoff 1;
#X obj 602 142 sel 1;
#X obj 651 143 sel 1;
#X msg 355 49 time 30 \, step 1 \, min 0 \, max 4 \, onoff 1;
#X text 609 385 << double du tempo du metro;
#X msg 888 32 10;
#X msg 844 29 -10;
#X msg 925 32 1;
#X msg 969 35 100;
#X msg 956 70 -1;
#X msg 1007 33 -100;
#X obj 867 203 * 1;
#X obj 742 89 t f b;
#X msg 708 195 mode 0;
#X connect 6 0 10 0;
#X connect 7 0 10 0;
#X connect 8 0 10 0;
#X connect 9 0 10 0;
#X connect 10 0 23 0;
#X connect 10 1 24 0;
#X connect 10 2 25 0;
#X connect 10 3 26 0;
#X connect 11 0 6 0;
#X connect 11 1 7 0;
#X connect 11 2 8 0;
#X connect 11 3 9 0;
#X connect 12 0 16 0;
#X connect 12 0 18 0;
#X connect 13 0 26 1;
#X connect 13 0 25 1;
#X connect 13 0 24 1;
#X connect 13 0 23 1;
#X connect 14 0 12 0;
#X connect 15 0 12 0;
#X connect 16 0 11 0;
#X connect 17 0 12 0;
#X connect 18 0 19 0;
#X connect 19 0 20 0;
#X connect 19 0 27 0;
#X connect 20 0 12 0;
#X connect 21 0 17 0;
#X connect 21 0 19 1;
#X connect 22 0 43 0;
#X connect 23 0 5 7;
#X connect 24 0 5 8;
#X connect 25 0 5 9;
#X connect 26 0 5 10;
#X connect 27 0 10 0;
#X connect 28 0 32 0;
#X connect 29 0 33 0;
#X connect 30 0 31 0;
#X connect 31 0 12 0;
#X connect 32 0 14 0;
#X connect 33 0 15 0;
#X connect 34 0 12 0;
#X connect 36 0 22 0;
#X connect 37 0 22 0;
#X connect 38 0 22 0;
#X connect 39 0 22 0;
#X connect 40 0 22 0;
#X connect 41 0 22 0;
#X connect 42 0 21 0;
#X connect 43 0 29 0;
#X connect 43 0 28 0;
#X connect 43 0 42 0;
#X connect 43 1 30 0;
#X connect 43 1 44 0;
#X connect 44 0 12 0;
