#N canvas 34 73 1244 806 10;
#X declare -path ../in -path ../out -path ../tools -path ../filters
-path ../lib;
#N canvas 400 311 645 287 INIT 0;
#X obj 240 100 bng 10 250 50 0 empty empty SAVE-AS -45 6 0 9 -260097
-1 -1;
#X obj 103 200 namecanvas \$0-patch-name;
#X obj 100 160 s \$0-patch-name;
#X msg 100 131 menusaveas;
#X obj 220 130 savepanel;
#X obj 220 157 s UPDATE_PATCH;
#X obj 50 33 declare -path ../in -path ../out -path ../tools -path
../filters -path ../lib;
#X text 50 4 Always use this subpatch in the presets;
#X obj 101 101 cnv 8 80 8 empty empty INIT 5 5 0 10 -233017 -66577
0;
#X connect 0 0 3 0;
#X connect 0 0 4 0;
#X connect 3 0 2 0;
#X connect 4 0 5 0;
#X coords 0 -1 1 1 150 10 2 100 100;
#X restore 625 -2 pd INIT;
#X obj 8 676 arduino-out;
#X msg 85 489 10;
#X floatatom 147 29 5 0 0 0 - - -;
#X obj 147 50 vsl 15 128 0 127 0 0 empty empty empty 0 -9 0 10 -262144
-1 -1 0 1;
#X obj 133 261 -;
#X floatatom 98 417 5 0 0 0 - - -;
#X obj -4 156 bng 15 250 50 0 empty empty empty 17 7 0 10 -262144 -1
-1;
#X obj -4 108 tgl 15 0 empty empty empty 17 7 0 10 -262144 -1 -1 0
1;
#X msg 53 489 -20;
#N canvas 366 195 779 687 STEPPER_ 0;
#X obj 159 513 sel 0 1 2 3;
#X msg 99 544 0 0 0 0;
#X obj 159 578 unpack f f f f;
#X obj 125 349 f;
#X obj 155 349 + 1;
#X obj 181 412 sel;
#X msg 181 444 0;
#X obj 99 259 tgl 15 0 empty empty empty 17 7 0 10 -262144 -1 -1 0
1;
#X obj 99 499 sel 0;
#X obj 196 365 - 1;
#X msg 140 224 0;
#X msg 99 221 1;
#X obj 125 378 t f f;
#X obj 196 340 abs;
#X obj 285 511 sel 3 2 1 0;
#X obj 179 160 t b f f b;
#X obj 252 452 gate 2;
#X obj 252 415 + 1;
#X obj 179 99 inlet float;
#X obj 158 617 outlet;
#X obj 201 617 outlet;
#X obj 245 617 outlet;
#X obj 288 617 outlet;
#X text 185 73 nb of steps;
#X text 327 270 4 steps ?;
#X obj 293 269 * 4;
#X text 303 486 rotation direction;
#X obj 285 409 mod 4;
#X msg 221 131 10;
#X obj 99 522 del 1;
#X obj 125 290 metro 20;
#X obj 318 105 inlet time;
#X obj 251 378 < 0;
#X obj 496 616 outlet enable;
#X obj 486 538 f;
#X obj 523 539 + 1;
#X obj 486 559 % 2;
#X obj 486 581 sel 1;
#X msg 159 541 1 0 1 0;
#X msg 211 542 0 1 1 0;
#X msg 266 542 0 1 0 1;
#X msg 321 542 1 0 0 1;
#X connect 0 0 38 0;
#X connect 0 1 39 0;
#X connect 0 2 40 0;
#X connect 0 3 41 0;
#X connect 1 0 2 0;
#X connect 2 0 19 0;
#X connect 2 1 20 0;
#X connect 2 2 21 0;
#X connect 2 3 22 0;
#X connect 3 0 4 0;
#X connect 3 0 12 0;
#X connect 4 0 3 1;
#X connect 5 0 6 0;
#X connect 6 0 7 0;
#X connect 7 0 8 0;
#X connect 7 0 30 0;
#X connect 8 0 29 0;
#X connect 9 0 5 1;
#X connect 10 0 7 0;
#X connect 10 0 3 1;
#X connect 11 0 7 0;
#X connect 12 0 27 0;
#X connect 12 1 5 0;
#X connect 13 0 9 0;
#X connect 14 0 38 0;
#X connect 14 1 39 0;
#X connect 14 2 40 0;
#X connect 14 3 41 0;
#X connect 15 0 11 0;
#X connect 15 1 13 0;
#X connect 15 2 32 0;
#X connect 15 3 10 0;
#X connect 16 0 0 0;
#X connect 16 1 14 0;
#X connect 17 0 16 0;
#X connect 18 0 15 0;
#X connect 27 0 16 1;
#X connect 28 0 15 0;
#X connect 29 0 1 0;
#X connect 29 0 34 0;
#X connect 30 0 3 0;
#X connect 31 0 30 1;
#X connect 32 0 17 0;
#X connect 34 0 35 0;
#X connect 34 0 36 0;
#X connect 35 0 34 1;
#X connect 36 0 37 0;
#X connect 37 0 33 0;
#X connect 38 0 2 0;
#X connect 39 0 2 0;
#X connect 40 0 2 0;
#X connect 41 0 2 0;
#X restore 125 506 pd STEPPER_;
#X obj 132 236 t f f;
#X obj 132 209 f;
#X obj 98 441 sel 0;
#X msg 13 489 -100;
#X obj -4 132 metro 200;
#X floatatom 47 102 5 0 0 0 - - -;
#X obj 152 316 /;
#X obj 133 283 t f b f;
#X obj 47 61 loadbang;
#X floatatom 162 366 5 0 0 0 - - -;
#X obj 176 301 abs;
#X obj 153 342 sel 0;
#X obj 161 385 moses 10;
#X msg 47 80 500;
#X obj 188 411 i;
#X obj 393 207 -;
#X obj 392 182 t f f;
#X obj 392 155 f;
#X obj 393 235 route 0;
#X obj 346 89 bng 15 250 50 0 empty empty empty 17 7 0 10 -261234 -1
-1;
#X obj 981 185 tabwrite sequence;
#N canvas 0 0 450 300 (subpatch) 0;
#X array sequence 10 float 3;
#A 0 0 20 100 10 15 20 2 100 200 100;
#X coords 0 1 10 300 200 140 1 0 0;
#X restore 976 232 graph;
#X obj 1106 163 count 10;
#X obj 1091 133 t f b;
#X obj 986 116 drip;
#X msg 1102 96 reset;
#X obj 392 133 tabread sequence;
#X obj 392 104 count 10;
#X msg 392 80 reset;
#X floatatom 504 155 5 0 0 0 - - -;
#X obj 278 203 spigot;
#X obj 319 204 tgl 15 0 empty empty empty 17 7 0 10 -257985 -1 -1 0
1;
#X obj 346 167 sel 9;
#X floatatom 504 135 5 0 0 0 - - -;
#X msg 346 186 0;
#X floatatom 504 228 5 0 0 0 - - -;
#X floatatom 237 440 5 0 0 0 - - -;
#X msg 19 438 202;
#X msg 35 404 -202;
#X msg -19 489 100;
#X msg 62 524 -20;
#N canvas 366 195 779 687 STEPPER_ 0;
#X obj 159 513 sel 0 1 2 3;
#X msg 99 544 0 0 0 0;
#X obj 159 578 unpack f f f f;
#X obj 125 349 f;
#X obj 155 349 + 1;
#X obj 181 412 sel;
#X msg 181 444 0;
#X obj 99 259 tgl 15 0 empty empty empty 17 7 0 10 -262144 -1 -1 0
1;
#X obj 99 499 sel 0;
#X obj 196 365 - 1;
#X msg 140 224 0;
#X msg 99 221 1;
#X obj 125 378 t f f;
#X obj 196 340 abs;
#X obj 285 511 sel 3 2 1 0;
#X obj 179 160 t b f f b;
#X obj 252 452 gate 2;
#X obj 252 415 + 1;
#X obj 179 99 inlet float;
#X obj 158 617 outlet;
#X obj 201 617 outlet;
#X obj 245 617 outlet;
#X obj 288 617 outlet;
#X text 185 73 nb of steps;
#X text 327 270 4 steps ?;
#X obj 293 269 * 4;
#X text 303 486 rotation direction;
#X obj 285 409 mod 4;
#X msg 221 131 10;
#X obj 99 522 del 1;
#X obj 125 290 metro 20;
#X obj 318 105 inlet time;
#X obj 251 378 < 0;
#X obj 496 616 outlet enable;
#X obj 486 538 f;
#X obj 523 539 + 1;
#X obj 486 559 % 2;
#X obj 486 581 sel 1;
#X msg 159 541 1 0 1 0;
#X msg 211 542 0 1 1 0;
#X msg 266 542 0 1 0 1;
#X msg 321 542 1 0 0 1;
#X connect 0 0 38 0;
#X connect 0 1 39 0;
#X connect 0 2 40 0;
#X connect 0 3 41 0;
#X connect 1 0 2 0;
#X connect 2 0 19 0;
#X connect 2 1 20 0;
#X connect 2 2 21 0;
#X connect 2 3 22 0;
#X connect 3 0 4 0;
#X connect 3 0 12 0;
#X connect 4 0 3 1;
#X connect 5 0 6 0;
#X connect 6 0 7 0;
#X connect 7 0 8 0;
#X connect 7 0 30 0;
#X connect 8 0 29 0;
#X connect 9 0 5 1;
#X connect 10 0 7 0;
#X connect 10 0 3 1;
#X connect 11 0 7 0;
#X connect 12 0 27 0;
#X connect 12 1 5 0;
#X connect 13 0 9 0;
#X connect 14 0 38 0;
#X connect 14 1 39 0;
#X connect 14 2 40 0;
#X connect 14 3 41 0;
#X connect 15 0 11 0;
#X connect 15 1 13 0;
#X connect 15 2 32 0;
#X connect 15 3 10 0;
#X connect 16 0 0 0;
#X connect 16 1 14 0;
#X connect 17 0 16 0;
#X connect 18 0 15 0;
#X connect 27 0 16 1;
#X connect 28 0 15 0;
#X connect 29 0 1 0;
#X connect 29 0 34 0;
#X connect 30 0 3 0;
#X connect 31 0 30 1;
#X connect 32 0 17 0;
#X connect 34 0 35 0;
#X connect 34 0 36 0;
#X connect 35 0 34 1;
#X connect 36 0 37 0;
#X connect 37 0 33 0;
#X connect 38 0 2 0;
#X connect 39 0 2 0;
#X connect 40 0 2 0;
#X connect 41 0 2 0;
#X restore 6 546 pd STEPPER_;
#X msg 22 524 -100;
#X msg -10 524 100;
#X msg 94 524 10;
#X floatatom 233 503 5 0 0 0 - - -;
#N canvas 407 490 769 397 compteur 0;
#X obj 373 282 f;
#X obj 399 282 + 1;
#X obj 327 250 tgl 15 0 empty empty empty 17 7 0 10 -262144 -1 -1 0
1;
#X obj 373 326 % 10;
#X obj 391 364 sel 11;
#X msg 559 233 -1;
#X msg 379 180 1;
#X msg 378 206 0;
#X obj 533 163 f;
#X obj 533 185 > 0;
#X obj 533 206 sel 1;
#X msg 529 233 1;
#X obj 482 300 abs;
#X msg 423 245 0;
#X obj 425 154 t f f;
#X obj 511 313 - 1;
#X obj 313 355 + 500000;
#X obj 345 250 metro 30;
#X obj 535 69 inlet step;
#X obj 387 435 outlet stop;
#X obj 275 411 outlet compte;
#X obj 642 69 inlet metro;
#X obj 377 405 bang;
#X obj 439 408 bng 15 250 50 0 empty empty empty 17 7 0 10 -262144
-1 -1;
#X floatatom 275 341 5 0 0 0 - - -;
#X connect 0 0 1 0;
#X connect 0 0 3 0;
#X connect 1 0 0 1;
#X connect 2 0 17 0;
#X connect 3 0 4 0;
#X connect 3 0 16 0;
#X connect 3 0 24 0;
#X connect 4 0 7 0;
#X connect 4 0 22 0;
#X connect 4 0 23 0;
#X connect 5 0 1 1;
#X connect 5 0 15 1;
#X connect 6 0 17 0;
#X connect 7 0 17 0;
#X connect 8 0 9 0;
#X connect 8 0 14 0;
#X connect 8 0 12 0;
#X connect 8 0 15 0;
#X connect 9 0 10 0;
#X connect 10 0 11 0;
#X connect 10 1 5 0;
#X connect 11 0 1 1;
#X connect 11 0 15 1;
#X connect 12 0 3 1;
#X connect 13 0 0 0;
#X connect 14 0 6 0;
#X connect 14 1 13 0;
#X connect 15 0 4 1;
#X connect 16 0 20 0;
#X connect 17 0 0 0;
#X connect 18 0 8 0;
#X connect 21 0 17 1;
#X connect 22 0 19 0;
#X restore 780 718 pd compteur;
#N canvas 201 452 909 683 MICROSTEPPER_ 0;
#X msg 99 544 0 0 0 0;
#X obj 159 577 unpack f f f f;
#X obj 125 349 f;
#X obj 155 349 + 1;
#X obj 181 412 sel;
#X msg 181 444 0;
#X obj 99 259 tgl 15 0 empty empty empty 17 7 0 10 -262144 -1 -1 0
1;
#X obj 99 499 sel 0;
#X obj 196 365 - 1;
#X msg 140 224 0;
#X msg 99 221 1;
#X obj 125 378 t f f;
#X obj 196 340 abs;
#X obj 473 491 sel 3 2 1 0;
#X obj 179 160 t b f f b;
#X obj 252 452 gate 2;
#X obj 252 415 + 1;
#X obj 179 99 inlet float;
#X obj 158 617 outlet;
#X obj 201 617 outlet;
#X obj 245 617 outlet;
#X obj 288 617 outlet;
#X text 185 73 nb of steps;
#X text 327 270 4 steps ?;
#X obj 293 269 * 4;
#X text 491 466 rotation direction;
#X obj 285 409 mod 4;
#X msg 221 131 10;
#X obj 99 522 del 1;
#X obj 125 290 metro 20;
#X obj 318 105 inlet time;
#X obj 251 378 < 0;
#X obj 496 616 outlet enable;
#X obj 486 538 f;
#X obj 523 539 + 1;
#X obj 486 559 % 2;
#X obj 486 581 sel 1;
#X msg 443 364 1 0 1 0;
#X msg 496 364 0 0 1 0;
#X msg 551 364 0 1 1 0;
#X msg 605 364 0 1 0 0;
#X msg 660 363 0 1 0 1;
#X msg 713 363 0 0 0 1;
#X msg 768 363 1 0 0 1;
#X msg 822 363 1 0 0 0;
#X obj 447 344 sel 0 1 2 3 4 5 6 7;
#X obj 452 266 metro;
#X obj 439 221 tgl 15 0 empty empty empty 17 7 0 10 -262144 -1 -1 0
1;
#X obj 446 306 count 8;
#X floatatom 499 224 5 0 0 0 - - -;
#X connect 0 0 1 0;
#X connect 1 0 18 0;
#X connect 1 1 19 0;
#X connect 1 2 20 0;
#X connect 1 3 21 0;
#X connect 2 0 3 0;
#X connect 2 0 11 0;
#X connect 3 0 2 1;
#X connect 4 0 5 0;
#X connect 5 0 6 0;
#X connect 6 0 7 0;
#X connect 6 0 29 0;
#X connect 7 0 28 0;
#X connect 8 0 4 1;
#X connect 9 0 6 0;
#X connect 9 0 2 1;
#X connect 10 0 6 0;
#X connect 11 0 26 0;
#X connect 11 1 4 0;
#X connect 12 0 8 0;
#X connect 14 0 10 0;
#X connect 14 1 12 0;
#X connect 14 2 31 0;
#X connect 14 3 9 0;
#X connect 15 1 13 0;
#X connect 16 0 15 0;
#X connect 17 0 14 0;
#X connect 26 0 15 1;
#X connect 27 0 14 0;
#X connect 28 0 0 0;
#X connect 28 0 33 0;
#X connect 29 0 2 0;
#X connect 30 0 29 1;
#X connect 31 0 16 0;
#X connect 33 0 34 0;
#X connect 33 0 35 0;
#X connect 34 0 33 1;
#X connect 35 0 36 0;
#X connect 36 0 32 0;
#X connect 37 0 1 0;
#X connect 38 0 1 0;
#X connect 39 0 1 0;
#X connect 40 0 1 0;
#X connect 41 0 1 0;
#X connect 42 0 1 0;
#X connect 43 0 1 0;
#X connect 44 0 1 0;
#X connect 45 0 37 0;
#X connect 45 1 38 0;
#X connect 45 2 39 0;
#X connect 45 3 40 0;
#X connect 45 4 41 0;
#X connect 45 5 42 0;
#X connect 45 6 43 0;
#X connect 45 7 44 0;
#X connect 46 0 48 0;
#X connect 47 0 46 0;
#X connect 48 0 45 0;
#X connect 49 0 46 1;
#X restore 773 692 pd MICROSTEPPER_;
#N canvas 0 0 450 300 (subpatch) 0;
#X array sequence2 10 float 3;
#A 0 0 20 80 30 25 12 50 100 200 100;
#X coords 0 1 10 300 200 140 1 0 0;
#X restore 751 231 graph;
#X obj 881 162 count 10;
#X obj 866 132 t f b;
#X obj 761 115 drip;
#X msg 877 95 reset;
#X obj 560 405 -;
#X obj 559 380 t f f;
#X obj 559 353 f;
#X obj 560 433 route 0;
#X obj 513 287 bng 15 250 50 0 empty empty empty 17 7 0 10 -261234
-1 -1;
#X obj 559 302 count 10;
#X msg 559 278 reset;
#X floatatom 671 353 5 0 0 0 - - -;
#X obj 445 401 spigot;
#X obj 486 402 tgl 15 0 empty empty empty 17 7 0 10 -257985 -1 -1 0
1;
#X obj 513 365 sel 9;
#X floatatom 671 333 5 0 0 0 - - -;
#X msg 513 384 0;
#X floatatom 671 426 5 0 0 0 - - -;
#X obj 510 57 bng 15 250 50 0 empty empty empty 17 7 0 10 -262144 -1
-1;
#X obj 756 184 tabwrite sequence2;
#X obj 559 331 tabread sequence2;
#X msg 986 44 0 20 100 10 15 20 2 100;
#X msg 761 43 0 20 80 30 25 12 50 100;
#X obj 562 504 pipe 2;
#X floatatom 614 472 5 0 0 0 - - -;
#X msg 179 655 3 4 5 6 9 10 11 12;
#X obj 179 680 iter;
#X msg 221 725 symbol pwm;
#X obj 179 705 list;
#X obj 180 614 loadbang;
#X msg 221 702 symbol digital;
#N canvas 497 590 450 239 fades 0;
#X obj 36 48 inlet;
#X obj 36 82 fade 60;
#X obj 36 121 outlet;
#X obj 87 49 inlet;
#X obj 87 83 fade 60;
#X obj 87 122 outlet;
#X obj 137 48 inlet;
#X obj 137 82 fade 60;
#X obj 137 121 outlet;
#X obj 188 49 inlet;
#X obj 188 83 fade 60;
#X obj 188 122 outlet;
#X obj 253 53 inlet;
#X connect 0 0 1 0;
#X connect 1 0 2 0;
#X connect 3 0 4 0;
#X connect 4 0 5 0;
#X connect 6 0 7 0;
#X connect 7 0 8 0;
#X connect 9 0 10 0;
#X connect 10 0 11 0;
#X connect 12 0 10 1;
#X connect 12 0 7 1;
#X connect 12 0 4 1;
#X connect 12 0 1 1;
#X restore 514 689 pd fades;
#X floatatom 574 688 5 0 0 0 - - -;
#N canvas 497 590 450 239 fades 0;
#X obj 36 48 inlet;
#X obj 36 82 fade 60;
#X obj 36 121 outlet;
#X obj 87 49 inlet;
#X obj 87 83 fade 60;
#X obj 87 122 outlet;
#X obj 137 48 inlet;
#X obj 137 82 fade 60;
#X obj 137 121 outlet;
#X obj 188 49 inlet;
#X obj 188 83 fade 60;
#X obj 188 122 outlet;
#X obj 253 53 inlet;
#X connect 0 0 1 0;
#X connect 1 0 2 0;
#X connect 3 0 4 0;
#X connect 4 0 5 0;
#X connect 6 0 7 0;
#X connect 7 0 8 0;
#X connect 9 0 10 0;
#X connect 10 0 11 0;
#X connect 12 0 10 1;
#X connect 12 0 7 1;
#X connect 12 0 4 1;
#X connect 12 0 1 1;
#X restore 613 688 pd fades;
#X floatatom 673 687 5 0 0 0 - - -;
#X obj 179 634 t b b;
#X connect 2 0 10 0;
#X connect 3 0 4 0;
#X connect 4 0 12 1;
#X connect 5 0 18 0;
#X connect 6 0 13 0;
#X connect 7 0 12 0;
#X connect 8 0 15 0;
#X connect 9 0 10 0;
#X connect 10 0 1 8;
#X connect 10 1 1 9;
#X connect 10 2 1 10;
#X connect 10 3 1 11;
#X connect 10 4 41 0;
#X connect 11 0 5 1;
#X connect 11 1 5 0;
#X connect 12 0 11 0;
#X connect 13 1 10 0;
#X connect 14 0 10 0;
#X connect 15 0 7 0;
#X connect 16 0 15 1;
#X connect 16 0 17 0;
#X connect 17 0 22 0;
#X connect 18 0 6 0;
#X connect 18 1 17 0;
#X connect 18 2 21 0;
#X connect 19 0 24 0;
#X connect 20 0 23 0;
#X connect 21 0 17 1;
#X connect 22 1 20 0;
#X connect 23 1 25 0;
#X connect 24 0 16 0;
#X connect 25 0 10 1;
#X connect 26 0 29 0;
#X connect 26 0 46 0;
#X connect 27 0 26 1;
#X connect 27 1 26 0;
#X connect 28 0 27 0;
#X connect 29 1 10 0;
#X connect 30 0 38 0;
#X connect 33 0 31 1;
#X connect 34 0 31 0;
#X connect 34 1 33 0;
#X connect 35 0 34 0;
#X connect 36 0 33 0;
#X connect 37 0 28 0;
#X connect 37 0 40 0;
#X connect 38 0 37 0;
#X connect 38 0 43 0;
#X connect 38 0 44 0;
#X connect 39 0 38 0;
#X connect 41 0 30 0;
#X connect 42 0 41 1;
#X connect 43 0 45 0;
#X connect 47 0 10 1;
#X connect 47 0 52 1;
#X connect 48 0 10 0;
#X connect 49 0 10 0;
#X connect 50 0 10 0;
#X connect 51 0 52 0;
#X connect 52 0 1 2;
#X connect 52 1 1 3;
#X connect 52 2 1 4;
#X connect 52 3 1 5;
#X connect 52 4 72 0;
#X connect 53 0 52 0;
#X connect 54 0 52 0;
#X connect 55 0 52 0;
#X connect 56 0 52 1;
#X connect 60 0 79 1;
#X connect 61 0 79 0;
#X connect 61 1 60 0;
#X connect 62 0 61 0;
#X connect 63 0 60 0;
#X connect 64 0 67 0;
#X connect 64 0 77 0;
#X connect 65 0 64 1;
#X connect 65 1 64 0;
#X connect 66 0 65 0;
#X connect 67 1 83 0;
#X connect 68 0 69 0;
#X connect 69 0 74 0;
#X connect 69 0 75 0;
#X connect 69 0 80 0;
#X connect 70 0 69 0;
#X connect 72 0 68 0;
#X connect 73 0 72 1;
#X connect 74 0 76 0;
#X connect 78 0 30 0;
#X connect 78 0 68 0;
#X connect 80 0 66 0;
#X connect 80 0 71 0;
#X connect 81 0 35 0;
#X connect 81 0 36 0;
#X connect 82 0 62 0;
#X connect 82 0 63 0;
#X connect 83 0 52 0;
#X connect 84 0 83 1;
#X connect 85 0 86 0;
#X connect 86 0 88 0;
#X connect 87 0 88 1;
#X connect 88 0 1 17;
#X connect 89 0 95 0;
#X connect 90 0 88 1;
#X connect 92 0 91 4;
#X connect 94 0 93 4;
#X connect 95 0 85 0;
#X connect 95 1 90 0;
