#N canvas 505 106 949 663 10;
#N canvas 0 50 1440 617 inside 0;
#X obj 184 354 pix_texture;
#X obj 182 380 square 4;
#X obj 149 288 shader setup;
#X obj 401 138 gemhead;
#X obj 402 188 nFBO;
#X obj 402 270 pix_texture;
#X obj 404 302 square 4;
#X obj 402 164 separator;
#X obj 492 80 separator;
#X obj 493 100 nFBO;
#X obj 492 118 pix_texture;
#X obj 491 139 square 4;
#X obj 146 249 nFBO;
#X obj 149 181 tgl 15 0 empty empty empty 17 7 0 10 -262144 -1 -1 0
1;
#X obj 148 212 gemhead 10;
#X obj 488 16 tgl 15 0 empty empty empty 17 7 0 10 -262144 -1 -1 0
1;
#X obj 366 74 == 0;
#X obj 38 446 nVBO;
#X obj 244 541 table mX 1e+06;
#X obj 141 528 s mX;
#X obj 141 487 counter;
#X obj 138 464 repeat 1e+06;
#X msg 141 507 \$1 \$1;
#X obj 40 203 gemhead;
#X obj 38 301 pix_texture;
#X obj 719 81 prepend mouse;
#X obj 714 62 pack;
#X msg 120 402 resize 1e+06 \, draw point \, posX mX;
#X obj 493 55 gemhead 80;
#X msg 108 50 quality 0;
#X msg 90 136 quality 0;
#X obj 754 111 prepend mouseDown;
#X obj 760 57 * -1;
#X obj 720 -14 gemmouse 2 2;
#X obj 757 19 - 1;
#X obj 724 25 - 1;
#X obj 40 241 alpha 1;
#X msg 181 43 format RGBA32 \, dimen 1000 1000;
#X msg 282 285 ran 0.2 \, size 1e+06;
#X obj 181 20 loadbang;
#X obj 101 352 loadbang;
#X obj 109 376 t b b;
#X obj 402 243 pix_texture;
#X msg 557 77 texunit 1 \, quality 0;
#X obj 562 55 loadbang;
#X obj 402 218 shader calc;
#X obj 39 271 shader draw;
#X msg 123 269 size 1000 \, ptSize 1;
#X obj 887 81 inlet;
#X obj 885 124 route reset parameters ptSize ptNbr;
#X obj 1038 166 pow 0.5;
#X obj 1036 213 prepend size;
#X obj 978 182 prepend ptSize;
#X obj 119 228 t b a;
#X msg 118 252 0;
#X msg 509 34 0;
#X obj 509 16 loadbang;
#N canvas 749 81 691 335 GEMglPoint 0;
#X obj 360 76 inlet;
#X obj 363 240 outlet;
#X obj 362 99 GEMglEnable 34370;
#X obj 360 125 GEMglEnable 34913;
#X obj 275 115 GLdefine;
#X floatatom 276 158 5 0 0 0 - - -, f 5;
#X msg 262 9 GL_TEXTURE_RECTANGLE_EXT;
#X msg 292 54 GL_DEPTH_TEST;
#X obj 358 163 GEMglTexEnvf 34913 34914 0;
#X obj 28 244 GLdefine;
#X msg 26 181 GL_PROGRAM_POINT_SIZE_EXT;
#X msg -4 124 GL_POINT_SPRITE_COORD_ORIGIN;
#X msg 41 95 GL_UPPER_LEFT;
#X msg -2 211 GL_PROGRAM_POINT_SIZE_EXT;
#X msg 34 62 GL_VERTEX_PROGRAM_POINT_SIZE;
#X msg 94 149 GL_POINT_SPRITE;
#X msg 98 231 GL_COORD_REPLACE;
#X floatatom 32 286 5 0 0 0 - - -, f 5;
#X msg 108 254 glMaterialfv;
#X connect 0 0 2 0;
#X connect 2 0 3 0;
#X connect 3 0 8 0;
#X connect 4 0 5 0;
#X connect 6 0 4 0;
#X connect 7 0 4 0;
#X connect 8 0 1 0;
#X connect 9 0 17 0;
#X connect 10 0 9 0;
#X connect 11 0 9 0;
#X connect 12 0 9 0;
#X connect 13 0 9 0;
#X connect 14 0 9 0;
#X connect 15 0 9 0;
#X connect 16 0 9 0;
#X connect 18 0 9 0;
#X restore 38 330 pd GEMglPoint;
#X msg 524 212 maxSpeed 5 \, reduceSpeed 0.95 \, isProp 1 \, isInverse
1 \, radius 300 \, strength 0.1 \, areaVariable 0.01 \, screw 45 \,
screwVariable 0.01 \,;
#X connect 0 0 1 0;
#X connect 2 0 0 0;
#X connect 2 1 38 0;
#X connect 3 0 7 0;
#X connect 4 0 45 0;
#X connect 4 1 10 1;
#X connect 5 0 6 0;
#X connect 7 0 4 0;
#X connect 8 0 9 0;
#X connect 9 0 10 0;
#X connect 9 1 5 1;
#X connect 9 1 24 1;
#X connect 10 0 11 0;
#X connect 12 0 2 0;
#X connect 12 1 5 1;
#X connect 13 0 14 0;
#X connect 13 0 16 0;
#X connect 14 0 53 0;
#X connect 15 0 28 0;
#X connect 16 0 28 0;
#X connect 20 0 22 0;
#X connect 21 0 20 0;
#X connect 22 0 19 0;
#X connect 23 0 36 0;
#X connect 24 0 57 0;
#X connect 25 0 45 1;
#X connect 26 0 25 0;
#X connect 27 0 17 0;
#X connect 28 0 8 0;
#X connect 29 0 0 0;
#X connect 29 0 5 0;
#X connect 29 0 10 0;
#X connect 29 0 24 0;
#X connect 30 0 24 0;
#X connect 31 0 45 1;
#X connect 32 0 26 1;
#X connect 33 0 35 0;
#X connect 33 1 34 0;
#X connect 33 2 31 0;
#X connect 34 0 32 0;
#X connect 35 0 26 0;
#X connect 36 0 46 0;
#X connect 37 0 12 0;
#X connect 37 0 4 0;
#X connect 37 0 9 0;
#X connect 38 0 2 1;
#X connect 39 0 37 0;
#X connect 39 0 29 0;
#X connect 40 0 41 0;
#X connect 41 0 27 0;
#X connect 41 1 21 0;
#X connect 42 0 5 0;
#X connect 43 0 42 0;
#X connect 44 0 43 0;
#X connect 45 0 42 0;
#X connect 45 1 58 0;
#X connect 46 0 24 0;
#X connect 46 1 47 0;
#X connect 47 0 46 1;
#X connect 48 0 49 0;
#X connect 49 0 13 0;
#X connect 49 1 45 1;
#X connect 49 2 52 0;
#X connect 49 3 50 0;
#X connect 50 0 51 0;
#X connect 51 0 46 1;
#X connect 52 0 46 1;
#X connect 53 0 54 0;
#X connect 53 1 12 0;
#X connect 54 0 13 0;
#X connect 55 0 28 0;
#X connect 56 0 55 0;
#X connect 57 0 17 0;
#X connect 58 0 45 1;
#X restore 114 375 pd inside;
#X obj 732 158 gemwin;
#X msg 735 122 create \, 1;
#X msg 836 131 destroy;
#X msg 743 80 dimen 800 600;
#X obj 112 169 prepend parameters;
#X obj 422 208 prepend reset;
#X obj 458 343 prepend ptSize;
#X obj 338 339 prepend ptNbr;
#X floatatom 337 289 5 0 1000 0 - - -, f 5;
#X floatatom 461 303 5 0 10 0 - - -, f 5;
#X obj 340 316 * 1000;
#X msg 674 124 frame 60;
#X msg 482 139 screw \$1;
#X obj 482 116 * 40;
#X obj 484 62 metro 1000;
#X obj 482 89 tgl 15 0 empty empty empty 17 7 0 10 -262144 -1 -1 0
1;
#X obj 480 43 tgl 15 0 empty empty empty 17 7 0 10 -262144 -1 -1 0
1;
#X msg 81 88 strength 0.2 \, areaVariable 0.9 \, maxSpeed 50 \, isProp
0;
#X msg 108 119 maxSpeed 5 \, reduceSpeed 0.95 \, isProp 1 \, isInverse
1 \, radius 300 \, strength 0.1 \, areaVariable 0.01 \, screw 45 \,
screwVariable 0.01 \,;
#X msg 49 59 strength 0.01 \, areaVariable 0.01;
#X obj 421 186 bng 15 250 50 0 empty empty empty 17 7 0 10 -262144
-1 -1;
#X msg 218 225 radius \$1;
#X floatatom 212 200 5 0 0 0 - - -, f 5;
#X text 197 380 look inside...;
#X text 111 34 play with variable and the mouse...;
#X text 457 179 1 reset// or not!;
#X connect 2 0 1 0;
#X connect 3 0 1 0;
#X connect 4 0 1 0;
#X connect 5 0 0 0;
#X connect 6 0 0 0;
#X connect 7 0 0 0;
#X connect 8 0 0 0;
#X connect 9 0 11 0;
#X connect 10 0 7 0;
#X connect 11 0 8 0;
#X connect 12 0 1 0;
#X connect 13 0 5 0;
#X connect 14 0 13 0;
#X connect 15 0 16 0;
#X connect 16 0 14 0;
#X connect 17 0 15 0;
#X connect 18 0 5 0;
#X connect 19 0 5 0;
#X connect 20 0 5 0;
#X connect 21 0 6 0;
#X connect 22 0 5 0;
#X connect 23 0 22 0;
