#N canvas 164 21 604 660 10;
#X obj 228 52 inlet;
#X obj 228 72 bng 15 250 50 0 empty empty empty 0 -6 0 8 -262144 -1
-1;
#X obj 239 283 * 20;
#X obj 239 303 + 60;
#X obj 228 90 once;
#X obj 388 364 outlet;
#X obj 388 341 del 20;
#X obj 228 110 f \$1;
#X obj 228 150 sel 1;
#X obj 264 187 f \$1;
#X obj 228 170 t b b;
#X obj 228 373 pack s f f;
#X obj 228 130 > 0;
#X obj 228 207 for++ 1 31 20;
#X obj 228 227 t b f f;
#N canvas 0 0 490 340 null~ 0;
#X obj 39 50 catch~ 0_AUX_SUM;
#X obj 39 87 s~ 0_AUX_SUM;
#X connect 0 0 1 0;
#X restore 48 55 pd null~;
#X text 285 73 1.arg: <float> number of AUX-SENDs;
#X obj 276 53 namecanvas \$0_aux_2_sum;
#X msg 228 395 \; \$1 obj 50 \$2 aux_2_sum~ \$3;
#X obj 228 349 symbol \$0_aux_2_sum;
#X obj 163 53 inlet~;
#X obj 171 459 outlet~;
#X connect 0 0 1 0;
#X connect 1 0 4 0;
#X connect 2 0 3 0;
#X connect 3 0 11 1;
#X connect 4 0 7 0;
#X connect 6 0 5 0;
#X connect 7 0 12 0;
#X connect 8 0 10 0;
#X connect 9 0 13 1;
#X connect 10 0 13 0;
#X connect 10 1 9 0;
#X connect 11 0 18 0;
#X connect 12 0 8 0;
#X connect 13 0 14 0;
#X connect 13 1 6 0;
#X connect 14 0 19 0;
#X connect 14 1 2 0;
#X connect 14 2 11 2;
#X connect 19 0 11 0;
