#N canvas 153 36 637 679 10;
#X obj 324 42 inlet;
#X obj 324 62 bng 15 250 50 0 empty empty empty 0 -6 0 8 -262144 -1
-1;
#X obj 335 273 * 20;
#X obj 335 293 + 60;
#X obj 531 360 outlet;
#X obj 531 337 del 20;
#X obj 324 100 f \$1;
#X obj 324 140 sel 1;
#X obj 324 160 t b b;
#X obj 324 120 > 0;
#X obj 324 197 for++ 1 31 20;
#X obj 324 217 t b f f;
#X obj 372 42 namecanvas \$0_inchbat;
#X obj 324 339 symbol \$0_inchbat;
#X obj 360 177 f \$2;
#X text 391 79 2.arg: <float> n_mix_ch;
#X text 391 70 1.arg: <float> n_in;
#X text 391 97 4.arg: <float> n_bus;
#X text 391 107 5.arg: <float> plug_in_index;
#X text 391 88 3.arg: <float> n_aux_send;
#X obj 324 363 pack s f f \$1 \$3 \$4 \$5;
#X msg 324 386 \; \$1 obj 50 \$2 IN-CH~ \$3 \$4 \$5 \$6 \$7;
#X obj 324 80 once;
#X obj 270 41 inlet~;
#X obj 263 605 outlet~;
#X connect 0 0 1 0;
#X connect 1 0 22 0;
#X connect 2 0 3 0;
#X connect 3 0 20 1;
#X connect 5 0 4 0;
#X connect 6 0 9 0;
#X connect 7 0 8 0;
#X connect 8 0 10 0;
#X connect 8 1 14 0;
#X connect 9 0 7 0;
#X connect 10 0 11 0;
#X connect 10 1 5 0;
#X connect 11 0 13 0;
#X connect 11 1 2 0;
#X connect 11 2 20 2;
#X connect 13 0 20 0;
#X connect 14 0 10 1;
#X connect 20 0 21 0;
#X connect 22 0 6 0;
