#N canvas 99 34 643 641 10;
#X obj 121 330 f;
#X obj 258 307 inlet;
#X obj 121 565 ctlout;
#X obj 117 35 ctlin;
#X text 61 19 args: <basectrl> <#-of-channel> <srname>;
#X obj 121 193 ctl2ch \$1;
#X obj 121 96 != 0;
#X obj 121 167 pack;
#X obj 121 144 f;
#X obj 141 354 change;
#X obj 121 414 for++ 1 \$2 10;
#X obj 121 480 MIDI/inchannel/ch2ctl 1 \$1;
#X msg 121 541 \$3 \$1 \$2;
#X obj 121 521 pack 0 0 0;
#X msg 186 500 0;
#X obj 207 457 f;
#X obj 207 436 t b b;
#X obj 121 381 t b b f;
#X obj 267 419 * 127;
#X obj 121 214 pack;
#X obj 121 118 t b f f;
#X obj 121 262 route 0 1;
#X msg 121 285 0;
#X msg 121 241 \$2 \$1;
#X obj 237 456 f 127;
#X obj 121 307 sendreceive_nofb \$3;
#X text 302 308 BCF does not feedback!;
#X connect 0 0 17 0;
#X connect 1 0 25 1;
#X connect 3 0 6 0;
#X connect 3 1 8 1;
#X connect 3 2 7 1;
#X connect 5 0 19 0;
#X connect 6 0 20 0;
#X connect 7 0 5 0;
#X connect 8 0 7 0;
#X connect 9 0 17 0;
#X connect 10 0 11 0;
#X connect 10 1 16 0;
#X connect 11 0 13 0;
#X connect 12 0 2 0;
#X connect 13 0 12 0;
#X connect 14 0 13 2;
#X connect 15 0 11 0;
#X connect 16 0 15 0;
#X connect 16 1 24 0;
#X connect 17 0 10 0;
#X connect 17 1 14 0;
#X connect 17 2 15 1;
#X connect 19 0 23 0;
#X connect 20 0 8 0;
#X connect 20 1 18 0;
#X connect 20 2 19 1;
#X connect 21 0 22 0;
#X connect 21 1 25 0;
#X connect 22 0 25 0;
#X connect 23 0 21 0;
#X connect 24 0 13 2;
#X connect 25 0 0 0;
