#N canvas 83 164 476 441 10;
#X msg 372 50 \; pd dsp 1;
#X msg 372 89 \; pd dsp 0;
#X obj 28 62 osc~ 200;
#N canvas 655 459 450 300 scope 0;
#X obj 55 193 inlet~;
#X obj 55 244 tabwrite~ \$0-scope;
#X obj 70 220 bang~;
#X obj 100 50 cnv 15 200 100 empty empty empty 20 12 0 14 -233017 -66577
0;
#N canvas 0 22 450 300 (subpatch) 0;
#X array \$0-scope 512 float 0;
#X coords 0 1 511 0 200 100 1 0 0;
#X restore 100 50 graph;
#X obj 246 188 inlet;
#X obj 288 188 loadbang;
#X msg 288 216 1;
#X obj 246 243 switch~ 512;
#X connect 0 0 1 0;
#X connect 2 0 1 0;
#X connect 5 0 8 0;
#X connect 6 0 7 0;
#X connect 7 0 8 0;
#X coords 0 -1 1 1 200 100 2 100 50;
#X restore 28 212 pd scope;
#N canvas 655 459 450 300 scope 0;
#X obj 55 193 inlet~;
#X obj 70 220 bang~;
#X obj 100 50 cnv 15 200 100 empty empty empty 20 12 0 14 -233017 -66577
0;
#N canvas 0 22 450 300 (subpatch) 0;
#X array \$0-scope2 512 float 0;
#X coords 0 1 511 0 200 100 1 0 0;
#X restore 100 50 graph;
#X obj 246 188 inlet;
#X obj 288 188 loadbang;
#X msg 288 216 1;
#X obj 55 243 tabwrite~ \$0-scope2;
#X obj 246 242 switch~ 512;
#X connect 0 0 7 0;
#X connect 1 0 7 0;
#X connect 4 0 8 0;
#X connect 5 0 6 0;
#X connect 6 0 8 0;
#X coords 0 -1 1 1 200 100 2 100 50;
#X restore 249 212 pd scope;
#X obj 221 177 tgl 15 1 empty empty empty 17 7 0 10 -262144 -1 -1 0
1;
#N canvas 472 219 493 331 olli~ 0;
#X obj 264 56 inlet~;
#X obj 39 237 outlet~;
#X obj 264 239 outlet~;
#X text 37 289 y[n]=b1*y[n-1]+b2*y[n-2]+a0*x[n]+a1*x[n-1]+a2*x[n-2]
;
#X text 36 270 Pd's biquad:;
#X obj 39 112 biquad~ 0 0.161758 0.161758 0 -1;
#X obj 39 141 biquad~ 0 0.733029 0.733029 0 -1;
#X obj 39 173 biquad~ 0 0.94535 0.94535 0 -1;
#X obj 39 200 biquad~ 0 0.990598 0.990598 0 -1;
#X obj 264 112 biquad~ 0 0.479401 0.479401 0 -1;
#X obj 264 142 biquad~ 0 0.876218 0.876218 0 -1;
#X obj 264 174 biquad~ 0 0.976599 0.976599 0 -1;
#X obj 264 202 biquad~ 0 0.9975 0.9975 0 -1;
#X text 91 238 first phase;
#X text 320 238 second phase;
#X text 167 238 << 90 degree >>;
#X text 40 25 Olli Niemitalo's quadrature transformer coefficients
;
#X obj 265 84 biquad~ 0 0 0 1 0;
#X connect 0 0 5 0;
#X connect 0 0 17 0;
#X connect 5 0 6 0;
#X connect 6 0 7 0;
#X connect 7 0 8 0;
#X connect 8 0 1 0;
#X connect 9 0 10 0;
#X connect 10 0 11 0;
#X connect 11 0 12 0;
#X connect 12 0 2 0;
#X connect 17 0 9 0;
#X restore 249 141 pd olli~;
#X obj 28 157 instantamp~;
#N canvas 482 189 207 232 pyth~ 0;
#X obj 38 32 inlet~;
#X obj 95 32 inlet~;
#X obj 38 82 *~;
#X obj 95 83 *~;
#X obj 38 119 sqrt~;
#X obj 38 196 outlet~;
#X obj 38 152 *~ 0.707107;
#X connect 0 0 2 0;
#X connect 0 0 2 1;
#X connect 1 0 3 0;
#X connect 1 0 3 1;
#X connect 2 0 4 0;
#X connect 3 0 4 0;
#X connect 4 0 6 0;
#X connect 6 0 5 0;
#X restore 249 169 pd pyth~;
#X obj 442 185 tgl 15 1 empty empty empty 17 7 0 10 -262144 -1 -1 1
1;
#X obj 28 91 +~;
#X obj 28 124 *~ 0.5;
#X obj 31 15 hsl 400 15 200 400 1 1 empty empty empty -2 -8 0 10 -262144
-260097 -1 20900 0;
#X floatatom 38 39 5 0 0 0 - - -;
#X obj 85 108 s~ \$0-audio;
#X obj 28 326 r~ \$0-audio;
#X obj 28 403 dac~;
#X obj 28 378 *~ 0;
#X obj 52 352 hsl 128 15 0 1 0 0 empty empty empty -2 -8 0 10 -262144
-260097 -1 0 0;
#X floatatom 64 379 5 0 0 0 - - -;
#X obj 89 62 osc~ 200;
#X text 109 392 [instantamp~]: instantaneous amplitudes through 'hilbert
transform' with coefficients of Olli Niemitalo.;
#X connect 2 0 10 0;
#X connect 5 0 3 1;
#X connect 6 0 8 0;
#X connect 6 1 8 1;
#X connect 7 0 3 0;
#X connect 8 0 4 0;
#X connect 9 0 4 1;
#X connect 10 0 11 0;
#X connect 10 0 14 0;
#X connect 11 0 7 0;
#X connect 11 0 6 0;
#X connect 12 0 13 0;
#X connect 12 0 2 0;
#X connect 15 0 17 0;
#X connect 17 0 16 0;
#X connect 17 0 16 1;
#X connect 18 0 19 0;
#X connect 18 0 17 1;
#X connect 20 0 10 1;
