#N canvas 207 83 813 684 10;
#X declare -path ../../abstractions/in -path ../../abstractions/out
-path ../../abstractions/tools -path ../../abstractions/filters -path
../../abstractions/fx-video -path ../../abstractions/fx-audio -path
../../abstractions/master;
#X declare -path abstractions/in -path abstractions/out -path abstractions/tools
-path abstractions/filters -path abstractions/fx-video -path abstractions/fx-audio
-path abstractions/master;
#N canvas 466 138 801 468 INIT 0;
#X obj 101 101 cnv 8 48 8 empty empty INCLUDE 2 4 0 10 -233017 -66577
0;
#X obj 102 261 declare -path ../../abstractions/in -path ../../abstractions/out
-path ../../abstractions/tools -path ../../abstractions/filters -path
../../abstractions/fx-video -path ../../abstractions/fx-audio -path
../../abstractions/master;
#X text 100 240 Use for standalone :;
#X text 100 140 Use with the main.pd :;
#X text 97 25 Import paths to find abstractions \; Always use it in
the examples patchs.;
#X obj 102 162 declare -path abstractions/in -path abstractions/out
-path abstractions/tools -path abstractions/filters -path abstractions/fx-video
-path abstractions/fx-audio -path abstractions/master;
#X obj 565 311 savepanel;
#X obj 565 146 route savetofile;
#X obj 565 166 unpack s s;
#X obj 565 125 iemguts/receivecanvas 1;
#X text 562 96 Get new saved file;
#X text 562 289 Or inside this abstraction ?;
#X obj 565 209 s CURRENT-FILE;
#X obj 622 189 s CURRENT-FOLDER;
#X connect 7 0 8 0;
#X connect 8 0 12 0;
#X connect 8 1 13 0;
#X connect 9 0 7 0;
#X coords 0 -1 1 1 50 10 2 100 100;
#X restore 748 662 pd INIT;
#X obj 410 7 cnv 15 380 60 empty empty empty 20 12 0 14 -233017 -66577
0;
#X obj 410 78 cnv 15 380 120 empty empty empty 20 12 0 14 -228856 -66577
0;
#X text 417 19 DESCRIPTION : Comprendre les bases de Pure Data;
#X obj 163 462 bng 15 250 50 0 empty empty empty 17 7 0 10 -261689
-1 -262144;
#X obj 116 187 print;
#X msg 80 134 truc;
#X obj 116 134 bng 15 250 50 0 empty empty empty 17 7 0 10 -262144
-1 -1;
#X floatatom 166 133 5 0 0 0 - - -;
#X obj 138 133 tgl 15 0 empty empty empty 17 7 0 10 -262144 -1 -1 0
1;
#X msg 35 133 30.33;
#X obj 163 303 tgl 15 0 empty empty empty 17 7 0 10 -262144 -1 -1 0
1;
#X obj 163 323 metro 500;
#X floatatom 214 300 5 0 0 0 - - -;
#X msg 163 400 color \$1;
#X obj 141 324 bng 15 250 50 0 empty empty empty 17 7 0 10 -262144
-1 -1;
#X text 417 79 METHODE \; 1 - Ouvrir l'aide de la Malinette "? HELP"
\; 2 - Modes \, ajouter \, connecter \, déconnecter \, déplacer \,
... \;;
#X msg 64 310 size 60;
#X obj 163 377 random 30;
#X obj 417 460 bng 15 250 50 0 empty empty empty 17 7 0 10 -261689
-1 -262144;
#X obj 417 301 tgl 15 0 empty empty empty 17 7 0 10 -262144 -1 -1 0
1;
#X obj 417 321 metro 500;
#X floatatom 468 298 5 0 0 0 - - -;
#X msg 417 398 color \$1;
#X obj 395 322 bng 15 250 50 0 empty empty empty 17 7 0 10 -262144
-1 -1;
#X obj 417 375 random 30;
#X text 412 491 Copier-coller \, dupliquer;
#X connect 6 0 5 0;
#X connect 7 0 5 0;
#X connect 8 0 5 0;
#X connect 9 0 5 0;
#X connect 10 0 5 0;
#X connect 11 0 12 0;
#X connect 12 0 15 0;
#X connect 12 0 18 0;
#X connect 13 0 12 1;
#X connect 14 0 4 0;
#X connect 17 0 4 0;
#X connect 18 0 14 0;
#X connect 20 0 21 0;
#X connect 21 0 24 0;
#X connect 21 0 25 0;
#X connect 22 0 21 1;
#X connect 23 0 19 0;
#X connect 25 0 23 0;
