#N canvas 340 181 488 271 10;
#X obj 126 27 active;
#N canvas 424 161 167 191 clic 0;
#X obj 23 17 MouseState;
#X obj 23 82 &;
#X obj 23 100 == 0;
#X obj 23 136 s \$0-SendClic;
#X obj 48 51 t b f;
#X obj 23 118 metro 200;
#X obj 94 17 inlet;
#X connect 0 0 1 0;
#X connect 1 0 2 0;
#X connect 2 0 5 0;
#X connect 4 0 1 0;
#X connect 4 1 1 1;
#X connect 5 0 3 0;
#X connect 6 0 4 0;
#X restore 126 48 pd clic;
#X obj -82 63 dac~ 1 2;
#N canvas 608 166 249 182 ARGOnOff 0;
#X obj 100 100 tgl 18 1 \$0-SendOnOff \$0-ReceiveOnOff On/Off 20 9
0 12 -4033 -1 -1 1 1;
#X obj 99 39 loadbang;
#X msg 99 62 \; pd dsp 1;
#X obj 100 129 outlet;
#X connect 0 0 3 0;
#X connect 1 0 2 0;
#X coords 0 -1 1 1 65 18 2 100 100;
#X restore 52 26 pd ARGOnOff;
#X obj 52 51 switch~;
#N canvas 148 112 547 429 ARGO 0;
#X obj 368 103 cnv 10 20 10 empty empty Play 1 5 1 14 -262144 -1 1.04858e+06
;
#X obj 101 131 cnv 4 10 4 empty empty empty 20 12 0 14 -1 -66577 0
;
#X obj 216 399 outlet~;
#X obj 261 7 openpanel;
#X msg 212 301 1;
#X msg 141 275 0;
#X msg 289 53 set \$1;
#X msg 242 326 open \$1;
#X obj 191 233 t b b;
#X msg 124 394 set 0;
#X obj 179 138 sel 1 0;
#X floatatom 230 180 5 0 0 0 - - -;
#X msg 230 157 set \$1;
#X obj 204 210 sel 1;
#X msg 173 334 set 1;
#X obj 48 5 key;
#X obj 49 28 select 32;
#X obj -11 6 loadbang;
#X obj 243 353 readsf~ 2;
#X obj 274 272 list2symbol;
#X obj 242 301 symbol;
#X obj 262 27 t b s;
#X text 369 281 avec espace;
#X text 351 269 -> pour les noms de fichier;
#X obj 151 101 tgl 12 1 \$0-SendPlay \$0-ReceivePlay Play(Space) 14
6 1 9 -262144 -1 -1 1 1;
#X obj 100 114 bng 16 250 50 0 \$0-SendOpen \$0-ReceiveOpen empty 0
0 1 9 -262144 -1 -1;
#X obj 311 101 bng 12 250 50 0 \$0-SendStop \$0-ReceiveStop Stop 14
6 1 9 -262144 -1 -1;
#X obj 249 101 tgl 12 1 \$0-SendLoop \$0-ReceiveLoop Loop 15 6 1 9
-262144 -1 -1 1 1;
#X symbolatom 117 114 46 0 0 0 - - -;
#X obj 276 401 outlet~;
#X obj 389 131 cnv 4 10 4 empty empty empty 20 12 0 14 -1 -66577 0
;
#X msg 8 147 set \$1;
#X obj -7 196 list2symbol;
#X obj -11 40 t b b;
#X obj 139 101 bng 12 250 50 0 \$0-A \$0-B empty 14 6 1 9 -262144 -1
-1;
#X obj 139 101 bng 12 250 50 0 \$0-A \$0-B empty 14 6 1 9 -262144 -1
-1;
#X obj 174 277 delay 5;
#X obj 101 101 cnv 4 10 4 empty empty empty 20 12 0 14 -1 -66577 0
;
#X obj 113 5 inlet~;
#X obj 113 28 threshold~ 0.5 5 0.49 5;
#X msg -7 172 Eau3-1sec.aiff;
#X connect 3 0 21 0;
#X connect 4 0 18 0;
#X connect 5 0 18 0;
#X connect 6 0 28 0;
#X connect 7 0 18 0;
#X connect 8 0 36 0;
#X connect 8 1 20 0;
#X connect 9 0 24 0;
#X connect 10 0 8 0;
#X connect 10 1 9 0;
#X connect 10 1 5 0;
#X connect 11 0 13 0;
#X connect 12 0 11 0;
#X connect 13 0 8 0;
#X connect 14 0 24 0;
#X connect 14 0 35 0;
#X connect 15 0 16 0;
#X connect 16 0 24 0;
#X connect 17 0 33 0;
#X connect 18 0 2 0;
#X connect 18 1 29 0;
#X connect 18 2 11 0;
#X connect 18 2 9 0;
#X connect 19 0 20 1;
#X connect 20 0 7 0;
#X connect 21 0 28 0;
#X connect 21 1 6 0;
#X connect 24 0 10 0;
#X connect 25 0 3 0;
#X connect 26 0 5 0;
#X connect 26 0 9 0;
#X connect 27 0 12 0;
#X connect 28 0 19 0;
#X connect 28 0 31 0;
#X connect 31 0 40 0;
#X connect 32 0 6 0;
#X connect 33 0 28 0;
#X connect 33 1 40 0;
#X connect 34 0 24 0;
#X connect 36 0 4 0;
#X connect 36 0 14 0;
#X connect 38 0 39 0;
#X connect 39 0 34 0;
#X connect 40 0 32 0;
#X coords 0 -1 1 1 300 36 2 100 100;
#X restore -221 -127 pd ARGO;
#X obj -288 -162 cnv 15 15 15 empty empty ExMM24b-FFTBrickWallFilter
0 8 1 14 -262144 -66577 0;
#X text -276 -130 Click ->;
#X text -270 -119 Play;
#N canvas 350 62 279 383 ARGO 0;
#X obj 101 101 cnv 20 104 34 empty ColorAmpli empty 20 12 0 14 -261299
-1 1.04858e+06;
#X obj 85 274 outlet~;
#X obj 134 104 cnv 10 20 10 empty ColorAmpli Ampli 1 5 1 14 -261299
-1 1.04858e+06;
#X obj 89 -82 inlet~;
#X obj 85 245 *~;
#X obj 103 118 hsl 101 12 0 1.25 0 1 \$0-A ColorAmpli 0dB 0 7 1 9 -261299
-1 -1 8000 0;
#X obj 100 161 pow~ 10000;
#X obj 100 201 /~ 10000;
#X msg 115 77 label \$1;
#X obj 114 54 tosymbol;
#X obj 115 -45 * 80;
#X obj 115 -23 - 80;
#X obj 114 19 sprintf %ddB;
#X obj 101 101 cnv 4 10 4 empty empty empty 20 12 0 14 -1 -66577 0
;
#X obj 101 131 cnv 4 10 4 empty empty empty 20 12 0 14 -1 -66577 0
;
#X text 123 36 -> -80dB..20dB;
#X text 120 0 -> -80 .. 20;
#X text 104 139 -> 0..1.2;
#X text 109 179 -> 1..100000;
#X text 104 221 -> 0.0001..10 = -80dB..20dB;
#X obj 195 101 cnv 4 10 4 empty empty empty 20 12 0 14 -1 -66577 0
;
#X obj 195 131 cnv 4 10 4 empty empty empty 20 12 0 14 -1 -66577 0
;
#X obj 210 273 outlet~;
#X obj 214 -83 inlet~;
#X obj 210 244 *~;
#X connect 3 0 4 0;
#X connect 4 0 1 0;
#X connect 5 0 10 0;
#X connect 5 0 6 0;
#X connect 6 0 7 0;
#X connect 7 0 4 1;
#X connect 7 0 24 1;
#X connect 8 0 5 0;
#X connect 9 0 8 0;
#X connect 10 0 11 0;
#X connect 11 0 12 0;
#X connect 12 0 9 0;
#X connect 23 0 24 0;
#X connect 24 0 22 0;
#X coords 0 -1 1 1 106 36 1 100 100;
#X restore -106 15 pd ARGO;
#X text -94 -2 General level;
#X text -259 -35 LowPass Filter ->;
#N canvas 123 78 514 501 ARGO 0;
#X obj 101 101 cnv 10 228 15 empty ColorForm empty 20 12 0 14 -188398
-1 1.04858e+06;
#X obj 101 105 cnv 10 20 10 empty ColorForm Init-FFT 1 5 1 14 -188398
-1 1.04858e+06;
#X obj 155 103 hradio 12 1 1 11 \$0-A ColorForm empty 0 -8 0 10 -188398
-1 -1 6;
#X obj 287 103 nbx 5 12 1 99999 0 1 \$0-A ColorForm empty 0 0 1 9 -188398
-1 -1 4096 256;
#X text 127 80 Nommer FFTGeneral???;
#N canvas 0 22 450 300 (subpatch) 0;
#X array \$0-hann 4096 float 0;
#X coords 0 0 4095 1 300 100 0;
#X restore 79 203 graph;
#X obj 133 391 osc~;
#X obj 133 417 *~ -0.5;
#X obj 133 441 +~ 0.5;
#X obj 106 467 tabwrite~ \$0-hann;
#X obj 173 261 samplerate~;
#X obj 154 286 swap;
#X obj 154 310 /;
#X obj 153 237 t f b f;
#X msg 378 439 resize \$1;
#X obj 350 464 s \$0-hann;
#X msg 181 360 0;
#X obj 154 335 t f b;
#X obj 154 200 pow 2;
#X msg 154 177 2;
#X obj 154 154 t b f;
#X obj 154 123 + 6;
#X text 22 50 calculate Hann window table (variable window size);
#X text 161 219 <- window-size;
#X text 249 220 64..65536;
#X text 163 137 <- 6..16;
#X text 23 14 Voir Pd-0.40.3-extended -> 3.audio.examples/I05.compressor.pd
-> pd hann-window;
#X obj 180 387 phasor~;
#N canvas 0 22 450 300 (subpatch) 0;
#X array \$0-FFTIndex 4096 float 0;
#X coords 0 0 4095 1 300 100 0;
#X restore 78 231 graph;
#X obj 216 465 tabwrite~ \$0-FFTIndex;
#X obj 412 462 s \$0-FFTIndex;
#X obj 24 468 s \$0-FFTSize;
#X connect 2 0 21 0;
#X connect 6 0 7 0;
#X connect 7 0 8 0;
#X connect 8 0 9 0;
#X connect 10 0 11 1;
#X connect 11 0 12 0;
#X connect 11 1 12 1;
#X connect 12 0 17 0;
#X connect 13 0 11 0;
#X connect 13 1 10 0;
#X connect 13 2 14 0;
#X connect 14 0 15 0;
#X connect 14 0 30 0;
#X connect 16 0 6 1;
#X connect 16 0 27 1;
#X connect 17 0 6 0;
#X connect 17 0 27 0;
#X connect 17 1 9 0;
#X connect 17 1 16 0;
#X connect 17 1 29 0;
#X connect 18 0 13 0;
#X connect 18 0 3 0;
#X connect 18 0 31 0;
#X connect 19 0 18 0;
#X connect 20 0 19 0;
#X connect 20 1 18 1;
#X connect 21 0 20 0;
#X connect 27 0 29 0;
#X coords 0 -1 1 1 230 17 1 100 100;
#X restore -47 -157 pd ARGO;
#N canvas 367 240 408 282 ARGO 0;
#X obj 101 101 cnv 10 164 34 empty ColorForm empty 20 12 0 14 -188398
-1 1.04858e+06;
#X obj 101 131 cnv 4 10 4 empty empty empty 20 12 0 14 -1 -66577 0
;
#X obj 93 51 inlet~;
#X obj 101 101 cnv 4 10 4 empty empty empty 20 12 0 14 -1 -66577 0
;
#X obj 92 183 outlet~;
#X obj 125 105 cnv 10 20 10 empty ColorForm FFT-BrickWallFilter 1 5
1 14 -188398 -1 1.04858e+06;
#X obj 255 131 cnv 4 10 4 empty empty empty 20 12 0 14 -1 -66577 0
;
#N canvas 313 262 515 315 fft-analysis 0;
#X obj 42 128 *~;
#X obj 43 55 *~;
#X obj 12 14 inlet~;
#X obj 43 78 rfft~;
#X obj 41 207 *~;
#X obj 42 159 rifft~;
#X obj 42 267 outlet~;
#X obj 60 15 tabreceive~ \$0-hann;
#X obj 56 183 tabreceive~ \$0-hann;
#X obj 375 174 t b f b;
#X msg 408 201 0;
#X msg 366 201 1;
#X text 374 0 64..65536;
#X obj 339 53 t b f;
#X obj 340 103 /;
#X msg 395 229 set \$1 4 1;
#X obj 42 242 *~;
#X obj 196 131 *~;
#X obj 195 266 outlet~;
#X obj 195 241 *~;
#X text 221 240 normalize;
#X obj 195 207 *~;
#X obj 196 159 rifft~;
#X obj 210 183 tabreceive~ \$0-hann;
#X obj 75 126 *~;
#X obj 229 132 *~;
#X obj 328 15 inlet;
#X obj 240 53 expr~ $v1 > $v2;
#X obj 132 53 expr~ $v1 <= $v2;
#X obj 182 15 tabreceive~ \$0-FFTIndex;
#X obj 395 269 switch~ 1024 2 1;
#X msg 339 78 0.628;
#X text 192 284 HighPass;
#X text 42 284 LowPass;
#X obj 375 16 r \$0-FFTSize;
#X connect 0 0 5 0;
#X connect 1 0 3 0;
#X connect 2 0 1 0;
#X connect 3 0 0 0;
#X connect 3 0 17 0;
#X connect 3 1 24 0;
#X connect 3 1 25 0;
#X connect 4 0 16 0;
#X connect 5 0 4 0;
#X connect 7 0 1 1;
#X connect 8 0 4 1;
#X connect 9 0 11 0;
#X connect 9 1 15 0;
#X connect 9 2 10 0;
#X connect 10 0 30 0;
#X connect 11 0 30 0;
#X connect 13 0 31 0;
#X connect 13 1 14 1;
#X connect 14 0 16 1;
#X connect 14 0 19 1;
#X connect 15 0 30 0;
#X connect 16 0 6 0;
#X connect 17 0 22 0;
#X connect 19 0 18 0;
#X connect 21 0 19 0;
#X connect 22 0 21 0;
#X connect 23 0 21 1;
#X connect 24 0 5 1;
#X connect 25 0 22 1;
#X connect 26 0 27 1;
#X connect 26 0 28 1;
#X connect 27 0 17 1;
#X connect 27 0 25 1;
#X connect 28 0 0 1;
#X connect 28 0 24 1;
#X connect 29 0 27 0;
#X connect 29 0 28 0;
#X connect 31 0 14 0;
#X connect 34 0 9 0;
#X connect 34 0 13 0;
#X restore 120 158 pd fft-analysis;
#X text 11 209 cf MaxMSP463 -> Documentation -> MSP46TutorialsAndTopics.pdf
;
#X text 26 222 -> Tutorial 26: Frequency Domain Signal Processing with...
;
#X obj 235 183 outlet~;
#X text 238 137 HighPass;
#X text 91 136 LowPass;
#X obj 103 118 hsl 161 12 0.0005 0.5 1 1 \$0-A ColorTime 1332Hz 0 7
1 9 -208064 -1 -1 9500 0;
#X obj -11 98 *;
#X obj -11 48 t f b;
#X obj 16 75 samplerate~;
#X msg -11 169 label \$1;
#X obj -11 146 tosymbol;
#X obj -11 123 sprintf %dHz;
#X text 37 11 Filtres Passe-Bas et Passe-Haut dont la représentation
graphique est verticale comme un mur de briques.;
#X text 36 -18 Low-pass and High-pass filters of which the image is
as vertical as a brick wall.;
#X connect 2 0 7 0;
#X connect 7 0 4 0;
#X connect 7 1 10 0;
#X connect 13 0 7 1;
#X connect 13 0 15 0;
#X connect 14 0 19 0;
#X connect 15 0 14 0;
#X connect 15 1 16 0;
#X connect 16 0 14 1;
#X connect 17 0 13 0;
#X connect 18 0 17 0;
#X connect 19 0 18 0;
#X coords 0 -1 1 1 166 36 1 100 100;
#X restore -152 -59 pd ARGO;
#N canvas 367 240 408 282 ARGO 0;
#X obj 101 101 cnv 10 164 34 empty ColorForm empty 20 12 0 14 -188398
-1 1.04858e+06;
#X obj 101 131 cnv 4 10 4 empty empty empty 20 12 0 14 -1 -66577 0
;
#X obj 93 51 inlet~;
#X obj 101 101 cnv 4 10 4 empty empty empty 20 12 0 14 -1 -66577 0
;
#X obj 92 183 outlet~;
#X obj 125 105 cnv 10 20 10 empty ColorForm FFT-BrickWallFilter 1 5
1 14 -188398 -1 1.04858e+06;
#X obj 255 131 cnv 4 10 4 empty empty empty 20 12 0 14 -1 -66577 0
;
#N canvas 313 262 515 315 fft-analysis 0;
#X obj 42 128 *~;
#X obj 43 55 *~;
#X obj 12 14 inlet~;
#X obj 43 78 rfft~;
#X obj 41 207 *~;
#X obj 42 159 rifft~;
#X obj 42 267 outlet~;
#X obj 60 15 tabreceive~ \$0-hann;
#X obj 56 183 tabreceive~ \$0-hann;
#X obj 375 174 t b f b;
#X msg 408 201 0;
#X msg 366 201 1;
#X text 374 0 64..65536;
#X obj 339 53 t b f;
#X obj 340 103 /;
#X msg 395 229 set \$1 4 1;
#X obj 42 242 *~;
#X obj 196 131 *~;
#X obj 195 266 outlet~;
#X obj 195 241 *~;
#X text 221 240 normalize;
#X obj 195 207 *~;
#X obj 196 159 rifft~;
#X obj 210 183 tabreceive~ \$0-hann;
#X obj 75 126 *~;
#X obj 229 132 *~;
#X obj 328 15 inlet;
#X obj 240 53 expr~ $v1 > $v2;
#X obj 132 53 expr~ $v1 <= $v2;
#X obj 182 15 tabreceive~ \$0-FFTIndex;
#X obj 395 269 switch~ 1024 2 1;
#X msg 339 78 0.628;
#X text 192 284 HighPass;
#X text 42 284 LowPass;
#X obj 375 16 r \$0-FFTSize;
#X connect 0 0 5 0;
#X connect 1 0 3 0;
#X connect 2 0 1 0;
#X connect 3 0 0 0;
#X connect 3 0 17 0;
#X connect 3 1 24 0;
#X connect 3 1 25 0;
#X connect 4 0 16 0;
#X connect 5 0 4 0;
#X connect 7 0 1 1;
#X connect 8 0 4 1;
#X connect 9 0 11 0;
#X connect 9 1 15 0;
#X connect 9 2 10 0;
#X connect 10 0 30 0;
#X connect 11 0 30 0;
#X connect 13 0 31 0;
#X connect 13 1 14 1;
#X connect 14 0 16 1;
#X connect 14 0 19 1;
#X connect 15 0 30 0;
#X connect 16 0 6 0;
#X connect 17 0 22 0;
#X connect 19 0 18 0;
#X connect 21 0 19 0;
#X connect 22 0 21 0;
#X connect 23 0 21 1;
#X connect 24 0 5 1;
#X connect 25 0 22 1;
#X connect 26 0 27 1;
#X connect 26 0 28 1;
#X connect 27 0 17 1;
#X connect 27 0 25 1;
#X connect 28 0 0 1;
#X connect 28 0 24 1;
#X connect 29 0 27 0;
#X connect 29 0 28 0;
#X connect 31 0 14 0;
#X connect 34 0 9 0;
#X connect 34 0 13 0;
#X restore 120 158 pd fft-analysis;
#X text 11 209 cf MaxMSP463 -> Documentation -> MSP46TutorialsAndTopics.pdf
;
#X text 26 222 -> Tutorial 26: Frequency Domain Signal Processing with...
;
#X obj 235 183 outlet~;
#X text 238 137 HighPass;
#X text 91 136 LowPass;
#X obj 103 118 hsl 161 12 0.0005 0.5 1 1 \$0-A ColorTime 760Hz 0 7
1 9 -208064 -1 -1 8200 0;
#X obj -11 98 *;
#X obj -11 48 t f b;
#X obj 16 75 samplerate~;
#X msg -11 169 label \$1;
#X obj -11 146 tosymbol;
#X obj -11 123 sprintf %dHz;
#X text 37 11 Filtres Passe-Bas et Passe-Haut dont la représentation
graphique est verticale comme un mur de briques.;
#X text 36 -18 Low-pass and High-pass filters of which the image is
as vertical as a brick wall.;
#X connect 2 0 7 0;
#X connect 7 0 4 0;
#X connect 7 1 10 0;
#X connect 13 0 7 1;
#X connect 13 0 15 0;
#X connect 14 0 19 0;
#X connect 15 0 14 0;
#X connect 15 1 16 0;
#X connect 16 0 14 1;
#X connect 17 0 13 0;
#X connect 18 0 17 0;
#X connect 19 0 18 0;
#X coords 0 -1 1 1 166 36 1 100 100;
#X restore 14 -59 pd ARGO;
#X connect 0 0 1 0;
#X connect 3 0 4 0;
#X connect 5 0 13 0;
#X connect 5 1 14 0;
#X connect 9 0 2 0;
#X connect 9 1 2 1;
#X connect 13 0 9 0;
#X connect 14 0 9 1;
