#N canvas 1526 38 302 614 10;
#X obj 32 19 inlet~;
#X obj 31 582 outlet~;
#X text 117 24 Compensated;
#X text 195 517 raw;
#X obj 31 46 catch_out_2_dac~ 1 \$1;
#X obj 31 65 catch_out_2_dac~ 2 \$1;
#X obj 32 85 catch_out_2_dac~ 3 \$1;
#X obj 31 105 catch_out_2_dac~ 4 \$1;
#X obj 31 125 catch_out_2_dac~ 5 \$1;
#X obj 31 145 catch_out_2_dac~ 6 \$1;
#X obj 31 165 catch_out_2_dac~ 7 \$1;
#X obj 31 185 catch_out_2_dac~ 8 \$1;
#X obj 31 205 catch_out_2_dac~ 9 \$1;
#X obj 31 225 catch_out_2_dac~ 10 \$1;
#X obj 34 246 catch_out_2_dac~ 11 \$1;
#X obj 33 265 catch_out_2_dac~ 12 \$1;
#X obj 31 285 catch_out_2_dac~ 13 \$1;
#X obj 31 305 catch_out_2_dac~ 14 \$1;
#X obj 31 325 catch_out_2_dac~ 15 \$1;
#X obj 31 344 catch_out_2_dac~ 16 \$1;
#X obj 33 365 catch_out_2_dac~ 17 \$1;
#X obj 32 385 catch_out_2_dac~ 18 \$1;
#X obj 31 405 catch_out_2_dac~ 19 \$1;
#X obj 31 425 catch_out_2_dac~ 20 \$1;
#X obj 33 445 catch_out_2_dac~ 21 \$1;
#X obj 31 465 catch_out_2_dac~ 22 \$1;
#X obj 31 484 catch_out_2_dac~ 23 \$1;
#X obj 31 505 catch_out_2_dac~ 24 \$1;
#X obj 31 534 catch_out_2_vol_dac~ 25;
#X obj 31 554 catch_out_2_vol_dac~ 26;
#X text 111 5 1.arg: <float> local number from parent;
