#N canvas 372 127 687 445 10;
#X obj 41 108 inlet~;
#X obj 212 231 t b f;
#X obj 113 184 t f f;
#X obj 138 206 > 0;
#X obj 198 415 switch~;
#X obj 222 324 sel 0 1;
#X obj 189 367 del 50;
#X msg 189 388 0;
#X msg 240 387 1;
#X obj 41 384 mull~ 0 50;
#X obj 106 297 r DSP_MIX_INTERPOL_TIME;
#X obj 113 163 dbtorms;
#X msg 296 282 set \$1_SUM;
#X obj 296 262 symbol;
#X obj 222 267 && 0;
#X text 64 19 !!!! wird im post-fader-zweig registriert !!!!;
#X obj 42 413 throw~ \$2_AUX_SUM;
#X obj 296 240 r /IN/\$1/AUX/\$2/DST;
#X obj 212 180 r /IN/\$1/AUX/\$2/PRE;
#X obj 113 139 r /IN/\$1/AUX/\$2/GAIN;
#X text 53 57 [aux_send_pre~ <INCH#> <AUX_SLOT#>];
#X connect 0 0 9 0;
#X connect 1 0 14 0;
#X connect 1 1 14 1;
#X connect 2 0 9 1;
#X connect 2 1 3 0;
#X connect 3 0 14 0;
#X connect 5 0 6 0;
#X connect 5 1 8 0;
#X connect 6 0 7 0;
#X connect 7 0 4 0;
#X connect 8 0 4 0;
#X connect 9 0 16 0;
#X connect 10 0 9 2;
#X connect 10 0 6 1;
#X connect 11 0 2 0;
#X connect 12 0 16 0;
#X connect 13 0 12 0;
#X connect 14 0 5 0;
#X connect 17 0 13 0;
#X connect 18 0 1 0;
#X connect 19 0 11 0;
