#N canvas 77 338 583 375 10;
#X obj 30 48 inlet~;
#X obj 63 167 t f f;
#X obj 93 186 > 0;
#X obj 112 278 switch~;
#X obj 93 210 sel 0 1;
#X obj 93 230 del 50;
#X msg 93 251 0;
#X msg 135 251 1;
#X obj 31 307 mull~ 0 50;
#X obj 276 210 r DSP_MIX_INTERPOL_TIME;
#X obj 63 147 dbtorms;
#X obj 30 336 throw~ \$2_BUS;
#X obj 63 127 receive_parameter /IN/\$1/BUS/\$2/GAIN;
#X connect 0 0 8 0;
#X connect 1 0 8 1;
#X connect 1 1 2 0;
#X connect 2 0 4 0;
#X connect 4 0 5 0;
#X connect 4 1 7 0;
#X connect 5 0 6 0;
#X connect 6 0 3 0;
#X connect 7 0 3 0;
#X connect 8 0 11 0;
#X connect 9 0 8 2;
#X connect 9 0 5 1;
#X connect 10 0 1 0;
#X connect 12 0 10 0;
