#N canvas 0 0 450 300 10;
#X obj 0 0 inlet~;
#X obj 0 200 outlet~;
#X obj 0 50 CUBEmixer_plugin0~ \$0 \$1 \$2;
#X obj 60 100 CUBEmixer_plugin~ \$0 DISTANCE \$1 \$2;
#X obj 60 125 CUBEmixer_plugin~ \$0 COMPANDER \$1 \$2;
#X connect 0 0 2 0;
#X connect 2 0 1 0;
#X connect 0 0 3 0;
#X connect 3 0 1 0;
#X connect 0 0 4 0;
#X connect 4 0 1 0;
