#N canvas 8 137 450 458 10;
#X obj 29 178 inlet~;
#X obj 107 337 outlet~;
#X obj 108 286 clip~ -1 1;
#X obj 109 255 *~;
#X obj 214 71 inlet;
#X obj 211 235 line~;
#X msg 212 215 \$1 20;
#X obj 275 55 initbang;
#X obj 275 76 f \$1;
#X obj 275 98 moses 0.001;
#X msg 275 119 1;
#X obj 103 116 tgl 10 0 empty empty empty 17 7 0 10 -257985 -1 -1 1
1;
#X obj 103 71 initbang;
#X obj 142 117 nbx 3 10 -1e+37 1e+37 0 0 empty empty empty 0 -8 0 10
-262144 -1 -1 0 256;
#X obj 28 239 spigot~;
#X obj 27 269 *~ 1;
#X text 67 321 dry;
#X text 114 320 wet;
#X connect 0 0 14 0;
#X connect 2 0 1 0;
#X connect 3 0 2 0;
#X connect 4 0 13 0;
#X connect 5 0 3 1;
#X connect 6 0 5 0;
#X connect 7 0 8 0;
#X connect 8 0 9 0;
#X connect 9 0 10 0;
#X connect 9 1 13 0;
#X connect 10 0 13 0;
#X connect 11 0 14 1;
#X connect 12 0 11 0;
#X connect 13 0 6 0;
#X connect 14 0 15 0;
#X connect 14 1 3 0;
#X connect 15 0 1 0;
#X coords 0 -1 1 1 85 30 1 100 100;
