#N canvas 44 81 846 388 10;
#X obj 66 300 *~ 0.3;
#X obj 66 334 dac~;
#X text 66 54 audio-pitchdelay \; ---------------- \; Simple delay
used for "retuner/repitch" \; Convert a frequency into the required
delay line length (in ms) to generate said pitch.(use [mtof] to get
freq from midi) \;;
#X text 465 54 // inspired by the karpluck~ object ---------- \; This
object is a simple delay that can be used for "retuner/repitch" when
"freq" toggle is on \; // Convert a frequency into the required delay
line length (in ms) to generate said pitch.(use [mtof] to get freq
from midi) \; Arguments \; 1: mix \; (0/1 = dry/wet) 2: ms \; (millisecond
for the delay) Inlets: 1: audio signal \; 2: mix \; 3: ms \; 4: freq
toggle for retune mode \; Outlets : 1: audio signal;
#X obj 67 234 audio-pitchdelay;
#X obj 180 186 mtof;
#X msg 180 206 ms \$1;
#X obj 183 167 hsl 128 15 0 127 0 0 empty empty empty -2 -8 0 10 -262144
-1 -1 0 1;
#X floatatom 123 179 5 0 0 0 - - -;
#X obj 68 201 noise~;
#X msg 225 285 retune 1;
#X msg 224 258 mix 0.8;
#X connect 0 0 1 0;
#X connect 0 0 1 1;
#X connect 4 0 0 0;
#X connect 5 0 6 0;
#X connect 6 0 4 1;
#X connect 7 0 5 0;
#X connect 7 0 8 0;
#X connect 9 0 4 0;
#X connect 10 0 4 1;
#X connect 11 0 4 1;
#X coords 0 388 1 387 105 50 0;
