#N canvas 1 79 450 300 10;
#X obj 148 140 osc~ 440;
#X obj 147 237 dac~;
#X floatatom 260 130 5 0 0 0 - - -;
#X msg 260 64 1;
#X text 290 59 <- normal;
#X msg 276 106 10;
#X obj 147 166 audio-disto 10;
#X obj 148 212 *~ 0.05;
#X msg 269 86 5;
#X text 48 29 audio-disto \; ----------- \; Simple distortion \;;
#X connect 0 0 6 0;
#X connect 2 0 6 1;
#X connect 3 0 2 0;
#X connect 5 0 2 0;
#X connect 6 0 7 0;
#X connect 7 0 1 0;
#X connect 7 0 1 1;
#X connect 8 0 2 0;
