#N canvas 1 81 450 300 10;
#X obj 55 162 inlet~;
#X obj 56 216 outlet~;
#X obj 56 192 *~;
#X obj 103 100 hsl 80 10 0 1 0 0 empty empty audio-volume 2 6 0 8 -262144
-66577 -99865 0 1;
#X obj 100 162 line~;
#X msg 100 137 \$1 20;
#X connect 0 0 2 0;
#X connect 2 0 1 0;
#X connect 3 0 5 0;
#X connect 4 0 2 1;
#X connect 5 0 4 0;
#X coords 0 -1 1 1 85 10 2 100 100;
