#N canvas 120 416 829 294 10;
#X obj 74 157 rev2~ 100 60 3000 20;
#X obj -8 30 inlet~;
#X obj 75 200 outlet~;
#X obj 113 231 outlet~;
#X obj 236 56 initbang;
#X obj 236 103 tgl 10 0 empty empty empty 17 7 0 10 -257985 -1 -1 1
1;
#X obj 346 60 inlet control;
#X obj 334 4 initbang;
#X obj 334 115 s \$0-level;
#X text 713 84 crossover;
#X text 688 47 liveness;
#X text 657 5 level;
#X text 744 129 damping;
#X obj 376 141 s \$0-liveness;
#X obj 419 167 s \$0-crossover;
#X obj 462 197 s \$0-damping;
#X obj 102 119 cnv 15 1 1 empty empty level__liveness_crossover_damping
0 0 1 9 -262144 -66577 0;
#X obj 102 123 nbx 3 11 -1e+37 1e+37 0 0 empty \$0-level empty 0 5
0 10 -262144 -1 -1 100 256;
#X obj 138 123 nbx 3 11 -1e+37 1e+37 0 0 empty \$0-liveness empty 0
-8 0 10 -262144 -1 -1 60 256;
#X obj 174 123 nbx 4 11 -1e+37 1e+37 0 0 empty \$0-crossover empty
0 -8 0 8 -262144 -1 -1 3000 256;
#X obj 212 123 nbx 3 11 -1e+37 1e+37 0 0 empty \$0-damping empty 0
-8 0 10 -262144 -1 -1 20 256;
#N canvas 554 196 450 300 drywet 0;
#X obj 92 217 *~ 1;
#X obj 87 188 + 1;
#X obj 87 163 * -1;
#X obj 39 219 *~ 0;
#X obj 27 94 inlet~;
#X obj 125 103 inlet toggle;
#X obj 44 266 outlet~ dry;
#X obj 135 269 outlet~ wet;
#X connect 0 0 7 0;
#X connect 1 0 3 1;
#X connect 2 0 1 0;
#X connect 3 0 6 0;
#X connect 4 0 3 0;
#X connect 4 0 0 0;
#X connect 5 0 2 0;
#X connect 5 0 0 1;
#X restore -8 92 pd drywet;
#X obj 334 88 route level liveness crossover damping on;
#X msg 334 31 level 100 \, liveness 60 \, crossover 3000 \, damping
20 \, on 1;
#X connect 0 0 2 0;
#X connect 0 1 3 0;
#X connect 1 0 21 0;
#X connect 4 0 5 0;
#X connect 5 0 21 1;
#X connect 6 0 22 0;
#X connect 7 0 23 0;
#X connect 17 0 0 1;
#X connect 18 0 0 2;
#X connect 19 0 0 3;
#X connect 20 0 0 4;
#X connect 21 0 2 0;
#X connect 21 0 3 0;
#X connect 21 1 0 0;
#X connect 22 0 8 0;
#X connect 22 1 13 0;
#X connect 22 2 14 0;
#X connect 22 3 15 0;
#X connect 22 4 5 0;
#X connect 23 0 22 0;
#X coords 0 -1 1 1 150 38 1 100 100;
