#N canvas 1 82 750 461 10;
#N canvas 396 246 528 469 output_mixer 0;
#X obj 39 11 inlet dry/wet;
#X obj 22 -19 inlet~ dry;
#X obj 248 -19 inlet~ bass;
#X obj 338 -19 inlet~ mids;
#X obj 424 -19 inlet~ highs;
#X obj 87 35 inlet bass;
#X obj 127 60 inlet mids;
#X obj 157 86 inlet highs;
#X obj 22 327 outlet~;
#X obj 111 235 *~;
#X obj 141 235 *~;
#X obj 71 235 *~;
#X obj 23 288 *~;
#X obj 70 288 *~;
#X obj 39 35 * -1;
#X obj 39 57 + 1;
#X obj 148 295 line~;
#X msg 148 272 \$1 20;
#X obj 39 200 line~;
#X msg 39 177 \$1 20;
#X connect 0 0 14 0;
#X connect 0 0 17 0;
#X connect 1 0 12 0;
#X connect 2 0 11 0;
#X connect 3 0 9 0;
#X connect 4 0 10 0;
#X connect 5 0 11 1;
#X connect 6 0 9 1;
#X connect 7 0 10 1;
#X connect 9 0 13 0;
#X connect 10 0 13 0;
#X connect 11 0 13 0;
#X connect 12 0 8 0;
#X connect 13 0 8 0;
#X connect 14 0 15 0;
#X connect 15 0 19 0;
#X connect 16 0 13 1;
#X connect 17 0 16 0;
#X connect 18 0 12 1;
#X connect 19 0 18 0;
#X restore 103 292 pd output_mixer;
#X obj 102 212 inlet~;
#X obj 103 324 outlet~;
#X obj 103 116 hsl 100 10 0 1 0 0 \$0-bass \$0-bass-in bass 3 6 0 8
-262144 -66577 -66577 0 1;
#X obj 103 126 hsl 100 10 0 1 0 0 \$0-medium \$0-medium-in medium 3
6 0 8 -262144 -162280 -162280 8284 1;
#X obj 103 136 hsl 100 10 0 1 0 0 \$0-treeble \$0-treeble-in treeble
3 6 0 8 -262144 -191407 -191407 8890 1;
#X obj 103 146 hsl 100 10 0 1 0 0 \$0-mix \$0-mix-in mix 3 6 0 8 -228856
-99865 -66577 9900 1;
#X obj 441 130 initbang;
#X obj 409 177 route bass medium treeble mix;
#X obj 409 101 inlet command;
#N canvas 1 85 450 300 GGEE_filter 0;
#X obj 67 239 outlet~;
#X obj 65 134 biquad~;
#X obj 66 154 biquad~;
#X obj 66 174 biquad~;
#X obj 35 110 lowpass 370 310;
#X obj 194 134 biquad~;
#X obj 193 154 biquad~;
#X obj 194 174 biquad~;
#X obj 163 111 bandpass 1175 490;
#X obj 305 111 highpass 2350 130;
#X obj 334 134 biquad~;
#X obj 334 154 biquad~;
#X obj 163 25 loadbang;
#X obj 193 239 outlet~;
#X obj 335 239 outlet~;
#X obj 66 25 inlet~ signal;
#X obj 235 54 switch~;
#X obj 235 25 inlet switch;
#X connect 1 0 2 0;
#X connect 2 0 3 0;
#X connect 3 0 0 0;
#X connect 4 0 1 0;
#X connect 4 0 2 0;
#X connect 4 0 3 0;
#X connect 5 0 6 0;
#X connect 6 0 7 0;
#X connect 7 0 13 0;
#X connect 8 0 5 0;
#X connect 8 0 6 0;
#X connect 8 0 7 0;
#X connect 9 0 10 0;
#X connect 9 0 11 0;
#X connect 10 0 11 0;
#X connect 11 0 14 0;
#X connect 12 0 4 0;
#X connect 12 0 8 0;
#X connect 12 0 9 0;
#X connect 15 0 1 0;
#X connect 15 0 5 0;
#X connect 15 0 10 0;
#X connect 17 0 16 0;
#X restore 185 258 pd GGEE_filter;
#X obj 279 234 initbang;
#X msg 279 257 1;
#X text 83 3 // from 3-band EQ \, derek at umatic.nl;
#X obj 547 311 initbang;
#X msg 547 334 0;
#N canvas 1 83 727 430 raw_biquad~ 0;
#X obj 66 25 inlet~;
#X obj 67 369 outlet~;
#X obj 193 369 outlet~;
#X obj 335 369 outlet~;
#X obj 66 80 biquad~ 1.86972 -0.872325 0.000650245 0.00130049 0.000650245
;
#X text 185 59 lo x3;
#X obj 66 100 biquad~ 1.86972 -0.872325 0.000650245 0.00130049 0.000650245
;
#X obj 66 120 biquad~ 1.86972 -0.872325 0.000650245 0.00130049 0.000650245
;
#X obj 194 172 biquad~ 1.36591 -0.385279 0.307361 0 -0.307361;
#X text 329 152 mid x3;
#X obj 194 192 biquad~ 1.36591 -0.385279 0.307361 0 -0.307361;
#X obj 194 212 biquad~ 1.36591 -0.385279 0.307361 0 -0.307361;
#X obj 336 263 biquad~ 1.63386 -0.729864 0.840931 -1.68186 0.840931
;
#X text 476 241 hi x2;
#X obj 336 283 biquad~ 1.63386 -0.729864 0.840931 -1.68186 0.840931
;
#X obj 255 54 switch~;
#X obj 255 25 inlet switch;
#X connect 0 0 4 0;
#X connect 0 0 8 0;
#X connect 0 0 12 0;
#X connect 4 0 6 0;
#X connect 6 0 7 0;
#X connect 7 0 1 0;
#X connect 8 0 10 0;
#X connect 10 0 11 0;
#X connect 11 0 2 0;
#X connect 12 0 14 0;
#X connect 14 0 3 0;
#X connect 16 0 15 0;
#X restore 466 355 pd raw_biquad~;
#X msg 441 150 mix 1 \, bass 0.5 \, medium 0.5 \, treeble 0.5;
#X obj 409 259 s \$0-bass-in;
#X obj 537 198 s \$0-mix-in;
#X obj 494 219 s \$0-treeble-in;
#X obj 451 239 s \$0-medium-in;
#X obj 154 173 r \$0-mix;
#X obj 163 192 r \$0-bass;
#X obj 176 212 r \$0-medium;
#X obj 185 231 r \$0-treeble;
#X connect 0 0 2 0;
#X connect 1 0 0 0;
#X connect 1 0 10 0;
#X connect 7 0 17 0;
#X connect 8 0 18 0;
#X connect 8 1 21 0;
#X connect 8 2 20 0;
#X connect 8 3 19 0;
#X connect 9 0 8 0;
#X connect 10 0 0 5;
#X connect 10 1 0 6;
#X connect 10 2 0 7;
#X connect 11 0 12 0;
#X connect 12 0 10 1;
#X connect 14 0 15 0;
#X connect 15 0 16 1;
#X connect 17 0 8 0;
#X connect 22 0 0 1;
#X connect 23 0 0 2;
#X connect 24 0 0 3;
#X connect 25 0 0 4;
#X coords 0 -1 1 1 105 60 1 100 100;
