#N canvas 11 144 602 369 10;
#X obj 202 245 ead~;
#X obj 253 127 nbx 4 10 -1e+37 1e+37 0 0 \$0-att \$0-att-in attack
0 -6 0 9 -262144 -1 -1 0 256;
#X obj 202 207 bang;
#X obj 115 262 *~;
#X obj 202 181 inlet trigger;
#X obj 295 127 nbx 4 10 -1e+37 1e+37 0 0 \$0-decay \$0-decay-in decay
0 -6 0 9 -262144 -1 -1 400 256;
#X obj 253 49 inlet attack;
#X obj 295 71 inlet decay;
#X obj 65 300 outlet~ audio;
#X obj 65 176 inlet~ audio;
#X obj 430 65 initbang;
#X obj 337 127 tgl 10 0 \$0-drywet \$0-drywet-in empty 17 7 0 10 -228856
-1 -1 1 1;
#N canvas 554 196 450 300 drywet 0;
#X obj 92 217 *~ 1;
#X obj 87 188 + 1;
#X obj 87 163 * -1;
#X obj 39 219 *~ 0;
#X obj 27 94 inlet~;
#X obj 125 103 inlet toggle;
#X obj 44 266 outlet~ dry;
#X obj 135 269 outlet~ wet;
#X connect 0 0 7 0;
#X connect 1 0 3 1;
#X connect 2 0 1 0;
#X connect 3 0 6 0;
#X connect 4 0 3 0;
#X connect 4 0 0 0;
#X connect 5 0 2 0;
#X connect 5 0 0 1;
#X restore 65 231 pd drywet;
#X msg 430 92 400;
#X obj 116 206 r \$0-drywet;
#X obj 489 87 s \$0-drywet-in;
#X msg 489 67 1;
#X obj 240 207 r \$0-att;
#X obj 295 207 r \$0-decay;
#X obj 430 114 s \$0-decay-in;
#X connect 0 0 3 1;
#X connect 2 0 0 0;
#X connect 3 0 8 0;
#X connect 4 0 2 0;
#X connect 6 0 1 0;
#X connect 7 0 5 0;
#X connect 9 0 12 0;
#X connect 10 0 16 0;
#X connect 10 0 13 0;
#X connect 12 0 8 0;
#X connect 12 1 3 0;
#X connect 13 0 19 0;
#X connect 14 0 12 1;
#X connect 16 0 15 0;
#X connect 17 0 0 1;
#X connect 18 0 0 2;
#X coords 0 -1 1 1 100 40 1 250 100;
