#N canvas 139 205 599 352 10;
#X obj 71 233 audio-attackdecay;
#X obj 72 297 dac~;
#X obj 72 182 phasor~ 440;
#X msg 433 125 \; pd dsp 1;
#X text 493 130 Audio on;
#X obj 72 131 metro 300;
#X obj 72 101 tgl 15 0 empty empty empty 17 7 0 10 -262144 -1 -1 0
1;
#X obj 72 157 random 3000;
#X floatatom 236 189 5 0 0 2 attack(ms) - -;
#X floatatom 308 190 5 0 0 2 decay(ms) - -;
#X obj 174 189 bng 15 250 50 0 empty empty trigger 0 -10 0 10 -262144
-1 -1;
#X text 67 14 audio-attackdecay \; ----------------- \; Enveloppe of
a sound \; You need to trigger the second outlet to work.;
#X connect 0 0 1 0;
#X connect 0 0 1 1;
#X connect 2 0 0 0;
#X connect 5 0 7 0;
#X connect 5 0 0 1;
#X connect 6 0 5 0;
#X connect 7 0 2 0;
#X connect 8 0 0 2;
#X connect 9 0 0 3;
#X connect 10 0 0 1;
