#N canvas 84 159 993 698 10;
#X obj 223 -7 inlet;
#X obj 293 485 outlet~;
#X obj 92 145 gate 4;
#X obj 77 67 f;
#X obj 109 68 + 1;
#X obj 77 89 % 4;
#X obj 77 112 + 1;
#X obj 77 41 bang;
#N canvas 686 503 528 433 gaga 1;
#X obj 333 199 osc~;
#X obj 332 167 mtof;
#X obj 355 392 *~;
#X obj 217 302 osc~;
#X obj 286 213 * 2;
#X obj 217 233 pack f f;
#X floatatom 484 128 5 0 0 0 - - -;
#X obj 285 190 f;
#X obj 218 329 *~ 0.3;
#X obj 217 282 line~;
#X msg 217 258 \$1 \, \$2 2;
#X floatatom 448 168 5 0 0 0 - - -;
#X obj 118 235 pack f f;
#X obj 186 192 f;
#X obj 119 331 *~ 0.3;
#X obj 118 284 line~;
#X msg 118 260 \$1 \, \$2 2;
#X obj 118 304 osc~;
#X obj 186 215 * 4;
#X obj 416 212 ead~ 10 1000;
#X obj 317 77 t b f;
#X obj 246 20 inlet;
#X obj 388 391 outlet~;
#X connect 1 0 0 0;
#X connect 1 0 7 0;
#X connect 1 0 13 0;
#X connect 2 0 22 0;
#X connect 3 0 8 0;
#X connect 4 0 5 1;
#X connect 5 0 10 0;
#X connect 6 0 19 2;
#X connect 7 0 4 0;
#X connect 7 0 5 0;
#X connect 8 0 2 0;
#X connect 9 0 3 0;
#X connect 10 0 9 0;
#X connect 11 0 19 1;
#X connect 12 0 16 0;
#X connect 13 0 12 0;
#X connect 13 0 18 0;
#X connect 14 0 2 0;
#X connect 15 0 17 0;
#X connect 16 0 15 0;
#X connect 17 0 14 0;
#X connect 18 0 12 1;
#X connect 19 0 2 1;
#X connect 20 0 19 0;
#X connect 20 1 1 0;
#X connect 21 0 20 0;
#X restore 265 271 pd gaga;
#X obj 345 382 *~ 1;
#N canvas 686 503 528 433 gaga 0;
#X obj 333 199 osc~;
#X obj 332 167 mtof;
#X obj 355 392 *~;
#X obj 217 302 osc~;
#X obj 286 213 * 2;
#X obj 217 233 pack f f;
#X floatatom 484 128 5 0 0 0 - - -;
#X obj 285 190 f;
#X obj 218 329 *~ 0.3;
#X obj 217 282 line~;
#X msg 217 258 \$1 \, \$2 2;
#X floatatom 448 168 5 0 0 0 - - -;
#X obj 118 235 pack f f;
#X obj 186 192 f;
#X obj 119 331 *~ 0.3;
#X obj 118 284 line~;
#X msg 118 260 \$1 \, \$2 2;
#X obj 118 304 osc~;
#X obj 186 215 * 4;
#X obj 416 212 ead~ 10 1000;
#X obj 317 77 t b f;
#X obj 246 20 inlet;
#X obj 388 391 outlet~;
#X connect 1 0 0 0;
#X connect 1 0 7 0;
#X connect 1 0 13 0;
#X connect 2 0 22 0;
#X connect 3 0 8 0;
#X connect 4 0 5 1;
#X connect 5 0 10 0;
#X connect 6 0 19 2;
#X connect 7 0 4 0;
#X connect 7 0 5 0;
#X connect 8 0 2 0;
#X connect 9 0 3 0;
#X connect 10 0 9 0;
#X connect 11 0 19 1;
#X connect 12 0 16 0;
#X connect 13 0 12 0;
#X connect 13 0 18 0;
#X connect 14 0 2 0;
#X connect 15 0 17 0;
#X connect 16 0 15 0;
#X connect 17 0 14 0;
#X connect 18 0 12 1;
#X connect 19 0 2 1;
#X connect 20 0 19 0;
#X connect 20 1 1 0;
#X connect 21 0 20 0;
#X restore 198 270 pd gaga;
#N canvas 686 503 528 433 gaga 0;
#X obj 333 199 osc~;
#X obj 332 167 mtof;
#X obj 355 392 *~;
#X obj 217 302 osc~;
#X obj 286 213 * 2;
#X obj 217 233 pack f f;
#X floatatom 484 128 5 0 0 0 - - -;
#X obj 285 190 f;
#X obj 218 329 *~ 0.3;
#X obj 217 282 line~;
#X msg 217 258 \$1 \, \$2 2;
#X floatatom 448 168 5 0 0 0 - - -;
#X obj 118 235 pack f f;
#X obj 186 192 f;
#X obj 119 331 *~ 0.3;
#X obj 118 284 line~;
#X msg 118 260 \$1 \, \$2 2;
#X obj 118 304 osc~;
#X obj 186 215 * 4;
#X obj 416 212 ead~ 10 1000;
#X obj 317 77 t b f;
#X obj 246 20 inlet;
#X obj 388 391 outlet~;
#X connect 1 0 0 0;
#X connect 1 0 7 0;
#X connect 1 0 13 0;
#X connect 2 0 22 0;
#X connect 3 0 8 0;
#X connect 4 0 5 1;
#X connect 5 0 10 0;
#X connect 6 0 19 2;
#X connect 7 0 4 0;
#X connect 7 0 5 0;
#X connect 8 0 2 0;
#X connect 9 0 3 0;
#X connect 10 0 9 0;
#X connect 11 0 19 1;
#X connect 12 0 16 0;
#X connect 13 0 12 0;
#X connect 13 0 18 0;
#X connect 14 0 2 0;
#X connect 15 0 17 0;
#X connect 16 0 15 0;
#X connect 17 0 14 0;
#X connect 18 0 12 1;
#X connect 19 0 2 1;
#X connect 20 0 19 0;
#X connect 20 1 1 0;
#X connect 21 0 20 0;
#X restore 397 273 pd gaga;
#N canvas 686 503 528 433 gaga 0;
#X obj 333 199 osc~;
#X obj 332 167 mtof;
#X obj 355 392 *~;
#X obj 217 302 osc~;
#X obj 286 213 * 2;
#X obj 217 233 pack f f;
#X floatatom 484 128 5 0 0 0 - - -;
#X obj 285 190 f;
#X obj 218 329 *~ 0.3;
#X obj 217 282 line~;
#X msg 217 258 \$1 \, \$2 2;
#X floatatom 448 168 5 0 0 0 - - -;
#X obj 118 235 pack f f;
#X obj 186 192 f;
#X obj 119 331 *~ 0.3;
#X obj 118 284 line~;
#X msg 118 260 \$1 \, \$2 2;
#X obj 118 304 osc~;
#X obj 186 215 * 4;
#X obj 416 212 ead~ 10 1000;
#X obj 317 77 t b f;
#X obj 246 20 inlet;
#X obj 388 391 outlet~;
#X connect 1 0 0 0;
#X connect 1 0 7 0;
#X connect 1 0 13 0;
#X connect 2 0 22 0;
#X connect 3 0 8 0;
#X connect 4 0 5 1;
#X connect 5 0 10 0;
#X connect 6 0 19 2;
#X connect 7 0 4 0;
#X connect 7 0 5 0;
#X connect 8 0 2 0;
#X connect 9 0 3 0;
#X connect 10 0 9 0;
#X connect 11 0 19 1;
#X connect 12 0 16 0;
#X connect 13 0 12 0;
#X connect 13 0 18 0;
#X connect 14 0 2 0;
#X connect 15 0 17 0;
#X connect 16 0 15 0;
#X connect 17 0 14 0;
#X connect 18 0 12 1;
#X connect 19 0 2 1;
#X connect 20 0 19 0;
#X connect 20 1 1 0;
#X connect 21 0 20 0;
#X restore 330 272 pd gaga;
#X obj 208 20 t b f;
#X connect 0 0 13 0;
#X connect 2 0 10 0;
#X connect 2 1 8 0;
#X connect 2 2 12 0;
#X connect 2 3 11 0;
#X connect 3 0 4 0;
#X connect 3 0 5 0;
#X connect 4 0 3 1;
#X connect 5 0 6 0;
#X connect 6 0 2 0;
#X connect 7 0 3 0;
#X connect 8 0 9 0;
#X connect 9 0 1 0;
#X connect 10 0 9 0;
#X connect 11 0 9 0;
#X connect 12 0 9 0;
#X connect 13 0 7 0;
#X connect 13 1 2 1;
