#N canvas 120 148 475 534 10;
#X obj 57 200 vsl 15 128 0 127 0 0 empty empty pitch_0-127 0 -9 0 10
-262144 -1 -1 0 1;
#X obj 199 209 vsl 15 128 0 1 0 0 empty empty volume_0-1 0 -9 0 10
-262144 -1 -1 0 1;
#X obj 74 402 dac~;
#X msg 368 203 \; pd dsp 1;
#X obj 368 180 loadbang;
#X obj 108 290 hradio 15 1 0 5 empty empty waveforms 0 -8 0 10 -262144
-1 -1 0;
#X text 207 384 waveforms \; 0 \, ~: sine wave \; 1 \, /: sawtooth
\; 2 \, |_| : square ([hcs/square~]) \; 3 \, G1: graph \; 4 \, G2:
graph + modulation \;;
#X obj 57 340 synth 2 0.5;
#X obj 74 381 *~ 0.4;
#X text 177 356 <- open the graph;
#X text 53 17 synth \; ----- \; Basic synthesis waveforms : sine +
sawtooth + square + graph \; Arguments \; \$1: waveform (0 \, 1 \,
2 \, 3 \, 4) \; \$2: volume (0-1) \; Inlets \; 1: pitch (0-127 float)
\; 2: waveform (integer) \; 3: volume (0-1) \;;
#X obj 58 424 oscilloscope~;
#X connect 0 0 7 0;
#X connect 1 0 7 2;
#X connect 4 0 3 0;
#X connect 5 0 7 1;
#X connect 7 0 8 0;
#X connect 7 0 11 0;
#X connect 8 0 2 0;
#X connect 8 0 2 1;
