#N canvas 315 155 473 522 10;
#X obj 44 367 dac~;
#X msg 374 233 \; pd dsp 1;
#X obj 44 271 synth-moog;
#X obj 375 212 loadbang;
#X msg 186 127 play 1;
#X obj 186 105 loadbang;
#X obj 43 156 audio-scratch;
#X text 40 26 synth-moog \; ---------- \; Moog synthetiser \;;
#X obj 44 226 audio-comp 0.2;
#X obj 88 343 oscilloscope~;
#X connect 2 0 0 0;
#X connect 2 0 0 1;
#X connect 2 0 9 0;
#X connect 3 0 1 0;
#X connect 4 0 6 2;
#X connect 5 0 4 0;
#X connect 6 0 8 0;
#X connect 8 0 2 0;
