#N canvas 318 109 742 650 10;
#X obj 74 304 phasor~;
#X obj 74 282 mtof;
#X obj 74 259 t f b;
#X obj 303 135 hsl 80 10 0 127 0 0 empty empty pitch 2 6 0 8 -262144
-1 -1 3152 1;
#X obj 74 461 bp~ 800 25;
#X obj 240 462 bp~ 1200 25;
#X obj 381 462 bp~ 2500 25;
#X text 563 236 a;
#X obj 102 429 line;
#X obj 142 429 line;
#X obj 262 429 line;
#X obj 302 432 line;
#X obj 412 429 line;
#X obj 453 431 line;
#X text 568 259 i;
#X msg 102 406 \$1 500;
#X msg 142 406 \$1 500;
#X msg 262 406 \$1 500;
#X msg 302 406 \$1 500;
#X msg 412 406 \$1 500;
#X msg 451 406 \$1 500;
#X msg 365 287 220 25 1 600 25 1 2500 60 0.2;
#X text 563 286 0o;
#X msg 335 238 800 30 1 1200 25 0.7 2500 25 0.5;
#X msg 351 262 220 25 1 2200 25 0.4 3000 20 0.4;
#X obj 381 495 *~;
#X msg 500 409 \$1 500;
#X obj 502 434 line~;
#X obj 168 379 unpack f f f f f f f f f;
#X obj 241 495 *~;
#X msg 350 409 \$1 500;
#X obj 352 434 line~;
#X obj 74 485 *~;
#X msg 200 409 \$1 500;
#X obj 202 434 line~;
#X text 571 310 -a-;
#X msg 378 338 500 25 1 2300 25 1 2500 60 0;
#X msg 371 311 1000 25 1 1400 25 1 2500 60 0;
#X text 568 340 e;
#X obj 427 182 random 5;
#X obj 335 213 sel 0 1 2 3 4;
#X obj 73 555 lop~ 10000;
#X obj 73 591 outlet~;
#X text 540 564 vowel filters proof of concept;
#X text 542 576 www.timvets.net;
#X obj 74 236 f 60;
#X floatatom 191 545 5 0 0 0 - - -;
#X obj 168 360 r \$0-vowel;
#X obj 335 372 s \$0-vowel;
#X obj 335 115 hradio 10 1 0 5 empty empty empty 0 -8 0 10 -262144
-1 -1 0;
#X obj 300 115 tgl 10 0 empty empty rand 11 6 0 8 -262144 -1 -1 1 1
;
#X obj 375 76 initbang;
#X obj 375 105 tgl 10 0 empty empty empty 17 7 0 10 -257985 -1 -1 1
1;
#X obj 397 107 switch~;
#X obj 501 140 inlet type;
#X obj 74 379 *~ 1;
#X obj 47 45 inlet pitch;
#X obj 74 213 metro 200;
#X obj 303 125 hsl 80 10 5 1000 0 0 empty empty rand_time 2 6 0 8 -262144
-1 -1 700 1;
#X obj 225 47 inlet rand;
#X obj 300 45 inlet rand_time;
#X msg 307 85 200;
#X msg 425 152 60;
#X connect 0 0 55 0;
#X connect 1 0 0 0;
#X connect 2 0 1 0;
#X connect 2 1 39 0;
#X connect 3 0 45 1;
#X connect 4 0 32 0;
#X connect 5 0 29 0;
#X connect 6 0 25 0;
#X connect 8 0 4 1;
#X connect 9 0 4 2;
#X connect 10 0 5 1;
#X connect 11 0 5 2;
#X connect 12 0 6 1;
#X connect 13 0 6 2;
#X connect 15 0 8 0;
#X connect 16 0 9 0;
#X connect 17 0 10 0;
#X connect 18 0 11 0;
#X connect 19 0 12 0;
#X connect 20 0 13 0;
#X connect 21 0 48 0;
#X connect 23 0 48 0;
#X connect 24 0 48 0;
#X connect 25 0 41 0;
#X connect 26 0 27 0;
#X connect 27 0 25 1;
#X connect 28 0 15 0;
#X connect 28 1 16 0;
#X connect 28 2 33 0;
#X connect 28 3 17 0;
#X connect 28 4 18 0;
#X connect 28 5 30 0;
#X connect 28 6 19 0;
#X connect 28 7 20 0;
#X connect 28 8 26 0;
#X connect 29 0 41 0;
#X connect 30 0 31 0;
#X connect 31 0 29 1;
#X connect 32 0 41 0;
#X connect 33 0 34 0;
#X connect 34 0 32 1;
#X connect 36 0 48 0;
#X connect 37 0 48 0;
#X connect 39 0 49 0;
#X connect 40 0 23 0;
#X connect 40 1 24 0;
#X connect 40 2 21 0;
#X connect 40 3 37 0;
#X connect 40 4 36 0;
#X connect 41 0 42 0;
#X connect 45 0 2 0;
#X connect 46 0 41 1;
#X connect 47 0 28 0;
#X connect 49 0 40 0;
#X connect 50 0 57 0;
#X connect 51 0 52 0;
#X connect 51 0 50 0;
#X connect 51 0 61 0;
#X connect 51 0 62 0;
#X connect 52 0 53 0;
#X connect 54 0 40 0;
#X connect 55 0 4 0;
#X connect 55 0 5 0;
#X connect 55 0 6 0;
#X connect 56 0 3 0;
#X connect 57 0 45 0;
#X connect 58 0 57 1;
#X connect 59 0 50 0;
#X connect 60 0 58 0;
#X connect 61 0 58 0;
#X connect 62 0 3 0;
#X coords 0 -1 1 1 85 50 1 300 100;
