#N canvas 346 132 642 502 10;
#X obj 237 427 dac~;
#X msg 470 77 \; pd dsp 1;
#X obj 470 54 loadbang;
#X obj 58 270 bng 15 250 50 0 empty empty empty 17 7 0 10 -262144 -1
-1;
#X obj 106 270 bng 15 250 50 0 empty empty empty 17 7 0 10 -262144
-1 -1;
#X obj 154 270 bng 15 250 50 0 empty empty empty 17 7 0 10 -262144
-1 -1;
#X obj 202 270 bng 15 250 50 0 empty empty empty 17 7 0 10 -262144
-1 -1;
#X obj 311 164 hsl 128 15 0 1 0 0 empty empty empty -2 -8 0 10 -262144
-1 -1 0 1;
#X obj 311 217 hsl 128 15 0 1 0 0 empty empty empty -2 -8 0 10 -262144
-1 -1 0 1;
#X obj 313 265 hsl 128 15 0 1 0 0 empty empty empty -2 -8 0 10 -262144
-1 -1 0 1;
#X msg 310 285 crash vol \$1;
#X text 279 426 <- all audio mixed (mono);
#X obj 58 210 random 7;
#X obj 58 233 sel 0 1 2 3 4 5 6 7;
#X obj 58 188 metro 120;
#X obj 58 167 tgl 15 0 empty empty empty 17 7 0 10 -262144 -1 -1 0
1;
#X text 79 165 <- test random drums;
#X obj 58 294 synth-drums;
#X msg 308 184 kick decay \$1;
#X msg 307 237 snare freq \$1;
#X text 335 14 // from http://lesobjetsvolants.com/music/;
#X text 55 17 synth-drums \; ----------- \; Synthesis sound of drums
: kick + snare + hat + crash \; \; Inlets 1 \, 2 \, 3 \, 4 : bang for
kick \, snare \, hat \, crash \; Inlet 5 : message to change parameters
(ex: snare freq \$1) \; Outlet 5 : total audio (mono) \; Outlets 1
\, 2 \, 3 \, 4: separated audio output kick \, snare \, hat \, crash
\; Dependancy : [../../numbers/map];
#X connect 2 0 1 0;
#X connect 3 0 17 0;
#X connect 4 0 17 1;
#X connect 5 0 17 2;
#X connect 6 0 17 3;
#X connect 7 0 18 0;
#X connect 8 0 19 0;
#X connect 9 0 10 0;
#X connect 10 0 17 4;
#X connect 12 0 13 0;
#X connect 13 0 3 0;
#X connect 13 1 3 0;
#X connect 13 1 4 0;
#X connect 13 2 5 0;
#X connect 13 3 4 0;
#X connect 13 4 5 0;
#X connect 13 5 6 0;
#X connect 13 6 5 0;
#X connect 13 7 6 0;
#X connect 14 0 12 0;
#X connect 15 0 14 0;
#X connect 17 4 0 0;
#X connect 17 4 0 1;
#X connect 18 0 17 4;
#X connect 19 0 17 4;
