#N canvas 304 83 1366 684 10;
#X obj 4 -143 cnv 15 800 40 empty empty my_grainer~_tutorial:_09_-_tables
3 12 0 18 -204280 -1 0;
#X obj 4 -98 cnv 10 800 75 empty empty empty 8 12 0 13 -228856 -1 0
;
#X obj 4 527 cnv 3 800 3 empty empty empty 8 12 0 13 -228856 -1 0;
#X obj 514 -120 pddplink http://puredata.info/Members/pdiliscia/grainer/
;
#X text 796 -119 );
#X text 4 -120 A guide to manage granular synthesis through my_grainer~
;
#X text 345 -120 (external by O.P. Di Liscia;
#X obj 5 562 cnv 15 800 50 empty empty empty 3 12 0 18 -203904 -1 0
;
#X obj 5 617 cnv 15 800 40 empty empty empty 3 12 0 18 -203904 -1 0
;
#X text 203 635 (Consejo Nacional de Investigaciones Científicas y
Técnicas);
#X text 157 635 CONICET;
#X text 568 635 + UNQ (Universidad Nacional de Quilmes);
#X obj 550 619 pddplink http://puredata.info/author/damiananache/;
#X text 363 562 that is being developed by Oscar Pablo Di Liscia with
the;
#X text 711 562 collaboration;
#X text 9 562 my_grainer~ is a Pure Data external for granular synthesis
of Damián Anache and Esteban Calcagno as part of the;
#X text 322 575 research program "Sistemas Temporales y de Sintesis
;
#X text 639 575 Espacial en el Arte Sonoro";
#X text 9 589 (Universidad Nacional de Quilmes \, 2015-2019).;
#X text 235 619 mGT (my_grainer~ tutorial) by Damian Anache - 2016
(;
#N canvas 110 128 1085 735 setup 0;
#N canvas 0 0 450 300 (subpatch) 0;
#X array \$0-envelope 121 float 0 black black;
#X coords 0 1 120 0 250 50 1;
#X restore 256 257 graph;
#X obj 283 167 soundfiler;
#X obj 256 87 loadbang;
#X obj 256 207 s \$0-mess;
#X text 254 59 Grain Envelope;
#X text 472 11 my_grainer's initial setup;
#X obj 256 107 f \$0;
#X msg 283 147 read -resize envelopes/01-gaussian.wav \$1-envelope
;
#X msg 256 187 atab \$1-envelope;
#X obj 256 127 t f f;
#X obj 961 52 r \$0-reset;
#X obj 961 89 bng 15 250 50 0 empty empty empty 17 7 0 10 -262144 -1
-1;
#X text 472 27 **************************;
#X text 693 61 Grain Waveform;
#N canvas 309 479 995 336 grainWaveform 0;
#X text 787 71 table selection;
#X obj 779 238 s \$0-mess;
#X obj 779 218 prepend usegtn;
#X obj 779 197 r gtable-ctrl-GUIout;
#X obj 68 18 inlet;
#X obj 84 224 soundfiler;
#X obj 508 218 prepend gtab;
#X obj 508 238 s \$0-mess;
#X text 215 69 loading files in tables;
#X text 505 69 loading tables in my_grainer;
#X obj 68 63 f \$0;
#X msg 95 180 read -resize audioFiles/female-speech.wav \$1-female-voice
;
#X obj 68 83 t f f f f f;
#X obj 134 48 bng 15 250 50 0 empty empty empty 17 7 0 10 -262144 -1
-1;
#X msg 514 174 \$1-female-voice;
#X obj 68 157 t f f;
#X obj 83 116 t f f;
#X msg 110 141 read -resize audioFiles/sine1hz1sec.wav \$1-sine;
#X msg 525 133 \$1-sine;
#X obj 779 177 s gtable-ctrl-GUIin;
#X msg 779 157 0;
#X obj 779 114 loadbang;
#X obj 779 136 del 2;
#X obj 779 36 inlet;
#X connect 2 0 1 0;
#X connect 3 0 2 0;
#X connect 4 0 10 0;
#X connect 6 0 7 0;
#X connect 10 0 12 0;
#X connect 11 0 5 0;
#X connect 12 0 15 0;
#X connect 12 1 16 0;
#X connect 13 0 10 0;
#X connect 14 0 6 0;
#X connect 15 0 14 0;
#X connect 15 1 11 0;
#X connect 16 0 18 0;
#X connect 16 1 17 0;
#X connect 17 0 5 0;
#X connect 18 0 6 0;
#X connect 20 0 19 0;
#X connect 21 0 22 0;
#X connect 22 0 20 0;
#X restore 687 104 pd grainWaveform;
#X text 373 378 SIZE;
#X text 465 378 INCR;
#X text 562 378 START;
#X text 760 378 AMP;
#X text 502 390 rnd dev;
#X text 311 390 rnd dev;
#X text 277 378 GAP;
#X text 270 390 (secs);
#X text 369 390 (secs);
#X text 407 390 rnd dev;
#X text 458 390 (ref:1);
#X text 559 390 (ini:0);
#X text 603 390 rnd dev;
#X text 755 390 (0-1);
#X text 791 390 rnd dev;
#X text 655 390 (ini:0);
#X text 699 390 rnd dev;
#X text 658 378 END;
#X obj 961 395 loadbang;
#X msg 323 412 gar 0;
#X msg 419 412 gsr 0;
#X msg 465 412 gf 1;
#X msg 509 412 gfr 0;
#X msg 565 412 gst 0;
#X msg 611 412 gstr 0;
#X msg 707 412 genr 0;
#X msg 757 412 ag 1;
#X msg 801 412 agr 0;
#X obj 969 429 s \$0-mess;
#X msg 396 638 gf \$1;
#X floatatom 396 616 5 0 0 0 - - -, f 5;
#X msg 614 638 ga \$1;
#X msg 505 638 gs \$1;
#X floatatom 505 616 5 0 0 0 - - -, f 5;
#X floatatom 614 616 5 0 0 0 - - -, f 5;
#X obj 614 575 r \$0-gapGUIout;
#X obj 505 575 r \$0-sizeGUIout;
#X obj 396 575 r \$0-incrGUIout;
#X obj 396 554 s \$0-incrGUIin;
#X obj 505 554 s \$0-sizeGUIin;
#X obj 614 554 s \$0-gapGUIin;
#X obj 996 499 loadbang;
#X obj 961 516 del 1;
#X text 504 346 my_grainer initial values;
#X text 548 501 GUI setup;
#X msg 505 533 0.25;
#X msg 614 533 0.3;
#X msg 724 533 1;
#X msg 724 638 ag \$1;
#X obj 724 554 s \$0-ampGUIin;
#X obj 724 574 r \$0-ampGUIout;
#X floatatom 724 617 5 0 0 0 - - -, f 5;
#X msg 366 412 gs 0.25;
#X msg 275 412 ga 0.3;
#X msg 661 412 gen 0;
#X obj 961 495 b;
#X obj 975 655 s \$0-mess;
#X msg 396 533 1000;
#X obj 28 624 r \$0-mess;
#X obj 28 650 outlet;
#X msg 72 144 start;
#X msg 29 143 stop;
#X obj 29 167 s \$0-mess;
#X obj 29 102 tgl 15 0 empty empty empty 17 7 0 10 -262144 -1 -1 0
1;
#X obj 72 122 sel 1;
#X obj 29 122 sel 0;
#X text 29 59 Start / Stop;
#X obj 29 80 r \$0-StartStop-GUIout;
#X obj 30 395 r \$0-print;
#X msg 30 416 print;
#X obj 30 437 s \$0-mess;
#X text 29 375 Print;
#X obj 29 210 r \$0-pause-GUIout;
#X msg 29 232 pause \$1;
#X obj 29 254 s \$0-mess;
#X text 28 190 Pause;
#X obj 29 348 s \$0-mess;
#X msg 29 326 post_ctrl \$1;
#X obj 29 304 r \$0-postCtrl-GUIout;
#X text 28 282 Post Control;
#X obj 29 505 f \$0;
#X obj 29 483 loadbang;
#X msg 29 527 \; \$1-postCtrl-GUIin 1 \; \$1-StartStop-GUIin 0 \;;
#X text 24 12 General Purpose Messages;
#X text 24 25 ************************;
#X obj 188 13 cnv 1 1 700 empty empty empty 20 12 0 14 -228856 -66577
0;
#X connect 2 0 6 0;
#X connect 2 0 14 0;
#X connect 6 0 9 0;
#X connect 7 0 1 0;
#X connect 8 0 3 0;
#X connect 9 0 8 0;
#X connect 9 1 7 0;
#X connect 10 0 11 0;
#X connect 11 0 14 1;
#X connect 33 0 68 0;
#X connect 33 0 34 0;
#X connect 33 0 67 0;
#X connect 33 0 35 0;
#X connect 33 0 36 0;
#X connect 33 0 37 0;
#X connect 33 0 38 0;
#X connect 33 0 39 0;
#X connect 33 0 69 0;
#X connect 33 0 40 0;
#X connect 33 0 41 0;
#X connect 33 0 42 0;
#X connect 34 0 43 0;
#X connect 35 0 43 0;
#X connect 36 0 43 0;
#X connect 37 0 43 0;
#X connect 38 0 43 0;
#X connect 39 0 43 0;
#X connect 40 0 43 0;
#X connect 41 0 43 0;
#X connect 42 0 43 0;
#X connect 44 0 71 0;
#X connect 45 0 44 0;
#X connect 46 0 71 0;
#X connect 47 0 71 0;
#X connect 48 0 47 0;
#X connect 49 0 46 0;
#X connect 50 0 49 0;
#X connect 51 0 48 0;
#X connect 52 0 45 0;
#X connect 56 0 57 0;
#X connect 57 0 72 0;
#X connect 57 0 60 0;
#X connect 57 0 61 0;
#X connect 57 0 62 0;
#X connect 60 0 54 0;
#X connect 61 0 55 0;
#X connect 62 0 64 0;
#X connect 63 0 71 0;
#X connect 65 0 66 0;
#X connect 66 0 63 0;
#X connect 67 0 43 0;
#X connect 68 0 43 0;
#X connect 69 0 43 0;
#X connect 70 0 57 0;
#X connect 72 0 53 0;
#X connect 73 0 74 0;
#X connect 75 0 77 0;
#X connect 76 0 77 0;
#X connect 78 0 79 0;
#X connect 78 0 80 0;
#X connect 79 0 75 0;
#X connect 80 0 76 0;
#X connect 82 0 78 0;
#X connect 83 0 84 0;
#X connect 84 0 85 0;
#X connect 87 0 88 0;
#X connect 88 0 89 0;
#X connect 92 0 91 0;
#X connect 93 0 92 0;
#X connect 95 0 97 0;
#X connect 96 0 95 0;
#X restore 82 -9 pd setup;
#X obj 81 80 output~;
#X text 797 619 );
#X obj 263 139 vradio 35 1 0 2 gtable-ctrl-GUIout gtable-ctrl-GUIin
empty 0 -8 0 10 -262144 -1 -1 0;
#N canvas 0 0 450 300 (subpatch) 0;
#X array \$0-sine 44100 float 2 black black;
#X coords 0 1 44100 -1 200 20 1;
#X restore 60 147 graph;
#N canvas 0 0 450 300 (subpatch) 0;
#X array \$0-female-voice 160087 float 2 black black;
#X coords 0 1 160087 -1 200 20 1;
#X restore 60 182 graph;
#N canvas 667 283 534 419 INCRadjustment 0;
#X text 75 59 1hz sine needs at least "20" as value for my_grainer's
INCR;
#X text 115 73 meanwhile recorded voice works normal at INCR = 1;
#X msg 337 241 1;
#X msg 214 191 range 20 4000;
#X msg 187 241 440;
#X obj 35 134 r gtable-ctrl-GUIout;
#X obj 187 151 sel 0;
#X obj 337 151 sel 1;
#X obj 337 171 t b b;
#X obj 187 171 t b b;
#X msg 364 191 range 0 2;
#X obj 214 258 s;
#X obj 469 201 any;
#X obj 229 238 tosymbol;
#X obj 364 258 s;
#X obj 379 238 tosymbol;
#X obj 469 126 loadbang;
#X obj 469 148 f \$0;
#X msg 229 218 \$1-incrGUIin;
#X msg 379 218 \$1-incrGUIin;
#X connect 2 0 14 0;
#X connect 3 0 11 0;
#X connect 4 0 11 0;
#X connect 5 0 6 0;
#X connect 5 0 7 0;
#X connect 6 0 9 0;
#X connect 7 0 8 0;
#X connect 8 0 2 0;
#X connect 8 1 10 0;
#X connect 9 0 4 0;
#X connect 9 1 3 0;
#X connect 10 0 14 0;
#X connect 12 0 18 0;
#X connect 12 0 19 0;
#X connect 13 0 11 1;
#X connect 15 0 14 1;
#X connect 16 0 17 0;
#X connect 17 0 12 0;
#X connect 18 0 13 0;
#X connect 19 0 15 0;
#X restore 698 536 pd INCRadjustment;
#X text 58 294 INCR;
#X text 60 254 SIZE;
#X text 63 274 GAP;
#X obj 97 277 hsl 128 15 0.02 2 1 0 \$0-gapGUIout \$0-gapGUIin empty
-2 -8 0 10 -262144 -1 -1 7468 1;
#X obj 98 257 hsl 128 15 0.02 2 1 0 \$0-sizeGUIout \$0-sizeGUIin empty
-2 -8 0 10 -262144 -1 -1 6965 1;
#X obj 97 297 hsl 128 15 20 4000 0 0 \$0-incrGUIout \$0-incrGUIin empty
-2 -8 0 10 -262144 -1 -1 1340 1;
#X floatatom 231 276 5 0 0 0 - #0-gapGUIout -, f 5;
#X floatatom 231 256 5 0 0 0 - #0-sizeGUIout -, f 5;
#X floatatom 231 296 5 0 0 0 - #0-incrGUIout -, f 5;
#X obj 97 317 hsl 128 15 0.02 2 1 0 \$0-ampGUIout \$0-ampGUIin empty
-2 -8 0 10 -262144 -1 -1 10788 1;
#X floatatom 231 317 5 0 0 0 - #0-ampGUIout -, f 5;
#X text 62 315 AMP;
#X text 120 236 GRAIN PARAMETERS;
#X msg 441 302 pitch_table;
#X text 563 280 set pitch-class selection;
#X text 561 301 unset pitch-class selection;
#X text 96 473 unset gap selection;
#X msg 33 475 gap_table;
#X msg 23 455 gap_table 0.1 0.2 0.3 0.4 0.5;
#X msg 433 16 dur_table 0.1 0.2 0.3 0.4 0.5;
#X msg 443 36 dur_table;
#X msg 433 425 ptr_table 0.744 0.953 1.72 1.828 2.014 2.204 2.932 3.556
;
#X msg 446 478 ptr_table;
#X text 506 34 unset size selection;
#X text 507 476 unset start grain selection;
#X text 614 14 set grain size selection;
#X text 201 454 set set grain gap selection;
#X text 442 442 set start times selection;
#X obj 23 495 s \$0-mess;
#X msg 433 257 0 12;
#X obj 433 282 prepend pitch_table;
#X obj 174 31 bng 15 250 50 0 \$0-reset empty Reset 17 7 0 10 -262144
-1 -1;
#X obj 258 -9 tgl 15 0 \$0-pause-GUIout \$0-pause-GUIin Pause 17 7
0 10 -262144 -1 -1 0 1;
#X obj 258 11 bng 15 250 50 0 \$0-print empty Print 17 7 0 10 -262144
-1 -1;
#X obj 174 -9 tgl 15 0 \$0-StartStop-GUIout \$0-StartStop-GUIin Start/Stop
17 7 0 10 -262144 -1 -1 0 1;
#X obj 174 11 tgl 15 0 \$0-postCtrl-GUIout \$0-postCtrl-GUIin Post_Ctrl
17 7 0 10 -262144 -1 -1 1 1;
#X obj 433 322 s \$0-mess;
#X obj 433 56 s \$0-mess;
#X obj 433 501 s \$0-mess;
#X msg 477 257 0 3 7 11 14;
#X text 8 -98 Excerpt from my_grainer_help.doc by P. Di Liscia:;
#X text 8 -84 Arrays of discrete values:;
#X text 429 -71 The random selection probability distribution function
is uniform. The size of the arrays is limited to 24 and the exceeding
values (if any) will be disregarded.;
#X text 8 -70 In addition to the former messages \, my_grainer~ allows
the use of arrays of discrete values that are selected randomly for
each grain.;
#X text 19 353 gap_table float1 float2...floatn: switches the gap size
(ga) to discrete gap values \, alternating them at random. The same
message without any float value switches to the gap values selection
mode on the basis of (ga \, gar). N.B.: The resulting gap values in
this case will be a random choice out of the delivered gap values plus
the gar deviation. Useful to create rithmic patterns.;
#X text 430 -19 dur_table float1 float2...floatn: the same as the former
\, but in this case applies to the duration of the grains.;
#X text 429 84 pitch_table float1 float2...floatn: the same as the
former \, but in this case applies to the reading increment of the
audio table for the grains (i.e. \, affects the frequency of the grains).
;
#X text 429 137 Useful for creating pitched sequences of grains. As
an example \, being the table fundamental frequency C5 \, the message
pitch_table 1 4 2 7 will produce pitched grains with their frequency
being selected at random between C#5 \, E5 \, D5 and G5.;
#X text 428 203 If INCR value (gf) is different from "1" \, pitches
will be transposed (test by moving the INCR slider after loading a
selection a picth table).;
#X msg 567 257 1 3 6 8 10;
#X text 441 455 (this values are defined for "female-voice" audio file)
;
#X text 429 351 ptr_table float1 float2...floatn: the same as the former
\, but in this case applies to the starting read time of the audio
for the grains in the audio table. Useful to create grains from specific
regions of the audio table. N.B.: this will set automatically the loop
type to "0" (no loop).;
#X text 372 215 comment;
#X text 288 203 comment;
#X text 295 257 comment;
#X obj 82 54 the_grainer~ 1;
#X connect 20 0 82 0;
#X connect 40 0 63 0;
#X connect 44 0 55 0;
#X connect 45 0 55 0;
#X connect 46 0 64 0;
#X connect 47 0 64 0;
#X connect 48 0 65 0;
#X connect 49 0 65 0;
#X connect 56 0 57 0;
#X connect 57 0 63 0;
#X connect 66 0 57 0;
#X connect 76 0 57 0;
#X connect 82 0 21 0;
#X connect 82 1 21 1;
#X coords 0 684 1 683 85 60 0;
