#N canvas 161 261 307 325 10;
#X floatatom 101 118 0 0 0 0 - - -;
#X obj 164 21 cputime;
#X obj 164 -119 loadbang;
#X obj 164 -35 metro 1000;
#X msg 164 -91 1;
#X floatatom 164 -63 0 0 0 0 - - -;
#X obj 164 -7 t b b;
#X obj 164 81 * 0.1;
#X obj 164 50 int;
#X text 209 -63 <-- on/off;
#X text 97 137 CPU load in percent;
#X msg 84 -23 \; pd dsp 1;
#X obj 84 -44 loadbang;
#X connect 1 0 8 0;
#X connect 2 0 4 0;
#X connect 3 0 6 0;
#X connect 4 0 5 0;
#X connect 5 0 3 0;
#X connect 6 0 1 0;
#X connect 6 1 1 1;
#X connect 7 0 0 0;
#X connect 8 0 7 0;
#X connect 12 0 11 0;
#X coords 0 -1 1 1 25 35 1 100 100;
