#N canvas 0 22 797 533 10;
#X obj 154 44 f \$1;
#X obj 154 24 loadbang;
#X obj 111 172 keyup;
#X obj 72 165 key;
#X obj 75 200 sel;
#X obj 120 200 sel;
#X msg 158 111 49;
#X msg 182 131 50;
#X msg 208 152 51;
#X msg 231 172 52;
#X msg 245 106 53;
#X msg 268 126 54;
#X msg 294 147 55;
#X msg 317 167 56;
#X msg 344 105 57;
#X obj 152 65 sel 1 2 3 4 5 6 7 8 9 0;
#X msg 366 123 48;
#X obj 124 327 * 20;
#X obj 125 376 delay;
#X obj 124 400 f;
#X obj 128 258 t f f;
#X obj 76 255 t f f;
#X obj 65 364 change;
#X obj 205 442 t b;
#X obj 207 487 outlet;
#X obj 262 445 t b;
#X obj 264 490 outlet;
#X obj 87 489 outlet;
#X msg 66 427 1;
#X msg 127 453 0;
#X msg 255 333 5.55556e+06;
#X obj 255 310 loadbang;
#X obj 68 398 sel 1;
#X msg 66 296 1;
#X obj 125 428 sel 1;
#X msg 75 226 0;
#X msg 131 225 1;
#X connect 0 0 15 0;
#X connect 1 0 0 0;
#X connect 2 0 5 0;
#X connect 3 0 4 0;
#X connect 4 0 35 0;
#X connect 5 0 36 0;
#X connect 6 0 4 1;
#X connect 6 0 5 1;
#X connect 7 0 4 1;
#X connect 7 0 5 1;
#X connect 8 0 4 1;
#X connect 8 0 5 1;
#X connect 9 0 4 1;
#X connect 9 0 5 1;
#X connect 10 0 4 1;
#X connect 10 0 5 1;
#X connect 11 0 4 1;
#X connect 11 0 5 1;
#X connect 12 0 4 1;
#X connect 12 0 5 1;
#X connect 13 0 4 1;
#X connect 13 0 5 1;
#X connect 14 0 4 1;
#X connect 14 0 5 1;
#X connect 15 0 6 0;
#X connect 15 1 7 0;
#X connect 15 2 8 0;
#X connect 15 3 9 0;
#X connect 15 4 10 0;
#X connect 15 5 11 0;
#X connect 15 6 12 0;
#X connect 15 7 13 0;
#X connect 15 8 14 0;
#X connect 15 9 16 0;
#X connect 16 0 4 1;
#X connect 16 0 5 1;
#X connect 17 0 18 0;
#X connect 18 0 19 0;
#X connect 19 0 34 0;
#X connect 20 0 17 0;
#X connect 20 1 19 1;
#X connect 21 0 18 0;
#X connect 21 0 33 0;
#X connect 21 1 19 1;
#X connect 22 0 32 0;
#X connect 23 0 24 0;
#X connect 25 0 26 0;
#X connect 28 0 23 0;
#X connect 28 0 27 0;
#X connect 29 0 22 0;
#X connect 29 0 25 0;
#X connect 29 0 27 0;
#X connect 30 0 22 0;
#X connect 31 0 30 0;
#X connect 32 0 28 0;
#X connect 33 0 22 0;
#X connect 34 0 29 0;
#X connect 35 0 21 0;
#X connect 36 0 20 0;
