#N canvas 0 22 478 328 10;
#X obj 234 166 *~;
#X obj 227 72 inlet~;
#X obj 35 180 line~;
#X msg 35 160 \$1 25;
#X obj 307 66 inlet;
#X obj 218 257 outlet~;
#X msg 103 82 1;
#X obj 105 62 loadbang;
#X obj 171 167 *~;
#X obj 164 73 inlet~;
#X obj 155 258 outlet~;
#X obj 110 113 tgl 20 0 empty empty empty 0 -6 0 8 -224960 -1 -1 1
1;
#X obj 87 140 * 0.5;
#X connect 0 0 5 0;
#X connect 1 0 0 0;
#X connect 2 0 0 1;
#X connect 2 0 8 1;
#X connect 3 0 2 0;
#X connect 4 0 11 0;
#X connect 6 0 11 0;
#X connect 7 0 6 0;
#X connect 8 0 10 0;
#X connect 9 0 8 0;
#X connect 11 0 12 0;
#X connect 12 0 3 0;
#X coords 0 -1 1 1 40 35 1 100 100;
