#N canvas 130 34 374 342 10;
#X obj 195 215 spigot;
#X obj 116 214 spigot;
#X obj 166 161 - 1;
#X obj 166 182 abs;
#X obj 219 55 inlet;
#X obj 99 42 inlet;
#X obj 108 276 outlet;
#X obj 192 94 t f f;
#X obj 198 278 outlet;
#X obj 252 133 loadbang;
#X msg 254 166 1;
#X connect 0 0 8 0;
#X connect 1 0 6 0;
#X connect 2 0 3 0;
#X connect 3 0 1 1;
#X connect 4 0 7 0;
#X connect 5 0 1 0;
#X connect 5 0 0 0;
#X connect 7 0 2 0;
#X connect 7 1 0 1;
#X connect 9 0 10 0;
#X connect 10 0 1 1;
