#N canvas 123 23 571 500 16;
#X obj 33 431 *~;
#X obj 44 72 *~;
#X obj 41 5 inlet~;
#X obj 98 33 tabreceive~ hanning;
#X obj 30 464 outlet~;
#X obj 65 400 tabreceive~ hanning;
#X obj 331 17 r window-size;
#X obj 324 184 print;
#X msg 304 90 set \$1 4;
#X obj 37 101 rfft~;
#X obj 39 292 rifft~;
#X obj 33 366 /~;
#X obj 60 341 r window-size;
#X obj 300 143 block~ 1024 4;
#N canvas 0 22 450 300 (subpatch) 0;
#X array filter 2048 float 2;
#X coords 0 120 2048 0 200 140 1 0 0;
#X restore 200 250 graph;
#X obj 108 130 tabreceive~ filter;
#X obj 82 222 *~;
#X obj 38 224 *~;
#X msg 440 77 resize \$1;
#X obj 441 150 s filter;
#X obj 108 176 dbtorms~;
#X connect 0 0 4 0;
#X connect 1 0 9 0;
#X connect 2 0 1 0;
#X connect 3 0 1 1;
#X connect 5 0 0 1;
#X connect 6 0 8 0;
#X connect 6 0 18 0;
#X connect 8 0 7 0;
#X connect 8 0 13 0;
#X connect 9 0 17 0;
#X connect 9 1 16 0;
#X connect 10 0 11 0;
#X connect 11 0 0 0;
#X connect 12 0 11 1;
#X connect 15 0 20 0;
#X connect 16 0 10 1;
#X connect 17 0 10 0;
#X connect 18 0 19 0;
#X connect 20 0 16 1;
#X connect 20 0 17 1;
#X coords 0 -1 1 1 200 140 1 200 250;
