#N canvas 1079 189 450 300 10;
#X msg 93 107 25;
#X msg 118 84 50;
#X msg 139 107 100;
#X msg 166 82 200;
#X msg 183 107 400;
#X msg 208 84 800;
#X msg 229 107 1600;
#X msg 256 82 3200;
#X msg 293 84 6400;
#X msg 314 105 12800;
#X msg 341 82 19200;
#X obj 149 10 playsound~;
#X obj 36 227 output~;
#X obj 85 143 ringspectband;
#X obj 107 143 ringspectband;
#X obj 130 143 ringspectband;
#X obj 152 143 ringspectband;
#X obj 175 143 ringspectband;
#X obj 197 143 ringspectband;
#X obj 220 143 ringspectband;
#X obj 242 143 ringspectband;
#X obj 267 143 ringspectband;
#X obj 290 143 ringspectband;
#X obj 312 143 ringspectband;
#X connect 0 0 13 1;
#X connect 1 0 14 1;
#X connect 2 0 15 1;
#X connect 3 0 16 1;
#X connect 4 0 17 1;
#X connect 5 0 18 1;
#X connect 6 0 19 1;
#X connect 7 0 20 1;
#X connect 8 0 21 1;
#X connect 9 0 22 1;
#X connect 10 0 23 1;
#X connect 11 0 12 0;
#X connect 11 0 13 0;
#X connect 11 0 14 0;
#X connect 11 0 15 0;
#X connect 11 0 16 0;
#X connect 11 0 17 0;
#X connect 11 0 18 0;
#X connect 11 0 19 0;
#X connect 11 0 20 0;
#X connect 11 0 21 0;
#X connect 11 0 22 0;
#X connect 11 0 23 0;
#X connect 11 1 12 1;
