#N canvas 1716 65 1227 725 10;
#X obj 37 114 instruments/kick;
#X obj 237 114 instruments/snare;
#X obj 437 114 instruments/hihat;
#X obj 637 114 instruments/clank;
#X obj 837 114 instruments/buzzer;
#X obj 36 73 r kick-bang;
#X obj 237 73 r snare-bang;
#X obj 436 74 r hihat-bang;
#X obj 637 74 r clank-bang;
#X obj 840 74 r buzzer-bang;
#X obj 38 280 s~ kick;
#X obj 242 281 s~ snare;
#X obj 446 281 s~ hihat;
#X obj 641 282 s~ clank;
#X obj 842 282 s~ buzzer;
#X obj 37 444 *;
#X obj 37 472 + 37;
#X msg 38 536 \; pd-instrument-gui.pd donecanvasdialog 1 -1 1 0 -1
200 134 200 134 \$1 114;
#X msg 37 417 200 \$1;
#X floatatom 36 363 5 0 4 0 - - -;
#X obj 35 340 inlet pos;
#X obj 104 341 i;
#X obj 103 319 r instru-number;
#X obj 235 324 loadbang;
#X obj 235 368 s instru-number-r;
#X msg 234 346 0;
#X obj 37 388 change;
#X connect 0 0 10 0;
#X connect 1 0 11 0;
#X connect 2 0 12 0;
#X connect 3 0 13 0;
#X connect 4 0 14 0;
#X connect 5 0 0 0;
#X connect 6 0 1 0;
#X connect 7 0 2 0;
#X connect 8 0 3 0;
#X connect 9 0 4 0;
#X connect 15 0 16 0;
#X connect 16 0 17 0;
#X connect 18 0 15 0;
#X connect 19 0 26 0;
#X connect 20 0 19 0;
#X connect 21 0 19 0;
#X connect 22 0 21 0;
#X connect 23 0 25 0;
#X connect 25 0 24 0;
#X connect 26 0 18 0;
#X coords 0 -1 200 134 200 134 1 837 114;
