#N canvas 377 138 903 635 10;
#X obj 238 206 s2l;
#X obj 213 164 t s s b;
#X msg 264 183 symbol /;
#X obj 238 234 length;
#X obj 213 137 symbol ../../lib/plugins;
#X msg 213 285 symbol \$1/*/DSP.pd;
#X obj 213 327 s2l;
#X obj 229 455 niagara 4;
#X obj 278 480 niagara -1;
#X obj 103 120 bng 15 250 50 0 \$0-build \$0-build regenerate 17 7
0 10 -262144 -1 -1;
#X obj 213 111 t b b;
#N canvas 0 0 529 335 clear 0;
#X obj 11 81 inlet;
#X obj 11 103 b;
#X msg 11 158 clear \, obj 101 101 cnv 15 96 20 empty empty plugins
6 10 0 14 -233017 -66577 0;
#X obj 11 199 s pd-\$0-gui;
#X connect 0 0 1 0;
#X connect 1 0 2 0;
#X connect 2 0 3 0;
#X restore 438 279 pd clear;
#N canvas 443 326 450 413 \$0-gui 0;
#X obj 101 101 cnv 15 96 20 empty empty plugins 6 10 0 14 -233017 -66577
0;
#X coords 0 -1 1 1 98 260 1 100 100;
#X restore 101 139 pd \$0-gui;
#N canvas 435 354 744 494 generate 0;
#X obj 50 40 inlet;
#X obj 132 206 i;
#X obj 164 207 + 20;
#X obj 132 229 t f f;
#X msg 151 186 130;
#X text 91 37 COMPANDER;
#X obj 75 196 t s b;
#X obj 238 43 inlet;
#X obj 238 76 t b;
#X obj 75 345 s pd-\$0-gui;
#X obj 50 74 t s s;
#X obj 50 95 pack s \$0;
#X msg 50 116 \; \$2-\$1 1;
#X obj 75 255 pack s 0;
#X msg 75 279 list \$1 \$2 $ 0;
#X text 228 286 COMPANDER y $ 0;
#X msg 75 312 obj 104 \$2 tgl 15 0 \$3\$4-\$1 \$3\$4-\$1 \$1 17 7 0
10 -262144 -1 -1 0 1 \, obj 304 \$2 gPluginHelper \$1 \$3\$4-\$1 \$3\$4
;
#X connect 0 0 10 0;
#X connect 1 0 3 0;
#X connect 2 0 1 1;
#X connect 3 0 13 1;
#X connect 3 1 2 0;
#X connect 4 0 1 1;
#X connect 6 0 13 0;
#X connect 6 1 1 0;
#X connect 7 0 8 0;
#X connect 8 0 4 0;
#X connect 10 0 11 0;
#X connect 10 1 6 0;
#X connect 11 0 12 0;
#X connect 13 0 14 0;
#X connect 14 0 16 0;
#X connect 16 0 9 0;
#X restore 278 523 pd generate;
#X obj 582 184 s \$0-inlet;
#X msg 557 102 bang;
#X obj 582 205 r \$0-outlet;
#X obj 582 234 route 1;
#X obj 582 260 symbol;
#X obj 557 131 t b b b;
#X msg 608 323 reset;
#N canvas 0 0 845 598 generateDSPpatch 0;
#X msg 190 510 clear;
#X obj 152 469 list prepend add;
#X obj 152 490 list trim;
#X obj 152 25 inlet;
#X obj 152 46 route reset bang symbol;
#X obj 273 154 symbol;
#X obj 273 274 pack s 0;
#X obj 273 174 t s b;
#X obj 332 195 i;
#X obj 152 69 t b b b;
#X obj 211 299 t b b;
#X obj 332 234 * 25;
#X obj 332 253 + 100;
#X msg 351 169 0;
#X obj 366 195 + 1;
#X obj 332 214 t f f;
#X obj 246 322 i;
#X obj 246 342 t f b;
#X obj 246 383 until;
#X obj 291 383 i;
#X obj 322 383 + 1;
#X msg 291 362 2;
#X msg 291 404 #X connect 0 0 \$1 0 \, #X connect \$1 0 1 0;
#X floatatom 304 330 5 0 0 0 - - -;
#X obj 246 362 + 1;
#X obj 152 533 textfile;
#X msg 211 448 write ../../lib/DSP/abs/EFF_PLUG_IN~.pd;
#X msg 273 292 list \$2 \$1 $ 0 1 2;
#X msg 273 309 #X obj 60 \$1 CUBEmixer_plugin~ \$3\$4 \$2 \$3\$5 \$3\$6
;
#X msg 152 90 list $ 0 1 2;
#X msg 152 112 #N canvas 0 0 450 300 10 \, #X obj 0 0 inlet~ \, #X
obj 0 200 outlet~ \, #X obj 0 50 CUBEmixer_plugin0~ \$1\$2 \$1\$3 \$1\$4
;
#X connect 0 0 25 0;
#X connect 1 0 2 0;
#X connect 2 0 25 0;
#X connect 3 0 4 0;
#X connect 4 0 9 0;
#X connect 4 1 10 0;
#X connect 4 2 5 0;
#X connect 5 0 7 0;
#X connect 6 0 27 0;
#X connect 7 0 6 0;
#X connect 7 1 8 0;
#X connect 8 0 14 0;
#X connect 8 0 15 0;
#X connect 9 0 29 0;
#X connect 9 1 0 0;
#X connect 9 2 13 0;
#X connect 10 0 26 0;
#X connect 10 1 16 0;
#X connect 11 0 12 0;
#X connect 12 0 6 1;
#X connect 13 0 8 1;
#X connect 14 0 8 1;
#X connect 15 0 11 0;
#X connect 15 1 16 1;
#X connect 16 0 17 0;
#X connect 16 0 23 0;
#X connect 17 0 24 0;
#X connect 17 1 21 0;
#X connect 18 0 19 0;
#X connect 19 0 20 0;
#X connect 19 0 22 0;
#X connect 20 0 19 1;
#X connect 21 0 19 0;
#X connect 22 0 1 0;
#X connect 24 0 18 0;
#X connect 26 0 25 0;
#X connect 27 0 28 0;
#X connect 28 0 1 0;
#X connect 29 0 30 0;
#X connect 30 0 1 0;
#X restore 582 388 pd generateDSPpatch;
#N canvas 42 446 845 410 generateGUIpatch 0;
#X msg 190 350 clear;
#X obj 152 293 list prepend add;
#X obj 152 314 list trim;
#X obj 152 25 inlet;
#X msg 152 96 #N canvas 0 0 450 300 10;
#X obj 152 46 route reset bang symbol;
#X obj 273 154 symbol;
#X obj 316 201 i;
#X obj 350 201 + 25;
#X msg 335 175 100;
#X obj 152 69 t b b b;
#X obj 152 373 textfile;
#X obj 273 174 t s b b;
#X obj 273 221 pack s 0;
#X msg 273 239 list \$2 \$1 $ 1 2;
#X msg 273 264 #X obj 60 \$1 inchan/plugin/plugin \$2 \$3\$4 \$3\$5
;
#X msg 196 126 write ../../lib/GUI/inchan/plugin/EFF_PLUG_IN.pd;
#X connect 0 0 11 0;
#X connect 1 0 2 0;
#X connect 2 0 11 0;
#X connect 3 0 5 0;
#X connect 4 0 1 0;
#X connect 5 0 10 0;
#X connect 5 1 16 0;
#X connect 5 2 6 0;
#X connect 6 0 12 0;
#X connect 7 0 8 0;
#X connect 7 0 13 1;
#X connect 8 0 7 1;
#X connect 9 0 7 1;
#X connect 10 0 4 0;
#X connect 10 1 0 0;
#X connect 10 2 9 0;
#X connect 12 0 13 0;
#X connect 12 1 7 0;
#X connect 13 0 14 0;
#X connect 14 0 15 0;
#X connect 15 0 1 0;
#X connect 16 0 11 0;
#X restore 617 367 pd generateGUIpatch;
#X obj 582 343 t a a;
#X obj 213 307 folder_list ../../lib/plugins/*/DSP.pd;
#X obj 229 431 s2l;
#X obj 229 388 l2s;
#X obj 229 409 folder_list ../../lib/plugins/*/GUI.pd;
#X obj 229 349 niagara -1;
#X obj 229 368 list append GUI.pd;
#X obj 213 88 loadbang;
#X obj 557 78 r CUBEmixer_generateConfig;
#X obj 413 258 t b b;
#X msg 413 221 clear;
#X connect 0 0 3 0;
#X connect 1 0 5 0;
#X connect 1 1 0 0;
#X connect 1 2 2 0;
#X connect 2 0 0 1;
#X connect 2 0 6 1;
#X connect 2 0 25 1;
#X connect 2 0 26 1;
#X connect 3 0 7 1;
#X connect 4 0 1 0;
#X connect 5 0 24 0;
#X connect 6 0 28 0;
#X connect 7 1 8 0;
#X connect 8 0 13 0;
#X connect 9 0 10 0;
#X connect 10 0 4 0;
#X connect 10 1 32 0;
#X connect 15 0 19 0;
#X connect 16 0 17 0;
#X connect 17 0 18 0;
#X connect 18 0 23 0;
#X connect 19 0 23 0;
#X connect 19 1 14 0;
#X connect 19 2 20 0;
#X connect 20 0 23 0;
#X connect 23 0 21 0;
#X connect 23 1 22 0;
#X connect 24 0 6 0;
#X connect 25 0 7 0;
#X connect 26 0 27 0;
#X connect 27 0 25 0;
#X connect 28 0 29 0;
#X connect 29 0 26 0;
#X connect 30 0 10 0;
#X connect 31 0 15 0;
#X connect 32 0 13 1;
#X connect 32 1 11 0;
#X connect 33 0 32 0;
#X coords 0 -1 1 1 100 300 1 100 100;
