#N canvas 15 0 994 514 10;
#X obj 261 347 textfile;
#X msg 218 365 bang;
#X obj 108 361 del 500;
#X msg 108 273 bang;
#X msg 204 298 print;
#X obj 611 39 bng 12 250 50 0 empty empty empty -27 9 0 10 -66577 -1
-262144;
#X obj 517 34 bng 18 250 50 0 empty empty empty 23 7 0 10 -228856 -1
-262144;
#X floatatom 711 220 3 0 0 0 - - -;
#X obj 468 5 cnv 15 155 23 empty \$0+display new1 20 12 0 12 -66577
-262144 0;
#X obj 409 5 bng 22 250 50 0 empty \$0-numm + 3 10 2 29 -191407 -258113
-1;
#X obj 711 330 textfile;
#X obj 711 289 prepend symbol;
#X floatatom 842 345 5 0 0 0 - - -;
#X obj 409 30 bng 22 250 50 0 empty empty _ 4 -2 2 29 -191407 -4034
-1;
#X obj 656 156 + 0;
#X obj 656 134 i 1;
#X obj 683 134 i -1;
#X obj 440 5 cnv 15 25 23 empty \$0+numm 1. 4 12 0 12 -66577 -262144
0;
#X obj 712 16 inlet;
#X obj 909 209 i 1;
#X msg 155 293 clear;
#X msg 402 330 clear \, read \$1 \, rewind \, bang;
#X obj 490 313 prepend symbol;
#X obj 711 240 t f b;
#X obj 827 206 f;
#X obj 306 372 outlet;
#X obj 781 228 == -999;
#X msg 711 309 clear \, read \$1 \, rewind \, bang;
#X obj 827 169 bng 15 250 50 0 empty empty empty 17 7 0 10 -262144
-1 -1;
#X obj 881 267 outlet;
#X obj 514 245 prepend set;
#X obj 93 246 prepend set write;
#X msg 842 420 color \$1;
#X obj 617 438 s \$0+numm;
#X obj 711 437 s \$0+display;
#X obj 114 340 s save-data;
#X msg 261 256 clear \, add nickname \$1;
#X obj 261 472 route nickname;
#X obj 711 355 route nickname;
#X obj 763 52 inlet;
#X msg 738 265 symbol -;
#X obj 356 227 sprintf symbol new%i;
#X obj 261 236 symbol new;
#X obj 491 131 delay 100;
#X text 541 34 LOAD;
#X obj 845 69 t b;
#X obj 763 77 route float;
#X text 583 38 save;
#X msg 711 415 label \$1;
#X obj 711 395 prepend symbol;
#X msg 617 418 label \$1.;
#X obj 518 438 symbol;
#X obj 518 389 sprintf *%s;
#X obj 518 412 prepend symbol;
#X obj 487 395 bng 15 250 50 0 empty empty empty 17 7 0 10 -262144
-1 -1;
#X obj 686 33 t b;
#X obj 640 33 del 100;
#X obj 569 121 del 2000;
#X obj 402 439 print ezpst;
#X obj 462 413 del 10;
#X obj 888 326 bng 15 250 50 0 empty empty empty 17 7 0 10 -262144
-1 -1;
#X obj 842 226 + 1;
#X obj 888 361 == 0;
#X obj 831 463 del 200;
#X obj 940 170 i 0;
#X obj 909 338 * 2;
#X text 39 51 (C) 2008 - 2011 Urban Schlemmer;
#X msg 491 294 ./tut/pst/B01-1.ezpst;
#X msg 93 391 write ./tut/pst/B01-1.ezpst;
#X obj 611 74 spigot;
#X obj 888 378 sel 1;
#X obj 505 158 symbol \$1;
#X obj 580 141 t b f;
#X obj 840 -17 bng 15 250 50 0 empty empty empty 17 7 0 10 -262144
-1 -1;
#X obj 926 76 bng 15 250 50 0 empty empty empty 17 7 0 10 -262144 -1
-1;
#X obj 874 78 bng 15 250 50 0 empty empty empty 17 7 0 10 -262144 -1
-1;
#X obj 874 97 i 1;
#X obj 859 119 ||;
#X obj 926 95 i 0;
#X obj 874 -25 loadbang;
#X msg 763 22 color \$1;
#X obj 842 97 i 1;
#X obj 813 98 i 0;
#X obj 753 377 bng 15 250 50 0 empty empty empty 17 7 0 10 -262144
-1 -1;
#X obj 859 142 * 14;
#X obj 859 164 + 2;
#X obj 909 309 route \$2;
#N canvas 48 26 495 290 dirty 0;
#X obj 201 32 loadbang;
#X obj 168 168 zl nth;
#X obj 169 221 outlet;
#X obj 139 140 r dirty;
#X obj 175 42 bng 15 250 50 0 empty empty empty 0 -6 0 10 -262144 -1
-1;
#X obj 201 58 prepend list \$2;
#X obj 201 82 route float;
#X msg 201 114 1 \$1;
#X connect 0 0 5 0;
#X connect 1 1 2 0;
#X connect 3 0 1 0;
#X connect 4 0 5 0;
#X connect 5 0 6 0;
#X connect 6 0 7 0;
#X connect 7 0 1 1;
#X restore 909 290 pd dirty;
#X text 120 137 - int : default preset to load at startup;
#X obj 874 -2 prepend list \$2;
#X obj 874 20 route float symbol;
#X obj 874 43 route 0;
#N canvas 409 52 483 449 setValues 0;
#X obj 183 15 inlet;
#X obj 183 40 list split 1;
#X obj 209 286 sprintf list %s %s %f;
#X obj 177 246 sprintf %s%s;
#X obj 183 146 route float;
#X obj 114 209 bng 15 250 50 0 empty empty empty 0 -6 0 10 -262144
-1 -1;
#X obj 177 189 bng 15 250 50 0 empty empty empty 0 -6 0 10 -262144
-1 -1;
#X msg 107 315 \; \$2 \$1 \$3;
#X obj 183 125 sprintf list %s;
#X obj 177 229 symbol;
#X obj 114 229 symbol;
#X symbolatom 91 117 10 0 0 0 - - -;
#X obj 209 323 print ezpst: setValue;
#X obj 20 160 sel -root-;
#X msg 20 177 0;
#X msg 46 177 1;
#X obj 183 95 splitfilename :;
#X msg 183 68 symbol :\$1;
#X obj 220 220 stripfilename 1;
#X obj 177 169 spigot 1;
#X obj 232 194 spigot 0;
#X obj 91 95 getPath \$2;
#X obj 177 207 del 1;
#X connect 0 0 1 0;
#X connect 1 0 17 0;
#X connect 1 1 2 2;
#X connect 2 0 7 0;
#X connect 2 0 12 0;
#X connect 3 0 2 0;
#X connect 4 0 5 0;
#X connect 4 1 19 0;
#X connect 4 1 20 0;
#X connect 4 1 3 1;
#X connect 5 0 10 0;
#X connect 6 0 22 0;
#X connect 8 0 4 0;
#X connect 9 0 3 0;
#X connect 10 0 2 0;
#X connect 11 0 10 1;
#X connect 11 0 9 1;
#X connect 11 0 13 0;
#X connect 13 0 14 0;
#X connect 13 0 15 0;
#X connect 14 0 19 1;
#X connect 15 0 20 1;
#X connect 16 0 8 0;
#X connect 16 1 2 1;
#X connect 17 0 16 0;
#X connect 18 0 2 0;
#X connect 19 0 6 0;
#X connect 20 0 18 0;
#X connect 21 0 11 0;
#X connect 22 0 9 0;
#X restore 413 470 pd setValues;
#X obj 514 185 sprintf %s%i.ezpst;
#X text 38 168 See tutorial for more detail.;
#X text 39 90 arg1 (optional) : storage name \, i.e. relative to ezpst.pd
\, default : './0x.ezpst';
#X text 38 125 arg2 (optional) : - symbol : instance identifier \,
ie. :path:;
#X msg 391 372 preset '\$1' loaded.;
#X obj 292 443 prepend symbol;
#X msg 402 354 file: \$1;
#X text 40 28 version 1.9;
#X obj 439 33 entry 28 19 grey yellow;
#X obj 316 -1 sel return;
#X msg 285 16 bang \, clear;
#X text 466 27 rename;
#X obj 275 321 propagateValues \$2;
#X obj 276 390 del 10;
#X connect 0 0 37 0;
#X connect 0 0 1 0;
#X connect 0 1 25 0;
#X connect 1 0 106 0;
#X connect 2 0 68 0;
#X connect 3 0 2 0;
#X connect 3 0 35 0;
#X connect 4 0 0 0;
#X connect 5 0 69 0;
#X connect 6 0 43 0;
#X connect 6 0 64 0;
#X connect 7 0 23 0;
#X connect 7 0 24 1;
#X connect 7 0 26 0;
#X connect 7 0 50 0;
#X connect 7 0 29 0;
#X connect 7 0 14 1;
#X connect 7 0 72 0;
#X connect 9 0 15 0;
#X connect 10 0 38 0;
#X connect 11 0 27 0;
#X connect 12 0 32 0;
#X connect 12 0 62 0;
#X connect 13 0 16 0;
#X connect 14 0 7 0;
#X connect 15 0 14 0;
#X connect 16 0 14 0;
#X connect 18 0 49 0;
#X connect 18 0 55 0;
#X connect 19 0 61 0;
#X connect 20 0 0 0;
#X connect 21 0 0 0;
#X connect 22 0 21 0;
#X connect 22 0 99 0;
#X connect 23 0 41 0;
#X connect 23 1 40 0;
#X connect 23 1 81 0;
#X connect 24 0 26 1;
#X connect 26 0 61 0;
#X connect 27 0 10 0;
#X connect 28 0 24 0;
#X connect 28 0 19 0;
#X connect 30 0 67 0;
#X connect 31 0 68 0;
#X connect 32 0 34 0;
#X connect 36 0 0 0;
#X connect 37 0 49 0;
#X connect 37 0 52 0;
#X connect 37 0 28 0;
#X connect 37 0 98 0;
#X connect 37 1 92 0;
#X connect 38 0 49 0;
#X connect 38 0 52 0;
#X connect 38 0 83 0;
#X connect 39 0 46 0;
#X connect 40 0 48 0;
#X connect 41 0 42 1;
#X connect 42 0 36 0;
#X connect 42 0 3 0;
#X connect 43 0 67 0;
#X connect 45 0 57 0;
#X connect 46 0 7 0;
#X connect 46 0 6 0;
#X connect 48 0 34 0;
#X connect 49 0 48 0;
#X connect 49 0 42 1;
#X connect 50 0 33 0;
#X connect 51 0 48 0;
#X connect 52 0 53 0;
#X connect 53 0 51 1;
#X connect 54 0 59 0;
#X connect 55 0 56 0;
#X connect 56 0 5 0;
#X connect 57 0 6 0;
#X connect 59 0 51 0;
#X connect 60 0 63 0;
#X connect 61 0 12 0;
#X connect 62 0 70 0;
#X connect 63 0 12 0;
#X connect 64 0 62 1;
#X connect 65 0 62 1;
#X connect 67 0 22 0;
#X connect 68 0 0 0;
#X connect 68 0 58 0;
#X connect 69 0 19 0;
#X connect 69 0 24 0;
#X connect 69 0 42 0;
#X connect 69 0 57 0;
#X connect 70 0 54 0;
#X connect 71 0 93 0;
#X connect 72 0 71 0;
#X connect 72 1 93 1;
#X connect 73 0 89 0;
#X connect 74 0 78 0;
#X connect 74 0 15 0;
#X connect 75 0 76 0;
#X connect 76 0 77 1;
#X connect 77 0 69 1;
#X connect 77 0 84 0;
#X connect 78 0 77 1;
#X connect 79 0 89 0;
#X connect 80 0 5 0;
#X connect 81 0 77 0;
#X connect 82 0 77 0;
#X connect 83 0 82 0;
#X connect 84 0 85 0;
#X connect 85 0 80 0;
#X connect 86 0 60 0;
#X connect 86 0 65 0;
#X connect 87 0 86 0;
#X connect 89 0 90 0;
#X connect 90 0 91 0;
#X connect 90 1 74 0;
#X connect 91 0 75 0;
#X connect 91 0 15 0;
#X connect 91 1 75 0;
#X connect 91 1 45 0;
#X connect 91 1 7 0;
#X connect 93 0 30 0;
#X connect 93 0 31 0;
#X connect 93 0 11 0;
#X connect 97 0 58 0;
#X connect 98 0 97 0;
#X connect 99 0 58 0;
#X connect 101 0 49 0;
#X connect 101 0 55 0;
#X connect 101 1 102 0;
#X connect 102 0 103 0;
#X connect 103 0 101 0;
#X connect 105 0 0 0;
#X connect 106 0 0 0;
#X coords 0 -1 1 1 235 67 1 398 -9;
