#N canvas 230 197 933 429 10;
#X obj 505 166 bng 15 250 50 0 empty empty 0 5 9 0 10 -262144 -1 -1
;
#X obj 400 194 tgl 10 0 \$0-ttttttttttttt \$0-iiiiiiiiiiiii 2 2 -5
0 8 -262144 -1 -1 0 1;
#X obj 410 194 tgl 10 0 \$0-ttttttttttttt \$0-iiiiiiiiiiiii 3 2 -5
0 8 -262144 -1 -1 0 1;
#X obj 420 194 tgl 10 0 \$0-ttttttttttttt \$0-iiiiiiiiiiiii 4 2 -5
0 8 -262144 -1 -1 0 1;
#X obj 430 194 tgl 10 0 \$0-ttttttttttttt \$0-iiiiiiiiiiiii 5 2 -5
0 8 -262144 -1 -1 0 1;
#X obj 686 367 outlet;
#X obj 702 344 outlet;
#X obj 719 321 outlet;
#X obj 735 298 outlet;
#X obj 752 276 outlet;
#X obj 768 253 outlet;
#X obj 400 17 inlet list;
#N canvas 2 70 803 492 list-iter 0;
#X obj 148 61 inlet;
#X obj 148 353 outlet;
#X obj 148 184 list prepend;
#X obj 148 112 t b a;
#X obj 148 139 until;
#X obj 229 271 t b a;
#X text 337 226 Lists shorter than group size are stored for next list.
Lists longer get split at group size \, shorter part is put out \,
longer part is re-evaluated.;
#X obj 261 293 route bang;
#X obj 148 229 list split 1;
#X text 334 29 adapted from list-abs/list-iter;
#X connect 0 0 3 0;
#X connect 2 0 8 0;
#X connect 3 0 4 0;
#X connect 3 1 2 1;
#X connect 4 0 2 0;
#X connect 5 0 4 1;
#X connect 5 1 7 0;
#X connect 7 1 1 0;
#X connect 8 0 1 0;
#X connect 8 1 2 1;
#X connect 8 2 5 0;
#X restore 400 83 pd list-iter;
#X msg 400 105 \$1 1;
#X obj 400 40 t a b;
#X obj 687 68 route digital;
#X obj 440 194 tgl 10 0 \$0-ttttttttttttt \$0-iiiiiiiiiiiii 6 2 -5
0 8 -262144 -1 -1 0 1;
#X obj 450 194 tgl 10 0 \$0-ttttttttttttt \$0-iiiiiiiiiiiii 7 2 -5
0 8 -262144 -1 -1 0 1;
#X obj 460 194 tgl 10 0 \$0-ttttttttttttt \$0-iiiiiiiiiiiii 8 2 -5
0 8 -262144 -1 -1 0 1;
#X obj 470 194 tgl 10 0 \$0-ttttttttttttt \$0-iiiiiiiiiiiii 9 2 -5
0 8 -262144 -1 -1 0 1;
#X obj 480 194 tgl 10 0 \$0-ttttttttttttt \$0-iiiiiiiiiiiii 10 0 -5
0 8 -262144 -1 -1 0 1;
#X obj 490 194 tgl 10 0 \$0-ttttttttttttt \$0-iiiiiiiiiiiii 11 0 -5
0 8 -262144 -1 -1 0 1;
#X obj 500 194 tgl 10 0 \$0-ttttttttttttt \$0-iiiiiiiiiiiii 12 0 -5
0 8 -262144 -1 -1 0 1;
#X obj 510 194 tgl 10 0 \$0-ttttttttttttt \$0-iiiiiiiiiiiii 13 0 -5
0 8 -262144 -1 -1 0 1;
#X obj 400 127 route 2 3 4 5 6 7 8 9 10 11 12 13;
#X msg 498 57 2 3 4 5 6 7 8 9 10 11 12 13;
#N canvas 2 70 803 492 list-iter 0;
#X obj 148 61 inlet;
#X obj 148 353 outlet;
#X obj 148 184 list prepend;
#X obj 148 112 t b a;
#X obj 148 139 until;
#X obj 229 271 t b a;
#X text 337 226 Lists shorter than group size are stored for next list.
Lists longer get split at group size \, shorter part is put out \,
longer part is re-evaluated.;
#X obj 261 293 route bang;
#X obj 148 229 list split 1;
#X text 334 29 adapted from list-abs/list-iter;
#X connect 0 0 3 0;
#X connect 2 0 8 0;
#X connect 3 0 4 0;
#X connect 3 1 2 1;
#X connect 4 0 2 0;
#X connect 5 0 4 1;
#X connect 5 1 7 0;
#X connect 7 1 1 0;
#X connect 8 0 1 0;
#X connect 8 1 2 1;
#X connect 8 2 5 0;
#X restore 498 80 pd list-iter;
#X msg 498 102 \$1 0;
#X obj 686 91 route 2 3 4 5 6 7 8 9 10 11 12 13;
#X obj 784 227 outlet;
#X obj 800 204 outlet;
#X obj 817 181 outlet;
#X obj 833 158 outlet;
#X obj 850 136 outlet;
#X obj 866 113 outlet;
#N canvas 2 79 1199 648 commands_______________ 0;
#X obj -63 153 pack s f;
#X obj -63 101 sel 0 1;
#X obj -63 129 symbol;
#X msg -17 128 symbol input;
#X msg -63 175 pinMode 2 \$1;
#X obj -63 71 inlet;
#X obj 28 242 pack s f;
#X obj 28 190 sel 0 1;
#X obj 28 218 symbol;
#X msg 74 217 symbol input;
#X obj 28 160 inlet;
#X obj 124 340 pack s f;
#X obj 124 288 sel 0 1;
#X obj 124 316 symbol;
#X msg 170 315 symbol input;
#X obj 124 258 inlet;
#X obj 219 444 pack s f;
#X obj 219 392 sel 0 1;
#X obj 219 420 symbol;
#X msg 265 419 symbol input;
#X obj 219 362 inlet;
#X obj 287 144 pack s f;
#X obj 287 92 sel 0 1;
#X obj 287 120 symbol;
#X msg 333 119 symbol input;
#X obj 287 62 inlet;
#X obj 378 233 pack s f;
#X obj 378 181 sel 0 1;
#X obj 378 209 symbol;
#X msg 424 208 symbol input;
#X obj 378 151 inlet;
#X obj 474 331 pack s f;
#X obj 474 279 sel 0 1;
#X obj 474 307 symbol;
#X msg 520 306 symbol input;
#X obj 474 249 inlet;
#X obj 569 435 pack s f;
#X obj 569 383 sel 0 1;
#X obj 569 411 symbol;
#X msg 615 410 symbol input;
#X obj 569 353 inlet;
#X obj 685 131 pack s f;
#X obj 685 79 sel 0 1;
#X obj 685 107 symbol;
#X msg 731 106 symbol input;
#X obj 685 49 inlet;
#X obj 776 220 pack s f;
#X obj 776 168 sel 0 1;
#X obj 776 196 symbol;
#X msg 822 195 symbol input;
#X obj 776 138 inlet;
#X obj 872 318 pack s f;
#X obj 872 266 sel 0 1;
#X obj 872 294 symbol;
#X msg 918 293 symbol input;
#X obj 872 236 inlet;
#X obj 967 422 pack s f;
#X obj 967 370 sel 0 1;
#X obj 967 398 symbol;
#X msg 1013 397 symbol input;
#X obj 967 340 inlet;
#X obj 290 593 outlet;
#X msg 28 264 pinMode 3 \$1;
#X msg 124 362 pinMode 4 \$1;
#X msg 219 466 pinMode 5 \$1;
#X msg 287 166 pinMode 6 \$1;
#X msg 378 255 pinMode 7 \$1;
#X msg 474 353 pinMode 8 \$1;
#X msg 569 457 pinMode 9 \$1;
#X msg 685 153 pinMode 10 \$1;
#X msg 776 242 pinMode 11 \$1;
#X msg 872 340 pinMode 12 \$1;
#X msg 967 444 pinMode 13 \$1;
#X connect 0 0 4 0;
#X connect 1 0 2 0;
#X connect 1 1 3 0;
#X connect 2 0 0 0;
#X connect 3 0 0 0;
#X connect 4 0 61 0;
#X connect 5 0 1 0;
#X connect 6 0 62 0;
#X connect 7 0 8 0;
#X connect 7 1 9 0;
#X connect 8 0 6 0;
#X connect 9 0 6 0;
#X connect 10 0 7 0;
#X connect 11 0 63 0;
#X connect 12 0 13 0;
#X connect 12 1 14 0;
#X connect 13 0 11 0;
#X connect 14 0 11 0;
#X connect 15 0 12 0;
#X connect 16 0 64 0;
#X connect 17 0 18 0;
#X connect 17 1 19 0;
#X connect 18 0 16 0;
#X connect 19 0 16 0;
#X connect 20 0 17 0;
#X connect 21 0 65 0;
#X connect 22 0 23 0;
#X connect 22 1 24 0;
#X connect 23 0 21 0;
#X connect 24 0 21 0;
#X connect 25 0 22 0;
#X connect 26 0 66 0;
#X connect 27 0 28 0;
#X connect 27 1 29 0;
#X connect 28 0 26 0;
#X connect 29 0 26 0;
#X connect 30 0 27 0;
#X connect 31 0 67 0;
#X connect 32 0 33 0;
#X connect 32 1 34 0;
#X connect 33 0 31 0;
#X connect 34 0 31 0;
#X connect 35 0 32 0;
#X connect 36 0 68 0;
#X connect 37 0 38 0;
#X connect 37 1 39 0;
#X connect 38 0 36 0;
#X connect 39 0 36 0;
#X connect 40 0 37 0;
#X connect 41 0 69 0;
#X connect 42 0 43 0;
#X connect 42 1 44 0;
#X connect 43 0 41 0;
#X connect 44 0 41 0;
#X connect 45 0 42 0;
#X connect 46 0 70 0;
#X connect 47 0 48 0;
#X connect 47 1 49 0;
#X connect 48 0 46 0;
#X connect 49 0 46 0;
#X connect 50 0 47 0;
#X connect 51 0 71 0;
#X connect 52 0 53 0;
#X connect 52 1 54 0;
#X connect 53 0 51 0;
#X connect 54 0 51 0;
#X connect 55 0 52 0;
#X connect 56 0 72 0;
#X connect 57 0 58 0;
#X connect 57 1 59 0;
#X connect 58 0 56 0;
#X connect 59 0 56 0;
#X connect 60 0 57 0;
#X connect 62 0 61 0;
#X connect 63 0 61 0;
#X connect 64 0 61 0;
#X connect 65 0 61 0;
#X connect 66 0 61 0;
#X connect 67 0 61 0;
#X connect 68 0 61 0;
#X connect 69 0 61 0;
#X connect 70 0 61 0;
#X connect 71 0 61 0;
#X connect 72 0 61 0;
#X restore 400 225 pd commands_______________;
#X obj 687 48 spigot;
#X msg 585 169 0;
#X obj 400 246 t a b;
#X msg 596 206 1;
#X obj 595 232 change;
#X text 502 35 close all inputs;
#X obj 269 17 loadbang;
#X obj 269 38 f \$1;
#X obj 269 60 moses 2;
#X text 21 112 arduino-digital-in \; ------------------- \; Open and
close digital inputs \; Inlet : list of inputs to switch on \; Argument:
\$1:first input \; ex : a message [3 4 5[ will switch on inputs 3 \,
4 \, 5 \;;
#X obj 687 27 r FROM-ARDUINO;
#X obj 400 278 s TO-ARDUINO;
#X obj 615 139 r ARDUINO-STOP;
#X connect 0 0 25 0;
#X connect 0 0 37 0;
#X connect 1 0 35 0;
#X connect 2 0 35 1;
#X connect 3 0 35 2;
#X connect 4 0 35 3;
#X connect 11 0 14 0;
#X connect 12 0 13 0;
#X connect 13 0 24 0;
#X connect 14 0 12 0;
#X connect 14 1 25 0;
#X connect 15 0 28 0;
#X connect 16 0 35 4;
#X connect 17 0 35 5;
#X connect 18 0 35 6;
#X connect 19 0 35 7;
#X connect 20 0 35 8;
#X connect 21 0 35 9;
#X connect 22 0 35 10;
#X connect 23 0 35 11;
#X connect 24 0 1 0;
#X connect 24 1 2 0;
#X connect 24 2 3 0;
#X connect 24 3 4 0;
#X connect 24 4 16 0;
#X connect 24 5 17 0;
#X connect 24 6 18 0;
#X connect 24 7 19 0;
#X connect 24 8 20 0;
#X connect 24 9 21 0;
#X connect 24 10 22 0;
#X connect 24 11 23 0;
#X connect 25 0 26 0;
#X connect 26 0 27 0;
#X connect 27 0 24 0;
#X connect 28 0 5 0;
#X connect 28 1 6 0;
#X connect 28 2 7 0;
#X connect 28 3 8 0;
#X connect 28 4 9 0;
#X connect 28 5 10 0;
#X connect 28 6 29 0;
#X connect 28 7 30 0;
#X connect 28 8 31 0;
#X connect 28 9 32 0;
#X connect 28 10 33 0;
#X connect 28 11 34 0;
#X connect 35 0 38 0;
#X connect 36 0 15 0;
#X connect 37 0 40 0;
#X connect 38 0 47 0;
#X connect 38 1 39 0;
#X connect 39 0 40 0;
#X connect 40 0 36 1;
#X connect 42 0 43 0;
#X connect 43 0 44 0;
#X connect 44 1 13 0;
#X connect 46 0 36 0;
#X connect 48 0 0 0;
#X coords 0 -1 1 1 120 60 1 400 150;
