#N canvas 110 306 1108 461 10;
#X obj 729 249 route analog;
#X msg 400 372 0;
#X obj 729 285 route 0 1 2 3 4 5;
#X msg 292 209 analogIns 0 \$1;
#X obj 729 421 outlet;
#X obj 745 398 outlet;
#X obj 762 375 outlet;
#X obj 778 352 outlet;
#X obj 795 330 outlet;
#X obj 811 307 outlet;
#X obj 451 15 inlet list;
#N canvas 1 79 514 452 list-iter 0;
#X obj 31 91 inlet;
#X obj 31 383 outlet;
#X obj 31 214 list prepend;
#X obj 31 142 t b a;
#X obj 31 169 until;
#X obj 112 301 t b a;
#X text 151 242 Lists shorter than group size are stored for next list.
Lists longer get split at group size \, shorter part is put out \,
longer part is re-evaluated.;
#X obj 144 323 route bang;
#X obj 31 259 list split 1;
#X text 33 51 adapted from list-abs/list-iter;
#X connect 0 0 3 0;
#X connect 2 0 8 0;
#X connect 3 0 4 0;
#X connect 3 1 2 1;
#X connect 4 0 2 0;
#X connect 5 0 4 1;
#X connect 5 1 7 0;
#X connect 7 1 1 0;
#X connect 8 0 1 0;
#X connect 8 1 2 1;
#X connect 8 2 5 0;
#X restore 451 71 pd list-iter;
#X obj 451 47 t a b;
#X obj 729 227 spigot;
#X obj 318 344 t a b;
#X msg 361 341 1;
#X obj 400 396 change;
#X obj 382 67 f \$1;
#X text 100 4 arduino-analog-in \; ----------------- \; Open and close
analog inputs \;;
#X obj 451 100 pack f \$0;
#X msg 451 122 \; \$2-open-\$1-in 1;
#X obj 400 420 s \$0-onoff;
#X obj 773 226 r \$0-onoff;
#X obj 292 190 r \$0-open-0;
#X obj 292 236 r \$0-open-1;
#X msg 292 256 analogIns 1 \$1;
#X obj 290 282 r \$0-open-2;
#X msg 290 303 analogIns 2 \$1;
#X obj 419 190 r \$0-open-3;
#X msg 419 211 analogIns 3 \$1;
#X obj 419 237 r \$0-open-4;
#X msg 419 258 analogIns 4 \$1;
#X obj 419 289 r \$0-open-5;
#X msg 419 310 analogIns 5 \$1;
#X obj 725 41 r \$0-reset;
#N canvas 2 70 803 492 list-iter 0;
#X obj 148 61 inlet;
#X obj 148 353 outlet;
#X obj 148 184 list prepend;
#X obj 148 112 t b a;
#X obj 148 139 until;
#X obj 229 271 t b a;
#X text 337 226 Lists shorter than group size are stored for next list.
Lists longer get split at group size \, shorter part is put out \,
longer part is re-evaluated.;
#X obj 261 293 route bang;
#X obj 148 229 list split 1;
#X text 334 29 adapted from list-abs/list-iter;
#X connect 0 0 3 0;
#X connect 2 0 8 0;
#X connect 3 0 4 0;
#X connect 3 1 2 1;
#X connect 4 0 2 0;
#X connect 5 0 4 1;
#X connect 5 1 7 0;
#X connect 7 1 1 0;
#X connect 8 0 1 0;
#X connect 8 1 2 1;
#X connect 8 2 5 0;
#X restore 725 80 pd list-iter;
#X obj 725 102 pack f \$0;
#X msg 725 122 \; \$2-open-\$1-in 0;
#X msg 725 60 0 1 2 3 4 5;
#X obj 400 352 r \$0-reset;
#X obj 546 79 s \$0-reset;
#X obj 382 47 initbang;
#X obj 346 91 s \$0-vu-in;
#X msg 346 69 1;
#X obj 729 205 r FROM-ARDUINO;
#X obj 318 415 s TO-ARDUINO;
#N canvas 442 407 560 201 _VU-METER_ 0;
#X obj 200 103 route 0 1 2 3 4 5;
#N canvas 2585 46 1326 440 vumetre 0;
#X obj -76 47 tgl 15 0 empty empty empty 17 7 0 10 -262144 -1 -1 0
1;
#N canvas 220 436 450 300 resample50 0;
#X obj 309 25 inlet;
#X obj 270 205 outlet;
#X obj 270 177 list 0;
#X obj 270 149 metro 50;
#X obj 227 45 initbang;
#X connect 0 0 2 1;
#X connect 2 0 1 0;
#X connect 3 0 2 0;
#X connect 4 0 3 0;
#X restore -164 100 pd resample50;
#X obj -67 112 initbang;
#X msg -76 135 0;
#X obj -164 152 line;
#X msg -164 124 \$1 60;
#X obj -76 75 sel 0;
#X obj -163 -45 inlet;
#X obj -165 180 expr $f1 * 40;
#X obj -165 323 s \$0vu0;
#X obj -165 223 spigot;
#X msg -67 293 pos 100 \$1;
#X obj -74 18 r \$0-vu;
#X obj 162 44 tgl 15 0 empty empty empty 17 7 0 10 -262144 -1 -1 0
1;
#N canvas 220 436 450 300 resample50 0;
#X obj 116 68 inlet;
#X obj 44 167 outlet;
#X obj 44 139 list 0;
#X obj 44 111 metro 50;
#X obj 44 70 initbang;
#X connect 0 0 2 1;
#X connect 2 0 1 0;
#X connect 3 0 2 0;
#X connect 4 0 3 0;
#X restore 74 97 pd resample50;
#X obj 171 109 initbang;
#X msg 162 132 0;
#X obj 74 149 line;
#X msg 74 121 \$1 60;
#X obj 162 72 sel 0;
#X obj 75 -48 inlet;
#X obj 73 177 expr $f1 * 40;
#X obj 73 220 spigot;
#X obj 164 15 r \$0-vu;
#X obj 374 47 tgl 15 0 empty empty empty 17 7 0 10 -262144 -1 -1 0
1;
#N canvas 222 435 450 300 resample50 0;
#X obj 309 25 inlet;
#X obj 270 205 outlet;
#X obj 270 177 list 0;
#X obj 270 149 metro 50;
#X obj 227 45 initbang;
#X connect 0 0 2 1;
#X connect 2 0 1 0;
#X connect 3 0 2 0;
#X connect 4 0 3 0;
#X restore 286 100 pd resample50;
#X obj 383 112 initbang;
#X msg 374 135 0;
#X obj 286 152 line;
#X msg 286 124 \$1 60;
#X obj 374 75 sel 0;
#X obj 287 -45 inlet;
#X obj 285 180 expr $f1 * 40;
#X obj 285 223 spigot;
#X obj 374 18 r \$0-vu;
#X obj 600 52 tgl 15 0 empty empty empty 17 7 0 10 -262144 -1 -1 0
1;
#N canvas 220 436 450 300 resample50 0;
#X obj 309 25 inlet;
#X obj 270 205 outlet;
#X obj 270 177 list 0;
#X obj 270 149 metro 50;
#X obj 227 45 initbang;
#X connect 0 0 2 1;
#X connect 2 0 1 0;
#X connect 3 0 2 0;
#X connect 4 0 3 0;
#X restore 512 105 pd resample50;
#X obj 609 117 initbang;
#X msg 600 140 0;
#X obj 512 157 line;
#X msg 512 129 \$1 60;
#X obj 600 80 sel 0;
#X obj 513 -40 inlet;
#X obj 511 185 expr $f1 * 40;
#X obj 511 228 spigot;
#X obj 602 23 r \$0-vu;
#X obj 843 49 tgl 15 0 empty empty empty 17 7 0 10 -262144 -1 -1 0
1;
#N canvas 222 435 450 300 resample50 0;
#X obj 309 25 inlet;
#X obj 270 205 outlet;
#X obj 270 177 list 0;
#X obj 270 149 metro 50;
#X obj 227 45 initbang;
#X connect 0 0 2 1;
#X connect 2 0 1 0;
#X connect 3 0 2 0;
#X connect 4 0 3 0;
#X restore 755 102 pd resample50;
#X obj 852 114 initbang;
#X msg 843 137 0;
#X obj 755 154 line;
#X msg 755 126 \$1 60;
#X obj 843 77 sel 0;
#X obj 756 -43 inlet;
#X obj 754 182 expr $f1 * 40;
#X obj 754 225 spigot;
#X obj 845 20 r \$0-vu;
#X obj 1038 49 tgl 15 0 empty empty empty 17 7 0 10 -262144 -1 -1 0
1;
#N canvas 222 435 450 300 resample50 0;
#X obj 309 25 inlet;
#X obj 270 205 outlet;
#X obj 270 177 list 0;
#X obj 270 149 metro 50;
#X obj 227 45 initbang;
#X connect 0 0 2 1;
#X connect 2 0 1 0;
#X connect 3 0 2 0;
#X connect 4 0 3 0;
#X restore 950 102 pd resample50;
#X obj 1047 114 initbang;
#X msg 1038 137 0;
#X obj 950 154 line;
#X msg 950 126 \$1 60;
#X obj 1038 77 sel 0;
#X obj 951 -43 inlet;
#X obj 949 182 expr $f1 * 40;
#X obj 949 225 spigot;
#X obj 1040 20 r \$0-vu;
#X obj 949 325 s \$0vu5;
#X obj 754 325 s \$0vu4;
#X obj 511 328 s \$0vu3;
#X obj 285 323 s \$0vu2;
#X obj 73 320 s \$0vu1;
#X floatatom 125 233 5 0 0 0 - - -;
#X obj -67 266 expr 160 - $f1;
#X obj 171 263 expr 160 - $f1;
#X obj 383 266 expr 160 - $f1;
#X obj 609 271 expr 160 - $f1;
#X obj 1047 268 expr 160 - $f1;
#X obj 853 268 expr 160 - $f1;
#X msg 171 290 pos 114 \$1;
#X floatatom -38 194 5 0 0 0 - - -;
#X msg -165 293 vis_size 13 \$1;
#X msg 73 290 vis_size 13 \$1;
#X msg 285 293 vis_size 13 \$1;
#X msg 510 298 vis_size 13 \$1;
#X msg 754 295 vis_size 13 \$1;
#X msg 949 295 vis_size 13 \$1;
#X msg 383 293 pos 128 \$1;
#X msg 609 298 pos 142 \$1;
#X msg 852 295 pos 156 \$1;
#X msg 1047 295 pos 170 \$1;
#X connect 0 0 6 0;
#X connect 0 0 10 1;
#X connect 1 0 5 0;
#X connect 2 0 3 0;
#X connect 3 0 8 0;
#X connect 4 0 8 0;
#X connect 5 0 4 0;
#X connect 6 0 3 0;
#X connect 7 0 1 0;
#X connect 8 0 10 0;
#X connect 10 0 82 0;
#X connect 10 0 74 0;
#X connect 11 0 9 0;
#X connect 12 0 0 0;
#X connect 13 0 19 0;
#X connect 13 0 22 1;
#X connect 14 0 18 0;
#X connect 15 0 16 0;
#X connect 16 0 21 0;
#X connect 17 0 21 0;
#X connect 18 0 17 0;
#X connect 19 0 16 0;
#X connect 20 0 14 0;
#X connect 21 0 22 0;
#X connect 22 0 83 0;
#X connect 22 0 75 0;
#X connect 23 0 13 0;
#X connect 24 0 30 0;
#X connect 24 0 33 1;
#X connect 25 0 29 0;
#X connect 26 0 27 0;
#X connect 27 0 32 0;
#X connect 28 0 32 0;
#X connect 29 0 28 0;
#X connect 30 0 27 0;
#X connect 31 0 25 0;
#X connect 32 0 33 0;
#X connect 33 0 84 0;
#X connect 33 0 76 0;
#X connect 34 0 24 0;
#X connect 35 0 41 0;
#X connect 35 0 44 1;
#X connect 36 0 40 0;
#X connect 37 0 38 0;
#X connect 38 0 43 0;
#X connect 39 0 43 0;
#X connect 40 0 39 0;
#X connect 41 0 38 0;
#X connect 42 0 36 0;
#X connect 43 0 44 0;
#X connect 44 0 85 0;
#X connect 44 0 77 0;
#X connect 45 0 35 0;
#X connect 46 0 52 0;
#X connect 46 0 55 1;
#X connect 47 0 51 0;
#X connect 48 0 49 0;
#X connect 49 0 54 0;
#X connect 50 0 54 0;
#X connect 51 0 50 0;
#X connect 52 0 49 0;
#X connect 53 0 47 0;
#X connect 54 0 55 0;
#X connect 55 0 86 0;
#X connect 55 0 79 0;
#X connect 56 0 46 0;
#X connect 57 0 63 0;
#X connect 57 0 66 1;
#X connect 58 0 62 0;
#X connect 59 0 60 0;
#X connect 60 0 65 0;
#X connect 61 0 65 0;
#X connect 62 0 61 0;
#X connect 63 0 60 0;
#X connect 64 0 58 0;
#X connect 65 0 66 0;
#X connect 66 0 87 0;
#X connect 66 0 78 0;
#X connect 67 0 57 0;
#X connect 74 0 11 0;
#X connect 75 0 80 0;
#X connect 76 0 88 0;
#X connect 77 0 89 0;
#X connect 78 0 91 0;
#X connect 79 0 90 0;
#X connect 80 0 72 0;
#X connect 81 0 74 0;
#X connect 82 0 9 0;
#X connect 83 0 72 0;
#X connect 84 0 71 0;
#X connect 85 0 70 0;
#X connect 86 0 69 0;
#X connect 87 0 68 0;
#X connect 88 0 71 0;
#X connect 89 0 70 0;
#X connect 90 0 69 0;
#X connect 91 0 68 0;
#X restore 200 136 pd vumetre;
#X obj 200 77 inlet;
#X connect 0 0 1 0;
#X connect 0 1 1 1;
#X connect 0 2 1 2;
#X connect 0 3 1 3;
#X connect 0 4 1 4;
#X connect 0 5 1 5;
#X connect 2 0 0 0;
#X restore 625 284 pd _VU-METER_;
#X obj 546 16 inlet bang;
#X obj 546 43 route bang float;
#X obj 619 80 s \$0-vu-in;
#N canvas 362 467 1060 300 color 0;
#X obj -27 223 s \$0-open-0-in;
#X obj -27 135 r \$0-open-0;
#X obj -27 157 sel 0 1;
#X msg -27 190 color 1;
#X msg 30 189 color 14;
#X obj 68 223 s \$0vu0;
#X obj 143 157 sel 0 1;
#X msg 143 190 color 1;
#X msg 200 189 color 14;
#X obj 307 156 sel 0 1;
#X msg 307 189 color 1;
#X msg 364 188 color 14;
#X obj 477 156 sel 0 1;
#X msg 477 189 color 1;
#X msg 534 188 color 14;
#X obj 639 155 sel 0 1;
#X msg 639 188 color 1;
#X msg 696 187 color 14;
#X obj 796 154 sel 0 1;
#X msg 796 187 color 1;
#X msg 853 186 color 14;
#X obj 143 135 r \$0-open-1;
#X obj 143 223 s \$0-open-1-in;
#X obj 238 223 s \$0vu1;
#X obj 307 134 r \$0-open-2;
#X obj 307 222 s \$0-open-2-in;
#X obj 402 222 s \$0vu2;
#X obj 477 134 r \$0-open-3;
#X obj 477 222 s \$0-open-3-in;
#X obj 572 222 s \$0vu3;
#X obj 639 133 r \$0-open-4;
#X obj 639 221 s \$0-open-4-in;
#X obj 734 221 s \$0vu4;
#X obj 796 132 r \$0-open-5;
#X obj 796 220 s \$0-open-5-in;
#X obj 891 220 s \$0vu5;
#X connect 1 0 2 0;
#X connect 2 0 3 0;
#X connect 2 1 4 0;
#X connect 3 0 0 0;
#X connect 3 0 5 0;
#X connect 4 0 0 0;
#X connect 4 0 5 0;
#X connect 6 0 7 0;
#X connect 6 1 8 0;
#X connect 7 0 22 0;
#X connect 7 0 23 0;
#X connect 8 0 22 0;
#X connect 8 0 23 0;
#X connect 9 0 10 0;
#X connect 9 1 11 0;
#X connect 10 0 25 0;
#X connect 10 0 26 0;
#X connect 11 0 25 0;
#X connect 11 0 26 0;
#X connect 12 0 13 0;
#X connect 12 1 14 0;
#X connect 13 0 28 0;
#X connect 13 0 29 0;
#X connect 14 0 28 0;
#X connect 14 0 29 0;
#X connect 15 0 16 0;
#X connect 15 1 17 0;
#X connect 16 0 31 0;
#X connect 16 0 32 0;
#X connect 17 0 31 0;
#X connect 17 0 32 0;
#X connect 18 0 19 0;
#X connect 18 1 20 0;
#X connect 19 0 34 0;
#X connect 19 0 35 0;
#X connect 20 0 34 0;
#X connect 20 0 35 0;
#X connect 21 0 6 0;
#X connect 24 0 9 0;
#X connect 27 0 12 0;
#X connect 30 0 15 0;
#X connect 33 0 18 0;
#X restore 625 308 pd color;
#X obj 931 357 outlet;
#X obj 978 357 outlet;
#X obj 1025 356 outlet;
#X text 927 337 not use output for design :;
#X obj 184 104 cnv 3 35 60 empty empty empty 20 12 0 14 -228856 -66577
0;
#X obj 187 107 bng 10 250 50 0 \$0-reset \$0-reset-in rst 12 6 0 9
-228856 -99865 -99865;
#X obj 187 119 tgl 10 0 \$0-vu \$0-vu-in vu 12 5 1 9 -261682 -99865
-99865 0 1;
#X obj 187 62 r ARDUINO-STOP;
#X obj 114 105 tgl 14 0 \$0-open-1 \$0-open-1-in 1 4 7 1 10 -166441
-260097 -262144 0 1;
#X obj 128 105 tgl 14 0 \$0-open-2 \$0-open-2-in 2 4 7 1 10 -166441
-260097 -262144 0 1;
#X obj 142 105 tgl 14 0 \$0-open-3 \$0-open-3-in 3 4 7 0 10 -166441
-260097 -262144 0 1;
#X obj 156 105 tgl 14 0 \$0-open-4 \$0-open-4-in 4 4 7 0 10 -166441
-260097 -262144 0 1;
#X obj 170 105 tgl 14 0 \$0-open-5 \$0-open-5-in 5 5 7 1 10 -166441
-260097 -262144 0 1;
#X obj 100 105 tgl 14 0 \$0-open-0 \$0-open-0-in 0 5 7 1 10 -260818
-260097 -262144 0 1;
#X obj 114 160 cnv 1 13 1 empty \$0vu1 empty 20 12 0 14 -166441 -262144
0;
#X obj 100 160 cnv 1 13 1 empty \$0vu0 empty 20 12 0 14 -260818 -262144
0;
#X obj 156 160 cnv 1 13 1 empty \$0vu4 empty 20 12 0 14 -166441 -262144
0;
#X obj 142 160 cnv 1 13 1 empty \$0vu3 empty 20 12 0 14 -166441 -262144
0;
#X obj 170 160 cnv 1 13 1 empty \$0vu5 empty 20 12 0 14 -166441 -262144
0;
#X obj 128 160 cnv 1 13 1 empty \$0vu2 empty 20 12 0 14 -166441 -262144
0;
#X connect 0 0 2 0;
#X connect 0 0 46 0;
#X connect 1 0 16 0;
#X connect 2 0 4 0;
#X connect 2 1 5 0;
#X connect 2 2 6 0;
#X connect 2 3 7 0;
#X connect 2 4 8 0;
#X connect 2 5 9 0;
#X connect 3 0 14 0;
#X connect 10 0 12 0;
#X connect 11 0 19 0;
#X connect 12 0 11 0;
#X connect 12 1 40 0;
#X connect 13 0 0 0;
#X connect 14 0 45 0;
#X connect 14 1 15 0;
#X connect 15 0 16 0;
#X connect 16 0 21 0;
#X connect 17 0 19 0;
#X connect 19 0 20 0;
#X connect 22 0 13 1;
#X connect 23 0 3 0;
#X connect 24 0 25 0;
#X connect 25 0 14 0;
#X connect 26 0 27 0;
#X connect 27 0 14 0;
#X connect 28 0 29 0;
#X connect 29 0 14 0;
#X connect 30 0 31 0;
#X connect 31 0 14 0;
#X connect 32 0 33 0;
#X connect 33 0 14 0;
#X connect 34 0 38 0;
#X connect 35 0 36 0;
#X connect 36 0 37 0;
#X connect 38 0 35 0;
#X connect 39 0 1 0;
#X connect 41 0 17 0;
#X connect 41 0 43 0;
#X connect 43 0 42 0;
#X connect 44 0 13 0;
#X connect 47 0 48 0;
#X connect 48 0 40 0;
#X connect 48 1 49 0;
#X connect 58 0 56 0;
#X coords 0 -1 1 1 120 80 1 100 85;
