#N canvas 9 86 593 333 10;
#X obj 85 130 key;
#X obj 238 203 tgl 10 0 empty empty empty 17 7 0 10 -257985 -1 -1 1
1;
#X obj 224 132 initbang;
#X obj 235 246 outlet;
#X obj 235 216 bng 15 100 50 0 empty empty 0 5 8 0 10 -262144 -1 -1
;
#X obj 100 246 outlet;
#X obj 100 216 bng 15 100 50 0 empty empty 1 5 8 0 10 -262144 -1 -1
;
#X obj 115 246 outlet;
#X obj 115 216 bng 15 100 50 0 empty empty 2 5 8 0 10 -262144 -1 -1
;
#X obj 130 246 outlet;
#X obj 130 216 bng 15 100 50 0 empty empty 3 5 8 0 10 -262144 -1 -1
;
#X obj 145 246 outlet;
#X obj 145 216 bng 15 100 50 0 empty empty 4 5 8 0 10 -262144 -1 -1
;
#X obj 160 246 outlet;
#X obj 160 216 bng 15 100 50 0 empty empty 5 5 8 0 10 -262144 -1 -1
;
#X obj 175 246 outlet;
#X obj 175 216 bng 15 100 50 0 empty empty 6 5 8 0 10 -262144 -1 -1
;
#X obj 190 246 outlet;
#X obj 190 216 bng 15 100 50 0 empty empty 7 5 8 0 10 -262144 -1 -1
;
#X obj 205 246 outlet;
#X obj 205 216 bng 15 100 50 0 empty empty 8 5 8 0 10 -262144 -1 -1
;
#X obj 220 246 outlet;
#X obj 220 216 bng 15 100 50 0 empty empty 9 5 8 0 10 -262144 -1 -1
;
#X floatatom 41 150 5 0 0 0 - - -;
#X obj 85 177 sel 48 49 50 51 52 53 54 55 56 57;
#X obj 85 153 spigot 1;
#X connect 0 0 25 0;
#X connect 1 0 25 1;
#X connect 2 0 1 0;
#X connect 4 0 3 0;
#X connect 6 0 5 0;
#X connect 8 0 7 0;
#X connect 10 0 9 0;
#X connect 12 0 11 0;
#X connect 14 0 13 0;
#X connect 16 0 15 0;
#X connect 18 0 17 0;
#X connect 20 0 19 0;
#X connect 22 0 21 0;
#X connect 24 0 4 0;
#X connect 24 1 6 0;
#X connect 24 2 8 0;
#X connect 24 3 10 0;
#X connect 24 4 12 0;
#X connect 24 5 14 0;
#X connect 24 6 16 0;
#X connect 24 7 18 0;
#X connect 24 8 20 0;
#X connect 24 9 22 0;
#X connect 25 0 23 0;
#X connect 25 0 24 0;
#X coords 0 -1 1 1 150 35 1 100 200;
