#N canvas 146 221 1008 457 10;
#N canvas 416 149 863 611 cam_blob_capt 0;
#X obj 294 342 / 100;
#X obj 203 400 pix_motionblur;
#X obj 396 318 vsl 15 60 0 1 0 0 empty empty blur 0 -8 0 8 -195568
-258699 -1 2950 1;
#X floatatom 396 386 5 0 0 0 - - -;
#X obj 203 362 pix_movement 0.5;
#X obj 221 530 outlet;
#X obj 354 215 inlet;
#X obj 429 299 inlet;
#X obj 444 483 tgl 15 0 empty empty empty 0 -6 0 8 -262144 -1 -1 1
1;
#X obj 444 461 inlet;
#X floatatom 102 621 3 0 0 0 - - -;
#X floatatom 63 620 3 0 0 0 - - -;
#X floatatom 139 622 3 0 0 0 - - -;
#X text 139 635 size;
#X text 106 634 Y;
#X text 70 633 X;
#X obj 130 595 spigot;
#X obj 92 595 spigot;
#X obj 54 595 spigot;
#X obj 203 440 pix_blob 4;
#X obj 239 501 outlet;
#X obj 258 474 outlet;
#X msg 396 285 0.5;
#N canvas 2 72 553 611 senVal2cursor 0;
#X obj 190 417 - 0.5;
#X obj 325 364 - 0.5;
#X msg 161 389 1;
#X obj 190 389 -;
#X obj 261 51 tgl 15 0 empty empty empty 0 -6 0 8 -262144 -1 -1 1 1
;
#X obj 261 29 inlet;
#X obj 168 364 t b f;
#N canvas 12 50 1048 754 cursor 0;
#X obj -32 465 color;
#X obj 2 285 vsl 8 50 0 1 0 0 empty empty empty 0 -8 0 8 -258699 -1
-1 0 1;
#X obj 10 285 vsl 8 50 0 1 0 0 empty empty empty 0 -8 0 8 -24198 -1
-1 0 1;
#X obj 18 285 vsl 8 50 0 1 0 0 empty empty empty 0 -8 0 8 -355 -1 -1
0 1;
#X obj 26 285 vsl 8 50 0 1 0 0 empty empty empty 0 -8 0 8 -195568 -1
-1 0 1;
#N canvas 0 22 452 302 color 0;
#X obj 44 212 pack f f f f;
#X msg 44 236 \$1 \$2 \$3 \$4;
#X obj 26 145 bng 15 250 50 0 empty empty empty 0 -6 0 8 -262144 -1
-1;
#X obj 41 144 t b f;
#X obj 41 35 vsl 8 50 0 1 0 0 empty empty empty 0 -8 0 8 -258699 -1
-1 0 1;
#X obj 49 35 vsl 8 50 0 1 0 0 empty empty empty 0 -8 0 8 -24198 -1
-1 0 1;
#X obj 57 35 vsl 8 50 0 1 0 0 empty empty empty 0 -8 0 8 -355 -1 -1
0 1;
#X obj 65 35 vsl 8 50 0 1 0 0 empty empty empty 0 -8 0 8 -195568 -1
-1 0 1;
#X obj 63 167 t b f;
#X obj 86 189 t b f;
#X floatatom 77 86 5 0 0 0 - - -;
#X floatatom 67 101 5 0 0 0 - - -;
#X floatatom 53 115 5 0 0 0 - - -;
#X floatatom 35 129 5 0 0 0 - - -;
#X obj 17 7 inlet;
#X obj 52 7 inlet;
#X obj 87 7 inlet;
#X obj 122 8 inlet;
#X obj 44 261 outlet;
#X connect 0 0 1 0;
#X connect 1 0 18 0;
#X connect 2 0 0 0;
#X connect 3 0 0 0;
#X connect 3 1 0 1;
#X connect 4 0 0 0;
#X connect 4 0 13 0;
#X connect 5 0 3 0;
#X connect 5 0 12 0;
#X connect 6 0 8 0;
#X connect 6 0 11 0;
#X connect 7 0 9 0;
#X connect 7 0 10 0;
#X connect 8 0 0 0;
#X connect 8 1 0 2;
#X connect 9 0 0 0;
#X connect 9 1 0 3;
#X connect 14 0 4 0;
#X connect 15 0 5 0;
#X connect 16 0 6 0;
#X connect 17 0 7 0;
#X restore -7 345 pd color;
#X obj 25 188 alpha;
#X obj 6 165 tgl 15 0 empty empty empty 0 -6 0 8 -262144 -1 -1 0 1
;
#X floatatom 128 91 5 0 0 0 - - -;
#X floatatom 11 475 5 0 0 0 - - -;
#X obj 25 228 separator;
#X obj 140 471 color;
#X obj 174 390 vsl 8 50 0 1 0 0 empty empty empty 0 -8 0 8 -258699
-1 -1 0 1;
#X obj 182 390 vsl 8 50 0 1 0 0 empty empty empty 0 -8 0 8 -24198 -1
-1 0 1;
#X obj 190 390 vsl 8 50 0 1 0 0 empty empty empty 0 -8 0 8 -355 -1
-1 0 1;
#X obj 198 390 vsl 8 50 0 1 0 0 empty empty empty 0 -8 0 8 -195568
-1 -1 0 1;
#N canvas 0 22 452 302 color 0;
#X obj 44 212 pack f f f f;
#X msg 44 236 \$1 \$2 \$3 \$4;
#X obj 26 145 bng 15 250 50 0 empty empty empty 0 -6 0 8 -262144 -1
-1;
#X obj 41 144 t b f;
#X obj 41 35 vsl 8 50 0 1 0 0 empty empty empty 0 -8 0 8 -258699 -1
-1 0 1;
#X obj 49 35 vsl 8 50 0 1 0 0 empty empty empty 0 -8 0 8 -24198 -1
-1 0 1;
#X obj 57 35 vsl 8 50 0 1 0 0 empty empty empty 0 -8 0 8 -355 -1 -1
0 1;
#X obj 65 35 vsl 8 50 0 1 0 0 empty empty empty 0 -8 0 8 -195568 -1
-1 0 1;
#X obj 63 167 t b f;
#X obj 86 189 t b f;
#X floatatom 77 86 5 0 0 0 - - -;
#X floatatom 67 101 5 0 0 0 - - -;
#X floatatom 53 115 5 0 0 0 - - -;
#X floatatom 35 129 5 0 0 0 - - -;
#X obj 17 7 inlet;
#X obj 52 7 inlet;
#X obj 87 7 inlet;
#X obj 122 8 inlet;
#X obj 44 261 outlet;
#X connect 0 0 1 0;
#X connect 1 0 18 0;
#X connect 2 0 0 0;
#X connect 3 0 0 0;
#X connect 3 1 0 1;
#X connect 4 0 0 0;
#X connect 4 0 13 0;
#X connect 5 0 3 0;
#X connect 5 0 12 0;
#X connect 6 0 8 0;
#X connect 6 0 11 0;
#X connect 7 0 9 0;
#X connect 7 0 10 0;
#X connect 8 0 0 0;
#X connect 8 1 0 2;
#X connect 9 0 0 0;
#X connect 9 1 0 3;
#X connect 14 0 4 0;
#X connect 15 0 5 0;
#X connect 16 0 6 0;
#X connect 17 0 7 0;
#X restore 165 450 pd color;
#X floatatom 216 477 5 0 0 0 - - -;
#X obj 139 225 separator;
#X floatatom 227 279 5 0 0 0 - - -;
#X floatatom 251 235 5 0 0 0 - - -;
#X msg 256 186 0.41;
#X obj 251 207 * -1;
#X obj 140 297 rotateXYZ O O 90;
#X obj 299 468 color;
#X obj 333 387 vsl 8 50 0 1 0 0 empty empty empty 0 -8 0 8 -258699
-1 -1 0 1;
#X obj 341 387 vsl 8 50 0 1 0 0 empty empty empty 0 -8 0 8 -24198 -1
-1 0 1;
#X obj 349 387 vsl 8 50 0 1 0 0 empty empty empty 0 -8 0 8 -355 -1
-1 0 1;
#X obj 357 387 vsl 8 50 0 1 0 0 empty empty empty 0 -8 0 8 -195568
-1 -1 0 1;
#N canvas 0 22 452 302 color 0;
#X obj 44 212 pack f f f f;
#X msg 44 236 \$1 \$2 \$3 \$4;
#X obj 26 145 bng 15 250 50 0 empty empty empty 0 -6 0 8 -262144 -1
-1;
#X obj 41 144 t b f;
#X obj 41 35 vsl 8 50 0 1 0 0 empty empty empty 0 -8 0 8 -258699 -1
-1 0 1;
#X obj 49 35 vsl 8 50 0 1 0 0 empty empty empty 0 -8 0 8 -24198 -1
-1 0 1;
#X obj 57 35 vsl 8 50 0 1 0 0 empty empty empty 0 -8 0 8 -355 -1 -1
0 1;
#X obj 65 35 vsl 8 50 0 1 0 0 empty empty empty 0 -8 0 8 -195568 -1
-1 0 1;
#X obj 63 167 t b f;
#X obj 86 189 t b f;
#X floatatom 77 86 5 0 0 0 - - -;
#X floatatom 67 101 5 0 0 0 - - -;
#X floatatom 53 115 5 0 0 0 - - -;
#X floatatom 35 129 5 0 0 0 - - -;
#X obj 17 7 inlet;
#X obj 52 7 inlet;
#X obj 87 7 inlet;
#X obj 122 8 inlet;
#X obj 44 261 outlet;
#X connect 0 0 1 0;
#X connect 1 0 18 0;
#X connect 2 0 0 0;
#X connect 3 0 0 0;
#X connect 3 1 0 1;
#X connect 4 0 0 0;
#X connect 4 0 13 0;
#X connect 5 0 3 0;
#X connect 5 0 12 0;
#X connect 6 0 8 0;
#X connect 6 0 11 0;
#X connect 7 0 9 0;
#X connect 7 0 10 0;
#X connect 8 0 0 0;
#X connect 8 1 0 2;
#X connect 9 0 0 0;
#X connect 9 1 0 3;
#X connect 14 0 4 0;
#X connect 15 0 5 0;
#X connect 16 0 6 0;
#X connect 17 0 7 0;
#X restore 324 447 pd color;
#X floatatom 375 474 5 0 0 0 - - -;
#X obj 298 222 separator;
#X floatatom 366 320 5 0 0 0 - - -;
#X floatatom 422 247 5 0 0 0 - - -;
#X obj 410 204 * -1;
#X msg 415 183 -0.41;
#X obj 298 350 rotateXYZ O O -90;
#X obj 467 471 color;
#X obj 501 390 vsl 8 50 0 1 0 0 empty empty empty 0 -8 0 8 -258699
-1 -1 0 1;
#X obj 509 390 vsl 8 50 0 1 0 0 empty empty empty 0 -8 0 8 -24198 -1
-1 0 1;
#X obj 517 390 vsl 8 50 0 1 0 0 empty empty empty 0 -8 0 8 -355 -1
-1 0 1;
#X obj 525 390 vsl 8 50 0 1 0 0 empty empty empty 0 -8 0 8 -195568
-1 -1 0 1;
#N canvas 0 22 452 302 color 0;
#X obj 44 212 pack f f f f;
#X msg 44 236 \$1 \$2 \$3 \$4;
#X obj 26 145 bng 15 250 50 0 empty empty empty 0 -6 0 8 -262144 -1
-1;
#X obj 41 144 t b f;
#X obj 41 35 vsl 8 50 0 1 0 0 empty empty empty 0 -8 0 8 -258699 -1
-1 0 1;
#X obj 49 35 vsl 8 50 0 1 0 0 empty empty empty 0 -8 0 8 -24198 -1
-1 0 1;
#X obj 57 35 vsl 8 50 0 1 0 0 empty empty empty 0 -8 0 8 -355 -1 -1
0 1;
#X obj 65 35 vsl 8 50 0 1 0 0 empty empty empty 0 -8 0 8 -195568 -1
-1 0 1;
#X obj 63 167 t b f;
#X obj 86 189 t b f;
#X floatatom 77 86 5 0 0 0 - - -;
#X floatatom 67 101 5 0 0 0 - - -;
#X floatatom 53 115 5 0 0 0 - - -;
#X floatatom 35 129 5 0 0 0 - - -;
#X obj 17 7 inlet;
#X obj 52 7 inlet;
#X obj 87 7 inlet;
#X obj 122 8 inlet;
#X obj 44 261 outlet;
#X connect 0 0 1 0;
#X connect 1 0 18 0;
#X connect 2 0 0 0;
#X connect 3 0 0 0;
#X connect 3 1 0 1;
#X connect 4 0 0 0;
#X connect 4 0 13 0;
#X connect 5 0 3 0;
#X connect 5 0 12 0;
#X connect 6 0 8 0;
#X connect 6 0 11 0;
#X connect 7 0 9 0;
#X connect 7 0 10 0;
#X connect 8 0 0 0;
#X connect 8 1 0 2;
#X connect 9 0 0 0;
#X connect 9 1 0 3;
#X connect 14 0 4 0;
#X connect 15 0 5 0;
#X connect 16 0 6 0;
#X connect 17 0 7 0;
#X restore 492 450 pd color;
#X floatatom 543 477 5 0 0 0 - - -;
#X obj 466 225 separator;
#X floatatom 535 315 5 0 0 0 - - -;
#X floatatom 590 250 5 0 0 0 - - -;
#X obj 467 345 rotateXYZ O O 180;
#X obj 59 50 inlet;
#X obj 93 50 inlet;
#X floatatom 82 97 5 0 0 0 - - -;
#X obj 140 498 triangle 0.12;
#X obj 299 495 triangle 0.12;
#X obj 467 498 triangle 0.12;
#X obj -32 492 triangle 0.12;
#X obj 25 132 translateXYZ;
#X text 272 11 x;
#X text 391 6 y;
#X obj -30 131 r init1;
#X obj -32 256 translateXYZ 0 0.24 0;
#X obj 466 286 translateXYZ 0 -0.24 0;
#X floatatom 86 235 5 0 0 0 - - -;
#X floatatom 423 266 5 0 0 0 - - -;
#X obj 299 283 translateXYZ 0.24 0 0;
#X obj 137 255 translateXYZ -0.24 0 0;
#X obj 443 62 f;
#X obj 406 61 f;
#X obj 406 84 -;
#X obj 406 35 t f b b f;
#X obj 406 106 > 0;
#X msg 4 390 0 1 0 0.8;
#X obj 406 137 select 0;
#X obj 463 138 select 1;
#X msg 546 432 0 1 0 0.8;
#X obj 546 412 r y0;
#X obj 575 412 r y1;
#X obj 4 370 r y0;
#X obj 33 371 r y1;
#X obj 463 158 s y1;
#X obj 406 156 s y0;
#X obj 326 58 f;
#X obj 289 57 f;
#X obj 289 80 -;
#X obj 289 31 t f b b f;
#X obj 289 102 > 0;
#X obj 289 133 select 0;
#X obj 346 134 select 1;
#X obj 289 152 s x0;
#X obj 346 154 s x1;
#X msg 221 389 0 1 0 0.8;
#X obj 221 369 r x0;
#X obj 252 368 r x1;
#X msg 156 353 0 1 0 0.8;
#X obj 156 333 r x0;
#X obj 185 333 r x1;
#X text 301 515 gauche;
#X text 140 516 droite;
#X text 467 516 bas;
#X text -33 509 haut;
#X msg 221 409 0 1 0 0.3;
#X msg 4 410 0 1 0 0.3;
#X msg 156 373 0 1 0 0.3;
#X msg 546 452 0 1 0 0.3;
#X obj 200 168 select 1;
#X obj 200 188 s xyO;
#X obj 47 351 r xyO;
#X obj 250 351 r xyO;
#X obj 185 314 r xyO;
#X obj 576 392 r xyO;
#X obj 159 188 bng 15 250 50 0 empty empty empty 0 -6 0 8 -262144 -1
-1;
#X obj 200 90 r qtitmvt;
#X msg 378 427 0 1 0 0.8;
#X obj 378 408 r x0;
#X obj 407 408 r x1;
#X msg 378 447 0 1 0 0.3;
#X obj 407 389 r xyO;
#X floatatom 90 165 5 0 0 0 - - -;
#X obj 25 163 rotateXYZ;
#X obj 641 473 color;
#X obj 675 392 vsl 8 50 0 1 0 0 empty empty empty 0 -8 0 8 -258699
-1 -1 0 1;
#X obj 683 392 vsl 8 50 0 1 0 0 empty empty empty 0 -8 0 8 -24198 -1
-1 0 1;
#X obj 691 392 vsl 8 50 0 1 0 0 empty empty empty 0 -8 0 8 -355 -1
-1 0 1;
#X obj 699 392 vsl 8 50 0 1 0 0 empty empty empty 0 -8 0 8 -195568
-1 -1 0 1;
#N canvas 0 22 452 302 color 0;
#X obj 44 212 pack f f f f;
#X msg 44 236 \$1 \$2 \$3 \$4;
#X obj 26 145 bng 15 250 50 0 empty empty empty 0 -6 0 8 -262144 -1
-1;
#X obj 41 144 t b f;
#X obj 41 35 vsl 8 50 0 1 0 0 empty empty empty 0 -8 0 8 -258699 -1
-1 0 1;
#X obj 49 35 vsl 8 50 0 1 0 0 empty empty empty 0 -8 0 8 -24198 -1
-1 0 1;
#X obj 57 35 vsl 8 50 0 1 0 0 empty empty empty 0 -8 0 8 -355 -1 -1
0 1;
#X obj 65 35 vsl 8 50 0 1 0 0 empty empty empty 0 -8 0 8 -195568 -1
-1 0 1;
#X obj 63 167 t b f;
#X obj 86 189 t b f;
#X floatatom 77 86 5 0 0 0 - - -;
#X floatatom 67 101 5 0 0 0 - - -;
#X floatatom 53 115 5 0 0 0 - - -;
#X floatatom 35 129 5 0 0 0 - - -;
#X obj 17 7 inlet;
#X obj 52 7 inlet;
#X obj 87 7 inlet;
#X obj 122 8 inlet;
#X obj 44 261 outlet;
#X connect 0 0 1 0;
#X connect 1 0 18 0;
#X connect 2 0 0 0;
#X connect 3 0 0 0;
#X connect 3 1 0 1;
#X connect 4 0 0 0;
#X connect 4 0 13 0;
#X connect 5 0 3 0;
#X connect 5 0 12 0;
#X connect 6 0 8 0;
#X connect 6 0 11 0;
#X connect 7 0 9 0;
#X connect 7 0 10 0;
#X connect 8 0 0 0;
#X connect 8 1 0 2;
#X connect 9 0 0 0;
#X connect 9 1 0 3;
#X connect 14 0 4 0;
#X connect 15 0 5 0;
#X connect 16 0 6 0;
#X connect 17 0 7 0;
#X restore 666 452 pd color;
#X floatatom 681 482 5 0 0 0 - - -;
#X obj 640 227 separator;
#X floatatom 709 317 5 0 0 0 - - -;
#X floatatom 764 252 5 0 0 0 - - -;
#X obj 752 209 * -1;
#X obj 641 347 rotateXYZ O O 180;
#X msg 762 188 0.82;
#X obj 640 288 translateXYZ 0 0 0;
#X obj 808 389 alternate;
#X obj 808 367 metro 200;
#X msg 790 455 1 0 0 0.3;
#X msg 790 435 1 0 0 0.9;
#X obj 808 343 tgl 15 0 empty empty empty 0 -6 0 8 -262144 -1 -1 0
1;
#X obj 808 322 r init1;
#X msg 891 342 1000;
#X obj 856 151 * 1000;
#X obj 856 106 - 1;
#X obj 856 128 abs;
#X obj 856 80 r Ycoord;
#X obj 857 172 i;
#X obj 200 148 < 1e-09;
#X obj 578 207 * -1;
#X msg 588 186 0.82;
#X obj 19 70 ortho;
#X obj 641 500 circle 0.07;
#X msg 790 478 draw fill;
#X text 288 169 droite;
#X text 405 169 bas;
#X obj 139 -17 inlet;
#X obj 19 0 tgl 15 0 empty empty empty 0 -6 0 8 -262144 -1 -1 1 1;
#X obj 216 456 r siztri;
#X obj 384 493 r siztri;
#X obj 550 498 r siztri;
#X obj 11 456 r siztri;
#X obj 940 469 color;
#X obj 974 388 vsl 8 50 0 1 0 0 empty empty empty 0 -8 0 8 -258699
-1 -1 0 1;
#X obj 982 388 vsl 8 50 0 1 0 0 empty empty empty 0 -8 0 8 -24198 -1
-1 0 1;
#X obj 990 388 vsl 8 50 0 1 0 0 empty empty empty 0 -8 0 8 -355 -1
-1 0 1;
#X obj 998 388 vsl 8 50 0 1 0 0 empty empty empty 0 -8 0 8 -195568
-1 -1 0 1;
#N canvas 0 22 452 302 color 0;
#X obj 44 212 pack f f f f;
#X msg 44 236 \$1 \$2 \$3 \$4;
#X obj 26 145 bng 15 250 50 0 empty empty empty 0 -6 0 8 -262144 -1
-1;
#X obj 41 144 t b f;
#X obj 41 35 vsl 8 50 0 1 0 0 empty empty empty 0 -8 0 8 -258699 -1
-1 0 1;
#X obj 49 35 vsl 8 50 0 1 0 0 empty empty empty 0 -8 0 8 -24198 -1
-1 0 1;
#X obj 57 35 vsl 8 50 0 1 0 0 empty empty empty 0 -8 0 8 -355 -1 -1
0 1;
#X obj 65 35 vsl 8 50 0 1 0 0 empty empty empty 0 -8 0 8 -195568 -1
-1 0 1;
#X obj 63 167 t b f;
#X obj 86 189 t b f;
#X floatatom 77 86 5 0 0 0 - - -;
#X floatatom 67 101 5 0 0 0 - - -;
#X floatatom 53 115 5 0 0 0 - - -;
#X floatatom 35 129 5 0 0 0 - - -;
#X obj 17 7 inlet;
#X obj 52 7 inlet;
#X obj 87 7 inlet;
#X obj 122 8 inlet;
#X obj 44 261 outlet;
#X connect 0 0 1 0;
#X connect 1 0 18 0;
#X connect 2 0 0 0;
#X connect 3 0 0 0;
#X connect 3 1 0 1;
#X connect 4 0 0 0;
#X connect 4 0 13 0;
#X connect 5 0 3 0;
#X connect 5 0 12 0;
#X connect 6 0 8 0;
#X connect 6 0 11 0;
#X connect 7 0 9 0;
#X connect 7 0 10 0;
#X connect 8 0 0 0;
#X connect 8 1 0 2;
#X connect 9 0 0 0;
#X connect 9 1 0 3;
#X connect 14 0 4 0;
#X connect 15 0 5 0;
#X connect 16 0 6 0;
#X connect 17 0 7 0;
#X restore 965 448 pd color;
#X floatatom 980 478 5 0 0 0 - - -;
#X obj 939 223 separator;
#X floatatom 1008 313 5 0 0 0 - - -;
#X floatatom 1063 248 5 0 0 0 - - -;
#X obj 1051 205 * -1;
#X obj 940 343 rotateXYZ O O 180;
#X msg 1061 184 0.82;
#X obj 939 284 translateXYZ 0 0 0;
#X obj 1107 385 alternate;
#X obj 1107 363 metro 200;
#X obj 1107 339 tgl 15 0 empty empty empty 0 -6 0 8 -262144 -1 -1 0
1;
#X obj 1107 302 r init1;
#X msg 1190 338 1000;
#X obj 940 496 circle 0.07;
#X msg 1089 477 draw line;
#X obj 1124 88 r \$0-Tblob;
#X floatatom 1155 135 5 0 0 0 - - -;
#X obj 1124 165 * 27;
#X obj 1159 460 r ib;
#X msg 1090 503 draw fill;
#X text 641 518 cercle;
#X text 940 514 circle;
#X obj 19 18 gemhead 199;
#X msg 1089 431 1 0 0 0.5;
#X msg 1089 451 1 0 0 0.1;
#X msg 1192 452 1 0 0 \$1;
#X obj 1161 166 * 3;
#X connect 0 0 54 0;
#X connect 1 0 5 0;
#X connect 2 0 5 1;
#X connect 3 0 5 2;
#X connect 4 0 5 3;
#X connect 5 0 0 1;
#X connect 6 0 10 0;
#X connect 6 0 18 0;
#X connect 6 0 31 0;
#X connect 6 0 44 0;
#X connect 6 0 125 0;
#X connect 6 0 165 0;
#X connect 7 0 6 0;
#X connect 8 0 55 3;
#X connect 9 0 54 1;
#X connect 10 0 59 0;
#X connect 11 0 51 0;
#X connect 12 0 16 0;
#X connect 13 0 16 1;
#X connect 14 0 16 2;
#X connect 15 0 16 3;
#X connect 16 0 11 1;
#X connect 17 0 51 1;
#X connect 18 0 64 0;
#X connect 19 0 23 3;
#X connect 20 0 64 2;
#X connect 21 0 22 0;
#X connect 21 0 64 2;
#X connect 22 0 64 1;
#X connect 23 0 11 0;
#X connect 24 0 52 0;
#X connect 25 0 29 0;
#X connect 26 0 29 1;
#X connect 27 0 29 2;
#X connect 28 0 29 3;
#X connect 29 0 24 1;
#X connect 30 0 52 1;
#X connect 31 0 63 0;
#X connect 32 0 36 3;
#X connect 33 0 63 1;
#X connect 34 0 63 1;
#X connect 35 0 34 0;
#X connect 35 0 63 2;
#X connect 36 0 24 0;
#X connect 37 0 53 0;
#X connect 38 0 42 0;
#X connect 39 0 42 1;
#X connect 40 0 42 2;
#X connect 41 0 42 3;
#X connect 42 0 37 1;
#X connect 43 0 53 1;
#X connect 44 0 60 0;
#X connect 45 0 47 3;
#X connect 46 0 60 1;
#X connect 47 0 37 0;
#X connect 48 0 55 1;
#X connect 48 0 83 0;
#X connect 49 0 55 2;
#X connect 49 0 68 0;
#X connect 50 0 55 2;
#X connect 55 0 117 0;
#X connect 58 0 7 0;
#X connect 59 0 0 0;
#X connect 60 0 47 0;
#X connect 61 0 59 1;
#X connect 62 0 63 2;
#X connect 63 0 36 0;
#X connect 64 0 23 0;
#X connect 65 0 67 1;
#X connect 66 0 67 0;
#X connect 67 0 69 0;
#X connect 68 0 65 1;
#X connect 68 1 66 0;
#X connect 68 2 65 0;
#X connect 68 3 66 1;
#X connect 69 0 71 0;
#X connect 69 0 72 0;
#X connect 70 0 0 1;
#X connect 71 0 79 0;
#X connect 72 0 78 0;
#X connect 73 0 37 1;
#X connect 74 0 73 0;
#X connect 75 0 102 0;
#X connect 76 0 100 0;
#X connect 77 0 70 0;
#X connect 80 0 82 1;
#X connect 81 0 82 0;
#X connect 82 0 84 0;
#X connect 83 0 80 1;
#X connect 83 1 81 0;
#X connect 83 2 80 0;
#X connect 83 3 81 1;
#X connect 84 0 85 0;
#X connect 84 0 86 0;
#X connect 85 0 87 0;
#X connect 86 0 88 0;
#X connect 89 0 11 1;
#X connect 90 0 89 0;
#X connect 91 0 99 0;
#X connect 93 0 92 0;
#X connect 94 0 101 0;
#X connect 99 0 11 1;
#X connect 100 0 0 1;
#X connect 102 0 37 1;
#X connect 103 0 104 0;
#X connect 105 0 100 0;
#X connect 106 0 99 0;
#X connect 107 0 101 0;
#X connect 108 0 102 0;
#X connect 110 0 144 0;
#X connect 111 0 24 1;
#X connect 112 0 114 0;
#X connect 113 0 111 0;
#X connect 114 0 24 1;
#X connect 115 0 114 0;
#X connect 116 0 117 3;
#X connect 117 0 6 0;
#X connect 118 0 148 0;
#X connect 119 0 123 0;
#X connect 120 0 123 1;
#X connect 121 0 123 2;
#X connect 122 0 123 3;
#X connect 123 0 118 1;
#X connect 124 0 148 1;
#X connect 125 0 131 0;
#X connect 126 0 129 3;
#X connect 127 0 131 1;
#X connect 129 0 118 0;
#X connect 130 0 128 0;
#X connect 130 0 131 2;
#X connect 131 0 129 0;
#X connect 132 0 135 0;
#X connect 132 1 134 0;
#X connect 133 0 132 0;
#X connect 134 0 118 1;
#X connect 135 0 118 1;
#X connect 136 0 133 0;
#X connect 137 0 136 0;
#X connect 138 0 133 1;
#X connect 139 0 143 0;
#X connect 140 0 141 0;
#X connect 141 0 139 0;
#X connect 142 0 140 0;
#X connect 143 0 133 1;
#X connect 144 0 103 0;
#X connect 146 0 145 0;
#X connect 146 0 60 2;
#X connect 147 0 55 0;
#X connect 149 0 148 0;
#X connect 152 0 153 0;
#X connect 153 0 186 0;
#X connect 154 0 17 0;
#X connect 155 0 30 0;
#X connect 156 0 43 0;
#X connect 157 0 9 0;
#X connect 158 0 177 0;
#X connect 159 0 163 0;
#X connect 160 0 163 1;
#X connect 161 0 163 2;
#X connect 162 0 163 3;
#X connect 163 0 158 1;
#X connect 164 0 177 1;
#X connect 165 0 171 0;
#X connect 166 0 169 3;
#X connect 167 0 171 1;
#X connect 169 0 158 0;
#X connect 170 0 168 0;
#X connect 170 0 171 2;
#X connect 171 0 169 0;
#X connect 172 0 187 0;
#X connect 172 1 188 0;
#X connect 173 0 172 0;
#X connect 174 0 173 0;
#X connect 176 0 173 1;
#X connect 178 0 177 0;
#X connect 179 0 181 0;
#X connect 179 0 190 0;
#X connect 180 0 181 1;
#X connect 181 0 177 1;
#X connect 182 0 178 0;
#X connect 183 0 177 0;
#X connect 186 0 147 0;
#X connect 187 0 158 1;
#X connect 188 0 158 1;
#X connect 189 0 158 1;
#X connect 190 0 189 0;
#X restore 213 524 pd cursor;
#X floatatom 254 412 5 0 0 0 - - -;
#X obj 136 526 s Xcursor;
#X obj 298 528 s Ycursor;
#X obj 90 289 inlet;
#X obj 211 288 inlet;
#X obj 190 467 average 4;
#X obj 325 406 average 4;
#X obj 325 384 * 8;
#X obj 190 438 * 8;
#X connect 0 0 16 0;
#X connect 1 0 15 0;
#X connect 2 0 3 0;
#X connect 3 0 0 0;
#X connect 4 0 7 2;
#X connect 5 0 4 0;
#X connect 6 0 2 0;
#X connect 6 1 3 1;
#X connect 8 0 13 1;
#X connect 8 0 14 1;
#X connect 11 0 6 0;
#X connect 12 0 1 0;
#X connect 13 0 7 0;
#X connect 13 0 9 0;
#X connect 14 0 7 1;
#X connect 14 0 10 0;
#X connect 15 0 14 0;
#X connect 16 0 13 0;
#X restore 353 662 pd senVal2cursor;
#X floatatom 294 324 5 0 100 2 - - -;
#X obj 294 234 vsl 17 80 0 100 0 0 empty empty Thresold 0 -8 0 8 -228992
-258699 -1 1343 1;
#X msg 294 201 17;
#X obj 203 757 color;
#X floatatom 280 794 5 0 0 0 - - -;
#X floatatom 314 794 5 0 0 0 - - -;
#X floatatom 280 759 5 0 0 0 - - -;
#X obj 314 753 * 3;
#X obj 314 774 / 4;
#X obj 280 739 inlet;
#X obj 203 778 pix_texture;
#X obj 203 808 rectangle 5.334 4;
#X obj 203 727 alpha;
#X msg 75 101 open 0;
#X msg 75 121 enumerate;
#X msg 75 138 setup;
#X msg 75 158 dialog format;
#X obj 203 42 tgl 25 0 empty empty Gem 0 -6 0 8 -258699 -1 -1 0 1;
#X msg 75 51 close;
#X msg 75 84 open 1;
#X obj 203 185 pix_rgba;
#X msg 75 67 open 2;
#X obj 75 10 inlet;
#X msg 75 31 dialog;
#X msg 73 428 driver 0;
#X obj 204 13 inlet;
#X msg 74 380 colorspace RGBA;
#X msg 73 407 device 1;
#X msg 73 467 device \$1;
#X floatatom 74 451 5 0 0 0 - - -;
#X msg 74 342 reset;
#X msg 74 360 quality \$1;
#X obj 74 308 hradio 15 1 0 4 empty empty empty 0 -6 0 8 -262144 -1
-1 0;
#X floatatom 74 323 5 0 0 0 - - -;
#X msg 75 175 dialog crossbar;
#X msg 75 192 dialog source;
#X msg 75 209 dialog display;
#X msg 75 230 dv res full;
#X msg 75 247 dv res half;
#X msg 75 264 dv res quarter;
#X msg 75 281 dv res dc;
#X obj 114 514 r s;
#X obj 113 546 tgl 21 0 empty empty Monitor 0 -6 0 8 -260818 -258699
-1 0 1;
#X obj 130 657 s \$0-TblobM;
#X obj 92 680 s \$0-YcoordM;
#X obj 54 702 s \$0-XcoordM;
#X text 263 521 Y;
#X text 235 550 X;
#X text 283 490 Taille du blob;
#X obj 203 71 gemhead 19;
#X obj 203 626 spigot;
#X obj 244 569 inlet;
#X obj 234 600 tgl 19 0 empty empty Affichage_webcam 0 -6 0 8 -24198
-261689 -1 1 1;
#X obj 265 700 inlet;
#X obj 239 729 tgl 19 0 empty empty Alpha 0 -6 0 8 -33289 -262144 -1
0 1;
#X text 321 158 pix_video 720 576 pour MACOS avec camera DV;
#X text 321 170 pix_videoDS pour Windows pour options avec camera DV
;
#X obj 390 594 + 1;
#X obj 390 569 * -1;
#X obj 6 28 inlet;
#X obj 203 664 rotateXYZ 0 0 0;
#X connect 0 0 4 1;
#X connect 1 0 19 0;
#X connect 2 0 3 0;
#X connect 3 0 1 1;
#X connect 4 0 1 0;
#X connect 6 0 25 0;
#X connect 7 0 2 0;
#X connect 8 0 23 2;
#X connect 9 0 8 0;
#X connect 16 0 12 0;
#X connect 16 0 67 0;
#X connect 17 0 10 0;
#X connect 17 0 68 0;
#X connect 18 0 11 0;
#X connect 18 0 69 0;
#X connect 19 0 74 0;
#X connect 19 1 23 0;
#X connect 19 1 5 0;
#X connect 19 1 18 0;
#X connect 19 2 17 0;
#X connect 19 2 20 0;
#X connect 19 2 82 0;
#X connect 19 3 16 0;
#X connect 19 3 21 0;
#X connect 22 0 2 0;
#X connect 24 0 0 0;
#X connect 25 0 24 0;
#X connect 26 0 25 0;
#X connect 27 0 34 0;
#X connect 28 0 35 1;
#X connect 29 0 35 2;
#X connect 30 0 31 0;
#X connect 30 0 28 0;
#X connect 31 0 32 0;
#X connect 32 0 29 0;
#X connect 33 0 30 0;
#X connect 34 0 35 0;
#X connect 36 0 27 0;
#X connect 41 0 73 0;
#X connect 44 0 4 0;
#X connect 46 0 47 0;
#X connect 49 0 41 0;
#X connect 53 0 52 0;
#X connect 56 0 57 0;
#X connect 57 0 55 0;
#X connect 65 0 66 0;
#X connect 66 0 18 1;
#X connect 66 0 17 1;
#X connect 66 0 16 1;
#X connect 74 0 84 0;
#X connect 75 0 76 0;
#X connect 76 0 74 1;
#X connect 77 0 78 0;
#X connect 78 0 36 0;
#X connect 81 0 23 1;
#X connect 82 0 81 0;
#X connect 83 0 44 0;
#X connect 84 0 36 0;
#X restore 65 278 pd cam_blob_capt;
#X floatatom 202 236 3 0 100 2 - - -;
#X msg 168 39 0.5;
#X obj 67 306 s \$0-Xcoord;
#X obj 141 306 s \$0-Ycoord;
#X obj 217 306 s \$0-Tblob;
#X obj -26 195 tgl 19 0 empty ib1 Gem 0 -6 0 8 -258699 -1 -1 0 1;
#X obj -58 192 bng 21 250 50 0 empty empty Source 0 -6 0 8 -241291
-24198 -1;
#X floatatom 165 235 3 0 100 2 - - -;
#X obj 140 118 tgl 10 0 empty empty display 12 5 0 8 -257985 -1 -1
1 1;
#X obj -54 230 tgl 19 0 empty ib1 Alpha 0 -6 0 8 -33289 -262144 -1
0 1;
#X floatatom 106 138 4 0 0 2 - - -;
#X msg 105 64 5.334;
#N canvas 549 0 483 718 gestion_seuil 0;
#X obj 59 26 inlet;
#X obj 193 28 inlet;
#X obj 285 393 outlet;
#X obj 161 162 f;
#X obj 143 188 -;
#X obj 143 237 change;
#X obj 143 216 > 0;
#X floatatom 154 115 5 0 0 0 - - -;
#X obj 143 137 t f f b f;
#X obj 201 237 change;
#X obj 241 238 select 1;
#X obj 284 297 +;
#X obj 278 271 t b f;
#X obj 285 317 change;
#X obj 285 336 select 2;
#X obj 201 216 > 100;
#X obj 106 114 moses 0;
#X obj 106 92 spigot;
#X obj 135 74 tgl 15 0 empty empty empty 0 -6 0 8 -233017 -24198 -1
0 1;
#X msg 297 239 0;
#X obj 17 235 change;
#X obj 59 236 select 1;
#X obj 17 214 < 100;
#X msg 113 237 1;
#X msg 135 46 1;
#X obj 17 194 - 1;
#X obj 135 25 loadbang;
#X floatatom 43 158 5 0 0 0 - - -;
#X connect 0 0 25 0;
#X connect 0 0 17 0;
#X connect 1 0 22 1;
#X connect 1 0 15 1;
#X connect 3 0 4 1;
#X connect 4 0 6 0;
#X connect 5 0 11 0;
#X connect 6 0 5 0;
#X connect 7 0 8 0;
#X connect 8 0 4 0;
#X connect 8 1 3 1;
#X connect 8 2 3 0;
#X connect 8 3 15 0;
#X connect 9 0 12 0;
#X connect 9 0 10 0;
#X connect 10 0 19 0;
#X connect 11 0 13 0;
#X connect 12 0 11 0;
#X connect 12 1 11 1;
#X connect 13 0 14 0;
#X connect 14 0 2 0;
#X connect 15 0 9 0;
#X connect 16 1 8 0;
#X connect 17 0 16 0;
#X connect 18 0 17 1;
#X connect 19 0 18 0;
#X connect 20 0 21 0;
#X connect 21 0 23 0;
#X connect 22 0 20 0;
#X connect 23 0 18 0;
#X connect 24 0 18 0;
#X connect 25 0 22 0;
#X connect 27 0 25 1;
#X restore 516 316 pd gestion_seuil;
#X obj 543 114 spigot;
#X obj 574 83 tgl 29 0 empty ib1 Mon 0 -6 0 8 -258699 -24198 -1 0 1
;
#X obj 543 142 vsl 21 100 0 100 0 0 empty empty empty 0 -8 0 8 -260818
-258699 -1 0 1;
#X obj 564 142 vsl 21 100 0 100 0 0 empty empty empty 0 -8 0 8 -257472
-1 -1 5940 1;
#X floatatom 564 245 5 0 0 0 - - -;
#X floatatom 543 245 3 0 0 0 - - -;
#X obj 612 104 loadbang;
#X obj 506 341 bng 49 250 50 0 empty empty empty 0 -6 0 8 -225271 -258699
-1;
#X obj 635 64 cnv 15 230 40 empty empty Seuil_par_Defaut_(60) 10 18
0 12 -261689 -66577 0;
#X msg 612 123 60;
#X text 604 141 changer la valeur du seuil par defaut;
#X text 604 152 au demarrage ici : ctrl+e + changer val;
#X obj 543 76 f;
#X obj 544 58 * 100;
#X obj 543 30 r \$0-Tblob;
#X obj 626 179 cnv 15 200 225 empty empty Seuil_par_lissage_moyenne
1 12 0 10 -233017 -66577 0;
#X obj 673 297 > 60;
#X obj 673 317 change;
#X obj 673 338 select 1;
#X obj 673 359 bng 39 250 50 0 empty empty empty 0 -6 0 8 -225271 -258699
-1;
#X obj 673 238 average 3;
#X floatatom 702 284 5 0 0 0 - - -;
#X obj 673 217 * 100;
#X floatatom 722 221 3 0 0 0 - - -;
#X obj 105 11 initbang;
#X msg 199 39 1;
#X msg 71 52 0;
#X obj 50 400 outlet;
#X obj 111 400 outlet;
#X obj 143 133 hsl 100 10 0 1 0 0 empty empty tolerance 4 6 0 9 -262144
-1 -1 1683 1;
#X obj 143 145 hsl 100 10 0 1 0 0 empty empty blur 4 6 0 9 -262144
-1 -1 4950 1;
#X obj 198 187 * 100;
#X msg 129 40 0.17;
#X obj 197 118 tgl 10 0 empty empty cursor 12 5 0 8 -262130 -1 -1 1
1;
#X obj 50 370 + 1;
#X obj 50 345 * -1;
#X obj 111 365 + 1;
#X obj 111 340 * -1;
#X obj 104 126 cnv 1 1 1 empty empty blob 0 0 0 10 -262144 -66577 0
;
#X obj 114 133 cnv 1 1 1 empty empty size 0 0 0 10 -262144 -66577 0
;
#X obj 0 92 inlet video;
#X obj 244 15 inlet command;
#X obj 245 40 route display cursor blob tolerance blur;
#X text 664 9 // from benjamin cadon. labomedia.org;
#X connect 0 0 3 0;
#X connect 0 0 49 0;
#X connect 0 1 4 0;
#X connect 0 1 51 0;
#X connect 0 2 5 0;
#X connect 1 0 0 7;
#X connect 2 0 44 0;
#X connect 6 0 0 2;
#X connect 7 0 0 1;
#X connect 8 0 0 6;
#X connect 9 0 0 3;
#X connect 10 0 0 4;
#X connect 11 0 0 5;
#X connect 12 0 11 0;
#X connect 13 0 21 0;
#X connect 14 0 16 0;
#X connect 15 0 14 1;
#X connect 16 0 19 0;
#X connect 17 0 18 0;
#X connect 17 0 13 1;
#X connect 17 0 35 0;
#X connect 20 0 23 0;
#X connect 23 0 17 0;
#X connect 26 0 14 0;
#X connect 26 0 13 0;
#X connect 27 0 26 0;
#X connect 28 0 27 0;
#X connect 30 0 31 0;
#X connect 31 0 32 0;
#X connect 32 0 33 0;
#X connect 34 0 30 0;
#X connect 35 0 30 1;
#X connect 36 0 34 0;
#X connect 37 0 34 1;
#X connect 38 0 39 0;
#X connect 38 0 40 0;
#X connect 38 0 46 0;
#X connect 38 0 2 0;
#X connect 38 0 12 0;
#X connect 39 0 9 0;
#X connect 39 0 47 0;
#X connect 40 0 10 0;
#X connect 43 0 45 0;
#X connect 44 0 1 0;
#X connect 45 0 8 0;
#X connect 46 0 43 0;
#X connect 47 0 0 8;
#X connect 48 0 41 0;
#X connect 49 0 48 0;
#X connect 50 0 42 0;
#X connect 51 0 50 0;
#X connect 54 0 0 0;
#X connect 55 0 56 0;
#X connect 56 0 9 0;
#X connect 56 1 47 0;
#X connect 56 2 11 0;
#X connect 56 3 43 0;
#X connect 56 4 44 0;
#X coords 0 -1 1 1 150 60 1 100 100;
