#N canvas 665 253 657 395 10;
#X obj 56 19 inlet;
#X obj 167 71 random 5;
#X obj 56 98 demultiplex 1 2 3 4;
#X obj 56 42 t b b;
#X obj 141 238 outlet;
#X msg -83 117 0.05 3000;
#X msg -106 96 0.03 5000;
#X msg -129 76 0.1 3000;
#X msg -46 137 0.08 5000;
#X obj 270 36 loadbang;
#X obj 270 70 f \$1;
#X obj 323 71 f \$2;
#X obj 375 71 f \$3;
#X obj 431 70 f \$4;
#X obj 141 144 f;
#X obj 196 142 f;
#X obj 250 143 f;
#X obj 304 143 f;
#X obj 141 185 pack f 2500;
#X obj 141 209 line3;
#X connect 0 0 3 0;
#X connect 1 0 2 1;
#X connect 2 0 14 0;
#X connect 2 1 15 0;
#X connect 2 2 16 0;
#X connect 2 3 17 0;
#X connect 3 0 2 0;
#X connect 3 1 1 0;
#X connect 9 0 10 0;
#X connect 9 0 11 0;
#X connect 9 0 12 0;
#X connect 9 0 13 0;
#X connect 10 0 14 1;
#X connect 11 0 15 1;
#X connect 12 0 16 1;
#X connect 13 0 17 1;
#X connect 14 0 18 0;
#X connect 15 0 18 0;
#X connect 16 0 18 0;
#X connect 17 0 18 0;
#X connect 18 0 19 0;
#X connect 19 0 4 0;
