#N canvas 631 328 537 337 10;
#X obj 49 189 flow.last.max;
#X obj 49 21 tgl 15 0 empty empty empty 17 7 0 10 -262144 -1 -1 0 1
;
#X obj 49 65 random 60;
#X obj 49 115 line3;
#X floatatom 72 147 5 0 0 0 - - -;
#X obj 149 42 adc~;
#X obj 149 76 env~;
#X obj 49 91 pack f 200;
#X obj 49 44 metro 1200;
#X obj 149 189 flow.last.max;
#X floatatom 49 218 5 0 0 0 - - -;
#X floatatom 149 218 5 0 0 0 - - -;
#X text 279 62 ARGUMENT;
#X text 281 132 INLET;
#X text 280 198 OUTLETS;
#X text 280 78 None;
#X text 281 149 Stream of values;
#X text 281 214 Last running max;
#X text 277 24 Compute last running max in a stream;
#X connect 0 0 10 0;
#X connect 1 0 8 0;
#X connect 2 0 7 0;
#X connect 3 0 4 0;
#X connect 3 0 0 0;
#X connect 5 0 6 0;
#X connect 6 0 9 0;
#X connect 7 0 3 0;
#X connect 8 0 2 0;
#X connect 9 0 11 0;
