#N canvas 782 232 421 313 10;
#X obj 89 38 -;
#X obj 44 -45 inlet stream;
#X obj 44 131 spigot 0;
#X floatatom 138 64 5 0 0 0 - - -;
#X obj 89 63 > 0;
#X obj 201 158 outlet boolean;
#X obj 44 -20 t f f f;
#X obj 89 88 t f f;
#X obj 44 157 outlet ascendent.stream;
#X connect 0 0 3 0;
#X connect 0 0 4 0;
#X connect 1 0 6 0;
#X connect 2 0 8 0;
#X connect 4 0 7 0;
#X connect 6 0 2 0;
#X connect 6 1 0 1;
#X connect 6 2 0 0;
#X connect 7 0 5 0;
#X connect 7 1 2 1;
