#N canvas 141 238 714 511 10;
#X obj 163 -71 inlet carFreq;
#X obj 263 -72 inlet mod;
#X obj 84 -71 inlet vol;
#X text 331 172 0 : 1000 = \$1 : 127;
#X obj 187 59 s \$0-hearit;
#X obj 186 102 s \$0-modulation;
#X obj 187 80 s \$0-carfreq;
#X obj 187 39 s \$0-distpat;
#X obj 187 19 s \$0-distOn;
#N canvas 260 35 1117 423 presets 0;
#N canvas 384 38 454 304 untils 0;
#X obj 261 160 f;
#X obj 288 162 + 1;
#X obj 250 135 until;
#X msg 299 132 0;
#X obj 261 107 t f b;
#X obj 261 78 inlet;
#X obj 261 190 outlet;
#X connect 0 0 1 0;
#X connect 0 0 6 0;
#X connect 1 0 0 1;
#X connect 2 0 0 0;
#X connect 3 0 0 1;
#X connect 4 0 2 0;
#X connect 4 1 3 0;
#X connect 5 0 4 0;
#X restore 110 85 pd untils;
#X obj 111 34 t b f;
#X obj 111 110 t f f;
#X obj 112 176 pack 0 0;
#X obj 138 130 +;
#N canvas 0 22 454 304 untils 0;
#X obj 261 160 f;
#X obj 321 163 + 1;
#X obj 255 132 until;
#X msg 299 132 0;
#X obj 261 107 t f b;
#X obj 261 78 inlet;
#X obj 261 190 outlet;
#X connect 0 0 1 0;
#X connect 0 0 6 0;
#X connect 1 0 0 1;
#X connect 2 0 0 0;
#X connect 3 0 0 1;
#X connect 4 0 2 0;
#X connect 4 1 3 0;
#X connect 5 0 4 0;
#X restore 393 60 pd untils;
#X obj 393 85 t f f;
#X obj 393 125 pack 0 0;
#N canvas 826 143 435 398 get-sliders 0;
#X msg 28 122 0 \$1;
#X msg 195 117 1 \$1;
#X msg 25 194 2 \$1;
#X msg 181 200 3 \$1;
#X obj 28 101 r \$0-carfreq;
#X obj 28 144 s \$0-oscpreset;
#X obj 188 142 s \$0-oscpreset;
#X obj 180 225 s \$0-oscpreset;
#X obj 26 217 s \$0-oscpreset;
#X obj 192 91 r \$0-modulation;
#X obj 24 173 r \$0-hearit;
#X obj 176 178 r \$0-volume;
#X obj 31 305 s \$0-oscpreset;
#X obj 30 263 r \$0-diston;
#X msg 35 285 4 \$1;
#X obj 170 306 s \$0-oscpreset;
#X msg 174 286 5 \$1;
#X obj 169 264 r \$0-distpat;
#X connect 0 0 5 0;
#X connect 1 0 6 0;
#X connect 2 0 8 0;
#X connect 3 0 7 0;
#X connect 4 0 0 0;
#X connect 9 0 1 0;
#X connect 10 0 2 0;
#X connect 11 0 3 0;
#X connect 13 0 14 0;
#X connect 14 0 12 0;
#X connect 16 0 15 0;
#X connect 17 0 16 0;
#X restore 987 354 pd get-sliders;
#N canvas 0 22 454 304 untils 0;
#X obj 261 160 f;
#X obj 288 162 + 1;
#X obj 261 138 until;
#X msg 299 132 0;
#X obj 261 107 t f b;
#X obj 261 78 inlet;
#X obj 261 190 outlet;
#X connect 0 0 1 0;
#X connect 0 0 6 0;
#X connect 1 0 0 1;
#X connect 2 0 0 0;
#X connect 3 0 0 1;
#X connect 4 0 2 0;
#X connect 4 1 3 0;
#X connect 5 0 4 0;
#X restore 779 114 pd untils;
#X obj 779 138 t f f;
#X obj 779 189 pack 0 0;
#X obj 779 169 +;
#X obj 739 71 t b b b f;
#X obj 739 46 f;
#X text 35 97 LOAD>>;
#X text 330 61 STORE>>;
#X text 365 297 LOAD ALL PRESET ON STARTUP>>;
#X text 827 69 <<SAVE (=WRITE TXT FILE);
#X obj 12 232 s \$0-carfreq-r;
#X obj 26 253 s \$0-modulation-r;
#X obj 47 274 s \$0-hearit-r;
#X obj 61 295 s \$0-volume-r;
#X obj 82 316 s \$0-diston-r;
#X obj 112 195 route 0 1 2 3 4 5;
#X msg 110 63 6;
#X obj 143 60 * 6;
#X msg 393 39 6;
#X msg 778 91 6;
#X obj 808 91 * 6;
#X obj 124 151 tabread \$0-alloscpreset;
#X obj 596 315 s \$0-alloscpreset;
#X obj 556 343 s \$0-load-osc-r;
#X obj 694 288 s \$0-alloscpreset;
#X obj 756 242 s \$0-load-osc-r;
#X obj 779 214 s \$0-alloscpreset;
#X obj 811 169 tabread \$0-oscstorehouse;
#X obj 767 46 r \$0-load-osc;
#X obj 739 23 r \$0-save-osc;
#X obj 393 19 r \$0-store-osc;
#X obj 412 105 tabread \$0-oscpreset;
#X obj 393 146 s \$0-oscstorehouse;
#X obj 345 177 table \$0-oscpreset 6;
#X obj 323 202 table \$0-alloscpreset 60;
#X obj 323 229 table \$0-oscstorehouse 6;
#X obj 99 337 s \$0-distpat-r;
#X obj 610 54 r \$0-filename;
#X obj 610 99 list prepend write;
#X obj 694 182 list;
#X obj 694 262 list trim;
#X obj 596 291 list trim;
#X obj 556 191 list prepend read;
#X obj 112 9 r \$0-load-osc;
#X obj 556 239 t b a;
#X connect 0 0 2 0;
#X connect 1 0 25 0;
#X connect 1 1 26 0;
#X connect 2 0 3 0;
#X connect 2 1 4 0;
#X connect 3 0 24 0;
#X connect 4 0 30 0;
#X connect 5 0 6 0;
#X connect 6 0 7 0;
#X connect 6 1 40 0;
#X connect 7 0 41 0;
#X connect 9 0 10 0;
#X connect 10 0 12 0;
#X connect 10 1 36 0;
#X connect 11 0 35 0;
#X connect 12 0 11 0;
#X connect 13 0 48 0;
#X connect 13 1 34 0;
#X connect 13 2 28 0;
#X connect 13 3 29 0;
#X connect 14 0 13 0;
#X connect 24 0 19 0;
#X connect 24 1 20 0;
#X connect 24 2 21 0;
#X connect 24 3 22 0;
#X connect 24 4 23 0;
#X connect 24 5 45 0;
#X connect 25 0 0 0;
#X connect 26 0 4 1;
#X connect 27 0 5 0;
#X connect 28 0 9 0;
#X connect 29 0 12 1;
#X connect 30 0 3 1;
#X connect 36 0 11 1;
#X connect 37 0 14 1;
#X connect 38 0 14 0;
#X connect 39 0 27 0;
#X connect 40 0 7 1;
#X connect 46 0 47 0;
#X connect 46 0 51 0;
#X connect 47 0 48 1;
#X connect 48 0 49 0;
#X connect 49 0 33 0;
#X connect 50 0 31 0;
#X connect 51 0 53 0;
#X connect 52 0 1 0;
#X connect 53 0 32 0;
#X connect 53 1 50 0;
#X restore 341 207 pd presets;
#N canvas 496 262 365 258 colordistTGL 0;
#X obj 73 79 sel 1 0;
#X msg 203 107 color 1 1 1;
#X msg 184 134 color 12;
#X obj 73 58 r \$0-distTGL;
#X obj 73 162 s \$0-distTGL-r;
#X connect 0 0 2 0;
#X connect 0 1 1 0;
#X connect 1 0 4 0;
#X connect 2 0 4 0;
#X connect 3 0 0 0;
#X restore 341 230 pd colordistTGL;
#X obj 10 27 gui.slider.tgl vol;
#X obj 10 61 gui.slider freq;
#X obj 10 78 gui.slider mod;
#X obj 10 44 gui.radio.tgl;
#X obj 10 10 cnv 15 156 15 empty empty Sine.mod 5 8 0 8 -1 -162280
0;
#N canvas 736 147 643 545 dsp 0;
#X obj 391 180 *~;
#X obj 448 248 *~;
#X obj 448 322 fdn~ 64 40000;
#X obj 448 270 +~;
#X msg 169 357 exponential 32 10 5000;
#X msg 89 232 linear 8 75 100;
#X msg 74 210 linear 32 50 2175;
#X msg 482 265 reset;
#X msg 105 256 linear 32 100 105;
#X msg 121 281 linear 64 10 15;
#X obj 447 203 lop~ 1000;
#X msg 137 307 linear 8 1 5;
#X msg 153 331 linear 64 4 5;
#X obj 452 442 outlet~;
#X obj 392 441 outlet~;
#X obj 337 358 line~;
#X msg 337 335 \$1 10;
#X obj 451 414 *~;
#X obj 392 414 *~;
#X obj 337 281 r \$0-volume;
#X obj 74 183 route 0 1 2 3 4 5 6;
#X obj 337 313 / 127;
#X obj 406 152 r \$0-hearit;
#X obj 389 -29 * 7.874;
#X obj 405 58 * 0.393;
#X obj 463 226 r \$0-distOn;
#X obj 390 127 *~;
#X obj 74 401 s \$0-fdn;
#X obj 533 269 r \$0-fdn;
#X obj 405 36 r \$0-modulation;
#X obj 389 -51 r \$0-carfreq;
#X obj 74 155 r \$0-distpat;
#X obj 405 102 osc~;
#X obj 389 12 osc~;
#X obj 405 80 sig~;
#X obj 389 -8 sig~;
#X connect 0 0 10 0;
#X connect 0 0 17 0;
#X connect 0 0 18 0;
#X connect 1 0 3 0;
#X connect 2 0 18 0;
#X connect 2 1 17 0;
#X connect 3 0 2 0;
#X connect 4 0 27 0;
#X connect 5 0 27 0;
#X connect 6 0 27 0;
#X connect 7 0 2 0;
#X connect 8 0 27 0;
#X connect 9 0 27 0;
#X connect 10 0 1 0;
#X connect 11 0 27 0;
#X connect 12 0 27 0;
#X connect 15 0 17 1;
#X connect 15 0 18 1;
#X connect 16 0 15 0;
#X connect 17 0 13 0;
#X connect 18 0 14 0;
#X connect 19 0 21 0;
#X connect 20 0 6 0;
#X connect 20 1 5 0;
#X connect 20 2 8 0;
#X connect 20 3 9 0;
#X connect 20 4 11 0;
#X connect 20 5 12 0;
#X connect 20 6 4 0;
#X connect 21 0 16 0;
#X connect 22 0 0 1;
#X connect 23 0 35 0;
#X connect 24 0 34 0;
#X connect 25 0 1 1;
#X connect 26 0 0 0;
#X connect 28 0 2 0;
#X connect 29 0 24 0;
#X connect 30 0 23 0;
#X connect 31 0 20 0;
#X connect 32 0 26 1;
#X connect 33 0 26 0;
#X connect 34 0 32 0;
#X connect 35 0 33 0;
#X restore 321 -20 pd dsp;
#X obj 187 -3 s \$0-volume;
#X obj 355 9 outlet~;
#X obj 322 39 outlet~;
#N canvas 12 70 450 300 unused 0;
#X obj 87 80 s \$0-cnv-pos-r;
#X msg 87 58 get_pos;
#X obj 87 106 r \$0-cnv-pos;
#X obj 87 35 r \$0-module-active;
#X obj 87 128 print position1;
#X text 160 58 <<<<<< GET POSITION;
#X obj 88 221 s \$0-module-active;
#X msg 87 174 label vol;
#X msg 88 197 label dist;
#X connect 1 0 0 0;
#X connect 2 0 4 0;
#X connect 3 0 1 0;
#X restore 342 254 pd unused;
#X obj 109 153 xsssad \$1/smod.vol;
#X obj -128 -153 r \$1/smod.vol;
#X obj 108 273 xsssad \$1/smod.mod;
#X obj 108 224 xsssad \$1/smod.hear;
#X obj 108 199 xsssad \$1/smod.dpat;
#X obj 108 175 xsssad \$1/smod.dOn;
#X obj -129 -130 r \$1/smod.dOn;
#X obj -129 -106 r \$1/smod.dpat;
#X obj -129 -82 r \$1/smod.hear;
#X obj -129 -32 r \$1/smod.mod;
#X obj 108 249 xsssad \$1/smod.frq;
#X obj -129 -56 r \$1/smod.frq;
#X text 103 -127 Frequency modulator (FM) synthesiser;
#X obj -3 -71 inlet on.off;
#X connect 0 0 12 0;
#X connect 1 0 13 0;
#X connect 2 0 11 1;
#X connect 11 0 4 0;
#X connect 11 0 24 1;
#X connect 11 1 17 0;
#X connect 11 1 21 1;
#X connect 12 1 6 0;
#X connect 12 1 31 1;
#X connect 13 1 5 0;
#X connect 13 1 23 1;
#X connect 14 0 8 0;
#X connect 14 0 26 1;
#X connect 14 1 7 0;
#X connect 14 1 25 1;
#X connect 16 0 19 0;
#X connect 16 1 18 0;
#X connect 21 0 11 1;
#X connect 22 0 11 1;
#X connect 23 0 13 0;
#X connect 24 0 11 0;
#X connect 25 0 14 1;
#X connect 26 0 14 0;
#X connect 27 0 14 0;
#X connect 28 0 14 2;
#X connect 29 0 11 0;
#X connect 30 0 13 0;
#X connect 31 0 12 0;
#X connect 32 0 12 0;
#X connect 34 0 11 0;
#X coords 0 -1 1 1 156 83 1 10 10;
