#N canvas 159 120 450 300 10;
#X obj 45 72 t f f;
#X msg 23 115 0;
#X obj 217 251 outlet;
#X obj 190 15 inlet;
#X obj 21 94 pipe \$1;
#X obj 217 159 line3;
#X obj 190 43 t b b;
#X obj 190 97 del 500;
#X text 24 32 STROBO;
#X msg 217 74 1 1000;
#X msg 190 123 0 5000;
#X connect 0 0 4 0;
#X connect 3 0 6 0;
#X connect 4 0 1 0;
#X connect 5 0 2 0;
#X connect 6 0 7 0;
#X connect 6 1 9 0;
#X connect 7 0 10 0;
#X connect 9 0 5 0;
#X connect 10 0 5 0;
