#N canvas 0 0 658 487 10;
#X obj 91 78 notein;
#X obj 91 113 stripnote;
#X obj 91 151 mtof;
#X obj 91 182 t f b;
#X obj 220 251 / 127;
#X obj 92 295 *~;
#X obj 93 334 *~;
#X obj 144 252 vline~;
#X text 163 112 << block note-off ( = note-on with zero-value);
#X text 292 223 << creates 3 stages envelope;
#X text 132 152 << convert midi to frequency;
#X text 277 345 -start at zero;
#X text 393 345 -move to 1;
#X text 500 346 -move to 0;
#X text 501 359 -in 100ms;
#X text 394 376 -after 0ms;
#X text 393 360 -in 10ms;
#X text 501 375 -after 20ms;
#X obj 93 374 outlet~;
#X obj 220 56 inlet velocity;
#X obj 29 52 inlet value;
#X obj 91 253 phasor~;
#X msg 144 223 0 \, 1 100 0 \, 0 5000 20;
#X connect 0 0 1 0;
#X connect 0 1 1 1;
#X connect 1 0 2 0;
#X connect 1 1 4 0;
#X connect 2 0 3 0;
#X connect 3 0 21 0;
#X connect 3 1 22 0;
#X connect 4 0 6 1;
#X connect 5 0 6 0;
#X connect 6 0 18 0;
#X connect 7 0 5 1;
#X connect 19 0 4 0;
#X connect 20 0 2 0;
#X connect 21 0 5 0;
#X connect 22 0 7 0;
