#N canvas 265 373 1206 437 10;
#X obj 100 100 cnv 15 275 17 empty empty empty 20 12 0 14 -128992 -66577
0;
#X obj 136 101 tgl 15 0 empty empty empty 17 7 0 10 -262144 -1 -1 0
1;
#X obj 170 101 tgl 15 0 empty empty empty 17 7 0 10 -228856 -1 -1 1
1;
#X obj 204 101 tgl 15 0 empty empty empty 17 7 0 10 -262144 -1 -1 0
1;
#X obj 238 101 tgl 15 0 empty empty empty 17 7 0 10 -228856 -1 -1 0
1;
#X obj 272 101 tgl 15 0 empty empty empty 17 7 0 10 -262144 -1 -1 0
1;
#X obj 306 101 tgl 15 0 empty empty empty 17 7 0 10 -228856 -1 -1 0
1;
#X obj 340 101 tgl 15 0 empty empty empty 17 7 0 10 -262144 -1 -1 0
1;
#X obj -41 39 inlet sequence;
#X obj 119 101 tgl 15 0 empty empty empty 17 7 0 10 -262144 -1 -1 0
1;
#X obj 153 101 tgl 15 0 empty empty empty 17 7 0 10 -262144 -1 -1 0
1;
#X obj 187 101 tgl 15 0 empty empty empty 17 7 0 10 -262144 -1 -1 0
1;
#X obj 221 101 tgl 15 0 empty empty empty 17 7 0 10 -262144 -1 -1 0
1;
#X obj 255 101 tgl 15 0 empty empty empty 17 7 0 10 -262144 -1 -1 0
1;
#X obj 289 101 tgl 15 0 empty empty empty 17 7 0 10 -262144 -1 -1 0
1;
#X obj 323 101 tgl 15 0 empty empty empty 17 7 0 10 -262144 -1 -1 0
1;
#X obj 357 101 tgl 15 0 empty empty empty 17 7 0 10 -262144 -1 -1 0
1;
#X obj 109 73 unpack f f f f f f f f f f f f f f f f;
#X obj 714 249 outlet;
#X obj -41 66 mod 16;
#X obj 714 206 sel 1;
#X obj 334 176 + 0;
#X msg 399 142 16;
#X msg 435 142 32;
#X msg 362 142 0;
#X floatatom 729 185 5 0 0 0 - - -;
#X obj 397 274 bng 15 250 50 0 empty empty empty 17 7 0 10 -262144
-1 -1;
#X obj 524 -15 t f f;
#X obj 524 7 makefilename inst%d;
#X obj -41 94 s \$0-sequence;
#X obj 819 250 outlet;
#X obj 819 207 sel 1;
#X floatatom 834 186 5 0 0 0 - - -;
#X obj 926 249 outlet;
#X obj 926 206 sel 1;
#X floatatom 941 185 5 0 0 0 - - -;
#X obj 1032 250 outlet;
#X obj 1032 207 sel 1;
#X floatatom 1047 186 5 0 0 0 - - -;
#X obj 714 99 r \$0-sequence;
#X obj 714 122 t f f f f;
#X obj 524 216 s \$0-inst;
#X obj 117 188 r \$0-inst;
#X msg 416 273 set \$1;
#X obj 389 207 r \$0-inst;
#X obj 389 252 t b a;
#X msg 117 214 set \$1;
#X obj 389 229 pipe s 100;
#N canvas 61 99 717 265 triggers--------------------------- 0;
#X obj 17 17 inlet;
#X obj 57 17 inlet;
#X obj 97 17 inlet;
#X obj 137 17 inlet;
#X obj 177 17 inlet;
#X obj 217 17 inlet;
#X obj 257 17 inlet;
#X obj 297 17 inlet;
#X obj 337 17 inlet;
#X obj 377 17 inlet;
#X obj 417 17 inlet;
#X obj 457 17 inlet;
#X obj 497 17 inlet;
#X obj 537 17 inlet;
#X obj 577 17 inlet;
#X obj 617 17 inlet;
#X msg 44 83 0;
#X msg 84 83 1;
#X msg 124 83 2;
#X msg 164 83 3;
#X msg 204 83 4;
#X msg 244 83 5;
#X msg 284 83 6;
#X msg 324 83 7;
#X msg 364 83 8;
#X msg 404 83 9;
#X msg 444 83 10;
#X msg 484 83 11;
#X msg 524 83 12;
#X msg 564 83 13;
#X msg 604 83 14;
#X msg 644 83 15;
#X obj 311 173 t f;
#X obj 212 173 t f;
#X obj 17 49 t f b;
#X obj 57 50 t f b;
#X obj 97 50 t f b;
#X obj 137 50 t f b;
#X obj 177 50 t f b;
#X obj 217 50 t f b;
#X obj 257 50 t f b;
#X obj 297 50 t f b;
#X obj 337 50 t f b;
#X obj 377 51 t f b;
#X obj 417 51 t f b;
#X obj 457 51 t f b;
#X obj 497 51 t f b;
#X obj 537 52 t f b;
#X obj 577 52 t f b;
#X obj 617 52 t f b;
#X obj 311 207 outlet index;
#X obj 212 207 outlet onoff;
#X connect 0 0 34 0;
#X connect 1 0 35 0;
#X connect 2 0 36 0;
#X connect 3 0 37 0;
#X connect 4 0 38 0;
#X connect 5 0 39 0;
#X connect 6 0 40 0;
#X connect 7 0 41 0;
#X connect 8 0 42 0;
#X connect 9 0 43 0;
#X connect 10 0 44 0;
#X connect 11 0 45 0;
#X connect 12 0 46 0;
#X connect 13 0 47 0;
#X connect 14 0 48 0;
#X connect 15 0 49 0;
#X connect 16 0 32 0;
#X connect 17 0 32 0;
#X connect 18 0 32 0;
#X connect 19 0 32 0;
#X connect 20 0 32 0;
#X connect 21 0 32 0;
#X connect 22 0 32 0;
#X connect 23 0 32 0;
#X connect 24 0 32 0;
#X connect 25 0 32 0;
#X connect 26 0 32 0;
#X connect 27 0 32 0;
#X connect 28 0 32 0;
#X connect 29 0 32 0;
#X connect 30 0 32 0;
#X connect 31 0 32 0;
#X connect 32 0 50 0;
#X connect 33 0 51 0;
#X connect 34 0 33 0;
#X connect 34 1 16 0;
#X connect 35 0 33 0;
#X connect 35 1 17 0;
#X connect 36 0 33 0;
#X connect 36 1 18 0;
#X connect 37 0 33 0;
#X connect 37 1 19 0;
#X connect 38 0 33 0;
#X connect 38 1 20 0;
#X connect 39 0 33 0;
#X connect 39 1 21 0;
#X connect 40 0 33 0;
#X connect 40 1 22 0;
#X connect 41 0 33 0;
#X connect 41 1 23 0;
#X connect 42 0 33 0;
#X connect 42 1 24 0;
#X connect 43 0 33 0;
#X connect 43 1 25 0;
#X connect 44 0 33 0;
#X connect 44 1 26 0;
#X connect 45 0 33 0;
#X connect 45 1 27 0;
#X connect 46 0 33 0;
#X connect 46 1 28 0;
#X connect 47 0 33 0;
#X connect 47 1 29 0;
#X connect 48 0 33 0;
#X connect 48 1 30 0;
#X connect 49 0 33 0;
#X connect 49 1 31 0;
#X restore 109 129 pd triggers---------------------------;
#X obj 109 290 table \$0-inst0;
#X obj 204 290 table \$0-inst1;
#X obj 110 315 table \$0-inst2;
#X obj 205 315 table \$0-inst3;
#X obj 569 50 f \$0;
#X floatatom 604 52 5 0 0 0 - - -;
#X obj 524 142 pack s f;
#X obj 524 192 mergefilename -;
#X msg 524 169 \$2 \$1;
#X obj 109 240 tabwrite dummy;
#X obj 389 299 tabdump dummy;
#X obj 714 162 tabread \$0-inst0;
#X obj 819 163 tabread \$0-inst1;
#X obj 926 162 tabread \$0-inst2;
#X obj 1032 163 tabread \$0-inst3;
#X obj 524 -37 inlet instrument;
#X obj 36 263 print;
#X obj 109 39 r \$0-tabdump;
#X obj 389 325 s \$0-tabdump;
#X obj 102 101 tgl 15 0 empty empty empty 17 7 0 10 -228856 -1 -1 1
1;
#X obj 569 73 t b f;
#X obj 569 29 loadbang;
#X obj 544 33 bng 15 250 50 0 empty empty empty 17 7 0 10 -262144 -1
-1;
#X obj 658 8 inlet dynamic-loadbang;
#X obj 889 11 inlet save;
#N canvas 1013 459 479 320 save-patterns 1;
#X obj 58 -178 bng 15 250 50 0 empty empty empty 17 7 0 10 -262144
-1 -1;
#X obj 81 -12 tabdump \$0-inst0;
#X msg 81 -85 set \$1;
#X obj 120 -35 f;
#X obj 81 -61 t b a b;
#X floatatom 147 -36 5 0 0 0 - - -;
#X obj 81 -179 inlet save;
#X obj 241 -48 inlet load;
#N canvas -88 85 1223 590 write-messages 1;
#X obj 389 101 prepend set;
#X obj 352 9 demultiplex 1 2 3 4;
#X obj 17 194 prepend set;
#X obj 426 191 prepend set;
#X obj 12 91 prepend set;
#X msg 389 123 0 0 0 0 0 0 0 0 0 0 0 0 0 0 0 0 0 0 0 0 0 0 0 0 0 0
0 0 0 0 0 0 0 0 0 0 0 0 0 0 0 0 0 0 0 0 0 0 0 0 0 0 0 0 0 0 0 0 0 0
0 0 0 0 0 0 0 0 0 0 0 0 0 0 0 0 0 0 0 0 0 0 0 0 0 0 0 0 0 0 0 0 0 0
0 0 0 0 0 0;
#X msg 17 215 0 0 0 0 0 0 0 0 0 0 0 0 0 0 0 0 0 0 0 0 0 0 0 0 0 0 0
0 0 0 0 0 0 0 0 0 0 0 0 0 0 0 0 0 0 0 0 0 0 0 0 0 0 0 0 0 0 0 0 0 0
0 0 0 0 0 0 0 0 0 0 0 0 0 0 0 0 0 0 0 0 0 0 0 0 0 0 0 0 0 0 0 0 0 0
0 0 0 0 0;
#X msg 12 113 1 0 0 0 1 0 0 0 0 0 0 0 0 0 0 0 0 0 0 0 0 0 0 0 0 0 0
0 0 0 0 0 0 0 0 0 0 0 0 0 0 0 0 0 0 0 0 0 0 0 0 0 0 0 0 0 0 0 0 0 0
0 0 0 0 0 0 0 0 0 0 0 0 0 0 0 0 0 0 0 0 0 0 0 0 0 0 0 0 0 0 0 0 0 0
0 0 0 0 0;
#X msg 426 213 0 0 0 0 0 0 0 0 0 0 0 0 0 0 0 0 0 0 0 0 0 0 0 0 0 0
0 0 0 0 0 0 0 0 0 0 0 0 0 0 0 0 0 0 0 0 0 0 0 0 0 0 0 0 0 0 0 0 0 0
0 0 0 0 0 0 0 0 0 0 0 0 0 0 0 0 0 0 0 0 0 0 0 0 0 0 0 0 0 0 0 0 0 0
0 0 0 0 0 0;
#X obj 352 -20 inlet;
#X obj 463 -19 inlet;
#X text 90 89 instrument 1;
#X text 479 101 instrument 2;
#X text 102 194 instrument 3;
#X text 511 191 instrument 4;
#X obj 389 329 list-drip;
#X obj 443 409 t f f;
#X msg 638 10 set \$1;
#N canvas 18 93 272 550 make-list-of-table 0;
#X obj 95 183 makefilename inst%d;
#X obj 95 263 pack s f;
#X obj 95 313 mergefilename -;
#X msg 95 290 \$2 \$1;
#X obj 113 242 t b f;
#X obj 68 113 f;
#X obj 98 113 + 1;
#X obj 130 113 % 4;
#X obj 113 204 r \$0-id;
#X floatatom 127 223 5 0 0 0 - - -;
#X obj 63 -46 del 200;
#X obj 98 -4 del 200;
#X obj 128 40 del 200;
#X obj 63 -76 t b b;
#X obj 63 -26 t b b;
#X obj 99 16 t b b;
#X obj 129 63 t b b;
#X msg 129 84 0;
#X obj 68 158 t f f;
#X obj 63 -100 inlet;
#X obj 95 353 outlet;
#X obj 143 353 outlet;
#X floatatom 133 137 5 0 0 0 - - -;
#X obj 149 -51 bng 15 250 50 0 empty empty empty 17 7 0 10 -262144
-1 -1;
#X connect 0 0 1 0;
#X connect 1 0 3 0;
#X connect 2 0 20 0;
#X connect 3 0 2 0;
#X connect 4 0 1 0;
#X connect 4 1 1 1;
#X connect 5 0 6 0;
#X connect 5 0 18 0;
#X connect 5 0 22 0;
#X connect 6 0 7 0;
#X connect 7 0 5 1;
#X connect 8 0 9 0;
#X connect 8 0 4 0;
#X connect 10 0 14 0;
#X connect 11 0 15 0;
#X connect 12 0 16 0;
#X connect 13 0 10 0;
#X connect 13 1 5 0;
#X connect 14 0 11 0;
#X connect 14 1 5 0;
#X connect 15 0 12 0;
#X connect 15 1 5 0;
#X connect 16 0 17 0;
#X connect 16 1 5 0;
#X connect 17 0 5 1;
#X connect 18 0 21 0;
#X connect 18 1 0 0;
#X connect 19 0 13 0;
#X connect 23 0 13 0;
#X restore 638 -12 pd make-list-of-table;
#X obj 611 -67 inlet;
#X obj 707 13 demultiplex 1 2 3 4;
#X obj 729 45 bng 15 250 50 0 empty empty empty 17 7 0 10 -262144 -1
-1;
#X obj 752 46 bng 15 250 50 0 empty empty empty 17 7 0 10 -262144 -1
-1;
#X obj 774 46 bng 15 250 50 0 empty empty empty 17 7 0 10 -262144 -1
-1;
#X obj 707 45 bng 15 250 50 0 empty empty empty 17 7 0 10 -262144 -1
-1;
#X obj 578 -32 bng 15 250 50 0 empty empty empty 17 7 0 10 -262144
-1 -1;
#X floatatom 492 13 5 0 0 0 - - -;
#X obj 638 34 t b b a;
#X obj 389 448 tabwrite dummy;
#X msg 887 157 set \$1;
#N canvas 24 116 272 550 make-list-of-table 0;
#X obj 95 183 makefilename inst%d;
#X obj 95 263 pack s f;
#X obj 95 313 mergefilename -;
#X msg 95 290 \$2 \$1;
#X obj 113 242 t b f;
#X obj 68 113 f;
#X obj 98 113 + 1;
#X obj 130 113 % 4;
#X obj 113 204 r \$0-id;
#X floatatom 127 223 5 0 0 0 - - -;
#X obj 63 -46 del 200;
#X obj 98 -4 del 200;
#X obj 128 40 del 200;
#X obj 63 -76 t b b;
#X obj 63 -26 t b b;
#X obj 99 16 t b b;
#X obj 129 63 t b b;
#X msg 129 84 0;
#X obj 68 158 t f f;
#X obj 63 -100 inlet;
#X obj 95 353 outlet;
#X obj 143 353 outlet;
#X floatatom 133 137 5 0 0 0 - - -;
#X obj 149 -51 bng 15 250 50 0 empty empty empty 17 7 0 10 -262144
-1 -1;
#X connect 0 0 1 0;
#X connect 1 0 3 0;
#X connect 2 0 20 0;
#X connect 3 0 2 0;
#X connect 4 0 1 0;
#X connect 4 1 1 1;
#X connect 5 0 6 0;
#X connect 5 0 18 0;
#X connect 5 0 22 0;
#X connect 6 0 7 0;
#X connect 7 0 5 1;
#X connect 8 0 9 0;
#X connect 8 0 4 0;
#X connect 10 0 14 0;
#X connect 11 0 15 0;
#X connect 12 0 16 0;
#X connect 13 0 10 0;
#X connect 13 1 5 0;
#X connect 14 0 11 0;
#X connect 14 1 5 0;
#X connect 15 0 12 0;
#X connect 15 1 5 0;
#X connect 16 0 17 0;
#X connect 16 1 5 0;
#X connect 17 0 5 1;
#X connect 18 0 21 0;
#X connect 18 1 0 0;
#X connect 19 0 13 0;
#X connect 23 0 13 0;
#X restore 914 94 pd make-list-of-table;
#X obj 860 180 tabdump dummy;
#X obj 860 202 s \$0-tabdump;
#X obj 611 -42 t b b;
#X obj 914 61 del 1300;
#X obj 977 218 s \$0-on-load;
#X floatatom 505 480 5 0 0 0 - - -;
#X msg 342 415 0;
#X obj 443 384 f;
#X obj 474 383 + 1;
#X obj 389 352 t b f b;
#X obj 342 392 del 10;
#X obj 992 279 print dasf;
#X obj 986 126 del 100;
#N canvas 12 70 272 550 make-list-of-table 0;
#X obj 95 183 makefilename inst%d;
#X obj 95 263 pack s f;
#X obj 95 313 mergefilename -;
#X msg 95 290 \$2 \$1;
#X obj 113 242 t b f;
#X obj 68 113 f;
#X obj 98 113 + 1;
#X obj 130 113 % 4;
#X obj 113 204 r \$0-id;
#X floatatom 127 223 5 0 0 0 - - -;
#X obj 63 -46 del 200;
#X obj 98 -4 del 200;
#X obj 128 40 del 200;
#X obj 63 -76 t b b;
#X obj 63 -26 t b b;
#X obj 99 16 t b b;
#X obj 129 63 t b b;
#X msg 129 84 0;
#X obj 68 158 t f f;
#X obj 63 -100 inlet;
#X obj 95 353 outlet;
#X obj 143 353 outlet;
#X floatatom 133 137 5 0 0 0 - - -;
#X obj 149 -51 bng 15 250 50 0 empty empty empty 17 7 0 10 -262144
-1 -1;
#X connect 0 0 1 0;
#X connect 1 0 3 0;
#X connect 2 0 20 0;
#X connect 3 0 2 0;
#X connect 4 0 1 0;
#X connect 4 1 1 1;
#X connect 5 0 6 0;
#X connect 5 0 18 0;
#X connect 5 0 22 0;
#X connect 6 0 7 0;
#X connect 7 0 5 1;
#X connect 8 0 9 0;
#X connect 8 0 4 0;
#X connect 10 0 14 0;
#X connect 11 0 15 0;
#X connect 12 0 16 0;
#X connect 13 0 10 0;
#X connect 13 1 5 0;
#X connect 14 0 11 0;
#X connect 14 1 5 0;
#X connect 15 0 12 0;
#X connect 15 1 5 0;
#X connect 16 0 17 0;
#X connect 16 1 5 0;
#X connect 17 0 5 1;
#X connect 18 0 21 0;
#X connect 18 1 0 0;
#X connect 19 0 13 0;
#X connect 23 0 13 0;
#X restore 985 170 pd make-list-of-table;
#X obj 860 134 t b a;
#X connect 0 0 5 0;
#X connect 1 0 0 0;
#X connect 1 1 2 0;
#X connect 1 2 3 0;
#X connect 1 3 4 0;
#X connect 2 0 6 0;
#X connect 3 0 8 0;
#X connect 4 0 7 0;
#X connect 5 0 15 0;
#X connect 6 0 15 0;
#X connect 7 0 15 0;
#X connect 8 0 15 0;
#X connect 9 0 1 0;
#X connect 10 0 1 1;
#X connect 10 0 26 0;
#X connect 15 0 40 0;
#X connect 16 0 36 0;
#X connect 16 1 28 1;
#X connect 17 0 27 0;
#X connect 18 0 17 0;
#X connect 18 1 20 1;
#X connect 19 0 33 0;
#X connect 20 0 21 0;
#X connect 20 1 22 0;
#X connect 20 2 23 0;
#X connect 20 3 24 0;
#X connect 21 0 5 0;
#X connect 22 0 6 0;
#X connect 23 0 8 0;
#X connect 24 0 7 0;
#X connect 25 0 18 0;
#X connect 27 1 20 0;
#X connect 27 2 28 0;
#X connect 29 0 31 0;
#X connect 30 0 45 0;
#X connect 31 0 32 0;
#X connect 33 0 34 0;
#X connect 33 1 18 0;
#X connect 34 0 30 0;
#X connect 37 0 38 1;
#X connect 38 0 16 0;
#X connect 38 0 39 0;
#X connect 39 0 38 1;
#X connect 40 0 41 0;
#X connect 40 1 28 0;
#X connect 40 2 38 0;
#X connect 41 0 37 0;
#X connect 43 0 44 0;
#X connect 44 0 35 0;
#X connect 45 0 31 0;
#X connect 45 1 29 0;
#X restore 81 16 pd write-messages;
#N canvas 12 70 272 550 make-list-of-table 0;
#X obj 95 166 makefilename inst%d;
#X obj 95 246 pack s f;
#X obj 95 296 mergefilename -;
#X msg 95 273 \$2 \$1;
#X obj 113 225 t b f;
#X obj 68 113 f;
#X obj 98 113 + 1;
#X obj 130 113 % 4;
#X obj 113 187 r \$0-id;
#X floatatom 127 206 5 0 0 0 - - -;
#X obj 63 -46 del 200;
#X obj 98 -4 del 200;
#X obj 128 40 del 200;
#X obj 63 -76 t b b;
#X obj 63 -26 t b b;
#X obj 99 16 t b b;
#X obj 129 63 t b b;
#X msg 129 84 0;
#X obj 68 141 t f f;
#X obj 63 -100 inlet;
#X obj 95 336 outlet;
#X obj 143 336 outlet;
#X connect 0 0 1 0;
#X connect 1 0 3 0;
#X connect 2 0 20 0;
#X connect 3 0 2 0;
#X connect 4 0 1 0;
#X connect 4 1 1 1;
#X connect 5 0 6 0;
#X connect 5 0 18 0;
#X connect 6 0 7 0;
#X connect 7 0 5 1;
#X connect 8 0 9 0;
#X connect 8 0 4 0;
#X connect 10 0 14 0;
#X connect 11 0 15 0;
#X connect 12 0 16 0;
#X connect 13 0 10 0;
#X connect 13 1 5 0;
#X connect 14 0 11 0;
#X connect 14 1 5 0;
#X connect 15 0 12 0;
#X connect 15 1 5 0;
#X connect 16 0 17 0;
#X connect 16 1 5 0;
#X connect 17 0 5 1;
#X connect 18 0 21 0;
#X connect 18 1 0 0;
#X connect 19 0 13 0;
#X restore 81 -121 pd make-list-of-table;
#X connect 0 0 9 0;
#X connect 1 0 8 0;
#X connect 2 0 4 0;
#X connect 3 0 5 0;
#X connect 3 0 8 1;
#X connect 4 0 1 0;
#X connect 4 1 1 0;
#X connect 4 2 3 0;
#X connect 6 0 9 0;
#X connect 7 0 8 2;
#X connect 9 0 2 0;
#X connect 9 1 3 1;
#X restore 889 36 pd save-patterns;
#X obj 612 73 s \$0-id;
#X obj 1007 -23 inlet load;
#X obj 1007 65 send load;
#X obj 1007 -1 t b b;
#X obj 1007 40 del 800;
#X obj 568 253 send load;
#X obj 287 232 r \$0-on-load;
#X connect 1 0 48 2;
#X connect 2 0 48 4;
#X connect 3 0 48 6;
#X connect 4 0 48 8;
#X connect 5 0 48 10;
#X connect 6 0 48 12;
#X connect 7 0 48 14;
#X connect 8 0 19 0;
#X connect 9 0 48 1;
#X connect 10 0 48 3;
#X connect 11 0 48 5;
#X connect 12 0 48 7;
#X connect 13 0 48 9;
#X connect 14 0 48 11;
#X connect 15 0 48 13;
#X connect 16 0 48 15;
#X connect 17 0 68 0;
#X connect 17 1 9 0;
#X connect 17 2 1 0;
#X connect 17 3 10 0;
#X connect 17 4 2 0;
#X connect 17 5 11 0;
#X connect 17 6 3 0;
#X connect 17 7 12 0;
#X connect 17 8 4 0;
#X connect 17 9 13 0;
#X connect 17 10 5 0;
#X connect 17 11 14 0;
#X connect 17 12 6 0;
#X connect 17 13 15 0;
#X connect 17 14 7 0;
#X connect 17 15 16 0;
#X connect 19 0 29 0;
#X connect 20 0 18 0;
#X connect 21 0 58 1;
#X connect 22 0 21 1;
#X connect 23 0 21 1;
#X connect 24 0 21 1;
#X connect 27 0 28 0;
#X connect 28 0 55 0;
#X connect 31 0 30 0;
#X connect 34 0 33 0;
#X connect 37 0 36 0;
#X connect 39 0 40 0;
#X connect 40 0 60 0;
#X connect 40 1 61 0;
#X connect 40 2 62 0;
#X connect 40 3 63 0;
#X connect 42 0 46 0;
#X connect 43 0 59 0;
#X connect 44 0 47 0;
#X connect 45 0 26 0;
#X connect 45 0 59 0;
#X connect 45 1 43 0;
#X connect 46 0 58 0;
#X connect 47 0 45 0;
#X connect 48 0 58 0;
#X connect 48 1 21 0;
#X connect 53 0 54 0;
#X connect 53 0 69 0;
#X connect 53 0 75 0;
#X connect 55 0 57 0;
#X connect 56 0 41 0;
#X connect 57 0 56 0;
#X connect 59 0 67 0;
#X connect 60 0 20 0;
#X connect 60 0 25 0;
#X connect 61 0 31 0;
#X connect 61 0 32 0;
#X connect 62 0 34 0;
#X connect 62 0 35 0;
#X connect 63 0 37 0;
#X connect 63 0 38 0;
#X connect 64 0 27 0;
#X connect 66 0 17 0;
#X connect 68 0 48 0;
#X connect 69 0 55 0;
#X connect 69 1 55 1;
#X connect 70 0 53 0;
#X connect 71 0 53 0;
#X connect 72 0 53 0;
#X connect 73 0 74 0;
#X connect 76 0 78 0;
#X connect 78 0 79 0;
#X connect 78 1 74 1;
#X connect 79 0 77 0;
#X coords 0 -1 1 1 275 17 2 100 100;
