#N canvas 536 125 622 616 10;
#X obj 156 238 f;
#X obj 232 388 + 1;
#X msg 382 168 0;
#X obj 382 73 inlet;
#X obj 129 69 inlet;
#X obj 442 224 loadbang;
#X obj 208 527 outlet;
#X text 259 528 current index;
#X obj 156 411 t f f f;
#X obj 129 100 route float bang;
#X obj 382 100 route bang;
#X obj 129 197 t f b;
#X obj 156 326 mod 100;
#X obj 222 251 arraysize;
#X obj 129 523 tabwrite;
#X obj 442 253 dollarg;
#X msg 442 279 set \$1;
#X obj 222 149 trigger b a a;
#X text 322 413 Borrowed from PdMtl Abstractions \; original is [table.write.next]
\; see http://wiki.dataflow.ws/PdMtlAbstractions;
#X connect 0 0 12 0;
#X connect 1 0 0 1;
#X connect 2 0 0 1;
#X connect 3 0 10 0;
#X connect 4 0 9 0;
#X connect 5 0 15 0;
#X connect 8 0 6 0;
#X connect 8 1 14 1;
#X connect 8 2 1 0;
#X connect 9 0 11 0;
#X connect 9 1 2 0;
#X connect 9 2 17 0;
#X connect 10 0 2 0;
#X connect 10 1 0 1;
#X connect 11 0 14 0;
#X connect 11 1 0 0;
#X connect 12 0 8 0;
#X connect 13 0 12 1;
#X connect 15 0 16 0;
#X connect 16 0 14 0;
#X connect 16 0 17 0;
#X connect 17 0 13 0;
#X connect 17 1 13 0;
#X connect 17 2 14 0;
