#N canvas 211 114 509 428 10;
#X obj -375 382 dac~ 1 2;
#X obj -405 -9 cnv 15 15 15 empty empty ExMM3-TicAlea 0 8 1 14 -262144
-66577 0;
#N canvas 295 212 233 221 ARGO 0;
#X obj 110 105 cnv 10 20 10 empty empty WhiteNoise 1 5 1 14 -262144
-1 1.04858e+06;
#X obj 101 113 cnv 4 10 4 empty empty empty 20 12 0 14 -1 -66577 0
;
#X obj 45 173 outlet~;
#X obj 44 101 noise~;
#X connect 3 0 2 0;
#X coords 0 -1 1 1 95 18 2 100 100;
#X restore -405 29 pd ARGO;
#N canvas 290 162 362 206 ARGO 0;
#X obj 101 113 cnv 4 10 4 empty empty empty 0 0 0 9 -1 -66577 0;
#X obj 100 100 nbx 5 12 0 99999 0 1 \$0-A \$0-B Hz 47 7 1 9 -262144
-1 -1 0.63 256;
#X obj 158 103 cnv 10 20 10 empty empty Alea1 1 5 1 14 -262144 -1 1.04858e+06
;
#X obj 101 113 cnv 4 10 4 empty empty empty 20 12 0 14 -1 -66577 0
;
#X obj 52 172 outlet~;
#X obj 52 141 noish~;
#X text 6 23 Pb noish~ ecrit sr=44100.000000 sn=0.000000 dans la fen
Pd quand Audio Off -> On;
#X text 6 53 (library zexy);
#X connect 1 0 5 0;
#X connect 5 0 4 0;
#X coords 0 -1 1 1 95 18 2 100 100;
#X restore -138 -6 pd ARGO;
#N canvas 350 62 312 366 ARGO 0;
#X obj 101 101 cnv 20 104 34 empty ColorAmpli empty 20 12 0 14 -261299
-1 1.04858e+06;
#X obj 4 253 outlet~;
#X obj 134 104 cnv 10 20 10 empty ColorAmpli Ampli 1 5 1 14 -261299
-1 1.04858e+06;
#X obj 12 -86 inlet~;
#X obj 61 -85 inlet~;
#X obj 6 194 *~;
#X obj 103 118 hsl 101 12 0 1.25 0 1 \$0-A ColorAmpli -26dB 0 7 1 9
-261299 -1 -1 5400 0;
#X msg 144 60 set \$1;
#X obj 61 -39 +~;
#X obj 145 2 snapshot~;
#X obj 144 38 change;
#X obj 145 -84 r \$0-SendClic;
#X obj 23 113 pow~ 10000;
#X obj 22 161 /~ 10000;
#X msg 213 61 label \$1;
#X obj 212 38 tosymbol;
#X obj 213 -61 * 80;
#X obj 213 -39 - 80;
#X obj 212 3 sprintf %ddB;
#X obj 195 101 cnv 4 10 4 empty empty empty 20 12 0 14 -258113 -66577
0;
#X obj 101 101 cnv 4 10 4 empty empty empty 20 12 0 14 -1 -66577 0
;
#X obj 101 131 cnv 4 10 4 empty empty empty 20 12 0 14 -1 -66577 0
;
#X text 221 20 -> -80dB..20dB;
#X text 218 -16 -> -80 .. 20;
#X text 31 95 -> 0..1.2;
#X text 32 143 -> 1..100000;
#X text 31 177 -> 0.0001..10 = -80dB..20dB;
#X connect 3 0 5 0;
#X connect 4 0 8 0;
#X connect 5 0 1 0;
#X connect 6 0 16 0;
#X connect 6 0 8 1;
#X connect 7 0 6 0;
#X connect 8 0 9 0;
#X connect 8 0 12 0;
#X connect 9 0 10 0;
#X connect 10 0 7 0;
#X connect 11 0 9 0;
#X connect 12 0 13 0;
#X connect 13 0 5 1;
#X connect 14 0 6 0;
#X connect 15 0 14 0;
#X connect 16 0 17 0;
#X connect 17 0 18 0;
#X connect 18 0 15 0;
#X coords 0 -1 1 1 106 36 1 100 100;
#X restore -138 25 pd ARGO;
#N canvas 350 62 312 366 ARGO 0;
#X obj 101 101 cnv 20 104 34 empty ColorAmpli empty 20 12 0 14 -261299
-1 1.04858e+06;
#X obj 4 253 outlet~;
#X obj 134 104 cnv 10 20 10 empty ColorAmpli Ampli 1 5 1 14 -261299
-1 1.04858e+06;
#X obj 12 -86 inlet~;
#X obj 61 -85 inlet~;
#X obj 6 194 *~;
#X obj 103 118 hsl 101 12 0 1.25 0 1 \$0-A ColorAmpli -60dB 0 7 1 9
-261299 -1 -1 2000 0;
#X msg 144 60 set \$1;
#X obj 61 -39 +~;
#X obj 145 2 snapshot~;
#X obj 144 38 change;
#X obj 145 -84 r \$0-SendClic;
#X obj 23 113 pow~ 10000;
#X obj 22 161 /~ 10000;
#X msg 213 61 label \$1;
#X obj 212 38 tosymbol;
#X obj 213 -61 * 80;
#X obj 213 -39 - 80;
#X obj 212 3 sprintf %ddB;
#X obj 195 101 cnv 4 10 4 empty empty empty 20 12 0 14 -258113 -66577
0;
#X obj 101 101 cnv 4 10 4 empty empty empty 20 12 0 14 -1 -66577 0
;
#X obj 101 131 cnv 4 10 4 empty empty empty 20 12 0 14 -1 -66577 0
;
#X text 221 20 -> -80dB..20dB;
#X text 218 -16 -> -80 .. 20;
#X text 31 95 -> 0..1.2;
#X text 32 143 -> 1..100000;
#X text 31 177 -> 0.0001..10 = -80dB..20dB;
#X connect 3 0 5 0;
#X connect 4 0 8 0;
#X connect 5 0 1 0;
#X connect 6 0 16 0;
#X connect 6 0 8 1;
#X connect 7 0 6 0;
#X connect 8 0 9 0;
#X connect 8 0 12 0;
#X connect 9 0 10 0;
#X connect 10 0 7 0;
#X connect 11 0 9 0;
#X connect 12 0 13 0;
#X connect 13 0 5 1;
#X connect 14 0 6 0;
#X connect 15 0 14 0;
#X connect 16 0 17 0;
#X connect 17 0 18 0;
#X connect 18 0 15 0;
#X coords 0 -1 1 1 106 36 1 100 100;
#X restore -406 132 pd ARGO;
#X obj -138 125 *~ -1;
#X obj 4 310 active;
#N canvas 424 161 167 191 clic 0;
#X obj 23 17 MouseState;
#X obj 23 82 &;
#X obj 23 100 == 0;
#X obj 23 136 s \$0-SendClic;
#X obj 48 51 t b f;
#X obj 23 118 metro 200;
#X obj 94 17 inlet;
#X connect 0 0 1 0;
#X connect 1 0 2 0;
#X connect 2 0 5 0;
#X connect 4 0 1 0;
#X connect 4 1 1 1;
#X connect 5 0 3 0;
#X connect 6 0 4 0;
#X restore 4 331 pd clic;
#N canvas 608 166 249 182 ARGOnOff 0;
#X obj 100 100 tgl 18 1 \$0-SendOnOff \$0-ReceiveOnOff On/Off 20 9
0 12 -4033 -1 -1 1 1;
#X obj 99 39 loadbang;
#X msg 99 62 \; pd dsp 1;
#X obj 100 129 outlet;
#X connect 0 0 3 0;
#X connect 1 0 2 0;
#X coords 0 -1 1 1 65 18 2 100 100;
#X restore 2 355 pd ARGOnOff;
#X obj 2 380 switch~;
#N canvas 302 22 582 408 ARGO 0;
#X obj 101 101 cnv 20 244 34 empty ColorTime empty 20 12 0 14 -208064
-1 1.04858e+06;
#X obj 356 280 outlet~;
#X obj 103 118 hsl 241 12 0 1 0 0 \$0-A ColorTime D$-2 0 7 1 9 -208064
-1 -1 11150 0;
#X obj 100 106 nbx 7 12 0 20000 0 1 \$0-A ColorTime Hz 60 7 1 9 -208064
-1 -1 10.007 256;
#X obj 194 104 cnv 10 65 10 empty ColorTime Oscill 1 5 1 14 -208064
-1 1.04858e+06;
#X obj 231 104 cnv 10 10 10 empty ColorTime Tri/Rectangle 1 5 1 14
-208064 -1 1.04858e+06;
#X obj 312 31 clip~ 0 20000;
#X obj 17 130 ftom;
#X obj 218 50 mtof;
#X obj 311 -76 +~;
#X obj 188 -43 snapshot~;
#X obj 188 -21 change;
#X obj 217 3 * 240;
#X obj 218 26 - 108;
#X obj 312 9 mtof~;
#X obj 310 -38 *~ 240;
#X obj 311 -16 -~ 108;
#X obj 18 153 + 108;
#X obj 19 175 / 240;
#X msg 113 5 set \$1;
#X msg 219 72 set \$1;
#X obj 188 -76 r \$0-SendClic;
#N canvas 60 186 518 313 pitch 0;
#X obj 76 111 mod 12;
#X obj 76 135 sel 0 1 2 3 4 5 6 7 8 9 10 11;
#X msg 252 170 A;
#X msg 279 170 A#;
#X msg 306 170 B;
#X msg 225 170 G#;
#X msg 198 170 G;
#X msg 171 170 F#;
#X msg 9 170 C;
#X msg 36 170 C#;
#X msg 63 170 D;
#X msg 90 170 D#;
#X msg 117 170 E;
#X msg 144 170 F;
#X obj 211 9 inlet;
#X obj 376 115 div 12;
#X obj 376 137 - 2;
#X obj 307 238 tosymbol;
#X obj 210 69 t f f;
#X obj 307 213 sprintf %s%d;
#X text 383 170 -> Numero de l'octave;
#X text 217 30 -> Numero MIDI de la note (69 = A3 = 440Hz);
#X msg 307 260 label \$1;
#X obj 307 283 outlet;
#X connect 0 0 1 0;
#X connect 1 0 8 0;
#X connect 1 1 9 0;
#X connect 1 2 10 0;
#X connect 1 3 11 0;
#X connect 1 4 12 0;
#X connect 1 5 13 0;
#X connect 1 6 7 0;
#X connect 1 7 6 0;
#X connect 1 8 5 0;
#X connect 1 9 2 0;
#X connect 1 10 3 0;
#X connect 1 11 4 0;
#X connect 2 0 19 0;
#X connect 3 0 19 0;
#X connect 4 0 19 0;
#X connect 5 0 19 0;
#X connect 6 0 19 0;
#X connect 7 0 19 0;
#X connect 8 0 19 0;
#X connect 9 0 19 0;
#X connect 10 0 19 0;
#X connect 11 0 19 0;
#X connect 12 0 19 0;
#X connect 13 0 19 0;
#X connect 14 0 18 0;
#X connect 15 0 16 0;
#X connect 16 0 19 1;
#X connect 17 0 22 0;
#X connect 18 0 0 0;
#X connect 18 1 15 0;
#X connect 19 0 17 0;
#X connect 22 0 23 0;
#X restore 114 53 pd pitch;
#X obj 311 -100 inlet~;
#X obj 101 131 cnv 4 10 4 empty empty empty 20 12 0 14 -1 -66577 0
;
#X obj 101 101 cnv 4 10 4 empty empty empty 20 12 0 14 -1728 -66577
0;
#X obj 409 279 outlet~;
#X obj 335 131 cnv 4 10 4 empty empty empty 0 0 0 9 -1 -66577 0;
#X obj 352 61 phasor~;
#X obj 353 87 -~ 0.5;
#X obj 493 158 -~ 0.5;
#X obj 513 195 *~;
#X obj 513 218 +~ 0.125;
#X obj 463 278 outlet~;
#X obj 493 136 expr~ $v1 < 0;
#X obj 355 252 *~ 2;
#X obj 409 247 *~ -2;
#X obj 463 242 *~ 2;
#X obj 513 242 *~ 8;
#X obj 514 277 outlet~;
#X obj 253 130 cnv 4 10 4 empty empty empty 0 0 0 9 -1 -66577 0;
#X obj 180 131 cnv 4 10 4 empty empty empty 0 0 0 9 -1 -66577 0;
#X text 84 134 Ramp up;
#X text 158 135 Ramp down;
#X text 231 136 Rectangle;
#X text 313 136 Triangle;
#X connect 2 0 9 1;
#X connect 3 0 7 0;
#X connect 6 0 28 0;
#X connect 7 0 17 0;
#X connect 8 0 20 0;
#X connect 9 0 10 0;
#X connect 9 0 15 0;
#X connect 10 0 11 0;
#X connect 11 0 12 0;
#X connect 11 0 19 0;
#X connect 12 0 13 0;
#X connect 13 0 8 0;
#X connect 13 0 22 0;
#X connect 14 0 6 0;
#X connect 15 0 16 0;
#X connect 16 0 14 0;
#X connect 17 0 18 0;
#X connect 18 0 9 1;
#X connect 19 0 2 0;
#X connect 20 0 3 0;
#X connect 21 0 10 0;
#X connect 22 0 2 0;
#X connect 23 0 9 0;
#X connect 28 0 29 0;
#X connect 29 0 35 0;
#X connect 29 0 36 0;
#X connect 29 0 31 0;
#X connect 29 0 34 0;
#X connect 30 0 31 1;
#X connect 30 0 37 0;
#X connect 31 0 32 0;
#X connect 32 0 38 0;
#X connect 34 0 30 0;
#X connect 35 0 1 0;
#X connect 36 0 26 0;
#X connect 37 0 33 0;
#X connect 38 0 39 0;
#X coords 0 -1 1 1 246 36 1 100 100;
#X restore -387 84 pd ARGO;
#N canvas 491 56 359 377 ARGO 0;
#X obj 101 102 cnv 20 215 34 empty ColorForm empty 20 12 0 14 -188398
-1 1.04858e+06;
#X obj 248 104 cnv 10 65 10 empty ColorForm Flt-BP 1 5 1 14 -188398
-1 1.04858e+06;
#X obj 101 131 cnv 4 10 4 empty empty empty 20 12 0 14 -1 -66577 0
;
#X obj 203 101 cnv 4 10 4 empty empty empty 20 12 0 14 -1728 -66577
0;
#X obj 306 131 cnv 4 10 4 empty empty empty 0 0 0 9 -1 -66577 0;
#X obj 50 46 inlet~;
#X obj 149 324 outlet~;
#X obj 200 324 outlet~;
#X obj 234 118 hsl 81 12 0 1 0 1 \$0-A ColorForm Resonance 0 7 1 9
-188398 -1 -1 4300 0;
#X obj 103 118 hsl 127 12 0 1 0 0 \$0-A ColorTime D7 0 7 1 9 -208064
-1 -1 10400 0;
#X obj 100 106 nbx 7 12 0 20000 0 1 \$0-A ColorTime Hz 60 7 1 9 -208064
-1 -1 2154.47 256;
#N canvas 320 116 257 328 Q 0;
#X obj 73 278 line;
#X obj 11 9 loadbang;
#X msg 148 128 set \$1;
#X obj 78 56 +~;
#X obj 78 89 snapshot~;
#X obj 78 109 change;
#X obj 10 54 metro 10;
#X obj 76 215 + 1;
#X obj 75 236 clip 1 200;
#X msg 74 257 \$1 100;
#X obj 76 173 * 1;
#X obj 77 152 * 1;
#X obj 78 129 t f f f;
#X obj 73 300 outlet;
#X obj 75 194 * 200;
#X obj 163 9 r \$0-SendClic;
#X obj 149 88 snapshot~;
#X obj 149 108 change;
#X obj 124 9 inlet;
#X obj 148 300 outlet;
#X obj 77 9 inlet~;
#X connect 0 0 13 0;
#X connect 1 0 6 0;
#X connect 2 0 19 0;
#X connect 3 0 4 0;
#X connect 3 0 16 0;
#X connect 4 0 5 0;
#X connect 5 0 12 0;
#X connect 6 0 4 0;
#X connect 7 0 8 0;
#X connect 8 0 9 0;
#X connect 9 0 0 0;
#X connect 10 0 14 0;
#X connect 11 0 10 0;
#X connect 12 0 11 0;
#X connect 12 1 11 1;
#X connect 12 2 10 1;
#X connect 14 0 7 0;
#X connect 15 0 16 0;
#X connect 16 0 17 0;
#X connect 17 0 2 0;
#X connect 18 0 3 1;
#X connect 20 0 3 0;
#X restore 205 166 pd Q;
#N canvas 45 224 344 321 Freqv4 0;
#X obj 58 175 ftom;
#X obj 164 204 mtof;
#X obj 182 59 +~;
#X obj 67 107 snapshot~;
#X obj 67 129 change;
#X msg 9 221 set \$1;
#X msg 165 226 set \$1;
#X obj 163 157 * 126;
#X obj 164 180 + 6;
#X obj 60 220 / 126;
#X obj 59 198 - 6;
#X obj 141 17 *~ 1.90476;
#X obj 237 223 clip~ 0 20000;
#X obj 237 201 mtof~;
#X obj 237 250 outlet~;
#X obj 236 154 *~ 126;
#X obj 237 176 +~ 6;
#X obj 53 -8 r \$0-SendClic;
#X obj 224 -12 inlet;
#X obj 289 15 inlet;
#X obj 61 252 outlet;
#X obj 165 250 outlet;
#N canvas 60 186 488 293 pitch 0;
#X obj 73 85 mod 12;
#X obj 73 109 sel 0 1 2 3 4 5 6 7 8 9 10 11;
#X msg 249 144 A;
#X msg 276 144 A#;
#X msg 303 144 B;
#X msg 222 144 G#;
#X msg 195 144 G;
#X msg 168 144 F#;
#X msg 6 144 C;
#X msg 33 144 C#;
#X msg 60 144 D;
#X msg 87 144 D#;
#X msg 114 144 E;
#X msg 141 144 F;
#X obj 207 4 inlet;
#X obj 332 89 div 12;
#X obj 332 118 - 2;
#X obj 263 212 tosymbol;
#X obj 207 43 t f f;
#X obj 263 187 sprintf %s%d;
#X text 337 164 -> Numero de l'octave;
#X text 213 25 -> Numero MIDI de la note (69 = A3 = 440Hz);
#X msg 263 234 label \$1;
#X obj 263 257 outlet;
#X connect 0 0 1 0;
#X connect 1 0 8 0;
#X connect 1 1 9 0;
#X connect 1 2 10 0;
#X connect 1 3 11 0;
#X connect 1 4 12 0;
#X connect 1 5 13 0;
#X connect 1 6 7 0;
#X connect 1 7 6 0;
#X connect 1 8 5 0;
#X connect 1 9 2 0;
#X connect 1 10 3 0;
#X connect 1 11 4 0;
#X connect 2 0 19 0;
#X connect 3 0 19 0;
#X connect 4 0 19 0;
#X connect 5 0 19 0;
#X connect 6 0 19 0;
#X connect 7 0 19 0;
#X connect 8 0 19 0;
#X connect 9 0 19 0;
#X connect 10 0 19 0;
#X connect 11 0 19 0;
#X connect 12 0 19 0;
#X connect 13 0 19 0;
#X connect 14 0 18 0;
#X connect 15 0 16 0;
#X connect 16 0 19 1;
#X connect 17 0 22 0;
#X connect 18 0 0 0;
#X connect 18 1 15 0;
#X connect 19 0 17 0;
#X connect 22 0 23 0;
#X restore 101 219 pd pitch;
#X text 58 270 Hslider;
#X text 271 -2 number Freq;
#X text 220 -31 Hslider;
#X text 151 269 number Freq;
#X obj 223 17 * 126;
#X obj 224 40 + 6;
#X obj 141 -8 inlet~;
#X connect 0 0 10 0;
#X connect 1 0 6 0;
#X connect 2 0 3 0;
#X connect 2 0 15 0;
#X connect 3 0 4 0;
#X connect 4 0 5 0;
#X connect 4 0 7 0;
#X connect 5 0 20 0;
#X connect 6 0 21 0;
#X connect 7 0 8 0;
#X connect 8 0 1 0;
#X connect 9 0 20 0;
#X connect 10 0 9 0;
#X connect 11 0 2 0;
#X connect 12 0 14 0;
#X connect 13 0 12 0;
#X connect 15 0 16 0;
#X connect 16 0 13 0;
#X connect 17 0 3 0;
#X connect 18 0 2 1;
#X connect 18 0 27 0;
#X connect 19 0 0 0;
#X connect 22 0 20 0;
#X connect 27 0 28 0;
#X connect 28 0 22 0;
#X connect 29 0 11 0;
#X restore 67 162 pd Freqv4;
#X obj 98 46 inlet~;
#X obj 189 47 inlet~;
#X obj 101 101 cnv 4 10 4 empty empty empty 20 12 0 14 -1 -66577 0
;
#X obj 306 101 cnv 4 10 4 empty empty empty 20 12 0 14 -3522 -66577
0;
#X obj 47 215 vcf~;
#X obj 100 241 vcf~;
#X obj 150 268 vcf~;
#X obj 200 298 vcf~;
#X obj 47 324 outlet~;
#X obj 98 324 outlet~;
#X obj 241 131 cnv 4 10 4 empty empty empty 0 0 0 9 -1 -66577 0;
#X obj 166 131 cnv 4 10 4 empty empty empty 0 0 0 9 -1 -66577 0;
#X text 80 136 1 Filter;
#X text 145 136 2 Filter;
#X text 218 136 3 Filter;
#X text 286 137 4 Filter;
#X connect 5 0 17 0;
#X connect 8 0 11 1;
#X connect 9 0 12 1;
#X connect 10 0 12 2;
#X connect 11 0 17 2;
#X connect 11 0 18 2;
#X connect 11 0 19 2;
#X connect 11 0 20 2;
#X connect 11 1 8 0;
#X connect 12 0 9 0;
#X connect 12 1 10 0;
#X connect 12 2 17 1;
#X connect 12 2 18 1;
#X connect 12 2 19 1;
#X connect 12 2 20 1;
#X connect 13 0 12 0;
#X connect 14 0 11 0;
#X connect 17 0 18 0;
#X connect 17 0 21 0;
#X connect 18 0 19 0;
#X connect 18 0 22 0;
#X connect 19 0 20 0;
#X connect 19 0 6 0;
#X connect 20 0 7 0;
#X coords 0 -1 1 1 217 36 1 100 100;
#X restore -406 179 pd ARGO;
#N canvas 585 156 393 346 ARGO 0;
#X obj 40 -36 inlet~;
#X obj 101 101 cnv 12 198 18 empty empty empty 20 12 0 14 -262144 -1
1.04858e+06;
#X obj 254 105 cnv 10 44 10 empty empty Scope 1 5 1 14 -262144 -1 1.04858e+06
;
#X obj 101 101 cnv 4 10 4 empty empty empty 20 12 0 14 -1 -66577 0
;
#X msg 186 31 frgb 255 0 0;
#X text 64 254 Voir examples:cyclone:pink-test.pd;
#X text 64 265 Voir examples:cyclone:scope-...;
#X obj 128 103 nbx 4 12 1 2000 0 1 empty ColorTime ms/div 40 7 1 9
-208064 -1 -1 10 256;
#X msg -19 30 range -1 1;
#X obj 101 120 Scope~ 198 129 20 3 176 -1 1 0 0 0 0 255 0 0 255 255
255 0;
#X text 64 276 Voir MSP46ReferenceManual.pdf;
#X obj 217 103 tgl 12 1 \$0-A \$0-B Sync 15 6 1 9 -262144 -1 -1 0 1
;
#X msg 142 6 delay 0 \, triglevel 0 \, trigger 0;
#X obj 140 -41 sel 0 1;
#X msg 183 55 brgb 255 255 255;
#X msg 62 14 bufsize 176;
#X obj 94 63 * 2;
#X msg 159 -19 delay 1 \, triglevel 0.1 \, trigger 1;
#X obj 41 -8 clip~ -1 1;
#X connect 0 0 18 0;
#X connect 4 0 9 0;
#X connect 7 0 16 0;
#X connect 8 0 9 0;
#X connect 11 0 13 0;
#X connect 12 0 9 0;
#X connect 13 0 12 0;
#X connect 13 1 17 0;
#X connect 14 0 9 0;
#X connect 15 0 9 0;
#X connect 16 0 9 0;
#X connect 17 0 9 0;
#X connect 18 0 9 0;
#X coords 0 -1 1 1 200 150 2 100 100;
#X restore -223 253 pd ARGO;
#N canvas 434 234 476 177 ARGO 0;
#X obj 25 148 outlet~;
#X obj 45 70 tanh~;
#X obj 44 17 inlet~;
#X text 107 6 cyclone library;
#X text 106 21 calculate hyperbolic tangent function;
#X text 106 36 http://suita.chopin.edu.pl/~czaja/miXed/externs/cyclone.html
;
#X obj 101 101 cnv 12 93 16 empty ColorAmpli empty 20 12 0 14 -261299
-1 1.04858e+06;
#X obj 127 105 cnv 10 20 10 empty ColorAmpli Tanh 1 5 1 14 -261299
-1 1.04858e+06;
#X obj 101 113 cnv 4 10 4 empty empty empty 20 12 0 14 -1 -66577 0
;
#X obj 101 101 cnv 4 10 4 empty empty empty 20 12 0 14 -1 -66577 0
;
#X connect 1 0 0 0;
#X connect 2 0 1 0;
#X coords 0 -1 1 1 95 18 2 100 100;
#X restore -337 222 pd ARGO;
#N canvas 189 190 372 210 ARGO 0;
#X obj 101 113 cnv 4 10 4 empty empty empty 0 0 0 9 -1 -66577 0;
#X obj 100 100 nbx 5 12 0 99999 0 1 \$0-A \$0-B Hz 47 7 1 9 -262144
-1 -1 0.4 256;
#X obj 158 103 cnv 10 20 10 empty empty Alea2 1 5 1 14 -262144 -1 1.04858e+06
;
#X obj 101 113 cnv 4 10 4 empty empty empty 20 12 0 14 -1 -66577 0
;
#X obj 52 172 outlet~;
#X obj 102 125 noisi~;
#X text 4 3 draws a random number every n samples and interpolates
between;
#X text 4 -9 noisi~;
#X text 5 30 the effect is that you get a bandlimited noise the bandwidth
of which can be controlled without having to use expensive filters
;
#X text 2 73 (library zexy);
#X connect 1 0 5 0;
#X connect 5 0 4 0;
#X coords 0 -1 1 1 95 18 2 100 100;
#X restore -17 -6 pd ARGO;
#N canvas 350 62 312 366 ARGO 0;
#X obj 101 101 cnv 20 104 34 empty ColorAmpli empty 20 12 0 14 -261299
-1 1.04858e+06;
#X obj 4 253 outlet~;
#X obj 134 104 cnv 10 20 10 empty ColorAmpli Ampli 1 5 1 14 -261299
-1 1.04858e+06;
#X obj 12 -86 inlet~;
#X obj 61 -85 inlet~;
#X obj 6 194 *~;
#X obj 103 118 hsl 101 12 0 1.25 0 1 \$0-A ColorAmpli -7dB 0 7 1 9
-261299 -1 -1 7300 0;
#X msg 144 60 set \$1;
#X obj 61 -39 +~;
#X obj 145 2 snapshot~;
#X obj 144 38 change;
#X obj 145 -84 r \$0-SendClic;
#X obj 23 113 pow~ 10000;
#X obj 22 161 /~ 10000;
#X msg 213 61 label \$1;
#X obj 212 38 tosymbol;
#X obj 213 -61 * 80;
#X obj 213 -39 - 80;
#X obj 212 3 sprintf %ddB;
#X obj 195 101 cnv 4 10 4 empty empty empty 20 12 0 14 -258113 -66577
0;
#X obj 101 101 cnv 4 10 4 empty empty empty 20 12 0 14 -1 -66577 0
;
#X obj 101 131 cnv 4 10 4 empty empty empty 20 12 0 14 -1 -66577 0
;
#X text 221 20 -> -80dB..20dB;
#X text 218 -16 -> -80 .. 20;
#X text 31 95 -> 0..1.2;
#X text 32 143 -> 1..100000;
#X text 31 177 -> 0.0001..10 = -80dB..20dB;
#X connect 3 0 5 0;
#X connect 4 0 8 0;
#X connect 5 0 1 0;
#X connect 6 0 16 0;
#X connect 6 0 8 1;
#X connect 7 0 6 0;
#X connect 8 0 9 0;
#X connect 8 0 12 0;
#X connect 9 0 10 0;
#X connect 10 0 7 0;
#X connect 11 0 9 0;
#X connect 12 0 13 0;
#X connect 13 0 5 1;
#X connect 14 0 6 0;
#X connect 15 0 14 0;
#X connect 16 0 17 0;
#X connect 17 0 18 0;
#X connect 18 0 15 0;
#X coords 0 -1 1 1 106 36 1 100 100;
#X restore -18 105 pd ARGO;
#N canvas 290 162 362 206 ARGO 0;
#X obj 101 113 cnv 4 10 4 empty empty empty 0 0 0 9 -1 -66577 0;
#X obj 100 100 nbx 5 12 0 99999 0 1 \$0-A \$0-B Hz 47 7 1 9 -262144
-1 -1 0.55 256;
#X obj 158 103 cnv 10 20 10 empty empty Alea1 1 5 1 14 -262144 -1 1.04858e+06
;
#X obj 101 113 cnv 4 10 4 empty empty empty 20 12 0 14 -1 -66577 0
;
#X obj 52 172 outlet~;
#X obj 52 141 noish~;
#X text 6 23 Pb noish~ ecrit sr=44100.000000 sn=0.000000 dans la fen
Pd quand Audio Off -> On;
#X text 6 53 (library zexy);
#X connect 1 0 5 0;
#X connect 5 0 4 0;
#X coords 0 -1 1 1 95 18 2 100 100;
#X restore -240 -6 pd ARGO;
#N canvas 350 62 312 366 ARGO 0;
#X obj 101 101 cnv 20 104 34 empty ColorAmpli empty 20 12 0 14 -261299
-1 1.04858e+06;
#X obj 85 257 outlet~;
#X obj 134 104 cnv 10 20 10 empty ColorAmpli Ampli 1 5 1 14 -261299
-1 1.04858e+06;
#X obj 89 -82 inlet~;
#X obj 85 228 *~;
#X obj 103 118 hsl 101 12 0 1.25 0 1 \$0-A ColorAmpli 0dB 0 7 1 9 -261299
-1 -1 8000 0;
#X obj 100 161 pow~ 10000;
#X obj 100 195 /~ 10000;
#X msg 213 61 label \$1;
#X obj 212 38 tosymbol;
#X obj 213 -61 * 80;
#X obj 213 -39 - 80;
#X obj 212 3 sprintf %ddB;
#X obj 101 101 cnv 4 10 4 empty empty empty 20 12 0 14 -1 -66577 0
;
#X obj 101 131 cnv 4 10 4 empty empty empty 20 12 0 14 -1 -66577 0
;
#X text 221 20 -> -80dB..20dB;
#X text 218 -16 -> -80 .. 20;
#X text 104 139 -> 0..1.2;
#X text 109 177 -> 1..100000;
#X text 109 211 -> 0.0001..10 = -80dB..20dB;
#X connect 3 0 4 0;
#X connect 4 0 1 0;
#X connect 5 0 10 0;
#X connect 5 0 6 0;
#X connect 6 0 7 0;
#X connect 7 0 4 1;
#X connect 8 0 5 0;
#X connect 9 0 8 0;
#X connect 10 0 11 0;
#X connect 11 0 12 0;
#X connect 12 0 9 0;
#X coords 0 -1 1 1 106 36 1 100 100;
#X restore -357 334 pd ARGO;
#X text -341 317 General level;
#X connect 2 0 5 0;
#X connect 3 0 4 0;
#X connect 4 0 6 0;
#X connect 4 0 11 0;
#X connect 5 0 12 0;
#X connect 6 0 12 1;
#X connect 7 0 8 0;
#X connect 9 0 10 0;
#X connect 11 1 5 1;
#X connect 12 1 14 0;
#X connect 14 0 13 0;
#X connect 14 0 18 0;
#X connect 15 0 16 0;
#X connect 16 0 12 2;
#X connect 17 0 4 0;
#X connect 18 0 0 0;
#X connect 18 0 0 1;
