#N canvas 375 224 464 407 10;
#X obj -23 291 active;
#N canvas 424 161 167 191 clic 0;
#X obj 23 17 MouseState;
#X obj 23 82 &;
#X obj 23 100 == 0;
#X obj 23 136 s \$0-SendClic;
#X obj 48 51 t b f;
#X obj 23 118 metro 200;
#X obj 94 17 inlet;
#X connect 0 0 1 0;
#X connect 1 0 2 0;
#X connect 2 0 5 0;
#X connect 4 0 1 0;
#X connect 4 1 1 1;
#X connect 5 0 3 0;
#X connect 6 0 4 0;
#X restore -23 312 pd clic;
#N canvas 608 166 249 182 ARGOnOff 0;
#X obj 100 100 tgl 18 1 \$0-SendOnOff \$0-ReceiveOnOff On/Off 20 9
0 12 -4033 -1 -1 1 1;
#X obj 99 39 loadbang;
#X msg 99 62 \; pd dsp 1;
#X obj 100 129 outlet;
#X connect 0 0 3 0;
#X connect 1 0 2 0;
#X coords 0 -1 1 1 65 18 2 100 100;
#X restore -25 336 pd ARGOnOff;
#X obj -25 361 switch~;
#X obj 56 260 dac~ 1 2;
#N canvas 172 173 382 310 ARGO 0;
#X text 12 234 peakamp~;
#X text 11 247 cyclone library;
#X text 12 262 http://suita.chopin.edu.pl/~czaja/miXed/externs/cyclone.html
;
#X text 12 275 pas de help \, dans Pd-extended. Voir doc Max/MSP MSP46ReferenceManual.pdf
;
#X obj 101 101 cnv 30 32 129 empty empty empty 20 12 0 14 -261299 -66577
0;
#X obj 101 101 cnv 4 10 4 empty empty empty 20 12 0 14 -1 -66577 0
;
#X obj 102 108 vu 8 120 \$0-B empty 0 0 1 9 -262144 -1 1 0;
#X obj 75 30 env~;
#X obj 115 4 inlet~;
#X obj 74 53 - 100;
#X obj 114 53 env~;
#X obj 113 76 - 100;
#X obj 115 31 peakamp~ 1000;
#X connect 7 0 9 0;
#X connect 8 0 7 0;
#X connect 8 0 12 0;
#X connect 9 0 6 0;
#X connect 10 0 11 0;
#X connect 11 0 6 1;
#X connect 12 0 10 0;
#X coords 0 -1 1 1 34 131 2 100 100;
#X restore 112 259 pd ARGO;
#N canvas 172 173 382 310 ARGO 0;
#X text 12 234 peakamp~;
#X text 11 247 cyclone library;
#X text 12 262 http://suita.chopin.edu.pl/~czaja/miXed/externs/cyclone.html
;
#X text 12 275 pas de help \, dans Pd-extended. Voir doc Max/MSP MSP46ReferenceManual.pdf
;
#X obj 101 101 cnv 30 32 129 empty empty empty 20 12 0 14 -261299 -66577
0;
#X obj 101 101 cnv 4 10 4 empty empty empty 20 12 0 14 -1 -66577 0
;
#X obj 102 108 vu 8 120 \$0-B empty 0 0 1 9 -262144 -1 1 0;
#X obj 75 30 env~;
#X obj 115 4 inlet~;
#X obj 74 53 - 100;
#X obj 114 53 env~;
#X obj 113 76 - 100;
#X obj 115 31 peakamp~ 1000;
#X connect 7 0 9 0;
#X connect 8 0 7 0;
#X connect 8 0 12 0;
#X connect 9 0 6 0;
#X connect 10 0 11 0;
#X connect 11 0 6 1;
#X connect 12 0 10 0;
#X coords 0 -1 1 1 34 131 2 100 100;
#X restore 123 259 pd ARGO;
#N canvas 350 62 279 383 ARGO 0;
#X obj 101 101 cnv 20 104 34 empty ColorAmpli empty 20 12 0 14 -261299
-1 1.04858e+06;
#X obj 85 274 outlet~;
#X obj 134 104 cnv 10 20 10 empty ColorAmpli Ampli 1 5 1 14 -261299
-1 1.04858e+06;
#X obj 89 -82 inlet~;
#X obj 85 245 *~;
#X obj 103 118 hsl 101 12 0 1.25 0 1 \$0-A ColorAmpli 6dB 0 7 1 9 -261299
-1 -1 8600 0;
#X obj 100 161 pow~ 10000;
#X obj 100 201 /~ 10000;
#X msg 115 77 label \$1;
#X obj 114 54 tosymbol;
#X obj 115 -45 * 80;
#X obj 115 -23 - 80;
#X obj 114 19 sprintf %ddB;
#X obj 101 101 cnv 4 10 4 empty empty empty 20 12 0 14 -1 -66577 0
;
#X obj 101 131 cnv 4 10 4 empty empty empty 20 12 0 14 -1 -66577 0
;
#X text 123 36 -> -80dB..20dB;
#X text 120 0 -> -80 .. 20;
#X text 104 139 -> 0..1.2;
#X text 109 179 -> 1..100000;
#X text 104 221 -> 0.0001..10 = -80dB..20dB;
#X obj 195 101 cnv 4 10 4 empty empty empty 20 12 0 14 -1 -66577 0
;
#X obj 195 131 cnv 4 10 4 empty empty empty 20 12 0 14 -1 -66577 0
;
#X obj 210 273 outlet~;
#X obj 214 -83 inlet~;
#X obj 210 244 *~;
#X connect 3 0 4 0;
#X connect 4 0 1 0;
#X connect 5 0 10 0;
#X connect 5 0 6 0;
#X connect 6 0 7 0;
#X connect 7 0 4 1;
#X connect 7 0 24 1;
#X connect 8 0 5 0;
#X connect 9 0 8 0;
#X connect 10 0 11 0;
#X connect 11 0 12 0;
#X connect 12 0 9 0;
#X connect 23 0 24 0;
#X connect 24 0 22 0;
#X coords 0 -1 1 1 106 36 1 100 100;
#X restore 76 191 pd ARGO;
#N canvas 295 212 233 221 ARGO 0;
#X obj 110 105 cnv 10 20 10 empty empty WhiteNoise 1 5 1 14 -262144
-1 1.04858e+06;
#X obj 101 113 cnv 4 10 4 empty empty empty 20 12 0 14 -1 -66577 0
;
#X obj 45 173 outlet~;
#X obj 44 101 noise~;
#X connect 3 0 2 0;
#X coords 0 -1 1 1 95 18 2 100 100;
#X restore 66 4 pd ARGO;
#N canvas 452 41 458 273 ARGO 0;
#X obj 101 101 cnv 10 100 15 empty ColorForm empty 20 12 0 14 -188398
-1 1.04858e+06;
#X obj 101 112 cnv 4 10 4 empty empty empty 20 12 0 14 -1 -66577 0
;
#X obj 85 73 inlet~;
#X obj 114 102 nbx 4 12 0.01 1000 0 1 \$0-A ColorTime ms 40 7 1 9 -208064
-1 -1 0.16 256;
#X obj 101 101 cnv 4 10 4 empty empty empty 20 12 0 14 -1 -66577 0
;
#X obj 85 234 outlet~;
#X obj 85 203 lop~;
#X obj 115 125 t b f;
#X obj 128 175 /;
#X text 140 17 freq(Hz) = 1 / (2 x pi x Time constant(sec));
#X text 139 33 freq(Hz) = 1000 / (2 x pi x Time constant(ms));
#X obj 168 105 cnv 10 20 10 empty ColorForm Gliss 1 5 1 14 -188398
-1 1.04858e+06;
#X text 119 201 <- First order (one-pole) lowpass filter (-6dB/octave)
;
#X text 139 49 freq(Hz) = 159 / (Time constant(ms));
#X msg 115 151 159;
#X connect 2 0 6 0;
#X connect 3 0 7 0;
#X connect 6 0 5 0;
#X connect 7 0 14 0;
#X connect 7 1 8 1;
#X connect 8 0 6 1;
#X connect 14 0 8 0;
#X coords 0 -1 1 1 102 17 1 100 100;
#X restore 66 42 pd ARGO;
#N canvas 404 201 233 221 ARGO 0;
#X obj 115 105 cnv 10 20 10 empty empty PinkNoise 1 5 1 14 -262144
-1 1.04858e+06;
#X obj 101 113 cnv 4 10 4 empty empty empty 20 12 0 14 -1 -66577 0
;
#X obj 45 173 outlet~;
#X obj 44 101 pink~;
#X text 18 21 pink noise with -3 dB per octave;
#X text 9 7 pink~ (iemlib);
#X connect 3 0 2 0;
#X coords 0 -1 1 1 95 18 2 100 100;
#X restore 174 4 pd ARGO;
#N canvas 350 62 236 332 ARGO 0;
#X obj 101 101 cnv 20 104 34 empty ColorAmpli empty 20 12 0 14 -261299
-1 1.04858e+06;
#X obj 92 302 outlet~;
#X obj 141 104 cnv 10 20 10 empty ColorAmpli Mix 1 5 1 14 -261299 -1
1.04858e+06;
#X obj 88 75 inlet~;
#X obj 181 75 inlet~;
#X obj 86 272 *~;
#X obj 103 118 hsl 101 12 -1 1 0 1 \$0-A ColorAmpli -0.02 0 7 1 9 -261299
-1 -1 4900 0;
#X msg 22 132 label \$1;
#X obj 21 109 tosymbol;
#X obj 101 101 cnv 4 10 4 empty empty empty 20 12 0 14 -1 -66577 0
;
#X obj 101 131 cnv 4 10 4 empty empty empty 20 12 0 14 -1 -66577 0
;
#X obj 195 101 cnv 4 10 4 empty empty empty 20 12 0 14 -1 -66577 0
;
#X obj 179 271 *~;
#X obj 136 145 + 1;
#X obj 136 170 / 2;
#X obj 101 196 t b f;
#X msg 101 220 1;
#X obj 101 247 -;
#X connect 3 0 5 0;
#X connect 4 0 12 0;
#X connect 5 0 1 0;
#X connect 6 0 8 0;
#X connect 6 0 13 0;
#X connect 7 0 6 0;
#X connect 8 0 7 0;
#X connect 12 0 1 0;
#X connect 13 0 14 0;
#X connect 14 0 15 0;
#X connect 14 0 12 1;
#X connect 15 0 16 0;
#X connect 15 1 17 1;
#X connect 16 0 17 0;
#X connect 17 0 5 1;
#X coords 0 -1 1 1 106 36 1 100 100;
#X restore 76 86 pd ARGO;
#N canvas 350 62 236 332 ARGO 0;
#X obj 101 101 cnv 20 104 34 empty ColorAmpli empty 20 12 0 14 -261299
-1 1.04858e+06;
#X obj 92 302 outlet~;
#X obj 141 104 cnv 10 20 10 empty ColorAmpli Pan 1 5 1 14 -261299 -1
1.04858e+06;
#X obj 88 75 inlet~;
#X obj 86 272 *~;
#X obj 103 118 hsl 101 12 -1 1 0 1 \$0-A ColorAmpli 0 0 7 1 9 -261299
-1 -1 5000 0;
#X msg 22 132 label \$1;
#X obj 21 109 tosymbol;
#X obj 101 101 cnv 4 10 4 empty empty empty 20 12 0 14 -1 -66577 0
;
#X obj 101 131 cnv 4 10 4 empty empty empty 20 12 0 14 -1 -66577 0
;
#X obj 195 131 cnv 4 10 4 empty empty empty 20 12 0 14 -1 -66577 0
;
#X obj 179 271 *~;
#X obj 153 143 + 1;
#X obj 153 168 / 2;
#X obj 101 196 t b f;
#X msg 101 220 1;
#X obj 101 247 -;
#X obj 176 300 outlet~;
#X connect 3 0 4 0;
#X connect 3 0 11 0;
#X connect 4 0 1 0;
#X connect 5 0 7 0;
#X connect 5 0 12 0;
#X connect 6 0 5 0;
#X connect 7 0 6 0;
#X connect 11 0 17 0;
#X connect 12 0 13 0;
#X connect 13 0 14 0;
#X connect 13 0 11 1;
#X connect 14 0 15 0;
#X connect 14 1 16 1;
#X connect 15 0 16 0;
#X connect 16 0 4 1;
#X coords 0 -1 1 1 106 36 1 100 100;
#X restore 76 138 pd ARGO;
#X text -59 41 0.16 millisecond;
#X text -60 52 is equivalent;
#X text -59 64 to 1000 Hz;
#X text -72 153 Panoramic Left/Right ->;
#X text -28 205 General level ->;
#X text -183 111 WhiteNoise + Lowpass filter / PinkNoise;
#X text 32 101 Mix ->;
#X text -59 41 0.16 millisecond ->;
#X obj -185 -4 cnv 15 15 15 empty empty ExMM42-MixPan.pd 0 8 1 14 -262144
-66577 0;
#X connect 0 0 1 0;
#X connect 2 0 3 0;
#X connect 7 0 5 0;
#X connect 7 0 4 0;
#X connect 7 1 6 0;
#X connect 7 1 4 1;
#X connect 8 0 9 0;
#X connect 9 0 11 0;
#X connect 10 0 11 1;
#X connect 11 0 12 0;
#X connect 12 0 7 0;
#X connect 12 1 7 1;
