#N canvas 239 72 765 486 10;
#X obj -11 -20 active;
#N canvas 424 161 167 191 clic 0;
#X obj 23 17 MouseState;
#X obj 23 82 &;
#X obj 23 100 == 0;
#X obj 23 136 s \$0-SendClic;
#X obj 48 51 t b f;
#X obj 23 118 metro 200;
#X obj 94 17 inlet;
#X connect 0 0 1 0;
#X connect 1 0 2 0;
#X connect 2 0 5 0;
#X connect 4 0 1 0;
#X connect 4 1 1 1;
#X connect 5 0 3 0;
#X connect 6 0 4 0;
#X restore -11 1 pd clic;
#N canvas 491 56 359 377 ARGO 0;
#X obj 101 102 cnv 20 215 34 empty ColorForm empty 20 12 0 14 -188398
-1 1.04858e+06;
#X obj 248 104 cnv 10 65 10 empty ColorForm Flt-BP 1 5 1 14 -188398
-1 1.04858e+06;
#X obj 101 131 cnv 4 10 4 empty empty empty 20 12 0 14 -1 -66577 0
;
#X obj 203 101 cnv 4 10 4 empty empty empty 20 12 0 14 -1728 -66577
0;
#X obj 306 131 cnv 4 10 4 empty empty empty 0 0 0 9 -1 -66577 0;
#X obj 50 46 inlet~;
#X obj 149 324 outlet~;
#X obj 200 324 outlet~;
#X obj 234 118 hsl 81 12 0 1 0 1 \$0-A ColorForm Resonance 0 7 1 9
-188398 -1 -1 3381 0;
#X obj 103 118 hsl 127 12 0 1 0 0 \$0-A ColorTime C2 0 7 1 9 -208064
-1 -1 5924 0;
#X obj 100 106 nbx 7 12 0 20000 0 1 \$0-A ColorTime Hz 60 7 1 9 -208064
-1 -1 354.099 256;
#N canvas 320 116 257 328 Q 0;
#X obj 73 278 line;
#X obj 11 9 loadbang;
#X msg 148 128 set \$1;
#X obj 78 56 +~;
#X obj 78 89 snapshot~;
#X obj 78 109 change;
#X obj 10 54 metro 10;
#X obj 76 215 + 1;
#X obj 75 236 clip 1 200;
#X msg 74 257 \$1 100;
#X obj 76 173 * 1;
#X obj 77 152 * 1;
#X obj 78 129 t f f f;
#X obj 73 300 outlet;
#X obj 75 194 * 200;
#X obj 163 9 r \$0-SendClic;
#X obj 149 88 snapshot~;
#X obj 149 108 change;
#X obj 124 9 inlet;
#X obj 148 300 outlet;
#X obj 77 9 inlet~;
#X connect 0 0 13 0;
#X connect 1 0 6 0;
#X connect 2 0 19 0;
#X connect 3 0 4 0;
#X connect 3 0 16 0;
#X connect 4 0 5 0;
#X connect 5 0 12 0;
#X connect 6 0 4 0;
#X connect 7 0 8 0;
#X connect 8 0 9 0;
#X connect 9 0 0 0;
#X connect 10 0 14 0;
#X connect 11 0 10 0;
#X connect 12 0 11 0;
#X connect 12 1 11 1;
#X connect 12 2 10 1;
#X connect 14 0 7 0;
#X connect 15 0 16 0;
#X connect 16 0 17 0;
#X connect 17 0 2 0;
#X connect 18 0 3 1;
#X connect 20 0 3 0;
#X restore 205 166 pd Q;
#N canvas 45 224 344 321 Freqv4 0;
#X obj 58 175 ftom;
#X obj 164 204 mtof;
#X obj 182 59 +~;
#X obj 67 107 snapshot~;
#X obj 67 129 change;
#X msg 9 221 set \$1;
#X msg 165 226 set \$1;
#X obj 163 157 * 126;
#X obj 164 180 + 6;
#X obj 60 220 / 126;
#X obj 59 198 - 6;
#X obj 141 17 *~ 1.90476;
#X obj 237 223 clip~ 0 20000;
#X obj 237 201 mtof~;
#X obj 237 250 outlet~;
#X obj 236 154 *~ 126;
#X obj 237 176 +~ 6;
#X obj 53 -8 r \$0-SendClic;
#X obj 224 -12 inlet;
#X obj 289 15 inlet;
#X obj 61 252 outlet;
#X obj 165 250 outlet;
#N canvas 60 186 488 293 pitch 0;
#X obj 73 85 mod 12;
#X obj 73 109 sel 0 1 2 3 4 5 6 7 8 9 10 11;
#X msg 249 144 A;
#X msg 276 144 A#;
#X msg 303 144 B;
#X msg 222 144 G#;
#X msg 195 144 G;
#X msg 168 144 F#;
#X msg 6 144 C;
#X msg 33 144 C#;
#X msg 60 144 D;
#X msg 87 144 D#;
#X msg 114 144 E;
#X msg 141 144 F;
#X obj 207 4 inlet;
#X obj 332 89 div 12;
#X obj 332 118 - 2;
#X obj 263 212 tosymbol;
#X obj 207 43 t f f;
#X obj 263 187 sprintf %s%d;
#X text 337 164 -> Numero de l'octave;
#X text 213 25 -> Numero MIDI de la note (69 = A3 = 440Hz);
#X msg 263 234 label \$1;
#X obj 263 257 outlet;
#X connect 0 0 1 0;
#X connect 1 0 8 0;
#X connect 1 1 9 0;
#X connect 1 2 10 0;
#X connect 1 3 11 0;
#X connect 1 4 12 0;
#X connect 1 5 13 0;
#X connect 1 6 7 0;
#X connect 1 7 6 0;
#X connect 1 8 5 0;
#X connect 1 9 2 0;
#X connect 1 10 3 0;
#X connect 1 11 4 0;
#X connect 2 0 19 0;
#X connect 3 0 19 0;
#X connect 4 0 19 0;
#X connect 5 0 19 0;
#X connect 6 0 19 0;
#X connect 7 0 19 0;
#X connect 8 0 19 0;
#X connect 9 0 19 0;
#X connect 10 0 19 0;
#X connect 11 0 19 0;
#X connect 12 0 19 0;
#X connect 13 0 19 0;
#X connect 14 0 18 0;
#X connect 15 0 16 0;
#X connect 16 0 19 1;
#X connect 17 0 22 0;
#X connect 18 0 0 0;
#X connect 18 1 15 0;
#X connect 19 0 17 0;
#X connect 22 0 23 0;
#X restore 101 219 pd pitch;
#X text 58 270 Hslider;
#X text 271 -2 number Freq;
#X text 220 -31 Hslider;
#X text 151 269 number Freq;
#X obj 223 17 * 126;
#X obj 224 40 + 6;
#X obj 141 -8 inlet~;
#X connect 0 0 10 0;
#X connect 1 0 6 0;
#X connect 2 0 3 0;
#X connect 2 0 15 0;
#X connect 3 0 4 0;
#X connect 4 0 5 0;
#X connect 4 0 7 0;
#X connect 5 0 20 0;
#X connect 6 0 21 0;
#X connect 7 0 8 0;
#X connect 8 0 1 0;
#X connect 9 0 20 0;
#X connect 10 0 9 0;
#X connect 11 0 2 0;
#X connect 12 0 14 0;
#X connect 13 0 12 0;
#X connect 15 0 16 0;
#X connect 16 0 13 0;
#X connect 17 0 3 0;
#X connect 18 0 2 1;
#X connect 18 0 27 0;
#X connect 19 0 0 0;
#X connect 22 0 20 0;
#X connect 27 0 28 0;
#X connect 28 0 22 0;
#X connect 29 0 11 0;
#X restore 67 162 pd Freqv4;
#X obj 98 46 inlet~;
#X obj 189 47 inlet~;
#X obj 101 101 cnv 4 10 4 empty empty empty 20 12 0 14 -1 -66577 0
;
#X obj 306 101 cnv 4 10 4 empty empty empty 20 12 0 14 -3522 -66577
0;
#X obj 47 215 vcf~;
#X obj 100 241 vcf~;
#X obj 150 268 vcf~;
#X obj 200 298 vcf~;
#X obj 47 324 outlet~;
#X obj 98 324 outlet~;
#X obj 241 131 cnv 4 10 4 empty empty empty 0 0 0 9 -1 -66577 0;
#X obj 166 131 cnv 4 10 4 empty empty empty 0 0 0 9 -1 -66577 0;
#X text 80 136 1 Filter;
#X text 145 136 2 Filter;
#X text 218 136 3 Filter;
#X text 286 137 4 Filter;
#X connect 5 0 17 0;
#X connect 8 0 11 1;
#X connect 9 0 12 1;
#X connect 10 0 12 2;
#X connect 11 0 17 2;
#X connect 11 0 18 2;
#X connect 11 0 19 2;
#X connect 11 0 20 2;
#X connect 11 1 8 0;
#X connect 12 0 9 0;
#X connect 12 1 10 0;
#X connect 12 2 17 1;
#X connect 12 2 18 1;
#X connect 12 2 19 1;
#X connect 12 2 20 1;
#X connect 13 0 12 0;
#X connect 14 0 11 0;
#X connect 17 0 18 0;
#X connect 17 0 21 0;
#X connect 18 0 19 0;
#X connect 18 0 22 0;
#X connect 19 0 20 0;
#X connect 19 0 6 0;
#X connect 20 0 7 0;
#X coords 0 -1 1 1 217 36 1 100 100;
#X restore -22 -93 pd ARGO;
#N canvas 404 201 233 221 ARGO 0;
#X obj 115 105 cnv 10 20 10 empty empty PinkNoise 1 5 1 14 -262144
-1 1.04858e+06;
#X obj 101 113 cnv 4 10 4 empty empty empty 20 12 0 14 -1 -66577 0
;
#X obj 45 173 outlet~;
#X obj 44 101 pink~;
#X text 18 21 pink noise with -3 dB per octave;
#X text 9 7 pink~ (iemlib);
#X connect 3 0 2 0;
#X coords 0 -1 1 1 95 18 2 100 100;
#X restore 205 -290 pd ARGO;
#N canvas 608 166 249 182 ARGOnOff 0;
#X obj 100 100 tgl 18 1 \$0-SendOnOff \$0-ReceiveOnOff On/Off 20 9
0 12 -4033 -1 -1 1 1;
#X obj 99 39 loadbang;
#X msg 99 62 \; pd dsp 1;
#X obj 100 129 outlet;
#X connect 0 0 3 0;
#X connect 1 0 2 0;
#X coords 0 -1 1 1 65 18 2 100 100;
#X restore -13 25 pd ARGOnOff;
#X obj -13 50 switch~;
#N canvas 350 62 312 366 ARGO 0;
#X obj 101 101 cnv 20 104 34 empty ColorAmpli empty 20 12 0 14 -261299
-1 1.04858e+06;
#X obj 4 253 outlet~;
#X obj 134 104 cnv 10 20 10 empty ColorAmpli Ampli 1 5 1 14 -261299
-1 1.04858e+06;
#X obj 12 -86 inlet~;
#X obj 61 -85 inlet~;
#X obj 6 194 *~;
#X obj 103 118 hsl 101 12 0 1.25 0 1 \$0-A ColorAmpli -22dB 0 7 1 9
-261299 -1 -1 5800 0;
#X msg 144 60 set \$1;
#X obj 61 -39 +~;
#X obj 145 2 snapshot~;
#X obj 144 38 change;
#X obj 145 -84 r \$0-SendClic;
#X obj 23 113 pow~ 10000;
#X obj 22 161 /~ 10000;
#X msg 213 61 label \$1;
#X obj 212 38 tosymbol;
#X obj 213 -61 * 80;
#X obj 213 -39 - 80;
#X obj 212 3 sprintf %ddB;
#X obj 195 101 cnv 4 10 4 empty empty empty 20 12 0 14 -258113 -66577
0;
#X obj 101 101 cnv 4 10 4 empty empty empty 20 12 0 14 -1 -66577 0
;
#X obj 101 131 cnv 4 10 4 empty empty empty 20 12 0 14 -1 -66577 0
;
#X text 221 20 -> -80dB..20dB;
#X text 218 -16 -> -80 .. 20;
#X text 31 95 -> 0..1.2;
#X text 32 143 -> 1..100000;
#X text 31 177 -> 0.0001..10 = -80dB..20dB;
#X connect 3 0 5 0;
#X connect 4 0 8 0;
#X connect 5 0 1 0;
#X connect 6 0 16 0;
#X connect 6 0 8 1;
#X connect 7 0 6 0;
#X connect 8 0 9 0;
#X connect 8 0 12 0;
#X connect 9 0 10 0;
#X connect 10 0 7 0;
#X connect 11 0 9 0;
#X connect 12 0 13 0;
#X connect 13 0 5 1;
#X connect 14 0 6 0;
#X connect 15 0 14 0;
#X connect 16 0 17 0;
#X connect 17 0 18 0;
#X connect 18 0 15 0;
#X coords 0 -1 1 1 106 36 1 100 100;
#X restore 83 -220 pd ARGO;
#N canvas 491 56 359 377 ARGO 0;
#X obj 101 102 cnv 20 215 34 empty ColorForm empty 20 12 0 14 -188398
-1 1.04858e+06;
#X obj 248 104 cnv 10 65 10 empty ColorForm Flt-BP 1 5 1 14 -188398
-1 1.04858e+06;
#X obj 101 131 cnv 4 10 4 empty empty empty 20 12 0 14 -1 -66577 0
;
#X obj 203 101 cnv 4 10 4 empty empty empty 20 12 0 14 -1728 -66577
0;
#X obj 306 131 cnv 4 10 4 empty empty empty 0 0 0 9 -1 -66577 0;
#X obj 50 46 inlet~;
#X obj 149 324 outlet~;
#X obj 200 324 outlet~;
#X obj 234 118 hsl 81 12 0 1 0 1 \$0-A ColorForm Resonance 0 7 1 9
-188398 -1 -1 599 0;
#X obj 103 118 hsl 127 12 0 1 0 0 \$0-A ColorTime G4 0 7 1 9 -208064
-1 -1 9269 0;
#X obj 100 106 nbx 7 12 0 20000 0 1 \$0-A ColorTime Hz 60 7 1 9 -208064
-1 -1 2445.29 256;
#N canvas 320 116 257 328 Q 0;
#X obj 73 278 line;
#X obj 11 9 loadbang;
#X msg 148 128 set \$1;
#X obj 78 56 +~;
#X obj 78 89 snapshot~;
#X obj 78 109 change;
#X obj 10 54 metro 10;
#X obj 76 215 + 1;
#X obj 75 236 clip 1 200;
#X msg 74 257 \$1 100;
#X obj 76 173 * 1;
#X obj 77 152 * 1;
#X obj 78 129 t f f f;
#X obj 73 300 outlet;
#X obj 75 194 * 200;
#X obj 163 9 r \$0-SendClic;
#X obj 149 88 snapshot~;
#X obj 149 108 change;
#X obj 124 9 inlet;
#X obj 148 300 outlet;
#X obj 77 9 inlet~;
#X connect 0 0 13 0;
#X connect 1 0 6 0;
#X connect 2 0 19 0;
#X connect 3 0 4 0;
#X connect 3 0 16 0;
#X connect 4 0 5 0;
#X connect 5 0 12 0;
#X connect 6 0 4 0;
#X connect 7 0 8 0;
#X connect 8 0 9 0;
#X connect 9 0 0 0;
#X connect 10 0 14 0;
#X connect 11 0 10 0;
#X connect 12 0 11 0;
#X connect 12 1 11 1;
#X connect 12 2 10 1;
#X connect 14 0 7 0;
#X connect 15 0 16 0;
#X connect 16 0 17 0;
#X connect 17 0 2 0;
#X connect 18 0 3 1;
#X connect 20 0 3 0;
#X restore 205 166 pd Q;
#N canvas 45 224 344 321 Freqv4 0;
#X obj 58 175 ftom;
#X obj 164 204 mtof;
#X obj 182 59 +~;
#X obj 67 107 snapshot~;
#X obj 67 129 change;
#X msg 9 221 set \$1;
#X msg 165 226 set \$1;
#X obj 163 157 * 126;
#X obj 164 180 + 6;
#X obj 60 220 / 126;
#X obj 59 198 - 6;
#X obj 141 17 *~ 1.90476;
#X obj 237 223 clip~ 0 20000;
#X obj 237 201 mtof~;
#X obj 237 250 outlet~;
#X obj 236 154 *~ 126;
#X obj 237 176 +~ 6;
#X obj 53 -8 r \$0-SendClic;
#X obj 224 -12 inlet;
#X obj 289 15 inlet;
#X obj 61 252 outlet;
#X obj 165 250 outlet;
#N canvas 60 186 488 293 pitch 0;
#X obj 73 85 mod 12;
#X obj 73 109 sel 0 1 2 3 4 5 6 7 8 9 10 11;
#X msg 249 144 A;
#X msg 276 144 A#;
#X msg 303 144 B;
#X msg 222 144 G#;
#X msg 195 144 G;
#X msg 168 144 F#;
#X msg 6 144 C;
#X msg 33 144 C#;
#X msg 60 144 D;
#X msg 87 144 D#;
#X msg 114 144 E;
#X msg 141 144 F;
#X obj 207 4 inlet;
#X obj 332 89 div 12;
#X obj 332 118 - 2;
#X obj 263 212 tosymbol;
#X obj 207 43 t f f;
#X obj 263 187 sprintf %s%d;
#X text 337 164 -> Numero de l'octave;
#X text 213 25 -> Numero MIDI de la note (69 = A3 = 440Hz);
#X msg 263 234 label \$1;
#X obj 263 257 outlet;
#X connect 0 0 1 0;
#X connect 1 0 8 0;
#X connect 1 1 9 0;
#X connect 1 2 10 0;
#X connect 1 3 11 0;
#X connect 1 4 12 0;
#X connect 1 5 13 0;
#X connect 1 6 7 0;
#X connect 1 7 6 0;
#X connect 1 8 5 0;
#X connect 1 9 2 0;
#X connect 1 10 3 0;
#X connect 1 11 4 0;
#X connect 2 0 19 0;
#X connect 3 0 19 0;
#X connect 4 0 19 0;
#X connect 5 0 19 0;
#X connect 6 0 19 0;
#X connect 7 0 19 0;
#X connect 8 0 19 0;
#X connect 9 0 19 0;
#X connect 10 0 19 0;
#X connect 11 0 19 0;
#X connect 12 0 19 0;
#X connect 13 0 19 0;
#X connect 14 0 18 0;
#X connect 15 0 16 0;
#X connect 16 0 19 1;
#X connect 17 0 22 0;
#X connect 18 0 0 0;
#X connect 18 1 15 0;
#X connect 19 0 17 0;
#X connect 22 0 23 0;
#X restore 101 219 pd pitch;
#X text 58 270 Hslider;
#X text 271 -2 number Freq;
#X text 220 -31 Hslider;
#X text 151 269 number Freq;
#X obj 223 17 * 126;
#X obj 224 40 + 6;
#X obj 141 -8 inlet~;
#X connect 0 0 10 0;
#X connect 1 0 6 0;
#X connect 2 0 3 0;
#X connect 2 0 15 0;
#X connect 3 0 4 0;
#X connect 4 0 5 0;
#X connect 4 0 7 0;
#X connect 5 0 20 0;
#X connect 6 0 21 0;
#X connect 7 0 8 0;
#X connect 8 0 1 0;
#X connect 9 0 20 0;
#X connect 10 0 9 0;
#X connect 11 0 2 0;
#X connect 12 0 14 0;
#X connect 13 0 12 0;
#X connect 15 0 16 0;
#X connect 16 0 13 0;
#X connect 17 0 3 0;
#X connect 18 0 2 1;
#X connect 18 0 27 0;
#X connect 19 0 0 0;
#X connect 22 0 20 0;
#X connect 27 0 28 0;
#X connect 28 0 22 0;
#X connect 29 0 11 0;
#X restore 67 162 pd Freqv4;
#X obj 98 46 inlet~;
#X obj 189 47 inlet~;
#X obj 101 101 cnv 4 10 4 empty empty empty 20 12 0 14 -1 -66577 0
;
#X obj 306 101 cnv 4 10 4 empty empty empty 20 12 0 14 -3522 -66577
0;
#X obj 47 215 vcf~;
#X obj 100 241 vcf~;
#X obj 150 268 vcf~;
#X obj 200 298 vcf~;
#X obj 47 324 outlet~;
#X obj 98 324 outlet~;
#X obj 241 131 cnv 4 10 4 empty empty empty 0 0 0 9 -1 -66577 0;
#X obj 166 131 cnv 4 10 4 empty empty empty 0 0 0 9 -1 -66577 0;
#X text 80 136 1 Filter;
#X text 145 136 2 Filter;
#X text 218 136 3 Filter;
#X text 286 137 4 Filter;
#X connect 5 0 17 0;
#X connect 8 0 11 1;
#X connect 9 0 12 1;
#X connect 10 0 12 2;
#X connect 11 0 17 2;
#X connect 11 0 18 2;
#X connect 11 0 19 2;
#X connect 11 0 20 2;
#X connect 11 1 8 0;
#X connect 12 0 9 0;
#X connect 12 1 10 0;
#X connect 12 2 17 1;
#X connect 12 2 18 1;
#X connect 12 2 19 1;
#X connect 12 2 20 1;
#X connect 13 0 12 0;
#X connect 14 0 11 0;
#X connect 17 0 18 0;
#X connect 17 0 21 0;
#X connect 18 0 19 0;
#X connect 18 0 22 0;
#X connect 19 0 20 0;
#X connect 19 0 6 0;
#X connect 20 0 7 0;
#X coords 0 -1 1 1 217 36 1 100 100;
#X restore 273 -93 pd ARGO;
#N canvas 350 62 312 366 ARGO 0;
#X obj 101 101 cnv 20 104 34 empty ColorAmpli empty 20 12 0 14 -261299
-1 1.04858e+06;
#X obj 4 253 outlet~;
#X obj 134 104 cnv 10 20 10 empty ColorAmpli Ampli 1 5 1 14 -261299
-1 1.04858e+06;
#X obj 12 -86 inlet~;
#X obj 61 -85 inlet~;
#X obj 6 194 *~;
#X obj 103 118 hsl 101 12 0 1.25 0 1 \$0-A ColorAmpli -22dB 0 7 1 9
-261299 -1 -1 5800 0;
#X msg 144 60 set \$1;
#X obj 61 -39 +~;
#X obj 145 2 snapshot~;
#X obj 144 38 change;
#X obj 145 -84 r \$0-SendClic;
#X obj 23 113 pow~ 10000;
#X obj 22 161 /~ 10000;
#X msg 213 61 label \$1;
#X obj 212 38 tosymbol;
#X obj 213 -61 * 80;
#X obj 213 -39 - 80;
#X obj 212 3 sprintf %ddB;
#X obj 195 101 cnv 4 10 4 empty empty empty 20 12 0 14 -258113 -66577
0;
#X obj 101 101 cnv 4 10 4 empty empty empty 20 12 0 14 -1 -66577 0
;
#X obj 101 131 cnv 4 10 4 empty empty empty 20 12 0 14 -1 -66577 0
;
#X text 221 20 -> -80dB..20dB;
#X text 218 -16 -> -80 .. 20;
#X text 31 95 -> 0..1.2;
#X text 32 143 -> 1..100000;
#X text 31 177 -> 0.0001..10 = -80dB..20dB;
#X connect 3 0 5 0;
#X connect 4 0 8 0;
#X connect 5 0 1 0;
#X connect 6 0 16 0;
#X connect 6 0 8 1;
#X connect 7 0 6 0;
#X connect 8 0 9 0;
#X connect 8 0 12 0;
#X connect 9 0 10 0;
#X connect 10 0 7 0;
#X connect 11 0 9 0;
#X connect 12 0 13 0;
#X connect 13 0 5 1;
#X connect 14 0 6 0;
#X connect 15 0 14 0;
#X connect 16 0 17 0;
#X connect 17 0 18 0;
#X connect 18 0 15 0;
#X coords 0 -1 1 1 106 36 1 100 100;
#X restore 379 -222 pd ARGO;
#N canvas 302 22 406 426 ARGO 0;
#X obj 308 247 osc~;
#X obj 101 101 cnv 20 244 34 empty ColorTime empty 20 12 0 14 -208064
-1 1.04858e+06;
#X obj 279 294 outlet~;
#X obj 103 118 hsl 241 12 0 1 0 0 \$0-A ColorTime A-9 0 7 1 9 -208064
-1 -1 3258 0;
#X obj 100 106 nbx 7 12 0 20000 0 1 \$0-A ColorTime Hz 60 7 1 9 -208064
-1 -1 0.104844 256;
#X obj 194 104 cnv 10 65 10 empty ColorTime Oscill 1 5 1 14 -208064
-1 1.04858e+06;
#X obj 231 104 cnv 10 10 10 empty ColorTime Sinus 1 5 1 14 -208064
-1 1.04858e+06;
#X obj 308 212 clip~ 0 20000;
#X obj 54 134 ftom;
#X obj 218 50 mtof;
#X obj 311 -76 +~;
#X obj 188 -43 snapshot~;
#X obj 188 -21 change;
#X obj 217 3 * 240;
#X obj 218 26 - 108;
#X obj 308 190 mtof~;
#X obj 306 143 *~ 240;
#X obj 307 165 -~ 108;
#X obj 55 157 + 108;
#X obj 56 179 / 240;
#X msg 113 5 set \$1;
#X msg 219 72 set \$1;
#X obj 188 -76 r \$0-SendClic;
#N canvas 60 186 518 313 pitch 0;
#X obj 76 111 mod 12;
#X obj 76 135 sel 0 1 2 3 4 5 6 7 8 9 10 11;
#X msg 252 170 A;
#X msg 279 170 A#;
#X msg 306 170 B;
#X msg 225 170 G#;
#X msg 198 170 G;
#X msg 171 170 F#;
#X msg 9 170 C;
#X msg 36 170 C#;
#X msg 63 170 D;
#X msg 90 170 D#;
#X msg 117 170 E;
#X msg 144 170 F;
#X obj 211 9 inlet;
#X obj 376 115 div 12;
#X obj 376 137 - 2;
#X obj 307 238 tosymbol;
#X obj 210 69 t f f;
#X obj 307 213 sprintf %s%d;
#X text 383 170 -> Numero de l'octave;
#X text 217 30 -> Numero MIDI de la note (69 = A3 = 440Hz);
#X msg 307 260 label \$1;
#X obj 307 283 outlet;
#X connect 0 0 1 0;
#X connect 1 0 8 0;
#X connect 1 1 9 0;
#X connect 1 2 10 0;
#X connect 1 3 11 0;
#X connect 1 4 12 0;
#X connect 1 5 13 0;
#X connect 1 6 7 0;
#X connect 1 7 6 0;
#X connect 1 8 5 0;
#X connect 1 9 2 0;
#X connect 1 10 3 0;
#X connect 1 11 4 0;
#X connect 2 0 19 0;
#X connect 3 0 19 0;
#X connect 4 0 19 0;
#X connect 5 0 19 0;
#X connect 6 0 19 0;
#X connect 7 0 19 0;
#X connect 8 0 19 0;
#X connect 9 0 19 0;
#X connect 10 0 19 0;
#X connect 11 0 19 0;
#X connect 12 0 19 0;
#X connect 13 0 19 0;
#X connect 14 0 18 0;
#X connect 15 0 16 0;
#X connect 16 0 19 1;
#X connect 17 0 22 0;
#X connect 18 0 0 0;
#X connect 18 1 15 0;
#X connect 19 0 17 0;
#X connect 22 0 23 0;
#X restore 114 53 pd pitch;
#X obj 311 -100 inlet~;
#X obj 101 131 cnv 4 10 4 empty empty empty 20 12 0 14 -1 -66577 0
;
#X obj 101 101 cnv 4 10 4 empty empty empty 20 12 0 14 -1728 -66577
0;
#X connect 0 0 2 0;
#X connect 3 0 10 1;
#X connect 4 0 8 0;
#X connect 7 0 0 0;
#X connect 8 0 18 0;
#X connect 9 0 21 0;
#X connect 10 0 11 0;
#X connect 10 0 16 0;
#X connect 11 0 12 0;
#X connect 12 0 13 0;
#X connect 12 0 20 0;
#X connect 13 0 14 0;
#X connect 14 0 9 0;
#X connect 14 0 23 0;
#X connect 15 0 7 0;
#X connect 16 0 17 0;
#X connect 17 0 15 0;
#X connect 18 0 19 0;
#X connect 19 0 10 1;
#X connect 20 0 3 0;
#X connect 21 0 4 0;
#X connect 22 0 11 0;
#X connect 23 0 3 0;
#X connect 24 0 10 0;
#X coords 0 -1 1 1 246 36 1 100 100;
#X restore 83 -261 pd ARGO;
#N canvas 302 22 406 426 ARGO 0;
#X obj 308 247 osc~;
#X obj 101 101 cnv 20 244 34 empty ColorTime empty 20 12 0 14 -208064
-1 1.04858e+06;
#X obj 279 294 outlet~;
#X obj 103 118 hsl 241 12 0 1 0 0 \$0-A ColorTime A$-9 0 7 1 9 -208064
-1 -1 3349 0;
#X obj 100 106 nbx 7 12 0 20000 0 1 \$0-A ColorTime Hz 60 7 1 9 -208064
-1 -1 0.110477 256;
#X obj 194 104 cnv 10 65 10 empty ColorTime Oscill 1 5 1 14 -208064
-1 1.04858e+06;
#X obj 231 104 cnv 10 10 10 empty ColorTime Sinus 1 5 1 14 -208064
-1 1.04858e+06;
#X obj 308 212 clip~ 0 20000;
#X obj 54 134 ftom;
#X obj 218 50 mtof;
#X obj 311 -76 +~;
#X obj 188 -43 snapshot~;
#X obj 188 -21 change;
#X obj 217 3 * 240;
#X obj 218 26 - 108;
#X obj 308 190 mtof~;
#X obj 306 143 *~ 240;
#X obj 307 165 -~ 108;
#X obj 55 157 + 108;
#X obj 56 179 / 240;
#X msg 113 5 set \$1;
#X msg 219 72 set \$1;
#X obj 188 -76 r \$0-SendClic;
#N canvas 60 186 518 313 pitch 0;
#X obj 76 111 mod 12;
#X obj 76 135 sel 0 1 2 3 4 5 6 7 8 9 10 11;
#X msg 252 170 A;
#X msg 279 170 A#;
#X msg 306 170 B;
#X msg 225 170 G#;
#X msg 198 170 G;
#X msg 171 170 F#;
#X msg 9 170 C;
#X msg 36 170 C#;
#X msg 63 170 D;
#X msg 90 170 D#;
#X msg 117 170 E;
#X msg 144 170 F;
#X obj 211 9 inlet;
#X obj 376 115 div 12;
#X obj 376 137 - 2;
#X obj 307 238 tosymbol;
#X obj 210 69 t f f;
#X obj 307 213 sprintf %s%d;
#X text 383 170 -> Numero de l'octave;
#X text 217 30 -> Numero MIDI de la note (69 = A3 = 440Hz);
#X msg 307 260 label \$1;
#X obj 307 283 outlet;
#X connect 0 0 1 0;
#X connect 1 0 8 0;
#X connect 1 1 9 0;
#X connect 1 2 10 0;
#X connect 1 3 11 0;
#X connect 1 4 12 0;
#X connect 1 5 13 0;
#X connect 1 6 7 0;
#X connect 1 7 6 0;
#X connect 1 8 5 0;
#X connect 1 9 2 0;
#X connect 1 10 3 0;
#X connect 1 11 4 0;
#X connect 2 0 19 0;
#X connect 3 0 19 0;
#X connect 4 0 19 0;
#X connect 5 0 19 0;
#X connect 6 0 19 0;
#X connect 7 0 19 0;
#X connect 8 0 19 0;
#X connect 9 0 19 0;
#X connect 10 0 19 0;
#X connect 11 0 19 0;
#X connect 12 0 19 0;
#X connect 13 0 19 0;
#X connect 14 0 18 0;
#X connect 15 0 16 0;
#X connect 16 0 19 1;
#X connect 17 0 22 0;
#X connect 18 0 0 0;
#X connect 18 1 15 0;
#X connect 19 0 17 0;
#X connect 22 0 23 0;
#X restore 114 53 pd pitch;
#X obj 311 -100 inlet~;
#X obj 101 131 cnv 4 10 4 empty empty empty 20 12 0 14 -1 -66577 0
;
#X obj 101 101 cnv 4 10 4 empty empty empty 20 12 0 14 -1728 -66577
0;
#X connect 0 0 2 0;
#X connect 3 0 10 1;
#X connect 4 0 8 0;
#X connect 7 0 0 0;
#X connect 8 0 18 0;
#X connect 9 0 21 0;
#X connect 10 0 11 0;
#X connect 10 0 16 0;
#X connect 11 0 12 0;
#X connect 12 0 13 0;
#X connect 12 0 20 0;
#X connect 13 0 14 0;
#X connect 14 0 9 0;
#X connect 14 0 23 0;
#X connect 15 0 7 0;
#X connect 16 0 17 0;
#X connect 17 0 15 0;
#X connect 18 0 19 0;
#X connect 19 0 10 1;
#X connect 20 0 3 0;
#X connect 21 0 4 0;
#X connect 22 0 11 0;
#X connect 23 0 3 0;
#X connect 24 0 10 0;
#X coords 0 -1 1 1 246 36 1 100 100;
#X restore 380 -264 pd ARGO;
#N canvas 302 22 406 426 ARGO 0;
#X obj 308 247 osc~;
#X obj 101 101 cnv 20 244 34 empty ColorTime empty 20 12 0 14 -208064
-1 1.04858e+06;
#X obj 279 294 outlet~;
#X obj 103 118 hsl 241 12 0 1 0 0 \$0-A ColorTime B-9 0 7 1 9 -208064
-1 -1 3492 0;
#X obj 100 106 nbx 7 12 0 20000 0 1 \$0-A ColorTime Hz 60 7 1 9 -208064
-1 -1 0.12 256;
#X obj 194 104 cnv 10 65 10 empty ColorTime Oscill 1 5 1 14 -208064
-1 1.04858e+06;
#X obj 231 104 cnv 10 10 10 empty ColorTime Sinus 1 5 1 14 -208064
-1 1.04858e+06;
#X obj 308 212 clip~ 0 20000;
#X obj 54 134 ftom;
#X obj 218 50 mtof;
#X obj 311 -76 +~;
#X obj 188 -43 snapshot~;
#X obj 188 -21 change;
#X obj 217 3 * 240;
#X obj 218 26 - 108;
#X obj 308 190 mtof~;
#X obj 306 143 *~ 240;
#X obj 307 165 -~ 108;
#X obj 55 157 + 108;
#X obj 56 179 / 240;
#X msg 113 5 set \$1;
#X msg 219 72 set \$1;
#X obj 188 -76 r \$0-SendClic;
#N canvas 60 186 518 313 pitch 0;
#X obj 76 111 mod 12;
#X obj 76 135 sel 0 1 2 3 4 5 6 7 8 9 10 11;
#X msg 252 170 A;
#X msg 279 170 A#;
#X msg 306 170 B;
#X msg 225 170 G#;
#X msg 198 170 G;
#X msg 171 170 F#;
#X msg 9 170 C;
#X msg 36 170 C#;
#X msg 63 170 D;
#X msg 90 170 D#;
#X msg 117 170 E;
#X msg 144 170 F;
#X obj 211 9 inlet;
#X obj 376 115 div 12;
#X obj 376 137 - 2;
#X obj 307 238 tosymbol;
#X obj 210 69 t f f;
#X obj 307 213 sprintf %s%d;
#X text 383 170 -> Numero de l'octave;
#X text 217 30 -> Numero MIDI de la note (69 = A3 = 440Hz);
#X msg 307 260 label \$1;
#X obj 307 283 outlet;
#X connect 0 0 1 0;
#X connect 1 0 8 0;
#X connect 1 1 9 0;
#X connect 1 2 10 0;
#X connect 1 3 11 0;
#X connect 1 4 12 0;
#X connect 1 5 13 0;
#X connect 1 6 7 0;
#X connect 1 7 6 0;
#X connect 1 8 5 0;
#X connect 1 9 2 0;
#X connect 1 10 3 0;
#X connect 1 11 4 0;
#X connect 2 0 19 0;
#X connect 3 0 19 0;
#X connect 4 0 19 0;
#X connect 5 0 19 0;
#X connect 6 0 19 0;
#X connect 7 0 19 0;
#X connect 8 0 19 0;
#X connect 9 0 19 0;
#X connect 10 0 19 0;
#X connect 11 0 19 0;
#X connect 12 0 19 0;
#X connect 13 0 19 0;
#X connect 14 0 18 0;
#X connect 15 0 16 0;
#X connect 16 0 19 1;
#X connect 17 0 22 0;
#X connect 18 0 0 0;
#X connect 18 1 15 0;
#X connect 19 0 17 0;
#X connect 22 0 23 0;
#X restore 114 53 pd pitch;
#X obj 311 -100 inlet~;
#X obj 101 131 cnv 4 10 4 empty empty empty 20 12 0 14 -1 -66577 0
;
#X obj 101 101 cnv 4 10 4 empty empty empty 20 12 0 14 -1728 -66577
0;
#X connect 0 0 2 0;
#X connect 3 0 10 1;
#X connect 4 0 8 0;
#X connect 7 0 0 0;
#X connect 8 0 18 0;
#X connect 9 0 21 0;
#X connect 10 0 11 0;
#X connect 10 0 16 0;
#X connect 11 0 12 0;
#X connect 12 0 13 0;
#X connect 12 0 20 0;
#X connect 13 0 14 0;
#X connect 14 0 9 0;
#X connect 14 0 23 0;
#X connect 15 0 7 0;
#X connect 16 0 17 0;
#X connect 17 0 15 0;
#X connect 18 0 19 0;
#X connect 19 0 10 1;
#X connect 20 0 3 0;
#X connect 21 0 4 0;
#X connect 22 0 11 0;
#X connect 23 0 3 0;
#X connect 24 0 10 0;
#X coords 0 -1 1 1 246 36 1 100 100;
#X restore 188 -178 pd ARGO;
#N canvas 350 62 312 366 ARGO 0;
#X obj 101 101 cnv 20 104 34 empty ColorAmpli empty 20 12 0 14 -261299
-1 1.04858e+06;
#X obj 4 253 outlet~;
#X obj 134 104 cnv 10 20 10 empty ColorAmpli Ampli 1 5 1 14 -261299
-1 1.04858e+06;
#X obj 12 -86 inlet~;
#X obj 61 -85 inlet~;
#X obj 6 194 *~;
#X obj 103 118 hsl 101 12 0 1.25 0 1 \$0-A ColorAmpli -9dB 0 7 1 9
-261299 -1 -1 7100 0;
#X msg 144 60 set \$1;
#X obj 61 -39 +~;
#X obj 145 2 snapshot~;
#X obj 144 38 change;
#X obj 145 -84 r \$0-SendClic;
#X obj 23 113 pow~ 10000;
#X obj 22 161 /~ 10000;
#X msg 213 61 label \$1;
#X obj 212 38 tosymbol;
#X obj 213 -61 * 80;
#X obj 213 -39 - 80;
#X obj 212 3 sprintf %ddB;
#X obj 195 101 cnv 4 10 4 empty empty empty 20 12 0 14 -258113 -66577
0;
#X obj 101 101 cnv 4 10 4 empty empty empty 20 12 0 14 -1 -66577 0
;
#X obj 101 131 cnv 4 10 4 empty empty empty 20 12 0 14 -1 -66577 0
;
#X text 221 20 -> -80dB..20dB;
#X text 218 -16 -> -80 .. 20;
#X text 31 95 -> 0..1.2;
#X text 32 143 -> 1..100000;
#X text 31 177 -> 0.0001..10 = -80dB..20dB;
#X connect 3 0 5 0;
#X connect 4 0 8 0;
#X connect 5 0 1 0;
#X connect 6 0 16 0;
#X connect 6 0 8 1;
#X connect 7 0 6 0;
#X connect 8 0 9 0;
#X connect 8 0 12 0;
#X connect 9 0 10 0;
#X connect 10 0 7 0;
#X connect 11 0 9 0;
#X connect 12 0 13 0;
#X connect 13 0 5 1;
#X connect 14 0 6 0;
#X connect 15 0 14 0;
#X connect 16 0 17 0;
#X connect 17 0 18 0;
#X connect 18 0 15 0;
#X coords 0 -1 1 1 106 36 1 100 100;
#X restore 188 -136 pd ARGO;
#N canvas 350 62 312 366 ARGO 0;
#X obj 101 101 cnv 20 104 34 empty ColorAmpli empty 20 12 0 14 -261299
-1 1.04858e+06;
#X obj 4 253 outlet~;
#X obj 134 104 cnv 10 20 10 empty ColorAmpli Ampli 1 5 1 14 -261299
-1 1.04858e+06;
#X obj 12 -86 inlet~;
#X obj 61 -85 inlet~;
#X obj 6 194 *~;
#X obj 103 118 hsl 101 12 0 1.25 0 1 \$0-A ColorAmpli -9dB 0 7 1 9
-261299 -1 -1 7100 0;
#X msg 144 60 set \$1;
#X obj 61 -39 +~;
#X obj 145 2 snapshot~;
#X obj 144 38 change;
#X obj 145 -84 r \$0-SendClic;
#X obj 23 113 pow~ 10000;
#X obj 22 161 /~ 10000;
#X msg 213 61 label \$1;
#X obj 212 38 tosymbol;
#X obj 213 -61 * 80;
#X obj 213 -39 - 80;
#X obj 212 3 sprintf %ddB;
#X obj 195 101 cnv 4 10 4 empty empty empty 20 12 0 14 -258113 -66577
0;
#X obj 101 101 cnv 4 10 4 empty empty empty 20 12 0 14 -1 -66577 0
;
#X obj 101 131 cnv 4 10 4 empty empty empty 20 12 0 14 -1 -66577 0
;
#X text 221 20 -> -80dB..20dB;
#X text 218 -16 -> -80 .. 20;
#X text 31 95 -> 0..1.2;
#X text 32 143 -> 1..100000;
#X text 31 177 -> 0.0001..10 = -80dB..20dB;
#X connect 3 0 5 0;
#X connect 4 0 8 0;
#X connect 5 0 1 0;
#X connect 6 0 16 0;
#X connect 6 0 8 1;
#X connect 7 0 6 0;
#X connect 8 0 9 0;
#X connect 8 0 12 0;
#X connect 9 0 10 0;
#X connect 10 0 7 0;
#X connect 11 0 9 0;
#X connect 12 0 13 0;
#X connect 13 0 5 1;
#X connect 14 0 6 0;
#X connect 15 0 14 0;
#X connect 16 0 17 0;
#X connect 17 0 18 0;
#X connect 18 0 15 0;
#X coords 0 -1 1 1 106 36 1 100 100;
#X restore 483 -139 pd ARGO;
#N canvas 302 22 406 426 ARGO 0;
#X obj 308 247 osc~;
#X obj 101 101 cnv 20 244 34 empty ColorTime empty 20 12 0 14 -208064
-1 1.04858e+06;
#X obj 279 294 outlet~;
#X obj 103 118 hsl 241 12 0 1 0 0 \$0-A ColorTime C$-8 0 7 1 9 -208064
-1 -1 3630 0;
#X obj 100 106 nbx 7 12 0 20000 0 1 \$0-A ColorTime Hz 60 7 1 9 -208064
-1 -1 0.13 256;
#X obj 194 104 cnv 10 65 10 empty ColorTime Oscill 1 5 1 14 -208064
-1 1.04858e+06;
#X obj 231 104 cnv 10 10 10 empty ColorTime Sinus 1 5 1 14 -208064
-1 1.04858e+06;
#X obj 308 212 clip~ 0 20000;
#X obj 54 134 ftom;
#X obj 218 50 mtof;
#X obj 311 -76 +~;
#X obj 188 -43 snapshot~;
#X obj 188 -21 change;
#X obj 217 3 * 240;
#X obj 218 26 - 108;
#X obj 308 190 mtof~;
#X obj 306 143 *~ 240;
#X obj 307 165 -~ 108;
#X obj 55 157 + 108;
#X obj 56 179 / 240;
#X msg 113 5 set \$1;
#X msg 219 72 set \$1;
#X obj 188 -76 r \$0-SendClic;
#N canvas 60 186 518 313 pitch 0;
#X obj 76 111 mod 12;
#X obj 76 135 sel 0 1 2 3 4 5 6 7 8 9 10 11;
#X msg 252 170 A;
#X msg 279 170 A#;
#X msg 306 170 B;
#X msg 225 170 G#;
#X msg 198 170 G;
#X msg 171 170 F#;
#X msg 9 170 C;
#X msg 36 170 C#;
#X msg 63 170 D;
#X msg 90 170 D#;
#X msg 117 170 E;
#X msg 144 170 F;
#X obj 211 9 inlet;
#X obj 376 115 div 12;
#X obj 376 137 - 2;
#X obj 307 238 tosymbol;
#X obj 210 69 t f f;
#X obj 307 213 sprintf %s%d;
#X text 383 170 -> Numero de l'octave;
#X text 217 30 -> Numero MIDI de la note (69 = A3 = 440Hz);
#X msg 307 260 label \$1;
#X obj 307 283 outlet;
#X connect 0 0 1 0;
#X connect 1 0 8 0;
#X connect 1 1 9 0;
#X connect 1 2 10 0;
#X connect 1 3 11 0;
#X connect 1 4 12 0;
#X connect 1 5 13 0;
#X connect 1 6 7 0;
#X connect 1 7 6 0;
#X connect 1 8 5 0;
#X connect 1 9 2 0;
#X connect 1 10 3 0;
#X connect 1 11 4 0;
#X connect 2 0 19 0;
#X connect 3 0 19 0;
#X connect 4 0 19 0;
#X connect 5 0 19 0;
#X connect 6 0 19 0;
#X connect 7 0 19 0;
#X connect 8 0 19 0;
#X connect 9 0 19 0;
#X connect 10 0 19 0;
#X connect 11 0 19 0;
#X connect 12 0 19 0;
#X connect 13 0 19 0;
#X connect 14 0 18 0;
#X connect 15 0 16 0;
#X connect 16 0 19 1;
#X connect 17 0 22 0;
#X connect 18 0 0 0;
#X connect 18 1 15 0;
#X connect 19 0 17 0;
#X connect 22 0 23 0;
#X restore 114 53 pd pitch;
#X obj 311 -100 inlet~;
#X obj 101 131 cnv 4 10 4 empty empty empty 20 12 0 14 -1 -66577 0
;
#X obj 101 101 cnv 4 10 4 empty empty empty 20 12 0 14 -1728 -66577
0;
#X connect 0 0 2 0;
#X connect 3 0 10 1;
#X connect 4 0 8 0;
#X connect 7 0 0 0;
#X connect 8 0 18 0;
#X connect 9 0 21 0;
#X connect 10 0 11 0;
#X connect 10 0 16 0;
#X connect 11 0 12 0;
#X connect 12 0 13 0;
#X connect 12 0 20 0;
#X connect 13 0 14 0;
#X connect 14 0 9 0;
#X connect 14 0 23 0;
#X connect 15 0 7 0;
#X connect 16 0 17 0;
#X connect 17 0 15 0;
#X connect 18 0 19 0;
#X connect 19 0 10 1;
#X connect 20 0 3 0;
#X connect 21 0 4 0;
#X connect 22 0 11 0;
#X connect 23 0 3 0;
#X connect 24 0 10 0;
#X coords 0 -1 1 1 246 36 1 100 100;
#X restore 484 -181 pd ARGO;
#X obj -18 -290 cnv 15 15 15 empty empty ExMM15_RecordStereo 0 8 1
14 -262144 -66577 0;
#X obj 143 37 dac~ 1 2;
#N canvas 347 177 505 320 ARGO 0;
#X obj 101 101 cnv 12 164 15 empty ColorAmpli empty 20 12 0 14 -261299
-1 1.04858e+06;
#X obj 207 104 cnv 10 20 10 empty ColorAmpli Record 1 5 1 14 -261299
-1 1.04858e+06;
#X obj 101 101 cnv 4 10 4 empty empty empty 20 12 0 14 -1 -66577 0
;
#X obj 255 100 cnv 4 10 4 empty empty empty 20 12 0 14 -1 -66577 0
;
#X obj 63 52 inlet~;
#X obj 275 50 inlet~;
#X obj 163 292 writesf~ 2;
#X msg 132 33 color 13 13 13;
#X msg 136 58 color 12 12 12;
#X obj 370 24 sel 0 1;
#X msg 388 187 start;
#X msg 289 193 stop;
#X msg 388 114 open \$1;
#X obj 389 48 savepanel;
#X obj 388 142 b 1;
#X obj 388 165 delay 1000;
#X obj 403 93 print Record;
#X obj 403 72 unsymbol;
#X obj 403 210 b 1;
#X obj 290 295 float;
#X obj 335 295 + 1;
#X obj 289 254 metro 1000;
#X msg 335 275 -1;
#X obj 344 227 b 1;
#X obj 115 101 tgl 15 0 \$0-A \$0-B empty 0 0 1 9 -33289 -33289 -33289
0 1;
#X obj 130 101 nbx 4 15 0 9999 0 0 \$0-A ColorTime sec 50 7 1 12 -208064
-1 -1 0 256;
#X text 17 7 Enregistre un fichier audio wav a 2 canaux (stereo);
#X text 81 82 Left input;
#X text 229 81 Right input;
#X connect 4 0 6 0;
#X connect 5 0 6 1;
#X connect 7 0 24 0;
#X connect 8 0 24 0;
#X connect 9 0 8 0;
#X connect 9 0 11 0;
#X connect 9 1 13 0;
#X connect 10 0 18 0;
#X connect 10 0 23 0;
#X connect 10 0 6 0;
#X connect 11 0 21 0;
#X connect 11 0 6 0;
#X connect 12 0 14 0;
#X connect 12 0 6 0;
#X connect 13 0 17 0;
#X connect 13 0 12 0;
#X connect 14 0 15 0;
#X connect 14 0 22 0;
#X connect 15 0 10 0;
#X connect 15 0 22 0;
#X connect 17 0 16 0;
#X connect 18 0 7 0;
#X connect 19 0 20 0;
#X connect 20 0 19 1;
#X connect 20 0 25 0;
#X connect 21 0 19 0;
#X connect 22 0 20 0;
#X connect 23 0 21 0;
#X connect 24 0 9 0;
#X coords 0 -1 1 1 166 17 1 100 100;
#X restore 244 36 pd ARGO;
#N canvas 172 173 382 310 ARGO 0;
#X text 12 234 peakamp~;
#X text 11 247 cyclone library;
#X text 12 262 http://suita.chopin.edu.pl/~czaja/miXed/externs/cyclone.html
;
#X text 12 275 pas de help \, dans Pd-extended. Voir doc Max/MSP MSP46ReferenceManual.pdf
;
#X obj 101 101 cnv 30 32 129 empty empty empty 20 12 0 14 -261299 -66577
0;
#X obj 101 101 cnv 4 10 4 empty empty empty 20 12 0 14 -1 -66577 0
;
#X obj 102 108 vu 8 120 \$0-B empty 0 0 1 9 -262144 -1 1 0;
#X obj 75 30 env~;
#X obj 115 4 inlet~;
#X obj 74 53 - 100;
#X obj 114 53 env~;
#X obj 113 76 - 100;
#X obj 115 31 peakamp~ 1000;
#X connect 7 0 9 0;
#X connect 8 0 7 0;
#X connect 8 0 12 0;
#X connect 9 0 6 0;
#X connect 10 0 11 0;
#X connect 11 0 6 1;
#X connect 12 0 10 0;
#X coords 0 -1 1 1 34 131 2 100 100;
#X restore 199 36 pd ARGO;
#N canvas 172 173 382 310 ARGO 0;
#X text 12 234 peakamp~;
#X text 11 247 cyclone library;
#X text 12 262 http://suita.chopin.edu.pl/~czaja/miXed/externs/cyclone.html
;
#X text 12 275 pas de help \, dans Pd-extended. Voir doc Max/MSP MSP46ReferenceManual.pdf
;
#X obj 101 101 cnv 30 32 129 empty empty empty 20 12 0 14 -261299 -66577
0;
#X obj 101 101 cnv 4 10 4 empty empty empty 20 12 0 14 -1 -66577 0
;
#X obj 102 108 vu 8 120 \$0-B empty 0 0 1 9 -262144 -1 1 0;
#X obj 75 30 env~;
#X obj 115 4 inlet~;
#X obj 74 53 - 100;
#X obj 114 53 env~;
#X obj 113 76 - 100;
#X obj 115 31 peakamp~ 1000;
#X connect 7 0 9 0;
#X connect 8 0 7 0;
#X connect 8 0 12 0;
#X connect 9 0 6 0;
#X connect 10 0 11 0;
#X connect 11 0 6 1;
#X connect 12 0 10 0;
#X coords 0 -1 1 1 34 131 2 100 100;
#X restore 210 36 pd ARGO;
#N canvas 350 62 279 383 ARGO 0;
#X obj 101 101 cnv 20 104 34 empty ColorAmpli empty 20 12 0 14 -261299
-1 1.04858e+06;
#X obj 85 274 outlet~;
#X obj 134 104 cnv 10 20 10 empty ColorAmpli Ampli 1 5 1 14 -261299
-1 1.04858e+06;
#X obj 89 -82 inlet~;
#X obj 85 245 *~;
#X obj 103 118 hsl 101 12 0 1.25 0 1 \$0-A ColorAmpli 8dB 0 7 1 9 -261299
-1 -1 8800 0;
#X obj 100 161 pow~ 10000;
#X obj 100 201 /~ 10000;
#X msg 115 77 label \$1;
#X obj 114 54 tosymbol;
#X obj 115 -45 * 80;
#X obj 115 -23 - 80;
#X obj 114 19 sprintf %ddB;
#X obj 101 101 cnv 4 10 4 empty empty empty 20 12 0 14 -1 -66577 0
;
#X obj 101 131 cnv 4 10 4 empty empty empty 20 12 0 14 -1 -66577 0
;
#X text 123 36 -> -80dB..20dB;
#X text 120 0 -> -80 .. 20;
#X text 104 139 -> 0..1.2;
#X text 109 179 -> 1..100000;
#X text 104 221 -> 0.0001..10 = -80dB..20dB;
#X obj 195 101 cnv 4 10 4 empty empty empty 20 12 0 14 -1 -66577 0
;
#X obj 195 131 cnv 4 10 4 empty empty empty 20 12 0 14 -1 -66577 0
;
#X obj 210 273 outlet~;
#X obj 214 -83 inlet~;
#X obj 210 244 *~;
#X connect 3 0 4 0;
#X connect 4 0 1 0;
#X connect 5 0 10 0;
#X connect 5 0 6 0;
#X connect 6 0 7 0;
#X connect 7 0 4 1;
#X connect 7 0 24 1;
#X connect 8 0 5 0;
#X connect 9 0 8 0;
#X connect 10 0 11 0;
#X connect 11 0 12 0;
#X connect 12 0 9 0;
#X connect 23 0 24 0;
#X connect 24 0 22 0;
#X coords 0 -1 1 1 106 36 1 100 100;
#X restore 163 -32 pd ARGO;
#X text 271 -17 <- General level;
#X connect 0 0 1 0;
#X connect 2 1 20 0;
#X connect 3 0 2 0;
#X connect 3 0 7 0;
#X connect 4 0 5 0;
#X connect 6 0 2 1;
#X connect 7 1 20 1;
#X connect 8 0 7 1;
#X connect 9 0 6 0;
#X connect 10 0 8 0;
#X connect 11 0 12 0;
#X connect 12 0 2 2;
#X connect 13 0 7 2;
#X connect 14 0 13 0;
#X connect 20 0 17 0;
#X connect 20 0 18 0;
#X connect 20 0 16 0;
#X connect 20 1 17 1;
#X connect 20 1 19 0;
#X connect 20 1 16 1;
