#N canvas 298 231 330 196 10;
#X obj 104 109 spigot;
#X obj 38 109 spigot 1;
#X msg 218 86 0;
#X msg 252 86 1;
#X msg 183 87 0;
#X msg 149 87 1;
#X obj 149 64 sel 0 1;
#X obj 38 42 inlet;
#X obj 104 42 inlet;
#X obj 149 42 inlet;
#X obj 38 131 outlet;
#X connect 0 0 10 0;
#X connect 1 0 10 0;
#X connect 2 0 1 1;
#X connect 3 0 0 1;
#X connect 4 0 0 1;
#X connect 5 0 1 1;
#X connect 6 0 4 0;
#X connect 6 0 5 0;
#X connect 6 1 2 0;
#X connect 6 1 3 0;
#X connect 7 0 1 0;
#X connect 8 0 0 0;
#X connect 9 0 6 0;
