#N canvas 0 0 450 300 10;
#X obj 101 101 cnv 15 163 68 empty empty NET 0 7 0 14 -233017 -66577
0;
#X obj 103 152 bng 15 250 50 0 empty empty popup_init 20 7 0 10 -241291
-1 -1;
#N canvas 1310 458 909 371 net 1;
#X obj 108 169 NET/GUInet;
#X obj 118 20 inlet;
#X obj 118 137 s GUInet_init;
#X obj 204 252 s GUI_dspNames;
#X text 55 224 as soon as we have a working 2-side connection \, we
query the DSP-names;
#X obj 234 126 inlet;
#X obj 173 308 s GUI_NET_initialized;
#X obj 173 196 t b b;
#X msg 491 263 IN;
#X msg 518 263 AUX;
#X obj 481 43 r GUI_dspNames;
#X obj 306 16 loadbang;
#X obj 306 63 del 10000;
#X obj 306 84 spigot;
#X obj 306 37 t b b;
#X msg 378 61 1;
#X obj 118 91 t b b;
#X msg 148 111 0;
#X msg 548 263 PLUGIN;
#X obj 537 75 del 100;
#X obj 537 98 t b b;
#X obj 579 98 del 100;
#X obj 579 119 t b b;
#X obj 621 119 del 100;
#X msg 600 263 OUT;
#X text 231 286 sum of dels with dspNames + 100;
#X msg 635 264 BUS_OUT;
#X msg 696 264 AMBI_OUT;
#X obj 623 149 t b b;
#X obj 665 149 del 100;
#X obj 665 175 t b b;
#X obj 707 175 del 100;
#X obj 707 201 t b b;
#X obj 749 201 del 100;
#X obj 174 282 del 700;
#X obj 481 75 t b b b;
#X obj 491 314 s GUI_initLabels;
#X msg 446 262 start;
#X msg 781 267 bang;
#X obj 491 288 sendreceive /DSP/LABELS/GET;
#X obj 604 47 sendreceive DSP/LABELS/SET;
#X connect 0 1 7 0;
#X connect 1 0 16 0;
#X connect 5 0 3 0;
#X connect 7 0 34 0;
#X connect 7 1 3 0;
#X connect 8 0 39 0;
#X connect 9 0 39 0;
#X connect 10 0 35 0;
#X connect 11 0 14 0;
#X connect 12 0 13 0;
#X connect 13 0 16 0;
#X connect 14 0 12 0;
#X connect 14 1 15 0;
#X connect 15 0 13 1;
#X connect 16 0 2 0;
#X connect 16 1 17 0;
#X connect 17 0 13 1;
#X connect 18 0 39 0;
#X connect 19 0 20 0;
#X connect 20 0 9 0;
#X connect 20 1 21 0;
#X connect 21 0 22 0;
#X connect 22 0 18 0;
#X connect 22 1 23 0;
#X connect 23 0 28 0;
#X connect 24 0 39 0;
#X connect 26 0 39 0;
#X connect 27 0 39 0;
#X connect 28 0 24 0;
#X connect 28 1 29 0;
#X connect 29 0 30 0;
#X connect 30 0 26 0;
#X connect 30 1 31 0;
#X connect 31 0 32 0;
#X connect 32 0 27 0;
#X connect 32 1 33 0;
#X connect 33 0 38 0;
#X connect 34 0 6 0;
#X connect 35 0 8 0;
#X connect 35 1 19 0;
#X connect 35 2 37 0;
#X connect 37 0 36 0;
#X connect 38 0 36 0;
#X restore 106 187 pd net;
#X obj 103 115 bng 30 250 50 0 empty empty INIT 35 15 0 10 -24198 -1
-1;
#X connect 1 0 2 1;
#X connect 3 0 2 0;
#X coords 0 -1 1 1 165 70 1 100 100;
