#N canvas -9 -9 1920 978 10;
#X obj 254 300 v p1k1;
#X obj 316 299 v p1k2;
#X obj 375 297 v p1k3;
#X obj 433 296 v p1k4;
#X obj 240 171 bng 15 250 50 0 empty empty empty 17 7 0 10 -262144
-1 -1;
#X msg 228 456 set;
#X obj 405 658 list trim;
#X obj 383 693 textfile;
#X obj 222 200 t b b b;
#X msg 21 302 write /tmp/state/pagevals.txt;
#X obj 263 119 r saveState;
#X obj 488 299 v p2k1;
#X obj 550 298 v p2k2;
#X obj 609 296 v p2k3;
#X obj 667 295 v p2k4;
#X obj 905 291 v p3k4;
#X obj 847 292 v p3k3;
#X obj 788 294 v p3k2;
#X obj 726 295 v p3k1;
#X obj 964 293 v p4k1;
#X obj 1026 292 v p4k2;
#X obj 1085 290 v p4k3;
#X obj 1143 289 v p4k4;
#X obj 928 605 pack s 0 0 0 0 0 0 0 0 0 0 0 0 0 0 0 0 0 0 0 0 0 0 0
0 0 0 0 0 0 0 0 0;
#X obj 1194 292 v p5k1;
#X obj 1256 291 v p5k2;
#X obj 1315 289 v p5k3;
#X obj 1373 288 v p5k4;
#X obj 1428 291 v p6k1;
#X obj 1490 290 v p6k2;
#X obj 1549 288 v p6k3;
#X obj 1607 287 v p6k4;
#X obj 1666 287 v p7k1;
#X obj 1728 286 v p7k2;
#X obj 1787 284 v p7k3;
#X obj 1845 283 v p7k4;
#X obj 1904 285 v p8k1;
#X obj 1966 284 v p8k2;
#X obj 2025 282 v p8k3;
#X obj 2083 281 v p8k4;
#X obj 906 67 t b b b b b b b b b b b b b b b b b b b b b b b b b b
b b b b b b;
#X connect 0 0 23 1;
#X connect 1 0 23 2;
#X connect 2 0 23 3;
#X connect 3 0 23 4;
#X connect 4 0 8 0;
#X connect 5 0 23 0;
#X connect 6 0 7 0;
#X connect 8 0 9 0;
#X connect 8 1 5 0;
#X connect 8 2 40 0;
#X connect 9 0 7 0;
#X connect 10 0 4 0;
#X connect 11 0 23 5;
#X connect 12 0 23 6;
#X connect 13 0 23 7;
#X connect 14 0 23 8;
#X connect 15 0 23 12;
#X connect 16 0 23 11;
#X connect 17 0 23 10;
#X connect 18 0 23 9;
#X connect 19 0 23 13;
#X connect 20 0 23 14;
#X connect 21 0 23 15;
#X connect 22 0 23 16;
#X connect 23 0 6 0;
#X connect 24 0 23 17;
#X connect 25 0 23 18;
#X connect 26 0 23 19;
#X connect 27 0 23 20;
#X connect 28 0 23 21;
#X connect 29 0 23 22;
#X connect 30 0 23 23;
#X connect 31 0 23 24;
#X connect 32 0 23 25;
#X connect 33 0 23 26;
#X connect 34 0 23 27;
#X connect 35 0 23 28;
#X connect 36 0 23 29;
#X connect 37 0 23 30;
#X connect 38 0 23 31;
#X connect 39 0 23 32;
#X connect 40 0 0 0;
#X connect 40 1 1 0;
#X connect 40 2 2 0;
#X connect 40 3 3 0;
#X connect 40 4 11 0;
#X connect 40 5 12 0;
#X connect 40 6 13 0;
#X connect 40 7 14 0;
#X connect 40 8 18 0;
#X connect 40 9 17 0;
#X connect 40 10 16 0;
#X connect 40 11 15 0;
#X connect 40 12 19 0;
#X connect 40 13 20 0;
#X connect 40 14 21 0;
#X connect 40 15 22 0;
#X connect 40 16 24 0;
#X connect 40 17 25 0;
#X connect 40 18 26 0;
#X connect 40 19 27 0;
#X connect 40 20 28 0;
#X connect 40 21 29 0;
#X connect 40 22 30 0;
#X connect 40 23 31 0;
#X connect 40 24 32 0;
#X connect 40 25 33 0;
#X connect 40 26 34 0;
#X connect 40 27 35 0;
#X connect 40 28 36 0;
#X connect 40 29 37 0;
#X connect 40 30 38 0;
#X connect 40 31 39 0;
