#N canvas 270 104 608 244 10;
#X obj 271 1 active;
#N canvas 424 161 167 191 clic 0;
#X obj 23 17 MouseState;
#X obj 23 82 &;
#X obj 23 100 == 0;
#X obj 23 136 s \$0-SendClic;
#X obj 48 51 t b f;
#X obj 23 118 metro 200;
#X obj 94 17 inlet;
#X connect 0 0 1 0;
#X connect 1 0 2 0;
#X connect 2 0 5 0;
#X connect 4 0 1 0;
#X connect 4 1 1 1;
#X connect 5 0 3 0;
#X connect 6 0 4 0;
#X restore 271 22 pd clic;
#X obj -11 85 dac~ 1 2;
#N canvas 608 166 249 182 ARGOnOff 0;
#X obj 100 100 tgl 18 1 \$0-SendOnOff \$0-ReceiveOnOff On/Off 20 9
0 12 -4033 -1 -1 1 1;
#X obj 99 39 loadbang;
#X msg 99 62 \; pd dsp 1;
#X obj 100 129 outlet;
#X connect 0 0 3 0;
#X connect 1 0 2 0;
#X coords 0 -1 1 1 65 18 2 100 100;
#X restore 197 0 pd ARGOnOff;
#X obj 197 25 switch~;
#X obj -193 -128 cnv 15 15 15 empty empty ExMM26a-FFTNoiseGate 0 8
1 14 -262144 -66577 0;
#X text 4 21 General level;
#N canvas 350 62 312 366 ARGO 0;
#X obj 101 101 cnv 20 104 34 empty ColorAmpli empty 20 12 0 14 -261299
-1 1.04858e+06;
#X obj 85 257 outlet~;
#X obj 134 104 cnv 10 20 10 empty ColorAmpli Ampli 1 5 1 14 -261299
-1 1.04858e+06;
#X obj 89 -82 inlet~;
#X obj 85 228 *~;
#X obj 103 118 hsl 101 12 0 1.25 0 1 \$0-A ColorAmpli 0dB 0 7 1 9 -261299
-1 -1 8000 0;
#X obj 100 161 pow~ 10000;
#X obj 100 195 /~ 10000;
#X msg 213 61 label \$1;
#X obj 212 38 tosymbol;
#X obj 213 -61 * 80;
#X obj 213 -39 - 80;
#X obj 212 3 sprintf %ddB;
#X obj 101 101 cnv 4 10 4 empty empty empty 20 12 0 14 -1 -66577 0
;
#X obj 101 131 cnv 4 10 4 empty empty empty 20 12 0 14 -1 -66577 0
;
#X text 221 20 -> -80dB..20dB;
#X text 218 -16 -> -80 .. 20;
#X text 104 139 -> 0..1.2;
#X text 109 177 -> 1..100000;
#X text 109 211 -> 0.0001..10 = -80dB..20dB;
#X connect 3 0 4 0;
#X connect 4 0 1 0;
#X connect 5 0 10 0;
#X connect 5 0 6 0;
#X connect 6 0 7 0;
#X connect 7 0 4 1;
#X connect 8 0 5 0;
#X connect 9 0 8 0;
#X connect 10 0 11 0;
#X connect 11 0 12 0;
#X connect 12 0 9 0;
#X coords 0 -1 1 1 106 36 1 100 100;
#X restore -11 39 pd ARGO;
#N canvas 148 112 547 429 ARGO 0;
#X obj 368 103 cnv 10 20 10 empty empty Play 1 5 1 14 -262144 -1 1.04858e+06
;
#X obj 101 131 cnv 4 10 4 empty empty empty 20 12 0 14 -1 -66577 0
;
#X obj 216 399 outlet~;
#X obj 261 7 openpanel;
#X msg 212 301 1;
#X msg 141 275 0;
#X msg 289 53 set \$1;
#X msg 242 326 open \$1;
#X obj 191 233 t b b;
#X msg 124 394 set 0;
#X obj 179 138 sel 1 0;
#X floatatom 230 180 5 0 0 0 - - -;
#X msg 230 157 set \$1;
#X obj 204 210 sel 1;
#X msg 173 334 set 1;
#X obj 48 5 key;
#X obj 49 28 select 32;
#X obj -11 6 loadbang;
#X obj 243 353 readsf~ 2;
#X obj 274 272 list2symbol;
#X obj 242 301 symbol;
#X obj 262 27 t b s;
#X text 369 281 avec espace;
#X text 351 269 -> pour les noms de fichier;
#X obj 151 101 tgl 12 1 \$0-SendPlay \$0-ReceivePlay Play(Space) 14
6 1 9 -262144 -1 -1 1 1;
#X obj 100 114 bng 16 250 50 0 \$0-SendOpen \$0-ReceiveOpen empty 0
0 1 9 -262144 -1 -1;
#X obj 311 101 bng 12 250 50 0 \$0-SendStop \$0-ReceiveStop Stop 14
6 1 9 -262144 -1 -1;
#X obj 249 101 tgl 12 1 \$0-SendLoop \$0-ReceiveLoop Loop 15 6 1 9
-262144 -1 -1 1 1;
#X symbolatom 117 114 46 0 0 0 - - -;
#X obj 276 401 outlet~;
#X obj 389 131 cnv 4 10 4 empty empty empty 20 12 0 14 -1 -66577 0
;
#X msg 8 147 set \$1;
#X obj -7 196 list2symbol;
#X obj -11 40 t b b;
#X obj 139 101 bng 12 250 50 0 \$0-A \$0-B empty 14 6 1 9 -262144 -1
-1;
#X obj 139 101 bng 12 250 50 0 \$0-A \$0-B empty 14 6 1 9 -262144 -1
-1;
#X obj 174 277 delay 5;
#X obj 101 101 cnv 4 10 4 empty empty empty 20 12 0 14 -1 -66577 0
;
#X obj 113 5 inlet~;
#X obj 113 28 threshold~ 0.5 5 0.49 5;
#X msg -7 172 Berce1.aiff;
#X connect 3 0 21 0;
#X connect 4 0 18 0;
#X connect 5 0 18 0;
#X connect 6 0 28 0;
#X connect 7 0 18 0;
#X connect 8 0 36 0;
#X connect 8 1 20 0;
#X connect 9 0 24 0;
#X connect 10 0 8 0;
#X connect 10 1 9 0;
#X connect 10 1 5 0;
#X connect 11 0 13 0;
#X connect 12 0 11 0;
#X connect 13 0 8 0;
#X connect 14 0 24 0;
#X connect 14 0 35 0;
#X connect 15 0 16 0;
#X connect 16 0 24 0;
#X connect 17 0 33 0;
#X connect 18 0 2 0;
#X connect 18 1 29 0;
#X connect 18 2 11 0;
#X connect 18 2 9 0;
#X connect 19 0 20 1;
#X connect 20 0 7 0;
#X connect 21 0 28 0;
#X connect 21 1 6 0;
#X connect 24 0 10 0;
#X connect 25 0 3 0;
#X connect 26 0 5 0;
#X connect 26 0 9 0;
#X connect 27 0 12 0;
#X connect 28 0 19 0;
#X connect 28 0 31 0;
#X connect 31 0 40 0;
#X connect 32 0 6 0;
#X connect 33 0 28 0;
#X connect 33 1 40 0;
#X connect 34 0 24 0;
#X connect 36 0 4 0;
#X connect 36 0 14 0;
#X connect 38 0 39 0;
#X connect 39 0 34 0;
#X connect 40 0 32 0;
#X coords 0 -1 1 1 300 36 2 100 100;
#X restore -11 -110 pd ARGO;
#X text -150 -48 NoiseGate Threshold ->;
#X text -192 -38 Seuil de la porte de bruit ->;
#X text -115 -6 Signal - Noise ->;
#X text -115 4 Signal - Bruit ->;
#X text 136 -21 Noise;
#X text 136 -9 Bruit;
#N canvas 367 240 426 305 ARGO 0;
#X obj 101 101 cnv 10 164 34 empty ColorForm empty 20 12 0 14 -188398
-1 1.04858e+06;
#X obj 101 131 cnv 4 10 4 empty empty empty 20 12 0 14 -1 -66577 0
;
#X obj 93 51 inlet~;
#X obj 101 101 cnv 4 10 4 empty empty empty 20 12 0 14 -1 -66577 0
;
#X obj 93 220 outlet~;
#X obj 125 105 cnv 10 20 10 empty ColorForm FFT-NoiseGate 1 5 1 14
-188398 -1 1.04858e+06;
#X obj 255 131 cnv 4 10 4 empty empty empty 20 12 0 14 -1 -66577 0
;
#N canvas 320 71 510 391 fft-analysis 0;
#X obj 10 230 *~;
#X obj 23 53 *~;
#X obj 25 9 inlet~;
#X obj 23 76 rfft~;
#X obj 9 309 *~;
#X obj 10 261 rifft~;
#X obj 8 357 outlet~;
#X obj 38 29 tabreceive~ \$0-hann;
#X obj 24 285 tabreceive~ \$0-hann;
#X obj 8 332 *~;
#X obj 150 232 *~;
#X obj 148 362 outlet~;
#X obj 148 337 *~;
#X text 174 336 normalize;
#X obj 149 308 *~;
#X obj 150 260 rifft~;
#X obj 164 284 tabreceive~ \$0-hann;
#X obj 43 228 *~;
#X obj 183 233 *~;
#X obj 192 10 inlet;
#X obj 186 128 *~;
#X obj 152 128 *~;
#X obj 152 151 +~;
#X text 178 150 squared magnitude;
#X obj 36 179 expr~ $v1 > $v2;
#X obj 165 178 expr~ $v1 <= $v2;
#X text 34 330 normalize;
#X obj 335 357 switch~ 1024 4 1;
#X msg 449 328 0;
#X msg 299 327 1;
#X text 299 -4 64..65536;
#X obj 300 12 r \$0-FFTSize;
#X obj 327 119 /;
#X obj 399 11 r \$0-FFTOverlap;
#X text 416 -7 1 2 4 8;
#X obj 367 240 pack 1 2;
#X msg 334 327 set \$1 \$2 1;
#X obj 399 68 t b b f b;
#X obj 300 68 t b b b f f f b;
#X msg 306 95 0.628;
#X connect 0 0 5 0;
#X connect 1 0 3 0;
#X connect 2 0 1 0;
#X connect 3 0 0 0;
#X connect 3 0 10 0;
#X connect 3 0 21 0;
#X connect 3 0 21 1;
#X connect 3 1 17 0;
#X connect 3 1 18 0;
#X connect 3 1 20 0;
#X connect 3 1 20 1;
#X connect 4 0 9 0;
#X connect 5 0 4 0;
#X connect 7 0 1 1;
#X connect 8 0 4 1;
#X connect 9 0 6 0;
#X connect 10 0 15 0;
#X connect 12 0 11 0;
#X connect 14 0 12 0;
#X connect 15 0 14 0;
#X connect 16 0 14 1;
#X connect 17 0 5 1;
#X connect 18 0 15 1;
#X connect 19 0 24 1;
#X connect 19 0 25 1;
#X connect 20 0 22 1;
#X connect 21 0 22 0;
#X connect 22 0 24 0;
#X connect 22 0 25 0;
#X connect 24 0 0 1;
#X connect 24 0 17 1;
#X connect 25 0 10 1;
#X connect 25 0 18 1;
#X connect 28 0 27 0;
#X connect 29 0 27 0;
#X connect 31 0 38 0;
#X connect 32 0 12 1;
#X connect 32 0 9 1;
#X connect 33 0 37 0;
#X connect 35 0 36 0;
#X connect 36 0 27 0;
#X connect 37 0 29 0;
#X connect 37 1 35 0;
#X connect 37 2 35 1;
#X connect 37 3 28 0;
#X connect 38 0 29 0;
#X connect 38 2 39 0;
#X connect 38 3 32 1;
#X connect 38 5 35 0;
#X connect 38 6 28 0;
#X connect 39 0 32 0;
#X restore 93 188 pd fft-analysis;
#X text 12 246 cf MaxMSP463 -> Documentation -> MSP46TutorialsAndTopics.pdf
;
#X obj 236 220 outlet~;
#X obj 103 118 hsl 161 12 0.001 1e+06 1 1 \$0-A ColorTime -43dB 0 7
1 9 -188398 -1 -1 8300 0;
#X text 27 259 -> Tutorial 26: Frequency Domain Signal Processing with...
-> a spectral noise gate;
#X msg -28 160 label \$1;
#X obj -28 138 tosymbol;
#X obj -28 116 sprintf %ddB;
#X obj -27 70 powtodb;
#X obj -28 93 - 160;
#X text 247 135 Noise;
#X text 247 149 Bruit;
#X text 59 149 Signal - Bruit;
#X text 59 135 Signal - Noise;
#X text 271 110 24 11 2008;
#X connect 2 0 7 0;
#X connect 7 0 4 0;
#X connect 7 1 9 0;
#X connect 10 0 7 1;
#X connect 10 0 15 0;
#X connect 12 0 10 0;
#X connect 13 0 12 0;
#X connect 14 0 13 0;
#X connect 15 0 16 0;
#X connect 16 0 14 0;
#X coords 0 -1 1 1 166 36 1 100 100;
#X restore -11 -57 pd ARGO;
#N canvas 385 85 586 498 ARGO 0;
#X obj 101 101 cnv 10 228 27 empty ColorForm empty 20 12 0 14 -188398
-1 1.04858e+06;
#X obj 101 105 cnv 10 20 10 empty ColorForm Init-FFT 1 5 1 14 -188398
-1 1.04858e+06;
#X obj 155 103 hradio 12 1 1 11 \$0-A ColorForm empty 0 -8 0 10 -188398
-1 -1 6;
#X obj 287 103 nbx 5 12 1 99999 0 1 \$0-A ColorForm empty 0 0 1 9 -188398
-1 -1 4096 256;
#X text 138 75 Nommer FFTGeneral???;
#N canvas 0 22 450 300 (subpatch) 0;
#X array \$0-hann 4096 float 0;
#X coords 0 0 4095 1 300 100 0;
#X restore 79 203 graph;
#X obj 116 391 osc~;
#X obj 116 417 *~ -0.5;
#X obj 116 444 +~ 0.5;
#X obj 89 468 tabwrite~ \$0-hann;
#X obj 173 261 samplerate~;
#X obj 154 286 swap;
#X obj 154 310 /;
#X obj 153 237 t f b f;
#X msg 361 439 resize \$1;
#X obj 333 468 s \$0-hann;
#X msg 164 360 0;
#X obj 137 335 t f b;
#X obj 154 200 pow 2;
#X msg 154 177 2;
#X obj 154 154 t b f;
#X obj 154 123 + 6;
#X text 22 50 calculate Hann window table (variable window size);
#X text 161 219 <- window-size;
#X text 249 220 64..65536;
#X text 163 137 <- 6..16;
#X text 23 14 Voir Pd-0.40.3-extended -> 3.audio.examples/I05.compressor.pd
-> pd hann-window;
#X obj 153 390 phasor~;
#N canvas 9 234 450 300 (subpatch) 0;
#X array \$0-FFTIndex 4096 float 0;
#X coords 0 0 4095 1 300 100 0;
#X restore 78 231 graph;
#X obj 199 468 tabwrite~ \$0-FFTIndex;
#X obj 395 468 s \$0-FFTIndex;
#X obj 7 468 s \$0-FFTSize;
#X obj 239 115 hradio 12 1 1 4 \$0-A ColorForm empty 0 -8 0 10 -188398
-1 -1 2;
#X obj 205 117 cnv 10 20 10 empty ColorForm Overlap 1 5 1 9 -188398
-1 1.04858e+06;
#X obj 238 194 pow 2;
#X msg 238 171 2;
#X obj 238 148 t b f;
#X text 247 131 <- 0 1 2 3;
#X obj 287 115 nbx 1 12 1 99999 0 1 \$0-A ColorForm empty 0 0 1 9 -188398
-1 -1 4 256;
#X obj 481 467 s \$0-FFTOverlap;
#X text 198 293 Si le son d'un MiniModule FFT est haché \, avec Init-FFT
grand (65536...) -> Pd-extended -> Preferences -> Audio Settings...
-> delay (msec) -> Augmenter;
#X text 289 248 <- Overlap 1 2 4 8;
#X text 333 106 20 11 2008;
#X connect 2 0 21 0;
#X connect 6 0 7 0;
#X connect 7 0 8 0;
#X connect 8 0 9 0;
#X connect 10 0 11 1;
#X connect 11 0 12 0;
#X connect 11 1 12 1;
#X connect 12 0 17 0;
#X connect 13 0 11 0;
#X connect 13 1 10 0;
#X connect 13 2 14 0;
#X connect 14 0 15 0;
#X connect 14 0 30 0;
#X connect 16 0 6 1;
#X connect 16 0 27 1;
#X connect 17 0 6 0;
#X connect 17 0 27 0;
#X connect 17 1 9 0;
#X connect 17 1 16 0;
#X connect 17 1 29 0;
#X connect 18 0 13 0;
#X connect 18 0 3 0;
#X connect 18 0 31 0;
#X connect 19 0 18 0;
#X connect 20 0 19 0;
#X connect 20 1 18 1;
#X connect 21 0 20 0;
#X connect 27 0 29 0;
#X connect 32 0 36 0;
#X connect 34 0 38 0;
#X connect 34 0 39 0;
#X connect 35 0 34 0;
#X connect 36 0 35 0;
#X connect 36 1 34 1;
#X coords 0 -1 1 1 230 29 1 100 100;
#X restore 172 -56 pd ARGO;
#X connect 0 0 1 0;
#X connect 3 0 4 0;
#X connect 7 0 2 0;
#X connect 7 0 2 1;
#X connect 8 0 15 0;
#X connect 15 0 7 0;
