#N canvas 151 22 800 687 10;
#X declare -path ../../abstractions/in -path ../../abstractions/out
-path ../../abstractions/numbers -path ../../abstractions/video -path
../../abstractions/audio -path ../../abstractions/master;
#X obj 7 252 cnv 1 786 1 empty empty FX 2 -6 1 12 -228856 -191407 0
;
#X obj 7 501 cnv 1 786 1 empty empty OUT 2 -6 1 12 -228856 -191407
0;
#X obj 7 171 cnv 1 786 1 empty empty IN 2 -6 1 12 -228856 -191407 0
;
#X obj 73 514 video-screen;
#X obj 73 199 video-in;
#X obj 73 394 video-multifx;
#N canvas 812 150 450 520 croprepeat 0;
#X obj 107 314 pix_texture;
#X obj 107 277 pix_crop;
#X obj 199 201 random 640;
#X obj 274 201 random 480;
#X obj 108 21 inlet;
#X obj 110 359 outlet;
#X obj 280 242 fade 100;
#X obj 157 37 inlet;
#X obj 222 40 inlet;
#X obj 294 41 inlet;
#X obj 139 85 random 300;
#X obj 137 146 fade 300;
#X floatatom 147 109 5 0 0 0 - - -;
#X obj 185 243 fade;
#X connect 0 0 5 0;
#X connect 1 0 0 0;
#X connect 2 0 13 0;
#X connect 3 0 6 0;
#X connect 4 0 1 0;
#X connect 6 0 1 4;
#X connect 7 0 10 0;
#X connect 8 0 2 0;
#X connect 9 0 3 0;
#X connect 10 0 11 0;
#X connect 11 0 1 1;
#X connect 11 0 1 2;
#X connect 12 0 11 0;
#X connect 13 0 1 3;
#X restore 73 372 pd croprepeat;
#X obj 73 275 video-kaleidoscope;
#X obj 250 327 random 100;
#X msg 250 370 in \$1;
#X obj 250 348 fade;
#N canvas 756 131 450 300 OPEN_GEM 0;
#X obj 204 149 loadbang;
#X obj 204 170 delay 1000;
#X msg 204 190 \; GEM-MASTER on;
#X connect 0 0 1 0;
#X connect 1 0 2 0;
#X restore 494 17 pd OPEN_GEM;
#X obj 250 303 r \$0-hat;
#X obj 123 350 r \$0-snare;
#X obj 98 330 r \$0-kick;
#X text 309 303 < receive data from Music generation.;
#X text 321 317 "\$0-" allow unique send/receive path;
#X obj 493 39 cnv 20 300 70 empty empty DESCRIPTION 10 15 0 16 -233017
-128992 0;
#X obj 493 114 cnv 20 300 50 empty empty GENERATIVE_MUSIC 10 15 0 16
-204786 -1 0;
#N canvas 186 80 716 672 >>__MUSIC__<< 0;
#X obj 409 400 synth-drums;
#X obj 32 110 tgl 15 0 empty empty on/off 17 7 0 10 -262144 -1 -1 0
1;
#X floatatom 107 110 5 0 0 2 time - -;
#X msg 32 129 onoff \$1;
#X msg 107 129 time \$1;
#X obj 107 146 seq-sliders;
#X obj 272 146 seq-sliders;
#X obj 440 146 seq-sliders;
#X msg 248 75 seq 0.8 0 0.7 0 0 0.3 0 0.4;
#X msg 305 106 seq 0 0 0 0.3 0.8 0 0 0.3;
#X msg 440 125 seq 0.8 0.5 0.8 0.5 0.8 0.5 0.8 0.5;
#X obj 440 29 loadbang;
#X text 16 236 probabilités >;
#X text 52 214 forte;
#X text 53 258 faible;
#X obj 587 548 audio-out;
#X obj 588 490 audio-disto 8;
#X obj 250 366 random 127;
#X obj 251 563 audio-out;
#X obj 251 537 *~;
#X obj 250 485 synth-pluck 35;
#X obj 110 556 audio-out;
#X obj 109 367 counter 8;
#X obj 109 394 sel 0;
#X obj 109 512 synth;
#X floatatom 157 387 5 0 0 0 - - -;
#X obj 109 415 random 5;
#X obj 109 436 + 20;
#X obj 317 563 audio-out;
#X obj 109 460 notescale;
#X obj 250 428 notescale;
#X obj 245 283 s \$0-kick;
#X obj 410 281 s \$0-snare;
#X obj 578 281 s \$0-hat;
#X obj 109 344 r \$0-kick;
#X obj 250 344 r \$0-kick;
#X obj 409 338 r \$0-kick;
#X obj 453 358 r \$0-snare;
#X obj 498 378 r \$0-hat;
#X connect 0 4 16 0;
#X connect 1 0 3 0;
#X connect 2 0 4 0;
#X connect 3 0 5 0;
#X connect 3 0 6 0;
#X connect 3 0 7 0;
#X connect 4 0 6 0;
#X connect 4 0 7 0;
#X connect 4 0 5 0;
#X connect 5 1 31 0;
#X connect 6 1 32 0;
#X connect 7 1 33 0;
#X connect 8 0 5 0;
#X connect 9 0 6 0;
#X connect 10 0 7 0;
#X connect 11 0 8 0;
#X connect 11 0 9 0;
#X connect 11 0 10 0;
#X connect 16 0 15 0;
#X connect 16 0 15 1;
#X connect 16 0 19 1;
#X connect 17 0 30 0;
#X connect 19 0 18 0;
#X connect 19 0 18 1;
#X connect 20 0 19 0;
#X connect 20 0 28 0;
#X connect 20 0 28 1;
#X connect 22 0 23 0;
#X connect 22 0 25 0;
#X connect 23 0 26 0;
#X connect 24 0 21 0;
#X connect 24 0 21 1;
#X connect 26 0 27 0;
#X connect 27 0 29 0;
#X connect 29 0 24 0;
#X connect 30 0 20 0;
#X connect 34 0 22 0;
#X connect 35 0 17 0;
#X connect 36 0 0 0;
#X connect 37 0 0 1;
#X connect 38 0 0 2;
#X restore 502 142 pd >>__MUSIC__<<;
#X text 498 65 More complex patch with generative music and;
#X text 614 140 < look inside;
#X obj 73 134 cnv 20 300 30 empty empty GENERATIVE_VIDEO 10 15 0 16
-204786 -1 0;
#X text 500 81 video.;
#X obj 743 23 ../../abstractions/include;
#X connect 4 0 7 0;
#X connect 5 0 3 0;
#X connect 6 0 5 0;
#X connect 7 0 6 0;
#X connect 8 0 10 0;
#X connect 9 0 7 1;
#X connect 10 0 9 0;
#X connect 12 0 6 3;
#X connect 12 0 8 0;
#X connect 13 0 6 2;
#X connect 14 0 6 1;
