#N canvas -143 -759 1017 484 10;
#X obj 168 83 cnv 15 734 227 empty empty empty 20 12 0 14 -33289 -66577
0;
#X obj 213 206 cnv 15 136 18 empty empty empty 20 12 0 14 -124831 -66577
0;
#X obj 213 174 cnv 15 52 18 empty empty empty 20 12 0 14 -124831 -66577
0;
#X obj 171 137 cnv 15 34 19 empty empty empty 20 12 0 14 -233017 -66577
0;
#X obj 355 131 cnv 15 32 96 empty empty empty 20 12 0 14 -124831 -66577
0;
#X obj 356 212 cnv 6 30 6 empty empty empty 20 12 0 14 -66577 -66577
0;
#X obj 356 220 cnv 6 30 6 empty empty empty 20 12 0 14 -220534 -66577
0;
#X obj 356 204 cnv 6 30 6 empty empty empty 20 12 0 14 -220534 -66577
0;
#X obj 356 196 cnv 6 30 6 empty empty empty 20 12 0 14 -66577 -66577
0;
#X obj 356 188 cnv 6 30 6 empty empty empty 20 12 0 14 -220534 -66577
0;
#X obj 356 172 cnv 6 30 6 empty empty empty 20 12 0 14 -66577 -66577
0;
#X obj 356 180 cnv 6 30 6 empty empty empty 20 12 0 14 -220534 -66577
0;
#X obj 356 164 cnv 6 30 6 empty empty empty 20 12 0 14 -220534 -66577
0;
#X obj 356 156 cnv 6 30 6 empty empty empty 20 12 0 14 -66577 -66577
0;
#X obj 356 148 cnv 6 30 6 empty empty empty 20 12 0 14 -220534 -66577
0;
#X obj 356 140 cnv 6 30 6 empty empty empty 20 12 0 14 -66577 -66577
0;
#X obj 356 132 cnv 6 30 6 empty empty empty 20 12 0 14 -220534 -66577
0;
#X obj 364 227 tgl 8 0 \$0-oct_tgl0 empty empty 17 7 0 10 -66577 -220534
-1 1 1;
#X obj 236 138 hradio 20 0 0 2 \$0-scale_random_mode_radio empty RandMode
0 -8 0 8 -66577 -220534 -220534 0;
#X obj 170 208 nbx 3 14 1 63 0 0 \$0-scale_copy_num_s \$0-scale_copy_num_r
empty 0 -8 0 10 -66577 -220534 -1 4 256 0;
#X obj 364 235 tgl 8 0 \$0-oct_tgl1 empty empty 17 7 0 10 -66577 -220534
-1 1 1;
#X obj 364 243 tgl 8 0 \$0-oct_tgl2 empty empty 17 7 0 10 -66577 -220534
-1 1 1;
#X obj 364 251 tgl 8 0 \$0-oct_tgl3 empty empty 17 7 0 10 -66577 -220534
-1 1 1;
#X obj 364 259 tgl 8 0 \$0-oct_tgl4 empty empty 17 7 0 10 -66577 -220534
-1 1 1;
#X obj 286 157 bng 20 100 50 0 \$0-shift_left empty < 7 8 1 9 -66577
-220534 -220534;
#X obj 328 157 bng 20 100 50 0 \$0-shift_right empty > 7 8 1 9 -66577
-220534 -220534;
#X obj 307 136 bng 20 100 50 0 \$0-shift_up empty ^ 6 10 1 14 -66577
-220534 -220534;
#X obj 307 178 bng 20 100 50 0 \$0-shift_down empty v 7 8 1 11 -66577
-220534 -220534;
#X obj 212 138 bng 20 100 50 0 \$0-scale_random_b_s empty Rand 0 -8
0 8 -95704 -220534 -220534;
#X obj 172 138 cnv 15 32 17 empty empty Note 5 7 1 10 -33289 -220534
0;
#X obj 224 243 bng 20 100 50 0 \$0-oct_random_b_s empty Rand 0 -8 0
8 -95704 -220534 -220534;
#X obj 211 161 cnv 10 10 10 empty empty Key 2 4 0 8 -33289 -220534
0;
#X obj 212 194 cnv 10 10 10 empty empty Scale 1 4 0 8 -33289 -220534
0;
#X obj 170 182 bng 20 100 50 0 \$0-scale_copy_b_s empty Copy 0 -8 0
8 -66577 -220534 -220534;
#X obj 197 172 vradio 8 0 0 4 \$0-scale_copy_radio_s empty empty 0
-8 0 10 -66577 -220534 -1 0;
#X obj 276 251 nbx 3 12 1 63 0 0 \$0-oct_copy_num_s \$0-oct_copy_num_r
empty 0 -8 0 10 -66577 -220534 -1 4 256 0;
#X obj 256 243 bng 20 100 50 0 \$0-oct_copy_b_s empty Copy 0 -8 0 8
-66577 -220534 -220534;
#X obj 276 243 hradio 8 0 0 4 \$0-oct_copy_radio_s empty empty 0 -8
0 9 -66577 -220534 -1 0;
#X obj 319 243 bng 20 100 50 0 \$0-oct_shift_left empty < 7 8 1 9 -66577
-220534 -220534;
#X obj 339 243 bng 20 100 50 0 \$0-oct_shift_right empty > 7 8 1 9
-66577 -220534 -220534;
#X obj 248 276 nbx 3 10 0 100 0 0 \$0-velo_random_range_num_s empty
empty 0 -8 0 9 -66577 -220534 -33289 100 256 0;
#X obj 304 293 nbx 3 12 1 63 0 0 \$0-velo_copy_num_s \$0-velo_copy_num_r
empty 0 -8 0 10 -66577 -220534 -1 4 256 0;
#X obj 284 285 bng 20 100 50 0 \$0-velo_copy_b_s empty Copy 0 -8 0
8 -66577 -220534 -220534;
#X obj 304 285 hradio 8 0 0 4 \$0-velo_copy_radio_s empty empty 0 -8
0 9 -66577 -220534 -1 0;
#X obj 207 286 bng 20 100 50 0 \$0-velo_random_b_s empty Rand 0 -8
0 8 -95704 -220534 -220534;
#X obj 342 285 bng 20 100 50 0 \$0-velo_shift_left empty < 7 8 1 9
-66577 -220534 -220534;
#X obj 362 285 bng 20 100 50 0 \$0-velo_shift_right empty > 7 8 1 9
-66577 -220534 -220534;
#X obj 248 286 nbx 3 10 0 100 0 0 \$0-velo_random_max_num_s empty empty
0 -8 0 9 -66577 -220534 -33289 100 256 0;
#X obj 444 104 nbx 4 14 0 500 0 0 \$0-shuffle_time_num empty Shuffle
0 -8 0 8 -66577 -220534 -220534 0 256 0;
#X obj 85 68 loadbang;
#X msg 85 93 0;
#X msg 57 94 1;
#X obj 372 227 vsl 15 35 0 4 0 0 \$0-oct_all_s empty empty 0 -9 0 10
-220534 -66577 -1 0 1;
#X obj 171 240 cnv 15 45 19 empty empty empty 20 12 0 14 -233017 -66577
0;
#X obj 172 241 cnv 15 43 17 empty empty Octave 5 7 1 10 -33289 -220534
0;
#N canvas 0 22 450 300 \$0-array-bg-small 0;
#X obj 100 100 cnv 15 512 40 empty empty empty 20 12 0 14 -124831 -66577
0;
#X obj 100 100 cnv 8 8 40 empty empty empty 20 12 0 14 -66577 -66577
0;
#X obj 580 100 cnv 8 8 40 empty empty empty 20 12 0 14 -95704 -66577
0;
#X obj 548 100 cnv 8 8 40 empty empty empty 20 12 0 14 -95704 -66577
0;
#X obj 516 100 cnv 8 8 40 empty empty empty 20 12 0 14 -95704 -66577
0;
#X obj 484 100 cnv 8 8 40 empty empty empty 20 12 0 14 -66577 -66577
0;
#X obj 452 100 cnv 8 8 40 empty empty empty 20 12 0 14 -95704 -66577
0;
#X obj 420 100 cnv 8 8 40 empty empty empty 20 12 0 14 -95704 -66577
0;
#X obj 388 100 cnv 8 8 40 empty empty empty 20 12 0 14 -95704 -66577
0;
#X obj 356 100 cnv 8 8 40 empty empty empty 20 12 0 14 -66577 -66577
0;
#X obj 324 100 cnv 8 8 40 empty empty empty 20 12 0 14 -95704 -66577
0;
#X obj 292 100 cnv 8 8 40 empty empty empty 20 12 0 14 -95704 -66577
0;
#X obj 260 100 cnv 8 8 40 empty empty empty 20 12 0 14 -95704 -66577
0;
#X obj 228 100 cnv 8 8 40 empty empty empty 20 12 0 14 -66577 -66577
0;
#X obj 196 100 cnv 8 8 40 empty empty empty 20 12 0 14 -95704 -66577
0;
#X obj 164 100 cnv 8 8 40 empty empty empty 20 12 0 14 -95704 -66577
0;
#X obj 132 100 cnv 8 8 40 empty empty empty 20 12 0 14 -95704 -66577
0;
#X coords 0 -1 1 1 512 40 2 100 100;
#X restore 387 267 pd \$0-array-bg-small;
#N canvas 0 22 450 300 (subpatch) 0;
#X array \$0-Velo 64 float 22 #c0c0c0 #424242;
#X coords 0 1 64 0 512 40 1;
#X restore 387 267 graph;
#N canvas 0 22 450 300 \$0-array-bg-small 0;
#X obj 100 100 cnv 15 512 40 empty empty empty 20 12 0 14 -124831 -66577
0;
#X obj 100 100 cnv 8 8 40 empty empty empty 20 12 0 14 -66577 -66577
0;
#X obj 580 100 cnv 8 8 40 empty empty empty 20 12 0 14 -95704 -66577
0;
#X obj 548 100 cnv 8 8 40 empty empty empty 20 12 0 14 -95704 -66577
0;
#X obj 516 100 cnv 8 8 40 empty empty empty 20 12 0 14 -95704 -66577
0;
#X obj 484 100 cnv 8 8 40 empty empty empty 20 12 0 14 -66577 -66577
0;
#X obj 452 100 cnv 8 8 40 empty empty empty 20 12 0 14 -95704 -66577
0;
#X obj 420 100 cnv 8 8 40 empty empty empty 20 12 0 14 -95704 -66577
0;
#X obj 388 100 cnv 8 8 40 empty empty empty 20 12 0 14 -95704 -66577
0;
#X obj 356 100 cnv 8 8 40 empty empty empty 20 12 0 14 -66577 -66577
0;
#X obj 324 100 cnv 8 8 40 empty empty empty 20 12 0 14 -95704 -66577
0;
#X obj 292 100 cnv 8 8 40 empty empty empty 20 12 0 14 -95704 -66577
0;
#X obj 260 100 cnv 8 8 40 empty empty empty 20 12 0 14 -95704 -66577
0;
#X obj 228 100 cnv 8 8 40 empty empty empty 20 12 0 14 -66577 -66577
0;
#X obj 196 100 cnv 8 8 40 empty empty empty 20 12 0 14 -95704 -66577
0;
#X obj 164 100 cnv 8 8 40 empty empty empty 20 12 0 14 -95704 -66577
0;
#X obj 132 100 cnv 8 8 40 empty empty empty 20 12 0 14 -95704 -66577
0;
#X coords 0 -1 1 1 512 40 2 100 100;
#X restore 387 227 pd \$0-array-bg-small;
#N canvas 0 22 450 300 (subpatch) 0;
#X array \$0-Octave 64 float 22 #c0c0c0 #424242;
#X coords 0 4 64 0 512 40 1;
#X restore 387 227 graph;
#X obj 171 282 cnv 15 31 19 empty empty empty 20 12 0 14 -233017 -66577
0;
#X obj 172 283 cnv 15 29 17 empty empty Velo 4 7 1 10 -33289 -220534
0;
#X obj 248 296 nbx 3 10 0 100 0 0 \$0-velo_random_min_num_s empty empty
0 -8 0 9 -66577 -220534 -33289 0 256 0;
#X msg 83 331 range 0 \$1;
#X msg 66 258 100;
#X obj 230 276 cnv 8 8 8 empty empty Rate 2 4 0 6 -33289 -220534 0
;
#X obj 233 286 cnv 8 8 8 empty empty Max 2 4 0 6 -33289 -220534 0;
#X obj 233 296 cnv 8 8 8 empty empty Min 2 4 0 6 -33289 -220534 0;
#X obj 171 98 tgl 20 0 \$0-RUN empty Run 0 -7 0 8 -149797 -220534 -220534
0 1;
#X obj 262 104 nbx 5 14 1 999 0 0 \$0-BPM empty BPM 0 -8 0 8 -66577
-220534 -220534 100 256 0;
#X obj 200 100 cnv 15 52 18 empty empty empty 20 12 0 14 -124831 -66577
0;
#N canvas 735 22 684 294 midi_ch 0;
#X dropdown 100 100 6 0 0 0 - - -, f 6;
#X obj 100 100 cnv 15 50 16 empty \$0-midi_ch_c_r CH-1 4 7 0 10 -33289
-220534 0;
#X msg 171 60 names CH-1 CH-2 CH-3 CH-4 CH-5 CH-6 CH-7 CH-8 CH-9 CH-10
CH-11 CH-12 CH-13 CH-14 CH-15 CH-16;
#X obj 171 124 + 1;
#X obj 171 199 s \$0-MIDI_ch_sel;
#X obj 171 33 loadbang;
#X obj 286 174 s \$0-midi_ch_c_r;
#X obj 136 102 cnv 5 5 5 empty empty v 6 4 1 8 -33289 -220534 0;
#X msg 286 144 label CH-\$1;
#X msg 113 50 0;
#X connect 0 0 3 0;
#X connect 2 0 0 0;
#X connect 3 0 4 0;
#X connect 3 0 8 0;
#X connect 5 0 2 0;
#X connect 5 0 9 0;
#X connect 8 0 6 0;
#X connect 9 0 0 0;
#X coords 0 -1 1 1 50 16 2 100 100;
#X restore 201 101 pd midi_ch;
#N canvas 423 22 450 392 drop-key-sel 0;
#X dropdown 89 108 6 0 0 0 - #0-key_r #0-key_s, f 6;
#X obj 89 108 cnv 15 50 16 empty \$0-drop-key-sel-cnv C 4 7 0 10 -33289
-220534 0;
#X obj 114 248 s \$0-drop-key-sel-cnv;
#X msg 114 223 label \$1;
#X msg 86 176 C C# D D# E F F# G G# A A# B;
#X obj 86 199 list split;
#X obj 86 153 t b f;
#X obj 86 131 r \$0-key_s;
#X obj 124 110 cnv 5 5 5 empty empty v 6 4 1 8 -33289 -220534 0;
#X connect 3 0 2 0;
#X connect 4 0 5 0;
#X connect 5 1 3 0;
#X connect 6 0 4 0;
#X connect 6 1 5 1;
#X connect 7 0 6 0;
#X coords 0 -1 1 1 50 16 2 89 108;
#X restore 214 175 pd drop-key-sel;
#N canvas 278 22 809 390 drop-scale-sel 0;
#X dropdown 100 100 20 0 0 0 - #0-scale_r #0-scale_s, f 20;
#X msg 127 322 label \$1;
#X obj 99 298 list split;
#X obj 99 152 t b f;
#X obj 99 130 r \$0-scale_s;
#X obj 100 100 cnv 15 134 16 empty \$0-drop-scale-sel-cnv Chromatic
4 7 0 9 -33289 -220534 0;
#X msg 99 180 Chromatic Ionian Dorian Phrygian Lydian Mixolydian Aeolian
Locrian Major_Blues minor_Blues Diminish Combination_Diminish Major_Pentatonic
minor_Pentatonic Raga_Bhairav Raga_Gamanasrama Raga_Todi Spanish_Scale
Gypsy_Scale Arabian_Scale Egyptian_Scale Hawaiian_Scale Bali_Island_Pelog
Japanese_Miyakobushi Ryukyu_Scale Wholetone minor_3rd_Interval 3rd_Interval
4th_Interval 5th_Interval Octave_Interval;
#X obj 127 347 s \$0-drop-scale-sel-cnv;
#X obj 219 102 cnv 5 5 5 empty empty v 6 4 1 8 -33289 -220534 0;
#X connect 1 0 7 0;
#X connect 2 1 1 0;
#X connect 3 0 6 0;
#X connect 3 1 2 1;
#X connect 4 0 3 0;
#X connect 6 0 2 0;
#X coords 0 -1 1 1 134 16 2 100 100;
#X restore 214 207 pd drop-scale-sel;
#X obj 385 104 nbx 5 14 1 10000 0 0 \$0-MIDI_duration empty Duration
0 -8 0 8 -66577 -220534 -220534 100 256 0;
#X obj 312 104 nbx 5 14 1 30000 0 0 empty \$0-BPM-to-ms ms 0 -8 0 8
-66577 -220534 -220534 150 256 0;
#X obj 363 103 bng 15 150 50 0 empty empty Sync -2 -8 0 8 -66577 -220534
-220534;
#X msg 93 192 set \$1;
#X msg 93 217 150;
#N canvas 0 22 450 300 \$0-array-bg-big 0;
#X obj 100 100 cnv 15 512 96 empty empty empty 20 12 0 14 -124831 -66577
0;
#X obj 100 100 cnv 8 8 96 empty empty empty 20 12 0 14 -66577 -66577
0;
#X obj 580 100 cnv 8 8 96 empty empty empty 20 12 0 14 -95704 -66577
0;
#X obj 548 100 cnv 8 8 96 empty empty empty 20 12 0 14 -95704 -66577
0;
#X obj 516 100 cnv 8 8 96 empty empty empty 20 12 0 14 -95704 -66577
0;
#X obj 484 100 cnv 8 8 96 empty empty empty 20 12 0 14 -66577 -66577
0;
#X obj 452 100 cnv 8 8 96 empty empty empty 20 12 0 14 -95704 -66577
0;
#X obj 420 100 cnv 8 8 96 empty empty empty 20 12 0 14 -95704 -66577
0;
#X obj 388 100 cnv 8 8 96 empty empty empty 20 12 0 14 -95704 -66577
0;
#X obj 356 100 cnv 8 8 96 empty empty empty 20 12 0 14 -66577 -66577
0;
#X obj 324 100 cnv 8 8 96 empty empty empty 20 12 0 14 -95704 -66577
0;
#X obj 292 100 cnv 8 8 96 empty empty empty 20 12 0 14 -95704 -66577
0;
#X obj 260 100 cnv 8 8 96 empty empty empty 20 12 0 14 -95704 -66577
0;
#X obj 228 100 cnv 8 8 96 empty empty empty 20 12 0 14 -66577 -66577
0;
#X obj 196 100 cnv 8 8 96 empty empty empty 20 12 0 14 -95704 -66577
0;
#X obj 164 100 cnv 8 8 96 empty empty empty 20 12 0 14 -95704 -66577
0;
#X obj 132 100 cnv 8 8 96 empty empty empty 20 12 0 14 -95704 -66577
0;
#X coords 0 -1 1 1 512 96 2 100 100;
#X restore 387 131 pd \$0-array-bg-big;
#N canvas 0 22 450 300 (subpatch) 0;
#X array \$0-Note 64 float 18 #ebebeb #d6d6d6;
#X coords 0 11 64 0 512 96 1;
#X restore 387 131 graph;
#X obj 387 123 hradio 8 0 0 64 empty \$0-StepRadio empty 0 -8 0 10
-66577 -262144 -1 6;
#X obj 561 108 nbx 3 12 1 63 0 0 \$0-all_copy_num_s \$0-all_copy_num_r
empty 0 -8 0 10 -66577 -220534 -1 4 256 0;
#X obj 541 100 bng 20 100 50 0 \$0-all_copy_b_s empty All_Copy 0 -8
0 8 -66577 -220534 -220534;
#X obj 561 100 hradio 8 0 0 4 \$0-all_copy_radio_s empty empty 0 -8
0 9 -66577 -220534 -1 0;
#X obj 503 100 bng 20 100 50 0 \$0-all_random_b_s empty All_Rand -10
-8 0 8 -95704 -220534 -220534;
#X obj 609 100 bng 20 100 50 0 \$0-all_shift_left empty < 7 8 1 9 -66577
-220534 -220534;
#X obj 629 100 bng 20 100 50 0 \$0-all_shift_right empty > 7 8 1 9
-66577 -220534 -220534;
#X obj 605 88 cnv 10 10 10 empty empty All_shift 2 4 0 8 -33289 -220534
0;
#X obj 659 100 hradio 20 0 0 12 \$0-store-radio empty empty 0 -8 0
10 -66577 -220534 -1 0;
#X obj 664 88 cnv 10 10 10 empty empty 1 2 4 0 8 -33289 -220534 0;
#X obj 684 88 cnv 10 10 10 empty empty 2 2 4 0 8 -33289 -220534 0;
#X obj 704 88 cnv 10 10 10 empty empty 3 2 4 0 8 -33289 -220534 0;
#X obj 724 88 cnv 10 10 10 empty empty 4 2 4 0 8 -33289 -220534 0;
#X obj 744 88 cnv 10 10 10 empty empty 5 2 4 0 8 -33289 -220534 0;
#X obj 764 88 cnv 10 10 10 empty empty 6 2 4 0 8 -33289 -220534 0;
#X obj 784 88 cnv 10 10 10 empty empty 7 2 4 0 8 -33289 -220534 0;
#X obj 804 88 cnv 10 10 10 empty empty 8 2 4 0 8 -33289 -220534 0;
#X obj 824 88 cnv 10 10 10 empty empty 9 2 4 0 8 -33289 -220534 0;
#X obj 842 88 cnv 10 10 10 empty empty 10 2 4 0 8 -33289 -220534 0
;
#X obj 862 88 cnv 10 10 10 empty empty 11 2 4 0 8 -33289 -220534 0
;
#X obj 882 88 cnv 10 10 10 empty empty 12 2 4 0 8 -33289 -220534 0
;
#X obj 198 88 cnv 10 10 10 empty empty Channel 2 4 0 8 -33289 -220534
0;
#N canvas 122 165 710 354 selectKeyScale 0;
#X msg 287 86 names Chromatic Ionian Dorian Phrygian Lydian Mixolydian
Aeolian Locrian Major_Blues minor_Blues Diminish Combination_Diminish
Major_Pentatonic minor_Pentatonic Raga_Bhairav Raga_Gamanasrama Raga_Todi
Spanish_Scale Gypsy_Scale Arabian_Scale Egyptian_Scale Hawaiian_Scale
Bali_Island_Pelog Japanese_Miyakobushi Ryukyu_Scale Wholetone minor_3rd_Interval
3rd_Interval 4th_Interval 5th_Interval Octave_Interval;
#N canvas 420 22 1027 643 scale_select 0;
#X obj 292 59 sel 0 1 2 3 4 5 6 7 8 9 10 11 12 13 14 15 16 17 18 19
20 21 22 23 24 25 26 27 28 29 30;
#X msg 293 110 0 1 2 3 4 5 6 7 8 9 10 11;
#X obj 292 34 inlet;
#X msg 833 310 0 0 0 0 0 0 0 0 0 0 0 0;
#X msg 822 289 0 7 0 7 0 7 0 7 0 7 0 7;
#X msg 810 269 0 5 10 0 5 10 0 5 10 0 5 10;
#X msg 794 249 0 4 8 0 4 8 0 4 8 0 4 8;
#X msg 778 229 0 3 6 9 0 3 6 9 0 3 6 9;
#X msg 404 290 0 3 4 7 9 10 0 3 4 7 9 10;
#X msg 415 317 0 3 5 6 7 10 0 3 5 6 7 10;
#X msg 763 208 0 2 4 6 8 10 0 2 4 6 8 10;
#X msg 304 131 0 2 4 5 7 9 11 70;
#X msg 320 152 0 2 3 5 7 9 10 70;
#X msg 334 174 0 1 3 5 7 8 10 70;
#X msg 346 197 0 2 4 6 7 9 11 70;
#X msg 358 220 0 2 4 5 7 9 10 70;
#X msg 371 243 0 2 3 5 7 8 10 70;
#X msg 388 267 0 1 3 5 6 8 10 70;
#X msg 493 110 0 2 3 5 6 8 9 11 80;
#X msg 510 132 0 1 3 4 6 7 9 10 80;
#X msg 526 154 0 2 4 7 9 0 2 4 7 9 100;
#X msg 545 175 0 3 5 7 10 0 3 5 7 10 100;
#X msg 557 198 0 1 4 5 7 8 11 70;
#X msg 572 219 0 1 4 6 7 9 11 70;
#X msg 584 239 0 1 3 6 7 8 11 70;
#X msg 597 259 0 1 3 4 5 7 8 10 80;
#X msg 611 279 0 2 3 6 7 8 11 70;
#X msg 623 300 0 2 4 5 6 8 10 70;
#X msg 678 107 0 2 5 7 10 0 2 5 7 10 100;
#X msg 696 128 0 2 3 7 9 0 2 3 7 9 100;
#X msg 713 149 0 1 3 7 8 0 1 3 7 8 100;
#X msg 728 169 0 1 5 7 8 0 1 5 7 8 100;
#X msg 746 189 0 4 5 7 11 0 4 5 7 11 100;
#X obj 292 348 unpack 0 0 0 0 0 0 0 0 0 0 0 0;
#X obj 157 425 f;
#X obj 194 425 f;
#X obj 231 425 f;
#X obj 268 425 f;
#X obj 305 425 f;
#X obj 342 425 f;
#X obj 379 425 f;
#X obj 433 446 f;
#X obj 415 424 sel 70;
#X msg 401 446 7;
#X obj 493 446 f;
#X obj 581 446 f;
#X obj 475 424 sel 80;
#X obj 521 446 f;
#X msg 461 446 8;
#X obj 549 423 sel 100;
#X msg 549 446 10;
#X obj 601 370 t b f;
#X msg 601 393 12;
#X obj 612 446 f;
#X obj 61 365 sel 0 1 2 3 4 5 6 7 8 9 10 11;
#X obj 401 487 s \$0-scale_random_range;
#X obj 61 341 r \$0-scale_random_note_set;
#X obj 157 520 outlet;
#X connect 0 0 1 0;
#X connect 0 1 11 0;
#X connect 0 2 12 0;
#X connect 0 3 13 0;
#X connect 0 4 14 0;
#X connect 0 5 15 0;
#X connect 0 6 16 0;
#X connect 0 7 17 0;
#X connect 0 8 8 0;
#X connect 0 9 9 0;
#X connect 0 10 18 0;
#X connect 0 11 19 0;
#X connect 0 12 20 0;
#X connect 0 13 21 0;
#X connect 0 14 22 0;
#X connect 0 15 23 0;
#X connect 0 16 24 0;
#X connect 0 17 25 0;
#X connect 0 18 26 0;
#X connect 0 19 27 0;
#X connect 0 20 28 0;
#X connect 0 21 29 0;
#X connect 0 22 30 0;
#X connect 0 23 31 0;
#X connect 0 24 32 0;
#X connect 0 25 10 0;
#X connect 0 26 7 0;
#X connect 0 27 6 0;
#X connect 0 28 5 0;
#X connect 0 29 4 0;
#X connect 0 30 3 0;
#X connect 1 0 33 0;
#X connect 2 0 0 0;
#X connect 3 0 33 0;
#X connect 4 0 33 0;
#X connect 5 0 33 0;
#X connect 6 0 33 0;
#X connect 7 0 33 0;
#X connect 8 0 33 0;
#X connect 9 0 33 0;
#X connect 10 0 33 0;
#X connect 11 0 33 0;
#X connect 12 0 33 0;
#X connect 13 0 33 0;
#X connect 14 0 33 0;
#X connect 15 0 33 0;
#X connect 16 0 33 0;
#X connect 17 0 33 0;
#X connect 18 0 33 0;
#X connect 19 0 33 0;
#X connect 20 0 33 0;
#X connect 21 0 33 0;
#X connect 22 0 33 0;
#X connect 23 0 33 0;
#X connect 24 0 33 0;
#X connect 25 0 33 0;
#X connect 26 0 33 0;
#X connect 27 0 33 0;
#X connect 28 0 33 0;
#X connect 29 0 33 0;
#X connect 30 0 33 0;
#X connect 31 0 33 0;
#X connect 32 0 33 0;
#X connect 33 0 34 1;
#X connect 33 1 35 1;
#X connect 33 2 36 1;
#X connect 33 3 37 1;
#X connect 33 4 38 1;
#X connect 33 5 39 1;
#X connect 33 6 40 1;
#X connect 33 7 42 0;
#X connect 33 8 46 0;
#X connect 33 9 47 1;
#X connect 33 10 49 0;
#X connect 33 11 51 0;
#X connect 34 0 57 0;
#X connect 35 0 57 0;
#X connect 36 0 57 0;
#X connect 37 0 57 0;
#X connect 38 0 57 0;
#X connect 39 0 57 0;
#X connect 40 0 57 0;
#X connect 41 0 57 0;
#X connect 42 0 43 0;
#X connect 42 1 41 1;
#X connect 43 0 55 0;
#X connect 44 0 57 0;
#X connect 45 0 57 0;
#X connect 46 0 48 0;
#X connect 46 1 44 1;
#X connect 47 0 57 0;
#X connect 48 0 55 0;
#X connect 49 0 50 0;
#X connect 49 1 45 1;
#X connect 50 0 55 0;
#X connect 51 0 52 0;
#X connect 51 1 53 1;
#X connect 52 0 55 0;
#X connect 53 0 57 0;
#X connect 54 0 34 0;
#X connect 54 1 35 0;
#X connect 54 2 36 0;
#X connect 54 3 37 0;
#X connect 54 4 38 0;
#X connect 54 5 39 0;
#X connect 54 6 40 0;
#X connect 54 7 41 0;
#X connect 54 8 44 0;
#X connect 54 9 47 0;
#X connect 54 10 45 0;
#X connect 54 11 53 0;
#X connect 56 0 54 0;
#X restore 68 227 pd scale_select;
#X obj 68 254 + 0;
#X obj 68 275 % 12;
#X obj 68 23 loadbang;
#X obj 68 171 s \$0-key_r;
#X obj 108 253 r \$0-key_s;
#X msg 68 145 names C C# D D# E F F# G G# A A# B;
#X obj 287 200 s \$0-scale_r;
#X obj 68 204 r \$0-scale_s;
#X obj 68 48 t b b;
#X msg 68 77 0;
#X obj 68 301 tabwrite \$0-Note;
#X obj 203 280 r \$0-write_notetable_index;
#X connect 0 0 8 0;
#X connect 1 0 2 0;
#X connect 2 0 3 0;
#X connect 3 0 12 0;
#X connect 4 0 10 0;
#X connect 6 0 2 1;
#X connect 7 0 5 0;
#X connect 9 0 1 0;
#X connect 10 0 11 0;
#X connect 10 1 0 0;
#X connect 10 1 7 0;
#X connect 11 0 8 0;
#X connect 11 0 5 0;
#X connect 13 0 12 1;
#X restore 234 362 pd selectKeyScale;
#N canvas 135 22 371 347 copyNote 0;
#X obj 54 145 until;
#X obj 54 105 t b b;
#X msg 54 125 64;
#X obj 54 165 counter 63;
#X obj 54 186 t f f;
#X obj 54 208 % 16;
#X obj 54 50 r \$0-scale_copy_b_s;
#X obj 127 163 r \$0-scale_copy_num_s;
#X obj 127 141 s \$0-scale_copy_num_r;
#X obj 127 71 r \$0-scale_copy_radio_s;
#X obj 127 93 sel 0 1 2 3;
#X msg 127 116 4;
#X msg 157 116 8;
#X msg 187 116 16;
#X msg 217 116 32;
#X obj 54 230 tabread \$0-Note;
#X obj 54 250 tabwrite \$0-Note;
#X connect 0 0 3 0;
#X connect 1 0 2 0;
#X connect 1 1 3 2;
#X connect 2 0 0 0;
#X connect 3 0 4 0;
#X connect 4 0 5 0;
#X connect 4 1 16 1;
#X connect 5 0 15 0;
#X connect 6 0 1 0;
#X connect 7 0 5 1;
#X connect 9 0 10 0;
#X connect 10 0 11 0;
#X connect 10 1 12 0;
#X connect 10 2 13 0;
#X connect 10 3 14 0;
#X connect 11 0 8 0;
#X connect 12 0 8 0;
#X connect 13 0 8 0;
#X connect 14 0 8 0;
#X connect 15 0 16 0;
#X restore 234 400 pd copyNote;
#N canvas 612 130 431 496 randomNote 0;
#X msg 101 106 64;
#X obj 101 126 until;
#X obj 101 146 counter 63;
#X obj 101 86 t b b;
#X obj 150 351 random 12;
#X obj 201 257 r \$0-scale_random_range;
#X obj 67 381 s \$0-scale_random_note_set;
#X obj 101 166 t b f;
#X obj 98 211 r \$0-scale_random_mode_radio;
#X obj 149 233 * -1;
#X obj 149 255 + 1;
#X obj 67 277 spigot;
#X obj 116 277 spigot;
#X obj 101 65 r \$0-scale_random_b_s;
#X obj 128 188 s \$0-write_notetable_index;
#X obj 67 351 drunk 12 2;
#X msg 216 307 set 0;
#X obj 216 283 t b;
#X obj 157 299 - 1;
#X connect 0 0 1 0;
#X connect 1 0 2 0;
#X connect 2 0 7 0;
#X connect 3 0 0 0;
#X connect 3 1 2 2;
#X connect 4 0 6 0;
#X connect 5 0 4 1;
#X connect 5 0 17 0;
#X connect 5 0 18 0;
#X connect 7 0 12 0;
#X connect 7 0 11 0;
#X connect 7 1 14 0;
#X connect 8 0 9 0;
#X connect 8 0 11 1;
#X connect 9 0 10 0;
#X connect 10 0 12 1;
#X connect 11 0 15 0;
#X connect 12 0 4 0;
#X connect 13 0 3 0;
#X connect 15 0 6 0;
#X connect 16 0 15 0;
#X connect 17 0 16 0;
#X connect 18 0 15 1;
#X restore 234 381 pd randomNote;
#N canvas 124 22 904 483 shiftNote 0;
#X obj 53 149 t f f;
#X msg 53 85 64;
#X obj 53 105 until;
#X obj 53 125 counter 63;
#X obj 53 64 t b b;
#X obj 53 222 mod 12;
#X obj 233 149 t f f;
#X msg 233 85 64;
#X obj 233 105 until;
#X obj 233 125 counter 63;
#X obj 233 64 t b b;
#X obj 233 221 mod 12;
#X obj 53 43 r \$0-shift_up;
#X obj 233 41 r \$0-shift_down;
#X obj 68 329 r \$0-key_s;
#X obj 53 354 f 0;
#X obj 53 376 + 1;
#X obj 53 420 s \$0-key_r;
#X obj 53 306 r \$0-shift_up;
#X obj 53 397 mod 12;
#X obj 248 329 r \$0-key_s;
#X obj 233 354 f 0;
#X obj 233 420 s \$0-key_r;
#X obj 233 397 mod 12;
#X obj 233 306 r \$0-shift_down;
#X obj 233 376 - 1;
#X obj 53 242 tabwrite \$0-Note;
#X obj 233 171 tabread \$0-Note;
#X obj 233 245 tabwrite \$0-Note;
#X obj 53 197 + 1;
#X obj 233 196 - 1;
#X obj 53 172 tabread \$0-Note;
#X obj 435 176 + 1;
#X obj 435 153 t f f;
#X msg 488 198 0;
#X obj 473 249 f;
#X obj 435 223 sel 0;
#X obj 655 201 t f f;
#X obj 693 299 f;
#X obj 655 177 * -1;
#X obj 655 269 sel -1;
#X obj 655 224 - 1;
#X msg 435 89 64;
#X obj 435 109 until;
#X obj 435 129 counter 63;
#X msg 655 89 64;
#X obj 655 109 until;
#X obj 655 129 counter 63;
#X obj 435 199 % 64;
#X obj 435 66 t b b b;
#X obj 655 67 t b b b;
#X msg 708 244 63;
#X obj 655 152 - 63;
#X obj 655 247 % 63;
#X obj 435 41 r \$0-shift_left;
#X obj 655 41 r \$0-shift_right;
#X obj 488 223 tabread \$0-Note;
#X obj 708 269 tabread \$0-Note;
#X obj 435 281 tabread \$0-Note;
#X obj 435 311 tabwrite \$0-Note;
#X obj 655 321 tabread \$0-Note;
#X obj 655 351 tabwrite \$0-Note;
#X connect 0 0 31 0;
#X connect 0 1 26 1;
#X connect 1 0 2 0;
#X connect 2 0 3 0;
#X connect 3 0 0 0;
#X connect 4 0 1 0;
#X connect 4 1 3 2;
#X connect 5 0 26 0;
#X connect 6 0 27 0;
#X connect 6 1 28 1;
#X connect 7 0 8 0;
#X connect 8 0 9 0;
#X connect 9 0 6 0;
#X connect 10 0 7 0;
#X connect 10 1 9 2;
#X connect 11 0 28 0;
#X connect 12 0 4 0;
#X connect 13 0 10 0;
#X connect 14 0 15 1;
#X connect 15 0 16 0;
#X connect 16 0 19 0;
#X connect 18 0 15 0;
#X connect 19 0 17 0;
#X connect 20 0 21 1;
#X connect 21 0 25 0;
#X connect 23 0 22 0;
#X connect 24 0 21 0;
#X connect 25 0 23 0;
#X connect 27 0 30 0;
#X connect 29 0 5 0;
#X connect 30 0 11 0;
#X connect 31 0 29 0;
#X connect 32 0 48 0;
#X connect 33 0 32 0;
#X connect 33 1 59 1;
#X connect 34 0 56 0;
#X connect 35 0 59 0;
#X connect 36 0 35 0;
#X connect 36 1 58 0;
#X connect 37 0 41 0;
#X connect 37 1 61 1;
#X connect 38 0 61 0;
#X connect 39 0 37 0;
#X connect 40 0 38 0;
#X connect 40 1 60 0;
#X connect 41 0 53 0;
#X connect 42 0 43 0;
#X connect 43 0 44 0;
#X connect 44 0 33 0;
#X connect 45 0 46 0;
#X connect 46 0 47 0;
#X connect 47 0 52 0;
#X connect 48 0 36 0;
#X connect 49 0 42 0;
#X connect 49 1 44 2;
#X connect 49 2 34 0;
#X connect 50 0 45 0;
#X connect 50 1 47 2;
#X connect 50 2 51 0;
#X connect 51 0 57 0;
#X connect 52 0 39 0;
#X connect 53 0 40 0;
#X connect 54 0 49 0;
#X connect 55 0 50 0;
#X connect 56 0 35 1;
#X connect 57 0 38 1;
#X connect 58 0 59 0;
#X connect 60 0 61 0;
#X restore 234 419 pd shiftNote;
#N canvas 313 22 618 436 randomOctave 0;
#X obj 316 250 funnel 5;
#X msg 316 272 \$2 \$1;
#X obj 278 220 - 1;
#X obj 308 220 - 1;
#X obj 338 220 - 1;
#X obj 368 220 - 1;
#X obj 338 195 * 4;
#X obj 398 220 - 1;
#X obj 316 293 tabwrite \$0-oct_random_tgl;
#X obj 273 76 r \$0-oct_tgl0;
#X obj 283 96 r \$0-oct_tgl1;
#X obj 293 116 r \$0-oct_tgl2;
#X obj 303 136 r \$0-oct_tgl3;
#X obj 313 156 r \$0-oct_tgl4;
#X obj 315 322 table \$0-oct_random_tgl 5;
#X msg 64 122 64;
#X obj 64 142 until;
#X obj 64 162 counter 63;
#X obj 64 102 t b b;
#X obj 64 231 random 5;
#X obj 64 186 t b f;
#X obj 64 276 sel -1;
#X obj 97 300 - 1;
#X obj 64 253 tabread \$0-oct_random_tgl;
#X obj 64 78 r \$0-oct_random_b_s;
#X obj 67 329 tabwrite \$0-Octave;
#X obj 278 195 * 6;
#X obj 308 195 * 5;
#X obj 368 195 * 3;
#X obj 398 195 * 2;
#X connect 0 0 1 0;
#X connect 1 0 8 0;
#X connect 2 0 0 0;
#X connect 3 0 0 1;
#X connect 4 0 0 2;
#X connect 5 0 0 3;
#X connect 6 0 4 0;
#X connect 7 0 0 4;
#X connect 9 0 26 0;
#X connect 10 0 27 0;
#X connect 11 0 6 0;
#X connect 12 0 28 0;
#X connect 13 0 29 0;
#X connect 15 0 16 0;
#X connect 16 0 17 0;
#X connect 17 0 20 0;
#X connect 18 0 15 0;
#X connect 18 1 17 2;
#X connect 19 0 23 0;
#X connect 20 0 19 0;
#X connect 20 1 25 1;
#X connect 21 1 22 0;
#X connect 22 0 25 0;
#X connect 23 0 21 0;
#X connect 24 0 18 0;
#X connect 26 0 2 0;
#X connect 27 0 3 0;
#X connect 28 0 5 0;
#X connect 29 0 7 0;
#X restore 356 362 pd randomOctave;
#N canvas 161 22 371 370 copyOctave 0;
#X obj 54 145 until;
#X obj 54 105 t b b;
#X msg 54 125 64;
#X obj 54 165 counter 63;
#X obj 54 186 t f f;
#X obj 54 208 % 16;
#X obj 127 93 sel 0 1 2 3;
#X msg 127 116 4;
#X msg 157 116 8;
#X msg 187 116 16;
#X msg 217 116 32;
#X obj 54 50 r \$0-oct_copy_b_s;
#X obj 127 71 r \$0-oct_copy_radio_s;
#X obj 127 141 s \$0-oct_copy_num_r;
#X obj 127 163 r \$0-oct_copy_num_s;
#X obj 54 230 tabread \$0-Octave;
#X obj 54 250 tabwrite \$0-Octave;
#X connect 0 0 3 0;
#X connect 1 0 2 0;
#X connect 1 1 3 2;
#X connect 2 0 0 0;
#X connect 3 0 4 0;
#X connect 4 0 5 0;
#X connect 4 1 16 1;
#X connect 5 0 15 0;
#X connect 6 0 7 0;
#X connect 6 1 8 0;
#X connect 6 2 9 0;
#X connect 6 3 10 0;
#X connect 7 0 13 0;
#X connect 8 0 13 0;
#X connect 9 0 13 0;
#X connect 10 0 13 0;
#X connect 11 0 1 0;
#X connect 12 0 6 0;
#X connect 14 0 5 1;
#X connect 15 0 16 0;
#X restore 356 381 pd copyOctave;
#N canvas 315 22 529 528 shiftOctave 0;
#X obj 50 184 + 1;
#X obj 50 161 t f f;
#X msg 103 206 0;
#X obj 88 257 f;
#X obj 50 231 sel 0;
#X obj 270 209 t f f;
#X obj 308 307 f;
#X obj 270 185 * -1;
#X obj 270 277 sel -1;
#X obj 270 232 - 1;
#X msg 50 97 64;
#X obj 50 117 until;
#X obj 50 137 counter 63;
#X msg 270 97 64;
#X obj 270 117 until;
#X obj 270 137 counter 63;
#X obj 50 207 % 64;
#X obj 50 74 t b b b;
#X obj 270 75 t b b b;
#X msg 323 252 63;
#X obj 270 160 - 63;
#X obj 270 255 % 63;
#X obj 50 49 r \$0-oct_shift_left;
#X obj 270 49 r \$0-oct_shift_right;
#X obj 103 231 tabread \$0-Octave;
#X obj 323 277 tabread \$0-Octave;
#X obj 50 289 tabread \$0-Octave;
#X obj 270 329 tabread \$0-Octave;
#X obj 50 319 tabwrite \$0-Octave;
#X obj 270 359 tabwrite \$0-Octave;
#X connect 0 0 16 0;
#X connect 1 0 0 0;
#X connect 1 1 28 1;
#X connect 2 0 24 0;
#X connect 3 0 28 0;
#X connect 4 0 3 0;
#X connect 4 1 26 0;
#X connect 5 0 9 0;
#X connect 5 1 29 1;
#X connect 6 0 29 0;
#X connect 7 0 5 0;
#X connect 8 0 6 0;
#X connect 8 1 27 0;
#X connect 9 0 21 0;
#X connect 10 0 11 0;
#X connect 11 0 12 0;
#X connect 12 0 1 0;
#X connect 13 0 14 0;
#X connect 14 0 15 0;
#X connect 15 0 20 0;
#X connect 16 0 4 0;
#X connect 17 0 10 0;
#X connect 17 1 12 2;
#X connect 17 2 2 0;
#X connect 18 0 13 0;
#X connect 18 1 15 2;
#X connect 18 2 19 0;
#X connect 19 0 25 0;
#X connect 20 0 7 0;
#X connect 21 0 8 0;
#X connect 22 0 17 0;
#X connect 23 0 18 0;
#X connect 24 0 3 1;
#X connect 25 0 6 1;
#X connect 26 0 28 0;
#X connect 27 0 29 0;
#X restore 356 400 pd shiftOctave;
#N canvas 204 22 262 242 slideAllOctave 0;
#X obj 46 124 t b f;
#N canvas 341 125 150 161 until_counter_63 0;
#X obj 26 25 inlet;
#X obj 26 90 until;
#X obj 26 47 t b b;
#X obj 26 134 outlet;
#X obj 26 111 counter 63;
#X msg 26 68 64;
#X connect 0 0 2 0;
#X connect 1 0 4 0;
#X connect 2 0 5 0;
#X connect 2 1 4 2;
#X connect 4 0 3 0;
#X connect 5 0 1 0;
#X restore 46 102 pd until_counter_63;
#X obj 46 79 t b f;
#X obj 46 168 tabwrite \$0-Octave;
#X obj 46 54 r \$0-oct_all_s;
#X obj 46 146 int;
#X connect 0 0 5 0;
#X connect 0 1 3 1;
#X connect 1 0 0 0;
#X connect 2 0 1 0;
#X connect 2 1 5 1;
#X connect 4 0 2 0;
#X connect 5 0 3 0;
#X restore 356 419 pd slideAllOctave;
#N canvas 936 22 450 369 randomVelocity 0;
#X obj 84 213 random 101;
#X obj 84 265 * 0.01;
#X obj 73 126 random 100;
#X obj 73 148 < 100;
#X obj 73 169 sel 0 1;
#X msg 73 191 0;
#X obj 73 104 t b f;
#X obj 74 287 tabwrite \$0-Velo;
#N canvas 341 125 150 161 until_counter_63 0;
#X obj 26 25 inlet;
#X obj 26 90 until;
#X obj 26 47 t b b;
#X obj 26 134 outlet;
#X obj 26 111 counter 63;
#X msg 26 68 64;
#X connect 0 0 2 0;
#X connect 1 0 4 0;
#X connect 2 0 5 0;
#X connect 2 1 4 2;
#X connect 4 0 3 0;
#X connect 5 0 1 0;
#X restore 73 82 pd until_counter_63;
#X obj 73 60 r \$0-velo_random_b_s;
#X obj 114 104 r \$0-velo_random_range_num_s;
#X obj 184 148 r \$0-velo_random_max_num_s;
#X obj 141 193 + 1;
#X obj 204 168 r \$0-velo_random_min_num_s;
#X obj 184 229 -;
#X obj 84 238 +;
#X obj 204 193 t b f f;
#X connect 0 0 15 0;
#X connect 1 0 7 0;
#X connect 2 0 3 0;
#X connect 3 0 4 0;
#X connect 4 0 5 0;
#X connect 4 1 0 0;
#X connect 5 0 7 0;
#X connect 6 0 2 0;
#X connect 6 1 7 1;
#X connect 8 0 6 0;
#X connect 9 0 8 0;
#X connect 10 0 3 1;
#X connect 11 0 14 0;
#X connect 12 0 0 1;
#X connect 13 0 16 0;
#X connect 14 0 12 0;
#X connect 15 0 1 0;
#X connect 16 0 14 0;
#X connect 16 1 14 1;
#X connect 16 2 15 1;
#X restore 478 362 pd randomVelocity;
#N canvas 0 22 371 370 copyVelocity 0;
#X obj 54 145 until;
#X obj 54 105 t b b;
#X msg 54 125 64;
#X obj 54 165 counter 63;
#X obj 54 186 t f f;
#X obj 54 208 % 16;
#X obj 127 93 sel 0 1 2 3;
#X msg 127 116 4;
#X msg 157 116 8;
#X msg 187 116 16;
#X msg 217 116 32;
#X obj 54 50 r \$0-velo_copy_b_s;
#X obj 127 71 r \$0-velo_copy_radio_s;
#X obj 127 141 s \$0-velo_copy_num_r;
#X obj 127 163 r \$0-velo_copy_num_s;
#X obj 54 230 tabread \$0-Velo;
#X obj 54 254 tabwrite \$0-Velo;
#X connect 0 0 3 0;
#X connect 1 0 2 0;
#X connect 1 1 3 2;
#X connect 2 0 0 0;
#X connect 3 0 4 0;
#X connect 4 0 5 0;
#X connect 4 1 16 1;
#X connect 5 0 15 0;
#X connect 6 0 7 0;
#X connect 6 1 8 0;
#X connect 6 2 9 0;
#X connect 6 3 10 0;
#X connect 7 0 13 0;
#X connect 8 0 13 0;
#X connect 9 0 13 0;
#X connect 10 0 13 0;
#X connect 11 0 1 0;
#X connect 12 0 6 0;
#X connect 14 0 5 1;
#X connect 15 0 16 0;
#X restore 478 381 pd copyVelocity;
#N canvas 845 22 529 482 shiftVelocity 0;
#X obj 50 184 + 1;
#X obj 50 161 t f f;
#X msg 103 206 0;
#X obj 88 257 f;
#X obj 50 231 sel 0;
#X obj 270 209 t f f;
#X obj 308 307 f;
#X obj 270 185 * -1;
#X obj 270 277 sel -1;
#X obj 270 232 - 1;
#X msg 50 97 64;
#X obj 50 117 until;
#X obj 50 137 counter 63;
#X msg 270 97 64;
#X obj 270 117 until;
#X obj 270 137 counter 63;
#X obj 50 207 % 64;
#X obj 50 74 t b b b;
#X obj 270 75 t b b b;
#X msg 323 252 63;
#X obj 270 160 - 63;
#X obj 270 255 % 63;
#X obj 50 49 r \$0-velo_shift_left;
#X obj 270 49 r \$0-velo_shift_right;
#X obj 103 231 tabread \$0-Velo;
#X obj 323 277 tabread \$0-Velo;
#X obj 50 289 tabread \$0-Velo;
#X obj 50 319 tabwrite \$0-Velo;
#X obj 270 329 tabread \$0-Velo;
#X obj 270 359 tabwrite \$0-Velo;
#X connect 0 0 16 0;
#X connect 1 0 0 0;
#X connect 1 1 27 1;
#X connect 2 0 24 0;
#X connect 3 0 27 0;
#X connect 4 0 3 0;
#X connect 4 1 26 0;
#X connect 5 0 9 0;
#X connect 5 1 29 1;
#X connect 6 0 29 0;
#X connect 7 0 5 0;
#X connect 8 0 6 0;
#X connect 8 1 28 0;
#X connect 9 0 21 0;
#X connect 10 0 11 0;
#X connect 11 0 12 0;
#X connect 12 0 1 0;
#X connect 13 0 14 0;
#X connect 14 0 15 0;
#X connect 15 0 20 0;
#X connect 16 0 4 0;
#X connect 17 0 10 0;
#X connect 17 1 12 2;
#X connect 17 2 2 0;
#X connect 18 0 13 0;
#X connect 18 1 15 2;
#X connect 18 2 19 0;
#X connect 19 0 25 0;
#X connect 20 0 7 0;
#X connect 21 0 8 0;
#X connect 22 0 17 0;
#X connect 23 0 18 0;
#X connect 24 0 3 1;
#X connect 25 0 6 1;
#X connect 26 0 27 0;
#X connect 28 0 29 0;
#X restore 478 400 pd shiftVelocity;
#N canvas 541 23 587 324 copyAll 0;
#X obj 54 145 until;
#X obj 54 105 t b b;
#X msg 54 125 64;
#X obj 54 165 counter 63;
#X obj 54 208 % 16;
#X obj 127 93 sel 0 1 2 3;
#X msg 127 116 4;
#X msg 157 116 8;
#X msg 187 116 16;
#X msg 217 116 32;
#X obj 54 257 tabread \$0-Note;
#X obj 54 283 tabwrite \$0-Note;
#X obj 54 50 r \$0-all_copy_b_s;
#X obj 127 71 r \$0-all_copy_radio_s;
#X obj 127 141 s \$0-all_copy_num_r;
#X obj 127 163 r \$0-all_copy_num_s;
#X obj 204 258 tabread \$0-Octave;
#X obj 204 283 tabwrite \$0-Octave;
#X obj 54 186 t f f f f;
#X obj 54 233 t f f f;
#X obj 367 259 tabread \$0-Velo;
#X obj 367 283 tabwrite \$0-Velo;
#X connect 0 0 3 0;
#X connect 1 0 2 0;
#X connect 1 1 3 2;
#X connect 2 0 0 0;
#X connect 3 0 18 0;
#X connect 4 0 19 0;
#X connect 5 0 6 0;
#X connect 5 1 7 0;
#X connect 5 2 8 0;
#X connect 5 3 9 0;
#X connect 6 0 14 0;
#X connect 7 0 14 0;
#X connect 8 0 14 0;
#X connect 9 0 14 0;
#X connect 10 0 11 0;
#X connect 12 0 1 0;
#X connect 13 0 5 0;
#X connect 15 0 4 1;
#X connect 16 0 17 0;
#X connect 18 0 4 0;
#X connect 18 1 11 1;
#X connect 18 2 17 1;
#X connect 18 3 21 1;
#X connect 19 0 10 0;
#X connect 19 1 16 0;
#X connect 19 2 20 0;
#X connect 20 0 21 0;
#X restore 606 362 pd copyAll;
#N canvas 186 23 908 407 randomAll 0;
#X msg 71 66 64;
#X obj 71 86 until;
#X obj 71 106 counter 63;
#X obj 71 46 t b b;
#X obj 120 351 random 12;
#X obj 171 257 r \$0-scale_random_range;
#X obj 37 381 s \$0-scale_random_note_set;
#X obj 71 166 t b f;
#X obj 68 211 r \$0-scale_random_mode_radio;
#X obj 119 233 * -1;
#X obj 119 255 + 1;
#X obj 37 277 spigot;
#X obj 86 277 spigot;
#X obj 98 188 s \$0-write_notetable_index;
#X obj 37 351 drunk 12 2;
#X msg 186 307 set 0;
#X obj 186 283 t b;
#X obj 127 299 - 1;
#X obj 71 25 r \$0-all_random_b_s;
#X obj 550 307 random 101;
#X obj 550 359 * 0.01;
#X obj 539 220 random 100;
#X obj 539 242 < 100;
#X obj 539 263 sel 0 1;
#X msg 539 285 0;
#X obj 539 198 t b f;
#X obj 540 381 tabwrite \$0-Velo;
#X obj 580 198 r \$0-velo_random_range_num_s;
#X obj 650 242 r \$0-velo_random_max_num_s;
#X obj 607 287 + 1;
#X obj 670 262 r \$0-velo_random_min_num_s;
#X obj 650 323 -;
#X obj 550 332 +;
#X obj 670 287 t b f f;
#X obj 326 283 random 5;
#X obj 326 261 t b f;
#X obj 326 328 sel -1;
#X obj 359 352 - 1;
#X obj 326 305 tabread \$0-oct_random_tgl;
#X obj 329 381 tabwrite \$0-Octave;
#X obj 71 131 t f f f;
#X connect 0 0 1 0;
#X connect 1 0 2 0;
#X connect 2 0 40 0;
#X connect 3 0 0 0;
#X connect 3 1 2 2;
#X connect 4 0 6 0;
#X connect 5 0 4 1;
#X connect 5 0 16 0;
#X connect 5 0 17 0;
#X connect 7 0 12 0;
#X connect 7 0 11 0;
#X connect 7 1 13 0;
#X connect 8 0 9 0;
#X connect 8 0 11 1;
#X connect 9 0 10 0;
#X connect 10 0 12 1;
#X connect 11 0 14 0;
#X connect 12 0 4 0;
#X connect 14 0 6 0;
#X connect 15 0 14 0;
#X connect 16 0 15 0;
#X connect 17 0 14 1;
#X connect 18 0 3 0;
#X connect 19 0 32 0;
#X connect 20 0 26 0;
#X connect 21 0 22 0;
#X connect 22 0 23 0;
#X connect 23 0 24 0;
#X connect 23 1 19 0;
#X connect 24 0 26 0;
#X connect 25 0 21 0;
#X connect 25 1 26 1;
#X connect 27 0 22 1;
#X connect 28 0 31 0;
#X connect 29 0 19 1;
#X connect 30 0 33 0;
#X connect 31 0 29 0;
#X connect 32 0 20 0;
#X connect 33 0 31 0;
#X connect 33 1 31 1;
#X connect 33 2 32 1;
#X connect 34 0 38 0;
#X connect 35 0 34 0;
#X connect 35 1 39 1;
#X connect 36 1 37 0;
#X connect 37 0 39 0;
#X connect 38 0 36 0;
#X connect 40 0 7 0;
#X connect 40 1 35 0;
#X connect 40 2 25 0;
#X restore 606 381 pd randomAll;
#N canvas 0 22 1005 482 shiftAll 0;
#X obj 50 184 + 1;
#X obj 50 161 t f f;
#X msg 103 206 0;
#X obj 88 317 f;
#X obj 50 231 sel 0;
#X obj 630 209 t f f;
#X obj 668 357 f;
#X obj 630 185 * -1;
#X obj 630 277 sel -1;
#X obj 630 232 - 1;
#X msg 50 97 64;
#X obj 50 117 until;
#X obj 50 137 counter 63;
#X msg 630 97 64;
#X obj 630 117 until;
#X obj 630 137 counter 63;
#X obj 50 207 % 64;
#X obj 50 74 t b b b;
#X obj 630 75 t b b b;
#X msg 683 252 63;
#X obj 630 160 - 63;
#X obj 630 255 % 63;
#X obj 103 231 tabread \$0-Note;
#X obj 683 277 tabread \$0-Note;
#X obj 50 349 tabread \$0-Note;
#X obj 50 379 tabwrite \$0-Note;
#X obj 630 379 tabread \$0-Note;
#X obj 630 409 tabwrite \$0-Note;
#X obj 50 49 r \$0-all_shift_left;
#X obj 630 49 r \$0-all_shift_right;
#X msg 260 206 0;
#X obj 245 317 f;
#X obj 260 231 tabread \$0-Octave;
#X obj 207 349 tabread \$0-Octave;
#X obj 207 379 tabwrite \$0-Octave;
#X msg 425 206 0;
#X obj 410 317 f;
#X obj 425 231 tabread \$0-Velo;
#X obj 372 349 tabread \$0-Velo;
#X obj 372 379 tabwrite \$0-Velo;
#X obj 842 356 f;
#X msg 857 251 63;
#X obj 857 276 tabread \$0-Octave;
#X obj 804 378 tabread \$0-Octave;
#X obj 804 408 tabwrite \$0-Octave;
#X obj 1025 356 f;
#X msg 1040 251 63;
#X obj 1040 276 tabread \$0-Velo;
#X obj 987 378 tabread \$0-Velo;
#X obj 987 408 tabwrite \$0-Velo;
#X obj 50 254 t b b b;
#X obj 630 303 t b b b;
#X connect 0 0 16 0;
#X connect 1 0 0 0;
#X connect 1 1 25 1;
#X connect 1 1 34 1;
#X connect 1 1 39 1;
#X connect 2 0 22 0;
#X connect 3 0 25 0;
#X connect 4 0 50 0;
#X connect 4 1 24 0;
#X connect 4 1 33 0;
#X connect 4 1 38 0;
#X connect 5 0 9 0;
#X connect 5 1 27 1;
#X connect 5 1 44 1;
#X connect 5 1 49 1;
#X connect 6 0 27 0;
#X connect 7 0 5 0;
#X connect 8 0 51 0;
#X connect 8 1 26 0;
#X connect 8 1 43 0;
#X connect 8 1 48 0;
#X connect 9 0 21 0;
#X connect 10 0 11 0;
#X connect 11 0 12 0;
#X connect 12 0 1 0;
#X connect 13 0 14 0;
#X connect 14 0 15 0;
#X connect 15 0 20 0;
#X connect 16 0 4 0;
#X connect 17 0 10 0;
#X connect 17 1 12 2;
#X connect 17 2 2 0;
#X connect 17 2 30 0;
#X connect 17 2 35 0;
#X connect 18 0 13 0;
#X connect 18 1 15 2;
#X connect 18 2 19 0;
#X connect 18 2 41 0;
#X connect 18 2 46 0;
#X connect 19 0 23 0;
#X connect 20 0 7 0;
#X connect 21 0 8 0;
#X connect 22 0 3 1;
#X connect 23 0 6 1;
#X connect 24 0 25 0;
#X connect 26 0 27 0;
#X connect 28 0 17 0;
#X connect 29 0 18 0;
#X connect 30 0 32 0;
#X connect 31 0 34 0;
#X connect 32 0 31 1;
#X connect 33 0 34 0;
#X connect 35 0 37 0;
#X connect 36 0 39 0;
#X connect 37 0 36 1;
#X connect 38 0 39 0;
#X connect 40 0 44 0;
#X connect 41 0 42 0;
#X connect 42 0 40 1;
#X connect 43 0 44 0;
#X connect 45 0 49 0;
#X connect 46 0 47 0;
#X connect 47 0 45 1;
#X connect 48 0 49 0;
#X connect 50 0 3 0;
#X connect 50 1 31 0;
#X connect 50 2 36 0;
#X connect 51 0 6 0;
#X connect 51 1 40 0;
#X connect 51 2 45 0;
#X restore 606 400 pd shiftAll;
#N canvas 74 23 1132 402 storeAll 0;
#X obj 583 198 t b f;
#X obj 583 243 t f f;
#N canvas 341 125 150 161 until_counter_63 0;
#X obj 26 25 inlet;
#X obj 26 90 until;
#X obj 26 47 t b b;
#X obj 26 134 outlet;
#X obj 26 111 counter 63;
#X msg 26 68 64;
#X connect 0 0 2 0;
#X connect 1 0 4 0;
#X connect 2 0 5 0;
#X connect 2 1 4 2;
#X connect 4 0 3 0;
#X connect 5 0 1 0;
#X restore 583 220 pd until_counter_63;
#X obj 583 338 tabwrite \$0-note-table-0;
#X msg 610 314 set \$0-note-table-\$1;
#X floatatom 553 178 5 0 0 0 - - -, f 5;
#X floatatom 504 148 5 0 0 0 - - -, f 5;
#X msg 553 129 set \$1;
#X msg 553 154 0;
#X obj 583 290 tabread \$0-Note;
#X obj 504 98 t f f b;
#X obj 562 78 loadbang;
#X msg 562 103 0;
#X text 429 148 current num;
#X text 589 178 previous num;
#X obj 39 218 t b f;
#X obj 39 263 t f f;
#N canvas 341 125 150 161 until_counter_63 0;
#X obj 26 25 inlet;
#X obj 26 90 until;
#X obj 26 47 t b b;
#X obj 26 134 outlet;
#X obj 26 111 counter 63;
#X msg 26 68 64;
#X connect 0 0 2 0;
#X connect 1 0 4 0;
#X connect 2 0 5 0;
#X connect 2 1 4 2;
#X connect 4 0 3 0;
#X connect 5 0 1 0;
#X restore 39 240 pd until_counter_63;
#X obj 39 338 tabwrite \$0-Note;
#X msg 88 285 set \$0-note-table-\$1;
#X obj 39 310 tabread \$0-note-table-0;
#X obj 743 290 tabread \$0-Octave;
#X msg 770 314 set \$0-oct-table-\$1;
#X obj 743 338 tabwrite \$0-oct-table-0;
#X obj 903 290 tabread \$0-Velo;
#X msg 930 314 set \$0-velo-table-\$1;
#X obj 903 338 tabwrite \$0-velo-table-0;
#X msg 238 285 set \$0-oct-table-\$1;
#X obj 189 310 tabread \$0-oct-table-0;
#X obj 189 338 tabwrite \$0-Octave;
#X obj 349 338 tabwrite \$0-Velo;
#X obj 349 310 tabread \$0-velo-table-0;
#X msg 398 285 set \$0-velo-table-\$1;
#X obj 504 35 r \$0-store-radio;
#X obj 504 67 change;
#X connect 0 0 2 0;
#X connect 0 1 4 0;
#X connect 0 1 22 0;
#X connect 0 1 25 0;
#X connect 1 0 9 0;
#X connect 1 0 21 0;
#X connect 1 0 24 0;
#X connect 1 1 3 1;
#X connect 1 1 23 1;
#X connect 1 1 26 1;
#X connect 2 0 1 0;
#X connect 4 0 3 0;
#X connect 5 0 0 0;
#X connect 6 0 15 0;
#X connect 7 0 8 0;
#X connect 8 0 5 0;
#X connect 9 0 3 0;
#X connect 10 0 6 0;
#X connect 10 1 7 0;
#X connect 10 2 8 0;
#X connect 11 0 12 0;
#X connect 12 0 7 0;
#X connect 15 0 17 0;
#X connect 15 1 19 0;
#X connect 15 1 27 0;
#X connect 15 1 32 0;
#X connect 16 0 20 0;
#X connect 16 0 28 0;
#X connect 16 0 31 0;
#X connect 16 1 18 1;
#X connect 16 1 29 1;
#X connect 16 1 30 1;
#X connect 17 0 16 0;
#X connect 19 0 20 0;
#X connect 20 0 18 0;
#X connect 21 0 23 0;
#X connect 22 0 23 0;
#X connect 24 0 26 0;
#X connect 25 0 26 0;
#X connect 27 0 28 0;
#X connect 28 0 29 0;
#X connect 31 0 30 0;
#X connect 32 0 31 0;
#X connect 33 0 34 0;
#X connect 34 0 10 0;
#X restore 703 362 pd storeAll;
#N canvas 562 92 561 349 Tables 0;
#X obj 41 94 table \$0-note-table-0 64;
#X obj 41 114 table \$0-note-table-1 64;
#X obj 41 134 table \$0-note-table-2 64;
#X obj 41 154 table \$0-note-table-3 64;
#X obj 41 174 table \$0-note-table-4 64;
#X obj 41 194 table \$0-note-table-5 64;
#X obj 41 214 table \$0-note-table-6 64;
#X obj 41 234 table \$0-note-table-7 64;
#X obj 41 254 table \$0-note-table-8 64;
#X obj 41 274 table \$0-note-table-9 64;
#X obj 41 294 table \$0-note-table-10 64;
#X obj 41 314 table \$0-note-table-11 64;
#X obj 201 94 table \$0-oct-table-0 64;
#X obj 201 114 table \$0-oct-table-1 64;
#X obj 201 134 table \$0-oct-table-2 64;
#X obj 201 154 table \$0-oct-table-3 64;
#X obj 201 174 table \$0-oct-table-4 64;
#X obj 201 194 table \$0-oct-table-5 64;
#X obj 201 214 table \$0-oct-table-6 64;
#X obj 201 234 table \$0-oct-table-7 64;
#X obj 201 254 table \$0-oct-table-8 64;
#X obj 201 274 table \$0-oct-table-9 64;
#X obj 201 294 table \$0-oct-table-10 64;
#X obj 201 314 table \$0-oct-table-11 64;
#X obj 361 94 table \$0-velo-table-0 64;
#X obj 361 114 table \$0-velo-table-1 64;
#X obj 361 134 table \$0-velo-table-2 64;
#X obj 361 154 table \$0-velo-table-3 64;
#X obj 361 174 table \$0-velo-table-4 64;
#X obj 361 194 table \$0-velo-table-5 64;
#X obj 361 214 table \$0-velo-table-6 64;
#X obj 361 234 table \$0-velo-table-7 64;
#X obj 361 254 table \$0-velo-table-8 64;
#X obj 361 274 table \$0-velo-table-9 64;
#X obj 361 294 table \$0-velo-table-10 64;
#X obj 361 314 table \$0-velo-table-11 64;
#X restore 703 381 pd Tables;
#N canvas 749 168 430 512 main 0;
#N canvas 184 22 297 169 shuffle 0;
#X obj 54 57 == 0;
#X obj 24 129 bang;
#X obj 24 27 inlet;
#X obj 101 36 r metro_init;
#X obj 24 151 outlet;
#X obj 24 57 f 0;
#X msg 101 58 0;
#X obj 24 84 sel 0 1;
#X obj 50 106 del 0;
#X obj 88 85 r \$0-shuffle_time_num;
#X connect 0 0 5 1;
#X connect 1 0 4 0;
#X connect 2 0 5 0;
#X connect 3 0 6 0;
#X connect 5 0 0 0;
#X connect 5 0 7 0;
#X connect 6 0 5 1;
#X connect 7 0 1 0;
#X connect 7 1 8 0;
#X connect 8 0 1 0;
#X connect 9 0 8 1;
#X restore 100 137 pd shuffle;
#X obj 100 161 counter 63;
#X obj 100 315 + 0;
#X obj 100 335 + 60;
#X obj 136 284 * 12;
#X obj 142 314 tabread \$0-Velo;
#X obj 166 244 s \$0-StepRadio;
#X obj 100 204 tabread \$0-Note;
#X obj 136 224 tabread \$0-Octave;
#X obj 136 260 - 2;
#X obj 142 339 t f f;
#X obj 142 364 scale 0 1 0 127 0;
#X obj 100 396 spigot;
#X obj 100 419 makenote 80 50;
#X obj 100 183 t f f f f;
#X obj 192 419 r \$0-MIDI_ch_sel;
#X obj 181 397 r \$0-MIDI_duration;
#X obj 161 64 r \$0-BPM;
#X obj 161 85 expr 15000/$f1;
#X obj 100 114 metro 150;
#X obj 100 64 r \$0-RUN;
#X obj 100 89 t f f;
#X obj 173 137 sel 0;
#X obj 161 114 s \$0-BPM-to-ms;
#X obj 100 462 noteout;
#X obj 167 462 outlet;
#X obj 217 462 outlet;
#X obj 267 462 outlet;
#X connect 0 0 1 0;
#X connect 1 0 14 0;
#X connect 2 0 3 0;
#X connect 3 0 12 0;
#X connect 4 0 2 1;
#X connect 5 0 10 0;
#X connect 7 0 2 0;
#X connect 8 0 9 0;
#X connect 9 0 4 0;
#X connect 10 0 11 0;
#X connect 10 1 12 1;
#X connect 11 0 13 1;
#X connect 12 0 13 0;
#X connect 13 0 24 0;
#X connect 13 0 25 0;
#X connect 13 1 24 1;
#X connect 13 1 26 0;
#X connect 14 0 7 0;
#X connect 14 1 5 0;
#X connect 14 2 8 0;
#X connect 14 3 6 0;
#X connect 15 0 24 2;
#X connect 15 0 27 0;
#X connect 16 0 13 2;
#X connect 17 0 18 0;
#X connect 18 0 19 1;
#X connect 18 0 23 0;
#X connect 19 0 0 0;
#X connect 20 0 21 0;
#X connect 21 0 19 0;
#X connect 21 1 22 0;
#X connect 22 0 1 2;
#X restore 793 362 pd main;
#X floatatom 793 390 5 0 0 0 - - -, f 5;
#X floatatom 858 390 5 0 0 0 - - -, f 5;
#X floatatom 924 390 5 0 0 0 - - -, f 5;
#X obj 793 415 outlet;
#X obj 858 415 outlet;
#X obj 924 415 outlet;
#X text 794 436 midi_num;
#X text 924 436 channel;
#X text 859 436 velocity;
#X connect 47 0 62 0;
#X connect 49 0 50 0;
#X connect 49 0 51 0;
#X connect 49 0 63 0;
#X connect 50 0 18 0;
#X connect 50 0 37 0;
#X connect 50 0 43 0;
#X connect 50 0 48 0;
#X connect 50 0 34 0;
#X connect 50 0 83 0;
#X connect 51 0 17 0;
#X connect 51 0 23 0;
#X connect 51 0 22 0;
#X connect 51 0 21 0;
#X connect 51 0 20 0;
#X connect 62 0 61 0;
#X connect 63 0 47 0;
#X connect 63 0 73 0;
#X connect 63 0 68 0;
#X connect 63 0 40 0;
#X connect 74 0 76 0;
#X connect 75 0 77 0;
#X connect 76 0 77 0;
#X connect 77 0 73 0;
#X connect 118 0 119 0;
#X connect 118 1 120 0;
#X connect 118 2 121 0;
#X connect 119 0 122 0;
#X connect 120 0 123 0;
#X connect 121 0 124 0;
#X coords 0 -1 1 1 734 227 2 168 83;
