#N canvas 471 248 596 583 10;
#X obj 101 101 cnv 15 198 132 empty empty empty 20 12 0 14 -204786
-66577 0;
#X obj 142 528 *~;
#X obj 240 201 bng 13 250 50 0 empty empty hit_me! 17 7 0 9 -262144
-1 -1;
#X msg 60 222 0;
#N canvas 593 530 450 300 pitch 0;
#X obj 147 166 outlet;
#X obj 249 167 outlet;
#X obj 250 138 + 100;
#X obj 153 80 inlet;
#X obj 252 89 inlet;
#X connect 2 0 1 0;
#X connect 3 0 0 0;
#X connect 3 0 2 0;
#X connect 4 0 2 1;
#X restore 2 222 pd pitch;
#X obj 164 244 noise~;
#X obj 207 292 + 1250;
#X obj 395 79 t b b;
#X obj 207 268 random 500;
#X obj 464 325 ead~ 1 500;
#X obj 141 466 +~;
#X obj 103 216 nbx 5 14 1 100 0 0 empty empty attack_(ms) 0 -8 0 10
-262144 -1 -1 32 256;
#X obj 171 216 nbx 5 14 1 1000 0 0 empty empty decay_(ms) 0 -8 0 10
-262144 -1 -1 255.952 256;
#X obj 374 201 spigot 0;
#X obj 375 223 t b;
#N canvas 1344 437 450 300 duration 0;
#X obj 139 112 +;
#X obj 117 67 inlet;
#X obj 173 64 inlet;
#X obj 126 147 outlet;
#X obj 170 88 t b f;
#X connect 0 0 3 0;
#X connect 1 0 0 0;
#X connect 2 0 4 0;
#X connect 4 0 0 0;
#X connect 4 1 0 1;
#X restore 460 190 pd duration;
#X msg 424 106 1;
#X obj 472 104 switch~;
#X obj 473 82 tgl 15 0 empty empty empty 17 7 0 10 -262144 -1 -1 1
1;
#X obj 465 218 + 100;
#X obj 397 136 delay 500;
#X msg 400 158 0;
#X obj 228 217 tgl 13 0 empty empty test_play 17 7 0 9 -262144 -1 -1
0 1;
#X obj 207 126 knob 32 32 1 2000 0 0 empty empty pitch 38 28 32 10
-262144 -1 -1 1600 1;
#X obj 243 127 nbx 5 14 -1e+37 1e+37 0 0 empty empty empty 0 -8 0 10
-262144 -1 -1 1032.74 256;
#X obj 167 29 loadbang;
#X msg 145 56 265;
#X obj 142 554 outlet~;
#X obj 98 15 inlet BANG;
#X obj 101 101 cnv 15 198 20 empty empty Buzzer 20 12 0 14 -4034 -262144
0;
#X obj 369 247 ../resources/timefilter;
#X msg 236 57 0.741;
#X obj 142 497 *~ 0.6;
#X obj 117 419 *~ 1;
#X msg 176 56 32;
#X msg 206 57 700;
#X text 203 524 expr~ >~ style noise gate;
#X obj 4 197 line;
#X msg 3 174 \$1 200;
#X obj 106 180 hsl 90 10 1 900 0 0 empty empty decay -2 -8 0 10 -262144
-1 -1 2524 1;
#N canvas 0 22 450 300 random 0;
#X obj 23 103 select 0;
#X obj 23 46 t b;
#X obj 24 156 outlet pitch;
#X obj 23 21 inlet bang;
#X obj 24 129 random 600;
#X obj 23 76 random 3;
#X obj 144 129 random 200;
#X obj 150 158 outlet variation;
#X obj 283 128 random 900;
#X obj 286 157 outlet decay;
#X connect 0 0 4 0;
#X connect 1 0 5 0;
#X connect 1 0 6 0;
#X connect 1 0 8 0;
#X connect 3 0 1 0;
#X connect 4 0 2 0;
#X connect 5 0 0 0;
#X connect 6 0 7 0;
#X connect 8 0 9 0;
#X restore 20 104 pd random;
#X obj 24 82 spigot 0;
#X obj 104 151 tgl 13 0 empty empty random 17 7 0 10 -262144 -1 -1
0 1;
#X obj 1 244 osc~ 265;
#X obj 77 244 osc~ 365;
#X obj 7 305 clip~ -1 1;
#X obj 6 282 *~ 9999;
#X obj 116 383 samphold~;
#X obj 175 342 clip~ -0.0001 0.0001;
#X obj 175 364 *~ 999;
#X connect 1 0 27 0;
#X connect 2 0 7 0;
#X connect 2 0 41 0;
#X connect 3 0 43 1;
#X connect 3 0 44 1;
#X connect 4 0 43 0;
#X connect 4 1 44 0;
#X connect 5 0 48 0;
#X connect 7 0 3 0;
#X connect 7 0 9 0;
#X connect 7 0 20 0;
#X connect 7 1 8 0;
#X connect 7 1 16 0;
#X connect 8 0 6 0;
#X connect 9 0 1 1;
#X connect 10 0 32 0;
#X connect 11 0 9 1;
#X connect 11 0 15 0;
#X connect 11 0 13 0;
#X connect 12 0 9 2;
#X connect 12 0 15 1;
#X connect 12 0 13 0;
#X connect 13 0 14 0;
#X connect 14 0 30 0;
#X connect 15 0 19 0;
#X connect 15 0 30 1;
#X connect 16 0 18 0;
#X connect 18 0 17 0;
#X connect 19 0 20 1;
#X connect 20 0 21 0;
#X connect 21 0 18 0;
#X connect 22 0 13 1;
#X connect 23 0 24 0;
#X connect 24 0 13 0;
#X connect 24 0 38 0;
#X connect 25 0 26 0;
#X connect 25 0 34 0;
#X connect 25 0 35 0;
#X connect 25 0 31 0;
#X connect 25 0 42 0;
#X connect 26 0 24 0;
#X connect 28 0 2 0;
#X connect 30 0 2 0;
#X connect 32 0 1 0;
#X connect 33 0 10 0;
#X connect 34 0 11 0;
#X connect 35 0 12 0;
#X connect 37 0 4 0;
#X connect 38 0 37 0;
#X connect 39 0 12 0;
#X connect 40 0 24 0;
#X connect 40 1 4 1;
#X connect 40 2 39 0;
#X connect 41 0 40 0;
#X connect 42 0 41 1;
#X connect 43 0 46 0;
#X connect 44 0 46 0;
#X connect 45 0 47 0;
#X connect 46 0 45 0;
#X connect 47 0 33 0;
#X connect 48 0 49 0;
#X connect 49 0 47 1;
#X coords 0 -1 1 1 200 134 2 100 100;
