#N canvas 684 155 596 583 10;
#X obj 101 100 cnv 15 198 132 empty empty empty 20 12 0 14 -261234
-66577 0;
#X obj 142 528 *~;
#X obj 240 201 bng 13 250 50 0 empty empty hit_me! 17 7 0 9 -262144
-1 -1;
#X obj 395 79 t b b;
#X obj 464 325 ead~ 1 500;
#X obj 141 466 +~;
#X obj 103 216 nbx 5 14 1 100 0 0 empty empty attack_(ms) 0 -8 0 10
-262144 -1 -1 1 256;
#X obj 171 216 nbx 5 14 1 1000 0 0 empty empty decay_(ms) 0 -8 0 10
-262144 -1 -1 1 256;
#X obj 374 201 spigot 0;
#X obj 375 223 t b;
#N canvas 1344 437 450 300 duration 0;
#X obj 139 112 +;
#X obj 117 67 inlet;
#X obj 173 64 inlet;
#X obj 126 147 outlet;
#X obj 170 88 t b f;
#X connect 0 0 3 0;
#X connect 1 0 0 0;
#X connect 2 0 4 0;
#X connect 4 0 0 0;
#X connect 4 1 0 1;
#X restore 460 190 pd duration;
#X msg 424 106 1;
#X obj 472 104 switch~;
#X obj 473 82 tgl 15 0 empty empty empty 17 7 0 10 -262144 -1 -1 0
1;
#X obj 465 218 + 100;
#X obj 397 136 delay 500;
#X msg 400 158 0;
#X obj 228 217 tgl 13 0 empty empty test_play 17 7 0 9 -262144 -1 -1
0 1;
#X obj 207 126 knob 32 32 0 700 0 0 empty empty pitch 38 28 32 10 -262144
-1 -1 0 1;
#X obj 243 127 nbx 5 14 -1e+37 1e+37 0 0 empty empty empty 0 -8 0 10
-262144 -1 -1 0 256;
#X obj 160 37 loadbang;
#X msg 145 56 265;
#X obj 142 554 outlet~;
#X obj 98 15 inlet BANG;
#X obj 208 163 knob 32 32 0 1 0 0 empty empty noise 38 28 32 10 -262144
-1 -1 0 1;
#X obj 160 437 *~ 1;
#X obj 244 166 nbx 5 14 0 1 0 0 empty empty empty 0 -8 0 10 -262144
-1 -1 0 256;
#X msg 206 57 369;
#X obj 101 101 cnv 15 198 20 empty empty Snare_Drum 20 12 0 14 -86277
-262144 0;
#X obj 103 124 ../resources/amp-env;
#X obj 369 247 ../resources/timefilter;
#X msg 236 57 0.741;
#X msg 176 56 6;
#X obj 174 264 noise~;
#X obj 187 335 bp~ 1500 1;
#X obj 217 312 + 1250;
#X obj 294 288 random 500;
#X obj 296 312 + 3750;
#X obj 217 288 random 500;
#X obj 267 335 bp~ 4000 2;
#X obj 202 368 +~;
#X obj 113 290 lop~ 700;
#X obj 81 314 clip~ -0.01 0.01;
#X obj 173 386 +~;
#X obj 81 356 *~ 33;
#X obj 12 281 osc~;
#X obj 146 410 lop~ 1400;
#X obj 220 421 *~ 0.3;
#X obj 236 395 hip~ 3000;
#X obj 46 282 osc~;
#N canvas 1985 391 450 300 pitch 0;
#X obj 55 184 outlet;
#X obj 165 186 outlet;
#X obj 68 100 inlet;
#X obj 165 148 + 100;
#X connect 2 0 3 0;
#X connect 2 0 0 0;
#X connect 3 0 1 0;
#X restore 16 256 pd pitch;
#X obj 12 347 samphold~;
#X obj 11 378 samphold~;
#X obj 19 422 *~;
#X obj 142 497 *~ 0.8;
#X connect 1 0 22 0;
#X connect 2 0 3 0;
#X connect 3 0 4 0;
#X connect 3 0 15 0;
#X connect 3 0 29 0;
#X connect 3 1 11 0;
#X connect 3 1 36 0;
#X connect 3 1 38 0;
#X connect 4 0 1 1;
#X connect 5 0 54 0;
#X connect 6 0 4 1;
#X connect 6 0 10 0;
#X connect 6 0 8 0;
#X connect 7 0 4 2;
#X connect 7 0 10 1;
#X connect 7 0 8 0;
#X connect 8 0 9 0;
#X connect 9 0 30 0;
#X connect 10 0 14 0;
#X connect 10 0 30 1;
#X connect 11 0 13 0;
#X connect 13 0 12 0;
#X connect 14 0 15 1;
#X connect 15 0 16 0;
#X connect 16 0 13 0;
#X connect 17 0 8 1;
#X connect 18 0 19 0;
#X connect 19 0 8 0;
#X connect 19 0 50 0;
#X connect 20 0 21 0;
#X connect 20 0 32 0;
#X connect 20 0 27 0;
#X connect 20 0 31 0;
#X connect 21 0 19 0;
#X connect 23 0 2 0;
#X connect 24 0 25 1;
#X connect 24 0 26 0;
#X connect 25 0 5 1;
#X connect 27 0 7 0;
#X connect 29 0 53 1;
#X connect 29 1 8 0;
#X connect 30 0 2 0;
#X connect 31 0 26 0;
#X connect 32 0 6 0;
#X connect 33 0 34 0;
#X connect 33 0 39 0;
#X connect 33 0 41 0;
#X connect 33 0 43 0;
#X connect 33 0 48 0;
#X connect 34 0 51 1;
#X connect 35 0 34 1;
#X connect 36 0 37 0;
#X connect 37 0 39 1;
#X connect 38 0 35 0;
#X connect 39 0 40 1;
#X connect 40 0 43 1;
#X connect 41 0 42 0;
#X connect 42 0 44 0;
#X connect 43 0 46 0;
#X connect 44 0 40 0;
#X connect 45 0 51 0;
#X connect 46 0 25 0;
#X connect 47 0 25 0;
#X connect 48 0 47 0;
#X connect 49 0 51 0;
#X connect 50 0 45 0;
#X connect 50 1 49 0;
#X connect 51 0 52 0;
#X connect 51 0 52 1;
#X connect 52 0 53 0;
#X connect 53 0 5 0;
#X connect 54 0 1 0;
#X coords 0 -1 1 1 200 134 2 100 100;
