#N canvas 58 343 1097 374 10;
#X obj 100 100 tgl 15 0 empty \$0-0 empty 17 7 0 10 -191407 -1 -1 1
1;
#X obj 115 100 tgl 15 0 empty \$0-1 empty 17 7 0 10 -262144 -1 -1 1
1;
#X obj 130 100 tgl 15 0 empty \$0-2 empty 17 7 0 10 -262144 -1 -1 1
1;
#X obj 145 100 tgl 15 0 empty \$0-3 empty 17 7 0 10 -262144 -1 -1 0
1;
#X obj 160 100 tgl 15 0 empty \$0-4 empty 17 7 0 10 -191407 -1 -1 1
1;
#X obj 175 100 tgl 15 0 empty \$0-5 empty 17 7 0 10 -262144 -1 -1 1
1;
#X obj 190 100 tgl 15 0 empty \$0-6 empty 17 7 0 10 -262144 -1 -1 0
1;
#X obj 205 100 tgl 15 0 empty \$0-7 empty 17 7 0 10 -262144 -1 -1 0
1;
#X obj 220 100 tgl 15 0 empty \$0-8 empty 17 7 0 10 -191407 -1 -1 0
1;
#X obj 235 100 tgl 15 0 empty \$0-9 empty 17 7 0 10 -262144 -1 -1 1
1;
#X obj 250 100 tgl 15 0 empty \$0-10 empty 17 7 0 10 -262144 -1 -1
0 1;
#X obj 265 100 tgl 15 0 empty \$0-11 empty 17 7 0 10 -262144 -1 -1
0 1;
#X obj 280 100 tgl 15 0 empty \$0-12 empty 17 7 0 10 -191407 -1 -1
0 1;
#X obj 295 100 tgl 15 0 empty \$0-13 empty 17 7 0 10 -262144 -1 -1
1 1;
#X obj 310 100 tgl 15 0 empty \$0-14 empty 17 7 0 10 -262144 -1 -1
1 1;
#X obj 325 100 tgl 15 0 empty \$0-15 empty 17 7 0 10 -262144 -1 -1
1 1;
#X obj 340 100 tgl 15 0 empty \$0-16 empty 17 7 0 10 -191407 -1 -1
0 1;
#X obj 355 100 tgl 15 0 empty \$0-17 empty 17 7 0 10 -262144 -1 -1
0 1;
#X obj 370 100 tgl 15 0 empty \$0-18 empty 17 7 0 10 -262144 -1 -1
0 1;
#X obj 385 100 tgl 15 0 empty \$0-19 empty 17 7 0 10 -262144 -1 -1
0 1;
#X obj 400 100 tgl 15 0 empty \$0-20 empty 17 7 0 10 -191407 -1 -1
0 1;
#X obj 415 100 tgl 15 0 empty \$0-21 empty 17 7 0 10 -262144 -1 -1
1 1;
#X obj 430 100 tgl 15 0 empty \$0-22 empty 17 7 0 10 -262144 -1 -1
1 1;
#X obj 445 100 tgl 15 0 empty \$0-23 empty 17 7 0 10 -262144 -1 -1
1 1;
#X obj 460 100 tgl 15 0 empty \$0-24 empty 17 7 0 10 -191407 -1 -1
0 1;
#X obj 475 100 tgl 15 0 empty \$0-25 empty 17 7 0 10 -262144 -1 -1
1 1;
#X obj 490 100 tgl 15 0 empty \$0-26 empty 17 7 0 10 -262144 -1 -1
0 1;
#X obj 505 100 tgl 15 0 empty \$0-27 empty 17 7 0 10 -262144 -1 -1
0 1;
#X obj 520 100 tgl 15 0 empty \$0-28 empty 17 7 0 10 -191407 -1 -1
1 1;
#X obj 535 100 tgl 15 0 empty \$0-29 empty 17 7 0 10 -262144 -1 -1
1 1;
#X obj 550 100 tgl 15 0 empty \$0-30 empty 17 7 0 10 -262144 -1 -1
1 1;
#X obj 565 100 tgl 15 0 empty \$0-31 empty 17 7 0 10 -262144 -1 -1
1 1;
#X obj 94 54 select 0 1 2 3 4 5 6 7 8 9 10 11 12 13 14 15 16 17 18
19 20 21 22 23 24 25 26 27 28 29 30 31;
#X obj 81 132 i;
#X obj 107 132 i;
#X obj 133 132 i;
#X obj 159 132 i;
#X obj 201 132 i;
#X obj 227 132 i;
#X obj 253 132 i;
#X obj 279 132 i;
#X obj 321 132 i;
#X obj 347 132 i;
#X obj 373 132 i;
#X obj 399 132 i;
#X obj 441 132 i;
#X obj 467 132 i;
#X obj 493 132 i;
#X obj 519 132 i;
#X obj 121 162 i;
#X obj 147 162 i;
#X obj 173 162 i;
#X obj 199 162 i;
#X obj 241 162 i;
#X obj 267 162 i;
#X obj 293 162 i;
#X obj 319 162 i;
#X obj 361 162 i;
#X obj 387 162 i;
#X obj 413 162 i;
#X obj 439 162 i;
#X obj 481 162 i;
#X obj 507 162 i;
#X obj 533 162 i;
#X obj 559 162 i;
#X obj 80 28 inlet;
#X obj 88 213 select 1;
#X obj 80 241 outlet;
#X text 156 242 boy \, did this take long to make. Ask Thor for a better
way code this in supercollider.;
#X obj 479 17 table \$0-seq-array 32;
#X obj 591 122 t b b;
#X obj 582 101 bng 12 250 50 0 empty empty random 17 7 0 9 -262144
-1 -1;
#X obj 636 101 bng 12 250 50 0 empty empty clear 17 7 0 9 -262144 -1
-1;
#N canvas 0 22 450 300 random 0;
#N canvas 0 22 454 304 untils 0;
#X obj 261 160 f;
#X obj 288 162 + 1;
#X obj 261 138 until;
#X msg 299 132 0;
#X obj 261 107 t f b;
#X obj 261 78 inlet;
#X obj 261 190 outlet;
#X connect 0 0 1 0;
#X connect 0 0 6 0;
#X connect 1 0 0 1;
#X connect 2 0 0 0;
#X connect 3 0 0 1;
#X connect 4 0 2 0;
#X connect 4 1 3 0;
#X connect 5 0 4 0;
#X restore 88 70 pd untils;
#X msg 87 48 32;
#X obj 89 91 t f b;
#X obj 123 119 random 2;
#X obj 90 165 s \$0-seq-array;
#X obj 90 143 pack;
#X obj 86 19 inlet;
#X connect 0 0 2 0;
#X connect 1 0 0 0;
#X connect 2 0 5 0;
#X connect 2 1 3 0;
#X connect 3 0 5 1;
#X connect 5 0 4 0;
#X connect 6 0 1 0;
#X restore 595 153 pd random;
#N canvas 0 22 450 300 refresh 0;
#X obj 169 151 tabread \$0-seq-array;
#N canvas 0 22 454 304 untils 0;
#X obj 261 160 f;
#X obj 288 162 + 1;
#X obj 261 138 until;
#X msg 299 132 0;
#X obj 261 107 t f b;
#X obj 261 78 inlet;
#X obj 261 190 outlet;
#X connect 0 0 1 0;
#X connect 0 0 6 0;
#X connect 1 0 0 1;
#X connect 2 0 0 0;
#X connect 3 0 0 1;
#X connect 4 0 2 0;
#X connect 4 1 3 0;
#X connect 5 0 4 0;
#X restore 137 105 pd untils;
#X msg 136 83 32;
#X obj 137 172 f \$0;
#X obj 171 172 i;
#X obj 137 129 t b f;
#X msg 137 217 \; \$1-\$3 \$2;
#X obj 137 196 pack f f f;
#X obj 134 53 inlet;
#X connect 0 0 4 0;
#X connect 1 0 5 0;
#X connect 2 0 1 0;
#X connect 3 0 7 0;
#X connect 4 0 7 1;
#X connect 5 0 3 0;
#X connect 5 1 0 0;
#X connect 5 1 7 2;
#X connect 7 0 6 0;
#X connect 8 0 2 0;
#X restore 589 224 pd refresh;
#N canvas 0 22 450 300 clear 0;
#N canvas 0 22 454 304 untils 0;
#X obj 261 160 f;
#X obj 288 162 + 1;
#X obj 261 138 until;
#X msg 299 132 0;
#X obj 261 107 t f b;
#X obj 261 78 inlet;
#X obj 261 190 outlet;
#X connect 0 0 1 0;
#X connect 0 0 6 0;
#X connect 1 0 0 1;
#X connect 2 0 0 0;
#X connect 3 0 0 1;
#X connect 4 0 2 0;
#X connect 4 1 3 0;
#X connect 5 0 4 0;
#X restore 98 80 pd untils;
#X msg 97 58 32;
#X obj 99 101 t f b;
#X obj 100 175 s \$0-seq-array;
#X obj 100 153 pack;
#X obj 96 29 inlet;
#X msg 127 126 0;
#X connect 0 0 2 0;
#X connect 1 0 0 0;
#X connect 2 0 4 0;
#X connect 2 1 6 0;
#X connect 4 0 3 0;
#X connect 5 0 1 0;
#X connect 6 0 4 1;
#X restore 657 153 pd clear;
#X obj 641 122 t b b;
#X connect 0 0 33 1;
#X connect 1 0 34 1;
#X connect 2 0 35 1;
#X connect 3 0 36 1;
#X connect 4 0 37 1;
#X connect 5 0 38 1;
#X connect 6 0 39 1;
#X connect 7 0 40 1;
#X connect 8 0 41 1;
#X connect 9 0 42 1;
#X connect 10 0 43 1;
#X connect 11 0 44 1;
#X connect 12 0 45 1;
#X connect 13 0 46 1;
#X connect 14 0 47 1;
#X connect 15 0 48 1;
#X connect 16 0 49 1;
#X connect 17 0 50 1;
#X connect 18 0 51 1;
#X connect 19 0 52 1;
#X connect 20 0 53 1;
#X connect 21 0 54 1;
#X connect 22 0 55 1;
#X connect 23 0 56 1;
#X connect 24 0 57 1;
#X connect 25 0 58 1;
#X connect 26 0 59 1;
#X connect 27 0 60 1;
#X connect 28 0 61 1;
#X connect 29 0 62 1;
#X connect 30 0 63 1;
#X connect 31 0 64 1;
#X connect 32 0 33 0;
#X connect 32 1 34 0;
#X connect 32 2 35 0;
#X connect 32 3 36 0;
#X connect 32 4 37 0;
#X connect 32 5 38 0;
#X connect 32 6 39 0;
#X connect 32 7 40 0;
#X connect 32 8 41 0;
#X connect 32 9 42 0;
#X connect 32 10 43 0;
#X connect 32 11 44 0;
#X connect 32 12 45 0;
#X connect 32 13 46 0;
#X connect 32 14 47 0;
#X connect 32 15 48 0;
#X connect 32 16 49 0;
#X connect 32 17 50 0;
#X connect 32 18 51 0;
#X connect 32 19 52 0;
#X connect 32 20 53 0;
#X connect 32 21 54 0;
#X connect 32 22 55 0;
#X connect 32 23 56 0;
#X connect 32 24 57 0;
#X connect 32 25 58 0;
#X connect 32 26 59 0;
#X connect 32 27 60 0;
#X connect 32 28 61 0;
#X connect 32 29 62 0;
#X connect 32 30 63 0;
#X connect 32 31 64 0;
#X connect 33 0 66 0;
#X connect 34 0 66 0;
#X connect 35 0 66 0;
#X connect 36 0 66 0;
#X connect 37 0 66 0;
#X connect 38 0 66 0;
#X connect 39 0 66 0;
#X connect 40 0 66 0;
#X connect 41 0 66 0;
#X connect 42 0 66 0;
#X connect 43 0 66 0;
#X connect 44 0 66 0;
#X connect 45 0 66 0;
#X connect 46 0 66 0;
#X connect 47 0 66 0;
#X connect 48 0 66 0;
#X connect 49 0 66 0;
#X connect 50 0 66 0;
#X connect 51 0 66 0;
#X connect 52 0 66 0;
#X connect 53 0 66 0;
#X connect 54 0 66 0;
#X connect 55 0 66 0;
#X connect 56 0 66 0;
#X connect 57 0 66 0;
#X connect 58 0 66 0;
#X connect 59 0 66 0;
#X connect 60 0 66 0;
#X connect 61 0 66 0;
#X connect 62 0 66 0;
#X connect 63 0 66 0;
#X connect 64 0 66 0;
#X connect 65 0 32 0;
#X connect 66 0 67 0;
#X connect 70 0 74 0;
#X connect 70 1 73 0;
#X connect 71 0 70 0;
#X connect 72 0 76 0;
#X connect 76 0 74 0;
#X connect 76 1 75 0;
#X coords 0 -1 1 1 583 15 2 100 100;
