#N canvas 117 20 887 647 10;
#X obj 26 38 inlet~;
#X obj 133 514 outlet~;
#X obj 151 536 outlet~;
#X obj 166 558 outlet~;
#X obj 183 580 outlet~;
#X obj 76 426 outlet~;
#X obj 118 492 outlet~;
#X obj 103 470 outlet~;
#X obj 89 448 outlet~;
#X obj 66 404 outlet~;
#X obj 52 382 outlet~;
#X obj 37 360 outlet~;
#X obj 26 338 outlet~;
#X obj 723 807 outlet~;
#X obj 746 485 +~;
#X obj 756 509 +~;
#X obj 724 438 +~;
#X obj 734 460 +~;
#X obj 766 530 +~;
#X obj 776 553 +~;
#X obj 734 829 outlet~;
#X text 485 23 parameter update message;
#X obj 485 40 inlet;
#X obj 840 504 *~ 0.1;
#X obj 828 481 *~ 0.1;
#X obj 819 458 *~ 0.1;
#X obj 807 435 *~ 0.1;
#X obj 796 413 *~ 0.1;
#X obj 786 390 *~ 0.1;
#X obj 775 366 *~ 0.1;
#X obj 765 344 *~ 0.1;
#X obj 755 321 *~ 0.1;
#X obj 745 298 *~ 0.1;
#X obj 733 275 *~ 0.1;
#X obj 723 252 *~ 0.1;
#X obj 765 904 outlet~;
#X obj 776 926 outlet~;
#X text 784 814 front;
#X text 819 910 rear;
#X obj 485 73 route delay damp;
#X obj 73 40 inlet~;
#X text 12 20 left source signal;
#X text 159 19 right source signal;
#X text 680 154 LEFT (even index);
#X text 676 183 RIGHT (odd index);
#X obj 745 854 outlet~;
#X obj 756 876 outlet~;
#X text 802 860 side;
#X obj 27 175 delwrite~ \$0_L1 \$1;
#X obj 74 199 delwrite~ \$0_R1 \$1;
#X obj 119 40 inlet~;
#X obj 166 42 inlet~;
#X obj 213 42 inlet~;
#X obj 260 44 inlet~;
#X obj 119 124 delwrite~ \$0_L2 \$1;
#X obj 167 148 delwrite~ \$0_R2 \$1;
#X obj 213 172 delwrite~ \$0_L3 \$1;
#X obj 261 196 delwrite~ \$0_R3 \$1;
#X obj 26 235 delread~ \$0_L1 100;
#X obj 36 258 delread~ \$0_R1 110;
#X obj 51 280 delread~ \$0_L1 120;
#X obj 65 304 delread~ \$0_R1 130;
#X obj 813 159 route 0 2 4 6 8 10 12 14 16 18 20 22;
#X obj 821 183 route 1 3 5 7 9 11 13 15 17 19 21 23;
#X obj 413 154 route 0 2 4 6 8 10 12 14 16 18 20 22;
#X obj 416 182 route 1 3 5 7 9 11 13 15 17 19 21 23;
#X obj 306 789 outlet~;
#X obj 324 811 outlet~;
#X obj 339 833 outlet~;
#X obj 356 855 outlet~;
#X obj 249 701 outlet~;
#X obj 291 767 outlet~;
#X obj 276 745 outlet~;
#X obj 262 723 outlet~;
#X obj 239 679 outlet~;
#X obj 225 657 outlet~;
#X obj 210 635 outlet~;
#X obj 199 613 outlet~;
#X obj 77 326 delread~ \$0_L1 140;
#X obj 90 348 delread~ \$0_R1 150;
#X obj 104 372 delread~ \$0_L1 160;
#X obj 119 395 delread~ \$0_R1 170;
#X obj 134 417 delread~ \$0_L2 180;
#X obj 151 440 delread~ \$0_R2 190;
#X obj 166 463 delread~ \$0_L2 200;
#X obj 184 488 delread~ \$0_R2 210;
#X obj 199 510 delread~ \$0_L2 220;
#X obj 209 533 delread~ \$0_R2 230;
#X obj 224 555 delread~ \$0_L2 240;
#X obj 238 579 delread~ \$0_R2 250;
#X obj 250 601 delread~ \$0_L3 260;
#X obj 263 623 delread~ \$0_R3 270;
#X obj 277 647 delread~ \$0_L3 280;
#X obj 292 670 delread~ \$0_R3 290;
#X obj 307 692 delread~ \$0_L3 300;
#X obj 324 715 delread~ \$0_R3 310;
#X obj 339 738 delread~ \$0_L3 320;
#X obj 357 763 delread~ \$0_R3 330;
#X obj 746 585 +~;
#X obj 756 609 +~;
#X obj 724 538 +~;
#X obj 734 560 +~;
#X obj 766 630 +~;
#X obj 776 653 +~;
#X obj 746 685 +~;
#X obj 756 709 +~;
#X obj 724 638 +~;
#X obj 734 660 +~;
#X obj 766 730 +~;
#X obj 776 753 +~;
#X obj 969 779 *~ 0.1;
#X obj 957 756 *~ 0.1;
#X obj 948 733 *~ 0.1;
#X obj 936 710 *~ 0.1;
#X obj 925 688 *~ 0.1;
#X obj 915 665 *~ 0.1;
#X obj 904 641 *~ 0.1;
#X obj 894 619 *~ 0.1;
#X obj 884 596 *~ 0.1;
#X obj 874 573 *~ 0.1;
#X obj 862 550 *~ 0.1;
#X obj 852 527 *~ 0.1;
#X text 539 48 1.arg: <float> max. early_delay_time in ms;
#X obj 823 94 unpack;
#X obj 823 135 pack;
#X text 308 91 6 / 24 = 0.25;
#X obj 26 63 *~ 0.25;
#X text 878 117 24 / 6 = 4;
#X obj 854 116 * 4;
#X obj 73 89 *~ 0.25;
#X obj 119 64 *~ 0.25;
#X obj 166 90 *~ 0.25;
#X obj 212 65 *~ 0.25;
#X obj 259 91 *~ 0.25;
#X connect 0 0 126 0;
#X connect 14 0 98 0;
#X connect 15 0 99 0;
#X connect 16 0 100 0;
#X connect 17 0 101 0;
#X connect 18 0 102 0;
#X connect 19 0 103 0;
#X connect 22 0 39 0;
#X connect 23 0 18 1;
#X connect 24 0 19 1;
#X connect 25 0 14 1;
#X connect 26 0 15 1;
#X connect 27 0 16 1;
#X connect 28 0 17 1;
#X connect 29 0 19 0;
#X connect 30 0 18 0;
#X connect 31 0 15 0;
#X connect 32 0 14 0;
#X connect 33 0 17 0;
#X connect 34 0 16 0;
#X connect 39 0 64 0;
#X connect 39 0 65 0;
#X connect 39 1 123 0;
#X connect 40 0 129 0;
#X connect 50 0 130 0;
#X connect 51 0 131 0;
#X connect 52 0 132 0;
#X connect 53 0 133 0;
#X connect 58 0 12 0;
#X connect 58 0 34 0;
#X connect 59 0 11 0;
#X connect 59 0 33 0;
#X connect 60 0 10 0;
#X connect 60 0 32 0;
#X connect 61 0 9 0;
#X connect 61 0 31 0;
#X connect 62 0 34 1;
#X connect 62 1 32 1;
#X connect 62 2 30 1;
#X connect 62 3 28 1;
#X connect 62 4 26 1;
#X connect 62 5 24 1;
#X connect 62 6 121 1;
#X connect 62 7 119 1;
#X connect 62 8 117 1;
#X connect 62 9 115 1;
#X connect 62 10 113 1;
#X connect 62 11 111 1;
#X connect 63 0 33 1;
#X connect 63 1 31 1;
#X connect 63 2 29 1;
#X connect 63 3 27 1;
#X connect 63 4 25 1;
#X connect 63 5 23 1;
#X connect 63 6 120 1;
#X connect 63 7 118 1;
#X connect 63 8 116 1;
#X connect 63 9 114 1;
#X connect 63 10 112 1;
#X connect 63 11 110 1;
#X connect 64 0 58 0;
#X connect 64 1 60 0;
#X connect 64 2 78 0;
#X connect 64 3 80 0;
#X connect 64 4 82 0;
#X connect 64 5 84 0;
#X connect 64 6 86 0;
#X connect 64 7 88 0;
#X connect 64 8 90 0;
#X connect 64 9 92 0;
#X connect 64 10 94 0;
#X connect 64 11 96 0;
#X connect 65 0 59 0;
#X connect 65 1 61 0;
#X connect 65 2 79 0;
#X connect 65 3 81 0;
#X connect 65 4 83 0;
#X connect 65 5 85 0;
#X connect 65 6 87 0;
#X connect 65 7 89 0;
#X connect 65 8 91 0;
#X connect 65 9 93 0;
#X connect 65 10 95 0;
#X connect 65 11 97 0;
#X connect 78 0 5 0;
#X connect 78 0 30 0;
#X connect 79 0 8 0;
#X connect 79 0 29 0;
#X connect 80 0 7 0;
#X connect 80 0 28 0;
#X connect 81 0 6 0;
#X connect 81 0 27 0;
#X connect 82 0 1 0;
#X connect 82 0 26 0;
#X connect 83 0 2 0;
#X connect 83 0 25 0;
#X connect 84 0 3 0;
#X connect 84 0 24 0;
#X connect 85 0 4 0;
#X connect 85 0 23 0;
#X connect 86 0 77 0;
#X connect 86 0 121 0;
#X connect 87 0 76 0;
#X connect 87 0 120 0;
#X connect 88 0 75 0;
#X connect 88 0 119 0;
#X connect 89 0 74 0;
#X connect 89 0 118 0;
#X connect 90 0 70 0;
#X connect 90 0 117 0;
#X connect 91 0 73 0;
#X connect 91 0 116 0;
#X connect 92 0 72 0;
#X connect 92 0 115 0;
#X connect 93 0 71 0;
#X connect 93 0 114 0;
#X connect 94 0 66 0;
#X connect 94 0 113 0;
#X connect 95 0 67 0;
#X connect 95 0 112 0;
#X connect 96 0 68 0;
#X connect 96 0 111 0;
#X connect 97 0 69 0;
#X connect 97 0 110 0;
#X connect 98 0 104 0;
#X connect 99 0 105 0;
#X connect 100 0 106 0;
#X connect 101 0 107 0;
#X connect 102 0 108 0;
#X connect 103 0 109 0;
#X connect 104 0 45 0;
#X connect 105 0 46 0;
#X connect 106 0 13 0;
#X connect 107 0 20 0;
#X connect 108 0 35 0;
#X connect 109 0 36 0;
#X connect 110 0 109 1;
#X connect 111 0 108 1;
#X connect 112 0 105 1;
#X connect 113 0 104 1;
#X connect 114 0 107 1;
#X connect 115 0 106 1;
#X connect 116 0 103 1;
#X connect 117 0 102 1;
#X connect 118 0 99 1;
#X connect 119 0 98 1;
#X connect 120 0 101 1;
#X connect 121 0 100 1;
#X connect 123 0 124 0;
#X connect 123 1 128 0;
#X connect 124 0 62 0;
#X connect 124 0 63 0;
#X connect 126 0 48 0;
#X connect 128 0 124 1;
#X connect 129 0 49 0;
#X connect 130 0 54 0;
#X connect 131 0 55 0;
#X connect 132 0 56 0;
#X connect 133 0 57 0;
