#N canvas 1346 180 1107 588 10;
#N canvas 99 33 1251 805 EDIT_early_reverb 0;
#X obj 14 154 vsl 15 121 0 120 0 0 \$0early_gain_fromgui \$0early_gain_togui
empty 0 -8 0 8 -6177 -1 -1 6900 1;
#X obj 5 310 fadtodb;
#X obj 14 332 - 100;
#X floatatom 14 281 4 0 0 0 - - -;
#X obj 64 154 vsl 15 121 0.16 16 1 0 \$0early_cutoff_fromgui \$0early_cutoff_togui
empty 0 -8 0 8 -14404 -1 -1 9338 1;
#X floatatom 64 281 4 0 0 0 - - -;
#X obj 15 125 cnv 8 1 1 empty empty early 0 4 0 9 -262144 -1 0;
#X obj 15 133 cnv 8 1 1 empty empty echoes 0 4 0 9 -262144 -1 0;
#X obj 15 141 cnv 8 1 1 empty empty gain 0 4 0 9 -262144 -1 0;
#X obj 46 285 cnv 8 1 1 empty empty dB 0 4 0 9 -262144 -1 0;
#X obj 96 285 cnv 8 1 1 empty empty kHz 0 4 0 9 -262144 -1 0;
#X obj 65 125 cnv 8 1 1 empty empty early 0 4 0 9 -262144 -1 0;
#X obj 65 133 cnv 8 1 1 empty empty cutoff 0 4 0 9 -262144 -1 0;
#X obj 65 141 cnv 8 1 1 empty empty freq 0 4 0 9 -262144 -1 0;
#X obj 114 154 vsl 15 121 0 120 0 0 \$0rev_gain_fromgui \$0rev_gain_togui
empty 0 -8 0 8 -11118 -1 -1 8400 1;
#X obj 95 312 fadtodb;
#X obj 101 335 - 100;
#X floatatom 114 281 4 0 0 0 - - -;
#X obj 115 133 cnv 8 1 1 empty empty reverb 0 4 0 9 -262144 -1 0;
#X obj 115 141 cnv 8 1 1 empty empty gain 0 4 0 9 -262144 -1 0;
#X obj 146 285 cnv 8 1 1 empty empty dB 0 4 0 9 -262144 -1 0;
#X obj 164 154 vsl 15 121 0.16 16 1 0 \$0rev_cutoff_fromgui \$0rev_cutoff_togui
empty 0 -8 0 8 -15044 -1 -1 8038 1;
#X floatatom 164 281 4 0 0 0 - - -;
#X obj 196 285 cnv 8 1 1 empty empty kHz 0 4 0 9 -262144 -1 0;
#X obj 165 125 cnv 8 1 1 empty empty reverb 0 4 0 9 -262144 -1 0;
#X obj 165 133 cnv 8 1 1 empty empty cutoff 0 4 0 9 -262144 -1 0;
#X obj 165 141 cnv 8 1 1 empty empty freq 0 4 0 9 -262144 -1 0;
#X obj 214 154 vsl 15 121 0.1 60 1 0 \$0rev_dec_l_time_fromgui \$0rev_dec_l_time_togui
empty 0 -8 0 8 -200880 -1 -1 6900 1;
#X floatatom 214 281 4 0 0 0 - - -;
#X obj 246 285 cnv 8 1 1 empty empty sec 0 4 0 9 -262144 -1 0;
#X obj 215 117 cnv 8 1 1 empty empty reverb 0 4 0 9 -262144 -1 0;
#X obj 215 125 cnv 8 1 1 empty empty low 0 4 0 9 -262144 -1 0;
#X obj 215 133 cnv 8 1 1 empty empty decay 0 4 0 9 -262144 -1 0;
#X obj 215 141 cnv 8 1 1 empty empty time 0 4 0 9 -262144 -1 0;
#X obj 314 154 vsl 15 121 0.1 60 1 0 \$0rev_dec_m_time_fromgui \$0rev_dec_m_time_togui
empty 0 -8 0 8 -250685 -1 -1 6393 1;
#X floatatom 314 281 4 0 0 0 - - -;
#X obj 346 285 cnv 8 1 1 empty empty sec 0 4 0 9 -262144 -1 0;
#X obj 315 117 cnv 8 1 1 empty empty reverb 0 4 0 9 -262144 -1 0;
#X obj 315 125 cnv 8 1 1 empty empty mid 0 4 0 9 -262144 -1 0;
#X obj 315 133 cnv 8 1 1 empty empty decay 0 4 0 9 -262144 -1 0;
#X obj 315 141 cnv 8 1 1 empty empty time 0 4 0 9 -262144 -1 0;
#X obj 414 154 vsl 15 121 0.1 60 1 0 \$0rev_dec_h_time_fromgui \$0rev_dec_h_time_togui
empty 0 -8 0 8 -255806 -1 -1 5601 1;
#X floatatom 414 281 4 0 0 0 - - -;
#X obj 446 285 cnv 8 1 1 empty empty sec 0 4 0 9 -262144 -1 0;
#X obj 416 117 cnv 8 1 1 empty empty reverb 0 4 0 9 -262144 -1 0;
#X obj 416 125 cnv 8 1 1 empty empty high 0 4 0 9 -262144 -1 0;
#X obj 416 133 cnv 8 1 1 empty empty decay 0 4 0 9 -262144 -1 0;
#X obj 416 141 cnv 8 1 1 empty empty time 0 4 0 9 -262144 -1 0;
#X obj 264 154 vsl 15 121 0.05 1 1 0 \$0rev_dec_lm_freq_fromgui \$0rev_dec_lm_freq_togui
empty 0 -8 0 8 -24198 -1 -1 6444 1;
#X floatatom 264 281 4 0 0 0 - - -;
#X obj 296 285 cnv 8 1 1 empty empty kHz 0 4 0 9 -262144 -1 0;
#X obj 264 117 cnv 8 1 1 empty empty reverb 0 4 0 9 -262144 -1 0;
#X obj 264 125 cnv 8 1 1 empty empty low_mid 0 4 0 9 -262144 -1 0;
#X obj 264 133 cnv 8 1 1 empty empty decay 0 4 0 9 -262144 -1 0;
#X obj 264 141 cnv 8 1 1 empty empty freq 0 4 0 9 -262144 -1 0;
#X obj 364 154 vsl 15 121 1 16 1 0 \$0rev_dec_mh_freq_fromgui \$0rev_dec_mh_freq_togui
empty 0 -8 0 8 -110363 -1 -1 5400 1;
#X floatatom 364 281 4 0 0 0 - - -;
#X obj 396 285 cnv 8 1 1 empty empty kHz 0 4 0 9 -262144 -1 0;
#X obj 363 117 cnv 8 1 1 empty empty reverb 0 4 0 9 -262144 -1 0;
#X obj 363 125 cnv 8 1 1 empty empty mid_high 0 4 0 9 -262144 -1 0
;
#X obj 363 133 cnv 8 1 1 empty empty decay 0 4 0 9 -262144 -1 0;
#X obj 363 141 cnv 8 1 1 empty empty freq 0 4 0 9 -262144 -1 0;
#X obj 590 236 cnv 8 1 1 empty empty delay 0 4 0 9 -262144 -1 0;
#X obj 483 118 cnv 8 1 1 empty empty early_echo 0 4 0 9 -262144 -1
0;
#X floatatom 82 221 4 0.1 2 0 - #0early_q_togui #0early_q_fromgui;
#X obj 83 210 cnv 8 1 1 empty empty Q 0 4 0 9 -262144 -1 0;
#X floatatom 182 221 4 0.1 2 0 - #0rev_q_togui #0rev_q_fromgui;
#X obj 183 210 cnv 8 1 1 empty empty Q 0 4 0 9 -262144 -1 0;
#X obj 31 152 vfad_scale -1;
#X obj 131 152 vfad_scale -1;
#X obj 483 127 cnv 8 1 1 empty empty delay_time 0 4 0 9 -262144 -1
0;
#X obj 534 144 cnv 8 1 1 empty empty ms 0 4 0 9 -262144 -1 0;
#X floatatom 495 140 5 0.1 1000 0 - - -;
#X obj 469 142 cnv 8 1 1 empty empty max: 0 4 0 9 -262144 -1 0;
#X obj 534 160 cnv 8 1 1 empty empty ms 0 4 0 9 -262144 -1 0;
#X floatatom 495 156 5 0.1 1000 0 - - -;
#X obj 469 158 cnv 8 1 1 empty empty min: 0 4 0 9 -262144 -1 0;
#X obj 493 183 cnv 8 1 1 empty empty early_echo 0 4 0 9 -262144 -1
0;
#X obj 493 192 cnv 8 1 1 empty empty damping 0 4 0 9 -262144 -1 0;
#X obj 534 206 cnv 8 1 1 empty empty dB 0 4 0 9 -262144 -1 0;
#X floatatom 495 202 5 -100 0 0 - - -;
#X obj 534 222 cnv 8 1 1 empty empty dB 0 4 0 9 -262144 -1 0;
#X floatatom 495 219 5 -100 0 0 - - -;
#X obj 470 204 cnv 8 1 1 empty empty max: 0 4 0 9 -262144 -1 0;
#X obj 470 220 cnv 8 1 1 empty empty min: 0 4 0 9 -262144 -1 0;
#X obj 593 118 cnv 8 1 1 empty empty reverb 0 4 0 9 -262144 -1 0;
#X obj 593 138 cnv 8 1 1 empty empty modulation 0 4 0 9 -262144 -1
0;
#X obj 631 166 cnv 8 1 1 empty empty Hz 0 4 0 9 -262144 -1 0;
#X floatatom 592 162 5 0.01 10 0 - - -;
#X obj 568 165 cnv 8 1 1 empty empty max: 0 4 0 9 -262144 -1 0;
#X obj 631 182 cnv 8 1 1 empty empty Hz 0 4 0 9 -262144 -1 0;
#X floatatom 592 178 5 0.01 10 0 - - -;
#X obj 569 182 cnv 8 1 1 empty empty min: 0 4 0 9 -262144 -1 0;
#X obj 592 147 cnv 8 1 1 empty empty freq 0 4 0 9 -262144 -1 0;
#X obj 590 228 cnv 8 1 1 empty empty reverb 0 4 0 9 -262144 -1 0;
#X obj 591 244 cnv 8 1 1 empty empty modulation 0 4 0 9 -262144 -1
0;
#X obj 631 269 cnv 8 1 1 empty empty cents 0 4 0 9 -262144 -1 0;
#X floatatom 592 265 5 0 20 0 - - -;
#X obj 568 268 cnv 8 1 1 empty empty max: 0 4 0 9 -262144 -1 0;
#X obj 631 285 cnv 8 1 1 empty empty cents 0 4 0 9 -262144 -1 0;
#X floatatom 592 281 5 0 20 0 - - -;
#X obj 568 284 cnv 8 1 1 empty empty min: 0 4 0 9 -262144 -1 0;
#X obj 590 253 cnv 8 1 1 empty empty amplitude 0 4 0 9 -262144 -1 0
;
#X obj 593 126 cnv 8 1 1 empty empty delay 0 4 0 9 -262144 -1 0;
#X obj 493 246 cnv 8 1 1 empty empty reverb 0 4 0 9 -262144 -1 0;
#X obj 493 255 cnv 8 1 1 empty empty delay_time 0 4 0 9 -262144 -1
0;
#X obj 534 270 cnv 8 1 1 empty empty ms 0 4 0 9 -262144 -1 0;
#X floatatom 495 266 5 0.1 1000 0 - - -;
#X obj 470 270 cnv 8 1 1 empty empty max: 0 4 0 9 -262144 -1 0;
#X obj 534 286 cnv 8 1 1 empty empty ms 0 4 0 9 -262144 -1 0;
#X floatatom 495 282 5 0.1 1000 0 - - -;
#X obj 470 286 cnv 8 1 1 empty empty min: 0 4 0 9 -262144 -1 0;
#X obj 935 707 gui_sr \$0early_cutoff EXT_REV_EARLY_CUTOFF;
#X obj 935 728 gui_sr \$0early_q EXT_REV_EARLY_Q;
#X obj 935 688 gui_sr_fader \$0early_gain EXT_REV_EARLY_GAIN;
#X obj 922 560 gui_sr_fader \$0rev_gain EXT_REV_REVERB_GAIN;
#X obj 936 579 gui_sr \$0rev_cutoff EXT_REV_REVERB_CUTOFF;
#X obj 1006 600 gui_sr \$0rev_q EXT_REV_REVERB_Q;
#X obj 933 394 gui_sr \$0rev_dec_l_time EXT_REV_REVERB_DEC_L_TIME;
#X obj 933 413 gui_sr \$0rev_dec_lm_freq EXT_REV_REVERB_DEC_LM_FREQ
;
#X obj 933 451 gui_sr \$0rev_dec_mh_freq EXT_REV_REVERB_DEC_MH_FREQ
;
#X obj 933 432 gui_sr \$0rev_dec_m_time EXT_REV_REVERB_DEC_M_TIME;
#X obj 933 470 gui_sr \$0rev_dec_h_time EXT_REV_REVERB_DEC_H_TIME;
#X obj 941 637 gui_sr \$0early_damp EXT_REV_EARLY_DAMP;
#X obj 908 541 gui_sr \$0rev_del_time EXT_REV_REVERB_DEL_TIME;
#X obj 900 494 gui_sr \$0rev_mod_freq EXT_REV_REVERB_MOD_FREQ;
#X obj 900 513 gui_sr \$0rev_mod_amp EXT_REV_REVERB_MOD_AMP;
#X obj 293 49 set_maxmin \$0early_del_time;
#X obj 935 669 gui_sr \$0early_del_time EXT_REV_EARLY_DEL_TIME;
#X obj 309 72 get_maxmin \$0early_del_time;
#X obj 182 310 set_maxmin \$0early_damp;
#X obj 195 332 get_maxmin \$0early_damp;
#X obj 366 312 set_maxmin \$0rev_del_time;
#X obj 382 335 get_maxmin \$0rev_del_time;
#X obj 554 312 set_maxmin \$0rev_mod_amp;
#X obj 572 334 get_maxmin \$0rev_mod_amp;
#X obj 506 53 set_maxmin \$0rev_mod_freq;
#X obj 516 73 get_maxmin \$0rev_mod_freq;
#X obj 14 438 pp 0;
#X obj 70 417 pp 1;
#X obj 765 124 f;
#X obj 765 147 f;
#X obj 762 184 f;
#X obj 761 205 f;
#X obj 928 287 t b f;
#X obj 106 440 pp 2;
#X obj 143 499 pp 3;
#X obj 199 483 pp 4;
#X obj 237 503 pp 5;
#X obj 490 572 pp 6;
#X obj 529 591 pp 7;
#X obj 568 612 pp 8;
#X obj 606 633 pp 9;
#X obj 643 655 pp 10;
#X obj 769 154 pp 11;
#X obj 769 174 pp 12;
#X obj 771 216 pp 13;
#X obj 771 237 pp 14;
#X obj 974 286 t b f;
#X msg 974 322 store;
#X obj 829 125 f;
#X obj 829 148 f;
#X obj 838 237 f;
#X obj 838 260 f;
#X obj 613 412 iem_pbank_csv 21 10;
#X obj 104 554 unpack 0 0 0 0 0 0 0 0 0 0 0 0 0 0 0 0 0 0 0 0 0;
#X obj 857 288 pp 20;
#X obj 849 267 pp 19;
#X obj 771 279 pp 15;
#X obj 779 299 pp 16;
#X obj 844 184 pp 18;
#X obj 844 164 pp 17;
#X obj 760 251 f;
#X obj 760 274 f;
#X msg 1024 287 read \$1 brl;
#X msg 913 324 recall;
#X msg 1115 287 write \$1 brl;
#X obj 22 646 + 100;
#X obj 22 668 dbtofad;
#X obj 120 583 + 100;
#X obj 120 605 dbtofad;
#X obj 22 689 s \$0early_gain_togui;
#X obj 14 375 r \$0early_gain_fromgui;
#X obj 14 396 fadtodb;
#X obj 14 416 - 100;
#X obj 143 459 fadtodb;
#X obj 143 479 - 100;
#X obj 77 668 s \$0early_cutoff_togui;
#X obj 70 396 r \$0early_cutoff_fromgui;
#X obj 106 418 r \$0early_q_fromgui;
#X obj 92 648 s \$0early_q_togui;
#X obj 120 627 s \$0rev_gain_togui;
#X obj 174 606 s \$0rev_cutoff_togui;
#X obj 184 584 s \$0rev_q_togui;
#X obj 142 439 r \$0rev_gain_fromgui;
#X obj 199 460 r \$0rev_cutoff_fromgui;
#X obj 237 482 r \$0rev_q_fromgui;
#X obj 254 697 s \$0rev_dec_l_time_togui;
#X obj 281 677 s \$0rev_dec_lm_freq_togui;
#X obj 309 658 s \$0rev_dec_m_time_togui;
#X obj 336 638 s \$0rev_dec_mh_freq_togui;
#X obj 364 617 s \$0rev_dec_h_time_togui;
#X obj 491 552 r \$0rev_dec_l_time_fromgui;
#X obj 529 571 r \$0rev_dec_lm_freq_fromgui;
#X obj 567 590 r \$0rev_dec_m_time_fromgui;
#X obj 607 612 r \$0rev_dec_mh_freq_fromgui;
#X obj 642 634 r \$0rev_dec_h_time_fromgui;
#X obj 929 193 inlet;
#X obj 976 193 inlet;
#X obj 1025 193 inlet;
#X obj 1116 191 inlet;
#X obj 31 59 inlet;
#X obj 1115 263 symbol;
#X obj 1026 261 symbol;
#X connect 0 0 1 0;
#X connect 1 0 2 0;
#X connect 2 0 3 0;
#X connect 4 0 5 0;
#X connect 14 0 15 0;
#X connect 15 0 16 0;
#X connect 16 0 17 0;
#X connect 21 0 22 0;
#X connect 27 0 28 0;
#X connect 34 0 35 0;
#X connect 41 0 42 0;
#X connect 48 0 49 0;
#X connect 55 0 56 0;
#X connect 72 0 129 0;
#X connect 72 0 154 0;
#X connect 75 0 129 1;
#X connect 75 0 155 0;
#X connect 80 0 131 0;
#X connect 80 0 156 0;
#X connect 82 0 131 1;
#X connect 82 0 157 0;
#X connect 88 0 137 0;
#X connect 88 0 171 0;
#X connect 91 0 137 1;
#X connect 91 0 170 0;
#X connect 97 0 135 0;
#X connect 97 0 167 0;
#X connect 100 0 135 1;
#X connect 100 0 166 0;
#X connect 107 0 133 0;
#X connect 107 0 168 0;
#X connect 110 0 133 1;
#X connect 110 0 169 0;
#X connect 127 0 72 0;
#X connect 127 1 75 0;
#X connect 130 0 80 0;
#X connect 130 1 82 0;
#X connect 132 0 107 0;
#X connect 132 1 110 0;
#X connect 134 0 97 0;
#X connect 134 1 100 0;
#X connect 136 0 88 0;
#X connect 136 1 91 0;
#X connect 138 0 164 0;
#X connect 139 0 164 0;
#X connect 140 0 72 0;
#X connect 141 0 75 0;
#X connect 142 0 80 0;
#X connect 143 0 82 0;
#X connect 144 0 175 0;
#X connect 144 1 164 1;
#X connect 145 0 164 0;
#X connect 146 0 164 0;
#X connect 147 0 164 0;
#X connect 148 0 164 0;
#X connect 149 0 164 0;
#X connect 150 0 164 0;
#X connect 151 0 164 0;
#X connect 152 0 164 0;
#X connect 153 0 164 0;
#X connect 154 0 164 0;
#X connect 155 0 164 0;
#X connect 156 0 164 0;
#X connect 157 0 164 0;
#X connect 158 0 159 0;
#X connect 158 1 164 1;
#X connect 159 0 164 0;
#X connect 160 0 88 0;
#X connect 161 0 91 0;
#X connect 162 0 97 0;
#X connect 163 0 100 0;
#X connect 164 0 165 0;
#X connect 165 0 177 0;
#X connect 165 1 187 0;
#X connect 165 2 190 0;
#X connect 165 3 179 0;
#X connect 165 4 192 0;
#X connect 165 5 193 0;
#X connect 165 6 197 0;
#X connect 165 7 198 0;
#X connect 165 8 199 0;
#X connect 165 9 200 0;
#X connect 165 10 201 0;
#X connect 165 11 140 0;
#X connect 165 12 141 0;
#X connect 165 13 142 0;
#X connect 165 14 143 0;
#X connect 165 15 172 0;
#X connect 165 16 173 0;
#X connect 165 17 160 0;
#X connect 165 18 161 0;
#X connect 165 19 162 0;
#X connect 165 20 163 0;
#X connect 166 0 164 0;
#X connect 167 0 164 0;
#X connect 168 0 164 0;
#X connect 169 0 164 0;
#X connect 170 0 164 0;
#X connect 171 0 164 0;
#X connect 172 0 107 0;
#X connect 173 0 110 0;
#X connect 174 0 164 0;
#X connect 175 0 164 0;
#X connect 176 0 164 0;
#X connect 177 0 178 0;
#X connect 178 0 181 0;
#X connect 179 0 180 0;
#X connect 180 0 191 0;
#X connect 182 0 183 0;
#X connect 183 0 184 0;
#X connect 184 0 138 0;
#X connect 185 0 186 0;
#X connect 186 0 146 0;
#X connect 188 0 139 0;
#X connect 189 0 145 0;
#X connect 194 0 185 0;
#X connect 195 0 147 0;
#X connect 196 0 148 0;
#X connect 202 0 149 0;
#X connect 203 0 150 0;
#X connect 204 0 151 0;
#X connect 205 0 152 0;
#X connect 206 0 153 0;
#X connect 207 0 144 0;
#X connect 208 0 158 0;
#X connect 209 0 213 0;
#X connect 210 0 212 0;
#X connect 212 0 176 0;
#X connect 213 0 174 0;
#X coords 0 0 1 1 672 206 1 0 100;
#X restore 13 145 pd EDIT_early_reverb;
#X obj 14 574 outlet;
#X obj 121 593 namecanvas \$0-EDIT;
#X obj 276 558 inlet;
#X obj 326 576 symbol \$0-EDIT;
#X obj 275 600 pack f s;
#X obj 276 579 t f b;
#X msg 275 622 \; \$2 vis \$1;
#N canvas 358 62 748 684 files 0;
#X obj 31 154 r \$0_filename_fromgui;
#X obj 44 608 outlet;
#X text 438 298 in Settings \, only the filename;
#X text 439 284 The presets are not stored;
#X obj 177 201 r GUI_NET_initialized;
#X obj 177 222 del 1000;
#X obj 31 283 sendreceive EXT_REV_PBANKFILE;
#X obj 73 307 s \$0_filename_togui;
#X msg 63 496 0;
#X obj 44 520 sendreceive EXT_REV_PRESET;
#X obj 31 217 symbol;
#X obj 252 608 outlet;
#X obj 355 607 outlet;
#X obj 139 605 outlet;
#X obj 77 28 hradio 15 1 0 10 empty empty RECALL_PRESET_from_RAM 0
-6 0 10 -24198 -1 -1 0;
#X obj 77 58 hradio 15 1 0 10 empty empty STORE_PRESET_to_RAM 0 -6
0 10 -258699 -1 -1 0;
#X obj 446 115 openpanel;
#X obj 528 117 savepanel;
#X obj 449 18 cnv 15 114 60 empty empty New 42 12 0 14 -249661 -66577
0;
#X obj 452 22 bng 25 250 50 0 empty empty LOAD 0 34 0 10 -24198 -1
-1;
#X obj 535 22 bng 25 250 50 0 empty empty SAVE 0 34 0 10 -258699 -1
-1;
#X obj 506 59 cnv 8 8 8 empty empty File -18 -10 0 14 -249661 -66577
0;
#X obj 280 18 cnv 15 114 71 empty empty File 35 12 0 14 -233017 -66577
0;
#X obj 283 22 bng 25 250 50 0 empty empty LOAD 0 34 0 10 -24198 -1
-1;
#X obj 366 22 bng 25 250 50 0 empty empty SAVE 0 34 0 10 -258699 -1
-1;
#X obj 287 65 cnv 8 8 8 empty empty Symbolbox 10 4 0 14 -233017 -66577
0;
#X obj 315 45 cnv 8 8 8 empty empty in 10 4 0 14 -233017 -66577 0;
#X obj 15 91 cnv 12 552 12 empty empty empty 35 12 0 14 -233017 -66577
0;
#X symbolatom 14 90 79 0 0 2 parameter_bank_filename #0_filename_togui
#0_filename_fromgui;
#X msg 177 244 symbol ../default.rev;
#X text 33 654 + float;
#X text 41 640 recall;
#X text 131 652 + float;
#X text 139 638 store;
#X text 253 635 load;
#X text 245 649 + sym;
#X text 357 651 + sym;
#X text 365 637 save;
#X obj 446 139 t b s;
#X msg 291 349 1;
#X msg 326 350 2;
#X obj 291 402 route 1 2;
#X obj 63 470 t b s;
#X obj 291 378 pack f s;
#X obj 285 119 t b b;
#X obj 368 119 t b b;
#X obj 280 429 symbol;
#X obj 341 428 symbol;
#X obj 529 139 t b s;
#X connect 0 0 10 0;
#X connect 4 0 5 0;
#X connect 5 0 29 0;
#X connect 6 0 7 0;
#X connect 6 0 43 1;
#X connect 8 0 9 0;
#X connect 9 0 1 0;
#X connect 9 0 14 0;
#X connect 10 0 6 0;
#X connect 14 0 9 0;
#X connect 15 0 13 0;
#X connect 16 0 38 0;
#X connect 17 0 48 0;
#X connect 19 0 16 0;
#X connect 20 0 17 0;
#X connect 23 0 44 0;
#X connect 24 0 45 0;
#X connect 29 0 10 0;
#X connect 38 0 39 0;
#X connect 38 1 10 0;
#X connect 39 0 43 0;
#X connect 40 0 43 0;
#X connect 41 0 46 0;
#X connect 41 1 47 0;
#X connect 42 0 8 0;
#X connect 42 1 11 0;
#X connect 43 0 41 0;
#X connect 44 0 39 0;
#X connect 44 1 10 0;
#X connect 45 0 40 0;
#X connect 45 1 10 0;
#X connect 46 0 42 0;
#X connect 47 0 12 0;
#X connect 48 0 40 0;
#X connect 48 1 10 0;
#X coords 0 -1 1 1 566 100 1 10 10;
#X restore 75 45 pd files;
#X text 188 17 REVERB To AMBISONIC Domain;
#X text 60 363 IEM \, Thomas Musil adapted by WR;
#X connect 3 0 6 0;
#X connect 4 0 5 1;
#X connect 5 0 7 0;
#X connect 6 0 5 0;
#X connect 6 1 4 0;
#X connect 8 0 0 1;
#X connect 8 1 0 2;
#X connect 8 2 0 3;
#X connect 8 3 0 4;
