#N canvas 1016 363 359 525 10;
#X obj 27 160 f;
#X obj 105 150 + 1;
#X obj 27 399 outlet;
#X obj 27 185 t f f f f;
#X obj 27 355 pack f \$1;
#X obj 105 168 % 60;
#X obj 24 22 inlet;
#X obj 49 68 list prepend 0;
#X obj 50 89 list trim;
#X obj 51 115 s buff-\$1;
#X obj 45 322 table buff-\$1 190;
#X obj 23 44 t b a;
#X obj 46 235 * 190;
#X obj 46 257 pack f \$1;
#X msg 46 278 memset \$1 buff-\$2;
#X obj 46 301 shmem \$1 11400;
#X msg 27 378 send-\$2 \$1;
#X connect 0 0 3 0;
#X connect 1 0 5 0;
#X connect 3 0 1 0;
#X connect 3 0 4 0;
#X connect 3 1 12 0;
#X connect 4 0 16 0;
#X connect 5 0 0 1;
#X connect 6 0 11 0;
#X connect 7 0 8 0;
#X connect 8 0 9 0;
#X connect 11 0 0 0;
#X connect 11 1 7 0;
#X connect 12 0 13 0;
#X connect 13 0 14 0;
#X connect 14 0 15 0;
#X connect 16 0 2 0;
