#N canvas 1 82 756 546 10;
#N canvas 371 79 800 608 forme 0;
#X obj 20 584 translateXYZ;
#X obj 14 554 unpack s f f f;
#X obj 20 613 sphere 0.3;
#X obj 141 584 translateXYZ;
#X obj 135 554 unpack s f f f;
#X obj 141 613 sphere 0.3;
#X obj 389 585 translateXYZ;
#X obj 383 555 unpack s f f f;
#X obj 389 614 sphere 0.3;
#X obj 262 586 translateXYZ;
#X obj 256 556 unpack s f f f;
#X obj 262 615 sphere 0.3;
#X obj 303 15 inlet;
#X obj 9 642 gemhead;
#X obj 73 469 gemhead;
#X obj 193 470 gemhead;
#X obj 262 512 gemhead;
#X obj 388 512 gemhead;
#X msg 29 691 \$1 \$2 \$3;
#X msg 60 668 \$1 \$2 \$3;
#X obj 233 646 gemhead;
#X msg 267 696 \$1 \$2 \$3;
#X msg 284 668 \$1 \$2 \$3;
#X obj 358 644 gemhead;
#X msg 392 694 \$1 \$2 \$3;
#X msg 409 670 \$1 \$2 \$3;
#X obj 473 644 gemhead;
#X msg 507 693 \$1 \$2 \$3;
#X msg 524 669 \$1 \$2 \$3;
#X obj 579 643 gemhead;
#X msg 613 693 \$1 \$2 \$3;
#X msg 630 669 \$1 \$2 \$3;
#X obj 9 722 curve 2;
#X obj 234 726 curve 2;
#X obj 358 724 curve 2;
#X obj 579 723 curve 2;
#X obj 118 641 gemhead;
#X msg 138 690 \$1 \$2 \$3;
#X msg 169 667 \$1 \$2 \$3;
#X obj 118 721 curve 2;
#X obj 716 642 gemhead;
#X msg 736 691 \$1 \$2 \$3;
#X obj 716 722 curve 2;
#X obj 473 723 curve 2;
#X obj 107 123 link3D \$0-link 1 3 1 0.1;
#X obj 322 63 mass3D \$0-mass 10 1 0 0;
#X obj 422 138 link3D \$0-link 1 3 1 0.1;
#X obj 570 273 mass3D \$0-mass 10 0 0;
#X obj 758 271 link3D \$0-link2 1 0.6 0 0;
#X obj 458 375 link3D \$0-link 1 3 1 0.1;
#X obj 276 306 link3D \$0-link 1 3 1 0.1;
#X obj 289 246 link3D \$0-link 1 3 1 0.1;
#X obj 27 283 mass3D \$0-mass 10 -1 0 0;
#X obj 91 403 link3D \$0-link 1 3 1 0.1;
#X obj 287 486 mass3D \$0-mass 10 0 1 0;
#X connect 0 0 2 0;
#X connect 1 1 0 1;
#X connect 1 2 0 2;
#X connect 1 3 0 3;
#X connect 3 0 5 0;
#X connect 4 1 3 1;
#X connect 4 2 3 2;
#X connect 4 3 3 3;
#X connect 6 0 8 0;
#X connect 7 1 6 1;
#X connect 7 2 6 2;
#X connect 7 3 6 3;
#X connect 9 0 11 0;
#X connect 10 1 9 1;
#X connect 10 2 9 2;
#X connect 10 3 9 3;
#X connect 12 0 45 0;
#X connect 13 0 32 0;
#X connect 14 0 0 0;
#X connect 15 0 3 0;
#X connect 16 0 9 0;
#X connect 17 0 6 0;
#X connect 18 0 32 1;
#X connect 19 0 32 2;
#X connect 20 0 33 0;
#X connect 21 0 33 1;
#X connect 22 0 33 2;
#X connect 23 0 34 0;
#X connect 24 0 34 1;
#X connect 25 0 34 2;
#X connect 26 0 43 0;
#X connect 27 0 43 1;
#X connect 28 0 43 2;
#X connect 29 0 35 0;
#X connect 30 0 35 1;
#X connect 31 0 35 2;
#X connect 36 0 39 0;
#X connect 37 0 39 1;
#X connect 38 0 39 2;
#X connect 40 0 42 0;
#X connect 41 0 42 1;
#X connect 44 0 52 0;
#X connect 44 1 45 0;
#X connect 45 0 4 0;
#X connect 45 0 22 0;
#X connect 45 0 28 0;
#X connect 45 0 30 0;
#X connect 45 0 44 1;
#X connect 45 0 46 0;
#X connect 45 0 50 1;
#X connect 46 0 45 0;
#X connect 46 1 47 0;
#X connect 47 0 7 0;
#X connect 47 0 38 0;
#X connect 47 0 25 0;
#X connect 47 0 31 0;
#X connect 47 0 41 0;
#X connect 47 0 46 1;
#X connect 47 0 48 0;
#X connect 47 0 49 1;
#X connect 47 0 51 1;
#X connect 48 0 47 0;
#X connect 49 0 54 0;
#X connect 49 1 47 0;
#X connect 50 0 54 0;
#X connect 50 1 45 0;
#X connect 51 0 52 0;
#X connect 51 1 47 0;
#X connect 52 0 1 0;
#X connect 52 0 18 0;
#X connect 52 0 37 0;
#X connect 52 0 21 0;
#X connect 52 0 44 0;
#X connect 52 0 51 0;
#X connect 52 0 53 0;
#X connect 53 0 52 0;
#X connect 53 1 54 0;
#X connect 54 0 10 0;
#X connect 54 0 19 0;
#X connect 54 0 24 0;
#X connect 54 0 27 0;
#X connect 54 0 49 0;
#X connect 54 0 50 0;
#X connect 54 0 53 1;
#X restore 49 482 pd forme;
#X obj 207 40 tgl 15 0 empty empty empty 0 -6 0 8 -262144 -1 -1 0 1
;
#X obj 207 61 metro 50;
#X msg 86 249 force3D 0 0 1;
#X msg 94 273 force3D 0 1 0;
#X msg 103 297 force3D 1 0 0;
#X msg 49 395 force3D 0 0 10;
#X msg 55 419 force3D 0 10 0;
#X msg 64 443 force3D 10 0 0;
#X msg 111 321 force3D 2 1 1;
#X obj 207 87 t b b;
#N canvas 506 270 658 479 change 0;
#X msg 102 189 setK \$1;
#X msg 170 189 setD \$1;
#X msg 33 73 setM \$1;
#X floatatom 102 162 5 0 0 0 - - -;
#X floatatom 170 162 5 0 0 0 - - -;
#X floatatom 33 50 5 5 100 0 - - -;
#X floatatom 33 163 5 0 0 0 - - -;
#X msg 33 189 setL \$1;
#X floatatom 36 297 5 0 0 0 - - -;
#X msg 36 319 setL \$1;
#X msg 33 140 1;
#X msg 171 140 1;
#X msg 102 139 3;
#X msg 33 26 10;
#X msg 102 319 setK \$1;
#X msg 170 319 setD \$1;
#X floatatom 102 293 5 0 0 0 - - -;
#X floatatom 170 293 5 0 0 0 - - -;
#X text 106 27 <- default value;
#X text 109 100 weight of the mass;
#X text 317 137 <- default values;
#X text 315 189 pyramide linkison properties;
#X text 257 270 <- default values;
#X text 258 318 linkison beetween the pyramide and a fixed point (0
\, 0 \, 0);
#X msg 36 273 1;
#X msg 102 270 0.6;
#X msg 171 271 0;
#X floatatom 238 162 5 0 0 0 - - -;
#X msg 238 189 setD2 \$1;
#X msg 239 140 0.1;
#X text 36 429 take care to extrem values;
#X obj 33 99 s \$0-mass;
#X obj 33 216 s \$0-link;
#X obj 36 380 s \$0-link2;
#X obj 350 68 inlet;
#X obj 350 93 route mass rigidity;
#X connect 0 0 32 0;
#X connect 1 0 32 0;
#X connect 2 0 31 0;
#X connect 3 0 0 0;
#X connect 4 0 1 0;
#X connect 5 0 2 0;
#X connect 6 0 7 0;
#X connect 7 0 32 0;
#X connect 8 0 9 0;
#X connect 9 0 33 0;
#X connect 10 0 6 0;
#X connect 11 0 4 0;
#X connect 12 0 3 0;
#X connect 13 0 5 0;
#X connect 14 0 33 0;
#X connect 15 0 33 0;
#X connect 16 0 14 0;
#X connect 17 0 15 0;
#X connect 24 0 8 0;
#X connect 25 0 16 0;
#X connect 26 0 17 0;
#X connect 27 0 28 0;
#X connect 28 0 32 0;
#X connect 29 0 27 0;
#X connect 34 0 35 0;
#X connect 35 0 5 0;
#X connect 35 1 3 0;
#X restore 494 94 pd change physical properties;
#X text 225 272 <- send forces to the 4 masss;
#X text 235 388 <- send forces to a masss;
#X text 237 484 <- structure and gem stuff;
#X text 86 178 4 masss are all link together \, with the same kind
of link.;
#X text 83 203 A link is add to a mass \, for the structure to stay
in the screen.;
#X text 217 510 If the line does not display corectly \, you sould
upgrade GEM;
#X text 241 36 <- 1;
#X obj 206 18 initbang;
#X obj 275 119 s \$0-link;
#X obj 275 143 s \$0-link2;
#X obj 207 118 s \$0-mass;
#X obj 45 352 s \$0-mass;
#X obj 112 41 inlet;
#X msg 44 143 force3D \$1 \$2 \$3;
#X obj 67 112 pack f f f;
#X obj 99 86 t b f;
#X obj 150 42 inlet;
#X obj 140 85 t b f;
#X obj 461 43 inlet;
#X text 45 7 // from pmpd examples;
#X obj 77 41 inlet;
#X obj 460 68 route forces;
#X text 613 23 // TO IMPROVE;
#X connect 1 0 2 0;
#X connect 2 0 10 0;
#X connect 3 0 23 0;
#X connect 4 0 23 0;
#X connect 5 0 23 0;
#X connect 6 0 0 0;
#X connect 7 0 0 0;
#X connect 8 0 0 0;
#X connect 9 0 23 0;
#X connect 10 0 22 0;
#X connect 10 1 20 0;
#X connect 10 1 21 0;
#X connect 19 0 1 0;
#X connect 24 0 27 0;
#X connect 25 0 23 0;
#X connect 26 0 25 0;
#X connect 27 0 26 0;
#X connect 27 1 26 1;
#X connect 28 0 29 0;
#X connect 29 0 26 0;
#X connect 29 1 26 2;
#X connect 30 0 33 0;
#X connect 32 0 26 0;
#X connect 33 0 25 0;
#X connect 33 1 11 0;
