#N canvas 236 91 1043 904 10;
#X obj -449 337 pix_buffer_write camcap;
#X obj 103 122 bng 15 250 50 0 empty empty Record 17 5 0 10 -258113
-1 -258113;
#X obj -299 167 line;
#X obj -299 66 spigot;
#X msg -266 34 0;
#X msg -230 34 1;
#X obj -299 95 t b b b;
#X msg -280 116 1;
#X obj 169 199 hsl 128 8 0 1 0 0 empty empty Countdown 5 5 0 8 -191407
-1 -1 0 1;
#X obj -299 226 route 0;
#X msg -299 254 0;
#X obj -314 288 f;
#X obj -276 288 + 1;
#X obj -449 231 t a b;
#X obj -377 253 spigot;
#X obj 169 207 hsl 128 8 0 127 0 0 empty empty Frame 5 5 0 8 -228856
-1 -1 12700 1;
#X obj -281 354 route 127;
#X obj -376 172 loadbang;
#X msg -376 198 0;
#N canvas 0 0 450 300 gemwin 0;
#X obj 132 136 gemwin;
#X obj 67 89 outlet;
#X obj 67 10 inlet;
#X msg 67 70 set destroy;
#X msg 132 112 create \, 1;
#X msg 198 112 destroy;
#X msg 156 71 set create;
#X obj 67 41 route create;
#X connect 2 0 7 0;
#X connect 3 0 1 0;
#X connect 4 0 0 0;
#X connect 5 0 0 0;
#X connect 6 0 1 0;
#X connect 7 0 3 0;
#X connect 7 0 4 0;
#X connect 7 1 6 0;
#X connect 7 1 5 0;
#X restore 298 477 pd gemwin;
#X msg 298 458 destroy;
#X text 294 437 Create window:;
#X obj -527 706 gemhead 2;
#X obj -527 823 pix_buffer_read camcap;
#X obj -527 847 pix_texture;
#X obj -542 656 tgl 15 0 empty \$0-display empty 17 7 0 10 -262144
-1 -1 1 1;
#X msg 297 559 allocate 800 600 4;
#X obj -344 226 < 128;
#X obj 297 601 pix_buffer camcap 128;
#X msg 10 627 0;
#X msg 84 627 127;
#X obj -130 504 t b f;
#X obj -53 504 t b f;
#X text -121 484 in;
#X text -45 484 out;
#X msg -379 597 0;
#X obj -398 533 t b b b;
#X obj -220 575 f;
#X msg -398 557 1;
#X obj -298 533 t b b;
#X obj -343 465 == 0;
#X obj -511 568 metro;
#X msg -298 558 0;
#X obj -471 673 f;
#X obj -179 538 expr if ($f1==1 \, if($f2==$f3 \, 0 \, 1) \, 0);
#X obj -148 603 f;
#X obj -135 627 !=;
#X obj -167 573 t f b f;
#X obj -167 648 spigot;
#X obj -179 515 t f f;
#X obj -426 731 expr if ($f2==0 \, $f1 \, if($f1==$f5 \, if($f3==1
\, $f4 \, $f5) \, if($f1<$f5 \, $f1+1 \, $f1-1))) \; if($f1==$f5 &
$f2==1 & $f3==0 \, 0 \, $f2);
#X obj -484 541 -;
#X obj -476 511 t b f;
#X msg -534 511 140;
#X text -427 709 Position;
#X text -332 709 Play/Stop;
#X text -247 709 Loop;
#X text -169 709 in;
#X text -87 709 out;
#X obj 84 663 s routpoint1;
#X obj 10 663 s rinpoint1;
#X obj -205 440 r inpoint1;
#X obj -138 440 r outpoint1;
#X obj -343 441 r pause1;
#X obj -476 484 r speed1;
#X obj -398 502 r play1;
#X obj -298 502 r stop1;
#X obj -379 622 s unpause1;
#X obj -167 670 s unloop1;
#X obj -456 644 r scrub1;
#X obj -426 779 s rscrub1;
#X obj -343 684 *;
#X obj -343 654 t b f;
#X obj -179 494 r loop1;
#X obj -93 782 f;
#X obj 164 663 s rspeed1;
#X msg 164 626 73;
#X obj 103 137 bng 15 250 50 0 play1 empty Play 17 7 0 10 -262144 -1
-1;
#X obj 103 168 bng 15 250 50 0 stop1 empty Stop 17 7 0 10 -262144 -1
-1;
#X obj 169 157 hsl 128 10 0 127 0 1 inpoint1 rinpoint1 In 5 6 0 8 -228856
-1 -1 0 1;
#X obj 169 167 hsl 128 10 0 127 0 1 outpoint1 routpoint1 Out 5 6 0
8 -228856 -1 -1 12700 1;
#X obj 169 140 hsl 128 15 0 127 0 1 speed1 rspeed1 Speed 5 8 0 8 -261682
-1 -1 7300 1;
#X obj 103 183 tgl 15 1 loop1 unloop1 Loop 17 7 0 10 -262144 -1 -1
1 1;
#X obj 103 153 tgl 15 1 pause1 unpause1 Pause 17 7 0 10 -262144 -1
-1 1 1;
#X obj 169 177 hsl 128 10 0 127 0 0 scrub1 rscrub1 Scrub 5 6 0 8 -262144
-1 -1 1 1;
#X obj -501 44 inlet video;
#X obj 240 118 tgl 15 1 \$0-display empty Display 17 7 0 10 -262144
-1 -1 1 1;
#X obj -527 871 outlet video;
#X obj -230 7 initbang;
#X obj 297 530 initbang;
#X obj 84 595 initbang;
#X obj -534 484 initbang;
#X text -84 22 !! NOT TESTED;
#X obj 242 52 initbang;
#X msg 240 86 1;
#X obj 86 -6 inlet;
#X obj 89 22 route record play;
#X floatatom -287 197 5 0 0 0 - - -;
#X msg -299 141 0 1;
#X obj 341 0 inlet scrub;
#X obj 343 29 * 127;
#X connect 1 0 3 0;
#X connect 2 0 8 0;
#X connect 2 0 9 0;
#X connect 2 0 97 0;
#X connect 3 0 6 0;
#X connect 4 0 3 1;
#X connect 5 0 3 1;
#X connect 6 0 98 0;
#X connect 6 1 7 0;
#X connect 6 2 4 0;
#X connect 7 0 2 0;
#X connect 9 0 10 0;
#X connect 10 0 11 1;
#X connect 10 0 27 0;
#X connect 11 0 12 0;
#X connect 11 0 15 0;
#X connect 11 0 16 0;
#X connect 11 0 0 1;
#X connect 11 0 27 0;
#X connect 12 0 11 1;
#X connect 13 0 0 0;
#X connect 13 1 14 0;
#X connect 14 0 11 0;
#X connect 16 0 5 0;
#X connect 17 0 18 0;
#X connect 18 0 14 1;
#X connect 19 0 20 0;
#X connect 20 0 19 0;
#X connect 22 0 23 0;
#X connect 23 0 24 0;
#X connect 24 0 87 0;
#X connect 25 0 22 0;
#X connect 25 0 41 0;
#X connect 26 0 28 0;
#X connect 27 0 14 1;
#X connect 29 0 60 0;
#X connect 30 0 59 0;
#X connect 31 0 44 0;
#X connect 31 1 44 1;
#X connect 32 0 44 0;
#X connect 32 1 44 2;
#X connect 35 0 67 0;
#X connect 36 0 38 0;
#X connect 36 1 35 0;
#X connect 36 2 37 0;
#X connect 37 0 43 1;
#X connect 38 0 71 0;
#X connect 39 0 42 0;
#X connect 39 1 35 0;
#X connect 40 0 72 0;
#X connect 41 0 43 0;
#X connect 42 0 71 0;
#X connect 43 0 50 0;
#X connect 44 0 47 0;
#X connect 44 0 50 2;
#X connect 45 0 46 0;
#X connect 46 0 48 1;
#X connect 47 0 48 0;
#X connect 47 1 45 0;
#X connect 47 2 46 1;
#X connect 48 0 68 0;
#X connect 49 0 44 0;
#X connect 49 1 45 1;
#X connect 50 0 70 0;
#X connect 50 1 74 0;
#X connect 51 0 41 1;
#X connect 52 0 51 0;
#X connect 52 1 51 1;
#X connect 53 0 51 0;
#X connect 61 0 31 0;
#X connect 61 0 37 1;
#X connect 61 0 50 3;
#X connect 62 0 32 0;
#X connect 62 0 50 4;
#X connect 63 0 40 0;
#X connect 64 0 52 0;
#X connect 65 0 36 0;
#X connect 66 0 39 0;
#X connect 69 0 23 1;
#X connect 69 0 43 1;
#X connect 71 0 50 1;
#X connect 72 0 71 0;
#X connect 72 1 71 1;
#X connect 73 0 49 0;
#X connect 74 0 50 1;
#X connect 76 0 75 0;
#X connect 85 0 13 0;
#X connect 88 0 5 0;
#X connect 89 0 26 0;
#X connect 90 0 76 0;
#X connect 90 0 30 0;
#X connect 90 0 29 0;
#X connect 91 0 53 0;
#X connect 93 0 94 0;
#X connect 94 0 86 0;
#X connect 95 0 96 0;
#X connect 96 0 1 0;
#X connect 96 1 77 0;
#X connect 98 0 2 0;
#X connect 99 0 100 0;
#X connect 100 0 84 0;
#X coords 0 -1 1 1 200 120 1 100 100;
