#N canvas 218 22 629 521 10;
#X obj 203 -14 inlet increment;
#X obj 34 -15 inlet bang;
#X obj 31 268 f;
#X obj 229 140 alternate;
#X msg 229 167 -1;
#X msg 293 170 1;
#X obj 200 222 * 1;
#X obj 203 28 route bang;
#X obj 88 110 loadbang;
#X obj 176 346 + 1;
#X text -4 -47 Compteur qui incrémente une variable selon un pas donné
;
#X obj 143 173 f \$2;
#X obj 483 166 r \$1;
#X obj 141 424 s \$1;
#X obj 158 70 t b b;
#X obj 267 74 t f b;
#X obj 306 264 spigot;
#X obj 405 345 !=;
#X obj 483 216 t f f;
#X obj 141 381 t f f f;
#X connect 0 0 7 0;
#X connect 1 0 2 0;
#X connect 2 0 9 0;
#X connect 3 0 4 0;
#X connect 3 1 5 0;
#X connect 4 0 6 1;
#X connect 5 0 6 1;
#X connect 6 0 9 1;
#X connect 7 0 14 0;
#X connect 7 1 15 0;
#X connect 8 0 11 0;
#X connect 9 0 19 0;
#X connect 11 0 6 0;
#X connect 12 0 18 0;
#X connect 14 0 11 0;
#X connect 14 1 3 0;
#X connect 15 0 11 0;
#X connect 15 1 5 0;
#X connect 16 0 2 1;
#X connect 17 0 16 1;
#X connect 18 0 16 0;
#X connect 18 1 17 0;
#X connect 19 0 13 0;
#X connect 19 1 2 1;
#X connect 19 2 17 1;
#X coords 0 521 1 520 65 15 0;
