#N canvas 542 52 490 385 10;
#X obj 56 242 random 1000;
#X obj 58 42 inlet bang;
#X text 91 107 min;
#X text 150 104 max;
#X obj 56 278 +;
#X obj 56 328 outlet;
#X obj 146 182 + 1;
#X obj 146 122 f \$2;
#X obj 82 124 f \$1;
#X obj 150 42 inlet min;
#X obj 228 43 inlet max;
#X text 29 -2 Nombre aléatoire entre deux valeurs incluses. Les valeurs
min et max peuvent être des nombres à virgule.;
#X obj 82 152 * 1000;
#X obj 56 303 / 1000;
#X obj 119 214 -;
#X text 281 130 Nbre de chiffres après la virgule;
#X obj 338 178 f \$3;
#X obj 312 243 pow;
#X msg 303 208 10;
#X obj 338 208 t b f;
#X obj 146 154 * 1000;
#X obj 58 80 t b b b b;
#X connect 0 0 4 0;
#X connect 1 0 21 0;
#X connect 4 0 13 0;
#X connect 6 0 14 0;
#X connect 7 0 20 0;
#X connect 8 0 12 0;
#X connect 9 0 8 1;
#X connect 10 0 7 1;
#X connect 12 0 4 1;
#X connect 12 0 14 1;
#X connect 13 0 5 0;
#X connect 14 0 0 1;
#X connect 16 0 19 0;
#X connect 17 0 12 1;
#X connect 17 0 13 1;
#X connect 17 0 20 1;
#X connect 18 0 17 0;
#X connect 19 0 18 0;
#X connect 19 1 17 1;
#X connect 20 0 6 0;
#X connect 21 0 0 0;
#X connect 21 1 7 0;
#X connect 21 2 8 0;
#X connect 21 3 16 0;
#X coords 0 385 1 384 65 15 0;
