#N canvas 205 22 903 705 10;
#X obj 155 687 outlet nombre;
#X obj 477 210 hradio 15 1 0 3 empty empty empty 0 -8 0 10 -262144
-1 -1 0;
#X obj 527 79 loadbang;
#X obj 477 120 \$4;
#X obj 355 628 outlet bang;
#X obj 35 181 t b b b;
#X obj -12 301 line;
#X obj -12 217 \$3;
#X obj 58 599 *;
#X obj 77 272 \$2;
#X obj 69 637 + \$1;
#X text -105 20 Rampe avec profils dynamiques;
#X obj -62 490 demux 0 1 2;
#X obj -124 556 curve_exp;
#X obj -61 556 curve_log;
#X obj 626 120 \$5;
#X obj 129 326 - \$1;
#X obj 401 408 \$3;
#X obj 627 164 tgl 15 0 empty empty empty 17 7 0 10 -262144 -1 -1 0
1;
#X obj 400 486 line;
#X obj 400 552 select 0;
#X msg -21 259 set 0;
#X msg -69 259 1 \$1;
#X obj -47 237 t f b;
#X obj 401 432 t f b;
#X msg 427 454 set 1;
#X msg 379 454 0 \$1;
#X obj -12 346 select 1;
#X obj 400 518 t f f;
#X msg 264 407 1;
#X obj 525 315 demux 0 1;
#X obj 106 141 demux 0 1 2;
#X obj 105 88 t a a;
#X obj 177 109 length;
#X obj 212 164 route set;
#X obj 192 16 inlet;
#X obj 263 192 unpack f f;
#X obj 321 248 / 1;
#X msg 488 251 2;
#X obj 355 595 switch 2;
#X obj 628 545 + 1;
#X obj 263 224 t b f;
#X text -58 300 aller;
#X text 441 485 retour;
#X obj 550 210 select 1;
#X msg 489 277 1;
#X text 654 121 aller-retour;
#X text 506 121 profil;
#X obj 192 40 route stop;
#X msg 305 74 stop;
#X connect 1 0 12 1;
#X connect 2 0 3 0;
#X connect 2 0 15 0;
#X connect 3 0 1 0;
#X connect 5 0 7 0;
#X connect 5 1 9 0;
#X connect 6 0 27 0;
#X connect 7 0 23 0;
#X connect 8 0 10 0;
#X connect 9 0 16 0;
#X connect 10 0 0 0;
#X connect 12 0 8 0;
#X connect 12 1 13 0;
#X connect 12 2 14 0;
#X connect 13 0 8 0;
#X connect 14 0 8 0;
#X connect 15 0 18 0;
#X connect 16 0 8 1;
#X connect 17 0 24 0;
#X connect 18 0 30 1;
#X connect 18 0 40 0;
#X connect 18 0 44 0;
#X connect 19 0 28 0;
#X connect 20 0 39 2;
#X connect 21 0 6 0;
#X connect 22 0 6 0;
#X connect 23 0 22 0;
#X connect 23 1 21 0;
#X connect 24 0 26 0;
#X connect 24 1 25 0;
#X connect 25 0 19 0;
#X connect 26 0 19 0;
#X connect 27 0 30 0;
#X connect 27 0 39 1;
#X connect 27 1 12 0;
#X connect 28 0 20 0;
#X connect 28 1 12 0;
#X connect 29 0 12 0;
#X connect 30 0 29 0;
#X connect 30 1 17 0;
#X connect 31 0 5 0;
#X connect 31 1 16 1;
#X connect 31 1 10 1;
#X connect 31 1 0 0;
#X connect 31 2 34 0;
#X connect 32 0 31 0;
#X connect 32 1 33 0;
#X connect 33 0 31 1;
#X connect 34 0 16 1;
#X connect 34 0 10 1;
#X connect 34 1 36 0;
#X connect 35 0 48 0;
#X connect 36 0 41 0;
#X connect 36 1 37 0;
#X connect 37 0 7 1;
#X connect 37 0 17 1;
#X connect 38 0 37 1;
#X connect 39 0 4 0;
#X connect 40 0 39 0;
#X connect 41 0 32 0;
#X connect 41 1 9 1;
#X connect 44 0 38 0;
#X connect 44 1 45 0;
#X connect 45 0 37 1;
#X connect 48 0 49 0;
#X connect 48 1 32 0;
#X connect 49 0 6 0;
#X connect 49 0 19 0;
#X coords 0 705 1 704 65 15 0;
