#N canvas 414 190 432 373 10;
#X obj 78 152 list-dripslow;
#X msg 181 70 10 20 30 40;
#X obj 78 227 delay 500;
#X obj 312 100 loadbang;
#X obj 278 134 \$1;
#X obj 278 164 select 0;
#X msg 206 175 500;
#X obj 222 116 bang;
#X obj 78 107 t b l;
#X obj 302 53 inlet vitesse;
#X obj 205 277 outlet bang;
#X obj 78 187 t b a;
#X obj 78 45 inlet liste;
#X obj 105 276 outlet valeur;
#X text 41 7 Envoie les valeurs d'une liste (nombres ou symboles) selon
une certaine vitesse (en ms);
#X connect 0 0 11 0;
#X connect 0 1 10 0;
#X connect 1 0 8 0;
#X connect 2 0 7 0;
#X connect 3 0 4 0;
#X connect 4 0 5 0;
#X connect 5 0 6 0;
#X connect 5 1 2 1;
#X connect 6 0 2 1;
#X connect 7 0 0 0;
#X connect 8 0 0 0;
#X connect 8 1 0 1;
#X connect 9 0 4 0;
#X connect 11 0 2 0;
#X connect 11 1 13 0;
#X connect 12 0 8 0;
