#N canvas 387 116 491 453 10;
#X obj 108 327 delay 500;
#X obj 342 120 loadbang;
#X obj 308 154 \$1;
#X obj 308 184 select 0;
#X obj 196 140 bang;
#X obj 274 371 outlet bang;
#X obj 78 65 inlet liste;
#X obj 169 285 * 1;
#X obj 332 73 inlet pulsation;
#X obj 78 174 list append;
#X msg 224 209 500;
#X obj 52 371 outlet liste-MIDI;
#X text 41 7 Envoie les valeurs d'une liste de données MIDI (hauteur
et vélocité) selon un certain rythme et une pulsation données (en
ms);
#X msg 136 92 70 127 2 65 120 1 60 100 2;
#X obj 78 199 list split 3;
#X obj 62 244 list split 2;
#X obj 68 292 t b l;
#X obj 78 127 t b l;
#X connect 0 0 4 0;
#X connect 1 0 2 0;
#X connect 2 0 3 0;
#X connect 3 0 10 0;
#X connect 3 1 7 1;
#X connect 4 0 9 0;
#X connect 6 0 17 0;
#X connect 7 0 0 1;
#X connect 8 0 2 0;
#X connect 9 0 14 0;
#X connect 10 0 7 1;
#X connect 13 0 17 0;
#X connect 14 0 15 0;
#X connect 14 1 9 1;
#X connect 14 2 5 0;
#X connect 15 0 16 0;
#X connect 15 1 7 0;
#X connect 16 0 0 0;
#X connect 16 1 11 0;
#X connect 17 0 9 0;
#X connect 17 1 9 1;
