#N canvas 0 22 450 300 10;
#X obj 57 59 inlet nombre;
#X obj 172 128 \$1;
#X obj 215 132 \$2;
#X obj 98 174 >=;
#X obj 208 184 <=;
#X obj 169 251 outlet boolean;
#X obj 352 91 loadbang;
#X obj 169 206 &;
#X obj 57 96 t f f;
#X text 53 30 Teste d'une valeur entre min et max (incluses);
#X obj 159 59 inlet min;
#X obj 277 57 inlet max;
#X connect 0 0 8 0;
#X connect 1 0 3 1;
#X connect 2 0 4 1;
#X connect 3 0 7 0;
#X connect 4 0 7 1;
#X connect 6 0 2 0;
#X connect 6 0 1 0;
#X connect 7 0 5 0;
#X connect 8 0 3 0;
#X connect 8 1 4 0;
#X connect 10 0 1 0;
#X connect 11 0 2 0;
#X coords 0 300 1 299 65 15 0;
