#N canvas 194 235 442 259 10;
#X obj 54 -308 inlet bang;
#X obj 49 -155 outlet width;
#X obj 160 -156 outlet height;
#X obj 54 -252 s \$1.get-imageSize;
#X obj 49 -200 r \$1.width;
#X obj 160 -200 r \$1.height;
#X text 36 -351 Retourne la taille d'une image chargée par les patches
de la bibliothèque "2DMovie".;
#X obj 54 -280 bang;
#X connect 0 0 7 0;
#X connect 4 0 1 0;
#X connect 5 0 2 0;
#X connect 7 0 3 0;
#X coords 0 259 1 258 65 15 0;
