#N canvas 71 39 1093 683 10;
#X obj 161 112 +;
#X obj 161 146 sqrt;
#X obj 83 76 *;
#X obj 196 72 *;
#X obj 82 -7 -;
#X obj 195 2 -;
#X obj 242 265 outlet distance;
#X obj 161 251 <= \$3;
#X obj 283 -78 t b f;
#X obj 351 266 outlet angle;
#X obj 351 216 % 360;
#X obj 319 121 demux 0 1;
#X obj 309 154 + 360;
#X obj 375 148 * -1;
#X obj 375 175 + 180;
#X obj 82 49 t f f f;
#X obj 202 -76 t b f;
#X obj 82 -34 f;
#X obj 195 -27 f;
#X obj 483 210 &;
#X obj 161 180 t f f f;
#X obj 652 -56 tgl 30 0 empty empty empty 17 7 0 10 -262144 -1 -1 0
1;
#X obj 161 284 tgl 30 0 empty empty empty 17 7 0 10 -262144 -1 -1 0
1;
#X obj 480 -84 >= 0;
#X obj 652 -86 expr if(($f1>=0 & $f1<45)|($f1>=315 & $f1<360) \, 1
\, 0);
#X obj 756 -17 expr if(($f1>=45 & $f1<135) \, 1 \, 0);
#X text 746 -107 à droite;
#X text 817 -37 en haut;
#X text 812 59 à gauche;
#X obj 759 79 expr if(($f1>=135 & $f1<225) \, 1 \, 0);
#X text 844 127 en bas;
#X obj 814 149 expr if(($f1>=225 & $f1<315) \, 1 \, 0);
#X obj 759 105 tgl 30 0 empty empty empty 17 7 0 10 -262144 -1 -1 0
1;
#X obj 814 175 tgl 30 0 empty empty empty 17 7 0 10 -262144 -1 -1 0
1;
#X obj 756 7 tgl 30 0 empty empty empty 17 7 0 10 -262144 -1 -1 0 1
;
#X obj 483 261 outlet hit-right;
#X obj 613 322 outlet hit-up;
#X obj 716 420 outlet hit-left;
#X obj 836 405 outlet hit-down;
#X obj 462 164 t f f f f;
#X obj 161 356 outlet hit;
#X obj 613 269 &;
#X obj 378 334 t f f f f;
#X obj 716 361 &;
#X obj 836 347 &;
#X text 64 250 écart toléré;
#X obj 161 326 change;
#X obj 483 235 change;
#X obj 613 296 change;
#X obj 716 388 change;
#X obj 836 375 change;
#X text 25 -217 Teste la collision de deux objets graphiques. On teste
la distance entre les objets selon une surface circulaire.;
#X obj 158 -179 loadbang;
#X obj 81 -105 getPosition \$1;
#X obj 202 -106 getPosition \$2;
#X obj 158 -151 t b b;
#X obj 242 217 + 0.4999;
#X obj 242 241 int;
#X obj 195 44 t f f f;
#X obj 307 39 asin;
#X obj 307 3 / 1;
#X obj 307 67 * 180;
#X obj 307 91 / 3.14159;
#X connect 0 0 1 0;
#X connect 1 0 20 0;
#X connect 2 0 0 0;
#X connect 3 0 0 1;
#X connect 4 0 15 0;
#X connect 5 0 58 0;
#X connect 7 0 22 0;
#X connect 7 0 42 0;
#X connect 8 0 18 0;
#X connect 8 1 5 1;
#X connect 10 0 39 0;
#X connect 10 0 9 0;
#X connect 11 0 12 0;
#X connect 11 1 13 0;
#X connect 12 0 10 0;
#X connect 13 0 14 0;
#X connect 14 0 10 0;
#X connect 15 0 2 0;
#X connect 15 1 2 1;
#X connect 15 2 23 0;
#X connect 16 0 17 0;
#X connect 16 1 4 1;
#X connect 17 0 4 0;
#X connect 18 0 5 0;
#X connect 19 0 47 0;
#X connect 20 0 7 0;
#X connect 20 1 56 0;
#X connect 20 2 60 1;
#X connect 21 0 19 1;
#X connect 22 0 46 0;
#X connect 23 0 11 1;
#X connect 24 0 21 0;
#X connect 25 0 34 0;
#X connect 29 0 32 0;
#X connect 31 0 33 0;
#X connect 32 0 43 1;
#X connect 33 0 44 1;
#X connect 34 0 41 1;
#X connect 39 0 24 0;
#X connect 39 1 25 0;
#X connect 39 2 29 0;
#X connect 39 3 31 0;
#X connect 41 0 48 0;
#X connect 42 0 44 0;
#X connect 42 1 43 0;
#X connect 42 2 41 0;
#X connect 42 3 19 0;
#X connect 43 0 49 0;
#X connect 44 0 50 0;
#X connect 46 0 40 0;
#X connect 47 0 35 0;
#X connect 48 0 36 0;
#X connect 49 0 37 0;
#X connect 50 0 38 0;
#X connect 52 0 55 0;
#X connect 53 0 17 0;
#X connect 53 1 18 0;
#X connect 54 0 16 0;
#X connect 54 1 8 0;
#X connect 55 0 53 0;
#X connect 55 1 54 0;
#X connect 56 0 57 0;
#X connect 57 0 6 0;
#X connect 58 0 3 0;
#X connect 58 1 3 1;
#X connect 58 2 60 0;
#X connect 59 0 61 0;
#X connect 60 0 59 0;
#X connect 61 0 62 0;
#X connect 62 0 11 0;
#X coords 0 683 1 682 65 15 0;
