#N canvas 115 89 848 634 10;
#X obj 308 95 tgl 15 0 empty empty visible 17 7 0 10 -262144 -1 -1
1 1;
#X obj 308 172 alpha;
#X obj 567 28 loadbang;
#X msg 550 66 1;
#X obj 287 50 r \$1.visible;
#X obj 308 323 translateXYZ 0 0 0;
#X obj 77 165 unpack f f f;
#X obj 308 479 rotateXYZ 0 0 0;
#X msg 383 101 set \$1;
#X obj 394 59 r \$1.layer;
#X obj 588 95 s get-currentSize;
#X obj 51 51 cnv 15 32 18 empty empty Label 2 8 0 10 -262144 -63205
0;
#X obj 308 237 colorRGB 0 0 0 1;
#X obj 76 258 r \$1.reverseX;
#X obj 76 354 r \$1.reverseY;
#X obj 586 423 r \$1.rotateZ;
#X obj 586 383 r \$1.rotateX;
#X obj 586 403 r \$1.rotateY;
#X obj 308 398 scaleXYZ 1 1 1;
#N canvas 247 33 618 390 charge-texte 0;
#X obj 337 150 getdir 2;
#X obj 337 176 pack s s;
#X obj 384 125 t b s;
#X obj 384 100 tosymbol;
#X msg 337 249 font \$1;
#X msg 319 70 vera.ttf;
#X obj 384 70 r \$1.font;
#X obj 147 34 loadbang;
#X msg 115 243 text \$1;
#X obj 81 84 tof/arguments;
#X obj 115 209 tosymbol;
#X obj 81 117 list split 1;
#X text 35 -18 Constitution du message de chargement du texte et de
la police ttf;
#X obj 168 288 outlet message-texte;
#X obj 208 110 s antialias;
#X msg 208 81 4;
#X msg 246 81 8;
#X text 404 250 [ font .../font/police.ttf (;
#X obj 337 201 makesymbol %s/font/%s;
#X obj 8 150 r \$1.text;
#X connect 0 0 1 0;
#X connect 1 0 18 0;
#X connect 2 0 0 0;
#X connect 2 1 1 1;
#X connect 3 0 2 0;
#X connect 4 0 13 0;
#X connect 5 0 3 0;
#X connect 6 0 3 0;
#X connect 7 0 9 0;
#X connect 7 0 15 0;
#X connect 7 0 5 0;
#X connect 8 0 13 0;
#X connect 9 0 11 0;
#X connect 10 0 8 0;
#X connect 11 1 10 0;
#X connect 15 0 14 0;
#X connect 16 0 14 0;
#X connect 18 0 4 0;
#X connect 19 0 10 0;
#X restore 75 538 pd charge-texte;
#X obj 564 487 r \$1.size;
#X obj 86 208 r \$1.alpha;
#X obj 77 139 r \$1.color;
#X obj 75 448 r \$1.refPoint;
#X obj 629 487 loadbang;
#X msg 629 512 10;
#X obj 75 471 list;
#X msg 75 493 justify \$1 \$2;
#X obj 308 564 text3d texte;
#X obj 308 121 gemhead 60;
#X obj 76 283 select 1;
#X msg 76 310 -1;
#X msg 121 310 1;
#X obj 76 379 select 1;
#X msg 76 405 -1;
#X msg 121 405 1;
#X text 47 21 Dessin d'une chaîne de caractère avec le GemManager
;
#X obj 588 301 r \$1.depthZ;
#X obj 562 200 r \$1.x;
#X obj 671 201 r \$1.y;
#X obj 575 239 pixelWW-2-persp;
#X text 507 177 Nombre de pixels converti en position GEM;
#X obj 594 63 s get-coeffGEM;
#X connect 0 0 29 0;
#X connect 1 0 12 0;
#X connect 2 0 3 0;
#X connect 2 0 10 0;
#X connect 2 0 42 0;
#X connect 3 0 0 0;
#X connect 4 0 0 0;
#X connect 5 0 18 0;
#X connect 6 0 12 1;
#X connect 6 1 12 2;
#X connect 6 2 12 3;
#X connect 7 0 28 0;
#X connect 8 0 29 0;
#X connect 9 0 8 0;
#X connect 12 0 5 0;
#X connect 13 0 30 0;
#X connect 14 0 33 0;
#X connect 15 0 7 3;
#X connect 16 0 7 1;
#X connect 17 0 7 2;
#X connect 18 0 7 0;
#X connect 19 0 28 0;
#X connect 20 0 28 1;
#X connect 21 0 12 4;
#X connect 22 0 6 0;
#X connect 23 0 26 0;
#X connect 24 0 25 0;
#X connect 25 0 28 1;
#X connect 26 0 27 0;
#X connect 27 0 28 0;
#X connect 29 0 1 0;
#X connect 30 0 31 0;
#X connect 30 1 32 0;
#X connect 31 0 18 1;
#X connect 32 0 18 1;
#X connect 33 0 34 0;
#X connect 33 1 35 0;
#X connect 34 0 18 2;
#X connect 35 0 18 2;
#X connect 37 0 5 3;
#X connect 38 0 40 0;
#X connect 39 0 40 1;
#X connect 40 0 5 1;
#X connect 40 1 5 2;
#X coords 0 -1 1 1 142 20 1 50 50;
