#N canvas 582 52 446 457 10;
#X text 12 -213 Convertit une position (x \, y) en pixels de la fenêtre
de travail \, en unités de l'espace GEM en mode PERSPECTIVE.;
#X obj 184 -50 unpack f f;
#N canvas 619 227 599 403 coeff-pleinEcran 0;
#X obj 105 90 inlet x;
#X obj 372 82 inlet y;
#X obj 96 309 outlet x;
#X obj 381 299 outlet y;
#X obj 131 228 * 1;
#X obj 178 195 r coeffX-GEM;
#X obj 248 41 tgl 15 0 empty empty plein_écran 17 7 0 10 -262144 -1
-1 0 1;
#X obj 105 167 demux 0 1;
#X obj 407 228 * 1;
#X obj 372 167 demux 0 1;
#X obj 227 5 r pleinEcran-GEM;
#X text 81 -22 Application d'un coefficient dans le cas du plein écran
;
#X obj 105 131 f;
#X obj 372 120 f;
#X obj 454 195 r coeffY-GEM;
#X obj 252 76 t b b f;
#X connect 0 0 12 0;
#X connect 1 0 13 0;
#X connect 4 0 2 0;
#X connect 5 0 4 1;
#X connect 6 0 15 0;
#X connect 7 0 2 0;
#X connect 7 1 4 0;
#X connect 8 0 3 0;
#X connect 9 0 3 0;
#X connect 9 1 8 0;
#X connect 10 0 6 0;
#X connect 12 0 7 0;
#X connect 13 0 9 0;
#X connect 14 0 8 1;
#X connect 15 0 12 0;
#X connect 15 1 13 0;
#X connect 15 2 9 1;
#X connect 15 2 7 1;
#X restore 79 -10 pd coeff-pleinEcran;
#X obj 132 -49 f;
#X obj 273 -49 f;
#X obj 164 -99 t b b l;
#X obj 164 -131 r currentSize;
#X obj 256 68 * -8;
#X obj 256 100 /;
#X obj 256 130 + 4;
#X obj 161 88 /;
#X obj 79 47 /;
#X obj 79 18 * 8;
#X obj 114 125 -;
#X obj 162 58 * 4;
#X obj 263 -12 t f f f;
#X obj 114 163 outlet x;
#X obj 256 163 outlet y;
#X obj 66 -139 inlet x;
#X obj 334 -139 inlet y;
#X connect 1 0 14 0;
#X connect 1 1 15 0;
#X connect 2 0 12 0;
#X connect 2 1 7 0;
#X connect 3 0 2 0;
#X connect 4 0 2 1;
#X connect 5 0 3 0;
#X connect 5 1 4 0;
#X connect 5 2 1 0;
#X connect 6 0 5 0;
#X connect 7 0 8 0;
#X connect 8 0 9 0;
#X connect 9 0 17 0;
#X connect 10 0 13 1;
#X connect 11 0 13 0;
#X connect 12 0 11 0;
#X connect 13 0 16 0;
#X connect 14 0 10 0;
#X connect 15 0 11 1;
#X connect 15 1 10 1;
#X connect 15 2 8 1;
#X connect 18 0 3 0;
#X connect 19 0 4 0;
#X coords 0 457 1 456 65 15 0;
