#N canvas 197 113 907 705 10;
#X obj 51 51 cnv 15 74 18 empty empty SimpleButton 2 8 0 10 -262144
-194514 0;
#X obj 308 95 tgl 15 0 empty empty visible 17 7 0 10 -262144 -1 -1
0 1;
#X obj 308 165 alpha;
#X obj 308 595 pix_texture;
#X obj 308 649 rectangle;
#X msg 90 561 quality 0;
#X obj 90 532 loadbang;
#X obj 308 493 scaleXYZ 1 1 1;
#X obj 571 35 loadbang;
#X msg 530 66 1;
#X obj 287 50 r \$1.visible;
#X obj 308 413 translateXYZ 0 0 0;
#X obj 86 285 unpack f f f;
#X obj 86 259 r \$1.color;
#X obj 160 258 r \$1.alpha;
#X obj 308 347 colorRGB 1 1 1 1;
#X obj 308 539 rotateXYZ 0 0 0;
#X obj 571 468 r \$1.rotation;
#X msg 383 101 set \$1;
#X obj 394 59 r \$1.layer;
#N canvas 460 145 727 311 taille-images 0;
#X obj 153 97 pix_info - - - -;
#X obj 218 269 s \$1.height;
#X obj 218 133 change;
#X obj 133 133 change;
#X obj 153 61 inlet;
#X text 17 32 Récupération de la taille des images;
#X obj 133 267 s \$1.width;
#X obj 295 124 t b b;
#X obj 295 98 r \$1.get-imageSize;
#X obj 535 102 t b b;
#X obj 502 164 f;
#X obj 589 163 f;
#X obj 535 66 r \$1.get-imagePosition;
#X obj 622 139 r \$1.y;
#X obj 532 141 r \$1.x;
#X obj 590 191 s \$1.y;
#X obj 502 193 s \$1.x;
#X text 506 35 Mémorisation de la position;
#X obj 218 236 * 1;
#X obj 364 126 r \$1.scaleY;
#X obj 133 235 * 1;
#X obj 28 130 r \$1.scaleX;
#X obj 364 155 t b f;
#X obj 28 162 t b f;
#X obj 133 201 f;
#X obj 218 201 f;
#X connect 0 1 3 0;
#X connect 0 2 2 0;
#X connect 2 0 25 0;
#X connect 3 0 24 0;
#X connect 4 0 0 0;
#X connect 7 0 24 0;
#X connect 7 1 25 0;
#X connect 8 0 7 0;
#X connect 9 0 10 0;
#X connect 9 1 11 0;
#X connect 10 0 16 0;
#X connect 11 0 15 0;
#X connect 12 0 9 0;
#X connect 13 0 11 1;
#X connect 14 0 10 1;
#X connect 18 0 1 0;
#X connect 19 0 22 0;
#X connect 20 0 6 0;
#X connect 21 0 23 0;
#X connect 22 0 25 0;
#X connect 22 1 18 1;
#X connect 23 0 24 0;
#X connect 23 1 20 1;
#X connect 24 0 20 0;
#X connect 25 0 18 0;
#X restore 542 173 pd taille-images;
#X obj 543 97 s get-currentSize;
#N canvas 9 64 945 665 action-souris 0;
#X text -71 33 Par défaut \, [gemmouse] fournit des valeurs en pixels
;
#X obj 201 269 expr if($f1>($f3-$f5/2) & $f1<($f3+$f5/2) & $f2>($f4-$f6/2)
& $f2<($f4+$f6/2) \, 1 \, 0);
#X obj -31 361 tgl 30 0 empty empty empty 17 7 0 10 -262144 -1 -1 0
1;
#X obj -7 305 &;
#X obj 29 362 tgl 30 0 empty empty empty 17 7 0 10 -262144 -1 -1 0
1;
#X obj 292 178 r \$1.x;
#X obj 403 180 r \$1.y;
#X obj 470 181 r \$1.width;
#X obj 581 183 r \$1.height;
#X obj -149 415 s \$1.mouseOver;
#X obj 68 400 s \$1.mouseClic;
#X obj 3 207 spigot;
#X obj 90 200 spigot;
#X obj 231 203 spigot;
#X text 228 300 si le pointeur de la souris est dans le rectangle;
#X obj 264 79 r \$1.mouseMode;
#X obj -85 374 change;
#X obj 264 144 tgl 15 0 empty empty empty 17 7 0 10 -262144 -1 -1 0
1;
#X text -73 11 Action de la souris;
#N canvas 95 247 599 403 coeff-pleinEcran 0;
#X obj 105 90 inlet x;
#X obj 372 82 inlet y;
#X obj 96 309 outlet x;
#X obj 381 299 outlet y;
#X obj 131 228 * 1;
#X obj 178 195 r coeffX-GEM;
#X obj 248 41 tgl 15 0 empty empty plein_écran 17 7 0 10 -262144 -1
-1 0 1;
#X obj 105 167 demux 0 1;
#X obj 407 228 * 1;
#X obj 372 167 demux 0 1;
#X obj 227 5 r pleinEcran-GEM;
#X text 81 -22 Application d'un coefficient dans le cas du plein écran
;
#X obj 105 131 f;
#X obj 372 120 f;
#X obj 454 195 r coeffY-GEM;
#X obj 252 76 t b b f;
#X connect 0 0 12 0;
#X connect 1 0 13 0;
#X connect 4 0 2 0;
#X connect 5 0 4 1;
#X connect 6 0 15 0;
#X connect 7 0 2 0;
#X connect 7 1 4 0;
#X connect 8 0 3 0;
#X connect 9 0 3 0;
#X connect 9 1 8 0;
#X connect 10 0 6 0;
#X connect 12 0 7 0;
#X connect 13 0 9 0;
#X connect 14 0 8 1;
#X connect 15 0 12 0;
#X connect 15 1 13 0;
#X connect 15 2 9 1;
#X connect 15 2 7 1;
#X restore 470 210 pd coeff-pleinEcran;
#N canvas 115 350 599 403 coeff-pleinEcran 0;
#X obj 105 90 inlet x;
#X obj 372 82 inlet y;
#X obj 96 309 outlet x;
#X obj 381 299 outlet y;
#X obj 131 228 * 1;
#X obj 178 195 r coeffX-GEM;
#X obj 248 41 tgl 15 0 empty empty plein_écran 17 7 0 10 -262144 -1
-1 0 1;
#X obj 105 167 demux 0 1;
#X obj 407 228 * 1;
#X obj 372 167 demux 0 1;
#X obj 227 5 r pleinEcran-GEM;
#X text 81 -22 Application d'un coefficient dans le cas du plein écran
;
#X obj 105 131 f;
#X obj 372 120 f;
#X obj 454 195 r coeffY-GEM;
#X obj 252 76 t b b f;
#X connect 0 0 12 0;
#X connect 1 0 13 0;
#X connect 4 0 2 0;
#X connect 5 0 4 1;
#X connect 6 0 15 0;
#X connect 7 0 2 0;
#X connect 7 1 4 0;
#X connect 8 0 3 0;
#X connect 9 0 3 0;
#X connect 9 1 8 0;
#X connect 10 0 6 0;
#X connect 12 0 7 0;
#X connect 13 0 9 0;
#X connect 14 0 8 1;
#X connect 15 0 12 0;
#X connect 15 1 13 0;
#X connect 15 2 9 1;
#X connect 15 2 7 1;
#X restore 292 209 pd coeff-pleinEcran;
#X obj 42 145 gemmouse;
#X obj 178 574 s \$1.x;
#X obj 295 570 s \$1.y;
#X obj 728 189 == 2;
#X obj 429 372 &;
#X obj 474 440 f;
#X obj 553 440 f;
#X obj 190 482 -;
#X obj 307 479 -;
#X obj 514 370 select 1;
#X obj 514 403 t b b;
#X obj 178 512 +;
#X obj 295 510 +;
#X obj 178 540 spigot;
#X obj 295 537 spigot;
#X obj 592 412 r \$1.y;
#X obj 447 404 r \$1.x;
#X text -70 61 mode 0 : pas d'action;
#X text -70 75 mode 1 : sensible au survol et au clic;
#X text -70 89 mode 2 : sensible au survol et au clic + drag&drop;
#X obj 295 427 t f f;
#X obj 178 443 t f f;
#N canvas 95 225 599 403 coeff-pleinEcran2 0;
#X obj 105 90 inlet x;
#X obj 372 82 inlet y;
#X obj 96 309 outlet x;
#X obj 381 299 outlet y;
#X obj 178 195 r coeffX-GEM;
#X obj 248 41 tgl 15 0 empty empty plein_écran 17 7 0 10 -262144 -1
-1 0 1;
#X obj 105 167 demux 0 1;
#X obj 372 167 demux 0 1;
#X obj 227 5 r pleinEcran-GEM;
#X text 81 -22 Application d'un coefficient dans le cas du plein écran
;
#X obj 105 131 f;
#X obj 372 120 f;
#X obj 454 195 r coeffY-GEM;
#X obj 131 228 / 1;
#X obj 407 228 / 1;
#X obj 252 76 t b b f;
#X connect 0 0 10 0;
#X connect 1 0 11 0;
#X connect 4 0 13 1;
#X connect 5 0 15 0;
#X connect 6 0 2 0;
#X connect 6 1 13 0;
#X connect 7 0 3 0;
#X connect 7 1 14 0;
#X connect 8 0 5 0;
#X connect 10 0 6 0;
#X connect 11 0 7 0;
#X connect 12 0 14 1;
#X connect 13 0 2 0;
#X connect 14 0 3 0;
#X connect 15 0 10 0;
#X connect 15 1 11 0;
#X connect 15 2 7 1;
#X connect 15 2 6 1;
#X restore 178 394 pd coeff-pleinEcran2;
#X text 229 571 drag&drop;
#X obj -9 428 select 1;
#X obj 36 520 select 1;
#X obj 36 495 f;
#X msg -54 545 3;
#X obj 36 461 bang;
#X msg 31 546 2;
#X msg 83 545 1;
#X obj -33 582 s \$0-chargeImage;
#X obj 268 241 t b f;
#X obj 90 226 t f f;
#X obj 3 237 t f f;
#X connect 1 0 2 0;
#X connect 2 0 3 1;
#X connect 2 0 16 0;
#X connect 3 0 4 0;
#X connect 4 0 10 0;
#X connect 4 0 25 0;
#X connect 4 0 45 0;
#X connect 5 0 20 0;
#X connect 6 0 20 1;
#X connect 7 0 19 0;
#X connect 8 0 19 1;
#X connect 11 0 55 0;
#X connect 12 0 54 0;
#X connect 13 0 3 0;
#X connect 15 0 17 0;
#X connect 15 0 24 0;
#X connect 16 0 9 0;
#X connect 16 0 47 0;
#X connect 17 0 13 1;
#X connect 17 0 12 1;
#X connect 17 0 11 1;
#X connect 19 0 1 4;
#X connect 19 1 1 5;
#X connect 20 0 53 0;
#X connect 20 1 1 3;
#X connect 21 0 11 0;
#X connect 21 1 12 0;
#X connect 21 2 13 0;
#X connect 24 0 25 1;
#X connect 25 0 30 0;
#X connect 25 0 34 1;
#X connect 25 0 35 1;
#X connect 26 0 28 0;
#X connect 27 0 29 0;
#X connect 28 0 32 1;
#X connect 29 0 33 1;
#X connect 30 0 31 0;
#X connect 31 0 26 0;
#X connect 31 1 27 0;
#X connect 32 0 34 0;
#X connect 33 0 35 0;
#X connect 34 0 22 0;
#X connect 35 0 23 0;
#X connect 36 0 27 1;
#X connect 37 0 26 1;
#X connect 41 0 33 0;
#X connect 41 1 29 1;
#X connect 42 0 32 0;
#X connect 42 1 28 1;
#X connect 43 0 42 0;
#X connect 43 1 41 0;
#X connect 45 0 48 0;
#X connect 45 1 49 0;
#X connect 46 0 50 0;
#X connect 46 1 51 0;
#X connect 47 0 46 0;
#X connect 48 0 52 0;
#X connect 49 0 47 0;
#X connect 50 0 52 0;
#X connect 51 0 52 0;
#X connect 53 0 1 0;
#X connect 53 1 1 2;
#X connect 54 0 43 1;
#X connect 54 1 1 1;
#X connect 55 0 43 0;
#X connect 55 1 1 0;
#X restore 70 107 pd action-souris;
#X obj 308 121 gemhead 60;
#X obj 308 214 pix_image;
#N canvas 94 22 939 806 selection-images 0;
#X text 145 12 Constitution du message de chargement des images;
#X obj 236 79 loadbang;
#X text 145 36 Les formats acceptés sont TIFF \, JPEG et PNG.;
#X msg 417 668 open \$1;
#X text 490 670 [ open .../data/image.typ (;
#X obj 276 170 tof/arguments;
#X obj 276 199 list length;
#X obj 339 256 s \$0-nbrImages;
#X obj 276 226 - 1;
#X obj 38 185 r \$0-chargeImage;
#X obj 231 260 clip 1 1;
#X obj 231 322 select 1 2 3;
#X obj 231 290 change;
#X obj 417 713 outlet image;
#X msg 207 172 1;
#X text 17 140 L'image chargée dépend de;
#X text 17 153 l'action de la souris;
#X obj 236 113 t b b b;
#X obj 339 141 s \$1.mouseMode;
#X msg 307 141 1;
#X text 381 606 nom des images;
#X obj 554 560 getdir 0;
#X obj 598 45 r \$1.load;
#X obj 303 526 getdir 2;
#X obj 353 553 pack s s;
#X msg 353 583 symbol \$1/data/\$2;
#X msg 730 549 0;
#X msg 770 549 1;
#X obj 554 473 t b b;
#X obj 774 583 s \$1.visible;
#X text 630 213 L'instruction "clear" charge un fichier vide.;
#X msg 554 595 symbol \$1/data/void0.gif;
#X obj 625 113 list length;
#X obj 598 78 t a a;
#X obj 617 246 unpack s s s;
#X obj 216 412 symbol \$2;
#X obj 554 213 route clear;
#X obj 286 412 symbol \$3;
#X obj 356 412 symbol \$4;
#X obj 323 485 t b s;
#X obj 478 294 t b b a;
#X obj 722 608 s \$1.mouseMode;
#X connect 1 0 17 0;
#X connect 3 0 13 0;
#X connect 5 0 6 0;
#X connect 6 0 8 0;
#X connect 8 0 7 0;
#X connect 8 0 10 2;
#X connect 9 0 10 0;
#X connect 10 0 12 0;
#X connect 11 0 35 0;
#X connect 11 1 37 0;
#X connect 11 2 38 0;
#X connect 12 0 11 0;
#X connect 14 0 10 0;
#X connect 17 0 14 0;
#X connect 17 1 5 0;
#X connect 17 2 19 0;
#X connect 19 0 18 0;
#X connect 21 0 31 0;
#X connect 22 0 33 0;
#X connect 23 0 24 0;
#X connect 24 0 25 0;
#X connect 25 0 3 0;
#X connect 26 0 29 0;
#X connect 26 0 41 0;
#X connect 27 0 29 0;
#X connect 27 0 41 0;
#X connect 28 0 21 0;
#X connect 28 1 26 0;
#X connect 31 0 3 0;
#X connect 32 0 10 2;
#X connect 32 0 7 0;
#X connect 33 0 36 0;
#X connect 33 1 32 0;
#X connect 34 0 40 0;
#X connect 34 1 37 1;
#X connect 34 2 38 1;
#X connect 35 0 39 0;
#X connect 36 0 28 0;
#X connect 36 1 34 0;
#X connect 37 0 39 0;
#X connect 38 0 39 0;
#X connect 39 0 23 0;
#X connect 39 1 24 1;
#X connect 40 0 27 0;
#X connect 40 1 35 0;
#X connect 40 2 35 1;
#X restore 63 148 pd selection-images;
#X obj 127 368 r \$0-nbrImages;
#X obj 88 406 &;
#X obj 88 432 select 1;
#X msg 133 459 1;
#X obj 37 218 r \$0-nbrImages;
#X obj -2 256 &;
#X obj -2 282 select 1;
#X obj 34 369 r \$1.mouseClic;
#X obj -56 219 r \$1.mouseOver;
#X obj 37 241 == 1;
#X obj 127 391 < 3;
#X msg 88 459 0.96;
#X obj 47 305 bang;
#X obj 86 309 f 1;
#X obj 120 308 f 1;
#X obj 155 308 f 1;
#X msg -2 307 0.7;
#X obj 308 274 t a a;
#X text 49 17 Dessin d'un bouton d'images avec le GemManager;
#X obj 571 394 r \$1.depthZ;
#X obj 552 300 r \$1.x;
#X obj 661 301 r \$1.y;
#X obj 565 339 pixelWW-2-persp;
#X text 498 277 Nombre de pixels converti en position GEM;
#X obj 538 558 r \$1.width;
#X obj 672 558 r \$1.height;
#N canvas 57 44 462 426 taille-rectangle 0;
#X obj 184 -40 unpack f f;
#N canvas 619 227 599 403 coeff-pleinEcran 0;
#X obj 105 90 inlet x;
#X obj 372 82 inlet y;
#X obj 96 309 outlet x;
#X obj 381 299 outlet y;
#X obj 131 228 * 1;
#X obj 178 195 r coeffX-GEM;
#X obj 248 41 tgl 15 0 empty empty plein_écran 17 7 0 10 -262144 -1
-1 0 1;
#X obj 105 167 demux 0 1;
#X obj 407 228 * 1;
#X obj 372 167 demux 0 1;
#X obj 227 5 r pleinEcran-GEM;
#X text 81 -22 Application d'un coefficient dans le cas du plein écran
;
#X obj 105 131 f;
#X obj 372 120 f;
#X obj 454 195 r coeffY-GEM;
#X obj 252 76 t b b f;
#X connect 0 0 12 0;
#X connect 1 0 13 0;
#X connect 4 0 2 0;
#X connect 5 0 4 1;
#X connect 6 0 15 0;
#X connect 7 0 2 0;
#X connect 7 1 4 0;
#X connect 8 0 3 0;
#X connect 9 0 3 0;
#X connect 9 1 8 0;
#X connect 10 0 6 0;
#X connect 12 0 7 0;
#X connect 13 0 9 0;
#X connect 14 0 8 1;
#X connect 15 0 12 0;
#X connect 15 1 13 0;
#X connect 15 2 9 1;
#X connect 15 2 7 1;
#X restore 79 0 pd coeff-pleinEcran;
#X obj 132 -39 f;
#X obj 273 -39 f;
#X obj 164 -89 t b b l;
#X obj 164 -121 r currentSize;
#X obj 236 70 /;
#X obj 79 66 /;
#X obj 79 121 outlet x;
#X obj 236 121 outlet y;
#X obj 66 -129 inlet x;
#X obj 334 -129 inlet y;
#X text 22 -193 Correction de la taille de l'affichage selon la fenêtre
;
#X obj 79 37 * 4;
#X obj 236 38 * 4;
#X obj 263 -2 t f f;
#X connect 0 1 15 0;
#X connect 1 0 13 0;
#X connect 1 1 14 0;
#X connect 2 0 1 0;
#X connect 3 0 1 1;
#X connect 4 0 2 0;
#X connect 4 1 3 0;
#X connect 4 2 0 0;
#X connect 5 0 4 0;
#X connect 6 0 9 0;
#X connect 7 0 8 0;
#X connect 10 0 2 0;
#X connect 11 0 3 0;
#X connect 13 0 7 0;
#X connect 14 0 6 0;
#X connect 15 0 7 1;
#X connect 15 1 6 1;
#X restore 551 595 pd taille-rectangle;
#X text 470 536 Correction de la taille de l'affichage selon la fenêtre
;
#X obj 573 73 s get-coeffGEM;
#X connect 1 0 23 0;
#X connect 2 0 24 0;
#X connect 3 0 4 0;
#X connect 5 0 3 0;
#X connect 6 0 5 0;
#X connect 7 0 16 0;
#X connect 8 0 21 0;
#X connect 8 0 9 0;
#X connect 8 0 54 0;
#X connect 9 0 1 0;
#X connect 10 0 1 0;
#X connect 11 0 7 0;
#X connect 12 0 39 0;
#X connect 12 1 40 0;
#X connect 12 2 41 0;
#X connect 13 0 12 0;
#X connect 14 0 15 4;
#X connect 15 0 11 0;
#X connect 16 0 3 0;
#X connect 17 0 16 3;
#X connect 18 0 23 0;
#X connect 19 0 18 0;
#X connect 23 0 2 0;
#X connect 24 0 43 0;
#X connect 25 0 24 0;
#X connect 26 0 36 0;
#X connect 27 0 28 0;
#X connect 28 0 37 0;
#X connect 28 1 29 0;
#X connect 29 0 7 2;
#X connect 29 0 7 1;
#X connect 30 0 35 0;
#X connect 31 0 32 0;
#X connect 32 0 42 0;
#X connect 32 1 38 0;
#X connect 33 0 27 0;
#X connect 34 0 31 0;
#X connect 35 0 31 1;
#X connect 36 0 27 1;
#X connect 37 0 7 1;
#X connect 37 0 7 2;
#X connect 38 0 39 0;
#X connect 38 0 40 0;
#X connect 38 0 41 0;
#X connect 39 0 15 1;
#X connect 40 0 15 2;
#X connect 41 0 15 3;
#X connect 42 0 15 1;
#X connect 42 0 15 2;
#X connect 42 0 15 3;
#X connect 43 0 15 0;
#X connect 43 1 20 0;
#X connect 45 0 11 3;
#X connect 46 0 48 0;
#X connect 47 0 48 1;
#X connect 48 0 11 1;
#X connect 48 1 11 2;
#X connect 50 0 52 0;
#X connect 51 0 52 1;
#X connect 52 0 4 1;
#X connect 52 1 4 2;
#X coords 0 -1 1 1 142 20 1 50 50;
