#N canvas 580 88 1007 704 10;
#X obj 308 95 tgl 15 0 empty empty visible 17 7 0 10 -262144 -1 -1
1 1;
#X obj 308 577 pix_texture;
#X obj 90 514 loadbang;
#X obj 308 460 scaleXYZ 1 1 1;
#X obj 572 31 loadbang;
#X msg 530 66 1;
#X obj 287 50 r \$1.visible;
#X obj 76 247 unpack f f f;
#X obj 76 221 r \$1.color;
#X obj 76 290 r \$1.alpha;
#X obj 308 339 colorRGB 1 1 1 1;
#X obj 308 521 rotateXYZ 0 0 0;
#X obj 533 462 r \$1.rotation;
#X msg 383 101 set \$1;
#X obj 394 59 r \$1.layer;
#N canvas 43 82 758 317 taille-images 0;
#X obj 143 87 pix_info - - - -;
#X obj 208 259 s \$1.height;
#X obj 208 123 change;
#X obj 123 123 change;
#X obj 143 51 inlet;
#X text 7 22 Récupération de la taille des images;
#X obj 123 257 s \$1.width;
#X obj 285 114 t b b;
#X obj 285 88 r \$1.get-imageSize;
#X obj 525 92 t b b;
#X obj 492 154 f;
#X obj 579 153 f;
#X obj 525 56 r \$1.get-imagePosition;
#X obj 612 129 r \$1.y;
#X obj 522 131 r \$1.x;
#X obj 580 181 s \$1.y;
#X obj 492 183 s \$1.x;
#X text 496 25 Mémorisation de la position;
#X obj 208 226 * 1;
#X obj 354 116 r \$1.scaleY;
#X obj 123 225 * 1;
#X obj 18 120 r \$1.scaleX;
#X obj 354 145 t b f;
#X obj 18 152 t b f;
#X obj 123 191 f;
#X obj 208 191 f;
#X connect 0 1 3 0;
#X connect 0 2 2 0;
#X connect 2 0 25 0;
#X connect 3 0 24 0;
#X connect 4 0 0 0;
#X connect 7 0 24 0;
#X connect 7 1 25 0;
#X connect 8 0 7 0;
#X connect 9 0 10 0;
#X connect 9 1 11 0;
#X connect 10 0 16 0;
#X connect 11 0 15 0;
#X connect 12 0 9 0;
#X connect 13 0 11 1;
#X connect 14 0 10 1;
#X connect 18 0 1 0;
#X connect 19 0 22 0;
#X connect 20 0 6 0;
#X connect 21 0 23 0;
#X connect 22 0 25 0;
#X connect 22 1 18 1;
#X connect 23 0 24 0;
#X connect 23 1 20 1;
#X connect 24 0 20 0;
#X connect 25 0 18 0;
#X restore 532 180 pd taille-images;
#X obj 553 97 s get-currentSize;
#X obj 51 51 cnv 15 68 18 empty empty SimpleImage 2 8 0 10 -262144
-51537 0;
#N canvas 612 78 675 615 charge-image 0;
#X obj 128 529 outlet liste-des-images;
#X text 35 12 Constitution du message de chargement des images;
#X text 35 36 Les formats acceptés sont TIFF \, JPEG et PNG.;
#X msg 128 475 open \$1;
#X obj 277 167 s \$1.mode;
#X obj 277 132 \$3;
#X obj 352 114 select 1;
#X obj 352 167 s \$1.layer;
#X msg 352 141 50;
#X text 265 189 Envoi du mode d'utilisation et;
#X text 266 204 de la couche GEM (selon le mode);
#X msg 397 141 60;
#X obj 223 502 print [SimpleImage];
#X text 349 425 nom des images;
#X obj 110 75 loadbang;
#X obj -60 355 getdir 0;
#X obj 154 196 r \$1.load;
#X obj 154 222 symbol;
#X obj 243 346 getdir 2;
#X obj 293 373 pack s s;
#X msg 293 403 symbol \$1/data/\$2;
#X obj 70 201 symbol \$2;
#X msg 132 354 0;
#X msg 172 354 1;
#X obj 64 317 t b b;
#X obj 263 315 t b b s;
#X obj 121 263 select clear;
#X obj 134 383 s \$1.visible;
#X text 211 264 L'instruction "clear" charge un fichier vide.;
#X msg -60 380 symbol \$1/data/void0.gif;
#X text 199 467 [ open .../data/image.typ (;
#X connect 3 0 0 0;
#X connect 3 0 12 0;
#X connect 5 0 4 0;
#X connect 5 0 6 0;
#X connect 6 0 8 0;
#X connect 6 1 11 0;
#X connect 8 0 7 0;
#X connect 11 0 7 0;
#X connect 14 0 21 0;
#X connect 14 0 5 0;
#X connect 15 0 29 0;
#X connect 16 0 17 0;
#X connect 17 0 26 0;
#X connect 18 0 19 0;
#X connect 19 0 20 0;
#X connect 20 0 3 0;
#X connect 21 0 26 0;
#X connect 22 0 27 0;
#X connect 23 0 27 0;
#X connect 24 0 15 0;
#X connect 24 1 22 0;
#X connect 25 0 23 0;
#X connect 25 1 18 0;
#X connect 25 2 19 1;
#X connect 26 0 24 0;
#X connect 26 1 25 0;
#X connect 29 0 3 0;
#X restore 73 143 pd charge-image;
#X obj 308 219 pix_image;
#X obj 307 664 rectangle 4 4;
#X obj 825 504 r \$1.mode;
#X obj 825 533 t b f;
#X obj 836 285 t b f;
#X obj 836 316 s get-currentSize;
#X obj 308 121 gemhead 60;
#X obj 79 370 r \$1.reverse;
#X obj 79 395 select 1;
#X msg 79 420 -1;
#X msg 124 420 1;
#N canvas 302 61 897 618 action-souris 0;
#X text -71 33 Par défaut \, [gemmouse] fournit des valeurs en pixels
;
#X obj 201 269 expr if($f1>($f3-$f5/2) & $f1<($f3+$f5/2) & $f2>($f4-$f6/2)
& $f2<($f4+$f6/2) \, 1 \, 0);
#X obj -31 361 tgl 30 0 empty empty empty 17 7 0 10 -262144 -1 -1 0
1;
#X obj -7 305 &;
#X obj 29 362 tgl 30 0 empty empty empty 17 7 0 10 -262144 -1 -1 0
1;
#X obj 292 180 r \$1.x;
#X obj 403 180 r \$1.y;
#X obj 470 181 r \$1.width;
#X obj 581 183 r \$1.height;
#X obj -85 406 s \$1.mouseOver;
#X obj 29 405 s \$1.mouseClic;
#X obj 3 207 spigot;
#X obj 90 200 spigot;
#X obj 231 203 spigot;
#X text 228 300 si le pointeur de la souris est dans le rectangle;
#X obj 264 79 r \$1.mouseMode;
#X obj -85 374 change;
#X obj 264 124 tgl 15 0 empty empty empty 17 7 0 10 -262144 -1 -1 0
1;
#X text -73 11 Action de la souris;
#N canvas 73 374 599 403 coeff-pleinEcran 0;
#X obj 105 90 inlet x;
#X obj 372 82 inlet y;
#X obj 96 309 outlet x;
#X obj 381 299 outlet y;
#X obj 131 228 * 1;
#X obj 178 195 r coeffX-GEM;
#X obj 248 41 tgl 15 0 empty empty plein_écran 17 7 0 10 -262144 -1
-1 0 1;
#X obj 105 167 demux 0 1;
#X obj 407 228 * 1;
#X obj 372 167 demux 0 1;
#X obj 227 5 r pleinEcran-GEM;
#X text 81 -22 Application d'un coefficient dans le cas du plein écran
;
#X obj 105 131 f;
#X obj 372 120 f;
#X obj 454 195 r coeffY-GEM;
#X obj 252 76 t b b f;
#X connect 0 0 12 0;
#X connect 1 0 13 0;
#X connect 4 0 2 0;
#X connect 5 0 4 1;
#X connect 6 0 15 0;
#X connect 7 0 2 0;
#X connect 7 1 4 0;
#X connect 8 0 3 0;
#X connect 9 0 3 0;
#X connect 9 1 8 0;
#X connect 10 0 6 0;
#X connect 12 0 7 0;
#X connect 13 0 9 0;
#X connect 14 0 8 1;
#X connect 15 0 12 0;
#X connect 15 1 13 0;
#X connect 15 2 9 1;
#X connect 15 2 7 1;
#X restore 470 210 pd coeff-pleinEcran;
#N canvas 115 350 599 403 coeff-pleinEcran 0;
#X obj 105 90 inlet x;
#X obj 372 82 inlet y;
#X obj 96 309 outlet x;
#X obj 381 299 outlet y;
#X obj 131 228 * 1;
#X obj 178 195 r coeffX-GEM;
#X obj 248 41 tgl 15 0 empty empty plein_écran 17 7 0 10 -262144 -1
-1 0 1;
#X obj 105 167 demux 0 1;
#X obj 407 228 * 1;
#X obj 372 167 demux 0 1;
#X obj 227 5 r pleinEcran-GEM;
#X text 81 -22 Application d'un coefficient dans le cas du plein écran
;
#X obj 105 131 f;
#X obj 372 120 f;
#X obj 454 195 r coeffY-GEM;
#X obj 252 76 t b b f;
#X connect 0 0 12 0;
#X connect 1 0 13 0;
#X connect 4 0 2 0;
#X connect 5 0 4 1;
#X connect 6 0 15 0;
#X connect 7 0 2 0;
#X connect 7 1 4 0;
#X connect 8 0 3 0;
#X connect 9 0 3 0;
#X connect 9 1 8 0;
#X connect 10 0 6 0;
#X connect 12 0 7 0;
#X connect 13 0 9 0;
#X connect 14 0 8 1;
#X connect 15 0 12 0;
#X connect 15 1 13 0;
#X connect 15 2 9 1;
#X connect 15 2 7 1;
#X restore 292 209 pd coeff-pleinEcran;
#X obj 42 145 gemmouse;
#X obj 178 574 s \$1.x;
#X obj 295 570 s \$1.y;
#X obj 728 189 == 2;
#X obj 429 372 &;
#X obj 479 438 f;
#X obj 549 438 f;
#X obj 193 482 -;
#X obj 310 479 -;
#X obj 509 361 select 1;
#X obj 509 394 t b b;
#X obj 178 512 +;
#X obj 295 510 +;
#X obj 178 540 spigot;
#X obj 295 537 spigot;
#X obj 568 410 r \$1.y;
#X obj 446 404 r \$1.x;
#X text -70 61 mode 0 : pas d'action;
#X text -70 75 mode 1 : sensible au survol et au clic;
#X text -70 89 mode 2 : sensible au survol et au clic + drag&drop;
#X obj 295 427 t f f;
#X obj 178 443 t f f;
#N canvas 95 225 599 403 coeff-pleinEcran2 0;
#X obj 105 90 inlet x;
#X obj 372 82 inlet y;
#X obj 96 309 outlet x;
#X obj 381 299 outlet y;
#X obj 178 195 r coeffX-GEM;
#X obj 248 41 tgl 15 0 empty empty plein_écran 17 7 0 10 -262144 -1
-1 0 1;
#X obj 105 167 demux 0 1;
#X obj 372 167 demux 0 1;
#X obj 227 5 r pleinEcran-GEM;
#X text 81 -22 Application d'un coefficient dans le cas du plein écran
;
#X obj 105 131 f;
#X obj 372 120 f;
#X obj 454 195 r coeffY-GEM;
#X obj 131 228 / 1;
#X obj 407 228 / 1;
#X obj 252 76 t b b f;
#X connect 0 0 10 0;
#X connect 1 0 11 0;
#X connect 4 0 13 1;
#X connect 5 0 15 0;
#X connect 6 0 2 0;
#X connect 6 1 13 0;
#X connect 7 0 3 0;
#X connect 7 1 14 0;
#X connect 8 0 5 0;
#X connect 10 0 6 0;
#X connect 11 0 7 0;
#X connect 12 0 14 1;
#X connect 13 0 2 0;
#X connect 14 0 3 0;
#X connect 15 0 10 0;
#X connect 15 1 11 0;
#X connect 15 2 7 1;
#X connect 15 2 6 1;
#X restore 178 394 pd coeff-pleinEcran2;
#X text 227 570 drag&drop;
#X obj 258 231 t b f;
#X obj 3 237 t f f;
#X obj 90 226 t f f;
#X connect 1 0 2 0;
#X connect 2 0 16 0;
#X connect 2 0 3 1;
#X connect 3 0 4 0;
#X connect 4 0 10 0;
#X connect 4 0 25 0;
#X connect 5 0 20 0;
#X connect 6 0 20 1;
#X connect 7 0 19 0;
#X connect 8 0 19 1;
#X connect 11 0 46 0;
#X connect 12 0 47 0;
#X connect 13 0 3 0;
#X connect 15 0 17 0;
#X connect 15 0 24 0;
#X connect 16 0 9 0;
#X connect 17 0 13 1;
#X connect 17 0 12 1;
#X connect 17 0 11 1;
#X connect 19 0 1 4;
#X connect 19 1 1 5;
#X connect 20 0 45 0;
#X connect 20 1 1 3;
#X connect 21 0 11 0;
#X connect 21 1 12 0;
#X connect 21 2 13 0;
#X connect 24 0 25 1;
#X connect 25 0 30 0;
#X connect 25 0 34 1;
#X connect 25 0 35 1;
#X connect 26 0 28 0;
#X connect 27 0 29 0;
#X connect 28 0 32 1;
#X connect 29 0 33 1;
#X connect 30 0 31 0;
#X connect 31 0 26 0;
#X connect 31 1 27 0;
#X connect 32 0 34 0;
#X connect 33 0 35 0;
#X connect 34 0 22 0;
#X connect 35 0 23 0;
#X connect 36 0 27 1;
#X connect 37 0 26 1;
#X connect 41 0 33 0;
#X connect 41 1 29 1;
#X connect 42 0 32 0;
#X connect 42 1 28 1;
#X connect 43 0 42 0;
#X connect 43 1 41 0;
#X connect 45 0 1 0;
#X connect 45 1 1 2;
#X connect 46 0 43 0;
#X connect 46 1 1 0;
#X connect 47 0 43 1;
#X connect 47 1 1 1;
#X restore 69 97 pd action-souris;
#X obj 308 279 t a a;
#X text 47 21 Dessin d'une image avec le GemManager;
#X obj 825 572 s get-currentSize;
#X msg 90 543 quality 0;
#X obj 308 169 alpha;
#X obj 308 395 translateXYZ 0 0 0;
#X text 780 481 Extension de l'image (mode 1);
#X obj 836 257 r \$1.mode;
#X obj 534 399 r \$1.depthZ;
#X obj 541 256 r \$1.x;
#X obj 650 257 r \$1.y;
#X obj 554 295 pixelWW-2-persp;
#X text 476 233 Nombre de pixels converti en position GEM;
#X obj 539 351 expr if($f2==0 \, $f1 \, 0);
#X obj 741 351 expr if($f2==0 \, $f1 \, 0);
#X text 772 232 Centrage en plein écran (mode 1);
#X obj 504 547 r \$1.width;
#X obj 658 547 r \$1.height;
#X text 456 525 Correction de la taille de l'affichage selon la fenêtre
;
#N canvas 57 44 462 426 taille-rectangle2 0;
#X obj 184 -40 unpack f f;
#N canvas 619 227 599 403 coeff-pleinEcran 0;
#X obj 105 90 inlet x;
#X obj 372 82 inlet y;
#X obj 96 309 outlet x;
#X obj 381 299 outlet y;
#X obj 131 228 * 1;
#X obj 178 195 r coeffX-GEM;
#X obj 248 41 tgl 15 0 empty empty plein_écran 17 7 0 10 -262144 -1
-1 0 1;
#X obj 105 167 demux 0 1;
#X obj 407 228 * 1;
#X obj 372 167 demux 0 1;
#X obj 227 5 r pleinEcran-GEM;
#X text 81 -22 Application d'un coefficient dans le cas du plein écran
;
#X obj 105 131 f;
#X obj 372 120 f;
#X obj 454 195 r coeffY-GEM;
#X obj 252 76 t b b f;
#X connect 0 0 12 0;
#X connect 1 0 13 0;
#X connect 4 0 2 0;
#X connect 5 0 4 1;
#X connect 6 0 15 0;
#X connect 7 0 2 0;
#X connect 7 1 4 0;
#X connect 8 0 3 0;
#X connect 9 0 3 0;
#X connect 9 1 8 0;
#X connect 10 0 6 0;
#X connect 12 0 7 0;
#X connect 13 0 9 0;
#X connect 14 0 8 1;
#X connect 15 0 12 0;
#X connect 15 1 13 0;
#X connect 15 2 9 1;
#X connect 15 2 7 1;
#X restore 49 20 pd coeff-pleinEcran;
#X obj 132 -39 f;
#X obj 273 -39 f;
#X obj 164 -89 t b b l;
#X obj 164 -121 r currentSize;
#X obj 306 90 /;
#X obj 49 86 /;
#X obj 49 141 outlet x;
#X obj 306 141 outlet y;
#X obj 66 -129 inlet x;
#X obj 334 -129 inlet y;
#X text 22 -193 Correction de la taille de l'affichage selon la fenêtre
;
#X obj 49 57 * 4;
#X obj 306 58 * 4;
#X obj 184 141 outlet x2;
#X obj 184 102 /;
#X obj 184 73 * 4;
#X obj 303 18 t f f f;
#X connect 0 0 17 0;
#X connect 0 1 18 0;
#X connect 1 0 13 0;
#X connect 1 1 14 0;
#X connect 2 0 1 0;
#X connect 3 0 1 1;
#X connect 4 0 2 0;
#X connect 4 1 3 0;
#X connect 4 2 0 0;
#X connect 5 0 4 0;
#X connect 6 0 9 0;
#X connect 7 0 8 0;
#X connect 10 0 2 0;
#X connect 11 0 3 0;
#X connect 13 0 7 0;
#X connect 14 0 6 0;
#X connect 16 0 15 0;
#X connect 17 0 16 0;
#X connect 18 0 7 1;
#X connect 18 1 16 1;
#X connect 18 2 6 1;
#X restore 537 584 pd taille-rectangle2;
#X obj 499 626 expr if($f3==0 \, $f1 \, $f2);
#X obj 748 625 expr if($f2==0 \, $f1 \, 4);
#X obj 583 73 s get-coeffGEM;
#X connect 0 0 25 0;
#X connect 1 0 20 0;
#X connect 2 0 34 0;
#X connect 3 0 11 0;
#X connect 4 0 16 0;
#X connect 4 0 5 0;
#X connect 4 0 53 0;
#X connect 5 0 0 0;
#X connect 6 0 0 0;
#X connect 7 0 10 1;
#X connect 7 1 10 2;
#X connect 7 2 10 3;
#X connect 8 0 7 0;
#X connect 9 0 10 4;
#X connect 10 0 36 0;
#X connect 11 0 1 0;
#X connect 12 0 11 3;
#X connect 13 0 25 0;
#X connect 14 0 13 0;
#X connect 18 0 19 0;
#X connect 19 0 31 0;
#X connect 21 0 22 0;
#X connect 22 0 33 0;
#X connect 22 1 51 2;
#X connect 22 1 52 1;
#X connect 23 0 24 0;
#X connect 23 1 44 1;
#X connect 23 1 45 1;
#X connect 25 0 35 0;
#X connect 26 0 27 0;
#X connect 27 0 28 0;
#X connect 27 1 29 0;
#X connect 28 0 3 1;
#X connect 29 0 3 1;
#X connect 31 0 10 0;
#X connect 31 1 15 0;
#X connect 34 0 1 0;
#X connect 35 0 19 0;
#X connect 36 0 3 0;
#X connect 38 0 23 0;
#X connect 39 0 36 3;
#X connect 40 0 42 0;
#X connect 41 0 42 1;
#X connect 42 0 44 0;
#X connect 42 1 45 0;
#X connect 44 0 36 1;
#X connect 45 0 36 2;
#X connect 47 0 50 0;
#X connect 48 0 50 1;
#X connect 50 0 51 0;
#X connect 50 1 51 1;
#X connect 50 2 52 0;
#X connect 51 0 20 1;
#X connect 52 0 20 2;
#X coords 0 -1 1 1 142 20 1 50 50;
