#N canvas 224 86 823 501 10;
#X obj 101 101 cnv 15 506 222 empty empty empty 20 12 0 14 -233017
-66577 0;
#N canvas 329 22 609 674 AmbiEncoder 0;
#N canvas 319 22 1045 720 ambiencoder 0;
#X text 836 292 Calculo de la distancia;
#X obj 47 302 inlet~;
#X text 49 277 audio;
#X obj 318 372 / 1;
#X obj 476 371 / 1;
#X obj 328 211 t a a;
#X obj 483 213 t a a;
#X obj 730 307 expr if($f1 < 0.3 \, 0.3 \, $f1);
#X obj 47 659 outlet~;
#X obj 47 349 *~ 0.707;
#X obj 122 659 outlet~;
#X obj 121 623 *~;
#X obj 195 623 *~;
#X obj 958 624 *~;
#X obj 973 497 *;
#X obj 973 525 * 2;
#X obj 196 659 outlet~;
#X obj 958 659 outlet~;
#X text 998 677 2xy / D;
#X text 65 679 W;
#X text 140 679 X;
#X text 213 679 Y;
#X text 975 679 V;
#X text 1000 19 CODIFICADOR AMBISONICS;
#X text 1032 34 SEGUNDO ORDEN;
#X obj 47 413 /~;
#X obj 80 386 sqrt;
#X text 1044 670 4;
#X obj 771 512 expr $f1*$f1 - $f2*$f2;
#X obj 756 624 *~;
#X obj 756 659 outlet~;
#X text 773 679 U;
#X obj 408 623 *~;
#X obj 409 659 outlet~;
#X obj 509 623 *~;
#X obj 510 659 outlet~;
#X text 426 679 R;
#X text 527 679 S;
#X obj 629 623 *~;
#X obj 630 659 outlet~;
#X text 647 679 T;
#X obj 295 623 *~;
#X obj 296 659 outlet~;
#X text 313 679 Z;
#X text 1031 51 3 DIMENSIONES;
#X obj 724 273 expr $f1*$f1 + $f2*$f2 + $f3*$f3;
#X obj 633 212 t a a;
#X obj 614 368 / 1;
#X obj 423 508 * 1.5;
#X obj 423 537 - 0.5;
#X obj 524 502 *;
#X obj 524 529 * 2;
#X obj 644 502 *;
#X obj 644 529 * 2;
#X text 158 674 x/D;
#X text 242 678 y/D;
#X text 343 679 z/D;
#X text 443 679 1.5zz-0.5;
#X text 547 679 2zx;
#X text 669 675 2yz;
#X obj 328 37 inlet;
#X obj 483 37 inlet;
#X text 368 37 x;
#X obj 633 36 inlet;
#X text 525 38 Y;
#X obj 328 96 iemlib/speedlim 200;
#X floatatom 174 100 5 0 0 0 IntTime - -;
#X obj 328 127 pack;
#X obj 328 158 line 200 0;
#X obj 483 95 iemlib/speedlim 200;
#X obj 483 126 pack;
#X obj 249 21 loadbang;
#X obj 483 151 line 200 0;
#X text 124 62 X;
#X text 65 62 AudioIn;
#X text 155 62 Y;
#X text 682 38 Z;
#X obj 633 95 iemlib/speedlim 200;
#X obj 633 126 pack;
#X obj 633 151 line 200 0;
#X text 79 80 Encoder 2º orden 3D;
#X text 79 122 W X Y Z R S T U V;
#X text 188 60 Z;
#X text 795 678 xx-yy;
#X msg 249 44 2;
#X text 179 668 comment;
#X text 247 677 comment;
#X text 239 675 comment;
#X text 375 538 comment;
#X connect 1 0 9 0;
#X connect 1 0 11 0;
#X connect 1 0 12 0;
#X connect 1 0 13 0;
#X connect 1 0 29 0;
#X connect 1 0 32 0;
#X connect 1 0 34 0;
#X connect 1 0 38 0;
#X connect 1 0 41 0;
#X connect 3 0 11 1;
#X connect 3 0 50 0;
#X connect 3 0 28 0;
#X connect 3 0 14 0;
#X connect 4 0 12 1;
#X connect 4 0 52 0;
#X connect 4 0 28 1;
#X connect 4 0 14 1;
#X connect 5 0 3 0;
#X connect 5 1 45 0;
#X connect 6 0 4 0;
#X connect 6 1 45 1;
#X connect 7 0 3 1;
#X connect 7 0 4 1;
#X connect 7 0 26 0;
#X connect 7 0 47 1;
#X connect 9 0 25 0;
#X connect 11 0 10 0;
#X connect 12 0 16 0;
#X connect 13 0 17 0;
#X connect 14 0 15 0;
#X connect 15 0 13 1;
#X connect 25 0 8 0;
#X connect 26 0 25 1;
#X connect 28 0 29 1;
#X connect 29 0 30 0;
#X connect 32 0 33 0;
#X connect 34 0 35 0;
#X connect 38 0 39 0;
#X connect 41 0 42 0;
#X connect 45 0 7 0;
#X connect 46 0 47 0;
#X connect 46 1 45 2;
#X connect 47 0 41 1;
#X connect 47 0 48 0;
#X connect 47 0 50 1;
#X connect 47 0 52 1;
#X connect 48 0 49 0;
#X connect 49 0 32 1;
#X connect 50 0 51 0;
#X connect 51 0 34 1;
#X connect 52 0 53 0;
#X connect 53 0 38 1;
#X connect 60 0 65 0;
#X connect 61 0 69 0;
#X connect 63 0 77 0;
#X connect 65 0 67 0;
#X connect 66 0 65 1;
#X connect 66 0 67 1;
#X connect 66 0 70 1;
#X connect 66 0 69 1;
#X connect 66 0 77 1;
#X connect 66 0 78 1;
#X connect 67 0 68 0;
#X connect 68 0 5 0;
#X connect 69 0 70 0;
#X connect 70 0 72 0;
#X connect 71 0 84 0;
#X connect 72 0 6 0;
#X connect 77 0 78 0;
#X connect 78 0 79 0;
#X connect 79 0 46 0;
#X connect 84 0 66 0;
#X restore -293 27 pd ambiencoder;
#X obj -347 104 throw~ master_W;
#X obj -136 125 line~;
#X msg -136 102 \$1 10;
#X obj -347 80 *~;
#X obj -327 130 *~;
#X obj -287 180 *~;
#X obj -257 230 *~;
#X obj -227 280 *~;
#X obj -187 330 *~;
#X obj -157 380 *~;
#X obj -127 430 *~;
#X obj -87 480 *~;
#X obj -327 154 throw~ master_X;
#X obj -287 204 throw~ master_Y;
#X obj -257 254 throw~ master_Z;
#X obj -227 304 throw~ master_R;
#X obj -187 353 throw~ master_S;
#X obj -157 404 throw~ master_T;
#X obj -127 454 throw~ master_U;
#X obj -87 504 throw~ master_V;
#X obj -266 5 unpack f f f;
#X obj -293 -59 *~;
#X obj -278 -81 line~;
#X msg -278 -104 \$1 10;
#X obj -293 -141 inlet~;
#X obj 105 131 vsl 15 78 0 1 0 1 empty empty Mono_In -1 -10 0 10 -262144
-1 -1 0 1;
#X obj 126 67 - 100;
#X obj 126 40 env~ 8820;
#X obj 127 131 vu 15 80 empty empty -1 -8 0 10 -66577 -1 0 0;
#X obj 105 232 vsl 15 80 0 1 0 1 empty empty Ambi_Out -2 -10 0 10 -262144
-1 -1 0 1;
#X obj 7 151 - 100;
#X obj 7 121 env~ 8820;
#X obj 127 233 vu 15 80 empty empty -1 -8 0 10 -66577 -1 0 0;
#X obj -363 -141 catch~ Ch4;
#X obj -266 -21 r fuente4;
#X text 115 99 Ch4;
#X connect 0 0 4 0;
#X connect 0 0 32 0;
#X connect 0 1 5 0;
#X connect 0 1 32 0;
#X connect 0 2 6 0;
#X connect 0 2 32 0;
#X connect 0 3 7 0;
#X connect 0 3 32 0;
#X connect 0 4 8 0;
#X connect 0 4 32 0;
#X connect 0 5 9 0;
#X connect 0 5 32 0;
#X connect 0 6 10 0;
#X connect 0 6 32 0;
#X connect 0 7 11 0;
#X connect 0 7 32 0;
#X connect 0 8 12 0;
#X connect 0 8 32 0;
#X connect 2 0 4 1;
#X connect 2 0 5 1;
#X connect 2 0 6 1;
#X connect 2 0 7 1;
#X connect 2 0 8 1;
#X connect 2 0 9 1;
#X connect 2 0 10 1;
#X connect 2 0 11 1;
#X connect 2 0 12 1;
#X connect 3 0 2 0;
#X connect 4 0 1 0;
#X connect 5 0 13 0;
#X connect 6 0 14 0;
#X connect 7 0 15 0;
#X connect 8 0 16 0;
#X connect 9 0 17 0;
#X connect 10 0 18 0;
#X connect 11 0 19 0;
#X connect 12 0 20 0;
#X connect 21 0 0 1;
#X connect 21 1 0 2;
#X connect 21 2 0 3;
#X connect 22 0 0 0;
#X connect 22 0 28 0;
#X connect 23 0 22 1;
#X connect 24 0 23 0;
#X connect 25 0 22 0;
#X connect 26 0 24 0;
#X connect 27 0 29 0;
#X connect 28 0 27 0;
#X connect 30 0 3 0;
#X connect 31 0 33 0;
#X connect 32 0 31 0;
#X connect 34 0 22 0;
#X connect 35 0 21 0;
#X coords 0 -1 1 1 50 220 2 100 100;
#X restore 254 103 pd AmbiEncoder;
#N canvas 429 140 609 674 AmbiEncoder 0;
#N canvas 319 22 1045 720 ambiencoder 0;
#X text 836 292 Calculo de la distancia;
#X obj 47 302 inlet~;
#X text 49 277 audio;
#X obj 318 372 / 1;
#X obj 476 371 / 1;
#X obj 328 211 t a a;
#X obj 483 213 t a a;
#X obj 730 307 expr if($f1 < 0.3 \, 0.3 \, $f1);
#X obj 47 659 outlet~;
#X obj 47 349 *~ 0.707;
#X obj 122 659 outlet~;
#X obj 121 623 *~;
#X obj 195 623 *~;
#X obj 958 624 *~;
#X obj 973 497 *;
#X obj 973 525 * 2;
#X obj 196 659 outlet~;
#X obj 958 659 outlet~;
#X text 998 677 2xy / D;
#X text 65 679 W;
#X text 140 679 X;
#X text 213 679 Y;
#X text 975 679 V;
#X text 1000 19 CODIFICADOR AMBISONICS;
#X text 1032 34 SEGUNDO ORDEN;
#X obj 47 413 /~;
#X obj 80 386 sqrt;
#X text 1044 670 4;
#X obj 771 512 expr $f1*$f1 - $f2*$f2;
#X obj 756 624 *~;
#X obj 756 659 outlet~;
#X text 773 679 U;
#X obj 408 623 *~;
#X obj 409 659 outlet~;
#X obj 509 623 *~;
#X obj 510 659 outlet~;
#X text 426 679 R;
#X text 527 679 S;
#X obj 629 623 *~;
#X obj 630 659 outlet~;
#X text 647 679 T;
#X obj 295 623 *~;
#X obj 296 659 outlet~;
#X text 313 679 Z;
#X text 1031 51 3 DIMENSIONES;
#X obj 724 273 expr $f1*$f1 + $f2*$f2 + $f3*$f3;
#X obj 633 212 t a a;
#X obj 614 368 / 1;
#X obj 423 508 * 1.5;
#X obj 423 537 - 0.5;
#X obj 524 502 *;
#X obj 524 529 * 2;
#X obj 644 502 *;
#X obj 644 529 * 2;
#X text 158 674 x/D;
#X text 242 678 y/D;
#X text 343 679 z/D;
#X text 443 679 1.5zz-0.5;
#X text 547 679 2zx;
#X text 669 675 2yz;
#X obj 328 37 inlet;
#X obj 483 37 inlet;
#X text 368 37 x;
#X obj 633 36 inlet;
#X text 525 38 Y;
#X obj 328 96 iemlib/speedlim 200;
#X floatatom 174 100 5 0 0 0 IntTime - -;
#X obj 328 127 pack;
#X obj 328 158 line 200 0;
#X obj 483 95 iemlib/speedlim 200;
#X obj 483 126 pack;
#X obj 249 21 loadbang;
#X obj 483 151 line 200 0;
#X text 124 62 X;
#X text 65 62 AudioIn;
#X text 155 62 Y;
#X text 682 38 Z;
#X obj 633 95 iemlib/speedlim 200;
#X obj 633 126 pack;
#X obj 633 151 line 200 0;
#X text 79 80 Encoder 2º orden 3D;
#X text 79 122 W X Y Z R S T U V;
#X text 188 60 Z;
#X text 795 678 xx-yy;
#X msg 249 44 2;
#X text 179 668 comment;
#X text 247 677 comment;
#X text 239 675 comment;
#X text 375 538 comment;
#X connect 1 0 9 0;
#X connect 1 0 11 0;
#X connect 1 0 12 0;
#X connect 1 0 13 0;
#X connect 1 0 29 0;
#X connect 1 0 32 0;
#X connect 1 0 34 0;
#X connect 1 0 38 0;
#X connect 1 0 41 0;
#X connect 3 0 11 1;
#X connect 3 0 50 0;
#X connect 3 0 28 0;
#X connect 3 0 14 0;
#X connect 4 0 12 1;
#X connect 4 0 52 0;
#X connect 4 0 28 1;
#X connect 4 0 14 1;
#X connect 5 0 3 0;
#X connect 5 1 45 0;
#X connect 6 0 4 0;
#X connect 6 1 45 1;
#X connect 7 0 3 1;
#X connect 7 0 4 1;
#X connect 7 0 26 0;
#X connect 7 0 47 1;
#X connect 9 0 25 0;
#X connect 11 0 10 0;
#X connect 12 0 16 0;
#X connect 13 0 17 0;
#X connect 14 0 15 0;
#X connect 15 0 13 1;
#X connect 25 0 8 0;
#X connect 26 0 25 1;
#X connect 28 0 29 1;
#X connect 29 0 30 0;
#X connect 32 0 33 0;
#X connect 34 0 35 0;
#X connect 38 0 39 0;
#X connect 41 0 42 0;
#X connect 45 0 7 0;
#X connect 46 0 47 0;
#X connect 46 1 45 2;
#X connect 47 0 41 1;
#X connect 47 0 48 0;
#X connect 47 0 50 1;
#X connect 47 0 52 1;
#X connect 48 0 49 0;
#X connect 49 0 32 1;
#X connect 50 0 51 0;
#X connect 51 0 34 1;
#X connect 52 0 53 0;
#X connect 53 0 38 1;
#X connect 60 0 65 0;
#X connect 61 0 69 0;
#X connect 63 0 77 0;
#X connect 65 0 67 0;
#X connect 66 0 65 1;
#X connect 66 0 67 1;
#X connect 66 0 70 1;
#X connect 66 0 69 1;
#X connect 66 0 77 1;
#X connect 66 0 78 1;
#X connect 67 0 68 0;
#X connect 68 0 5 0;
#X connect 69 0 70 0;
#X connect 70 0 72 0;
#X connect 71 0 84 0;
#X connect 72 0 6 0;
#X connect 77 0 78 0;
#X connect 78 0 79 0;
#X connect 79 0 46 0;
#X connect 84 0 66 0;
#X restore -293 27 pd ambiencoder;
#X obj -347 104 throw~ master_W;
#X obj -136 125 line~;
#X msg -136 102 \$1 10;
#X obj -347 80 *~;
#X obj -327 130 *~;
#X obj -287 180 *~;
#X obj -257 230 *~;
#X obj -227 280 *~;
#X obj -187 330 *~;
#X obj -157 380 *~;
#X obj -127 430 *~;
#X obj -87 480 *~;
#X obj -327 154 throw~ master_X;
#X obj -287 204 throw~ master_Y;
#X obj -257 254 throw~ master_Z;
#X obj -227 304 throw~ master_R;
#X obj -187 353 throw~ master_S;
#X obj -157 404 throw~ master_T;
#X obj -127 454 throw~ master_U;
#X obj -87 504 throw~ master_V;
#X obj -266 5 unpack f f f;
#X obj -293 -59 *~;
#X obj -278 -81 line~;
#X msg -278 -104 \$1 10;
#X obj -293 -141 inlet~;
#X obj 105 131 vsl 15 78 0 1 0 1 empty empty Mono_In -1 -10 0 10 -262144
-1 -1 0 1;
#X obj 126 67 - 100;
#X obj 126 40 env~ 8820;
#X obj 127 131 vu 15 80 empty empty -1 -8 0 10 -66577 -1 0 0;
#X obj 105 232 vsl 15 80 0 1 0 1 empty empty Ambi_Out -2 -10 0 10 -262144
-1 -1 0 1;
#X obj 7 151 - 100;
#X obj 7 121 env~ 8820;
#X obj 127 233 vu 15 80 empty empty -1 -8 0 10 -66577 -1 0 0;
#X obj -363 -141 catch~ Ch5;
#X obj -266 -21 r fuente5;
#X text 115 99 Ch5;
#X connect 0 0 4 0;
#X connect 0 0 32 0;
#X connect 0 1 5 0;
#X connect 0 1 32 0;
#X connect 0 2 6 0;
#X connect 0 2 32 0;
#X connect 0 3 7 0;
#X connect 0 3 32 0;
#X connect 0 4 8 0;
#X connect 0 4 32 0;
#X connect 0 5 9 0;
#X connect 0 5 32 0;
#X connect 0 6 10 0;
#X connect 0 6 32 0;
#X connect 0 7 11 0;
#X connect 0 7 32 0;
#X connect 0 8 12 0;
#X connect 0 8 32 0;
#X connect 2 0 4 1;
#X connect 2 0 5 1;
#X connect 2 0 6 1;
#X connect 2 0 7 1;
#X connect 2 0 8 1;
#X connect 2 0 9 1;
#X connect 2 0 10 1;
#X connect 2 0 11 1;
#X connect 2 0 12 1;
#X connect 3 0 2 0;
#X connect 4 0 1 0;
#X connect 5 0 13 0;
#X connect 6 0 14 0;
#X connect 7 0 15 0;
#X connect 8 0 16 0;
#X connect 9 0 17 0;
#X connect 10 0 18 0;
#X connect 11 0 19 0;
#X connect 12 0 20 0;
#X connect 21 0 0 1;
#X connect 21 1 0 2;
#X connect 21 2 0 3;
#X connect 22 0 0 0;
#X connect 22 0 28 0;
#X connect 23 0 22 1;
#X connect 24 0 23 0;
#X connect 25 0 22 0;
#X connect 26 0 24 0;
#X connect 27 0 29 0;
#X connect 28 0 27 0;
#X connect 30 0 3 0;
#X connect 31 0 33 0;
#X connect 32 0 31 0;
#X connect 34 0 22 0;
#X connect 35 0 21 0;
#X coords 0 -1 1 1 50 220 2 100 100;
#X restore 304 103 pd AmbiEncoder;
#N canvas 329 22 609 674 AmbiEncoder 0;
#N canvas 319 22 1045 720 ambiencoder 0;
#X text 836 292 Calculo de la distancia;
#X obj 47 302 inlet~;
#X text 49 277 audio;
#X obj 318 372 / 1;
#X obj 476 371 / 1;
#X obj 328 211 t a a;
#X obj 483 213 t a a;
#X obj 730 307 expr if($f1 < 0.3 \, 0.3 \, $f1);
#X obj 47 659 outlet~;
#X obj 47 349 *~ 0.707;
#X obj 122 659 outlet~;
#X obj 121 623 *~;
#X obj 195 623 *~;
#X obj 958 624 *~;
#X obj 973 497 *;
#X obj 973 525 * 2;
#X obj 196 659 outlet~;
#X obj 958 659 outlet~;
#X text 998 677 2xy / D;
#X text 65 679 W;
#X text 140 679 X;
#X text 213 679 Y;
#X text 975 679 V;
#X text 1000 19 CODIFICADOR AMBISONICS;
#X text 1032 34 SEGUNDO ORDEN;
#X obj 47 413 /~;
#X obj 80 386 sqrt;
#X text 1044 670 4;
#X obj 771 512 expr $f1*$f1 - $f2*$f2;
#X obj 756 624 *~;
#X obj 756 659 outlet~;
#X text 773 679 U;
#X obj 408 623 *~;
#X obj 409 659 outlet~;
#X obj 509 623 *~;
#X obj 510 659 outlet~;
#X text 426 679 R;
#X text 527 679 S;
#X obj 629 623 *~;
#X obj 630 659 outlet~;
#X text 647 679 T;
#X obj 295 623 *~;
#X obj 296 659 outlet~;
#X text 313 679 Z;
#X text 1031 51 3 DIMENSIONES;
#X obj 724 273 expr $f1*$f1 + $f2*$f2 + $f3*$f3;
#X obj 633 212 t a a;
#X obj 614 368 / 1;
#X obj 423 508 * 1.5;
#X obj 423 537 - 0.5;
#X obj 524 502 *;
#X obj 524 529 * 2;
#X obj 644 502 *;
#X obj 644 529 * 2;
#X text 158 674 x/D;
#X text 242 678 y/D;
#X text 343 679 z/D;
#X text 443 679 1.5zz-0.5;
#X text 547 679 2zx;
#X text 669 675 2yz;
#X obj 328 37 inlet;
#X obj 483 37 inlet;
#X text 368 37 x;
#X obj 633 36 inlet;
#X text 525 38 Y;
#X obj 328 96 iemlib/speedlim 200;
#X floatatom 174 100 5 0 0 0 IntTime - -;
#X obj 328 127 pack;
#X obj 328 158 line 200 0;
#X obj 483 95 iemlib/speedlim 200;
#X obj 483 126 pack;
#X obj 249 21 loadbang;
#X obj 483 151 line 200 0;
#X text 124 62 X;
#X text 65 62 AudioIn;
#X text 155 62 Y;
#X text 682 38 Z;
#X obj 633 95 iemlib/speedlim 200;
#X obj 633 126 pack;
#X obj 633 151 line 200 0;
#X text 79 80 Encoder 2º orden 3D;
#X text 79 122 W X Y Z R S T U V;
#X text 188 60 Z;
#X text 795 678 xx-yy;
#X msg 249 44 2;
#X text 179 668 comment;
#X text 247 677 comment;
#X text 239 675 comment;
#X text 375 538 comment;
#X connect 1 0 9 0;
#X connect 1 0 11 0;
#X connect 1 0 12 0;
#X connect 1 0 13 0;
#X connect 1 0 29 0;
#X connect 1 0 32 0;
#X connect 1 0 34 0;
#X connect 1 0 38 0;
#X connect 1 0 41 0;
#X connect 3 0 11 1;
#X connect 3 0 50 0;
#X connect 3 0 28 0;
#X connect 3 0 14 0;
#X connect 4 0 12 1;
#X connect 4 0 52 0;
#X connect 4 0 28 1;
#X connect 4 0 14 1;
#X connect 5 0 3 0;
#X connect 5 1 45 0;
#X connect 6 0 4 0;
#X connect 6 1 45 1;
#X connect 7 0 3 1;
#X connect 7 0 4 1;
#X connect 7 0 26 0;
#X connect 7 0 47 1;
#X connect 9 0 25 0;
#X connect 11 0 10 0;
#X connect 12 0 16 0;
#X connect 13 0 17 0;
#X connect 14 0 15 0;
#X connect 15 0 13 1;
#X connect 25 0 8 0;
#X connect 26 0 25 1;
#X connect 28 0 29 1;
#X connect 29 0 30 0;
#X connect 32 0 33 0;
#X connect 34 0 35 0;
#X connect 38 0 39 0;
#X connect 41 0 42 0;
#X connect 45 0 7 0;
#X connect 46 0 47 0;
#X connect 46 1 45 2;
#X connect 47 0 41 1;
#X connect 47 0 48 0;
#X connect 47 0 50 1;
#X connect 47 0 52 1;
#X connect 48 0 49 0;
#X connect 49 0 32 1;
#X connect 50 0 51 0;
#X connect 51 0 34 1;
#X connect 52 0 53 0;
#X connect 53 0 38 1;
#X connect 60 0 65 0;
#X connect 61 0 69 0;
#X connect 63 0 77 0;
#X connect 65 0 67 0;
#X connect 66 0 65 1;
#X connect 66 0 67 1;
#X connect 66 0 70 1;
#X connect 66 0 69 1;
#X connect 66 0 77 1;
#X connect 66 0 78 1;
#X connect 67 0 68 0;
#X connect 68 0 5 0;
#X connect 69 0 70 0;
#X connect 70 0 72 0;
#X connect 71 0 84 0;
#X connect 72 0 6 0;
#X connect 77 0 78 0;
#X connect 78 0 79 0;
#X connect 79 0 46 0;
#X connect 84 0 66 0;
#X restore -293 27 pd ambiencoder;
#X obj -347 104 throw~ master_W;
#X obj -136 125 line~;
#X msg -136 102 \$1 10;
#X obj -347 80 *~;
#X obj -327 130 *~;
#X obj -287 180 *~;
#X obj -257 230 *~;
#X obj -227 280 *~;
#X obj -187 330 *~;
#X obj -157 380 *~;
#X obj -127 430 *~;
#X obj -87 480 *~;
#X obj -327 154 throw~ master_X;
#X obj -287 204 throw~ master_Y;
#X obj -257 254 throw~ master_Z;
#X obj -227 304 throw~ master_R;
#X obj -187 353 throw~ master_S;
#X obj -157 404 throw~ master_T;
#X obj -127 454 throw~ master_U;
#X obj -87 504 throw~ master_V;
#X obj -266 5 unpack f f f;
#X obj -293 -59 *~;
#X obj -278 -81 line~;
#X msg -278 -104 \$1 10;
#X obj -293 -141 inlet~;
#X obj 105 131 vsl 15 78 0 1 0 1 empty empty Mono_In -1 -10 0 10 -262144
-1 -1 0 1;
#X obj 126 67 - 100;
#X obj 126 40 env~ 8820;
#X obj 127 131 vu 15 80 empty empty -1 -8 0 10 -66577 -1 0 0;
#X obj 105 232 vsl 15 80 0 1 0 1 empty empty Ambi_Out -2 -10 0 10 -262144
-1 -1 0 1;
#X obj 7 151 - 100;
#X obj 7 121 env~ 8820;
#X obj 127 233 vu 15 80 empty empty -1 -8 0 10 -66577 -1 0 0;
#X obj -363 -141 catch~ Ch6;
#X obj -266 -21 r fuente6;
#X text 115 99 Ch6;
#X connect 0 0 4 0;
#X connect 0 0 32 0;
#X connect 0 1 5 0;
#X connect 0 1 32 0;
#X connect 0 2 6 0;
#X connect 0 2 32 0;
#X connect 0 3 7 0;
#X connect 0 3 32 0;
#X connect 0 4 8 0;
#X connect 0 4 32 0;
#X connect 0 5 9 0;
#X connect 0 5 32 0;
#X connect 0 6 10 0;
#X connect 0 6 32 0;
#X connect 0 7 11 0;
#X connect 0 7 32 0;
#X connect 0 8 12 0;
#X connect 0 8 32 0;
#X connect 2 0 4 1;
#X connect 2 0 5 1;
#X connect 2 0 6 1;
#X connect 2 0 7 1;
#X connect 2 0 8 1;
#X connect 2 0 9 1;
#X connect 2 0 10 1;
#X connect 2 0 11 1;
#X connect 2 0 12 1;
#X connect 3 0 2 0;
#X connect 4 0 1 0;
#X connect 5 0 13 0;
#X connect 6 0 14 0;
#X connect 7 0 15 0;
#X connect 8 0 16 0;
#X connect 9 0 17 0;
#X connect 10 0 18 0;
#X connect 11 0 19 0;
#X connect 12 0 20 0;
#X connect 21 0 0 1;
#X connect 21 1 0 2;
#X connect 21 2 0 3;
#X connect 22 0 0 0;
#X connect 22 0 28 0;
#X connect 23 0 22 1;
#X connect 24 0 23 0;
#X connect 25 0 22 0;
#X connect 26 0 24 0;
#X connect 27 0 29 0;
#X connect 28 0 27 0;
#X connect 30 0 3 0;
#X connect 31 0 33 0;
#X connect 32 0 31 0;
#X connect 34 0 22 0;
#X connect 35 0 21 0;
#X coords 0 -1 1 1 50 220 2 100 100;
#X restore 354 103 pd AmbiEncoder;
#N canvas 329 22 609 674 AmbiEncoder 0;
#N canvas 319 22 1045 720 ambiencoder 0;
#X text 836 292 Calculo de la distancia;
#X obj 47 302 inlet~;
#X text 49 277 audio;
#X obj 318 372 / 1;
#X obj 476 371 / 1;
#X obj 328 211 t a a;
#X obj 483 213 t a a;
#X obj 730 307 expr if($f1 < 0.3 \, 0.3 \, $f1);
#X obj 47 659 outlet~;
#X obj 47 349 *~ 0.707;
#X obj 122 659 outlet~;
#X obj 121 623 *~;
#X obj 195 623 *~;
#X obj 958 624 *~;
#X obj 973 497 *;
#X obj 973 525 * 2;
#X obj 196 659 outlet~;
#X obj 958 659 outlet~;
#X text 998 677 2xy / D;
#X text 65 679 W;
#X text 140 679 X;
#X text 213 679 Y;
#X text 975 679 V;
#X text 1000 19 CODIFICADOR AMBISONICS;
#X text 1032 34 SEGUNDO ORDEN;
#X obj 47 413 /~;
#X obj 80 386 sqrt;
#X text 1044 670 4;
#X obj 771 512 expr $f1*$f1 - $f2*$f2;
#X obj 756 624 *~;
#X obj 756 659 outlet~;
#X text 773 679 U;
#X obj 408 623 *~;
#X obj 409 659 outlet~;
#X obj 509 623 *~;
#X obj 510 659 outlet~;
#X text 426 679 R;
#X text 527 679 S;
#X obj 629 623 *~;
#X obj 630 659 outlet~;
#X text 647 679 T;
#X obj 295 623 *~;
#X obj 296 659 outlet~;
#X text 313 679 Z;
#X text 1031 51 3 DIMENSIONES;
#X obj 724 273 expr $f1*$f1 + $f2*$f2 + $f3*$f3;
#X obj 633 212 t a a;
#X obj 614 368 / 1;
#X obj 423 508 * 1.5;
#X obj 423 537 - 0.5;
#X obj 524 502 *;
#X obj 524 529 * 2;
#X obj 644 502 *;
#X obj 644 529 * 2;
#X text 158 674 x/D;
#X text 242 678 y/D;
#X text 343 679 z/D;
#X text 443 679 1.5zz-0.5;
#X text 547 679 2zx;
#X text 669 675 2yz;
#X obj 328 37 inlet;
#X obj 483 37 inlet;
#X text 368 37 x;
#X obj 633 36 inlet;
#X text 525 38 Y;
#X obj 328 96 iemlib/speedlim 200;
#X floatatom 174 100 5 0 0 0 IntTime - -;
#X obj 328 127 pack;
#X obj 328 158 line 200 0;
#X obj 483 95 iemlib/speedlim 200;
#X obj 483 126 pack;
#X obj 249 21 loadbang;
#X obj 483 151 line 200 0;
#X text 124 62 X;
#X text 65 62 AudioIn;
#X text 155 62 Y;
#X text 682 38 Z;
#X obj 633 95 iemlib/speedlim 200;
#X obj 633 126 pack;
#X obj 633 151 line 200 0;
#X text 79 80 Encoder 2º orden 3D;
#X text 79 122 W X Y Z R S T U V;
#X text 188 60 Z;
#X text 795 678 xx-yy;
#X msg 249 44 2;
#X text 179 668 comment;
#X text 247 677 comment;
#X text 239 675 comment;
#X text 375 538 comment;
#X connect 1 0 9 0;
#X connect 1 0 11 0;
#X connect 1 0 12 0;
#X connect 1 0 13 0;
#X connect 1 0 29 0;
#X connect 1 0 32 0;
#X connect 1 0 34 0;
#X connect 1 0 38 0;
#X connect 1 0 41 0;
#X connect 3 0 11 1;
#X connect 3 0 50 0;
#X connect 3 0 28 0;
#X connect 3 0 14 0;
#X connect 4 0 12 1;
#X connect 4 0 52 0;
#X connect 4 0 28 1;
#X connect 4 0 14 1;
#X connect 5 0 3 0;
#X connect 5 1 45 0;
#X connect 6 0 4 0;
#X connect 6 1 45 1;
#X connect 7 0 3 1;
#X connect 7 0 4 1;
#X connect 7 0 26 0;
#X connect 7 0 47 1;
#X connect 9 0 25 0;
#X connect 11 0 10 0;
#X connect 12 0 16 0;
#X connect 13 0 17 0;
#X connect 14 0 15 0;
#X connect 15 0 13 1;
#X connect 25 0 8 0;
#X connect 26 0 25 1;
#X connect 28 0 29 1;
#X connect 29 0 30 0;
#X connect 32 0 33 0;
#X connect 34 0 35 0;
#X connect 38 0 39 0;
#X connect 41 0 42 0;
#X connect 45 0 7 0;
#X connect 46 0 47 0;
#X connect 46 1 45 2;
#X connect 47 0 41 1;
#X connect 47 0 48 0;
#X connect 47 0 50 1;
#X connect 47 0 52 1;
#X connect 48 0 49 0;
#X connect 49 0 32 1;
#X connect 50 0 51 0;
#X connect 51 0 34 1;
#X connect 52 0 53 0;
#X connect 53 0 38 1;
#X connect 60 0 65 0;
#X connect 61 0 69 0;
#X connect 63 0 77 0;
#X connect 65 0 67 0;
#X connect 66 0 65 1;
#X connect 66 0 67 1;
#X connect 66 0 70 1;
#X connect 66 0 69 1;
#X connect 66 0 77 1;
#X connect 66 0 78 1;
#X connect 67 0 68 0;
#X connect 68 0 5 0;
#X connect 69 0 70 0;
#X connect 70 0 72 0;
#X connect 71 0 84 0;
#X connect 72 0 6 0;
#X connect 77 0 78 0;
#X connect 78 0 79 0;
#X connect 79 0 46 0;
#X connect 84 0 66 0;
#X restore -293 27 pd ambiencoder;
#X obj -347 104 throw~ master_W;
#X obj -136 125 line~;
#X msg -136 102 \$1 10;
#X obj -347 80 *~;
#X obj -327 130 *~;
#X obj -287 180 *~;
#X obj -257 230 *~;
#X obj -227 280 *~;
#X obj -187 330 *~;
#X obj -157 380 *~;
#X obj -127 430 *~;
#X obj -87 480 *~;
#X obj -327 154 throw~ master_X;
#X obj -287 204 throw~ master_Y;
#X obj -257 254 throw~ master_Z;
#X obj -227 304 throw~ master_R;
#X obj -187 353 throw~ master_S;
#X obj -157 404 throw~ master_T;
#X obj -127 454 throw~ master_U;
#X obj -87 504 throw~ master_V;
#X obj -266 5 unpack f f f;
#X obj -293 -59 *~;
#X obj -278 -81 line~;
#X msg -278 -104 \$1 10;
#X obj -293 -141 inlet~;
#X obj 105 131 vsl 15 78 0 1 0 1 empty empty Mono_In -1 -10 0 10 -262144
-1 -1 0 1;
#X obj 126 67 - 100;
#X obj 126 40 env~ 8820;
#X obj 127 131 vu 15 80 empty empty -1 -8 0 10 -66577 -1 0 0;
#X obj 105 232 vsl 15 80 0 1 0 1 empty empty Ambi_Out -2 -10 0 10 -262144
-1 -1 0 1;
#X obj 7 151 - 100;
#X obj 7 121 env~ 8820;
#X obj 127 233 vu 15 80 empty empty -1 -8 0 10 -66577 -1 0 0;
#X obj -363 -141 catch~ Ch7;
#X obj -266 -21 r fuente7;
#X text 115 99 Ch7;
#X connect 0 0 4 0;
#X connect 0 0 32 0;
#X connect 0 1 5 0;
#X connect 0 1 32 0;
#X connect 0 2 6 0;
#X connect 0 2 32 0;
#X connect 0 3 7 0;
#X connect 0 3 32 0;
#X connect 0 4 8 0;
#X connect 0 4 32 0;
#X connect 0 5 9 0;
#X connect 0 5 32 0;
#X connect 0 6 10 0;
#X connect 0 6 32 0;
#X connect 0 7 11 0;
#X connect 0 7 32 0;
#X connect 0 8 12 0;
#X connect 0 8 32 0;
#X connect 2 0 4 1;
#X connect 2 0 5 1;
#X connect 2 0 6 1;
#X connect 2 0 7 1;
#X connect 2 0 8 1;
#X connect 2 0 9 1;
#X connect 2 0 10 1;
#X connect 2 0 11 1;
#X connect 2 0 12 1;
#X connect 3 0 2 0;
#X connect 4 0 1 0;
#X connect 5 0 13 0;
#X connect 6 0 14 0;
#X connect 7 0 15 0;
#X connect 8 0 16 0;
#X connect 9 0 17 0;
#X connect 10 0 18 0;
#X connect 11 0 19 0;
#X connect 12 0 20 0;
#X connect 21 0 0 1;
#X connect 21 1 0 2;
#X connect 21 2 0 3;
#X connect 22 0 0 0;
#X connect 22 0 28 0;
#X connect 23 0 22 1;
#X connect 24 0 23 0;
#X connect 25 0 22 0;
#X connect 26 0 24 0;
#X connect 27 0 29 0;
#X connect 28 0 27 0;
#X connect 30 0 3 0;
#X connect 31 0 33 0;
#X connect 32 0 31 0;
#X connect 34 0 22 0;
#X connect 35 0 21 0;
#X coords 0 -1 1 1 50 220 2 100 100;
#X restore 404 103 pd AmbiEncoder;
#N canvas 329 22 609 674 AmbiEncoder 0;
#N canvas 319 22 1045 720 ambiencoder 0;
#X text 836 292 Calculo de la distancia;
#X obj 47 302 inlet~;
#X text 49 277 audio;
#X obj 318 372 / 1;
#X obj 476 371 / 1;
#X obj 328 211 t a a;
#X obj 483 213 t a a;
#X obj 730 307 expr if($f1 < 0.3 \, 0.3 \, $f1);
#X obj 47 659 outlet~;
#X obj 47 349 *~ 0.707;
#X obj 122 659 outlet~;
#X obj 121 623 *~;
#X obj 195 623 *~;
#X obj 958 624 *~;
#X obj 973 497 *;
#X obj 973 525 * 2;
#X obj 196 659 outlet~;
#X obj 958 659 outlet~;
#X text 998 677 2xy / D;
#X text 65 679 W;
#X text 140 679 X;
#X text 213 679 Y;
#X text 975 679 V;
#X text 1000 19 CODIFICADOR AMBISONICS;
#X text 1032 34 SEGUNDO ORDEN;
#X obj 47 413 /~;
#X obj 80 386 sqrt;
#X text 1044 670 4;
#X obj 771 512 expr $f1*$f1 - $f2*$f2;
#X obj 756 624 *~;
#X obj 756 659 outlet~;
#X text 773 679 U;
#X obj 408 623 *~;
#X obj 409 659 outlet~;
#X obj 509 623 *~;
#X obj 510 659 outlet~;
#X text 426 679 R;
#X text 527 679 S;
#X obj 629 623 *~;
#X obj 630 659 outlet~;
#X text 647 679 T;
#X obj 295 623 *~;
#X obj 296 659 outlet~;
#X text 313 679 Z;
#X text 1031 51 3 DIMENSIONES;
#X obj 724 273 expr $f1*$f1 + $f2*$f2 + $f3*$f3;
#X obj 633 212 t a a;
#X obj 614 368 / 1;
#X obj 423 508 * 1.5;
#X obj 423 537 - 0.5;
#X obj 524 502 *;
#X obj 524 529 * 2;
#X obj 644 502 *;
#X obj 644 529 * 2;
#X text 158 674 x/D;
#X text 242 678 y/D;
#X text 343 679 z/D;
#X text 443 679 1.5zz-0.5;
#X text 547 679 2zx;
#X text 669 675 2yz;
#X obj 328 37 inlet;
#X obj 483 37 inlet;
#X text 368 37 x;
#X obj 633 36 inlet;
#X text 525 38 Y;
#X obj 328 96 iemlib/speedlim 200;
#X floatatom 174 100 5 0 0 0 IntTime - -;
#X obj 328 127 pack;
#X obj 328 158 line 200 0;
#X obj 483 95 iemlib/speedlim 200;
#X obj 483 126 pack;
#X obj 249 21 loadbang;
#X obj 483 151 line 200 0;
#X text 124 62 X;
#X text 65 62 AudioIn;
#X text 155 62 Y;
#X text 682 38 Z;
#X obj 633 95 iemlib/speedlim 200;
#X obj 633 126 pack;
#X obj 633 151 line 200 0;
#X text 79 80 Encoder 2º orden 3D;
#X text 79 122 W X Y Z R S T U V;
#X text 188 60 Z;
#X text 795 678 xx-yy;
#X msg 249 44 2;
#X text 179 668 comment;
#X text 247 677 comment;
#X text 239 675 comment;
#X text 375 538 comment;
#X connect 1 0 9 0;
#X connect 1 0 11 0;
#X connect 1 0 12 0;
#X connect 1 0 13 0;
#X connect 1 0 29 0;
#X connect 1 0 32 0;
#X connect 1 0 34 0;
#X connect 1 0 38 0;
#X connect 1 0 41 0;
#X connect 3 0 11 1;
#X connect 3 0 50 0;
#X connect 3 0 28 0;
#X connect 3 0 14 0;
#X connect 4 0 12 1;
#X connect 4 0 52 0;
#X connect 4 0 28 1;
#X connect 4 0 14 1;
#X connect 5 0 3 0;
#X connect 5 1 45 0;
#X connect 6 0 4 0;
#X connect 6 1 45 1;
#X connect 7 0 3 1;
#X connect 7 0 4 1;
#X connect 7 0 26 0;
#X connect 7 0 47 1;
#X connect 9 0 25 0;
#X connect 11 0 10 0;
#X connect 12 0 16 0;
#X connect 13 0 17 0;
#X connect 14 0 15 0;
#X connect 15 0 13 1;
#X connect 25 0 8 0;
#X connect 26 0 25 1;
#X connect 28 0 29 1;
#X connect 29 0 30 0;
#X connect 32 0 33 0;
#X connect 34 0 35 0;
#X connect 38 0 39 0;
#X connect 41 0 42 0;
#X connect 45 0 7 0;
#X connect 46 0 47 0;
#X connect 46 1 45 2;
#X connect 47 0 41 1;
#X connect 47 0 48 0;
#X connect 47 0 50 1;
#X connect 47 0 52 1;
#X connect 48 0 49 0;
#X connect 49 0 32 1;
#X connect 50 0 51 0;
#X connect 51 0 34 1;
#X connect 52 0 53 0;
#X connect 53 0 38 1;
#X connect 60 0 65 0;
#X connect 61 0 69 0;
#X connect 63 0 77 0;
#X connect 65 0 67 0;
#X connect 66 0 65 1;
#X connect 66 0 67 1;
#X connect 66 0 70 1;
#X connect 66 0 69 1;
#X connect 66 0 77 1;
#X connect 66 0 78 1;
#X connect 67 0 68 0;
#X connect 68 0 5 0;
#X connect 69 0 70 0;
#X connect 70 0 72 0;
#X connect 71 0 84 0;
#X connect 72 0 6 0;
#X connect 77 0 78 0;
#X connect 78 0 79 0;
#X connect 79 0 46 0;
#X connect 84 0 66 0;
#X restore -293 27 pd ambiencoder;
#X obj -347 104 throw~ master_W;
#X obj -136 125 line~;
#X msg -136 102 \$1 10;
#X obj -347 80 *~;
#X obj -327 130 *~;
#X obj -287 180 *~;
#X obj -257 230 *~;
#X obj -227 280 *~;
#X obj -187 330 *~;
#X obj -157 380 *~;
#X obj -127 430 *~;
#X obj -87 480 *~;
#X obj -327 154 throw~ master_X;
#X obj -287 204 throw~ master_Y;
#X obj -257 254 throw~ master_Z;
#X obj -227 304 throw~ master_R;
#X obj -187 353 throw~ master_S;
#X obj -157 404 throw~ master_T;
#X obj -127 454 throw~ master_U;
#X obj -87 504 throw~ master_V;
#X obj -266 5 unpack f f f;
#X obj -293 -59 *~;
#X obj -278 -81 line~;
#X msg -278 -104 \$1 10;
#X obj -293 -141 inlet~;
#X obj 105 131 vsl 15 78 0 1 0 1 empty empty Mono_In -1 -10 0 10 -262144
-1 -1 0 1;
#X obj 126 67 - 100;
#X obj 126 40 env~ 8820;
#X obj 127 131 vu 15 80 empty empty -1 -8 0 10 -66577 -1 0 0;
#X obj 105 232 vsl 15 80 0 1 0 1 empty empty Ambi_Out -2 -10 0 10 -262144
-1 -1 0 1;
#X obj 7 151 - 100;
#X obj 7 121 env~ 8820;
#X obj 127 233 vu 15 80 empty empty -1 -8 0 10 -66577 -1 0 0;
#X obj -363 -141 catch~ Ch8;
#X obj -266 -21 r fuente8;
#X text 115 99 Ch8;
#X connect 0 0 4 0;
#X connect 0 0 32 0;
#X connect 0 1 5 0;
#X connect 0 1 32 0;
#X connect 0 2 6 0;
#X connect 0 2 32 0;
#X connect 0 3 7 0;
#X connect 0 3 32 0;
#X connect 0 4 8 0;
#X connect 0 4 32 0;
#X connect 0 5 9 0;
#X connect 0 5 32 0;
#X connect 0 6 10 0;
#X connect 0 6 32 0;
#X connect 0 7 11 0;
#X connect 0 7 32 0;
#X connect 0 8 12 0;
#X connect 0 8 32 0;
#X connect 2 0 4 1;
#X connect 2 0 5 1;
#X connect 2 0 6 1;
#X connect 2 0 7 1;
#X connect 2 0 8 1;
#X connect 2 0 9 1;
#X connect 2 0 10 1;
#X connect 2 0 11 1;
#X connect 2 0 12 1;
#X connect 3 0 2 0;
#X connect 4 0 1 0;
#X connect 5 0 13 0;
#X connect 6 0 14 0;
#X connect 7 0 15 0;
#X connect 8 0 16 0;
#X connect 9 0 17 0;
#X connect 10 0 18 0;
#X connect 11 0 19 0;
#X connect 12 0 20 0;
#X connect 21 0 0 1;
#X connect 21 1 0 2;
#X connect 21 2 0 3;
#X connect 22 0 0 0;
#X connect 22 0 28 0;
#X connect 23 0 22 1;
#X connect 24 0 23 0;
#X connect 25 0 22 0;
#X connect 26 0 24 0;
#X connect 27 0 29 0;
#X connect 28 0 27 0;
#X connect 30 0 3 0;
#X connect 31 0 33 0;
#X connect 32 0 31 0;
#X connect 34 0 22 0;
#X connect 35 0 21 0;
#X coords 0 -1 1 1 50 220 2 100 100;
#X restore 454 103 pd AmbiEncoder;
#N canvas 329 22 609 674 AmbiEncoder 0;
#N canvas 319 22 1045 720 ambiencoder 0;
#X text 836 292 Calculo de la distancia;
#X obj 47 302 inlet~;
#X text 49 277 audio;
#X obj 318 372 / 1;
#X obj 476 371 / 1;
#X obj 328 211 t a a;
#X obj 483 213 t a a;
#X obj 730 307 expr if($f1 < 0.3 \, 0.3 \, $f1);
#X obj 47 659 outlet~;
#X obj 47 349 *~ 0.707;
#X obj 122 659 outlet~;
#X obj 121 623 *~;
#X obj 195 623 *~;
#X obj 958 624 *~;
#X obj 973 497 *;
#X obj 973 525 * 2;
#X obj 196 659 outlet~;
#X obj 958 659 outlet~;
#X text 998 677 2xy / D;
#X text 65 679 W;
#X text 140 679 X;
#X text 213 679 Y;
#X text 975 679 V;
#X text 1000 19 CODIFICADOR AMBISONICS;
#X text 1032 34 SEGUNDO ORDEN;
#X obj 47 413 /~;
#X obj 80 386 sqrt;
#X text 1044 670 4;
#X obj 771 512 expr $f1*$f1 - $f2*$f2;
#X obj 756 624 *~;
#X obj 756 659 outlet~;
#X text 773 679 U;
#X obj 408 623 *~;
#X obj 409 659 outlet~;
#X obj 509 623 *~;
#X obj 510 659 outlet~;
#X text 426 679 R;
#X text 527 679 S;
#X obj 629 623 *~;
#X obj 630 659 outlet~;
#X text 647 679 T;
#X obj 295 623 *~;
#X obj 296 659 outlet~;
#X text 313 679 Z;
#X text 1031 51 3 DIMENSIONES;
#X obj 724 273 expr $f1*$f1 + $f2*$f2 + $f3*$f3;
#X obj 633 212 t a a;
#X obj 614 368 / 1;
#X obj 423 508 * 1.5;
#X obj 423 537 - 0.5;
#X obj 524 502 *;
#X obj 524 529 * 2;
#X obj 644 502 *;
#X obj 644 529 * 2;
#X text 158 674 x/D;
#X text 242 678 y/D;
#X text 343 679 z/D;
#X text 443 679 1.5zz-0.5;
#X text 547 679 2zx;
#X text 669 675 2yz;
#X obj 328 37 inlet;
#X obj 483 37 inlet;
#X text 368 37 x;
#X obj 633 36 inlet;
#X text 525 38 Y;
#X obj 328 96 iemlib/speedlim 200;
#X floatatom 174 100 5 0 0 0 IntTime - -;
#X obj 328 127 pack;
#X obj 328 158 line 200 0;
#X obj 483 95 iemlib/speedlim 200;
#X obj 483 126 pack;
#X obj 249 21 loadbang;
#X obj 483 151 line 200 0;
#X text 124 62 X;
#X text 65 62 AudioIn;
#X text 155 62 Y;
#X text 682 38 Z;
#X obj 633 95 iemlib/speedlim 200;
#X obj 633 126 pack;
#X obj 633 151 line 200 0;
#X text 79 80 Encoder 2º orden 3D;
#X text 79 122 W X Y Z R S T U V;
#X text 188 60 Z;
#X text 795 678 xx-yy;
#X msg 249 44 2;
#X text 179 668 comment;
#X text 247 677 comment;
#X text 239 675 comment;
#X text 375 538 comment;
#X connect 1 0 9 0;
#X connect 1 0 11 0;
#X connect 1 0 12 0;
#X connect 1 0 13 0;
#X connect 1 0 29 0;
#X connect 1 0 32 0;
#X connect 1 0 34 0;
#X connect 1 0 38 0;
#X connect 1 0 41 0;
#X connect 3 0 11 1;
#X connect 3 0 50 0;
#X connect 3 0 28 0;
#X connect 3 0 14 0;
#X connect 4 0 12 1;
#X connect 4 0 52 0;
#X connect 4 0 28 1;
#X connect 4 0 14 1;
#X connect 5 0 3 0;
#X connect 5 1 45 0;
#X connect 6 0 4 0;
#X connect 6 1 45 1;
#X connect 7 0 3 1;
#X connect 7 0 4 1;
#X connect 7 0 26 0;
#X connect 7 0 47 1;
#X connect 9 0 25 0;
#X connect 11 0 10 0;
#X connect 12 0 16 0;
#X connect 13 0 17 0;
#X connect 14 0 15 0;
#X connect 15 0 13 1;
#X connect 25 0 8 0;
#X connect 26 0 25 1;
#X connect 28 0 29 1;
#X connect 29 0 30 0;
#X connect 32 0 33 0;
#X connect 34 0 35 0;
#X connect 38 0 39 0;
#X connect 41 0 42 0;
#X connect 45 0 7 0;
#X connect 46 0 47 0;
#X connect 46 1 45 2;
#X connect 47 0 41 1;
#X connect 47 0 48 0;
#X connect 47 0 50 1;
#X connect 47 0 52 1;
#X connect 48 0 49 0;
#X connect 49 0 32 1;
#X connect 50 0 51 0;
#X connect 51 0 34 1;
#X connect 52 0 53 0;
#X connect 53 0 38 1;
#X connect 60 0 65 0;
#X connect 61 0 69 0;
#X connect 63 0 77 0;
#X connect 65 0 67 0;
#X connect 66 0 65 1;
#X connect 66 0 67 1;
#X connect 66 0 70 1;
#X connect 66 0 69 1;
#X connect 66 0 77 1;
#X connect 66 0 78 1;
#X connect 67 0 68 0;
#X connect 68 0 5 0;
#X connect 69 0 70 0;
#X connect 70 0 72 0;
#X connect 71 0 84 0;
#X connect 72 0 6 0;
#X connect 77 0 78 0;
#X connect 78 0 79 0;
#X connect 79 0 46 0;
#X connect 84 0 66 0;
#X restore -293 27 pd ambiencoder;
#X obj -347 104 throw~ master_W;
#X obj -136 125 line~;
#X msg -136 102 \$1 10;
#X obj -347 80 *~;
#X obj -327 130 *~;
#X obj -287 180 *~;
#X obj -257 230 *~;
#X obj -227 280 *~;
#X obj -187 330 *~;
#X obj -157 380 *~;
#X obj -127 430 *~;
#X obj -87 480 *~;
#X obj -327 154 throw~ master_X;
#X obj -287 204 throw~ master_Y;
#X obj -257 254 throw~ master_Z;
#X obj -227 304 throw~ master_R;
#X obj -187 353 throw~ master_S;
#X obj -157 404 throw~ master_T;
#X obj -127 454 throw~ master_U;
#X obj -87 504 throw~ master_V;
#X obj -266 5 unpack f f f;
#X obj -293 -59 *~;
#X obj -278 -81 line~;
#X msg -278 -104 \$1 10;
#X obj -293 -141 inlet~;
#X obj 105 131 vsl 15 78 0 1 0 1 empty empty Mono_In -1 -10 0 10 -262144
-1 -1 0 1;
#X obj 126 67 - 100;
#X obj 126 40 env~ 8820;
#X obj 127 131 vu 15 80 empty empty -1 -8 0 10 -66577 -1 0 0;
#X obj 105 232 vsl 15 80 0 1 0 1 empty empty Ambi_Out -2 -10 0 10 -262144
-1 -1 0 1;
#X obj 7 151 - 100;
#X obj 7 121 env~ 8820;
#X obj 127 233 vu 15 80 empty empty -1 -8 0 10 -66577 -1 0 0;
#X obj -363 -141 catch~ Ch9;
#X obj -266 -21 r fuente9;
#X text 115 99 Ch9;
#X connect 0 0 4 0;
#X connect 0 0 32 0;
#X connect 0 1 5 0;
#X connect 0 1 32 0;
#X connect 0 2 6 0;
#X connect 0 2 32 0;
#X connect 0 3 7 0;
#X connect 0 3 32 0;
#X connect 0 4 8 0;
#X connect 0 4 32 0;
#X connect 0 5 9 0;
#X connect 0 5 32 0;
#X connect 0 6 10 0;
#X connect 0 6 32 0;
#X connect 0 7 11 0;
#X connect 0 7 32 0;
#X connect 0 8 12 0;
#X connect 0 8 32 0;
#X connect 2 0 4 1;
#X connect 2 0 5 1;
#X connect 2 0 6 1;
#X connect 2 0 7 1;
#X connect 2 0 8 1;
#X connect 2 0 9 1;
#X connect 2 0 10 1;
#X connect 2 0 11 1;
#X connect 2 0 12 1;
#X connect 3 0 2 0;
#X connect 4 0 1 0;
#X connect 5 0 13 0;
#X connect 6 0 14 0;
#X connect 7 0 15 0;
#X connect 8 0 16 0;
#X connect 9 0 17 0;
#X connect 10 0 18 0;
#X connect 11 0 19 0;
#X connect 12 0 20 0;
#X connect 21 0 0 1;
#X connect 21 1 0 2;
#X connect 21 2 0 3;
#X connect 22 0 0 0;
#X connect 22 0 28 0;
#X connect 23 0 22 1;
#X connect 24 0 23 0;
#X connect 25 0 22 0;
#X connect 26 0 24 0;
#X connect 27 0 29 0;
#X connect 28 0 27 0;
#X connect 30 0 3 0;
#X connect 31 0 33 0;
#X connect 32 0 31 0;
#X connect 34 0 22 0;
#X connect 35 0 21 0;
#X coords 0 -1 1 1 50 220 2 100 100;
#X restore 504 103 pd AmbiEncoder;
#N canvas 329 22 609 674 AmbiEncoder 0;
#N canvas 319 22 1045 720 ambiencoder 0;
#X text 836 292 Calculo de la distancia;
#X obj 47 302 inlet~;
#X text 49 277 audio;
#X obj 318 372 / 1;
#X obj 476 371 / 1;
#X obj 328 211 t a a;
#X obj 483 213 t a a;
#X obj 730 307 expr if($f1 < 0.3 \, 0.3 \, $f1);
#X obj 47 659 outlet~;
#X obj 47 349 *~ 0.707;
#X obj 122 659 outlet~;
#X obj 121 623 *~;
#X obj 195 623 *~;
#X obj 958 624 *~;
#X obj 973 497 *;
#X obj 973 525 * 2;
#X obj 196 659 outlet~;
#X obj 958 659 outlet~;
#X text 998 677 2xy / D;
#X text 65 679 W;
#X text 140 679 X;
#X text 213 679 Y;
#X text 975 679 V;
#X text 1000 19 CODIFICADOR AMBISONICS;
#X text 1032 34 SEGUNDO ORDEN;
#X obj 47 413 /~;
#X obj 80 386 sqrt;
#X text 1044 670 4;
#X obj 771 512 expr $f1*$f1 - $f2*$f2;
#X obj 756 624 *~;
#X obj 756 659 outlet~;
#X text 773 679 U;
#X obj 408 623 *~;
#X obj 409 659 outlet~;
#X obj 509 623 *~;
#X obj 510 659 outlet~;
#X text 426 679 R;
#X text 527 679 S;
#X obj 629 623 *~;
#X obj 630 659 outlet~;
#X text 647 679 T;
#X obj 295 623 *~;
#X obj 296 659 outlet~;
#X text 313 679 Z;
#X text 1031 51 3 DIMENSIONES;
#X obj 724 273 expr $f1*$f1 + $f2*$f2 + $f3*$f3;
#X obj 633 212 t a a;
#X obj 614 368 / 1;
#X obj 423 508 * 1.5;
#X obj 423 537 - 0.5;
#X obj 524 502 *;
#X obj 524 529 * 2;
#X obj 644 502 *;
#X obj 644 529 * 2;
#X text 158 674 x/D;
#X text 242 678 y/D;
#X text 343 679 z/D;
#X text 443 679 1.5zz-0.5;
#X text 547 679 2zx;
#X text 669 675 2yz;
#X obj 328 37 inlet;
#X obj 483 37 inlet;
#X text 368 37 x;
#X obj 633 36 inlet;
#X text 525 38 Y;
#X obj 328 96 iemlib/speedlim 200;
#X floatatom 174 100 5 0 0 0 IntTime - -;
#X obj 328 127 pack;
#X obj 328 158 line 200 0;
#X obj 483 95 iemlib/speedlim 200;
#X obj 483 126 pack;
#X obj 249 21 loadbang;
#X obj 483 151 line 200 0;
#X text 124 62 X;
#X text 65 62 AudioIn;
#X text 155 62 Y;
#X text 682 38 Z;
#X obj 633 95 iemlib/speedlim 200;
#X obj 633 126 pack;
#X obj 633 151 line 200 0;
#X text 79 80 Encoder 2º orden 3D;
#X text 79 122 W X Y Z R S T U V;
#X text 188 60 Z;
#X text 795 678 xx-yy;
#X msg 249 44 2;
#X text 179 668 comment;
#X text 247 677 comment;
#X text 239 675 comment;
#X text 375 538 comment;
#X connect 1 0 9 0;
#X connect 1 0 11 0;
#X connect 1 0 12 0;
#X connect 1 0 13 0;
#X connect 1 0 29 0;
#X connect 1 0 32 0;
#X connect 1 0 34 0;
#X connect 1 0 38 0;
#X connect 1 0 41 0;
#X connect 3 0 11 1;
#X connect 3 0 50 0;
#X connect 3 0 28 0;
#X connect 3 0 14 0;
#X connect 4 0 12 1;
#X connect 4 0 52 0;
#X connect 4 0 28 1;
#X connect 4 0 14 1;
#X connect 5 0 3 0;
#X connect 5 1 45 0;
#X connect 6 0 4 0;
#X connect 6 1 45 1;
#X connect 7 0 3 1;
#X connect 7 0 4 1;
#X connect 7 0 26 0;
#X connect 7 0 47 1;
#X connect 9 0 25 0;
#X connect 11 0 10 0;
#X connect 12 0 16 0;
#X connect 13 0 17 0;
#X connect 14 0 15 0;
#X connect 15 0 13 1;
#X connect 25 0 8 0;
#X connect 26 0 25 1;
#X connect 28 0 29 1;
#X connect 29 0 30 0;
#X connect 32 0 33 0;
#X connect 34 0 35 0;
#X connect 38 0 39 0;
#X connect 41 0 42 0;
#X connect 45 0 7 0;
#X connect 46 0 47 0;
#X connect 46 1 45 2;
#X connect 47 0 41 1;
#X connect 47 0 48 0;
#X connect 47 0 50 1;
#X connect 47 0 52 1;
#X connect 48 0 49 0;
#X connect 49 0 32 1;
#X connect 50 0 51 0;
#X connect 51 0 34 1;
#X connect 52 0 53 0;
#X connect 53 0 38 1;
#X connect 60 0 65 0;
#X connect 61 0 69 0;
#X connect 63 0 77 0;
#X connect 65 0 67 0;
#X connect 66 0 65 1;
#X connect 66 0 67 1;
#X connect 66 0 70 1;
#X connect 66 0 69 1;
#X connect 66 0 77 1;
#X connect 66 0 78 1;
#X connect 67 0 68 0;
#X connect 68 0 5 0;
#X connect 69 0 70 0;
#X connect 70 0 72 0;
#X connect 71 0 84 0;
#X connect 72 0 6 0;
#X connect 77 0 78 0;
#X connect 78 0 79 0;
#X connect 79 0 46 0;
#X connect 84 0 66 0;
#X restore -293 27 pd ambiencoder;
#X obj -347 104 throw~ master_W;
#X obj -136 125 line~;
#X msg -136 102 \$1 10;
#X obj -347 80 *~;
#X obj -327 130 *~;
#X obj -287 180 *~;
#X obj -257 230 *~;
#X obj -227 280 *~;
#X obj -187 330 *~;
#X obj -157 380 *~;
#X obj -127 430 *~;
#X obj -87 480 *~;
#X obj -327 154 throw~ master_X;
#X obj -287 204 throw~ master_Y;
#X obj -257 254 throw~ master_Z;
#X obj -227 304 throw~ master_R;
#X obj -187 353 throw~ master_S;
#X obj -157 404 throw~ master_T;
#X obj -127 454 throw~ master_U;
#X obj -87 504 throw~ master_V;
#X obj -266 5 unpack f f f;
#X obj -293 -59 *~;
#X obj -278 -81 line~;
#X msg -278 -104 \$1 10;
#X obj -293 -141 inlet~;
#X obj 105 131 vsl 15 78 0 1 0 1 empty empty Mono_In -1 -10 0 10 -262144
-1 -1 0 1;
#X obj 126 67 - 100;
#X obj 126 40 env~ 8820;
#X obj 127 131 vu 15 80 empty empty -1 -8 0 10 -66577 -1 0 0;
#X obj 105 232 vsl 15 80 0 1 0 1 empty empty Ambi_Out -2 -10 0 10 -262144
-1 -1 0 1;
#X obj 7 151 - 100;
#X obj 7 121 env~ 8820;
#X obj 127 233 vu 15 80 empty empty -1 -8 0 10 -66577 -1 0 0;
#X obj -363 -141 catch~ Ch10;
#X obj -266 -21 r fuente10;
#X text 115 99 Ch10;
#X connect 0 0 4 0;
#X connect 0 0 32 0;
#X connect 0 1 5 0;
#X connect 0 1 32 0;
#X connect 0 2 6 0;
#X connect 0 2 32 0;
#X connect 0 3 7 0;
#X connect 0 3 32 0;
#X connect 0 4 8 0;
#X connect 0 4 32 0;
#X connect 0 5 9 0;
#X connect 0 5 32 0;
#X connect 0 6 10 0;
#X connect 0 6 32 0;
#X connect 0 7 11 0;
#X connect 0 7 32 0;
#X connect 0 8 12 0;
#X connect 0 8 32 0;
#X connect 2 0 4 1;
#X connect 2 0 5 1;
#X connect 2 0 6 1;
#X connect 2 0 7 1;
#X connect 2 0 8 1;
#X connect 2 0 9 1;
#X connect 2 0 10 1;
#X connect 2 0 11 1;
#X connect 2 0 12 1;
#X connect 3 0 2 0;
#X connect 4 0 1 0;
#X connect 5 0 13 0;
#X connect 6 0 14 0;
#X connect 7 0 15 0;
#X connect 8 0 16 0;
#X connect 9 0 17 0;
#X connect 10 0 18 0;
#X connect 11 0 19 0;
#X connect 12 0 20 0;
#X connect 21 0 0 1;
#X connect 21 1 0 2;
#X connect 21 2 0 3;
#X connect 22 0 0 0;
#X connect 22 0 28 0;
#X connect 23 0 22 1;
#X connect 24 0 23 0;
#X connect 25 0 22 0;
#X connect 26 0 24 0;
#X connect 27 0 29 0;
#X connect 28 0 27 0;
#X connect 30 0 3 0;
#X connect 31 0 33 0;
#X connect 32 0 31 0;
#X connect 34 0 22 0;
#X connect 35 0 21 0;
#X coords 0 -1 1 1 50 220 2 100 100;
#X restore 554 103 pd AmbiEncoder;
#N canvas 329 22 609 674 AmbiEncoder 0;
#N canvas 186 22 1161 720 ambiencoder 0;
#X text 836 292 Calculo de la distancia;
#X obj 47 302 inlet~;
#X text 49 277 audio;
#X obj 318 372 / 1;
#X obj 476 371 / 1;
#X obj 328 211 t a a;
#X obj 483 213 t a a;
#X obj 730 307 expr if($f1 < 0.3 \, 0.3 \, $f1);
#X obj 47 659 outlet~;
#X obj 47 349 *~ 0.707;
#X obj 122 659 outlet~;
#X obj 121 623 *~;
#X obj 195 623 *~;
#X obj 958 624 *~;
#X obj 973 497 *;
#X obj 973 525 * 2;
#X obj 196 659 outlet~;
#X obj 958 659 outlet~;
#X text 998 677 2xy / D;
#X text 65 679 W;
#X text 140 679 X;
#X text 213 679 Y;
#X text 975 679 V;
#X text 1000 19 CODIFICADOR AMBISONICS;
#X text 1032 34 SEGUNDO ORDEN;
#X obj 47 413 /~;
#X obj 80 386 sqrt;
#X text 1044 670 4;
#X obj 771 512 expr $f1*$f1 - $f2*$f2;
#X obj 756 624 *~;
#X obj 756 659 outlet~;
#X text 773 679 U;
#X obj 408 623 *~;
#X obj 409 659 outlet~;
#X obj 509 623 *~;
#X obj 510 659 outlet~;
#X text 426 679 R;
#X text 527 679 S;
#X obj 629 623 *~;
#X obj 630 659 outlet~;
#X text 647 679 T;
#X obj 295 623 *~;
#X obj 296 659 outlet~;
#X text 313 679 Z;
#X text 1031 51 3 DIMENSIONES;
#X obj 724 273 expr $f1*$f1 + $f2*$f2 + $f3*$f3;
#X obj 633 212 t a a;
#X obj 614 368 / 1;
#X obj 423 508 * 1.5;
#X obj 423 537 - 0.5;
#X obj 524 502 *;
#X obj 524 529 * 2;
#X obj 644 502 *;
#X obj 644 529 * 2;
#X text 158 674 x/D;
#X text 242 678 y/D;
#X text 343 679 z/D;
#X text 443 679 1.5zz-0.5;
#X text 547 679 2zx;
#X text 669 675 2yz;
#X obj 328 37 inlet;
#X obj 483 37 inlet;
#X text 368 37 x;
#X obj 633 36 inlet;
#X text 525 38 Y;
#X obj 328 96 iemlib/speedlim 200;
#X floatatom 174 100 5 0 0 0 IntTime - -;
#X obj 328 127 pack;
#X obj 328 158 line 200 0;
#X obj 483 95 iemlib/speedlim 200;
#X obj 483 126 pack;
#X obj 249 21 loadbang;
#X obj 483 151 line 200 0;
#X text 124 62 X;
#X text 65 62 AudioIn;
#X text 155 62 Y;
#X text 682 38 Z;
#X obj 633 95 iemlib/speedlim 200;
#X obj 633 126 pack;
#X obj 633 151 line 200 0;
#X text 79 80 Encoder 2º orden 3D;
#X text 79 122 W X Y Z R S T U V;
#X text 188 60 Z;
#X text 795 678 xx-yy;
#X msg 249 44 2;
#X text 179 668 comment;
#X text 247 677 comment;
#X text 239 675 comment;
#X text 375 538 comment;
#X connect 1 0 9 0;
#X connect 1 0 11 0;
#X connect 1 0 12 0;
#X connect 1 0 13 0;
#X connect 1 0 29 0;
#X connect 1 0 32 0;
#X connect 1 0 34 0;
#X connect 1 0 38 0;
#X connect 1 0 41 0;
#X connect 3 0 11 1;
#X connect 3 0 50 0;
#X connect 3 0 28 0;
#X connect 3 0 14 0;
#X connect 4 0 12 1;
#X connect 4 0 52 0;
#X connect 4 0 28 1;
#X connect 4 0 14 1;
#X connect 5 0 3 0;
#X connect 5 1 45 0;
#X connect 6 0 4 0;
#X connect 6 1 45 1;
#X connect 7 0 3 1;
#X connect 7 0 4 1;
#X connect 7 0 26 0;
#X connect 7 0 47 1;
#X connect 9 0 25 0;
#X connect 11 0 10 0;
#X connect 12 0 16 0;
#X connect 13 0 17 0;
#X connect 14 0 15 0;
#X connect 15 0 13 1;
#X connect 25 0 8 0;
#X connect 26 0 25 1;
#X connect 28 0 29 1;
#X connect 29 0 30 0;
#X connect 32 0 33 0;
#X connect 34 0 35 0;
#X connect 38 0 39 0;
#X connect 41 0 42 0;
#X connect 45 0 7 0;
#X connect 46 0 47 0;
#X connect 46 1 45 2;
#X connect 47 0 41 1;
#X connect 47 0 48 0;
#X connect 47 0 50 1;
#X connect 47 0 52 1;
#X connect 48 0 49 0;
#X connect 49 0 32 1;
#X connect 50 0 51 0;
#X connect 51 0 34 1;
#X connect 52 0 53 0;
#X connect 53 0 38 1;
#X connect 60 0 65 0;
#X connect 61 0 69 0;
#X connect 63 0 77 0;
#X connect 65 0 67 0;
#X connect 66 0 65 1;
#X connect 66 0 67 1;
#X connect 66 0 70 1;
#X connect 66 0 69 1;
#X connect 66 0 77 1;
#X connect 66 0 78 1;
#X connect 67 0 68 0;
#X connect 68 0 5 0;
#X connect 69 0 70 0;
#X connect 70 0 72 0;
#X connect 71 0 84 0;
#X connect 72 0 6 0;
#X connect 77 0 78 0;
#X connect 78 0 79 0;
#X connect 79 0 46 0;
#X connect 84 0 66 0;
#X restore -293 27 pd ambiencoder;
#X obj -347 104 throw~ master_W;
#X obj -136 125 line~;
#X msg -136 102 \$1 10;
#X obj -347 80 *~;
#X obj -327 130 *~;
#X obj -287 180 *~;
#X obj -257 230 *~;
#X obj -227 280 *~;
#X obj -187 330 *~;
#X obj -157 380 *~;
#X obj -127 430 *~;
#X obj -87 480 *~;
#X obj -327 154 throw~ master_X;
#X obj -287 204 throw~ master_Y;
#X obj -257 254 throw~ master_Z;
#X obj -227 304 throw~ master_R;
#X obj -187 353 throw~ master_S;
#X obj -157 404 throw~ master_T;
#X obj -127 454 throw~ master_U;
#X obj -87 504 throw~ master_V;
#X obj -266 -21 r fuente1;
#X obj -266 5 unpack f f f;
#X obj -293 -59 *~;
#X obj -278 -81 line~;
#X msg -278 -104 \$1 10;
#X obj -293 -141 inlet~;
#X obj 105 131 vsl 15 78 0 1 0 1 empty empty Mono_In -1 -10 0 10 -262144
-1 -1 0 1;
#X obj 126 67 - 100;
#X obj 126 40 env~ 8820;
#X obj 127 131 vu 15 80 empty empty -1 -8 0 10 -66577 -1 0 0;
#X obj 105 232 vsl 15 80 0 1 0 1 empty empty Ambi_Out -2 -10 0 10 -262144
-1 -1 0 1;
#X obj 7 151 - 100;
#X obj 7 121 env~ 8820;
#X obj 127 233 vu 15 80 empty empty -1 -8 0 10 -66577 -1 0 0;
#X text 115 99 Ch1;
#X obj -363 -141 catch~ Ch1;
#X connect 0 0 4 0;
#X connect 0 0 33 0;
#X connect 0 1 5 0;
#X connect 0 1 33 0;
#X connect 0 2 6 0;
#X connect 0 2 33 0;
#X connect 0 3 7 0;
#X connect 0 3 33 0;
#X connect 0 4 8 0;
#X connect 0 4 33 0;
#X connect 0 5 9 0;
#X connect 0 5 33 0;
#X connect 0 6 10 0;
#X connect 0 6 33 0;
#X connect 0 7 11 0;
#X connect 0 7 33 0;
#X connect 0 8 12 0;
#X connect 0 8 33 0;
#X connect 2 0 4 1;
#X connect 2 0 5 1;
#X connect 2 0 6 1;
#X connect 2 0 7 1;
#X connect 2 0 8 1;
#X connect 2 0 9 1;
#X connect 2 0 10 1;
#X connect 2 0 11 1;
#X connect 2 0 12 1;
#X connect 3 0 2 0;
#X connect 4 0 1 0;
#X connect 5 0 13 0;
#X connect 6 0 14 0;
#X connect 7 0 15 0;
#X connect 8 0 16 0;
#X connect 9 0 17 0;
#X connect 10 0 18 0;
#X connect 11 0 19 0;
#X connect 12 0 20 0;
#X connect 21 0 22 0;
#X connect 22 0 0 1;
#X connect 22 1 0 2;
#X connect 22 2 0 3;
#X connect 23 0 0 0;
#X connect 23 0 29 0;
#X connect 24 0 23 1;
#X connect 25 0 24 0;
#X connect 26 0 23 0;
#X connect 27 0 25 0;
#X connect 28 0 30 0;
#X connect 29 0 28 0;
#X connect 31 0 3 0;
#X connect 32 0 34 0;
#X connect 33 0 32 0;
#X connect 36 0 23 0;
#X coords 0 -1 1 1 50 220 2 100 100;
#X restore 104 103 pd AmbiEncoder;
#N canvas 329 22 609 674 AmbiEncoder 0;
#N canvas 319 22 1045 720 ambiencoder 0;
#X text 836 292 Calculo de la distancia;
#X obj 47 302 inlet~;
#X text 49 277 audio;
#X obj 318 372 / 1;
#X obj 476 371 / 1;
#X obj 328 211 t a a;
#X obj 483 213 t a a;
#X obj 730 307 expr if($f1 < 0.3 \, 0.3 \, $f1);
#X obj 47 659 outlet~;
#X obj 47 349 *~ 0.707;
#X obj 122 659 outlet~;
#X obj 121 623 *~;
#X obj 195 623 *~;
#X obj 958 624 *~;
#X obj 973 497 *;
#X obj 973 525 * 2;
#X obj 196 659 outlet~;
#X obj 958 659 outlet~;
#X text 998 677 2xy / D;
#X text 65 679 W;
#X text 140 679 X;
#X text 213 679 Y;
#X text 975 679 V;
#X text 1000 19 CODIFICADOR AMBISONICS;
#X text 1032 34 SEGUNDO ORDEN;
#X obj 47 413 /~;
#X obj 80 386 sqrt;
#X text 1044 670 4;
#X obj 771 512 expr $f1*$f1 - $f2*$f2;
#X obj 756 624 *~;
#X obj 756 659 outlet~;
#X text 773 679 U;
#X obj 408 623 *~;
#X obj 409 659 outlet~;
#X obj 509 623 *~;
#X obj 510 659 outlet~;
#X text 426 679 R;
#X text 527 679 S;
#X obj 629 623 *~;
#X obj 630 659 outlet~;
#X text 647 679 T;
#X obj 295 623 *~;
#X obj 296 659 outlet~;
#X text 313 679 Z;
#X text 1031 51 3 DIMENSIONES;
#X obj 724 273 expr $f1*$f1 + $f2*$f2 + $f3*$f3;
#X obj 633 212 t a a;
#X obj 614 368 / 1;
#X obj 423 508 * 1.5;
#X obj 423 537 - 0.5;
#X obj 524 502 *;
#X obj 524 529 * 2;
#X obj 644 502 *;
#X obj 644 529 * 2;
#X text 158 674 x/D;
#X text 242 678 y/D;
#X text 343 679 z/D;
#X text 443 679 1.5zz-0.5;
#X text 547 679 2zx;
#X text 669 675 2yz;
#X obj 328 37 inlet;
#X obj 483 37 inlet;
#X text 368 37 x;
#X obj 633 36 inlet;
#X text 525 38 Y;
#X obj 328 96 iemlib/speedlim 200;
#X floatatom 174 100 5 0 0 0 IntTime - -;
#X obj 328 127 pack;
#X obj 328 158 line 200 0;
#X obj 483 95 iemlib/speedlim 200;
#X obj 483 126 pack;
#X obj 249 21 loadbang;
#X obj 483 151 line 200 0;
#X text 124 62 X;
#X text 65 62 AudioIn;
#X text 155 62 Y;
#X text 682 38 Z;
#X obj 633 95 iemlib/speedlim 200;
#X obj 633 126 pack;
#X obj 633 151 line 200 0;
#X text 79 80 Encoder 2º orden 3D;
#X text 79 122 W X Y Z R S T U V;
#X text 188 60 Z;
#X text 795 678 xx-yy;
#X msg 249 44 2;
#X text 179 668 comment;
#X text 247 677 comment;
#X text 239 675 comment;
#X text 375 538 comment;
#X connect 1 0 9 0;
#X connect 1 0 11 0;
#X connect 1 0 12 0;
#X connect 1 0 13 0;
#X connect 1 0 29 0;
#X connect 1 0 32 0;
#X connect 1 0 34 0;
#X connect 1 0 38 0;
#X connect 1 0 41 0;
#X connect 3 0 11 1;
#X connect 3 0 50 0;
#X connect 3 0 28 0;
#X connect 3 0 14 0;
#X connect 4 0 12 1;
#X connect 4 0 52 0;
#X connect 4 0 28 1;
#X connect 4 0 14 1;
#X connect 5 0 3 0;
#X connect 5 1 45 0;
#X connect 6 0 4 0;
#X connect 6 1 45 1;
#X connect 7 0 3 1;
#X connect 7 0 4 1;
#X connect 7 0 26 0;
#X connect 7 0 47 1;
#X connect 9 0 25 0;
#X connect 11 0 10 0;
#X connect 12 0 16 0;
#X connect 13 0 17 0;
#X connect 14 0 15 0;
#X connect 15 0 13 1;
#X connect 25 0 8 0;
#X connect 26 0 25 1;
#X connect 28 0 29 1;
#X connect 29 0 30 0;
#X connect 32 0 33 0;
#X connect 34 0 35 0;
#X connect 38 0 39 0;
#X connect 41 0 42 0;
#X connect 45 0 7 0;
#X connect 46 0 47 0;
#X connect 46 1 45 2;
#X connect 47 0 41 1;
#X connect 47 0 48 0;
#X connect 47 0 50 1;
#X connect 47 0 52 1;
#X connect 48 0 49 0;
#X connect 49 0 32 1;
#X connect 50 0 51 0;
#X connect 51 0 34 1;
#X connect 52 0 53 0;
#X connect 53 0 38 1;
#X connect 60 0 65 0;
#X connect 61 0 69 0;
#X connect 63 0 77 0;
#X connect 65 0 67 0;
#X connect 66 0 65 1;
#X connect 66 0 67 1;
#X connect 66 0 70 1;
#X connect 66 0 69 1;
#X connect 66 0 77 1;
#X connect 66 0 78 1;
#X connect 67 0 68 0;
#X connect 68 0 5 0;
#X connect 69 0 70 0;
#X connect 70 0 72 0;
#X connect 71 0 84 0;
#X connect 72 0 6 0;
#X connect 77 0 78 0;
#X connect 78 0 79 0;
#X connect 79 0 46 0;
#X connect 84 0 66 0;
#X restore -293 27 pd ambiencoder;
#X obj -347 104 throw~ master_W;
#X obj -136 125 line~;
#X msg -136 102 \$1 10;
#X obj -347 80 *~;
#X obj -327 130 *~;
#X obj -287 180 *~;
#X obj -257 230 *~;
#X obj -227 280 *~;
#X obj -187 330 *~;
#X obj -157 380 *~;
#X obj -127 430 *~;
#X obj -87 480 *~;
#X obj -327 154 throw~ master_X;
#X obj -287 204 throw~ master_Y;
#X obj -257 254 throw~ master_Z;
#X obj -227 304 throw~ master_R;
#X obj -187 353 throw~ master_S;
#X obj -157 404 throw~ master_T;
#X obj -127 454 throw~ master_U;
#X obj -87 504 throw~ master_V;
#X obj -266 5 unpack f f f;
#X obj -293 -59 *~;
#X obj -278 -81 line~;
#X msg -278 -104 \$1 10;
#X obj -293 -141 inlet~;
#X obj 105 131 vsl 15 78 0 1 0 1 empty empty Mono_In -1 -10 0 10 -262144
-1 -1 0 1;
#X obj 126 67 - 100;
#X obj 126 40 env~ 8820;
#X obj 127 131 vu 15 80 empty empty -1 -8 0 10 -66577 -1 0 0;
#X obj 105 232 vsl 15 80 0 1 0 1 empty empty Ambi_Out -2 -10 0 10 -262144
-1 -1 0 1;
#X obj 7 151 - 100;
#X obj 7 121 env~ 8820;
#X obj 127 233 vu 15 80 empty empty -1 -8 0 10 -66577 -1 0 0;
#X obj -363 -141 catch~ Ch2;
#X obj -266 -21 r fuente2;
#X text 115 99 Ch2;
#X connect 0 0 4 0;
#X connect 0 0 32 0;
#X connect 0 1 5 0;
#X connect 0 1 32 0;
#X connect 0 2 6 0;
#X connect 0 2 32 0;
#X connect 0 3 7 0;
#X connect 0 3 32 0;
#X connect 0 4 8 0;
#X connect 0 4 32 0;
#X connect 0 5 9 0;
#X connect 0 5 32 0;
#X connect 0 6 10 0;
#X connect 0 6 32 0;
#X connect 0 7 11 0;
#X connect 0 7 32 0;
#X connect 0 8 12 0;
#X connect 0 8 32 0;
#X connect 2 0 4 1;
#X connect 2 0 5 1;
#X connect 2 0 6 1;
#X connect 2 0 7 1;
#X connect 2 0 8 1;
#X connect 2 0 9 1;
#X connect 2 0 10 1;
#X connect 2 0 11 1;
#X connect 2 0 12 1;
#X connect 3 0 2 0;
#X connect 4 0 1 0;
#X connect 5 0 13 0;
#X connect 6 0 14 0;
#X connect 7 0 15 0;
#X connect 8 0 16 0;
#X connect 9 0 17 0;
#X connect 10 0 18 0;
#X connect 11 0 19 0;
#X connect 12 0 20 0;
#X connect 21 0 0 1;
#X connect 21 1 0 2;
#X connect 21 2 0 3;
#X connect 22 0 0 0;
#X connect 22 0 28 0;
#X connect 23 0 22 1;
#X connect 24 0 23 0;
#X connect 25 0 22 0;
#X connect 26 0 24 0;
#X connect 27 0 29 0;
#X connect 28 0 27 0;
#X connect 30 0 3 0;
#X connect 31 0 33 0;
#X connect 32 0 31 0;
#X connect 34 0 22 0;
#X connect 35 0 21 0;
#X coords 0 -1 1 1 50 220 2 100 100;
#X restore 154 103 pd AmbiEncoder;
#N canvas 329 22 609 674 AmbiEncoder 0;
#N canvas 319 22 1045 720 ambiencoder 0;
#X text 836 292 Calculo de la distancia;
#X obj 47 302 inlet~;
#X text 49 277 audio;
#X obj 318 372 / 1;
#X obj 476 371 / 1;
#X obj 328 211 t a a;
#X obj 483 213 t a a;
#X obj 730 307 expr if($f1 < 0.3 \, 0.3 \, $f1);
#X obj 47 659 outlet~;
#X obj 47 349 *~ 0.707;
#X obj 122 659 outlet~;
#X obj 121 623 *~;
#X obj 195 623 *~;
#X obj 958 624 *~;
#X obj 973 497 *;
#X obj 973 525 * 2;
#X obj 196 659 outlet~;
#X obj 958 659 outlet~;
#X text 998 677 2xy / D;
#X text 65 679 W;
#X text 140 679 X;
#X text 213 679 Y;
#X text 975 679 V;
#X text 1000 19 CODIFICADOR AMBISONICS;
#X text 1032 34 SEGUNDO ORDEN;
#X obj 47 413 /~;
#X obj 80 386 sqrt;
#X text 1044 670 4;
#X obj 771 512 expr $f1*$f1 - $f2*$f2;
#X obj 756 624 *~;
#X obj 756 659 outlet~;
#X text 773 679 U;
#X obj 408 623 *~;
#X obj 409 659 outlet~;
#X obj 509 623 *~;
#X obj 510 659 outlet~;
#X text 426 679 R;
#X text 527 679 S;
#X obj 629 623 *~;
#X obj 630 659 outlet~;
#X text 647 679 T;
#X obj 295 623 *~;
#X obj 296 659 outlet~;
#X text 313 679 Z;
#X text 1031 51 3 DIMENSIONES;
#X obj 724 273 expr $f1*$f1 + $f2*$f2 + $f3*$f3;
#X obj 633 212 t a a;
#X obj 614 368 / 1;
#X obj 423 508 * 1.5;
#X obj 423 537 - 0.5;
#X obj 524 502 *;
#X obj 524 529 * 2;
#X obj 644 502 *;
#X obj 644 529 * 2;
#X text 158 674 x/D;
#X text 242 678 y/D;
#X text 343 679 z/D;
#X text 443 679 1.5zz-0.5;
#X text 547 679 2zx;
#X text 669 675 2yz;
#X obj 328 37 inlet;
#X obj 483 37 inlet;
#X text 368 37 x;
#X obj 633 36 inlet;
#X text 525 38 Y;
#X obj 328 96 iemlib/speedlim 200;
#X floatatom 174 100 5 0 0 0 IntTime - -;
#X obj 328 127 pack;
#X obj 328 158 line 200 0;
#X obj 483 95 iemlib/speedlim 200;
#X obj 483 126 pack;
#X obj 249 21 loadbang;
#X obj 483 151 line 200 0;
#X text 124 62 X;
#X text 65 62 AudioIn;
#X text 155 62 Y;
#X text 682 38 Z;
#X obj 633 95 iemlib/speedlim 200;
#X obj 633 126 pack;
#X obj 633 151 line 200 0;
#X text 79 80 Encoder 2º orden 3D;
#X text 79 122 W X Y Z R S T U V;
#X text 188 60 Z;
#X text 795 678 xx-yy;
#X msg 249 44 2;
#X text 179 668 comment;
#X text 247 677 comment;
#X text 239 675 comment;
#X text 375 538 comment;
#X connect 1 0 9 0;
#X connect 1 0 11 0;
#X connect 1 0 12 0;
#X connect 1 0 13 0;
#X connect 1 0 29 0;
#X connect 1 0 32 0;
#X connect 1 0 34 0;
#X connect 1 0 38 0;
#X connect 1 0 41 0;
#X connect 3 0 11 1;
#X connect 3 0 50 0;
#X connect 3 0 28 0;
#X connect 3 0 14 0;
#X connect 4 0 12 1;
#X connect 4 0 52 0;
#X connect 4 0 28 1;
#X connect 4 0 14 1;
#X connect 5 0 3 0;
#X connect 5 1 45 0;
#X connect 6 0 4 0;
#X connect 6 1 45 1;
#X connect 7 0 3 1;
#X connect 7 0 4 1;
#X connect 7 0 26 0;
#X connect 7 0 47 1;
#X connect 9 0 25 0;
#X connect 11 0 10 0;
#X connect 12 0 16 0;
#X connect 13 0 17 0;
#X connect 14 0 15 0;
#X connect 15 0 13 1;
#X connect 25 0 8 0;
#X connect 26 0 25 1;
#X connect 28 0 29 1;
#X connect 29 0 30 0;
#X connect 32 0 33 0;
#X connect 34 0 35 0;
#X connect 38 0 39 0;
#X connect 41 0 42 0;
#X connect 45 0 7 0;
#X connect 46 0 47 0;
#X connect 46 1 45 2;
#X connect 47 0 41 1;
#X connect 47 0 48 0;
#X connect 47 0 50 1;
#X connect 47 0 52 1;
#X connect 48 0 49 0;
#X connect 49 0 32 1;
#X connect 50 0 51 0;
#X connect 51 0 34 1;
#X connect 52 0 53 0;
#X connect 53 0 38 1;
#X connect 60 0 65 0;
#X connect 61 0 69 0;
#X connect 63 0 77 0;
#X connect 65 0 67 0;
#X connect 66 0 65 1;
#X connect 66 0 67 1;
#X connect 66 0 70 1;
#X connect 66 0 69 1;
#X connect 66 0 77 1;
#X connect 66 0 78 1;
#X connect 67 0 68 0;
#X connect 68 0 5 0;
#X connect 69 0 70 0;
#X connect 70 0 72 0;
#X connect 71 0 84 0;
#X connect 72 0 6 0;
#X connect 77 0 78 0;
#X connect 78 0 79 0;
#X connect 79 0 46 0;
#X connect 84 0 66 0;
#X restore -293 27 pd ambiencoder;
#X obj -347 104 throw~ master_W;
#X obj -136 125 line~;
#X msg -136 102 \$1 10;
#X obj -347 80 *~;
#X obj -327 130 *~;
#X obj -287 180 *~;
#X obj -257 230 *~;
#X obj -227 280 *~;
#X obj -187 330 *~;
#X obj -157 380 *~;
#X obj -127 430 *~;
#X obj -87 480 *~;
#X obj -327 154 throw~ master_X;
#X obj -287 204 throw~ master_Y;
#X obj -257 254 throw~ master_Z;
#X obj -227 304 throw~ master_R;
#X obj -187 353 throw~ master_S;
#X obj -157 404 throw~ master_T;
#X obj -127 454 throw~ master_U;
#X obj -87 504 throw~ master_V;
#X obj -266 5 unpack f f f;
#X obj -293 -59 *~;
#X obj -278 -81 line~;
#X msg -278 -104 \$1 10;
#X obj -293 -141 inlet~;
#X obj 105 131 vsl 15 78 0 1 0 1 empty empty Mono_In -1 -10 0 10 -262144
-1 -1 0 1;
#X obj 126 67 - 100;
#X obj 126 40 env~ 8820;
#X obj 127 131 vu 15 80 empty empty -1 -8 0 10 -66577 -1 0 0;
#X obj 105 232 vsl 15 80 0 1 0 1 empty empty Ambi_Out -2 -10 0 10 -262144
-1 -1 0 1;
#X obj 7 151 - 100;
#X obj 7 121 env~ 8820;
#X obj 127 233 vu 15 80 empty empty -1 -8 0 10 -66577 -1 0 0;
#X obj -363 -141 catch~ Ch3;
#X obj -266 -21 r fuente3;
#X text 115 99 Ch3;
#X connect 0 0 4 0;
#X connect 0 0 32 0;
#X connect 0 1 5 0;
#X connect 0 1 32 0;
#X connect 0 2 6 0;
#X connect 0 2 32 0;
#X connect 0 3 7 0;
#X connect 0 3 32 0;
#X connect 0 4 8 0;
#X connect 0 4 32 0;
#X connect 0 5 9 0;
#X connect 0 5 32 0;
#X connect 0 6 10 0;
#X connect 0 6 32 0;
#X connect 0 7 11 0;
#X connect 0 7 32 0;
#X connect 0 8 12 0;
#X connect 0 8 32 0;
#X connect 2 0 4 1;
#X connect 2 0 5 1;
#X connect 2 0 6 1;
#X connect 2 0 7 1;
#X connect 2 0 8 1;
#X connect 2 0 9 1;
#X connect 2 0 10 1;
#X connect 2 0 11 1;
#X connect 2 0 12 1;
#X connect 3 0 2 0;
#X connect 4 0 1 0;
#X connect 5 0 13 0;
#X connect 6 0 14 0;
#X connect 7 0 15 0;
#X connect 8 0 16 0;
#X connect 9 0 17 0;
#X connect 10 0 18 0;
#X connect 11 0 19 0;
#X connect 12 0 20 0;
#X connect 21 0 0 1;
#X connect 21 1 0 2;
#X connect 21 2 0 3;
#X connect 22 0 0 0;
#X connect 22 0 28 0;
#X connect 23 0 22 1;
#X connect 24 0 23 0;
#X connect 25 0 22 0;
#X connect 26 0 24 0;
#X connect 27 0 29 0;
#X connect 28 0 27 0;
#X connect 30 0 3 0;
#X connect 31 0 33 0;
#X connect 32 0 31 0;
#X connect 34 0 22 0;
#X connect 35 0 21 0;
#X coords 0 -1 1 1 50 220 2 100 100;
#X restore 204 103 pd AmbiEncoder;
#X obj 104 55 inlet~;
#X obj 154 55 inlet~;
#X obj 204 55 inlet~;
#X obj 254 55 inlet~;
#X obj 304 55 inlet~;
#X obj 354 55 inlet~;
#X obj 404 55 inlet~;
#X obj 454 55 inlet~;
#X obj 504 55 inlet~;
#X obj 554 55 inlet~;
#X connect 11 0 8 0;
#X connect 12 0 9 0;
#X connect 13 0 10 0;
#X connect 14 0 1 0;
#X connect 15 0 2 0;
#X connect 16 0 3 0;
#X connect 17 0 4 0;
#X connect 18 0 5 0;
#X connect 19 0 6 0;
#X connect 20 0 7 0;
#X coords 0 -1 1 1 508 224 2 100 100;
