#N canvas 529 22 761 683 10;
#X obj 102 474 readsf~;
#X obj 102 300 openpanel;
#X msg 251 286 start;
#X msg 270 331 stop;
#X obj 251 253 sel 1 0;
#X obj 102 321 prepend open;
#X obj 102 342 prepend set;
#X msg 102 362;
#X obj 251 307 t a b;
#X msg 383 348 0;
#X obj 257 495 gate 2;
#X obj 378 456 delay 20;
#X obj 333 430 gate;
#X msg 378 478 start;
#X msg 256 457 1;
#X msg 288 457 2;
#X obj 256 431 sel 0 1;
#X msg 37 289 set;
#X obj 37 260 loadbang;
#X obj 101 101 cnv 15 55 150 empty empty empty 20 12 0 14 -233017 -66577
0;
#X obj 134 167 vsl 15 80 0 2 0 0 empty empty empty 0 -9 0 10 -262144
-1 -1 0 1;
#X obj 112 167 vu 15 80 empty empty -1 -8 0 10 -66577 -1 0 0;
#X obj 102 616 outlet~;
#X obj 118 544 line~;
#X msg 118 520 \$1 10;
#X obj 103 567 *~;
#X obj 408 620 - 100;
#X obj 408 591 env~ 8820;
#X obj 103 129 bng 10 250 50 0 empty empty Open 12 5 0 8 -262144 -1
-1;
#X obj 103 141 tgl 10 0 empty empty Start/Stop 12 5 0 6 -262144 -1
-1 0 1;
#X obj 103 153 tgl 10 1 empty empty LOOP 12 5 0 8 -262144 -1 -1 0 1
;
#X text 111 99 Mono;
#X text 107 111 Player;
#X connect 0 0 25 0;
#X connect 0 1 10 1;
#X connect 1 0 5 0;
#X connect 2 0 8 0;
#X connect 3 0 0 0;
#X connect 4 0 2 0;
#X connect 4 1 3 0;
#X connect 5 0 6 0;
#X connect 6 0 7 0;
#X connect 7 0 0 0;
#X connect 8 0 0 0;
#X connect 8 1 7 0;
#X connect 9 0 29 0;
#X connect 10 0 9 0;
#X connect 10 1 12 1;
#X connect 11 0 13 0;
#X connect 11 0 2 0;
#X connect 12 0 11 0;
#X connect 12 0 7 0;
#X connect 14 0 10 0;
#X connect 15 0 10 0;
#X connect 16 0 14 0;
#X connect 16 1 15 0;
#X connect 17 0 7 0;
#X connect 18 0 17 0;
#X connect 20 0 24 0;
#X connect 23 0 25 1;
#X connect 24 0 23 0;
#X connect 25 0 22 0;
#X connect 25 0 27 0;
#X connect 26 0 21 0;
#X connect 27 0 26 0;
#X connect 28 0 1 0;
#X connect 29 0 4 0;
#X connect 30 0 16 0;
#X connect 30 0 12 0;
#X coords 0 -1 1 1 57 154 2 100 100;
