#N struct 1004-point float x float y float rgb;
#N canvas 30 50 883 564 10;
#N canvas 231 50 380 266 colorPicker (template) 0;
#X obj 35 24 struct \$0-point float x float y float rgb;
#X msg 34 213 1 is the outline width;
#X obj 35 46 route click;
#X obj 35 68 outlet;
#X obj 34 186 filledpolygon rgb rgb 1 0 0 10 0 10 10 0 10;
#X connect 0 0 2 0;
#X connect 2 0 3 0;
#X restore 55 407 pd colorPicker (template);
#X obj 465 97 pointer;
#X obj 465 129 trigger bang p, f 51;
#X obj 465 179 easyflow/for;
#X floatatom 465 203 5 0 0 0 - - -, f 5;
#X obj 465 250 trigger float float float;
#X floatatom 551 317 5 0 0 0 - - -, f 5;
#X obj 465 222 - 1;
#X obj 216 122 vsl 15 156 0 255 0 1 empty \$0-hueSlider empty 0 -9
0 10 -258305 -1 -1 200 0;
#X floatatom 216 296 5 0 0 0 - - -, f 5;
#X obj 339 341 s \$0-Hue;
#X obj 55 429 get \$0-point rgb;
#X floatatom 55 451 5 0 0 0 - - -, f 5;
#N canvas 0 50 450 442 makeRGB 0;
#X obj 66 32 inlet;
#X obj 66 193 * 255;
#X obj 66 215 i;
#X obj 66 272 pack float float float;
#X obj 196 198 * 255;
#X obj 196 220 i;
#X obj 270 198 * 255;
#X obj 270 220 i;
#X obj 66 334 easyflow/rgb;
#X obj 66 356 outlet;
#X obj 66 76 div 100;
#X obj 66 98 * 100;
#X obj 196 127 div 10;
#X obj 196 149 * 10;
#X obj 66 171 / 900;
#X obj 196 176 / 90;
#X obj 270 171 / 9;
#X obj 66 54 trigger float float;
#X obj 196 76 mod 100;
#X obj 270 128 mod 10;
#X obj 196 98 trigger f f;
#X obj 66 294 trigger list list;
#X obj 182 357 outlet;
#X connect 0 0 17 0;
#X connect 1 0 2 0;
#X connect 2 0 3 0;
#X connect 3 0 21 0;
#X connect 4 0 5 0;
#X connect 5 0 3 1;
#X connect 6 0 7 0;
#X connect 7 0 3 2;
#X connect 8 0 9 0;
#X connect 10 0 11 0;
#X connect 11 0 14 0;
#X connect 12 0 13 0;
#X connect 13 0 15 0;
#X connect 14 0 1 0;
#X connect 15 0 4 0;
#X connect 16 0 6 0;
#X connect 17 0 10 0;
#X connect 17 1 18 0;
#X connect 18 0 20 0;
#X connect 19 0 16 0;
#X connect 20 0 12 0;
#X connect 20 1 19 0;
#X connect 21 0 8 0;
#X connect 21 1 22 0;
#X restore 55 470 pd makeRGB;
#X obj 55 492 outlet;
#X obj 43 492 cnv 8 11 17 empty empty 1 2 9 0 14 -1 -262144 0;
#N canvas 0 50 438 131 GOPTOOL 0;
#X text 32 25 to be used wit [easyflow/GOPtool];
#X msg 32 53 coords 0 1 1 -1 203 170 2 45.4706 116.627 3;
#X restore 58 22 pd GOPTOOL;
#X obj 234 176 cnv 7 12 17 empty empty H 2 9 0 14 -262144 -1 0;
#X obj 234 191 cnv 7 12 17 empty empty u 2 9 0 14 -262144 -1 0;
#X obj 234 206 cnv 7 12 17 empty empty e 2 9 0 14 -262144 -1 0;
#N canvas 0 50 450 300 initialize 0;
#X obj 50 41 loadbang;
#X obj 50 63 bng 15 250 50 0 empty empty empty 17 7 0 10 -262144 -1
-1;
#X msg 174 140 clear;
#X obj 112 232 outlet;
#X obj 50 83 trigger bang bang bang bang;
#X obj 112 121 f \$0;
#X msg 112 210 traverse pd-\$1-guiWindow \, bang;
#X obj 174 172 s pd-\$0-guiWindow;
#X connect 0 0 1 0;
#X connect 1 0 4 0;
#X connect 2 0 7 0;
#X connect 4 1 5 0;
#X connect 4 2 2 0;
#X connect 5 0 6 0;
#X connect 6 0 3 0;
#X restore 465 32 pd initialize;
#X obj 465 429 append \$0-point x y rgb, f 51;
#X obj 637 299 s \$0-rgbMaker;
#X obj 625 299 cnv 8 11 17 empty empty empty 2 9 0 14 -218275 -262144
0;
#N canvas 46 656 310 262 rgbMaker 1;
#X obj 52 53 trigger list list;
#X obj 40 27 cnv 8 11 17 empty empty empty 2 9 0 14 -218275 -262144
0;
#X obj 52 27 r \$0-rgbMaker;
#X obj 52 163 send, f 17;
#N canvas 930 50 657 650 process index 1;
#X floatatom 364 258 5 0 0 0 - - -, f 5;
#X floatatom 84 162 5 0 0 0 - - -, f 5;
#X obj 84 140 r \$0-Hue;
#X obj 52 93 trigger bang float float, f 45;
#X floatatom 167 258 5 0 0 0 - - -, f 5;
#X floatatom 167 141 5 0 0 0 - - -, f 5;
#X text 414 148 X coord = Luminosity;
#X text 214 148 Y coord = saturation;
#X obj 52 189 float;
#X obj 52 211 t b f;
#X obj 291 359 / 255;
#X obj 291 381 * 9;
#X floatatom 291 403 5 0 0 0 - - -, f 5;
#X obj 291 502 * 100;
#X obj 291 524 +;
#X obj 291 337 unpack float float float;
#X obj 373 359 / 255;
#X obj 373 381 * 9;
#X floatatom 373 403 5 0 0 0 - - -, f 5;
#X obj 373 524 +;
#X obj 456 359 / 255;
#X obj 456 381 * 9;
#X floatatom 456 403 5 0 0 0 - - -, f 5;
#X obj 455 524 +;
#X obj 373 502 * 10;
#X floatatom 291 546 5 0 0 0 - - -, f 5;
#X floatatom 291 587 5 0 0 0 - - -, f 5;
#X obj 291 606 outlet;
#X obj 291 462 expr rint($f1);
#X obj 373 437 expr rint($f1);
#X obj 455 467 expr rint($f1);
#X obj 167 237 expr rint($f1);
#X obj 364 236 expr rint($f1);
#X obj 70 310 easyflow/hueSaturationBrightness;
#X obj 52 64 inlet;
#X obj 167 119 div 16;
#X obj 167 160 * 10;
#X obj 364 131 mod 16;
#X obj 364 155 * 10;
#X obj 291 565 expr rint($f1);
#X obj 72 140 cnv 8 11 17 empty empty empty 2 9 0 14 -159808 -262144
0;
#X obj 364 204 easyflow/map 0 160 255 0;
#X obj 167 204 easyflow/map 0 160 0 255;
#X connect 0 0 33 3;
#X connect 1 0 8 1;
#X connect 2 0 1 0;
#X connect 3 0 8 0;
#X connect 3 1 35 0;
#X connect 3 2 37 0;
#X connect 4 0 33 2;
#X connect 5 0 36 0;
#X connect 8 0 9 0;
#X connect 9 0 33 0;
#X connect 9 1 33 1;
#X connect 10 0 11 0;
#X connect 11 0 12 0;
#X connect 12 0 28 0;
#X connect 13 0 14 0;
#X connect 14 0 25 0;
#X connect 15 0 10 0;
#X connect 15 1 16 0;
#X connect 15 2 20 0;
#X connect 16 0 17 0;
#X connect 17 0 18 0;
#X connect 18 0 29 0;
#X connect 19 0 14 1;
#X connect 20 0 21 0;
#X connect 21 0 22 0;
#X connect 22 0 30 0;
#X connect 23 0 19 1;
#X connect 24 0 19 0;
#X connect 25 0 39 0;
#X connect 26 0 27 0;
#X connect 28 0 13 0;
#X connect 29 0 24 0;
#X connect 30 0 23 0;
#X connect 31 0 4 0;
#X connect 32 0 0 0;
#X connect 33 1 15 0;
#X connect 34 0 3 0;
#X connect 35 0 5 0;
#X connect 36 0 42 0;
#X connect 37 0 38 0;
#X connect 38 0 41 0;
#X connect 39 0 26 0;
#X connect 41 0 32 0;
#X connect 42 0 31 0;
#X restore 52 115 pd process index;
#X msg 52 75 \$1;
#X msg 168 76 symbol \$2;
#X obj 33 162 cnv 8 11 17 empty empty ▲ 2 9 0 14 -262144 -85153 0
;
#X obj 20 162 cnv 8 11 17 empty empty ▲ 2 9 0 14 -262144 -261130
0;
#X obj 33 119 cnv 10 10 17 empty empty ● 1 5 0 15 -262144 -159808
0;
#X connect 0 0 5 0;
#X connect 0 1 6 0;
#X connect 2 0 0 0;
#X connect 4 0 3 0;
#X connect 5 0 4 0;
#X connect 6 0 3 1;
#X restore 296 440 pd rgbMaker;
#X obj 283 443 cnv 10 10 17 empty empty ● 1 5 0 15 -262144 -218275
0;
#X obj 689 350 cnv 8 11 17 empty empty empty 2 9 0 14 -85153 -262144
0;
#X obj 701 350 r \$0-rgbCreate;
#X obj 637 277 list append \$0-rgbCreate;
#X obj 623 275 cnv 8 11 17 empty empty ▲ 2 9 0 14 -262144 -85153
0;
#N canvas 381 426 643 332 UPDATE 1;
#X obj 70 49 bng 15 250 50 0 empty empty empty 17 7 0 10 -262144 -1
-1;
#X obj 70 69 trigger bang bang, f 38;
#X obj 466 198 pointer;
#X obj 70 113 easyflow/for;
#X floatatom 151 134 5 0 0 0 - - -, f 5;
#X obj 151 259 s \$0-rgbMaker;
#X obj 139 259 cnv 8 11 17 empty empty empty 2 9 0 14 -218275 -262144
0;
#X obj 137 235 cnv 8 11 17 empty empty ▲ 2 9 0 14 -262144 -261130
0;
#X obj 345 238 cnv 8 11 17 empty empty empty 2 9 0 14 -261130 -262144
0;
#X obj 151 237 list append \$0-rgbUpdater;
#X obj 357 272 set \$0-point rgb;
#X obj 151 153 - 1;
#X obj 357 238 r \$0-rgbUpdater;
#X obj 151 183 trigger float bang;
#X msg 274 207 next;
#X msg 70 91 256;
#X obj 333 94 f \$0;
#X msg 333 120 traverse pd-\$1-guiWindow \, bang;
#X obj 59 19 cnv 8 11 17 empty empty empty 2 9 0 14 -38949 -262144
0;
#X obj 70 19 r \$0-updateColors;
#X connect 0 0 1 0;
#X connect 1 0 15 0;
#X connect 1 1 16 0;
#X connect 2 0 10 1;
#X connect 3 1 4 0;
#X connect 4 0 11 0;
#X connect 9 0 5 0;
#X connect 11 0 13 0;
#X connect 12 0 10 0;
#X connect 13 0 9 0;
#X connect 13 1 14 0;
#X connect 14 0 2 0;
#X connect 15 0 3 0;
#X connect 16 0 17 0;
#X connect 17 0 2 0;
#X connect 19 0 0 0;
#X restore 302 27 pd UPDATE;
#X msg 465 151 256;
#X obj 465 272 mod 16;
#X obj 465 294 * 10;
#X obj 551 295 div 16;
#X obj 551 336 * 10;
#X obj 285 29 cnv 10 10 17 empty empty ● 1 5 0 15 -262144 -218275
0;
#N canvas 0 50 533 363 \$0-guiWindow 0;
#X scalar 1004-point 0 0 999 \;;
#X scalar 1004-point 10 0 888 \;;
#X scalar 1004-point 20 0 888 \;;
#X scalar 1004-point 30 0 777 \;;
#X scalar 1004-point 40 0 777 \;;
#X scalar 1004-point 50 0 666 \;;
#X scalar 1004-point 60 0 666 \;;
#X scalar 1004-point 70 0 555 \;;
#X scalar 1004-point 80 0 555 \;;
#X scalar 1004-point 90 0 444 \;;
#X scalar 1004-point 100 0 333 \;;
#X scalar 1004-point 110 0 333 \;;
#X scalar 1004-point 120 0 222 \;;
#X scalar 1004-point 130 0 222 \;;
#X scalar 1004-point 140 0 111 \;;
#X scalar 1004-point 150 0 111 \;;
#X scalar 1004-point 0 10 988 \;;
#X scalar 1004-point 10 10 888 \;;
#X scalar 1004-point 20 10 877 \;;
#X scalar 1004-point 30 10 777 \;;
#X scalar 1004-point 40 10 766 \;;
#X scalar 1004-point 50 10 666 \;;
#X scalar 1004-point 60 10 655 \;;
#X scalar 1004-point 70 10 555 \;;
#X scalar 1004-point 80 10 544 \;;
#X scalar 1004-point 90 10 444 \;;
#X scalar 1004-point 100 10 333 \;;
#X scalar 1004-point 110 10 333 \;;
#X scalar 1004-point 120 10 222 \;;
#X scalar 1004-point 130 10 222 \;;
#X scalar 1004-point 140 10 111 \;;
#X scalar 1004-point 150 10 110 \;;
#X scalar 1004-point 0 20 988 \;;
#X scalar 1004-point 10 20 877 \;;
#X scalar 1004-point 20 20 877 \;;
#X scalar 1004-point 30 20 766 \;;
#X scalar 1004-point 40 20 766 \;;
#X scalar 1004-point 50 20 655 \;;
#X scalar 1004-point 60 20 655 \;;
#X scalar 1004-point 70 20 544 \;;
#X scalar 1004-point 80 20 544 \;;
#X scalar 1004-point 90 20 433 \;;
#X scalar 1004-point 100 20 333 \;;
#X scalar 1004-point 110 20 322 \;;
#X scalar 1004-point 120 20 222 \;;
#X scalar 1004-point 130 20 211 \;;
#X scalar 1004-point 140 20 111 \;;
#X scalar 1004-point 150 20 100 \;;
#X scalar 1004-point 0 30 977 \;;
#X scalar 1004-point 10 30 877 \;;
#X scalar 1004-point 20 30 866 \;;
#X scalar 1004-point 30 30 766 \;;
#X scalar 1004-point 40 30 765 \;;
#X scalar 1004-point 50 30 655 \;;
#X scalar 1004-point 60 30 655 \;;
#X scalar 1004-point 70 30 544 \;;
#X scalar 1004-point 80 30 544 \;;
#X scalar 1004-point 90 30 433 \;;
#X scalar 1004-point 100 30 333 \;;
#X scalar 1004-point 110 30 322 \;;
#X scalar 1004-point 120 30 222 \;;
#X scalar 1004-point 130 30 211 \;;
#X scalar 1004-point 140 30 111 \;;
#X scalar 1004-point 150 30 100 \;;
#X scalar 1004-point 0 40 977 \;;
#X scalar 1004-point 10 40 866 \;;
#X scalar 1004-point 20 40 866 \;;
#X scalar 1004-point 30 40 765 \;;
#X scalar 1004-point 40 40 755 \;;
#X scalar 1004-point 50 40 655 \;;
#X scalar 1004-point 60 40 644 \;;
#X scalar 1004-point 70 40 544 \;;
#X scalar 1004-point 80 40 533 \;;
#X scalar 1004-point 90 40 433 \;;
#X scalar 1004-point 100 40 333 \;;
#X scalar 1004-point 110 40 322 \;;
#X scalar 1004-point 120 40 222 \;;
#X scalar 1004-point 130 40 211 \;;
#X scalar 1004-point 140 40 111 \;;
#X scalar 1004-point 150 40 100 \;;
#X scalar 1004-point 0 50 966 \;;
#X scalar 1004-point 10 50 866 \;;
#X scalar 1004-point 20 50 855 \;;
#X scalar 1004-point 30 50 755 \;;
#X scalar 1004-point 40 50 755 \;;
#X scalar 1004-point 50 50 644 \;;
#X scalar 1004-point 60 50 644 \;;
#X scalar 1004-point 70 50 533 \;;
#X scalar 1004-point 80 50 533 \;;
#X scalar 1004-point 90 50 433 \;;
#X scalar 1004-point 100 50 322 \;;
#X scalar 1004-point 110 50 322 \;;
#X scalar 1004-point 120 50 222 \;;
#X scalar 1004-point 130 50 211 \;;
#X scalar 1004-point 140 50 111 \;;
#X scalar 1004-point 150 50 100 \;;
#X scalar 1004-point 0 60 966 \;;
#X scalar 1004-point 10 60 855 \;;
#X scalar 1004-point 20 60 855 \;;
#X scalar 1004-point 30 60 755 \;;
#X scalar 1004-point 40 60 744 \;;
#X scalar 1004-point 50 60 644 \;;
#X scalar 1004-point 60 60 643 \;;
#X scalar 1004-point 70 60 533 \;;
#X scalar 1004-point 80 60 533 \;;
#X scalar 1004-point 90 60 432 \;;
#X scalar 1004-point 100 60 322 \;;
#X scalar 1004-point 110 60 322 \;;
#X scalar 1004-point 120 60 211 \;;
#X scalar 1004-point 130 60 211 \;;
#X scalar 1004-point 140 60 111 \;;
#X scalar 1004-point 150 60 100 \;;
#X scalar 1004-point 0 70 955 \;;
#X scalar 1004-point 10 70 855 \;;
#X scalar 1004-point 20 70 854 \;;
#X scalar 1004-point 30 70 744 \;;
#X scalar 1004-point 40 70 744 \;;
#X scalar 1004-point 50 70 643 \;;
#X scalar 1004-point 60 70 633 \;;
#X scalar 1004-point 70 70 533 \;;
#X scalar 1004-point 80 70 533 \;;
#X scalar 1004-point 90 70 422 \;;
#X scalar 1004-point 100 70 322 \;;
#X scalar 1004-point 110 70 322 \;;
#X scalar 1004-point 120 70 211 \;;
#X scalar 1004-point 130 70 211 \;;
#X scalar 1004-point 140 70 111 \;;
#X scalar 1004-point 150 70 100 \;;
#X scalar 1004-point 0 80 954 \;;
#X scalar 1004-point 10 80 844 \;;
#X scalar 1004-point 20 80 844 \;;
#X scalar 1004-point 30 80 744 \;;
#X scalar 1004-point 40 80 733 \;;
#X scalar 1004-point 50 80 633 \;;
#X scalar 1004-point 60 80 633 \;;
#X scalar 1004-point 70 80 533 \;;
#X scalar 1004-point 80 80 522 \;;
#X scalar 1004-point 90 80 422 \;;
#X scalar 1004-point 100 80 322 \;;
#X scalar 1004-point 110 80 311 \;;
#X scalar 1004-point 120 80 211 \;;
#X scalar 1004-point 130 80 211 \;;
#X scalar 1004-point 140 80 111 \;;
#X scalar 1004-point 150 80 100 \;;
#X scalar 1004-point 0 90 944 \;;
#X scalar 1004-point 10 90 844 \;;
#X scalar 1004-point 20 90 843 \;;
#X scalar 1004-point 30 90 733 \;;
#X scalar 1004-point 40 90 733 \;;
#X scalar 1004-point 50 90 633 \;;
#X scalar 1004-point 60 90 632 \;;
#X scalar 1004-point 70 90 522 \;;
#X scalar 1004-point 80 90 522 \;;
#X scalar 1004-point 90 90 422 \;;
#X scalar 1004-point 100 90 321 \;;
#X scalar 1004-point 110 90 311 \;;
#X scalar 1004-point 120 90 211 \;;
#X scalar 1004-point 130 90 211 \;;
#X scalar 1004-point 140 90 100 \;;
#X scalar 1004-point 150 90 100 \;;
#X scalar 1004-point 0 100 943 \;;
#X scalar 1004-point 10 100 833 \;;
#X scalar 1004-point 20 100 833 \;;
#X scalar 1004-point 30 100 733 \;;
#X scalar 1004-point 40 100 733 \;;
#X scalar 1004-point 50 100 622 \;;
#X scalar 1004-point 60 100 622 \;;
#X scalar 1004-point 70 100 522 \;;
#X scalar 1004-point 80 100 522 \;;
#X scalar 1004-point 90 100 421 \;;
#X scalar 1004-point 100 100 311 \;;
#X scalar 1004-point 110 100 311 \;;
#X scalar 1004-point 120 100 211 \;;
#X scalar 1004-point 130 100 211 \;;
#X scalar 1004-point 140 100 100 \;;
#X scalar 1004-point 150 100 100 \;;
#X scalar 1004-point 0 110 933 \;;
#X scalar 1004-point 10 110 833 \;;
#X scalar 1004-point 20 110 832 \;;
#X scalar 1004-point 30 110 722 \;;
#X scalar 1004-point 40 110 722 \;;
#X scalar 1004-point 50 110 622 \;;
#X scalar 1004-point 60 110 622 \;;
#X scalar 1004-point 70 110 522 \;;
#X scalar 1004-point 80 110 521 \;;
#X scalar 1004-point 90 110 411 \;;
#X scalar 1004-point 100 110 311 \;;
#X scalar 1004-point 110 110 311 \;;
#X scalar 1004-point 120 110 211 \;;
#X scalar 1004-point 130 110 211 \;;
#X scalar 1004-point 140 110 100 \;;
#X scalar 1004-point 150 110 100 \;;
#X scalar 1004-point 0 120 932 \;;
#X scalar 1004-point 10 120 822 \;;
#X scalar 1004-point 20 120 822 \;;
#X scalar 1004-point 30 120 722 \;;
#X scalar 1004-point 40 120 722 \;;
#X scalar 1004-point 50 120 622 \;;
#X scalar 1004-point 60 120 621 \;;
#X scalar 1004-point 70 120 511 \;;
#X scalar 1004-point 80 120 511 \;;
#X scalar 1004-point 90 120 411 \;;
#X scalar 1004-point 100 120 311 \;;
#X scalar 1004-point 110 120 311 \;;
#X scalar 1004-point 120 120 211 \;;
#X scalar 1004-point 130 120 200 \;;
#X scalar 1004-point 140 120 100 \;;
#X scalar 1004-point 150 120 100 \;;
#X scalar 1004-point 0 130 922 \;;
#X scalar 1004-point 10 130 822 \;;
#X scalar 1004-point 20 130 821 \;;
#X scalar 1004-point 30 130 721 \;;
#X scalar 1004-point 40 130 711 \;;
#X scalar 1004-point 50 130 611 \;;
#X scalar 1004-point 60 130 611 \;;
#X scalar 1004-point 70 130 511 \;;
#X scalar 1004-point 80 130 511 \;;
#X scalar 1004-point 90 130 411 \;;
#X scalar 1004-point 100 130 311 \;;
#X scalar 1004-point 110 130 311 \;;
#X scalar 1004-point 120 130 200 \;;
#X scalar 1004-point 130 130 200 \;;
#X scalar 1004-point 140 130 100 \;;
#X scalar 1004-point 150 130 100 \;;
#X scalar 1004-point 0 140 911 \;;
#X scalar 1004-point 10 140 811 \;;
#X scalar 1004-point 20 140 811 \;;
#X scalar 1004-point 30 140 711 \;;
#X scalar 1004-point 40 140 711 \;;
#X scalar 1004-point 50 140 611 \;;
#X scalar 1004-point 60 140 611 \;;
#X scalar 1004-point 70 140 511 \;;
#X scalar 1004-point 80 140 511 \;;
#X scalar 1004-point 90 140 410 \;;
#X scalar 1004-point 100 140 310 \;;
#X scalar 1004-point 110 140 300 \;;
#X scalar 1004-point 120 140 200 \;;
#X scalar 1004-point 130 140 200 \;;
#X scalar 1004-point 140 140 100 \;;
#X scalar 1004-point 150 140 100 \;;
#X scalar 1004-point 0 150 911 \;;
#X scalar 1004-point 10 150 810 \;;
#X scalar 1004-point 20 150 810 \;;
#X scalar 1004-point 30 150 710 \;;
#X scalar 1004-point 40 150 710 \;;
#X scalar 1004-point 50 150 610 \;;
#X scalar 1004-point 60 150 610 \;;
#X scalar 1004-point 70 150 500 \;;
#X scalar 1004-point 80 150 500 \;;
#X scalar 1004-point 90 150 400 \;;
#X scalar 1004-point 100 150 300 \;;
#X scalar 1004-point 110 150 300 \;;
#X scalar 1004-point 120 150 200 \;;
#X scalar 1004-point 130 150 200 \;;
#X scalar 1004-point 140 150 100 \;;
#X scalar 1004-point 150 150 100 \;;
#X coords 0 0 160 160 160 160 2 0 0;
#X restore 48 120 pd \$0-guiWindow;
#X obj 122 493 outlet;
#X obj 110 493 cnv 8 11 17 empty empty 2 2 9 0 14 -1 -262144 0;
#X obj 268 438 cnv 8 11 17 empty empty ▲ 2 9 0 14 -262144 -85153
0;
#X obj 255 438 cnv 8 11 17 empty empty ▲ 2 9 0 14 -262144 -261130
0;
#X obj 256 24 cnv 8 11 17 empty empty ▲ 2 9 0 14 -262144 -261130
0;
#N canvas 0 50 234 178 updateHueSlider 0;
#X msg 36 50 \$1 255 255;
#X msg 36 95 color \$1;
#X obj 36 30 r \$0-Hue;
#X obj 36 117 s \$0-hueSlider;
#X obj 24 30 cnv 8 11 17 empty empty empty 2 9 0 14 -159808 -262144
0;
#X obj 36 73 easyflow/hsb;
#X connect 0 0 5 0;
#X connect 1 0 3 0;
#X connect 2 0 0 0;
#X connect 5 0 1 0;
#X restore 295 462 pd updateHueSlider;
#X obj 328 341 cnv 8 11 17 empty empty empty 2 9 0 14 -159808 -262144
0;
#X obj 280 465 cnv 10 10 17 empty empty ● 1 5 0 15 -262144 -159808
0;
#X obj 271 29 cnv 10 10 17 empty empty ● 1 5 0 15 -262144 -38949
0;
#X obj 239 442 cnv 10 10 17 empty empty ● 1 5 0 15 -262144 -159808
0;
#X obj 743 513 guilla-info;
#X obj 205 365 cnv 8 11 17 empty empty empty 2 9 0 14 -38949 -262144
0;
#X obj 216 365 s \$0-updateColors;
#X obj 216 315 trigger bang float;
#X connect 0 0 11 0;
#X connect 1 0 2 0;
#X connect 2 0 31 0;
#X connect 2 1 21 3;
#X connect 3 1 4 0;
#X connect 4 0 7 0;
#X connect 5 0 32 0;
#X connect 5 1 34 0;
#X connect 5 2 28 0;
#X connect 6 0 35 0;
#X connect 7 0 5 0;
#X connect 8 0 9 0;
#X connect 9 0 51 0;
#X connect 11 0 12 0;
#X connect 12 0 13 0;
#X connect 13 0 14 0;
#X connect 13 1 38 0;
#X connect 20 0 1 0;
#X connect 27 0 21 2;
#X connect 28 0 22 0;
#X connect 31 0 3 0;
#X connect 32 0 33 0;
#X connect 33 0 21 0;
#X connect 34 0 6 0;
#X connect 35 0 21 1;
#X connect 51 0 50 0;
#X connect 51 1 10 0;
#X coords 0 1 1 -1 203 170 2 45 116;
