#N canvas 320 203 430 204 10;
#X text 92 147 created by Henri Augusto Bisognini;
#X text 24 14 Guilla library of abstractions;
#X text 66 132 https://github.com/HenriAugusto/Guilla;
#X text 23 67 See this patch's help file for a list of objects;
