#N struct 15234-point float xPos float yPos float rgb;
#N struct 15236-point float xPos float yPos float rgb;
#N canvas 534 86 639 718 10;
#X floatatom 151 276 5 0 0 0 - - -, f 5;
#X floatatom 244 275 5 0 0 0 - - -, f 5;
#X text 88 204 [pdPad];
#X obj 245 640 dac~;
#X obj 91 373 metro 500;
#X obj 50 289 loadbang;
#X msg 50 311 1;
#X obj 50 333 tgl 15 0 empty empty empty 17 7 0 10 -262144 -1 -1 1
1;
#X obj 91 395 bng 15 250 50 0 empty empty empty 17 7 0 10 -262144 -1
-1;
#X obj 91 437 vline~;
#X msg 91 415 1 20 \, 0 20 20;
#X obj 151 317 + 100;
#X floatatom 151 339 5 0 0 0 - - -, f 5;
#X obj 245 610 *~ 0.3;
#X obj 151 295 * 1;
#X obj 332 450 tgl 15 0 empty empty empty 17 7 0 10 -262144 -1 -1 0
1;
#N canvas 1105 127 606 585 shortNoise 0;
#X obj 191 258 inlet;
#X obj 191 283 tgl 15 0 empty empty empty 17 7 0 10 -262144 -1 -1 0
1;
#X obj 88 340 outlet~;
#X obj 89 285 *~;
#N canvas 0 50 302 317 audioSpigot~ 0;
#X obj 64 32 inlet~;
#X obj 64 229 outlet~;
#X obj 83 82 sel 0 1;
#X msg 83 104 0;
#X msg 112 104 1;
#X obj 83 154 line~;
#X obj 64 197 *~;
#X obj 83 132 pack f 20;
#X obj 83 60 inlet on off;
#X connect 0 0 6 0;
#X connect 2 0 3 0;
#X connect 2 1 4 0;
#X connect 3 0 7 0;
#X connect 4 0 7 0;
#X connect 5 0 6 1;
#X connect 6 0 1 0;
#X connect 7 0 5 0;
#X connect 8 0 2 0;
#X restore 89 311 pd audioSpigot~;
#X floatatom 118 81 5 0 0 0 - - -, f 5;
#X obj 87 162 noise~;
#X obj 118 100 mtof;
#X floatatom 118 122 5 0 0 0 - - -, f 5;
#X obj 88 194 bp~ 100 1;
#X obj 118 59 expr $f1*56/100+40;
#X obj 118 30 inlet;
#X obj 106 247 r~ \$0-env;
#X connect 0 0 1 0;
#X connect 1 0 4 1;
#X connect 3 0 4 0;
#X connect 4 0 2 0;
#X connect 5 0 7 0;
#X connect 6 0 9 0;
#X connect 7 0 8 0;
#X connect 8 0 9 1;
#X connect 9 0 3 0;
#X connect 10 0 5 0;
#X connect 11 0 10 0;
#X connect 12 0 3 1;
#X restore 244 472 pd shortNoise;
#X obj 91 479 s~ \$0-env;
#X obj 440 450 tgl 15 0 empty empty empty 17 7 0 10 -262144 -1 -1 0
1;
#N canvas 1250 127 606 585 osc 0;
#X obj 191 468 inlet;
#X obj 191 493 tgl 15 0 empty empty empty 17 7 0 10 -262144 -1 -1 0
1;
#X obj 88 550 outlet~;
#N canvas 0 50 302 317 audioSpigot~ 0;
#X obj 64 32 inlet~;
#X obj 64 229 outlet~;
#X obj 83 82 sel 0 1;
#X msg 83 104 0;
#X msg 112 104 1;
#X obj 83 154 line~;
#X obj 64 197 *~;
#X obj 83 132 pack f 20;
#X obj 83 60 inlet on off;
#X connect 0 0 6 0;
#X connect 2 0 3 0;
#X connect 2 1 4 0;
#X connect 3 0 7 0;
#X connect 4 0 7 0;
#X connect 5 0 6 1;
#X connect 6 0 1 0;
#X connect 7 0 5 0;
#X connect 8 0 2 0;
#X restore 89 521 pd audioSpigot~;
#X obj 88 30 inlet;
#X obj 88 132 trigger float float float;
#X obj 88 314 mtof;
#X floatatom 88 336 5 0 0 0 - - -, f 5;
#X obj 174 314 mtof;
#X floatatom 174 336 5 0 0 0 - - -, f 5;
#X obj 88 427 *~ 1;
#X obj 260 314 mtof;
#X floatatom 260 336 5 0 0 0 - - -, f 5;
#X obj 88 355 osc~ 440;
#X obj 174 355 osc~ 440;
#X obj 260 355 osc~ 440;
#X obj 196 68 expr $f1*24/100+36;
#X obj 174 289 + 12;
#X obj 260 288 + 19;
#X obj 260 377 *~ 0.33;
#X obj 174 377 *~ 1;
#X obj 88 377 *~ 0.69;
#X obj 155 183 inlet;
#X obj 155 205 trigger float float;
#X obj 285 239 * 2;
#X obj 75 30 cnv 11 12 17 empty \$0-canvas 1 2 9 0 14 -1 -262144 0
;
#X obj 142 183 cnv 11 12 17 empty \$0-canvas 2 2 9 0 14 -1 -262144
0;
#X obj 178 468 cnv 11 12 17 empty \$0-canvas 3 2 9 0 14 -1 -262144
0;
#X obj 89 495 *~ 0.2;
#X floatatom 285 261 5 0 0 0 - - -, f 5;
#X floatatom 199 263 5 0 0 0 - - -, f 5;
#N canvas 0 50 453 340 scale 0;
#X obj 55 34 inlet;
#X obj 55 286 outlet;
#X obj 55 126 mod 7;
#X floatatom 55 148 5 0 0 0 - - -, f 5;
#X obj 55 56 trigger float float, f 39;
#X obj 55 197 easyflow/listpick;
#X obj 171 119 loadbang;
#X obj 171 141 bng 15 250 50 0 empty empty empty 17 7 0 10 -262144
-1 -1;
#X obj 55 167 + 1;
#X floatatom 55 219 5 0 0 0 - - -, f 5;
#X obj 325 155 div 7;
#X floatatom 325 177 5 0 0 0 - - -, f 5;
#X obj 325 196 * 12;
#X floatatom 325 218 5 0 0 0 - - -, f 5;
#X obj 325 128 i;
#X obj 55 100 i;
#X obj 55 238 +;
#X obj 325 106 / 5;
#X obj 55 78 / 5;
#X obj 55 260 + 48;
#X msg 171 163 0 2 4 5 7 9 11;
#X connect 0 0 4 0;
#X connect 2 0 3 0;
#X connect 3 0 8 0;
#X connect 4 0 18 0;
#X connect 4 1 17 0;
#X connect 5 0 9 0;
#X connect 6 0 7 0;
#X connect 7 0 20 0;
#X connect 8 0 5 0;
#X connect 9 0 16 0;
#X connect 10 0 11 0;
#X connect 11 0 12 0;
#X connect 12 0 13 0;
#X connect 13 0 16 1;
#X connect 14 0 10 0;
#X connect 15 0 2 0;
#X connect 16 0 19 0;
#X connect 17 0 14 0;
#X connect 18 0 15 0;
#X connect 19 0 1 0;
#X connect 20 0 5 1;
#X restore 88 86 pd scale;
#X connect 0 0 1 0;
#X connect 1 0 3 1;
#X connect 3 0 2 0;
#X connect 4 0 31 0;
#X connect 5 0 6 0;
#X connect 5 1 17 0;
#X connect 5 2 18 0;
#X connect 6 0 7 0;
#X connect 7 0 13 0;
#X connect 8 0 9 0;
#X connect 9 0 14 0;
#X connect 10 0 28 0;
#X connect 11 0 12 0;
#X connect 12 0 15 0;
#X connect 13 0 21 0;
#X connect 14 0 20 0;
#X connect 15 0 19 0;
#X connect 17 0 8 0;
#X connect 18 0 11 0;
#X connect 19 0 10 0;
#X connect 20 0 10 0;
#X connect 21 0 10 0;
#X connect 22 0 23 0;
#X connect 23 0 30 0;
#X connect 23 1 24 0;
#X connect 24 0 29 0;
#X connect 28 0 3 0;
#X connect 29 0 18 1;
#X connect 30 0 17 1;
#X connect 31 0 5 0;
#X restore 401 472 pd osc;
#X obj 474 663 guilla-info;
#X text 66 29 [pdPad] is a dragable pad. It outputs values from 0 to
100 both for the X and Y coordinates of the dragable point.;
#X obj 314 596 hsl 128 15 0 0.8 0 0 empty empty master -2 -8 0 10 -262144
-1 -1 0 1;
#X floatatom 311 616 5 0 0 0 - - -, f 5;
#X floatatom 401 276 5 0 0 0 - - -, f 5;
#X floatatom 494 275 5 0 0 0 - - -, f 5;
#X obj 494 294 expr $f1*12/100;
#X floatatom 494 316 5 0 0 0 - - -, f 5;
#X obj 401 159 pdPad;
#X obj 401 95 tgl 15 0 empty empty empty 17 7 0 10 -262144 -1 -1 0
1;
#N canvas 0 50 530 427 modulation 0;
#X obj 64 78 bng 15 250 50 0 empty empty empty 17 7 0 10 -262144 -1
-1;
#X obj 64 56 metro 100;
#X floatatom 64 202 5 0 0 0 - - -, f 5;
#X obj 64 120 easyflow/Counter;
#X obj 64 221 * 50;
#X obj 64 243 + 50;
#X obj 64 28 inlet;
#X obj 64 393 outlet;
#X obj 64 142 trigger float float, f 30;
#X obj 64 180 expr cos($f1/2);
#X floatatom 271 202 5 0 0 0 - - -, f 5;
#X obj 64 265 pack float float;
#X msg 64 371 set \$1 \$2;
#X obj 271 180 expr sin($f1/15);
#X obj 271 221 * 5;
#X obj 271 243 + 5;
#X connect 0 0 3 0;
#X connect 1 0 0 0;
#X connect 2 0 4 0;
#X connect 3 0 8 0;
#X connect 4 0 5 0;
#X connect 5 0 11 0;
#X connect 6 0 1 0;
#X connect 8 0 9 0;
#X connect 8 1 13 0;
#X connect 9 0 2 0;
#X connect 10 0 14 0;
#X connect 11 0 12 0;
#X connect 12 0 7 0;
#X connect 13 0 10 0;
#X connect 14 0 15 0;
#X connect 15 0 11 1;
#X restore 401 118 pd modulation;
#X obj 151 161 pdPad;
#X obj 151 95 tgl 15 0 empty empty empty 17 7 0 10 -262144 -1 -1 0
1;
#N canvas 0 50 530 427 modulation 0;
#X obj 64 78 bng 15 250 50 0 empty empty empty 17 7 0 10 -262144 -1
-1;
#X obj 64 56 metro 100;
#X floatatom 64 202 5 0 0 0 - - -, f 5;
#X obj 64 120 easyflow/Counter;
#X obj 64 221 * 50;
#X obj 64 243 + 50;
#X obj 64 28 inlet;
#X obj 64 393 outlet;
#X obj 64 142 trigger float float, f 30;
#X obj 64 180 expr cos($f1/2);
#X floatatom 271 202 5 0 0 0 - - -, f 5;
#X obj 64 265 pack float float;
#X msg 64 371 set \$1 \$2;
#X obj 271 180 expr sin($f1/2);
#X obj 271 221 * 50;
#X obj 271 243 + 50;
#X connect 0 0 3 0;
#X connect 1 0 0 0;
#X connect 2 0 4 0;
#X connect 3 0 8 0;
#X connect 4 0 5 0;
#X connect 5 0 11 0;
#X connect 6 0 1 0;
#X connect 8 0 9 0;
#X connect 8 1 13 0;
#X connect 9 0 2 0;
#X connect 10 0 14 0;
#X connect 11 0 12 0;
#X connect 12 0 7 0;
#X connect 13 0 10 0;
#X connect 14 0 15 0;
#X connect 15 0 11 1;
#X restore 151 118 pd modulation;
#X connect 0 0 14 0;
#X connect 1 0 16 0;
#X connect 4 0 8 0;
#X connect 5 0 6 0;
#X connect 6 0 7 0;
#X connect 7 0 4 0;
#X connect 8 0 10 0;
#X connect 9 0 17 0;
#X connect 10 0 9 0;
#X connect 11 0 12 0;
#X connect 12 0 4 1;
#X connect 13 0 3 0;
#X connect 13 0 3 1;
#X connect 14 0 11 0;
#X connect 15 0 16 1;
#X connect 16 0 13 0;
#X connect 18 0 19 2;
#X connect 19 0 13 0;
#X connect 22 0 23 0;
#X connect 23 0 13 1;
#X connect 24 0 19 0;
#X connect 25 0 26 0;
#X connect 26 0 27 0;
#X connect 27 0 19 1;
#X connect 28 0 24 0;
#X connect 28 1 25 0;
#X connect 29 0 30 0;
#X connect 30 0 28 0;
#X connect 31 0 0 0;
#X connect 31 1 1 0;
#X connect 32 0 33 0;
#X connect 33 0 31 0;
#X coords 0 0 1 1 85 60 0;
