#N canvas 448 78 817 820 10;
#X obj 5 5 cnv 15 800 40 empty empty my_grainer~_tutorial:_07_-_glissandis
3 12 0 18 -204280 -1 0;
#X obj 5 50 cnv 10 800 100 empty empty empty 8 12 0 13 -228856 -1 0
;
#X obj 5 675 cnv 3 800 3 empty empty empty 8 12 0 13 -228856 -1 0;
#X obj 515 28 pddplink http://puredata.info/Members/pdiliscia/grainer/
;
#X text 797 29 );
#X text 5 28 A guide to manage granular synthesis through my_grainer~
;
#X text 346 28 (external by O.P. Di Liscia;
#X obj 6 710 cnv 15 800 50 empty empty empty 3 12 0 18 -203904 -1 0
;
#X obj 6 765 cnv 15 800 40 empty empty empty 3 12 0 18 -203904 -1 0
;
#X text 204 783 (Consejo Nacional de Investigaciones Científicas y
Técnicas);
#X text 158 783 CONICET;
#X text 569 783 + UNQ (Universidad Nacional de Quilmes);
#X obj 551 767 pddplink http://puredata.info/author/damiananache/;
#X text 364 710 that is being developed by Oscar Pablo Di Liscia with
the;
#X text 712 710 collaboration;
#X text 10 710 my_grainer~ is a Pure Data external for granular synthesis
of Damián Anache and Esteban Calcagno as part of the;
#X text 323 723 research program "Sistemas Temporales y de Sintesis
;
#X text 640 723 Espacial en el Arte Sonoro";
#X text 10 737 (Universidad Nacional de Quilmes \, 2015-2019).;
#X text 236 767 mGT (my_grainer~ tutorial) by Damian Anache - 2016
(;
#N canvas 111 136 1121 746 setup 0;
#N canvas 0 0 450 300 (subpatch) 0;
#X array \$0-envelope 121 float 0;
#X coords 0 1 120 0 250 50 1 0 0;
#X restore 276 277 graph;
#X obj 303 187 soundfiler;
#X obj 276 107 loadbang;
#X obj 276 227 s \$0-mess;
#X text 274 79 Grain Envelope;
#X text 472 21 my_grainer's initial setup;
#X obj 276 127 f \$0;
#X msg 303 167 read -resize envelopes/01-gaussian.wav \$1-envelope
;
#X msg 276 207 atab \$1-envelope;
#X obj 276 147 t f f;
#X obj 991 72 r \$0-reset;
#X obj 991 109 bng 15 250 50 0 empty empty empty 17 7 0 10 -262144
-1 -1;
#X text 472 37 **************************;
#X text 713 81 Grain Waveform;
#N canvas 313 469 995 336 grainWaveform 0;
#X text 797 71 table selection;
#X obj 779 238 s \$0-mess;
#X obj 779 218 prepend usegtn;
#X obj 779 197 r gtable-ctrl-GUIout;
#X obj 68 18 inlet;
#X obj 84 214 soundfiler;
#X obj 508 208 prepend gtab;
#X obj 508 228 s \$0-mess;
#X text 215 69 loading files in tables;
#X text 505 69 loading tables in my_grainer;
#X obj 68 63 f \$0;
#X msg 95 170 read -resize audioFiles/female-speech.wav \$1-female-voice
;
#X obj 68 83 t f f f f f;
#X obj 134 48 bng 15 250 50 0 empty empty empty 17 7 0 10 -262144 -1
-1;
#X msg 514 164 \$1-female-voice;
#X obj 68 147 t f f;
#X obj 83 106 t f f;
#X msg 110 131 read -resize audioFiles/sine1hz1sec.wav \$1-sine;
#X msg 525 123 \$1-sine;
#X obj 779 177 s gtable-ctrl-GUIin;
#X msg 779 157 0;
#X obj 779 114 loadbang;
#X obj 779 136 del 2;
#X obj 779 34 inlet;
#X connect 2 0 1 0;
#X connect 3 0 2 0;
#X connect 4 0 10 0;
#X connect 6 0 7 0;
#X connect 10 0 12 0;
#X connect 11 0 5 0;
#X connect 12 0 15 0;
#X connect 12 1 16 0;
#X connect 13 0 10 0;
#X connect 14 0 6 0;
#X connect 15 0 14 0;
#X connect 15 1 11 0;
#X connect 16 0 18 0;
#X connect 16 1 17 0;
#X connect 17 0 5 0;
#X connect 18 0 6 0;
#X connect 20 0 19 0;
#X connect 21 0 22 0;
#X connect 22 0 20 0;
#X connect 23 0 21 0;
#X restore 707 124 pd grainWaveform;
#X text 393 388 SIZE;
#X text 485 388 INCR;
#X text 582 388 START;
#X text 780 388 AMP;
#X text 522 400 rnd dev;
#X text 331 400 rnd dev;
#X text 297 388 GAP;
#X text 290 400 (secs);
#X text 389 400 (secs);
#X text 427 400 rnd dev;
#X text 478 400 (ref:1);
#X text 579 400 (ini:0);
#X text 623 400 rnd dev;
#X text 775 400 (0-1);
#X text 811 400 rnd dev;
#X text 675 400 (ini:0);
#X text 719 400 rnd dev;
#X text 678 388 END;
#X obj 991 405 loadbang;
#X msg 343 422 gar 0;
#X msg 439 422 gsr 0;
#X msg 485 422 gf 1;
#X msg 529 422 gfr 0;
#X msg 585 422 gst 0;
#X msg 631 422 gstr 0;
#X msg 727 422 genr 0;
#X msg 777 422 ag 1;
#X msg 821 422 agr 0;
#X obj 999 439 s \$0-mess;
#X msg 276 638 gf \$1;
#X floatatom 276 616 5 0 0 0 - - -;
#X msg 494 638 ga \$1;
#X msg 385 638 gs \$1;
#X floatatom 385 616 5 0 0 0 - - -;
#X floatatom 494 616 5 0 0 0 - - -;
#X obj 494 575 r \$0-gapGUIout;
#X obj 385 575 r \$0-sizeGUIout;
#X obj 276 575 r \$0-incrGUIout;
#X obj 276 554 s \$0-incrGUIin;
#X obj 385 554 s \$0-sizeGUIin;
#X obj 494 554 s \$0-gapGUIin;
#X obj 1026 499 loadbang;
#X obj 991 516 del 1;
#X text 524 356 my_grainer initial values;
#X text 598 501 GUI setup;
#X msg 385 533 0.25;
#X msg 494 533 0.3;
#X msg 604 533 1;
#X msg 604 638 ag \$1;
#X obj 604 554 s \$0-ampGUIin;
#X obj 604 574 r \$0-ampGUIout;
#X floatatom 604 617 5 0 0 0 - - -;
#X msg 386 422 gs 0.25;
#X msg 295 422 ga 0.3;
#X msg 681 422 gen 0;
#X obj 991 495 b;
#X obj 1005 655 s \$0-mess;
#X floatatom 726 617 5 0 0 0 - - -;
#X floatatom 836 617 5 0 0 0 - - -;
#X obj 726 554 s \$0-glissGUIin;
#X obj 726 574 r \$0-glissGUIout;
#X obj 836 554 s \$0-gliss_rndGUIin;
#X obj 836 574 r \$0-gliss_rndGUIout;
#X obj 726 596 mousefilter;
#X obj 836 596 mousefilter;
#X msg 726 533 1.5;
#X msg 836 533 1;
#X msg 92 164 start;
#X msg 49 163 stop;
#X obj 49 187 s \$0-mess;
#X obj 49 122 tgl 15 0 empty empty empty 17 7 0 10 -262144 -1 -1 0
1;
#X obj 92 142 sel 1;
#X obj 49 142 sel 0;
#X text 49 79 Start / Stop;
#X obj 49 100 r \$0-StartStop-GUIout;
#X obj 50 415 r \$0-print;
#X msg 50 436 print;
#X obj 50 457 s \$0-mess;
#X text 49 395 Print;
#X obj 49 230 r \$0-pause-GUIout;
#X msg 49 252 pause \$1;
#X obj 49 274 s \$0-mess;
#X text 48 210 Pause;
#X obj 49 368 s \$0-mess;
#X msg 49 346 post_ctrl \$1;
#X obj 49 324 r \$0-postCtrl-GUIout;
#X text 48 302 Post Control;
#X obj 49 525 f \$0;
#X obj 49 503 loadbang;
#X msg 49 547 \; \$1-postCtrl-GUIin 1 \; \$1-StartStop-GUIin 0 \;;
#X text 44 32 General Purpose Messages;
#X text 44 45 ************************;
#X obj 49 707 outlet;
#X obj 49 684 r \$0-mess;
#X obj 218 33 cnv 1 1 700 empty empty empty 20 12 0 14 -228856 -66577
0;
#X msg 276 533 1;
#X msg 726 638 gli \$1;
#X msg 836 638 glir \$1;
#X connect 2 0 6 0;
#X connect 2 0 14 0;
#X connect 6 0 9 0;
#X connect 7 0 1 0;
#X connect 8 0 3 0;
#X connect 9 0 8 0;
#X connect 9 1 7 0;
#X connect 10 0 11 0;
#X connect 11 0 33 0;
#X connect 11 0 70 0;
#X connect 11 0 14 1;
#X connect 33 0 68 0;
#X connect 33 0 34 0;
#X connect 33 0 67 0;
#X connect 33 0 35 0;
#X connect 33 0 36 0;
#X connect 33 0 37 0;
#X connect 33 0 38 0;
#X connect 33 0 39 0;
#X connect 33 0 69 0;
#X connect 33 0 40 0;
#X connect 33 0 41 0;
#X connect 33 0 42 0;
#X connect 34 0 43 0;
#X connect 35 0 43 0;
#X connect 36 0 43 0;
#X connect 37 0 43 0;
#X connect 38 0 43 0;
#X connect 39 0 43 0;
#X connect 40 0 43 0;
#X connect 41 0 43 0;
#X connect 42 0 43 0;
#X connect 44 0 71 0;
#X connect 45 0 44 0;
#X connect 46 0 71 0;
#X connect 47 0 71 0;
#X connect 48 0 47 0;
#X connect 49 0 46 0;
#X connect 50 0 49 0;
#X connect 51 0 48 0;
#X connect 52 0 45 0;
#X connect 56 0 57 0;
#X connect 57 0 110 0;
#X connect 57 0 60 0;
#X connect 57 0 61 0;
#X connect 57 0 62 0;
#X connect 57 0 81 0;
#X connect 57 0 80 0;
#X connect 60 0 54 0;
#X connect 61 0 55 0;
#X connect 62 0 64 0;
#X connect 63 0 71 0;
#X connect 65 0 66 0;
#X connect 66 0 63 0;
#X connect 67 0 43 0;
#X connect 68 0 43 0;
#X connect 69 0 43 0;
#X connect 70 0 57 0;
#X connect 72 0 111 0;
#X connect 73 0 112 0;
#X connect 75 0 78 0;
#X connect 77 0 79 0;
#X connect 78 0 72 0;
#X connect 79 0 73 0;
#X connect 80 0 74 0;
#X connect 81 0 76 0;
#X connect 82 0 84 0;
#X connect 83 0 84 0;
#X connect 85 0 86 0;
#X connect 85 0 87 0;
#X connect 86 0 82 0;
#X connect 87 0 83 0;
#X connect 89 0 85 0;
#X connect 90 0 91 0;
#X connect 91 0 92 0;
#X connect 94 0 95 0;
#X connect 95 0 96 0;
#X connect 99 0 98 0;
#X connect 100 0 99 0;
#X connect 102 0 104 0;
#X connect 103 0 102 0;
#X connect 108 0 107 0;
#X connect 110 0 53 0;
#X connect 111 0 71 0;
#X connect 112 0 71 0;
#X restore 123 188 pd setup;
#X obj 122 283 output~;
#X text 798 767 );
#X obj 284 399 vradio 35 1 0 2 gtable-ctrl-GUIout gtable-ctrl-GUIin
empty 0 -8 0 10 -262144 -1 -1 0;
#N canvas 0 0 450 300 (subpatch) 0;
#X array \$0-sine 44100 float 2;
#X coords 0 1 44100 -1 200 20 1 0 0;
#X restore 81 407 graph;
#N canvas 0 0 450 300 (subpatch) 0;
#X array \$0-female-voice 160087 float 2;
#X coords 0 1 160087 -1 200 20 1 0 0;
#X restore 81 442 graph;
#N canvas 777 183 534 419 INCRadjustment 0;
#X text 75 59 1hz sine needs at least "20" as value for my_grainer's
INCR;
#X text 115 73 meanwhile recorded voice works normal at INCR = 1;
#X msg 337 241 1;
#X msg 214 191 range 20 4000;
#X msg 187 241 440;
#X obj 35 134 r gtable-ctrl-GUIout;
#X obj 187 151 sel 0;
#X obj 337 151 sel 1;
#X obj 337 171 t b b;
#X obj 187 171 t b b;
#X msg 364 191 range 0 2;
#X obj 214 258 s;
#X obj 469 201 any;
#X obj 229 238 tosymbol;
#X obj 364 258 s;
#X obj 379 238 tosymbol;
#X obj 469 126 loadbang;
#X obj 469 148 f \$0;
#X msg 229 218 \$1-incrGUIin;
#X msg 379 218 \$1-incrGUIin;
#X connect 2 0 14 0;
#X connect 3 0 11 0;
#X connect 4 0 11 0;
#X connect 5 0 6 0;
#X connect 5 0 7 0;
#X connect 6 0 9 0;
#X connect 7 0 8 0;
#X connect 8 0 2 0;
#X connect 8 1 10 0;
#X connect 9 0 4 0;
#X connect 9 1 3 0;
#X connect 10 0 14 0;
#X connect 12 0 18 0;
#X connect 12 0 19 0;
#X connect 13 0 11 1;
#X connect 15 0 14 1;
#X connect 16 0 17 0;
#X connect 17 0 12 0;
#X connect 18 0 13 0;
#X connect 19 0 15 0;
#X restore 699 684 pd INCRadjustment;
#X obj 39 270 s~ \$0-output;
#X obj 430 358 r~ \$0-output;
#X text 79 561 INCR;
#X text 81 521 SIZE;
#X text 84 541 GAP;
#X obj 118 544 hsl 128 15 0.02 2 1 0 \$0-gapGUIout \$0-gapGUIin empty
-2 -8 0 10 -262144 -1 -1 7468 1;
#X obj 118 524 hsl 128 15 0.02 2 1 0 \$0-sizeGUIout \$0-sizeGUIin empty
-2 -8 0 10 -262144 -1 -1 6965 1;
#X obj 118 564 hsl 128 15 20 4000 0 0 \$0-incrGUIout \$0-incrGUIin
empty -2 -8 0 10 -262144 -1 -1 1340 1;
#X floatatom 252 543 5 0 0 0 - #0-gapGUIout -;
#X floatatom 252 523 5 0 0 0 - #0-sizeGUIout -;
#X floatatom 252 563 5 0 0 0 - #0-incrGUIout -;
#X obj 118 584 hsl 128 15 0.02 2 1 0 \$0-ampGUIout \$0-ampGUIin empty
-2 -8 0 10 -262144 -1 -1 10788 1;
#X floatatom 252 584 5 0 0 0 - #0-ampGUIout -;
#X text 83 582 AMP;
#X text 141 503 GRAIN PARAMETERS;
#X obj 542 227 hsl 128 15 0 2 0 0 \$0-glissGUIout \$0-glissGUIin empty
-2 -8 0 10 -262144 -1 -1 9525 1;
#X floatatom 676 226 5 0 0 0 - #0-glissGUIout -;
#X text 465 224 GLISSANDIS;
#X obj 542 250 hsl 128 15 0 2 0 0 \$0-gliss_rndGUIout \$0-gliss_rndGUIin
empty -2 -8 0 10 -262144 -1 -1 6350 1;
#X floatatom 676 249 5 0 0 0 - #0-gliss_rndGUIout -;
#X text 470 242 Deviation;
#X text 470 254 (random );
#X obj 123 254 my_grainer~ 1;
#X obj 215 228 bng 15 250 50 0 \$0-reset empty Reset 17 7 0 10 -262144
-1 -1;
#X obj 299 188 tgl 15 0 \$0-pause-GUIout \$0-pause-GUIin Pause 17 7
0 10 -262144 -1 -1 0 1;
#X obj 299 208 bng 15 250 50 0 \$0-print empty Print 17 7 0 10 -262144
-1 -1;
#X obj 215 188 tgl 15 0 \$0-StartStop-GUIout \$0-StartStop-GUIin Start/Stop
17 7 0 10 -262144 -1 -1 0 1;
#X obj 215 208 tgl 15 0 \$0-postCtrl-GUIout \$0-postCtrl-GUIin Post_Ctrl
17 7 0 10 -262144 -1 -1 1 1;
#X obj 430 379 extraFiles/mGT-extraFiles-04-audio_visualizer;
#X text 428 59 glir (float): grain increment random deviation of the
audio table at the end \, default=0. (only positive values are allowed)
;
#X text 40 57 gli (float): grain read increment of the audio table
at the end of the grain duration (affects the frequency of the signal
in the grain as a glissando). Default=1 \, means no increment \, higher
values (float > 1) means upward glissandis \, lower values (float <
1) means downward. (only positive values are allowed).;
#X text 427 105 N.B: The glissando of each grain will be: gli + birand(glir)
;
#X connect 20 0 49 0;
#X connect 28 0 55 0;
#X connect 49 0 27 0;
#X connect 49 0 21 0;
#X connect 49 0 21 1;
#X coords 0 820 1 819 85 60 0;
