#N canvas 361 37 383 568 10;
#N canvas 608 166 249 182 ARGOnOff 0;
#X obj 100 100 tgl 18 1 \$0-SendOnOff \$0-ReceiveOnOff On/Off 20 9
0 12 -4033 -1 -1 1 1;
#X obj 99 39 loadbang;
#X msg 99 62 \; pd dsp 1;
#X obj 100 129 outlet;
#X connect 0 0 3 0;
#X connect 1 0 2 0;
#X coords 0 -1 1 1 65 18 2 100 100;
#X restore 192 0 pd ARGOnOff;
#X obj 192 25 switch~;
#X obj -3 -80 cnv 15 15 15 empty empty ExMM51e-PDP-Video-ieee-Convert-MacOSX.pd
0 8 1 14 -262144 -1 0;
#X text 23 -51 en USB \, Firewire..;
#X text 11 -64 1 Connecter une camera a l'ordinateur;
#X text 11 -34 2 Lancer Pd-0.40.3-extended;
#X text 11 -17 3 Ouvrir ce patch;
#X text 25 288 - Sous MacOSX l'application X11 \, une fenêtre xterm
et une fenêtre pdp s'ouvrent...;
#X text 16 324 7 Clic PDPWindow Off;
#X text 16 340 8 Clic Capture Off;
#X text 10 371 10 Fermer ce patch;
#X text 26 420 - Fermer le patch;
#X text 26 434 - Quitter PureData;
#X text 26 449 - Relancer PureData;
#X text 26 463 - Reouvrir ce patch;
#X text 11 405 (message pdp_ieee1394: grabber initialization failed)
;
#X text 12 72 5 Clic Capture On ---->;
#X text 12 211 6 Clic PDPWindow On -->;
#X text 61 263 ... attendre;
#X text 11 391 ATTENTION si l'image n'apparait pas:;
#X text 16 356 9 Clic Off de ce patch;
#N canvas 413 140 400 248 ARGO 0;
#X obj 101 101 cnv 10 81 41 \$0-A \$0-B empty 20 12 0 14 -128992 -1
1.04858e+06;
#X obj 101 104 cnv 10 20 10 empty ColorGEM PDP-Control 1 5 1 14 -128992
-1 1.04858e+06;
#X obj 207 161 cnv 15 60 30 empty empty empty 20 12 0 14 -24198 -66577
0;
#N canvas 590 196 410 312 Help 0;
#X obj 6 322 cnv 15 400 230 empty empty empty 20 12 0 14 -224896 -66577
0;
#X obj 6 7 cnv 15 400 310 empty empty empty 20 12 0 14 -233017 -66577
0;
#X text 9 6 Citation;
#X text 15 23 pdp_glx ouputs video in a window using the openGL extension
on an X11 window system. if a pdp message is received and a window
is not open \, one is created automaticly.;
#X restore 214 168 pd Help;
#X obj 20 20 cnv 15 340 30 empty empty empty 20 12 0 14 -258113 -66577
0;
#X text 24 26 Ne fonctionne pas sous Windows;
#X obj 122 120 tgl 12 1 \$0-A \$0-B Thread 15 7 1 9 -262144 -1 -1 0
1;
#X obj 122 182 pdp_control;
#X msg 122 155 thread \$1;
#X text 186 97 17 2 2009;
#X text 187 117 switch thread processing on or of;
#X text 42 220 pdp_control: fine tune the pdp system. (threads & memory).
;
#X connect 6 0 8 0;
#X connect 8 0 7 0;
#X coords 0 -1 1 1 83 43 1 100 100;
#X restore 257 -59 pd ARGO;
#N canvas 320 164 399 343 ARGO 0;
#X obj 101 101 cnv 10 150 41 \$0-A \$0-B empty 20 12 0 14 -128992 -1
1.04858e+06;
#X obj 170 104 cnv 10 20 10 empty ColorGEM PDP-Out-glx 1 5 1 14 -128992
-1 1.04858e+06;
#X obj 139 55 key;
#X obj 276 129 cnv 15 60 30 empty empty empty 20 12 0 14 -24198 -66577
0;
#N canvas 583 196 410 312 Help 0;
#X obj 6 7 cnv 15 400 160 empty empty empty 20 12 0 14 -233017 -66577
0;
#X text 27 6 Citation;
#X text 15 23 pdp_glx ouputs video in a window using the openGL extension
on an X11 window system. if a pdp message is received and a window
is not open \, one is created automaticly.;
#X text 5 175 Fonctionne sous MacOSX + PD 0.41.4-extended;
#X text 5 188 Fonctionne sous Linux Ubuntu 8.04 + PD 0.41.4-extended
;
#X restore 283 136 pd Help;
#X obj 20 20 cnv 15 340 30 empty empty empty 20 12 0 14 -258113 -66577
0;
#X text 24 26 Ne fonctionne pas sous Windows;
#X obj 91 316 pdp_glx;
#X msg 217 286 fullscreen;
#X msg 14 285 interpol \$1;
#X msg 139 286 dim 400 300;
#X obj 101 130 tgl 12 1 \$0-A \$0-B (F)ullScreen 15 7 1 9 -262144 -1
-1 0 1;
#X obj 167 262 sel 0;
#X obj 140 76 select 32 70 102;
#X obj 101 118 tgl 12 1 \$0-A \$0-B Interpol 15 7 1 9 -262144 -1 -1
0 1;
#X msg 342 286 create;
#X msg 288 285 destroy;
#X obj 101 106 tgl 12 1 \$0-A \$0-B PDPWindow 15 7 1 9 -262144 -1 -1
1 1;
#X obj 167 239 int;
#X obj 175 205 t b b;
#X obj 101 101 cnv 4 10 4 empty empty empty 20 12 0 14 -228856 -66577
0;
#X obj 91 78 inlet;
#X obj 91 285 spigot;
#X msg 203 234 0;
#X obj 222 205 t b b b;
#X msg 237 234 1;
#X obj 187 155 int;
#X obj 13 54 r \$0-SendOnOff;
#X obj 187 178 sel 0 1;
#X obj 13 100 sel 0 1;
#X text 255 96 17 2 2009;
#X connect 2 0 13 0;
#X connect 8 0 7 0;
#X connect 9 0 7 0;
#X connect 10 0 7 0;
#X connect 11 0 18 0;
#X connect 12 0 10 0;
#X connect 12 1 8 0;
#X connect 13 1 11 0;
#X connect 13 2 11 0;
#X connect 14 0 9 0;
#X connect 15 0 7 0;
#X connect 16 0 7 0;
#X connect 17 0 26 0;
#X connect 18 0 12 0;
#X connect 19 0 16 0;
#X connect 19 1 23 0;
#X connect 21 0 22 0;
#X connect 22 0 7 0;
#X connect 23 0 22 1;
#X connect 24 0 25 0;
#X connect 24 1 18 0;
#X connect 24 2 15 0;
#X connect 25 0 22 1;
#X connect 26 0 28 0;
#X connect 27 0 29 0;
#X connect 28 0 19 0;
#X connect 28 1 24 0;
#X connect 29 0 19 0;
#X connect 29 1 26 0;
#X coords 0 -1 1 1 152 43 1 100 100;
#X restore 157 207 pd ARGO;
#N canvas 242 78 375 259 ARGO 0;
#X obj 101 101 cnv 10 186 30 \$0-A \$0-B empty 20 12 0 14 -128992 -1
1.04858e+06;
#X obj 227 104 cnv 10 20 10 empty ColorGEM PDP-Info 1 5 1 14 -128992
-1 1.04858e+06;
#X obj 7 144 cnv 15 340 100 empty empty empty 20 12 0 14 -258113 -66577
0;
#X text 10 149 Ne fonctionne pas sous Windows;
#X obj 101 101 cnv 4 10 4 empty empty empty 20 12 0 14 -228856 -66577
0;
#X obj 99 53 inlet;
#X text 235 83 4 3 2009;
#X symbolatom 101 115 30 0 0 0 - - -;
#X obj 100 77 pdp_description;
#X text 140 52 output packet description as a symbol;
#X connect 5 0 8 0;
#X connect 8 0 7 0;
#X coords 0 -1 1 1 188 32 1 100 100;
#X restore 175 111 pd ARGO;
#N canvas 413 140 402 279 ARGO 0;
#X obj 101 101 cnv 10 88 41 \$0-A \$0-B empty 20 12 0 14 -1 -1 1.04858e+06
;
#X obj 101 109 nbx 4 12 0 1e+37 0 0 \$0 \$0-ReceiveCpuPeak CPUPeak
42 7 1 10 -24198 -1 -24198 6 256;
#X obj 101 122 nbx 4 12 0 1e+37 0 0 \$0 \$0-ReceiveCpuMean CPUMean
42 7 1 10 -24198 -1 -24198 7.09 256;
#X text 141 83 5 3 2009;
#X obj 145 -55 cputime;
#X obj 145 -76 t b b;
#X text 188 24 (c) musil@iem.kug.ac.at;
#X text 230 37 IEM KUG;
#X text 78 18 CPU-load;
#X obj 144 -125 loadbang;
#X text 205 48 graz \, austria 2001;
#X obj 145 -100 metro 500;
#X obj 145 -34 * 0.2;
#X text 237 -88 -dsp-load in %;
#X text 228 -101 measure average- and peak-;
#X obj 37 18 * 100;
#X obj 37 63 int;
#X obj 37 41 + 0.499;
#X obj 37 86 * 0.01;
#N canvas 524 162 422 273 1p1zmodif 0;
#X text 134 89 (c) musil@iem.kug.ac.at;
#X text 179 99 IEM KUG;
#X obj 14 195 +;
#X text 151 108 graz \, austria 2001;
#X text 135 71 y[n] = a0*x[n] + a1*x[n-1] + b1*y[n-1];
#X text 18 13 x[n];
#X text 16 244 y[n];
#X text 84 111 y[n-1];
#X text 134 56 <float> control-IIR-filter 1.order;
#X obj 15 28 inlet;
#X obj 14 228 outlet;
#X obj 15 112 * 0.1;
#X obj 59 156 * 0.9;
#X text 139 144 a1 = 0;
#X text 139 155 b1 = 0.9;
#X text 139 133 a0 = 0.1;
#X obj 15 50 t f b;
#X text 135 40 Inspiré de 1p1z;
#X obj 59 112 f 0;
#X connect 2 0 10 0;
#X connect 2 0 18 1;
#X connect 9 0 16 0;
#X connect 11 0 2 0;
#X connect 12 0 2 1;
#X connect 16 0 11 0;
#X connect 16 1 18 0;
#X connect 18 0 12 0;
#X restore 37 -8 pd 1p1zmodif;
#X text 146 9 Inspiré de 5.reference/iemabs/help-dsp.pd;
#X connect 4 0 12 0;
#X connect 5 0 4 0;
#X connect 5 1 4 1;
#X connect 9 0 11 0;
#X connect 11 0 5 0;
#X connect 12 0 19 0;
#X connect 12 0 1 0;
#X connect 15 0 17 0;
#X connect 16 0 18 0;
#X connect 17 0 16 0;
#X connect 18 0 2 0;
#X connect 19 0 15 0;
#X coords 0 -1 1 1 90 43 1 100 100;
#X restore 269 0 pd ARGO;
#N canvas 581 217 539 398 ARGO 0;
#X obj 101 101 cnv 10 186 53 \$0-A \$0-B empty 20 12 0 14 -128992 -1
1.04858e+06;
#X obj 184 104 cnv 10 20 10 empty ColorGEM PDP-Video-ieee 1 5 1 14
-128992 -1 1.04858e+06;
#X obj 175 130 tgl 12 1 \$0-A \$0-B Capture 15 7 1 9 -262144 -1 -1
0 1;
#X obj 303 121 cnv 15 60 30 empty empty empty 20 12 0 14 -24198 -66577
0;
#N canvas 532 109 425 393 Help 0;
#X obj 12 59 cnv 15 400 310 empty empty empty 20 12 0 14 -233017 -66577
0;
#X text 15 58 Citation;
#X text 24 73 pdp_ieee1394 : fire wire capture object for OSX;
#X text 24 102 inspired by pix_video from Gem;
#X text 24 116 written by Yves Degoyon (ydegoyon@free.fr);
#X text 25 89 Constructor : pdp_ieee1394 <width> <height>;
#X text 57 28 Philips SPC900NC;
#X text 58 40 Logitech;
#X text 15 0 Contrairement a son nom l'objet pdp_ieee1394 fonctionne
sous MacOSX avec certaines webcam USB;
#X restore 310 128 pd Help;
#X obj 138 11 r \$0-SendOnOff;
#X obj 138 34 t f f;
#X obj 191 36 cnv 15 340 30 empty empty empty 20 12 0 14 -258113 -66577
0;
#X text 194 35 Ne fonctionne pas sous Windows;
#X msg 172 264 stop;
#X msg 375 264 open;
#X msg 153 291 close;
#X msg 371 289 reset;
#X msg 81 291 quality \$1;
#X obj 160 214 sel 0;
#X obj 101 101 vradio 12 1 1 4 \$0-A ColorGEM Normal_Quality 14 7 1
9 -262144 -1 -1 1;
#X obj 115 116 cnv 10 20 10 empty empty High_Quality 0 4 1 9 -128992
-1 0;
#X obj 115 128 cnv 10 20 10 empty empty Fast_Quality 0 4 1 9 -128992
-1 0;
#X obj 115 140 cnv 5 20 5 empty empty All_data 0 4 1 9 -128992 -1 0
;
#X msg 131 78 0;
#X obj 214 241 t b b b b;
#X obj 153 241 t b b b;
#X obj 101 150 cnv 4 10 4 empty empty empty 20 12 0 14 -228856 -66577
0;
#X obj 93 371 outlet;
#X obj 160 191 int;
#X obj 138 57 sel 0 1;
#X obj 114 165 change;
#X obj 175 118 bng 12 250 50 0 \$0-A ColorGEM Reset 16 7 1 9 -262144
-1 -1;
#X obj 196 290 metro 70;
#X text 233 162 "Set Quality before starting capture";
#X obj 229 130 cnv 10 20 10 empty ColorGEM MacOSX 1 5 1 14 -128992
-1 1.04858e+06;
#X msg 257 289 open /dev/video0/;
#X obj 230 117 cnv 10 20 10 empty ColorGEM 320x240 1 5 1 14 -128992
-1 1.04858e+06;
#X obj 197 330 pdp_ieee1394 320 240;
#X text 305 97 5 3 2009;
#X obj 175 142 nbx 3 12 1 60 0 1 \$0-A ColorPDP Frames/sec 32 7 1 9
-262144 -1 -1 20 256;
#X obj 266 196 t b f;
#X msg 258 218 1000;
#X obj 277 241 /;
#X connect 2 0 26 0;
#X connect 5 0 6 0;
#X connect 6 0 25 0;
#X connect 9 0 28 0;
#X connect 10 0 33 0;
#X connect 11 0 33 0;
#X connect 12 0 33 0;
#X connect 13 0 33 0;
#X connect 14 0 21 0;
#X connect 14 1 20 0;
#X connect 15 0 13 0;
#X connect 19 0 2 0;
#X connect 20 0 28 0;
#X connect 20 1 31 0;
#X connect 20 2 15 0;
#X connect 21 0 11 0;
#X connect 21 1 9 0;
#X connect 24 0 14 0;
#X connect 25 0 19 0;
#X connect 25 1 24 0;
#X connect 26 0 24 0;
#X connect 27 0 12 0;
#X connect 28 0 33 0;
#X connect 31 0 33 0;
#X connect 33 0 23 0;
#X connect 35 0 36 0;
#X connect 36 0 37 0;
#X connect 36 1 38 1;
#X connect 37 0 38 0;
#X connect 38 0 28 1;
#X coords 0 -1 1 1 188 55 1 100 100;
#X restore 157 48 pd ARGO;
#X text 11 -1 4 On ----------------------->;
#N canvas 242 78 375 259 ARGO 0;
#X obj 101 101 cnv 10 186 30 \$0-A \$0-B empty 20 12 0 14 -128992 -1
1.04858e+06;
#X obj 227 104 cnv 10 20 10 empty ColorGEM PDP-Info 1 5 1 14 -128992
-1 1.04858e+06;
#X obj 7 144 cnv 15 340 100 empty empty empty 20 12 0 14 -258113 -66577
0;
#X text 10 149 Ne fonctionne pas sous Windows;
#X obj 101 101 cnv 4 10 4 empty empty empty 20 12 0 14 -228856 -66577
0;
#X obj 99 53 inlet;
#X text 235 83 4 3 2009;
#X symbolatom 101 115 30 0 0 0 - - -;
#X obj 100 77 pdp_description;
#X text 140 52 output packet description as a symbol;
#X connect 5 0 8 0;
#X connect 8 0 7 0;
#X coords 0 -1 1 1 188 32 1 100 100;
#X restore 174 170 pd ARGO;
#X obj 157 148 pdp_convert image/grey/*;
#X obj 34 140 cnv 15 105 30 empty empty empty 20 12 0 14 -24198 -66577
0;
#N canvas 660 42 479 652 Help 0;
#X obj 8 -27 cnv 15 400 160 empty empty empty 20 12 0 14 -233017 -66577
0;
#X text 11 -26 Citation;
#X text 20 -9 One of the interesting features in PD is the possibility
of connecting everything with everything. If you want to generalize
this to all kinds of media objects \, the complexity of managing the
different types starts to grow quite fast. Therefore PDP has a type
conversion system that can take care of most of the conversions using
the [pdp_convert] object. You can manually convert packets to a certain
type by specifying a type template as a creation argument. I.e. [pdp_convert
image/grey/*] will convert any packet to a greyscale image. Most of
the conversion will become automatic later on.;
#X text 66 242 YUV420P;
#X text 66 154 pdp_convert image/YCrCb/*;
#X text 66 142 pdp_convert image/*/*;
#X text 66 166 pdp_convert image/grey/*;
#X text 66 177 pdp_convert bitmap/yv12/*;
#X text 66 212 pdp_convert texture/*/*;
#X text 66 189 pdp_convert texture/*/*;
#X text 66 201 pdp_convert bitmap/*/*;
#X text 66 223 pdp_convert bitmap/i420/*;
#X text 9 -51 pdp_convert convert between packet types;
#X text 9 141 Examples;
#N canvas 605 93 507 457 pdp_png_to.pdmodif 0;
#X obj 37 50 inlet;
#X obj 101 361 outlet;
#X obj 100 216 pdp_reg;
#X text 34 15 load a png file and convert to a packet type specified
by the creation argument. default = bitmap/*/*;
#X obj 102 114 symbol;
#X obj 37 81 route bang;
#X msg 37 282 bang;
#X obj 101 335 pdp_reg;
#X text 35 -5 pdp_png_to.pd;
#N canvas 242 78 375 259 ARGO 0;
#X obj 101 101 cnv 10 186 30 \$0-A \$0-B empty 20 12 0 14 -128992 -1
1.04858e+06;
#X obj 227 104 cnv 10 20 10 empty ColorGEM PDP-Info 1 5 1 14 -128992
-1 1.04858e+06;
#X obj 7 144 cnv 15 340 100 empty empty empty 20 12 0 14 -258113 -66577
0;
#X text 10 149 Ne fonctionne pas sous Windows;
#X obj 101 101 cnv 4 10 4 empty empty empty 20 12 0 14 -228856 -66577
0;
#X obj 99 53 inlet;
#X text 235 83 4 3 2009;
#X symbolatom 101 115 30 0 0 0 - - -;
#X obj 100 77 pdp_description;
#X text 140 52 output packet description as a symbol;
#X connect 5 0 8 0;
#X connect 8 0 7 0;
#X coords 0 -1 1 1 188 32 1 100 100;
#X restore 250 333 pd ARGO;
#X obj 263 138 bng 15 250 50 0 empty empty empty 17 7 0 10 -262144
-1 -1;
#N canvas 219 80 417 270 ARGO 0;
#X obj 101 101 cnv 10 150 41 \$0-A \$0-B empty 20 12 0 14 -128992 -1
1.04858e+06;
#X obj 170 104 cnv 10 20 10 empty ColorGEM PDP-Noise 1 5 1 14 -128992
-1 1.04858e+06;
#X obj 276 129 cnv 15 60 30 empty empty empty 20 12 0 14 -24198 -66577
0;
#N canvas 554 227 410 324 Help 0;
#X obj 5 5 cnv 15 400 310 empty empty empty 20 12 0 14 -233017 -66577
0;
#X text 8 4 Citation;
#X text 23 20 pdp_noise creates a random image (with uniform distribution
between -1 and 1) when a bang is received;
#X restore 283 136 pd Help;
#X obj 20 20 cnv 15 340 30 empty empty empty 20 12 0 14 -258113 -66577
0;
#X text 24 26 Ne fonctionne pas sous Windows;
#X obj 136 120 tgl 12 1 \$0-A \$0-B Color 15 7 1 9 -262144 -1 -1 1
1;
#X text 255 96 17 2 2009;
#X obj 100 154 sel 0;
#X obj 127 215 pdp_noise;
#X msg 59 179 type grey;
#X msg 127 179 type yv12;
#X msg 193 179 dim \$1 \$1;
#X obj 98 243 outlet;
#X obj 179 120 nbx 3 12 1 999 0 1 \$0-A ColorPDP Quantity 32 7 1 9
-262144 -1 -1 68 256;
#X obj 101 105 bng 12 250 50 0 \$0-A ColorPDP empty 16 7 1 9 -262144
-1 -1;
#X obj 87 77 inlet~;
#X obj -50 112 threshold~ 0.5 5 0.49 5;
#X obj 101 101 cnv 2 10 4 empty empty empty 20 12 0 14 -1 -66577 0
;
#X obj 102 102 cnv 2 8 2 empty empty empty 20 12 0 14 -262144 -66577
0;
#X text 78 61 Trig Decl;
#X obj 101 138 cnv 4 10 4 empty empty empty 20 12 0 14 -228856 -66577
0;
#X connect 6 0 8 0;
#X connect 8 0 10 0;
#X connect 8 1 11 0;
#X connect 9 0 13 0;
#X connect 10 0 9 0;
#X connect 11 0 9 0;
#X connect 12 0 9 0;
#X connect 14 0 12 0;
#X connect 15 0 9 0;
#X connect 16 0 17 0;
#X connect 17 0 15 0;
#X coords 0 -1 1 1 152 43 1 100 100;
#X restore 248 46 pd ARGO;
#N canvas 242 78 375 259 ARGO 0;
#X obj 101 101 cnv 10 186 30 \$0-A \$0-B empty 20 12 0 14 -128992 -1
1.04858e+06;
#X obj 227 104 cnv 10 20 10 empty ColorGEM PDP-Info 1 5 1 14 -128992
-1 1.04858e+06;
#X obj 7 144 cnv 15 340 100 empty empty empty 20 12 0 14 -258113 -66577
0;
#X text 10 149 Ne fonctionne pas sous Windows;
#X obj 101 101 cnv 4 10 4 empty empty empty 20 12 0 14 -228856 -66577
0;
#X obj 99 53 inlet;
#X text 235 83 4 3 2009;
#X symbolatom 101 115 30 0 0 0 - - -;
#X obj 100 77 pdp_description;
#X text 140 52 output packet description as a symbol;
#X connect 5 0 8 0;
#X connect 8 0 7 0;
#X coords 0 -1 1 1 188 32 1 100 100;
#X restore 250 291 pd ARGO;
#X msg 289 134 pdp bitmap/*/*;
#X obj 151 65 bng 15 250 50 0 empty empty empty 17 7 0 10 -262144 -1
-1;
#X msg 102 142 load_png \$1 \, bang;
#X obj 413 176 list2symbol;
#X msg 289 159 pdp image/*/*;
#X msg 284 223 pdp image/grey/256x256;
#X msg 289 106 pdp bitmap/*/*;
#X msg 294 196 pdp image/YCrCb/*;
#X msg 284 244 pdp image/YCrCb/256x256;
#X msg 397 104 pdp */grey/* 1;
#X msg 397 128 pdp */YCrCb/* 1;
#X obj 32 317 print zzz;
#X obj 163 346 print;
#X msg 356 262 pdp 1;
#X msg 283 262 pdp grey;
#X msg 63 171 init;
#X obj 160 98 print yyyyyy;
#X obj 103 283 pdp_convert */*/*;
#X connect 0 0 5 0;
#X connect 4 0 15 0;
#X connect 5 0 6 0;
#X connect 5 1 4 0;
#X connect 7 0 1 0;
#X connect 10 0 2 0;
#X connect 11 0 12 0;
#X connect 11 0 29 0;
#X connect 11 0 30 0;
#X connect 13 0 16 0;
#X connect 14 0 4 0;
#X connect 16 0 30 0;
#X connect 17 0 30 0;
#X connect 18 0 30 0;
#X connect 19 0 30 0;
#X connect 20 0 30 0;
#X connect 21 0 30 0;
#X connect 22 0 30 0;
#X connect 23 0 30 0;
#X connect 26 0 16 0;
#X connect 27 0 30 0;
#X connect 28 0 30 0;
#X connect 30 0 9 0;
#X connect 30 0 24 0;
#X restore 273 183 pd pdp_png_to.pdmodif;
#N canvas 84 212 450 300 pdp_png_to.pd 0;
#X obj 37 50 inlet;
#X obj 102 262 outlet;
#X obj 102 209 pdp_convert \$1;
#X obj 102 180 pdp_reg;
#X text 34 15 load a png file and convert to a packet type specified
by the creation argument. default = bitmap/*/*;
#X obj 102 121 symbol;
#X msg 102 149 load_png \$1 \, bang;
#X obj 37 81 route bang;
#X msg 37 208 bang;
#X obj 102 236 pdp_reg;
#X connect 0 0 7 0;
#X connect 2 0 9 0;
#X connect 3 0 2 0;
#X connect 5 0 6 0;
#X connect 6 0 3 0;
#X connect 7 0 8 0;
#X connect 7 1 5 0;
#X connect 8 0 9 0;
#X connect 9 0 1 0;
#X restore 274 153 pd pdp_png_to.pd;
#X text 13 398 "Since version 0.12 there are 2 different image data
types: "image/*/" and "bitmap//". The image type is the native 16 bit/component
pdp type. It supports the subtypes "image/grey/": one channel grey
scale images \, "image/YCrCb/": luma/chroma packets with subsampled
chroma planes and "image/multi/": a multi channel planar format (i.e.
to store 3 or 4 channel rgb or rgba data). Almost all processors use
this data type. The bitmap type is an intermediate type which can contain
standard fourcc encoded 8 bit/component images i.e. "bitmap/rgb/" \,
"bitmap/yv12/" \, "bitmap/grey/". Currently no processors support this
type natively \, so you have to use pdp_convert to convert them to
"image//*".";
#X text 14 285 Since version 0.11 there is a type system used for identifying
a packet type and performing type conversion. A type is represented
by a symbol \, with subtypes separated by the "/" character. I.e. "image/grey/320x240"
is a grey 16 bit/component image with dimensions 320 by 240 For conversions
a wildcard can be specified. I.e. "image/*/*" which matches image type
packets with all encodings and dimensions.;
#N canvas 402 164 558 354 pdp_png_to.pdmodif2 0;
#X obj 37 50 inlet;
#X obj 102 262 outlet;
#X obj 102 180 pdp_reg;
#X text 28 -13 load a png file and convert to a packet type specified
by the creation argument. default = bitmap/*/*;
#X obj 102 121 symbol;
#X msg 102 149 load_png \$1 \, bang;
#X obj 37 81 route bang;
#X msg 37 208 bang;
#X obj 102 236 pdp_reg;
#X obj 235 24 openpanel;
#X msg 262 71 set \$1;
#X msg 235 173 open \$1;
#X obj 234 116 list2symbol;
#X obj 235 48 t b s;
#X obj 218 93 bng 16 250 50 0 \$0-A \$0-B empty 0 0 1 9 -262144 -1
-1;
#X symbolatom 235 93 46 0 0 0 - - -;
#N canvas 242 78 375 259 ARGO 0;
#X obj 101 101 cnv 10 186 30 \$0-A \$0-B empty 20 12 0 14 -128992 -1
1.04858e+06;
#X obj 227 104 cnv 10 20 10 empty ColorGEM PDP-Info 1 5 1 14 -128992
-1 1.04858e+06;
#X obj 7 144 cnv 15 340 100 empty empty empty 20 12 0 14 -258113 -66577
0;
#X text 10 149 Ne fonctionne pas sous Windows;
#X obj 101 101 cnv 4 10 4 empty empty empty 20 12 0 14 -228856 -66577
0;
#X obj 99 53 inlet;
#X text 235 83 4 3 2009;
#X symbolatom 101 115 30 0 0 0 - - -;
#X obj 100 77 pdp_description;
#X text 140 52 output packet description as a symbol;
#X connect 5 0 8 0;
#X connect 8 0 7 0;
#X coords 0 -1 1 1 188 32 1 100 100;
#X restore 268 215 pd ARGO;
#N canvas 242 78 375 259 ARGO 0;
#X obj 101 101 cnv 10 186 30 \$0-A \$0-B empty 20 12 0 14 -128992 -1
1.04858e+06;
#X obj 227 104 cnv 10 20 10 empty ColorGEM PDP-Info 1 5 1 14 -128992
-1 1.04858e+06;
#X obj 7 144 cnv 15 340 100 empty empty empty 20 12 0 14 -258113 -66577
0;
#X text 10 149 Ne fonctionne pas sous Windows;
#X obj 101 101 cnv 4 10 4 empty empty empty 20 12 0 14 -228856 -66577
0;
#X obj 99 53 inlet;
#X text 235 83 4 3 2009;
#X symbolatom 101 115 30 0 0 0 - - -;
#X obj 100 77 pdp_description;
#X text 140 52 output packet description as a symbol;
#X connect 5 0 8 0;
#X connect 8 0 7 0;
#X coords 0 -1 1 1 188 32 1 100 100;
#X restore 266 254 pd ARGO;
#N canvas 320 164 399 343 ARGO 0;
#X obj 101 101 cnv 10 150 41 \$0-A \$0-B empty 20 12 0 14 -128992 -1
1.04858e+06;
#X obj 170 104 cnv 10 20 10 empty ColorGEM PDP-Out-glx 1 5 1 14 -128992
-1 1.04858e+06;
#X obj 139 55 key;
#X obj 276 129 cnv 15 60 30 empty empty empty 20 12 0 14 -24198 -66577
0;
#N canvas 583 196 410 312 Help 0;
#X obj 6 7 cnv 15 400 160 empty empty empty 20 12 0 14 -233017 -66577
0;
#X text 27 6 Citation;
#X text 15 23 pdp_glx ouputs video in a window using the openGL extension
on an X11 window system. if a pdp message is received and a window
is not open \, one is created automaticly.;
#X text 5 175 Fonctionne sous MacOSX + PD 0.41.4-extended;
#X text 5 188 Fonctionne sous Linux Ubuntu 8.04 + PD 0.41.4-extended
;
#X restore 283 136 pd Help;
#X obj 20 20 cnv 15 340 30 empty empty empty 20 12 0 14 -258113 -66577
0;
#X text 24 26 Ne fonctionne pas sous Windows;
#X obj 91 316 pdp_glx;
#X msg 217 286 fullscreen;
#X msg 14 285 interpol \$1;
#X msg 139 286 dim 400 300;
#X obj 101 130 tgl 12 1 \$0-A \$0-B (F)ullScreen 15 7 1 9 -262144 -1
-1 0 1;
#X obj 167 262 sel 0;
#X obj 140 76 select 32 70 102;
#X obj 101 118 tgl 12 1 \$0-A \$0-B Interpol 15 7 1 9 -262144 -1 -1
0 1;
#X msg 342 286 create;
#X msg 288 285 destroy;
#X obj 101 106 tgl 12 1 \$0-A \$0-B PDPWindow 15 7 1 9 -262144 -1 -1
0 1;
#X obj 167 239 int;
#X obj 175 205 t b b;
#X obj 101 101 cnv 4 10 4 empty empty empty 20 12 0 14 -228856 -66577
0;
#X obj 91 78 inlet;
#X obj 91 285 spigot;
#X msg 203 234 0;
#X obj 222 205 t b b b;
#X msg 237 234 1;
#X obj 187 155 int;
#X obj 13 54 r \$0-SendOnOff;
#X obj 187 178 sel 0 1;
#X obj 13 100 sel 0 1;
#X text 255 96 17 2 2009;
#X connect 2 0 13 0;
#X connect 8 0 7 0;
#X connect 9 0 7 0;
#X connect 10 0 7 0;
#X connect 11 0 18 0;
#X connect 12 0 10 0;
#X connect 12 1 8 0;
#X connect 13 1 11 0;
#X connect 13 2 11 0;
#X connect 14 0 9 0;
#X connect 15 0 7 0;
#X connect 16 0 7 0;
#X connect 17 0 26 0;
#X connect 18 0 12 0;
#X connect 19 0 16 0;
#X connect 19 1 23 0;
#X connect 21 0 22 0;
#X connect 22 0 7 0;
#X connect 23 0 22 1;
#X connect 24 0 25 0;
#X connect 24 1 18 0;
#X connect 24 2 15 0;
#X connect 25 0 22 1;
#X connect 26 0 28 0;
#X connect 27 0 29 0;
#X connect 28 0 19 0;
#X connect 28 1 24 0;
#X connect 29 0 19 0;
#X connect 29 1 26 0;
#X coords 0 -1 1 1 152 43 1 100 100;
#X restore 214 293 pd ARGO;
#X obj 343 39 bng 15 250 50 0 empty empty empty 17 7 0 10 -262144 -1
-1;
#X obj 58 290 print;
#X obj 102 207 pdp_convert \$1;
#X connect 0 0 6 0;
#X connect 2 0 16 0;
#X connect 2 0 21 0;
#X connect 5 0 2 0;
#X connect 5 0 20 0;
#X connect 6 0 7 0;
#X connect 6 1 4 0;
#X connect 7 0 8 0;
#X connect 8 0 1 0;
#X connect 9 0 13 0;
#X connect 10 0 15 0;
#X connect 12 0 11 0;
#X connect 12 0 5 0;
#X connect 13 0 15 0;
#X connect 13 1 10 0;
#X connect 14 0 9 0;
#X connect 15 0 12 0;
#X connect 19 0 15 0;
#X connect 21 0 8 0;
#X connect 21 0 17 0;
#X connect 21 0 18 0;
#X restore 274 215 pd pdp_png_to.pdmodif2;
#X restore 40 147 pd Help Convert;
#X connect 0 0 1 0;
#X connect 25 0 23 0;
#X connect 25 0 28 0;
#X connect 28 0 22 0;
#X connect 28 0 27 0;
