#N canvas 341 340 642 441 10;
#X obj 21 -60 inlet;
#X obj 58 -60 inlet;
#X obj 95 -60 inlet;
#X obj 5 204 translateXYZ \$2 \$3 1;
#X obj 97 147 * 0.5;
#X obj -82 -107 inlet;
#X text 47 -78 x \, y \, w \, h;
#X obj 2 16 cnv 15 146 60 empty empty empty 20 12 0 14 -233017 -66577
0;
#X obj 5 29 tgl 15 0 empty empty on 0 -6 0 7 -262144 -1 -1 1 1;
#X floatatom 28 31 5 0 0 2 xloc - -;
#X floatatom 63 31 5 0 0 2 yloc - -;
#X floatatom 98 31 5 0 0 2 width - -;
#X obj 67 -114 loadbang;
#X floatatom 31 61 3 0 100 2 R - -;
#X floatatom 54 61 3 0 100 2 G - -;
#X floatatom 77 61 3 0 100 2 B - -;
#X obj 5 229 rotateXYZ;
#X obj 5 259 color 1 1 1;
#X obj 227 188 pack f f f;
#X obj 276 141 t b f;
#X obj 227 141 t b f;
#X obj 227 168 f;
#X obj 5 149 gemhead;
#X msg -41 110 set \$1;
#X obj 357 -21 loadbang;
#X obj 372 3 r globalobjects;
#X obj 357 88 s globalobjects;
#X obj 357 56 + 1;
#X obj 357 26 f 1;
#X obj 26 -31 f \$1;
#X obj 60 -31 f \$2;
#X obj 94 -31 f \$3;
#X obj 276 111 * 0.01;
#X obj 227 112 * 0.01;
#X obj 181 113 * 0.01;
#X obj 5 287 disk 150 100;
#X msg 91 262 50;
#X text 115 258 num of segments;
#X obj 230 293 namecanvas \$0-bla;
#X obj 229 271 s \$0-bla;
#X obj 229 226 r EHU_gop;
#X text 343 223 w h of canvas / x y of red window;
#X msg -32 -69 1;
#X obj 187 -69 inlet;
#X obj 224 -69 inlet;
#X obj 261 -69 inlet;
#X obj 5 174 spigot;
#X obj 128 -34 f \$4;
#X obj 140 -64 inlet;
#X floatatom 102 61 5 0 0 2 rotation - -;
#X obj -82 -30 route index set;
#X text 229 -87 RGB;
#X text 132 -80 rotation;
#X msg 229 247 donecanvasdialog 1 -1 \$1 0 -1 1 1 150 78 0 0;
#X msg 201 4 100;
#X connect 0 0 29 0;
#X connect 1 0 30 0;
#X connect 2 0 31 0;
#X connect 3 0 16 0;
#X connect 4 0 35 1;
#X connect 5 0 50 0;
#X connect 8 0 22 0;
#X connect 8 0 46 1;
#X connect 9 0 3 1;
#X connect 10 0 3 2;
#X connect 11 0 4 0;
#X connect 12 0 29 0;
#X connect 12 0 30 0;
#X connect 12 0 31 0;
#X connect 12 0 47 0;
#X connect 12 0 42 0;
#X connect 12 0 54 0;
#X connect 13 0 34 0;
#X connect 14 0 33 0;
#X connect 15 0 32 0;
#X connect 16 0 17 0;
#X connect 17 0 35 0;
#X connect 18 0 17 1;
#X connect 19 0 21 0;
#X connect 19 1 18 2;
#X connect 20 0 21 0;
#X connect 20 1 18 1;
#X connect 21 0 18 0;
#X connect 22 0 46 0;
#X connect 23 0 22 0;
#X connect 24 0 28 0;
#X connect 24 0 36 0;
#X connect 25 0 28 1;
#X connect 27 0 26 0;
#X connect 28 0 27 0;
#X connect 28 0 23 0;
#X connect 29 0 9 0;
#X connect 30 0 10 0;
#X connect 31 0 11 0;
#X connect 32 0 19 0;
#X connect 33 0 20 0;
#X connect 34 0 21 0;
#X connect 36 0 35 2;
#X connect 40 0 53 0;
#X connect 42 0 8 0;
#X connect 43 0 13 0;
#X connect 44 0 14 0;
#X connect 45 0 15 0;
#X connect 46 0 3 0;
#X connect 47 0 49 0;
#X connect 48 0 47 0;
#X connect 49 0 16 3;
#X connect 50 0 23 0;
#X connect 50 1 23 0;
#X connect 50 2 8 0;
#X connect 53 0 39 0;
#X connect 54 0 15 0;
#X connect 54 0 14 0;
#X connect 54 0 13 0;
#X coords 0 -1 1 1 150 78 1 0 0;
