#N canvas 394 267 505 451 10;
#X msg -82 140 open \$1;
#X obj 23 -73 inlet;
#X obj -26 320 outlet;
#X obj -81 -65 inlet;
#X text -20 336 < send data;
#X obj -26 215 gemhead;
#X obj 3 18 cnv 15 95 30 empty empty empty 20 12 0 14 -233017 -66577
0;
#X obj 5 29 tgl 15 0 empty empty on 0 -6 0 7 -262144 -1 -1 1 1;
#X obj 129 -56 delay 1000;
#X obj 129 -82 loadbang;
#X obj 129 -32 symbol \$1;
#X obj 23 29 bng 15 250 50 0 empty empty open 0 -6 0 10 -262144 -1
-1;
#X obj 23 57 openpanel;
#X obj -26 262 pix_image;
#X msg 100 171 set \$1;
#X obj 184 32 r globalobjects;
#X obj 169 96 s globalobjects;
#X obj 169 75 + 1;
#X obj 169 53 f 1;
#X text -51 85 file name;
#X text 198 68 render order;
#X obj -26 236 alpha;
#X obj 100 310 namecanvas \$0-bla;
#X obj 99 288 s \$0-bla;
#X obj 99 243 r EHU_gop;
#X text 164 241 w h of canvas / x y of red window;
#X msg 99 264 donecanvasdialog 1 -1 \$1 0 -1 1 1 170 85 100 100;
#X text 211 -57 wait a sec;
#X obj 5 141 print loading;
#N canvas 448 162 450 300 dealwith 0;
#X msg -44 51 quality \$1;
#X msg -4 76 mode \$1;
#X msg 201 85 1;
#X msg 49 52 set \$1;
#X obj -44 -26 inlet;
#X obj 201 62 loadbang;
#X obj -29 143 outlet;
#X obj 49 142 outlet;
#X obj 109 135 outlet;
#X obj -44 24 route quality mode index set;
#X connect 0 0 6 0;
#X connect 1 0 6 0;
#X connect 2 0 1 0;
#X connect 2 0 8 0;
#X connect 3 0 7 0;
#X connect 4 0 9 0;
#X connect 5 0 2 0;
#X connect 9 0 0 0;
#X connect 9 1 1 0;
#X connect 9 2 3 0;
#X connect 9 3 3 0;
#X connect 9 4 8 0;
#X restore -81 -29 pd dealwith;
#X obj -82 103 ehu/abs_path;
#X obj 23 -52 symbol \$1;
#X connect 0 0 13 0;
#X connect 1 0 31 0;
#X connect 3 0 29 0;
#X connect 5 0 21 0;
#X connect 7 0 5 0;
#X connect 8 0 10 0;
#X connect 9 0 8 0;
#X connect 9 0 18 0;
#X connect 10 0 30 0;
#X connect 11 0 12 0;
#X connect 12 0 0 0;
#X connect 13 0 2 0;
#X connect 14 0 5 0;
#X connect 15 0 18 1;
#X connect 17 0 16 0;
#X connect 18 0 17 0;
#X connect 18 0 14 0;
#X connect 21 0 13 0;
#X connect 24 0 26 0;
#X connect 26 0 23 0;
#X connect 29 1 5 0;
#X connect 29 2 7 0;
#X connect 30 0 0 0;
#X connect 30 0 28 0;
#X connect 31 0 0 0;
#X coords 0 -1 1 1 100 50 1 1 1;
