#N canvas 367 196 628 490 10;
#X obj 21 -60 inlet;
#X obj 58 -60 inlet;
#X obj 96 -60 inlet;
#X obj 0 205 translateXYZ \$2 \$3 1;
#X obj -100 -117 inlet;
#X obj 2 17 cnv 15 181 56 empty empty empty 20 12 0 14 -233017 -66577
0;
#X obj 5 30 tgl 15 0 empty empty on 0 -6 0 7 -262144 -1 -1 1 1;
#X floatatom 26 31 5 0 0 2 xloc - -;
#X floatatom 61 31 5 0 0 2 yloc - -;
#X floatatom 96 31 5 0 0 2 size - -;
#X obj 67 -114 loadbang;
#X obj -46 -57 loadbang;
#X floatatom 7 59 3 0 100 2 R - -;
#X floatatom 32 59 3 0 100 2 G - -;
#X floatatom 56 59 3 0 100 2 B - -;
#X floatatom 134 33 5 0 0 2 rotation - -;
#X obj -1 241 rotateXYZ;
#X obj -3 271 color 1 1 1;
#X obj 251 202 pack f f f;
#X obj 302 152 t b f;
#X obj 262 152 t b f;
#X obj 251 182 f;
#X obj 134 -60 inlet;
#X obj -19 132 gemhead;
#X msg -71 95 set \$1;
#X obj -71 75 f \$0;
#X obj 362 -5 loadbang;
#X obj 401 23 r globalobjects;
#X obj 362 102 s globalobjects;
#X obj 362 70 + 1;
#X obj 362 40 f 1;
#X obj 26 -31 f \$1;
#X obj 61 -31 f \$2;
#X obj 96 -31 f \$3;
#X obj 302 126 * 0.01;
#X obj 256 127 * 0.01;
#X obj 212 129 * 0.01;
#X obj 200 338 namecanvas \$0-bla;
#X obj 199 316 s \$0-bla;
#X obj 199 271 r EHU_gop;
#X text 313 268 w h of canvas / x y of red window;
#X msg -46 -33 1;
#X symbolatom 84 58 15 0 0 0 - - -;
#X msg 84 125 text \$1;
#X msg -72 239 font \$1;
#X obj 251 220 t b l;
#X obj 134 -32 f \$4;
#X obj 208 -77 inlet;
#X text 252 -77 text;
#X text 121 -79 rotation;
#X text 40 -75 x \, y \, size;
#X text 82 44 text;
#X obj -3 299 text3d;
#X obj 133 196 * 4;
#X text 201 218 update;
#X msg 199 292 donecanvasdialog 1 -1 \$1 0 -1 1 1 185 75 0 0;
#X msg 319 42 100;
#X obj -102 -91 route index set font alias;
#X obj 208 -31 symbol \$5;
#X connect 0 0 31 0;
#X connect 1 0 32 0;
#X connect 2 0 33 0;
#X connect 3 0 16 0;
#X connect 4 0 57 0;
#X connect 6 0 23 0;
#X connect 7 0 3 1;
#X connect 8 0 3 2;
#X connect 9 0 53 0;
#X connect 10 0 31 0;
#X connect 10 0 32 0;
#X connect 10 0 33 0;
#X connect 10 0 46 0;
#X connect 10 0 58 0;
#X connect 11 0 41 0;
#X connect 12 0 36 0;
#X connect 13 0 35 0;
#X connect 14 0 34 0;
#X connect 15 0 16 3;
#X connect 16 0 17 0;
#X connect 17 0 52 0;
#X connect 18 0 45 0;
#X connect 19 0 21 0;
#X connect 19 1 18 2;
#X connect 20 0 21 0;
#X connect 20 1 18 1;
#X connect 21 0 18 0;
#X connect 22 0 46 0;
#X connect 23 0 3 0;
#X connect 24 0 23 0;
#X connect 25 0 24 0;
#X connect 26 0 30 0;
#X connect 26 0 56 0;
#X connect 27 0 30 1;
#X connect 29 0 28 0;
#X connect 30 0 25 0;
#X connect 30 0 29 0;
#X connect 31 0 7 0;
#X connect 32 0 8 0;
#X connect 33 0 9 0;
#X connect 34 0 19 0;
#X connect 35 0 20 0;
#X connect 36 0 21 0;
#X connect 39 0 55 0;
#X connect 41 0 6 0;
#X connect 42 0 43 0;
#X connect 43 0 52 0;
#X connect 44 0 52 0;
#X connect 45 0 53 0;
#X connect 45 1 17 1;
#X connect 46 0 15 0;
#X connect 47 0 58 0;
#X connect 53 0 52 1;
#X connect 55 0 38 0;
#X connect 56 0 14 0;
#X connect 56 0 13 0;
#X connect 56 0 12 0;
#X connect 57 0 25 0;
#X connect 57 1 25 0;
#X connect 57 2 44 0;
#X connect 57 4 6 0;
#X connect 58 0 42 0;
#X coords 0 -1 1 1 185 75 1 0 0;
