#N canvas 171 176 749 465 10;
#X text 29 325 perspec <left> <right> <bottom> <top> <front> <back>::
;
#X msg 229 279 dimen \$1 \$2;
#X obj 194 2 inlet;
#X obj 183 137 t b b;
#X obj 183 180 pack f f;
#X obj 313 3 inlet;
#X obj 313 99 unpack;
#X msg 205 254 create \, 1;
#X msg 139 277 view 0 0 1000;
#X obj 145 2 inlet;
#X obj 103 108 select 0;
#X msg 103 227 0 \, destroy;
#X msg 24 304 perspec 0 \$2 0 \$2 999 1001;
#X msg 229 300 buffer 2;
#X obj 119 403 gemwin;
#X obj 124 3 tgl 14 0 empty empty empty 0 -6 0 10 -260097 -1 -1 1 1
;
#X obj 371 345 unpack f f;
#X obj 321 369 / 2;
#X obj 275 369 / 2;
#X obj 275 407 outlet;
#X obj 275 346 unpack f f;
#N canvas 427 92 458 308 rbgwin 0;
#X obj 103 208 pack f f f;
#X obj 105 102 hsl 95 10 0 100 0 0 empty empty empty -2 -6 0 10 -258113
-1 -1 0 1;
#X obj 105 114 hsl 95 10 0 100 0 0 empty empty empty -2 -6 0 10 -4034
-1 -1 0 1;
#X obj 105 126 hsl 95 10 0 100 0 0 empty empty empty -2 -6 0 10 -4160
-1 -1 0 1;
#X obj 145 177 t b f;
#X obj 187 177 t b f;
#X obj 103 152 * 0.01;
#X obj 145 152 * 0.01;
#X obj 187 152 * 0.01;
#X msg 103 233 color \$1 \$2 \$3;
#X obj 102 254 outlet;
#X connect 0 0 9 0;
#X connect 1 0 6 0;
#X connect 2 0 7 0;
#X connect 3 0 8 0;
#X connect 4 0 0 0;
#X connect 4 1 0 1;
#X connect 5 0 0 0;
#X connect 5 1 0 2;
#X connect 6 0 0 0;
#X connect 7 0 4 0;
#X connect 8 0 5 0;
#X connect 9 0 10 0;
#X coords 0 -1 1 1 104 38 1 100 100;
#X restore 0 21 pd rbgwin;
#X msg 609 45 fullscreen 1;
#X msg 609 23 border 1;
#X msg 609 66 cursor 1;
#X msg 609 88 offset 20 20;
#X msg 609 110 title somename;
#X msg 609 2 topmost 1;
#X obj 446 263 namecanvas \$0-bla;
#X obj 445 241 s \$0-bla;
#X obj 445 196 r EHU_gop;
#X text 449 179 GOP;
#X obj 321 409 outlet;
#X obj 371 410 outlet;
#X obj 428 412 outlet;
#X obj 457 150 s EHU_win;
#X obj 473 71 r EHU_win_get;
#X text 468 55 receive query;
#X obj 457 128 list;
#X obj 457 103 t b l;
#X obj 228 160 f \$2;
#X obj 183 160 f \$1;
#X text 139 -13 on/off;
#X obj 380 305 s EHU_winopen;
#X obj 7 198 s EHU_winclose;
#X obj 103 136 t b b;
#X obj 183 213 t l b b l l l b;
#X text 469 310 broadcast just before opening window;
#X text 101 198 broadcast just before closing window;
#X text 348 1 list with (width \, height);
#X text 191 -13 msgs to gemwin object;
#X text 523 150 broadcast (width \, height);
#X text 319 426 centreY;
#X text 379 428 width;
#X text 430 429 height;
#X obj 194 77 s EHU_quality;
#X obj 246 55 s EHU_mode;
#X text 271 427 centreX;
#X obj 194 29 route quality mode;
#X obj 351 29 loadbang;
#X obj 352 70 f \$1;
#X obj 382 70 f \$2;
#X obj 351 51 t b b;
#X msg 445 216 donecanvasdialog 1 -1 \$1 0 -1 1 1 140 20 0 0;
#X text 609 -15 messages it gets;
#X obj 31 83 gemkeyboard;
#X obj 31 103 select 9;
#X text 30 66 close on ESC;
#X connect 1 0 13 0;
#X connect 1 0 14 0;
#X connect 2 0 58 0;
#X connect 3 0 41 0;
#X connect 3 1 40 0;
#X connect 4 0 46 0;
#X connect 5 0 6 0;
#X connect 6 0 41 1;
#X connect 6 1 40 1;
#X connect 7 0 14 0;
#X connect 8 0 14 0;
#X connect 9 0 15 0;
#X connect 10 0 45 0;
#X connect 10 1 3 0;
#X connect 11 0 14 0;
#X connect 12 0 14 0;
#X connect 13 0 14 0;
#X connect 15 0 10 0;
#X connect 16 0 33 0;
#X connect 16 1 34 0;
#X connect 17 0 32 0;
#X connect 18 0 19 0;
#X connect 20 0 18 0;
#X connect 20 1 17 0;
#X connect 21 0 14 0;
#X connect 30 0 63 0;
#X connect 36 0 38 0;
#X connect 38 0 35 0;
#X connect 39 0 38 0;
#X connect 39 1 38 1;
#X connect 40 0 4 1;
#X connect 41 0 4 0;
#X connect 45 0 11 0;
#X connect 45 1 44 0;
#X connect 46 0 12 0;
#X connect 46 1 8 0;
#X connect 46 2 7 0;
#X connect 46 3 1 0;
#X connect 46 3 20 0;
#X connect 46 4 16 0;
#X connect 46 5 39 0;
#X connect 46 6 43 0;
#X connect 58 0 55 0;
#X connect 58 1 56 0;
#X connect 58 2 14 0;
#X connect 59 0 62 0;
#X connect 60 0 41 1;
#X connect 61 0 40 1;
#X connect 62 0 60 0;
#X connect 62 1 61 0;
#X connect 63 0 29 0;
#X connect 65 0 66 0;
#X connect 66 0 45 0;
#X coords 0 -1 1 1 140 20 1 0 0;
