#N canvas 494 42 427 459 10;
#X obj 221 -14 outlet;
#X obj 221 -44 prepend add;
#X obj 39 13 sprintf list %s;
#X obj 39 33 route float;
#X msg 39 50 symbol -root-;
#X obj 39 -35 splitfilename :;
#X obj 39 75 sprintf list %s %s:%s %f;
#X obj 39 -9 stripfilename 1;
#X obj 39 -61 list split 1;
#X obj -19 139 print ezpst: propagate value;
#X obj 38 -92 route :-root-;
#X obj 4 -214 getPath \$1;
#X text 33 -244 arg1: : instance identifier \, ie. :path:;
#X text 36 -285 propagateValues: send preset data to parent patch;
#X msg 39 99 \; \$1 :\$1 \$2 \$3;
#X obj 4 -194 pack s \$0;
#X obj 63 -109 r \$0-out;
#X obj 4 -144 s pd-\$0-receive;
#N canvas 82 242 144 103 \$0-receive 1;
#X restore 4 -120 pd \$0-receive;
#X text 247 -269 ezpst version 1.9;
#X msg 4 -174 clear \, obj 0 0 r \$1 \, obj 0 30 s \$2-out \, connect
0 0 1 0;
#X connect 1 0 0 0;
#X connect 2 0 3 0;
#X connect 3 0 4 0;
#X connect 3 1 6 0;
#X connect 4 0 6 0;
#X connect 5 0 7 0;
#X connect 5 1 6 1;
#X connect 6 0 14 0;
#X connect 7 0 2 0;
#X connect 8 0 5 0;
#X connect 8 1 1 0;
#X connect 8 1 6 2;
#X connect 10 0 1 0;
#X connect 10 1 8 0;
#X connect 11 0 15 0;
#X connect 15 0 20 0;
#X connect 16 0 10 0;
#X connect 20 0 17 0;
