#N canvas 0 0 931 502 10;
#X msg 525 249 bang;
#X obj 525 303 route bang;
#X obj 525 228 bang;
#X obj 177 247 iem_r \$1/ALT;
#X obj 222 205 iem_r \$1/ALT/ON;
#X obj 312 186 sr_registername \$1/ALT/ON;
#X msg 222 186 set \$1/ALT/ON;
#X obj 159 265 mux . .;
#X obj 159 138 inlet value;
#X obj 159 347 outlet value;
#X obj 525 207 r /CUE/SETTINGS/GET;
#X obj 580 345 s /CUE/SETTINGS/SET;
#X obj 580 324 pp \$1/ALT;
#X obj 286 131 inlet name;
#X obj 222 164 t s s s;
#X msg 629 302 \$1/ALT;
#X obj 222 222 t f f;
#X obj 525 277 any;
#X connect 0 0 17 0;
#X connect 1 1 12 0;
#X connect 2 0 0 0;
#X connect 3 0 7 1;
#X connect 4 0 16 0;
#X connect 6 0 4 0;
#X connect 7 0 9 0;
#X connect 8 0 7 0;
#X connect 10 0 2 0;
#X connect 12 0 11 0;
#X connect 13 0 14 0;
#X connect 14 0 6 0;
#X connect 14 1 5 0;
#X connect 14 2 15 0;
#X connect 15 0 12 1;
#X connect 16 0 7 2;
#X connect 16 1 17 1;
#X connect 17 0 1 0;
