#N canvas 156 65 781 541 10;
#X obj 128 394 dac~ 1 2;
#X obj -99 -79 cnv 15 15 15 empty empty ExMM5b-DetectEnvelope2Files.pd
0 8 1 14 -262144 -66577 0;
#X text 523 304 <- Envelop;
#N canvas 585 156 379 349 ARGO 0;
#X obj 24 -32 inlet~;
#X obj 101 101 cnv 12 198 18 empty empty empty 20 12 0 14 -262144 -1
1.04858e+06;
#X obj 254 105 cnv 10 44 10 empty empty Scope 1 5 1 14 -262144 -1 1.04858e+06
;
#X obj 101 101 cnv 4 10 4 empty empty empty 20 12 0 14 -1 -66577 0
;
#X msg 186 31 frgb 255 0 0;
#X text 64 254 Voir examples:cyclone:pink-test.pd;
#X text 64 265 Voir examples:cyclone:scope-...;
#X obj 128 103 nbx 4 12 1 2000 0 1 empty ColorTime ms/div 40 7 1 9
-208064 -1 -1 100 256;
#X msg -19 30 range -1 1;
#X obj 101 120 Scope~ 198 129 200 3 176 -1 1 0 0 0 0 255 0 0 255 255
255 0;
#X text 64 276 Voir MSP46ReferenceManual.pdf;
#X msg 159 -19 delay 1 \, triglevel 0 \, trigger 1;
#X obj 217 103 tgl 12 1 \$0-A \$0-B Sync 15 6 1 9 -262144 -1 -1 0 1
;
#X msg 142 6 delay 0 \, triglevel 0 \, trigger 0;
#X obj 140 -41 sel 0 1;
#X msg 183 55 brgb 255 255 255;
#X msg 62 6 bufsize 176;
#X obj 94 63 * 2;
#X connect 0 0 9 0;
#X connect 4 0 9 0;
#X connect 7 0 17 0;
#X connect 8 0 9 0;
#X connect 11 0 9 0;
#X connect 12 0 14 0;
#X connect 13 0 9 0;
#X connect 14 0 13 0;
#X connect 14 1 11 0;
#X connect 15 0 9 0;
#X connect 16 0 9 0;
#X connect 17 0 9 0;
#X coords 0 -1 1 1 200 150 2 100 100;
#X restore 319 229 pd ARGO;
#N canvas 608 166 249 182 ARGOnOff 0;
#X obj 100 100 tgl 18 1 \$0-SendOnOff \$0-ReceiveOnOff On/Off 20 9
0 12 -4033 -1 -1 1 1;
#X obj 99 39 loadbang;
#X msg 99 62 \; pd dsp 1;
#X obj 100 129 outlet;
#X connect 0 0 3 0;
#X connect 1 0 2 0;
#X coords 0 -1 1 1 65 18 2 100 100;
#X restore 451 119 pd ARGOnOff;
#X obj 451 159 switch~;
#X obj -14 341 active;
#N canvas 424 161 167 191 clic 0;
#X obj 23 17 MouseState;
#X obj 23 82 &;
#X obj 23 100 == 0;
#X obj 23 136 s \$0-SendClic;
#X obj 48 51 t b f;
#X obj 23 118 metro 200;
#X obj 94 17 inlet;
#X connect 0 0 1 0;
#X connect 1 0 2 0;
#X connect 2 0 5 0;
#X connect 4 0 1 0;
#X connect 4 1 1 1;
#X connect 5 0 3 0;
#X connect 6 0 4 0;
#X restore -14 362 pd clic;
#N canvas 350 62 217 269 ARGO 0;
#X obj 101 101 cnv 20 104 34 empty ColorAmpli empty 20 12 0 14 -261299
-1 1.04858e+06;
#X obj 7 155 outlet~;
#X obj 136 104 cnv 10 20 10 empty ColorAmpli AmpliLin+ 1 5 1 14 -261299
-1 1.04858e+06;
#X obj 12 -86 inlet~;
#X obj 61 -85 inlet~;
#X obj 9 98 *~;
#X obj 103 118 hsl 101 12 0 2 0 1 \$0-A ColorAmpli 0 0 7 1 9 -261299
-1 -1 10 0;
#X msg 106 60 set \$1;
#X obj 61 -39 +~;
#X obj 107 2 snapshot~;
#X obj 106 38 change;
#X obj 107 -84 r \$0-SendClic;
#X msg 155 59 label \$1;
#X obj 154 36 tosymbol;
#X obj 195 101 cnv 4 10 4 empty empty empty 20 12 0 14 -258113 -66577
0;
#X obj 101 101 cnv 4 10 4 empty empty empty 20 12 0 14 -1 -66577 0
;
#X obj 101 131 cnv 4 10 4 empty empty empty 20 12 0 14 -1 -66577 0
;
#X obj 24 73 clip~ 0 100;
#X connect 3 0 5 0;
#X connect 4 0 8 0;
#X connect 5 0 1 0;
#X connect 6 0 8 1;
#X connect 6 0 13 0;
#X connect 7 0 6 0;
#X connect 8 0 9 0;
#X connect 8 0 17 0;
#X connect 9 0 10 0;
#X connect 10 0 7 0;
#X connect 11 0 9 0;
#X connect 12 0 6 0;
#X connect 13 0 12 0;
#X connect 17 0 5 1;
#X coords 0 -1 1 1 106 36 1 100 100;
#X restore 200 265 pd ARGO;
#N canvas 350 62 312 366 ARGO 0;
#X obj 101 101 cnv 20 104 34 empty ColorAmpli empty 20 12 0 14 -261299
-1 1.04858e+06;
#X obj 4 253 outlet~;
#X obj 134 104 cnv 10 20 10 empty ColorAmpli Ampli 1 5 1 14 -261299
-1 1.04858e+06;
#X obj 12 -86 inlet~;
#X obj 61 -85 inlet~;
#X obj 6 194 *~;
#X obj 103 118 hsl 101 12 0 1.25 0 1 \$0-A ColorAmpli -80dB 0 7 1 9
-261299 -1 -1 0 0;
#X msg 144 60 set \$1;
#X obj 61 -39 +~;
#X obj 145 2 snapshot~;
#X obj 144 38 change;
#X obj 145 -84 r \$0-SendClic;
#X obj 23 113 pow~ 10000;
#X obj 22 161 /~ 10000;
#X msg 213 61 label \$1;
#X obj 212 38 tosymbol;
#X obj 213 -61 * 80;
#X obj 213 -39 - 80;
#X obj 212 3 sprintf %ddB;
#X obj 195 101 cnv 4 10 4 empty empty empty 20 12 0 14 -258113 -66577
0;
#X obj 101 101 cnv 4 10 4 empty empty empty 20 12 0 14 -1 -66577 0
;
#X obj 101 131 cnv 4 10 4 empty empty empty 20 12 0 14 -1 -66577 0
;
#X text 221 20 -> -80dB..20dB;
#X text 218 -16 -> -80 .. 20;
#X text 31 95 -> 0..1.2;
#X text 32 143 -> 1..100000;
#X text 31 177 -> 0.0001..10 = -80dB..20dB;
#X connect 3 0 5 0;
#X connect 4 0 8 0;
#X connect 5 0 1 0;
#X connect 6 0 16 0;
#X connect 6 0 8 1;
#X connect 7 0 6 0;
#X connect 8 0 9 0;
#X connect 8 0 12 0;
#X connect 9 0 10 0;
#X connect 10 0 7 0;
#X connect 11 0 9 0;
#X connect 12 0 13 0;
#X connect 13 0 5 1;
#X connect 14 0 6 0;
#X connect 15 0 14 0;
#X connect 16 0 17 0;
#X connect 17 0 18 0;
#X connect 18 0 15 0;
#X coords 0 -1 1 1 106 36 1 100 100;
#X restore 85 319 pd ARGO;
#N canvas 350 62 312 366 ARGO 0;
#X obj 101 101 cnv 20 104 34 empty ColorAmpli empty 20 12 0 14 -261299
-1 1.04858e+06;
#X obj 4 253 outlet~;
#X obj 134 104 cnv 10 20 10 empty ColorAmpli Ampli 1 5 1 14 -261299
-1 1.04858e+06;
#X obj 12 -86 inlet~;
#X obj 61 -85 inlet~;
#X obj 6 194 *~;
#X obj 103 118 hsl 101 12 0 1.25 0 1 \$0-A ColorAmpli 12dB 0 7 1 9
-261299 -1 -1 9200 0;
#X msg 144 60 set \$1;
#X obj 61 -39 +~;
#X obj 145 2 snapshot~;
#X obj 144 38 change;
#X obj 145 -84 r \$0-SendClic;
#X obj 23 113 pow~ 10000;
#X obj 22 161 /~ 10000;
#X msg 213 61 label \$1;
#X obj 212 38 tosymbol;
#X obj 213 -61 * 80;
#X obj 213 -39 - 80;
#X obj 212 3 sprintf %ddB;
#X obj 195 101 cnv 4 10 4 empty empty empty 20 12 0 14 -258113 -66577
0;
#X obj 101 101 cnv 4 10 4 empty empty empty 20 12 0 14 -1 -66577 0
;
#X obj 101 131 cnv 4 10 4 empty empty empty 20 12 0 14 -1 -66577 0
;
#X text 221 20 -> -80dB..20dB;
#X text 218 -16 -> -80 .. 20;
#X text 31 95 -> 0..1.2;
#X text 32 143 -> 1..100000;
#X text 31 177 -> 0.0001..10 = -80dB..20dB;
#X connect 3 0 5 0;
#X connect 4 0 8 0;
#X connect 5 0 1 0;
#X connect 6 0 16 0;
#X connect 6 0 8 1;
#X connect 7 0 6 0;
#X connect 8 0 9 0;
#X connect 8 0 12 0;
#X connect 9 0 10 0;
#X connect 10 0 7 0;
#X connect 11 0 9 0;
#X connect 12 0 13 0;
#X connect 13 0 5 1;
#X connect 14 0 6 0;
#X connect 15 0 14 0;
#X connect 16 0 17 0;
#X connect 17 0 18 0;
#X connect 18 0 15 0;
#X coords 0 -1 1 1 106 36 1 100 100;
#X restore 200 318 pd ARGO;
#N canvas 347 177 411 322 ARGO 0;
#X obj 101 101 cnv 12 164 15 empty ColorAmpli empty 20 12 0 14 -261299
-1 1.04858e+06;
#X obj 165 104 cnv 10 20 10 empty ColorAmpli DetectEnvelope 1 5 1 14
-261299 -1 1.04858e+06;
#X obj 101 101 cnv 4 10 4 empty empty empty 20 12 0 14 -1 -66577 0
;
#X obj 101 112 cnv 4 10 4 empty empty empty 20 12 0 14 -1 -66577 0
;
#X obj 50 296 outlet~;
#X obj 51 46 inlet~;
#X obj 51 75 abs~;
#X obj 50 269 lop~ 5;
#X obj 113 102 nbx 4 12 0.1 9999 0 1 \$0-A ColorTime ms 40 7 1 9 -208064
-1 -1 10 256;
#X obj 83 245 /;
#X msg 82 220 1;
#X obj 82 195 t b f;
#X text 108 22 Freq(Hz) = 1 / 2 x pi x Time constant(sec);
#X text 162 37 = 1 / 6.28 x (Time constant(ms) / 1000);
#X text 163 51 = 1 / 6.28 x (Time constant(ms) / 1000);
#X text 164 66 = 1 / 0.00628 x Time constant(ms);
#X obj 82 173 * 0.00628;
#X text 95 136 Env;
#X obj 50 143 *~ 1;
#X connect 5 0 6 0;
#X connect 6 0 18 0;
#X connect 7 0 4 0;
#X connect 8 0 16 0;
#X connect 9 0 7 1;
#X connect 10 0 9 0;
#X connect 11 0 10 0;
#X connect 11 1 9 1;
#X connect 16 0 11 0;
#X connect 18 0 7 0;
#X coords 0 -1 1 1 166 17 1 100 100;
#X restore 298 195 pd ARGO;
#X text 147 193 Envelop Time Constant ->;
#N canvas 243 113 786 549 ARGO 0;
#X obj 99 527 outlet~;
#X obj 261 7 openpanel;
#X msg 289 53 set \$1;
#X msg 194 331 set 0;
#X obj 207 294 sel 1 0;
#X obj 48 5 key;
#X obj 49 28 select 32;
#X obj -57 7 loadbang;
#X obj -47 106 list2symbol;
#X obj 262 27 t b s;
#X obj 366 522 outlet~;
#X msg 13 198 set \$1;
#X obj -14 293 list2symbol;
#X obj 113 5 inlet~;
#X obj 113 28 threshold~ 0.5 5 0.49 5;
#X text 346 63 Les canaux 3 \, 4... d'un fichier Audio de plus de 2
canaux ne sont pas lus.;
#X text 346 36 Lit un fichier Audio Stereo (2 canaux).;
#X text 346 49 Le canal d'un fichier Audio Mono est lu sur la sortie
gauche;
#X text 408 172 A Mono Audio file is read on the left output.;
#X obj 619 13 cnv 15 60 30 empty empty empty 20 12 0 14 -24198 -66577
0;
#N canvas 348 108 563 525 Help 0;
#X obj 10 85 cnv 15 400 120 empty empty empty 20 12 0 14 -233017 -66577
0;
#X text 13 84 Citation;
#X obj 8 348 cnv 15 550 300 empty empty empty 20 12 0 14 -224896 -66577
0;
#X text 12 -41 - Ne lit pas un fichier au format mp3 \, SoundDesigner
II (.SDII ou .SD2);
#X text 29 30 error: soundfiler_read: x.aiff: unknown or bad header
format;
#X text 16 54 Solution: ouvrir puis sauver le fichier au format aiff
avec Audacity;
#X text 15 -9 - Ne lit pas un fichier au format aiff "Entier petit
boutien" comme les pistes d'un CD Audio copiées avec le finder du Mac.
Les messages d'erreur s'affichent:;
#X text 29 41 error: dsp: xxx.aiff: unknown or bad header format;
#X text 11 -60 - Lit un fichier Audio au format aiff \, wave;
#X text 20 606 Erreur dans la fenêtre Pd:;
#X text 11 249 - Peut Ouvrir automatiquement 1 fichier qui se trouve
dans le même dossier que lui \, quelquesoit l'emplacement du dossier.
Pour cela ouvrir le module et taper le nom du fichier (sans chemin
d'accés) dans le message. Sauver le patch. Fermer le patch. Ré-ouvrir
le patch. Le dossier contenant le module ARGO et le fichier image est
ainsi transportable.;
#X text 11 208 - Si le Patch est sauvé avec 1 Player contenant un nom
de fichier Audio \, ce fichier sera lu automatiquement à la prochaine
ouverture s'il n'a pas changé d'emplacement.;
#X text 186 466 If the sample rate of pd is set to 44100 \, files having
the sample rates of 44100 are correctly played \, other files will
be transposed.;
#X text 188 439 WARNING The sample rate of the output depends on the
system sample rate of pd:;
#X text 16 355 - ATTENTION Le taux d'échantillonnage de la lecture
du fichier dépends du taux d'échantillonnage de Pd.;
#X text 28 382 Si le taux d'échantillonnage de Pd est de 44100 (Menu
Preferences -> Audio Settings...) \, les fichiers échantillonnés à
44100 Hz sont lus correctement \, sinon ils sont transposés.;
#X text 32 99 The soundfiler object reads and writes floating point
arrays to binary soundfiles which may contain 2 or 3 byte fixed point
or 4 byte floating point samples in wave \, aiff \, or next formats
(no floating point aiff \, though.). The number of channels of the
soundfile need not match the number of arrays given (extras are dropped
and unsupplied channels are zeroed out.);
#X restore 626 19 pd Help;
#X text 82 73 Trig Decl;
#X obj -47 172 soundfiler;
#X msg -47 148 read -resize \$1 \$2 \$3;
#X obj -47 129 pack s s s;
#X obj -57 41 t b b b b;
#X obj 282 76 / 44100;
#X obj 383 237 cnv 15 290 60 empty empty empty 20 12 0 14 -258113 -66577
0;
#X text 386 241 File < 4e+06 samples;
#X text 418 253 < 90 sec at 44100 samples/sec;
#N canvas 342 217 677 352 RenameArrays 0;
#X obj -496 -192 realtime;
#X obj -496 -168 * 100;
#X obj -496 -145 int;
#X obj -549 -191 bng 15 250 50 0 empty empty empty 17 7 0 10 -262144
-1 -1;
#X obj -496 -98 tosymbol;
#X obj -496 -120 sprintf A%d;
#X symbolatom -433 -71 10 0 0 0 - - -;
#X obj -480 39 pack s s;
#X msg -480 64 \; \$1 rename \$2;
#X obj -480 13 tosymbol;
#X msg -536 -43 set \$1;
#X text -501 68 (1);
#X text -558 -45 (2);
#X text -432 -8 (3);
#X obj -392 -219 bng 15 250 50 0 empty empty empty 17 7 0 10 -262144
-1 -1;
#X text -360 -201 array -> Voir:;
#X text -360 -188 Help Browser/2.control.examples/15.array.pd;
#X text -360 -175 Help Browser/2.control.examples/16.more.arrays.pd
;
#X text -360 -163 Help Browser/5.reference/all_about_arrays.pd;
#X obj -359 -99 tosymbol;
#X symbolatom -272 -73 10 0 0 0 - - -;
#X obj -343 38 pack s s;
#X msg -343 63 \; \$1 rename \$2;
#X obj -343 12 tosymbol;
#X msg -399 -44 set \$1;
#X text -364 68 (1);
#X text -421 -46 (2);
#X text -306 -11 (3);
#X obj -359 -121 sprintf B%d;
#X obj -379 103 outlet;
#X obj -515 101 outlet;
#X obj -450 -220 inlet;
#X text -255 26 Démarrer en nommant les arrays (graph) A et B et en
mettant A et B dans (3);
#X text -257 -51 PROIBLEME: Comment dupliquer un MiniModule comportant
un ou plusieurs arrays;
#X text -259 -23 SOLUTION:;
#X text -254 -7 (1) Renommer les 2 arrays;
#X text -255 8 (2) Renomme le message qui renomme les 2 arrays;
#X obj -221 101 outlet;
#X msg -222 76 set \$1;
#X obj -166 100 outlet;
#X msg -167 70 set \$1;
#X obj -362 -72 t a b a a;
#X obj -499 -71 t a b a a;
#X msg -480 -9 A5086;
#X msg -343 -10 B5086;
#X connect 0 0 1 0;
#X connect 1 0 2 0;
#X connect 2 0 5 0;
#X connect 2 0 28 0;
#X connect 3 0 2 0;
#X connect 4 0 6 0;
#X connect 4 0 42 0;
#X connect 5 0 4 0;
#X connect 7 0 8 0;
#X connect 9 0 7 0;
#X connect 10 0 43 0;
#X connect 10 0 37 0;
#X connect 14 0 0 1;
#X connect 19 0 20 0;
#X connect 19 0 41 0;
#X connect 21 0 22 0;
#X connect 23 0 21 0;
#X connect 24 0 44 0;
#X connect 24 0 39 0;
#X connect 28 0 19 0;
#X connect 31 0 0 1;
#X connect 41 0 24 0;
#X connect 41 0 29 0;
#X connect 41 1 44 0;
#X connect 41 2 21 1;
#X connect 41 3 40 0;
#X connect 42 0 10 0;
#X connect 42 0 30 0;
#X connect 42 1 43 0;
#X connect 42 2 7 1;
#X connect 42 3 38 0;
#X connect 43 0 9 0;
#X connect 44 0 23 0;
#X restore -23 66 pd RenameArrays;
#X obj 366 500 hip~ 5;
#X obj 99 505 hip~ 5;
#X obj 147 356 * 100000;
#X obj -17 340 snapshot~;
#X obj -17 383 change;
#X obj -17 318 r \$0-SendClic;
#X obj -17 362 / 1;
#X obj -18 420 > 1;
#X obj -18 441 sel 1;
#X obj -18 489 spigot;
#X msg 89 52 1;
#X obj 127 335 / 100;
#X msg 117 314 10000;
#X obj 117 293 t b f;
#X obj 389 217 cnv 4 10 4 empty empty empty 20 12 0 14 -1 -66577 0
;
#X obj 101 217 cnv 4 10 4 empty empty empty 20 12 0 14 -1 -66577 0
;
#X msg 268 417 stop;
#X obj -18 513 t b b;
#X msg 165 417 1;
#X obj -18 467 t b b b;
#X msg 122 53 0;
#X obj 99 481 tabread4~;
#X obj 365 478 tabread4~;
#X obj 155 52 t b b;
#X obj -22 238 cnv 15 400 50 empty empty empty 20 12 0 14 -260097 -66577
0;
#X text -20 237 Nom du fichier / File name;
#X obj 292 331 sel 0 1;
#X obj 148 379 t b f;
#X msg 197 418 4.41e+08;
#X msg 196 379 set 4.41e+08;
#X msg 281 378 set -4.41e+08;
#X text 352 418 list2symbol pour les noms de fichier avec espace;
#X obj -72 439 sel 1;
#X obj -72 487 spigot;
#X obj -72 511 t b b;
#X obj -72 461 t b b b;
#X obj -72 418 < 0;
#X msg 114 417 219939;
#X msg 96 381 set \$1;
#X obj 423 380 spigot;
#X obj 454 359 expr 1-$f1;
#X obj 373 378 spigot;
#X obj 194 454 vline~;
#X obj 201 4 bang;
#X text 399 107 <- Clic le nom du fichier pour le changer;
#X text 400 118 <- Click to change the file name;
#X obj 246 332 spigot;
#X obj 275 295 t b f f f;
#X obj 101 101 cnv 15 298 28 empty empty empty 20 12 0 14 -262144 -66577
0;
#X obj 103 170 hsl 295 40 0 1 0 0 \$0-A \$0-B empty 0 0 0 10 -188398
-1 -1 27256 1;
#N canvas 0 22 1149 303 (subpatch) 0;
#X array B5086 219939 float 2;
#X coords 0 1 219939 -1 300 40 1;
#X restore 100 170 graph;
#X obj 103 130 hsl 295 40 0 1 0 0 \$0-A \$0-B empty 0 0 0 10 -188398
-1 -1 27256 1;
#N canvas 0 22 844 357 (subpatch) 0;
#X array A5086 219939 float 2;
#X coords 0 1 219939 -1 300 40 1;
#X restore 100 130 graph;
#X obj 368 103 cnv 10 20 10 empty empty Play 1 5 1 14 -262144 -1 1.04858e+06
;
#X obj 241 101 bng 12 250 50 0 \$0-A \$0-B Zero 15 7 1 9 -262144 -1
-1;
#X obj 197 101 tgl 12 1 \$0-A \$0-B Loop 15 6 1 9 -262144 -1 -1 1 1
;
#X obj 282 101 nbx 4 12 0 1e+08 0 1 \$0-A \$0-B sec 40 7 1 9 -208064
-1 -1 4.98728 256;
#X obj 100 101 bng 12 250 50 0 \$0-A \$0-B empty 14 6 1 9 -262144 -1
-1;
#X obj 103 115 hradio 14 1 0 20 empty empty empty 0 6 0 8 -262144 -1
-1 0;
#X symbolatom 100 114 49 0 0 0 - - -;
#X obj 123 101 tgl 12 1 \$0-A \$0-B Play(Space) 14 6 1 9 -262144 -1
-1 1 1;
#X obj 182 210 nbx 5 12 1 1000 0 1 \$0-A ColorTime Speed 47 7 1 9 -208064
-1 -1 68 256;
#X obj 263 210 tgl 12 1 \$0-A \$0-B Reverse 15 7 1 9 -208064 -1 -1
0 1;
#X text 409 158 Reads an Stereo Audio file (2 channels).;
#X text 405 90 17 5 2009;
#X obj 101 101 cnv 2 10 4 empty empty empty 20 12 0 14 -1 -66577 0
;
#X obj 102 102 cnv 2 8 2 empty empty empty 20 12 0 14 -262144 -66577
0;
#X msg -11 253 Eau3mono.wav;
#X connect 1 0 9 0;
#X connect 2 0 90 0;
#X connect 3 0 91 0;
#X connect 4 0 33 0;
#X connect 4 1 3 0;
#X connect 4 1 47 0;
#X connect 5 0 6 0;
#X connect 6 0 91 0;
#X connect 7 0 25 0;
#X connect 8 0 24 0;
#X connect 9 0 90 0;
#X connect 9 1 2 0;
#X connect 11 0 98 0;
#X connect 12 0 2 0;
#X connect 13 0 14 0;
#X connect 14 0 88 0;
#X connect 22 0 26 0;
#X connect 22 0 37 1;
#X connect 22 0 69 0;
#X connect 23 0 22 0;
#X connect 24 0 23 0;
#X connect 25 0 90 0;
#X connect 25 1 98 0;
#X connect 25 2 30 0;
#X connect 26 0 87 0;
#X connect 30 0 24 1;
#X connect 30 1 24 2;
#X connect 30 2 52 0;
#X connect 30 3 53 0;
#X connect 31 0 10 0;
#X connect 32 0 0 0;
#X connect 33 0 58 0;
#X connect 34 0 37 0;
#X connect 35 0 67 0;
#X connect 35 0 38 0;
#X connect 35 0 80 0;
#X connect 35 0 82 0;
#X connect 36 0 34 0;
#X connect 37 0 35 0;
#X connect 38 0 39 0;
#X connect 39 0 50 0;
#X connect 40 0 48 0;
#X connect 41 0 91 0;
#X connect 42 0 33 0;
#X connect 43 0 42 0;
#X connect 44 0 43 0;
#X connect 44 1 42 1;
#X connect 47 0 73 0;
#X connect 48 0 33 0;
#X connect 48 1 41 0;
#X connect 49 0 73 0;
#X connect 50 0 40 0;
#X connect 50 1 49 0;
#X connect 50 2 51 0;
#X connect 51 0 91 0;
#X connect 52 0 32 0;
#X connect 53 0 31 0;
#X connect 54 0 91 0;
#X connect 54 1 85 0;
#X connect 57 0 60 0;
#X connect 57 1 61 0;
#X connect 58 0 59 0;
#X connect 58 1 73 1;
#X connect 59 0 73 0;
#X connect 60 0 59 0;
#X connect 61 0 59 0;
#X connect 63 0 66 0;
#X connect 64 0 65 0;
#X connect 65 0 33 0;
#X connect 65 1 41 0;
#X connect 66 0 64 0;
#X connect 66 1 68 0;
#X connect 66 2 51 0;
#X connect 67 0 63 0;
#X connect 68 0 73 0;
#X connect 69 0 68 0;
#X connect 70 0 49 0;
#X connect 71 0 70 1;
#X connect 72 0 68 0;
#X connect 73 0 34 0;
#X connect 73 0 52 0;
#X connect 73 0 53 0;
#X connect 74 0 1 0;
#X connect 77 0 33 0;
#X connect 78 0 77 0;
#X connect 78 1 57 0;
#X connect 78 2 72 1;
#X connect 78 3 71 0;
#X connect 85 0 3 0;
#X connect 85 0 72 0;
#X connect 85 0 70 0;
#X connect 86 0 40 1;
#X connect 86 0 64 1;
#X connect 88 0 54 0;
#X connect 89 0 74 0;
#X connect 90 0 8 0;
#X connect 90 0 11 0;
#X connect 91 0 4 0;
#X connect 91 0 77 1;
#X connect 92 0 44 0;
#X connect 93 0 78 0;
#X connect 98 0 12 0;
#X coords 0 -1 1 1 300 122 2 100 100;
#X restore -106 -46 pd ARGO;
#N canvas 243 113 786 549 ARGO 0;
#X obj 99 527 outlet~;
#X obj 261 7 openpanel;
#X msg 289 53 set \$1;
#X msg 194 331 set 0;
#X obj 207 294 sel 1 0;
#X obj 48 5 key;
#X obj 49 28 select 32;
#X obj -57 7 loadbang;
#X obj -47 106 list2symbol;
#X obj 262 27 t b s;
#X obj 366 522 outlet~;
#X msg 13 198 set \$1;
#X obj -14 293 list2symbol;
#X obj 113 5 inlet~;
#X obj 113 28 threshold~ 0.5 5 0.49 5;
#X text 346 63 Les canaux 3 \, 4... d'un fichier Audio de plus de 2
canaux ne sont pas lus.;
#X text 346 36 Lit un fichier Audio Stereo (2 canaux).;
#X text 346 49 Le canal d'un fichier Audio Mono est lu sur la sortie
gauche;
#X text 408 172 A Mono Audio file is read on the left output.;
#X obj 619 13 cnv 15 60 30 empty empty empty 20 12 0 14 -24198 -66577
0;
#N canvas 348 108 563 525 Help 0;
#X obj 10 85 cnv 15 400 120 empty empty empty 20 12 0 14 -233017 -66577
0;
#X text 13 84 Citation;
#X obj 8 348 cnv 15 550 300 empty empty empty 20 12 0 14 -224896 -66577
0;
#X text 12 -41 - Ne lit pas un fichier au format mp3 \, SoundDesigner
II (.SDII ou .SD2);
#X text 29 30 error: soundfiler_read: x.aiff: unknown or bad header
format;
#X text 16 54 Solution: ouvrir puis sauver le fichier au format aiff
avec Audacity;
#X text 15 -9 - Ne lit pas un fichier au format aiff "Entier petit
boutien" comme les pistes d'un CD Audio copiées avec le finder du Mac.
Les messages d'erreur s'affichent:;
#X text 29 41 error: dsp: xxx.aiff: unknown or bad header format;
#X text 11 -60 - Lit un fichier Audio au format aiff \, wave;
#X text 20 606 Erreur dans la fenêtre Pd:;
#X text 11 249 - Peut Ouvrir automatiquement 1 fichier qui se trouve
dans le même dossier que lui \, quelquesoit l'emplacement du dossier.
Pour cela ouvrir le module et taper le nom du fichier (sans chemin
d'accés) dans le message. Sauver le patch. Fermer le patch. Ré-ouvrir
le patch. Le dossier contenant le module ARGO et le fichier image est
ainsi transportable.;
#X text 11 208 - Si le Patch est sauvé avec 1 Player contenant un nom
de fichier Audio \, ce fichier sera lu automatiquement à la prochaine
ouverture s'il n'a pas changé d'emplacement.;
#X text 186 466 If the sample rate of pd is set to 44100 \, files having
the sample rates of 44100 are correctly played \, other files will
be transposed.;
#X text 188 439 WARNING The sample rate of the output depends on the
system sample rate of pd:;
#X text 16 355 - ATTENTION Le taux d'échantillonnage de la lecture
du fichier dépends du taux d'échantillonnage de Pd.;
#X text 28 382 Si le taux d'échantillonnage de Pd est de 44100 (Menu
Preferences -> Audio Settings...) \, les fichiers échantillonnés à
44100 Hz sont lus correctement \, sinon ils sont transposés.;
#X text 32 99 The soundfiler object reads and writes floating point
arrays to binary soundfiles which may contain 2 or 3 byte fixed point
or 4 byte floating point samples in wave \, aiff \, or next formats
(no floating point aiff \, though.). The number of channels of the
soundfile need not match the number of arrays given (extras are dropped
and unsupplied channels are zeroed out.);
#X restore 626 19 pd Help;
#X text 82 73 Trig Decl;
#X obj -47 172 soundfiler;
#X msg -47 148 read -resize \$1 \$2 \$3;
#X obj -47 129 pack s s s;
#X obj -57 41 t b b b b;
#X obj 282 76 / 44100;
#X obj 383 237 cnv 15 290 60 empty empty empty 20 12 0 14 -258113 -66577
0;
#X text 386 241 File < 4e+06 samples;
#X text 418 253 < 90 sec at 44100 samples/sec;
#N canvas 342 217 677 352 RenameArrays 0;
#X obj -496 -192 realtime;
#X obj -496 -168 * 100;
#X obj -496 -145 int;
#X obj -549 -191 bng 15 250 50 0 empty empty empty 17 7 0 10 -262144
-1 -1;
#X obj -496 -98 tosymbol;
#X obj -496 -120 sprintf A%d;
#X symbolatom -433 -71 10 0 0 0 - - -;
#X obj -480 39 pack s s;
#X msg -480 64 \; \$1 rename \$2;
#X obj -480 13 tosymbol;
#X msg -536 -43 set \$1;
#X text -501 68 (1);
#X text -558 -45 (2);
#X text -432 -8 (3);
#X obj -392 -219 bng 15 250 50 0 empty empty empty 17 7 0 10 -262144
-1 -1;
#X text -360 -201 array -> Voir:;
#X text -360 -188 Help Browser/2.control.examples/15.array.pd;
#X text -360 -175 Help Browser/2.control.examples/16.more.arrays.pd
;
#X text -360 -163 Help Browser/5.reference/all_about_arrays.pd;
#X obj -359 -99 tosymbol;
#X symbolatom -272 -73 10 0 0 0 - - -;
#X obj -343 38 pack s s;
#X msg -343 63 \; \$1 rename \$2;
#X obj -343 12 tosymbol;
#X msg -399 -44 set \$1;
#X text -364 68 (1);
#X text -421 -46 (2);
#X text -306 -11 (3);
#X obj -359 -121 sprintf B%d;
#X obj -379 103 outlet;
#X obj -515 101 outlet;
#X obj -450 -220 inlet;
#X text -255 26 Démarrer en nommant les arrays (graph) A et B et en
mettant A et B dans (3);
#X text -257 -51 PROIBLEME: Comment dupliquer un MiniModule comportant
un ou plusieurs arrays;
#X text -259 -23 SOLUTION:;
#X text -254 -7 (1) Renommer les 2 arrays;
#X text -255 8 (2) Renomme le message qui renomme les 2 arrays;
#X obj -221 101 outlet;
#X msg -222 76 set \$1;
#X obj -166 100 outlet;
#X msg -167 70 set \$1;
#X obj -362 -72 t a b a a;
#X obj -499 -71 t a b a a;
#X msg -480 -9 A7066;
#X msg -343 -10 B7066;
#X connect 0 0 1 0;
#X connect 1 0 2 0;
#X connect 2 0 5 0;
#X connect 2 0 28 0;
#X connect 3 0 2 0;
#X connect 4 0 6 0;
#X connect 4 0 42 0;
#X connect 5 0 4 0;
#X connect 7 0 8 0;
#X connect 9 0 7 0;
#X connect 10 0 43 0;
#X connect 10 0 37 0;
#X connect 14 0 0 1;
#X connect 19 0 20 0;
#X connect 19 0 41 0;
#X connect 21 0 22 0;
#X connect 23 0 21 0;
#X connect 24 0 44 0;
#X connect 24 0 39 0;
#X connect 28 0 19 0;
#X connect 31 0 0 1;
#X connect 41 0 24 0;
#X connect 41 0 29 0;
#X connect 41 1 44 0;
#X connect 41 2 21 1;
#X connect 41 3 40 0;
#X connect 42 0 10 0;
#X connect 42 0 30 0;
#X connect 42 1 43 0;
#X connect 42 2 7 1;
#X connect 42 3 38 0;
#X connect 43 0 9 0;
#X connect 44 0 23 0;
#X restore -23 66 pd RenameArrays;
#X obj 366 500 hip~ 5;
#X obj 99 505 hip~ 5;
#X obj 147 356 * 100000;
#X obj -17 340 snapshot~;
#X obj -17 383 change;
#X obj -17 318 r \$0-SendClic;
#X obj -17 362 / 1;
#X obj -18 420 > 1;
#X obj -18 441 sel 1;
#X obj -18 489 spigot;
#X msg 89 52 1;
#X obj 127 335 / 100;
#X msg 117 314 10000;
#X obj 117 293 t b f;
#X obj 389 217 cnv 4 10 4 empty empty empty 20 12 0 14 -1 -66577 0
;
#X obj 101 217 cnv 4 10 4 empty empty empty 20 12 0 14 -1 -66577 0
;
#X msg 268 417 stop;
#X obj -18 513 t b b;
#X msg 165 417 1;
#X obj -18 467 t b b b;
#X msg 122 53 0;
#X obj 99 481 tabread4~;
#X obj 365 478 tabread4~;
#X obj 155 52 t b b;
#X obj -22 238 cnv 15 400 50 empty empty empty 20 12 0 14 -260097 -66577
0;
#X text -20 237 Nom du fichier / File name;
#X obj 292 331 sel 0 1;
#X obj 148 379 t b f;
#X msg 197 418 4.41e+08;
#X msg 196 379 set 4.41e+08;
#X msg 281 378 set -4.41e+08;
#X text 352 418 list2symbol pour les noms de fichier avec espace;
#X obj -72 439 sel 1;
#X obj -72 487 spigot;
#X obj -72 511 t b b;
#X obj -72 461 t b b b;
#X obj -72 418 < 0;
#X msg 114 417 153402;
#X msg 96 381 set \$1;
#X obj 423 380 spigot;
#X obj 454 359 expr 1-$f1;
#X obj 373 378 spigot;
#X obj 194 454 vline~;
#X obj 201 4 bang;
#X text 399 107 <- Clic le nom du fichier pour le changer;
#X text 400 118 <- Click to change the file name;
#X obj 246 332 spigot;
#X obj 275 295 t b f f f;
#X obj 101 101 cnv 15 298 28 empty empty empty 20 12 0 14 -262144 -66577
0;
#X obj 103 170 hsl 295 40 0 1 0 0 \$0-A \$0-B empty 0 0 0 10 -188398
-1 -1 3376 1;
#N canvas 0 22 1149 303 (subpatch) 0;
#X array B7066 153402 float 2;
#X coords 0 1 153402 -1 300 40 1;
#X restore 100 170 graph;
#X obj 103 130 hsl 295 40 0 1 0 0 \$0-A \$0-B empty 0 0 0 10 -188398
-1 -1 3376 1;
#N canvas 0 22 844 357 (subpatch) 0;
#X array A7066 153402 float 2;
#X coords 0 1 153402 -1 300 40 1;
#X restore 100 130 graph;
#X obj 368 103 cnv 10 20 10 empty empty Play 1 5 1 14 -262144 -1 1.04858e+06
;
#X obj 241 101 bng 12 250 50 0 \$0-A \$0-B Zero 15 7 1 9 -262144 -1
-1;
#X obj 197 101 tgl 12 1 \$0-A \$0-B Loop 15 6 1 9 -262144 -1 -1 1 1
;
#X obj 282 101 nbx 4 12 0 1e+08 0 1 \$0-A \$0-B sec 40 7 1 9 -208064
-1 -1 3.4785 256;
#X obj 100 101 bng 12 250 50 0 \$0-A \$0-B empty 14 6 1 9 -262144 -1
-1;
#X obj 103 115 hradio 14 1 0 20 empty empty empty 0 6 0 8 -262144 -1
-1 0;
#X symbolatom 100 114 49 0 0 0 - - -;
#X obj 123 101 tgl 12 1 \$0-A \$0-B Play(Space) 14 6 1 9 -262144 -1
-1 1 1;
#X obj 182 210 nbx 5 12 1 1000 0 1 \$0-A ColorTime Speed 47 7 1 9 -208064
-1 -1 100 256;
#X obj 263 210 tgl 12 1 \$0-A \$0-B Reverse 15 7 1 9 -208064 -1 -1
0 1;
#X text 409 158 Reads an Stereo Audio file (2 channels).;
#X text 405 90 17 5 2009;
#X obj 101 101 cnv 2 10 4 empty empty empty 20 12 0 14 -1 -66577 0
;
#X obj 102 102 cnv 2 8 2 empty empty empty 20 12 0 14 -262144 -66577
0;
#X msg -11 253 drumLoop.aiff;
#X connect 1 0 9 0;
#X connect 2 0 90 0;
#X connect 3 0 91 0;
#X connect 4 0 33 0;
#X connect 4 1 3 0;
#X connect 4 1 47 0;
#X connect 5 0 6 0;
#X connect 6 0 91 0;
#X connect 7 0 25 0;
#X connect 8 0 24 0;
#X connect 9 0 90 0;
#X connect 9 1 2 0;
#X connect 11 0 98 0;
#X connect 12 0 2 0;
#X connect 13 0 14 0;
#X connect 14 0 88 0;
#X connect 22 0 26 0;
#X connect 22 0 37 1;
#X connect 22 0 69 0;
#X connect 23 0 22 0;
#X connect 24 0 23 0;
#X connect 25 0 90 0;
#X connect 25 1 98 0;
#X connect 25 2 30 0;
#X connect 26 0 87 0;
#X connect 30 0 24 1;
#X connect 30 1 24 2;
#X connect 30 2 52 0;
#X connect 30 3 53 0;
#X connect 31 0 10 0;
#X connect 32 0 0 0;
#X connect 33 0 58 0;
#X connect 34 0 37 0;
#X connect 35 0 67 0;
#X connect 35 0 38 0;
#X connect 35 0 80 0;
#X connect 35 0 82 0;
#X connect 36 0 34 0;
#X connect 37 0 35 0;
#X connect 38 0 39 0;
#X connect 39 0 50 0;
#X connect 40 0 48 0;
#X connect 41 0 91 0;
#X connect 42 0 33 0;
#X connect 43 0 42 0;
#X connect 44 0 43 0;
#X connect 44 1 42 1;
#X connect 47 0 73 0;
#X connect 48 0 33 0;
#X connect 48 1 41 0;
#X connect 49 0 73 0;
#X connect 50 0 40 0;
#X connect 50 1 49 0;
#X connect 50 2 51 0;
#X connect 51 0 91 0;
#X connect 52 0 32 0;
#X connect 53 0 31 0;
#X connect 54 0 91 0;
#X connect 54 1 85 0;
#X connect 57 0 60 0;
#X connect 57 1 61 0;
#X connect 58 0 59 0;
#X connect 58 1 73 1;
#X connect 59 0 73 0;
#X connect 60 0 59 0;
#X connect 61 0 59 0;
#X connect 63 0 66 0;
#X connect 64 0 65 0;
#X connect 65 0 33 0;
#X connect 65 1 41 0;
#X connect 66 0 64 0;
#X connect 66 1 68 0;
#X connect 66 2 51 0;
#X connect 67 0 63 0;
#X connect 68 0 73 0;
#X connect 69 0 68 0;
#X connect 70 0 49 0;
#X connect 71 0 70 1;
#X connect 72 0 68 0;
#X connect 73 0 34 0;
#X connect 73 0 52 0;
#X connect 73 0 53 0;
#X connect 74 0 1 0;
#X connect 77 0 33 0;
#X connect 78 0 77 0;
#X connect 78 1 57 0;
#X connect 78 2 72 1;
#X connect 78 3 71 0;
#X connect 85 0 3 0;
#X connect 85 0 72 0;
#X connect 85 0 70 0;
#X connect 86 0 40 1;
#X connect 86 0 64 1;
#X connect 88 0 54 0;
#X connect 89 0 74 0;
#X connect 90 0 8 0;
#X connect 90 0 11 0;
#X connect 91 0 4 0;
#X connect 91 0 77 1;
#X connect 92 0 44 0;
#X connect 93 0 78 0;
#X connect 98 0 12 0;
#X coords 0 -1 1 1 300 122 2 100 100;
#X restore 205 -46 pd ARGO;
#X connect 4 0 5 0;
#X connect 6 0 7 0;
#X connect 8 0 10 0;
#X connect 9 0 0 0;
#X connect 10 0 0 1;
#X connect 11 0 8 1;
#X connect 11 0 3 0;
#X connect 13 0 8 0;
#X connect 13 1 8 0;
#X connect 14 0 11 0;
#X connect 14 0 9 0;
#X connect 14 1 11 0;
#X connect 14 1 9 0;
