#N canvas 1415 418 686 485 10;
#X obj 38 41 inlet;
#X obj 297 89 Rgui_Stogui_offset \$1_gain 100;
#X msg 355 312 set \$1;
#X obj 355 218 route set;
#X obj 39 153 r \$1_fromgui;
#X obj 355 196 r \$1_gui;
#X obj 355 337 s \$1_togui;
#X obj 155 253 makefilename \$2;
#X obj 155 233 f 1;
#X obj 38 66 t f f f;
#X obj 104 213 t s b;
#X obj 39 172 unpack 0 s;
#X obj 104 191 uglifysymbol;
#X obj 104 273 pack s s;
#X text 336 177 ?? i know use it to set the data from inchan;
#X obj 462 265 symbol;
#X obj 462 286 beautifysymbol;
#X obj 355 244 route float bang;
#X obj 355 271 t f;
#X floatatom 452 334 5 0 0 0 - - -;
#X msg 104 296 \; \$2/DST \$1;
#X obj 84 129 gui_sr \$1_pre \$2/PRE;
#X obj 38 89 gui_sr_offset \$1_gain \$2/GAIN 100;
#X connect 0 0 9 0;
#X connect 2 0 6 0;
#X connect 3 0 17 0;
#X connect 3 1 17 0;
#X connect 4 0 11 0;
#X connect 5 0 3 0;
#X connect 7 0 13 1;
#X connect 8 0 7 0;
#X connect 9 0 22 0;
#X connect 9 1 8 1;
#X connect 9 2 21 0;
#X connect 10 0 13 0;
#X connect 10 1 8 0;
#X connect 11 1 12 0;
#X connect 12 0 10 0;
#X connect 13 0 20 0;
#X connect 15 0 16 0;
#X connect 16 0 2 0;
#X connect 17 0 18 0;
#X connect 17 1 18 0;
#X connect 17 2 15 0;
#X connect 18 0 2 0;
