#N canvas 6 50 1435 661 10;
#X obj 152 170 textfile;
#X msg 182 113 rewind;
#X obj 145 55 bng 15 250 50 0 empty empty empty 17 7 0 10 -262144 -1
-1;
#X obj 145 77 t b b b;
#X obj 24 426 v p1k1;
#X obj 24 451 s p1k1;
#X obj 24 395 t b f;
#X obj 54 483 t b f;
#X obj 87 390 t b f;
#X obj 118 477 t b f;
#X obj 54 514 v p1k2;
#X obj 54 539 s p1k2;
#X obj 87 421 v p1k3;
#X obj 87 446 s p1k3;
#X obj 118 508 v p1k4;
#X obj 118 533 s p1k4;
#X obj 149 396 t b f;
#X obj 179 484 t b f;
#X obj 212 391 t b f;
#X obj 243 478 t b f;
#X obj 149 427 v p2k1;
#X obj 179 515 v p2k2;
#X obj 179 540 s p2k2;
#X obj 212 422 v p2k3;
#X obj 243 509 v p2k4;
#X obj 243 534 s p2k4;
#X obj 212 447 s p2k3;
#X obj 149 452 s p2k1;
#X obj 278 390 t b f;
#X obj 308 478 t b f;
#X obj 341 385 t b f;
#X obj 372 472 t b f;
#X obj 403 391 t b f;
#X obj 433 479 t b f;
#X obj 451 389 t b f;
#X obj 497 473 t b f;
#X obj 278 421 v p3k1;
#X obj 278 446 s p3k1;
#X obj 308 509 v p3k2;
#X obj 308 534 s p3k2;
#X obj 341 416 v p3k3;
#X obj 341 441 s p3k3;
#X obj 372 503 v p3k4;
#X obj 372 528 s p3k4;
#X obj 403 422 v p4k1;
#X obj 402 446 s p4k1;
#X obj 433 510 v p4k2;
#X obj 433 534 s p4k2;
#X obj 451 420 v p4k3;
#X obj 451 445 s p4k3;
#X obj 497 504 v p4k4;
#X obj 497 529 s p4k4;
#X msg 245 105 read ../pagevals.txt;
#X obj 145 31 inlet;
#X obj 207 209 unpack 0 0 0 0 0 0 0 0 0 0 0 0 0 0 0 0 0 0 0 0 0 0 0
0 0 0 0 0 0 0 0 0;
#X obj 532 382 t b f;
#X obj 562 470 t b f;
#X obj 595 377 t b f;
#X obj 626 464 t b f;
#X obj 657 383 t b f;
#X obj 687 471 t b f;
#X obj 720 378 t b f;
#X obj 751 465 t b f;
#X obj 786 377 t b f;
#X obj 816 465 t b f;
#X obj 849 372 t b f;
#X obj 880 459 t b f;
#X obj 911 378 t b f;
#X obj 941 466 t b f;
#X obj 959 376 t b f;
#X obj 1005 460 t b f;
#X obj 532 413 v p5k1;
#X obj 532 438 s p5k1;
#X obj 562 501 v p5k2;
#X obj 562 526 s p5k2;
#X obj 595 408 v p5k3;
#X obj 595 433 s p5k3;
#X obj 626 495 v p5k4;
#X obj 626 520 s p5k4;
#X obj 657 414 v p6k1;
#X obj 657 439 s p6k1;
#X obj 687 502 v p6k2;
#X obj 687 527 s p6k2;
#X obj 720 409 v p6k3;
#X obj 720 434 s p6k3;
#X obj 751 496 v p6k4;
#X obj 751 521 s p6k4;
#X obj 786 408 v p7k1;
#X obj 786 433 s p7k1;
#X obj 816 496 v p7k2;
#X obj 816 521 s p7k2;
#X obj 880 515 s p7k4;
#X obj 880 490 v p7k4;
#X obj 849 403 v p7k3;
#X obj 849 428 s p7k3;
#X obj 911 409 v p8k1;
#X obj 910 433 s p8k1;
#X obj 959 407 v p8k3;
#X obj 959 432 s p8k3;
#X obj 941 497 v p8k2;
#X obj 941 521 s p8k2;
#X obj 1005 491 v p8k4;
#X obj 1005 516 s p8k4;
#X connect 0 0 54 0;
#X connect 1 0 0 0;
#X connect 2 0 3 0;
#X connect 3 0 0 0;
#X connect 3 1 1 0;
#X connect 3 2 52 0;
#X connect 4 0 5 0;
#X connect 6 0 4 0;
#X connect 6 1 4 0;
#X connect 7 0 10 0;
#X connect 7 1 10 0;
#X connect 8 0 12 0;
#X connect 8 1 12 0;
#X connect 9 0 14 0;
#X connect 9 1 14 0;
#X connect 10 0 11 0;
#X connect 12 0 13 0;
#X connect 14 0 15 0;
#X connect 16 0 20 0;
#X connect 16 1 20 0;
#X connect 17 0 21 0;
#X connect 17 1 21 0;
#X connect 18 0 23 0;
#X connect 18 1 23 0;
#X connect 19 0 24 0;
#X connect 19 1 24 0;
#X connect 20 0 27 0;
#X connect 21 0 22 0;
#X connect 23 0 26 0;
#X connect 24 0 25 0;
#X connect 28 0 36 0;
#X connect 28 1 36 0;
#X connect 29 0 38 0;
#X connect 29 1 38 0;
#X connect 30 0 40 0;
#X connect 30 1 40 0;
#X connect 31 0 42 0;
#X connect 31 1 42 0;
#X connect 32 0 44 0;
#X connect 32 1 44 0;
#X connect 33 0 46 0;
#X connect 33 1 46 0;
#X connect 34 0 48 0;
#X connect 34 1 48 0;
#X connect 35 0 50 0;
#X connect 35 1 50 0;
#X connect 36 0 37 0;
#X connect 38 0 39 0;
#X connect 40 0 41 0;
#X connect 42 0 43 0;
#X connect 44 0 45 0;
#X connect 46 0 47 0;
#X connect 48 0 49 0;
#X connect 50 0 51 0;
#X connect 52 0 0 0;
#X connect 53 0 2 0;
#X connect 54 0 6 0;
#X connect 54 1 7 0;
#X connect 54 2 8 0;
#X connect 54 3 9 0;
#X connect 54 4 16 0;
#X connect 54 5 17 0;
#X connect 54 6 18 0;
#X connect 54 7 19 0;
#X connect 54 8 28 0;
#X connect 54 9 29 0;
#X connect 54 10 30 0;
#X connect 54 11 31 0;
#X connect 54 12 32 0;
#X connect 54 13 33 0;
#X connect 54 14 34 0;
#X connect 54 15 35 0;
#X connect 54 16 55 0;
#X connect 54 17 56 0;
#X connect 54 18 57 0;
#X connect 54 19 58 0;
#X connect 54 20 59 0;
#X connect 54 21 60 0;
#X connect 54 22 61 0;
#X connect 54 23 62 0;
#X connect 54 24 63 0;
#X connect 54 25 64 0;
#X connect 54 26 65 0;
#X connect 54 27 66 0;
#X connect 54 28 67 0;
#X connect 54 29 68 0;
#X connect 54 30 69 0;
#X connect 54 31 70 0;
#X connect 55 0 71 0;
#X connect 55 1 71 0;
#X connect 56 0 73 0;
#X connect 56 1 73 0;
#X connect 57 0 75 0;
#X connect 57 1 75 0;
#X connect 58 0 77 0;
#X connect 58 1 77 0;
#X connect 59 0 79 0;
#X connect 59 1 79 0;
#X connect 60 0 81 0;
#X connect 60 1 81 0;
#X connect 61 0 83 0;
#X connect 61 1 83 0;
#X connect 62 0 85 0;
#X connect 62 1 85 0;
#X connect 63 0 87 0;
#X connect 63 1 87 0;
#X connect 64 0 89 0;
#X connect 64 1 89 0;
#X connect 65 0 93 0;
#X connect 65 1 93 0;
#X connect 66 0 92 0;
#X connect 66 1 92 0;
#X connect 67 0 95 0;
#X connect 67 1 95 0;
#X connect 68 0 99 0;
#X connect 68 1 99 0;
#X connect 69 0 97 0;
#X connect 69 1 97 0;
#X connect 70 0 101 0;
#X connect 70 1 101 0;
#X connect 71 0 72 0;
#X connect 73 0 74 0;
#X connect 75 0 76 0;
#X connect 77 0 78 0;
#X connect 79 0 80 0;
#X connect 81 0 82 0;
#X connect 83 0 84 0;
#X connect 85 0 86 0;
#X connect 87 0 88 0;
#X connect 89 0 90 0;
#X connect 92 0 91 0;
#X connect 93 0 94 0;
#X connect 95 0 96 0;
#X connect 97 0 98 0;
#X connect 99 0 100 0;
#X connect 101 0 102 0;
