#N canvas 419 191 532 462 10;
#X obj 99 -52 inlet~;
#X obj 276 -50 inlet~;
#X obj 135 40 hsl 100 12 0 1 0 0 empty empty 50 10 6 0 8 -260097 -1
-1 4950 1;
#X msg 451 35 1;
#X msg 413 35 0.5;
#X msg 369 34 0;
#X obj 463 -45 loadbang;
#X obj 365 -24 select 0 1 2;
#X obj 358 -49 inlet;
#X obj 238 25 vradio 9 1 0 3 empty empty empty 0 -8 0 10 -33289 -260097
-260097 1;
#X msg 318 124 label \$1;
#X obj 319 99 tosymbol;
#X obj 123 252 *~;
#X obj 246 270 *~;
#X obj 121 324 outlet~;
#X obj 243 325 outlet~;
#X floatatom 149 119 5 0 0 0 - - -;
#X obj 320 81 int;
#X obj 193 334 dac~;
#X obj 182 229 line~;
#X obj 182 208 pack 0 50;
#X msg 182 173 0;
#X obj 182 150 moses 0.011;
#X obj 319 57 * 100;
#X obj 96 -11 hip~ 3;
#X obj 272 -13 hip~ 3;
#X obj 67 114 > 0;
#X floatatom 67 142 5 0 0 0 - - -;
#X obj 59 172 select 1;
#X obj 44 225 send pd;
#X msg 47 197 dsp 1;
#X msg 486 28 1;
#X obj 220 22 tgl 15 0 THIS_IS_HERE_TO_GET_RID_OF_THE_OUTLET \$0-dsp-toggle
empty 2 9 1 9 -24198 -195568 -33289 1 1;
#N canvas 371 639 482 356 dsp 0;
#X obj 11 7 inlet;
#X obj 92 226 select 0 1;
#X obj 92 57 route dsp;
#X obj 92 36 receive pd;
#X obj 206 138 loadbang;
#X msg 11 220 dsp \$1;
#X obj 11 245 send pd;
#X msg 206 278 set \$1;
#X obj 206 174 value GLOBAL_PDDP_DSP;
#X msg 109 278 color \$1 20 12;
#X obj 180 309 send \$0-dsp-toggle;
#X obj 92 115 change;
#X msg 92 247 43;
#X floatatom 190 225 5 0 0 0 - - -;
#X msg 125 248 46;
#X connect 0 0 5 0;
#X connect 0 0 11 0;
#X connect 1 0 12 0;
#X connect 1 1 14 0;
#X connect 2 0 11 0;
#X connect 3 0 2 0;
#X connect 4 0 8 0;
#X connect 5 0 6 0;
#X connect 7 0 10 0;
#X connect 8 0 7 0;
#X connect 8 0 1 0;
#X connect 9 0 10 0;
#X connect 11 0 7 0;
#X connect 11 0 1 0;
#X connect 11 0 8 0;
#X connect 12 0 9 0;
#X connect 13 0 9 0;
#X connect 14 0 9 0;
#X restore 197 117 pd dsp logic;
#X msg 88 203 dsp 0;
#N canvas 1 50 985 250 bars 0;
#X obj 270 -191 inlet~;
#X obj 513 -207 inlet~;
#N canvas 2 75 450 300 barra_left 0;
#X obj 113 181 t f f;
#X msg 182 273 0;
#X msg 238 290 1;
#X msg 218 375 color 14;
#X msg 398 375 color 13;
#X msg 145 372 color 16;
#X obj 218 317 change -1;
#X msg 299 299 2;
#X obj 112 156 + 1;
#X obj 110 94 change -1;
#X obj 111 113 clip 0 1;
#X obj 121 134 * 100;
#X msg 68 277 vis_size \$1 7;
#X obj 187 247 moses 60;
#X obj 239 268 moses 80;
#X obj 299 278 moses 100;
#X msg 349 305 3;
#X obj 221 345 sel 0 1 2 3;
#X msg 278 374 color -1.5626e+07;
#X obj 349 331 s \$0peak;
#X floatatom 115 59 5 0 0 0 - - -;
#X obj 65 436 s \$0leftbar;
#X obj 167 42 hsl 128 15 0 1 0 0 empty empty empty -2 -8 0 10 -262144
-1 -1 0 1;
#X obj 97 34 inlet;
#X connect 0 0 12 0;
#X connect 0 1 13 0;
#X connect 1 0 6 0;
#X connect 2 0 6 0;
#X connect 3 0 21 0;
#X connect 4 0 21 0;
#X connect 5 0 21 0;
#X connect 6 0 17 0;
#X connect 7 0 6 0;
#X connect 8 0 0 0;
#X connect 9 0 10 0;
#X connect 10 0 11 0;
#X connect 11 0 8 0;
#X connect 12 0 21 0;
#X connect 13 0 1 0;
#X connect 13 1 14 0;
#X connect 14 0 2 0;
#X connect 14 1 15 0;
#X connect 15 0 7 0;
#X connect 15 1 16 0;
#X connect 16 0 6 0;
#X connect 16 0 19 0;
#X connect 17 0 5 0;
#X connect 17 1 3 0;
#X connect 17 2 18 0;
#X connect 17 3 4 0;
#X connect 18 0 21 0;
#X connect 20 0 9 0;
#X connect 22 0 20 0;
#X connect 23 0 9 0;
#X restore 251 -29 pd barra_left;
#X obj 268 -56 hsl 128 15 0 1 0 0 empty empty empty -2 -8 0 10 -262144
-1 -1 0 1;
#X obj 246 -85 snapshot~;
#X obj 247 -115 iemlib/peakenv~ 1000;
#X obj 538 -106 snapshot~;
#X obj 539 -136 iemlib/peakenv~ 1000;
#X obj 715 -138 / 100;
#X obj 715 -114 pow 3;
#X msg 715 -77 \$1 100;
#X obj 791 -184 sel 0;
#X msg 796 -158 0;
#X obj 799 -127 metro 200;
#X obj 716 -47 != 0;
#X obj 840 -192 r pd;
#X obj 830 -152 route dsp;
#X obj 702 -196 inlet;
#N canvas 1 50 654 506 barra_right 0;
#X obj 150 178 t f f;
#X msg 219 270 0;
#X msg 275 287 1;
#X msg 255 372 color 14;
#X msg 302 375 color 13;
#X msg 182 369 color 16;
#X obj 255 314 change -1;
#X msg 336 296 2;
#X obj 149 153 + 1;
#X obj 147 91 change -1;
#X obj 148 110 clip 0 1;
#X obj 158 131 * 100;
#X msg 105 274 vis_size \$1 7;
#X obj 224 244 moses 60;
#X obj 276 265 moses 80;
#X obj 336 275 moses 100;
#X msg 253 305 3;
#X obj 258 342 sel 0 1 2 3;
#X msg 315 371 color -1.5626e+07;
#X obj 253 331 s \$0peak;
#X floatatom 239 73 5 0 0 0 - - -;
#X obj 204 39 hsl 128 15 0 1 0 0 empty empty empty -2 -8 0 10 -262144
-1 -1 0 1;
#X obj 117 430 s \$0rightbar;
#X obj 107 20 inlet;
#X connect 0 0 12 0;
#X connect 0 1 13 0;
#X connect 1 0 6 0;
#X connect 2 0 6 0;
#X connect 3 0 22 0;
#X connect 4 0 22 0;
#X connect 5 0 22 0;
#X connect 6 0 17 0;
#X connect 7 0 6 0;
#X connect 8 0 0 0;
#X connect 9 0 10 0;
#X connect 10 0 11 0;
#X connect 11 0 8 0;
#X connect 12 0 22 0;
#X connect 13 0 1 0;
#X connect 13 1 14 0;
#X connect 14 0 2 0;
#X connect 14 1 15 0;
#X connect 15 0 7 0;
#X connect 15 1 16 0;
#X connect 16 0 6 0;
#X connect 16 0 19 0;
#X connect 17 0 5 0;
#X connect 17 1 3 0;
#X connect 17 2 18 0;
#X connect 17 3 4 0;
#X connect 18 0 22 0;
#X connect 20 0 9 0;
#X connect 21 0 20 0;
#X connect 23 0 9 0;
#X restore 537 -29 pd barra_right;
#X connect 0 0 5 0;
#X connect 1 0 7 0;
#X connect 3 0 2 0;
#X connect 4 0 2 0;
#X connect 5 0 4 0;
#X connect 6 0 18 0;
#X connect 7 0 6 0;
#X connect 8 0 9 0;
#X connect 9 0 10 0;
#X connect 10 0 14 0;
#X connect 11 0 12 0;
#X connect 11 1 13 0;
#X connect 12 0 13 0;
#X connect 13 0 4 0;
#X connect 13 0 6 0;
#X connect 14 0 11 0;
#X connect 15 0 16 0;
#X connect 16 0 13 0;
#X connect 17 0 8 0;
#X restore 179 -31 pd bars;
#X obj 305 157 cnv 10 1 7 empty \$0rightbar empty 20 12 0 14 -24198
-262144 0;
#X obj 313 240 cnv 10 1 7 empty \$0leftbar empty 20 12 0 14 -24198
-262144 0;
#X obj 138 56 cnv 10 100 10 empty empty empty 20 12 0 14 -33289 -66577
0;
#X obj 137 56 cnv 10 1 7 empty \$0rightbar empty 20 12 0 14 -24198
-262144 0;
#X obj 138 68 cnv 10 100 10 empty empty empty 20 12 0 14 -33289 -66577
0;
#X obj 137 68 cnv 10 1 7 empty \$0leftbar empty 20 12 0 14 -24198 -262144
0;
#X connect 0 0 24 0;
#X connect 0 0 35 0;
#X connect 1 0 25 0;
#X connect 1 0 35 1;
#X connect 2 0 16 0;
#X connect 2 0 23 0;
#X connect 2 0 22 0;
#X connect 2 0 26 0;
#X connect 2 0 35 2;
#X connect 3 0 2 0;
#X connect 4 0 2 0;
#X connect 5 0 2 0;
#X connect 6 0 31 0;
#X connect 7 0 5 0;
#X connect 7 1 4 0;
#X connect 7 2 3 0;
#X connect 8 0 2 0;
#X connect 9 0 7 0;
#X connect 10 0 2 0;
#X connect 11 0 10 0;
#X connect 12 0 14 0;
#X connect 12 0 18 0;
#X connect 13 0 15 0;
#X connect 13 0 18 1;
#X connect 17 0 11 0;
#X connect 19 0 13 0;
#X connect 19 0 12 0;
#X connect 20 0 19 0;
#X connect 21 0 20 0;
#X connect 22 0 21 0;
#X connect 22 1 20 0;
#X connect 23 0 17 0;
#X connect 24 0 12 1;
#X connect 25 0 13 1;
#X connect 26 0 27 0;
#X connect 26 0 28 0;
#X connect 28 0 30 0;
#X connect 28 1 34 0;
#X connect 30 0 29 0;
#X connect 31 0 9 0;
#X connect 32 0 33 0;
#X connect 34 0 29 0;
#X coords 0 -1 1 1 120 60 1 130 20;
