#N canvas 1007 244 532 462 10;
#X obj 99 -52 inlet~;
#X obj 276 -50 inlet~;
#X obj 135 40 hsl 100 12 0 1 0 0 empty empty 50 10 6 0 8 -260097 -1
-1 4950 1;
#X msg 451 35 1;
#X msg 413 35 0.5;
#X msg 369 34 0;
#X obj 463 -45 loadbang;
#X obj 365 -24 select 0 1 2;
#X obj 358 -49 inlet;
#X obj 238 25 vradio 9 1 0 3 empty empty empty 0 -8 0 10 -33289 -260097
-260097 1;
#X msg 318 124 label \$1;
#X obj 319 99 tosymbol;
#X obj 123 252 *~;
#X obj 246 270 *~;
#X obj 121 324 outlet~;
#X obj 243 325 outlet~;
#X floatatom 149 119 5 0 0 0 - - -;
#X obj 320 81 int;
#X obj 193 334 dac~;
#X obj 182 229 line~;
#X obj 182 208 pack 0 50;
#X msg 182 173 0;
#X obj 182 150 moses 0.011;
#X obj 319 57 * 100;
#X obj 96 -11 hip~ 3;
#X obj 272 -13 hip~ 3;
#X obj 67 114 > 0;
#X floatatom 67 142 5 0 0 0 - - -;
#X obj 59 172 select 1;
#X obj 44 225 send pd;
#X msg 47 197 dsp 1;
#X msg 486 28 1;
#X obj 220 22 tgl 15 0 THIS_IS_HERE_TO_GET_RID_OF_THE_OUTLET \$0-dsp-toggle
empty 2 9 1 9 -24198 -195568 -33289 1 1;
#N canvas 371 639 482 356 dsp 0;
#X obj 11 7 inlet;
#X obj 92 226 select 0 1;
#X obj 92 57 route dsp;
#X obj 92 36 receive pd;
#X obj 206 138 loadbang;
#X msg 11 220 dsp \$1;
#X obj 11 245 send pd;
#X msg 206 278 set \$1;
#X obj 206 174 value GLOBAL_PDDP_DSP;
#X msg 109 278 color \$1 20 12;
#X obj 180 309 send \$0-dsp-toggle;
#X obj 92 115 change;
#X msg 92 247 43;
#X floatatom 190 225 5 0 0 0 - - -;
#X msg 125 248 46;
#X connect 0 0 5 0;
#X connect 0 0 11 0;
#X connect 1 0 12 0;
#X connect 1 1 14 0;
#X connect 2 0 11 0;
#X connect 3 0 2 0;
#X connect 4 0 8 0;
#X connect 5 0 6 0;
#X connect 7 0 10 0;
#X connect 8 0 7 0;
#X connect 8 0 1 0;
#X connect 9 0 10 0;
#X connect 11 0 7 0;
#X connect 11 0 1 0;
#X connect 11 0 8 0;
#X connect 12 0 9 0;
#X connect 13 0 9 0;
#X connect 14 0 9 0;
#X restore 197 117 pd dsp logic;
#X msg 88 203 dsp 0;
#X connect 0 0 24 0;
#X connect 1 0 25 0;
#X connect 2 0 16 0;
#X connect 2 0 23 0;
#X connect 2 0 22 0;
#X connect 2 0 26 0;
#X connect 3 0 2 0;
#X connect 4 0 2 0;
#X connect 5 0 2 0;
#X connect 6 0 31 0;
#X connect 7 0 5 0;
#X connect 7 1 4 0;
#X connect 7 2 3 0;
#X connect 8 0 2 0;
#X connect 9 0 7 0;
#X connect 10 0 2 0;
#X connect 11 0 10 0;
#X connect 12 0 14 0;
#X connect 12 0 18 0;
#X connect 13 0 15 0;
#X connect 13 0 18 1;
#X connect 17 0 11 0;
#X connect 19 0 13 0;
#X connect 19 0 12 0;
#X connect 20 0 19 0;
#X connect 21 0 20 0;
#X connect 22 0 21 0;
#X connect 22 1 20 0;
#X connect 23 0 17 0;
#X connect 24 0 12 1;
#X connect 25 0 13 1;
#X connect 26 0 27 0;
#X connect 26 0 28 0;
#X connect 28 0 30 0;
#X connect 28 1 34 0;
#X connect 30 0 29 0;
#X connect 31 0 9 0;
#X connect 32 0 33 0;
#X connect 34 0 29 0;
#X coords 0 -1 1 1 120 40 1 130 20;
