#N canvas 594 395 900 722 10;
#X obj 1 0 cnv 15 300 80 empty empty GEM_PIX_MIXER 60 12 0 14 -99865
-262144 0;
#X obj 1 60 cnv 15 55 20 empty empty GEM_OUT 0 10 0 9 -221249 -262144
0;
#X obj 210 3 cnv 15 40 20 empty \$1gp_mixer_id \$1 10 10 0 12 -260097
-33289 0;
#X obj 532 182 cnv 15 55 20 empty empty GEM_OUT 0 10 0 12 -221249 -262144
0;
#X obj 476 185 outlet;
#X obj 94 60 bng 15 250 50 0 \$1gp_mixer_reset empty reset 17 7 0 10
-257985 -1 -1;
#X obj 2 2 cnv 15 55 20 empty empty GEM_IN_1 0 10 0 9 -4034 -1 0;
#X obj 245 1 cnv 15 55 20 empty empty GEM_IN_2 0 10 0 9 -4034 -1 0
;
#X obj 641 74 hsl 128 15 0 1 0 1 empty empty empty -2 -6 0 8 -262144
-1 -1 10722 1;
#X floatatom 638 99 5 0 0 0 - - -;
#X msg 695 98 0.7 0.7;
#X obj 607 4 cnv 15 55 20 empty empty GEM_IN_2 0 10 0 12 -4034 -1 0
;
#X obj 430 3 cnv 15 55 20 empty empty GEM_IN_1 0 10 0 12 -4034 -1 0
;
#X obj 443 29 inlet;
#X obj 601 32 inlet;
#X obj 50 31 hsl 200 20 0 1 0 1 \$1gp_mixer_bar \$1gp_mixer_bar_init
empty -2 -6 0 9 -260097 -1 -1 16800 1;
#X obj 669 36 r \$1gp_mixer_bar;
#X obj 267 162 r \$1gp_mixer_reset;
#X obj 268 230 s \$1gp_mixer_bar_init;
#X msg 268 199 0;
#X obj 482 135 pix_mix;
#X obj 72 147 loadbang;
#X obj 82 314 symbol \$1;
#X symbolatom 82 343 0 0 0 0 - - -;
#X obj 88 227 bng 15 250 50 0 empty empty empty 0 -6 0 8 -262144 -1
-1;
#X symbolatom 179 343 0 0 0 0 - - -;
#X obj 179 314 symbol \$2;
#X obj 18 314 float \$1;
#X floatatom 22 346 5 0 0 0 - - -;
#X obj 82 389 s \$1gp_mixer_id;
#X connect 8 0 9 0;
#X connect 9 0 20 2;
#X connect 10 0 20 2;
#X connect 13 0 20 0;
#X connect 14 0 20 1;
#X connect 16 0 8 0;
#X connect 17 0 19 0;
#X connect 19 0 18 0;
#X connect 20 0 4 0;
#X connect 21 0 24 0;
#X connect 22 0 23 0;
#X connect 23 0 29 0;
#X connect 24 0 22 0;
#X connect 24 0 26 0;
#X connect 24 0 27 0;
#X connect 26 0 25 0;
#X connect 27 0 28 0;
#X coords 0 -1 1 1 300 80 1 0 0;
