#N canvas 699 489 450 321 10;
#X obj 34 172 symbol \$1;
#X obj 136 230 ftos;
#X obj 105 164 float \$1;
#X floatatom 105 193 5 0 0 0 - - -;
#X symbolatom 35 205 0 0 0 0 - - -;
#X symbolatom 95 243 10 0 0 0 - - -;
#X obj 44 126 loadbang;
#X obj 97 280 s \$1gempix_ef_tiir_id;
#X obj 241 59 inlet;
#X text 469 59 on/off;
#X obj 270 281 outlet;
#X obj 322 115 gate 2;
#X obj 380 84 + 1;
#X text 299 59 gemin;
#X text 318 278 gemout;
#X floatatom 403 239 3 0 1 2 fb0 - -;
#X floatatom 430 239 3 0 1 2 fb1 - -;
#X floatatom 456 239 3 0 1 2 fb2 - -;
#X floatatom 493 239 3 0 1 2 ff0 - -;
#X obj 390 259 pix_tIIR 2 1;
#X floatatom 520 239 3 0 1 2 ff1 - -;
#N canvas 0 0 450 300 init 0;
#X msg 175 214 0.3;
#X msg 247 215 0.6;
#X msg 277 215 0.4;
#X obj 104 258 outlet;
#X obj 154 258 outlet;
#X obj 204 258 outlet;
#X obj 254 258 outlet;
#X obj 304 258 outlet;
#X obj 244 59 inlet;
#X obj 338 158 t b;
#X msg 328 201 1;
#X msg 363 201 0;
#X obj 238 127 t b;
#X obj 246 88 route 1;
#X msg 104 214 0.2;
#X msg 140 215 0.5;
#X connect 0 0 5 0;
#X connect 1 0 6 0;
#X connect 2 0 7 0;
#X connect 8 0 13 0;
#X connect 9 0 10 0;
#X connect 9 0 11 0;
#X connect 10 0 3 0;
#X connect 10 0 6 0;
#X connect 11 0 4 0;
#X connect 11 0 5 0;
#X connect 11 0 7 0;
#X connect 12 0 14 0;
#X connect 12 0 15 0;
#X connect 12 0 0 0;
#X connect 12 0 1 0;
#X connect 12 0 2 0;
#X connect 13 0 12 0;
#X connect 13 1 9 0;
#X connect 14 0 3 0;
#X connect 15 0 4 0;
#X restore 536 276 pd init;
#X obj 536 259 tgl 15 0 empty empty empty 0 -6 0 8 -262144 -1 -1 0
1;
#X msg 485 95 set;
#X msg 484 124 set 0;
#X obj 511 69 r \$1gempix_ef_tiir_set;
#X obj 534 101 r \$1gempix_ef_tiir_set2;
#X obj 562 140 r \$1gempix_ef_tiir_fb0;
#X obj 578 160 r \$1gempix_ef_tiir_fb1;
#X obj 590 183 r \$1gempix_ef_tiir_fb2;
#X obj 609 210 r \$1gempix_ef_tiir_ff0;
#X obj 620 233 r \$1gempix_ef_tiir_ff1;
#X obj 628 270 r \$1gempix_ef_tiir_init;
#X obj 504 158 / 10;
#X obj 514 180 / 10;
#X obj 529 201 / 10;
#X obj 562 215 / 10;
#X obj 567 236 / 10;
#X obj 413 21 tgl 15 0 empty empty empty 17 7 0 10 -262144 -1 -1 0
1;
#X obj 446 22 r \$1gempix_ef_tiir_on;
#X obj 0 0 cnv 15 150 75 empty empty empty 2 12 0 14 -191407 -66577
0;
#X obj 5 5 tgl 15 0 \$1gempix_ef_tiir_on \$1gempix_ef_tiir_on_init
tIIR 17 7 0 10 -260097 -1 -1 0 1;
#X obj 5 22 tgl 15 0 \$1gempix_ef_tiir_init \$1gempix_ef_tiir_init_init
init 17 7 0 8 -262144 -1 -1 0 1;
#X obj 6 39 bng 15 250 50 0 \$1gempix_ef_tiir_set \$1gempix_ef_tiir_set_init
set 17 7 0 8 -262144 -1 -1;
#X obj 6 57 bng 15 250 50 0 \$1gempix_ef_tiir_set2 \$1gempix_ef_tiir_set2_init
set0 17 7 0 8 -262144 -1 -1;
#X obj 54 16 vsl 15 50 0 10 0 0 \$1gempix_ef_tiir_fb0 \$1gempix_ef_tiir_fb0_init
fb0 0 -9 0 7 -262144 -1 -1 0 1;
#X obj 84 16 vsl 15 50 0 10 0 0 \$1gempix_ef_tiir_fb2 \$1gempix_ef_tiir_fb2_init
fb2 0 -9 0 7 -262144 -1 -1 0 1;
#X obj 69 16 vsl 15 50 0 10 0 0 \$1gempix_ef_tiir_fb1 \$1gempix_ef_tiir_fb1_init
fb1 0 -9 0 7 -262144 -1 -1 0 1;
#X obj 113 16 vsl 15 50 0 10 0 0 \$1gempix_ef_tiir_ff1 \$1gempix_ef_tiir_ff1_init
ff1 0 -9 0 7 -262144 -1 -1 0 1;
#X obj 98 16 vsl 15 50 0 10 0 0 \$1gempix_ef_tiir_ff0 \$1gempix_ef_tiir_ff0_init
ff0 0 -9 0 7 -262144 -1 -1 0 1;
#N canvas 985 381 450 300 midi_control 0;
#X msg 204 135 ef1epdp_aging_on_midi;
#X msg 365 133 ef1epdp_aging_dust_midi;
#X floatatom 93 324 5 0 0 0 - - -;
#X obj 91 369 select 0;
#X obj 331 261 s midi_var_to_add;
#X text 442 258 -->global value of mb-midi_control_pad;
#X msg 160 420 0;
#X msg 110 426 1;
#X obj 90 399 alternate;
#X obj 65 41 r \$1gempix_ef_tiir_midi_on;
#X obj 285 27 r \$1gempix_ef_tiir_id;
#X msg 146 104 set \$1gempix_ef_tiir_on_midi;
#X msg 365 102 set \$1gempix_ef_tiir_r_midi;
#X msg 558 104 set \$1gempix_ef_tiir_g_midi;
#X msg 563 144 ef1epdp_aging_on_midi;
#X obj 93 290 r \$1gempix_ef_tiir_on_midi;
#X obj 71 452 s $gempix_ef_tiir_on_init;
#X obj 302 291 r \$1gempix_ef_tiir_r_midi;
#X obj 280 453 s $gempix_ef_tiir_r_init;
#X floatatom 295 317 5 0 0 0 - - -;
#X floatatom 327 415 8 0 0 0 - - -;
#X obj 312 351 hsl 128 15 0 127 0 0 empty empty empty -2 -8 0 10 -262144
-1 -1 0 1;
#X obj 309 381 autoscale 0 255;
#X obj 494 293 r \$1gempix_ef_tiir_r_midi;
#X obj 475 445 s $gempix_ef_tiir_r_init;
#X floatatom 522 407 8 0 0 0 - - -;
#X connect 0 0 4 0;
#X connect 1 0 13 0;
#X connect 2 0 3 0;
#X connect 3 1 8 0;
#X connect 6 0 16 0;
#X connect 7 0 16 0;
#X connect 8 0 7 0;
#X connect 8 1 6 0;
#X connect 9 0 11 0;
#X connect 10 0 11 0;
#X connect 11 0 0 0;
#X connect 12 0 1 0;
#X connect 13 0 14 0;
#X connect 15 0 2 0;
#X connect 17 0 19 0;
#X connect 19 0 21 0;
#X connect 20 0 18 0;
#X connect 21 0 22 0;
#X connect 22 0 20 0;
#X connect 23 0 25 0;
#X connect 25 0 24 0;
#X restore 176 29 pd midi_control;
#X obj 96 40 bng 15 250 50 0 \$1gempix_ef_tiir_midi_on empty midi 17
7 0 8 -4160 -1 -1;
#X obj 129 11 cnv 15 20 10 empty \$1gempix_ef_tiir_id \$1 5 5 0 10
-260097 -33289 0;
#X connect 0 0 4 0;
#X connect 1 0 5 0;
#X connect 2 0 3 0;
#X connect 3 0 1 0;
#X connect 4 0 5 0;
#X connect 5 0 7 0;
#X connect 6 0 2 0;
#X connect 6 0 0 0;
#X connect 8 0 11 1;
#X connect 11 0 10 0;
#X connect 11 1 19 0;
#X connect 12 0 11 0;
#X connect 15 0 19 1;
#X connect 16 0 19 2;
#X connect 17 0 19 3;
#X connect 18 0 19 4;
#X connect 19 0 10 0;
#X connect 20 0 19 5;
#X connect 21 0 15 0;
#X connect 21 1 16 0;
#X connect 21 2 17 0;
#X connect 21 3 18 0;
#X connect 21 4 20 0;
#X connect 22 0 21 0;
#X connect 23 0 19 0;
#X connect 24 0 19 0;
#X connect 25 0 23 0;
#X connect 26 0 24 0;
#X connect 27 0 33 0;
#X connect 28 0 34 0;
#X connect 29 0 35 0;
#X connect 30 0 36 0;
#X connect 31 0 37 0;
#X connect 32 0 22 0;
#X connect 33 0 15 0;
#X connect 34 0 16 0;
#X connect 35 0 17 0;
#X connect 36 0 18 0;
#X connect 37 0 20 0;
#X connect 38 0 12 0;
#X connect 39 0 38 0;
#X coords 0 -1 1 1 150 75 1 0 0;
