#N canvas 393 246 1036 489 10;
#X obj 507 12 inlet;
#X obj 632 10 inlet;
#X obj 0 1 cnv 15 198 460 empty empty mb-gmedia_player 2 8 0 8 -66577
-228856 0;
#X obj 147 1 cnv 15 50 15 empty \$1gmplayer_id \$1 10 8 0 8 -260097
-33289 0;
#X obj 507 48 s \$1gmplayer_in1;
#X obj 632 45 s \$1gmplayer_in2;
#X obj 754 10 inlet;
#X obj 754 45 s \$1gmplayer_next;
#X obj 4 35 bng 14 250 50 0 \$1gmplayer_add_file \$1gmplayer_add_file_init
addfile 17 7 0 8 -4034 -228856 -228856;
#N canvas 30 236 555 298 defaults 0;
#X obj 34 104 symbol \$1;
#X symbolatom 34 133 0 0 0 0 - - -;
#X obj 34 68 bng 15 250 50 0 empty empty click_here_to_see 0 -6 0 8
-262144 -1 -1;
#X symbolatom 131 133 0 0 0 0 - - -;
#X obj 131 104 symbol \$2;
#X obj 37 26 loadbang;
#X obj 35 172 s \$1gmplayer_id;
#X obj 205 132 s \$1gmplayer_filetype_init;
#X msg 204 103 0;
#X obj 206 191 s \$1gmplayer_texture_on_init;
#X msg 206 167 1;
#X obj 262 102 s \$1gmplayer_effects_on_init;
#X obj 210 245 s \$1gmplayer_shape_select_init;
#X msg 210 221 2;
#X obj 330 160 s \$1gmplayer_pix_ocv_on_init;
#X obj 403 187 s \$1gmplayer_pixef_on;
#X connect 0 0 1 0;
#X connect 1 0 6 0;
#X connect 2 0 0 0;
#X connect 2 0 4 0;
#X connect 2 0 8 0;
#X connect 2 0 10 0;
#X connect 2 0 13 0;
#X connect 4 0 3 0;
#X connect 5 0 2 0;
#X connect 8 0 7 0;
#X connect 8 0 11 0;
#X connect 8 0 14 0;
#X connect 8 0 15 0;
#X connect 10 0 9 0;
#X connect 13 0 12 0;
#X restore 408 115 pd defaults;
#X obj 68 36 bng 14 250 50 0 \$1gmplayer_clear \$1gmplayer_clear_init
clear 17 7 0 8 -258113 -1 -228856;
#X obj 4 50 bng 14 250 50 0 \$1gmplayer_add_dir \$1gmplayer_add_dir_init
adddir 17 7 0 8 -4160 -228856 -228856;
#X obj 0 205 cnv 15 198 20 empty empty empty 2 8 0 8 -66577 -228856
0;
#X obj 4 69 hradio 15 1 0 10 empty \$0file_lab estrella.mov 2 8 1 8
-1 -1 -257985 0;
#X obj 161 69 hradio 15 1 0 2 empty \$0index_lab -0- 2 8 1 8 -1 -1
-257985 0;
#X obj 66 51 hradio 13 1 0 4 \$1gmplayer_filetype \$1gmplayer_filetype_init
empty 0 -8 0 10 -260097 -1 -1 0;
#X text 545 22 index;
#X obj 118 51 hradio 13 1 0 3 empty \$0type_lab all 2 8 0 8 -1 -1 -228856
0;
#N canvas 228 618 1110 522 controls 0;
#X obj 75 95 tof/folderpanel;
#X obj 93 70 bng 15 250 50 0 empty empty empty 17 7 0 10 -262144 -1
-1;
#X obj 75 119 l2s;
#X obj 75 26 r \$1gmplayer_add_dir;
#N canvas 1038 540 343 297 file_filter 0;
#X obj 142 77 select 0 1 2 3;
#N canvas 20 142 1221 620 video_files 0;
#X msg 85 96 symbol mov;
#X msg 255 103 symbol avi;
#X obj 674 -6 inlet;
#X msg 1048 101 set label video;
#X msg 1048 141 label video;
#X obj 1048 169 s \$0type_lab;
#X obj 1069 123 bng 15 250 50 0 empty empty empty 17 7 0 10 -262144
-1 -1;
#X msg 40 254 file \$1;
#X obj 40 287 t b a;
#X obj 40 316 bng 15 250 50 0 empty empty empty 0 -6 0 8 -262144 -1
-1;
#X obj 40 229 folder_list;
#X obj 40 173 makesymbol %s/*.%s;
#X obj 429 -9 inlet;
#X obj 40 123 pack s s;
#X obj 210 132 pack s s;
#X obj 210 324 t b a;
#X obj 208 347 bng 15 250 50 0 empty empty empty 0 -6 0 8 -262144 -1
-1;
#X obj 342 289 print;
#X obj 210 270 folder_list;
#X msg 210 295 file \$1;
#X obj 105 254 print q;
#X msg 210 218 symbol /home/musa/0zpd/media/*.avi;
#X obj 111 201 delay 10;
#X msg 210 158 set symbol \$1/*.\$2;
#X obj 53 202 bng 15 250 50 0 empty empty empty 17 7 0 10 -262144 -1
-1;
#X obj 435 119 pack s s;
#X obj 435 311 t b a;
#X obj 433 334 bng 15 250 50 0 empty empty empty 0 -6 0 8 -262144 -1
-1;
#X obj 567 276 print;
#X obj 435 257 folder_list;
#X msg 435 282 file \$1;
#X msg 435 145 set symbol \$1/*.\$2;
#X msg 480 90 symbol mpg;
#X obj 651 124 pack s s;
#X obj 651 316 t b a;
#X obj 649 339 bng 15 250 50 0 empty empty empty 0 -6 0 8 -262144 -1
-1;
#X obj 783 281 print;
#X obj 651 262 folder_list;
#X msg 651 287 file \$1;
#X msg 651 210 symbol /home/musa/0zpd/media/*.mpeg;
#X msg 651 150 set symbol \$1/*.\$2;
#X msg 696 95 symbol mpeg;
#X msg 435 205 symbol /home/musa/0zpd/media/*.mpg;
#X obj 866 121 pack s s;
#X obj 866 313 t b a;
#X obj 864 336 bng 15 250 50 0 empty empty empty 0 -6 0 8 -262144 -1
-1;
#X obj 998 278 print;
#X obj 866 259 folder_list;
#X msg 866 284 file \$1;
#X msg 866 207 symbol /home/musa/0zpd/media/*.mp4;
#X msg 866 147 set symbol \$1/*.\$2;
#X msg 911 92 symbol mp4;
#X obj 331 245 delay 10;
#X obj 273 246 bng 15 250 50 0 empty empty empty 17 7 0 10 -262144
-1 -1;
#X obj 534 229 delay 10;
#X obj 476 230 bng 15 250 50 0 empty empty empty 17 7 0 10 -262144
-1 -1;
#X obj 742 240 delay 10;
#X obj 684 241 bng 15 250 50 0 empty empty empty 17 7 0 10 -262144
-1 -1;
#X obj 542 502 outlet;
#X connect 0 0 13 1;
#X connect 1 0 14 1;
#X connect 2 0 3 0;
#X connect 2 0 0 0;
#X connect 2 0 1 0;
#X connect 2 0 51 0;
#X connect 2 0 41 0;
#X connect 2 0 32 0;
#X connect 3 0 4 0;
#X connect 3 0 6 0;
#X connect 4 0 5 0;
#X connect 6 0 4 0;
#X connect 7 0 8 0;
#X connect 8 0 9 0;
#X connect 8 1 58 0;
#X connect 9 0 58 0;
#X connect 10 0 7 0;
#X connect 10 0 20 0;
#X connect 11 0 10 0;
#X connect 11 0 24 0;
#X connect 12 0 13 0;
#X connect 12 0 14 0;
#X connect 12 0 25 0;
#X connect 12 0 33 0;
#X connect 12 0 43 0;
#X connect 13 0 11 0;
#X connect 14 0 23 0;
#X connect 15 0 16 0;
#X connect 15 1 58 0;
#X connect 16 0 58 0;
#X connect 18 0 19 0;
#X connect 18 0 17 0;
#X connect 19 0 15 0;
#X connect 21 0 18 0;
#X connect 21 0 53 0;
#X connect 22 0 21 0;
#X connect 23 0 21 0;
#X connect 24 0 22 0;
#X connect 25 0 31 0;
#X connect 26 0 27 0;
#X connect 26 1 58 0;
#X connect 27 0 58 0;
#X connect 29 0 30 0;
#X connect 29 0 28 0;
#X connect 30 0 26 0;
#X connect 31 0 42 0;
#X connect 32 0 25 1;
#X connect 33 0 40 0;
#X connect 34 0 35 0;
#X connect 34 1 58 0;
#X connect 35 0 58 0;
#X connect 37 0 38 0;
#X connect 37 0 36 0;
#X connect 38 0 34 0;
#X connect 39 0 37 0;
#X connect 39 0 57 0;
#X connect 40 0 39 0;
#X connect 41 0 33 1;
#X connect 42 0 29 0;
#X connect 42 0 55 0;
#X connect 43 0 50 0;
#X connect 44 0 45 0;
#X connect 44 1 58 0;
#X connect 45 0 58 0;
#X connect 47 0 48 0;
#X connect 47 0 46 0;
#X connect 48 0 44 0;
#X connect 49 0 47 0;
#X connect 50 0 49 0;
#X connect 51 0 43 1;
#X connect 52 0 42 0;
#X connect 53 0 52 0;
#X connect 54 0 39 0;
#X connect 55 0 54 0;
#X connect 56 0 49 0;
#X connect 57 0 56 0;
#X restore 43 142 pd video_files;
#N canvas 28 186 594 560 all_files 0;
#X obj 333 21 inlet;
#X msg 331 158 label all;
#X obj 331 186 s \$0type_lab;
#X obj 352 140 bng 15 250 50 0 empty empty empty 17 7 0 10 -262144
-1 -1;
#X msg 86 231 file \$1;
#X obj 86 264 t b a;
#X obj 86 293 bng 15 250 50 0 empty empty empty 0 -6 0 8 -262144 -1
-1;
#X obj 86 206 folder_list;
#X obj 86 150 makesymbol %s/*.%s;
#X obj 88 18 inlet;
#X obj 86 100 pack s s;
#X obj 151 231 print q;
#X obj 157 178 delay 10;
#X obj 99 179 bng 15 250 50 0 empty empty empty 17 7 0 10 -262144 -1
-1;
#X obj 183 394 outlet;
#X msg 131 73 symbol *;
#X msg 331 118 set label all;
#X connect 0 0 16 0;
#X connect 0 0 15 0;
#X connect 1 0 2 0;
#X connect 3 0 1 0;
#X connect 4 0 5 0;
#X connect 5 0 6 0;
#X connect 5 1 14 0;
#X connect 6 0 14 0;
#X connect 7 0 4 0;
#X connect 7 0 11 0;
#X connect 8 0 7 0;
#X connect 8 0 13 0;
#X connect 9 0 10 0;
#X connect 10 0 8 0;
#X connect 13 0 12 0;
#X connect 15 0 10 1;
#X connect 16 0 1 0;
#X connect 16 0 3 0;
#X restore -26 104 pd all_files;
#N canvas 28 186 527 620 audio_files 0;
#X obj 375 -3 inlet;
#X msg 40 254 file \$1;
#X obj 40 287 t b a;
#X obj 40 316 bng 15 250 50 0 empty empty empty 0 -6 0 8 -262144 -1
-1;
#X obj 40 229 folder_list;
#X obj 40 173 makesymbol %s/*.%s;
#X obj 130 -6 inlet;
#X obj 40 123 pack s s;
#X obj 210 132 pack s s;
#X obj 210 324 t b a;
#X obj 208 347 bng 15 250 50 0 empty empty empty 0 -6 0 8 -262144 -1
-1;
#X obj 342 289 print;
#X obj 210 270 folder_list;
#X msg 210 295 file \$1;
#X obj 105 254 print q;
#X msg 210 218 symbol /home/musa/Vídeos/*.avi;
#X obj 111 201 delay 10;
#X msg 210 158 set symbol \$1/*.\$2;
#X obj 53 202 bng 15 250 50 0 empty empty empty 17 7 0 10 -262144 -1
-1;
#X obj 331 245 delay 10;
#X obj 273 246 bng 15 250 50 0 empty empty empty 17 7 0 10 -262144
-1 -1;
#X obj 157 416 outlet;
#X msg 85 96 symbol wav;
#X msg 255 103 symbol mp3;
#X msg 374 134 label audio;
#X obj 374 162 s \$0type_lab;
#X obj 395 116 bng 15 250 50 0 empty empty empty 17 7 0 10 -262144
-1 -1;
#X msg 374 94 set label audio;
#X connect 0 0 22 0;
#X connect 0 0 23 0;
#X connect 0 0 27 0;
#X connect 1 0 2 0;
#X connect 2 0 3 0;
#X connect 2 1 21 0;
#X connect 3 0 21 0;
#X connect 4 0 1 0;
#X connect 4 0 14 0;
#X connect 5 0 4 0;
#X connect 5 0 18 0;
#X connect 6 0 7 0;
#X connect 6 0 8 0;
#X connect 7 0 5 0;
#X connect 8 0 17 0;
#X connect 9 0 10 0;
#X connect 9 1 21 0;
#X connect 10 0 21 0;
#X connect 12 0 13 0;
#X connect 12 0 11 0;
#X connect 13 0 9 0;
#X connect 15 0 12 0;
#X connect 15 0 20 0;
#X connect 16 0 15 0;
#X connect 17 0 15 0;
#X connect 18 0 16 0;
#X connect 20 0 19 0;
#X connect 22 0 7 1;
#X connect 23 0 8 1;
#X connect 24 0 25 0;
#X connect 26 0 24 0;
#X connect 27 0 24 0;
#X connect 27 0 26 0;
#X restore 75 170 pd audio_files;
#N canvas 32 208 527 620 pic_files 0;
#X obj 375 -3 inlet;
#X msg 40 254 file \$1;
#X obj 40 287 t b a;
#X obj 40 316 bng 15 250 50 0 empty empty empty 0 -6 0 8 -262144 -1
-1;
#X obj 40 229 folder_list;
#X obj 40 173 makesymbol %s/*.%s;
#X obj 130 -6 inlet;
#X obj 40 123 pack s s;
#X obj 210 132 pack s s;
#X obj 210 324 t b a;
#X obj 208 347 bng 15 250 50 0 empty empty empty 0 -6 0 8 -262144 -1
-1;
#X obj 342 289 print;
#X obj 210 270 folder_list;
#X msg 210 295 file \$1;
#X obj 105 254 print q;
#X msg 210 218 symbol /home/musa/Vídeos/*.avi;
#X obj 111 201 delay 10;
#X msg 210 158 set symbol \$1/*.\$2;
#X obj 53 202 bng 15 250 50 0 empty empty empty 17 7 0 10 -262144 -1
-1;
#X obj 331 245 delay 10;
#X obj 273 246 bng 15 250 50 0 empty empty empty 17 7 0 10 -262144
-1 -1;
#X obj 157 416 outlet;
#X msg 374 134 label pic;
#X obj 374 162 s \$0type_lab;
#X obj 395 116 bng 15 250 50 0 empty empty empty 17 7 0 10 -262144
-1 -1;
#X msg 374 94 set label pic;
#X msg 255 103 symbol png;
#X msg 85 96 symbol jpg;
#X connect 0 0 27 0;
#X connect 0 0 26 0;
#X connect 0 0 25 0;
#X connect 1 0 2 0;
#X connect 2 0 3 0;
#X connect 2 1 21 0;
#X connect 3 0 21 0;
#X connect 4 0 1 0;
#X connect 4 0 14 0;
#X connect 5 0 4 0;
#X connect 5 0 18 0;
#X connect 6 0 7 0;
#X connect 6 0 8 0;
#X connect 7 0 5 0;
#X connect 8 0 17 0;
#X connect 9 0 10 0;
#X connect 9 1 21 0;
#X connect 10 0 21 0;
#X connect 12 0 13 0;
#X connect 12 0 11 0;
#X connect 13 0 9 0;
#X connect 15 0 12 0;
#X connect 15 0 20 0;
#X connect 16 0 15 0;
#X connect 17 0 15 0;
#X connect 18 0 16 0;
#X connect 20 0 19 0;
#X connect 22 0 23 0;
#X connect 24 0 22 0;
#X connect 25 0 22 0;
#X connect 25 0 24 0;
#X connect 26 0 8 1;
#X connect 27 0 7 1;
#X restore 133 195 pd pic_files;
#X obj 79 277 outlet;
#X obj 142 27 inlet;
#X obj -26 67 demux all video audio pic;
#X obj -26 17 inlet;
#X connect 0 0 2 1;
#X connect 0 1 1 1;
#X connect 0 2 3 1;
#X connect 0 3 4 1;
#X connect 1 0 5 0;
#X connect 2 0 5 0;
#X connect 3 0 5 0;
#X connect 4 0 5 0;
#X connect 6 0 0 0;
#X connect 6 0 7 1;
#X connect 7 0 2 0;
#X connect 7 1 1 0;
#X connect 7 2 3 0;
#X connect 7 3 4 0;
#X connect 8 0 7 0;
#X restore 74 149 pd file_filter;
#X msg 507 38 clear;
#X text 550 38 Clear the browser;
#X obj 507 14 r \$1gmplayer_clear;
#X obj 507 68 s \$1gmplayer_in2;
#X obj 689 14 r \$1gmplayer_next;
#X obj 725 43 r \$1gmplayer_index_out;
#X obj 710 81 +;
#X msg 689 54 1;
#X obj 710 117 s \$1gmplayer_in1;
#X obj 913 62 bng 15 250 50 0 empty empty empty 17 7 0 10 -262144 -1
-1;
#X obj 893 115 s \$0index_lab;
#X obj 896 14 r \$1gmplayer_index_out;
#X msg 899 84 label -0-;
#X msg 896 36 set label -\$1-;
#X msg 880 229 set label \$1;
#X obj 897 255 bng 15 250 50 0 empty empty empty 17 7 0 10 -262144
-1 -1;
#X obj 879 157 r \$1gmplayer_file_out;
#X obj 883 306 s \$0file_lab;
#X msg 883 277 label estrella.mov;
#X obj 879 190 hcs/split_path;
#X obj 332 83 openpanel;
#X obj 347 57 bng 15 250 50 0 empty empty empty 0 -6 0 8 -262144 -1
-1;
#X text 365 54 Add a file;
#X msg 332 113 file \$1;
#X obj 332 24 r \$1gmplayer_add_file;
#X obj 330 201 s \$1gmplayer_in2;
#X obj 332 146 t b a;
#X obj 332 175 bng 15 250 50 0 empty empty empty 0 -6 0 8 -262144 -1
-1;
#X obj 74 195 s \$1gmplayer_in2;
#X obj 156 120 r \$1gmplayer_filetype;
#X obj 76 258 r \$1gmplayer_movie_on;
#X obj 268 257 r \$1gmplayer_pic_on;
#X obj 474 255 r \$1gmplayer_vcapture_on;
#X obj 76 294 select 1;
#X msg 76 320 0;
#X obj 76 367 s \$1gmplayer_vcapture_on_init;
#X obj 86 348 s \$1gmplayer_pic_on_init;
#X obj 268 296 select 1;
#X msg 268 322 0;
#X obj 268 369 s \$1gmplayer_vcapture_on_init;
#X obj 278 350 s \$1gmplayer_movie_on_init;
#X obj 474 297 select 1;
#X msg 474 323 0;
#X obj 484 351 s \$1gmplayer_movie_on_init;
#X obj 474 370 s \$1gmplayer_pic_on_init;
#X obj 665 299 select 1;
#X msg 665 325 0;
#X obj 675 353 s \$1gmplayer_movie_on_init;
#X obj 665 372 s \$1gmplayer_pic_on_init;
#X obj 665 257 r \$1gmplayer_pdp2gem_on;
#X obj 72 387 s \$1gmplayer_pdp2gem_on_init;
#X obj 266 392 s \$1gmplayer_pdp2gem_on_init;
#X obj 472 394 s \$1gmplayer_pdp2gem_on_init;
#X obj 663 394 s \$1gmplayer_vcapture_on_init;
#X connect 0 0 2 0;
#X connect 1 0 0 0;
#X connect 2 0 4 0;
#X connect 3 0 0 0;
#X connect 4 0 33 0;
#X connect 5 0 8 0;
#X connect 7 0 5 0;
#X connect 9 0 12 0;
#X connect 10 0 11 1;
#X connect 11 0 13 0;
#X connect 12 0 11 0;
#X connect 14 0 17 0;
#X connect 16 0 18 0;
#X connect 17 0 15 0;
#X connect 18 0 17 0;
#X connect 18 0 14 0;
#X connect 19 0 23 0;
#X connect 19 0 20 0;
#X connect 20 0 23 0;
#X connect 21 0 24 0;
#X connect 23 0 22 0;
#X connect 24 1 19 0;
#X connect 25 0 28 0;
#X connect 26 0 25 0;
#X connect 28 0 31 0;
#X connect 29 0 25 0;
#X connect 31 0 32 0;
#X connect 31 1 30 0;
#X connect 32 0 30 0;
#X connect 34 0 4 1;
#X connect 35 0 38 0;
#X connect 36 0 42 0;
#X connect 37 0 46 0;
#X connect 38 0 39 0;
#X connect 39 0 40 0;
#X connect 39 0 41 0;
#X connect 39 0 55 0;
#X connect 42 0 43 0;
#X connect 43 0 44 0;
#X connect 43 0 45 0;
#X connect 43 0 56 0;
#X connect 46 0 47 0;
#X connect 47 0 48 0;
#X connect 47 0 49 0;
#X connect 47 0 57 0;
#X connect 50 0 51 0;
#X connect 51 0 52 0;
#X connect 51 0 53 0;
#X connect 51 0 58 0;
#X connect 54 0 50 0;
#X restore 489 116 pd controls;
#X text 804 19 next;
#N canvas 831 477 936 592 pix_film_player 0;
#X obj 372 491 unpack 0 0 0;
#X floatatom 362 514 5 0 0 3 length - -;
#X floatatom 411 514 5 0 0 3 width - -;
#X floatatom 461 514 5 0 0 3 height - -;
#X obj 429 423 bng 15 250 50 0 empty empty end_reached 20 7 0 10 -262144
-1 -1;
#X floatatom 569 53 5 0 10000 1 frame# - -;
#X obj 238 309 pix_film;
#X obj 73 41 r \$1gmplayer_movie_on;
#X obj 40 64 spigot;
#X obj 287 13 r \$1gmplayer_movie_pix_in;
#X obj 569 22 r \$1gmplayer_movie_frames;
#X obj 429 450 s \$1gmplayer_movie_end;
#X obj 40 17 inlet;
#X obj 362 563 s \$1gmplayer_movie_length;
#X obj 670 346 loadbang;
#X msg 670 384 1;
#X obj 668 416 s \$1gmplayer_movie_auto_init;
#X obj 639 463 s \$1gmplayer_movie_colorspacesel_init;
#X msg 638 431 0;
#X obj 37 273 tgl 15 0 empty empty empty 0 -6 0 8 -262144 -1 -1 0 1
;
#X msg 37 292 mode \$1;
#X obj 40 216 tgl 15 0 empty empty empty 0 -6 0 8 -262144 -1 -1 0 1
;
#X msg 40 235 client_storage \$1;
#N canvas 12 98 1019 563 movie_control 0;
#X msg 136 428 open /home/musa/0zpd/0mandril/media/estrella.mov;
#X obj 306 369 tgl 15 0 empty empty empty 0 -6 0 8 -262144 -1 -1 1
1;
#X obj 200 262 r \$1gmplayer_file_out;
#X msg 136 372 set open \$1;
#X obj 306 339 r \$1gmplayer_movie_auto;
#X msg 306 391 set auto \$1;
#X msg 321 411 auto 1;
#X obj 487 301 r \$1gmplayer_movie_colorspace;
#X msg 485 423 colorspace RGBA;
#X msg 485 368 set colorspace \$1;
#X obj 24 209 r \$1gmplayer_movie_play;
#X obj 25 318 select 1;
#X obj 57 239 r \$1gmplayer_movie_on;
#X obj 24 262 spigot;
#X obj 130 501 s \$1gmplayer_movie_pix_in;
#X obj 306 500 s \$1gmplayer_movie_pix_in;
#X obj 491 505 s \$1gmplayer_movie_pix_in;
#X obj 24 345 t b b b;
#X obj 271 27 r \$1gmplayer_movie_colorspacesel;
#X obj 271 56 select 0 1 2;
#X msg 267 93 RGBA;
#X msg 304 92 YUV;
#X msg 344 94 Grey;
#X obj 269 126 s \$1gmplayer_movie_colorspace;
#X obj 542 35 r \$1gmplayer_movie_end;
#X obj 659 66 r \$1gmplayer_movie_endmode;
#X obj 542 99 demux cont loop stop;
#X obj 542 175 s \$1gmplayer_next;
#X obj 647 143 s \$1gmplayer_movie_play_init;
#X msg 600 124 1;
#X msg 655 125 0;
#X obj 696 338 r \$1gmplayer_movie_frames1;
#X obj 697 417 autoscale;
#X obj 727 365 r \$1gmplayer_movie_length;
#X msg 716 392 0;
#X obj 697 453 s \$1gmplayer_movie_frames;
#X obj 487 336 l2s;
#X obj 108 323 r \$1gmplayer_movie_play;
#X obj 83 346 spigot;
#X msg 654 232 0;
#X obj 654 259 s \$1gmplayer_movie_frames1_init;
#X obj 678 172 s \$1gmplayer_movie_auto_init;
#X connect 0 0 14 0;
#X connect 1 0 5 0;
#X connect 2 0 3 0;
#X connect 2 0 38 0;
#X connect 3 0 0 0;
#X connect 4 0 1 0;
#X connect 5 0 6 0;
#X connect 6 0 15 0;
#X connect 7 0 36 0;
#X connect 8 0 16 0;
#X connect 9 0 8 0;
#X connect 10 0 13 0;
#X connect 11 0 17 0;
#X connect 12 0 13 1;
#X connect 13 0 11 0;
#X connect 17 0 0 0;
#X connect 17 1 6 0;
#X connect 17 2 8 0;
#X connect 18 0 19 0;
#X connect 19 0 20 0;
#X connect 19 1 21 0;
#X connect 19 2 22 0;
#X connect 20 0 23 0;
#X connect 21 0 23 0;
#X connect 22 0 23 0;
#X connect 24 0 26 0;
#X connect 24 0 39 0;
#X connect 25 0 26 1;
#X connect 26 0 27 0;
#X connect 26 1 29 0;
#X connect 26 2 30 0;
#X connect 29 0 28 0;
#X connect 29 0 41 0;
#X connect 30 0 28 0;
#X connect 30 0 41 0;
#X connect 31 0 32 0;
#X connect 32 0 35 0;
#X connect 33 0 34 0;
#X connect 36 0 9 0;
#X connect 37 0 38 1;
#X connect 38 0 17 0;
#X connect 39 0 40 0;
#X restore 637 283 pd movie_control;
#X obj 416 312 pix_movie;
#X obj 40 97 demux film movie;
#X obj 102 66 r \$1gmplayer_movie_player;
#X obj 646 499 s \$1gmplayer_movie_frames;
#X obj 259 559 outlet;
#X obj 467 277 r \$1gmplayer_movie_in2;
#X obj 416 246 r \$1gmplayer_movie_in1;
#X obj 569 102 demux film movie;
#X obj 662 78 r \$1gmplayer_movie_player;
#X obj 81 382 r \$1gmplayer_movie_in2;
#X obj 30 351 r \$1gmplayer_movie_in1;
#X obj 569 148 s \$1gmplayer_film_in2;
#X obj 662 123 s \$1gmplayer_movie_in2;
#X obj 287 66 demux film movie;
#X obj 380 42 r \$1gmplayer_movie_player;
#X obj 287 118 s \$1gmplayer_film_in1;
#X obj 380 93 s \$1gmplayer_movie_in1;
#X obj 238 252 r \$1gmplayer_film_in1;
#X obj 283 281 r \$1gmplayer_film_in2;
#X obj 40 154 s \$1gmplayer_film_in1;
#X obj 133 129 s \$1gmplayer_movie_in1;
#X connect 0 0 1 0;
#X connect 0 1 2 0;
#X connect 0 2 3 0;
#X connect 1 0 13 0;
#X connect 4 0 11 0;
#X connect 5 0 31 0;
#X connect 6 0 28 0;
#X connect 6 1 0 0;
#X connect 6 2 4 0;
#X connect 7 0 8 1;
#X connect 8 0 25 0;
#X connect 9 0 37 0;
#X connect 10 0 5 0;
#X connect 12 0 8 0;
#X connect 14 0 15 0;
#X connect 14 0 18 0;
#X connect 15 0 16 0;
#X connect 18 0 17 0;
#X connect 18 0 27 0;
#X connect 19 0 20 0;
#X connect 21 0 22 0;
#X connect 24 0 28 0;
#X connect 24 1 0 0;
#X connect 24 2 4 0;
#X connect 25 0 43 0;
#X connect 25 1 44 0;
#X connect 26 0 25 1;
#X connect 29 0 24 1;
#X connect 30 0 24 0;
#X connect 31 0 35 0;
#X connect 31 1 36 0;
#X connect 32 0 31 1;
#X connect 37 0 39 0;
#X connect 37 1 40 0;
#X connect 38 0 37 1;
#X connect 41 0 6 0;
#X connect 42 0 6 1;
#X restore 250 127 pd pix_film_player;
#N canvas 682 490 862 300 gplaylist 0;
#X floatatom 34 66 5 0 0 0 - - -;
#X obj 24 94 mtl/gBrowser \$1;
#X obj 24 27 r \$1gmplayer_in1;
#X obj 111 62 r \$1gmplayer_in2;
#X obj 111 133 s \$1gmplayer_index_out;
#X obj 24 205 s \$1gmplayer_file_out;
#X obj 304 202 outlet;
#X obj 358 202 outlet;
#X obj 410 202 outlet;
#X obj 304 119 r \$1gmplayer_file_out;
#X obj 410 167 r \$1gmplayer_index_out;
#X obj 67 168 s \$1gmplayer_bang;
#X obj 358 145 r \$1gmplayer_bang;
#X obj 581 93 f \$0;
#X symbolatom 588 134 0 0 0 0 - - -;
#X msg 581 184 \; \$1 vis \$2;
#X obj 581 155 pack symbol float;
#X obj 581 69 t b f;
#X obj 582 35 r \$1gmplayer_pllist_config;
#X obj 581 112 makesymbol pd-\$1-gmplayer_pllist_win;
#N canvas 901 444 209 211 \$1-gmplayer_pllist_win 0;
#X obj 6 -6 cnv 15 198 60 empty empty empty 20 12 0 14 -66577 -66577
0;
#X obj 9 11 bng 14 250 50 0 \$1gmplayer_add_file \$1gmplayer_add_file_init
addfile 17 7 0 8 -4034 -228856 -228856;
#X obj 188 62 vsl 15 115 0 175 0 0 \$1slider_s \$1slider_r empty 0
-8 0 8 -260097 -262144 -1 0 0;
#X obj 6 60 hradio 15 1 0 12 \$1hr_0_s \$1hr_0_r empty 2 8 1 10 -1
-1 -262144 0;
#X obj 6 75 hradio 15 1 0 12 \$1hr_1_s \$1hr_1_r empty 2 8 1 10 -1
-1 -262144 0;
#X obj 6 90 hradio 15 1 0 12 \$1hr_2_s \$1hr_2_r empty 2 8 1 10 -1
-1 -262144 0;
#X obj 6 105 hradio 15 1 0 12 \$1hr_3_s \$1hr_3_r empty 2 8 1 10 -1
-1 -262144 0;
#X obj 6 120 hradio 15 1 0 12 \$1hr_4_s \$1hr_4_r empty 2 8 1 10 -1
-1 -262144 0;
#X obj 6 135 hradio 15 1 0 12 \$1hr_5_s \$1hr_5_r empty 2 8 1 10 -1
-1 -262144 0;
#X obj 6 150 hradio 15 1 0 12 \$1hr_6_s \$1hr_6_r empty 2 8 1 10 -1
-1 -262144 0;
#X obj 6 165 hradio 15 1 0 12 \$1hr_7_s \$1hr_7_r empty 2 8 1 10 -1
-1 -262144 0;
#X obj 7 44 hradio 15 1 0 11 \$1label_radio_s \$1label_radio_r empty
2 8 0 8 -1 -1 -262144 0;
#X obj 6 44 cnv 15 197 15 empty \$1hider empty 3 9 0 8 -128992 -262144
0;
#X obj 73 12 bng 14 250 50 0 \$1gmplayer_clear \$1gmplayer_clear_init
clear 17 7 0 8 -258113 -1 -228856;
#X obj 188 45 bng 14 250 50 0 \$1gmplayer_in2 \$1gmplayer_up_init up
-14 7 0 8 -260097 -1 -1;
#X obj 9 26 bng 14 250 50 0 \$1gmplayer_add_dir \$1gmplayer_add_dir_init
adddir 17 7 0 8 -4160 -228856 -228856;
#X obj 5 181 cnv 15 198 20 empty empty empty 2 8 0 8 -66577 -228856
0;
#X obj 9 183 hradio 15 1 0 10 empty \$0file_lab estrella.mov 2 8 1
8 -1 -1 -257985 0;
#X obj 166 183 hradio 15 1 0 2 empty \$0index_lab -0- 2 8 1 8 -1 -1
-257985 0;
#X obj 71 27 hradio 13 1 0 4 \$1gmplayer_filetype \$1gmplayer_filetype_init
empty 0 -8 0 10 -260097 -1 -1 0;
#X obj 123 27 hradio 13 1 0 3 empty \$0type_lab all 2 8 0 8 -1 -1 -228856
0;
#X obj 5 -6 cnv 15 198 15 empty empty PLAYLIST 2 8 0 10 -4160 -228856
0;
#X obj 188 27 bng 14 250 50 0 empty \$1gmplayer_next empty 17 7 0 8
-66577 -258113 -33289;
#X obj 189 11 bng 14 250 50 0 \$1gmplayer_next \$1gmplayer_next_init
next -24 7 0 8 -260097 -1 -228856;
#X restore 308 37 pd \$1-gmplayer_pllist_win;
#X connect 0 0 1 0;
#X connect 1 0 5 0;
#X connect 1 1 11 0;
#X connect 1 2 4 0;
#X connect 2 0 1 0;
#X connect 3 0 1 1;
#X connect 9 0 6 0;
#X connect 10 0 8 0;
#X connect 12 0 7 0;
#X connect 13 0 19 0;
#X connect 16 0 15 0;
#X connect 17 0 13 0;
#X connect 17 1 16 1;
#X connect 18 0 17 0;
#X connect 19 0 14 0;
#X connect 19 0 16 0;
#X restore 240 49 pd gplaylist;
#X obj 0 105 cnv 15 198 65 empty \$0color_bmovie empty 20 8 0 8 -99865
-1 0;
#X obj 395 14 inlet;
#X obj 395 50 s \$1gmplayer_gem;
#X obj 2 105 tgl 15 0 \$1gmplayer_movie_on \$1gmplayer_movie_on_init
empty 17 7 0 8 -4034 -1 -1 0 1;
#X obj 3 125 tgl 14 0 \$1gmplayer_movie_play \$1gmplayer_movie_play_init
play 17 7 0 8 -4160 -1 -228856 0 1;
#X obj 3 138 tgl 14 0 \$1gmplayer_movie_player \$1gmplayer_movie_player_init
film/movie 17 7 0 8 -260097 -1 -228856 0 1;
#X obj 154 106 vradio 13 1 0 3 \$1gmplayer_movie_colorspacesel \$1gmplayer_movie_colorspacesel_init
empty 0 -8 0 8 -260097 -1 -1 0;
#X text 168 103 RGBA;
#X text 169 117 YUV;
#X text 169 129 Grey;
#X obj 109 106 vradio 13 1 0 3 \$1gmplayer_movie_endmode \$1gmplayer_movie_endmode_init
empty 0 -8 0 8 -260097 -1 -1 0;
#X text 122 103 cont.;
#X text 122 117 loop;
#X text 123 129 stop;
#X obj 220 87 r \$1gmplayer_gem;
#X obj 4 156 hsl 110 12 0 127 0 0 \$1gmplayer_movie_frames1 \$1gmplayer_movie_frames1_init
frame 2 6 0 8 -33289 -260097 -260097 0 0;
#X obj 116 156 nbx 4 12 -1e+37 1e+37 0 0 empty \$1gmplayer_movie_frames
empty 0 -8 0 8 -33289 -260097 -260097 0 256;
#X obj 17 106 cnv 13 80 13 empty \$0color_movie MOVIE_PLAYER 2 8 0
8 -162277 -1 0;
#X obj 0 18 cnv 15 198 15 empty empty PLAYLIST 2 8 0 10 -4160 -228856
0;
#X obj 154 156 nbx 4 12 -1e+37 1e+37 0 0 empty \$1gmplayer_movie_length
empty 0 -8 0 8 -33289 -260097 -260097 0 256;
#X obj 49 125 tgl 14 0 \$1gmplayer_movie_auto \$1gmplayer_movie_auto_init
auto 17 7 0 8 -260097 -1 -228856 1 1;
#X obj 0 177 cnv 15 198 30 empty \$0color_bpic empty 20 8 0 8 -99865
-1 0;
#X obj 1 177 tgl 15 0 \$1gmplayer_pic_on \$1gmplayer_pic_on_init empty
17 7 0 8 -4034 -1 -1 0 1;
#X obj 16 178 cnv 13 60 13 empty \$0color_pic PIC_VIEW 2 8 0 8 -162277
-1 0;
#X obj 79 178 tgl 14 0 \$1gmplayer_pic_thread \$1gmplayer_pic_thread_init
thread 17 7 0 8 -260097 -1 -228856 0 1;
#N canvas 746 458 573 309 pix_pic_view 0;
#X obj 26 162 pix_image;
#X msg 351 57 thread \$1;
#X obj 351 27 tgl 15 0 empty empty empty 17 7 0 10 -262144 -1 -1 0
1;
#X obj 26 243 outlet;
#X obj 210 -2 r \$1gmplayer_file_out;
#X msg 210 31 open \$1;
#X obj 26 45 spigot;
#X obj 26 -2 inlet;
#X obj 59 22 r \$1gmplayer_pic_on;
#X obj 352 -2 r \$1gmplayer_pic_thread;
#X obj 226 154 r \$1gmplayer_pic_auto;
#X obj 379 155 r \$1gmplayer_pic_seg;
#X obj 299 199 * 1000;
#X obj 226 294 s \$1gmplayer_next;
#X obj 86 55 select 0;
#X msg 87 79 0;
#X obj 226 223 metro 1000;
#X connect 0 0 3 0;
#X connect 1 0 0 0;
#X connect 2 0 1 0;
#X connect 4 0 5 0;
#X connect 5 0 0 0;
#X connect 6 0 0 0;
#X connect 7 0 6 0;
#X connect 8 0 6 1;
#X connect 8 0 14 0;
#X connect 9 0 2 0;
#X connect 10 0 16 0;
#X connect 11 0 12 0;
#X connect 12 0 16 1;
#X connect 14 0 15 0;
#X connect 15 0 16 0;
#X connect 16 0 13 0;
#X restore 250 192 pd pix_pic_view;
#X obj 0 214 cnv 15 198 65 empty \$0color_bvcapture empty 20 8 0 8
-99865 -1 0;
#X obj 1 214 tgl 15 0 \$1gmplayer_vcapture_on \$1gmplayer_vcapture_on_init
empty 17 7 0 8 -4034 -1 -1 0 1;
#X obj 16 215 cnv 13 84 13 empty \$0color_vcapture VIDEO_CAPTURE 2
8 0 8 -162277 -1 0;
#N canvas 48 452 663 312 video_capture 0;
#X obj 36 55 spigot;
#X obj 36 8 inlet;
#X obj 69 32 r \$1gmplayer_vcapture_on;
#X obj 36 182 outlet;
#N canvas 1064 423 326 152 \$1-gmplayer_capture_win 0;
#X obj -108 134 outlet;
#X obj -132 2 mb-gem_pix_capture_video \$1;
#X obj -105 154 inlet;
#X connect 1 0 0 0;
#X connect 2 0 1 0;
#X restore 36 100 pd \$1-gmplayer_capture_win;
#X obj 266 72 f \$0;
#X symbolatom 273 113 0 0 0 0 - - -;
#X msg 266 163 \; \$1 vis \$2;
#X obj 266 134 pack symbol float;
#X obj 266 48 t b f;
#X obj 266 91 makesymbol pd-\$1-gmplayer_capture_win;
#X obj 92 57 s \$1vgempix_on;
#X obj 267 14 r \$1gmplayer_vcapture_config;
#N canvas 16 198 990 419 capture_control 0;
#X obj 43 32 r \$1gmplayer_vcapture_device;
#X obj 316 31 r \$1gmplayer_vcapture_driver;
#X obj 505 32 r \$1gmplayer_vcapture_cspace;
#X obj 766 36 r \$1gmplayer_vcapture_norm;
#X obj 43 62 s \$1vgempix_device_init;
#X obj 40 273 s \$0device_lab;
#X obj 38 133 r \$1vgempix_device2;
#X msg 40 245 label \$1;
#X obj 40 218 l2s;
#X obj 102 172 delay 1;
#X obj 85 175 bng 15 250 50 0 empty empty empty 17 7 0 10 -262144 -1
-1;
#X msg 39 195 video;
#X msg 331 235 label \$1;
#X obj 331 208 l2s;
#X obj 393 162 delay 1;
#X obj 376 165 bng 15 250 50 0 empty empty empty 17 7 0 10 -262144
-1 -1;
#X msg 330 185 v4l2;
#X obj 315 64 s \$1vgempix_driver_init;
#X obj 329 123 r \$1vgempix_driver2;
#X obj 509 68 s \$1vgempix_colorspace_init;
#X obj 331 263 s \$0driver_lab;
#X obj 766 73 s \$1vgempix_norm_init;
#X msg 767 269 label \$1;
#X obj 767 242 l2s;
#X obj 829 196 delay 1;
#X obj 812 199 bng 15 250 50 0 empty empty empty 17 7 0 10 -262144
-1 -1;
#X msg 766 219 PAL;
#X obj 765 157 r \$1vgempix_norm2;
#X obj 767 297 s \$0norm_lab;
#X msg 558 264 label \$1;
#X obj 558 237 l2s;
#X obj 620 191 delay 1;
#X obj 603 194 bng 15 250 50 0 empty empty empty 17 7 0 10 -262144
-1 -1;
#X msg 557 214 RGB;
#X obj 558 292 s \$0cspace_lab;
#X obj 556 152 r \$1vgempix_colorspace2;
#X connect 0 0 4 0;
#X connect 1 0 17 0;
#X connect 2 0 19 0;
#X connect 3 0 21 0;
#X connect 6 0 11 0;
#X connect 6 0 10 0;
#X connect 7 0 5 0;
#X connect 8 0 7 0;
#X connect 9 0 11 0;
#X connect 10 0 9 0;
#X connect 11 0 8 0;
#X connect 12 0 20 0;
#X connect 13 0 12 0;
#X connect 14 0 16 0;
#X connect 15 0 14 0;
#X connect 16 0 13 0;
#X connect 18 0 16 0;
#X connect 18 0 15 0;
#X connect 22 0 28 0;
#X connect 23 0 22 0;
#X connect 24 0 26 0;
#X connect 25 0 24 0;
#X connect 26 0 23 0;
#X connect 27 0 26 0;
#X connect 27 0 25 0;
#X connect 29 0 34 0;
#X connect 30 0 29 0;
#X connect 31 0 33 0;
#X connect 32 0 31 0;
#X connect 33 0 30 0;
#X connect 35 0 33 0;
#X connect 35 0 32 0;
#X restore 479 47 pd capture_control;
#X connect 0 0 4 0;
#X connect 1 0 0 0;
#X connect 2 0 0 1;
#X connect 2 0 11 0;
#X connect 4 0 3 0;
#X connect 5 0 10 0;
#X connect 8 0 7 0;
#X connect 9 0 5 0;
#X connect 9 1 8 1;
#X connect 10 0 6 0;
#X connect 10 0 8 0;
#X connect 12 0 9 0;
#X restore 250 249 pd video_capture;
#N canvas 230 386 769 629 texture 0;
#X obj 36 55 spigot;
#X obj 36 8 inlet;
#X obj 35 369 outlet;
#X obj 225 15 r \$1gmplayer_texture_on;
#X obj 524 61 f \$0;
#X symbolatom 531 102 0 0 0 0 - - -;
#X msg 524 152 \; \$1 vis \$2;
#X obj 524 123 pack symbol float;
#X obj 524 37 t b f;
#N canvas 1148 877 205 171 \$1-gmplayer_texture_win 0;
#X obj 38 11 inlet;
#X obj -6 149 outlet;
#X obj -8 8 mb-gem_pix_control_texture \$1;
#X connect 0 0 2 0;
#X connect 2 0 1 0;
#X restore 36 95 pd \$1-gmplayer_texture_win;
#X obj 523 80 makesymbol pd-\$1-gmplayer_texture_win;
#X obj 236 98 s \$1gempix_texture_on_init;
#X obj 526 3 r \$1gmplayer_texture_config;
#N canvas 1144 837 248 223 \$1-gmplayer_transform_win 0;
#X obj -40 -77 inlet;
#X obj -84 61 outlet;
#X obj -103 -97 mb-gem_pix_control_transform \$1;
#X connect 0 0 2 0;
#X connect 2 0 1 0;
#X restore 36 260 pd \$1-gmplayer_transform_win;
#X obj 520 261 f \$0;
#X symbolatom 527 302 0 0 0 0 - - -;
#X msg 520 352 \; \$1 vis \$2;
#X obj 520 323 pack symbol float;
#X obj 520 237 t b f;
#X obj 522 203 r \$1gmplayer_transform_config;
#X obj 519 280 makesymbol pd-\$1-gmplayer_transform_win;
#X obj 226 214 s \$1gempix_shapes_enable_init;
#X obj 515 463 f \$0;
#X symbolatom 522 504 0 0 0 0 - - -;
#X msg 515 554 \; \$1 vis \$2;
#X obj 515 525 pack symbol float;
#X obj 515 439 t b f;
#X obj 515 405 r \$1gmplayer_shapes_config;
#N canvas 806 905 196 163 \$1-gmplayer_shapes_win 0;
#X obj 38 11 inlet;
#X obj -4 136 outlet;
#X obj -13 4 mb-gem_pix_control_shapes \$1;
#X connect 0 0 2 0;
#X connect 2 0 1 0;
#X restore 36 315 pd \$1-gmplayer_shapes_win;
#X obj 514 482 makesymbol pd-\$1-gmplayer_shapes_win;
#X obj 224 290 s \$1gempix_shape_select_init;
#X obj 224 240 r \$1gmplayer_shape_select;
#N canvas 20 142 719 598 shapes_label 0;
#X obj 180 61 r \$1gempix_shape_select_init;
#X obj 179 109 select 0 1 2 3 4 5 6;
#X msg 179 166 set label off;
#X obj 140 349 bng 15 250 50 0 empty empty empty 17 7 0 10 -262144
-1 -1;
#X obj 191 426 s \$0shape_lab;
#X msg 191 398 label rectangle;
#X msg 195 197 set label square;
#X msg 216 223 set label rectangle;
#X msg 232 253 set label triangle;
#X msg 256 282 set label circle;
#X msg 289 309 set label cube;
#X msg 315 335 set label sphere;
#X obj 86 404 delay 1;
#X connect 0 0 1 0;
#X connect 1 0 2 0;
#X connect 1 1 6 0;
#X connect 1 2 7 0;
#X connect 1 3 8 0;
#X connect 1 4 9 0;
#X connect 1 5 10 0;
#X connect 1 6 11 0;
#X connect 2 0 3 0;
#X connect 2 0 5 0;
#X connect 3 0 12 0;
#X connect 5 0 4 0;
#X connect 6 0 5 0;
#X connect 6 0 3 0;
#X connect 7 0 3 0;
#X connect 7 0 5 0;
#X connect 8 0 3 0;
#X connect 8 0 5 0;
#X connect 9 0 3 0;
#X connect 9 0 5 0;
#X connect 10 0 3 0;
#X connect 10 0 5 0;
#X connect 11 0 3 0;
#X connect 11 0 5 0;
#X connect 12 0 5 0;
#X restore 225 322 pd shapes_label;
#X obj 100 197 r \$1gmplayer_texture_scale2pix;
#X obj 36 229 mtl/gemsScaleToPix 0;
#N canvas 12 98 463 300 scale2pix_label 0;
#X obj 166 84 r \$1gmplayer_texture_scale2pix;
#X msg 169 243 label none;
#X obj 83 208 delay 1;
#X obj 169 271 s \$0scale2pix_lab;
#X obj 167 127 select 0 1 2;
#X msg 167 155 set label none;
#X msg 205 176 set label ratio;
#X msg 245 199 set label size;
#X obj 83 174 bng 15 250 50 0 empty empty empty 17 7 0 10 -262144 -1
-1;
#X connect 0 0 4 0;
#X connect 1 0 3 0;
#X connect 2 0 1 0;
#X connect 4 0 5 0;
#X connect 4 1 6 0;
#X connect 4 2 7 0;
#X connect 5 0 1 0;
#X connect 5 0 8 0;
#X connect 6 0 1 0;
#X connect 6 0 8 0;
#X connect 7 0 1 0;
#X connect 7 0 8 0;
#X connect 8 0 2 0;
#X restore 223 375 pd scale2pix_label;
#X connect 0 0 9 0;
#X connect 1 0 0 0;
#X connect 3 0 0 1;
#X connect 3 0 11 0;
#X connect 3 0 21 0;
#X connect 4 0 10 0;
#X connect 7 0 6 0;
#X connect 8 0 4 0;
#X connect 8 1 7 1;
#X connect 9 0 34 0;
#X connect 10 0 5 0;
#X connect 10 0 7 0;
#X connect 12 0 8 0;
#X connect 13 0 28 0;
#X connect 14 0 20 0;
#X connect 17 0 16 0;
#X connect 18 0 14 0;
#X connect 18 1 17 1;
#X connect 19 0 18 0;
#X connect 20 0 15 0;
#X connect 20 0 17 0;
#X connect 22 0 29 0;
#X connect 25 0 24 0;
#X connect 26 0 22 0;
#X connect 26 1 25 1;
#X connect 27 0 26 0;
#X connect 28 0 2 0;
#X connect 29 0 23 0;
#X connect 29 0 25 0;
#X connect 31 0 30 0;
#X connect 33 0 34 1;
#X connect 34 0 13 0;
#X restore 250 434 pd texture;
#N canvas 441 361 311 296 effects 0;
#X obj 36 204 outlet;
#X obj 36 8 inlet;
#N canvas 12 325 859 320 pix_effects 0;
#N canvas 810 325 479 587 \$1-gmplayer_pix_effects_win 0;
#X obj 3 -37 cnv 15 470 580 empty empty pix_effect_config 2 8 0 10
-128992 -262144 0;
#X obj 15 -12 inlet;
#X obj 147 -37 cnv 15 50 15 empty \$1gmplayer_id \$1 10 8 0 8 -260097
-33289 0;
#X obj 317 -16 mb-gem_pix_ef_bitmask \$1;
#X obj 162 -16 mb-gem_pix_ef_biquad \$1;
#X obj 9 141 mb-gem_pix_ef_halftone \$1;
#X obj 9 -16 mb-gem_pix_ef_background \$1;
#X obj 9 63 mb-gem_pix_ef_convolve \$1;
#X obj 163 63 mb-gem_pix_ef_gain \$1;
#X obj 317 63 mb-gem_pix_ef_grey \$1;
#X obj 317 142 mb-gem_pix_ef_kalei \$1;
#X obj 9 221 mb-gem_pix_ef_lumaoffset \$1;
#X obj 163 142 mb-gem_pix_ef_invert \$1;
#X obj 163 221 mb-gem_pix_ef_metaimage \$1;
#X obj 9 300 mb-gem_pix_ef_normalize \$1;
#X obj 163 300 mb-gem_pix_ef_refraction \$1;
#X obj 317 300 mb-gem_pix_ef_rds \$1;
#X obj 9 379 mb-gem_pix_ef_roll \$1;
#X obj 163 379 mb-gem_pix_ef_rtx \$1;
#X obj 317 379 mb-gem_pix_ef_scanline \$1;
#X obj 163 458 mb-gem_pix_ef_thresholdb \$1;
#X obj 9 458 mb-gem_pix_ef_threshold \$1;
#X obj 341 516 outlet;
#X obj 317 458 mb-gem_pix_ef_tiir \$1;
#X obj 213 -36 bng 15 250 50 0 \$1gmplayer_pixef_all_on \$1gmplayer_pixef_all_on_init
enable_all 17 7 0 8 -4034 -1 -262144;
#X obj 294 -36 bng 15 250 50 0 \$1gmplayer_pixef_all_off \$1gmplayer_pixef_all_off_init
disable_all 17 7 0 8 -258113 -1 -262144;
#X connect 1 0 6 0;
#X connect 3 0 9 0;
#X connect 4 0 8 0;
#X connect 5 0 11 0;
#X connect 6 0 7 0;
#X connect 7 0 5 0;
#X connect 8 0 12 0;
#X connect 9 0 10 0;
#X connect 10 0 16 0;
#X connect 11 0 14 0;
#X connect 12 0 13 0;
#X connect 13 0 15 0;
#X connect 14 0 17 0;
#X connect 15 0 18 0;
#X connect 16 0 19 0;
#X connect 17 0 21 0;
#X connect 18 0 20 0;
#X connect 19 0 23 0;
#X connect 20 0 3 0;
#X connect 21 0 4 0;
#X connect 23 0 22 0;
#X restore 385 -33 pd \$1-gmplayer_pix_effects_win;
#X obj 68 -92 f \$0;
#X symbolatom 75 -51 0 0 0 0 - - -;
#X msg 68 -1 \; \$1 vis \$2;
#X obj 68 -30 pack symbol float;
#X obj 68 -116 t b f;
#X obj 345 -185 inlet;
#X obj 354 -77 gate 2;
#X obj 393 -107 + 1;
#X obj 393 -135 r \$1gmplayer_pixef_on;
#X obj 370 33 outlet;
#X obj 68 -154 r \$1gmplayer_pixef_configure_on;
#X obj 68 -73 makesymbol pd-\$1-gmplayer_pix_effects_win;
#N canvas 8 130 664 528 pix_eff_disable_all 0;
#X obj 111 127 s \$1gempix_ef_bitmask_on;
#X obj 41 52 bng 15 250 50 0 empty empty empty 0 -6 0 8 -262144 -1
-1;
#X msg 42 88 0;
#X obj 112 154 s \$1gempix_ef_halftone_on;
#X obj 111 182 s \$1gempix_ef_rds_on;
#X obj 112 209 s \$1gempix_ef_roll_on;
#X obj 114 235 s \$1gempix_ef_invert_on;
#X obj 115 262 s \$1gempix_ef_scanline_on;
#X obj 114 290 s \$1gempix_ef_threshold_on;
#X obj 115 318 s \$1gempix_ef_thresholdb_on;
#X obj 115 343 s \$1gempix_ef_metaimage_on;
#X obj 331 128 s \$1gempix_ef_refraction_on;
#X obj 335 161 s \$1gempix_ef_convolve_on;
#X obj 333 191 s \$1gempix_ef_gain_on;
#X obj 333 221 s \$1gempix_ef_lumaoffset_on;
#X obj 334 253 s \$1gempix_ef_tiir_on;
#X obj 332 281 s \$1gempix_ef_biquad_on;
#X obj 334 306 s \$1gempix_ef_kalei_on;
#X obj 334 333 s \$1gempix_ef_rtx_on;
#X obj 336 362 s \$1gempix_ef_background_on;
#X obj 336 391 s \$1gempix_ef_grey_on;
#X obj 336 416 s \$1gempix_ef_normalize_on;
#X obj 273 55 bng 15 250 50 0 empty empty empty 0 -6 0 8 -262144 -1
-1;
#X msg 274 91 0;
#X obj 44 12 r \$1gmplayer_pixef_all_off;
#X msg 385 67 1;
#X obj 393 46 bng 15 250 50 0 empty empty empty 0 -6 0 8 -262144 -1
-1;
#X obj 393 19 r \$1gmplayer_pixef_all_on;
#X connect 1 0 2 0;
#X connect 2 0 0 0;
#X connect 2 0 3 0;
#X connect 2 0 4 0;
#X connect 2 0 5 0;
#X connect 2 0 6 0;
#X connect 2 0 7 0;
#X connect 2 0 8 0;
#X connect 2 0 9 0;
#X connect 2 0 10 0;
#X connect 22 0 23 0;
#X connect 23 0 11 0;
#X connect 23 0 12 0;
#X connect 23 0 13 0;
#X connect 23 0 14 0;
#X connect 23 0 15 0;
#X connect 23 0 16 0;
#X connect 23 0 17 0;
#X connect 23 0 18 0;
#X connect 23 0 19 0;
#X connect 23 0 20 0;
#X connect 23 0 21 0;
#X connect 24 0 1 0;
#X connect 24 0 22 0;
#X connect 25 0 10 0;
#X connect 25 0 0 0;
#X connect 25 0 3 0;
#X connect 25 0 4 0;
#X connect 25 0 5 0;
#X connect 25 0 6 0;
#X connect 25 0 7 0;
#X connect 25 0 8 0;
#X connect 25 0 9 0;
#X connect 25 0 11 0;
#X connect 25 0 12 0;
#X connect 25 0 13 0;
#X connect 25 0 14 0;
#X connect 25 0 15 0;
#X connect 25 0 16 0;
#X connect 25 0 17 0;
#X connect 25 0 18 0;
#X connect 25 0 19 0;
#X connect 25 0 20 0;
#X connect 25 0 21 0;
#X connect 26 0 25 0;
#X connect 27 0 26 0;
#X restore 639 -34 pd pix_eff_disable_all;
#X obj 654 -164 loadbang;
#X obj 671 -126 s \$1gmplayer_pixef_all_on;
#X obj 654 -76 s \$1gmplayer_pixef_all_off;
#X obj 654 -97 delay 10;
#X connect 0 0 10 0;
#X connect 1 0 12 0;
#X connect 4 0 3 0;
#X connect 5 0 1 0;
#X connect 5 1 4 1;
#X connect 6 0 7 1;
#X connect 7 0 10 0;
#X connect 7 1 0 0;
#X connect 8 0 7 0;
#X connect 9 0 8 0;
#X connect 11 0 5 0;
#X connect 12 0 2 0;
#X connect 12 0 4 0;
#X connect 14 0 15 0;
#X connect 14 0 17 0;
#X connect 17 0 16 0;
#X restore 36 62 pd pix_effects;
#N canvas 797 75 859 320 pix_ocv_effects 0;
#X obj 345 -185 inlet;
#X obj 354 -77 gate 2;
#X obj 393 -107 + 1;
#X obj 370 33 outlet;
#X obj 68 -92 f \$0;
#X symbolatom 75 -51 0 0 0 0 - - -;
#X msg 68 -1 \; \$1 vis \$2;
#X obj 68 -30 pack symbol float;
#X obj 68 -116 t b f;
#X obj 393 -135 r \$1gmplayer_pix_ocv_on;
#N canvas 812 375 477 230 \$1-gmplayer_pix_ocv_win 0;
#X obj 3 -37 cnv 15 470 200 empty empty ocv_effects_config 2 8 0 10
-128992 -262144 0;
#X obj 158 -33 cnv 15 50 15 empty \$1gmplayer_id \$1 10 8 0 8 -260097
-33289 0;
#X obj 85 -9 inlet;
#X obj 87 37 outlet;
#X connect 2 0 3 0;
#X restore 385 -33 pd \$1-gmplayer_pix_ocv_win;
#X obj 68 -73 makesymbol pd-\$1-gmplayer_pix_ocv_win;
#X obj 68 -154 r \$1gmplayer_pix_ocv_configure_on;
#X connect 0 0 1 1;
#X connect 1 0 3 0;
#X connect 1 1 10 0;
#X connect 2 0 1 0;
#X connect 4 0 11 0;
#X connect 7 0 6 0;
#X connect 8 0 4 0;
#X connect 8 1 7 1;
#X connect 9 0 2 0;
#X connect 10 0 3 0;
#X connect 11 0 5 0;
#X connect 11 0 7 0;
#X connect 12 0 8 0;
#X restore 36 127 pd pix_ocv_effects;
#X connect 1 0 2 0;
#X connect 2 0 3 0;
#X connect 3 0 0 0;
#X restore 250 368 pd effects;
#X obj 250 461 outlet;
#X obj 79 193 tgl 14 0 \$1gmplayer_pic_auto \$1gmplayer_pic_auto_init
auto 17 7 0 8 -260097 -1 -228856 0 1;
#X obj 124 194 nbx 4 12 1 100 0 0 \$1gmplayer_pic_seg \$1gmplayer_pic_seg_init
sec 40 6 0 8 -33289 -260097 -260097 1 256;
#X obj 183 51 bng 14 250 50 0 empty \$1gmplayer_next empty 17 7 0 8
-66577 -258113 -33289;
#X obj 108 216 tgl 14 0 \$1gmplayer_vcapture_config \$1gmplayer_vcapture_config_init
configure 17 7 0 8 -260097 -1 -228856 0 1;
#X obj 5 246 hradio 13 1 0 4 \$1gmplayer_vcapture_device \$1gmplayer_vcapture_device_init
device 0 -6 0 8 -260097 -1 -1 0;
#X obj 5 259 hradio 13 1 0 5 empty \$0device_lab video 2 8 0 8 -1 -1
-228856 0;
#X obj 73 245 hradio 13 1 0 3 \$1gmplayer_vcapture_driver \$1gmplayer_vcapture_driver_init
driver 0 -6 0 8 -260097 -1 -1 0;
#X obj 73 258 hradio 13 1 0 3 empty \$0driver_lab v4l2 2 8 0 8 -1 -1
-228856 0;
#X obj 116 245 hradio 13 1 0 3 \$1gmplayer_vcapture_cspace \$1gmplayer_vcapture_cspace_init
cspace 0 -6 0 8 -260097 -1 -1 0;
#X obj 116 258 hradio 13 1 0 3 empty \$0cspace_lab RGB 2 8 0 8 -1 -1
-228856 0;
#X obj 159 245 hradio 13 1 0 2 \$1gmplayer_vcapture_norm \$1gmplayer_vcapture_norm_init
norm 0 -6 0 8 -260097 -1 -1 0;
#X obj 159 258 hradio 13 1 0 3 empty \$0norm_lab empty 2 8 0 8 -1 -1
-228856 0;
#X obj 0 89 cnv 15 198 15 empty empty SELECT_SOURCE 2 8 0 10 -4160
-262144 0;
#N canvas 665 239 1189 832 source_colors 0;
#X obj 372 62 nbx 5 14 0 255 0 0 empty empty empty 0 -6 0 10 -262144
-1 -1 0 256;
#X obj 431 62 nbx 5 14 0 255 0 0 empty empty empty 0 -6 0 10 -262144
-1 -1 0 256;
#X obj 489 62 nbx 5 14 0 255 0 0 empty empty empty 0 -6 0 10 -262144
-1 -1 0 256;
#X obj 431 82 t b f;
#X obj 489 83 t b f;
#X floatatom 189 157 10 0 0 0 - - -;
#X obj 431 109 pack f f f;
#X msg 189 178 \; can45 color \$1;
#X text 369 42 8bit_RGB input;
#X text 128 48 float_RGB input;
#X obj 131 68 nbx 5 14 0 1 0 0 empty empty empty 0 -6 0 10 -262144
-1 -1 0 256;
#X obj 189 68 nbx 5 14 0 1 0 0 empty empty empty 0 -6 0 10 -262144
-1 -1 0 256;
#X obj 246 68 nbx 5 14 0 1 0 0 empty empty empty 0 -6 0 10 -262144
-1 -1 0 256;
#X obj 189 85 t b f;
#X obj 246 86 t b f;
#X obj 189 112 pack f f f;
#X obj 189 134 mtl/rgbToNum;
#X obj 431 131 mtl/rgbToNum integer;
#X obj 427 166 mtl/rgbToNum 8bit;
#X obj 427 191 mtl/rgbToNum int;
#X msg 269 219 set \$1;
#X obj 173 437 prepend \$0;
#X floatatom 175 396 0 0 0 0 - - -;
#X msg 172 465 \; \$1color_movie color \$2 \$3;
#X msg 368 465 \; \$1color_bmovie color \$2 \$3;
#X msg 172 415 \$1 -1;
#X floatatom 364 393 0 0 0 0 - - -;
#X msg 359 367 -6.31613e+06;
#X obj 363 437 prepend \$0;
#X msg 364 414 \$1 -1;
#X msg 450 365 -1.02637e+07;
#X text 435 335 gris clar;
#X obj 182 248 r \$1gmplayer_movie_on;
#X obj 180 282 select 0 1;
#X obj 682 406 prepend \$0;
#X floatatom 684 365 0 0 0 0 - - -;
#X floatatom 873 362 0 0 0 0 - - -;
#X msg 868 336 -6.31613e+06;
#X obj 872 406 prepend \$0;
#X msg 873 383 \$1 -1;
#X msg 959 334 -1.02637e+07;
#X text 944 304 gris clar;
#X obj 689 251 select 0 1;
#X obj 691 217 r \$1gmplayer_pic_on;
#X msg 681 434 \; \$1color_pic color \$2 \$3;
#X msg 877 434 \; \$1color_bpic color \$2 \$3;
#X obj 180 728 prepend \$0;
#X floatatom 182 687 0 0 0 0 - - -;
#X msg 179 706 \$1 -1;
#X text 204 620 gris;
#X floatatom 371 684 0 0 0 0 - - -;
#X msg 366 658 -6.31613e+06;
#X obj 370 728 prepend \$0;
#X msg 371 705 \$1 -1;
#X msg 457 656 -1.02637e+07;
#X text 442 626 gris clar;
#X obj 187 573 select 0 1;
#X obj 189 539 r \$1gmplayer_vcapture_on;
#X msg 179 756 \; \$1color_vcapture color \$2 \$3;
#X msg 375 756 \; \$1color_bvcapture color \$2 \$3;
#X msg 158 343 -1.02637e+07;
#X msg 349 229 -1.67772e+07;
#X msg 262 342 -1.67117e+07;
#X text 283 320 comment;
#X msg 773 313 -1.67117e+07;
#X msg 263 632 -1.67117e+07;
#X msg 681 384 \$1 -1;
#X msg 589 318 -1.02637e+07;
#X msg 149 640 -1.02637e+07;
#X obj 679 726 prepend \$0;
#X floatatom 681 685 0 0 0 0 - - -;
#X msg 678 704 \$1 -1;
#X text 703 618 gris;
#X floatatom 870 682 0 0 0 0 - - -;
#X msg 865 656 -6.31613e+06;
#X obj 869 726 prepend \$0;
#X msg 870 703 \$1 -1;
#X msg 956 654 -1.02637e+07;
#X text 941 624 gris clar;
#X obj 686 571 select 0 1;
#X msg 762 630 -1.67117e+07;
#X msg 648 638 -1.02637e+07;
#X obj 688 537 r \$1gmplayer_pdp2gem_on;
#X msg 678 754 \; \$1color_pdp2gem color \$2 \$3;
#X msg 874 754 \; \$1color_bpdp2gem color \$2 \$3;
#X msg 491 389 -1;
#X connect 0 0 6 0;
#X connect 1 0 3 0;
#X connect 2 0 4 0;
#X connect 3 0 6 0;
#X connect 3 1 6 1;
#X connect 4 0 6 0;
#X connect 4 1 6 2;
#X connect 5 0 7 0;
#X connect 5 0 20 0;
#X connect 6 0 17 0;
#X connect 10 0 15 0;
#X connect 11 0 13 0;
#X connect 12 0 14 0;
#X connect 13 0 15 0;
#X connect 13 1 15 1;
#X connect 14 0 15 0;
#X connect 14 1 15 2;
#X connect 15 0 16 0;
#X connect 16 0 5 0;
#X connect 17 0 5 0;
#X connect 20 0 61 0;
#X connect 21 0 23 0;
#X connect 22 0 25 0;
#X connect 25 0 21 0;
#X connect 26 0 29 0;
#X connect 27 0 26 0;
#X connect 28 0 24 0;
#X connect 29 0 28 0;
#X connect 30 0 26 0;
#X connect 32 0 33 0;
#X connect 33 0 27 0;
#X connect 33 0 60 0;
#X connect 33 1 30 0;
#X connect 33 1 62 0;
#X connect 34 0 44 0;
#X connect 35 0 66 0;
#X connect 36 0 39 0;
#X connect 37 0 36 0;
#X connect 38 0 45 0;
#X connect 39 0 38 0;
#X connect 40 0 36 0;
#X connect 42 0 37 0;
#X connect 42 0 67 0;
#X connect 42 1 40 0;
#X connect 42 1 64 0;
#X connect 43 0 42 0;
#X connect 46 0 58 0;
#X connect 47 0 48 0;
#X connect 48 0 46 0;
#X connect 50 0 53 0;
#X connect 51 0 50 0;
#X connect 52 0 59 0;
#X connect 53 0 52 0;
#X connect 54 0 50 0;
#X connect 56 0 51 0;
#X connect 56 0 68 0;
#X connect 56 1 54 0;
#X connect 56 1 65 0;
#X connect 57 0 56 0;
#X connect 60 0 22 0;
#X connect 62 0 22 0;
#X connect 64 0 35 0;
#X connect 65 0 47 0;
#X connect 66 0 34 0;
#X connect 67 0 35 0;
#X connect 68 0 47 0;
#X connect 69 0 83 0;
#X connect 70 0 71 0;
#X connect 71 0 69 0;
#X connect 73 0 76 0;
#X connect 74 0 73 0;
#X connect 75 0 84 0;
#X connect 76 0 75 0;
#X connect 77 0 73 0;
#X connect 79 0 74 0;
#X connect 79 0 81 0;
#X connect 79 1 77 0;
#X connect 79 1 80 0;
#X connect 80 0 70 0;
#X connect 81 0 70 0;
#X connect 82 0 79 0;
#X connect 85 0 26 0;
#X restore 576 118 pd source_colors;
#X obj 0 286 cnv 15 198 30 empty \$0color_bpdp2gem empty 20 8 0 8 -99865
-1 0;
#X obj 0 286 tgl 15 0 \$1gmplayer_pdp2gem_on \$1gmplayer_pdp2gem_on_init
empty 17 7 0 8 -4034 -1 -1 0 1;
#X obj 16 287 cnv 13 60 13 empty \$0color_pdp2gem PDP2GEM 2 8 0 8 -162277
-1 0;
#X obj 0 322 cnv 15 198 15 empty empty EFFECTS 2 8 0 10 -4160 -262144
0;
#X obj 0 171 cnv 5 198 5 empty empty empty 2 8 0 10 -1 -1 0;
#X obj 0 208 cnv 5 198 5 empty empty empty 2 8 0 10 -1 -1 0;
#X obj 0 280 cnv 5 198 5 empty empty empty 2 8 0 10 -1 -1 0;
#X obj 0 387 cnv 15 198 15 empty empty TEXTURE 2 8 0 10 -4160 -262144
0;
#X obj 62 387 tgl 15 0 \$1gmplayer_texture_on \$1gmplayer_texture_on_init
empty 17 7 0 8 -4034 -1 -1 1 1;
#X obj 0 403 cnv 15 198 50 empty empty empty 20 8 0 8 -99865 -228856
0;
#X obj 76 405 tgl 14 0 \$1gmplayer_texture_config \$1gmplayer_texture_config_init
configure 17 7 0 8 -260097 -1 -228856 0 1;
#X obj 2 407 tgl 14 0 \$1gmplayer_transform_config \$1gmplayer_transform_config_init
transform 17 7 0 8 -260097 -1 -228856 0 1;
#X obj 3 440 hradio 13 1 0 7 \$1gmplayer_shape_select \$1gmplayer_shape_select_init
empty 0 -8 0 10 -260097 -1 -1 2;
#X obj 95 440 hradio 13 1 0 5 empty \$0shape_lab rectangle 2 8 0 8
-1 -1 -228856 0;
#X obj 2 424 tgl 14 0 \$1gmplayer_shapes_config \$1gmplayer_shapes_config_init
shape_config 17 7 0 8 -260097 -1 -228856 0 1;
#X obj 155 413 hradio 13 1 0 3 \$1gmplayer_texture_scale2pix \$1gmplayer_texture_scale2pix_init
sc2pix 0 -6 0 8 -260097 -1 -1 0;
#X obj 155 426 hradio 13 1 0 3 empty \$0scale2pix_lab none 2 8 0 8
-1 -1 -228856 0;
#X obj 184 35 bng 14 250 50 0 \$1gmplayer_next \$1gmplayer_next_init
next -24 7 0 8 -260097 -1 -228856;
#N canvas 2 75 1171 384 effects_colors 0;
#X obj 124 234 prepend \$0;
#X floatatom 126 193 0 0 0 0 - - -;
#X floatatom 315 190 0 0 0 0 - - -;
#X msg 310 164 -6.31613e+06;
#X obj 314 234 prepend \$0;
#X msg 315 211 \$1 -1;
#X msg 401 162 -1.02637e+07;
#X text 386 132 gris clar;
#X obj 131 79 select 0 1;
#X msg 215 141 -1.67117e+07;
#X msg 123 212 \$1 -1;
#X msg 31 146 -1.02637e+07;
#X obj 131 45 r \$1gmplayer_pixef_on;
#X msg 123 262 \; \$1color_pixeff color \$2 \$3;
#X msg 319 262 \; \$1color_bpixeff color \$2 \$3;
#X obj 617 244 prepend \$0;
#X floatatom 619 203 0 0 0 0 - - -;
#X floatatom 808 200 0 0 0 0 - - -;
#X msg 803 174 -6.31613e+06;
#X obj 807 244 prepend \$0;
#X msg 808 221 \$1 -1;
#X msg 894 172 -1.02637e+07;
#X text 879 142 gris clar;
#X obj 624 89 select 0 1;
#X msg 708 151 -1.67117e+07;
#X msg 616 222 \$1 -1;
#X msg 524 156 -1.02637e+07;
#X obj 624 55 r \$1gmplayer_pix_ocv_on;
#X msg 616 272 \; \$1color_pixocv color \$2 \$3;
#X msg 812 272 \; \$1color_bpixocv color \$2 \$3;
#X connect 0 0 13 0;
#X connect 1 0 10 0;
#X connect 2 0 5 0;
#X connect 3 0 2 0;
#X connect 4 0 14 0;
#X connect 5 0 4 0;
#X connect 6 0 2 0;
#X connect 8 0 3 0;
#X connect 8 0 11 0;
#X connect 8 1 6 0;
#X connect 8 1 9 0;
#X connect 9 0 1 0;
#X connect 10 0 0 0;
#X connect 11 0 1 0;
#X connect 12 0 8 0;
#X connect 15 0 28 0;
#X connect 16 0 25 0;
#X connect 17 0 20 0;
#X connect 18 0 17 0;
#X connect 19 0 29 0;
#X connect 20 0 19 0;
#X connect 21 0 17 0;
#X connect 23 0 18 0;
#X connect 23 0 26 0;
#X connect 23 1 21 0;
#X connect 23 1 24 0;
#X connect 24 0 16 0;
#X connect 25 0 15 0;
#X connect 26 0 16 0;
#X connect 27 0 23 0;
#X restore 573 144 pd effects_colors;
#X obj 0 340 cnv 15 198 20 empty \$0color_bpixeff empty 20 8 0 8 -99865
-1 0;
#X obj 2 343 tgl 14 0 \$1gmplayer_pixef_on \$1gmplayer_pixef_on_init
empty 17 7 0 8 -4034 -1 -228856 0 1;
#X obj 17 343 cnv 14 60 14 empty \$0color_pixeff PIXEFF 2 8 0 8 -162277
-1 0;
#X obj 85 343 tgl 14 0 \$1gmplayer_pixef_configure_on \$1gmplayer_pixef_configure_on_init
configure 17 7 0 8 -260097 -1 -228856 0 1;
#X obj 0 364 cnv 15 198 20 empty \$0color_bpixocv empty 20 8 0 8 -99865
-1 0;
#X obj 4 368 tgl 14 0 \$1gmplayer_pix_ocv_on \$1gmplayer_pix_ocv_on_init
empty 17 7 0 8 -4034 -1 -228856 0 1;
#X obj 17 367 cnv 14 60 14 empty \$0color_pixocv PIX_OCV 2 8 0 8 -162277
-1 0;
#X obj 85 367 tgl 14 0 \$1gmplayer_pix_ocv_configure_on \$1gmplayer_pix_ocv_configure_on
configure 17 7 0 8 -260097 -1 -228856 0 1;
#X obj 0 360 cnv 5 198 5 empty empty empty 2 8 0 10 -1 -1 0;
#N canvas 442 386 391 296 pdp2gem_mod 0;
#X obj 36 204 outlet;
#X obj 36 8 inlet;
#X obj 36 63 spigot;
#X obj 69 33 r \$1gmplayer_pdp2gem_on;
#N canvas 2 75 450 300 pdp2gem_control 0;
#X obj 67 177 pdp2gem;
#X obj 67 25 inlet;
#X obj 67 244 outlet;
#X msg 245 83 colorspace YUV;
#X msg 222 103 colorspace RGB;
#X msg 199 124 colorspace RGBA;
#X obj 199 63 select 0 1 2;
#X obj 147 27 inlet;
#X obj 199 28 r \$1gmplayer_pdp2gem_cspace;
#X msg 283 228 label \$1;
#X msg 296 158 RGBA;
#X msg 319 137 RGB;
#X msg 342 117 YUV;
#X obj 283 256 s \$0p2gcspace_lab;
#X obj 283 202 l2s;
#X connect 0 0 2 0;
#X connect 1 0 0 0;
#X connect 3 0 0 0;
#X connect 4 0 0 0;
#X connect 5 0 0 0;
#X connect 6 0 5 0;
#X connect 6 0 10 0;
#X connect 6 1 4 0;
#X connect 6 1 11 0;
#X connect 6 2 3 0;
#X connect 6 2 12 0;
#X connect 7 0 0 0;
#X connect 8 0 6 0;
#X connect 9 0 13 0;
#X connect 10 0 14 0;
#X connect 11 0 14 0;
#X connect 12 0 14 0;
#X connect 14 0 9 0;
#X restore 36 133 pd pdp2gem_control;
#X obj 84 82 r \$1gmplayer_pdpinput;
#X obj 84 110 pdp_spigot;
#X connect 1 0 2 0;
#X connect 2 0 4 0;
#X connect 3 0 2 1;
#X connect 3 0 6 1;
#X connect 4 0 0 0;
#X connect 5 0 6 0;
#X connect 6 1 4 1;
#X restore 250 305 pd pdp2gem_mod;
#X obj 866 9 inlet;
#X text 916 18 pdpinput;
#X obj 866 44 s \$1gmplayer_pdpinput;
#X obj 89 298 hradio 13 1 0 3 \$1gmplayer_pdp2gem_cspace \$1gmplayer_pdp2gem_cspace_init
cspace 0 -6 0 8 -260097 -1 -1 0;
#X obj 129 298 hradio 13 1 0 3 empty \$0p2gcspace_lab RGBA 2 8 0 8
-1 -1 -228856 0;
#X text 465 274 TODO:;
#X text 483 293 -pix_ocv effects.;
#X text 484 318 -+ textures;
#X obj 83 19 tgl 14 0 \$1gmplayer_pllist_config \$1gmplayer_pllist_config_init
view 17 7 0 8 -260097 -1 -228856 0 1;
#X connect 0 0 4 0;
#X connect 1 0 5 0;
#X connect 6 0 7 0;
#X connect 20 0 53 0;
#X connect 23 0 24 0;
#X connect 36 0 20 0;
#X connect 36 0 47 0;
#X connect 36 0 51 0;
#X connect 36 0 97 0;
#X connect 47 0 53 0;
#X connect 51 0 53 0;
#X connect 52 0 54 0;
#X connect 53 0 52 0;
#X connect 97 0 53 0;
#X connect 98 0 100 0;
#X coords 0 -1 1 1 198 460 1 0 0;
