#N canvas 580 495 831 488 10;
#X obj 1 0 cnv 15 190 100 empty empty GEM_PIX_Image_File 0 12 0 10
-99865 -262144 0;
#X obj 10 23 cnv 15 170 50 empty empty empty 2 12 0 14 -128992 -66577
0;
#X symbolatom 15 26 25 0 0 0 - #1gp_imagef_file_name_init #1gp_imagef_file_name
;
#X obj 1 80 cnv 15 55 20 empty empty GEM_OUT 0 10 0 9 -221249 -262144
0;
#X obj 83 47 bng 15 250 50 0 \$1gp_imagef_select_file \$1gp_imagef_select_file_init
Select_file 17 7 0 8 -260097 -1 -228856;
#X obj 159 2 cnv 15 30 15 empty \$1gp_openif_id \$1 10 10 0 12 -260097
-33289 0;
#X obj 373 321 cnv 15 55 20 empty empty GEM_OUT 0 10 0 12 -221249 -262144
0;
#X obj 317 324 outlet;
#X obj 322 199 pix_image;
#X obj 258 165 gemhead;
#X obj 336 61 bng 25 250 50 0 empty empty empty 0 -6 0 8 -262144 -1
-1;
#X obj 336 90 openpanel;
#X msg 336 110 open \$1;
#X obj 357 136 s \$1gp_imagef_file_name_init;
#X obj 283 29 r \$1gp_imagef_select_file;
#X obj 16 47 tgl 15 0 \$1gp_image_file_on \$1gp_image_file_on_init
Enable 17 7 0 10 -4034 -1 -228856 0 1;
#X obj 318 263 spigot;
#X obj 358 232 r \$1gp_image_file_on;
#X obj 404 267 tgl 15 0 empty empty empty 17 7 0 10 -262144 -1 -1 0
1;
#X obj 37 149 loadbang;
#X obj 47 316 symbol \$1;
#X symbolatom 47 345 0 0 0 0 - - -;
#X obj 53 229 bng 15 250 50 0 empty empty empty 0 -6 0 8 -262144 -1
-1;
#X symbolatom 144 345 0 0 0 0 - - -;
#X obj 144 316 symbol \$2;
#X obj -17 316 float \$1;
#X floatatom -13 348 5 0 0 0 - - -;
#X obj 47 391 s \$1gp_openif_id;
#X connect 8 0 16 0;
#X connect 9 0 8 0;
#X connect 10 0 11 0;
#X connect 11 0 12 0;
#X connect 11 0 13 0;
#X connect 12 0 8 0;
#X connect 14 0 10 0;
#X connect 16 0 7 0;
#X connect 17 0 18 0;
#X connect 18 0 16 1;
#X connect 19 0 22 0;
#X connect 20 0 21 0;
#X connect 21 0 27 0;
#X connect 22 0 20 0;
#X connect 22 0 24 0;
#X connect 22 0 25 0;
#X connect 24 0 23 0;
#X connect 25 0 26 0;
#X coords 0 -1 1 1 190 100 1 0 0;
