#N canvas 495 527 450 321 10;
#X obj 34 172 symbol \$1;
#X obj 136 230 ftos;
#X obj 105 164 float \$1;
#X floatatom 105 193 5 0 0 0 - - -;
#X symbolatom 35 205 0 0 0 0 - - -;
#X symbolatom 95 243 10 0 0 0 - - -;
#X obj 44 126 loadbang;
#X obj 97 280 s \$1gempix_ef_threshold_id;
#X obj 270 30 inlet;
#X text 498 30 on/off;
#X obj 299 252 outlet;
#X obj 351 86 gate 2;
#X obj 409 55 + 1;
#X text 328 30 gemin;
#X text 347 249 gemout;
#X floatatom 505 138 5 0 1 1 pass - -;
#X obj 433 181 pix_threshold;
#X obj 508 105 r \$1gempix_ef_threshold_all;
#X obj 723 -26 r \$1gempix_ef_threshold_r;
#X obj 762 -6 r \$1gempix_ef_threshold_g;
#X obj 791 16 r \$1gempix_ef_threshold_b;
#X floatatom 700 93 5 0 0 0 - - -;
#X floatatom 735 94 5 0 0 0 - - -;
#X floatatom 770 95 5 0 0 0 - - -;
#X obj 698 115 pack 0 0 0;
#X obj 806 135 bng 15 250 50 0 empty empty empty 17 7 0 10 -262144
-1 -1;
#X msg 698 134 \$1 \$2 \$3;
#X obj 705 63 / 100;
#X obj 741 63 / 100;
#X obj 777 63 / 100;
#X msg 711 169 set \$1 \$2 \$3;
#X msg 743 202 0 0 0;
#X obj 465 -9 tgl 15 0 empty empty empty 17 7 0 10 -262144 -1 -1 0
1;
#X obj 503 -6 r \$1gempix_ef_threshold_on;
#X obj 0 0 cnv 15 150 75 empty empty empty 2 12 0 10 -191407 -66577
0;
#X obj 5 5 tgl 15 0 \$1gempix_ef_threshold_on \$1gempix_ef_threshold_on_init
Threshold 17 7 0 10 -260097 -1 -1 0 1;
#X obj 10 29 nbx 3 14 0 100 0 0 \$1gempix_ef_threshold_r \$1gempix_ef_threshold_r_init
empty 0 -8 0 10 -258113 -1 -1 0 256;
#X obj 51 29 nbx 3 14 0 100 0 0 \$1gempix_ef_threshold_g \$1gempix_ef_threshold_g_init
empty 0 -8 0 10 -4034 -1 -1 0 256;
#X obj 95 29 nbx 3 14 0 100 0 0 \$1gempix_ef_threshold_b \$1gempix_ef_threshold_b_init
empty 0 -8 0 10 -4160 -1 -1 0 256;
#X obj 71 51 tgl 15 0 \$1gempix_ef_threshold_all \$1gempix_ef_threshold_init
all -16 8 0 8 -262144 -1 -1 0 1;
#X obj 105 5 cnv 15 20 10 empty \$1gempix_ef_threshold_id \$1 5 5 0
10 -260097 -33289 0;
#N canvas 981 359 450 300 midi_control 0;
#X msg 204 135 ef1epdp_aging_on_midi;
#X msg 365 133 ef1epdp_aging_dust_midi;
#X floatatom 93 324 5 0 0 0 - - -;
#X obj 91 369 select 0;
#X obj 331 261 s midi_var_to_add;
#X text 442 258 -->global value of mb-midi_control_pad;
#X msg 160 420 0;
#X msg 110 426 1;
#X obj 90 399 alternate;
#X obj 65 41 r \$1gempix_ef_threshold_midi_on;
#X obj 285 27 r \$1gempix_ef_threshold_id;
#X msg 146 104 set \$1gempix_ef_threshold_on_midi;
#X msg 365 102 set \$1gempix_ef_threshold_r_midi;
#X msg 558 104 set \$1gempix_ef_threshold_g_midi;
#X msg 563 144 ef1epdp_aging_on_midi;
#X obj 93 290 r \$1gempix_ef_threshold_on_midi;
#X obj 71 452 s $gempix_ef_threshold_on_init;
#X obj 302 291 r \$1gempix_ef_threshold_r_midi;
#X obj 280 453 s $gempix_ef_threshold_r_init;
#X floatatom 295 317 5 0 0 0 - - -;
#X floatatom 327 415 8 0 0 0 - - -;
#X obj 312 351 hsl 128 15 0 127 0 0 empty empty empty -2 -8 0 10 -262144
-1 -1 0 1;
#X obj 309 381 autoscale 0 255;
#X obj 494 293 r \$1gempix_ef_threshold_r_midi;
#X obj 475 445 s $gempix_ef_threshold_r_init;
#X floatatom 522 407 8 0 0 0 - - -;
#X connect 0 0 4 0;
#X connect 1 0 13 0;
#X connect 2 0 3 0;
#X connect 3 1 8 0;
#X connect 6 0 16 0;
#X connect 7 0 16 0;
#X connect 8 0 7 0;
#X connect 8 1 6 0;
#X connect 9 0 11 0;
#X connect 10 0 11 0;
#X connect 11 0 0 0;
#X connect 12 0 1 0;
#X connect 13 0 14 0;
#X connect 15 0 2 0;
#X connect 17 0 19 0;
#X connect 19 0 21 0;
#X connect 20 0 18 0;
#X connect 21 0 22 0;
#X connect 22 0 20 0;
#X connect 23 0 25 0;
#X connect 25 0 24 0;
#X restore 160 -2 pd midi_control;
#X obj 8 51 bng 15 250 50 0 \$1gempix_ef_threshold_midi_on empty midi
17 7 0 8 -4160 -1 -1;
#X connect 0 0 4 0;
#X connect 1 0 5 0;
#X connect 2 0 3 0;
#X connect 3 0 1 0;
#X connect 4 0 5 0;
#X connect 5 0 7 0;
#X connect 6 0 2 0;
#X connect 6 0 0 0;
#X connect 8 0 11 1;
#X connect 11 0 10 0;
#X connect 11 1 16 0;
#X connect 12 0 11 0;
#X connect 15 0 16 1;
#X connect 16 0 10 0;
#X connect 17 0 15 0;
#X connect 18 0 27 0;
#X connect 19 0 28 0;
#X connect 20 0 29 0;
#X connect 21 0 24 0;
#X connect 22 0 24 1;
#X connect 22 0 25 0;
#X connect 23 0 24 2;
#X connect 23 0 25 0;
#X connect 24 0 26 0;
#X connect 24 0 30 0;
#X connect 25 0 24 0;
#X connect 26 0 16 2;
#X connect 27 0 21 0;
#X connect 28 0 22 0;
#X connect 29 0 23 0;
#X connect 30 0 31 0;
#X connect 32 0 12 0;
#X connect 33 0 32 0;
#X coords 0 -1 1 1 150 75 2 0 0;
