#N canvas 733 396 751 418 10;
#X obj 0 1 cnv 20 600 185 empty empty MIDI_UMX25_monitor 180 12 0 14
-99865 -262144 0;
#X obj 179 137 hsl 415 15 0 127 0 0 \$11umx25_notenumber_out \$1umx25_notenumber
empty -80 8 0 14 -260097 -99865 -191407 0 1;
#X obj 38 41 vsl 20 60 0 16383 0 0 \$1umx25_pitchbend_out \$1umx25_pitchbend
Pitch 0 -9 0 8 -162280 -1 -228856 0 1;
#X obj 67 41 vsl 20 60 0 127 0 0 \$1umx25_modulation_out \$1umx25_modulation
Mod. 0 -9 0 10 -162280 -1 -228856 0 1;
#X obj 8 40 vsl 20 60 0 127 0 0 \$1umx25_volumefader_out \$1umx25_volumefader
Vol. 0 -9 0 8 -228856 -1 -228856 0 1;
#X obj 96 58 cnv 15 500 70 empty empty empty 2 12 0 14 -191407 -66577
0;
#X obj 103 73 knob 25 25 0 127 0 0 \$1umx25_R1_out \$1umx25_R1_in R1
8 -8 192 10 -260097 -260097 -1 0 1;
#X obj 233 74 tgl 20 0 \$1umx25_B1_out \$1umx25_B1_in B1 4 -7 0 10
-128992 -262144 -1 0 127;
#X obj 405 74 bng 20 250 50 0 \$1umx25_B7_out \$1umx25_B7_in B7 4 -7
0 10 -128992 -1 -1;
#X obj 430 74 bng 20 250 50 0 \$1umx25_B8_out \$1umx25_B8_in B8 4 -7
0 10 -128992 -1 -1;
#N canvas 28 211 1007 350 umx25_default_settings 0;
#X obj 72 161 symbol \$1;
#X symbolatom 72 190 0 0 0 0 - - -;
#X obj 72 125 bng 15 250 50 0 empty empty empty 0 -6 0 8 -262144 -1
-1;
#X symbolatom 169 190 0 0 0 0 - - -;
#X obj 169 161 symbol \$2;
#X obj 47 44 loadbang;
#X obj 245 227 s \$1umx25_id;
#X obj 409 200 s \$1umx25_midi_in_on_init;
#X msg 412 158 0;
#X obj 410 241 s \$1umx25_midi_out_on_init;
#X msg 601 168 1;
#X obj 601 200 s \$1umx25_midi_in_port_init;
#X obj 786 244 s \$1umx25_midi_out_port_init;
#X msg 782 171 2;
#X connect 0 0 1 0;
#X connect 1 0 6 0;
#X connect 2 0 0 0;
#X connect 2 0 4 0;
#X connect 2 0 8 0;
#X connect 2 0 10 0;
#X connect 2 0 13 0;
#X connect 4 0 3 0;
#X connect 5 0 2 0;
#X connect 8 0 7 0;
#X connect 8 0 9 0;
#X connect 10 0 11 0;
#X connect 13 0 12 0;
#X restore 35 215 pd umx25_default_settings;
#X obj 364 30 cnv 15 40 20 empty \$1umx25_id \$1 10 10 0 12 -260097
-33289 0;
#X obj 135 72 knob 25 25 0 127 0 0 \$1umx25_R2_out \$1umx25_R2_in R2
8 -8 192 10 -260097 -260097 -1 0 1;
#X obj 167 72 knob 25 25 0 127 0 0 \$1umx25_R3_out \$1umx25_R3_in R3
8 -8 192 10 -260097 -260097 -1 0 1;
#X obj 199 73 knob 25 25 0 127 0 0 \$1umx25_R4_out \$1umx25_R4_in R4
8 -8 192 10 -260097 -260097 -1 0 1;
#X obj 456 74 knob 25 25 0 127 0 0 \$1umx25_R5_out \$1umx25_R5_in R5
8 -8 192 10 -260097 -260097 -1 0 1;
#X obj 490 74 knob 25 25 0 127 0 0 \$1umx25_R6_out \$1umx25_R6_in R6
8 -8 192 10 -260097 -260097 -1 0 1;
#X obj 526 74 knob 25 25 0 127 0 0 \$1umx25_R7_out \$1umx25_R7_in R7
8 -8 192 10 -260097 -260097 -1 0 1;
#X obj 560 74 knob 25 25 0 127 0 0 \$1umx25_R8_out \$1umx25_R8_in R8
8 -8 192 10 -260097 -260097 -1 0 1;
#X obj 258 74 tgl 20 0 \$1umx25_B2_out \$1umx25_B2_in B2 4 -7 0 10
-128992 -262144 -1 0 127;
#X obj 283 74 tgl 20 0 \$1umx25_B3_out \$1umx25_B3_in B3 4 -7 0 10
-128992 -262144 -1 0 127;
#X obj 309 74 tgl 20 0 \$1umx25_B4_out \$1umx25_B4_in B4 4 -7 0 10
-128992 -262144 -1 0 127;
#X obj 353 74 tgl 20 0 \$1umx25_B5_out \$1umx25_B5_in B5 4 -7 0 10
-128992 -262144 -1 0 127;
#X obj 379 74 tgl 20 0 \$1umx25_B6_out \$1umx25_B6_in B6 4 -7 0 10
-128992 -262144 -1 0 127;
#X text 577 94 PAN;
#X text 403 91 MUTE;
#X floatatom 103 107 4 0 0 0 - #1umx25_R1_out2 #1umx25_controlval;
#X floatatom 136 108 4 0 0 0 - #1umx25_R2_out2 #1umx25_controlval;
#X floatatom 167 108 4 0 0 0 - #1umx25_R3_out2 #1umx25_controlval;
#X floatatom 201 108 4 0 0 0 - #1umx25_R4_out2 #1umx25_controlval;
#X floatatom 459 107 4 0 0 0 - #1umx25_R5_out2 #1umx25_controlval;
#X floatatom 492 108 4 0 0 0 - #1umx25_R6_out2 #1umx25_controlval;
#X floatatom 523 108 4 0 0 0 - #1umx25_R7_out2 #1umx25_controlval;
#X floatatom 557 108 4 0 0 0 - #1umx25_R8_out2 #1umx25_controlval;
#X floatatom 7 106 4 0 0 0 - #1umx25_volumefader_out2 #1umx25_controlval
;
#X floatatom 35 107 5 0 0 0 - #1umx25_pitchbend_out -;
#X floatatom 69 106 4 0 0 0 - #1umx25_modulation_out2 #1umx25_controlval
;
#X obj 97 23 tgl 15 0 \$1umx25_midi_in_on \$1umx25_midi_in_on_init
Enable_midi_input 17 7 0 10 -4034 -1 -228856 0 1;
#X obj 97 40 nbx 5 14 1 16 0 0 \$1umx25_midi_in_port \$1umx25_midi_in_port_init
ChannelIN 60 6 0 10 -191407 -1 -228856 1 256;
#X obj 419 23 tgl 15 0 \$1umx25_midi_out_on \$1umx25_midi_out_on_init
Enable_midi_output 17 7 0 10 -258113 -1 -228856 0 1;
#X obj 419 38 nbx 5 14 1 16 0 0 \$1umx25_midi_out_port \$1umx25_midi_out_port_init
ChannelOUT 60 6 0 10 -191407 -1 -228856 2 256;
#X obj 53 160 nbx 3 14 0 127 0 0 \$1umx25_controlval_out \$1umx25_controlval
Crl.Val. -50 6 0 8 -262144 -1 -191407 0 256;
#X obj 54 137 nbx 3 14 0 127 0 0 \$1umx25_controlnumber_out \$1umx25_controlnumber
Crl.Num. -50 6 0 8 -262144 -1 -191407 0 256;
#X obj 135 137 nbx 3 14 0 127 0 0 \$1umx25_notenumber_out \$1umx25_notenumber
Note -30 6 0 8 -262144 -1 -191407 14 256;
#X obj 135 158 nbx 3 14 0 127 0 0 \$1umx25_notelevel_out \$1umx25_notelevel
NLevel -35 6 0 8 -262144 -1 -191407 0 256;
#X obj 179 157 hsl 415 15 0 127 0 0 \$1umx25_notelevel_out \$1umx25_notelevel
empty -80 8 0 14 -191407 -99865 -191407 0 1;
#N canvas 170 90 1204 1048 umx25_core_in 0;
#X obj 154 429 ctlin 97;
#X text 155 409 B1;
#X text 299 409 B2;
#X obj 298 429 ctlin 96;
#X text 422 409 B3;
#X obj 421 429 ctlin 66;
#X text 645 409 B5;
#X obj 644 429 ctlin 64;
#X text 755 409 B6;
#X obj 754 429 ctlin 65;
#X text 870 410 B7;
#X text 982 408 B8;
#X obj 869 430 ctlin 7;
#X obj 984 429 ctlin 10;
#X obj 526 429 ctlin 67;
#X text 527 409 B4;
#X obj 526 429 ctlin 67;
#X obj 153 214 s \$1umx25_R1_in;
#X obj 31 -88 r \$1umx25_midi_in_on;
#X obj 66 -36 tgl 15 0 empty empty empty 17 7 0 10 -262144 -1 -1 0
1;
#X text 160 69 R1;
#X text 301 70 R2;
#X obj 294 101 ctlin 93;
#X text 425 68 R3;
#X obj 416 101 ctlin 74;
#X obj 535 100 ctlin 71;
#X text 547 71 R4;
#X text 664 72 R5;
#X obj 657 103 ctlin 73;
#X text 773 75 R6;
#X obj 766 106 ctlin 75;
#X obj 884 103 ctlin 72;
#X obj 988 106 ctlin 10;
#X text 891 72 R7;
#X text 995 75 R8;
#X obj 153 146 spigot;
#X obj 294 144 spigot;
#X obj 416 145 spigot;
#X obj 537 145 spigot;
#X obj 655 149 spigot;
#X obj 763 151 spigot;
#X obj 881 147 spigot;
#X obj 987 148 spigot;
#X obj 549 984 notein;
#X text 549 964 NOTE SIGN;
#X floatatom 602 1007 5 0 0 0 - - -;
#X obj 367 730 bendin;
#X text 357 707 Pitch Bend;
#X obj 544 723 ctlin 1;
#X text 547 699 Modulation;
#X obj 690 720 ctlin 7;
#X text 692 695 Volume/Fader;
#X floatatom 124 1045 5 0 0 0 - - -;
#X floatatom 124 1045 5 0 0 0 - - -;
#X obj 153 469 spigot;
#X obj 294 467 spigot;
#X obj 416 468 spigot;
#X obj 537 468 spigot;
#X obj 655 472 spigot;
#X obj 763 474 spigot;
#X obj 881 470 spigot;
#X obj 987 471 spigot;
#X obj 82 290 tgl 15 0 empty empty empty 17 7 0 10 -262144 -1 -1 0
1;
#X obj 502 1060 spigot;
#X obj 577 1057 spigot;
#X obj 114 626 tgl 15 0 empty empty empty 17 7 0 10 -262144 -1 -1 0
1;
#X floatatom 431 737 5 0 0 0 - - -;
#X obj 368 803 spigot;
#X obj 548 798 spigot;
#X obj 692 795 spigot;
#X obj 37 1069 spigot;
#X obj 90 1069 spigot;
#X obj 299 -31 * 16;
#X obj 253 -81 r \$1umx25_midi_in_port;
#X floatatom 391 -29 5 0 0 0 - - -;
#X obj 347 -29 - 15;
#X obj 437 -30 s \$1port_in;
#X obj 152 100 ctlin 91;
#X floatatom 208 136 5 0 0 0 - - -;
#X floatatom 238 180 5 0 0 0 - - -;
#X obj 238 155 ==;
#X obj 153 181 spigot;
#X obj 358 170 ==;
#X obj 294 217 s \$1umx25_R2_in;
#X obj 416 217 s \$1umx25_R3_in;
#X obj 536 216 s \$1umx25_R4_in;
#X obj 653 221 s \$1umx25_R5_in;
#X obj 762 221 s \$1umx25_R6_in;
#X obj 880 223 s \$1umx25_R7_in;
#X obj 984 223 s \$1umx25_R8_in;
#X obj 294 173 spigot;
#X obj 482 173 ==;
#X obj 418 176 spigot;
#X obj 601 182 ==;
#X obj 537 185 spigot;
#X obj 719 182 ==;
#X obj 655 185 spigot;
#X obj 831 188 ==;
#X obj 767 191 spigot;
#X obj 948 185 ==;
#X obj 884 188 spigot;
#X obj 1051 182 ==;
#X obj 987 185 spigot;
#X obj 526 286 r \$1port_in;
#X obj 147 565 s \$1umx25_B1_in;
#X obj 291 566 s \$1umx25_B2_in;
#X obj 414 568 s \$1umx25_B3_in;
#X obj 525 565 s \$1umx25_B4_in;
#X obj 637 567 s \$1umx25_B5_in;
#X obj 747 567 s \$1umx25_B6_in;
#X obj 862 567 s \$1umx25_B7_in;
#X obj 977 567 s \$1umx25_B8_in;
#X obj 212 510 ==;
#X obj 148 513 spigot;
#X obj 352 513 ==;
#X obj 288 516 spigot;
#X obj 473 520 ==;
#X obj 409 523 spigot;
#X obj 589 514 ==;
#X obj 525 517 spigot;
#X obj 707 523 ==;
#X obj 643 526 spigot;
#X obj 820 518 ==;
#X obj 756 521 spigot;
#X obj 942 519 ==;
#X obj 878 522 spigot;
#X obj 1049 516 ==;
#X obj 985 519 spigot;
#X obj 521 612 r \$1port_in;
#X obj 551 884 s \$1umx25_modulation;
#X obj 694 884 s \$1umx25_volumefader;
#X obj 761 840 ==;
#X obj 697 843 spigot;
#X obj 612 840 ==;
#X obj 548 843 spigot;
#X floatatom 375 855 5 0 0 0 - - -;
#X obj 393 895 s \$1umx25_pitchbend;
#X obj 435 826 ==;
#X obj 371 829 spigot;
#X floatatom 616 1177 3 0 0 0 - - -;
#X obj 566 1151 stripnote;
#X floatatom 566 1181 3 0 0 0 - - -;
#X obj 566 1219 s \$1umx25_notenumber;
#X obj 658 1231 s \$1umx25_notelevel;
#X obj 650 1109 ==;
#X obj 586 1112 spigot;
#X obj 519 1115 spigot;
#X obj 161 1113 ==;
#X obj 97 1116 spigot;
#X obj 30 1119 spigot;
#X floatatom 87 1165 3 0 0 0 - - -;
#X floatatom 48 1164 3 0 0 0 - - -;
#X floatatom 87 1165 3 0 0 0 - - -;
#X floatatom 48 1164 3 0 0 0 - - -;
#X obj 46 1219 s \$1umx25_controlval;
#X obj 95 1194 s \$1umx25_controlnumber;
#X text 57 980 comment;
#X obj 94 892 ctlin;
#X connect 0 0 54 0;
#X connect 0 1 112 0;
#X connect 3 0 55 0;
#X connect 3 1 114 0;
#X connect 5 0 56 0;
#X connect 5 1 116 0;
#X connect 7 0 58 0;
#X connect 7 1 120 0;
#X connect 9 0 59 0;
#X connect 9 1 122 0;
#X connect 12 0 60 0;
#X connect 12 1 124 0;
#X connect 13 0 61 0;
#X connect 13 1 126 0;
#X connect 14 0 57 0;
#X connect 14 1 118 0;
#X connect 18 0 19 0;
#X connect 19 0 35 1;
#X connect 19 0 36 1;
#X connect 19 0 37 1;
#X connect 19 0 38 1;
#X connect 19 0 39 1;
#X connect 19 0 40 1;
#X connect 19 0 41 1;
#X connect 19 0 42 1;
#X connect 19 0 62 0;
#X connect 22 0 36 0;
#X connect 22 1 82 0;
#X connect 24 0 37 0;
#X connect 24 1 91 0;
#X connect 25 0 38 0;
#X connect 25 1 93 0;
#X connect 28 0 39 0;
#X connect 28 1 95 0;
#X connect 30 0 40 0;
#X connect 30 1 97 0;
#X connect 31 0 41 0;
#X connect 31 1 99 0;
#X connect 32 0 42 0;
#X connect 32 1 101 0;
#X connect 35 0 81 0;
#X connect 36 0 90 0;
#X connect 37 0 92 0;
#X connect 38 0 94 0;
#X connect 39 0 96 0;
#X connect 40 0 98 0;
#X connect 41 0 100 0;
#X connect 42 0 102 0;
#X connect 43 0 63 0;
#X connect 43 1 64 0;
#X connect 43 2 45 0;
#X connect 43 2 144 0;
#X connect 46 0 67 0;
#X connect 46 1 66 0;
#X connect 46 1 137 0;
#X connect 48 0 68 0;
#X connect 48 1 133 0;
#X connect 50 0 69 0;
#X connect 50 1 131 0;
#X connect 54 0 113 0;
#X connect 55 0 115 0;
#X connect 56 0 117 0;
#X connect 57 0 119 0;
#X connect 58 0 121 0;
#X connect 59 0 123 0;
#X connect 60 0 125 0;
#X connect 61 0 127 0;
#X connect 62 0 54 1;
#X connect 62 0 55 1;
#X connect 62 0 56 1;
#X connect 62 0 57 1;
#X connect 62 0 58 1;
#X connect 62 0 59 1;
#X connect 62 0 60 1;
#X connect 62 0 61 1;
#X connect 62 0 65 0;
#X connect 63 0 146 0;
#X connect 64 0 145 0;
#X connect 65 0 69 1;
#X connect 65 0 68 1;
#X connect 65 0 67 1;
#X connect 65 0 64 1;
#X connect 65 0 63 1;
#X connect 67 0 138 0;
#X connect 68 0 134 0;
#X connect 69 0 132 0;
#X connect 70 0 149 0;
#X connect 71 0 148 0;
#X connect 72 0 75 0;
#X connect 73 0 72 0;
#X connect 74 0 76 0;
#X connect 74 0 80 1;
#X connect 74 0 82 1;
#X connect 74 0 91 1;
#X connect 74 0 93 1;
#X connect 74 0 95 1;
#X connect 74 0 97 1;
#X connect 74 0 99 1;
#X connect 74 0 101 1;
#X connect 75 0 74 0;
#X connect 77 0 35 0;
#X connect 77 1 78 0;
#X connect 78 0 80 0;
#X connect 79 0 81 1;
#X connect 80 0 79 0;
#X connect 81 0 17 0;
#X connect 82 0 90 1;
#X connect 90 0 83 0;
#X connect 91 0 92 1;
#X connect 92 0 84 0;
#X connect 93 0 94 1;
#X connect 94 0 85 0;
#X connect 95 0 96 1;
#X connect 96 0 86 0;
#X connect 97 0 98 1;
#X connect 98 0 87 0;
#X connect 99 0 100 1;
#X connect 100 0 88 0;
#X connect 101 0 102 1;
#X connect 102 0 89 0;
#X connect 103 0 112 1;
#X connect 103 0 114 1;
#X connect 103 0 116 1;
#X connect 103 0 118 1;
#X connect 103 0 120 1;
#X connect 103 0 122 1;
#X connect 103 0 124 1;
#X connect 103 0 126 1;
#X connect 112 0 113 1;
#X connect 113 0 104 0;
#X connect 114 0 115 1;
#X connect 115 0 105 0;
#X connect 116 0 117 1;
#X connect 117 0 106 0;
#X connect 118 0 119 1;
#X connect 119 0 107 0;
#X connect 120 0 121 1;
#X connect 121 0 108 0;
#X connect 122 0 123 1;
#X connect 123 0 109 0;
#X connect 124 0 125 1;
#X connect 125 0 110 0;
#X connect 126 0 127 1;
#X connect 127 0 111 0;
#X connect 128 0 133 1;
#X connect 128 0 131 1;
#X connect 128 0 137 1;
#X connect 128 0 144 1;
#X connect 131 0 132 1;
#X connect 132 0 130 0;
#X connect 133 0 134 1;
#X connect 134 0 129 0;
#X connect 135 0 136 0;
#X connect 137 0 138 1;
#X connect 138 0 135 0;
#X connect 139 0 143 0;
#X connect 140 0 141 0;
#X connect 140 1 139 0;
#X connect 141 0 142 0;
#X connect 144 0 145 1;
#X connect 144 0 146 1;
#X connect 145 0 140 1;
#X connect 146 0 140 0;
#X connect 147 0 148 1;
#X connect 147 0 149 1;
#X connect 148 0 150 0;
#X connect 149 0 151 0;
#X connect 150 0 155 0;
#X connect 151 0 154 0;
#X connect 157 0 52 0;
#X restore 36 247 pd umx25_core_in;
#N canvas 21 405 1549 715 umx25_core_out 0;
#X obj 149 75 r \$1umx25_R1_out;
#X obj 275 77 r \$1umx25_R2_out;
#X obj 144 162 s \$1umx25_R1_out2;
#X floatatom 106 136 5 0 0 0 - - -;
#X obj 150 116 mod 128;
#X floatatom 100 101 5 0 0 0 - - -;
#X obj 401 75 r \$1umx25_R3_out;
#X obj 522 76 r \$1umx25_R4_out;
#X obj 644 73 r \$1umx25_R5_out;
#X obj 758 74 r \$1umx25_R6_out;
#X obj 870 74 r \$1umx25_R7_out;
#X obj 982 75 r \$1umx25_R8_out;
#X obj 989 171 s \$1umx25_R8_out2;
#X obj 871 171 s \$1umx25_R7_out2;
#X obj 753 169 s \$1umx25_R6_out2;
#X obj 644 169 s \$1umx25_R5_out2;
#X obj 527 164 s \$1umx25_R4_out2;
#X obj 407 165 s \$1umx25_R3_out2;
#X obj 285 165 s \$1umx25_R2_out2;
#X obj 279 119 mod 128;
#X obj 405 118 mod 128;
#X obj 522 120 mod 128;
#X obj 654 122 mod 128;
#X obj 759 125 mod 128;
#X obj 875 124 mod 128;
#X obj 981 119 mod 128;
#X obj 123 655 r \$1umx25_notenumber_out;
#X obj 284 656 r \$1umx25_notelevel_out;
#X obj 832 664 r \$1umx25_controlnumber_out;
#X obj 650 666 r \$1umx25_controlval_out;
#X obj 515 585 r \$1umx25_midi_out_on;
#X obj 477 660 r \$1umx25_midi_out_port;
#X obj 484 692 * 16;
#X floatatom 534 719 5 0 0 0 - - -;
#X obj 532 694 - 15;
#X obj 240 835 noteout;
#X floatatom 127 714 5 0 0 0 - - -;
#X floatatom 281 714 5 0 0 0 - - -;
#X obj 700 826 ctlout;
#X floatatom 653 725 5 0 0 0 - - -;
#X floatatom 832 728 5 0 0 0 - - -;
#X obj 126 684 spigot;
#X obj 282 685 spigot;
#X obj 648 697 spigot;
#X obj 828 704 spigot;
#X obj 159 195 bng 15 250 50 0 empty empty empty 17 7 0 10 -262144
-1 -1;
#X msg 170 250 \; \$1 91;
#X obj 169 218 symbol \$1umx25_controlnumber;
#X obj 306 192 bng 15 250 50 0 empty empty empty 17 7 0 10 -262144
-1 -1;
#X obj 317 247 symbol \$1umx25_controlnumber;
#X obj 421 197 bng 15 250 50 0 empty empty empty 17 7 0 10 -262144
-1 -1;
#X obj 430 278 symbol \$1umx25_controlnumber;
#X msg 321 273 \; \$1 93;
#X obj 539 188 bng 15 250 50 0 empty empty empty 17 7 0 10 -262144
-1 -1;
#X obj 544 212 symbol \$1umx25_controlnumber;
#X obj 665 191 bng 15 250 50 0 empty empty empty 17 7 0 10 -262144
-1 -1;
#X obj 672 265 symbol \$1umx25_controlnumber;
#X obj 779 211 bng 15 250 50 0 empty empty empty 17 7 0 10 -262144
-1 -1;
#X obj 789 309 symbol \$1umx25_controlnumber;
#X obj 897 208 bng 15 250 50 0 empty empty empty 17 7 0 10 -262144
-1 -1;
#X obj 907 231 symbol \$1umx25_controlnumber;
#X obj 1006 210 bng 15 250 50 0 empty empty empty 17 7 0 10 -262144
-1 -1;
#X obj 1012 279 symbol \$1umx25_controlnumber;
#X msg 431 310 \; \$1 74;
#X msg 545 244 \; \$1 71;
#X msg 673 297 \; \$1 73;
#X msg 789 334 \; \$1 75;
#X msg 908 263 \; \$1 72;
#X msg 1019 313 \; \$1 10;
#X obj 1158 78 r \$1umx25_modulation_out;
#X obj 1160 128 mod 128;
#X obj 1212 236 bng 15 250 50 0 empty empty empty 17 7 0 10 -262144
-1 -1;
#X obj 1222 259 symbol \$1umx25_controlnumber;
#X obj 1168 180 s \$1umx25_modulation_out2;
#X msg 1223 291 \; \$1 1;
#X obj 1382 120 mod 128;
#X obj 1434 228 bng 15 250 50 0 empty empty empty 17 7 0 10 -262144
-1 -1;
#X obj 1444 251 symbol \$1umx25_controlnumber;
#X obj 1380 70 r \$1umx25_volumefader_out;
#X obj 1390 172 s \$1umx25_volumefader_out2;
#X msg 1445 283 \; \$1 7;
#X obj 1119 656 r \$1umx25_pitchbend_out;
#X obj 1050 823 bendout;
#X floatatom 1083 728 5 0 0 0 - - -;
#X obj 161 392 r \$1umx25_B1_out;
#X obj 302 395 r \$1umx25_B2_out;
#X obj 428 393 r \$1umx25_B3_out;
#X obj 549 394 r \$1umx25_B4_out;
#X obj 671 391 r \$1umx25_B5_out;
#X obj 785 392 r \$1umx25_B6_out;
#X obj 897 392 r \$1umx25_B7_out;
#X obj 1009 393 r \$1umx25_B8_out;
#X obj 162 434 bng 15 250 50 0 empty empty empty 17 7 0 10 -262144
-1 -1;
#X obj 172 457 symbol \$1umx25_controlnumber;
#X obj 320 486 symbol \$1umx25_controlnumber;
#X obj 424 436 bng 15 250 50 0 empty empty empty 17 7 0 10 -262144
-1 -1;
#X obj 433 517 symbol \$1umx25_controlnumber;
#X obj 547 451 symbol \$1umx25_controlnumber;
#X obj 675 504 symbol \$1umx25_controlnumber;
#X obj 782 450 bng 15 250 50 0 empty empty empty 17 7 0 10 -262144
-1 -1;
#X obj 792 548 symbol \$1umx25_controlnumber;
#X obj 900 447 bng 15 250 50 0 empty empty empty 17 7 0 10 -262144
-1 -1;
#X obj 910 470 symbol \$1umx25_controlnumber;
#X obj 1009 449 bng 15 250 50 0 empty empty empty 17 7 0 10 -262144
-1 -1;
#X obj 1015 518 symbol \$1umx25_controlnumber;
#X msg 1022 552 \; \$1 10;
#X obj 312 424 bng 15 250 50 0 empty empty empty 17 7 0 10 -262144
-1 -1;
#X obj 544 432 bng 15 250 50 0 empty empty empty 17 7 0 10 -262144
-1 -1;
#X obj 675 434 bng 15 250 50 0 empty empty empty 17 7 0 10 -262144
-1 -1;
#X msg 173 489 \; \$1 97;
#X msg 324 512 \; \$1 96;
#X msg 434 549 \; \$1 66;
#X msg 548 483 \; \$1 67;
#X msg 676 536 \; \$1 64;
#X msg 794 578 \; \$1 65;
#X msg 911 502 \; \$1 7;
#X obj 1250 479 s \$1umx25_controlval;
#X connect 0 0 4 0;
#X connect 0 0 5 0;
#X connect 1 0 19 0;
#X connect 4 0 2 0;
#X connect 4 0 3 0;
#X connect 4 0 45 0;
#X connect 6 0 20 0;
#X connect 7 0 21 0;
#X connect 8 0 22 0;
#X connect 9 0 23 0;
#X connect 10 0 24 0;
#X connect 11 0 25 0;
#X connect 19 0 18 0;
#X connect 19 0 48 0;
#X connect 20 0 17 0;
#X connect 20 0 50 0;
#X connect 21 0 16 0;
#X connect 21 0 53 0;
#X connect 22 0 15 0;
#X connect 22 0 55 0;
#X connect 23 0 14 0;
#X connect 23 0 57 0;
#X connect 24 0 13 0;
#X connect 24 0 59 0;
#X connect 25 0 12 0;
#X connect 25 0 61 0;
#X connect 26 0 41 0;
#X connect 27 0 42 0;
#X connect 28 0 44 0;
#X connect 29 0 43 0;
#X connect 30 0 44 1;
#X connect 30 0 43 1;
#X connect 30 0 42 1;
#X connect 30 0 41 1;
#X connect 31 0 32 0;
#X connect 32 0 34 0;
#X connect 33 0 35 2;
#X connect 33 0 38 2;
#X connect 33 0 82 1;
#X connect 34 0 33 0;
#X connect 36 0 35 0;
#X connect 37 0 35 1;
#X connect 39 0 38 0;
#X connect 40 0 38 1;
#X connect 41 0 36 0;
#X connect 42 0 37 0;
#X connect 43 0 39 0;
#X connect 44 0 40 0;
#X connect 45 0 47 0;
#X connect 47 0 46 0;
#X connect 48 0 49 0;
#X connect 49 0 52 0;
#X connect 50 0 51 0;
#X connect 51 0 63 0;
#X connect 53 0 54 0;
#X connect 54 0 64 0;
#X connect 55 0 56 0;
#X connect 56 0 65 0;
#X connect 57 0 58 0;
#X connect 58 0 66 0;
#X connect 59 0 60 0;
#X connect 60 0 67 0;
#X connect 61 0 62 0;
#X connect 62 0 68 0;
#X connect 69 0 70 0;
#X connect 70 0 71 0;
#X connect 70 0 73 0;
#X connect 71 0 72 0;
#X connect 72 0 74 0;
#X connect 75 0 76 0;
#X connect 75 0 79 0;
#X connect 76 0 77 0;
#X connect 77 0 80 0;
#X connect 78 0 75 0;
#X connect 81 0 83 0;
#X connect 83 0 82 0;
#X connect 84 0 92 0;
#X connect 84 0 116 0;
#X connect 85 0 106 0;
#X connect 85 0 116 0;
#X connect 86 0 95 0;
#X connect 86 0 116 0;
#X connect 87 0 107 0;
#X connect 87 0 116 0;
#X connect 88 0 108 0;
#X connect 88 0 116 0;
#X connect 89 0 99 0;
#X connect 89 0 116 0;
#X connect 90 0 101 0;
#X connect 90 0 116 0;
#X connect 91 0 103 0;
#X connect 91 0 116 0;
#X connect 92 0 93 0;
#X connect 93 0 109 0;
#X connect 94 0 110 0;
#X connect 95 0 96 0;
#X connect 96 0 111 0;
#X connect 97 0 112 0;
#X connect 98 0 113 0;
#X connect 99 0 100 0;
#X connect 100 0 114 0;
#X connect 101 0 102 0;
#X connect 102 0 115 0;
#X connect 103 0 104 0;
#X connect 104 0 105 0;
#X connect 106 0 94 0;
#X connect 107 0 97 0;
#X connect 108 0 98 0;
#X restore 37 279 pd umx25_core_out;
#X obj 315 313 widget kb k2 #oct 3 #size 0.5 -bg red;
#X floatatom 315 405 5 0 0 0 - - -;
#X floatatom 398 240 5 0 0 0 - - -;
#X floatatom 315 240 5 0 0 0 - - -;
#X msg 398 274 #oct \$1;
#X obj 386 405 unpack;
#X floatatom 429 440 5 0 0 0 - - -;
#X obj 486 244 loadbang;
#X msg 475 277 #oct 3;
#X obj 313 206 r \$1umx25_notenumber_out;
#X connect 48 0 49 0;
#X connect 48 0 53 0;
#X connect 50 0 52 0;
#X connect 51 0 48 0;
#X connect 52 0 48 0;
#X connect 53 1 54 0;
#X connect 55 0 56 0;
#X connect 56 0 48 0;
#X connect 57 0 51 0;
#X coords 0 -1 1 1 600 185 1 0 0;
