#N canvas 408 98 704 382 10;
#X obj 34 172 symbol \$1;
#X obj 136 230 ftos;
#X obj 105 164 float \$1;
#X floatatom 105 193 5 0 0 0 - - -;
#X symbolatom 35 205 0 0 0 0 - - -;
#X symbolatom 95 243 10 0 0 0 - - -;
#X obj 44 126 loadbang;
#X obj 0 0 cnv 15 150 75 empty empty empty 2 12 0 14 -191407 -66577
0;
#X obj 7 5 tgl 15 0 \$1epdp_cycle_on \$1epdp_cycle_on_init Cycle 17
7 0 10 -260097 -1 -1 0 1;
#X obj 52 23 tgl 15 0 \$1epdp_cycle_y \$1epdp_cycle_y_init cycle_y
17 7 0 10 -262144 -1 -1 0 -1;
#X obj 52 40 tgl 15 0 \$1epdp_cycle_u \$1epdp_cycle_u_init cycle_u
17 7 0 10 -262144 -1 -1 0 78;
#X obj 52 57 tgl 15 0 \$1epdp_cycle_v \$1epdp_cycle_v_init cycle_v
17 7 0 10 -262144 -1 -1 0 55;
#X obj 121 4 cnv 15 20 10 empty \$1pdp_cycle_id \$1 5 5 0 10 -260097
-33289 0;
#X obj 249 46 inlet;
#X text 307 46 video;
#X text 477 46 on/off;
#X obj 278 268 outlet;
#X obj 282 98 pdp_spigot;
#X text 326 265 video;
#X obj 465 116 tgl 15 0 empty empty empty 0 -6 0 8 -262144 -1 -1 -1
-1;
#X obj 477 138 tgl 15 0 empty empty empty 0 -6 0 8 -262144 -1 -1 0
78;
#X obj 488 157 tgl 15 0 empty empty empty 0 -6 0 8 -262144 -1 -1 0
55;
#X text 491 115 Cycle Y;
#X text 504 136 Cycle U;
#X text 510 158 Cycle V;
#X obj 378 186 pdp_cycle;
#X obj 571 128 r \$1epdp_cycle_u;
#X obj 502 93 r \$1epdp_cycle_y;
#X obj 562 146 r \$1epdp_cycle_v;
#X obj 97 280 s \$1pdp_cycle_id;
#X obj 381 42 tgl 15 0 empty empty empty 17 7 0 10 -262144 -1 -1 0
1;
#X obj 389 15 r \$1epdp_cycle_on;
#X obj 2 58 bng 15 250 50 0 \$1epdp_cycle_midi_on empty midi 17 7 0
8 -4160 -1 -1;
#N canvas 195 158 1016 658 midi_control 1;
#X msg 137 167 ef1epdp_cycle_on_midi;
#X msg 298 165 ef1epdp_cycle_y_midi;
#X msg 468 166 ef1epdp_cycle_u_midi;
#X text -200 102 MIDI;
#X obj 71 140 bng 15 250 50 0 empty empty empty 17 7 0 10 -262144 -1
-1;
#X obj 194 188 bng 15 250 50 0 empty empty empty 17 7 0 10 -262144
-1 -1;
#X obj 321 188 bng 15 250 50 0 empty empty empty 17 7 0 10 -262144
-1 -1;
#X floatatom 92 360 5 0 0 0 - - -;
#X floatatom 246 366 5 0 0 0 - - -;
#X obj 264 293 s midi_var_to_add;
#X obj -114 92 r \$1epdp_cycle_midi_on;
#X msg 137 133 set \$1epdp_cycle_on_midi;
#X msg 298 134 set \$1epdp_cycle_y_midi;
#X msg 469 133 set \$1epdp_cycle_u_midi;
#X msg 637 133 set \$1epdp_cycle_v_midi;
#X obj 89 330 r \$1epdp_cycle_on_midi;
#X obj 70 488 s \$1epdp_cycle_on_init;
#X obj 250 328 r \$1epdp_cycle_y_midi;
#X obj 253 488 s \$1epdp_cycle_y_init;
#X obj 405 331 r \$1epdp_cycle_u_midi;
#X obj 408 491 s \$1epdp_cycle_u_init;
#X obj 558 330 r \$1epdp_cycle_v_midi;
#X obj 561 490 s \$1epdp_cycle_v_init;
#X floatatom 421 374 5 0 0 0 - - -;
#X floatatom 581 376 5 0 0 0 - - -;
#X msg 635 172 ef1epdp_cycle_v_midi;
#X obj 470 209 bng 15 250 50 0 empty empty empty 17 7 0 10 -262144
-1 -1;
#X text 382 293 -->global value of mb-midi_control_pad;
#X obj 147 75 r \$1pdp_cycle_id;
#X obj 121 394 select 0;
#X msg 121 453 0;
#X msg 80 456 1;
#X obj 130 427 alternate;
#X obj 297 401 select 0;
#X msg 297 460 0;
#X msg 256 463 1;
#X obj 306 434 alternate;
#X obj 456 405 select 0;
#X msg 456 464 0;
#X msg 415 467 1;
#X obj 465 438 alternate;
#X obj 614 401 select 0;
#X msg 614 460 0;
#X msg 573 463 1;
#X obj 623 434 alternate;
#X connect 0 0 5 0;
#X connect 0 0 9 0;
#X connect 1 0 6 0;
#X connect 1 0 9 0;
#X connect 2 0 9 0;
#X connect 2 0 26 0;
#X connect 4 0 0 0;
#X connect 5 0 1 0;
#X connect 6 0 2 0;
#X connect 7 0 29 0;
#X connect 8 0 33 0;
#X connect 10 0 4 0;
#X connect 11 0 0 0;
#X connect 12 0 1 0;
#X connect 13 0 2 0;
#X connect 14 0 25 0;
#X connect 15 0 7 0;
#X connect 17 0 8 0;
#X connect 19 0 23 0;
#X connect 21 0 24 0;
#X connect 23 0 37 0;
#X connect 24 0 41 0;
#X connect 25 0 9 0;
#X connect 26 0 25 0;
#X connect 28 0 11 0;
#X connect 28 0 12 0;
#X connect 28 0 13 0;
#X connect 28 0 14 0;
#X connect 29 1 32 0;
#X connect 30 0 16 0;
#X connect 31 0 16 0;
#X connect 32 0 31 0;
#X connect 32 1 30 0;
#X connect 33 1 36 0;
#X connect 34 0 18 0;
#X connect 35 0 18 0;
#X connect 36 0 35 0;
#X connect 36 1 34 0;
#X connect 37 1 40 0;
#X connect 38 0 20 0;
#X connect 39 0 20 0;
#X connect 40 0 39 0;
#X connect 40 1 38 0;
#X connect 41 1 44 0;
#X connect 42 0 22 0;
#X connect 43 0 22 0;
#X connect 44 0 43 0;
#X connect 44 1 42 0;
#X restore 200 12 pd midi_control;
#X connect 0 0 4 0;
#X connect 1 0 5 0;
#X connect 2 0 3 0;
#X connect 3 0 1 0;
#X connect 4 0 5 0;
#X connect 5 0 29 0;
#X connect 6 0 2 0;
#X connect 6 0 0 0;
#X connect 13 0 17 0;
#X connect 17 0 16 0;
#X connect 17 1 25 0;
#X connect 19 0 25 1;
#X connect 20 0 25 2;
#X connect 21 0 25 3;
#X connect 25 0 16 0;
#X connect 26 0 20 0;
#X connect 27 0 19 0;
#X connect 28 0 21 0;
#X connect 30 0 17 1;
#X connect 31 0 30 0;
#X coords 0 -1 1 1 150 75 1 0 0;
