#N canvas 4 573 1214 568 10;
#X obj 650 44 inlet;
#X obj 691 41 cnv 15 65 20 empty empty VIDEO_IN 0 10 0 9 -4034 -1 0
;
#X obj 802 476 cnv 15 65 20 empty empty VIDEO_OUT 0 10 0 9 -221249
-262144 0;
#X obj 749 480 outlet;
#X obj 803 407 bng 15 250 50 0 empty empty empty 17 7 0 10 -262144
-1 -1;
#X obj 799 379 spigot;
#X obj 845 430 s \$1epdp_monitor_out;
#X obj 847 347 r \$1epdp_monitor_on;
#X obj 669 176 pdp_spigot;
#X obj 766 143 r \$1epdp_bypass;
#N canvas 25 70 1891 1071 epdp_default_settings 0;
#X obj 32 32 loadbang;
#X obj 142 63 bng 15 250 50 0 empty empty empty 17 7 0 10 -262144 -1
-1;
#X msg 63 138 0;
#X obj 116 34 r \$1epdp_load_defaults;
#X msg 33 137 0;
#X obj 32 168 s \$1epdp_aging_dust_init;
#X obj 32 189 s \$1epdp_aging_scratches_init;
#X obj 203 165 s \$1epdp_baltan_value_init;
#X msg 203 138 1.65798e+07;
#X msg 357 137 0;
#X msg 494 143 0;
#X obj 492 167 s \$1epdp_dice_size_init;
#X obj 359 166 s \$1epdp_cycle_y_init;
#X obj 360 194 s \$1epdp_cycle_u_init;
#X obj 361 222 s \$1epdp_cycle_v_init;
#X msg 634 145 10;
#X obj 634 166 s \$1epdp_intrusion_threshold_init;
#X obj 145 266 bng 15 250 50 0 empty empty empty 17 7 0 10 -262144
-1 -1;
#X msg 32 363 0;
#X obj 28 416 s \$1epdp_lens_x_init;
#X obj 27 440 s \$1epdp_lens_y_init;
#X obj 27 467 s \$1epdp_lens_size_init;
#X obj 28 491 s \$1epdp_lens_zoomfactor_init;
#X obj 27 515 s \$1epdp_lens_mode_init;
#X msg 216 369 0;
#X obj 216 415 s \$1epdp_mosaic_censorshiplevel_init;
#X obj 439 414 s \$1epdp_nervous_nframes_init;
#X obj 439 443 s \$1epdp_nervous_mode_init;
#X msg 436 376 0;
#X obj 625 415 s \$1epdp_puzzle_nblocks_init;
#X msg 624 380 4;
#X msg 33 617 0;
#X obj 30 651 s \$1epdp_quark_nframes_init;
#X obj 31 680 s \$1epdp_quark_tolerance_init;
#X obj 168 544 bng 15 250 50 0 empty empty empty 17 7 0 10 -262144
-1 -1;
#X msg 210 625 0;
#X obj 210 652 s \$1epdp_radioactiv_mode_init;
#X obj 211 679 s \$1epdp_radioactiv_snaptime_init;
#X obj 210 708 s \$1epdp_radioactiv_snapinterval_init;
#X msg 457 608 1;
#X obj 459 643 s \$1epdp_rev_grabtime_init;
#X obj 459 672 s \$1epdp_rev_linespace_init;
#X msg 492 610 6;
#X msg 527 610 50;
#X obj 459 704 s \$1epdp_rev_scale_init;
#X obj 464 732 s \$1epdp_rev_linecolor_init;
#X msg 560 610 0;
#X obj 652 643 s \$1epdp_ripple_mode_init;
#X obj 654 674 s \$1epdp_ripple_motionthreshold_init;
#X obj 657 703 s \$1epdp_ripple_rain_init;
#X msg 650 611 0;
#X msg 33 792 0;
#X obj 34 827 s \$1epdp_shagadelic_mask_init;
#X obj 168 762 bng 15 250 50 0 empty empty empty 17 7 0 10 -262144
-1 -1;
#X msg 274 801 0;
#X obj 229 856 s \$1epdp_simura_mode_init;
#X obj 228 826 s \$1epdp_simura_color_init;
#X msg 229 800 16733;
#X obj 416 827 s \$1epdp_spriral_mode_init;
#X obj 414 852 s \$1epdp_spiral_focusx_init;
#X obj 415 875 s \$1epdp_spiral_focusy_init;
#X obj 416 902 s \$1epdp_spiral_depth_init;
#X obj 416 932 s \$1epdp_spiral_focusint_init;
#X obj 418 960 s \$1epdp_spiral_focusincr_init;
#X obj 418 990 s \$1epdp_spiral_xor_init;
#X obj 420 1019 s \$1epdp_spiral_animate_init;
#X msg 414 797 0;
#X msg 634 800 0;
#X obj 643 829 s \$1epdp_transform_mode_init;
#X obj 171 974 bng 15 250 50 0 empty empty empty 17 7 0 10 -262144
-1 -1;
#X msg 22 1066 10;
#X obj 13 1100 s \$1epdp_underwatch_stripsize_init;
#X obj 223 1099 s \$1epdp_vertigo_zoom_init;
#X obj 219 1128 s \$1epdp_vertigo_phase_init;
#X msg 224 1067 0;
#X msg 414 1071 0;
#X obj 418 1100 s \$1epdp_warhol_xdiv_init;
#X obj 427 1130 s \$1epdp_warhol_ydiv_init;
#X obj 429 1162 s \$1epdp_warhol_color_init;
#X obj 424 1194 s \$1epdp_warhol_ycomp_init;
#X obj 421 1222 s \$1epdp_warhol_ucomp_init;
#X obj 419 1252 s \$1epdp_warhol_vcomp_init;
#X obj 637 1103 s \$1epdp_warp_mode_init;
#X obj 642 1133 s \$1epdp_warp_control_init;
#X msg 636 1073 0;
#X obj 828 415 s \$1epdp_ascii_brightness_init;
#X obj 836 448 s \$1epdp_ascii_charpixratio_init;
#X msg 855 385 0;
#X msg 820 384 25;
#X obj 1036 115 symbol \$1;
#X obj 1036 79 bng 15 250 50 0 empty empty click_here_to_see 0 -6 0
8 -262144 -1 -1;
#X symbolatom 1523 86 0 0 0 0 - - -;
#X obj 1523 57 symbol \$2;
#X obj 1174 301 s \$1epdp_id;
#X obj 1193 182 ftos;
#X obj 1162 116 float \$1;
#X floatatom 1179 149 5 0 0 0 - - -;
#X symbolatom 1067 155 0 0 0 0 - - -;
#X symbolatom 1172 255 10 0 0 0 - - -;
#X connect 0 0 1 0;
#X connect 0 0 90 0;
#X connect 1 0 4 0;
#X connect 1 0 2 0;
#X connect 1 0 8 0;
#X connect 1 0 9 0;
#X connect 1 0 10 0;
#X connect 1 0 15 0;
#X connect 1 0 17 0;
#X connect 2 0 6 0;
#X connect 3 0 1 0;
#X connect 4 0 5 0;
#X connect 8 0 7 0;
#X connect 9 0 12 0;
#X connect 9 0 13 0;
#X connect 9 0 14 0;
#X connect 10 0 11 0;
#X connect 15 0 16 0;
#X connect 17 0 18 0;
#X connect 17 0 24 0;
#X connect 17 0 28 0;
#X connect 17 0 30 0;
#X connect 17 0 34 0;
#X connect 17 0 88 0;
#X connect 18 0 19 0;
#X connect 18 0 20 0;
#X connect 18 0 21 0;
#X connect 18 0 22 0;
#X connect 18 0 23 0;
#X connect 24 0 25 0;
#X connect 28 0 26 0;
#X connect 28 0 27 0;
#X connect 30 0 29 0;
#X connect 31 0 32 0;
#X connect 31 0 33 0;
#X connect 34 0 31 0;
#X connect 34 0 35 0;
#X connect 34 0 39 0;
#X connect 34 0 42 0;
#X connect 34 0 43 0;
#X connect 34 0 46 0;
#X connect 34 0 50 0;
#X connect 34 0 53 0;
#X connect 35 0 36 0;
#X connect 35 0 37 0;
#X connect 35 0 38 0;
#X connect 39 0 40 0;
#X connect 42 0 41 0;
#X connect 43 0 44 0;
#X connect 46 0 45 0;
#X connect 50 0 47 0;
#X connect 50 0 48 0;
#X connect 50 0 49 0;
#X connect 51 0 52 0;
#X connect 53 0 51 0;
#X connect 53 0 57 0;
#X connect 53 0 54 0;
#X connect 53 0 66 0;
#X connect 53 0 67 0;
#X connect 53 0 69 0;
#X connect 54 0 55 0;
#X connect 57 0 56 0;
#X connect 66 0 58 0;
#X connect 66 0 59 0;
#X connect 66 0 60 0;
#X connect 66 0 61 0;
#X connect 66 0 62 0;
#X connect 66 0 63 0;
#X connect 66 0 64 0;
#X connect 66 0 65 0;
#X connect 67 0 68 0;
#X connect 69 0 70 0;
#X connect 69 0 74 0;
#X connect 69 0 75 0;
#X connect 69 0 84 0;
#X connect 70 0 71 0;
#X connect 74 0 72 0;
#X connect 74 0 73 0;
#X connect 75 0 76 0;
#X connect 75 0 77 0;
#X connect 75 0 78 0;
#X connect 75 0 79 0;
#X connect 75 0 80 0;
#X connect 75 0 81 0;
#X connect 84 0 82 0;
#X connect 84 0 83 0;
#X connect 87 0 86 0;
#X connect 88 0 85 0;
#X connect 89 0 97 0;
#X connect 90 0 89 0;
#X connect 90 0 92 0;
#X connect 90 0 95 0;
#X connect 92 0 91 0;
#X connect 94 0 98 0;
#X connect 95 0 96 0;
#X connect 96 0 94 0;
#X connect 97 0 98 0;
#X connect 98 0 93 0;
#X restore 447 97 pd epdp_default_settings;
#N canvas 4 70 1912 1071 epdp_disable_all 0;
#X msg 95 84 0;
#X obj 152 136 s \$1epdp_aging_on_init;
#X obj 93 33 r \$1epdp_disable_all;
#X obj 148 168 s \$1epdp_baltan_on_init;
#X obj 149 203 s \$1epdp_cycle_on_init;
#X obj 148 242 s \$1epdp_dice_on_init;
#X obj 143 278 s \$1epdp_mosaic_on_init;
#X obj 141 313 s \$1epdp_nervous_on_init;
#X obj 141 351 s \$1epdp_puzzle_on_init;
#X obj 130 395 s \$1epdp_simura_on_init;
#X obj 315 141 s \$1epdp_edge_on_init;
#X obj 311 177 s \$1epdp_intrusion_on_init;
#X obj 320 215 s \$1epdp_lens_on_init;
#X obj 319 254 s \$1epdp_quark_on_init;
#X obj 319 293 s \$1epdp_radioactiv_on_init;
#X obj 319 332 s \$1epdp_rev_on_init;
#X obj 312 367 s \$1epdp_ripple_on_init;
#X obj 312 408 s \$1epdp_shagadelic_on_init;
#X obj 325 445 s \$1epdp_spiral_on_init;
#X obj 491 144 s \$1epdp_transform_on_init;
#X obj 484 187 s \$1epdp_underwatch_on_init;
#X obj 491 221 s \$1epdp_vertigo_on_init;
#X obj 489 256 s \$1epdp_warhol_on_init;
#X obj 492 298 s \$1epdp_warp_on_init;
#X connect 0 0 1 0;
#X connect 0 0 3 0;
#X connect 0 0 4 0;
#X connect 0 0 5 0;
#X connect 0 0 6 0;
#X connect 0 0 7 0;
#X connect 0 0 8 0;
#X connect 0 0 9 0;
#X connect 0 0 10 0;
#X connect 0 0 11 0;
#X connect 0 0 12 0;
#X connect 0 0 13 0;
#X connect 0 0 14 0;
#X connect 0 0 15 0;
#X connect 0 0 16 0;
#X connect 0 0 17 0;
#X connect 0 0 18 0;
#X connect 0 0 19 0;
#X connect 0 0 20 0;
#X connect 0 0 21 0;
#X connect 0 0 22 0;
#X connect 0 0 23 0;
#X connect 2 0 0 0;
#X restore 449 61 pd epdp_disable_all;
#X obj 921 106 bng 15 250 50 0 empty empty empty 17 7 0 10 -262144
-1 -1;
#X obj 917 78 spigot;
#X obj 1003 101 s \$1epdp_monitor_in;
#X obj 1011 55 r \$1epdp_monitor_on;
#X obj 0 1 cnv 15 400 215 empty empty PDP_Effects_Control 100 12 0
14 -99865 -262144 0;
#X obj 2 1 cnv 15 65 20 empty empty VIDEO_IN 0 10 0 9 -4034 -1 0;
#X obj 26 45 bng 15 250 50 0 \$1epdp_disable_all_init empty Disable_all_effects
17 7 0 8 -258113 -191407 -191407;
#X obj 72 4 bng 15 250 50 0 empty \$1epdp_monitor_in empty 17 7 0 10
-128992 -4034 -4034;
#X obj 172 26 tgl 15 0 \$1epdp_bypass \$1epdp_bypas_init Bypass 22
8 0 8 -257985 -1 -228856 0 1;
#X obj 171 45 tgl 15 0 \$1epdp_monitor_on_init empty Monitor_leds 17
7 0 8 -228856 -1 -228856 0 1;
#X obj 272 47 bng 15 250 50 0 \$1epdp_apply_settings_init empty Apply_settings
17 7 0 8 -260097 -1 -228856;
#X obj 271 27 bng 15 250 50 0 \$1epdp_load_defaults_init empty Load_Defaults
17 7 0 8 -228856 -1 -228856;
#X obj 7 70 cnv 15 385 120 empty empty empty 2 12 0 14 -128992 -66577
0;
#X obj 17 74 tgl 15 0 \$1epdp_aging_on_init empty Aging 17 7 0 10 -260097
-1 -228856 0 1;
#X obj 17 93 tgl 15 0 \$1epdp_baltan_on_init empty Baltan 17 7 0 10
-260097 -1 -228856 0 1;
#X obj 17 113 tgl 15 0 \$1epdp_cycle_on_init empty Cycle 17 7 0 10
-260097 -1 -228856 0 1;
#X obj 17 133 tgl 15 0 \$1epdp_dice_on_init empty Dice 17 7 0 10 -260097
-1 -228856 0 1;
#X obj 17 152 tgl 15 0 \$1epdp_edge_on_init empty Edge 17 7 0 10 -260097
-1 -228856 0 1;
#X obj 1 195 cnv 15 65 20 empty empty VIDEO_OUT 0 10 0 9 -221249 -262144
0;
#X obj 67 198 bng 15 250 50 0 empty \$1epdp_monitor_out empty 17 7
0 10 -128992 -258113 -258113;
#X obj 17 170 tgl 15 0 \$1epdp_intrusion_on_init empty Intrusion 17
7 0 10 -260097 -1 -228856 0 1;
#X obj 103 74 tgl 15 0 \$1epdp_lens_on_init empty Lens 17 7 0 10 -260097
-1 -228856 0 1;
#X obj 103 93 tgl 15 0 \$1epdp_mosaic_on_init empty Mosaic 17 7 0 10
-260097 -1 -228856 0 1;
#X obj 103 133 tgl 15 0 \$1epdp_puzzle_on_init empty Puzzle 17 7 0
10 -260097 -1 -228856 0 1;
#X obj 103 151 tgl 15 0 \$1epdp_quark_on_init empty Quark 17 7 0 10
-260097 -1 -228856 0 1;
#X obj 107 170 tgl 15 0 \$1epdp_radioactiv_on_init empty Radioactiv
17 7 0 10 -260097 -1 -228856 0 1;
#X obj 203 73 tgl 15 0 \$1epdp_rev_on_init empty Rev 17 7 0 10 -260097
-1 -228856 0 1;
#X obj 204 92 tgl 15 0 \$1epdp_ripple_on_init empty Ripple 17 7 0 10
-260097 -1 -228856 0 1;
#X obj 103 113 tgl 15 0 \$1epdp_nervous_on_init empty Nervous 17 7
0 10 -260097 -1 -228856 0 1;
#X obj 204 112 tgl 15 0 \$1epdp_shagadelic_on_init empty Shagadelic
17 7 0 10 -260097 -1 -228856 0 1;
#X obj 205 132 tgl 15 0 \$1epdp_simura_on_init empty Simura 17 7 0
10 -260097 -1 -228856 0 1;
#X obj 205 151 tgl 15 1 \$1epdp_spiral_on_init empty Spiral 17 7 0
10 -260097 -1 -228856 0 1;
#X obj 296 75 tgl 15 0 \$1epdp_transform_on_init empty Transform 17
7 0 10 -260097 -1 -228856 0 1;
#X obj 296 94 tgl 15 0 \$1epdp_underwatch_on_init empty Underwatch
17 7 0 10 -260097 -1 -228856 0 1;
#X obj 297 114 tgl 15 0 \$1epdp_vertigo_on_init empty Vertigo 17 7
0 10 -260097 -1 -228856 0 1;
#X obj 297 133 tgl 15 1 \$1epdp_warhol_on_init empty Warhol 17 7 0
10 -260097 -1 -228856 0 1;
#X obj 297 151 tgl 15 0 \$1epdp_warp_on_init empty Warp 17 7 0 10 -260097
-1 -228856 0 1;
#X obj 26 26 tgl 15 0 \$1epdp_configure_on empty ConfigureEffects 17
7 0 8 -260097 -1 -228856 0 1;
#X obj 206 169 tgl 15 1 \$1epdp_ascii_on_init empty ASCII 17 7 0 10
-260097 -1 -228856 0 1;
#X obj 319 4 cnv 15 40 20 empty \$1epdp_id \$1 10 10 0 14 -260097 -33289
0;
#X obj 356 170 bng 15 250 50 0 \$1epdp_noise_start empty empty 17 7
0 10 -260097 -1 -1;
#X obj 298 169 tgl 15 1 \$1epdp_noise_on_init empty Noise 17 7 0 10
-260097 -1 -228856 0 1;
#N canvas 314 416 657 706 \$1-epdp_effects_core 0;
#X obj 91 -596 block~ 512;
#X obj -44 -601 cnv 15 650 680 empty empty PDP_Effects_Control_Configuration
140 12 0 14 -99865 -262144 0;
#X obj -20 -544 mb-pdp_ef_aging \$1;
#X obj -19 -463 mb-pdp_ef_baltan \$1;
#X obj -19 -383 mb-pdp_ef_cycle \$1;
#X obj -19 -304 mb-pdp_ef_dice \$1;
#X obj -19 -223 mb-pdp_ef_edge \$1;
#X obj -18 -143 mb-pdp_ef_intrusion \$1;
#X obj -18 -63 mb-pdp_ef_lens \$1;
#X obj 137 -543 mb-pdp_ef_mosaic \$1;
#X obj 138 -463 mb-pdp_ef_nervous \$1;
#X obj 137 -383 mb-pdp_ef_puzzle \$1;
#X obj 136 -303 mb-pdp_ef_quark \$1;
#X obj 136 -223 mb-pdp_ef_radioactiv \$1;
#X obj 136 -143 mb-pdp_ef_rev \$1;
#X obj 135 -63 mb-pdp_ef_ripple \$1;
#X obj 292 -543 mb-pdp_ef_shagadelic \$1;
#X obj 292 -463 mb-pdp_ef_simura \$1;
#X obj 292 -383 mb-pdp_ef_transform \$1;
#X obj 292 -303 mb-pdp_ef_underwatch \$1;
#X obj 292 -223 mb-pdp_ef_vertigo \$1;
#X obj 292 -143 mb-pdp_ef_warp \$1;
#X obj 292 -63 mb-pdp_ef_ascii \$1;
#X obj 447 -543 mb-pdp_ef_noise \$1;
#X obj 447 -463 mb-pdp_ef_spiral \$1;
#X obj 448 -301 mb-pdp_ef_warhol \$1;
#X obj 472 -594 cnv 15 40 20 empty \$1gempix_effects_id \$1 10 10 0
14 -260097 -33289 0;
#X obj -36 57 cnv 15 65 20 empty empty VIDEO_OUT 0 10 0 9 -221249 -262144
0;
#X obj -39 -600 cnv 15 65 20 empty empty VIDEO_IN 0 10 0 9 -4034 -1
0;
#X obj 31 -599 inlet;
#X obj 68 -598 bng 15 250 50 0 empty \$1epdp_monitor_in empty 17 7
0 10 -128992 -4034 -4034;
#X obj 79 62 bng 15 250 50 0 empty \$1epdp_monitor_out empty 17 7 0
10 -128992 -258113 -258113;
#X obj 33 61 outlet;
#X obj 200 -569 tgl 15 0 \$1epdp_configure_on empty Close_this_window
17 7 0 10 -260097 -1 -228856 0 1;
#X obj 115 -572 tgl 15 0 \$1epdp_bypas_init empty Bypass 22 8 0 8 -257985
-1 -228856 0 1;
#X connect 2 0 3 0;
#X connect 3 0 4 0;
#X connect 4 0 5 0;
#X connect 5 0 6 0;
#X connect 6 0 7 0;
#X connect 7 0 8 0;
#X connect 8 0 9 0;
#X connect 9 0 10 0;
#X connect 10 0 11 0;
#X connect 11 0 12 0;
#X connect 12 0 13 0;
#X connect 13 0 14 0;
#X connect 14 0 15 0;
#X connect 15 0 16 0;
#X connect 16 0 17 0;
#X connect 17 0 18 0;
#X connect 18 0 19 0;
#X connect 19 0 20 0;
#X connect 20 0 21 0;
#X connect 21 0 22 0;
#X connect 22 0 23 0;
#X connect 23 0 24 0;
#X connect 24 0 25 0;
#X connect 25 0 32 0;
#X connect 29 0 2 0;
#X restore 574 275 pd \$1-epdp_effects_core;
#N canvas 25 70 1891 1071 epdp_midi_vars 0;
#X obj 1034 377 s \$1epdp_baltan_value_init;
#X obj 1323 379 s \$1epdp_dice_size_init;
#X obj 1190 378 s \$1epdp_cycle_y_init;
#X obj 1191 406 s \$1epdp_cycle_u_init;
#X obj 1192 434 s \$1epdp_cycle_v_init;
#X obj 1465 378 s \$1epdp_intrusion_threshold_init;
#X obj 28 416 s \$1epdp_lens_x_init;
#X obj 27 440 s \$1epdp_lens_y_init;
#X obj 27 467 s \$1epdp_lens_size_init;
#X obj 28 491 s \$1epdp_lens_zoomfactor_init;
#X obj 27 515 s \$1epdp_lens_mode_init;
#X obj 216 415 s \$1epdp_mosaic_censorshiplevel_init;
#X obj 439 414 s \$1epdp_nervous_nframes_init;
#X obj 439 443 s \$1epdp_nervous_mode_init;
#X obj 625 415 s \$1epdp_puzzle_nblocks_init;
#X msg 33 617 0;
#X obj 30 651 s \$1epdp_quark_nframes_init;
#X obj 31 680 s \$1epdp_quark_tolerance_init;
#X obj 168 544 bng 15 250 50 0 empty empty empty 17 7 0 10 -262144
-1 -1;
#X msg 210 625 0;
#X obj 210 652 s \$1epdp_radioactiv_mode_init;
#X obj 211 679 s \$1epdp_radioactiv_snaptime_init;
#X obj 210 708 s \$1epdp_radioactiv_snapinterval_init;
#X msg 457 608 1;
#X obj 459 643 s \$1epdp_rev_grabtime_init;
#X obj 459 672 s \$1epdp_rev_linespace_init;
#X msg 492 610 6;
#X msg 527 610 50;
#X obj 459 704 s \$1epdp_rev_scale_init;
#X obj 464 732 s \$1epdp_rev_linecolor_init;
#X msg 560 610 0;
#X obj 652 643 s \$1epdp_ripple_mode_init;
#X obj 654 674 s \$1epdp_ripple_motionthreshold_init;
#X obj 657 703 s \$1epdp_ripple_rain_init;
#X msg 650 611 0;
#X msg 33 792 0;
#X obj 34 827 s \$1epdp_shagadelic_mask_init;
#X obj 168 762 bng 15 250 50 0 empty empty empty 17 7 0 10 -262144
-1 -1;
#X msg 274 801 0;
#X obj 229 856 s \$1epdp_simura_mode_init;
#X obj 228 826 s \$1epdp_simura_color_init;
#X msg 229 800 16733;
#X obj 416 827 s \$1epdp_spriral_mode_init;
#X obj 414 852 s \$1epdp_spiral_focusx_init;
#X obj 415 875 s \$1epdp_spiral_focusy_init;
#X obj 416 902 s \$1epdp_spiral_depth_init;
#X obj 416 932 s \$1epdp_spiral_focusint_init;
#X obj 418 960 s \$1epdp_spiral_focusincr_init;
#X obj 418 990 s \$1epdp_spiral_xor_init;
#X obj 420 1019 s \$1epdp_spiral_animate_init;
#X msg 414 797 0;
#X msg 634 800 0;
#X obj 643 829 s \$1epdp_transform_mode_init;
#X obj 171 974 bng 15 250 50 0 empty empty empty 17 7 0 10 -262144
-1 -1;
#X msg 22 1066 10;
#X obj 13 1100 s \$1epdp_underwatch_stripsize_init;
#X obj 223 1099 s \$1epdp_vertigo_zoom_init;
#X obj 219 1128 s \$1epdp_vertigo_phase_init;
#X msg 224 1067 0;
#X msg 414 1071 0;
#X obj 418 1100 s \$1epdp_warhol_xdiv_init;
#X obj 427 1130 s \$1epdp_warhol_ydiv_init;
#X obj 429 1162 s \$1epdp_warhol_color_init;
#X obj 424 1194 s \$1epdp_warhol_ycomp_init;
#X obj 421 1222 s \$1epdp_warhol_ucomp_init;
#X obj 419 1252 s \$1epdp_warhol_vcomp_init;
#X obj 637 1103 s \$1epdp_warp_mode_init;
#X obj 642 1133 s \$1epdp_warp_control_init;
#X msg 636 1073 0;
#X obj 828 415 s \$1epdp_ascii_brightness_init;
#X obj 836 448 s \$1epdp_ascii_charpixratio_init;
#X connect 15 0 16 0;
#X connect 15 0 17 0;
#X connect 18 0 15 0;
#X connect 18 0 19 0;
#X connect 18 0 23 0;
#X connect 18 0 26 0;
#X connect 18 0 27 0;
#X connect 18 0 30 0;
#X connect 18 0 34 0;
#X connect 18 0 37 0;
#X connect 19 0 20 0;
#X connect 19 0 21 0;
#X connect 19 0 22 0;
#X connect 23 0 24 0;
#X connect 26 0 25 0;
#X connect 27 0 28 0;
#X connect 30 0 29 0;
#X connect 34 0 31 0;
#X connect 34 0 32 0;
#X connect 34 0 33 0;
#X connect 35 0 36 0;
#X connect 37 0 35 0;
#X connect 37 0 41 0;
#X connect 37 0 38 0;
#X connect 37 0 50 0;
#X connect 37 0 51 0;
#X connect 37 0 53 0;
#X connect 38 0 39 0;
#X connect 41 0 40 0;
#X connect 50 0 42 0;
#X connect 50 0 43 0;
#X connect 50 0 44 0;
#X connect 50 0 45 0;
#X connect 50 0 46 0;
#X connect 50 0 47 0;
#X connect 50 0 48 0;
#X connect 50 0 49 0;
#X connect 51 0 52 0;
#X connect 53 0 54 0;
#X connect 53 0 58 0;
#X connect 53 0 59 0;
#X connect 53 0 68 0;
#X connect 54 0 55 0;
#X connect 58 0 56 0;
#X connect 58 0 57 0;
#X connect 59 0 60 0;
#X connect 59 0 61 0;
#X connect 59 0 62 0;
#X connect 59 0 63 0;
#X connect 59 0 64 0;
#X connect 59 0 65 0;
#X connect 68 0 66 0;
#X connect 68 0 67 0;
#X restore 448 130 pd epdp_midi_vars;
#X obj 48 326 f \$0;
#X symbolatom 55 367 0 0 0 0 - - -;
#X msg 48 417 \; \$1 vis \$2;
#X obj 48 388 pack symbol float;
#X obj 48 302 t b f;
#X obj 41 262 r \$1epdp_configure_on;
#X obj 48 345 makesymbol pd-\$1-epdp_effects_core;
#X obj 774 184 tgl 15 0 empty empty empty 17 7 0 10 -262144 -1 -1 0
1;
#X connect 0 0 8 0;
#X connect 0 0 13 0;
#X connect 4 0 6 0;
#X connect 5 0 4 0;
#X connect 7 0 5 1;
#X connect 8 0 54 0;
#X connect 8 1 3 0;
#X connect 9 0 8 1;
#X connect 9 0 63 0;
#X connect 12 0 14 0;
#X connect 13 0 12 0;
#X connect 15 0 13 1;
#X connect 54 0 3 0;
#X connect 54 0 5 0;
#X connect 56 0 62 0;
#X connect 59 0 58 0;
#X connect 60 0 56 0;
#X connect 60 1 59 1;
#X connect 61 0 60 0;
#X connect 62 0 57 0;
#X connect 62 0 59 0;
#X coords 0 -1 1 1 400 215 1 0 0;
