#N canvas 429 507 915 531 10;
#X obj 34 172 symbol \$1;
#X obj 136 230 ftos;
#X obj 105 164 float \$1;
#X floatatom 105 193 5 0 0 0 - - -;
#X symbolatom 35 205 0 0 0 0 - - -;
#X symbolatom 95 243 10 0 0 0 - - -;
#X obj 44 126 loadbang;
#X obj 97 280 s \$1pdp_ocv_threshold_id;
#X obj 251 50 inlet;
#X text 309 50 video;
#X text 478 32 on/off;
#X obj 285 475 outlet;
#X obj 284 102 pdp_spigot;
#X text 329 473 video;
#X obj 413 9 tgl 15 0 empty empty empty 17 7 0 10 -262144 -1 -1 0 1
;
#X obj 446 12 r \$1pdp_ocv_threshold_on;
#X obj 0 0 cnv 15 150 75 empty empty empty 2 12 0 14 -191407 -66577
0;
#X obj 6 4 tgl 15 0 \$1pdp_ocv_threshold_on \$1pdp_ocv_threshold_on_init
threshold 17 7 0 8 -260097 -1 -1 0 1;
#X obj 82 3 cnv 15 20 10 empty \$1pdp_ocv_threshold_id \$1 5 5 0 10
-260097 -33289 0;
#X obj 105 2 bng 15 250 50 0 \$1pdp_ocv_threshold_midi_on empty midi
17 7 0 8 -4160 -1 -1;
#N canvas 722 94 1081 564 midi_control 1;
#X msg 77 175 pdp_ocv_threshold_on_midi;
#X text 27 19 MIDI;
#X obj 11 148 bng 15 250 50 0 empty empty empty 17 7 0 10 -262144 -1
-1;
#X obj 134 196 bng 15 250 50 0 empty empty empty 17 7 0 10 -262144
-1 -1;
#X obj 261 196 bng 15 250 50 0 empty empty empty 17 7 0 10 -262144
-1 -1;
#X floatatom 32 368 5 0 0 0 - - -;
#X obj 30 413 select 0;
#X msg 143 472 0;
#X msg 62 471 1;
#X obj 414 279 s midi_var_to_add;
#X msg 77 141 set \$1pdp_ocv_threshold_on_midi;
#X obj 29 338 r \$1pdp_ocv_threshold_on_midi;
#X obj 10 496 s \$1pdp_ocv_threshold_on_init;
#X obj 33 54 r \$1pdp_ocv_threshold_midi_on;
#X text 531 278 -->global value of mb-midi_control_pad;
#X obj 446 44 r \$1pdp_ocv_threshold_id;
#X floatatom 113 384 1 0 0 0 - - -;
#X obj 85 444 alternate;
#X floatatom 531 396 5 0 0 0 - - -;
#X floatatom 557 465 8 0 0 0 - - -;
#X obj 612 399 hsl 128 15 0 127 0 0 empty empty empty -2 -8 0 10 -262144
-1 -1 0 1;
#X msg 277 170 pdp_ocv_threshold_set_midi;
#X msg 490 138 set \$1pdp_ocv_threshold_threshold_midi;
#X msg 490 169 pdp_ocv_threshold_threshold_midi;
#X obj 508 341 r \$1pdp_ocv_threshold_threshold_midi;
#X obj 489 499 s \$1pdp_ocv_threshold_threshold_init;
#X obj 626 436 autoscale 0 300;
#X msg 277 139 set \$1pdp_ocv_threshold_mode_midi;
#X obj 228 337 r \$1pdp_ocv_threshold_mode_midi;
#X obj 231 497 s \$1pdp_ocv_threshold_mode_init;
#X floatatom 252 386 5 0 0 0 - - -;
#X floatatom 278 455 8 0 0 0 - - -;
#X obj 333 389 hsl 128 15 0 127 0 0 empty empty empty -2 -8 0 10 -262144
-1 -1 0 1;
#X obj 348 425 autoscale 0 4;
#X connect 0 0 3 0;
#X connect 0 0 9 0;
#X connect 2 0 0 0;
#X connect 3 0 21 0;
#X connect 4 0 23 0;
#X connect 5 0 6 0;
#X connect 6 1 17 0;
#X connect 7 0 12 0;
#X connect 8 0 12 0;
#X connect 10 0 0 0;
#X connect 11 0 5 0;
#X connect 11 0 16 0;
#X connect 13 0 2 0;
#X connect 15 0 10 0;
#X connect 15 0 27 0;
#X connect 15 0 22 0;
#X connect 17 0 8 0;
#X connect 17 1 7 0;
#X connect 18 0 20 0;
#X connect 19 0 25 0;
#X connect 20 0 26 0;
#X connect 21 0 4 0;
#X connect 21 0 9 0;
#X connect 22 0 23 0;
#X connect 23 0 9 0;
#X connect 24 0 18 0;
#X connect 26 0 19 0;
#X connect 27 0 21 0;
#X connect 28 0 30 0;
#X connect 30 0 32 0;
#X connect 31 0 29 0;
#X connect 32 0 33 0;
#X connect 33 0 31 0;
#X restore 172 16 pd midi_control;
#X obj 78 36 knob 32 32 0 260 0 0 \$1pdp_ocv_threshold_threshold \$1pdp_ocv_threshold_threshold_init
Threshold -7 -8 192 8 -99865 -260097 -1 0 1;
#X obj 116 57 nbx 3 14 -1e+37 1e+37 0 0 empty \$1pdp_ocv_threshold_threshold
empty 0 -8 0 8 -66577 -260097 -260097 0 256;
#X obj 703 368 r \$1pdp_ocv_threshold_threshold;
#X obj 449 433 pdp_opencv_threshold;
#X msg 449 312 mode \$1;
#X msg 426 200 0;
#X msg 447 223 1;
#X msg 470 246 2;
#X msg 494 267 3;
#X msg 521 290 4;
#X text 500 312 thresholding mode ( default 0 );
#X text 458 198 pixel >= threshold;
#X text 498 245 pixel >= threshold set to threshold;
#X text 476 222 pixel <= threshold;
#X text 525 266 pixel <= threshold set to 0;
#X text 549 288 pixel >= threshold set to 0;
#X floatatom 685 426 5 0 0 0 - - -;
#X floatatom 674 206 5 0 0 0 - - -;
#X text 674 189 Max value used in some modes;
#X text 716 426 threshold value;
#X text 700 443 ( default 50 );
#X obj 719 397 int;
#X obj 6 37 hradio 12 1 0 5 \$1pdp_ocv_threshold_mode \$1pdp_ocv_threshold_mode_init
mode 0 -8 0 8 -260097 -1 -1 0;
#X obj 421 118 r \$1pdp_ocv_threshold_mode;
#X obj 422 150 select 0 1 2 3 4;
#X obj 6 55 nbx 3 14 -1e+37 1e+37 0 0 \$1pdp_ocv_threshold_max \$1pdp_ocv_threshold_max_init
max 34 8 0 8 -66577 -260097 -260097 -1 256;
#X obj 670 145 r \$1pdp_ocv_threshold_max;
#X connect 0 0 4 0;
#X connect 1 0 5 0;
#X connect 2 0 3 0;
#X connect 3 0 1 0;
#X connect 4 0 5 0;
#X connect 5 0 7 0;
#X connect 6 0 2 0;
#X connect 6 0 0 0;
#X connect 8 0 12 0;
#X connect 12 0 11 0;
#X connect 12 1 24 0;
#X connect 14 0 12 1;
#X connect 15 0 14 0;
#X connect 23 0 42 0;
#X connect 24 0 11 0;
#X connect 25 0 24 0;
#X connect 26 0 25 0;
#X connect 27 0 25 0;
#X connect 28 0 25 0;
#X connect 29 0 25 0;
#X connect 30 0 25 0;
#X connect 37 0 24 2;
#X connect 38 0 24 1;
#X connect 42 0 37 0;
#X connect 44 0 45 0;
#X connect 45 0 26 0;
#X connect 45 1 27 0;
#X connect 45 2 28 0;
#X connect 45 3 29 0;
#X connect 45 4 30 0;
#X connect 47 0 38 0;
#X coords 0 -1 1 1 150 75 1 0 0;
