#N canvas 257 200 1369 728 10;
#X obj 0 0 cnv 15 275 60 empty empty PDP_video_select 90 48 0 10 -99865
-262144 0;
#X obj 229 42 cnv 15 20 15 empty \$1pdp_video_select_id \$1 6 8 0 9
-260097 -33289 0;
#X obj 386 257 outlet;
#X obj 384 -45 inlet;
#X obj 656 -29 inlet;
#X obj 106 153 loadbang;
#X obj 100 272 symbol \$1;
#X symbolatom 100 301 0 0 0 0 - - -;
#X obj 106 185 bng 15 250 50 0 empty empty empty 0 -6 0 8 -262144 -1
-1;
#X symbolatom 197 301 0 0 0 0 - - -;
#X obj 197 272 symbol \$2;
#X obj 36 272 float \$1;
#X floatatom 40 304 5 0 0 0 - - -;
#X obj 100 347 s \$1pdp_video_select_id;
#X obj 1 0 cnv 8 65 15 empty empty VIDEO_IN_1 0 8 0 8 -4034 -1 0;
#X obj 70 0 cnv 8 65 15 empty empty VIDEO_IN_2 0 8 0 8 -4034 -1 0;
#X obj 351 -72 cnv 8 65 15 empty empty VIDEO_IN_1 0 8 0 8 -4034 -1
0;
#X obj 641 -71 cnv 8 65 15 empty empty VIDEO_IN_2 0 8 0 8 -4034 -1
0;
#X obj 139 0 cnv 8 65 15 empty empty VIDEO_IN_3 0 8 0 8 -4034 -1 0
;
#X obj 899 -76 cnv 8 65 15 empty empty VIDEO_IN_3 0 8 0 8 -4034 -1
0;
#X obj 208 1 cnv 8 65 15 empty empty VIDEO_IN_4 0 8 0 8 -4034 -1 0
;
#X obj 1118 -71 cnv 8 65 15 empty empty VIDEO_IN_4 0 8 0 8 -4034 -1
0;
#X obj 0 43 cnv 8 60 15 empty empty VIDEO_OUT 0 8 0 8 -258113 -1 0
;
#X obj 903 -42 inlet;
#X obj 1121 -35 inlet;
#X obj 392 150 pdp_spigot;
#X obj 668 152 pdp_spigot;
#X obj 908 148 pdp_spigot;
#X obj 1111 156 pdp_spigot;
#X obj 26 19 tgl 20 0 \$1pdp_video_select_in1_on \$1pdp_video_select_in1_on_init
empty 17 7 0 10 -1 -257985 -4034 0 1;
#X floatatom 516 1 5 0 0 0 - - -;
#X obj 428 -22 r \$1pdp_video_select_in1_on;
#X obj 428 123 tgl 15 0 empty empty empty 17 7 0 10 -262144 -1 -1 0
1;
#X obj 720 131 tgl 15 0 empty empty empty 17 7 0 10 -262144 -1 -1 0
1;
#X obj 956 123 tgl 15 0 empty empty empty 17 7 0 10 -262144 -1 -1 0
1;
#X obj 1150 128 tgl 15 0 empty empty empty 17 7 0 10 -262144 -1 -1
0 1;
#X obj 432 13 select 1;
#X obj 438 106 s \$1pdp_video_select_in1_on_init;
#X floatatom 793 17 5 0 0 0 - - -;
#X obj 709 29 select 1;
#X obj 705 -6 r \$1pdp_video_select_in2_on;
#X obj 685 96 s \$1pdp_video_select_in2_on_init;
#X obj 89 18 tgl 20 0 \$1pdp_video_select_in2_on \$1pdp_video_select_in2_on_init
empty 17 7 0 10 -1 -257985 -1 0 1;
#X msg 437 36 0;
#X msg 715 47 0;
#X floatatom 1013 14 5 0 0 0 - - -;
#X obj 929 26 select 1;
#X msg 935 46 0;
#X floatatom 1233 24 5 0 0 0 - - -;
#X obj 1149 36 select 1;
#X msg 1155 55 0;
#X obj 925 -9 r \$1pdp_video_select_in3_on;
#X obj 1145 1 r \$1pdp_video_select_in4_on;
#X obj 1141 87 s \$1pdp_video_select_in4_on_init;
#X obj 919 87 s \$1pdp_video_select_in3_on_init;
#X obj 159 18 tgl 20 0 \$1pdp_video_select_in3_on \$1pdp_video_select_in3_on_init
empty 17 7 0 10 -1 -257985 -1 0 1;
#X obj 225 18 tgl 20 0 \$1pdp_video_select_in4_on \$1pdp_video_select_in4_on_init
empty 17 7 0 10 -1 -257985 -1 0 1;
#X obj 378 345 r \$1pdp_video_select_extern;
#X obj 375 455 s \$1pdp_video_select_in1_on_init;
#X obj 789 456 s \$1pdp_video_select_in3_on_init;
#X obj 586 454 s \$1pdp_video_select_in2_on_init;
#X obj 995 457 s \$1pdp_video_select_in4_on_init;
#X text 559 346 ->for external control (ex.midi);
#X msg 374 422 1;
#X msg 583 422 1;
#X msg 786 423 1;
#X msg 991 425 1;
#X obj 376 390 select 1 2 3 4;
#X floatatom 328 355 5 0 0 0 - - -;
#X connect 3 0 25 0;
#X connect 4 0 26 0;
#X connect 5 0 8 0;
#X connect 6 0 7 0;
#X connect 7 0 13 0;
#X connect 8 0 6 0;
#X connect 8 0 10 0;
#X connect 8 0 11 0;
#X connect 10 0 9 0;
#X connect 11 0 12 0;
#X connect 23 0 27 0;
#X connect 24 0 28 0;
#X connect 25 1 2 0;
#X connect 26 1 2 0;
#X connect 27 1 2 0;
#X connect 28 1 2 0;
#X connect 31 0 30 0;
#X connect 31 0 32 0;
#X connect 31 0 36 0;
#X connect 32 0 25 1;
#X connect 33 0 26 1;
#X connect 34 0 27 1;
#X connect 35 0 28 1;
#X connect 36 0 43 0;
#X connect 39 0 44 0;
#X connect 40 0 38 0;
#X connect 40 0 39 0;
#X connect 40 0 33 0;
#X connect 43 0 41 0;
#X connect 43 0 53 0;
#X connect 43 0 54 0;
#X connect 44 0 37 0;
#X connect 44 0 53 0;
#X connect 44 0 54 0;
#X connect 46 0 47 0;
#X connect 47 0 53 0;
#X connect 47 0 41 0;
#X connect 47 0 37 0;
#X connect 49 0 50 0;
#X connect 50 0 54 0;
#X connect 50 0 41 0;
#X connect 50 0 37 0;
#X connect 51 0 45 0;
#X connect 51 0 46 0;
#X connect 51 0 34 0;
#X connect 52 0 48 0;
#X connect 52 0 49 0;
#X connect 52 0 35 0;
#X connect 57 0 67 0;
#X connect 63 0 58 0;
#X connect 64 0 60 0;
#X connect 65 0 59 0;
#X connect 66 0 61 0;
#X connect 67 0 63 0;
#X connect 67 1 64 0;
#X connect 67 2 65 0;
#X connect 67 3 66 0;
#X connect 68 0 67 0;
#X coords 0 -1 1 1 275 60 1 0 0;
