#N canvas 154 122 866 381 10;
#X obj 0 0 cnv 15 230 190 empty empty PDP_OCanvas 10 30 0 10 -99865
-262144 0;
#X obj 11 105 cnv 15 100 60 empty empty Position 2 12 0 10 -128992
-228856 0;
#X obj 117 41 cnv 15 100 90 empty empty Dimensions 2 12 0 10 -128992
-228856 0;
#X obj 123 63 vradio 15 1 0 2 \$1pdp_ocnv_dim \$1pdp_ocnv_dim_init
empty 0 -8 0 10 -260097 -1 -1 0;
#X text 145 61 320x240;
#X text 145 78 640x480;
#X obj 431 27 inlet;
#X obj 1 1 cnv 15 35 15 empty empty V_IN1 0 8 0 9 -4034 -1 0;
#X obj 104 22 cnv 15 30 15 empty \$1pdp_ocnv_id \$1 10 8 0 10 -260097
-33289 0;
#N canvas 536 675 936 345 pdp_ocnv_default_settings 0;
#X obj 32 32 loadbang;
#X obj 142 63 bng 15 250 50 0 empty empty empty 17 7 0 10 -262144 -1
-1;
#X text 198 51 load play_pdp_defaults;
#X obj 116 34 r \$1pdp_ocnv_defaults;
#X text 364 134 Dimensions;
#X obj 336 181 s \$1pdp_ocnv_dim_init;
#X text 489 130 position X;
#X text 612 130 position y;
#X obj 458 168 s \$1pdp_ocnv_posx_init;
#X obj 578 171 s \$1pdp_ocnv_posy_init;
#X obj 60 315 symbol \$1;
#X symbolatom 60 344 0 0 0 0 - - -;
#X obj 60 279 bng 15 250 50 0 empty empty empty 0 -6 0 8 -262144 -1
-1;
#X symbolatom 157 344 0 0 0 0 - - -;
#X obj 157 315 symbol \$2;
#X obj 254 342 s \$1pdp_ocnv_id;
#X msg 33 137 0;
#X obj 30 208 s \$1pdp_ocnv_input_init;
#X msg 335 134 0;
#X msg 198 134 1;
#X obj 167 183 s \$1pdp_ocnv_mouse_on_init;
#X msg 458 128 0;
#X msg 578 131 0;
#X connect 0 0 1 0;
#X connect 0 0 12 0;
#X connect 1 0 16 0;
#X connect 1 0 18 0;
#X connect 1 0 21 0;
#X connect 1 0 22 0;
#X connect 1 0 19 0;
#X connect 3 0 1 0;
#X connect 10 0 11 0;
#X connect 11 0 15 0;
#X connect 12 0 10 0;
#X connect 12 0 14 0;
#X connect 14 0 13 0;
#X connect 16 0 17 0;
#X connect 18 0 5 0;
#X connect 19 0 20 0;
#X connect 21 0 8 0;
#X connect 22 0 9 0;
#X restore 37 258 pd pdp_ocnv_default_settings;
#X obj 122 96 hsl 90 15 0 800 0 0 \$1pdp_ocnv_dimx_init \$1pdp_ocnv_dimx_init2
dim 3 8 0 8 -66577 -260097 -260097 3560 1;
#X obj 128 113 nbx 4 15 0 1080 0 0 \$1pdp_ocnv_dimx \$1pdp_ocnv_dimx_init
empty 8 -6 0 8 -33289 -260097 -260097 320 256;
#X obj 42 228 hsl 50 15 0 1080 0 0 \$1pdp_ocnv_dimy \$1pdp_ocnv_dimy_init
dimY 3 8 0 8 -66577 -260097 -260097 0 1;
#X obj 173 114 nbx 4 15 0 1080 0 0 empty \$1pdp_ocnv_dimy2 empty 8
-6 0 8 -33289 -260097 -260097 240 256;
#X obj 16 126 hsl 50 15 -500 800 0 0 \$1pdp_ocnv_posx_init \$1pdp_ocnv_posx_init2
posX 3 8 0 8 -66577 -260097 -260097 1885 1;
#X obj 68 126 nbx 4 15 -1000 1000 0 0 \$1pdp_ocnv_posx \$1pdp_ocnv_posx_init
empty 8 -6 0 8 -33289 -260097 -260097 0.102041 256;
#X obj 16 142 hsl 50 15 -500 800 0 0 \$1pdp_ocnv_posy_init \$1pdp_ocnv_posy_init2
posY 3 8 0 8 -66577 -260097 -260097 1885 1;
#X obj 69 142 nbx 4 15 -1000 1080 0 0 \$1pdp_ocnv_posy \$1pdp_ocnv_posy_init
empty 8 -6 0 8 -33289 -260097 -260097 0.102041 256;
#X obj 456 235 outlet;
#X obj 500 238 cnv 15 40 15 empty empty V_OUT 0 8 0 9 -258113 -262144
0;
#N canvas 728 304 971 836 pdp_ocanvas_core 0;
#X floatatom -185 77 5 0 0 0 - - -;
#X floatatom -150 75 5 0 0 0 - - -;
#X text -182 60 X;
#X text -135 55 Y;
#X msg -67 397 average \$1;
#X obj -68 372 tgl 15 0 empty empty empty 0 -6 0 8 -262144 -1 -1 0
1;
#X text -69 420 Average sources at intersections;
#X text -69 432 ( default = 0 );
#X floatatom -184 190 5 0 0 0 - - -;
#X text -183 236 Alpha [0.0-1.0];
#X obj -184 213 / 100;
#X obj 245 -28 inlet;
#X obj 410 -46 cnv 15 35 15 empty empty V_IN5 0 8 0 9 -4034 -1 0;
#X obj 287 -25 inlet;
#X obj 329 -26 inlet;
#X obj 371 -25 inlet;
#X obj 413 -25 inlet;
#X obj 547 -19 inlet;
#X obj 242 -46 cnv 15 35 15 empty empty V_IN1 0 8 0 9 -4034 -1 0;
#X obj 288 -47 cnv 15 35 15 empty empty V_IN2 0 8 0 9 -4034 -1 0;
#X obj 328 -45 cnv 15 35 15 empty empty V_IN3 0 8 0 9 -4034 -1 0;
#X obj 370 -46 cnv 15 35 15 empty empty V_IN4 0 8 0 9 -4034 -1 0;
#X obj 549 -40 cnv 15 35 15 empty empty P_out 0 8 0 9 -4034 -1 0;
#X msg 547 418 select \$1 \$2;
#X msg 594 396 drag \$1 \$2;
#X msg 641 375 unselect;
#X obj 547 351 route press drag release;
#X obj 226 613 outlet;
#X obj 226 510 pdp_ocanvas 640 480 5;
#X obj 126 -38 r \$1pdp_ocnv_input;
#X floatatom 126 15 5 0 0 0 - - -;
#X obj 126 -12 + 1;
#N canvas 443 332 1273 479 offset 0;
#X floatatom 50 148 5 0 0 0 - - -;
#X floatatom 114 146 5 0 0 0 - - -;
#X obj 141 179 t b f;
#X text 39 146 X;
#X text 96 143 Y;
#X msg 78 204 offset 1 \$1 \$2;
#X obj 78 180 pack f f;
#X floatatom 262 144 5 0 0 0 - - -;
#X floatatom 313 145 5 0 0 0 - - -;
#X obj 357 181 t b f;
#X text 243 143 X;
#X text 296 142 Y;
#X obj 294 182 pack f f;
#X msg 294 206 offset 2 \$1 \$2;
#X floatatom 509 151 5 0 0 0 - - -;
#X floatatom 573 149 5 0 0 0 - - -;
#X obj 593 181 t b f;
#X text 493 148 X;
#X text 555 146 Y;
#X obj 530 182 pack f f;
#X floatatom 721 155 5 0 0 0 - - -;
#X floatatom 785 153 5 0 0 0 - - -;
#X obj 810 180 t b f;
#X text 705 152 X;
#X text 767 150 Y;
#X obj 747 181 pack f f;
#X msg 530 206 offset 3 \$1 \$2;
#X msg 747 205 offset 4 \$1 \$2;
#X floatatom 982 149 5 0 0 0 - - -;
#X floatatom 1046 147 5 0 0 0 - - -;
#X obj 1071 176 t b f;
#X text 966 146 X;
#X text 1028 144 Y;
#X obj 1008 177 pack f f;
#X msg 1008 201 offset 5 \$1 \$2;
#X obj 377 -32 inlet;
#X obj 544 -30 inlet;
#X obj 605 -29 inlet;
#X text 417 -31 video select;
#X text 552 -53 X;
#X text 618 -54 Y;
#X obj 724 394 outlet;
#X obj 535 35 gate 5;
#X obj 647 35 gate 5;
#X obj -8 182 float;
#X floatatom -9 201 5 0 0 0 - - -;
#X obj 372 34 select 1 2 3 4 5;
#X obj 33 183 float;
#X floatatom 32 202 5 0 0 0 - - -;
#X obj 317 391 s \$1pdp_ocnv_posx_init2;
#X obj 467 392 s \$1pdp_ocnv_posy_init2;
#X obj 210 186 float;
#X floatatom 209 205 5 0 0 0 - - -;
#X obj 251 187 float;
#X floatatom 250 206 5 0 0 0 - - -;
#X obj 4 148 bng 15 250 50 0 empty empty empty 17 7 0 10 -262144 -1
-1;
#X obj 213 146 bng 15 250 50 0 empty empty empty 17 7 0 10 -262144
-1 -1;
#X obj 442 187 float;
#X floatatom 441 206 5 0 0 0 - - -;
#X obj 483 188 float;
#X floatatom 482 207 5 0 0 0 - - -;
#X obj 454 153 bng 15 250 50 0 empty empty empty 17 7 0 10 -262144
-1 -1;
#X obj 668 184 float;
#X floatatom 667 203 5 0 0 0 - - -;
#X obj 709 185 float;
#X floatatom 708 204 5 0 0 0 - - -;
#X obj 682 156 bng 15 250 50 0 empty empty empty 17 7 0 10 -262144
-1 -1;
#X obj 923 181 float;
#X floatatom 922 200 5 0 0 0 - - -;
#X obj 964 182 float;
#X floatatom 963 201 5 0 0 0 - - -;
#X obj 931 155 bng 15 250 50 0 empty empty empty 17 7 0 10 -262144
-1 -1;
#X obj 122 7 bng 15 250 50 0 empty empty empty 17 7 0 10 -262144 -1
-1;
#X obj 61 -19 r \$1pdp_ocnv_defaults;
#X msg 247 18 0;
#X connect 0 0 6 0;
#X connect 0 0 44 1;
#X connect 1 0 2 0;
#X connect 1 0 47 1;
#X connect 2 0 6 0;
#X connect 2 1 6 1;
#X connect 5 0 41 0;
#X connect 6 0 5 0;
#X connect 7 0 12 0;
#X connect 7 0 51 1;
#X connect 8 0 9 0;
#X connect 8 0 53 1;
#X connect 9 0 12 0;
#X connect 9 1 12 1;
#X connect 12 0 13 0;
#X connect 13 0 41 0;
#X connect 14 0 19 0;
#X connect 14 0 57 1;
#X connect 15 0 16 0;
#X connect 15 0 59 1;
#X connect 16 0 19 0;
#X connect 16 1 19 1;
#X connect 19 0 26 0;
#X connect 20 0 25 0;
#X connect 20 0 62 1;
#X connect 21 0 22 0;
#X connect 21 0 64 1;
#X connect 22 0 25 0;
#X connect 22 1 25 1;
#X connect 25 0 27 0;
#X connect 26 0 41 0;
#X connect 27 0 41 0;
#X connect 28 0 33 0;
#X connect 28 0 67 1;
#X connect 29 0 30 0;
#X connect 29 0 69 1;
#X connect 30 0 33 0;
#X connect 30 1 33 1;
#X connect 33 0 34 0;
#X connect 34 0 41 0;
#X connect 35 0 42 0;
#X connect 35 0 43 0;
#X connect 35 0 46 0;
#X connect 36 0 42 1;
#X connect 37 0 43 1;
#X connect 42 0 0 0;
#X connect 42 1 7 0;
#X connect 42 2 14 0;
#X connect 42 3 20 0;
#X connect 42 4 28 0;
#X connect 43 0 1 0;
#X connect 43 1 8 0;
#X connect 43 2 15 0;
#X connect 43 3 21 0;
#X connect 43 4 29 0;
#X connect 44 0 45 0;
#X connect 45 0 49 0;
#X connect 46 0 55 0;
#X connect 46 1 56 0;
#X connect 46 2 61 0;
#X connect 46 3 66 0;
#X connect 46 4 71 0;
#X connect 47 0 48 0;
#X connect 48 0 50 0;
#X connect 51 0 52 0;
#X connect 52 0 49 0;
#X connect 53 0 54 0;
#X connect 54 0 50 0;
#X connect 55 0 47 0;
#X connect 55 0 44 0;
#X connect 56 0 53 0;
#X connect 56 0 51 0;
#X connect 57 0 58 0;
#X connect 58 0 49 0;
#X connect 59 0 60 0;
#X connect 60 0 50 0;
#X connect 61 0 59 0;
#X connect 61 0 57 0;
#X connect 62 0 63 0;
#X connect 63 0 49 0;
#X connect 64 0 65 0;
#X connect 65 0 50 0;
#X connect 66 0 64 0;
#X connect 66 0 62 0;
#X connect 67 0 68 0;
#X connect 68 0 49 0;
#X connect 69 0 70 0;
#X connect 70 0 50 0;
#X connect 71 0 69 0;
#X connect 71 0 67 0;
#X connect 72 0 74 0;
#X connect 73 0 72 0;
#X connect 74 0 7 0;
#X connect 74 0 0 0;
#X connect 74 0 1 0;
#X connect 74 0 8 0;
#X connect 74 0 14 0;
#X connect 74 0 15 0;
#X connect 74 0 20 0;
#X connect 74 0 21 0;
#X connect 74 0 28 0;
#X connect 74 0 29 0;
#X restore -25 131 pd offset;
#X obj -212 579 loadbang;
#X msg -211 605 offset 2 320 0;
#X msg -212 629 offset 3 256 240;
#X obj -185 10 r \$1pdp_ocnv_posx;
#X obj -150 34 r \$1pdp_ocnv_posy;
#X obj 126 59 s \$1pdp_ocnv_input2;
#X obj -209 155 r \$1pdp_ocnv_alpha;
#X floatatom -183 255 5 0 0 0 - - -;
#X obj -183 273 s \$1pdp_ocnv_alpha2;
#N canvas 779 390 785 386 alpha 0;
#X floatatom 19 149 5 0 0 0 - - -;
#X floatatom 150 148 5 0 0 0 - - -;
#X floatatom 267 149 5 0 0 0 - - -;
#X floatatom 435 149 5 0 0 0 - - -;
#X floatatom 570 149 5 0 0 0 - - -;
#X obj -24 21 inlet;
#X obj 143 23 inlet;
#X text 16 22 video select;
#X obj 28 266 outlet;
#X obj 98 74 gate 5;
#X msg 35 185 alpha 1 \$1;
#X msg 176 179 alpha 2 \$1;
#X msg 291 183 alpha 3 \$1;
#X msg 436 179 alpha 4 \$1;
#X msg 568 179 alpha 5 \$1;
#X floatatom 5 203 5 0 0 0 - - -;
#X floatatom 148 199 5 0 0 0 - - -;
#X floatatom 254 201 5 0 0 0 - - -;
#X floatatom 408 200 5 0 0 0 - - -;
#X floatatom 537 202 5 0 0 0 - - -;
#X obj -16 75 select 1 2 3 4 5;
#X obj -6 182 float;
#X obj 137 181 float;
#X obj 254 182 float;
#X obj 394 179 float;
#X obj 527 179 float;
#X obj 332 314 s \$1pdp_ocnv_alpha_init;
#X obj 329 287 * 100;
#X connect 0 0 10 0;
#X connect 0 0 21 1;
#X connect 1 0 11 0;
#X connect 1 0 22 1;
#X connect 2 0 12 0;
#X connect 2 0 23 1;
#X connect 3 0 13 0;
#X connect 3 0 24 1;
#X connect 4 0 14 0;
#X connect 4 0 25 1;
#X connect 5 0 9 0;
#X connect 5 0 20 0;
#X connect 6 0 9 1;
#X connect 9 0 0 0;
#X connect 9 1 1 0;
#X connect 9 2 2 0;
#X connect 9 3 3 0;
#X connect 9 4 4 0;
#X connect 10 0 8 0;
#X connect 11 0 8 0;
#X connect 12 0 8 0;
#X connect 13 0 8 0;
#X connect 14 0 8 0;
#X connect 15 0 27 0;
#X connect 16 0 27 0;
#X connect 17 0 27 0;
#X connect 18 0 27 0;
#X connect 19 0 27 0;
#X connect 20 0 21 0;
#X connect 20 1 22 0;
#X connect 20 2 23 0;
#X connect 20 3 24 0;
#X connect 20 4 25 0;
#X connect 21 0 15 0;
#X connect 22 0 16 0;
#X connect 23 0 17 0;
#X connect 24 0 18 0;
#X connect 25 0 19 0;
#X connect 27 0 26 0;
#X restore -21 238 pd alpha;
#X obj -132 335 r \$1pdp_ocnv_average;
#N canvas 597 349 655 519 dimensions 0;
#X obj 114 12 inlet;
#X obj 172 12 inlet;
#X obj 229 13 inlet;
#X text 111 -12 source;
#X text 172 -13 dimx;
#X text 229 -14 dimy;
#X obj 329 16 inlet;
#X obj 382 18 inlet;
#X obj 449 18 inlet;
#X obj 516 18 inlet;
#X obj 565 16 inlet;
#X obj 243 172 pdp_scale 320 240;
#X obj 299 202 pdp_scale 320 240;
#X obj 376 230 pdp_scale 320 240;
#X obj 448 265 pdp_scale 320 240;
#X obj 502 300 pdp_scale 320 240;
#X floatatom 223 41 5 0 0 0 - - -;
#X floatatom 279 39 5 0 0 0 - - -;
#X obj 282 65 t b f;
#X obj 219 66 pack f f;
#X msg 219 90 dim \$1 \$2;
#X obj 160 149 gate 5;
#X obj 267 347 outlet;
#X obj 332 346 outlet;
#X obj 392 345 outlet;
#X obj 457 346 outlet;
#X obj 518 347 outlet;
#X obj 126 185 gate 5;
#X floatatom 21 306 5 0 0 0 - - -;
#X obj 21 287 int;
#X floatatom 59 306 5 0 0 0 - - -;
#X obj 59 287 int;
#X floatatom 97 306 5 0 0 0 - - -;
#X obj 97 287 int;
#X floatatom 134 305 5 0 0 0 - - -;
#X obj 134 286 int;
#X floatatom 171 307 5 0 0 0 - - -;
#X obj 171 288 int;
#X obj 22 186 select 1 2 3 4 5;
#X obj 61 344 s \$1pdp_ocnv_dimx_init2;
#X obj -7 141 bng 15 250 50 0 empty empty empty 17 7 0 10 -262144 -1
-1;
#X obj -6 76 r \$1pdp_ocnv_defaults;
#X msg -11 186 320;
#X connect 0 0 21 0;
#X connect 0 0 27 0;
#X connect 0 0 38 0;
#X connect 1 0 16 0;
#X connect 2 0 17 0;
#X connect 6 0 11 0;
#X connect 7 0 12 0;
#X connect 8 0 13 0;
#X connect 9 0 14 0;
#X connect 10 0 15 0;
#X connect 11 0 22 0;
#X connect 12 0 23 0;
#X connect 13 0 24 0;
#X connect 14 0 25 0;
#X connect 15 0 26 0;
#X connect 16 0 19 0;
#X connect 16 0 27 1;
#X connect 17 0 18 0;
#X connect 18 0 19 0;
#X connect 18 1 19 1;
#X connect 19 0 20 0;
#X connect 20 0 21 1;
#X connect 21 0 11 0;
#X connect 21 1 12 0;
#X connect 21 2 13 0;
#X connect 21 3 14 0;
#X connect 21 4 15 0;
#X connect 27 0 29 1;
#X connect 27 1 31 1;
#X connect 27 2 33 1;
#X connect 27 3 35 1;
#X connect 27 4 37 1;
#X connect 28 0 39 0;
#X connect 29 0 28 0;
#X connect 30 0 39 0;
#X connect 31 0 30 0;
#X connect 32 0 39 0;
#X connect 33 0 32 0;
#X connect 34 0 39 0;
#X connect 35 0 34 0;
#X connect 36 0 39 0;
#X connect 37 0 36 0;
#X connect 38 0 29 0;
#X connect 38 1 31 0;
#X connect 38 2 33 0;
#X connect 38 3 35 0;
#X connect 38 4 37 0;
#X connect 40 0 42 0;
#X connect 41 0 40 0;
#X connect 42 0 29 1;
#X connect 42 0 31 1;
#X connect 42 0 33 1;
#X connect 42 0 35 1;
#X connect 42 0 37 1;
#X restore 281 164 pd dimensions;
#X obj -70 555 r \$1pdp_ocnv_dim;
#X obj -70 578 select 0 1;
#X msg -41 599 640;
#X obj 111 110 r \$1pdp_ocnv_dimy2;
#X obj 111 129 r \$1pdp_ocnv_dimx2;
#X obj 39 554 r \$1pdp_ocnv_dimx;
#X floatatom -10 677 5 0 0 0 - - -;
#X obj 34 679 / 4;
#X floatatom 35 730 5 0 0 0 - - -;
#X obj 34 704 * 3;
#X obj -8 647 int;
#X obj 34 759 s \$1pdp_ocnv_dimy2;
#X obj -90 741 s \$1pdp_ocnv_dimx2;
#X msg -70 597 320;
#X connect 0 0 32 1;
#X connect 1 0 32 2;
#X connect 4 0 28 0;
#X connect 5 0 4 0;
#X connect 8 0 10 0;
#X connect 10 0 40 0;
#X connect 10 0 42 1;
#X connect 11 0 44 3;
#X connect 13 0 44 4;
#X connect 14 0 44 5;
#X connect 15 0 44 6;
#X connect 16 0 44 7;
#X connect 17 0 26 0;
#X connect 23 0 28 0;
#X connect 24 0 28 0;
#X connect 25 0 28 0;
#X connect 26 0 23 0;
#X connect 26 1 24 0;
#X connect 26 2 25 0;
#X connect 28 0 27 0;
#X connect 29 0 31 0;
#X connect 30 0 32 0;
#X connect 30 0 38 0;
#X connect 30 0 42 0;
#X connect 30 0 44 0;
#X connect 31 0 30 0;
#X connect 32 0 28 0;
#X connect 33 0 34 0;
#X connect 33 0 35 0;
#X connect 36 0 0 0;
#X connect 37 0 1 0;
#X connect 39 0 8 0;
#X connect 40 0 41 0;
#X connect 42 0 28 0;
#X connect 43 0 5 0;
#X connect 44 0 28 1;
#X connect 44 1 28 2;
#X connect 44 2 28 3;
#X connect 44 3 28 4;
#X connect 44 4 28 5;
#X connect 45 0 46 0;
#X connect 46 0 58 0;
#X connect 46 1 47 0;
#X connect 47 0 55 0;
#X connect 48 0 44 2;
#X connect 49 0 44 1;
#X connect 50 0 55 0;
#X connect 51 0 57 0;
#X connect 52 0 54 0;
#X connect 53 0 56 0;
#X connect 54 0 53 0;
#X connect 55 0 51 0;
#X connect 55 0 52 0;
#X connect 58 0 55 0;
#X restore 459 156 pd pdp_ocanvas_core;
#X obj 39 1 cnv 15 35 15 empty empty V_IN2 0 8 0 9 -4034 -1 0;
#X obj 77 1 cnv 15 35 15 empty empty V_IN3 0 8 0 9 -4034 -1 0;
#X obj 117 0 cnv 15 35 15 empty empty V_IN4 0 8 0 9 -4034 -1 0;
#X obj 656 5 cnv 15 35 15 empty empty V_IN5 0 8 0 9 -4034 -1 0;
#X obj 194 1 cnv 15 35 15 empty empty P_out 0 8 0 9 -4034 -1 0;
#X obj 484 27 inlet;
#X obj 542 28 inlet;
#X obj 602 28 inlet;
#X obj 658 28 inlet;
#X obj 720 30 inlet;
#X obj 433 6 cnv 15 35 15 empty empty V_IN1 0 8 0 9 -4034 -1 0;
#X obj 482 6 cnv 15 35 15 empty empty V_IN2 0 8 0 9 -4034 -1 0;
#X obj 529 6 cnv 15 35 15 empty empty V_IN3 0 8 0 9 -4034 -1 0;
#X obj 601 6 cnv 15 35 15 empty empty V_IN4 0 8 0 9 -4034 -1 0;
#X obj 735 8 cnv 15 35 15 empty empty P_out 0 8 0 9 -4034 -1 0;
#X obj 156 1 cnv 15 35 15 empty empty V_IN5 0 8 0 9 -4034 -1 0;
#X obj 1 174 cnv 15 40 15 empty empty V_OUT 0 8 0 9 -258113 -262144
0;
#X obj 12 41 cnv 15 100 60 empty empty VideoSource 2 12 0 10 -128992
-228856 0;
#X obj 16 62 hradio 15 1 0 5 \$1pdp_ocnv_input \$1pdp_ocnv_input_init
empty 0 -8 0 10 -260097 -1 -1 0;
#X obj 18 82 nbx 1 15 0 1080 0 0 empty \$1pdp_ocnv_input2 empty 8 -6
0 11 -260097 -33289 -33289 1 256;
#X obj 116 136 cnv 15 100 30 empty empty Alpha 2 8 0 10 -128992 -228856
0;
#X obj 120 151 hsl 50 12 0 100 0 0 \$1pdp_ocnv_alpha \$1pdp_ocnv_alpha_init
alpha 3 6 0 8 -66577 -260097 -260097 4900 1;
#X obj 175 145 nbx 4 15 0 1080 0 0 empty \$1pdp_ocnv_alpha2 empty 8
-6 0 8 -33289 -260097 -260097 1 256;
#X obj 120 174 tgl 15 0 \$1pdp_ocnv_average \$1pdp_ocnv_average_init
Average 17 7 0 10 -260097 -1 -228856 0 1;
#X obj 146 23 bng 15 250 50 0 \$1pdp_ocnv_defaults empty reset 17 7
0 8 -257985 -1 -228856;
#X obj 52 174 tgl 15 0 \$1pdp_ocnv_mouse_on \$1pdp_ocnv_mouse_on_init
mouse 17 7 0 10 -260097 -1 -228856 1 1;
#X obj 632 125 spigot;
#X obj 730 101 r \$1pdp_ocnv_mouse_on;
#X obj 696 106 tgl 15 0 empty empty empty 17 7 0 10 -262144 -1 -1 1
1;
#X connect 6 0 20 0;
#X connect 20 0 18 0;
#X connect 26 0 20 1;
#X connect 27 0 20 2;
#X connect 28 0 20 3;
#X connect 29 0 20 4;
#X connect 30 0 47 0;
#X connect 47 0 20 5;
#X connect 48 0 49 0;
#X connect 49 0 47 1;
#X coords 0 -1 1 1 230 190 1 0 0;
