#N canvas 683 333 915 531 10;
#X obj 34 172 symbol \$1;
#X obj 136 230 ftos;
#X obj 105 164 float \$1;
#X floatatom 105 193 5 0 0 0 - - -;
#X symbolatom 35 205 0 0 0 0 - - -;
#X symbolatom 95 243 10 0 0 0 - - -;
#X obj 44 126 loadbang;
#X obj 97 280 s \$1pdp_ocv_athreshold_id;
#X obj 251 50 inlet;
#X text 309 50 video;
#X text 478 32 on/off;
#X obj 285 475 outlet;
#X obj 284 102 pdp_spigot;
#X text 329 473 video;
#X obj 413 9 tgl 15 0 empty empty empty 17 7 0 10 -262144 -1 -1 0 1
;
#X obj 446 12 r \$1pdp_ocv_athreshold_on;
#X obj 0 0 cnv 15 150 75 empty empty empty 2 12 0 14 -191407 -66577
0;
#X obj 6 4 tgl 15 0 \$1pdp_ocv_athreshold_on \$1pdp_ocv_athreshold_on_init
athreshold 17 7 0 8 -260097 -1 -1 0 1;
#X obj 87 4 cnv 15 20 10 empty \$1pdp_ocv_athreshold_id \$1 5 5 0 10
-260097 -33289 0;
#X obj 109 2 bng 15 250 50 0 \$1pdp_ocv_athreshold_midi_on empty midi
17 7 0 8 -4160 -1 -1;
#N canvas 730 138 1081 564 midi_control 0;
#X msg 77 175 pdp_ocv_athreshold_on_midi;
#X text 27 19 MIDI;
#X obj 11 148 bng 15 250 50 0 empty empty empty 17 7 0 10 -262144 -1
-1;
#X obj 134 196 bng 15 250 50 0 empty empty empty 17 7 0 10 -262144
-1 -1;
#X obj 261 196 bng 15 250 50 0 empty empty empty 17 7 0 10 -262144
-1 -1;
#X floatatom 32 368 5 0 0 0 - - -;
#X obj 30 413 select 0;
#X msg 143 472 0;
#X msg 62 471 1;
#X obj 414 279 s midi_var_to_add;
#X msg 77 141 set \$1pdp_ocv_athreshold_on_midi;
#X obj 29 338 r \$1pdp_ocv_athreshold_on_midi;
#X obj 10 496 s \$1pdp_ocv_athreshold_on_init;
#X obj 33 54 r \$1pdp_ocv_athreshold_midi_on;
#X text 531 278 -->global value of mb-midi_control_pad;
#X obj 446 44 r \$1pdp_ocv_athreshold_id;
#X floatatom 113 384 1 0 0 0 - - -;
#X obj 85 444 alternate;
#X floatatom 531 396 5 0 0 0 - - -;
#X floatatom 557 465 8 0 0 0 - - -;
#X obj 612 399 hsl 128 15 0 127 0 0 empty empty empty -2 -8 0 10 -262144
-1 -1 0 1;
#X msg 277 170 pdp_ocv_athreshold_mode_midi;
#X msg 490 138 set \$1pdp_ocv_athreshold_threshold_midi;
#X msg 490 169 pdp_ocv_athreshold_threshold_midi;
#X obj 508 341 r \$1pdp_ocv_athreshold_threshold_midi;
#X obj 489 499 s \$1pdp_ocv_athreshold_threshold_init;
#X obj 626 436 autoscale 0 300;
#X msg 277 139 set \$1pdp_ocv_athreshold_mode_midi;
#X obj 228 337 r \$1pdp_ocv_athreshold_mode_midi;
#X obj 231 497 s \$1pdp_ocv_athreshold_mode_init;
#X floatatom 252 386 5 0 0 0 - - -;
#X floatatom 278 455 8 0 0 0 - - -;
#X obj 333 389 hsl 128 15 0 127 0 0 empty empty empty -2 -8 0 10 -262144
-1 -1 0 1;
#X obj 348 425 autoscale 0 4;
#X connect 0 0 3 0;
#X connect 0 0 9 0;
#X connect 2 0 0 0;
#X connect 3 0 21 0;
#X connect 4 0 23 0;
#X connect 5 0 6 0;
#X connect 6 1 17 0;
#X connect 7 0 12 0;
#X connect 8 0 12 0;
#X connect 10 0 0 0;
#X connect 11 0 5 0;
#X connect 11 0 16 0;
#X connect 13 0 2 0;
#X connect 15 0 10 0;
#X connect 15 0 27 0;
#X connect 15 0 22 0;
#X connect 17 0 8 0;
#X connect 17 1 7 0;
#X connect 18 0 20 0;
#X connect 19 0 25 0;
#X connect 20 0 26 0;
#X connect 21 0 4 0;
#X connect 21 0 9 0;
#X connect 22 0 23 0;
#X connect 23 0 9 0;
#X connect 24 0 18 0;
#X connect 26 0 19 0;
#X connect 27 0 21 0;
#X connect 28 0 30 0;
#X connect 30 0 32 0;
#X connect 31 0 29 0;
#X connect 32 0 33 0;
#X connect 33 0 31 0;
#X restore 172 16 pd midi_control;
#X obj 78 36 knob 32 32 0 260 0 0 \$1pdp_ocv_athreshold_threshold \$1pdp_ocv_athreshold_threshold_init
Threshold -7 -8 192 8 -99865 -260097 -1 0 1;
#X obj 116 57 nbx 3 14 -1e+37 1e+37 0 0 empty \$1pdp_ocv_athreshold_threshold
empty 0 -8 0 8 -66577 -260097 -260097 0 256;
#X obj 703 368 r \$1pdp_ocv_athreshold_threshold;
#X floatatom 685 426 5 0 0 0 - - -;
#X floatatom 625 118 5 0 0 0 - - -;
#X text 659 107 Max value used in some modes;
#X text 716 426 threshold value;
#X text 700 443 ( default 50 );
#X obj 719 397 int;
#X obj 6 37 hradio 12 1 0 2 \$1pdp_ocv_athreshold_mode \$1pdp_ocv_athreshold_mode_init
mode 0 -8 0 8 -260097 -1 -1 0;
#X obj 421 118 r \$1pdp_ocv_athreshold_mode;
#X obj 6 55 nbx 3 14 -1e+37 1e+37 0 0 \$1pdp_ocv_athreshold_max \$1pdp_ocv_athreshold_max_init
max 34 8 0 8 -66577 -260097 -260097 -8 256;
#X obj 620 90 r \$1pdp_ocv_athreshold_max;
#X obj 449 433 pdp_opencv_athreshold;
#X obj 422 150 select 0 1;
#X msg 417 246 mode \$1;
#X msg 416 201 0;
#X msg 449 223 1;
#X text 468 246 thresholding mode ( default 0 );
#X text 441 197 CV_THRESH_BINARY : pixel >= threshold;
#X text 472 224 CV_THRESH_BINARY_INV :pixel <= threshold;
#X obj 36 37 hradio 12 1 0 2 \$1pdp_ocv_athreshold_method \$1pdp_ocv_athreshold_method_init
meth 0 -8 0 8 -260097 -1 -1 0;
#X obj 740 174 select 0 1;
#X obj 739 142 r \$1pdp_ocv_athreshold_method;
#X msg 744 220 0;
#X msg 776 235 1;
#X msg 711 257 method \$1;
#X text 775 256 thresholding method ( default 0 );
#X text 776 218 CV_ADAPTIVE_THRESH_MEAN_C : mean value;
#X text 808 235 CV_ADAPTIVE_THRESH_GAUSSIAN_C : gaussian mask;
#X msg 711 320 dim \$1;
#X floatatom 762 323 5 0 0 0 - - -;
#X text 802 321 value to correct the theshold;
#X connect 0 0 4 0;
#X connect 1 0 5 0;
#X connect 2 0 3 0;
#X connect 3 0 1 0;
#X connect 4 0 5 0;
#X connect 5 0 7 0;
#X connect 6 0 2 0;
#X connect 6 0 0 0;
#X connect 8 0 12 0;
#X connect 12 0 11 0;
#X connect 12 1 34 0;
#X connect 14 0 12 1;
#X connect 15 0 14 0;
#X connect 23 0 29 0;
#X connect 24 0 34 2;
#X connect 25 0 34 1;
#X connect 29 0 24 0;
#X connect 31 0 35 0;
#X connect 33 0 25 0;
#X connect 34 0 11 0;
#X connect 35 0 37 0;
#X connect 35 1 38 0;
#X connect 36 0 34 0;
#X connect 37 0 36 0;
#X connect 38 0 36 0;
#X connect 43 0 45 0;
#X connect 43 1 46 0;
#X connect 44 0 43 0;
#X connect 45 0 47 0;
#X connect 46 0 47 0;
#X connect 47 0 34 0;
#X connect 51 0 34 0;
#X connect 52 0 51 0;
#X coords 0 -1 1 1 150 75 1 0 0;
