#N canvas 4 67 1912 1074 10;
#X floatatom 441 854 5 0 0 0 - - -;
#X text 433 832 Select the plugin;
#X symbolatom 991 985 20 0 0 0 - - -;
#X text 1144 985 <-- plugin name;
#X floatatom 1010 963 5 0 0 0 - - -;
#X text 1058 961 <-- number of parameters;
#X text 1109 935 <-- parameter name;
#X text 1136 907 <-- parameter type;
#N canvas 16 120 996 665 pname 0;
#X obj 51 119 l2s;
#X obj 80 119 l2s;
#X obj 111 119 l2s;
#X obj 143 119 l2s;
#X obj 207 120 l2s;
#X obj 236 120 l2s;
#X obj 267 120 l2s;
#X obj 298 119 l2s;
#X obj 327 119 l2s;
#X obj 97 51 inlet;
#X obj 51 154 s \$1ffparam0;
#X obj 79 178 s \$1ffparam1;
#X obj 118 205 s \$1ffparam2;
#X obj 148 227 s \$1ffparam3;
#X obj 185 157 s \$1ffparam4;
#X obj 213 181 s \$1ffparam5;
#X obj 255 206 s \$1ffparam6;
#X obj 283 230 s \$1ffparam7;
#X obj 305 155 s \$1ffparam8;
#X obj 391 53 inlet;
#X msg 390 79 symbol;
#X obj 359 118 l2s;
#X obj 391 118 l2s;
#X obj 97 79 route 0 1 2 3 4 5 6 7 8 9 10;
#X obj 357 178 s \$1ffparam9;
#X obj 414 202 s \$1ffparam10;
#X connect 0 0 10 0;
#X connect 1 0 11 0;
#X connect 2 0 12 0;
#X connect 3 0 13 0;
#X connect 4 0 14 0;
#X connect 5 0 15 0;
#X connect 6 0 16 0;
#X connect 7 0 17 0;
#X connect 8 0 18 0;
#X connect 9 0 23 0;
#X connect 19 0 20 0;
#X connect 20 0 10 0;
#X connect 20 0 11 0;
#X connect 20 0 12 0;
#X connect 20 0 13 0;
#X connect 20 0 14 0;
#X connect 20 0 15 0;
#X connect 20 0 16 0;
#X connect 20 0 17 0;
#X connect 20 0 18 0;
#X connect 20 0 24 0;
#X connect 20 0 25 0;
#X connect 21 0 24 0;
#X connect 22 0 25 0;
#X connect 23 0 0 0;
#X connect 23 1 1 0;
#X connect 23 2 2 0;
#X connect 23 3 3 0;
#X connect 23 4 4 0;
#X connect 23 5 5 0;
#X connect 23 6 6 0;
#X connect 23 7 7 0;
#X connect 23 8 8 0;
#X connect 23 9 21 0;
#X connect 23 10 22 0;
#X restore 1041 935 pd pname;
#X symbolatom 44 171 18 0 0 0 - #1ffparam0 -;
#X text 1271 897 freeframe host for Pure Data Packet version 0.1;
#X text 1273 912 by Lluis Gomez i Bigorda (lluis@artefacte.org);
#X text 1292 925 & Yves Degoyon (ydegoyon@free.fr);
#X text 1273 968 made at piksel yearly gathering : http://www.piksel.no
;
#X obj 1059 907 print type;
#X text 1273 940 using freeframe specification 1.1 by Georg Seidel
\, Phillip Promesberger and Martin Bayer;
#X obj 986 190 pdp_scale 320 240;
#X obj 1401 718 tgl 15 0 empty empty empty 0 -6 0 8 -262144 -1 -1 0
1;
#X obj 1401 770 pdp_control;
#X msg 1401 743 thread \$1;
#X floatatom 1401 831 5 0 0 0 - - -;
#X obj 1401 802 route pdp_drop;
#X text 1280 1020 constructor : pdp_freeframe <index>;
#X text 1281 1035 you can get the index from the list of loaded plugins
;
#X text 1280 1048 at startup ( check pd window );
#X text 917 774 WARNING : sizes of inputs;
#X text 916 786 _must_ be the same;
#X msg 356 696 pluginsdir /home/musa/0zpd/FreeFrame1.0-05/plugins_binary
;
#X obj 0 0 cnv 15 400 360 empty empty PDP_freeframe_control 85 10 0
12 -99865 -262144 0;
#X obj 65 2 bng 15 250 50 0 empty \$1pdp_freeframe_monitor_in empty
17 7 0 10 -128992 -4034 -4034;
#X obj 0 341 cnv 15 58 18 empty empty VIDEO_OUT 0 10 0 8 -221249 -262144
0;
#X obj 59 343 bng 15 250 50 0 empty \$1pdp_freeframe_monitor_out empty
17 7 0 10 -128992 -258113 -258113;
#X obj 313 3 cnv 15 40 15 empty \$1pdp_freeframe_id \$1 10 10 0 10
-260097 -33289 0;
#N canvas 430 331 610 635 freeframe_default 0;
#X obj -37 181 symbol \$1;
#X obj -37 145 bng 15 250 50 0 empty empty click_here_to_see 0 -6 0
8 -262144 -1 -1;
#X symbolatom 236 235 0 0 0 0 - - -;
#X obj 236 206 symbol \$2;
#X obj 120 248 ftos;
#X obj 89 182 float \$1;
#X floatatom 106 215 5 0 0 0 - - -;
#X symbolatom -6 221 0 0 0 0 - - -;
#X symbolatom 99 321 10 0 0 0 - - -;
#X obj -40 22 loadbang;
#X obj 101 367 s \$1pdp_freeframe_id;
#X msg 417 156 0;
#X obj 345 279 s \$1pdp_freeframe_nplugins;
#X obj 365 232 s \$1pdp_freeframe_inputsize_init;
#X obj 250 56 bng 15 250 50 0 empty empty empty 17 7 0 10 -262144 -1
-1;
#X obj 282 85 s \$1pdp_freeframe_load_plugins;
#X connect 0 0 7 0;
#X connect 1 0 0 0;
#X connect 1 0 3 0;
#X connect 1 0 5 0;
#X connect 3 0 2 0;
#X connect 4 0 8 0;
#X connect 5 0 6 0;
#X connect 6 0 4 0;
#X connect 7 0 8 0;
#X connect 8 0 10 0;
#X connect 9 0 1 0;
#X connect 9 0 11 0;
#X connect 9 0 14 0;
#X connect 11 0 12 0;
#X connect 11 0 13 0;
#X connect 14 0 15 0;
#X restore 450 9 pd freeframe_default;
#X obj 0 1 cnv 15 65 18 empty empty VIDEO_IN_1 0 10 0 8 -4034 -1 0
;
#X obj 1048 25 cnv 15 65 20 empty empty VIDEO_IN_1 0 10 0 8 -4034 -1
0;
#X obj 990 32 inlet;
#X obj 353 629 r \$1pdp_freeframe_load_plugins;
#X obj 7 43 cnv 15 380 50 empty empty Plugins_dir 2 12 0 8 -128992
-228856 0;
#X obj 17 73 bng 15 250 50 0 \$1pdp_freeframe_load_plugins empty load_plugins
17 7 0 10 -260097 -1 -228856;
#X obj 99 49 hradio 18 1 0 16 empty \$0plugindir /home/musa/0zpd/FreeFrame1.0-05/plugins_binary
2 8 0 8 -1 -1 -262144 0;
#X obj 179 615 s \$0plugindir;
#X msg 185 584 label /home/musa/0zpd/FreeFrame1.0-05/plugins_binary
;
#X obj 264 473 bng 15 250 50 0 empty empty empty 17 7 0 10 -262144
-1 -1;
#X symbolatom 293 539 30 0 0 0 - - -;
#X msg 165 539 set label \$1;
#X obj 193 75 bng 15 250 50 0 \$1pdp_freeframe_chdir empty change_dir
17 7 0 8 -257985 -1 -228856;
#X obj 265 438 r \$1pdp_freeframe_chdir;
#X obj 950 860 pdp_freeframe;
#N canvas 48 296 1038 660 freeframe_num_of_plugins 0;
#X obj 389 176 bng 15 250 50 0 empty empty empty 17 7 0 10 -262144
-1 -1;
#X msg 328 119 bang;
#X msg 283 128 bang;
#X obj 283 172 timer;
#X floatatom 283 194 0 0 0 0 - - -;
#X floatatom 400 372 0 0 0 0 - - -;
#X msg 404 304 bang;
#X obj 400 347 + 1;
#X obj 343 348 float;
#X msg 335 295 0;
#X obj 145 88 bng 15 250 50 0 empty empty empty 17 7 0 10 -262144 -1
-1;
#X obj 297 328 bng 15 250 50 0 empty empty empty 17 7 0 10 -262144
-1 -1;
#X obj 283 218 < 100;
#X floatatom 285 246 0 0 0 0 - - -;
#X obj 359 220 spigot;
#X obj 353 263 bng 15 250 50 0 empty empty empty 17 7 0 10 -262144
-1 -1;
#X obj 415 256 delay 1;
#X obj 249 290 delay 1;
#X obj 106 41 inlet;
#X text 150 42 start counts;
#X obj 376 48 inlet;
#X text 419 47 next bang;
#X obj 532 53 inlet;
#X obj 373 481 outlet;
#X text 575 52 bucle delay;
#X obj 707 53 inlet;
#X text 756 53 delay betewn bangs;
#X floatatom 533 104 5 0 0 0 - - -;
#X floatatom 698 103 5 0 0 0 - - -;
#X obj 600 478 outlet;
#X text 653 462 1->is counting;
#X text 649 480 0->is inactive;
#X obj 413 428 - 1;
#X connect 0 0 3 1;
#X connect 0 0 14 0;
#X connect 1 0 3 1;
#X connect 2 0 3 0;
#X connect 3 0 4 0;
#X connect 4 0 12 0;
#X connect 5 0 32 0;
#X connect 6 0 8 0;
#X connect 7 0 5 0;
#X connect 7 0 8 1;
#X connect 8 0 7 0;
#X connect 9 0 8 1;
#X connect 10 0 9 0;
#X connect 10 0 3 0;
#X connect 10 0 17 0;
#X connect 11 0 8 0;
#X connect 12 0 13 0;
#X connect 13 0 14 1;
#X connect 13 0 29 0;
#X connect 14 0 15 0;
#X connect 15 0 16 0;
#X connect 16 0 8 0;
#X connect 16 0 3 0;
#X connect 17 0 11 0;
#X connect 18 0 10 0;
#X connect 20 0 0 0;
#X connect 22 0 27 0;
#X connect 25 0 28 0;
#X connect 27 0 16 1;
#X connect 27 0 17 1;
#X connect 28 0 12 1;
#X connect 32 0 23 0;
#X restore 388 798 pd freeframe_num_of_plugins;
#X obj 335 736 bng 15 250 50 0 empty empty empty 17 7 0 10 -262144
-1 -1;
#X obj 278 512 tof/folderpanel;
#X obj 199 562 bng 15 250 50 0 empty empty empty 17 7 0 10 -262144
-1 -1;
#X obj 387 899 s \$1pdp_freeframe_nplugins;
#X obj 349 763 delay 2;
#X floatatom 783 75 5 0 0 0 - - -;
#X obj 783 51 r \$1pdp_freeframe_inputsize;
#X msg 788 127 dim 320 240;
#X obj 781 100 select 0 1 2;
#X msg 806 153 dim 640 480;
#X msg 823 178 dim 600 800;
#X msg 842 75 dim 1024 768;
#X obj 293 98 cnv 15 90 50 empty empty empty 20 12 0 14 -128992 -66577
0;
#X obj 298 100 vradio 15 1 0 3 \$1pdp_freeframe_inputsize \$1pdp_freeframe_inputsize_init
empty 0 -8 0 8 -260097 -1 -1 0;
#X obj 317 123 hradio 18 1 0 3 empty \$0sizelabel 320x240 2 8 0 8 -1
-1 -262144 0;
#X text 314 99 INPUT SIZE;
#X obj 687 203 s \$0sizelabel;
#X msg 723 177 label 600x800;
#X msg 706 152 label 640x480;
#X msg 688 126 label 320x240;
#N canvas 8 76 1279 718 freeframe_load_plugin_list 0;
#X obj 705 547 tof/menubutton 132 22 empty empty 0 #000000 #ffffff
orange #3a12ff -1;
#X msg 793 313 saveitems \$1;
#X obj 793 295 tgl 15 0 empty empty empty 17 7 0 10 -262144 -1 -1 0
1;
#X text 880 300 Set the saving of the menu items in the patch. Off
by default.;
#X msg 940 457 set b;
#X text 989 459 Select an item without outputing it;
#X msg 959 481 set 2;
#X text 1110 363 values can be tk colors(red \, blue \, etc) or html
colors (#ffffff);
#X text 850 336 colors: background foreground highlight contour;
#X msg 853 359 colors green red orange purple;
#X msg 873 384 colors #000000 #ffffff #ff0000 #3a12ff;
#X text 833 244 Set its size;
#X msg 754 245 size 102 32;
#X text 853 266 Set its size;
#X msg 774 267 size 132 22;
#X msg 867 418 colors #000000 #ffffff orange #3a12ff;
#X floatatom 715 155 5 0 0 0 - - -;
#X text 635 132 Select and output a menu item;
#X msg 147 107 clear;
#X text 142 81 Clear menu items;
#X msg 382 159 add Wave;
#X msg 372 100 set add \$1 \, bang;
#X obj 87 51 inlet;
#X text 137 53 reset and start to add items;
#X obj 373 49 inlet;
#X floatatom 693 661 5 0 0 0 - - -;
#X symbolatom 765 660 10 0 0 0 - - -;
#X obj 695 616 unpack f s;
#X obj 710 57 inlet;
#X text 381 74 elements to add;
#X obj 642 694 outlet;
#X obj 766 693 outlet;
#X obj 958 693 outlet;
#X text 1019 689 to the external list;
#X connect 0 0 27 0;
#X connect 1 0 0 0;
#X connect 2 0 1 0;
#X connect 4 0 0 0;
#X connect 6 0 0 0;
#X connect 9 0 0 0;
#X connect 10 0 0 0;
#X connect 12 0 0 0;
#X connect 14 0 0 0;
#X connect 15 0 0 0;
#X connect 16 0 0 0;
#X connect 18 0 0 0;
#X connect 18 0 32 0;
#X connect 20 0 0 0;
#X connect 20 0 32 0;
#X connect 21 0 20 0;
#X connect 22 0 18 0;
#X connect 24 0 21 0;
#X connect 25 0 30 0;
#X connect 26 0 31 0;
#X connect 27 0 25 0;
#X connect 27 1 26 0;
#X connect 28 0 16 0;
#X restore 385 1010 pd freeframe_load_plugin_list;
#X obj 519 935 symbol;
#X symbolatom 517 962 20 0 0 0 - - -;
#X obj 605 858 bng 15 250 50 0 empty empty empty 17 7 0 10 -262144
-1 -1;
#X obj 558 895 spigot;
#X text 1568 643 Select the plugin;
#X floatatom 1525 646 5 0 0 0 - - -;
#X symbolatom 462 1050 20 0 0 0 - - -;
#X floatatom 385 1047 5 0 0 0 - - -;
#X obj 149 101 tof/menubutton 132 22 empty empty 0 #000000 #ffffff
orange #3a12ff -1;
#X obj 601 1046 s \$1pdp_freeframe_visible_list_in;
#X obj 402 100 r \$1pdp_freeframe_visible_list_in;
#X obj 413 145 s \$1pdp_freeframe_visible_list_out;
#X obj 1568 241 r \$1pdp_freeframe_visible_list_out;
#X floatatom 1588 325 5 0 0 0 - - -;
#X symbolatom 1630 327 10 0 0 0 - - -;
#X obj 1590 280 unpack f s;
#X obj 7 98 cnv 15 280 50 empty empty empty 2 12 0 8 -128992 -228856
0;
#X obj 42 116 nbx 3 16 -1e+37 1e+37 0 0 empty \$1pdp_freeframe_nplugins
Num.Plugins -20 -8 0 8 -66577 -260097 -228856 44 256;
#X obj 107 118 nbx 3 16 0 1e+37 0 0 \$1pdp_freeframe_index_visible_out1
\$1pdp_freeframe_index_visible_in1 Index 0 -8 0 8 -66577 -260097 -228856
0 256;
#X obj 627 912 spigot;
#X floatatom 688 923 5 0 0 0 - - -;
#X obj 1326 268 r \$1pdp_freeframe_index_visible_out1;
#X obj 474 948 bng 15 250 50 0 empty empty empty 17 7 0 10 -262144
-1 -1;
#X obj 1333 576 s \$1pdp_freeframe_visible_list_in;
#X obj 1580 700 s \$1pdp_freeframe_index_visible_in1;
#X obj 1549 324 + 1;
#X obj 1000 1029 cnv 15 58 18 empty empty VIDEO_OUT 0 10 0 8 -221249
-262144 0;
#X obj 950 1029 outlet;
#X obj 11 197 knob 25 25 0 1 0 0 \$1pdp_freeframe_param1 \$1pdp_freeframe_param1_init
empty 8 -8 192 10 -260097 -260097 -1 0 1;
#X obj 11 230 knob 25 25 0 1 0 0 \$1pdp_freeframe_param2 \$1pdp_freeframe_param2_init
empty 8 -8 192 10 -260097 -260097 -1 0 1;
#X obj 11 161 knob 25 25 0 1 0 0 \$1pdp_freeframe_param0 \$1pdp_freeframe_param0_init
empty 8 -8 192 10 -260097 -260097 -1 0 1;
#X obj 11 297 knob 25 25 0 1 0 0 \$1pdp_freeframe_param4 \$1pdp_freeframe_param4_init
empty 8 -8 192 10 -260097 -260097 -1 0 1;
#X obj 200 158 knob 25 25 0 1 0 0 \$1pdp_freeframe_param5 \$1pdp_freeframe_param5_init
empty 8 -8 192 10 -260097 -260097 -1 0 1;
#X obj 10 264 knob 25 25 0 1 0 0 \$1pdp_freeframe_param3 \$1pdp_freeframe_param3_init
empty 8 -8 192 10 -260097 -260097 -1 0 1;
#X obj 202 224 knob 25 25 0 1 0 0 \$1pdp_freeframe_param7 \$1pdp_freeframe_param7_init
empty 8 -8 192 10 -260097 -260097 -1 0 1;
#X obj 202 256 knob 25 25 0 1 0 0 \$1pdp_freeframe_param8 \$1pdp_freeframe_param8_init
empty 8 -8 192 10 -260097 -260097 -1 0 1;
#X obj 200 191 knob 25 25 0 1 0 0 \$1pdp_freeframe_param6 \$1pdp_freeframe_param6_init
empty 8 -8 192 10 -260097 -260097 -1 0 1;
#X symbolatom 49 202 18 0 0 0 - #1ffparam1 -;
#X symbolatom 52 271 18 0 0 0 - #1ffparam3 -;
#X symbolatom 52 308 18 0 0 0 - #1ffparam4 -;
#X symbolatom 235 162 18 0 0 0 - #1ffparam5 -;
#X symbolatom 235 196 18 0 0 0 - #1ffparam6 -;
#X symbolatom 236 229 18 0 0 0 - #1ffparam7 -;
#X symbolatom 238 260 18 0 0 0 - #1ffparam8 -;
#X symbolatom 50 238 18 0 0 0 - #1ffparam2 -;
#X symbolatom 49 169 18 0 0 0 - #1ffparam0 -;
#N canvas 4 54 996 665 default 0;
#X obj 97 86 route 0 1 2 3 4 5 6 7 8;
#X obj 97 51 inlet;
#X obj 391 53 inlet;
#X obj 51 154 s vparam0;
#X obj 393 114 float 0;
#X msg 392 88 bang;
#X obj 79 178 s vparam1;
#X obj 118 205 s vparam2;
#X obj 148 227 s vparam3;
#X obj 184 159 s vparam4;
#X obj 213 181 s vparam5;
#X obj 255 206 s vparam6;
#X obj 283 230 s vparam7;
#X obj 304 155 s vparam8;
#X connect 0 0 3 0;
#X connect 0 1 6 0;
#X connect 0 2 7 0;
#X connect 0 3 8 0;
#X connect 0 4 9 0;
#X connect 0 5 10 0;
#X connect 0 6 11 0;
#X connect 0 7 12 0;
#X connect 0 8 13 0;
#X connect 1 0 0 0;
#X connect 2 0 5 0;
#X connect 4 0 3 0;
#X connect 4 0 6 0;
#X connect 4 0 7 0;
#X connect 4 0 8 0;
#X connect 4 0 9 0;
#X connect 4 0 10 0;
#X connect 4 0 11 0;
#X connect 4 0 12 0;
#X connect 4 0 13 0;
#X connect 5 0 4 0;
#X restore 1061 876 pd default;
#X msg 237 658 set pluginsdir \$1;
#X obj 758 586 r \$1pdp_freeframe_nplugins;
#N canvas 4 54 1912 1087 freeframe_parameters 0;
#X obj 436 288 hsl 128 15 0 1 0 0 empty empty empty -2 -6 0 8 -262144
-1 -1 0 1;
#X obj 598 287 hsl 128 15 0 1 0 0 empty $ empty -2 -6 0 8 -262144 -1
-1 0 1;
#X obj 737 287 hsl 128 15 0 1 0 0 empty $ empty -2 -6 0 8 -262144 -1
-1 0 1;
#X msg 433 308 param 3 \$1;
#X msg 595 306 param 4 \$1;
#X msg 735 306 param 5 \$1;
#X text 212 160 Adjust plugin parameters.;
#X obj 443 177 hsl 128 15 0 1 0 0 empty empty empty -2 -6 0 8 -262144
-1 -1 0 1;
#X obj 584 175 hsl 128 15 0 1 0 0 empty empty empty -2 -6 0 8 -262144
-1 -1 0 1;
#X obj 724 175 hsl 128 15 0 1 0 0 empty empty empty -2 -6 0 8 -262144
-1 -1 0 1;
#X obj 432 401 hsl 128 15 0 1 0 0 empty empty empty -2 -6 0 8 -262144
-1 -1 0 1;
#X obj 595 400 hsl 128 15 0 1 0 0 empty empty empty -2 -6 0 8 -262144
-1 -1 0 1;
#X obj 736 400 hsl 128 15 0 1 0 0 empty empty empty -2 -6 0 8 -262144
-1 -1 0 1;
#X msg 437 196 param 0 \$1;
#X msg 597 195 param 1 \$1;
#X msg 737 195 param 2 \$1;
#X msg 431 421 param 6 \$1;
#X msg 592 419 param 7 \$1;
#X msg 733 419 param 8 \$1;
#X symbolatom 584 154 18 0 0 0 - #1ffparam1 -;
#X symbolatom 720 154 18 0 0 0 - #1ffparam2 -;
#X symbolatom 436 271 18 0 0 0 - #1ffparam3 -;
#X symbolatom 597 269 18 0 0 0 - #1ffparam4 -;
#X symbolatom 735 269 18 0 0 0 - #1ffparam5 -;
#X symbolatom 432 381 18 0 0 0 - #1ffparam6 -;
#X symbolatom 593 379 18 0 0 0 - #1ffparam7 -;
#X symbolatom 734 379 18 0 0 0 - #1ffparam8 -;
#X symbolatom 438 156 18 0 0 0 - #1ffparam0 -;
#X obj 410 102 r \$1pdp_freeframe_param0;
#X floatatom 259 106 5 0 0 0 - - -;
#X obj 312 32 > 0;
#X obj 413 125 spigot;
#X obj 568 125 spigot;
#X obj 720 125 spigot;
#X obj 565 102 r \$1pdp_freeframe_param1;
#X obj 717 102 r \$1pdp_freeframe_param2;
#X obj 436 250 spigot;
#X obj 433 227 r \$1pdp_freeframe_param3;
#X obj 592 250 spigot;
#X obj 589 227 r \$1pdp_freeframe_param4;
#X obj 744 248 spigot;
#X obj 741 225 r \$1pdp_freeframe_param5;
#X obj 432 356 spigot;
#X obj 429 333 r \$1pdp_freeframe_param6;
#X obj 595 358 spigot;
#X obj 592 335 r \$1pdp_freeframe_param7;
#X obj 745 352 spigot;
#X obj 742 329 r \$1pdp_freeframe_param8;
#X obj 122 42 inlet;
#X obj 173 552 outlet;
#X connect 0 0 3 0;
#X connect 1 0 4 0;
#X connect 2 0 5 0;
#X connect 3 0 49 0;
#X connect 4 0 49 0;
#X connect 5 0 49 0;
#X connect 7 0 13 0;
#X connect 8 0 14 0;
#X connect 9 0 15 0;
#X connect 10 0 16 0;
#X connect 11 0 17 0;
#X connect 12 0 18 0;
#X connect 13 0 49 0;
#X connect 14 0 49 0;
#X connect 15 0 49 0;
#X connect 16 0 49 0;
#X connect 17 0 49 0;
#X connect 18 0 49 0;
#X connect 28 0 31 0;
#X connect 30 0 29 0;
#X connect 30 0 31 1;
#X connect 30 0 32 1;
#X connect 30 0 33 1;
#X connect 30 0 36 1;
#X connect 30 0 38 1;
#X connect 30 0 40 1;
#X connect 30 0 42 1;
#X connect 30 0 44 1;
#X connect 30 0 46 1;
#X connect 31 0 7 0;
#X connect 32 0 8 0;
#X connect 33 0 9 0;
#X connect 34 0 32 0;
#X connect 35 0 33 0;
#X connect 36 0 0 0;
#X connect 37 0 36 0;
#X connect 38 0 1 0;
#X connect 39 0 38 0;
#X connect 40 0 2 0;
#X connect 41 0 40 0;
#X connect 42 0 10 0;
#X connect 43 0 42 0;
#X connect 44 0 11 0;
#X connect 45 0 44 0;
#X connect 46 0 12 0;
#X connect 47 0 46 0;
#X connect 48 0 30 0;
#X restore 758 622 pd freeframe_parameters;
#X obj 1065 1024 s \$1pdp_freeframe_visible_name;
#N canvas 40 252 1038 660 estabilitzador_bangs 0;
#X obj 347 218 bng 15 250 50 0 empty empty empty 17 7 0 10 -262144
-1 -1;
#X msg 194 247 bang;
#X msg 56 244 bang;
#X obj 112 295 timer;
#X floatatom 112 317 0 0 0 0 - - -;
#X floatatom 114 369 0 0 0 0 - - -;
#X obj 320 342 spigot;
#X obj 331 384 bng 15 250 50 0 empty empty empty 17 7 0 10 -262144
-1 -1;
#X obj 462 263 delay 1;
#X obj 106 41 inlet;
#X text 150 42 start counts;
#X obj 232 483 outlet;
#X obj 248 106 onebang 1;
#X obj 104 143 bng 15 250 50 0 empty empty empty 0 -6 0 8 -262144 -1
-1;
#X obj 316 74 bng 15 250 50 0 empty empty empty 0 -6 0 8 -262144 -1
-1;
#X obj 109 183 alternate;
#X obj 169 218 bng 15 250 50 0 empty empty empty 0 -6 0 8 -262144 -1
-1;
#X obj 109 218 bng 15 250 50 0 empty empty empty 0 -6 0 8 -262144 -1
-1;
#X obj 223 80 bng 15 250 50 0 empty empty empty 0 -6 0 8 -262144 -1
-1;
#X floatatom 48 89 5 0 0 0 - - -;
#X obj 113 340 > 100;
#X text 285 467 1->too many bangs;
#X text 281 485 comment;
#X connect 0 0 3 1;
#X connect 0 0 6 0;
#X connect 1 0 3 1;
#X connect 2 0 3 0;
#X connect 3 0 4 0;
#X connect 4 0 20 0;
#X connect 5 0 6 1;
#X connect 5 0 11 0;
#X connect 6 0 7 0;
#X connect 8 0 3 0;
#X connect 9 0 13 0;
#X connect 13 0 15 0;
#X connect 14 0 12 1;
#X connect 15 0 17 0;
#X connect 15 1 0 0;
#X connect 16 0 3 1;
#X connect 17 0 3 0;
#X connect 18 0 12 0;
#X connect 19 0 13 0;
#X connect 20 0 5 0;
#X restore 29 463 pd estabilitzador_bangs;
#X obj 34 409 bng 15 250 50 0 empty empty empty 17 7 0 10 -262144 -1
-1;
#X obj 97 522 float;
#X obj 27 496 bng 15 250 50 0 empty empty empty 17 7 0 10 -262144 -1
-1;
#X floatatom 118 568 5 0 0 0 - - -;
#X obj 20 522 delay 10;
#X obj 1367 290 MouseState;
#X floatatom 1386 312 5 0 0 0 - - -;
#X obj 1331 318 spigot;
#X floatatom 1332 340 5 0 0 0 - - -;
#X obj 611 754 tgl 15 0 empty empty empty 17 7 0 10 -262144 -1 -1 1
1;
#X floatatom 1333 551 5 0 0 0 - - -;
#X obj 1332 364 ignore 300;
#N canvas 8 76 1688 953 midi_control 0;
#X msg 204 135 ffpdp_freeframe_on_midi;
#X obj 206 233 s midi_var_to_add;
#X text 311 231 -->global value of mb-midi_control_pad;
#X msg 374 132 ffpdp_freeframe_param0_midi;
#X obj 188 422 s midi_var_to_add;
#X text 294 422 -->global value of mb-midi_control_pad;
#X msg 395 333 ffpdp_freeframe_index_up_midi;
#X msg 597 333 ffpdp_freeframe_index_down_midi;
#X msg 196 328 ffpdp_freeframe_index_midi;
#X msg 204 101 set \$1pdp_freeframe_on_midi;
#X msg 374 98 set \$1pdp_freeframe_param0_midi;
#X obj -52 107 r \$1pdp_freeframe_midi_on;
#X obj 127 -39 r \$1pdp_freeframe_id;
#X obj -59 300 r \$1pdp_freeframe_midi_on;
#X floatatom 155 572 5 0 0 0 - - -;
#X obj 157 599 select 0;
#X msg 226 650 0;
#X msg 176 656 1;
#X obj 156 629 alternate;
#X floatatom 636 553 5 0 0 0 - - -;
#X floatatom 637 622 8 0 0 0 - - -;
#X obj 639 575 hsl 128 15 0 127 0 0 empty empty empty -2 -8 0 10 -262144
-1 -1 0 1;
#X obj 636 597 autoscale 0 1;
#X floatatom 150 762 5 0 0 0 - - -;
#X obj 152 789 select 0;
#X msg 221 840 0;
#X msg 171 846 1;
#X obj 151 819 alternate;
#X floatatom 360 760 5 0 0 0 - - -;
#X obj 362 787 select 0;
#X msg 431 838 0;
#X msg 381 844 1;
#X obj 361 817 alternate;
#X floatatom 356 570 5 0 0 0 - - -;
#X obj 363 591 hsl 128 15 0 127 0 0 empty empty empty -2 -8 0 10 -262144
-1 -1 0 1;
#X obj 360 613 autoscale 0 1;
#X obj 400 640 int;
#X floatatom 417 660 8 0 0 0 - - -;
#X msg 195 294 set \$1pdp_freeframe_index_midi;
#X msg 395 299 set \$1pdp_freeframe_index_up_midi;
#X msg 597 299 set \$1pdp_freeframe_index_down_midi;
#X obj 156 545 r \$1pdp_freeframe_on_midi;
#X obj 137 682 s \$1pdp_freeframe_bypass_init;
#X obj 358 541 r \$1pdp_freeframe_index_midi;
#X obj 354 686 s \$1pdp_freeframe_index_midi_in;
#X obj 461 615 r \$1pdp_freeframe_nplugins;
#X obj 634 525 r \$1pdp_freeframe_param0_midi;
#X obj 637 652 s \$1pdp_freeframe_param0_init;
#X obj 151 735 r \$1pdp_freeframe_index_up_midi;
#X obj 361 733 r \$1pdp_freeframe_index_down_midi;
#X obj 342 870 s \$1pdp_freeframe_index_down_init;
#X obj 132 872 s \$1pdp_freeframe_index_up_init;
#X msg 577 130 ffpdp_freeframe_param1_midi;
#X msg 779 131 ffpdp_freeframe_param2_midi;
#X msg 979 132 ffpdp_freeframe_param3_midi;
#X msg 1183 131 ffpdp_freeframe_param4_midi;
#X msg 1388 127 ffpdp_freeframe_param5_midi;
#X msg 967 330 ffpdp_freeframe_param6_midi;
#X msg 577 96 set \$1pdp_freeframe_param1_midi;
#X msg 779 97 set \$1pdp_freeframe_param2_midi;
#X msg 979 98 set \$1pdp_freeframe_param3_midi;
#X msg 1183 97 set \$1pdp_freeframe_param4_midi;
#X msg 1388 93 set \$1pdp_freeframe_param5_midi;
#X msg 967 296 set \$1pdp_freeframe_param6_midi;
#X msg 1192 329 ffpdp_freeframe_param7_midi;
#X msg 1192 295 set \$1pdp_freeframe_param7_midi;
#X msg 1402 328 ffpdp_freeframe_param8_midi;
#X msg 1402 294 set \$1pdp_freeframe_param8_midi;
#X floatatom 826 553 5 0 0 0 - - -;
#X floatatom 827 622 8 0 0 0 - - -;
#X obj 829 575 hsl 128 15 0 127 0 0 empty empty empty -2 -8 0 10 -262144
-1 -1 0 1;
#X obj 826 597 autoscale 0 1;
#X floatatom 1024 554 5 0 0 0 - - -;
#X floatatom 1025 623 8 0 0 0 - - -;
#X obj 1027 576 hsl 128 15 0 127 0 0 empty empty empty -2 -8 0 10 -262144
-1 -1 0 1;
#X obj 1024 598 autoscale 0 1;
#X floatatom 1218 552 5 0 0 0 - - -;
#X floatatom 1219 621 8 0 0 0 - - -;
#X obj 1221 574 hsl 128 15 0 127 0 0 empty empty empty -2 -8 0 10 -262144
-1 -1 0 1;
#X obj 1218 596 autoscale 0 1;
#X floatatom 1406 550 5 0 0 0 - - -;
#X floatatom 1407 619 8 0 0 0 - - -;
#X obj 1409 572 hsl 128 15 0 127 0 0 empty empty empty -2 -8 0 10 -262144
-1 -1 0 1;
#X obj 1406 594 autoscale 0 1;
#X floatatom 640 714 5 0 0 0 - - -;
#X floatatom 641 783 8 0 0 0 - - -;
#X obj 643 736 hsl 128 15 0 127 0 0 empty empty empty -2 -8 0 10 -262144
-1 -1 0 1;
#X obj 640 758 autoscale 0 1;
#X floatatom 828 713 5 0 0 0 - - -;
#X floatatom 829 782 8 0 0 0 - - -;
#X obj 831 735 hsl 128 15 0 127 0 0 empty empty empty -2 -8 0 10 -262144
-1 -1 0 1;
#X obj 828 757 autoscale 0 1;
#X floatatom 1022 714 5 0 0 0 - - -;
#X floatatom 1023 783 8 0 0 0 - - -;
#X obj 1025 736 hsl 128 15 0 127 0 0 empty empty empty -2 -8 0 10 -262144
-1 -1 0 1;
#X obj 1022 758 autoscale 0 1;
#X floatatom 1217 712 5 0 0 0 - - -;
#X floatatom 1218 781 8 0 0 0 - - -;
#X obj 1220 734 hsl 128 15 0 127 0 0 empty empty empty -2 -8 0 10 -262144
-1 -1 0 1;
#X obj 1217 756 autoscale 0 1;
#X obj 824 525 r \$1pdp_freeframe_param1_midi;
#X obj 827 652 s \$1pdp_freeframe_param1_init;
#X obj 1022 526 r \$1pdp_freeframe_param2_midi;
#X obj 1024 653 s \$1pdp_freeframe_param2_init;
#X obj 1216 524 r \$1pdp_freeframe_param3_midi;
#X obj 1219 651 s \$1pdp_freeframe_param3_init;
#X obj 1404 522 r \$1pdp_freeframe_param4_midi;
#X obj 1407 649 s \$1pdp_freeframe_param4_init;
#X obj 638 686 r \$1pdp_freeframe_param5_midi;
#X obj 641 813 s \$1pdp_freeframe_param5_init;
#X obj 826 685 r \$1pdp_freeframe_param6_midi;
#X obj 829 812 s \$1pdp_freeframe_param6_init;
#X obj 1020 686 r \$1pdp_freeframe_param7_midi;
#X obj 1023 813 s \$1pdp_freeframe_param7_init;
#X obj 1215 684 r \$1pdp_freeframe_param8_midi;
#X obj 1218 811 s \$1pdp_freeframe_param8_init;
#X connect 0 0 1 0;
#X connect 3 0 1 0;
#X connect 6 0 4 0;
#X connect 7 0 4 0;
#X connect 8 0 4 0;
#X connect 9 0 0 0;
#X connect 10 0 3 0;
#X connect 11 0 0 0;
#X connect 11 0 3 0;
#X connect 11 0 52 0;
#X connect 11 0 53 0;
#X connect 11 0 54 0;
#X connect 11 0 55 0;
#X connect 11 0 56 0;
#X connect 12 0 9 0;
#X connect 12 0 10 0;
#X connect 12 0 39 0;
#X connect 12 0 40 0;
#X connect 12 0 38 0;
#X connect 12 0 58 0;
#X connect 12 0 59 0;
#X connect 12 0 60 0;
#X connect 12 0 61 0;
#X connect 12 0 62 0;
#X connect 12 0 63 0;
#X connect 12 0 65 0;
#X connect 12 0 67 0;
#X connect 13 0 6 0;
#X connect 13 0 7 0;
#X connect 13 0 8 0;
#X connect 13 0 57 0;
#X connect 13 0 64 0;
#X connect 13 0 66 0;
#X connect 14 0 15 0;
#X connect 15 1 18 0;
#X connect 16 0 42 0;
#X connect 17 0 42 0;
#X connect 18 0 17 0;
#X connect 18 1 16 0;
#X connect 19 0 21 0;
#X connect 20 0 47 0;
#X connect 21 0 22 0;
#X connect 22 0 20 0;
#X connect 23 0 24 0;
#X connect 24 1 27 0;
#X connect 25 0 51 0;
#X connect 26 0 51 0;
#X connect 27 0 26 0;
#X connect 27 1 25 0;
#X connect 28 0 29 0;
#X connect 29 1 32 0;
#X connect 30 0 50 0;
#X connect 31 0 50 0;
#X connect 32 0 31 0;
#X connect 32 1 30 0;
#X connect 33 0 34 0;
#X connect 34 0 35 0;
#X connect 35 0 36 0;
#X connect 36 0 37 0;
#X connect 37 0 44 0;
#X connect 38 0 8 0;
#X connect 39 0 6 0;
#X connect 40 0 7 0;
#X connect 41 0 14 0;
#X connect 43 0 33 0;
#X connect 45 0 35 2;
#X connect 46 0 19 0;
#X connect 48 0 23 0;
#X connect 49 0 28 0;
#X connect 52 0 1 0;
#X connect 53 0 1 0;
#X connect 54 0 1 0;
#X connect 55 0 1 0;
#X connect 56 0 1 0;
#X connect 57 0 4 0;
#X connect 58 0 52 0;
#X connect 59 0 53 0;
#X connect 60 0 54 0;
#X connect 61 0 55 0;
#X connect 62 0 56 0;
#X connect 63 0 57 0;
#X connect 64 0 4 0;
#X connect 65 0 64 0;
#X connect 66 0 4 0;
#X connect 67 0 66 0;
#X connect 68 0 70 0;
#X connect 69 0 101 0;
#X connect 70 0 71 0;
#X connect 71 0 69 0;
#X connect 72 0 74 0;
#X connect 73 0 103 0;
#X connect 74 0 75 0;
#X connect 75 0 73 0;
#X connect 76 0 78 0;
#X connect 77 0 105 0;
#X connect 78 0 79 0;
#X connect 79 0 77 0;
#X connect 80 0 82 0;
#X connect 81 0 107 0;
#X connect 82 0 83 0;
#X connect 83 0 81 0;
#X connect 84 0 86 0;
#X connect 85 0 109 0;
#X connect 86 0 87 0;
#X connect 87 0 85 0;
#X connect 88 0 90 0;
#X connect 89 0 111 0;
#X connect 90 0 91 0;
#X connect 91 0 89 0;
#X connect 92 0 94 0;
#X connect 93 0 113 0;
#X connect 94 0 95 0;
#X connect 95 0 93 0;
#X connect 96 0 98 0;
#X connect 97 0 115 0;
#X connect 98 0 99 0;
#X connect 99 0 97 0;
#X connect 100 0 68 0;
#X connect 102 0 72 0;
#X connect 104 0 76 0;
#X connect 106 0 80 0;
#X connect 108 0 84 0;
#X connect 110 0 88 0;
#X connect 112 0 92 0;
#X connect 114 0 96 0;
#X restore 449 54 pd midi_control;
#X obj 244 130 bng 15 250 50 0 \$1pdp_freeframe_index_up \$1pdp_freeframe_index_up_init
>> 17 7 0 10 -260097 -1 -228856;
#X obj 166 129 bng 15 250 50 0 \$1pdp_freeframe_index_down \$1pdp_freeframe_index_down_init
<< -17 7 0 10 -260097 -1 -228856;
#X text 193 126 PLUGIN;
#X obj 1407 419 float;
#X obj 1377 415 bng 15 250 50 0 empty empty empty 17 7 0 10 -262144
-1 -1;
#X obj 1407 436 + 1;
#X obj 1413 486 float;
#X obj 1383 482 bng 15 250 50 0 empty empty empty 17 7 0 10 -262144
-1 -1;
#X obj 1413 503 - 1;
#X obj 1378 395 r \$1pdp_freeframe_index_up;
#X obj 1384 462 r \$1pdp_freeframe_index_down;
#X obj 1297 224 r \$1pdp_freeframe_index_midi_in;
#X obj 16 23 bng 15 250 50 0 \$1pdp_freeframe_midi_on empty midi 17
7 0 10 -4160 -1 -1;
#X obj 313 21 tgl 15 0 \$1pdp_freeframe_bypass \$1pdp_freeframe_bypass_init
bypass 17 7 0 10 -257985 -1 -1 0 1;
#X obj 1153 178 bng 15 250 50 0 empty empty empty 17 7 0 10 -262144
-1 -1;
#X obj 1166 156 spigot;
#X obj 1201 80 tgl 15 0 empty empty empty 17 7 0 10 -262144 -1 -1 0
1;
#X obj 1045 88 pdp_spigot;
#X obj 1182 58 r \$1pdp_freeframe_bypass;
#X obj 1179 132 r \$1pdp_freeframe_monitor_on;
#X obj 1171 178 s \$1pdp_freeframe_monitor_in;
#X obj 735 984 bng 15 250 50 0 empty empty empty 17 7 0 10 -262144
-1 -1;
#X obj 748 962 spigot;
#X obj 761 938 r \$1pdp_freeframe_monitor_on;
#X obj 753 984 s \$1pdp_freeframe_monitor_out;
#X obj 149 23 tgl 15 0 \$1pdp_freeframe_monitor_on empty monitor 17
7 0 8 -228856 -1 -1 0 1;
#X connect 0 0 48 1;
#X connect 2 0 71 1;
#X connect 2 0 121 0;
#X connect 4 0 8 1;
#X connect 4 0 117 1;
#X connect 16 0 48 0;
#X connect 17 0 19 0;
#X connect 18 0 21 0;
#X connect 19 0 18 0;
#X connect 21 0 20 0;
#X connect 27 0 48 0;
#X connect 36 0 153 0;
#X connect 37 0 27 0;
#X connect 37 0 50 0;
#X connect 37 0 132 0;
#X connect 42 0 41 0;
#X connect 43 0 51 0;
#X connect 45 0 42 0;
#X connect 45 0 52 0;
#X connect 47 0 43 0;
#X connect 48 0 98 0;
#X connect 48 0 158 0;
#X connect 48 1 2 0;
#X connect 48 1 49 1;
#X connect 48 1 73 0;
#X connect 48 2 4 0;
#X connect 48 3 8 0;
#X connect 48 4 14 0;
#X connect 48 5 117 0;
#X connect 49 0 0 0;
#X connect 49 0 53 0;
#X connect 49 1 74 1;
#X connect 49 1 90 1;
#X connect 50 0 54 0;
#X connect 50 0 70 0;
#X connect 51 0 44 0;
#X connect 51 0 45 0;
#X connect 51 0 118 0;
#X connect 52 0 42 0;
#X connect 54 0 49 0;
#X connect 55 0 58 0;
#X connect 56 0 55 0;
#X connect 57 0 16 0;
#X connect 58 0 57 0;
#X connect 58 0 69 0;
#X connect 58 1 59 0;
#X connect 58 1 68 0;
#X connect 58 2 60 0;
#X connect 58 2 67 0;
#X connect 59 0 16 0;
#X connect 60 0 16 0;
#X connect 67 0 66 0;
#X connect 68 0 66 0;
#X connect 69 0 66 0;
#X connect 70 0 78 0;
#X connect 70 1 77 0;
#X connect 70 2 80 0;
#X connect 71 0 72 0;
#X connect 72 0 70 1;
#X connect 73 0 74 0;
#X connect 74 0 71 0;
#X connect 76 0 95 0;
#X connect 76 0 48 1;
#X connect 76 0 139 1;
#X connect 76 0 142 1;
#X connect 79 0 82 0;
#X connect 81 0 79 0;
#X connect 83 0 86 0;
#X connect 86 0 84 0;
#X connect 86 0 96 0;
#X connect 86 0 76 0;
#X connect 86 1 85 0;
#X connect 91 0 70 2;
#X connect 92 0 130 0;
#X connect 93 0 71 0;
#X connect 118 0 27 0;
#X connect 119 0 120 0;
#X connect 120 0 48 0;
#X connect 122 0 125 0;
#X connect 123 0 122 0;
#X connect 124 0 126 0;
#X connect 125 0 124 0;
#X connect 125 0 127 0;
#X connect 127 0 124 0;
#X connect 128 0 129 0;
#X connect 129 0 130 1;
#X connect 130 0 131 0;
#X connect 131 0 134 0;
#X connect 133 0 94 0;
#X connect 134 0 133 0;
#X connect 139 0 141 0;
#X connect 140 0 139 0;
#X connect 141 0 133 0;
#X connect 142 0 144 0;
#X connect 143 0 142 0;
#X connect 144 0 133 0;
#X connect 145 0 140 0;
#X connect 146 0 143 0;
#X connect 147 0 133 0;
#X connect 150 0 156 0;
#X connect 151 0 150 0;
#X connect 153 0 16 0;
#X connect 153 0 151 0;
#X connect 153 1 98 0;
#X connect 154 0 152 0;
#X connect 154 0 153 1;
#X connect 155 0 151 1;
#X connect 157 0 160 0;
#X connect 158 0 157 0;
#X connect 159 0 158 1;
#X coords 0 -1 1 1 400 360 1 0 0;
