#N canvas 760 235 484 318 10;
#X obj 0 0 cnv 15 180 60 empty empty mgem_pix_effects 40 8 0 9 -99865
-228856 0;
#X obj 153 2 cnv 15 25 15 empty \$1mgemeffects_id \$1 6 8 0 8 -260097
-33289 0;
#X obj 4 23 tgl 15 0 empty empty Configure 17 7 0 8 -260097 -1 -228856
1 1;
#X obj -23 181 symbol \$1;
#X symbolatom -23 210 0 0 0 0 - - -;
#X obj -23 145 bng 15 250 50 0 empty empty empty 0 -6 0 8 -262144 -1
-1;
#X symbolatom 74 210 0 0 0 0 - - -;
#X obj 74 181 symbol \$2;
#X obj -39 106 loadbang;
#X obj 106 233 f \$0;
#X symbolatom 113 274 0 0 0 0 - - -;
#X msg 106 324 \; \$1 vis \$2;
#X obj 106 295 pack symbol float;
#X obj 106 209 t b f;
#X obj 244 2 inlet;
#X obj 1 1 cnv 8 35 15 empty empty GemIN 0 8 0 8 -4034 -1 0;
#X obj 184 149 outlet;
#X obj 56 41 bng 15 250 50 0 \$1gempix_effects_disable_all_init empty
Disable_effects 17 7 0 8 -258113 -191407 -191407;
#X obj 93 22 tgl 15 0 \$1gempix_bypass_init empty Bypass 15 8 0 8 -257985
-1 -228856 0 1;
#X obj 315 6 cnv 8 35 15 empty empty GemIN 0 8 0 8 -4034 -1 0;
#X obj 0 43 cnv 8 40 15 empty empty GemOUT 0 8 0 8 -258113 -262144
0;
#X obj -56 279 s \$1mgemeffects_id;
#X obj 105 252 makesymbol pd-\$1-mgem_effects_win;
#N canvas 618 588 377 270 \$1-mgem_effects_win 1;
#X obj 193 -137 inlet;
#X obj 144 31 outlet;
#X obj -10 -167 mb-gem_pix_effects \$1;
#X connect 0 0 2 0;
#X connect 2 0 1 0;
#X restore 233 97 pd \$1-mgem_effects_win;
#X obj 268 147 cnv 8 40 15 empty empty GemOUT 0 8 0 8 -258113 -262144
0;
#X connect 2 0 13 0;
#X connect 3 0 4 0;
#X connect 4 0 21 0;
#X connect 5 0 3 0;
#X connect 5 0 7 0;
#X connect 7 0 6 0;
#X connect 8 0 5 0;
#X connect 9 0 22 0;
#X connect 12 0 11 0;
#X connect 13 0 9 0;
#X connect 13 1 12 1;
#X connect 14 0 23 0;
#X connect 22 0 10 0;
#X connect 22 0 12 0;
#X connect 23 0 16 0;
#X coords 0 -1 1 1 180 60 1 0 0;
