#N canvas 308 322 484 415 10;
#X obj 0 0 cnv 15 160 60 empty empty mgempix_transform 30 8 0 9 -99865
-228856 0;
#X obj 123 18 cnv 15 25 15 empty \$1mgemtransform_id \$1 6 8 0 8 -260097
-33289 0;
#X obj 59 41 tgl 15 0 empty empty Configure 17 7 0 8 -260097 -1 -228856
0 1;
#X obj -23 181 symbol \$1;
#X symbolatom -23 210 0 0 0 0 - - -;
#X obj -23 145 bng 15 250 50 0 empty empty empty 0 -6 0 8 -262144 -1
-1;
#X symbolatom 74 210 0 0 0 0 - - -;
#X obj 74 181 symbol \$2;
#X obj -39 106 loadbang;
#X obj 106 233 f \$0;
#X symbolatom 113 274 0 0 0 0 - - -;
#X msg 106 324 \; \$1 vis \$2;
#X obj 106 295 pack symbol float;
#X obj 106 209 t b f;
#X obj 244 2 inlet;
#X obj 1 1 cnv 8 35 15 empty empty GemIN 0 8 0 8 -4034 -1 0;
#X obj 184 149 outlet;
#X obj 315 6 cnv 8 35 15 empty empty GemIN 0 8 0 8 -4034 -1 0;
#X obj 0 43 cnv 8 40 15 empty empty GemOUT 0 8 0 8 -258113 -262144
0;
#X obj 268 147 cnv 8 40 15 empty empty GemOUT 0 8 0 8 -258113 -262144
0;
#X obj -56 279 s \$1mgemtransform_id;
#N canvas 1104 617 248 223 \$1-mgem_transform_win 0;
#X obj -40 -77 inlet;
#X obj -84 61 outlet;
#X obj -103 -97 mb-gem_pix_control_transform \$1;
#X connect 0 0 2 0;
#X connect 2 0 1 0;
#X restore 233 97 pd \$1-mgem_transform_win;
#X obj 105 252 makesymbol pd-\$1-mgem_transform_win;
#X obj 59 23 bng 15 250 50 0 empty empty reset 17 7 0 8 -257985 -1
-228856;
#X obj 42 100 s \$1gempix_trans_reset_init;
#X obj 1 22 tgl 15 0 \$1gempix_transform_on_init \$1gempix_transform_on_mini
Enable 17 7 0 8 -4034 -1 -228856 0 1;
#X obj -19 331 init 1;
#X obj -17 367 s \$1gempix_transform_on_mini;
#X connect 2 0 13 0;
#X connect 3 0 4 0;
#X connect 4 0 20 0;
#X connect 5 0 3 0;
#X connect 5 0 7 0;
#X connect 7 0 6 0;
#X connect 8 0 5 0;
#X connect 9 0 22 0;
#X connect 12 0 11 0;
#X connect 13 0 9 0;
#X connect 13 1 12 1;
#X connect 14 0 21 0;
#X connect 21 0 16 0;
#X connect 22 0 10 0;
#X connect 22 0 12 0;
#X connect 23 0 24 0;
#X connect 26 0 27 0;
#X coords 0 -1 1 1 160 60 2 0 0;
