#N canvas 185 322 763 442 10;
#X obj 0 1 cnv 15 200 80 empty empty mpdp_frei0r_ctrl 40 26 0 9 -99865
-228856 0;
#X obj 146 2 cnv 15 25 15 empty \$1mpdp_frei0r_id \$1 6 8 0 9 -260097
-33289 0;
#X obj 286 77 cnv 8 25 15 empty empty VIN1 0 8 0 8 -4034 -1 0;
#X obj 156 19 tgl 15 0 empty empty Conf. 17 7 0 7 -260097 -1 -228856
1 1;
#X obj -23 181 symbol \$1;
#X symbolatom -23 210 0 0 0 0 - - -;
#X obj -23 145 bng 15 250 50 0 empty empty empty 0 -6 0 8 -262144 -1
-1;
#X symbolatom 74 210 0 0 0 0 - - -;
#X obj 74 181 symbol \$2;
#X obj -39 106 loadbang;
#X obj 106 233 f \$0;
#X symbolatom 113 274 0 0 0 0 - - -;
#X msg 106 324 \; \$1 vis \$2;
#X obj 106 295 pack symbol float;
#X obj 106 209 t b f;
#X obj 245 72 inlet;
#X obj 2 64 cnv 8 25 15 empty empty VOUT 0 8 0 8 -258113 -1 0;
#X obj 449 250 cnv 8 25 15 empty empty VOUT 0 8 0 8 -258113 -1 0;
#X obj 405 249 outlet;
#X obj 29 3 bng 10 250 50 0 empty \$1pdp_frei0r_monitor_in empty 17
7 0 10 -128992 -4034 -4034;
#X obj 28 63 bng 10 250 50 0 empty \$1pdp_frei0r_monitor_out empty
17 7 0 10 -128992 -258113 -258113;
#X obj 10 37 nbx 3 16 0 1e+37 0 0 empty \$1pdp_frei0r_index_visible_in1
empty 0 -8 0 8 -1 -262144 -228856 44 256;
#X obj 344 75 inlet;
#X text 578 70 plugin index;
#X obj 175 1 cnv 8 25 15 empty empty indx 0 8 0 8 -4034 -1 0;
#X msg 100 480 label lighten;
#X msg 80 435 set label \$1;
#X obj 114 458 bng 15 250 50 0 empty empty empty 17 7 0 10 -262144
-1 -1;
#X obj 50 36 hradio 18 1 0 8 empty \$0pluginnamemini lighten 2 8 0
8 -1 -1 -262144 0;
#X obj 94 511 s \$0pluginnamemini;
#X symbolatom 163 430 10 0 0 0 - - -;
#X obj -32 281 s \$1mpdp_frei0r_id;
#X obj 106 252 makesymbol pd-\$1-mpdp_frei0r_win;
#N canvas 167 467 406 369 \$1-mpdp_frei0r_win 0;
#X obj -120 -23 inlet;
#X obj -99 287 outlet;
#X obj -67 -25 inlet;
#X obj -7 -28 inlet;
#X obj -143 -28 mb-pdp_frei0r_control \$1;
#X obj -51 314 tgl 15 0 empty empty empty 17 7 0 10 -262144 -1 -1 0
1;
#X connect 0 0 4 0;
#X connect 2 0 4 1;
#X connect 3 0 4 2;
#X connect 4 0 1 0;
#X restore 234 167 pd \$1-mpdp_frei0r_win;
#X obj -2 369 r \$1pdp_frei0r_visible_name;
#X obj 386 78 cnv 8 25 15 empty empty VIN2 0 8 0 8 -4034 -1 0;
#X obj 435 69 inlet;
#X obj 474 73 cnv 8 25 15 empty empty VIN3 0 8 0 8 -4034 -1 0;
#X obj 540 73 inlet;
#X obj 542 108 s \$1pdp_frei0r_index_visible_out1;
#X obj 58 1 cnv 7 25 12 empty empty VIN2 0 8 0 8 -4034 -1 0;
#X obj 2 1 cnv 7 25 12 empty empty VIN1 0 8 0 8 -4034 -1 0;
#X obj 117 1 cnv 7 25 12 empty empty VIN2 0 8 0 8 -4034 -1 0;
#X obj 136 59 tgl 15 0 \$1pdp_frei0r_bypass_init empty bypass 17 7
0 8 -257985 -1 -228856 0 1;
#X obj 8 17 nbx 2 16 -1e+37 1e+37 0 0 empty \$1pdp_frei0r_nplugins
empty 0 -8 0 7 -33289 -262144 -228856 74 256;
#X obj 98 59 bng 15 250 50 0 \$1pdp_frei0r_index_up \$1pdp_frei0r_index_up_init
>> 17 7 0 9 -260097 -1 -262144;
#X obj 75 59 bng 15 250 50 0 \$1pdp_frei0r_index_down \$1pdp_frei0r_index_down_init
<< -17 7 0 9 -260097 -1 -262144;
#X connect 3 0 14 0;
#X connect 4 0 5 0;
#X connect 5 0 31 0;
#X connect 6 0 4 0;
#X connect 6 0 8 0;
#X connect 8 0 7 0;
#X connect 9 0 6 0;
#X connect 10 0 32 0;
#X connect 13 0 12 0;
#X connect 14 0 10 0;
#X connect 14 1 13 1;
#X connect 15 0 33 0;
#X connect 22 0 33 1;
#X connect 25 0 29 0;
#X connect 26 0 25 0;
#X connect 26 0 27 0;
#X connect 27 0 25 0;
#X connect 32 0 11 0;
#X connect 32 0 13 0;
#X connect 33 0 18 0;
#X connect 34 0 30 0;
#X connect 34 0 26 0;
#X connect 36 0 33 2;
#X connect 38 0 39 0;
#X coords 0 -1 1 1 200 80 1 0 0;
