#N canvas 485 388 484 344 10;
#X obj 0 0 cnv 15 160 60 empty empty mgempix_texture 40 8 0 9 -99865
-228856 0;
#X obj 129 40 cnv 15 25 15 empty \$1mgemtexture_id \$1 6 8 0 8 -260097
-33289 0;
#X obj 47 42 tgl 15 0 empty empty Configure 17 7 0 8 -260097 -1 -228856
0 1;
#X obj 77 172 symbol \$1;
#X symbolatom 77 201 0 0 0 0 - - -;
#X obj 77 136 bng 15 250 50 0 empty empty empty 0 -6 0 8 -262144 -1
-1;
#X symbolatom 174 201 0 0 0 0 - - -;
#X obj 174 172 symbol \$2;
#X obj 61 97 loadbang;
#X obj 206 224 f \$0;
#X symbolatom 213 265 0 0 0 0 - - -;
#X msg 206 315 \; \$1 vis \$2;
#X obj 206 286 pack symbol float;
#X obj 206 200 t b f;
#X obj 244 2 inlet;
#X obj 1 1 cnv 8 35 15 empty empty GemIN 0 8 0 8 -4034 -1 0;
#X obj 284 140 outlet;
#X obj 315 6 cnv 8 35 15 empty empty GemIN 0 8 0 8 -4034 -1 0;
#X obj 0 43 cnv 8 40 15 empty empty GemOUT 0 8 0 8 -258113 -262144
0;
#X obj 368 138 cnv 8 40 15 empty empty GemOUT 0 8 0 8 -258113 -262144
0;
#X obj 44 270 s \$1mgemtexture_id;
#X obj 205 243 makesymbol pd-\$1-mgem_texture_win;
#N canvas 1108 657 205 171 \$1-mgem_texture_win 0;
#X obj 38 11 inlet;
#X obj -6 149 outlet;
#X obj -8 8 mb-gem_pix_control_texture \$1;
#X connect 0 0 2 0;
#X connect 2 0 1 0;
#X restore 333 88 pd \$1-mgem_texture_win;
#X obj 10 22 tgl 15 0 \$1gempix_texture_on_init \$1gempix_texture_on_mini
Enable 17 7 0 8 -4034 -1 -228856 0 1;
#X obj 77 22 bng 15 250 50 0 \$1gempix_texture_reset_init empty reset
17 7 0 8 -257985 -1 -228856;
#X obj 33 304 init 1;
#X obj 35 332 s \$1gempix_texture_on_mini;
#X connect 2 0 13 0;
#X connect 3 0 4 0;
#X connect 4 0 20 0;
#X connect 5 0 3 0;
#X connect 5 0 7 0;
#X connect 7 0 6 0;
#X connect 8 0 5 0;
#X connect 9 0 21 0;
#X connect 12 0 11 0;
#X connect 13 0 9 0;
#X connect 13 1 12 1;
#X connect 14 0 22 0;
#X connect 21 0 10 0;
#X connect 21 0 12 0;
#X connect 22 0 16 0;
#X connect 25 0 26 0;
#X coords 0 -1 1 1 160 60 2 0 0;
