#N canvas 0 23 900 585 10;
#X declare -lib cyclone;
#X declare -lib soundhack;
#X obj 104 337 vs.scope~;
#X obj 118 126 vsl 15 128 -1 1 0 0 empty h1 1 0 -9 1 10 -262144 -1
-45076 0 1;
#X floatatom 56 92 5 0 0 0 - frequenza -;
#X obj 137 126 vsl 15 128 -1 1 0 0 empty h2 2 0 -9 1 10 -262144 -1
-45076 12700 1;
#X obj 155 126 vsl 15 128 -1 1 0 0 empty h3 3 0 -9 1 10 -262144 -1
-45076 12700 1;
#X obj 172 126 vsl 15 128 -1 1 0 0 empty h4 4 0 -9 1 10 -262144 -1
-45076 12700 1;
#X obj 189 126 vsl 15 128 -1 1 0 0 empty h5 5 4 -9 1 10 -262144 -1
-45076 12700 1;
#X obj 206 126 vsl 15 128 -1 1 0 0 empty h6 6 4 -9 1 10 -262144 -1
-45076 12700 1;
#N canvas 0 23 1360 647 Tropical 0;
#X obj 217 246 cyclone/cycle~ 100, f 9;
#X obj 227 428 cyclone/minimum~, f 8;
#X obj 226 403 +~;
#X obj 279 157 vsl 15 128 -1 1 0 0 empty empty empty 0 -9 0 10 -262144
-1 -1 0 1;
#X floatatom 216 74 5 0 0 0 - - -;
#X obj 313 246 cyclone/cycle~ 100, f 9;
#X obj 315 403 +~;
#X obj 376 157 vsl 15 128 -1 1 0 0 empty empty empty 0 -9 0 10 -262144
-1 -1 12700 1;
#X floatatom 313 195 5 0 0 0 - - -;
#X obj 313 173 * 2;
#X floatatom 269 101 5 0 1 0 - - -;
#X floatatom 363 101 5 0 1 0 - - -;
#X obj 361 632 *~ 0.4;
#X obj 406 246 cyclone/cycle~ 100, f 9;
#X obj 415 403 +~;
#X obj 469 157 vsl 15 128 -1 1 0 0 empty empty empty 0 -9 0 10 -262144
-1 -1 12700 1;
#X floatatom 406 195 5 0 0 0 - - -;
#X floatatom 456 101 5 0 0 0 - - -;
#X obj 496 246 cyclone/cycle~ 100, f 9;
#X obj 505 403 +~;
#X obj 559 157 vsl 15 128 -1 1 0 0 empty empty empty 0 -9 0 10 -262144
-1 -1 12700 1;
#X floatatom 496 195 5 0 0 0 - - -;
#X floatatom 546 101 5 0 0 0 - - -;
#X obj 591 246 cyclone/cycle~ 100, f 9;
#X obj 600 403 +~;
#X obj 654 157 vsl 15 128 -1 1 0 0 empty empty empty 0 -9 0 10 -262144
-1 -1 12700 1;
#X floatatom 591 195 5 0 0 0 - - -;
#X floatatom 641 101 5 0 0 0 - - -;
#X obj 681 246 cyclone/cycle~ 100, f 9;
#X obj 690 403 +~;
#X obj 744 157 vsl 15 128 -1 1 0 0 empty empty empty 0 -9 0 10 -262144
-1 -1 12700 1;
#X floatatom 681 195 5 0 0 0 - - -;
#X floatatom 731 101 5 0 0 0 - - -;
#X obj 370 429 cyclone/minimum~, f 8;
#X obj 460 430 cyclone/minimum~, f 8;
#X obj 532 432 cyclone/minimum~, f 8;
#X obj 406 173 * 3;
#X obj 496 173 * 4;
#X obj 591 173 * 5;
#X obj 681 173 * 6;
#X obj 632 433 cyclone/minimum~, f 8;
#X floatatom 423 570 5 0 0 0 - - -;
#X obj 360 674 +~;
#X obj 128 173 vsl 15 128 -2 3 0 0 empty empty empty 0 -9 0 10 -262144
-1 -1 6350 1;
#X obj 179 43 inlet;
#X obj 216 43 inlet;
#X obj 252 43 inlet;
#X obj 289 43 inlet;
#X obj 325 42 inlet;
#X obj 361 42 inlet;
#X obj 397 42 inlet;
#X obj 590 41 inlet;
#X obj 627 41 inlet;
#X obj 84 120 loadbang 1;
#X msg 84 143 1;
#X msg 128 148 0;
#X obj 359 720 outlet~, f 23;
#X obj 776 246 cyclone/cycle~ 100, f 9;
#X obj 785 403 +~;
#X obj 839 157 vsl 15 128 -1 1 0 0 empty empty empty 0 -9 0 10 -262144
-1 -1 12700 1;
#X floatatom 776 195 5 0 0 0 - - -;
#X floatatom 826 101 5 0 0 0 - - -;
#X obj 727 433 cyclone/minimum~, f 8;
#X obj 870 245 cyclone/cycle~ 100, f 9;
#X obj 879 402 +~;
#X obj 933 156 vsl 15 128 -1 1 0 0 empty empty empty 0 -9 0 10 -262144
-1 -1 12700 1;
#X floatatom 870 194 5 0 0 0 - - -;
#X floatatom 920 100 5 0 0 0 - - -;
#X obj 821 432 cyclone/minimum~, f 8;
#X obj 964 245 cyclone/cycle~ 100, f 9;
#X obj 973 402 +~;
#X obj 1027 156 vsl 15 128 -1 1 0 0 empty empty empty 0 -9 0 10 -262144
-1 -1 12700 1;
#X floatatom 964 194 5 0 0 0 - - -;
#X floatatom 1014 100 5 0 0 0 - - -;
#X obj 915 432 cyclone/minimum~, f 8;
#X obj 1060 246 cyclone/cycle~ 100, f 9;
#X obj 1069 403 +~;
#X obj 1123 157 vsl 15 128 -1 1 0 0 empty empty empty 0 -9 0 10 -262144
-1 -1 12700 1;
#X floatatom 1060 195 5 0 0 0 - - -;
#X floatatom 1110 101 5 0 0 0 - - -;
#X obj 1011 433 cyclone/minimum~, f 8;
#X obj 434 41 inlet;
#X obj 470 40 inlet;
#X obj 506 40 inlet;
#X obj 542 40 inlet;
#X obj 359 695 cyclone/tanh~;
#X obj 404 657 line~;
#X obj 403 632 pack 0 100;
#X obj 241 382 line~;
#X obj 242 359 pack 0 100;
#X obj 344 380 line~;
#X obj 345 357 pack 0 100;
#X obj 442 374 line~;
#X obj 443 351 pack 0 100;
#X obj 545 372 line~;
#X obj 546 349 pack 0 100;
#X obj 626 376 line~;
#X obj 627 353 pack 0 100;
#X obj 729 374 line~;
#X obj 730 351 pack 0 100;
#X obj 827 368 line~;
#X obj 828 345 pack 0 100;
#X obj 930 366 line~;
#X obj 931 343 pack 0 100;
#X obj 1015 366 line~;
#X obj 1016 343 pack 0 100;
#X obj 1118 364 line~;
#X obj 1119 341 pack 0 100;
#X msg 281 133 -1;
#X msg 260 73 1;
#X obj 776 173 * 7;
#X obj 870 172 * 8;
#X obj 964 172 * 9;
#X obj 1060 173 * 10;
#X obj 423 544 - 1, f 43;
#X obj 423 596 selector~ 10, f 21;
#X obj 672 627 declare -lib cyclone;
#X connect 0 0 2 0;
#X connect 1 0 33 0;
#X connect 1 0 115 1;
#X connect 2 0 1 0;
#X connect 3 0 89 0;
#X connect 4 0 0 0;
#X connect 4 0 9 0;
#X connect 4 0 36 0;
#X connect 4 0 37 0;
#X connect 4 0 38 0;
#X connect 4 0 39 0;
#X connect 4 0 110 0;
#X connect 4 0 111 0;
#X connect 4 0 112 0;
#X connect 4 0 113 0;
#X connect 5 0 6 0;
#X connect 6 0 1 1;
#X connect 7 0 91 0;
#X connect 8 0 5 0;
#X connect 9 0 8 0;
#X connect 10 0 0 1;
#X connect 11 0 5 1;
#X connect 12 0 42 0;
#X connect 13 0 14 0;
#X connect 14 0 33 1;
#X connect 15 0 93 0;
#X connect 16 0 13 0;
#X connect 17 0 13 1;
#X connect 18 0 19 0;
#X connect 19 0 34 1;
#X connect 20 0 95 0;
#X connect 21 0 18 0;
#X connect 22 0 18 1;
#X connect 23 0 24 0;
#X connect 24 0 35 1;
#X connect 25 0 97 0;
#X connect 26 0 23 0;
#X connect 27 0 23 1;
#X connect 28 0 29 0;
#X connect 29 0 40 1;
#X connect 30 0 99 0;
#X connect 31 0 28 0;
#X connect 32 0 28 1;
#X connect 33 0 34 0;
#X connect 33 0 115 2;
#X connect 34 0 35 0;
#X connect 34 0 115 3;
#X connect 35 0 40 0;
#X connect 35 0 115 4;
#X connect 36 0 16 0;
#X connect 37 0 21 0;
#X connect 38 0 26 0;
#X connect 39 0 31 0;
#X connect 40 0 62 0;
#X connect 40 0 115 5;
#X connect 41 0 115 0;
#X connect 42 0 85 0;
#X connect 43 0 87 0;
#X connect 44 0 4 0;
#X connect 45 0 3 0;
#X connect 46 0 7 0;
#X connect 47 0 15 0;
#X connect 48 0 20 0;
#X connect 49 0 25 0;
#X connect 50 0 30 0;
#X connect 51 0 43 0;
#X connect 52 0 114 0;
#X connect 53 0 54 0;
#X connect 53 0 55 0;
#X connect 54 0 41 0;
#X connect 55 0 43 0;
#X connect 57 0 58 0;
#X connect 58 0 62 1;
#X connect 59 0 101 0;
#X connect 60 0 57 0;
#X connect 61 0 57 1;
#X connect 62 0 68 0;
#X connect 62 0 115 6;
#X connect 63 0 64 0;
#X connect 64 0 68 1;
#X connect 65 0 103 0;
#X connect 66 0 63 0;
#X connect 67 0 63 1;
#X connect 68 0 74 0;
#X connect 68 0 115 7;
#X connect 69 0 70 0;
#X connect 70 0 74 1;
#X connect 71 0 105 0;
#X connect 72 0 69 0;
#X connect 73 0 69 1;
#X connect 74 0 80 0;
#X connect 74 0 115 8;
#X connect 75 0 76 0;
#X connect 76 0 80 1;
#X connect 77 0 107 0;
#X connect 78 0 75 0;
#X connect 79 0 75 1;
#X connect 80 0 115 9;
#X connect 81 0 59 0;
#X connect 82 0 65 0;
#X connect 83 0 71 0;
#X connect 84 0 77 0;
#X connect 85 0 56 0;
#X connect 86 0 42 1;
#X connect 87 0 86 0;
#X connect 88 0 2 1;
#X connect 89 0 88 0;
#X connect 90 0 6 1;
#X connect 91 0 90 0;
#X connect 92 0 14 1;
#X connect 93 0 92 0;
#X connect 94 0 19 1;
#X connect 95 0 94 0;
#X connect 96 0 24 1;
#X connect 97 0 96 0;
#X connect 98 0 29 1;
#X connect 99 0 98 0;
#X connect 100 0 58 1;
#X connect 101 0 100 0;
#X connect 102 0 64 1;
#X connect 103 0 102 0;
#X connect 104 0 70 1;
#X connect 105 0 104 0;
#X connect 106 0 76 1;
#X connect 107 0 106 0;
#X connect 108 0 3 0;
#X connect 109 0 7 0;
#X connect 109 0 15 0;
#X connect 109 0 20 0;
#X connect 109 0 25 0;
#X connect 109 0 30 0;
#X connect 109 0 59 0;
#X connect 109 0 65 0;
#X connect 109 0 71 0;
#X connect 109 0 77 0;
#X connect 110 0 60 0;
#X connect 111 0 66 0;
#X connect 112 0 72 0;
#X connect 113 0 78 0;
#X connect 114 0 41 0;
#X connect 115 0 12 0;
#X restore 56 298 pd Tropical;
#X obj 293 127 vsl 15 128 -2 3 0 0 empty dc DC_offset 0 -9 1 10 -262144
-4160 -45076 6350 1;
#X floatatom 297 320 5 0 0 0 - - -;
#X floatatom 311 244 5 1 10 0 - number -;
#X obj 223 126 vsl 15 128 -1 1 0 0 empty h7 7 5 -9 1 10 -262144 -1
-45076 12700 1;
#X obj 240 126 vsl 15 128 -1 1 0 0 empty h8 8 5 -9 1 10 -262144 -1
-45076 12700 1;
#X obj 257 126 vsl 15 128 -1 1 0 0 empty h9 9 5 -9 1 10 -262144 -1
-45076 12700 1;
#X obj 274 126 vsl 15 128 -1 1 0 0 empty h10 10 3 -9 1 10 -262144 -1
-45076 12700 1;
#X obj 720 819;
#X obj 720 841;
#X obj 720 819;
#X obj 16 454 dac~;
#X obj 128 464 vs.spectroscope~;
#X text 311 225 # of Oscillators;
#X text 53 75 Frequency;
#X text 67 211 0-;
#X text 69 146 1-;
#X text 64 272 -1-;
#N canvas 958 116 450 300 presets 1;
#X obj 27 47 loadbang;
#X msg 125 76 \; frequenza 200 \; h1 1 \; h2 -1 \; h3 -1 \; h4 -1 \;
h5 -1 \; h6 -1 \; h7 -1 \; h8 -1 \; h9 -1 \; h10 -1 \; dc 0.5 \; number
10 \;;
#X msg 27 75 \; frequenza 200 \; h1 -1 \; h2 1 \; h3 1 \; h4 1 \; h5
1 \; h6 1 \; h7 1 \; h8 1 \; h9 1 \; h10 1 \; dc 0.5 \; number 10 \;
;
#X connect 0 0 2 0;
#X restore 309 442 pd presets;
#X text 432 330 INTRODUCTION Tropical mathematics is an exciting new
field based on the so-called min-plus algebra with several applications
in applied mathematics \, including control theory \, optimization
and mathematical physics.The adjective “tropical” was coined by
French mathematicians \, including Jean- Eric Pin \, in the honor of
their Brazilian colleague Imre Simon \, who was one of the pioneers
in min-plus algebra. There is no deeper meaning in the adjective “tropical”.
It simply stands for the French view of Brazil. The concept of “tropicalization”
consists to replace our usual addition and multiplications with the
tropical ones. We talk \, for example \, of Tropical Geometry \, when
we tropicalize objects (such as varieties and ideals) in Algebraic
Geometry.;
#X text 436 99 • Virtual Sound Library is also required for scopes
and spectroscopes visualization.;
#X text 506 15 Cristiano Bocci e Giorgio Sancristoforo - 2017 •;
#X text 122 15 Applications of tropical mathematics in sound synthesis
;
#X text 42 14 trop(x[n]);
#X text 435 61 • In order to use these patches please make sure to
have the latest Cyclone library installed in your system.;
#X text 432 512 The idea of this work is to apply the tropicalization
process to concepts in Sound Synthesis. Not every concept can be tropicalized
or \, eventually \, tropicalization will lead to something not so useful
or not so new. For example \, as will be clearer later \, the tropicalization
of the ring modulation of two waveforms is simply their sum. In general
\, every process in sound synthesis involving products of waveforms
will reduce \, after tropicalization \, to the sum of waveforms. Instead
\, processes involving sum of waveforms will lead to processes involving
the minimum of these waveforms \, an operation less common in sound
synthesis. Thus \, a natural target of the tropicalization process
is Additive Synthesis \, leading to something that we call Tropical
Additive Synthesis.;
#X obj 611 265 declare -lib soundhack;
#X obj 16 337 *~ 0.5;
#X connect 1 0 8 1;
#X connect 2 0 8 0;
#X connect 3 0 8 2;
#X connect 4 0 8 3;
#X connect 5 0 8 4;
#X connect 6 0 8 5;
#X connect 7 0 8 6;
#X connect 8 0 0 0;
#X connect 8 0 20 0;
#X connect 8 0 35 0;
#X connect 9 0 8 11;
#X connect 10 0 0 1;
#X connect 11 0 8 12;
#X connect 12 0 8 7;
#X connect 13 0 8 8;
#X connect 14 0 8 9;
#X connect 15 0 8 10;
#X connect 16 0 17 0;
#X connect 35 0 19 0;
#X connect 35 0 19 1;
