#N canvas 215 280 1002 530 16;
#N canvas 275 22 823 720 hanning-window 0;
#X obj 92 206 phasor~;
#X obj 92 234 cos~;
#X obj 23 328 tabwrite~ hanning;
#X obj 30 252 -~;
#X obj 28 218 sig~ 1;
#X msg 37 180 0;
#X text 141 13 CALCULATE HANNING;
#X text 141 27 WINDOW TABLE;
#N canvas 0 22 450 300 (subpatch) 0;
#X array hanning 2048 float 0;
#X coords 0 1 2047 -1 400 300 1;
#X restore 275 281 graph;
#X obj 93 171 sig~;
#X text 175 148 sample rate / window size;
#X msg 23 144 bang;
#X obj 66 269 sig~ 0.5;
#X obj 49 300 *~;
#X obj 67 96 samplerate~;
#X obj 24 11 r window-size;
#X msg 174 95 \; hanning resize \$1;
#X obj 25 53 t b f f;
#X obj 93 131 / 1024;
#X connect 0 0 1 0;
#X connect 1 0 3 1;
#X connect 3 0 13 0;
#X connect 4 0 3 0;
#X connect 5 0 0 1;
#X connect 9 0 0 0;
#X connect 11 0 2 0;
#X connect 11 0 5 0;
#X connect 12 0 13 1;
#X connect 13 0 2 0;
#X connect 14 0 18 0;
#X connect 15 0 17 0;
#X connect 17 0 14 0;
#X connect 17 0 11 0;
#X connect 17 1 18 1;
#X connect 17 2 16 0;
#X connect 18 0 9 0;
#X restore 196 116 pd hanning-window;
#X floatatom 32 13 5 0 0 0 - - -, f 5;
#X msg 392 65 \; window-size 2048;
#X msg 203 64 \; window-size 512;
#X obj 31 39 phasor~ 440;
#X obj 28 364 output~;
#X obj 251 273 spectdisp;
#X obj 637 231 metro 200;
#X obj 633 205 tgl 15 0 empty empty empty 17 7 0 10 -262144 -1 -1 1
1;
#X obj 28 155 linearphasefilter01;
#X obj 53 84 playsound~;
#X obj 203 32 loadbang;
#X connect 1 0 4 0;
#X connect 4 0 9 0;
#X connect 7 0 6 1;
#X connect 8 0 7 0;
#X connect 9 0 5 0;
#X connect 9 0 5 1;
#X connect 9 0 6 0;
#X connect 10 0 9 0;
#X connect 11 0 3 0;
