#N canvas 467 231 325 292 10;
#X obj 107 63 openpanel;
#X msg 75 160 open \$1;
#X msg 2 104 1;
#X msg 40 105 0;
#X obj 78 106 symbol;
#X obj 2 62 t b b;
#X obj 3 5 bng 20 250 50 0 empty empty P 22 11 0 14 -204786 -1 -1;
#X obj 36 5 bng 20 250 50 0 empty empty S 22 11 0 14 -261234 -1 -1
;
#X obj 68 5 bng 20 250 50 0 empty empty O 22 11 0 14 -262130 -1 -1
;
#X obj 74 193 readsf~ 2;
#X obj 113 7 inlet;
#X obj 153 7 inlet;
#X obj 193 6 inlet;
#X obj 79 244 outlet~;
#X obj 132 244 outlet~;
#X connect 0 0 4 1;
#X connect 1 0 9 0;
#X connect 2 0 9 0;
#X connect 3 0 9 0;
#X connect 4 0 1 0;
#X connect 5 0 2 0;
#X connect 5 1 4 0;
#X connect 6 0 5 0;
#X connect 7 0 3 0;
#X connect 8 0 0 0;
#X connect 9 0 13 0;
#X connect 9 1 14 0;
#X connect 10 0 6 0;
#X connect 11 0 7 0;
#X connect 12 0 8 0;
#X coords 0 -1 1 1 100 30 2 0 0;
