#N canvas 591 436 913 660 10;
#X obj 20 46 inlet~;
#X obj 95 214 inlet;
#X obj 29 92 rfft~;
#X obj 29 125 *~;
#X obj 60 125 *~;
#X obj 29 155 sqrt~;
#X obj 29 181 biquad~ 0 0 0 0 1;
#X text 93 93 Fourier series;
#X text 98 146 magnitude;
#X text 96 131 calculate;
#X text 21 3 This subpatch computes the spectrum of the incoming signal
with a (rectangular windowed) FFT. FFTs aren't properly introduced
until much later.;
#X text 83 61 signal to analyze;
#X text 192 166 delay two samples;
#X text 191 182 for better graphing;
#X obj 16 425 samplerate~;
#X obj 16 402 bng 18 250 50 0 empty empty empty 0 -6 0 8 -262144 -1
-1;
#X floatatom 16 472 5 0 0 0 - - -;
#X obj 16 448 / 256;
#X obj 16 378 loadbang;
#X floatatom 16 541 5 0 0 0 - - -;
#X obj 24 494 s fundamental;
#X obj 16 517 ftom;
#X text 14 319 At load time \, calculate a good choice of fundamental
frequency for showing spectra: the 16th bin in a 4096-point spectrum
\, so SR*16/4096 or SR/256.;
#X text 145 216 "bang" into this inlet to graph it;
#X floatatom 122 494 5 0 0 0 - - -;
#X obj 122 470 / 4096;
#X text 118 439 One bin is SR/4096:;
#X text 72 540 <-just out of curiosity \, here's the fundamental pitch
;
#X obj 122 516 s freq-step;
#X obj 99 275 tabwrite~ spectrum;
#N canvas 0 22 450 300 (subpatch) 0;
#X array spectrum 2048 float 2;
#X coords 0 166 2048 99 400 140 1;
#X restore 435 125 graph;
#X obj 332 109 block~ 4096 4;
#X obj 34 211 rmstodb~;
#X obj 32 69 *~;
#X obj 36 235 clip~ 100 170;
#X obj 514 481 phasor~;
#X obj 514 509 cos~;
#X obj 452 527 -~;
#X obj 450 493 sig~ 1;
#X msg 459 455 0;
#X text 564 303 WINDOW TABLE;
#X obj 512 453 sig~;
#X text 604 448 sample rate / window size;
#X msg 445 419 bang;
#X obj 488 544 sig~ 0.5;
#X obj 471 575 *~;
#X obj 489 371 samplerate~;
#X obj 447 328 t b f f;
#X obj 515 406 / 4096;
#X obj 447 277 bng 15 250 50 0 empty empty empty 17 7 0 10 -262144
-1 -1;
#X floatatom 566 450 5 0 0 0 - - -;
#X obj 502 428 * 4;
#X msg 448 304 4096;
#X obj 477 275 loadbang;
#X obj 574 275 table \$0hanningspect 4096;
#X obj 595 402 s \$0hanningspect;
#X msg 596 370 resize \$1;
#X obj 445 603 tabwrite~ \$0hanningspect;
#X obj 77 41 tabreceive~ \$0hanningspect;
#X connect 0 0 33 0;
#X connect 1 0 29 0;
#X connect 2 0 3 0;
#X connect 2 0 3 1;
#X connect 2 1 4 0;
#X connect 2 1 4 1;
#X connect 3 0 5 0;
#X connect 4 0 5 0;
#X connect 5 0 6 0;
#X connect 6 0 32 0;
#X connect 14 0 17 0;
#X connect 14 0 25 0;
#X connect 15 0 14 0;
#X connect 16 0 20 0;
#X connect 16 0 21 0;
#X connect 17 0 16 0;
#X connect 18 0 15 0;
#X connect 21 0 19 0;
#X connect 24 0 28 0;
#X connect 25 0 24 0;
#X connect 32 0 34 0;
#X connect 33 0 2 0;
#X connect 34 0 29 0;
#X connect 35 0 36 0;
#X connect 36 0 37 1;
#X connect 37 0 45 0;
#X connect 38 0 37 0;
#X connect 39 0 35 1;
#X connect 41 0 35 0;
#X connect 43 0 39 0;
#X connect 43 0 57 0;
#X connect 44 0 45 1;
#X connect 45 0 57 0;
#X connect 46 0 48 0;
#X connect 47 0 46 0;
#X connect 47 0 43 0;
#X connect 47 1 48 1;
#X connect 47 2 56 0;
#X connect 48 0 50 0;
#X connect 48 0 51 0;
#X connect 49 0 52 0;
#X connect 51 0 41 0;
#X connect 52 0 47 0;
#X connect 53 0 52 0;
#X connect 56 0 55 0;
#X connect 58 0 33 1;
#X coords 0 -1 1 1 400 140 2 435 125;
