#N canvas 222 179 1025 541 10;
#X obj 315 222 list prepend add;
#X obj 316 244 list trim;
#X obj 315 199 list prepend;
#X msg 447 176 clear;
#X msg 240 337 tempo \$1;
#X obj 227 476 outlet;
#X obj 242 449 spigot;
#X obj 296 34 inlet;
#X msg 124 201 1;
#X obj 124 174 initbang;
#X obj 296 128 t b a b;
#X obj 315 354 qlist;
#X obj 117 117 tgl 10 0 \$0-loop \$0-loop-in loop 12 5 0 10 -262144
-1 -1 1 1;
#X obj 386 371 spigot;
#X obj 384 155 timer;
#X obj 66 117 hradio 10 1 0 3 \$0-mode \$0-mode-in empty 0 -8 0 10
-262144 -191407 -1 0;
#X obj 78 122 cnv 1 1 1 empty rdv > -1 0 0 14 -262144 -2882 0;
#X obj 93 123 cnv 1 1 1 empty empty . -10 -20 2 70 -262144 -258113
0;
#X obj 601 92 r \$0-mode;
#X obj 240 295 r \$0-speed;
#X obj 419 351 r \$0-loop;
#X obj 124 250 s \$0-speed-in;
#X obj 131 224 s \$0-loop-in;
#X obj 386 392 bng 15 250 50 0 empty empty empty 17 7 0 10 -262144
-1 -1;
#X obj 315 176 list prepend \$0-rec;
#X obj 365 45 r \$0-mode;
#X obj 392 87 sel 2;
#X obj 296 108 spigot;
#X obj 329 86 == 2;
#X obj 242 384 r \$0-rec;
#X obj 275 409 r \$0-mode;
#X obj 275 428 == 1;
#X text 291 5 Record data into a text file \; -----------------------------
;
#X obj 601 112 sel 1 0;
#X obj 620 239 spigot;
#X msg 653 214 1;
#X obj 566 151 t b b;
#X obj 620 258 t b b;
#X msg 667 240 0;
#X text 596 60 Stop \, play \; ----------;
#X obj 365 65 t f f;
#X obj 392 110 t b b b;
#X obj 114 442 s \$0-cnv-speed;
#X msg 114 420 label \$1;
#X obj 114 334 * 100;
#X obj 114 376 / 100;
#X obj 114 354 i;
#X obj 114 398 makefilename %s;
#X obj 227 169 spigot;
#X obj 215 65 r \$0-mode;
#X msg 232 131 1;
#X msg 260 131 0;
#X obj 215 90 sel 0 1 2;
#X obj 66 130 nbx 5 10 -1e+37 1e+37 0 0 \$0-speed \$0-speed-in speed
42 7 1 8 -262144 -1 -1 1 256;
#X obj 799 129 s \$0-mode-in;
#X obj 741 66 inlet;
#X obj 799 83 route mode speed loop;
#X obj 840 107 s \$0-speed-in;
#X obj 881 139 s \$0-loop-in;
#X text 741 31 Command \; ----------;
#X msg 452 271 read data-sampler.txt \, bang;
#X msg 620 278 write data-sampler.txt;
#X connect 0 0 1 0;
#X connect 1 0 11 0;
#X connect 2 0 0 0;
#X connect 3 0 11 0;
#X connect 4 0 11 0;
#X connect 6 0 5 0;
#X connect 7 0 27 0;
#X connect 7 0 48 0;
#X connect 8 0 21 0;
#X connect 8 0 22 0;
#X connect 9 0 8 0;
#X connect 10 0 14 0;
#X connect 10 1 24 0;
#X connect 10 2 14 1;
#X connect 11 1 13 0;
#X connect 13 0 23 0;
#X connect 14 0 2 1;
#X connect 18 0 33 0;
#X connect 19 0 44 0;
#X connect 19 0 4 0;
#X connect 20 0 13 1;
#X connect 23 0 11 0;
#X connect 24 0 2 0;
#X connect 25 0 40 0;
#X connect 26 0 41 0;
#X connect 27 0 10 0;
#X connect 28 0 27 1;
#X connect 29 0 6 0;
#X connect 30 0 31 0;
#X connect 31 0 6 1;
#X connect 33 0 36 0;
#X connect 33 1 34 0;
#X connect 34 0 37 0;
#X connect 35 0 34 1;
#X connect 36 0 60 0;
#X connect 36 1 34 0;
#X connect 37 0 61 0;
#X connect 37 1 38 0;
#X connect 38 0 34 1;
#X connect 40 0 28 0;
#X connect 40 1 26 0;
#X connect 41 0 14 0;
#X connect 41 1 3 0;
#X connect 41 2 35 0;
#X connect 43 0 42 0;
#X connect 44 0 46 0;
#X connect 45 0 47 0;
#X connect 46 0 45 0;
#X connect 47 0 43 0;
#X connect 48 0 5 0;
#X connect 49 0 52 0;
#X connect 50 0 48 1;
#X connect 51 0 48 1;
#X connect 52 0 50 0;
#X connect 52 1 51 0;
#X connect 52 2 50 0;
#X connect 55 0 56 0;
#X connect 56 0 54 0;
#X connect 56 1 57 0;
#X connect 56 2 58 0;
#X connect 60 0 11 0;
#X connect 61 0 11 0;
#X coords 0 -1 1 1 97 45 1 60 100;
