#N canvas 578 231 450 300 10;
#X obj 70 217 outlet;
#X obj 70 118 inlet;
#X obj 127 117 f \$1;
#X obj 127 59 inlet;
#X text 78 11 default =>> 100ms;
#X text 69 98 data;
#X text 126 43 time;
#X obj 70 188 line;
#X obj 152 89 initbang;
#X obj 70 165 pack f 100;
#X obj 127 138 moses 0.001;
#X connect 1 0 9 0;
#X connect 2 0 10 0;
#X connect 3 0 2 0;
#X connect 7 0 0 0;
#X connect 8 0 2 0;
#X connect 9 0 7 0;
#X connect 10 1 9 1;
