#N canvas 86 276 1106 386 10;
#X obj 56 209 tgl 15 0 \$0-play \$0-play-in Play 17 7 0 10 -204786
-1 -1 0 1;
#X obj 105 209 tgl 15 0 \$0-rec \$0-rec-in Record 17 7 0 10 -261234
-258113 -1 0 1;
#X obj 56 192 bng 15 250 50 0 \$0-open \$0-open-in Open 17 7 0 10 -204786
-1 -1;
#X obj 105 192 bng 15 250 50 0 \$0-new \$0-new-in New 17 7 0 10 -261234
-258113 -1;
#X obj 381 315 outlet;
#X obj 613 257 outlet;
#X obj 305 246 midiout;
#X obj 302 176 midiin;
#X obj 402 218 cyclone/seq;
#X obj 723 56 inlet;
#X obj 840 167 symbol;
#X obj 56 226 tgl 15 0 \$0-loop \$0-loop-in Loop 17 7 0 10 -204786
-1 -1 1 1;
#X obj 612 280 r \$0-loop;
#X obj 586 235 t b b;
#X obj 586 303 s \$0-play-in;
#X obj 586 280 f;
#X obj 723 261 s \$0-play-in;
#X obj 762 237 s \$0-loop-in;
#X obj 801 216 s \$0-rec-in;
#X text 713 39 COMMANDES;
#X obj 105 226 nbx 4 14 0 20 0 0 \$0-rec-time \$0-rec-time-in Time
47 7 0 10 -261234 -258113 -1 5 256;
#X obj 402 23 inlet;
#X text 667 255 end;
#X obj 879 144 s \$0-rec-time-in;
#X obj 105 242 cnv 1 1 5 empty \$0-cnv-rec empty 20 12 0 14 -258113
-66577 0;
#N canvas 10 136 822 542 \$0-RECORD 0;
#X obj 215 -122 sel 1 0;
#X msg 215 13 record;
#X msg 263 5 stop record;
#X obj 215 -142 r \$0-rec;
#X obj 244 -16 s \$0-write;
#X text 214 -160 RECORD;
#X obj 371 -1 del;
#X obj 534 -9 moses 1;
#X obj 371 40 s \$0-rec-in;
#X msg 371 20 0;
#X msg 371 -24 stop;
#X obj 527 61 r \$0-rec-time;
#X text 529 -87 rec time (second);
#X obj 566 111 * 1000;
#X obj 447 -163 s \$0-cnv-rec;
#X msg 447 -186 vis_size \$1 5;
#X obj 447 -208 line;
#X msg 412 -226 stop;
#X obj 460 -292 r \$0-rec-time;
#X obj 447 -252 f;
#X obj 460 -273 * 1000;
#X obj 546 -209 initbang;
#X msg 542 -186 0;
#X obj 215 -91 t b b b;
#X obj 244 -44 t b b b b;
#X msg 447 -232 0 \, 46 \$1;
#X text 441 -315 Red canvas;
#X obj 259 105 outlet;
#X obj 363 -76 r \$0-file-in;
#X obj 363 -51 b;
#X obj 533 -69 initbang;
#X obj 533 -28 f \$1;
#X obj 573 13 s \$0-rec-time-in;
#X obj 527 87 moses 1;
#X obj 533 -48 delay 1;
#X connect 0 0 23 0;
#X connect 0 1 24 0;
#X connect 1 0 27 0;
#X connect 2 0 27 0;
#X connect 3 0 0 0;
#X connect 6 0 9 0;
#X connect 7 1 32 0;
#X connect 9 0 8 0;
#X connect 10 0 6 0;
#X connect 11 0 33 0;
#X connect 13 0 6 1;
#X connect 15 0 14 0;
#X connect 16 0 15 0;
#X connect 17 0 16 0;
#X connect 18 0 20 0;
#X connect 19 0 25 0;
#X connect 20 0 19 1;
#X connect 21 0 22 0;
#X connect 22 0 15 0;
#X connect 23 0 1 0;
#X connect 23 1 6 0;
#X connect 23 2 19 0;
#X connect 24 0 4 0;
#X connect 24 1 2 0;
#X connect 24 2 10 0;
#X connect 24 3 17 0;
#X connect 25 0 16 0;
#X connect 28 0 29 0;
#X connect 29 0 2 0;
#X connect 29 0 10 0;
#X connect 29 0 17 0;
#X connect 30 0 34 0;
#X connect 31 0 7 0;
#X connect 33 1 13 0;
#X connect 34 0 31 0;
#X restore 434 161 pd \$0-RECORD;
#N canvas 13 119 450 300 \$0-PLAY 0;
#X msg 150 150 bang;
#X msg 214 123 stop;
#X obj 157 88 sel 1 0;
#X obj 174 42 r \$0-play;
#X text 152 37 PLAY;
#X obj 266 207 s \$0-bg-read;
#X obj 156 127 t b b;
#X obj 182 221 outlet;
#X obj 255 98 r \$0-file-in;
#X obj 254 121 b;
#X obj 222 76 change;
#X obj 156 65 t f f;
#X obj 267 175 sel 1;
#X connect 0 0 7 0;
#X connect 1 0 7 0;
#X connect 2 0 6 0;
#X connect 2 1 1 0;
#X connect 3 0 11 0;
#X connect 6 0 0 0;
#X connect 8 0 9 0;
#X connect 9 0 1 0;
#X connect 10 0 12 0;
#X connect 11 0 2 0;
#X connect 11 1 10 0;
#X connect 12 0 5 0;
#X restore 433 140 pd \$0-PLAY;
#N canvas 82 51 1014 591 \$0-FILE 0;
#X msg 100 349 write \$1;
#X obj 100 325 symbol;
#X msg 165 351 read \$1;
#X obj 165 323 symbol;
#X obj 323 59 openpanel;
#X obj 421 62 initbang;
#X obj 497 104 symbol;
#X obj 422 127 select symbol;
#X obj 147 53 savepanel;
#X obj 100 299 r \$0-write;
#X obj 198 295 r \$0-file;
#X obj 499 411 s \$0-file;
#X obj 323 35 r \$0-open;
#X obj 147 32 r \$0-new;
#X text 100 277 FILENAME;
#X obj 165 256 r \$0-bg-read;
#X obj 586 564 s \$0-cnv-file;
#X msg 661 532 label \$1;
#X obj 480 277 hcs/file_type;
#X obj 425 178 t b a a;
#X obj 480 299 sel file;
#X obj 480 321 symbol;
#X obj 100 384 outlet;
#X obj 231 38 r \$0-file-in;
#X obj 480 376 t b a b;
#X msg 586 533 color 10 1;
#X obj 610 115 symbol;
#X text 420 43 Test symbol argument;
#X obj 625 403 makefilename FILE:%s;
#X obj 544 379 hcs/split_path;
#X obj 588 324 symbol;
#X msg 555 300 bang;
#X obj 713 358 s \$0-file;
#X obj 758 326 hcs/split_path;
#X obj 839 351 makefilename NEW_FILE:%s;
#X msg 729 533 color 3 13;
#X obj 750 284 t a a b;
#X obj 422 106 symbol \$2;
#X obj 480 256 tof/path;
#X obj 422 82 t b b b;
#X obj 584 92 t b b;
#X connect 0 0 22 0;
#X connect 1 0 0 0;
#X connect 2 0 22 0;
#X connect 3 0 2 0;
#X connect 4 0 19 0;
#X connect 5 0 39 0;
#X connect 6 0 7 1;
#X connect 7 1 19 0;
#X connect 8 0 19 0;
#X connect 9 0 1 0;
#X connect 10 0 1 1;
#X connect 10 0 3 1;
#X connect 12 0 4 0;
#X connect 13 0 8 0;
#X connect 15 0 3 0;
#X connect 17 0 16 0;
#X connect 18 0 20 0;
#X connect 18 1 31 0;
#X connect 19 1 38 0;
#X connect 19 2 21 1;
#X connect 19 2 30 1;
#X connect 20 0 21 0;
#X connect 21 0 24 0;
#X connect 23 0 19 0;
#X connect 24 1 11 0;
#X connect 24 1 29 0;
#X connect 24 2 25 0;
#X connect 25 0 16 0;
#X connect 26 0 17 0;
#X connect 28 0 17 0;
#X connect 29 1 28 0;
#X connect 30 0 36 0;
#X connect 31 0 30 0;
#X connect 33 1 34 0;
#X connect 34 0 17 0;
#X connect 35 0 16 0;
#X connect 36 0 32 0;
#X connect 36 1 33 0;
#X connect 36 2 35 0;
#X connect 37 0 7 0;
#X connect 38 0 18 0;
#X connect 39 0 37 0;
#X connect 39 1 6 0;
#X connect 39 2 40 0;
#X connect 40 0 25 0;
#X connect 40 1 26 0;
#X restore 434 182 pd \$0-FILE;
#X obj 840 189 s \$0-file-in;
#X obj 751 78 initbang;
#X text 817 80 Defaults values;
#X obj 723 121 route play loop rec file rec-time;
#X obj 51 179 cnv 10 128 10 empty \$0-cnv-file NEW_FILE:tmp.mid 3 6
1 9 -261689 -258699 0;
#X obj 402 108 cyclone/midiformat;
#X obj 402 259 cyclone/midiparse;
#X obj 402 87 list split 2;
#X text 53 62 midi-sampler \; ------------ \; Play and record into
a midi file \; Arguments \; \$1 : recording time in second (integer)
\; \$2 : filename (symbol) \;;
#X obj 381 294 list;
#X text 382 336 list (channel pitch velocity);
#X text 397 4 list (pitch velocity channel);
#X obj 402 44 route float;
#X obj 402 65 pack 100 1;
#X msg 751 101 file ../../data/tmp.mid \, rec-time 5 \, loop 1;
#X connect 7 0 8 0;
#X connect 8 0 6 0;
#X connect 8 0 34 0;
#X connect 8 1 13 0;
#X connect 9 0 31 0;
#X connect 10 0 28 0;
#X connect 12 0 15 1;
#X connect 13 0 15 0;
#X connect 13 1 5 0;
#X connect 15 0 14 0;
#X connect 21 0 40 0;
#X connect 25 0 8 0;
#X connect 26 0 8 0;
#X connect 27 0 8 0;
#X connect 29 0 42 0;
#X connect 31 0 16 0;
#X connect 31 1 17 0;
#X connect 31 2 18 0;
#X connect 31 3 10 0;
#X connect 31 4 23 0;
#X connect 33 0 8 0;
#X connect 34 0 37 1;
#X connect 34 6 37 0;
#X connect 35 0 33 0;
#X connect 35 1 33 6;
#X connect 37 0 4 0;
#X connect 40 0 41 0;
#X connect 40 1 35 0;
#X connect 41 0 35 0;
#X connect 42 0 31 0;
#X coords 0 -1 1 1 130 90 1 50 160;
