#N canvas 121 81 819 552 10;
#X floatatom 293 429 5 0 0 0 - - -;
#X floatatom 350 430 5 0 0 0 - - -;
#X obj 416 315 bng 15 250 50 0 empty empty end 17 7 0 10 -262144 -1
-1;
#X msg 583 202 play \$1;
#X obj 583 184 tgl 15 0 empty empty empty 17 7 0 10 -262144 -1 -1 0
1;
#X obj 584 223 tgl 15 0 empty empty empty 17 7 0 10 -262144 -1 -1 0
1;
#X obj 584 264 tgl 15 0 empty empty empty 17 7 0 10 -262144 -1 -1 0
1;
#X msg 584 241 loop \$1;
#X msg 584 282 rec \$1;
#X msg 584 327 rec-time \$1;
#X floatatom 584 306 5 0 0 0 - - -;
#X obj 370 137 pack f 10 1;
#X obj 293 82 vsl 15 50 0 127 0 0 empty empty empty 0 -9 0 10 -262144
-1 -1 0 1;
#X obj 293 138 pack f 10 2;
#X obj 293 385 route 1 2 3;
#X obj 293 409 unpack f f;
#X floatatom 398 431 5 0 0 0 - - -;
#X floatatom 455 432 5 0 0 0 - - -;
#X obj 398 411 unpack f f;
#X text 581 116 New file (record) or old (play);
#X obj 370 81 vsl 15 50 0 127 0 0 empty empty empty 0 -9 0 10 -262144
-1 -1 0 1;
#X obj 293 451 vsl 15 50 0 127 0 0 empty empty empty 0 -9 0 10 -262144
-1 -1 0 1;
#X obj 398 452 vsl 15 50 0 127 0 0 empty empty empty 0 -9 0 10 -262144
-1 -1 0 1;
#X text 291 60 list (note velocity channel);
#X text 300 345 list (channel note velocity);
#X text 377 382 <- route channel;
#X obj 293 219 midi-sampler 8;
#X text 27 69 midi-sampler \; ------------ \; Play and record into
a midi file \; Arguments \; \$1 : recording time in second (integer)
\; \$2 : filename (symbol) \;;
#X msg 582 136 file ../../data/my_new_file.mid;
#X connect 0 0 21 0;
#X connect 3 0 26 1;
#X connect 4 0 3 0;
#X connect 5 0 7 0;
#X connect 6 0 8 0;
#X connect 7 0 26 1;
#X connect 8 0 26 1;
#X connect 9 0 26 1;
#X connect 10 0 9 0;
#X connect 11 0 26 0;
#X connect 12 0 13 0;
#X connect 13 0 26 0;
#X connect 14 0 15 0;
#X connect 14 1 18 0;
#X connect 15 0 0 0;
#X connect 15 1 1 0;
#X connect 16 0 22 0;
#X connect 18 0 16 0;
#X connect 18 1 17 0;
#X connect 20 0 11 0;
#X connect 26 0 14 0;
#X connect 26 1 2 0;
#X connect 28 0 26 1;
