#N canvas 557 122 1196 655 10;
#X text 86 5 Description: Rounds an incoming MIDI note to a note listed
in a given chord or scale.;
#X text 85 47 Author: Alexandre Quessy (c) 2006;
#X text 86 32 tags: musical;
#X obj 138 410 + 12;
#X obj 137 429 -;
#X obj 111 338 t b a;
#X obj 111 313 list append;
#X obj 94 279 t f b f b;
#X obj 265 322 f;
#X obj 137 474 min;
#X obj 166 479 f;
#X obj 111 504 f;
#X obj 94 536 +;
#X obj 94 568 outlet;
#X obj 191 422 f 12;
#X text 184 567 + the current input note;
#X text 87 594 Need abs() to make it more accurate (such as rint()
but for floats);
#X text 283 450 Differences;
#X obj 142 569 outlet;
#X obj 138 389 expr fmod($f1 \, 12);
#X obj 137 451 expr fmod($f1 \, 12);
#X obj 265 345 expr fmod($f1 \, 12);
#X obj 211 189 iemlib/dollarg;
#X obj 138 368 zexy/drip;
#X obj 706 527 s \$0array1;
#X obj 706 502 list prepend 0;
#X obj 667 544 length;
#X obj 690 567 s \$0size;
#X obj 610 608 list split;
#X obj 667 585 - 1;
#X obj 638 633 s \$0end;
#X obj 610 485 t a a a;
#X floatatom 631 545 5 0 0 0 - - -;
#X msg 668 369 3 5 6 7 10 12;
#X msg 622 99 clear;
#X obj 661 159 outlet;
#X obj 610 130 tof/pmenu;
#X msg 834 155 colors #444 #fc7800 black;
#X obj 610 71 r \$0-bang;
#X obj 821 251 sel 5 6 7 8 9 10 11 12 13 14 15;
#X text 714 279 major;
#X text 940 294 middle-east-like minor;
#X text 948 322 lydian-dominant (jazzy);
#X text 961 350 harmonic minor;
#X text 1017 378 chromatic blues;
#X text 982 406 whole-tones scale;
#X text 1007 425 diminished scale;
#X text 993 449 pentatonic;
#X text 1033 470 pentatonic blues;
#X msg 821 294 1 4 5 7 8 11 12;
#X msg 837 322 2 4 6 7 9 10 12;
#X msg 854 351 2 3 5 7 8 11 12;
#X msg 870 381 2 3 4 5 6 7 9 10 11 12;
#X msg 887 407 2 4 6 8 10 12;
#X msg 904 427 3 5 6 8 9 11 12;
#X msg 920 451 2 4 7 9 12;
#X msg 937 473 2 3 4 7 8 9 12;
#X text 728 298 minor;
#X text 746 324 melodic minor;
#X text 731 346 pentatonic minor;
#X text 761 367 blues;
#X obj 610 255 sel 0 1 2 3 4;
#X msg 653 348 3 5 7 10 12;
#X msg 854 94 add major minor melodic.minor pentatonic.minor blues
middle.east.minor lydian.dominant harmonic.minor chromatic.blues wholetones.scale
diminished.scale pentatonic pentatonic.blues;
#X msg 610 280 0 2 4 5 7 9 11 12;
#X msg 624 301 0 2 3 5 7 8 10 12;
#X msg 640 324 0 2 3 5 7 8 11 12;
#X obj 103 131 cnv 5 5 5 empty empty Root 0 4 1 9 -262144 -99865 0
;
#X obj 183 131 cnv 10 15 10 empty \$0-cnv-root C 3 5 0 9 -262144 -99865
0;
#X obj 610 460 t a;
#X msg 706 186 label \$1;
#X obj 706 165 makefilename %s;
#X obj 117 116 cnv 10 5 5 empty \$0-cnv-gamme chromatic.blues 0 6 1
9 -262144 -128992 0;
#X obj 706 208 s \$0-cnv-gamme;
#X obj 392 72 inlet fondamentale;
#X obj 392 98 s \$0-rootin;
#X obj 816 47 initbang;
#X obj 793 97 f \$1;
#X obj 271 239 f \$2;
#N canvas 813 346 450 300 __transpose 0;
#X obj 122 100 inlet;
#X obj 122 214 outlet;
#X obj 193 156 +;
#X obj 208 61 inlet;
#X obj 122 131 list append;
#N canvas 664 81 615 497 fmod 0;
#X obj 62 46 inlet;
#X obj 62 265 outlet;
#X obj 120 46 inlet;
#X obj 92 132 int;
#X obj 62 106 t f f;
#X obj 62 158 -;
#X obj 62 185 moses 0;
#X obj 62 213 + 1;
#X obj 62 74 / 12;
#X obj 61 240 * 12;
#X connect 0 0 8 0;
#X connect 2 0 8 1;
#X connect 2 0 9 1;
#X connect 3 0 5 1;
#X connect 4 0 5 0;
#X connect 4 1 3 0;
#X connect 5 0 6 0;
#X connect 6 0 7 0;
#X connect 6 1 9 0;
#X connect 7 0 9 0;
#X connect 8 0 4 0;
#X connect 9 0 1 0;
#X restore 193 182 pd fmod;
#N canvas 604 321 705 300 listop 0;
#X msg 313 297 list;
#X obj 120 52 inlet;
#X obj 478 467 outlet;
#X obj 502 90 inlet;
#X obj 132 467 outlet;
#X obj 218 327 list prepend;
#X msg 187 260 1;
#X msg 127 288 0;
#X obj 132 441 list;
#X obj 120 409 route bang;
#X obj 100 133 t b b a b b a;
#X obj 120 385 zexy/demultiplex 0 1;
#X obj 485 229 zexy/drip;
#X connect 0 0 5 1;
#X connect 1 0 10 0;
#X connect 3 0 5 0;
#X connect 5 0 11 0;
#X connect 6 0 11 1;
#X connect 7 0 11 1;
#X connect 8 0 4 0;
#X connect 9 0 8 0;
#X connect 9 1 4 0;
#X connect 10 0 5 0;
#X connect 10 1 7 0;
#X connect 10 2 12 0;
#X connect 10 3 0 0;
#X connect 10 4 6 0;
#X connect 10 5 8 1;
#X connect 11 0 9 0;
#X connect 11 1 5 1;
#X connect 12 0 2 0;
#X restore 122 185 pd listop;
#X connect 0 0 4 0;
#X connect 2 0 5 0;
#X connect 3 0 2 1;
#X connect 4 0 6 0;
#X connect 5 0 6 1;
#X connect 6 0 1 0;
#X connect 6 1 2 0;
#X restore 190 284 pd __transpose;
#N canvas 426 170 728 567 __fondamental 0;
#X obj 397 257 mod 12;
#X obj 397 282 sel 0 1 2 3 4 5 6 7 8 9 10 11;
#X msg 397 304 A;
#X msg 411 325 A#;
#X msg 425 304 B;
#X msg 439 304 C;
#X msg 454 326 C#;
#X msg 413 487 label \$1;
#X obj 397 438 symbol;
#X msg 468 304 D;
#X msg 496 304 E;
#X msg 511 304 F;
#X msg 482 326 D#;
#X msg 519 304 G;
#X msg 525 326 F#;
#X obj 397 185 + 3;
#X obj 278 259 i;
#X obj 263 291 -;
#X obj 263 321 * 100;
#X obj 413 466 makefilename %s;
#X msg 264 487 label \$1;
#X obj 264 509 s \$0-cnv-cent;
#X obj 263 463 makefilename +%d_cent;
#X floatatom 397 136 5 0 0 0 - - -;
#X obj 70 98 cnv 15 60 15 empty \$0-cnv-cent +0_cent 3 8 0 9 -262144
-191407 0;
#X obj 47 98 cnv 15 20 15 empty \$0-cnv-octave -1 3 8 0 10 -191407
-262144 0;
#X obj 397 67 inlet rootnote;
#X obj 435 89 s \$0-rootin;
#X obj 436 109 r \$0-root;
#X obj 135 249 outlet;
#X obj 413 509 s \$0-cnv-root;
#X connect 0 0 1 0;
#X connect 1 0 2 0;
#X connect 1 1 3 0;
#X connect 1 2 4 0;
#X connect 1 3 5 0;
#X connect 1 4 6 0;
#X connect 1 5 9 0;
#X connect 1 6 12 0;
#X connect 1 7 10 0;
#X connect 1 8 11 0;
#X connect 1 9 14 0;
#X connect 1 10 13 0;
#X connect 2 0 8 0;
#X connect 3 0 8 0;
#X connect 4 0 8 0;
#X connect 5 0 8 0;
#X connect 6 0 8 0;
#X connect 7 0 30 0;
#X connect 8 0 19 0;
#X connect 9 0 8 0;
#X connect 10 0 8 0;
#X connect 11 0 8 0;
#X connect 12 0 8 0;
#X connect 13 0 8 0;
#X connect 14 0 8 0;
#X connect 15 0 0 0;
#X connect 16 0 17 1;
#X connect 17 0 18 0;
#X connect 18 0 22 0;
#X connect 19 0 7 0;
#X connect 20 0 21 0;
#X connect 22 0 20 0;
#X connect 23 0 15 0;
#X connect 23 0 16 0;
#X connect 23 0 17 0;
#X connect 23 0 29 0;
#X connect 26 0 23 0;
#X connect 26 0 27 0;
#X connect 28 0 23 0;
#X restore 271 261 pd __fondamental;
#X obj 271 217 initbang;
#X obj 815 70 t b b b;
#X obj 531 74 inlet scale;
#X obj 94 180 inlet data;
#X obj 289 72 inlet choice;
#X floatatom 292 291 5 0 0 0 - - -;
#X obj 210 166 initbang;
#X text 302 179 ??;
#X obj 57 106 bng 10 250 50 0 \$0-bang empty empty 17 7 0 10 -262144
-1 -1;
#X obj 44 141 bng 10 250 50 0 \$0-bang empty empty 17 7 0 10 -262144
-1 -1;
#X obj 53 125 bng 10 250 50 0 \$0-bang empty empty 17 7 0 10 -262144
-1 -1;
#X obj 37 166 bng 10 250 50 0 \$0-bang empty empty 17 7 0 10 -262144
-1 -1;
#X obj 23 187 bng 10 250 50 0 \$0-bang empty empty 17 7 0 10 -262144
-1 -1;
#X obj 103 116 bng 10 250 50 0 \$0-bang empty empty 17 7 0 10 -260097
-1 -1;
#X obj 103 116 cnv 10 10 10 empty \$0-cnv-plus V 3 5 1 8 -260097 -262144
0;
#X obj 73 157 cnv 10 48 10 empty \$0-cnv gamme 2 4 1 10 -233017 -260097
0;
#X obj 149 129 nbx 3 10 0 128 0 0 \$0-root \$0-root-in empty 0 -8 0
9 -262144 -99865 -99865 0 256;
#X obj 125 131 cnv 5 5 5 empty empty note 0 4 1 9 -262144 -99865 0
;
#X connect 3 0 4 0;
#X connect 4 0 20 0;
#X connect 5 0 11 0;
#X connect 5 1 23 0;
#X connect 6 0 5 0;
#X connect 7 0 12 0;
#X connect 7 1 6 0;
#X connect 7 2 8 0;
#X connect 7 3 14 0;
#X connect 8 0 21 0;
#X connect 9 0 10 0;
#X connect 10 0 9 1;
#X connect 10 0 11 1;
#X connect 11 0 12 1;
#X connect 11 0 18 0;
#X connect 12 0 13 0;
#X connect 14 0 9 1;
#X connect 19 0 3 0;
#X connect 20 0 9 0;
#X connect 21 0 4 1;
#X connect 23 0 19 0;
#X connect 25 0 24 0;
#X connect 26 0 27 0;
#X connect 26 0 29 0;
#X connect 26 0 32 0;
#X connect 28 1 30 0;
#X connect 29 0 28 1;
#X connect 31 0 28 0;
#X connect 31 1 26 0;
#X connect 31 2 25 0;
#X connect 33 0 69 0;
#X connect 34 0 36 0;
#X connect 36 0 61 0;
#X connect 36 1 35 0;
#X connect 36 1 71 0;
#X connect 37 0 36 0;
#X connect 38 0 36 0;
#X connect 39 0 49 0;
#X connect 39 1 50 0;
#X connect 39 2 51 0;
#X connect 39 3 52 0;
#X connect 39 4 53 0;
#X connect 39 5 54 0;
#X connect 39 6 55 0;
#X connect 39 7 56 0;
#X connect 49 0 69 0;
#X connect 50 0 69 0;
#X connect 51 0 69 0;
#X connect 52 0 69 0;
#X connect 53 0 69 0;
#X connect 54 0 69 0;
#X connect 55 0 69 0;
#X connect 56 0 69 0;
#X connect 61 0 64 0;
#X connect 61 1 65 0;
#X connect 61 2 66 0;
#X connect 61 3 62 0;
#X connect 61 4 33 0;
#X connect 61 5 39 0;
#X connect 62 0 69 0;
#X connect 63 0 36 0;
#X connect 64 0 69 0;
#X connect 65 0 69 0;
#X connect 66 0 69 0;
#X connect 69 0 31 0;
#X connect 69 0 79 0;
#X connect 70 0 73 0;
#X connect 71 0 70 0;
#X connect 74 0 75 0;
#X connect 76 0 82 0;
#X connect 77 0 36 0;
#X connect 78 0 80 0;
#X connect 79 0 6 1;
#X connect 80 0 79 1;
#X connect 80 0 86 0;
#X connect 81 0 78 0;
#X connect 82 0 77 0;
#X connect 82 1 37 0;
#X connect 82 2 63 0;
#X connect 83 0 69 0;
#X connect 84 0 7 0;
#X connect 85 0 36 0;
#X connect 87 0 22 0;
#X coords 0 -1 1 1 105 45 1 100 100;
