#N canvas 11 239 538 408 10;
#X obj 217 111 hradio 15 1 0 5 empty empty empty 0 -6 0 8 -262144 -1
-1 0;
#N canvas 468 83 690 338 preset 0;
#X msg 55 166 setK 1 \, setD 0 \, setD2 30;
#X obj 36 -34 inlet;
#X obj 115 254 outlet;
#X msg 115 78 setK 300 \, setD 100 \, setD2 3;
#X text 345 107 4 :elastic tight 3 :superelastic 2 :follow and slowdown
1 :elastic loose 0 :super loose elastic;
#X msg 74 139 setK 1 \, setD 0 \, setD2 200;
#X msg 95 109 setK 0.05 \, setD 0 \, setD2 30;
#X msg 37 198 setK 300 \, setD 300 \, setD2 5;
#X obj 36 43 sel 0 1 2 3 4;
#X connect 0 0 2 0;
#X connect 1 0 8 0;
#X connect 3 0 2 0;
#X connect 5 0 2 0;
#X connect 6 0 2 0;
#X connect 7 0 2 0;
#X connect 8 0 7 0;
#X connect 8 1 0 0;
#X connect 8 2 5 0;
#X connect 8 3 6 0;
#X connect 8 4 3 0;
#X restore 20 126 pd preset;
#X obj 119 143 inlet;
#X obj 306 290 outlet;
#X obj 20 0 initbang;
#X obj 20 82 f \$1;
#X obj 119 242 pmpd/link \$0-link 0 1 0 200;
#X obj 306 242 pmpd/mass \$0-mass 10000 0;
#X text 239 95 diferents comportement of the link;
#X text 127 -38 from pmpd : this filter simulate physic caracteristic
like elasticity and gravity...;
#X text 53 82 << default : superelastic;
#X obj 217 51 inlet command;
#X obj 217 76 route preset;
#N canvas 1 163 268 186 metro 0;
#X obj 48 97 s \$0-link;
#X obj 13 72 t b b;
#X obj 13 123 s \$0-mass;
#X obj 13 45 metro 5;
#X obj 89 20 bng 15 250 50 0 empty empty empty 0 -6 0 8 -262144 -1
-1;
#X msg 124 92 reset;
#X msg 89 66 resetL \, resetF;
#X obj 89 40 t b b;
#X obj 13 20 inlet;
#X connect 1 0 2 0;
#X connect 1 1 0 0;
#X connect 3 0 1 0;
#X connect 4 0 7 0;
#X connect 5 0 2 0;
#X connect 6 0 0 0;
#X connect 7 0 6 0;
#X connect 7 1 5 0;
#X connect 8 0 3 0;
#X restore 85 35 pd metro;
#X connect 0 0 1 0;
#X connect 1 0 6 0;
#X connect 2 0 6 0;
#X connect 4 0 13 0;
#X connect 4 0 5 0;
#X connect 5 0 1 0;
#X connect 6 1 7 0;
#X connect 7 0 3 0;
#X connect 7 0 6 1;
#X connect 11 0 12 0;
#X connect 12 0 0 0;
#X connect 12 1 6 0;
