#N canvas 1 79 1265 668 10;
#X obj 250 147 vsl 10 40 0 1 0 0 empty empty empty 0 -9 0 10 -191407
-1 -1 0 1;
#X floatatom 249 238 4 0 0 0 - - -;
#X obj 65 47 metro 60;
#X obj 65 312 f;
#X obj 260 147 vsl 10 40 0 1 0 0 empty empty empty 0 -9 0 10 -262144
-1 -1 1800 1;
#X floatatom 265 254 4 0 0 0 - - -;
#X obj 82 312 f;
#X obj 250 122 tgl 10 0 empty empty empty 17 7 0 10 -257985 -1 -1 0
1;
#X obj 270 147 vsl 10 40 0 1 0 0 empty empty empty 0 -9 0 10 -262144
-1 -1 0 1;
#X floatatom 281 238 4 0 0 0 - - -;
#X obj 99 312 f;
#X obj 280 147 vsl 10 40 0 1 0 0 empty empty empty 0 -9 0 10 -262144
-1 -1 0 1;
#X floatatom 297 254 4 0 0 0 - - -;
#X obj 116 312 f;
#X obj 290 147 vsl 10 40 0 1 0 0 empty empty empty 0 -9 0 10 -228856
-1 -1 0 1;
#X floatatom 313 238 4 0 0 0 - - -;
#X obj 135 312 f;
#X obj 300 147 vsl 10 40 0 1 0 0 empty empty empty 0 -9 0 10 -262144
-1 -1 0 1;
#X floatatom 329 254 4 0 0 0 - - -;
#X obj 152 312 f;
#X obj 310 147 vsl 10 40 0 1 0 0 empty empty empty 0 -9 0 10 -262144
-1 -1 0 1;
#X floatatom 345 238 4 0 0 0 - - -;
#X obj 169 312 f;
#X obj 320 147 vsl 10 40 0 1 0 0 empty empty empty 0 -9 0 10 -262144
-1 -1 0 1;
#X floatatom 361 254 4 0 0 0 - - -;
#X obj 186 312 f;
#X msg 910 274 \$1 \$2;
#X obj 910 254 pack f f;
#X obj 304 122 tgl 10 0 empty empty empty 17 7 0 10 -262144 -1 -1 0
400;
#X obj 1020 190 metro 400;
#X obj 1020 213 random 1000;
#X obj 1020 233 / 1000;
#X obj 910 211 metro 400;
#X text 1097 407 mute step >;
#X obj 568 -36 initbang;
#X obj 568 -15 f \$1;
#X obj 568 5 moses 0.001;
#X msg 640 -19 400;
#X obj 65 79 f;
#X obj 100 70 + 1;
#X obj 105 346 spigot;
#X obj 148 346 spigot;
#X obj 192 346 spigot;
#X obj 236 346 spigot;
#X obj 280 346 spigot;
#X obj 323 346 spigot;
#X obj 367 346 spigot;
#X obj 250 136 tgl 10 0 empty empty empty 17 7 0 10 -262144 -1 -1 1
1;
#X obj 467 118 f;
#X obj 61 344 spigot;
#X obj 260 136 tgl 10 0 empty empty empty 17 7 0 10 -262144 -1 -1 1
1;
#X obj 270 136 tgl 10 0 empty empty empty 17 7 0 10 -262144 -1 -1 1
1;
#X obj 280 136 tgl 10 0 empty empty empty 17 7 0 10 -262144 -1 -1 1
1;
#X obj 290 136 tgl 10 0 empty empty empty 17 7 0 10 -262144 -1 -1 1
1;
#X obj 300 136 tgl 10 0 empty empty empty 17 7 0 10 -262144 -1 -1 1
1;
#X obj 310 136 tgl 10 0 empty empty empty 17 7 0 10 -262144 -1 -1 1
1;
#X obj 320 136 tgl 10 0 empty empty empty 17 7 0 10 -262144 -1 -1 1
1;
#X msg 670 -19 1;
#X obj 961 191 * 3;
#X obj 1020 253 t b f;
#X msg 210 61 0;
#X obj 210 39 sel 0;
#X msg 568 26 120;
#X obj 250 -85 inlet command;
#X text 654 109 systeme de random :;
#X text 939 108 seq command;
#X obj 250 133 cnv 2 10 2 \$0-cnv-pos \$0-cnv-pos-in empty 20 12 0
14 -162280 -66577 0;
#X obj 1005 598 s \$0-cnv-pos-in;
#X obj 1005 500 r \$0-counter;
#X text 1003 482 Canvas position counter;
#X floatatom 955 513 5 0 0 0 - - -;
#X obj 100 149 s \$0-counter;
#X obj 222 536 +;
#X obj 237 514 random 100;
#X obj 178 536 * 100;
#X obj 222 556 > 100;
#X obj 222 577 sel 1;
#X msg 196 515 bang;
#X obj 61 624 outlet float;
#X obj 61 491 f;
#X obj 222 599 outlet probability;
#X obj 263 122 nbx 4 10 -1e+37 1e+37 0 0 empty empty time 0 -4 0 8
-262144 -1 -1 120 256;
#X obj 314 122 nbx 4 10 -1e+37 1e+37 0 0 empty empty random -10 -4
0 9 -262144 -1 -1 400 256;
#X obj 1139 567 unpack 0 0;
#X floatatom 1139 592 4 0 0 0 - - -;
#X floatatom 1204 591 4 0 0 0 - - -;
#X text 1119 591 x=;
#X text 1186 591 y=;
#X msg 1139 502 get_pos;
#X obj 1139 523 s \$0-cnv-pos-in;
#X obj 1139 546 r \$0-cnv-pos;
#X obj 1005 529 * 10;
#X obj 656 128 unpack f f f f f f f f f f f f f f f f;
#X obj 909 128 route 1 2 3 4 5 6 7 8 9 10 11 12 13 14 15 16;
#X obj 910 232 random 16;
#X obj 330 147 vsl 10 40 0 1 0 0 empty empty empty 0 -9 0 10 -191407
-1 -1 0 1;
#X floatatom 379 238 4 0 0 0 - - -;
#X obj 411 312 f;
#X obj 340 147 vsl 10 40 0 1 0 0 empty empty empty 0 -9 0 10 -262144
-1 -1 0 1;
#X floatatom 395 254 4 0 0 0 - - -;
#X obj 433 313 f;
#X obj 350 147 vsl 10 40 0 1 0 0 empty empty empty 0 -9 0 10 -262144
-1 -1 0 1;
#X floatatom 411 238 4 0 0 0 - - -;
#X obj 452 313 f;
#X obj 360 147 vsl 10 40 0 1 0 0 empty empty empty 0 -9 0 10 -262144
-1 -1 0 1;
#X floatatom 427 254 4 0 0 0 - - -;
#X obj 475 313 f;
#X obj 370 147 vsl 10 40 0 1 0 0 empty empty empty 0 -9 0 10 -228856
-1 -1 0 1;
#X floatatom 443 238 4 0 0 0 - - -;
#X obj 505 312 f;
#X obj 380 147 vsl 10 40 0 1 0 0 empty empty empty 0 -9 0 10 -262144
-1 -1 0 1;
#X floatatom 459 254 4 0 0 0 - - -;
#X obj 538 312 f;
#X obj 390 147 vsl 10 40 0 1 0 0 empty empty empty 0 -9 0 10 -262144
-1 -1 0 1;
#X floatatom 475 238 4 0 0 0 - - -;
#X obj 562 312 f;
#X obj 400 147 vsl 10 40 0 1 0 0 empty empty empty 0 -9 0 10 -262144
-1 -1 0 1;
#X floatatom 491 254 4 0 0 0 - - -;
#X obj 588 312 f;
#X obj 475 346 spigot;
#X obj 518 346 spigot;
#X obj 562 346 spigot;
#X obj 606 346 spigot;
#X obj 650 346 spigot;
#X obj 693 346 spigot;
#X obj 737 346 spigot;
#X obj 330 136 tgl 10 0 empty empty empty 17 7 0 10 -262144 -1 -1 1
1;
#X obj 431 344 spigot;
#X obj 340 136 tgl 10 0 empty empty empty 17 7 0 10 -262144 -1 -1 1
1;
#X obj 350 136 tgl 10 0 empty empty empty 17 7 0 10 -262144 -1 -1 1
1;
#X obj 360 136 tgl 10 0 empty empty empty 17 7 0 10 -262144 -1 -1 1
1;
#X obj 370 136 tgl 10 0 empty empty empty 17 7 0 10 -262144 -1 -1 1
1;
#X obj 380 136 tgl 10 0 empty empty empty 17 7 0 10 -262144 -1 -1 1
1;
#X obj 390 136 tgl 10 0 empty empty empty 17 7 0 10 -262144 -1 -1 1
1;
#X obj 400 136 tgl 10 0 empty empty empty 17 7 0 10 -262144 -1 -1 1
1;
#X obj 431 401 f;
#X obj 100 89 mod 16;
#X obj 1005 559 + 250;
#X msg 1005 579 pos \$1 133;
#X msg 81 -23 0;
#X obj 356 122 bng 10 250 50 0 empty empty reset 12 6 0 8 -191407 -1
-1;
#X obj -21 192 sel 0 1 2 3 4 5 6 7 8 9 10 11 12 13 14 15;
#X obj 250 -60 route onoff time seq bang rand rand-time reset step
;
#X obj 525 559 prepend set;
#X obj 525 513 repack 16;
#X obj 525 536 prepend seq;
#X msg 525 608 seq 1 0 0 0 0 0 0 0 1 0 1 1 1 1 0 1;
#X obj 393 122 bng 10 250 50 0 empty empty p 12 6 0 8 -228856 -1 -1
;
#X obj 728 394 t b b b;
#X obj 744 569 sel;
#X obj 832 529 f;
#X obj 867 520 + 1;
#X obj 867 540 mod 16;
#X obj 800 562 sel 15;
#X msg 800 590 0;
#X msg 785 433 1;
#X obj 832 497 metro 1;
#X obj 525 655 print [seq-sliders16];
#X connect 0 0 1 0;
#X connect 1 0 3 1;
#X connect 2 0 38 0;
#X connect 3 0 49 0;
#X connect 4 0 5 0;
#X connect 5 0 6 1;
#X connect 6 0 40 0;
#X connect 7 0 2 0;
#X connect 7 0 61 0;
#X connect 8 0 9 0;
#X connect 9 0 10 1;
#X connect 10 0 41 0;
#X connect 11 0 12 0;
#X connect 12 0 13 1;
#X connect 13 0 42 0;
#X connect 14 0 15 0;
#X connect 15 0 16 1;
#X connect 16 0 43 0;
#X connect 17 0 18 0;
#X connect 18 0 19 1;
#X connect 19 0 44 0;
#X connect 20 0 21 0;
#X connect 21 0 22 1;
#X connect 22 0 45 0;
#X connect 23 0 24 0;
#X connect 24 0 25 1;
#X connect 25 0 46 0;
#X connect 26 0 93 0;
#X connect 27 0 26 0;
#X connect 28 0 29 0;
#X connect 28 0 32 0;
#X connect 29 0 30 0;
#X connect 30 0 31 0;
#X connect 31 0 59 0;
#X connect 32 0 94 0;
#X connect 34 0 35 0;
#X connect 34 0 37 0;
#X connect 34 0 57 0;
#X connect 35 0 36 0;
#X connect 36 0 62 0;
#X connect 36 1 81 0;
#X connect 37 0 82 0;
#X connect 38 0 39 0;
#X connect 38 0 71 0;
#X connect 38 0 141 0;
#X connect 39 0 136 0;
#X connect 40 0 79 0;
#X connect 41 0 79 0;
#X connect 42 0 79 0;
#X connect 43 0 79 0;
#X connect 44 0 79 0;
#X connect 45 0 79 0;
#X connect 46 0 79 0;
#X connect 47 0 49 1;
#X connect 48 0 47 0;
#X connect 48 0 50 0;
#X connect 48 0 51 0;
#X connect 48 0 52 0;
#X connect 48 0 53 0;
#X connect 48 0 54 0;
#X connect 48 0 55 0;
#X connect 48 0 56 0;
#X connect 48 0 126 0;
#X connect 48 0 128 0;
#X connect 48 0 129 0;
#X connect 48 0 130 0;
#X connect 48 0 131 0;
#X connect 48 0 132 0;
#X connect 48 0 133 0;
#X connect 48 0 134 0;
#X connect 49 0 79 0;
#X connect 50 0 40 1;
#X connect 51 0 41 1;
#X connect 52 0 42 1;
#X connect 53 0 43 1;
#X connect 54 0 44 1;
#X connect 55 0 45 1;
#X connect 56 0 46 1;
#X connect 57 0 48 0;
#X connect 58 0 32 1;
#X connect 59 0 27 0;
#X connect 59 1 27 1;
#X connect 60 0 28 0;
#X connect 61 0 60 0;
#X connect 62 0 81 0;
#X connect 63 0 142 0;
#X connect 68 0 91 0;
#X connect 70 0 91 0;
#X connect 72 0 75 0;
#X connect 73 0 72 1;
#X connect 74 0 72 0;
#X connect 75 0 76 0;
#X connect 76 0 80 0;
#X connect 77 0 73 0;
#X connect 79 0 78 0;
#X connect 79 0 77 0;
#X connect 79 0 74 0;
#X connect 79 0 144 0;
#X connect 81 0 2 1;
#X connect 82 0 58 0;
#X connect 82 0 29 1;
#X connect 83 0 84 0;
#X connect 83 1 85 0;
#X connect 88 0 89 0;
#X connect 90 0 83 0;
#X connect 91 0 137 0;
#X connect 92 0 0 0;
#X connect 92 1 4 0;
#X connect 92 2 8 0;
#X connect 92 3 11 0;
#X connect 92 4 14 0;
#X connect 92 5 17 0;
#X connect 92 6 20 0;
#X connect 92 7 23 0;
#X connect 92 8 95 0;
#X connect 92 9 98 0;
#X connect 92 10 101 0;
#X connect 92 11 104 0;
#X connect 92 12 107 0;
#X connect 92 13 110 0;
#X connect 92 14 113 0;
#X connect 92 15 116 0;
#X connect 93 0 0 0;
#X connect 93 1 4 0;
#X connect 93 2 8 0;
#X connect 93 3 11 0;
#X connect 93 4 14 0;
#X connect 93 5 17 0;
#X connect 93 6 20 0;
#X connect 93 7 23 0;
#X connect 93 8 95 0;
#X connect 93 9 98 0;
#X connect 93 10 101 0;
#X connect 93 11 104 0;
#X connect 93 12 107 0;
#X connect 93 13 110 0;
#X connect 93 14 113 0;
#X connect 93 15 116 0;
#X connect 94 0 27 0;
#X connect 95 0 96 0;
#X connect 96 0 97 1;
#X connect 97 0 127 0;
#X connect 98 0 99 0;
#X connect 99 0 100 1;
#X connect 100 0 119 0;
#X connect 101 0 102 0;
#X connect 102 0 103 1;
#X connect 103 0 120 0;
#X connect 104 0 105 0;
#X connect 105 0 106 1;
#X connect 106 0 121 0;
#X connect 107 0 108 0;
#X connect 108 0 109 1;
#X connect 109 0 122 0;
#X connect 110 0 111 0;
#X connect 111 0 112 1;
#X connect 112 0 123 0;
#X connect 113 0 114 0;
#X connect 114 0 115 1;
#X connect 115 0 124 0;
#X connect 116 0 117 0;
#X connect 117 0 118 1;
#X connect 118 0 125 0;
#X connect 119 0 135 0;
#X connect 120 0 135 0;
#X connect 121 0 135 0;
#X connect 122 0 135 0;
#X connect 123 0 135 0;
#X connect 124 0 135 0;
#X connect 125 0 135 0;
#X connect 126 0 127 1;
#X connect 127 0 135 0;
#X connect 128 0 119 1;
#X connect 129 0 120 1;
#X connect 130 0 121 1;
#X connect 131 0 122 1;
#X connect 132 0 123 1;
#X connect 133 0 124 1;
#X connect 134 0 125 1;
#X connect 135 0 79 0;
#X connect 136 0 38 1;
#X connect 137 0 138 0;
#X connect 138 0 67 0;
#X connect 139 0 38 0;
#X connect 140 0 139 0;
#X connect 141 0 3 0;
#X connect 141 1 6 0;
#X connect 141 2 10 0;
#X connect 141 3 13 0;
#X connect 141 4 16 0;
#X connect 141 5 19 0;
#X connect 141 6 22 0;
#X connect 141 7 25 0;
#X connect 141 8 97 0;
#X connect 141 9 100 0;
#X connect 141 10 103 0;
#X connect 141 11 106 0;
#X connect 141 12 109 0;
#X connect 141 13 112 0;
#X connect 141 14 115 0;
#X connect 141 15 118 0;
#X connect 142 0 7 0;
#X connect 142 1 81 0;
#X connect 142 2 92 0;
#X connect 142 3 38 0;
#X connect 142 4 28 0;
#X connect 142 5 82 0;
#X connect 142 6 139 0;
#X connect 142 7 38 0;
#X connect 143 0 146 0;
#X connect 144 0 145 0;
#X connect 145 0 143 0;
#X connect 146 0 157 0;
#X connect 147 0 148 0;
#X connect 148 0 146 0;
#X connect 148 2 155 0;
#X connect 150 0 151 0;
#X connect 150 0 153 0;
#X connect 150 0 141 0;
#X connect 151 0 152 0;
#X connect 152 0 150 1;
#X connect 153 0 154 0;
#X connect 154 0 150 0;
#X connect 154 0 156 0;
#X connect 155 0 156 0;
#X connect 156 0 150 0;
#X coords 0 -1 1 1 160 95 1 250 100;
