#N canvas -15 327 848 332 10;
#X text 77 272 random a float;
#X obj 62 185 metro 30;
#X obj 125 206 * 1000;
#X text 104 15 metro on/off;
#X text 223 20 metro time;
#X obj 62 288 outlet float;
#X obj 62 254 / 1000;
#X obj 62 232 random 1000;
#X text 305 19 max;
#X obj 105 125 tgl 15 0 empty \$0-onoff-in empty 17 7 0 10 -257985
-1 -1 1 1;
#X floatatom 123 125 5 0 10000 2 - #0-time-in -;
#X floatatom 158 125 5 0 10000 2 - #0-max-in -;
#X text 121 111 time;
#X text 156 111 max;
#X obj 457 123 f \$1;
#X obj 535 121 f \$2;
#X obj 457 95 t b b b b;
#X msg 484 167 time \$1;
#X obj 469 282 s \$0-time-in;
#X obj 430 261 moses 2;
#X obj 457 144 sel 0;
#X obj 535 143 sel 0;
#X obj 503 261 moses 0.0001;
#X text 661 115 Default settings;
#X obj 508 235 s \$0-onoff-in;
#X obj 223 37 inlet time;
#X obj 457 71 loadbang;
#X obj 398 70 initbang;
#X obj 105 34 inlet;
#X obj 296 37 inlet max;
#X obj 430 208 route time max onoff;
#X obj 572 281 s \$0-max-in;
#X msg 663 132 time 120 \, max 1 \, onoff 1;
#X msg 562 168 max \$1;
#X connect 1 0 7 0;
#X connect 2 0 7 1;
#X connect 6 0 5 0;
#X connect 7 0 6 0;
#X connect 9 0 1 0;
#X connect 10 0 1 1;
#X connect 11 0 2 0;
#X connect 14 0 20 0;
#X connect 15 0 21 0;
#X connect 16 0 14 0;
#X connect 16 1 15 0;
#X connect 16 3 32 0;
#X connect 17 0 30 0;
#X connect 19 1 18 0;
#X connect 20 1 17 0;
#X connect 21 1 33 0;
#X connect 22 1 31 0;
#X connect 25 0 19 0;
#X connect 26 0 16 0;
#X connect 27 0 16 0;
#X connect 28 0 9 0;
#X connect 29 0 22 0;
#X connect 30 0 19 0;
#X connect 30 1 22 0;
#X connect 30 2 24 0;
#X connect 32 0 30 0;
#X connect 33 0 30 0;
#X coords 0 -1 1 1 95 45 1 100 100;
