#N canvas 44 119 737 591 10;
#X obj 44 502 vsl 10 50 0 1 0 0 empty empty empty 0 -9 0 10 -262144
-1 -1 3430 1;
#X floatatom 44 562 5 0 0 0 - - -;
#X text 209 120 patterns;
#X text 206 390 <- random values;
#X obj 209 143 loadbang;
#X msg 209 167 seq 0.2 0.1 0.4 0.5 0.6 0.7 0.3 1;
#X msg 220 190 seq 1 1 0 1 1 0 0 0;
#X msg 227 215 seq 0.15 0.22 0.33 0.22 0.1 0.24 0.55 0.88;
#X obj 44 140 tgl 15 0 empty empty on/off 17 7 0 10 -262144 -1 -1 0
1;
#X floatatom 130 147 5 0 0 2 time - -;
#X msg 44 163 onoff \$1;
#X msg 130 166 time \$1;
#X msg 345 273 onoff 0;
#X obj 422 320 seq-counter 100;
#X obj 345 296 bng 15 250 50 0 empty empty empty 17 7 0 10 -262144
-1 -1;
#X obj 422 276 loadbang;
#X text 341 253 or manually;
#X text 420 257 ... when you use another counter;
#X obj 422 375 bng 15 250 50 0 empty empty empty 17 7 0 10 -262144
-1 -1;
#X obj 44 335 seq-sliders 200;
#X msg 422 297 0;
#X obj 182 495 bng 15 250 50 0 empty empty empty 17 7 0 10 -262144
-1 -1;
#X text 202 493 -> second outlet is a probability outlet \; it send
a bang according the value of the sliders (very useful to make some
rythme with variations) \; if the slider is 0 = 0% of chance to have
a bang \; if sliders is max(1) = 100% of chance;
#X text 39 45 seq-sliders \; ----------- \; 8 steps sequencer (0-1
float) \; Argument \; \$1 : metro time \;;
#X connect 0 0 1 0;
#X connect 4 0 5 0;
#X connect 5 0 19 0;
#X connect 6 0 19 0;
#X connect 7 0 19 0;
#X connect 8 0 10 0;
#X connect 9 0 11 0;
#X connect 10 0 19 0;
#X connect 11 0 19 0;
#X connect 12 0 19 0;
#X connect 13 0 18 0;
#X connect 14 0 19 0;
#X connect 15 0 20 0;
#X connect 19 0 0 0;
#X connect 19 1 21 0;
#X connect 20 0 13 0;
