#N canvas 373 81 624 591 10;
#X obj 44 444 vsl 10 50 0 1 0 0 empty empty empty 0 -9 0 10 -262144
-1 -1 0 1;
#X floatatom 44 504 5 0 0 0 - - -;
#X text 209 120 patterns;
#X text 216 354 <- random values;
#X obj 209 143 loadbang;
#X obj 44 140 tgl 15 0 empty empty on/off 17 7 0 10 -262144 -1 -1 0
1;
#X floatatom 130 147 5 0 0 2 time - -;
#X msg 44 163 onoff \$1;
#X msg 130 166 time \$1;
#X msg 283 272 onoff 0;
#X obj 360 319 seq-counter 100;
#X obj 283 295 bng 15 250 50 0 empty empty empty 17 7 0 10 -262144
-1 -1;
#X obj 360 275 loadbang;
#X text 279 252 or manually;
#X text 358 256 ... when you use another counter;
#X obj 360 374 bng 15 250 50 0 empty empty empty 17 7 0 10 -262144
-1 -1;
#X msg 360 296 0;
#X obj 197 438 bng 15 250 50 0 empty empty empty 17 7 0 10 -262144
-1 -1;
#X text 217 436 -> second outlet is a probability outlet \; it send
a bang according the value of the sliders (very useful to make some
rythme with variations) \; if the slider is 0 = 0% of chance to have
a bang \; if sliders is max(1) = 100% of chance;
#X obj 44 335 seq-sliders16 200;
#X msg 209 167 seq 0.2 0.1 0.4 0.5 0.6 0.7 0.3 1 0 0.5 0 1 1 0 0.2
0.3;
#X msg 209 218 seq 1 1 0 1 1 0 0 0 0 0 0 0 1 0 1 1;
#X text 42 44 seq-sliders16 \; ------------- \; 16 steps sequencer
(0-1 float) \; Argument \; \$1 : metro time \;;
#X connect 0 0 1 0;
#X connect 4 0 20 0;
#X connect 5 0 7 0;
#X connect 6 0 8 0;
#X connect 7 0 19 0;
#X connect 8 0 19 0;
#X connect 9 0 19 0;
#X connect 10 0 15 0;
#X connect 11 0 19 0;
#X connect 12 0 16 0;
#X connect 16 0 10 0;
#X connect 19 0 0 0;
#X connect 19 1 17 0;
#X connect 20 0 19 0;
#X connect 21 0 19 0;
