#N canvas 69 88 536 437 10;
#X floatatom 282 258 5 0 0 0 - - -;
#X obj 282 303 bng 15 250 50 0 empty empty empty 17 7 0 10 -262144
-1 -1;
#X obj 297 303 bng 15 250 50 0 empty empty empty 17 7 0 10 -262144
-1 -1;
#X obj 282 280 sel 0 1 2 3 4 5 6 7;
#X obj 312 303 bng 15 250 50 0 empty empty empty 17 7 0 10 -262144
-1 -1;
#X obj 327 303 bng 15 250 50 0 empty empty empty 17 7 0 10 -262144
-1 -1;
#X obj 342 303 bng 15 250 50 0 empty empty empty 17 7 0 10 -262144
-1 -1;
#X obj 357 303 bng 15 250 50 0 empty empty empty 17 7 0 10 -262144
-1 -1;
#X obj 372 303 bng 15 250 50 0 empty empty empty 17 7 0 10 -262144
-1 -1;
#X obj 387 303 bng 15 250 50 0 empty empty empty 17 7 0 10 -262144
-1 -1;
#X floatatom 31 266 5 0 0 0 - - -;
#X floatatom 121 174 5 0 0 2 step - -;
#X floatatom 77 174 5 0 0 2 time - -;
#X obj 31 175 tgl 15 0 empty empty on/off 0 -8 0 10 -262144 -1 -1 0
1;
#X floatatom 166 176 5 0 0 2 max - -;
#X obj 282 201 seq-counter 120 1 8;
#X obj 31 203 seq-counter;
#X obj 283 354 seq-counter2;
#X floatatom 283 410 5 0 0 0 - - -;
#X obj 282 155 loadbang;
#X msg 282 177 0;
#X obj 283 334 tgl 15 0 empty empty empty 17 7 0 10 -262144 -1 -1 0
1;
#X text 22 22 seq-counter \; ----------- \; A looping counter with
time + step and max \; Arguments \; \$1 : metro time between each step
\; \$2 : step \; \$3 : max \;;
#X connect 0 0 3 0;
#X connect 3 0 1 0;
#X connect 3 1 2 0;
#X connect 3 2 4 0;
#X connect 3 3 5 0;
#X connect 3 4 6 0;
#X connect 3 5 7 0;
#X connect 3 6 8 0;
#X connect 3 7 9 0;
#X connect 11 0 16 2;
#X connect 12 0 16 1;
#X connect 13 0 16 0;
#X connect 14 0 16 3;
#X connect 15 0 0 0;
#X connect 16 0 10 0;
#X connect 17 0 18 0;
#X connect 19 0 20 0;
#X connect 20 0 15 0;
#X connect 21 0 17 0;
