#N canvas 362 186 905 640 10;
#X obj 254 150 vsl 10 40 0 1 0 0 empty empty empty 0 -9 0 10 -228856
-1 -1 3900 1;
#X floatatom 254 195 4 0 0 0 - - -;
#X obj 69 50 metro 60;
#X obj 69 276 f;
#X obj 69 113 sel 0 1 2 3 4 5 6 7;
#X obj 270 150 vsl 10 40 0 1 0 0 empty empty empty 0 -9 0 10 -262144
-1 -1 0 1;
#X floatatom 270 211 4 0 0 0 - - -;
#X obj 86 276 f;
#X obj 254 124 tgl 10 0 empty empty empty 17 7 0 10 -257985 -1 -1 1
1;
#X obj 286 150 vsl 10 40 0 1 0 0 empty empty empty 0 -9 0 10 -262144
-1 -1 0 1;
#X floatatom 286 195 4 0 0 0 - - -;
#X obj 103 276 f;
#X obj 302 150 vsl 10 40 0 1 0 0 empty empty empty 0 -9 0 10 -262144
-1 -1 0 1;
#X floatatom 302 211 4 0 0 0 - - -;
#X obj 120 276 f;
#X obj 318 150 vsl 10 40 0 1 0 0 empty empty empty 0 -9 0 10 -228856
-1 -1 0 1;
#X floatatom 318 195 4 0 0 0 - - -;
#X obj 139 276 f;
#X obj 334 150 vsl 10 40 0 1 0 0 empty empty empty 0 -9 0 10 -262144
-1 -1 0 1;
#X floatatom 334 211 4 0 0 0 - - -;
#X obj 156 276 f;
#X obj 350 150 vsl 10 40 0 1 0 0 empty empty empty 0 -9 0 10 -262144
-1 -1 0 1;
#X floatatom 350 195 4 0 0 0 - - -;
#X obj 173 276 f;
#X obj 366 150 vsl 10 40 0 1 0 0 empty empty empty 0 -9 0 10 -262144
-1 -1 0 1;
#X floatatom 366 211 4 0 0 0 - - -;
#X obj 190 276 f;
#X msg 505 279 \$1 \$2;
#X obj 505 259 pack f f;
#X obj 318 124 tgl 10 0 empty empty empty 17 7 0 10 -262144 -1 -1 0
400;
#X obj 615 195 metro 400;
#X obj 615 218 random 1000;
#X obj 615 238 / 1000;
#X obj 505 216 metro 400;
#X text 438 217 mute step >;
#X text 316 109 random;
#X obj 572 -33 initbang;
#X obj 572 -12 f \$1;
#X obj 572 8 moses 0.001;
#X msg 644 -16 400;
#X obj 69 82 f;
#X obj 104 73 + 1;
#X obj 104 92 mod 8;
#X obj 109 349 spigot;
#X obj 152 349 spigot;
#X obj 196 349 spigot;
#X obj 240 349 spigot;
#X obj 284 349 spigot;
#X obj 327 349 spigot;
#X obj 371 349 spigot;
#X obj 254 138 tgl 10 0 empty empty empty 17 7 0 10 -262144 -1 -1 1
1;
#X obj 438 122 f;
#X obj 65 347 spigot;
#X obj 270 138 tgl 10 0 empty empty empty 17 7 0 10 -262144 -1 -1 1
1;
#X obj 286 138 tgl 10 0 empty empty empty 17 7 0 10 -262144 -1 -1 1
1;
#X obj 302 138 tgl 10 0 empty empty empty 17 7 0 10 -262144 -1 -1 1
1;
#X obj 318 138 tgl 10 0 empty empty empty 17 7 0 10 -262144 -1 -1 1
1;
#X obj 334 138 tgl 10 0 empty empty empty 17 7 0 10 -262144 -1 -1 1
1;
#X obj 350 138 tgl 10 0 empty empty empty 17 7 0 10 -262144 -1 -1 1
1;
#X obj 366 138 tgl 10 0 empty empty empty 17 7 0 10 -262144 -1 -1 1
1;
#X msg 674 -16 1;
#X obj 556 196 * 3;
#X obj 615 258 t b f;
#X msg 214 64 0;
#X obj 214 42 sel 0;
#X text 268 109 time;
#X msg 572 29 120;
#X obj 505 237 random 9;
#X obj 505 133 route 1 2 3 4 5 6 7 8;
#X obj 254 -82 inlet command;
#X text 510 122 systeme de random :;
#X obj 692 133 unpack f f f f f f f f;
#X text 713 116 seq command;
#X obj 254 135 cnv 2 10 2 \$0-cnv-pos \$0-cnv-pos-in empty 20 12 0
14 -162280 -66577 0;
#X obj 555 488 s \$0-cnv-pos-in;
#X obj 555 390 r \$0-counter;
#X text 553 372 Canvas position counter;
#X obj 555 449 + 254;
#X floatatom 505 403 5 0 0 0 - - -;
#X obj 555 419 * 16;
#X obj -15 120 s \$0-counter;
#X obj 226 449 +;
#X obj 241 427 random 100;
#X obj 202 428 * 100;
#X obj 226 469 > 100;
#X obj 226 490 sel 1;
#X obj 65 537 outlet float;
#X obj 65 404 f;
#X obj 226 512 outlet probability;
#X obj 254 -57 route onoff time seq bang rand rand-time;
#X obj 270 124 nbx 4 10 -1e+37 1e+37 0 0 empty empty empty 0 -8 0 9
-262144 -1 -1 120 256;
#X obj 334 124 nbx 4 10 -1e+37 1e+37 0 0 empty empty empty 0 -8 0 9
-262144 -1 -1 400 256;
#X obj 689 457 unpack 0 0;
#X floatatom 689 482 4 0 0 0 - - -;
#X floatatom 754 481 4 0 0 0 - - -;
#X text 669 481 x=;
#X text 736 481 y=;
#X msg 689 392 get_pos;
#X obj 689 413 s \$0-cnv-pos-in;
#X obj 689 436 r \$0-cnv-pos;
#X obj 214 397 t f b;
#X msg 555 469 pos \$1 135;
#X connect 0 0 1 0;
#X connect 1 0 3 1;
#X connect 2 0 40 0;
#X connect 3 0 52 0;
#X connect 4 0 3 0;
#X connect 4 1 7 0;
#X connect 4 2 11 0;
#X connect 4 3 14 0;
#X connect 4 4 17 0;
#X connect 4 5 20 0;
#X connect 4 6 23 0;
#X connect 4 7 26 0;
#X connect 5 0 6 0;
#X connect 6 0 7 1;
#X connect 7 0 43 0;
#X connect 8 0 2 0;
#X connect 8 0 64 0;
#X connect 9 0 10 0;
#X connect 10 0 11 1;
#X connect 11 0 44 0;
#X connect 12 0 13 0;
#X connect 13 0 14 1;
#X connect 14 0 45 0;
#X connect 15 0 16 0;
#X connect 16 0 17 1;
#X connect 17 0 46 0;
#X connect 18 0 19 0;
#X connect 19 0 20 1;
#X connect 20 0 47 0;
#X connect 21 0 22 0;
#X connect 22 0 23 1;
#X connect 23 0 48 0;
#X connect 24 0 25 0;
#X connect 25 0 26 1;
#X connect 26 0 49 0;
#X connect 27 0 68 0;
#X connect 28 0 27 0;
#X connect 29 0 30 0;
#X connect 29 0 33 0;
#X connect 30 0 31 0;
#X connect 31 0 32 0;
#X connect 32 0 62 0;
#X connect 33 0 67 0;
#X connect 36 0 37 0;
#X connect 36 0 39 0;
#X connect 36 0 8 0;
#X connect 36 0 60 0;
#X connect 37 0 38 0;
#X connect 38 0 66 0;
#X connect 38 1 90 0;
#X connect 39 0 91 0;
#X connect 40 0 41 0;
#X connect 40 0 4 0;
#X connect 40 0 80 0;
#X connect 41 0 42 0;
#X connect 42 0 40 1;
#X connect 43 0 87 0;
#X connect 44 0 87 0;
#X connect 45 0 87 0;
#X connect 46 0 87 0;
#X connect 47 0 87 0;
#X connect 48 0 87 0;
#X connect 49 0 87 0;
#X connect 50 0 52 1;
#X connect 51 0 50 0;
#X connect 51 0 53 0;
#X connect 51 0 54 0;
#X connect 51 0 55 0;
#X connect 51 0 56 0;
#X connect 51 0 57 0;
#X connect 51 0 58 0;
#X connect 51 0 59 0;
#X connect 52 0 87 0;
#X connect 53 0 43 1;
#X connect 54 0 44 1;
#X connect 55 0 45 1;
#X connect 56 0 46 1;
#X connect 57 0 47 1;
#X connect 58 0 48 1;
#X connect 59 0 49 1;
#X connect 60 0 51 0;
#X connect 61 0 33 1;
#X connect 62 0 28 0;
#X connect 62 1 28 1;
#X connect 63 0 29 0;
#X connect 64 0 63 0;
#X connect 66 0 90 0;
#X connect 67 0 28 0;
#X connect 68 0 0 0;
#X connect 68 1 5 0;
#X connect 68 2 9 0;
#X connect 68 3 12 0;
#X connect 68 4 15 0;
#X connect 68 5 18 0;
#X connect 68 6 21 0;
#X connect 68 7 24 0;
#X connect 69 0 89 0;
#X connect 71 0 0 0;
#X connect 71 1 5 0;
#X connect 71 2 9 0;
#X connect 71 3 12 0;
#X connect 71 4 15 0;
#X connect 71 5 18 0;
#X connect 71 6 21 0;
#X connect 71 7 24 0;
#X connect 75 0 79 0;
#X connect 77 0 101 0;
#X connect 78 0 79 0;
#X connect 79 0 77 0;
#X connect 81 0 84 0;
#X connect 82 0 81 1;
#X connect 83 0 81 0;
#X connect 84 0 85 0;
#X connect 85 0 88 0;
#X connect 87 0 86 0;
#X connect 87 0 100 0;
#X connect 89 0 8 0;
#X connect 89 1 90 0;
#X connect 89 2 71 0;
#X connect 89 3 40 0;
#X connect 89 4 29 0;
#X connect 89 5 91 0;
#X connect 90 0 2 1;
#X connect 91 0 61 0;
#X connect 91 0 30 1;
#X connect 92 0 93 0;
#X connect 92 1 94 0;
#X connect 97 0 98 0;
#X connect 99 0 92 0;
#X connect 100 0 83 0;
#X connect 100 1 82 0;
#X connect 101 0 74 0;
#X coords 0 -1 1 1 145 130 1 250 100;
