#N canvas 1 236 450 300 10;
#X obj 43 68 inlet;
#X obj 43 116 spigot;
#X obj 43 165 outlet;
#X obj 100 102 tgl 15 0 \$0_ \$0--_ empty 17 7 0 10 -257985 -1 -1 0
1;
#X obj 100 71 inlet control;
#X connect 0 0 1 0;
#X connect 1 0 2 0;
#X connect 3 0 1 1;
#X connect 4 0 3 0;
#X coords 0 -1 1 1 15 19 2 100 100;
