#N canvas 397 278 228 172 10;
#X obj 41 59 list prepend 0;
#X obj 41 81 route 0 1;
#X obj 41 37 inlet;
#X obj 136 37 inlet;
#X obj 41 103 outlet;
#X obj 93 103 outlet;
#X connect 0 0 1 0;
#X connect 1 0 4 0;
#X connect 1 1 5 0;
#X connect 2 0 0 0;
#X connect 3 0 0 1;
