#N canvas 445 180 450 186 10;
#X obj 43 106 mux;
#X msg 87 62 0;
#X msg 123 62 1;
#X obj 43 64 bng 15 250 50 0 empty empty empty 17 7 0 10 -262144 -1
-1;
#X obj 64 64 bng 15 250 50 0 empty empty empty 17 7 0 10 -262144 -1
-1;
#X obj 43 128 bng 15 250 50 0 empty empty empty 17 7 0 10 -262144 -1
-1;
#X text 24 25 multiplex messages;
#X text 159 64 select which message comes through;
#X connect 0 0 5 0;
#X connect 1 0 0 2;
#X connect 2 0 0 2;
#X connect 3 0 0 0;
#X connect 4 0 0 1;
