#N canvas 1 74 760 473 10;
#X floatatom 421 167 5 0 0 0 - - -;
#X obj 101 166 gemhead;
#X msg 592 217 0 \, destroy;
#X msg 579 186 create \, 1;
#X obj 579 292 gemwin;
#X msg 604 267 lighting 1;
#X obj 604 247 loadbang;
#X text 576 163 Gem window;
#X text 662 185 <- on;
#X text 664 218 <- off;
#X obj 101 311 rectangle 4 3;
#X obj 581 367 gemhead;
#X obj 581 389 world_light;
#X obj 101 191 pix_image ../../data/tmp.jpg;
#X msg 288 192 fill \$1;
#X msg 356 192 smooth \$1;
#X msg 421 192 offset \$1;
#X msg 490 192 gap \$1;
#X floatatom 491 169 5 0 0 0 - - -;
#X obj 288 166 tgl 15 0 empty empty empty 17 7 0 10 -262144 -1 -1 0
1;
#X obj 356 166 tgl 15 0 empty empty empty 17 7 0 10 -262144 -1 -1 0
1;
#X obj 101 236 video-lumaoffset;
#X text 94 34 video-lumaoffset \; -------------------------- \; Offset
pixels depending on the luminance \; inlet 1 : gemlist (with picture
or movie) \; inlet 2 : command \; outlet : gemlist modified;
#X connect 0 0 16 0;
#X connect 1 0 13 0;
#X connect 2 0 4 0;
#X connect 3 0 4 0;
#X connect 5 0 4 0;
#X connect 6 0 5 0;
#X connect 11 0 12 0;
#X connect 13 0 21 0;
#X connect 14 0 21 1;
#X connect 15 0 21 1;
#X connect 16 0 21 1;
#X connect 17 0 21 1;
#X connect 18 0 17 0;
#X connect 19 0 14 0;
#X connect 20 0 15 0;
#X connect 21 0 10 0;
#X coords 0 0 1 1 150 50 0;
