#N canvas 137 74 760 473 10;
#X floatatom 421 167 5 0 0 0 - - -;
#X floatatom 288 167 5 0 0 0 - - -;
#X floatatom 356 167 5 0 0 0 - - -;
#X obj 101 166 gemhead;
#X msg 592 217 0 \, destroy;
#X msg 579 186 create \, 1;
#X obj 579 292 gemwin;
#X msg 604 267 lighting 1;
#X obj 604 247 loadbang;
#X text 576 163 Gem window;
#X text 662 185 <- on;
#X text 664 218 <- off;
#X obj 101 311 rectangle 4 3;
#X obj 581 367 gemhead;
#X obj 581 389 world_light;
#X msg 356 192 in \$1;
#X msg 421 192 out \$1;
#X obj 101 191 pix_image ../../data/tmp.jpg;
#X msg 288 192 seg \$1;
#X obj 101 236 video-kaleidoscope;
#X text 94 34 video-kaleidoscope \; -------------------------- \; Kaleidoscope
effect \; inlet 1 : gemlist (with picture or movie) \; inlet 2 : command
\; outlet : gemlist modified;
#X connect 0 0 16 0;
#X connect 1 0 18 0;
#X connect 2 0 15 0;
#X connect 3 0 17 0;
#X connect 4 0 6 0;
#X connect 5 0 6 0;
#X connect 7 0 6 0;
#X connect 8 0 7 0;
#X connect 13 0 14 0;
#X connect 15 0 19 1;
#X connect 16 0 19 1;
#X connect 17 0 19 0;
#X connect 18 0 19 1;
#X connect 19 0 12 0;
#X coords 0 0 1 1 150 50 0;
