#N canvas 6 175 1000 602 10;
#X obj 98 385 pix_texture;
#X obj 98 363 pix_kaleidoscope;
#X floatatom 431 285 5 0.1 10 1 sap - -;
#X floatatom 415 269 5 0 1 1 rlp - -;
#X obj 400 248 pack;
#X obj 454 248 t b f;
#X floatatom 400 209 4 0 100 0 - - -;
#X floatatom 452 209 4 0 100 0 - - -;
#X obj 400 228 * 0.01;
#X obj 452 228 * 0.01;
#X obj 262 254 pack;
#X obj 316 254 t b f;
#X floatatom 262 215 4 0 100 0 - - -;
#X floatatom 314 215 4 0 100 0 - - -;
#X obj 262 234 * 0.01;
#X obj 314 234 * 0.01;
#X obj 98 488 outlet gemlist;
#X text 518 261 Inlets:;
#X text 513 509 Outlets:;
#X text 531 522 Outlet 1: gemlist;
#X text 524 277 Inlet 1: gemlist;
#X text 524 294 Inlet 2: float: number of segments (0..64 \, default:
7);
#X text 524 311 Inlet 3: float: rotation of the input-segment (in degree)
;
#X text 524 328 Inlet 4: list <x> <y>: normalized center-position of
the of the segment of the input image. (0..1 \, default 0.5);
#X text 524 358 Inlet 5: float: rotation of the output-segment (in
degree);
#X text 524 376 Inlet 6: list <x> <y>: normalized center-position of
the of the segments in the output image. (0..1 \, default 0.5);
#X text 524 404 Inlet 7: float: reflection line proportion \, controls
the relative sizes of each pair of adjacent segments in the output
image (0..1 \, default 0.5);
#X text 524 451 Inlet 8: float: source angle proportion \, sets the
angular size of the source segment \, relative to the size of the output
segment \; altering this value will squash or expand (0.1..10 \, default:
1);
#X obj 111 134 nbx 3 10 -1e+37 32 0 0 empty empty seg 0 -5 0 9 -262144
-1 -1 3 256;
#X obj 146 134 nbx 3 10 -1e+37 1e+37 0 0 empty empty in 0 -5 0 9 -262144
-1 -1 113 256;
#X obj 181 134 nbx 3 10 -1e+37 1e+37 0 0 empty empty out 0 -5 0 9 -262144
-1 -1 566 256;
#X obj 51 94 inlet;
#X obj 18 172 gate 2;
#X obj 238 105 tgl 8 0 empty empty empty 17 7 0 10 -257985 -1 -1 1
1;
#X obj 18 149 + 1;
#X obj 238 65 initbang;
#X obj 398 95 inlet command;
#X obj 398 117 route seg in out;
#X connect 0 0 16 0;
#X connect 1 0 0 0;
#X connect 2 0 1 7;
#X connect 3 0 1 6;
#X connect 4 0 1 5;
#X connect 5 0 4 0;
#X connect 5 1 4 1;
#X connect 6 0 8 0;
#X connect 7 0 9 0;
#X connect 8 0 4 0;
#X connect 9 0 5 0;
#X connect 10 0 1 3;
#X connect 11 0 10 0;
#X connect 11 1 10 1;
#X connect 12 0 14 0;
#X connect 13 0 15 0;
#X connect 14 0 10 0;
#X connect 15 0 11 0;
#X connect 28 0 1 1;
#X connect 29 0 1 2;
#X connect 30 0 1 4;
#X connect 31 0 32 1;
#X connect 32 0 0 0;
#X connect 32 1 1 0;
#X connect 33 0 34 0;
#X connect 34 0 32 0;
#X connect 35 0 33 0;
#X connect 36 0 37 0;
#X connect 37 0 28 0;
#X connect 37 1 29 0;
#X connect 37 2 30 0;
#X coords 0 -1 1 1 150 50 1 100 100;
