#N canvas 1 82 588 466 10;
#X obj 44 111 gemhead;
#X msg 382 173 0 \, destroy;
#X msg 369 142 create \, 1;
#X obj 369 248 gemwin;
#X msg 394 223 lighting 1;
#X obj 394 203 loadbang;
#X text 366 119 Gem window;
#X text 452 141 <- on;
#X text 454 174 <- off;
#X obj 44 291 rectangle 4 3;
#X obj 371 323 gemhead;
#X obj 371 345 world_light;
#X obj 44 136 pix_image ../../data/tmp.jpg;
#X obj 44 230 video-crop;
#X msg 107 180 100 100 50 50;
#X obj 107 201 unpack f f f f;
#X msg 208 181 50 50 300 100;
#X text 40 21 video-crop \; ---------- \; Get a part of an image (crop)
\;;
#X connect 0 0 12 0;
#X connect 1 0 3 0;
#X connect 2 0 3 0;
#X connect 4 0 3 0;
#X connect 5 0 4 0;
#X connect 10 0 11 0;
#X connect 12 0 13 0;
#X connect 13 0 9 0;
#X connect 14 0 15 0;
#X connect 15 0 13 1;
#X connect 15 1 13 2;
#X connect 15 2 13 3;
#X connect 15 3 13 4;
#X connect 16 0 15 0;
#X coords 0 466 1 465 150 50 0;
