#N canvas 124 80 905 405 10;
#X obj 424 157 gemhead;
#X msg 607 174 0 \, destroy;
#X msg 594 143 create \, 1;
#X obj 594 249 gemwin;
#X obj 596 324 gemhead;
#X obj 596 346 world_light;
#X msg 619 224 lighting 1;
#X obj 619 204 loadbang;
#X text 591 120 Gem window;
#X text 678 138 <- on;
#X text 680 171 <- off;
#X obj 424 346 cube;
#X floatatom 84 129 5 0 0 0 x - -;
#X floatatom 110 159 5 0 0 0 y - -;
#X floatatom 136 186 5 0 0 0 z - -;
#X floatatom 192 238 5 0 0 0 zoom - -;
#X obj 84 277 video-camera;
#X text 79 26 video-camera \; ------------ \; Control the camera positions
\; ...by default the zoom is 4 in gem... \;;
#X connect 0 0 11 0;
#X connect 1 0 3 0;
#X connect 2 0 3 0;
#X connect 4 0 5 0;
#X connect 6 0 3 0;
#X connect 7 0 6 0;
#X connect 12 0 16 0;
#X connect 13 0 16 1;
#X connect 14 0 16 2;
#X connect 15 0 16 3;
