#N canvas 232 118 498 245 10;
#X declare -path ../;
#X obj 54 123 qompand~;
#X obj 123 123 qompand~;
#X obj 194 122 qompand~;
#X obj 261 122 qompand~;
#X obj 330 121 qompand~;
#X obj 46 183 qompand~;
#X obj 118 185 qompand~;
#X obj 189 184 qompand~;
#X obj 256 184 qompand~;
#X obj 325 183 qompand~;
#X obj 46 48 osc~ 200;
#X obj 240 44 hsl 128 15 0 1 0 1 empty empty empty -2 -8 0 10 -262144
-1 -1 7600 0;
#X floatatom 295 59 5 0 0 0 - - -;
#X msg 404 47 \; pd dsp 1;
#X msg 405 89 \; pd dsp 0;
#X obj 47 17 declare -path ../;
#X connect 10 0 0 0;
#X connect 10 0 1 0;
#X connect 10 0 2 0;
#X connect 10 0 3 0;
#X connect 10 0 4 0;
#X connect 10 0 5 0;
#X connect 10 0 6 0;
#X connect 10 0 7 0;
#X connect 10 0 8 0;
#X connect 10 0 9 0;
#X connect 11 0 0 1;
#X connect 11 0 1 1;
#X connect 11 0 2 1;
#X connect 11 0 3 1;
#X connect 11 0 4 1;
#X connect 11 0 5 1;
#X connect 11 0 6 1;
#X connect 11 0 7 1;
#X connect 11 0 8 1;
#X connect 11 0 9 1;
#X connect 11 0 12 0;
