#N canvas 1 81 826 530 10;
#X text 585 319 < Look inside;
#X obj 429 199 metro 200;
#X obj 429 240 / 100;
#X obj 429 219 random 100;
#X obj 429 181 tgl 15 0 empty empty empty 17 7 0 10 -262144 -1 -1 1
1;
#X obj 429 161 loadbang;
#X text 433 271 < input numbers from 0 to 1 \, most of the time;
#X obj 432 464 hsl 35 30 0 100 0 0 empty empty 0.103448-test -2 -8
0 14 -4034 -1 -4160 0 1;
#X msg 429 405 size \$1;
#X msg 572 399 label \$1;
#X obj 429 301 abs-template 0.2 test;
#X text 36 23 abs-template \; ------------ \; An example of good practice
to make your own abstraction inside the Malinette \; \; Arguments \;
\$1 : size (float) \; \$2 : label (symbol) \; \; Inlets \; \$1 : float
\; \$2 : commands \; \; Outlets \; \$1 : size (float) \; \$2 : label
(symbol) \; \; Dependancies : maxlib/scale \;;
#X text 427 32 < Please respect the format of the text description
\; \; Don't write " \, " caracter... \; Write the right name of the
abstraction and the " \; " and "-----" to catch automatically the name
of the abstraction and the description in the script ./other/scripts/make_help.sh
\;;
#X connect 1 0 3 0;
#X connect 2 0 10 0;
#X connect 3 0 2 0;
#X connect 4 0 1 0;
#X connect 5 0 4 0;
#X connect 8 0 7 0;
#X connect 9 0 7 0;
#X connect 10 0 8 0;
#X connect 10 1 9 0;
