#N canvas 110 92 739 690 10;
#X obj 209 208 hcs/folder_list;
#X obj 39 571 makefilename pd-%s;
#X msg 39 592 \; \$1 menuclose 1;
#X obj 40 527 list-abs/list-idx;
#X obj 40 549 hcs/split_path;
#X obj 209 238 mapping/tolist;
#X obj 131 255 list length;
#X obj 40 245 f;
#X obj 69 245 + 1;
#X obj 107 280 - 1;
#X obj 40 278 t f f;
#X obj 217 535 pack symbol symbol;
#X msg 217 558 \; pd open \$2 \$1;
#X obj 217 513 hcs/split_path;
#X msg 70 188 0;
#X msg 40 188 1;
#X obj 40 113 bng 15 250 50 0 empty empty empty 17 7 0 10 -262144 -1
-1;
#X msg 111 215 0;
#X obj 40 142 t b b b;
#X obj 386 591 shell;
#X obj 386 541 pack s s;
#X obj 386 495 makefilename %s.png;
#X obj 386 473 splitfilename .;
#X msg 386 568 scrot -u \$2/\$1;
#X obj 80 301 sel 1;
#X obj 40 58 r \$0-go;
#X text 207 76 Scan folder \; --------------------------;
#X text 37 22 Increment into files \; ---------------------;
#X obj 40 506 list;
#X obj 386 451 symbol;
#X text 34 630 ----------------------- \; Close patch;
#X text 214 589 ----------------------- \; Open patch;
#X text 440 427 wait 500 msec;
#X obj 500 119 inlet;
#X obj 421 196 s \$0-go;
#X obj 40 91 spigot;
#X obj 96 79 b;
#X msg 96 102 1;
#X obj 421 126 inlet;
#X obj 421 157 route bang;
#X text 416 82 Commands \; --------------------------;
#N canvas 411 208 569 275 _TEST_ARGUMENTS_ 0;
#X obj 127 102 symbol;
#X obj 52 125 select symbol;
#X obj 52 74 t b b;
#X obj 52 99 symbol \$1;
#X text 70 150 empty;
#X obj 52 151 bng 15 250 50 0 empty empty empty 17 7 0 10 -262144 -1
-1;
#X text 194 147 not empty;
#X obj 52 49 loadbang;
#X obj 372 98 symbol;
#X obj 297 121 select symbol;
#X obj 297 70 t b b;
#X text 315 146 empty;
#X obj 297 147 bng 15 250 50 0 empty empty empty 17 7 0 10 -262144
-1 -1;
#X text 439 143 not empty;
#X obj 297 45 loadbang;
#X obj 297 95 symbol \$2;
#X obj 372 219 outlet;
#X obj 127 148 symbol;
#X obj 372 146 symbol;
#X msg 127 169 pd \$1;
#X msg 372 167 png \$1;
#X msg 297 169 symbol png;
#X connect 0 0 1 1;
#X connect 1 0 5 0;
#X connect 1 1 17 0;
#X connect 2 0 3 0;
#X connect 2 1 0 0;
#X connect 3 0 1 0;
#X connect 7 0 2 0;
#X connect 8 0 9 1;
#X connect 9 0 12 0;
#X connect 9 1 18 0;
#X connect 10 0 15 0;
#X connect 10 1 8 0;
#X connect 12 0 21 0;
#X connect 14 0 10 0;
#X connect 15 0 9 0;
#X connect 17 0 19 0;
#X connect 18 0 20 0;
#X connect 19 0 16 0;
#X connect 20 0 16 0;
#X connect 21 0 20 0;
#X restore 551 120 pd _TEST_ARGUMENTS_;
#X obj 131 317 != 0;
#X obj 40 334 spigot;
#X obj 500 188 symbol;
#X obj 555 188 symbol;
#X obj 500 239 s \$0-patchs-folder;
#X obj 555 214 s \$0-pictures-folder;
#X obj 431 518 r \$0-pictures-folder;
#X obj 209 108 r \$0-patchs-folder;
#X obj 96 58 r \$0-patchs-folder;
#X obj 209 180 t a b;
#X obj 209 159 symbol;
#X obj 57 408 f;
#X text 86 411 <- last file;
#X obj 72 385 + 1;
#X obj 217 446 list;
#X obj 217 468 list-abs/list-idx;
#X obj 139 506 f 2;
#X obj 217 408 t b f;
#X obj 40 454 t b f b;
#X obj 40 361 t f f f;
#X obj 386 405 t b a;
#X text 382 366 Take a screenshot \; with "scrot" program on GNU/Linux
;
#X obj 40 214 metro 1000;
#X obj 386 427 del 500;
#X obj 40 165 delay 500;
#X obj 209 137 makefilename %s/*.pd;
#X obj 500 153 route pd png;
#X obj 58 428 pipe 700;
#X text 540 661 jeromeabel.net/05.2013/GNUGPL3;
#X text 29 666 // from "+pager.pd" abstraction;
#X connect 0 0 5 0;
#X connect 1 0 2 0;
#X connect 3 0 4 0;
#X connect 4 1 1 0;
#X connect 5 0 28 1;
#X connect 5 0 56 1;
#X connect 5 0 6 0;
#X connect 6 0 9 0;
#X connect 6 0 42 0;
#X connect 7 0 8 0;
#X connect 7 0 10 0;
#X connect 8 0 7 1;
#X connect 9 0 24 1;
#X connect 10 0 43 0;
#X connect 10 1 24 0;
#X connect 11 0 12 0;
#X connect 13 0 11 0;
#X connect 13 1 11 1;
#X connect 13 1 62 0;
#X connect 14 0 64 0;
#X connect 15 0 64 0;
#X connect 16 0 18 0;
#X connect 17 0 7 1;
#X connect 18 0 66 0;
#X connect 18 1 17 0;
#X connect 18 2 52 0;
#X connect 20 0 23 0;
#X connect 21 0 20 0;
#X connect 22 0 21 0;
#X connect 23 0 19 0;
#X connect 24 0 14 0;
#X connect 24 0 53 0;
#X connect 25 0 35 0;
#X connect 28 0 3 0;
#X connect 29 0 22 0;
#X connect 33 0 68 0;
#X connect 35 0 16 0;
#X connect 36 0 37 0;
#X connect 37 0 35 1;
#X connect 38 0 39 0;
#X connect 39 0 34 0;
#X connect 41 0 68 0;
#X connect 42 0 43 1;
#X connect 43 0 61 0;
#X connect 44 0 46 0;
#X connect 45 0 47 0;
#X connect 48 0 20 1;
#X connect 49 0 67 0;
#X connect 50 0 36 0;
#X connect 51 0 0 0;
#X connect 51 1 5 1;
#X connect 52 0 51 0;
#X connect 53 0 69 0;
#X connect 55 0 53 1;
#X connect 56 0 57 0;
#X connect 57 0 13 0;
#X connect 58 0 3 1;
#X connect 59 0 56 0;
#X connect 59 1 57 1;
#X connect 60 0 28 0;
#X connect 60 1 58 1;
#X connect 60 2 58 0;
#X connect 61 0 60 0;
#X connect 61 1 55 0;
#X connect 61 2 59 0;
#X connect 62 0 65 0;
#X connect 62 1 29 1;
#X connect 64 0 7 0;
#X connect 65 0 29 0;
#X connect 66 0 15 0;
#X connect 67 0 52 0;
#X connect 68 0 44 0;
#X connect 68 1 45 0;
#X connect 69 0 60 0;
#X coords 0 0 1 1 85 60 0;
