#N canvas 37 49 896 709 10;
#X obj 237 254 phasor~;
#X obj 240 380 *~;
#X floatatom 743 147 10 0 0 0 - - -, f 10;
#X obj 713 75 hsl 128 15 0 1 0 0 empty Speed Speed -2 -8 0 10 -262144
-1 -1 0 1;
#X obj 713 127 hsl 128 15 0 1000 0 0 empty Depth Depth -2 -8 0 10 -262144
-1 -1 0 1;
#X obj 380 329 +~ 0.5;
#X obj 380 353 wrap~;
#X obj 379 389 *~;
#X obj 714 26 hsl 128 15 0 0.9 0 0 empty Feedback Feedback -2 -8 0
10 -262144 -1 -1 0 1;
#X obj 176 413 cos~;
#X obj 178 440 *~;
#X obj 176 361 -~ 0.5;
#X obj 176 387 *~ 0.5;
#X obj 460 484 cos~;
#X obj 461 511 *~;
#X obj 460 432 -~ 0.5;
#X obj 460 458 *~ 0.5;
#X obj 424 89 line~;
#X obj 425 70 pack 0 5;
#X obj 484 139 *~;
#X obj 338 136 *~;
#X obj 238 230 line~;
#X obj 239 211 pack 0 5;
#X floatatom 745 93 10 0 0 0 - - -, f 10;
#X floatatom 744 43 10 0 0 0 - - -, f 10;
#X text 322 189 Write incoming signal + feedback from delays;
#X text 296 252 <-- 1 phasor controls the length of two delay lines
...;
#X text 430 386 <-- ... The output is squared so that the length of
the;
#X text 454 397 grows at an increasing speed.;
#X text 514 464 <-- The signal from the phasor is also used to make
an;
#X text 513 482 envelope for each delay line.;
#X text 427 327 <-- This shifts the phasor signal so that one delay
line;
#X text 431 343 starts growing when the other one is at half its cycle.
;
#X text 589 623 GuitarExtended \, Pierre Massat \, 2012;
#X obj 302 359 line~;
#X obj 303 340 pack 0 5;
#X obj 239 400 *~;
#X obj 380 424 *~;
#X obj 281 -1 inlet~;
#X obj 310 163 delwrite~ \$0del1 3000;
#X obj 484 164 delwrite~ \$0del2 3000;
#X obj 177 482 send~ \$0out_del1;
#X obj 460 530 send~ \$0out_del2;
#X obj 485 114 receive~ \$0out_del2;
#X obj 338 116 receive~ \$0out_del1;
#N canvas 0 50 612 483 equal_power_crossfade 0;
#X obj 33 48 inlet~;
#X obj 244 58 inlet;
#X obj 33 332 outlet~;
#X obj 319 54 loadbang;
#X msg 319 74 0.5;
#X obj 49 194 expr cos($f1 * 3.14159 / 2);
#X obj 244 194 expr sin($f1 * 3.14159 / 2);
#X obj 244 134 clip 0 1;
#N canvas 0 50 450 300 pan_core 0;
#X obj 21 106 inlet~;
#X obj 226 126 inlet;
#X obj 80 453 *~;
#X obj 144 497 outlet~;
#X obj 210 452 *~;
#X obj 226 428 line~;
#X obj 96 428 line~;
#X obj 96 127 inlet;
#X obj 179 104 inlet~;
#X text 244 544 comment;
#X obj 96 389 pack f 5;
#X obj 226 389 pack f 5;
#X text 223 540 Hans-Christoph Steiner \, 2004;
#X text 223 526 Adapted from [pan_core~];
#X connect 0 0 2 0;
#X connect 1 0 11 0;
#X connect 2 0 3 0;
#X connect 4 0 3 0;
#X connect 5 0 4 1;
#X connect 6 0 2 1;
#X connect 7 0 10 0;
#X connect 8 0 4 0;
#X connect 10 0 6 0;
#X connect 11 0 5 0;
#X restore 39 266 pd pan_core;
#X text 256 437 Adapted from [equal_power_pan~] \, Hans-Christoph Steiner
\, 2004;
#X text 411 449 comment;
#X obj 128 46 inlet~;
#X connect 0 0 8 0;
#X connect 1 0 7 0;
#X connect 3 0 4 0;
#X connect 4 0 7 0;
#X connect 5 0 8 1;
#X connect 6 0 8 3;
#X connect 7 0 5 0;
#X connect 7 0 6 0;
#X connect 8 0 2 0;
#X connect 11 0 8 2;
#X restore 212 542 pd equal_power_crossfade;
#X obj 212 570 outlet~;
#X text 585 598 ADAPTED BY ENRIKE HURADO FROM;
#X obj 346 4 inlet;
#X obj 405 4 inlet;
#X obj 472 7 inlet;
#X obj 578 -4 inlet;
#X obj 106 118 hsl 100 12 0 0.95 0 0 empty empty empty -2 -8 0 10 -204800
-258113 -1 0 1;
#X obj 106 133 hsl 100 12 0 1 0 0 empty empty empty -2 -8 0 10 -204800
-258113 -1 0 1;
#X obj 106 163 hsl 100 12 0 1 0 0 empty empty empty -2 -8 0 10 -204800
-258113 -1 0 1;
#X text 123 160 dry/wet;
#X text 124 116 feedback;
#X obj 193 103 bng 15 250 50 0 empty empty empty 17 7 0 10 -258113
-1 -1;
#X obj 106 148 hsl 100 12 0 10000 0 0 empty empty empty -2 -8 0 10
-204800 -258113 -1 0 1;
#X text 123 130 speed;
#X text 123 145 depth;
#X msg 102 135;
#X msg 186 42 0;
#X obj 525 0 inlet;
#X obj 238 421 vd~ \$0del1;
#X obj 381 447 vd~ \$0del2;
#X connect 0 0 1 0;
#X connect 0 0 1 1;
#X connect 0 0 5 0;
#X connect 0 0 11 0;
#X connect 1 0 36 0;
#X connect 3 0 22 0;
#X connect 3 0 23 0;
#X connect 4 0 2 0;
#X connect 4 0 35 0;
#X connect 5 0 6 0;
#X connect 6 0 7 0;
#X connect 6 0 7 1;
#X connect 6 0 15 0;
#X connect 7 0 37 0;
#X connect 8 0 18 0;
#X connect 8 0 24 0;
#X connect 9 0 10 0;
#X connect 10 0 41 0;
#X connect 10 0 45 0;
#X connect 11 0 12 0;
#X connect 12 0 9 0;
#X connect 13 0 14 0;
#X connect 14 0 42 0;
#X connect 14 0 45 1;
#X connect 15 0 16 0;
#X connect 16 0 13 0;
#X connect 17 0 20 1;
#X connect 17 0 19 1;
#X connect 18 0 17 0;
#X connect 19 0 40 0;
#X connect 20 0 39 0;
#X connect 21 0 0 0;
#X connect 22 0 21 0;
#X connect 34 0 36 1;
#X connect 34 0 37 1;
#X connect 35 0 34 0;
#X connect 36 0 64 0;
#X connect 37 0 65 0;
#X connect 38 0 39 0;
#X connect 38 0 40 0;
#X connect 43 0 19 0;
#X connect 44 0 20 0;
#X connect 45 0 46 0;
#X connect 48 0 52 0;
#X connect 49 0 53 0;
#X connect 50 0 58 0;
#X connect 51 0 57 0;
#X connect 52 0 8 0;
#X connect 52 0 61 0;
#X connect 53 0 3 0;
#X connect 54 0 45 2;
#X connect 57 0 62 0;
#X connect 58 0 4 0;
#X connect 62 0 52 0;
#X connect 62 0 53 0;
#X connect 62 0 58 0;
#X connect 62 0 54 0;
#X connect 63 0 54 0;
#X connect 64 0 10 1;
#X connect 65 0 14 1;
#X coords 0 -1 1 1 110 77 1 100 100;
