#N canvas 3 170 560 399 10;
#X obj 74 94 + 1;
#X obj 113 96 i;
#X text 300 -1 max;
#X obj 76 159 moses;
#X obj 103 182 t i b;
#X obj 46 17 inlet;
#X obj 89 17 inlet;
#X obj 299 15 inlet;
#X obj 231 2 loadbang;
#X obj 415 28 inlet;
#X obj 82 339 outlet;
#X text 92 -2 increment;
#X text 47 -2 step;
#X obj 175 20 inlet;
#X text 415 11 reset and output;
#X obj 300 59 \$2;
#X obj 175 57 \$1;
#X obj 415 54 t i i;
#X obj 129 340 outlet;
#X text 116 159 max;
#X obj 302 135 i;
#X text 188 1 min;
#X obj 231 23 t b b b;
#X floatatom 23 139 5 0 0 0 - - -, f 5;
#X obj 175 90 - 1, f 4;
#X obj 89 44 max 0;
#X connect 0 0 1 1;
#X connect 0 0 3 0;
#X connect 0 0 23 0;
#X connect 1 0 0 0;
#X connect 3 0 10 0;
#X connect 3 1 4 0;
#X connect 4 0 10 0;
#X connect 4 1 18 0;
#X connect 4 1 16 0;
#X connect 5 0 1 0;
#X connect 6 0 25 0;
#X connect 7 0 15 0;
#X connect 8 0 22 0;
#X connect 9 0 17 0;
#X connect 13 0 16 0;
#X connect 15 0 20 0;
#X connect 16 0 24 0;
#X connect 17 0 1 1;
#X connect 17 1 3 0;
#X connect 20 0 3 1;
#X connect 22 1 16 0;
#X connect 22 2 15 0;
#X connect 24 0 1 1;
#X connect 25 0 0 1;
