#N canvas 10 91 561 417 10;
#X msg 116 259 1;
#X obj 116 236 t b f;
#X obj 145 259 - 1;
#X obj 29 249 *~ 1;
#X obj 75 249 *~ 0;
#X obj 229 259 *~ 0;
#X obj 181 256 *~ 1;
#X obj 38 80 inlet~;
#X obj 207 73 inlet~;
#X obj 54 371 outlet~;
#X obj 198 367 outlet~;
#X floatatom 103 116 5 0 0 2 - - -;
#X obj 106 149 hsl 80 12 0 1 0 0 trem_dry empty empty 4 10 0 8 -225271
-258699 -1 5000 1;
#X obj 173 118 bng 15 250 50 0 empty empty empty 0 -6 0 10 -258113
-1 -1;
#X text 116 145 dry/wet;
#X obj 353 133 tgl 15 0 empty empty empty 17 7 0 10 -260097 -1 -1 0
1;
#X obj 291 24 inlet;
#X obj 370 24 inlet;
#X obj 409 24 inlet;
#X obj 268 366 namecanvas \$0-bla;
#X obj 267 344 s \$0-bla;
#X obj 267 299 r EHU_gop;
#X text 274 277 GOP;
#X msg 267 320 donecanvasdialog 1 -1 \$1 0 -1 1 1 80 50 100 100;
#X obj 330 23 inlet;
#X obj 106 135 hsl 80 12 0 80 0 0 trem_dry empty empty 4 10 0 8 -225271
-258699 -1 7900 1;
#X obj 197 320 *~ 1;
#X obj 76 226 dist~;
#X obj 229 231 dist~;
#X msg 84 89 0;
#X text 81 3 left \, right \, dist \, dry/wet \, reset \, stereo;
#X text 113 131 distorsion;
#X connect 0 0 2 0;
#X connect 1 0 0 0;
#X connect 1 1 2 1;
#X connect 2 0 3 1;
#X connect 2 0 6 1;
#X connect 3 0 9 0;
#X connect 4 0 9 0;
#X connect 5 0 26 0;
#X connect 6 0 26 0;
#X connect 7 0 3 0;
#X connect 7 0 27 0;
#X connect 8 0 6 0;
#X connect 8 0 28 0;
#X connect 11 0 27 1;
#X connect 11 0 28 1;
#X connect 12 0 5 1;
#X connect 12 0 4 1;
#X connect 12 0 1 0;
#X connect 13 0 29 0;
#X connect 15 0 26 1;
#X connect 16 0 11 0;
#X connect 17 0 13 0;
#X connect 18 0 15 0;
#X connect 21 0 23 0;
#X connect 23 0 20 0;
#X connect 24 0 12 0;
#X connect 25 0 11 0;
#X connect 26 0 10 0;
#X connect 27 0 4 0;
#X connect 28 0 5 0;
#X connect 29 0 12 0;
#X coords 0 -1 1 1 90 65 1 100 100;
