#N canvas 124 66 471 506 10;
#X obj 58 38 bonk~;
#X text 824 122 min/max;
#X obj 85 59 unpack f f f;
#X text 797 172 min volume;
#X text 803 147 time between;
#X obj 102 169 cnv 15 107 33 empty empty empty 20 12 0 14 -204800 -66577
0;
#X obj 100 375 namecanvas \$0-bla;
#X obj 99 353 s \$0-bla;
#X obj 99 308 r EHU_gop;
#X text 177 311 w h of canvas / x y of red window;
#X obj 58 -31 inlet~;
#X obj 164 172 bng 15 250 50 0 empty empty empty 0 -6 0 10 -258113
-1 -1;
#X obj 103 172 nbx 3 14 -1e+37 1e+37 0 0 empty empty empty 0 -6 0 10
-228856 -159808 -1 36.3455 256;
#X obj 139 243 outlet;
#X obj 208 241 outlet;
#X obj 128 -9 inlet;
#X text 144 260 attack;
#X text 204 256 amplitude db;
#X obj 59 -5 *~ 1;
#X obj 191 124 tgl 15 0 empty empty empty 17 7 0 10 -258113 -1 -1 1
1;
#X obj 231 125 loadbang;
#X floatatom 105 124 5 0 0 0 - - -;
#X floatatom 142 124 5 0 0 0 - - -;
#X obj 191 -7 inlet;
#X obj 243 -8 inlet;
#X obj 398 -6 inlet;
#X text 125 -29 messages;
#X text 190 -25 min;
#X text 244 -27 max;
#X text 393 -27 on/off;
#X obj 17 144 t b f;
#X obj 16 172 pack \$1 \$2;
#X text 102 110 min;
#X text 141 109 max;
#X msg 99 329 donecanvasdialog 1 -1 \$1 0 -1 1 1 110 108 100 100;
#X text 169 109 on/off;
#X text 181 172 HIT!;
#X obj 106 189 hsl 100 12 0 400 0 0 empty empty empty -2 -8 0 10 -4032
-1 -1 900 1;
#X obj 287 244 outlet;
#X text 108 186 volume;
#X msg 16 202 thresh \$1 \$2;
#X text 202 -38 threshold;
#X obj 289 -8 inlet;
#X obj 341 -9 inlet;
#X text 281 -28 debounce;
#X text 341 -27 minvel;
#X floatatom 105 150 5 0 0 0 - - -;
#X floatatom 157 150 5 0 0 0 - - -;
#X text 160 136 minvel;
#X text 102 136 debounce;
#X msg 23 271 debounce \$1;
#X msg 20 249 minvel \$1;
#X text 284 258 cooked;
#X connect 0 1 2 0;
#X connect 0 1 38 0;
#X connect 2 1 12 0;
#X connect 2 1 11 0;
#X connect 8 0 34 0;
#X connect 10 0 18 0;
#X connect 11 0 13 0;
#X connect 12 0 37 0;
#X connect 15 0 0 0;
#X connect 18 0 0 0;
#X connect 19 0 18 1;
#X connect 20 0 19 0;
#X connect 21 0 31 0;
#X connect 22 0 30 0;
#X connect 23 0 21 0;
#X connect 24 0 22 0;
#X connect 25 0 19 0;
#X connect 30 0 31 0;
#X connect 30 1 31 1;
#X connect 31 0 40 0;
#X connect 34 0 7 0;
#X connect 37 0 14 0;
#X connect 40 0 0 0;
#X connect 42 0 46 0;
#X connect 43 0 47 0;
#X connect 46 0 50 0;
#X connect 47 0 51 0;
#X connect 50 0 0 0;
#X connect 51 0 0 0;
#X coords 0 -1 1 1 110 105 1 100 100;
