#N canvas 437 16 450 300 10;
#X obj 7 142 *~ 1;
#X obj 106 34 inlet;
#X obj 106 66 select bang;
#X obj 192 35 loadbang;
#X obj 22 35 adc~;
#X obj 7 238 outlet~;
#X obj 111 227 namecanvas \$0-bla;
#X obj 110 205 s \$0-bla;
#X obj 110 160 r EHU_gop;
#X text 224 157 w h of canvas / x y of red window;
#X obj 106 118 hsl 100 12 0 1 0 0 empty empty empty -2 -6 0 10 -4032
-1 -1 7900 1;
#X obj 211 118 tgl 12 0 empty empty empty 17 7 0 10 -258113 -1 -1 1
1;
#X obj 169 102 nbx 5 14 -1e+037 1e+037 0 0 empty empty empty 0 -8 0
10 -262144 -1 -1 1 256;
#X text 109 115 vol;
#X msg 110 181 donecanvasdialog 1 -1 \$1 0 -1 1 1 110 48 100 100;
#X obj 56 141 *~ 1;
#X obj 55 238 outlet~;
#X connect 0 0 5 0;
#X connect 1 0 2 0;
#X connect 2 0 11 0;
#X connect 2 1 10 0;
#X connect 3 0 11 0;
#X connect 4 0 0 0;
#X connect 4 1 15 0;
#X connect 8 0 14 0;
#X connect 10 0 12 0;
#X connect 11 0 10 0;
#X connect 12 0 0 1;
#X connect 12 0 15 1;
#X connect 14 0 7 0;
#X connect 15 0 16 0;
#X coords 0 -1 1 1 125 33 1 100 100;
