#N canvas 110 330 450 300 10;
#X obj 140 158 moses;
#X obj 167 183 moses;
#X obj 113 128 moses;
#X obj 86 104 moses;
#X obj 42 16 inlet;
#X obj 138 15 inlet;
#X obj 186 16 inlet;
#X obj 232 16 inlet;
#X obj 143 87 \$1;
#X obj 220 166 \$4;
#X obj 192 141 \$3;
#X obj 168 111 \$2;
#X obj 198 65 loadbang;
#X obj 176 215 outlet;
#X obj 133 215 outlet;
#X obj 85 214 outlet;
#X obj 39 209 outlet;
#X obj 285 16 inlet;
#X connect 0 0 14 0;
#X connect 0 1 1 0;
#X connect 1 0 13 0;
#X connect 2 0 15 0;
#X connect 2 1 0 0;
#X connect 3 0 16 0;
#X connect 3 1 2 0;
#X connect 4 0 3 0;
#X connect 5 0 3 1;
#X connect 6 0 2 1;
#X connect 7 0 0 1;
#X connect 8 0 3 1;
#X connect 9 0 1 1;
#X connect 10 0 0 1;
#X connect 11 0 2 1;
#X connect 12 0 8 0;
#X connect 12 0 11 0;
#X connect 12 0 10 0;
#X connect 12 0 9 0;
#X connect 17 0 1 1;
