#N canvas 31 63 620 383 10;
#X obj 17 13 inlet;
#X obj 68 177 outlet;
#X obj 197 240 outlet;
#X obj 482 336 outlet;
#X obj 68 134 spigot;
#X msg 101 113 1;
#X msg 146 114 0;
#X obj 197 192 spigot;
#X msg 231 171 1;
#X msg 276 172 0;
#X obj 482 288 spigot;
#X msg 515 267 1;
#X msg 550 266 0;
#X obj 101 13 inlet;
#X obj 101 70 moses \$1;
#X obj 231 129 moses \$2;
#X obj 336 300 outlet;
#X obj 336 252 spigot;
#X msg 370 231 1;
#X msg 415 232 0;
#X obj 370 189 moses \$3;
#X obj 17 35 s event;
#X obj 49 97 r event;
#X obj 186 157 r event;
#X obj 319 208 r event;
#X obj 457 260 r event;
#X obj 110 92 s cls;
#X obj 302 125 r cls;
#X obj 434 188 r cls;
#X obj 550 236 r cls;
#X text 143 15 value;
#X text 51 11 event;
#X connect 0 0 21 0;
#X connect 4 0 1 0;
#X connect 5 0 4 1;
#X connect 6 0 4 1;
#X connect 7 0 2 0;
#X connect 8 0 7 1;
#X connect 9 0 7 1;
#X connect 10 0 3 0;
#X connect 11 0 10 1;
#X connect 12 0 10 1;
#X connect 13 0 14 0;
#X connect 14 0 5 0;
#X connect 14 0 26 0;
#X connect 14 1 6 0;
#X connect 14 1 15 0;
#X connect 15 0 8 0;
#X connect 15 1 9 0;
#X connect 15 1 20 0;
#X connect 17 0 16 0;
#X connect 18 0 17 1;
#X connect 19 0 17 1;
#X connect 20 0 18 0;
#X connect 20 1 19 0;
#X connect 20 1 11 0;
#X connect 22 0 4 0;
#X connect 23 0 7 0;
#X connect 24 0 17 0;
#X connect 25 0 10 0;
#X connect 27 0 9 0;
#X connect 28 0 19 0;
#X connect 29 0 12 0;
