#N canvas 23 250 944 532 10;
#X obj 348 11 *~ 2;
#X obj 348 31 +~ 2;
#X obj 387 53 *~ 2;
#X obj 386 76 +~ 2;
#X obj 387 9 wrap~;
#X obj 357 -46 phasor~;
#X obj 386 -12 +~ 0.5;
#X obj 348 -12 cos~;
#X obj 387 29 cos~;
#X obj 386 125 *~ 0.8;
#X obj 348 186 *~ 0.8;
#X obj 447 264 s~ output;
#X obj 50 348 r~ output;
#X text 63 185 <-- Write to delay lines;
#X text 488 103 <-- Read from delay line 2;
#X text 452 163 <-- Read from delay line 1;
#X text 420 -46 <-- Low Frequency Oscillator (LFO);
#X text 594 30 <-- Speed (try 0.7);
#X text 591 43 <-- Depth (try 2.4);
#X obj 19 -5 inlet~;
#X obj 18 389 outlet~;
#X obj 63 221 delwrite~ \$0-phase1 100;
#X obj 57 287 delwrite~ \$0-phase2 100;
#X obj 386 102 vd~ \$0-phase2;
#X obj 349 163 vd~ \$0-phase1;
#X obj 192 103 bng 15 250 50 0 empty empty empty 0 -6 0 10 -258113
-1 -1;
#X obj 106 116 hsl 80 12 0 10 0 0 trem_dry empty empty 4 10 0 8 -225271
-258699 -1 0 1;
#X obj 106 131 hsl 80 12 0 3 0 0 trem_dry empty empty 4 10 0 8 -225271
-258699 -1 0 1;
#X obj 106 146 hsl 80 12 -0.9 0.9 0 0 trem_dry empty empty 4 10 0 8
-225271 -258699 -1 0 1;
#X text 114 114 speed;
#X text 113 129 depth;
#X text 112 144 feedback;
#X msg 228 113 0;
#X obj 111 -32 inlet;
#X obj 163 -32 inlet;
#X obj 221 -32 inlet;
#X obj 266 -36 inlet;
#X connect 0 0 1 0;
#X connect 1 0 24 0;
#X connect 2 0 3 0;
#X connect 3 0 23 0;
#X connect 4 0 8 0;
#X connect 5 0 6 0;
#X connect 5 0 7 0;
#X connect 6 0 4 0;
#X connect 7 0 0 0;
#X connect 8 0 2 0;
#X connect 9 0 22 0;
#X connect 10 0 21 0;
#X connect 12 0 20 0;
#X connect 19 0 20 0;
#X connect 19 0 21 0;
#X connect 19 0 22 0;
#X connect 23 0 9 0;
#X connect 23 0 11 0;
#X connect 24 0 10 0;
#X connect 24 0 11 0;
#X connect 25 0 32 0;
#X connect 26 0 5 0;
#X connect 27 0 0 1;
#X connect 27 0 1 1;
#X connect 27 0 2 1;
#X connect 27 0 3 1;
#X connect 28 0 9 1;
#X connect 28 0 10 1;
#X connect 32 0 26 0;
#X connect 32 0 27 0;
#X connect 32 0 28 0;
#X connect 33 0 26 0;
#X connect 34 0 27 0;
#X connect 35 0 28 0;
#X connect 36 0 25 0;
#X coords 0 -1 1 1 110 60 1 100 100;
