#N canvas 282 247 562 395 10;
#X obj 101 144 cnv 15 107 61 empty empty empty 20 12 0 14 -204800 -66577
0;
#X obj 244 178 namecanvas \$0-bla;
#X obj 243 156 s \$0-bla;
#X obj 243 111 r EHU_gop;
#X text 321 114 w h of canvas / x y of red window;
#X obj 168 -23 inlet~;
#X obj 164 189 bng 15 250 50 0 empty empty empty 0 -6 0 10 -258113
-1 -1;
#X obj 119 189 nbx 3 14 -1e+037 1e+037 0 0 empty empty empty 0 -6 0
10 -228856 -159808 -1 4.11387 256;
#X obj 174 317 outlet;
#X obj 243 315 outlet;
#X obj 229 -4 inlet;
#X text 85 348 frequency;
#X text 179 334 attack;
#X text 239 330 amplitude db;
#X obj 74 314 outlet;
#X obj 121 314 outlet;
#X text 79 333 midi;
#X text 130 333 hz;
#X obj 170 51 mtof;
#X obj 169 3 *~ 1;
#X obj 190 125 tgl 15 0 empty empty empty 17 7 0 10 -258113 -1 -1 1
1;
#X obj 371 56 loadbang;
#X floatatom 120 146 5 0 0 0 - - -;
#X floatatom 120 165 5 0 0 0 - - -;
#X floatatom 104 125 5 0 0 0 - - -;
#X floatatom 141 125 5 0 0 0 - - -;
#X text 155 162 hz;
#X text 155 145 midi;
#X msg 15 230 amp-range \$1 \$2;
#X obj 292 -2 inlet;
#X obj 344 -3 inlet;
#X obj 404 -1 inlet;
#X text 226 -24 messages;
#X text 291 -20 min;
#X text 345 -22 max;
#X text 399 -22 on/off;
#X obj 16 172 t b f;
#X obj 15 200 pack \$1 \$2;
#X text 161 172 attack;
#X obj 104 146 vsl 12 55 0 150 0 0 empty empty empty 0 -9 0 10 -4032
-1 -1 148 1;
#X text 101 111 min;
#X text 140 110 max;
#X msg 243 132 donecanvasdialog 1 -1 \$1 0 -1 1 1 110 108 100 100;
#X text 170 109 on/off;
#X obj 171 28 fiddle~;
#X connect 3 0 42 0;
#X connect 5 0 19 0;
#X connect 6 0 8 0;
#X connect 7 0 39 0;
#X connect 10 0 44 0;
#X connect 18 0 23 0;
#X connect 19 0 44 0;
#X connect 20 0 19 1;
#X connect 21 0 20 0;
#X connect 22 0 14 0;
#X connect 23 0 15 0;
#X connect 24 0 37 0;
#X connect 25 0 36 0;
#X connect 28 0 44 0;
#X connect 29 0 24 0;
#X connect 30 0 25 0;
#X connect 31 0 20 0;
#X connect 36 0 37 0;
#X connect 36 1 37 1;
#X connect 37 0 28 0;
#X connect 39 0 9 0;
#X connect 42 0 2 0;
#X connect 44 0 22 0;
#X connect 44 0 18 0;
#X connect 44 1 6 0;
#X connect 44 3 7 0;
#X coords 0 -1 1 1 110 108 1 100 100;
