#N canvas 81 130 450 300 10;
#X obj 54 86 pack f f;
#X floatatom 35 45 5 0 0 0 - - -;
#X floatatom 72 45 5 0 0 0 - - -;
#X obj 100 218 tgl 15 0 empty empty empty 17 7 0 10 -262144 -1 -1 0
1;
#X obj 54 216 print;
#X msg 243 122 0 0 100 200;
#X obj 72 64 t b f;
#X obj 54 148 ehu/point_in_rect 50 150 150 200;
#X text 35 9 cheks for intersection between a point and a rect;
#X connect 0 0 7 0;
#X connect 1 0 0 0;
#X connect 2 0 6 0;
#X connect 5 0 7 1;
#X connect 6 0 0 0;
#X connect 6 1 0 1;
#X connect 7 0 3 0;
#X connect 7 0 4 0;
