#N canvas 1 49 501 349 10;
#X obj 128 190 bng 15 250 50 0 empty empty empty 17 7 0 10 -262144
-1 -1;
#X obj 128 207 t b b;
#X obj 127 234 spigot 1;
#X msg 180 207 0;
#X obj 243 194 bng 15 250 50 0 empty empty empty 17 7 0 10 -262144
-1 -1;
#X obj 243 211 t b b;
#X obj 242 238 spigot 1;
#X msg 295 211 0;
#X msg 181 187 1;
#X msg 296 188 1;
#X obj 128 142 bng 15 250 50 0 empty empty empty 17 7 0 10 -262144
-1 -1;
#X obj 243 140 bng 15 250 50 0 empty empty empty 17 7 0 10 -262144
-1 -1;
#X obj 190 97 moses \$1;
#X text 393 32 attack time;
#X obj 243 14 inlet;
#X text 246 32 threshold;
#X obj 322 13 inlet;
#X text 322 33 falltime;
#X obj 398 11 inlet;
#X obj 194 303 outlet;
#X obj 190 15 inlet~;
#X obj 190 68 env~ 2048 4;
#X msg 127 257 0;
#X msg 242 260 1;
#X obj 128 167 delay \$3;
#X obj 243 164 delay \$2;
#X text 195 33 signal;
#X connect 0 0 1 0;
#X connect 1 0 3 0;
#X connect 1 0 8 0;
#X connect 1 1 2 0;
#X connect 2 0 22 0;
#X connect 3 0 2 1;
#X connect 4 0 5 0;
#X connect 5 0 7 0;
#X connect 5 0 9 0;
#X connect 5 1 6 0;
#X connect 6 0 23 0;
#X connect 7 0 6 1;
#X connect 8 0 6 1;
#X connect 9 0 2 1;
#X connect 10 0 24 0;
#X connect 11 0 25 0;
#X connect 12 0 11 0;
#X connect 12 1 10 0;
#X connect 14 0 12 1;
#X connect 16 0 24 1;
#X connect 18 0 25 1;
#X connect 20 0 21 0;
#X connect 21 0 12 0;
#X connect 22 0 19 0;
#X connect 23 0 19 0;
#X connect 24 0 0 0;
#X connect 25 0 4 0;
