#N canvas 2 49 1004 714 10;
#X msg 520 150 start 0;
#X obj 684 22 inlet~;
#X obj -19 22 inlet;
#X obj 85 20 inlet;
#X obj 207 22 inlet;
#X obj 320 20 inlet;
#X obj 385 24 inlet;
#X obj 438 22 inlet;
#X obj 491 22 inlet;
#X text -26 2 open;
#X text 77 0 play/pause;
#X text 204 3 pitch;
#X text 309 2 start;
#X text 382 4 end;
#X text 436 2 pan;
#X text 488 3 goto;
#X text 617 0 rec;
#X text 683 3 sndin;
#X obj 270 22 inlet;
#X text 273 2 amp;
#X msg 600 133 stop;
#X obj 303 269 tgl 15 0 \$0recB \$0rec empty 17 7 0 10 -257985 -1 -1
0 1;
#X obj 520 116 select 1;
#X obj 611 22 inlet;
#X obj 491 45 s \$0goto;
#X obj 438 44 s \$0pan;
#X obj 385 44 s \$0end;
#X obj 320 43 s \$0start;
#X obj 270 44 s \$0amp;
#X obj 207 44 s \$0pitch;
#X obj 85 43 s \$0play;
#X obj -19 52 s \$0open;
#X obj 548 20 inlet;
#X obj 548 45 s \$0reset;
#X obj 91 103 openpanel;
#X obj 41 461 *~ 44100;
#X obj 130 426 - 2;
#X obj 40 319 / 1;
#X obj 110 211 / 44100;
#X obj 306 323 hsl 128 15 0 1 0 0 \$0startB \$0start empty -2 -8 0
10 -258113 -1 -1 6000 0;
#X text 315 321 start;
#X obj 306 341 hsl 128 15 0 1 0 0 \$0endB \$0end empty -2 -8 0 10 -258113
-1 -1 7400 0;
#X text 315 338 end;
#X obj 91 189 t b f f;
#X msg 91 320 0;
#X obj 306 359 hsl 128 15 0 1 0 0 \$0gotoB \$0goto empty -2 -8 0 10
-260097 -1 -1 6523 0;
#X text 316 357 navigate snd;
#X obj 303 216 tgl 15 0 \$0playB \$0play empty 17 7 0 10 -258113 -1
-1 1 1;
#X obj 25 256 select 1;
#X obj 303 252 nbx 4 14 -1e+37 1e+37 0 0 \$0pitchB \$0pitch empty 0
-8 0 10 -260097 -1 -1 1 256;
#X obj 306 305 hsl 128 15 0 1 0 0 \$0panB \$0pan empty -2 -8 0 10 -4034
-1 -1 6000 0;
#X text 314 302 pan;
#X text 319 215 play/pause;
#X obj 40 677 outlet~;
#X obj 204 677 outlet~;
#X obj 389 215 bng 15 250 50 0 empty empty empty 17 7 0 10 -258113
-1 -1;
#X obj 40 654 *~ 1;
#X obj 205 655 *~ 1;
#X obj 306 287 hsl 128 15 0 1 0 0 \$0ampB \$0amp empty -2 -8 0 10 -4032
-1 -1 12700 0;
#X text 313 285 amplitude;
#X msg 266 87 1;
#X text 353 250 pitch;
#X text 405 214 load;
#X obj 389 159 r \$0open;
#X obj 381 233 bng 15 250 50 0 empty empty empty 17 7 0 10 -258113
-1 -1;
#X text 398 232 reset;
#X obj 411 183 r \$0reset;
#X msg 311 87 0;
#X obj 884 285 table \$0snd;
#X obj 523 176 tabwrite~ \$0snd;
#X text 127 302 reset phasor;
#X obj 124 323 r \$0gotoB;
#X obj 66 361 r \$0startB;
#X obj 226 630 r \$0ampB;
#X obj 25 206 r \$0playB;
#X obj -10 117 r \$0pitchB;
#X obj 642 345 timer;
#X msg 669 319 bang;
#X obj 642 408 * 44.1;
#X obj 642 450 symbol \$0snd;
#X obj 642 471 pack s f;
#X obj 642 428 t b f;
#X msg 642 493 \; \$1 resize \$2;
#X text 639 521 now cut and resize;
#X obj 669 226 delay 20000;
#X text 665 182 stop at MAX length;
#X text 499 257 MAX length 20 secs;
#X obj 447 487 samplerate~;
#X obj 675 370 r \$0sr;
#X obj 149 188 r \$0sr;
#X obj 447 507 s \$0sr;
#X obj 492 319 symbol \$0snd;
#X obj 492 340 pack s f;
#X msg 492 360 \; \$1 resize \$2;
#X obj 576 279 r \$0sr;
#X obj 492 272 t b b;
#X obj 756 209 * 1000;
#X obj 712 251 print MAX_REC_LENGTH_REACHED;
#X obj 675 389 / 1000;
#X obj 669 205 t b b;
#X obj 537 299 * 44100;
#X text 723 327 force update;
#X msg 477 157 0;
#X text 459 141 stop snd;
#X obj 611 44 s \$0rec;
#X text 319 267 record;
#X obj 520 95 r \$0recB;
#X text 545 -1 reset bang;
#X obj 802 31 \$1;
#X obj 802 10 loadbang;
#X obj 802 53 select 0;
#X msg 802 73 20;
#X obj 802 134 f;
#X text 831 25 1st arg is;
#X text 831 34 max rec length;
#X obj 805 157 print MAX_REC_LENGTH;
#X msg 669 250 0;
#X obj 669 270 s \$0rec;
#X obj 726 344 s \$0pitch;
#X obj 771 483 namecanvas \$0-bla;
#X obj 770 461 s \$0-bla;
#X obj 770 416 r EHU_gop;
#X obj 800 391 tgl 15 0 empty empty empty 17 7 0 10 -262144 -1 -1 0
1;
#X text 845 416 this toogles the graph on parent off;
#X obj 884 306 table \$0sndR;
#X obj 123 591 tabread4~ \$0sndR;
#X obj 40 481 tabread4~ \$0snd;
#X obj 734 22 inlet~;
#X obj 533 201 tabwrite~ \$0sndR;
#X obj 39 21 inlet;
#X text 35 -1 path;
#X msg 349 96 0.5;
#N canvas 441 189 549 549 stereo_equal_powered_pan~ 0;
#X obj 80 453 *~;
#X obj 210 452 *~;
#X obj 226 428 line~;
#X obj 96 428 line~;
#X obj 317 193 loadbang;
#X floatatom 325 254 7 0 0 3 blocksize_in_ms - -, f 7;
#X obj 300 194 bng 15 250 50 0 empty empty empty 0 -6 0 8 -262144 -1
-1;
#X obj 226 347 t f b;
#X obj 256 366 f;
#X obj 226 389 pack f f;
#X msg 226 409 \$1 \$2;
#X obj 96 347 t f b;
#X obj 126 366 f;
#X obj 96 389 pack f f;
#X msg 96 409 \$1 \$2;
#X obj 317 225 hcs/blocksize_in_ms;
#X text 265 469 (C) Copyright 2004 Hans-Christoph Steiner;
#X obj 250 26 inlet;
#X obj 55 162 expr cos($f1 * 3.14159 / 2);
#X obj 250 162 expr sin($f1 * 3.14159 / 2);
#X obj 250 102 clip 0 1;
#X obj 30 38 inlet~;
#X obj 185 29 inlet~;
#X obj 58 501 outlet~;
#X obj 194 488 outlet~;
#X text 308 491 released under the GNU GPL;
#X text 315 85 Copyright 2004 Hans-Christoph Steiner;
#X text 319 70 based on pan/equal_powered_pan~.pd;
#X connect 0 0 23 0;
#X connect 1 0 24 0;
#X connect 2 0 1 1;
#X connect 3 0 0 1;
#X connect 4 0 15 0;
#X connect 6 0 15 0;
#X connect 7 0 9 0;
#X connect 7 1 8 0;
#X connect 8 0 9 1;
#X connect 9 0 10 0;
#X connect 10 0 2 0;
#X connect 11 0 13 0;
#X connect 11 1 12 0;
#X connect 12 0 13 1;
#X connect 13 0 14 0;
#X connect 14 0 3 0;
#X connect 15 0 5 0;
#X connect 15 0 8 1;
#X connect 15 0 12 1;
#X connect 17 0 20 0;
#X connect 18 0 11 0;
#X connect 19 0 7 0;
#X connect 20 0 18 0;
#X connect 20 0 19 0;
#X connect 21 0 0 0;
#X connect 22 0 1 0;
#X restore 40 629 pd stereo_equal_powered_pan~;
#X obj 205 610 r \$0panB;
#X obj 123 572 *~ 1;
#X obj 65 572 *~ 0;
#X msg 144 546 1;
#X msg 171 547 0;
#X text 150 526 different if stereo or mono;
#X msg 86 502 0;
#X obj 86 525 select 0;
#X msg 86 547 1;
#X msg 114 547 0;
#X obj 371 269 tgl 15 0 empty \$0stereo empty 17 7 0 10 -257985 -1
-1 1 1;
#X text 386 267 stereo?;
#X obj 303 234 tgl 15 0 \$0loopB \$0loop empty 17 7 0 10 -258113 -1
-1 1 1;
#X text 319 232 loop;
#X msg 770 440 donecanvasdialog 1 -1 \$1 0 -1 1 1 139 191 300 200;
#X text 535 569 TO DO;
#X obj 145 22 inlet;
#X text 142 3 loop;
#X obj 145 44 s \$0loop;
#X msg 252 199 0;
#X msg 303 384 set \$1;
#X text 531 586 backwards does not loop properly if start or end are
set;
#X obj 335 648 outlet;
#X text 330 669 point in sound;
#X obj 454 654 outlet;
#X text 453 671 bangs on loop or end point;
#X obj 40 340 phasor~ 1;
#X obj 353 130 loadbang;
#N canvas 512 209 450 300 loop 0;
#X obj 211 41 r \$0loopB;
#X text 178 91 loop;
#X obj 139 116 bonk~;
#X obj 166 140 spigot 1;
#X obj 211 100 - 1;
#X obj 211 120 abs;
#X obj 140 5 inlet~;
#X obj 166 243 outlet;
#X obj 269 102 r \$0playB;
#X obj 166 221 spigot 1;
#X msg 256 180 0;
#X msg 290 206 1;
#X msg 290 166 bang;
#X obj 290 186 delay 20;
#X obj 300 245 outlet;
#X obj 287 130 r \$0startB;
#X obj 355 131 r \$0endB;
#X obj 331 99 r \$0gotoB;
#X text 282 72 avoid catching loop when;
#X connect 0 0 4 0;
#X connect 2 1 3 0;
#X connect 2 1 14 0;
#X connect 3 0 9 0;
#X connect 4 0 5 0;
#X connect 5 0 3 1;
#X connect 6 0 2 0;
#X connect 8 0 10 0;
#X connect 8 0 12 0;
#X connect 9 0 7 0;
#X connect 10 0 9 1;
#X connect 11 0 9 1;
#X connect 12 0 13 0;
#X connect 13 0 11 0;
#X connect 15 0 10 0;
#X connect 15 0 12 0;
#X connect 16 0 12 0;
#X connect 16 0 10 0;
#X connect 17 0 12 0;
#X connect 17 0 10 0;
#X restore 179 476 pd loop;
#X obj 274 155 delay 10;
#X msg 263 235 -1;
#N canvas 480 328 450 300 limits 0;
#X obj 153 33 inlet;
#X obj 197 32 inlet;
#X obj 89 33 inlet~;
#X obj 90 201 outlet~;
#X obj 181 107 -;
#X obj 153 80 t b f;
#X obj 89 141 +~;
#X obj 90 107 *~ 1;
#X obj 153 106 1;
#X obj 197 62 t b f;
#X text 207 12 end;
#X text 151 17 start;
#X obj 181 166 outlet;
#X text 227 170 range scale factor;
#X connect 0 0 5 0;
#X connect 0 0 6 1;
#X connect 1 0 9 0;
#X connect 2 0 7 0;
#X connect 4 0 7 1;
#X connect 4 0 12 0;
#X connect 5 0 8 0;
#X connect 5 1 4 1;
#X connect 6 0 3 0;
#X connect 7 0 6 0;
#X connect 8 0 4 0;
#X connect 9 0 8 0;
#X connect 9 1 8 1;
#X restore 41 403 pd limits;
#X obj 92 382 r \$0endB;
#X obj 335 480 snapshot~;
#X obj 335 441 tgl 15 0 empty empty empty 17 7 0 10 -262144 -1 -1 1
1;
#X obj 335 459 metro 70;
#X obj -10 141 f;
#X obj 16 142 t b f;
#X obj -10 166 / 1;
#X obj 335 421 r \$0playB;
#N canvas 163 431 450 300 readfile 0;
#X obj 116 145 soundfiler;
#X obj 144 87 symbol \$0snd;
#X obj 225 87 symbol \$0sndR;
#X obj 116 107 pack s s s;
#X msg 116 126 read -resize \$1 \$2 \$3;
#X obj 116 54 t s b b b;
#N canvas 308 315 450 300 is_stereo? 0;
#X obj 87 107 iemlib/soundfile_info;
#X msg 87 88 read \$1;
#X msg 87 132 \$5;
#X obj 144 136 print LOADED;
#X obj 87 153 select 2;
#X msg 87 177 1;
#X msg 132 177 0;
#X text 134 36 is stereo sound?;
#X obj 87 38 inlet;
#X obj 87 217 outlet;
#X connect 0 0 2 0;
#X connect 0 0 3 0;
#X connect 1 0 0 0;
#X connect 2 0 4 0;
#X connect 4 0 5 0;
#X connect 4 1 6 0;
#X connect 5 0 9 0;
#X connect 6 0 9 0;
#X connect 8 0 1 0;
#X restore 24 85 pd is_stereo?;
#X obj 116 13 inlet;
#X obj 116 197 outlet;
#X obj 190 196 outlet;
#X connect 0 0 8 0;
#X connect 1 0 3 1;
#X connect 2 0 3 2;
#X connect 3 0 4 0;
#X connect 4 0 0 0;
#X connect 5 0 3 0;
#X connect 5 0 6 0;
#X connect 5 1 1 0;
#X connect 5 2 2 0;
#X connect 6 0 9 0;
#X connect 7 0 5 0;
#X restore 91 128 pd readfile;
#X obj -10 186 f;
#X obj 7 276 spigot 1;
#X obj 41 431 *~ 1;
#X obj -19 383 r \$0playB;
#X obj 25 236 t f f;
#X obj 210 498 bng 15 250 50 0 empty empty empty 17 7 0 10 -262144
-1 -1;
#X obj 743 662 outlet;
#X text 796 660 bangs on max rec reached;
#X obj 492 411 print START_REC;
#X obj 653 128 print STOP_REC;
#X obj 508 239 t b f;
#X obj 802 93 t b f;
#X obj 802 113 delay 10;
#X obj 39 81 symbol;
#X obj 110 256 print SND_LENGTH_SECS;
#X msg 443 248 0;
#X text 526 604 loandbang reset triggers stop recording and this causes
problems;
#X text 511 224 gave problems;
#X obj 91 160 f;
#X msg 207 112 bang;
#X connect 0 0 69 0;
#X connect 0 0 128 0;
#X connect 1 0 69 0;
#X connect 2 0 31 0;
#X connect 3 0 30 0;
#X connect 4 0 29 0;
#X connect 5 0 27 0;
#X connect 6 0 26 0;
#X connect 7 0 25 0;
#X connect 8 0 24 0;
#X connect 18 0 28 0;
#X connect 20 0 69 0;
#X connect 20 0 84 0;
#X connect 20 0 128 0;
#X connect 20 0 183 0;
#X connect 22 0 0 0;
#X connect 22 0 76 0;
#X connect 22 0 95 0;
#X connect 22 0 102 0;
#X connect 22 1 20 0;
#X connect 22 1 77 0;
#X connect 23 0 104 0;
#X connect 32 0 33 0;
#X connect 34 0 173 0;
#X connect 35 0 126 0;
#X connect 35 0 134 0;
#X connect 36 0 35 1;
#X connect 37 0 159 0;
#X connect 38 0 37 1;
#X connect 38 0 188 0;
#X connect 43 0 44 0;
#X connect 43 1 38 0;
#X connect 43 2 36 0;
#X connect 44 0 159 1;
#X connect 48 0 174 0;
#X connect 48 1 37 0;
#X connect 55 0 34 0;
#X connect 56 0 53 0;
#X connect 57 0 54 0;
#X connect 60 0 67 0;
#X connect 60 0 28 0;
#X connect 60 0 29 0;
#X connect 60 0 151 0;
#X connect 60 0 193 0;
#X connect 60 0 26 0;
#X connect 63 0 55 0;
#X connect 64 0 60 0;
#X connect 64 0 162 0;
#X connect 64 0 189 0;
#X connect 64 0 87 0;
#X connect 66 0 64 0;
#X connect 67 0 131 0;
#X connect 67 0 24 0;
#X connect 67 0 27 0;
#X connect 71 0 159 1;
#X connect 72 0 164 1;
#X connect 73 0 57 1;
#X connect 73 0 56 1;
#X connect 74 0 178 0;
#X connect 75 0 169 0;
#X connect 76 0 78 0;
#X connect 77 0 76 1;
#X connect 77 0 118 0;
#X connect 78 0 43 0;
#X connect 78 0 81 0;
#X connect 79 0 80 0;
#X connect 80 0 82 0;
#X connect 81 0 79 0;
#X connect 81 1 80 1;
#X connect 84 0 97 0;
#X connect 84 0 116 0;
#X connect 84 0 180 0;
#X connect 87 0 90 0;
#X connect 88 0 98 0;
#X connect 89 0 38 1;
#X connect 91 0 92 0;
#X connect 92 0 93 0;
#X connect 93 0 182 0;
#X connect 94 0 100 1;
#X connect 95 0 91 0;
#X connect 95 1 99 0;
#X connect 95 1 100 0;
#X connect 96 0 84 1;
#X connect 98 0 78 1;
#X connect 99 0 84 0;
#X connect 99 1 96 0;
#X connect 100 0 92 1;
#X connect 102 0 47 0;
#X connect 106 0 22 0;
#X connect 108 0 110 0;
#X connect 109 0 108 0;
#X connect 110 0 111 0;
#X connect 110 1 185 0;
#X connect 111 0 185 0;
#X connect 112 0 96 0;
#X connect 112 0 115 0;
#X connect 112 0 100 0;
#X connect 116 0 117 0;
#X connect 121 0 147 0;
#X connect 122 0 147 0;
#X connect 125 0 132 1;
#X connect 126 0 132 0;
#X connect 126 0 135 0;
#X connect 127 0 128 0;
#X connect 129 0 187 0;
#X connect 131 0 25 0;
#X connect 132 0 56 0;
#X connect 132 1 57 0;
#X connect 133 0 132 2;
#X connect 134 0 125 0;
#X connect 135 0 132 1;
#X connect 136 0 134 1;
#X connect 137 0 135 1;
#X connect 139 0 140 0;
#X connect 140 0 141 0;
#X connect 140 0 142 0;
#X connect 140 1 136 0;
#X connect 140 1 137 0;
#X connect 141 0 135 1;
#X connect 142 0 134 1;
#X connect 143 0 140 0;
#X connect 147 0 120 0;
#X connect 149 0 151 0;
#X connect 152 0 47 0;
#X connect 153 0 45 0;
#X connect 159 0 164 0;
#X connect 160 0 152 0;
#X connect 160 0 64 0;
#X connect 161 0 152 0;
#X connect 161 1 179 0;
#X connect 161 1 157 0;
#X connect 162 0 152 0;
#X connect 163 0 49 0;
#X connect 164 0 176 0;
#X connect 164 1 170 0;
#X connect 165 0 164 2;
#X connect 166 0 153 0;
#X connect 166 0 155 0;
#X connect 167 0 168 0;
#X connect 168 0 166 0;
#X connect 169 0 171 0;
#X connect 170 0 169 0;
#X connect 170 1 171 1;
#X connect 171 0 174 0;
#X connect 172 0 167 0;
#X connect 173 0 192 0;
#X connect 173 1 143 0;
#X connect 174 0 175 0;
#X connect 175 0 37 0;
#X connect 176 0 35 0;
#X connect 176 0 161 0;
#X connect 176 0 166 0;
#X connect 177 0 176 1;
#X connect 178 0 48 0;
#X connect 178 1 175 1;
#X connect 184 0 95 0;
#X connect 184 1 100 0;
#X connect 185 0 186 0;
#X connect 185 1 112 1;
#X connect 186 0 112 0;
#X connect 187 0 173 0;
#X connect 189 0 21 0;
#X connect 192 0 43 0;
#X connect 193 0 192 0;
#X coords 0 -1 1 1 139 178 1 300 200;
