#N canvas 433 88 450 377 10;
#X obj -37 109 list split 1;
#X obj -5 142 list append;
#X obj -37 175 delay;
#X obj -45 270 bng 15 250 50 0 empty empty empty 17 7 0 10 -262144
-1 -1;
#X floatatom -107 237 5 0 0 0 - - -;
#X obj -10 232 counter;
#X floatatom -10 270 5 0 0 0 - - -;
#X obj -37 84 list;
#X msg -15 19 100 250 500 750;
#X obj -37 197 t b b;
#X obj -15 56 t b l b b;
#X obj -166 23 inlet;
#X obj -137 292 outlet;
#X obj -36 305 outlet;
#X obj 58 308 outlet;
#X text 46 114 comment;
#X obj 67 177 spigot 1;
#X obj 149 23 inlet;
#X connect 0 0 2 0;
#X connect 0 0 4 0;
#X connect 0 1 1 1;
#X connect 0 2 16 0;
#X connect 1 0 0 0;
#X connect 2 0 9 0;
#X connect 5 0 6 0;
#X connect 5 0 13 0;
#X connect 7 0 0 0;
#X connect 8 0 10 0;
#X connect 9 0 1 0;
#X connect 9 0 3 0;
#X connect 9 0 12 0;
#X connect 9 1 5 0;
#X connect 10 0 7 0;
#X connect 10 1 7 1;
#X connect 10 2 5 3;
#X connect 11 0 10 0;
#X connect 16 0 5 2;
#X connect 16 0 14 0;
#X connect 16 0 7 0;
#X connect 17 0 16 1;
