#N canvas 717 128 283 356 10;
#X obj 17 17 inlet~;
#X text 16 -1 audio;
#X obj 62 17 inlet~;
#X text 60 -1 low;
#X obj 129 17 inlet~;
#X text 132 -2 high;
#X obj 192 18 inlet;
#X text 191 1 set;
#N canvas 594 298 247 193 unit 0;
#X obj -2 63 inlet~;
#X text -2 42 audio;
#X obj -2 126 outlet~;
#X obj -2 105 rpole~;
#X obj -2 84 rzero_rev~;
#X obj 96 -16 + 1;
#X obj 119 26 /;
#X obj 98 47 *~ 0;
#X obj 98 68 +~;
#X obj 205 6 -;
#X obj 205 26 /;
#X obj 144 46 *~ 0;
#X obj 134 -37 r \$1-total;
#X obj 96 -37 inlet;
#X obj 96 3 outlet;
#X obj 146 26 r~ \$1-low;
#X obj 49 26 r~ \$1-high;
#X connect 0 0 4 0;
#X connect 3 0 2 0;
#X connect 4 0 3 0;
#X connect 5 0 14 0;
#X connect 6 0 7 1;
#X connect 7 0 8 0;
#X connect 8 0 4 1;
#X connect 8 0 3 1;
#X connect 9 0 10 0;
#X connect 10 0 11 1;
#X connect 11 0 8 1;
#X connect 12 0 6 1;
#X connect 12 0 9 0;
#X connect 12 0 10 1;
#X connect 13 0 5 0;
#X connect 13 0 6 0;
#X connect 13 0 9 1;
#X connect 15 0 11 0;
#X connect 16 0 7 0;
#X restore 17 119 pd unit;
#X obj 66 325 outlet~;
#X obj 56 78 loadbang;
#X msg 56 99 0;
#X obj 105 305 s \$1-total;
#X obj 105 286 - 1;
#X obj 62 57 s~ \$1-high;
#X obj 129 57 s~ \$1-low;
#N canvas 594 298 247 193 unit 0;
#X obj -2 63 inlet~;
#X text -2 42 audio;
#X obj -2 126 outlet~;
#X obj -2 105 rpole~;
#X obj -2 84 rzero_rev~;
#X obj 96 -16 + 1;
#X obj 119 26 /;
#X obj 98 47 *~ 0;
#X obj 98 68 +~;
#X obj 205 6 -;
#X obj 205 26 /;
#X obj 144 46 *~ 0;
#X obj 134 -37 r \$1-total;
#X obj 96 -37 inlet;
#X obj 96 3 outlet;
#X obj 146 26 r~ \$1-low;
#X obj 49 26 r~ \$1-high;
#X connect 0 0 4 0;
#X connect 3 0 2 0;
#X connect 4 0 3 0;
#X connect 5 0 14 0;
#X connect 6 0 7 1;
#X connect 7 0 8 0;
#X connect 8 0 4 1;
#X connect 8 0 3 1;
#X connect 9 0 10 0;
#X connect 10 0 11 1;
#X connect 11 0 8 1;
#X connect 12 0 6 1;
#X connect 12 0 9 0;
#X connect 12 0 10 1;
#X connect 13 0 5 0;
#X connect 13 0 6 0;
#X connect 13 0 9 1;
#X connect 15 0 11 0;
#X connect 16 0 7 0;
#X restore 17 140 pd unit;
#N canvas 594 298 247 193 unit 0;
#X obj -2 63 inlet~;
#X text -2 42 audio;
#X obj -2 126 outlet~;
#X obj -2 105 rpole~;
#X obj -2 84 rzero_rev~;
#X obj 96 -16 + 1;
#X obj 119 26 /;
#X obj 98 47 *~ 0;
#X obj 98 68 +~;
#X obj 205 6 -;
#X obj 205 26 /;
#X obj 144 46 *~ 0;
#X obj 134 -37 r \$1-total;
#X obj 96 -37 inlet;
#X obj 96 3 outlet;
#X obj 146 26 r~ \$1-low;
#X obj 49 26 r~ \$1-high;
#X connect 0 0 4 0;
#X connect 3 0 2 0;
#X connect 4 0 3 0;
#X connect 5 0 14 0;
#X connect 6 0 7 1;
#X connect 7 0 8 0;
#X connect 8 0 4 1;
#X connect 8 0 3 1;
#X connect 9 0 10 0;
#X connect 10 0 11 1;
#X connect 11 0 8 1;
#X connect 12 0 6 1;
#X connect 12 0 9 0;
#X connect 12 0 10 1;
#X connect 13 0 5 0;
#X connect 13 0 6 0;
#X connect 13 0 9 1;
#X connect 15 0 11 0;
#X connect 16 0 7 0;
#X restore 17 161 pd unit;
#N canvas 594 298 247 193 unit 0;
#X obj -2 63 inlet~;
#X text -2 42 audio;
#X obj -2 126 outlet~;
#X obj -2 105 rpole~;
#X obj -2 84 rzero_rev~;
#X obj 96 -16 + 1;
#X obj 119 26 /;
#X obj 98 47 *~ 0;
#X obj 98 68 +~;
#X obj 205 6 -;
#X obj 205 26 /;
#X obj 144 46 *~ 0;
#X obj 134 -37 r \$1-total;
#X obj 96 -37 inlet;
#X obj 96 3 outlet;
#X obj 146 26 r~ \$1-low;
#X obj 49 26 r~ \$1-high;
#X connect 0 0 4 0;
#X connect 3 0 2 0;
#X connect 4 0 3 0;
#X connect 5 0 14 0;
#X connect 6 0 7 1;
#X connect 7 0 8 0;
#X connect 8 0 4 1;
#X connect 8 0 3 1;
#X connect 9 0 10 0;
#X connect 10 0 11 1;
#X connect 11 0 8 1;
#X connect 12 0 6 1;
#X connect 12 0 9 0;
#X connect 12 0 10 1;
#X connect 13 0 5 0;
#X connect 13 0 6 0;
#X connect 13 0 9 1;
#X connect 15 0 11 0;
#X connect 16 0 7 0;
#X restore 17 182 pd unit;
#N canvas 594 298 247 193 unit 0;
#X obj -2 63 inlet~;
#X text -2 42 audio;
#X obj -2 126 outlet~;
#X obj -2 105 rpole~;
#X obj -2 84 rzero_rev~;
#X obj 96 -16 + 1;
#X obj 119 26 /;
#X obj 98 47 *~ 0;
#X obj 98 68 +~;
#X obj 205 6 -;
#X obj 205 26 /;
#X obj 144 46 *~ 0;
#X obj 134 -37 r \$1-total;
#X obj 96 -37 inlet;
#X obj 96 3 outlet;
#X obj 146 26 r~ \$1-low;
#X obj 49 26 r~ \$1-high;
#X connect 0 0 4 0;
#X connect 3 0 2 0;
#X connect 4 0 3 0;
#X connect 5 0 14 0;
#X connect 6 0 7 1;
#X connect 7 0 8 0;
#X connect 8 0 4 1;
#X connect 8 0 3 1;
#X connect 9 0 10 0;
#X connect 10 0 11 1;
#X connect 11 0 8 1;
#X connect 12 0 6 1;
#X connect 12 0 9 0;
#X connect 12 0 10 1;
#X connect 13 0 5 0;
#X connect 13 0 6 0;
#X connect 13 0 9 1;
#X connect 15 0 11 0;
#X connect 16 0 7 0;
#X restore 17 203 pd unit;
#N canvas 594 298 247 193 unit 0;
#X obj -2 63 inlet~;
#X text -2 42 audio;
#X obj -2 126 outlet~;
#X obj -2 105 rpole~;
#X obj -2 84 rzero_rev~;
#X obj 96 -16 + 1;
#X obj 119 26 /;
#X obj 98 47 *~ 0;
#X obj 98 68 +~;
#X obj 205 6 -;
#X obj 205 26 /;
#X obj 144 46 *~ 0;
#X obj 134 -37 r \$1-total;
#X obj 96 -37 inlet;
#X obj 96 3 outlet;
#X obj 146 26 r~ \$1-low;
#X obj 49 26 r~ \$1-high;
#X connect 0 0 4 0;
#X connect 3 0 2 0;
#X connect 4 0 3 0;
#X connect 5 0 14 0;
#X connect 6 0 7 1;
#X connect 7 0 8 0;
#X connect 8 0 4 1;
#X connect 8 0 3 1;
#X connect 9 0 10 0;
#X connect 10 0 11 1;
#X connect 11 0 8 1;
#X connect 12 0 6 1;
#X connect 12 0 9 0;
#X connect 12 0 10 1;
#X connect 13 0 5 0;
#X connect 13 0 6 0;
#X connect 13 0 9 1;
#X connect 15 0 11 0;
#X connect 16 0 7 0;
#X restore 17 224 pd unit;
#N canvas 594 298 247 193 unit 0;
#X obj -2 63 inlet~;
#X text -2 42 audio;
#X obj -2 126 outlet~;
#X obj -2 105 rpole~;
#X obj -2 84 rzero_rev~;
#X obj 96 -16 + 1;
#X obj 119 26 /;
#X obj 98 47 *~ 0;
#X obj 98 68 +~;
#X obj 205 6 -;
#X obj 205 26 /;
#X obj 144 46 *~ 0;
#X obj 134 -37 r \$1-total;
#X obj 96 -37 inlet;
#X obj 96 3 outlet;
#X obj 146 26 r~ \$1-low;
#X obj 49 26 r~ \$1-high;
#X connect 0 0 4 0;
#X connect 3 0 2 0;
#X connect 4 0 3 0;
#X connect 5 0 14 0;
#X connect 6 0 7 1;
#X connect 7 0 8 0;
#X connect 8 0 4 1;
#X connect 8 0 3 1;
#X connect 9 0 10 0;
#X connect 10 0 11 1;
#X connect 11 0 8 1;
#X connect 12 0 6 1;
#X connect 12 0 9 0;
#X connect 12 0 10 1;
#X connect 13 0 5 0;
#X connect 13 0 6 0;
#X connect 13 0 9 1;
#X connect 15 0 11 0;
#X connect 16 0 7 0;
#X restore 17 245 pd unit;
#N canvas 594 298 247 193 unit 0;
#X obj -2 63 inlet~;
#X text -2 42 audio;
#X obj -2 126 outlet~;
#X obj -2 105 rpole~;
#X obj -2 84 rzero_rev~;
#X obj 96 -16 + 1;
#X obj 119 26 /;
#X obj 98 47 *~ 0;
#X obj 98 68 +~;
#X obj 205 6 -;
#X obj 205 26 /;
#X obj 144 46 *~ 0;
#X obj 134 -37 r \$1-total;
#X obj 96 -37 inlet;
#X obj 96 3 outlet;
#X obj 146 26 r~ \$1-low;
#X obj 49 26 r~ \$1-high;
#X connect 0 0 4 0;
#X connect 3 0 2 0;
#X connect 4 0 3 0;
#X connect 5 0 14 0;
#X connect 6 0 7 1;
#X connect 7 0 8 0;
#X connect 8 0 4 1;
#X connect 8 0 3 1;
#X connect 9 0 10 0;
#X connect 10 0 11 1;
#X connect 11 0 8 1;
#X connect 12 0 6 1;
#X connect 12 0 9 0;
#X connect 12 0 10 1;
#X connect 13 0 5 0;
#X connect 13 0 6 0;
#X connect 13 0 9 1;
#X connect 15 0 11 0;
#X connect 16 0 7 0;
#X restore 17 266 pd unit;
#N canvas 594 298 247 193 unit 0;
#X obj -2 63 inlet~;
#X text -2 42 audio;
#X obj -2 126 outlet~;
#X obj -2 105 rpole~;
#X obj -2 84 rzero_rev~;
#X obj 96 -16 + 1;
#X obj 119 26 /;
#X obj 98 47 *~ 0;
#X obj 98 68 +~;
#X obj 205 6 -;
#X obj 205 26 /;
#X obj 144 46 *~ 0;
#X obj 134 -37 r \$1-total;
#X obj 96 -37 inlet;
#X obj 96 3 outlet;
#X obj 146 26 r~ \$1-low;
#X obj 49 26 r~ \$1-high;
#X connect 0 0 4 0;
#X connect 3 0 2 0;
#X connect 4 0 3 0;
#X connect 5 0 14 0;
#X connect 6 0 7 1;
#X connect 7 0 8 0;
#X connect 8 0 4 1;
#X connect 8 0 3 1;
#X connect 9 0 10 0;
#X connect 10 0 11 1;
#X connect 11 0 8 1;
#X connect 12 0 6 1;
#X connect 12 0 9 0;
#X connect 12 0 10 1;
#X connect 13 0 5 0;
#X connect 13 0 6 0;
#X connect 13 0 9 1;
#X connect 15 0 11 0;
#X connect 16 0 7 0;
#X restore 66 119 pd unit;
#N canvas 594 298 247 193 unit 0;
#X obj -2 63 inlet~;
#X text -2 42 audio;
#X obj -2 126 outlet~;
#X obj -2 105 rpole~;
#X obj -2 84 rzero_rev~;
#X obj 96 -16 + 1;
#X obj 119 26 /;
#X obj 98 47 *~ 0;
#X obj 98 68 +~;
#X obj 205 6 -;
#X obj 205 26 /;
#X obj 144 46 *~ 0;
#X obj 134 -37 r \$1-total;
#X obj 96 -37 inlet;
#X obj 96 3 outlet;
#X obj 146 26 r~ \$1-low;
#X obj 49 26 r~ \$1-high;
#X connect 0 0 4 0;
#X connect 3 0 2 0;
#X connect 4 0 3 0;
#X connect 5 0 14 0;
#X connect 6 0 7 1;
#X connect 7 0 8 0;
#X connect 8 0 4 1;
#X connect 8 0 3 1;
#X connect 9 0 10 0;
#X connect 10 0 11 1;
#X connect 11 0 8 1;
#X connect 12 0 6 1;
#X connect 12 0 9 0;
#X connect 12 0 10 1;
#X connect 13 0 5 0;
#X connect 13 0 6 0;
#X connect 13 0 9 1;
#X connect 15 0 11 0;
#X connect 16 0 7 0;
#X restore 66 140 pd unit;
#N canvas 594 298 247 193 unit 0;
#X obj -2 63 inlet~;
#X text -2 42 audio;
#X obj -2 126 outlet~;
#X obj -2 105 rpole~;
#X obj -2 84 rzero_rev~;
#X obj 96 -16 + 1;
#X obj 119 26 /;
#X obj 98 47 *~ 0;
#X obj 98 68 +~;
#X obj 205 6 -;
#X obj 205 26 /;
#X obj 144 46 *~ 0;
#X obj 134 -37 r \$1-total;
#X obj 96 -37 inlet;
#X obj 96 3 outlet;
#X obj 146 26 r~ \$1-low;
#X obj 49 26 r~ \$1-high;
#X connect 0 0 4 0;
#X connect 3 0 2 0;
#X connect 4 0 3 0;
#X connect 5 0 14 0;
#X connect 6 0 7 1;
#X connect 7 0 8 0;
#X connect 8 0 4 1;
#X connect 8 0 3 1;
#X connect 9 0 10 0;
#X connect 10 0 11 1;
#X connect 11 0 8 1;
#X connect 12 0 6 1;
#X connect 12 0 9 0;
#X connect 12 0 10 1;
#X connect 13 0 5 0;
#X connect 13 0 6 0;
#X connect 13 0 9 1;
#X connect 15 0 11 0;
#X connect 16 0 7 0;
#X restore 66 161 pd unit;
#N canvas 594 298 247 193 unit 0;
#X obj -2 63 inlet~;
#X text -2 42 audio;
#X obj -2 126 outlet~;
#X obj -2 105 rpole~;
#X obj -2 84 rzero_rev~;
#X obj 96 -16 + 1;
#X obj 119 26 /;
#X obj 98 47 *~ 0;
#X obj 98 68 +~;
#X obj 205 6 -;
#X obj 205 26 /;
#X obj 144 46 *~ 0;
#X obj 134 -37 r \$1-total;
#X obj 96 -37 inlet;
#X obj 96 3 outlet;
#X obj 146 26 r~ \$1-low;
#X obj 49 26 r~ \$1-high;
#X connect 0 0 4 0;
#X connect 3 0 2 0;
#X connect 4 0 3 0;
#X connect 5 0 14 0;
#X connect 6 0 7 1;
#X connect 7 0 8 0;
#X connect 8 0 4 1;
#X connect 8 0 3 1;
#X connect 9 0 10 0;
#X connect 10 0 11 1;
#X connect 11 0 8 1;
#X connect 12 0 6 1;
#X connect 12 0 9 0;
#X connect 12 0 10 1;
#X connect 13 0 5 0;
#X connect 13 0 6 0;
#X connect 13 0 9 1;
#X connect 15 0 11 0;
#X connect 16 0 7 0;
#X restore 66 182 pd unit;
#N canvas 594 298 247 193 unit 0;
#X obj -2 63 inlet~;
#X text -2 42 audio;
#X obj -2 126 outlet~;
#X obj -2 105 rpole~;
#X obj -2 84 rzero_rev~;
#X obj 96 -16 + 1;
#X obj 119 26 /;
#X obj 98 47 *~ 0;
#X obj 98 68 +~;
#X obj 205 6 -;
#X obj 205 26 /;
#X obj 144 46 *~ 0;
#X obj 134 -37 r \$1-total;
#X obj 96 -37 inlet;
#X obj 96 3 outlet;
#X obj 146 26 r~ \$1-low;
#X obj 49 26 r~ \$1-high;
#X connect 0 0 4 0;
#X connect 3 0 2 0;
#X connect 4 0 3 0;
#X connect 5 0 14 0;
#X connect 6 0 7 1;
#X connect 7 0 8 0;
#X connect 8 0 4 1;
#X connect 8 0 3 1;
#X connect 9 0 10 0;
#X connect 10 0 11 1;
#X connect 11 0 8 1;
#X connect 12 0 6 1;
#X connect 12 0 9 0;
#X connect 12 0 10 1;
#X connect 13 0 5 0;
#X connect 13 0 6 0;
#X connect 13 0 9 1;
#X connect 15 0 11 0;
#X connect 16 0 7 0;
#X restore 66 203 pd unit;
#N canvas 594 298 247 193 unit 0;
#X obj -2 63 inlet~;
#X text -2 42 audio;
#X obj -2 126 outlet~;
#X obj -2 105 rpole~;
#X obj -2 84 rzero_rev~;
#X obj 96 -16 + 1;
#X obj 119 26 /;
#X obj 98 47 *~ 0;
#X obj 98 68 +~;
#X obj 205 6 -;
#X obj 205 26 /;
#X obj 144 46 *~ 0;
#X obj 134 -37 r \$1-total;
#X obj 96 -37 inlet;
#X obj 96 3 outlet;
#X obj 146 26 r~ \$1-low;
#X obj 49 26 r~ \$1-high;
#X connect 0 0 4 0;
#X connect 3 0 2 0;
#X connect 4 0 3 0;
#X connect 5 0 14 0;
#X connect 6 0 7 1;
#X connect 7 0 8 0;
#X connect 8 0 4 1;
#X connect 8 0 3 1;
#X connect 9 0 10 0;
#X connect 10 0 11 1;
#X connect 11 0 8 1;
#X connect 12 0 6 1;
#X connect 12 0 9 0;
#X connect 12 0 10 1;
#X connect 13 0 5 0;
#X connect 13 0 6 0;
#X connect 13 0 9 1;
#X connect 15 0 11 0;
#X connect 16 0 7 0;
#X restore 66 224 pd unit;
#N canvas 594 298 247 193 unit 0;
#X obj -2 63 inlet~;
#X text -2 42 audio;
#X obj -2 126 outlet~;
#X obj -2 105 rpole~;
#X obj -2 84 rzero_rev~;
#X obj 96 -16 + 1;
#X obj 119 26 /;
#X obj 98 47 *~ 0;
#X obj 98 68 +~;
#X obj 205 6 -;
#X obj 205 26 /;
#X obj 144 46 *~ 0;
#X obj 134 -37 r \$1-total;
#X obj 96 -37 inlet;
#X obj 96 3 outlet;
#X obj 146 26 r~ \$1-low;
#X obj 49 26 r~ \$1-high;
#X connect 0 0 4 0;
#X connect 3 0 2 0;
#X connect 4 0 3 0;
#X connect 5 0 14 0;
#X connect 6 0 7 1;
#X connect 7 0 8 0;
#X connect 8 0 4 1;
#X connect 8 0 3 1;
#X connect 9 0 10 0;
#X connect 10 0 11 1;
#X connect 11 0 8 1;
#X connect 12 0 6 1;
#X connect 12 0 9 0;
#X connect 12 0 10 1;
#X connect 13 0 5 0;
#X connect 13 0 6 0;
#X connect 13 0 9 1;
#X connect 15 0 11 0;
#X connect 16 0 7 0;
#X restore 66 245 pd unit;
#N canvas 594 298 247 193 unit 0;
#X obj -2 63 inlet~;
#X text -2 42 audio;
#X obj -2 126 outlet~;
#X obj -2 105 rpole~;
#X obj -2 84 rzero_rev~;
#X obj 96 -16 + 1;
#X obj 119 26 /;
#X obj 98 47 *~ 0;
#X obj 98 68 +~;
#X obj 205 6 -;
#X obj 205 26 /;
#X obj 144 46 *~ 0;
#X obj 134 -37 r \$1-total;
#X obj 96 -37 inlet;
#X obj 96 3 outlet;
#X obj 146 26 r~ \$1-low;
#X obj 49 26 r~ \$1-high;
#X connect 0 0 4 0;
#X connect 3 0 2 0;
#X connect 4 0 3 0;
#X connect 5 0 14 0;
#X connect 6 0 7 1;
#X connect 7 0 8 0;
#X connect 8 0 4 1;
#X connect 8 0 3 1;
#X connect 9 0 10 0;
#X connect 10 0 11 1;
#X connect 11 0 8 1;
#X connect 12 0 6 1;
#X connect 12 0 9 0;
#X connect 12 0 10 1;
#X connect 13 0 5 0;
#X connect 13 0 6 0;
#X connect 13 0 9 1;
#X connect 15 0 11 0;
#X connect 16 0 7 0;
#X restore 66 266 pd unit;
#X obj 62 37 clip~ -1 1;
#X obj 129 37 clip~ -1 1;
#X connect 0 0 8 0;
#X connect 2 0 31 0;
#X connect 4 0 32 0;
#X connect 6 0 11 0;
#X connect 8 0 16 0;
#X connect 8 1 16 1;
#X connect 10 0 11 0;
#X connect 11 0 8 1;
#X connect 13 0 12 0;
#X connect 16 0 17 0;
#X connect 16 1 17 1;
#X connect 17 0 18 0;
#X connect 17 1 18 1;
#X connect 18 0 19 0;
#X connect 18 1 19 1;
#X connect 19 0 20 0;
#X connect 19 1 20 1;
#X connect 20 0 21 0;
#X connect 20 1 21 1;
#X connect 21 0 22 0;
#X connect 21 1 22 1;
#X connect 22 0 23 0;
#X connect 22 1 23 1;
#X connect 23 0 24 0;
#X connect 23 1 24 1;
#X connect 24 0 25 0;
#X connect 24 1 25 1;
#X connect 25 0 26 0;
#X connect 25 1 26 1;
#X connect 26 0 27 0;
#X connect 26 1 27 1;
#X connect 27 0 28 0;
#X connect 27 1 28 1;
#X connect 28 0 29 0;
#X connect 28 1 29 1;
#X connect 29 0 30 0;
#X connect 29 1 30 1;
#X connect 30 0 9 0;
#X connect 30 1 13 0;
#X connect 31 0 14 0;
#X connect 32 0 15 0;
