#N canvas 802 67 777 851 10;
#X obj 471 306 inlet~;
#X obj 471 344 delwrite~ \$0-apf1 \$2;
#X obj 525 436 delwrite~ \$0-apf2 \$2;
#X obj 471 401 *~;
#X obj 118 27 r \$1-en;
#X obj 118 141 pois3;
#X obj 168 103 f 500;
#X obj 143 65 f 1000;
#X obj 64 29 loadbang;
#X obj 143 46 r \$1-max_time;
#X obj 168 84 r \$1-min_time;
#X obj 210 198 r \$1-xfpct;
#X obj 195 236 * 1;
#X obj 210 217 * 0.01;
#X obj 168 236 f;
#X obj 168 255 + 1;
#X obj 168 274 % 2;
#X obj 168 293 line~;
#X obj 168 217 t b f;
#X obj 168 312 *~ -1;
#X obj 168 331 +~ 1;
#X obj 168 426 *~ 0.5;
#X obj 60 309 *~ 0.5;
#X obj 108 271 r \$1-coef;
#X obj 60 328 s~ \$0-g1;
#X obj 168 445 s~ \$0-g0;
#X obj 93 233 * 2;
#X obj 93 252 - 1;
#X obj 93 290 *;
#X obj 216 388 r \$1-coef;
#X obj 201 350 * 2;
#X obj 201 369 - 1;
#X obj 201 407 *;
#X obj 471 325 +~;
#X obj 525 417 -~;
#X obj 540 398 *~;
#X obj 335 590 qdist;
#X obj 360 346 qdist;
#X obj 369 152 r \$1-min_del;
#X obj 387 327 r \$1-del_dist;
#X obj 579 813 outlet~;
#X obj 64 48 t b b;
#X obj 91 86 f \$2;
#X obj 91 105 * 2;
#X obj 143 122 +;
#X obj 168 122 +;
#X obj 168 198 -;
#X obj 333 291 f;
#X obj 308 535 f;
#X obj 281 516 t b b;
#X obj 306 272 t b b;
#X obj 627 457 f 1;
#X obj 561 512 == 0;
#X obj 540 531 *~ 0;
#X obj 525 550 +~;
#X obj 525 474 *~ 0;
#X obj 306 329 delay;
#X obj 281 573 delay;
#X obj 360 419 f \$2;
#X obj 360 438 -;
#X obj 501 457 f 0;
#X obj 281 253 route 0 1;
#X obj 486 382 r~ \$0-g0;
#X obj 93 214 random 2;
#X obj 201 331 random 2;
#X obj 333 310 +;
#X obj 308 554 +;
#X obj 525 645 *~;
#X obj 525 569 +~;
#X obj 579 661 -~;
#X obj 594 642 *~;
#X obj 525 588 delwrite~ \$0-apf3 \$2;
#X obj 579 680 delwrite~ \$0-apf4 \$2;
#X obj 681 701 f 1;
#X obj 615 756 == 0;
#X obj 594 775 *~ 0;
#X obj 579 794 +~;
#X obj 579 718 *~ 0;
#X obj 555 701 f 0;
#X obj 360 400 t b f;
#X obj 335 663 f \$2;
#X obj 335 682 -;
#X obj 335 644 t b f;
#X obj 540 626 r~ \$0-g1;
#X obj 471 363 delread~ \$0-apf1;
#X obj 525 455 delread~ \$0-apf2;
#X obj 541 493 delread~ \$0-apf1 \$2;
#X obj 525 607 delread~ \$0-apf3;
#X obj 579 699 delread~ \$0-apf4;
#X obj 595 737 delread~ \$0-apf3 \$2;
#X obj 369 171 t f b;
#X obj 396 190 samplerate~;
#X obj 396 209 t b f;
#X obj 396 228 f 64000;
#X obj 396 247 /;
#X obj 369 264 max;
#X obj 55 419 r \$1-max_del;
#X obj 94 476 samplerate~;
#X obj 94 495 t b f;
#X obj 94 514 f 64000;
#X obj 94 533 /;
#X obj 55 438 t f b b;
#X obj 74 457 f \$2;
#X obj 74 553 -;
#X obj 55 573 min;
#X obj 79 590 +;
#X connect 0 0 33 0;
#X connect 3 0 33 1;
#X connect 4 0 5 0;
#X connect 5 1 46 0;
#X connect 6 0 45 0;
#X connect 7 0 44 0;
#X connect 8 0 41 0;
#X connect 9 0 7 0;
#X connect 10 0 6 0;
#X connect 11 0 13 0;
#X connect 12 0 17 1;
#X connect 12 0 47 1;
#X connect 12 0 48 1;
#X connect 13 0 12 1;
#X connect 14 0 15 0;
#X connect 14 0 17 0;
#X connect 14 0 61 0;
#X connect 15 0 16 0;
#X connect 16 0 14 1;
#X connect 17 0 19 0;
#X connect 17 0 22 0;
#X connect 18 0 14 0;
#X connect 18 1 12 0;
#X connect 19 0 20 0;
#X connect 20 0 21 0;
#X connect 21 0 25 0;
#X connect 22 0 24 0;
#X connect 23 0 28 1;
#X connect 26 0 27 0;
#X connect 27 0 28 0;
#X connect 28 0 22 1;
#X connect 29 0 32 1;
#X connect 30 0 31 0;
#X connect 31 0 32 0;
#X connect 32 0 21 1;
#X connect 33 0 1 0;
#X connect 33 0 35 1;
#X connect 34 0 2 0;
#X connect 35 0 34 1;
#X connect 36 0 82 0;
#X connect 36 0 87 0;
#X connect 37 0 79 0;
#X connect 37 0 84 0;
#X connect 38 0 90 0;
#X connect 39 0 37 3;
#X connect 39 0 36 3;
#X connect 41 0 6 0;
#X connect 41 0 7 0;
#X connect 41 1 42 0;
#X connect 42 0 43 0;
#X connect 42 0 65 1;
#X connect 42 0 66 1;
#X connect 43 0 45 1;
#X connect 43 0 44 1;
#X connect 43 0 46 1;
#X connect 44 0 5 1;
#X connect 45 0 5 2;
#X connect 46 0 18 0;
#X connect 47 0 65 0;
#X connect 48 0 66 0;
#X connect 49 0 57 0;
#X connect 49 1 48 0;
#X connect 50 0 56 0;
#X connect 50 1 47 0;
#X connect 51 0 55 1;
#X connect 51 0 52 0;
#X connect 52 0 53 1;
#X connect 53 0 54 1;
#X connect 54 0 68 0;
#X connect 55 0 54 0;
#X connect 56 0 37 0;
#X connect 56 0 60 0;
#X connect 57 0 36 0;
#X connect 57 0 78 0;
#X connect 58 0 59 0;
#X connect 59 0 85 0;
#X connect 60 0 55 1;
#X connect 60 0 52 0;
#X connect 61 0 49 0;
#X connect 61 0 64 0;
#X connect 61 0 51 0;
#X connect 61 1 50 0;
#X connect 61 1 63 0;
#X connect 61 1 73 0;
#X connect 62 0 3 1;
#X connect 62 0 35 0;
#X connect 63 0 26 0;
#X connect 64 0 30 0;
#X connect 65 0 56 1;
#X connect 66 0 57 1;
#X connect 67 0 68 1;
#X connect 68 0 70 1;
#X connect 68 0 71 0;
#X connect 69 0 72 0;
#X connect 70 0 69 1;
#X connect 73 0 77 1;
#X connect 73 0 74 0;
#X connect 74 0 75 1;
#X connect 75 0 76 1;
#X connect 76 0 40 0;
#X connect 77 0 76 0;
#X connect 78 0 77 1;
#X connect 78 0 74 0;
#X connect 79 0 58 0;
#X connect 79 1 59 1;
#X connect 80 0 81 0;
#X connect 81 0 88 0;
#X connect 82 0 80 0;
#X connect 82 1 81 1;
#X connect 83 0 67 1;
#X connect 83 0 70 0;
#X connect 84 0 3 0;
#X connect 84 0 34 0;
#X connect 85 0 55 0;
#X connect 86 0 53 0;
#X connect 87 0 67 0;
#X connect 87 0 69 0;
#X connect 88 0 77 0;
#X connect 89 0 75 0;
#X connect 90 0 95 0;
#X connect 90 1 91 0;
#X connect 91 0 92 0;
#X connect 92 0 93 0;
#X connect 92 1 94 1;
#X connect 93 0 94 0;
#X connect 94 0 95 1;
#X connect 95 0 37 1;
#X connect 95 0 36 1;
#X connect 96 0 101 0;
#X connect 97 0 98 0;
#X connect 98 0 99 0;
#X connect 98 1 100 1;
#X connect 99 0 100 0;
#X connect 100 0 103 1;
#X connect 100 0 105 1;
#X connect 101 0 104 0;
#X connect 101 1 102 0;
#X connect 101 2 97 0;
#X connect 102 0 103 0;
#X connect 103 0 104 1;
#X connect 104 0 37 2;
#X connect 104 0 36 2;
#X connect 104 0 105 0;
#X connect 105 0 86 0;
#X connect 105 0 89 0;
#X connect 105 0 80 1;
#X connect 105 0 58 1;
