#N canvas 0 0 1351 969 10;
#X obj 427 92 r go;
#X obj 427 111 s \$0-en_;
#X obj 92 142 loadbang;
#X obj 92 161 f \$0;
#X obj 815 255 outlet;
#X obj 275 288 r \$0-spread;
#X msg 92 180 \; \$1-lambda_ 1 \; \$1-mper_ 1 \; \$1-spread_ 1 \; \$1-deviation_
1 \;;
#X text 856 253 output range (bipolar);
#X obj 92 92 inlet;
#X obj 92 111 s \$0-lambda;
#X obj 164 92 inlet;
#X obj 164 111 s \$0-mper_;
#X obj 230 92 inlet;
#X obj 230 111 s \$0-spread_;
#X obj 308 92 inlet;
#X obj 347 288 r \$0-mper;
#X obj 347 307 t b f;
#X obj 275 345 pow;
#X obj 275 326 f 2;
#X obj 275 307 t b f;
#X obj 347 326 *;
#X obj 516 269 r \$0-mper;
#X obj 516 288 t b f;
#X obj 444 345 pow;
#X obj 444 326 f 2;
#X obj 444 307 t b f;
#X obj 516 307 *;
#X obj 444 288 * -1;
#X obj 187 345 r \$0-lambda;
#X obj 356 345 r \$0-lambda;
#X text 434 194 I'm not sure what to do about the enables;
#X obj 308 111 s \$0-deviation_;
#X obj 240 364 r \$1-deviation;
#X obj 409 364 r \$1-deviation;
#X obj 301 173 cnv 15 107 85 empty empty bnmod12_\$1 1 6 0 10 -261952
-1 0;
#X floatatom 303 186 5 0 1000 1 lambda #0-lambda_ #0-lambda;
#X floatatom 303 204 5 0 1000 1 mper_(cen) #0-mper_ #0-mper;
#X floatatom 303 240 5 0 1000 1 std_dev #0-deviation_ #0-deviation
;
#X floatatom 303 222 5 0 10 1 spread_(oct) #0-spread_ #0-spread;
#X obj 444 269 r \$0-spread;
#X obj 240 541 r \$0-mper;
#X obj 240 560 t b f;
#X obj 168 636 pow;
#X obj 168 617 f 2;
#X obj 168 598 t b f;
#X obj 240 579 *;
#X obj 80 636 r \$0-lambda;
#X obj 133 655 r \$1-deviation;
#X obj 168 541 r \$0-spread;
#X obj 168 560 * -9;
#X obj 168 579 / 11;
#X obj 409 541 r \$0-mper;
#X obj 409 560 t b f;
#X obj 337 636 pow;
#X obj 337 617 f 2;
#X obj 337 598 t b f;
#X obj 409 579 *;
#X obj 249 636 r \$0-lambda;
#X obj 302 655 r \$1-deviation;
#X obj 337 541 r \$0-spread;
#X obj 337 579 / 11;
#X obj 578 541 r \$0-mper;
#X obj 578 560 t b f;
#X obj 506 636 pow;
#X obj 506 617 f 2;
#X obj 506 598 t b f;
#X obj 578 579 *;
#X obj 418 636 r \$0-lambda;
#X obj 471 655 r \$1-deviation;
#X obj 506 541 r \$0-spread;
#X obj 506 579 / 11;
#X obj 747 541 r \$0-mper;
#X obj 747 560 t b f;
#X obj 675 636 pow;
#X obj 675 617 f 2;
#X obj 675 598 t b f;
#X obj 747 579 *;
#X obj 587 636 r \$0-lambda;
#X obj 640 655 r \$1-deviation;
#X obj 675 541 r \$0-spread;
#X obj 675 579 / 11;
#X obj 916 541 r \$0-mper;
#X obj 916 560 t b f;
#X obj 844 636 pow;
#X obj 844 617 f 2;
#X obj 844 598 t b f;
#X obj 916 579 *;
#X obj 756 636 r \$0-lambda;
#X obj 809 655 r \$1-deviation;
#X obj 844 541 r \$0-spread;
#X obj 844 579 / 11;
#X obj 337 560 * -7;
#X obj 506 560 * -5;
#X obj 675 560 * -3;
#X obj 844 560 * -1;
#X obj 225 819 r \$0-mper;
#X obj 225 838 t b f;
#X obj 153 914 pow;
#X obj 153 895 f 2;
#X obj 153 876 t b f;
#X obj 225 857 *;
#X obj 65 914 r \$0-lambda;
#X obj 118 933 r \$1-deviation;
#X obj 153 819 r \$0-spread;
#X obj 153 857 / 11;
#X obj 394 819 r \$0-mper;
#X obj 394 838 t b f;
#X obj 322 914 pow;
#X obj 322 895 f 2;
#X obj 322 876 t b f;
#X obj 394 857 *;
#X obj 234 914 r \$0-lambda;
#X obj 287 933 r \$1-deviation;
#X obj 322 819 r \$0-spread;
#X obj 322 857 / 11;
#X obj 563 819 r \$0-mper;
#X obj 563 838 t b f;
#X obj 491 914 pow;
#X obj 491 895 f 2;
#X obj 491 876 t b f;
#X obj 563 857 *;
#X obj 403 914 r \$0-lambda;
#X obj 456 933 r \$1-deviation;
#X obj 491 819 r \$0-spread;
#X obj 491 857 / 11;
#X obj 732 819 r \$0-mper;
#X obj 732 838 t b f;
#X obj 660 914 pow;
#X obj 660 895 f 2;
#X obj 660 876 t b f;
#X obj 732 857 *;
#X obj 572 914 r \$0-lambda;
#X obj 625 933 r \$1-deviation;
#X obj 660 819 r \$0-spread;
#X obj 660 857 / 11;
#X obj 901 819 r \$0-mper;
#X obj 901 838 t b f;
#X obj 829 914 pow;
#X obj 829 895 f 2;
#X obj 829 876 t b f;
#X obj 901 857 *;
#X obj 741 914 r \$0-lambda;
#X obj 794 933 r \$1-deviation;
#X obj 829 819 r \$0-spread;
#X obj 829 857 / 11;
#X obj 153 838 * 9;
#X obj 322 838 * 7;
#X obj 491 838 * 5;
#X obj 660 838 * 3;
#X obj 829 838 * 1;
#X obj 356 383 bmod 0-\$1;
#X obj 80 674 bmod 1-\$1;
#X obj 249 674 bmod 2-\$1;
#X obj 418 674 bmod 3-\$1;
#X obj 587 674 bmod 4-\$1;
#X obj 756 674 bmod 5-\$1;
#X obj 65 952 bmod 6-\$1;
#X obj 234 952 bmod 7-\$1;
#X obj 403 952 bmod 8-\$1;
#X obj 572 952 bmod 9-\$1;
#X obj 741 952 bmod a-\$1;
#X obj 187 383 bmod b-\$1;
#X obj 725 200 r \$0-deviation;
#X obj 725 238 s \$1-deviation;
#X obj 725 219 * 0.5;
#X obj 815 236 * 12;
#X connect 0 0 1 0;
#X connect 2 0 3 0;
#X connect 3 0 6 0;
#X connect 5 0 19 0;
#X connect 8 0 9 0;
#X connect 10 0 11 0;
#X connect 12 0 13 0;
#X connect 14 0 31 0;
#X connect 15 0 16 0;
#X connect 16 0 20 0;
#X connect 16 1 20 1;
#X connect 17 0 20 0;
#X connect 18 0 17 0;
#X connect 19 0 18 0;
#X connect 19 1 17 1;
#X connect 20 0 161 6;
#X connect 21 0 22 0;
#X connect 22 0 26 0;
#X connect 22 1 26 1;
#X connect 23 0 26 0;
#X connect 24 0 23 0;
#X connect 25 0 24 0;
#X connect 25 1 23 1;
#X connect 26 0 150 6;
#X connect 27 0 25 0;
#X connect 28 0 161 0;
#X connect 29 0 150 0;
#X connect 32 0 161 2;
#X connect 33 0 150 2;
#X connect 39 0 27 0;
#X connect 40 0 41 0;
#X connect 41 0 45 0;
#X connect 41 1 45 1;
#X connect 42 0 45 0;
#X connect 43 0 42 0;
#X connect 44 0 43 0;
#X connect 44 1 42 1;
#X connect 45 0 151 6;
#X connect 46 0 151 0;
#X connect 47 0 151 2;
#X connect 48 0 49 0;
#X connect 49 0 50 0;
#X connect 50 0 44 0;
#X connect 51 0 52 0;
#X connect 52 0 56 0;
#X connect 52 1 56 1;
#X connect 53 0 56 0;
#X connect 54 0 53 0;
#X connect 55 0 54 0;
#X connect 55 1 53 1;
#X connect 56 0 152 6;
#X connect 57 0 152 0;
#X connect 58 0 152 2;
#X connect 59 0 91 0;
#X connect 60 0 55 0;
#X connect 61 0 62 0;
#X connect 62 0 66 0;
#X connect 62 1 66 1;
#X connect 63 0 66 0;
#X connect 64 0 63 0;
#X connect 65 0 64 0;
#X connect 65 1 63 1;
#X connect 66 0 153 6;
#X connect 67 0 153 0;
#X connect 68 0 153 2;
#X connect 69 0 92 0;
#X connect 70 0 65 0;
#X connect 71 0 72 0;
#X connect 72 0 76 0;
#X connect 72 1 76 1;
#X connect 73 0 76 0;
#X connect 74 0 73 0;
#X connect 75 0 74 0;
#X connect 75 1 73 1;
#X connect 76 0 154 6;
#X connect 77 0 154 0;
#X connect 78 0 154 2;
#X connect 79 0 93 0;
#X connect 80 0 75 0;
#X connect 81 0 82 0;
#X connect 82 0 86 0;
#X connect 82 1 86 1;
#X connect 83 0 86 0;
#X connect 84 0 83 0;
#X connect 85 0 84 0;
#X connect 85 1 83 1;
#X connect 86 0 155 6;
#X connect 87 0 155 0;
#X connect 88 0 155 2;
#X connect 89 0 94 0;
#X connect 90 0 85 0;
#X connect 91 0 60 0;
#X connect 92 0 70 0;
#X connect 93 0 80 0;
#X connect 94 0 90 0;
#X connect 95 0 96 0;
#X connect 96 0 100 0;
#X connect 96 1 100 1;
#X connect 97 0 100 0;
#X connect 98 0 97 0;
#X connect 99 0 98 0;
#X connect 99 1 97 1;
#X connect 100 0 156 6;
#X connect 101 0 156 0;
#X connect 102 0 156 2;
#X connect 103 0 145 0;
#X connect 104 0 99 0;
#X connect 105 0 106 0;
#X connect 106 0 110 0;
#X connect 106 1 110 1;
#X connect 107 0 110 0;
#X connect 108 0 107 0;
#X connect 109 0 108 0;
#X connect 109 1 107 1;
#X connect 110 0 157 6;
#X connect 111 0 157 0;
#X connect 112 0 157 2;
#X connect 113 0 146 0;
#X connect 114 0 109 0;
#X connect 115 0 116 0;
#X connect 116 0 120 0;
#X connect 116 1 120 1;
#X connect 117 0 120 0;
#X connect 118 0 117 0;
#X connect 119 0 118 0;
#X connect 119 1 117 1;
#X connect 120 0 158 6;
#X connect 121 0 158 0;
#X connect 122 0 158 2;
#X connect 123 0 147 0;
#X connect 124 0 119 0;
#X connect 125 0 126 0;
#X connect 126 0 130 0;
#X connect 126 1 130 1;
#X connect 127 0 130 0;
#X connect 128 0 127 0;
#X connect 129 0 128 0;
#X connect 129 1 127 1;
#X connect 130 0 159 6;
#X connect 131 0 159 0;
#X connect 132 0 159 2;
#X connect 133 0 148 0;
#X connect 134 0 129 0;
#X connect 135 0 136 0;
#X connect 136 0 140 0;
#X connect 136 1 140 1;
#X connect 137 0 140 0;
#X connect 138 0 137 0;
#X connect 139 0 138 0;
#X connect 139 1 137 1;
#X connect 140 0 160 6;
#X connect 141 0 160 0;
#X connect 142 0 160 2;
#X connect 143 0 149 0;
#X connect 144 0 139 0;
#X connect 145 0 104 0;
#X connect 146 0 114 0;
#X connect 147 0 124 0;
#X connect 148 0 134 0;
#X connect 149 0 144 0;
#X connect 162 0 164 0;
#X connect 164 0 163 0;
#X connect 164 0 165 0;
#X connect 165 0 4 0;
#X coords 0 -1 1 1 109 91 1 300 170;
