#N canvas 0 0 771 556 10;
#X obj 427 92 r go;
#X obj 427 111 s \$0-en_;
#X obj 113 195 loadbang;
#X obj 113 214 f \$0;
#X obj 543 445 outlet;
#X obj 18 345 r \$0-lambda;
#X obj 275 288 r \$0-spread;
#X obj 178 364 r \$0-mper;
#X msg 113 233 \; \$1-lambda_ 1 \; \$1-mper_ 1 \; \$1-spread_ 1 \;
\$1-deviation_ 1 \;;
#X text 584 443 output range (bipolar);
#X obj 92 92 inlet;
#X obj 92 111 s \$0-lambda;
#X obj 164 92 inlet;
#X obj 164 111 s \$0-mper_;
#X obj 230 92 inlet;
#X obj 230 111 s \$0-spread_;
#X obj 308 92 inlet;
#X obj 347 288 r \$0-mper;
#X obj 347 307 t b f;
#X obj 275 345 pow;
#X obj 275 326 f 2;
#X obj 275 307 t b f;
#X obj 347 326 *;
#X obj 444 269 r \$0-spread;
#X obj 516 269 r \$0-mper;
#X obj 516 288 t b f;
#X obj 444 345 pow;
#X obj 444 326 f 2;
#X obj 444 307 t b f;
#X obj 516 307 *;
#X obj 444 288 * -1;
#X obj 18 383 bmod 0-\$1;
#X obj 187 345 r \$0-lambda;
#X obj 356 345 r \$0-lambda;
#X obj 187 383 bmod 1-\$1;
#X obj 356 383 bmod 2-\$1;
#X obj 543 426 * 3;
#X text 434 194 I'm not sure what to do about the enables;
#X obj 308 111 s \$0-deviation_;
#X obj 71 364 r \$1-deviation;
#X obj 240 364 r \$1-deviation;
#X obj 409 364 r \$1-deviation;
#X obj 543 407 r \$1-deviation;
#X obj 301 173 cnv 15 107 85 empty empty bnmod3_\$1 1 6 0 10 -253952
-1 0;
#X floatatom 303 186 5 0 1000 1 lambda #0-lambda_ #0-lambda;
#X floatatom 303 204 5 0 1000 1 mper_(cen) #0-mper_ #0-mper;
#X floatatom 303 240 5 0 1000 1 std_dev #0-deviation_ #1-deviation
;
#X floatatom 303 222 5 0 10 1 spread_(oct) #0-spread_ #0-spread;
#X connect 0 0 1 0;
#X connect 2 0 3 0;
#X connect 3 0 8 0;
#X connect 5 0 31 0;
#X connect 6 0 21 0;
#X connect 7 0 31 6;
#X connect 10 0 11 0;
#X connect 12 0 13 0;
#X connect 14 0 15 0;
#X connect 16 0 38 0;
#X connect 17 0 18 0;
#X connect 18 0 22 0;
#X connect 18 1 22 1;
#X connect 19 0 22 0;
#X connect 20 0 19 0;
#X connect 21 0 20 0;
#X connect 21 1 19 1;
#X connect 22 0 34 6;
#X connect 23 0 30 0;
#X connect 24 0 25 0;
#X connect 25 0 29 0;
#X connect 25 1 29 1;
#X connect 26 0 29 0;
#X connect 27 0 26 0;
#X connect 28 0 27 0;
#X connect 28 1 26 1;
#X connect 29 0 35 6;
#X connect 30 0 28 0;
#X connect 32 0 34 0;
#X connect 33 0 35 0;
#X connect 36 0 4 0;
#X connect 39 0 31 2;
#X connect 40 0 34 2;
#X connect 41 0 35 2;
#X connect 42 0 36 0;
#X coords 0 -1 1 1 109 91 1 300 170;
