#N canvas 420 305 890 406 10;
#X obj 120 34 key;
#X floatatom 115 88 5 0 0 0 - - -;
#X obj 151 21 select 113 119 101 114 116 122 117 105 97 115 100 102
103 104 106 107;
#X text 24 15 qwertzui asdfghjk;
#X obj 37 90 bng 15 250 50 0 empty empty empty 17 7 0 10 -262144 -1
-1;
#N canvas 1 79 1184 284 16-hardware-controller-levels 0;
#X obj 45 207 outlet;
#X obj 115 207 outlet;
#X obj 185 207 outlet;
#X obj 255 207 outlet;
#X obj 325 207 outlet;
#X obj 395 207 outlet;
#X obj 465 207 outlet;
#X obj 535 207 outlet;
#X obj 605 207 outlet;
#X obj 675 207 outlet;
#X obj 745 207 outlet;
#X obj 815 207 outlet;
#X obj 885 207 outlet;
#X obj 955 207 outlet;
#X obj 1025 207 outlet;
#X obj 1095 207 outlet;
#X obj 413 27 abs_16midifaders ___________________________;
#X connect 16 0 0 0;
#X connect 16 1 1 0;
#X connect 16 2 2 0;
#X connect 16 3 3 0;
#X connect 16 4 4 0;
#X connect 16 5 5 0;
#X connect 16 6 6 0;
#X connect 16 7 7 0;
#X connect 16 8 8 0;
#X connect 16 9 9 0;
#X connect 16 10 10 0;
#X connect 16 11 11 0;
#X connect 16 12 12 0;
#X connect 16 13 13 0;
#X connect 16 14 14 0;
#X connect 16 15 15 0;
#X restore 149 59 pd 16-hardware-controller-levels;
#X obj 49 60 stripnote;
#X obj 50 31 notein;
#N canvas 215 231 667 548 xfader 0;
#X obj 30 508 outlet~;
#X obj 29 426 +~;
#X obj 51 396 *~;
#X obj -11 399 *~;
#X obj 3 267 * -1;
#X obj 3 291 + 1;
#X obj -83 121 inlet~;
#X obj 18 124 inlet~;
#X text -47 -109 simple crossfader (or dry/wet slider);
#X obj 105 115 hsl 80 10 0 127 0 1 empty empty empty -22 5 0 10 -262144
-1 -1 4000 1;
#X obj 176 102 tgl 11 1 empty empty empty 17 7 0 10 -204786 -1 -1 0
1;
#N canvas 1 81 1148 684 midilearnc2 0;
#X msg 42 346 set \$1;
#N canvas 1 81 450 455 speedlimit1 0;
#X obj 240 62 inlet;
#X obj 237 376 outlet;
#X obj 208 307 f;
#X obj 225 338 change;
#X obj 132 195 spigot 1;
#X obj 219 108 t b b f;
#X msg 140 141 0;
#X msg 106 141 1;
#X obj 63 251 delay 125;
#X connect 0 0 5 0;
#X connect 2 0 3 0;
#X connect 3 0 1 0;
#X connect 4 0 2 0;
#X connect 4 0 8 0;
#X connect 5 0 6 0;
#X connect 5 1 4 0;
#X connect 5 2 2 1;
#X connect 6 0 4 1;
#X connect 7 0 4 1;
#X connect 8 0 7 0;
#X connect 8 0 2 0;
#X restore 52 292 pd speedlimit1;
#X obj 48 41 ctlin;
#X obj 60 213 route;
#X msg 147 161 set \$1;
#X obj 147 140 spigot;
#X obj 61 114 t b f;
#X obj 62 182 pack f f;
#X obj 60 140 int;
#X obj 205 162 select 0;
#X obj 463 52 inlet;
#X obj 38 396 outlet;
#X obj 296 345 outlet;
#X text 463 32 learn on/off;
#X text 209 15 midi ctl in with learn;
#X text 156 199 ctl nr saved here;
#X text 29 419 set fader (at gui-rate);
#X text 300 363 direct value \, no speedlimit;
#X msg 121 192;
#X connect 0 0 11 0;
#X connect 1 0 0 0;
#X connect 2 0 6 0;
#X connect 2 1 5 0;
#X connect 2 1 8 1;
#X connect 3 0 12 0;
#X connect 3 0 1 0;
#X connect 4 0 18 0;
#X connect 5 0 4 0;
#X connect 6 0 8 0;
#X connect 6 1 7 1;
#X connect 7 0 3 0;
#X connect 8 0 7 0;
#X connect 9 0 18 0;
#X connect 10 0 9 0;
#X connect 10 0 5 1;
#X connect 18 0 3 1;
#X restore 278 75 pd midilearnc2;
#X obj 136 173 / 128;
#X obj 95 348 line~;
#X msg 96 321 \$1 10;
#X obj 4 361 line~;
#X msg 5 334 \$1 10;
#X connect 1 0 0 0;
#X connect 2 0 1 1;
#X connect 3 0 1 0;
#X connect 4 0 5 0;
#X connect 5 0 16 0;
#X connect 6 0 3 0;
#X connect 7 0 2 0;
#X connect 9 0 12 0;
#X connect 10 0 11 0;
#X connect 11 0 9 0;
#X connect 11 1 12 0;
#X connect 12 0 14 0;
#X connect 12 0 4 0;
#X connect 13 0 2 1;
#X connect 14 0 13 0;
#X connect 15 0 3 1;
#X connect 16 0 15 0;
#X coords 0 -1 1 1 90 30 1 100 100;
#X restore 547 66 pd xfader;
#N canvas 211 233 792 762 xfader1s 0;
#X obj -28 528 outlet~;
#X obj -29 446 +~;
#X obj -7 416 *~;
#X obj -69 419 *~;
#X obj 46 227 * -1;
#X obj 46 251 + 1;
#X obj -211 143 inlet~;
#X obj -63 141 inlet~;
#X text -47 -109 simple crossfader (or dry/wet slider);
#X obj -207 530 outlet~;
#X obj -208 448 +~;
#X obj -186 418 *~;
#X obj -248 421 *~;
#X obj -268 144 inlet~;
#X obj -110 141 inlet~;
#X text -242 115 dry;
#X text -88 118 wet;
#X obj 105 115 hsl 80 10 0 127 0 1 empty empty empty -22 5 0 10 -262144
-1 -1 4000 1;
#X obj 176 102 tgl 11 1 empty empty empty 17 7 0 10 -204786 -1 -1 0
1;
#N canvas 1 81 1148 684 midilearnc2 0;
#X msg 42 346 set \$1;
#N canvas 1 81 450 455 speedlimit1 0;
#X obj 240 62 inlet;
#X obj 237 376 outlet;
#X obj 208 307 f;
#X obj 225 338 change;
#X obj 132 195 spigot 1;
#X obj 219 108 t b b f;
#X msg 140 141 0;
#X msg 106 141 1;
#X obj 63 251 delay 125;
#X connect 0 0 5 0;
#X connect 2 0 3 0;
#X connect 3 0 1 0;
#X connect 4 0 2 0;
#X connect 4 0 8 0;
#X connect 5 0 6 0;
#X connect 5 1 4 0;
#X connect 5 2 2 1;
#X connect 6 0 4 1;
#X connect 7 0 4 1;
#X connect 8 0 7 0;
#X connect 8 0 2 0;
#X restore 52 292 pd speedlimit1;
#X obj 48 41 ctlin;
#X obj 60 213 route;
#X msg 147 161 set \$1;
#X obj 147 140 spigot;
#X obj 61 114 t b f;
#X obj 62 182 pack f f;
#X obj 60 140 int;
#X obj 205 162 select 0;
#X obj 463 52 inlet;
#X obj 38 396 outlet;
#X obj 296 345 outlet;
#X text 463 32 learn on/off;
#X text 209 15 midi ctl in with learn;
#X text 156 199 ctl nr saved here;
#X text 29 419 set fader (at gui-rate);
#X text 300 363 direct value \, no speedlimit;
#X msg 121 192;
#X connect 0 0 11 0;
#X connect 1 0 0 0;
#X connect 2 0 6 0;
#X connect 2 1 5 0;
#X connect 2 1 8 1;
#X connect 3 0 12 0;
#X connect 3 0 1 0;
#X connect 4 0 18 0;
#X connect 5 0 4 0;
#X connect 6 0 8 0;
#X connect 6 1 7 1;
#X connect 7 0 3 0;
#X connect 8 0 7 0;
#X connect 9 0 18 0;
#X connect 10 0 9 0;
#X connect 10 0 5 1;
#X connect 18 0 3 1;
#X restore 278 75 pd midilearnc2;
#X obj 136 173 / 128;
#X obj 124 302 line~;
#X msg 125 275 \$1 10;
#X obj 37 308 line~;
#X msg 38 281 \$1 10;
#X connect 1 0 0 0;
#X connect 2 0 1 1;
#X connect 3 0 1 0;
#X connect 4 0 5 0;
#X connect 5 0 24 0;
#X connect 6 0 3 0;
#X connect 7 0 2 0;
#X connect 10 0 9 0;
#X connect 11 0 10 1;
#X connect 12 0 10 0;
#X connect 13 0 12 0;
#X connect 14 0 11 0;
#X connect 17 0 20 0;
#X connect 18 0 19 0;
#X connect 19 0 17 0;
#X connect 19 1 20 0;
#X connect 20 0 22 0;
#X connect 20 0 4 0;
#X connect 21 0 2 1;
#X connect 21 0 11 1;
#X connect 22 0 21 0;
#X connect 23 0 3 1;
#X connect 23 0 12 1;
#X connect 24 0 23 0;
#X coords 0 -1 1 1 90 30 1 100 100;
#X restore 647 65 pd xfader1s;
#X text 511 24 midi i/o \, fadera/buttons \, volume levels mono/stereo
\, pan \, xfader;
#N canvas 213 230 667 548 split2m 0;
#X obj 16 438 outlet~;
#X obj 105 115 hsl 80 10 0 127 0 1 empty empty empty -22 5 0 10 -262144
-1 -1 4000 1;
#X obj 12 393 *~;
#X obj -50 383 *~;
#X obj 45 211 * -1;
#X obj 45 235 + 1;
#X obj 18 124 inlet~;
#X obj -62 436 outlet~;
#X text -47 -109 simple distribute/split \, mono;
#X obj 176 102 tgl 11 1 empty empty empty 17 7 0 10 -204786 -1 -1 0
1;
#N canvas 1 81 1148 684 midilearnc2 0;
#X msg 42 346 set \$1;
#N canvas 1 81 450 455 speedlimit1 0;
#X obj 240 62 inlet;
#X obj 237 376 outlet;
#X obj 208 307 f;
#X obj 225 338 change;
#X obj 132 195 spigot 1;
#X obj 219 108 t b b f;
#X msg 140 141 0;
#X msg 106 141 1;
#X obj 63 251 delay 125;
#X connect 0 0 5 0;
#X connect 2 0 3 0;
#X connect 3 0 1 0;
#X connect 4 0 2 0;
#X connect 4 0 8 0;
#X connect 5 0 6 0;
#X connect 5 1 4 0;
#X connect 5 2 2 1;
#X connect 6 0 4 1;
#X connect 7 0 4 1;
#X connect 8 0 7 0;
#X connect 8 0 2 0;
#X restore 52 292 pd speedlimit1;
#X obj 48 41 ctlin;
#X obj 60 213 route;
#X msg 147 161 set \$1;
#X obj 147 140 spigot;
#X obj 61 114 t b f;
#X obj 62 182 pack f f;
#X obj 60 140 int;
#X obj 205 162 select 0;
#X obj 463 52 inlet;
#X obj 38 396 outlet;
#X obj 296 345 outlet;
#X text 463 32 learn on/off;
#X text 209 15 midi ctl in with learn;
#X text 156 199 ctl nr saved here;
#X text 29 419 set fader (at gui-rate);
#X text 300 363 direct value \, no speedlimit;
#X msg 121 192;
#X connect 0 0 11 0;
#X connect 1 0 0 0;
#X connect 2 0 6 0;
#X connect 2 1 5 0;
#X connect 2 1 8 1;
#X connect 3 0 12 0;
#X connect 3 0 1 0;
#X connect 4 0 18 0;
#X connect 5 0 4 0;
#X connect 6 0 8 0;
#X connect 6 1 7 1;
#X connect 7 0 3 0;
#X connect 8 0 7 0;
#X connect 9 0 18 0;
#X connect 10 0 9 0;
#X connect 10 0 5 1;
#X connect 18 0 3 1;
#X restore 244 133 pd midilearnc2;
#X obj 105 166 / 128;
#X obj 68 329 line~;
#X msg 69 302 \$1 10;
#X obj -10 328 line~;
#X msg -8 304 \$1 10;
#X connect 1 0 11 0;
#X connect 2 0 0 0;
#X connect 3 0 7 0;
#X connect 4 0 5 0;
#X connect 5 0 15 0;
#X connect 6 0 2 0;
#X connect 6 0 3 0;
#X connect 9 0 10 0;
#X connect 10 0 1 0;
#X connect 10 1 11 0;
#X connect 11 0 4 0;
#X connect 11 0 13 0;
#X connect 12 0 2 1;
#X connect 13 0 12 0;
#X connect 14 0 3 1;
#X connect 15 0 14 0;
#X coords 0 -1 1 1 90 30 1 100 100;
#X restore 397 121 pd split2m;
#N canvas 211 229 994 765 split2s 0;
#X obj 90 462 outlet~;
#X obj 21 359 *~;
#X obj -41 362 *~;
#X obj -42 122 inlet~;
#X obj -53 470 outlet~;
#X text -47 -109 simple distribute/split \, stereo;
#X obj 157 463 outlet~;
#X obj 169 379 *~;
#X obj 107 382 *~;
#X obj 127 208 * -1;
#X obj 129 233 + 1;
#X obj 18 122 inlet~;
#X obj -1 468 outlet~;
#X obj 105 115 hsl 80 10 0 127 0 1 empty empty empty -22 5 0 10 -262144
-1 -1 4000 1;
#X obj 176 102 tgl 11 1 empty empty empty 17 7 0 10 -204786 -1 -1 0
1;
#N canvas 1 81 1148 684 midilearnc2 0;
#X msg 42 346 set \$1;
#N canvas 1 81 450 455 speedlimit1 0;
#X obj 240 62 inlet;
#X obj 237 376 outlet;
#X obj 208 307 f;
#X obj 225 338 change;
#X obj 132 195 spigot 1;
#X obj 219 108 t b b f;
#X msg 140 141 0;
#X msg 106 141 1;
#X obj 63 251 delay 125;
#X connect 0 0 5 0;
#X connect 2 0 3 0;
#X connect 3 0 1 0;
#X connect 4 0 2 0;
#X connect 4 0 8 0;
#X connect 5 0 6 0;
#X connect 5 1 4 0;
#X connect 5 2 2 1;
#X connect 6 0 4 1;
#X connect 7 0 4 1;
#X connect 8 0 7 0;
#X connect 8 0 2 0;
#X restore 52 292 pd speedlimit1;
#X obj 48 41 ctlin;
#X obj 60 213 route;
#X msg 147 161 set \$1;
#X obj 147 140 spigot;
#X obj 61 114 t b f;
#X obj 62 182 pack f f;
#X obj 60 140 int;
#X obj 205 162 select 0;
#X obj 463 52 inlet;
#X obj 38 396 outlet;
#X obj 296 345 outlet;
#X text 463 32 learn on/off;
#X text 209 15 midi ctl in with learn;
#X text 156 199 ctl nr saved here;
#X text 29 419 set fader (at gui-rate);
#X text 300 363 direct value \, no speedlimit;
#X msg 121 192;
#X connect 0 0 11 0;
#X connect 1 0 0 0;
#X connect 2 0 6 0;
#X connect 2 1 5 0;
#X connect 2 1 8 1;
#X connect 3 0 12 0;
#X connect 3 0 1 0;
#X connect 4 0 18 0;
#X connect 5 0 4 0;
#X connect 6 0 8 0;
#X connect 6 1 7 1;
#X connect 7 0 3 0;
#X connect 8 0 7 0;
#X connect 9 0 18 0;
#X connect 10 0 9 0;
#X connect 10 0 5 1;
#X connect 18 0 3 1;
#X restore 278 75 pd midilearnc2;
#X obj 136 173 / 128;
#X obj 201 303 line~;
#X msg 204 272 \$1 10;
#X obj 135 294 line~;
#X msg 136 267 \$1 10;
#X connect 1 0 0 0;
#X connect 2 0 4 0;
#X connect 3 0 1 0;
#X connect 3 0 2 0;
#X connect 7 0 6 0;
#X connect 8 0 12 0;
#X connect 9 0 10 0;
#X connect 10 0 20 0;
#X connect 11 0 7 0;
#X connect 11 0 8 0;
#X connect 13 0 16 0;
#X connect 14 0 15 0;
#X connect 15 0 13 0;
#X connect 15 1 16 0;
#X connect 16 0 9 0;
#X connect 16 0 18 0;
#X connect 17 0 7 1;
#X connect 17 0 1 1;
#X connect 18 0 17 0;
#X connect 19 0 8 1;
#X connect 19 0 2 1;
#X connect 20 0 19 0;
#X coords 0 -1 1 1 90 30 1 100 100;
#X restore 494 121 pd split2s;
#N canvas 1 81 1371 933 mlevels 0;
#X obj 15 317 inlet~;
#X obj 208 113 tgl 11 1 empty empty empty 17 7 0 10 -204786 -1 -1 0
1;
#X obj 166 103 hsl 50 9 0 1 0 1 empty empty pan 1 3 0 10 -262144 -1
-99865 2450 1;
#X obj 105 114 hsl 100 10 0 127 0 0 empty empty level 1 5 0 10 -262144
-1 -99865 0 1;
#N canvas 259 136 875 855 stereomixpan 0;
#X obj 50 18 inlet~;
#X obj 77 408 outlet~;
#X obj 130 112 *;
#X obj 77 380 *~;
#X obj 132 70 / 128;
#X obj -8 19 inlet~;
#X obj -14 399 outlet~;
#X obj -12 378 *~;
#X obj 131 90 t f f;
#X obj 137 25 inlet;
#X obj 254 -12 inlet;
#X obj 50 265 + 1;
#X obj 128 244 * -1;
#X obj 236 83 * -1;
#X obj 238 56 clip 0 1;
#X text 138 5 level;
#X text 255 -33 pan;
#X obj 131 137 * 2;
#X obj 91 287 *;
#X obj 5 300 *;
#X obj 213 22 t b f;
#X obj 113 342 line~;
#X msg 120 309 \$1 10;
#X obj 13 349 line~;
#X msg 11 323 \$1 10;
#X connect 0 0 3 0;
#X connect 2 0 17 0;
#X connect 3 0 1 0;
#X connect 4 0 8 0;
#X connect 5 0 7 0;
#X connect 7 0 6 0;
#X connect 8 0 2 0;
#X connect 8 1 2 1;
#X connect 9 0 4 0;
#X connect 10 0 20 0;
#X connect 11 0 19 1;
#X connect 12 0 18 1;
#X connect 13 0 11 0;
#X connect 13 0 12 0;
#X connect 14 0 13 0;
#X connect 17 0 18 0;
#X connect 17 0 19 0;
#X connect 18 0 22 0;
#X connect 19 0 24 0;
#X connect 20 0 17 0;
#X connect 20 1 14 0;
#X connect 21 0 3 1;
#X connect 22 0 21 0;
#X connect 23 0 7 1;
#X connect 24 0 23 0;
#X restore 69 673 pd stereomixpan;
#X obj 66 316 inlet~;
#X obj 126 315 inlet~;
#X obj 129 505 *~ 0.5;
#X obj 32 782 outlet~;
#X obj 151 781 outlet~;
#X text 24 294 stereo in;
#X text 130 294 mono in;
#N canvas 1 81 1148 684 midilearnc2 0;
#X msg 42 346 set \$1;
#N canvas 1 81 450 455 speedlimit1 0;
#X obj 240 62 inlet;
#X obj 237 376 outlet;
#X obj 208 307 f;
#X obj 225 338 change;
#X obj 132 195 spigot 1;
#X obj 219 108 t b b f;
#X msg 140 141 0;
#X msg 106 141 1;
#X obj 63 251 delay 125;
#X connect 0 0 5 0;
#X connect 2 0 3 0;
#X connect 3 0 1 0;
#X connect 4 0 2 0;
#X connect 4 0 8 0;
#X connect 5 0 6 0;
#X connect 5 1 4 0;
#X connect 5 2 2 1;
#X connect 6 0 4 1;
#X connect 7 0 4 1;
#X connect 8 0 7 0;
#X connect 8 0 2 0;
#X restore 52 292 pd speedlimit1;
#X obj 48 41 ctlin;
#X obj 60 213 route;
#X msg 147 161 set \$1;
#X obj 147 140 spigot;
#X obj 61 114 t b f;
#X obj 62 182 pack f f;
#X obj 60 140 int;
#X obj 205 162 select 0;
#X obj 463 52 inlet;
#X obj 38 396 outlet;
#X obj 296 345 outlet;
#X text 463 32 learn on/off;
#X text 209 15 midi ctl in with learn;
#X text 156 199 ctl nr saved here;
#X text 29 419 set fader (at gui-rate);
#X text 300 363 direct value \, no speedlimit;
#X msg 121 192;
#X connect 0 0 11 0;
#X connect 1 0 0 0;
#X connect 2 0 6 0;
#X connect 2 1 5 0;
#X connect 2 1 8 1;
#X connect 3 0 12 0;
#X connect 3 0 1 0;
#X connect 4 0 18 0;
#X connect 5 0 4 0;
#X connect 6 0 8 0;
#X connect 6 1 7 1;
#X connect 7 0 3 0;
#X connect 8 0 7 0;
#X connect 9 0 18 0;
#X connect 10 0 9 0;
#X connect 10 0 5 1;
#X connect 18 0 3 1;
#X restore 272 158 pd midilearnc2;
#X msg 254 61 0.5;
#X obj 111 127 hsl 100 10 0 2 0 1 empty empty att/boost 1 5 0 10 -262144
-1 -99865 4950 1;
#X obj 330 397 *;
#X msg 284 61 1;
#X obj 162 736 *~ 1;
#X obj 70 733 *~ 1;
#X connect 0 0 4 0;
#X connect 1 0 12 0;
#X connect 2 0 4 3;
#X connect 3 0 4 2;
#X connect 4 0 18 0;
#X connect 4 1 17 0;
#X connect 5 0 4 1;
#X connect 6 0 7 0;
#X connect 7 0 4 0;
#X connect 7 0 4 1;
#X connect 12 0 3 0;
#X connect 12 1 4 2;
#X connect 13 0 2 0;
#X connect 14 0 15 1;
#X connect 14 0 15 0;
#X connect 15 0 17 1;
#X connect 15 0 18 1;
#X connect 16 0 14 0;
#X connect 17 0 9 0;
#X connect 18 0 8 0;
#X coords 0 -1 1 1 120 40 1 100 100;
#X restore 108 178 pd mlevels;
#N canvas 1 81 1371 933 mlevel_m 0;
#X obj 208 113 tgl 11 1 empty empty empty 17 7 0 10 -204786 -1 -1 0
1;
#X obj 105 114 hsl 100 10 0 127 0 0 empty empty level 1 5 0 10 -262144
-1 -99865 0 1;
#X obj 20 359 inlet~;
#X obj 131 748 outlet~;
#X text 24 338 mono in;
#N canvas 1 81 1148 684 midilearnc2 0;
#X msg 42 346 set \$1;
#N canvas 1 81 450 455 speedlimit1 0;
#X obj 240 62 inlet;
#X obj 237 376 outlet;
#X obj 208 307 f;
#X obj 225 338 change;
#X obj 132 195 spigot 1;
#X obj 219 108 t b b f;
#X msg 140 141 0;
#X msg 106 141 1;
#X obj 63 251 delay 125;
#X connect 0 0 5 0;
#X connect 2 0 3 0;
#X connect 3 0 1 0;
#X connect 4 0 2 0;
#X connect 4 0 8 0;
#X connect 5 0 6 0;
#X connect 5 1 4 0;
#X connect 5 2 2 1;
#X connect 6 0 4 1;
#X connect 7 0 4 1;
#X connect 8 0 7 0;
#X connect 8 0 2 0;
#X restore 52 292 pd speedlimit1;
#X obj 48 41 ctlin;
#X obj 60 213 route;
#X msg 147 161 set \$1;
#X obj 147 140 spigot;
#X obj 61 114 t b f;
#X obj 62 182 pack f f;
#X obj 60 140 int;
#X obj 205 162 select 0;
#X obj 463 52 inlet;
#X obj 38 396 outlet;
#X obj 296 345 outlet;
#X text 463 32 learn on/off;
#X text 209 15 midi ctl in with learn;
#X text 156 199 ctl nr saved here;
#X text 29 419 set fader (at gui-rate);
#X text 300 363 direct value \, no speedlimit;
#X msg 121 192;
#X connect 0 0 11 0;
#X connect 1 0 0 0;
#X connect 2 0 6 0;
#X connect 2 1 5 0;
#X connect 2 1 8 1;
#X connect 3 0 12 0;
#X connect 3 0 1 0;
#X connect 4 0 18 0;
#X connect 5 0 4 0;
#X connect 6 0 8 0;
#X connect 6 1 7 1;
#X connect 7 0 3 0;
#X connect 8 0 7 0;
#X connect 9 0 18 0;
#X connect 10 0 9 0;
#X connect 10 0 5 1;
#X connect 18 0 3 1;
#X restore 272 158 pd midilearnc2;
#X obj 111 127 hsl 100 10 0 2 0 1 empty empty att/boost 1 5 0 10 -262144
-1 -99865 4950 1;
#X obj 267 537 *;
#X msg 284 72 1;
#X obj 172 521 *;
#X obj 128 649 *~;
#X obj 174 479 / 128;
#X obj 173 499 t f f;
#X obj 164 611 line~;
#X msg 171 578 \$1 10;
#X obj 129 695 *~ 1;
#X connect 0 0 5 0;
#X connect 2 0 10 0;
#X connect 5 0 1 0;
#X connect 5 1 11 0;
#X connect 6 0 7 1;
#X connect 6 0 7 0;
#X connect 7 0 15 1;
#X connect 8 0 6 0;
#X connect 9 0 14 0;
#X connect 10 0 15 0;
#X connect 11 0 12 0;
#X connect 12 0 9 0;
#X connect 12 1 9 1;
#X connect 13 0 10 1;
#X connect 14 0 13 0;
#X connect 15 0 3 0;
#X coords 0 -1 1 1 120 40 1 100 100;
#X restore 239 178 pd mlevel_m;
#N canvas 218 118 967 558 outrc 0;
#X obj 31 304 writesf~ 2;
#X obj -46 -48 inlet~;
#X obj 16 -47 inlet~;
#X obj -8 304 dac~;
#X obj 218 113 bng 15 250 50 0 empty empty R 6 9 0 8 -258113 -1 -1
;
#X msg 65 193 stop;
#X obj 200 113 bng 15 250 50 0 empty empty S 5 8 0 8 -262144 -1 -262144
;
#X msg 122 22 color 1;
#X msg 211 19 color 0;
#X obj -89 90 line~;
#X obj -39 186 *~;
#X obj 22 172 *~;
#X obj -76 38 *;
#X obj -65 11 t f f;
#X obj -94 61 pack 0 30;
#X obj 291 245 symbol;
#X obj 314 129 t b b;
#X obj 102 114 nbx 3 14 0 999 0 1 empty empty empty 0 -8 0 10 -262144
-1 -1 100 256;
#X obj 50 139 / 100;
#X symbolatom 141 114 9 0 0 0 - - -;
#X obj 357 200 random 1000;
#X text 440 207 append a random nr to minimize the risk of overwriting
old recordings;
#X msg 271 322 open -bytes 4 rec_\$1_\$2.wav \, start;
#X obj 301 276 pack s f;
#X obj 395 25 loadbang;
#X text -35 -74 audio-in 1/2;
#X obj 50 161 moses 1;
#X obj 621 34 int;
#X obj 664 108 mod 60;
#X obj 589 71 div 60;
#X obj 620 107 mod 60;
#X obj 569 105 div 60;
#X obj 654 37 + 1;
#X msg 606 -14 0;
#X obj 654 -17 metro 1000;
#X obj 585 -42 t b b;
#X symbolatom 236 113 10 0 0 0 - - -;
#X msg 373 103 symbol 00:00:00;
#X msg 538 171 set symbol \$3:\$2:\$1;
#X obj 543 148 pack f f f;
#X text 88 -39 audio out and recorder \, level \, filename \, stop/start
\, saves in the current working-directory \, displays eleapsed time
during recording;
#X obj 118 -104 inlet~;
#X text 121 -122 mono in;
#X obj 38 21 *~ 0.5;
#X msg 367 72 symbol puredata;
#X obj 32 102 hip~ 10;
#X obj -24 100 hip~ 10;
#X connect 1 0 46 0;
#X connect 2 0 45 0;
#X connect 4 0 7 0;
#X connect 4 0 16 0;
#X connect 4 0 35 0;
#X connect 5 0 0 0;
#X connect 6 0 5 0;
#X connect 6 0 8 0;
#X connect 7 0 6 0;
#X connect 8 0 6 0;
#X connect 9 0 11 0;
#X connect 9 0 10 0;
#X connect 10 0 3 0;
#X connect 10 0 0 0;
#X connect 11 0 3 1;
#X connect 11 0 0 1;
#X connect 12 0 14 0;
#X connect 13 0 12 0;
#X connect 13 1 12 1;
#X connect 14 0 9 0;
#X connect 15 0 23 0;
#X connect 16 0 15 0;
#X connect 16 1 20 0;
#X connect 17 0 18 0;
#X connect 18 0 26 0;
#X connect 19 0 15 1;
#X connect 20 0 23 1;
#X connect 22 0 0 0;
#X connect 23 0 22 0;
#X connect 24 0 44 0;
#X connect 24 0 37 0;
#X connect 26 0 13 0;
#X connect 26 1 14 0;
#X connect 27 0 29 0;
#X connect 27 0 28 0;
#X connect 27 0 32 0;
#X connect 28 0 39 0;
#X connect 29 0 30 0;
#X connect 29 0 31 0;
#X connect 30 0 39 1;
#X connect 31 0 39 2;
#X connect 32 0 27 1;
#X connect 33 0 27 1;
#X connect 34 0 27 0;
#X connect 35 0 34 0;
#X connect 35 1 33 0;
#X connect 37 0 36 0;
#X connect 38 0 36 0;
#X connect 39 0 38 0;
#X connect 41 0 43 0;
#X connect 43 0 45 0;
#X connect 43 0 46 0;
#X connect 44 0 19 0;
#X connect 45 0 11 1;
#X connect 46 0 10 1;
#X coords 0 -1 1 1 200 35 2 100 100;
#X restore 50 331 pd outrc;
#X connect 0 0 1 0;
#X connect 0 0 2 0;
#X connect 6 0 2 0;
#X connect 6 0 4 0;
#X connect 6 0 1 0;
#X connect 7 0 6 0;
#X connect 7 1 6 1;
