#N canvas 339 106 1370 712 10;
#N canvas 328 77 1483 941 monomodes1 0;
#X obj 96 690 outlet~;
#X obj -212 240 inlet;
#X obj -42 223 inlet;
#X obj 105 134 hsl 110 10 10 10000 1 1 empty empty empty -2 -8 0 10
-262144 -1 -1 5200 1;
#X obj 102 118 nbx 5 14 -16 16 0 1 empty empty empty 0 -8 0 10 -262144
-1 -1 -4.9934 256;
#X obj 165 122 hsl 50 10 0 1 0 1 empty empty empty -2 -8 0 10 -262144
-1 -1 4600 1;
#X obj 225 134 hsl 110 10 10 10000 1 1 empty empty empty -2 -8 0 10
-262144 -1 -1 1800 1;
#X obj 222 118 nbx 5 14 -16 16 0 1 empty empty empty 0 -8 0 10 -262144
-1 -1 -1.9955 256;
#X obj 285 122 hsl 50 10 0 1 0 1 empty empty empty -2 -8 0 10 -262144
-1 -1 4857 1;
#X obj 345 135 hsl 110 10 10 10000 1 1 empty empty empty -2 -8 0 10
-262144 -1 -1 7000 1;
#X obj 342 119 nbx 5 14 -16 16 0 1 empty empty empty 0 -8 0 10 -262144
-1 -1 3.0007 256;
#X obj 405 123 hsl 50 10 0 1 0 1 empty empty empty -2 -8 0 10 -262144
-1 -1 4601 1;
#X obj 465 135 hsl 110 10 10 10000 1 1 empty empty empty -2 -8 0 10
-262144 -1 -1 4077 1;
#X obj 462 119 nbx 5 14 -16 16 0 1 empty empty empty 0 -8 0 10 -262144
-1 -1 -15.9968 256;
#X obj 525 122 hsl 50 10 0 1 0 1 empty empty empty -2 -8 0 10 -262144
-1 -1 4546 1;
#X obj 585 134 hsl 110 10 10 10000 1 1 empty empty empty -2 -8 0 10
-262144 -1 -1 3707 1;
#X obj 582 118 nbx 5 14 -16 16 0 1 empty empty empty 0 -8 0 10 -262144
-1 -1 12.0049 256;
#X obj 645 122 hsl 50 10 0 1 0 1 empty empty empty -2 -8 0 10 -262144
-1 -1 4862 1;
#X obj 312 105 bng 10 250 50 0 empty empty rnd_r 14 7 0 10 -260097
-1 -1;
#X obj 180 526 float;
#X obj 191 559 pack f f f f f f f f f f f f f f f;
#X obj 360 105 bng 10 250 50 0 empty empty rnd_l 14 7 0 10 -260097
-1 -1;
#X obj 762 -50 / 1000;
#X obj 765 -70 random 1000;
#X obj 769 6 / 1000;
#X obj 771 -16 random 1000;
#N canvas 1 83 844 677 monomode 0;
#N canvas 415 379 628 478 reaonbp 0;
#X obj 23 233 *;
#X obj -85 483 *~;
#X obj -142 87 log;
#X obj -147 142 *;
#X obj -150 116 t f f;
#X obj 85 157 pow -1;
#X obj 86 135 * -1;
#X obj 63 104 t f f;
#X obj 47 190 +;
#X obj 20 149 clip 0 16;
#X obj -211 198 *;
#X obj -165 257 *;
#X obj -139 229 float;
#X obj -214 173 t f f b;
#X obj -372 170 inlet~;
#X obj 92 54 inlet;
#X obj -67 518 outlet~;
#X obj -249 62 inlet;
#X text -246 45 level (0..1);
#X obj -107 37 inlet;
#X text 90 39 ratio;
#X text -121 19 res/decay (1..10000);
#X obj -320 98 inlet;
#X text -322 79 freq;
#X obj -63 433 vcf~ 1;
#X connect 0 0 24 1;
#X connect 1 0 16 0;
#X connect 2 0 4 0;
#X connect 3 0 12 0;
#X connect 4 0 3 0;
#X connect 4 1 3 1;
#X connect 5 0 8 1;
#X connect 6 0 5 0;
#X connect 7 0 9 0;
#X connect 7 1 6 0;
#X connect 8 0 0 1;
#X connect 9 0 8 0;
#X connect 10 0 11 0;
#X connect 11 0 1 1;
#X connect 12 0 11 1;
#X connect 13 0 10 0;
#X connect 13 1 10 1;
#X connect 13 2 12 0;
#X connect 14 0 24 0;
#X connect 15 0 7 0;
#X connect 17 0 13 0;
#X connect 19 0 2 0;
#X connect 19 0 24 2;
#X connect 22 0 0 0;
#X connect 24 0 1 0;
#X restore 151 393 pd reaonbp;
#X obj 204 589 outlet~;
#X obj 205 100 inlet;
#X obj 262 102 inlet;
#X text 204 81 pitch;
#X text 262 81 params;
#X obj 184 137 mtof;
#X obj 258 323 unpack f f f f f f f f f f f f f f f;
#N canvas 419 377 628 478 reaonbp 0;
#X obj 23 233 *;
#X obj -85 483 *~;
#X obj -142 87 log;
#X obj -147 142 *;
#X obj -150 116 t f f;
#X obj 85 157 pow -1;
#X obj 86 135 * -1;
#X obj 63 104 t f f;
#X obj 47 190 +;
#X obj 20 149 clip 0 16;
#X obj -211 198 *;
#X obj -165 257 *;
#X obj -139 229 float;
#X obj -214 173 t f f b;
#X obj -372 170 inlet~;
#X obj 92 54 inlet;
#X obj -67 518 outlet~;
#X obj -249 62 inlet;
#X text -246 45 level (0..1);
#X obj -107 37 inlet;
#X text 90 39 ratio;
#X text -121 19 res/decay (1..10000);
#X obj -320 98 inlet;
#X text -322 79 freq;
#X obj -63 433 vcf~ 1;
#X connect 0 0 24 1;
#X connect 1 0 16 0;
#X connect 2 0 4 0;
#X connect 3 0 12 0;
#X connect 4 0 3 0;
#X connect 4 1 3 1;
#X connect 5 0 8 1;
#X connect 6 0 5 0;
#X connect 7 0 9 0;
#X connect 7 1 6 0;
#X connect 8 0 0 1;
#X connect 9 0 8 0;
#X connect 10 0 11 0;
#X connect 11 0 1 1;
#X connect 12 0 11 1;
#X connect 13 0 10 0;
#X connect 13 1 10 1;
#X connect 13 2 12 0;
#X connect 14 0 24 0;
#X connect 15 0 7 0;
#X connect 17 0 13 0;
#X connect 19 0 2 0;
#X connect 19 0 24 2;
#X connect 22 0 0 0;
#X connect 24 0 1 0;
#X restore 184 428 pd reaonbp;
#N canvas 417 378 628 478 reaonbp 0;
#X obj 23 233 *;
#X obj -85 483 *~;
#X obj -142 87 log;
#X obj -147 142 *;
#X obj -150 116 t f f;
#X obj 85 157 pow -1;
#X obj 86 135 * -1;
#X obj 63 104 t f f;
#X obj 47 190 +;
#X obj 20 149 clip 0 16;
#X obj -211 198 *;
#X obj -165 257 *;
#X obj -139 229 float;
#X obj -214 173 t f f b;
#X obj -372 170 inlet~;
#X obj 92 54 inlet;
#X obj -67 518 outlet~;
#X obj -249 62 inlet;
#X text -246 45 level (0..1);
#X obj -107 37 inlet;
#X text 90 39 ratio;
#X text -121 19 res/decay (1..10000);
#X obj -320 98 inlet;
#X text -322 79 freq;
#X obj -63 433 vcf~ 1;
#X connect 0 0 24 1;
#X connect 1 0 16 0;
#X connect 2 0 4 0;
#X connect 3 0 12 0;
#X connect 4 0 3 0;
#X connect 4 1 3 1;
#X connect 5 0 8 1;
#X connect 6 0 5 0;
#X connect 7 0 9 0;
#X connect 7 1 6 0;
#X connect 8 0 0 1;
#X connect 9 0 8 0;
#X connect 10 0 11 0;
#X connect 11 0 1 1;
#X connect 12 0 11 1;
#X connect 13 0 10 0;
#X connect 13 1 10 1;
#X connect 13 2 12 0;
#X connect 14 0 24 0;
#X connect 15 0 7 0;
#X connect 17 0 13 0;
#X connect 19 0 2 0;
#X connect 19 0 24 2;
#X connect 22 0 0 0;
#X connect 24 0 1 0;
#X restore 218 464 pd reaonbp;
#N canvas 419 377 628 478 reaonbp 0;
#X obj 23 233 *;
#X obj -85 483 *~;
#X obj -142 87 log;
#X obj -147 142 *;
#X obj -150 116 t f f;
#X obj 85 157 pow -1;
#X obj 86 135 * -1;
#X obj 63 104 t f f;
#X obj 47 190 +;
#X obj 20 149 clip 0 16;
#X obj -211 198 *;
#X obj -165 257 *;
#X obj -139 229 float;
#X obj -214 173 t f f b;
#X obj -372 170 inlet~;
#X obj 92 54 inlet;
#X obj -67 518 outlet~;
#X obj -249 62 inlet;
#X text -246 45 level (0..1);
#X obj -107 37 inlet;
#X text 90 39 ratio;
#X text -121 19 res/decay (1..10000);
#X obj -320 98 inlet;
#X text -322 79 freq;
#X obj -63 433 vcf~ 1;
#X connect 0 0 24 1;
#X connect 1 0 16 0;
#X connect 2 0 4 0;
#X connect 3 0 12 0;
#X connect 4 0 3 0;
#X connect 4 1 3 1;
#X connect 5 0 8 1;
#X connect 6 0 5 0;
#X connect 7 0 9 0;
#X connect 7 1 6 0;
#X connect 8 0 0 1;
#X connect 9 0 8 0;
#X connect 10 0 11 0;
#X connect 11 0 1 1;
#X connect 12 0 11 1;
#X connect 13 0 10 0;
#X connect 13 1 10 1;
#X connect 13 2 12 0;
#X connect 14 0 24 0;
#X connect 15 0 7 0;
#X connect 17 0 13 0;
#X connect 19 0 2 0;
#X connect 19 0 24 2;
#X connect 22 0 0 0;
#X connect 24 0 1 0;
#X restore 251 499 pd reaonbp;
#N canvas 419 377 628 478 reaonbp 0;
#X obj 23 233 *;
#X obj -85 483 *~;
#X obj -142 87 log;
#X obj -147 142 *;
#X obj -150 116 t f f;
#X obj 85 157 pow -1;
#X obj 86 135 * -1;
#X obj 63 104 t f f;
#X obj 47 190 +;
#X obj 20 149 clip 0 16;
#X obj -211 198 *;
#X obj -165 257 *;
#X obj -139 229 float;
#X obj -214 173 t f f b;
#X obj -372 170 inlet~;
#X obj 92 54 inlet;
#X obj -67 518 outlet~;
#X obj -249 62 inlet;
#X text -246 45 level (0..1);
#X obj -107 37 inlet;
#X text 90 39 ratio;
#X text -121 19 res/decay (1..10000);
#X obj -320 98 inlet;
#X text -322 79 freq;
#X obj -63 433 vcf~ 1;
#X connect 0 0 24 1;
#X connect 1 0 16 0;
#X connect 2 0 4 0;
#X connect 3 0 12 0;
#X connect 4 0 3 0;
#X connect 4 1 3 1;
#X connect 5 0 8 1;
#X connect 6 0 5 0;
#X connect 7 0 9 0;
#X connect 7 1 6 0;
#X connect 8 0 0 1;
#X connect 9 0 8 0;
#X connect 10 0 11 0;
#X connect 11 0 1 1;
#X connect 12 0 11 1;
#X connect 13 0 10 0;
#X connect 13 1 10 1;
#X connect 13 2 12 0;
#X connect 14 0 24 0;
#X connect 15 0 7 0;
#X connect 17 0 13 0;
#X connect 19 0 2 0;
#X connect 19 0 24 2;
#X connect 22 0 0 0;
#X connect 24 0 1 0;
#X restore 280 531 pd reaonbp;
#X obj 99 121 inlet~;
#X text 92 92 impulse;
#X connect 0 0 1 0;
#X connect 2 0 6 0;
#X connect 3 0 7 0;
#X connect 6 0 0 1;
#X connect 6 0 8 1;
#X connect 6 0 9 1;
#X connect 6 0 10 1;
#X connect 6 0 11 1;
#X connect 7 0 0 2;
#X connect 7 1 0 3;
#X connect 7 2 0 4;
#X connect 7 3 8 2;
#X connect 7 4 8 3;
#X connect 7 5 8 4;
#X connect 7 6 9 2;
#X connect 7 7 9 3;
#X connect 7 8 9 4;
#X connect 7 9 10 2;
#X connect 7 10 10 3;
#X connect 7 11 10 4;
#X connect 7 12 11 2;
#X connect 7 13 11 3;
#X connect 7 14 11 4;
#X connect 8 0 1 0;
#X connect 9 0 1 0;
#X connect 10 0 1 0;
#X connect 11 0 1 0;
#X connect 12 0 0 0;
#X connect 12 0 8 0;
#X connect 12 0 9 0;
#X connect 12 0 10 0;
#X connect 12 0 11 0;
#X restore 97 635 pd monomode;
#X obj 779 54 / 1000;
#X obj 781 32 random 1000;
#X obj 783 101 / 1000;
#X obj 785 79 random 1000;
#X obj 793 149 / 1000;
#X obj 795 127 random 1000;
#X obj 153 488 delay 3;
#X obj 105 -341 random 32;
#X obj 113 -273 - 16;
#X msg 327 -392 32;
#X obj 345 -360 /;
#X obj 373 -390 pow -1;
#X obj 333 -421 t b f;
#X obj 150 -317 t f f;
#X obj 149 -294 * 0.5;
#X obj 114 -251 /;
#X obj 122 -228 +;
#X obj 112 -369 t b b;
#X obj 210 102 nbx 3 14 1 15 0 1 empty empty rat -20 7 0 10 -262144
-1 -1 1 256;
#X obj 271 102 nbx 3 14 0 99 0 1 empty empty fin -20 7 0 10 -262144
-1 -1 7 256;
#X obj 292 -309 * 10;
#X obj 174 -270 random;
#X obj -6 -275 random 32;
#X obj 2 -207 - 16;
#X obj 39 -251 t f f;
#X obj 38 -228 * 0.5;
#X obj 3 -185 /;
#X obj 11 -162 +;
#X obj 1 -303 t b b;
#X obj 63 -204 random;
#X obj 166 -242 / 10000;
#X obj 55 -176 / 10000;
#X obj -82 -190 random 32;
#X obj -74 -122 - 16;
#X obj -37 -166 t f f;
#X obj -38 -143 * 0.5;
#X obj -73 -100 /;
#X obj -65 -77 +;
#X obj -75 -218 t b b;
#X obj -13 -119 random;
#X obj -21 -91 / 10000;
#X obj -163 -104 random 32;
#X obj -155 -36 - 16;
#X obj -118 -80 t f f;
#X obj -119 -57 * 0.5;
#X obj -154 -14 /;
#X obj -146 9 +;
#X obj -156 -132 t b b;
#X obj -94 -33 random;
#X obj -102 -5 / 10000;
#X obj -239 -19 random 32;
#X obj -231 49 - 16;
#X obj -194 5 t f f;
#X obj -195 28 * 0.5;
#X obj -230 71 /;
#X obj -222 94 +;
#X obj -232 -47 t b b;
#X obj -170 52 random;
#X obj -178 80 / 10000;
#X text -82 -341 random ratios;
#X text 784 -88 random levels;
#X text -212 217 pitch;
#X obj 366 -12 inlet;
#X obj 434 -12 inlet;
#X text 530 -406 simple monophonic "modal synth" \, 7/2010 \, 5/2013
\, 2016 martin brinkmann;
#X obj 442 102 nbx 4 14 1 999 0 1 empty empty empty 0 -8 0 10 -262144
-1 -1 391 256;
#X obj -50 451 vline~;
#X obj 9 374 / 100;
#X obj -42 259 clip 0 127;
#X obj -47 286 / 128;
#X obj 36 413 noise~;
#X obj -48 494 *~;
#X obj -48 398 pack 1 f;
#X msg -47 426 \$1 \, 0 \$2;
#X obj 88 428 mtof;
#X obj 23 463 lop~;
#X obj 497 106 hsl 45 8 20 120 0 1 empty empty empty -2 -8 0 10 -262144
-1 -1 4400 1;
#X obj -190 307 moses 0.0001;
#X text -43 202 trigger/vel;
#X text 400 -38 randomize;
#X connect 1 0 104 0;
#X connect 2 0 95 0;
#X connect 3 0 20 1;
#X connect 3 0 33 0;
#X connect 4 0 20 2;
#X connect 4 0 33 0;
#X connect 5 0 19 1;
#X connect 5 0 33 0;
#X connect 6 0 20 4;
#X connect 6 0 33 0;
#X connect 7 0 20 5;
#X connect 7 0 33 0;
#X connect 8 0 20 3;
#X connect 8 0 33 0;
#X connect 9 0 20 7;
#X connect 9 0 33 0;
#X connect 10 0 20 8;
#X connect 10 0 33 0;
#X connect 11 0 20 6;
#X connect 11 0 33 0;
#X connect 12 0 20 10;
#X connect 12 0 33 0;
#X connect 13 0 20 11;
#X connect 13 0 33 0;
#X connect 14 0 20 9;
#X connect 14 0 33 0;
#X connect 15 0 20 13;
#X connect 15 0 33 0;
#X connect 16 0 20 14;
#X connect 16 0 33 0;
#X connect 17 0 20 12;
#X connect 17 0 33 0;
#X connect 18 0 44 0;
#X connect 18 0 55 0;
#X connect 18 0 65 0;
#X connect 18 0 74 0;
#X connect 18 0 83 0;
#X connect 19 0 20 0;
#X connect 20 0 26 2;
#X connect 21 0 23 0;
#X connect 21 0 25 0;
#X connect 21 0 28 0;
#X connect 21 0 30 0;
#X connect 21 0 32 0;
#X connect 22 0 5 0;
#X connect 23 0 22 0;
#X connect 24 0 8 0;
#X connect 25 0 24 0;
#X connect 26 0 0 0;
#X connect 27 0 11 0;
#X connect 28 0 27 0;
#X connect 29 0 14 0;
#X connect 30 0 29 0;
#X connect 31 0 17 0;
#X connect 32 0 31 0;
#X connect 33 0 19 0;
#X connect 34 0 35 0;
#X connect 35 0 42 0;
#X connect 36 0 37 0;
#X connect 37 0 40 0;
#X connect 37 0 51 0;
#X connect 37 0 61 0;
#X connect 37 0 70 0;
#X connect 37 0 79 0;
#X connect 38 0 37 1;
#X connect 39 0 36 0;
#X connect 39 1 38 0;
#X connect 40 0 41 0;
#X connect 40 1 34 1;
#X connect 41 0 35 1;
#X connect 42 0 43 0;
#X connect 43 0 4 0;
#X connect 44 0 34 0;
#X connect 44 1 48 0;
#X connect 45 0 39 0;
#X connect 45 0 42 1;
#X connect 45 0 53 1;
#X connect 45 0 63 1;
#X connect 45 0 72 1;
#X connect 45 0 81 1;
#X connect 46 0 47 0;
#X connect 47 0 48 1;
#X connect 47 0 56 1;
#X connect 47 0 66 1;
#X connect 47 0 75 1;
#X connect 47 0 84 1;
#X connect 48 0 57 0;
#X connect 49 0 50 0;
#X connect 50 0 53 0;
#X connect 51 0 52 0;
#X connect 51 1 49 1;
#X connect 52 0 50 1;
#X connect 53 0 54 0;
#X connect 54 0 7 0;
#X connect 55 0 49 0;
#X connect 55 1 56 0;
#X connect 56 0 58 0;
#X connect 57 0 43 1;
#X connect 58 0 54 1;
#X connect 59 0 60 0;
#X connect 60 0 63 0;
#X connect 61 0 62 0;
#X connect 61 1 59 1;
#X connect 62 0 60 1;
#X connect 63 0 64 0;
#X connect 64 0 10 0;
#X connect 65 0 59 0;
#X connect 65 1 66 0;
#X connect 66 0 67 0;
#X connect 67 0 64 1;
#X connect 68 0 69 0;
#X connect 69 0 72 0;
#X connect 70 0 71 0;
#X connect 70 1 68 1;
#X connect 71 0 69 1;
#X connect 72 0 73 0;
#X connect 73 0 13 0;
#X connect 74 0 68 0;
#X connect 74 1 75 0;
#X connect 75 0 76 0;
#X connect 76 0 73 1;
#X connect 77 0 78 0;
#X connect 78 0 81 0;
#X connect 79 0 80 0;
#X connect 79 1 77 1;
#X connect 80 0 78 1;
#X connect 81 0 82 0;
#X connect 82 0 16 0;
#X connect 83 0 77 0;
#X connect 83 1 84 0;
#X connect 84 0 85 0;
#X connect 85 0 82 1;
#X connect 89 0 18 0;
#X connect 90 0 21 0;
#X connect 92 0 94 0;
#X connect 93 0 98 0;
#X connect 94 0 99 1;
#X connect 95 0 96 0;
#X connect 96 0 99 0;
#X connect 97 0 102 0;
#X connect 98 0 26 0;
#X connect 99 0 100 0;
#X connect 100 0 93 0;
#X connect 101 0 102 1;
#X connect 102 0 98 1;
#X connect 103 0 101 0;
#X connect 104 1 26 1;
#X coords 0 -1 1 1 600 45 1 100 100;
#X restore 173 151 pd monomodes1;
#N canvas 450 224 839 714 resonator1 0;
#X obj -150 219 inlet~;
#X obj 249 576 outlet~;
#X obj 105 122 hsl 96 8 0 100 0 1 empty empty feedback 0 4 0 8 -262144
-1 -128992 5510 1;
#X obj 105 113 hsl 96 8 0 100 0 1 empty empty damp 0 4 0 8 -262144
-1 -128992 9310 1;
#X obj 200 421 mtof;
#X obj 315 376 mtof;
#X msg 266 371 1000;
#X obj 287 411 /;
#X obj 302 74 inlet;
#X obj 206 102 tgl 12 1 empty empty md 2 6 0 8 -262144 -1 -128992 2
2;
#X obj 224 261 - 1;
#X obj 192 332 *;
#X obj 160 290 float;
#X obj 176 209 t b f;
#X obj 355 157 - 63;
#X obj 356 180 / 64;
#X obj 283 230 t b f;
#X obj 302 445 +;
#X obj 357 202 - 1;
#X obj 356 225 abs;
#X obj 321 344 float;
#X obj 341 302 t b b f;
#X obj 353 254 *;
#X obj 347 277 * -0.2;
#X obj 231 494 abs_rezdelayline1;
#X text -47 13 resonator;
#X obj 240 534 hip~ 20;
#X msg 87 161 set \$1;
#X obj 33 187 abs_rndwalkrnd1 100;
#X obj 34 230 / 100;
#X obj 505 -11 inlet;
#X text 302 51 pitch;
#X text 504 -32 random;
#X obj 483 15 / 128;
#X obj 35 252 t f f;
#X obj 33 277 *;
#X obj 42 296 * 52;
#X obj 43 319 + 75;
#X text -153 190 impulse in;
#X msg 53 59 set \$1;
#X obj -38 105 abs_rndwalkrnd1 100;
#X obj -37 148 / 100;
#X obj -36 170 t f f;
#X obj -38 195 *;
#X obj -36 221 * 0.3999;
#X obj -35 244 + 0.6;
#X connect 0 0 24 0;
#X connect 2 0 40 1;
#X connect 3 0 28 1;
#X connect 4 0 24 3;
#X connect 5 0 7 1;
#X connect 6 0 7 0;
#X connect 7 0 17 0;
#X connect 8 0 16 0;
#X connect 9 0 13 0;
#X connect 10 0 11 1;
#X connect 11 0 24 1;
#X connect 12 0 11 0;
#X connect 13 0 12 0;
#X connect 13 1 10 0;
#X connect 14 0 15 0;
#X connect 15 0 18 0;
#X connect 16 0 6 0;
#X connect 16 1 20 0;
#X connect 17 0 24 2;
#X connect 18 0 19 0;
#X connect 19 0 22 1;
#X connect 19 0 22 0;
#X connect 20 0 5 0;
#X connect 21 0 6 0;
#X connect 21 1 20 0;
#X connect 21 2 17 1;
#X connect 22 0 23 0;
#X connect 23 0 21 0;
#X connect 24 0 26 0;
#X connect 26 0 1 0;
#X connect 27 0 3 0;
#X connect 28 0 27 0;
#X connect 28 0 29 0;
#X connect 29 0 34 0;
#X connect 30 0 33 0;
#X connect 33 0 28 0;
#X connect 33 0 40 0;
#X connect 34 0 35 0;
#X connect 34 1 35 1;
#X connect 35 0 36 0;
#X connect 36 0 37 0;
#X connect 37 0 14 0;
#X connect 37 0 4 0;
#X connect 39 0 2 0;
#X connect 40 0 39 0;
#X connect 40 0 41 0;
#X connect 41 0 42 0;
#X connect 42 0 43 0;
#X connect 42 1 43 1;
#X connect 43 0 44 0;
#X connect 44 0 45 0;
#X connect 45 0 12 0;
#X coords 0 -1 1 1 120 30 1 100 100;
#X restore 38 148 pd resonator1;
#N canvas 550 436 450 300 click 0;
#X obj 38 4 inlet;
#X obj 26 263 outlet~;
#X obj 103 114 nbx 4 14 1 999 0 1 empty empty empty 0 -8 0 10 -262144
-1 -1 22 256;
#X obj 30 225 vline~;
#X msg 33 200 \$1 0 \, \$2 0 \, 0 \$3;
#X obj 32 172 pack -1 1 f;
#X obj 102 141 / 100;
#X obj 27 92 t f f;
#X obj 34 127 * -1;
#X obj 38 33 clip 0 127;
#X obj 33 60 / 128;
#X connect 0 0 9 0;
#X connect 2 0 6 0;
#X connect 3 0 1 0;
#X connect 4 0 3 0;
#X connect 5 0 4 0;
#X connect 6 0 5 2;
#X connect 7 0 8 0;
#X connect 7 1 5 1;
#X connect 8 0 5 0;
#X connect 9 0 10 0;
#X connect 10 0 7 0;
#X coords 0 -1 1 1 50 30 1 100 100;
#X restore 39 62 pd click;
#N canvas 762 95 982 851 fm3op 0;
#X obj -2 44 inlet;
#X obj 397 26 inlet;
#X obj 358 919 outlet~;
#X obj -2 70 mtof;
#X obj 314 811 osc~;
#X obj 757 370 dbtorms;
#X obj 414 122 moses 0.01;
#X obj 350 872 *~;
#X obj 307 785 +~;
#X obj 246 648 osc~;
#X obj 226 572 *;
#X obj 242 550 + 1;
#X obj 333 721 *~;
#X obj 762 305 / 10;
#X obj 762 334 + 135;
#X obj 383 711 + 500;
#X obj 322 641 *~;
#X obj 327 587 vline~;
#X obj 437 328 / 2;
#X obj 442 377 + 1;
#X obj 437 352 * 10;
#X obj 583 370 + 5;
#X obj 435 304 dbtorms;
#X obj 435 250 / 10;
#X obj 436 276 + 105;
#X obj 235 619 +~;
#X obj 7 445 osc~;
#X obj 56 549 *~;
#X obj 229 451 + 500;
#X obj -13 331 *;
#X obj 30 310 + 1;
#X obj 82 517 *~;
#X obj 86 483 vline~;
#X obj 146 302 / 2;
#X obj 141 349 + 1;
#X obj 142 326 * 10;
#X obj 159 273 dbtorms;
#X obj 180 223 / 10;
#X obj 173 248 + 100;
#X obj 794 28 inlet;
#X obj 396 50 / 128;
#X obj 51 278 / 2;
#X obj 138 570 *~;
#X obj 243 528 / 2;
#X obj 328 763 *~;
#X obj 164 530 *;
#X obj 366 733 *;
#X obj 480 665 vline~;
#X obj 444 818 *~;
#X obj 787 62 / 128;
#X obj 105 136 hsl 80 8 0 2000 0 1 empty empty amt1 0 4 0 10 -262144
-1 -128992 2402 0;
#X obj 194 136 hsl 80 8 0 3000 0 1 empty empty amt2 0 4 0 10 -262144
-1 -128992 5841 0;
#X obj 636 291 abs_rndwalkrnd1 20;
#X obj 105 150 hsl 80 8 0 20 0 1 empty empty att 0 4 0 10 -262144 -1
-128992 3555 0;
#X obj 194 150 hsl 80 8 0 200 0 1 empty empty dec 0 4 0 10 -262144
-1 -128992 5056 0;
#X msg 844 198 set \$1;
#X msg 671 250 set \$1;
#X msg 470 469 set \$1;
#X msg 314 371 set \$1;
#X obj 194 113 hsl 80 8 0 16 0 1 empty empty rat2 0 4 0 10 -262144
-1 -128992 6419 0;
#X msg 272 476 set \$1;
#X obj 319 443 int;
#X obj 194 125 hsl 80 8 0 300 0 1 empty empty dec2 0 4 0 10 -262144
-1 -128992 5135 0;
#X msg 547 146 set \$1;
#X obj 105 125 hsl 80 8 0 100 0 1 empty empty dec1 0 4 0 10 -262144
-1 -128992 3400 0;
#X msg 318 132 set \$1;
#X obj 105 114 hsl 80 8 0 16 0 1 empty empty rat1 0 4 0 10 -262144
-1 -128992 4444 0;
#X msg 56 181 set \$1;
#X obj 106 196 int;
#X obj 746 249 abs_rndwalkrnd1 200;
#X obj 226 506 abs_rndwalkrnd1 16;
#X obj 487 187 abs_rndwalkrnd1 300;
#X obj 188 198 abs_rndwalkrnd1 100;
#X obj 15 248 abs_rndwalkrnd1 16;
#X msg 85 456 \$1 \$2 \, 0 \$3 \$2;
#X msg 378 485 \$1 \$2 \, 0 \$3 \$2;
#X obj 232 413 abs_rndwalkrnd1 2000;
#X obj 412 524 abs_rndwalkrnd1 3000;
#X obj 89 421 pack f 5 f;
#X obj 384 451 pack f 5 f;
#X obj 492 577 pack f f f f;
#X msg 485 616 \$1 \$2 \, 0 \$3 \$4;
#X obj 496 11 inlet;
#X obj 497 38 / 128;
#X text 52 48 pitch;
#X text 497 -5 notelen;
#X obj 597 451 +;
#X obj 605 398 t b f;
#X obj 278 109 vradio 10 1 1 5 empty empty l 2 6 0 10 -262144 -1 -128992
1;
#X obj 542 358 + 1;
#X obj 552 382 *;
#X obj 566 414 *;
#X obj 586 60 pow -1;
#X obj 587 83 * 60000;
#X obj 584 0 r \$0globalbpm1;
#X obj 682 0 inlet;
#X text 726 2 bpm;
#X obj 546 328 t b f;
#X text 800 9 random;
#X obj 106 218 pipe 100;
#X obj 319 474 pipe 100;
#X text 394 7 trigger;
#X connect 0 0 3 0;
#X connect 1 0 40 0;
#X connect 3 0 8 0;
#X connect 3 0 10 0;
#X connect 3 0 29 0;
#X connect 4 0 7 0;
#X connect 5 0 80 2;
#X connect 6 1 45 0;
#X connect 6 1 46 0;
#X connect 6 1 78 0;
#X connect 6 1 79 0;
#X connect 6 1 80 0;
#X connect 7 0 2 0;
#X connect 8 0 4 0;
#X connect 9 0 12 0;
#X connect 10 0 25 1;
#X connect 11 0 10 1;
#X connect 12 0 44 0;
#X connect 13 0 14 0;
#X connect 14 0 5 0;
#X connect 15 0 46 1;
#X connect 16 0 12 1;
#X connect 17 0 16 1;
#X connect 17 0 16 0;
#X connect 18 0 20 0;
#X connect 19 0 79 2;
#X connect 20 0 19 0;
#X connect 21 0 80 1;
#X connect 21 0 87 0;
#X connect 22 0 18 0;
#X connect 23 0 24 0;
#X connect 24 0 22 0;
#X connect 25 0 9 0;
#X connect 26 0 27 0;
#X connect 27 0 42 0;
#X connect 28 0 45 1;
#X connect 29 0 26 0;
#X connect 30 0 29 1;
#X connect 31 0 27 1;
#X connect 32 0 31 1;
#X connect 32 0 31 0;
#X connect 33 0 35 0;
#X connect 34 0 78 2;
#X connect 35 0 34 0;
#X connect 36 0 33 0;
#X connect 37 0 38 0;
#X connect 38 0 36 0;
#X connect 39 0 49 0;
#X connect 40 0 6 0;
#X connect 41 0 30 0;
#X connect 42 0 25 0;
#X connect 43 0 11 0;
#X connect 44 0 8 1;
#X connect 45 0 42 1;
#X connect 46 0 44 1;
#X connect 47 0 48 1;
#X connect 47 0 48 0;
#X connect 48 0 7 1;
#X connect 49 0 52 0;
#X connect 49 0 69 0;
#X connect 49 0 70 0;
#X connect 49 0 71 0;
#X connect 49 0 72 0;
#X connect 49 0 73 0;
#X connect 49 0 76 0;
#X connect 49 0 77 0;
#X connect 50 0 76 1;
#X connect 51 0 77 1;
#X connect 52 0 21 0;
#X connect 52 0 56 0;
#X connect 53 0 52 1;
#X connect 54 0 69 1;
#X connect 55 0 54 0;
#X connect 56 0 53 0;
#X connect 57 0 51 0;
#X connect 58 0 50 0;
#X connect 59 0 61 0;
#X connect 59 0 70 1;
#X connect 60 0 59 0;
#X connect 61 0 100 0;
#X connect 62 0 71 1;
#X connect 63 0 62 0;
#X connect 64 0 72 1;
#X connect 65 0 64 0;
#X connect 66 0 68 0;
#X connect 66 0 73 1;
#X connect 67 0 66 0;
#X connect 68 0 99 0;
#X connect 69 0 13 0;
#X connect 69 0 55 0;
#X connect 70 0 43 0;
#X connect 70 0 60 0;
#X connect 71 0 63 0;
#X connect 71 0 23 0;
#X connect 72 0 65 0;
#X connect 72 0 37 0;
#X connect 73 0 67 0;
#X connect 73 0 41 0;
#X connect 74 0 32 0;
#X connect 75 0 17 0;
#X connect 76 0 28 0;
#X connect 76 0 58 0;
#X connect 77 0 15 0;
#X connect 77 0 57 0;
#X connect 78 0 74 0;
#X connect 79 0 75 0;
#X connect 80 0 81 0;
#X connect 81 0 47 0;
#X connect 82 0 83 0;
#X connect 83 0 97 0;
#X connect 86 0 80 3;
#X connect 87 0 86 0;
#X connect 87 1 86 1;
#X connect 88 0 89 0;
#X connect 89 0 90 0;
#X connect 90 0 91 0;
#X connect 91 0 86 0;
#X connect 92 0 93 0;
#X connect 93 0 91 1;
#X connect 94 0 92 0;
#X connect 95 0 92 0;
#X connect 97 0 90 0;
#X connect 97 1 90 1;
#X connect 99 0 73 1;
#X connect 100 0 70 1;
#X coords 0 -1 1 1 190 60 1 100 100;
#X restore 141 227 pd fm3op;
#N canvas 904 99 945 894 subtractive1 0;
#X obj -59 158 clip 0 1;
#X obj -137 334 * 12;
#X obj -171 364 +;
#X obj 6 731 *~;
#X obj -156 186 inlet;
#X text -152 162 pitch;
#X obj -23 97 inlet;
#X obj 5 762 outlet~;
#X obj 647 -55 inlet;
#X obj 76 284 +;
#X obj 97 248 t b f;
#N canvas 1 78 704 786 doublesaw 0;
#X obj 18 30 inlet;
#X obj 58 123 mtof;
#X obj 59 159 phasor~;
#X obj 70 268 wrap~;
#X text 62 30 <-pitch;
#X text 279 27 <-sync;
#X obj 155 654 outlet~;
#X obj 144 361 hip~ 5;
#X obj 206 152 phasor~;
#X obj 213 264 wrap~;
#X obj 212 97 -;
#X obj 208 117 mtof;
#X obj 58 93 +;
#X obj 228 238 +~;
#X obj 324 292 - 1;
#X obj 324 246 == 0;
#X obj 329 273 * 2;
#X obj 197 321 *~ 1;
#X obj 227 28 inlet;
#X obj 318 173 inlet;
#X obj 369 23 inlet;
#X obj 144 525 *~ 0.125;
#X obj 144 548 rzero~ -1;
#X obj 144 571 rzero~ -1;
#X obj 144 594 rzero~ -1;
#X obj 143 399 *~ 0.2368;
#X obj 144 445 *~ 0.06261;
#X obj 143 422 rpole~ 0.76319;
#X obj 143 468 cpole~ 0.85223 0.20194;
#X obj 142 496 cpole~ 0.85223 -0.2019;
#X obj 392 67 block~ 64 1 8;
#X text 265 439 from pd docs modified for 8 times oversampling;
#X text 308 98 8 times oversampled \, i hope the pitch is right...
;
#X connect 0 0 12 0;
#X connect 0 0 10 0;
#X connect 1 0 2 0;
#X connect 2 0 3 0;
#X connect 3 0 7 0;
#X connect 7 0 25 0;
#X connect 8 0 13 0;
#X connect 9 0 17 0;
#X connect 10 0 11 0;
#X connect 11 0 8 0;
#X connect 12 0 1 0;
#X connect 13 0 9 0;
#X connect 14 0 17 1;
#X connect 15 0 16 0;
#X connect 16 0 14 0;
#X connect 17 0 7 0;
#X connect 18 0 2 1;
#X connect 18 0 8 1;
#X connect 19 0 13 1;
#X connect 19 0 15 0;
#X connect 20 0 10 1;
#X connect 20 0 12 1;
#X connect 21 0 22 0;
#X connect 22 0 23 0;
#X connect 23 0 24 0;
#X connect 24 0 6 0;
#X connect 25 0 27 0;
#X connect 26 0 28 0;
#X connect 27 0 26 0;
#X connect 28 0 29 0;
#X connect 28 1 29 1;
#X connect 29 0 21 0;
#X restore -92 495 pd doublesaw;
#X obj -1 587 clip~ 20 20000;
#N canvas 715 79 1076 1000 lopass2p2z 0;
#X obj -50 465 inlet~;
#X obj 129 919 outlet~;
#X obj 73 85 inlet~;
#X obj 87 200 sig~ 1;
#X obj 121 249 /~;
#X obj 219 59 samplerate~;
#X obj 110 376 sig~ 1;
#X obj 147 408 /~;
#X obj 214 340 +~;
#X obj 187 310 sig~ 1;
#X obj 251 318 *~;
#X obj 181 375 +~;
#X obj 112 295 *~;
#X text 41 361 a1/a3;
#X obj 222 407 sig~ 1;
#X obj 296 433 -~;
#X obj 299 457 *~ 2;
#X obj 286 506 *~;
#X obj 409 334 *~;
#X text 276 435 b1;
#X text 384 379 b2;
#X obj 361 397 sig~ 1;
#X obj 392 429 -~;
#X obj 377 512 *~;
#X text 99 246 c;
#X obj 397 462 +~;
#X obj 147 222 expr~ tan($v1);
#X obj 151 194 /~ 44100;
#X obj 129 153 *~ 3.14159;
#X text 408 73 resonance 0..1;
#X text 124 86 cutoff (hz);
#X text 420 186 a2= 2*a1 \, a3=a1;
#X text 420 150 c= 1/tan(pi*cutf/samplerate);
#X text 422 168 a1= 1/(1+res*c+c*c);
#X text 421 204 b1= 2*(1-c*c)*a1;
#X text 421 220 b2= (1-res*c+c*c)*a1;
#X obj 33 690 czero~;
#X obj 59 727 czero~;
#X obj 73 646 sig~ -1;
#X obj 90 670 sig~ 0;
#X obj 90 841 cpole~;
#X obj 129 888 cpole~;
#X obj 296 199 *~ 1.41421;
#X obj 307 148 -~;
#X obj 353 72 inlet~;
#X obj 279 94 sig~ 1;
#X text 28 627 zeros at fixed pos;
#X obj 178 840 *~ -1;
#X obj 184 805 expr~ sqrt($v1);
#X obj -44 595 *~;
#X obj 128 704 *~ -0.5;
#X text 219 845 2nd pole = 1st mirrored on the x axis;
#X text 183 704 b1/2 (x pos);
#X text 267 11 cookbook-like? (i cant remember where i got this from)
lp-filter;
#X obj 163 748 *~;
#X obj 183 781 -~;
#X text 217 666 pole position from coeffs:;
#X text 218 683 p=-b1/2+j*sqrt(b2-(b1/2)^2) (found somewhere on the
net...);
#X connect 0 0 49 0;
#X connect 2 0 28 0;
#X connect 3 0 4 0;
#X connect 4 0 10 0;
#X connect 4 0 12 0;
#X connect 4 0 12 1;
#X connect 4 0 18 0;
#X connect 5 0 27 1;
#X connect 6 0 7 0;
#X connect 7 0 17 1;
#X connect 7 0 23 0;
#X connect 7 0 49 1;
#X connect 8 0 11 1;
#X connect 9 0 8 0;
#X connect 10 0 8 1;
#X connect 11 0 7 1;
#X connect 12 0 11 0;
#X connect 12 0 15 1;
#X connect 12 0 25 1;
#X connect 14 0 15 0;
#X connect 15 0 16 0;
#X connect 16 0 17 0;
#X connect 17 0 50 0;
#X connect 18 0 22 1;
#X connect 21 0 22 0;
#X connect 22 0 25 0;
#X connect 23 0 55 0;
#X connect 25 0 23 1;
#X connect 26 0 4 1;
#X connect 27 0 26 0;
#X connect 28 0 27 0;
#X connect 36 0 37 0;
#X connect 36 1 37 1;
#X connect 37 0 40 0;
#X connect 37 1 40 1;
#X connect 38 0 36 2;
#X connect 38 0 37 2;
#X connect 39 0 37 3;
#X connect 39 0 36 3;
#X connect 40 0 41 0;
#X connect 40 1 41 1;
#X connect 41 0 1 0;
#X connect 42 0 10 1;
#X connect 42 0 18 1;
#X connect 43 0 42 0;
#X connect 44 0 43 1;
#X connect 45 0 43 0;
#X connect 47 0 41 3;
#X connect 48 0 40 3;
#X connect 48 0 47 0;
#X connect 49 0 36 0;
#X connect 50 0 40 2;
#X connect 50 0 41 2;
#X connect 50 0 54 0;
#X connect 50 0 54 1;
#X connect 54 0 55 1;
#X connect 55 0 48 0;
#X restore -85 630 pd lopass2p2z;
#X obj -97 261 moses 0.0001;
#X obj -136 312 - 2;
#X obj 52 552 mtof~;
#X obj 42 513 +~;
#X obj 532 483 lop~ 600;
#X obj 682 321 dbtorms;
#X obj 752 202 / 10;
#X obj 752 231 + 135;
#X obj 744 21 inlet;
#X obj 560 431 vline~;
#X obj 676 53 / 128;
#X obj 610 175 abs_rndwalkrnd1 20;
#X msg 853 125 set \$1;
#X msg 645 134 set \$1;
#X obj 755 176 abs_rndwalkrnd1 200;
#X obj 534 458 *~;
#X obj -6 122 / 128;
#X msg 577 397 \$1 \$2 \, 0 \$3 \$4;
#X obj 574 369 pack f f f f;
#X obj 648 -30 clip -64 64;
#X obj 648 -8 * 0.5;
#X text 691 -56 cutoff-mod -64..64;
#X text -122 11 simple 303ish 1-osc synth;
#X text 742 2 random;
#X obj 243 14 inlet;
#X obj 244 41 / 128;
#X text 244 -2 notelen;
#X obj 614 328 +;
#X obj 619 303 t b f;
#X obj 278 102 vradio 10 1 1 5 empty empty l 2 6 0 10 -262144 -1 -128992
0;
#X obj 462 220 + 1;
#X obj 489 249 *;
#X obj 562 289 *;
#X obj 333 63 pow -1;
#X obj 334 86 * 60000;
#X obj 331 3 r \$0globalbpm1;
#X obj 429 3 inlet;
#X text 473 5 bpm;
#X obj 483 195 t b f;
#X obj 610 202 + 2;
#X obj 214 505 *~;
#X obj 193 124 hsl 80 8 0 200 0 1 empty empty dec 0 4 0 10 -262144
-1 -128992 3239 0;
#X obj 193 114 hsl 80 8 1 20 0 1 empty empty att 0 4 0 10 -262144 -1
-128992 416 0;
#X obj 105 134 hsl 80 8 0 256 0 1 empty empty cut 0 4 0 10 -262144
-1 -128992 1420 0;
#X msg 310 303 set \$1;
#X obj 253 355 / 3;
#X obj 256 329 abs_rndwalkrnd1 252;
#X obj 253 384 - 24;
#X obj 193 136 hsl 80 8 0 120 0 1 empty empty env 0 4 0 10 -262144
-1 -128992 2041 0;
#X msg 473 377 set \$1;
#X obj 409 407 abs_rndwalkrnd1 120;
#X obj 105 144 hsl 80 8 0 900 0 1 empty empty res 0 4 0 10 -262144
-1 -128992 6768 0;
#X msg 369 355 set \$1;
#X obj 305 378 abs_rndwalkrnd1 900;
#X obj 297 406 / 1000;
#X obj 245 102 hradio 10 1 1 3 empty empty okt 2 5 0 10 -262144 -1
-128992 1;
#X obj 105 113 hsl 80 8 0 100 0 1 empty empty det 0 4 0 10 -262144
-1 -128992 4266 0;
#X obj 105 123 hsl 80 8 0 1000 0 1 empty empty phs 0 4 0 10 -262144
-1 -128992 3824 0;
#X msg 195 279 set \$1;
#X obj 141 305 abs_rndwalkrnd1 100;
#X obj 135 338 / 100;
#X obj 132 393 *;
#X obj 132 365 t f f;
#X obj 98 469 * 0.5;
#X obj 123 441 *;
#X obj 132 417 t f f;
#X msg 63 196 set \$1;
#X obj -1 219 abs_rndwalkrnd1 1000;
#X obj -1 241 / 500;
#X obj -2 281 clip 0 0.5;
#X text -25 79 trigger;
#X connect 0 0 14 0;
#X connect 1 0 2 1;
#X connect 2 0 11 0;
#X connect 3 0 7 0;
#X connect 4 0 2 0;
#X connect 4 0 17 1;
#X connect 6 0 0 0;
#X connect 6 0 30 0;
#X connect 8 0 33 0;
#X connect 9 0 17 0;
#X connect 10 0 9 0;
#X connect 10 1 9 1;
#X connect 11 0 13 0;
#X connect 12 0 13 1;
#X connect 13 0 3 0;
#X connect 14 1 11 1;
#X connect 15 0 1 0;
#X connect 16 0 12 0;
#X connect 17 0 16 0;
#X connect 18 0 3 1;
#X connect 18 0 54 0;
#X connect 19 0 32 2;
#X connect 20 0 21 0;
#X connect 21 0 19 0;
#X connect 22 0 24 0;
#X connect 23 0 29 1;
#X connect 23 0 29 0;
#X connect 24 0 25 0;
#X connect 24 0 28 0;
#X connect 24 0 60 0;
#X connect 24 0 64 0;
#X connect 24 0 67 0;
#X connect 24 0 73 0;
#X connect 24 0 81 0;
#X connect 25 0 27 0;
#X connect 25 0 53 0;
#X connect 26 0 55 0;
#X connect 27 0 56 0;
#X connect 28 0 20 0;
#X connect 28 0 26 0;
#X connect 29 0 18 0;
#X connect 30 0 32 0;
#X connect 31 0 23 0;
#X connect 32 0 31 0;
#X connect 33 0 34 0;
#X connect 34 0 9 0;
#X connect 38 0 39 0;
#X connect 39 0 52 0;
#X connect 41 0 32 3;
#X connect 42 0 41 0;
#X connect 42 1 41 1;
#X connect 43 0 44 0;
#X connect 44 0 45 0;
#X connect 45 0 46 0;
#X connect 46 0 41 0;
#X connect 47 0 48 0;
#X connect 48 0 46 1;
#X connect 49 0 47 0;
#X connect 50 0 47 0;
#X connect 52 0 45 0;
#X connect 52 1 45 1;
#X connect 53 0 32 1;
#X connect 53 0 42 0;
#X connect 54 0 16 0;
#X connect 55 0 28 1;
#X connect 56 0 25 1;
#X connect 57 0 60 1;
#X connect 58 0 57 0;
#X connect 59 0 61 0;
#X connect 60 0 58 0;
#X connect 60 0 59 0;
#X connect 61 0 10 0;
#X connect 62 0 64 1;
#X connect 63 0 62 0;
#X connect 64 0 63 0;
#X connect 64 0 54 1;
#X connect 65 0 67 1;
#X connect 66 0 65 0;
#X connect 67 0 66 0;
#X connect 67 0 68 0;
#X connect 68 0 13 2;
#X connect 69 0 15 0;
#X connect 70 0 73 1;
#X connect 71 0 81 1;
#X connect 72 0 70 0;
#X connect 73 0 72 0;
#X connect 73 0 74 0;
#X connect 74 0 76 0;
#X connect 75 0 79 0;
#X connect 76 0 75 0;
#X connect 76 1 75 1;
#X connect 77 0 11 3;
#X connect 78 0 77 0;
#X connect 79 0 78 0;
#X connect 79 1 78 1;
#X connect 80 0 71 0;
#X connect 81 0 80 0;
#X connect 81 0 82 0;
#X connect 82 0 83 0;
#X connect 83 0 11 2;
#X coords 0 -1 1 1 190 55 1 100 100;
#X restore 343 229 pd subtractive1;
#N canvas 542 432 450 300 nsecl 0;
#X obj 38 4 inlet;
#X obj 31 304 outlet~;
#X obj 103 114 nbx 4 14 1 999 0 1 empty empty empty 0 -8 0 10 -262144
-1 -1 170 256;
#X obj 30 225 vline~;
#X obj 89 148 / 100;
#X obj 38 33 clip 0 127;
#X obj 33 60 / 128;
#X obj 114 198 noise~;
#X obj 32 268 *~;
#X obj 32 172 pack 1 f;
#X msg 33 200 \$1 \, 0 \$2;
#X obj 161 187 mtof;
#X obj 103 237 lop~;
#X obj 103 131 hsl 45 8 20 120 0 1 empty empty cut -2 4 0 10 -262144
-1 -128992 3400 1;
#X connect 0 0 5 0;
#X connect 2 0 4 0;
#X connect 3 0 8 0;
#X connect 4 0 9 1;
#X connect 5 0 6 0;
#X connect 6 0 9 0;
#X connect 7 0 12 0;
#X connect 8 0 1 0;
#X connect 9 0 10 0;
#X connect 10 0 3 0;
#X connect 11 0 12 1;
#X connect 12 0 8 1;
#X connect 13 0 11 0;
#X coords 0 -1 1 1 50 40 1 100 100;
#X restore 100 60 pd nsecl;
#N canvas 33 127 1572 944 bass_synth 0;
#X obj -84 -66 inlet;
#X obj 21 202 mtof;
#X obj 260 662 *~;
#X obj 270 695 outlet~;
#X obj 3 259 phasor~;
#X obj -55 359 hip~ 10;
#X obj -103 266 phasor~;
#X obj -109 222 mtof;
#X obj 16 125 + 0.05;
#X obj -103 127 - 0.05;
#X obj -41 132 mtof;
#X obj -64 220 osc~;
#X obj 12 506 +~;
#X obj 154 397 mtof;
#X obj 495 222 dbtorms;
#X obj 565 103 / 10;
#X obj 565 132 + 135;
#X obj 498 -76 inlet;
#X obj 373 332 vline~;
#X obj 489 -46 / 128;
#X obj 423 76 abs_rndwalkrnd1 20;
#X msg 666 26 set \$1;
#X msg 458 35 set \$1;
#X obj 568 77 abs_rndwalkrnd1 200;
#X obj 330 387 *~;
#X msg 390 298 \$1 \$2 \, 0 \$3 \$4;
#X obj 387 270 pack f f f f;
#X text 496 -95 random;
#X obj 187 -85 inlet;
#X obj 188 -58 / 128;
#X text 188 -101 notelen;
#X obj 427 229 +;
#X obj 432 204 t b f;
#X obj 89 0 vradio 10 1 1 5 empty empty l 2 6 0 10 -262144 -1 -128992
1;
#X obj 275 121 + 1;
#X obj 302 150 *;
#X obj 375 190 *;
#X obj 277 -36 pow -1;
#X obj 278 -13 * 60000;
#X obj 275 -96 r \$0globalbpm1;
#X obj 373 -96 inlet;
#X text 417 -94 bpm;
#X obj 296 96 t b f;
#X obj 423 103 + 2;
#X obj 5 27 hsl 80 8 0 200 0 1 empty empty dec 0 4 0 10 -262144 -1
-128992 3600 0;
#X obj 5 17 hsl 80 8 1 20 0 1 empty empty att 0 4 0 10 -262144 -1 -128992
1200 0;
#X obj 6 40 hsl 80 8 0 48 0 1 empty empty env 0 4 0 10 -262144 -1 -128992
1700 0;
#X msg 232 308 set \$1;
#X obj -32 -65 inlet;
#X obj -35 -39 / 128;
#X obj -1 564 vcf~ 1;
#X obj 98 463 *~;
#X obj 168 338 abs_rndwalkrnd1 48;
#X obj 164 367 + 12;
#X text -75 -90 pitch/trigger;
#X connect 0 0 9 0;
#X connect 0 0 8 0;
#X connect 0 0 10 0;
#X connect 1 0 4 0;
#X connect 2 0 3 0;
#X connect 4 0 5 0;
#X connect 5 0 50 0;
#X connect 6 0 5 0;
#X connect 7 0 6 0;
#X connect 8 0 1 0;
#X connect 9 0 7 0;
#X connect 10 0 11 0;
#X connect 10 0 12 0;
#X connect 11 0 5 0;
#X connect 12 0 50 1;
#X connect 13 0 51 1;
#X connect 14 0 26 2;
#X connect 15 0 16 0;
#X connect 16 0 14 0;
#X connect 17 0 19 0;
#X connect 18 0 24 1;
#X connect 18 0 24 0;
#X connect 19 0 20 0;
#X connect 19 0 23 0;
#X connect 19 0 52 0;
#X connect 20 0 22 0;
#X connect 20 0 43 0;
#X connect 21 0 44 0;
#X connect 22 0 45 0;
#X connect 23 0 15 0;
#X connect 23 0 21 0;
#X connect 24 0 2 1;
#X connect 24 0 51 0;
#X connect 25 0 18 0;
#X connect 26 0 25 0;
#X connect 28 0 29 0;
#X connect 29 0 42 0;
#X connect 31 0 26 3;
#X connect 32 0 31 0;
#X connect 32 1 31 1;
#X connect 33 0 34 0;
#X connect 34 0 35 0;
#X connect 35 0 36 0;
#X connect 36 0 31 0;
#X connect 37 0 38 0;
#X connect 38 0 36 1;
#X connect 39 0 37 0;
#X connect 40 0 37 0;
#X connect 42 0 35 0;
#X connect 42 1 35 1;
#X connect 43 0 26 1;
#X connect 43 0 32 0;
#X connect 44 0 23 1;
#X connect 45 0 20 1;
#X connect 46 0 52 1;
#X connect 47 0 46 0;
#X connect 48 0 49 0;
#X connect 49 0 26 0;
#X connect 50 1 2 0;
#X connect 51 0 12 1;
#X connect 52 0 47 0;
#X connect 52 0 53 0;
#X connect 53 0 13 0;
#X coords 0 -1 1 1 100 50 1 0 0;
#X restore 544 229 pd bass_synth;
#N canvas 863 285 850 646 noise 0;
#X obj 71 483 noise~;
#X obj 127 529 samphold~;
#X obj 178 499 phasor~;
#X obj 128 280 t f f;
#X obj 135 305 *;
#X obj 338 278 samplerate~;
#X obj 344 252 loadbang;
#X obj 311 336 / 2;
#X obj 173 424 *~ 22050;
#X obj 73 298 *;
#X obj 73 276 t f f;
#X obj 72 346 *;
#X obj 73 323 t f f;
#X obj 76 379 * 6000;
#X text 9 61 fm;
#X obj 155 586 lop~;
#X obj 159 632 outlet~;
#X obj 243 327 *;
#X obj 243 305 t f f;
#X obj 279 415 *;
#X obj 257 378 *;
#X obj 257 356 t f f;
#X obj 154 337 t f f;
#X obj 161 362 *;
#X text 5 25 noise quantized (with fm) \, filtered;
#X obj 6 78 inlet~;
#X obj 65 416 *~;
#X obj 106 114 hsl 96 10 0 1 0 1 empty empty p 0 4 0 10 -262144 -1
-128992 6600 1;
#X obj 106 126 hsl 96 10 0 1 0 1 empty empty fm 0 4 0 10 -262144 -1
-128992 0 1;
#X obj 106 138 hsl 96 10 0 1 0 1 empty empty smooth 0 4 0 10 -262144
-1 -128992 3600 1;
#X connect 0 0 1 0;
#X connect 1 0 15 0;
#X connect 2 0 1 1;
#X connect 3 0 4 0;
#X connect 3 1 4 1;
#X connect 4 0 22 0;
#X connect 5 0 7 0;
#X connect 6 0 5 0;
#X connect 7 0 8 1;
#X connect 7 0 19 1;
#X connect 8 0 2 0;
#X connect 9 0 12 0;
#X connect 10 0 9 0;
#X connect 10 1 9 1;
#X connect 11 0 13 0;
#X connect 12 0 11 0;
#X connect 12 1 11 1;
#X connect 13 0 26 1;
#X connect 15 0 16 0;
#X connect 17 0 21 0;
#X connect 18 0 17 0;
#X connect 18 1 17 1;
#X connect 19 0 15 1;
#X connect 20 0 19 0;
#X connect 21 0 20 0;
#X connect 21 1 20 1;
#X connect 22 0 23 0;
#X connect 22 1 23 1;
#X connect 23 0 8 0;
#X connect 25 0 26 0;
#X connect 26 0 2 0;
#X connect 27 0 3 0;
#X connect 28 0 10 0;
#X connect 29 0 18 0;
#X coords 0 -1 1 1 110 50 1 100 100;
#X restore 813 259 pd noise;
#N canvas 782 227 886 680 osc1 0;
#N canvas 1 77 1113 870 antialiased_ssts_osc1 0;
#X obj 79 52 inlet~;
#X obj 154 53 inlet;
#X obj 224 52 inlet;
#X text 290 81 8 times oversampled \, i hope the pitch is right...
;
#X obj 118 469 outlet~;
#X obj 120 366 *~ 0.125;
#X obj 120 389 rzero~ -1;
#X obj 120 412 rzero~ -1;
#X obj 120 435 rzero~ -1;
#X obj 119 240 *~ 0.2368;
#X obj 120 286 *~ 0.06261;
#X obj 119 263 rpole~ 0.76319;
#X obj 119 309 cpole~ 0.85223 0.20194;
#X obj 118 337 cpole~ 0.85223 -0.2019;
#X text 241 280 from pd docs modified for 8 times oversampling;
#X obj 119 183 abs_ssts_osc1;
#X text 94 27 freq \, geom \, wave;
#X text 342 37 wrap the non-antialiased osc;
#X obj 271 100 block~ 64 1 8;
#X connect 0 0 15 0;
#X connect 1 0 15 1;
#X connect 2 0 15 2;
#X connect 5 0 6 0;
#X connect 6 0 7 0;
#X connect 7 0 8 0;
#X connect 8 0 4 0;
#X connect 9 0 11 0;
#X connect 10 0 12 0;
#X connect 11 0 10 0;
#X connect 12 0 13 0;
#X connect 12 1 13 1;
#X connect 13 0 5 0;
#X connect 15 0 9 0;
#X restore 46 554 pd antialiased_ssts_osc1;
#X obj 46 517 mtof;
#X obj 55 488 +;
#X obj 53 458 t b f;
#X obj 105 117 nbx 3 14 0 127 0 1 empty empty empty 0 -8 0 10 -262144
-1 -1 36 256;
#N canvas 1 77 1113 870 antialiased_ssts_osc1 0;
#X obj 79 52 inlet~;
#X obj 154 53 inlet;
#X obj 224 52 inlet;
#X text 290 81 8 times oversampled \, i hope the pitch is right...
;
#X obj 118 469 outlet~;
#X obj 120 366 *~ 0.125;
#X obj 120 389 rzero~ -1;
#X obj 120 412 rzero~ -1;
#X obj 120 435 rzero~ -1;
#X obj 119 240 *~ 0.2368;
#X obj 120 286 *~ 0.06261;
#X obj 119 263 rpole~ 0.76319;
#X obj 119 309 cpole~ 0.85223 0.20194;
#X obj 118 337 cpole~ 0.85223 -0.2019;
#X text 241 280 from pd docs modified for 8 times oversampling;
#X obj 119 183 abs_ssts_osc1;
#X text 94 27 freq \, geom \, wave;
#X text 342 37 wrap the non-antialiased osc;
#X obj 271 100 block~ 64 1 8;
#X connect 0 0 15 0;
#X connect 1 0 15 1;
#X connect 2 0 15 2;
#X connect 5 0 6 0;
#X connect 6 0 7 0;
#X connect 7 0 8 0;
#X connect 8 0 4 0;
#X connect 9 0 11 0;
#X connect 10 0 12 0;
#X connect 11 0 10 0;
#X connect 12 0 13 0;
#X connect 12 1 13 1;
#X connect 13 0 5 0;
#X connect 15 0 9 0;
#X restore 86 588 pd antialiased_ssts_osc1;
#X obj 29 663 +~;
#X obj 8 707 outlet~;
#X obj 99 515 mtof;
#X obj 106 456 t b f;
#X obj 108 486 -;
#X obj 77 61 inlet;
#X text 78 41 pitch;
#X obj 148 104 hsl 96 8 0 100 0 1 empty empty det 0 4 0 10 -262144
-1 -128992 8835 0;
#X msg 325 167 set \$1;
#X obj 271 193 abs_rndwalkrnd1 100;
#X obj 265 226 / 100;
#X obj 262 281 *;
#X obj 262 253 t f f;
#X obj 253 329 *;
#X obj 262 305 t f f;
#X obj 248 353 * 0.25;
#X obj 500 79 inlet;
#X obj 493 113 / 128;
#X text 506 60 random;
#X text 152 20 double drone oscillator \, with detune;
#X obj 148 114 hsl 96 8 0 100 0 1 empty empty wav 0 4 0 10 -262144
-1 -128992 7505 0;
#X msg 131 234 set \$1;
#X obj 100 262 abs_rndwalkrnd1 100;
#X obj 100 288 / 100;
#X obj 148 124 hsl 96 8 0 100 0 1 empty empty geo 0 4 0 10 -262144
-1 -128992 3040 0;
#X msg 183 296 set \$1;
#X obj 127 322 abs_rndwalkrnd1 100;
#X obj 136 350 / 100;
#X connect 0 0 6 0;
#X connect 1 0 0 0;
#X connect 2 0 1 0;
#X connect 3 0 2 0;
#X connect 3 1 2 1;
#X connect 4 0 2 0;
#X connect 4 0 10 0;
#X connect 5 0 6 1;
#X connect 6 0 7 0;
#X connect 8 0 5 0;
#X connect 9 0 10 0;
#X connect 9 1 10 1;
#X connect 10 0 8 0;
#X connect 11 0 4 0;
#X connect 13 0 15 1;
#X connect 14 0 13 0;
#X connect 15 0 14 0;
#X connect 15 0 16 0;
#X connect 16 0 18 0;
#X connect 17 0 20 0;
#X connect 18 0 17 0;
#X connect 18 1 17 1;
#X connect 19 0 21 0;
#X connect 20 0 19 0;
#X connect 20 1 19 1;
#X connect 21 0 9 0;
#X connect 21 0 3 0;
#X connect 22 0 23 0;
#X connect 23 0 15 0;
#X connect 23 0 32 0;
#X connect 23 0 28 0;
#X connect 26 0 28 1;
#X connect 27 0 26 0;
#X connect 28 0 27 0;
#X connect 28 0 29 0;
#X connect 29 0 0 2;
#X connect 29 0 5 2;
#X connect 30 0 32 1;
#X connect 31 0 30 0;
#X connect 32 0 31 0;
#X connect 32 0 33 0;
#X connect 33 0 0 1;
#X connect 33 0 5 1;
#X coords 0 -1 1 1 150 35 1 100 100;
#X restore 656 260 pd osc1;
#N canvas 1 77 1135 980 snare 0;
#X obj 203 572 line~;
#X msg 196 521 0 \$1;
#X obj 0 923 *~;
#X obj 180 603 *~;
#X obj -31 603 *~;
#X obj -40 637 +~;
#X obj 144 640 lop~ 200;
#X msg 244 516 1;
#X obj 81 724 *~;
#X msg -2 639 1;
#X obj 39 1007 outlet~;
#X obj -5 574 mtof;
#X obj -138 485 mtof;
#X obj -41 673 +~;
#X obj 129 430 +;
#X msg 236 470 0;
#X text 216 599 quadratic pitch/amp env;
#X obj -42 701 phasor~;
#X obj -90 787 *~;
#X obj -40 861 +~;
#X obj -30 891 hip~ 5;
#X obj -42 786 -~;
#X obj -22 818 *~;
#X obj 36 978 +~;
#X obj 100 759 noise~;
#X obj 421 630 line~;
#X msg 414 579 0 \$1;
#X obj 398 661 *~;
#X obj 362 698 lop~ 200;
#X msg 478 562 1;
#X obj 344 505 +;
#X msg 370 445 0;
#X obj 109 844 *~;
#X obj 183 745 mtof;
#X obj 110 803 lop~;
#X obj 196 497 float;
#X obj 405 546 float;
#X obj -166 738 expr~ $v1<0.5;
#X obj -10 754 expr~ $v1>=0.5;
#X obj -10 726 sig~ 1;
#X text 180 -9 trigger/peak;
#X obj 177 445 t f b b b;
#X obj 394 502 t f b b b;
#X obj 123 274 t f f;
#X obj 126 306 *;
#X obj 128 328 * 800;
#X obj 195 315 t f f;
#X obj 200 340 *;
#X obj 210 370 * 800;
#X obj 207 285 clip 0 1;
#X obj 209 260 +;
#X obj 232 229 t b f;
#X obj 256 97 t f f;
#X obj 256 133 *;
#X obj 265 161 *;
#X obj 234 203 *;
#X text 467 2 909ish snare \, pitch \, pitch env amount \, decay \,
noise-decay \, mod \, noise-pitch;
#X obj -45 208 / 128;
#X obj 184 16 inlet;
#X obj 126 50 clip 0 127;
#X obj 274 33 inlet;
#X obj 263 67 / 128;
#X text 273 8 noise decay mod (0..127);
#X obj 107 113 hsl 96 10 0 127 0 1 empty empty p 0 4 0 10 -262144 -1
-128992 3000 1;
#X obj 107 124 hsl 96 10 0 127 0 1 empty empty a 0 5 0 10 -262144 -1
-128992 2300 1;
#X obj 107 135 hsl 96 10 0 1 0 1 empty empty dc 0 5 0 10 -262144 -1
-128992 3400 1;
#X obj 107 148 hsl 96 10 0 1 0 1 empty empty nd 0 5 0 10 -262144 -1
-128992 3400 1;
#X obj 107 159 hsl 96 8 0 1 0 1 empty empty m 0 5 0 10 -262144 -1 -128992
0 1;
#X obj 107 168 hsl 96 10 0 127 0 1 empty empty n 0 5 0 10 -262144 -1
-128992 6300 1;
#X connect 0 0 3 1;
#X connect 0 0 3 0;
#X connect 1 0 0 0;
#X connect 2 0 23 0;
#X connect 3 0 6 0;
#X connect 4 0 5 1;
#X connect 5 0 13 0;
#X connect 6 0 4 0;
#X connect 6 0 8 1;
#X connect 7 0 0 0;
#X connect 8 0 2 1;
#X connect 9 0 17 1;
#X connect 11 0 4 1;
#X connect 12 0 5 0;
#X connect 13 0 17 0;
#X connect 14 0 35 0;
#X connect 15 0 14 0;
#X connect 17 0 18 1;
#X connect 17 0 21 1;
#X connect 17 0 37 0;
#X connect 17 0 38 0;
#X connect 18 0 19 0;
#X connect 19 0 20 0;
#X connect 20 0 2 0;
#X connect 21 0 22 0;
#X connect 22 0 19 1;
#X connect 23 0 10 0;
#X connect 24 0 34 0;
#X connect 25 0 27 1;
#X connect 25 0 27 0;
#X connect 26 0 25 0;
#X connect 27 0 28 0;
#X connect 28 0 32 1;
#X connect 29 0 25 0;
#X connect 30 0 36 0;
#X connect 31 0 30 0;
#X connect 32 0 23 1;
#X connect 33 0 34 1;
#X connect 34 0 32 0;
#X connect 35 0 1 0;
#X connect 36 0 26 0;
#X connect 37 0 18 0;
#X connect 38 0 22 1;
#X connect 39 0 21 0;
#X connect 41 0 8 0;
#X connect 41 1 9 0;
#X connect 41 1 35 0;
#X connect 41 2 7 0;
#X connect 41 3 15 0;
#X connect 42 1 36 0;
#X connect 42 2 29 0;
#X connect 42 3 31 0;
#X connect 43 0 44 0;
#X connect 43 1 44 1;
#X connect 44 0 45 0;
#X connect 45 0 14 1;
#X connect 46 0 47 0;
#X connect 46 1 47 1;
#X connect 47 0 48 0;
#X connect 48 0 30 1;
#X connect 49 0 46 0;
#X connect 50 0 49 0;
#X connect 51 0 50 0;
#X connect 51 1 50 1;
#X connect 52 0 53 0;
#X connect 52 1 53 1;
#X connect 52 1 54 1;
#X connect 53 0 54 0;
#X connect 54 0 55 0;
#X connect 55 0 51 0;
#X connect 57 0 41 0;
#X connect 57 0 42 0;
#X connect 58 0 59 0;
#X connect 59 0 57 0;
#X connect 60 0 61 0;
#X connect 61 0 52 0;
#X connect 63 0 12 0;
#X connect 64 0 11 0;
#X connect 65 0 43 0;
#X connect 66 0 50 0;
#X connect 67 0 55 1;
#X connect 68 0 33 0;
#X coords 0 -1 1 1 110 80 1 100 100;
#X restore 1125 216 pd snare;
#N canvas 1 110 985 810 kick8 0;
#X obj 80 554 osc~;
#X obj 80 516 vline~;
#X msg 89 455 \$1 \, \$2 \$3;
#X obj 82 415 pack f f f;
#X obj 111 117 nbx 3 14 10 999 0 1 empty empty t -8 8 0 10 -262144
-1 -1 546 256;
#X obj 111 133 nbx 3 14 10 999 0 1 empty empty b -8 8 0 10 -262144
-1 -1 69 256;
#X obj 160 133 nbx 3 14 1 500 0 1 empty empty d -8 8 0 10 -262144 -1
-1 115 256;
#X obj 55 379 float;
#X obj 51 584 *~;
#X obj 25 544 *~;
#X obj 3 510 vline~;
#X obj -3 458 pack f f;
#X obj -48 325 t f f;
#X obj -44 351 *;
#X obj -15 415 * 2000;
#X obj 50 626 outlet~;
#X obj 193 434 spigot 1;
#X obj -20 277 t f b b;
#X msg 218 404 0;
#X obj 229 374 delay;
#X msg 252 404 1;
#X msg -6 484 \$1 0.5 \, 0 \$2 1;
#X msg 186 465 0.25;
#X text -41 119 trigger/peak;
#X obj -19 383 +;
#X obj 147 304 *;
#X obj 178 264 / 500;
#X obj 178 288 t f f;
#X obj 180 319 *;
#X obj 144 390 * 500;
#X obj 175 342 t f f;
#X obj 165 366 *;
#X text 233 26 808ish kickdrum synth \, trig-sens \, transpose-depth
\, decay \, decay-mod;
#X obj -30 147 inlet;
#X obj -22 200 clip 0 127;
#X obj -20 227 / 128;
#X obj 514 113 inlet;
#X obj 396 97 inlet;
#X text 517 91 transpose (semitones);
#X text 396 77 decay mod (0..127);
#X obj 155 103 hsl 80 15 0 1 0 1 empty empty dc 0 7 0 10 -262144 -1
-128992 3000 1;
#X obj 513 156 clip -127 127;
#X obj 361 297 mtof;
#X obj 155 120 hsl 80 8 0 1 0 1 empty empty m 0 4 0 10 -262144 -1 -128992
0 1;
#X obj 340 227 ftom;
#X obj 363 273 +;
#X obj 383 242 t b f;
#X obj 369 145 / 128;
#X obj -2 356 t b f;
#X connect 0 0 8 1;
#X connect 1 0 0 0;
#X connect 2 0 1 0;
#X connect 3 0 2 0;
#X connect 4 0 7 1;
#X connect 5 0 44 0;
#X connect 6 0 26 0;
#X connect 7 0 3 0;
#X connect 8 0 15 0;
#X connect 9 0 8 0;
#X connect 10 0 9 1;
#X connect 10 0 9 0;
#X connect 11 0 21 0;
#X connect 12 0 13 0;
#X connect 12 1 13 1;
#X connect 13 0 24 0;
#X connect 14 0 11 1;
#X connect 14 0 19 1;
#X connect 16 0 22 0;
#X connect 17 0 11 0;
#X connect 17 1 7 0;
#X connect 17 1 18 0;
#X connect 17 1 19 0;
#X connect 17 2 16 0;
#X connect 18 0 16 1;
#X connect 19 0 20 0;
#X connect 20 0 16 1;
#X connect 21 0 10 0;
#X connect 22 0 0 1;
#X connect 24 0 14 0;
#X connect 25 0 48 0;
#X connect 26 0 27 0;
#X connect 27 0 28 0;
#X connect 27 1 28 1;
#X connect 28 0 30 0;
#X connect 29 0 3 2;
#X connect 30 0 31 0;
#X connect 30 1 31 1;
#X connect 31 0 29 0;
#X connect 33 0 34 0;
#X connect 34 0 35 0;
#X connect 35 0 17 0;
#X connect 36 0 41 0;
#X connect 37 0 47 0;
#X connect 40 0 12 0;
#X connect 41 0 46 0;
#X connect 42 0 3 1;
#X connect 43 0 25 1;
#X connect 44 0 45 0;
#X connect 45 0 42 0;
#X connect 46 0 45 0;
#X connect 46 1 45 1;
#X connect 47 0 25 0;
#X connect 48 0 24 0;
#X connect 48 1 24 1;
#X coords 0 -1 1 1 140 50 1 100 100;
#X restore 1108 154 pd kick8;
#N canvas 1 77 450 300 tempo 0;
#X obj 99 185 s \$0globalbpm1;
#X obj 155 102 nbx 3 14 10 500 0 1 empty empty empty 0 -8 0 10 -262144
-1 -1 108 256;
#X obj 203 185 outlet;
#X obj 193 102 bng 15 250 50 0 empty empty empty 17 7 0 10 -262144
-1 -1;
#X connect 1 0 0 0;
#X connect 1 0 2 0;
#X connect 3 0 1 0;
#X coords 0 -1 1 1 110 20 1 100 100;
#X restore 230 17 pd tempo;
#N canvas 542 190 961 546 phraseresampler 0;
#X obj 44 480 outlet~;
#X obj 11 21 inlet~;
#X text 15 2 audioin;
#X text 156 8 playtrig;
#X obj 639 139 samplerate~;
#X obj 123 114 nbx 6 14 0.01 127 0 1 empty empty len -20 7 0 10 -262144
-1 -1 4 256;
#X obj 258 256 *;
#X obj 640 114 loadbang;
#X obj 241 464 pack f f;
#X msg 241 492 \; \$1sampletable resize \$2;
#X obj 239 440 int;
#X obj 238 399 delay 100;
#X obj 259 296 t b f;
#X obj 46 408 abs_sampler1;
#X obj 187 113 bng 15 250 50 0 empty empty r 5 7 0 10 -258113 -1 -1
;
#X obj 89 387 *;
#X obj 91 337 clip 0 1;
#X text 346 10 tp;
#X msg 323 355 \; \$1 normalize 1;
#X obj 325 305 int;
#X msg 323 328 symbol \$1sampletable;
#X obj 204 113 bng 15 250 50 0 empty empty n 5 7 0 10 -262144 -1 -1
;
#X obj 345 27 inlet;
#X obj 300 138 f;
#X obj 92 34 inlet;
#X text 87 14 rec trig;
#X obj 107 130 hsl 128 8 0 1 0 1 empty empty empty -2 -8 0 10 -262144
-1 -1 3243 1;
#X obj 152 26 inlet;
#X obj 258 106 t b b;
#X text 223 2 startpoint;
#X obj 227 21 inlet;
#X obj 225 45 clip 0 127;
#X obj 224 64 / 128;
#X text 490 7 simple sampler with control for startpoint. sample-length
beats \, buttons for recording \, normalize;
#X obj 564 75 inlet;
#X obj 556 143 pow -1;
#X text 601 76 <- bpm in;
#X obj 556 115 float;
#X obj 532 46 r \$0globalbpm1;
#X obj 556 165 * 60;
#X obj 569 194 *;
#X obj 625 162 t b f;
#X obj 404 56 delay 2;
#X obj 122 207 delay 1;
#X obj 222 113 bng 15 250 50 0 empty empty p 5 7 0 10 -262144 -1 -1
;
#X connect 1 0 13 2;
#X connect 4 0 41 0;
#X connect 5 0 6 0;
#X connect 6 0 12 0;
#X connect 6 0 13 0;
#X connect 7 0 4 0;
#X connect 7 0 42 0;
#X connect 8 0 9 0;
#X connect 10 0 8 0;
#X connect 11 0 10 0;
#X connect 12 0 11 0;
#X connect 12 0 15 0;
#X connect 12 1 8 1;
#X connect 12 1 15 1;
#X connect 13 0 0 0;
#X connect 13 1 10 1;
#X connect 13 1 19 1;
#X connect 14 0 13 1;
#X connect 15 0 13 3;
#X connect 16 0 15 0;
#X connect 19 0 20 0;
#X connect 20 0 18 0;
#X connect 21 0 19 0;
#X connect 22 0 23 0;
#X connect 23 0 13 4;
#X connect 24 0 14 0;
#X connect 26 0 16 0;
#X connect 26 0 43 0;
#X connect 27 0 44 0;
#X connect 28 0 23 0;
#X connect 28 0 26 0;
#X connect 28 1 13 5;
#X connect 30 0 31 0;
#X connect 31 0 32 0;
#X connect 32 0 26 0;
#X connect 34 0 37 0;
#X connect 35 0 39 0;
#X connect 37 0 35 0;
#X connect 38 0 37 0;
#X connect 39 0 40 0;
#X connect 40 0 6 1;
#X connect 41 0 40 0;
#X connect 41 1 40 1;
#X connect 42 0 5 0;
#X connect 43 0 23 0;
#X connect 44 0 28 0;
#X coords 0 -1 1 1 140 40 1 100 100;
#X restore 683 470 pd phraseresampler;
#N canvas 208 232 1042 672 soundfileplay 0;
#X obj 169 564 outlet~;
#X obj 273 564 outlet~;
#X msg 197 258 open \$1;
#X msg 139 261 1;
#X obj 275 16 inlet;
#X text 275 -3 filename;
#X symbolatom 100 114 28 0 0 0 - - -, f 28;
#X obj 254 101 bng 12 250 50 0 empty empty empty 17 7 0 10 -262144
-1 -262144;
#X obj 180 293 readsf~ 2;
#X obj 79 -11 inlet;
#X msg 271 218 color 1;
#X msg 349 220 color 0;
#X obj 163 194 t b a b;
#X obj 224 171 symbol;
#X obj 370 51 loadbang;
#X obj 159 364 == 0;
#X obj 170 334 env~ 16384 8192;
#X obj 113 443 *~;
#X obj 140 401 lop~ 1;
#X text 195 364 maybe a mono sample;
#X obj 127 222 delay 1;
#X obj 237 101 bng 12 250 50 0 empty empty v 4 6 0 10 -262144 -1 -128992
;
#X obj 470 210 openpanel;
#X msg 474 280 set symbol \$1;
#X obj 452 244 t b a;
#X obj 291 321 delay 250;
#X msg 447 320;
#X text 117 -8 start/sync;
#X obj 248 294 spigot;
#X obj 217 101 tgl 12 1 empty empty lp 1 7 0 10 -262144 -1 -128992
1 1;
#X connect 2 0 8 0;
#X connect 3 0 8 0;
#X connect 4 0 13 0;
#X connect 7 0 13 0;
#X connect 8 0 17 0;
#X connect 8 0 0 0;
#X connect 8 1 16 0;
#X connect 8 1 1 0;
#X connect 8 2 28 0;
#X connect 9 0 7 0;
#X connect 10 0 7 0;
#X connect 11 0 7 0;
#X connect 12 0 20 0;
#X connect 12 1 2 0;
#X connect 12 2 10 0;
#X connect 13 0 12 0;
#X connect 14 0 11 0;
#X connect 14 0 26 0;
#X connect 15 0 18 0;
#X connect 16 0 15 0;
#X connect 17 0 1 0;
#X connect 18 0 17 1;
#X connect 20 0 3 0;
#X connect 21 0 22 0;
#X connect 22 0 24 0;
#X connect 23 0 26 0;
#X connect 24 0 26 0;
#X connect 24 1 23 0;
#X connect 25 0 11 0;
#X connect 26 0 13 0;
#X connect 26 0 6 0;
#X connect 28 0 25 0;
#X connect 28 0 7 0;
#X connect 29 0 28 1;
#X coords 0 -1 1 1 170 30 1 100 100;
#X restore 86 428 pd soundfileplay;
#N canvas 620 179 1218 893 graincloud 0;
#X obj 150 833 outlet~;
#X obj 332 838 outlet~;
#X obj 377 137 hsl 128 15 0 1 0 1 empty empty rate 2 7 0 10 -262144
-1 -1 2536 1;
#X obj 12 421 t f f;
#X obj 0 448 *;
#X obj -14 479 t b f;
#X obj -85 640 metro 30;
#X obj 47 714 * 1000;
#X obj 38 748 clip 1 1000;
#X obj 181 151 nbx 3 14 0 48 0 1 empty empty tpr -20 7 0 10 -262144
-1 -1 0 256;
#X obj 227 151 hsl 64 15 0 1 0 1 empty empty pan_rnd 2 7 0 10 -262144
-1 -1 4600 1;
#X obj -80 609 delay 10;
#X obj 54 689 +;
#X obj -74 488 random;
#X obj -44 416 *;
#X obj -38 388 t f f;
#X obj -154 403 t b;
#X obj -155 592 delay 0;
#X obj 377 154 hsl 128 10 0 1 0 1 empty empty rate_rnd 2 5 0 10 -262144
-1 -1 4100 1;
#X obj -44 437 *;
#X obj -65 460 * 1000;
#X obj -55 527 / 1000;
#X obj -92 562 clip 10 1000;
#X obj 301 151 hsl 64 15 0 0.49 0 1 empty empty ramp 2 7 0 10 -262144
-1 -1 5000 1;
#X obj 120 151 nbx 3 14 -36 36 0 1 empty empty tp -15 7 0 10 -262144
-1 -1 0 256;
#X obj 732 -106 inlet;
#X obj 1254 -54 inlet~;
#X text 1258 -71 audio rec in;
#X obj 575 539 tabwrite~;
#X msg 502 504 set \$1;
#X msg 552 472 stop;
#X msg 620 471 start;
#X obj 488 545 timer;
#X obj 501 575 / 1000;
#X obj 519 614 *;
#X obj 554 577 samplerate~;
#X obj 404 418 t b b;
#X obj 616 29 loadbang;
#N canvas 1102 168 799 693 readsftotable_upsampled 0;
#X obj 143 205 readsf~;
#X msg 167 175 open \$1;
#X obj 150 110 t b a;
#X msg 130 173 1;
#X obj 148 35 inlet;
#X obj 272 35 inlet;
#X obj 226 421 tabwrite~;
#X msg 239 161 set \$1;
#X obj 379 534 outlet;
#X msg 416 323 stop;
#X msg 484 322 start;
#X obj 352 396 timer;
#X obj 375 424 / 1000;
#X obj 376 461 *;
#X obj 456 390 samplerate~;
#X obj 334 249 t b b;
#X obj 268 269 t b b;
#X obj 471 224 loadbang;
#X obj 379 504 clip 0 1.4112e+06;
#X text 148 16 filename;
#X text 277 11 tablename;
#X text 378 553 samplesize;
#X obj 425 67 block~ 1024 1 16;
#X obj 115 137 delay 30;
#X obj 564 485 pack f s;
#X msg 566 525 \; \$2 resize \$1;
#X connect 0 0 6 0;
#X connect 0 1 16 0;
#X connect 1 0 0 0;
#X connect 2 0 23 0;
#X connect 2 1 1 0;
#X connect 3 0 0 0;
#X connect 4 0 2 0;
#X connect 5 0 7 0;
#X connect 5 0 24 1;
#X connect 7 0 6 0;
#X connect 9 0 6 0;
#X connect 10 0 6 0;
#X connect 11 0 12 0;
#X connect 12 0 13 0;
#X connect 13 0 18 0;
#X connect 14 0 13 1;
#X connect 15 0 10 0;
#X connect 15 1 11 0;
#X connect 16 0 11 1;
#X connect 16 1 9 0;
#X connect 17 0 14 0;
#X connect 18 0 8 0;
#X connect 18 0 24 0;
#X connect 23 0 3 0;
#X connect 23 0 15 0;
#X connect 24 0 25 0;
#X restore 789 504 pd readsftotable_upsampled;
#X obj 471 101 bng 15 250 50 0 empty empty N 5 8 0 10 -261682 -1 -1
;
#X obj 551 626 / 1000;
#X obj 525 661 /;
#X obj 105 119 hsl 400 10 0 400 0 1 empty empty position 2 5 0 10 -262144
-1 -1 18853 0;
#X obj -35 239 *;
#X obj 182 774 abs_granularsample_particles20;
#X obj 832 347 t a b;
#X obj 252 133 nbx 5 14 1 1000 0 1 empty empty empty 0 -8 0 10 -262144
-1 -1 364 256;
#X obj 308 133 nbx 5 14 0 500 0 1 empty empty empty 0 -8 0 10 -262144
-1 -1 56 256;
#X obj 117 133 nbx 5 14 0 500 0 1 empty empty pr -15 7 0 10 -262144
-1 -1 55 256;
#X obj 692 681 pack s f;
#X msg 735 647 1.4112e+06;
#X obj 665 621 t a b;
#X msg 848 645 1;
#X obj 841 679 pack f s;
#X msg 839 713 \; \$2 normalize \$1;
#X obj 470 398 t b b b;
#X obj 493 714 abs_granularsample_table3;
#X text 177 134 len/rnd (ms);
#X obj 346 472 delay 1;
#X obj 80 531 change;
#X obj 102 -140 inlet;
#X text 731 -125 filename;
#X obj 523 -114 inlet;
#X obj 262 344 +;
#X obj 270 301 t b f;
#X text 526 -134 tp;
#X text 449 79 rec \, normalize;
#X obj 823 134 openpanel;
#X obj 492 101 bng 15 250 50 0 empty empty v 4 8 0 10 -262144 -1 -1
;
#X msg 827 178 set symbol \$1;
#X msg -154 377 bang;
#X obj -160 332 loadbang;
#X text -149 351 sync grain trigger;
#X obj 164 -126 inlet;
#X obj 254 -134 inlet;
#X obj -34 199 clip 0 1;
#X obj 31 382 clip 0 1;
#X obj 158 535 +;
#X obj 132 463 t b f;
#X obj 127 436 * 1000;
#X text -94 -184 granular sampler with absolute grain (len etc.) parameters
;
#X text 99 -161 pos;
#X obj 99 5 / 128;
#X msg 829 210;
#X text 164 -143 rate;
#X text 255 -152 len;
#X obj 256 -105 * 8;
#X obj 252 -64 clip 0 1000;
#X obj 165 -85 / 128;
#X msg 703 719 \; \$1 resize \$2 \; \$1 const 0;
#X obj 436 102 bng 15 250 50 0 empty empty r 5 7 0 10 -258113 -1 -1
;
#X obj 1207 -87 inlet;
#X text 1202 -107 rec trig;
#X obj 370 102 nbx 6 14 0.01 127 0 1 empty empty len -20 7 0 10 -262144
-1 -1 8 256;
#X obj 404 248 *;
#X obj 801 -52 inlet;
#X obj 793 16 pow -1;
#X text 838 -51 <- bpm in;
#X obj 793 -12 float;
#X obj 769 -81 r \$0globalbpm1;
#X obj 372 286 delay;
#X obj 793 38 * 60000;
#X obj 442 197 t b f;
#X obj 100 27 * 400;
#X obj 14 157 / 400;
#X obj 107 53 int;
#X msg 105 78 set \$1;
#X connect 2 0 76 0;
#X connect 3 0 4 0;
#X connect 3 1 4 1;
#X connect 4 0 5 0;
#X connect 4 0 19 1;
#X connect 5 0 11 0;
#X connect 5 1 12 1;
#X connect 6 0 17 0;
#X connect 6 0 44 0;
#X connect 7 0 8 0;
#X connect 7 0 22 0;
#X connect 8 0 6 1;
#X connect 9 0 44 7;
#X connect 10 0 44 8;
#X connect 11 0 6 0;
#X connect 12 0 7 0;
#X connect 13 0 21 0;
#X connect 14 0 19 0;
#X connect 15 0 14 0;
#X connect 15 1 14 1;
#X connect 16 0 6 0;
#X connect 17 0 13 0;
#X connect 18 0 15 0;
#X connect 19 0 20 0;
#X connect 20 0 13 1;
#X connect 21 0 12 0;
#X connect 22 0 11 1;
#X connect 23 0 44 3;
#X connect 24 0 63 0;
#X connect 25 0 45 0;
#X connect 25 0 69 0;
#X connect 26 0 28 0;
#X connect 29 0 28 0;
#X connect 30 0 28 0;
#X connect 31 0 28 0;
#X connect 32 0 33 0;
#X connect 33 0 34 0;
#X connect 34 0 41 0;
#X connect 35 0 34 1;
#X connect 35 0 40 0;
#X connect 36 0 32 1;
#X connect 36 1 30 0;
#X connect 37 0 35 0;
#X connect 37 0 83 0;
#X connect 38 0 41 0;
#X connect 39 0 52 0;
#X connect 40 0 41 1;
#X connect 41 0 43 1;
#X connect 41 0 58 0;
#X connect 42 0 104 0;
#X connect 43 0 59 0;
#X connect 44 0 0 0;
#X connect 44 1 1 0;
#X connect 45 0 38 0;
#X connect 45 1 51 0;
#X connect 46 0 77 0;
#X connect 47 0 44 2;
#X connect 48 0 44 5;
#X connect 49 0 89 0;
#X connect 50 0 49 1;
#X connect 51 0 49 0;
#X connect 51 1 50 0;
#X connect 52 0 53 0;
#X connect 53 0 54 0;
#X connect 55 0 31 0;
#X connect 55 1 32 0;
#X connect 55 2 51 0;
#X connect 56 0 44 9;
#X connect 56 0 38 1;
#X connect 56 0 29 0;
#X connect 56 0 51 0;
#X connect 56 0 53 1;
#X connect 58 0 42 0;
#X connect 59 0 44 4;
#X connect 60 0 82 0;
#X connect 62 0 64 0;
#X connect 63 0 44 6;
#X connect 64 0 63 0;
#X connect 64 1 63 1;
#X connect 67 0 45 0;
#X connect 67 0 69 0;
#X connect 68 0 67 0;
#X connect 69 0 83 0;
#X connect 70 0 16 0;
#X connect 71 0 70 0;
#X connect 73 0 88 0;
#X connect 74 0 86 0;
#X connect 75 0 43 0;
#X connect 76 0 3 0;
#X connect 77 0 44 1;
#X connect 78 0 77 0;
#X connect 78 1 77 1;
#X connect 79 0 78 0;
#X connect 82 0 103 0;
#X connect 83 0 45 0;
#X connect 86 0 87 0;
#X connect 87 0 46 0;
#X connect 88 0 2 0;
#X connect 90 0 100 0;
#X connect 90 0 55 0;
#X connect 91 0 90 0;
#X connect 93 0 94 0;
#X connect 94 0 100 1;
#X connect 95 0 98 0;
#X connect 96 0 101 0;
#X connect 98 0 96 0;
#X connect 99 0 98 0;
#X connect 100 0 36 0;
#X connect 101 0 102 0;
#X connect 102 0 94 0;
#X connect 102 1 94 1;
#X connect 103 0 105 0;
#X connect 103 0 104 0;
#X connect 104 0 75 0;
#X connect 105 0 106 0;
#X connect 106 0 42 0;
#X coords 0 -1 1 1 410 70 1 100 100;
#X restore 862 496 pd graincloud;
#N canvas 249 79 1287 909 oneshot 0;
#X obj 18 131 openpanel;
#X obj 261 165 loadbang;
#X obj 251 -53 inlet;
#X obj 105 948 outlet~;
#X obj 278 572 / 44.1;
#X obj 203 643 *;
#X msg 605 296 1.05946;
#X obj 621 325 pow;
#X obj 565 173 * -1;
#X obj 105 911 *~;
#X obj -83 167 moses 0.001;
#X obj 457 114 +;
#X obj 155 -55 inlet;
#X obj 500 139 clip -127 127;
#X obj 463 46 float;
#X obj 566 201 t b f;
#X msg 86 638 0;
#X text 196 -56 pitch;
#X obj 129 114 nbx 4 14 -60 60 0 1 empty empty tp -12 7 0 10 -262144
-1 -1 0 256;
#X obj 407 -9 t b f;
#X obj 137 204 t b a;
#X msg 350 50 60;
#X obj 356 20 t b f;
#X obj 370 92 +;
#X obj 409 -39 * -1;
#X obj 279 75 * -1;
#X obj 103 114 bng 12 250 50 0 empty empty V 4 7 1 8 -204786 -1 -1
;
#X msg 226 209 set symbol \$1;
#X symbolatom 103 135 26 0 0 0 - - -, f 26;
#X obj 324 458 soundfiler;
#X obj 286 347 t b a;
#X obj 793 -36 inlet;
#X text 797 -58 filename;
#X msg 190 255 symbol /home/mnb/samplelib/freesounds/free_instruments/piano1/c4.wav
;
#X obj 13 33 / 128;
#X obj 138 762 vline~;
#X obj 214 616 t b f;
#X obj 191 540 t b f;
#X obj 124 649 float;
#X obj 159 682 pack f f;
#X msg 155 714 0 \, \$1 \$2;
#X obj 355 503 samplerate~;
#X obj 344 533 / 1000;
#X obj 940 370 dbtorms;
#X obj 798 485 vline~;
#X obj 786 516 *~;
#X msg 815 457 \$1 \$2 \, 0 \$3 \$4;
#X obj 826 427 pack f f f f;
#X obj 491 -47 inlet;
#X obj 492 -20 / 128;
#X text 492 -63 notelen;
#X obj 866 386 +;
#X obj 871 361 t b f;
#X obj 263 102 vradio 10 1 1 5 empty empty l 2 6 0 10 -262144 -1 -128992
0;
#X obj 714 278 + 1;
#X obj 741 307 *;
#X obj 814 347 *;
#X obj 581 2 pow -1;
#X obj 582 25 * 60000;
#X obj 579 -58 r \$0globalbpm1;
#X obj 677 -58 inlet;
#X text 684 -76 bpm;
#X obj 735 253 t b f;
#X obj 835 277 + 2;
#X obj 179 120 hsl 80 8 0 300 0 1 empty empty dec 0 4 0 10 -262144
-1 -128992 4600 0;
#X obj 179 109 hsl 80 8 0 1 0 1 empty empty att 0 4 0 10 -262144 -1
-128992 1100 0;
#X obj -14 225 t b b f;
#X obj 826 242 * 200;
#X obj 819 206 *;
#X obj 805 175 t f f;
#X obj 320 409 pack s s;
#X obj 272 371 symbol;
#X msg 324 434 read -resize \$2 \$1;
#X obj 139 798 abs_atable2;
#X text 294 -55 trigger;
#X connect 0 0 20 0;
#X connect 1 0 33 0;
#X connect 1 0 41 0;
#X connect 1 0 73 4;
#X connect 2 0 34 0;
#X connect 4 0 36 0;
#X connect 5 0 39 1;
#X connect 6 0 7 0;
#X connect 7 0 37 0;
#X connect 8 0 15 0;
#X connect 9 0 3 0;
#X connect 10 1 66 0;
#X connect 11 0 13 0;
#X connect 12 0 14 0;
#X connect 13 0 8 0;
#X connect 14 0 11 0;
#X connect 15 0 6 0;
#X connect 15 1 7 1;
#X connect 16 0 35 0;
#X connect 18 0 25 0;
#X connect 19 0 14 0;
#X connect 19 1 11 1;
#X connect 20 0 33 0;
#X connect 20 1 27 0;
#X connect 20 1 28 0;
#X connect 21 0 23 0;
#X connect 22 0 21 0;
#X connect 22 1 23 1;
#X connect 23 0 24 0;
#X connect 24 0 19 0;
#X connect 25 0 22 0;
#X connect 26 0 0 0;
#X connect 27 0 33 0;
#X connect 29 0 4 0;
#X connect 29 0 38 1;
#X connect 30 0 71 0;
#X connect 30 1 70 1;
#X connect 31 0 20 0;
#X connect 33 0 28 0;
#X connect 33 0 30 0;
#X connect 34 0 10 0;
#X connect 35 0 73 0;
#X connect 36 0 5 0;
#X connect 36 1 5 1;
#X connect 37 0 39 0;
#X connect 37 1 5 0;
#X connect 38 0 39 0;
#X connect 39 0 40 0;
#X connect 40 0 35 0;
#X connect 41 0 42 0;
#X connect 42 0 4 1;
#X connect 43 0 47 2;
#X connect 44 0 45 1;
#X connect 44 0 45 0;
#X connect 45 0 9 1;
#X connect 46 0 44 0;
#X connect 47 0 46 0;
#X connect 48 0 49 0;
#X connect 49 0 62 0;
#X connect 51 0 47 3;
#X connect 52 0 51 0;
#X connect 52 1 51 1;
#X connect 53 0 54 0;
#X connect 54 0 55 0;
#X connect 55 0 56 0;
#X connect 56 0 51 0;
#X connect 57 0 58 0;
#X connect 58 0 56 1;
#X connect 59 0 57 0;
#X connect 60 0 57 0;
#X connect 62 0 55 0;
#X connect 62 1 55 1;
#X connect 63 0 47 1;
#X connect 63 0 52 0;
#X connect 64 0 43 0;
#X connect 65 0 69 0;
#X connect 66 0 38 0;
#X connect 66 1 16 0;
#X connect 66 2 47 0;
#X connect 67 0 63 0;
#X connect 68 0 67 0;
#X connect 69 0 68 0;
#X connect 69 1 68 1;
#X connect 70 0 72 0;
#X connect 71 0 70 0;
#X connect 72 0 29 0;
#X connect 73 0 9 0;
#X connect 73 2 71 1;
#X coords 0 -1 1 1 175 55 1 100 100;
#X restore 381 460 pd oneshot;
#N canvas 286 142 1521 916 xfadeloop 0;
#X obj 346 41 loadbang;
#X msg 311 370 set \$1;
#X symbolatom 100 115 28 0 0 0 - - -, f 28;
#X obj 448 80 inlet;
#X text 483 81 <-filename;
#X obj 275 346 t b a;
#X msg 416 146 set symbol \$1;
#X obj 393 121 t b a;
#X obj 215 101 nbx 3 14 0 50 0 1 empty empty empty 0 -8 0 10 -262144
-1 -1 20 256;
#X obj 144 192 / 100;
#X obj 210 781 line~;
#X obj 64 719 pack 1 f;
#X obj 109 545 *;
#X obj 68 657 t b f b;
#X msg 125 710 0;
#X obj 336 438 / 44.1;
#X obj 257 102 bng 12 250 50 0 empty empty empty 17 7 0 10 -262144
-1 -1;
#X obj 168 721 pack 0 f;
#X obj 68 621 float;
#X obj 173 607 -;
#X obj 117 392 t b f;
#X obj 407 802 line~;
#X obj 359 762 pack 1 f;
#X obj 328 623 t b f b;
#X msg 378 733 0;
#X obj 416 734 pack 0 f;
#X obj 289 594 float;
#X obj 180 19 inlet;
#X msg 295 393 0;
#X obj 290 413 moses 0.1;
#X obj 158 667 delay 1000;
#X obj 433 683 delay 1000;
#X obj 295 485 t b f f;
#X obj 327 459 pipe 1;
#X text 307 124 xfade percent;
#X obj 248 874 abs_xfadeloop1s;
#X msg 327 201;
#X obj 410 359 soundfiler;
#X obj 418 260 t b a;
#X msg 412 337 read -resize \$2 \$1mnbxfloop1l \$1mnbxfloop1r;
#X obj 406 282 float;
#X obj 416 309 pack f s;
#X obj 230 1156 outlet~;
#X obj 334 1156 outlet~;
#X obj 220 956 == 0;
#X obj 252 923 env~ 16384 8192;
#X obj 174 1035 *~;
#X obj 201 993 lop~ 1;
#X text 256 956 maybe a mono sample;
#X obj 197 102 bng 12 250 50 0 empty empty v 4 6 0 10 -262144 -1 -128992
;
#X obj 458 105 openpanel;
#X connect 0 0 36 0;
#X connect 1 0 28 0;
#X connect 3 0 7 0;
#X connect 5 0 28 0;
#X connect 5 1 1 0;
#X connect 6 0 36 0;
#X connect 7 0 36 0;
#X connect 7 1 6 0;
#X connect 8 0 9 0;
#X connect 9 0 20 0;
#X connect 10 0 35 1;
#X connect 11 0 10 0;
#X connect 12 0 18 1;
#X connect 12 0 19 1;
#X connect 12 0 26 1;
#X connect 13 0 11 0;
#X connect 13 0 35 0;
#X connect 13 1 11 1;
#X connect 13 1 17 1;
#X connect 13 2 14 0;
#X connect 13 2 30 0;
#X connect 14 0 10 0;
#X connect 15 0 33 0;
#X connect 16 0 36 0;
#X connect 17 0 10 0;
#X connect 18 0 13 0;
#X connect 19 0 30 1;
#X connect 19 0 31 1;
#X connect 20 0 12 0;
#X connect 20 1 12 1;
#X connect 21 0 35 3;
#X connect 22 0 21 0;
#X connect 23 0 22 0;
#X connect 23 0 35 2;
#X connect 23 1 22 1;
#X connect 23 1 25 1;
#X connect 23 2 24 0;
#X connect 23 2 31 0;
#X connect 24 0 21 0;
#X connect 25 0 21 0;
#X connect 26 0 23 0;
#X connect 27 0 16 0;
#X connect 28 0 29 0;
#X connect 29 1 15 0;
#X connect 30 0 17 0;
#X connect 30 0 26 0;
#X connect 31 0 25 0;
#X connect 31 0 18 0;
#X connect 32 0 18 0;
#X connect 32 1 19 0;
#X connect 32 2 12 0;
#X connect 33 0 32 0;
#X connect 35 0 46 0;
#X connect 35 0 42 0;
#X connect 35 1 45 0;
#X connect 35 1 43 0;
#X connect 35 2 40 1;
#X connect 36 0 2 0;
#X connect 36 0 38 0;
#X connect 37 0 5 0;
#X connect 38 0 40 0;
#X connect 38 1 41 1;
#X connect 39 0 37 0;
#X connect 40 0 41 0;
#X connect 41 0 39 0;
#X connect 44 0 47 0;
#X connect 45 0 44 0;
#X connect 46 0 43 0;
#X connect 47 0 46 1;
#X connect 49 0 50 0;
#X connect 50 0 7 0;
#X coords 0 -1 1 1 170 30 1 100 100;
#X restore 47 500 pd xfadeloop;
#N canvas 50 155 1056 743 hihat8 0;
#X obj 30 734 outlet~;
#X obj 186 505 *~;
#X obj 161 543 lop~ 200;
#X obj 28 704 *~;
#X obj -90 613 clip~ -1 1;
#X obj -90 545 bp~ 8906 1.437;
#X obj -90 567 bp~ 8906 1.437;
#N canvas 1 79 744 501 squarebattery 0;
#X obj 346 142 *~ 0.7;
#X obj 105 124 *~ 0.9;
#X obj 105 79 * 210;
#X obj 345 94 * 540;
#X obj 462 104 * 550;
#X obj 569 103 * 800;
#X obj 269 92 * 380;
#X obj 187 91 * 320;
#X obj 105 404 outlet~;
#X obj 105 11 inlet;
#X text 151 13 tuning;
#N canvas 1 79 438 462 square 0;
#X obj 132 215 -~ 0.5;
#X obj 42 197 wrap~;
#X obj 42 220 -~ 0.5;
#X obj 42 175 -~ 0.5;
#X obj 42 289 -~;
#X obj 42 317 outlet~;
#X obj 42 94 phasor~;
#X obj 42 64 inlet;
#X connect 0 0 4 1;
#X connect 1 0 2 0;
#X connect 2 0 4 0;
#X connect 3 0 1 0;
#X connect 4 0 5 0;
#X connect 6 0 3 0;
#X connect 6 0 0 0;
#X connect 7 0 6 0;
#X restore 345 114 pd square;
#N canvas 0 50 438 462 square 0;
#X obj 132 215 -~ 0.5;
#X obj 42 197 wrap~;
#X obj 42 220 -~ 0.5;
#X obj 42 175 -~ 0.5;
#X obj 42 289 -~;
#X obj 42 317 outlet~;
#X obj 42 94 phasor~;
#X obj 42 64 inlet;
#X connect 0 0 4 1;
#X connect 1 0 2 0;
#X connect 2 0 4 0;
#X connect 3 0 1 0;
#X connect 4 0 5 0;
#X connect 6 0 3 0;
#X connect 6 0 0 0;
#X connect 7 0 6 0;
#X restore 462 128 pd square;
#N canvas 0 50 438 462 square 0;
#X obj 132 215 -~ 0.5;
#X obj 42 197 wrap~;
#X obj 42 220 -~ 0.5;
#X obj 42 175 -~ 0.5;
#X obj 42 289 -~;
#X obj 42 317 outlet~;
#X obj 42 94 phasor~;
#X obj 42 64 inlet;
#X connect 0 0 4 1;
#X connect 1 0 2 0;
#X connect 2 0 4 0;
#X connect 3 0 1 0;
#X connect 4 0 5 0;
#X connect 6 0 3 0;
#X connect 6 0 0 0;
#X connect 7 0 6 0;
#X restore 569 128 pd square;
#N canvas 0 50 438 462 square 0;
#X obj 132 215 -~ 0.5;
#X obj 42 197 wrap~;
#X obj 42 220 -~ 0.5;
#X obj 42 175 -~ 0.5;
#X obj 42 289 -~;
#X obj 42 317 outlet~;
#X obj 42 94 phasor~;
#X obj 42 64 inlet;
#X connect 0 0 4 1;
#X connect 1 0 2 0;
#X connect 2 0 4 0;
#X connect 3 0 1 0;
#X connect 4 0 5 0;
#X connect 6 0 3 0;
#X connect 6 0 0 0;
#X connect 7 0 6 0;
#X restore 269 115 pd square;
#N canvas 0 50 438 462 square 0;
#X obj 132 215 -~ 0.5;
#X obj 42 197 wrap~;
#X obj 42 220 -~ 0.5;
#X obj 42 175 -~ 0.5;
#X obj 42 289 -~;
#X obj 42 317 outlet~;
#X obj 42 94 phasor~;
#X obj 42 64 inlet;
#X connect 0 0 4 1;
#X connect 1 0 2 0;
#X connect 2 0 4 0;
#X connect 3 0 1 0;
#X connect 4 0 5 0;
#X connect 6 0 3 0;
#X connect 6 0 0 0;
#X connect 7 0 6 0;
#X restore 187 119 pd square;
#N canvas 0 50 438 462 square 0;
#X obj 132 215 -~ 0.5;
#X obj 42 197 wrap~;
#X obj 42 220 -~ 0.5;
#X obj 42 175 -~ 0.5;
#X obj 42 289 -~;
#X obj 42 317 outlet~;
#X obj 42 94 phasor~;
#X obj 42 64 inlet;
#X connect 0 0 4 1;
#X connect 1 0 2 0;
#X connect 2 0 4 0;
#X connect 3 0 1 0;
#X connect 4 0 5 0;
#X connect 6 0 3 0;
#X connect 6 0 0 0;
#X connect 7 0 6 0;
#X restore 105 101 pd square;
#X connect 0 0 8 0;
#X connect 1 0 8 0;
#X connect 2 0 16 0;
#X connect 3 0 11 0;
#X connect 4 0 12 0;
#X connect 5 0 13 0;
#X connect 6 0 14 0;
#X connect 7 0 15 0;
#X connect 9 0 2 0;
#X connect 9 0 3 0;
#X connect 9 0 4 0;
#X connect 9 0 5 0;
#X connect 9 0 6 0;
#X connect 9 0 7 0;
#X connect 11 0 0 0;
#X connect 12 0 8 0;
#X connect 13 0 8 0;
#X connect 14 0 8 0;
#X connect 15 0 8 0;
#X connect 16 0 1 0;
#X restore -89 501 pd squarebattery;
#X obj -90 590 *~ 150;
#X obj 153 566 *~ 0.1;
#X text 223 523 quadratic amp env;
#N canvas 482 221 1076 837 hipass8000 0;
#X obj 7 151 inlet~;
#X obj 182 581 outlet~;
#X obj 87 344 czero~;
#X obj 113 381 czero~;
#X obj 144 495 cpole~;
#X obj 183 542 cpole~;
#X obj 144 324 sig~ 0;
#X obj 127 300 sig~ 1;
#X text 98 279 zeros at fixed pos;
#X obj 180 435 sig~ 0.264714;
#X obj 208 464 sig~ 0.444066;
#X obj 224 493 sig~ -0.444066;
#X obj 36 255 *~ 0.449174;
#X text 52 86 highpassfilter at 8000 hz with low resonance;
#X connect 0 0 12 0;
#X connect 2 0 3 0;
#X connect 2 1 3 1;
#X connect 3 0 4 0;
#X connect 3 1 4 1;
#X connect 4 0 5 0;
#X connect 4 1 5 1;
#X connect 5 0 1 0;
#X connect 6 0 3 3;
#X connect 6 0 2 3;
#X connect 7 0 2 2;
#X connect 7 0 3 2;
#X connect 9 0 4 2;
#X connect 9 0 5 2;
#X connect 10 0 4 3;
#X connect 11 0 5 3;
#X connect 12 0 2 0;
#X restore -88 523 pd hipass8000;
#X text 21 32 trigger/peak;
#X obj 193 479 vline~;
#X msg 190 452 \$1 \, 0 \$2;
#X obj 153 431 pack f f;
#X obj 140 362 t f f;
#X obj 146 384 *;
#X obj 198 408 * 5000;
#X obj -61 465 * 2;
#X text 254 84 decay mod;
#X obj 153 293 *;
#X obj 145 340 +;
#X obj 148 315 t b f;
#X text 330 87 tune mod;
#X obj -41 428 +;
#X obj -17 397 t b f;
#X obj -52 367 *;
#X obj 27 52 inlet;
#X obj 107 123 hsl 96 10 0 1 0 1 empty empty dc 0 5 0 10 -262144 -1
-128992 1304 1;
#X obj 107 113 hsl 96 8 0 1 0 1 empty empty m 2 5 0 10 -262144 -1 -128992
0 1;
#X obj 107 144 hsl 96 10 0 1 0 1 empty empty tu 0 4 0 10 -262144 -1
-128992 3693 1;
#X obj 107 135 hsl 96 8 0 1 0 1 empty empty m 2 5 0 10 -262144 -1 -1
0 1;
#X obj 255 106 inlet;
#X obj 331 109 inlet;
#X text 251 28 square-sum based hihat/cymbal sound. decay \, mod-amt
\, tune \, mod-amt;
#X obj 44 124 / 128;
#X obj 82 272 / 128;
#X obj 193 241 / 128;
#X connect 1 0 2 0;
#X connect 2 0 9 0;
#X connect 3 0 0 0;
#X connect 4 0 3 0;
#X connect 5 0 6 0;
#X connect 6 0 8 0;
#X connect 7 0 11 0;
#X connect 8 0 4 0;
#X connect 9 0 3 1;
#X connect 11 0 5 0;
#X connect 13 0 1 1;
#X connect 13 0 1 0;
#X connect 14 0 13 0;
#X connect 15 0 14 0;
#X connect 16 0 17 0;
#X connect 16 1 17 1;
#X connect 17 0 18 0;
#X connect 18 0 15 1;
#X connect 19 0 7 0;
#X connect 21 0 23 0;
#X connect 22 0 16 0;
#X connect 23 0 22 0;
#X connect 23 1 22 1;
#X connect 25 0 19 0;
#X connect 26 0 25 0;
#X connect 26 1 25 1;
#X connect 27 0 25 0;
#X connect 28 0 36 0;
#X connect 29 0 22 0;
#X connect 30 0 21 1;
#X connect 31 0 26 0;
#X connect 32 0 27 1;
#X connect 33 0 38 0;
#X connect 34 0 37 0;
#X connect 36 0 15 0;
#X connect 37 0 27 0;
#X connect 38 0 21 0;
#X coords 0 -1 1 1 110 60 1 100 100;
#X restore 1142 309 pd hihat8;
#N canvas 326 359 672 610 cymbal2op 0;
#X obj 105 305 osc~;
#X obj 194 416 osc~;
#X obj 308 450 *~;
#X obj 149 557 *~;
#X obj 141 350 *~ 1000;
#X obj 296 485 *~;
#X obj 152 650 outlet~;
#X obj 299 119 inlet;
#X obj 300 294 / 128;
#X obj 317 393 vline~;
#X msg 314 366 \$1 \, 0 \$2;
#X obj 314 340 pack f f;
#X obj 363 269 t f f;
#X obj 369 291 *;
#X obj 359 317 * 5000;
#X text 424 99 decay mod;
#X obj 376 200 *;
#X obj 368 247 +;
#X obj 371 222 t b f;
#X obj 105 123 hsl 96 10 0 1 0 1 empty empty dc 0 5 0 10 -262144 -1
-128992 3300 1;
#X obj 105 114 hsl 96 8 0 1 0 1 empty empty m 2 5 0 10 -262144 -1 -128992
0 1;
#X obj 425 121 inlet;
#X obj 400 170 / 128;
#X text 299 98 trigger;
#X obj 66 353 *~ 1500;
#X obj 192 390 +~ 6000;
#X obj 92 251 +~ 1000;
#X obj 105 135 hsl 96 8 0 1 0 1 empty empty col 0 4 0 10 -262144 -1
-128992 2200 1;
#X obj 142 222 + 500;
#X obj 140 197 * 2000;
#X obj 105 145 hsl 96 8 0 1 0 1 empty empty frq 0 4 0 10 -262144 -1
-128992 6100 1;
#X obj 224 317 * 6000;
#X obj 230 350 + 500;
#X obj -4 171 abs_uniquecatch1;
#X msg -39 308 set \$1uniquecatch;
#X obj 34 411 throw~;
#X connect 0 0 4 0;
#X connect 0 0 24 0;
#X connect 1 0 3 0;
#X connect 2 0 5 1;
#X connect 2 0 5 0;
#X connect 3 0 6 0;
#X connect 4 0 25 0;
#X connect 5 0 3 1;
#X connect 7 0 8 0;
#X connect 8 0 11 0;
#X connect 9 0 2 1;
#X connect 9 0 2 0;
#X connect 10 0 9 0;
#X connect 11 0 10 0;
#X connect 12 0 13 0;
#X connect 12 1 13 1;
#X connect 13 0 14 0;
#X connect 14 0 11 1;
#X connect 16 0 18 0;
#X connect 17 0 12 0;
#X connect 18 0 17 0;
#X connect 18 1 17 1;
#X connect 19 0 17 0;
#X connect 20 0 16 1;
#X connect 21 0 22 0;
#X connect 22 0 16 0;
#X connect 24 0 35 0;
#X connect 25 0 1 0;
#X connect 26 0 0 0;
#X connect 27 0 29 0;
#X connect 28 0 26 1;
#X connect 29 0 28 0;
#X connect 30 0 31 0;
#X connect 31 0 32 0;
#X connect 32 0 25 1;
#X connect 33 0 26 0;
#X connect 33 1 34 0;
#X connect 34 0 35 0;
#X coords 0 -1 1 1 105 55 1 100 100;
#X restore 1173 383 pd cymbal2op;
#X text 197 375 monophonic sample- and soundfile-players;
#X text 772 235 drone-oscs;
#X text 1064 130 percussion;
#X text 46 483 play a soundfile from ram \, xfade looping;
#X text 156 207 synths (mono);
#X text 380 443 oneshot sampleplayer;
#X text 781 448 (re)-samplers (see parameter description inside);
#X text 143 126 resonators;
#X text 38 31 clicks \, with noise;
#X text 86 400 play a soundfile from disk \, should loop seamlessly
on a fast enough machine;
#N canvas 243 85 785 755 kickr 0;
#X obj 360 311 line~;
#X msg 331 268 0 \$1;
#X obj 141 565 *~;
#X obj 351 345 *~;
#X obj 129 430 *~;
#X obj 132 529 osc~;
#X obj 101 461 +~;
#X msg 176 493 1;
#X obj 137 619 outlet~;
#X obj 154 -33 inlet;
#X obj 122 298 mtof;
#X obj 32 261 mtof;
#X obj 113 492 +~;
#X obj 305 202 +;
#X msg 313 147 0;
#X text 199 -35 <-trigger/level in;
#X obj 332 243 float;
#X msg 388 243 \$1;
#X obj 341 381 *~;
#X obj 329 406 lop~ 400;
#X text 385 286 amp env;
#X obj 283 535 /~;
#X obj 313 465 *~;
#X text 325 526 env shape;
#X obj 319 500 +~ 1;
#X obj 451 419 + 1;
#X obj 469 384 / 100;
#X obj 538 -18 inlet;
#X obj 122 259 + 35;
#X obj 32 227 + 24;
#X obj 520 37 / 128;
#X msg 519 273 set \$1;
#X obj 5 44 hsl 80 8 0 200 0 1 empty empty shp 0 4 0 10 -262144 -1
-128992 4600 0;
#X obj 490 300 abs_rndwalkrnd1 200;
#X msg 618 89 set \$1;
#X obj 6 34 hsl 80 8 0 200 0 1 empty empty dec 0 4 0 10 -262144 -1
-128992 5700 0;
#X msg 74 119 set \$1;
#X obj 5 14 hsl 80 8 0 12 0 1 empty empty p 0 4 0 10 -262144 -1 -128992
1800 0;
#X msg 162 172 set \$1;
#X obj 5 24 hsl 80 8 0 20 0 1 empty empty pm 0 4 0 10 -262144 -1 -128992
5800 0;
#X obj 45 146 abs_rndwalkrnd1 12;
#X obj 152 -8 / 128;
#X obj 379 111 t b b f;
#X obj 133 199 abs_rndwalkrnd1 20;
#X obj 569 151 + 30;
#X obj 589 116 abs_rndwalkrnd1 200;
#X connect 0 0 3 1;
#X connect 0 0 3 0;
#X connect 1 0 0 0;
#X connect 2 0 8 0;
#X connect 3 0 18 0;
#X connect 3 0 18 1;
#X connect 4 0 6 1;
#X connect 5 0 2 0;
#X connect 6 0 12 0;
#X connect 7 0 5 1;
#X connect 9 0 41 0;
#X connect 10 0 4 0;
#X connect 11 0 6 0;
#X connect 12 0 5 0;
#X connect 13 0 16 0;
#X connect 14 0 13 0;
#X connect 16 0 1 0;
#X connect 17 0 0 0;
#X connect 18 0 19 0;
#X connect 18 0 4 1;
#X connect 19 0 22 0;
#X connect 21 0 2 1;
#X connect 22 0 21 0;
#X connect 22 0 24 0;
#X connect 24 0 21 1;
#X connect 25 0 22 1;
#X connect 26 0 25 0;
#X connect 27 0 30 0;
#X connect 28 0 10 0;
#X connect 29 0 11 0;
#X connect 30 0 33 0;
#X connect 30 0 40 0;
#X connect 30 0 43 0;
#X connect 30 0 45 0;
#X connect 31 0 32 0;
#X connect 32 0 33 1;
#X connect 33 0 31 0;
#X connect 33 0 26 0;
#X connect 34 0 35 0;
#X connect 35 0 45 1;
#X connect 36 0 37 0;
#X connect 37 0 40 1;
#X connect 38 0 39 0;
#X connect 39 0 43 1;
#X connect 40 0 36 0;
#X connect 40 0 29 0;
#X connect 41 0 42 0;
#X connect 42 0 7 0;
#X connect 42 0 14 0;
#X connect 42 1 16 0;
#X connect 42 2 17 0;
#X connect 43 0 38 0;
#X connect 43 0 28 0;
#X connect 44 0 13 1;
#X connect 45 0 34 0;
#X connect 45 0 44 0;
#X coords 0 -1 1 1 90 55 1 0 0;
#X restore 1006 157 pd kickr;
#N canvas 156 77 885 883 fmddec 0;
#X obj 157 462 *~;
#X obj 393 234 *~;
#X obj 144 337 *~;
#X obj 141 431 osc~;
#X obj 131 380 +~;
#X msg 453 177 1;
#X obj 233 408 *~;
#X obj 398 -35 inlet;
#X obj 106 137 hsl 128 8 0 127 0 1 empty empty p-amt 2 4 0 8 -262144
-1 -1 6800 1;
#X obj 160 260 mtof;
#X obj 35 205 mtof;
#X obj 106 127 hsl 128 8 1.27 800 1 1 empty empty p-dec 2 4 0 8 -262144
-1 -1 8900 1;
#X obj 254 146 * 2;
#X obj 257 171 - 1;
#X obj 166 302 *;
#X obj 134 407 +~;
#X obj 107 147 hsl 128 8 0 1 0 1 empty empty fm-mod 2 4 0 8 -228856
-1 -1 0 1;
#X obj 602 497 *~;
#X text 681 470 <-fm in;
#X obj 190 513 *~;
#X text 748 543 <-rm in;
#X obj 107 158 hsl 128 8 0 1 0 1 empty empty rm-mod 2 4 0 8 -228856
-1 -1 0 1;
#X text 380 270 quadratic pitch/amp env;
#X obj 144 561 +~;
#X obj 122 532 *~;
#X obj 173 536 *~;
#X obj 99 483 -;
#X msg 71 439 1;
#X obj 222 104 hradio 8 1 1 2 empty empty pl -10 4 0 8 -262144 -1 -1
0;
#X obj 519 248 *~;
#X msg 577 176 1;
#X obj 106 117 hsl 128 8 1.27 800 1 1 empty empty decay 2 4 0 8 -262144
-1 -1 10900 1;
#X obj 595 442 * 8000;
#X obj 632 470 inlet~;
#X obj 701 541 inlet~;
#X obj 123 624 outlet~;
#X obj 416 204 vline~;
#X obj 541 216 vline~;
#X obj 369 34 t f b b;
#X obj 530 75 t b b;
#X obj 306 73 moses 0.001;
#X obj 5 1 inlet;
#X text 9 -21 pitch;
#X text 382 -57 trigger/peak;
#X obj 248 203 t b f;
#X obj 173 101 nbx 3 14 -96 96 0 1 empty empty tp -14 6 0 10 -262144
-1 -1 0 256;
#X obj 35 129 +;
#X obj 96 49 t b f;
#X text 81 -30 sine decay/drum with rm- and fm-input;
#X obj 512 164 pack f f;
#X msg 513 139 0;
#X obj 379 171 pack f f;
#X msg 380 146 0;
#X obj 395 -13 / 128;
#X obj 162 232 f;
#X connect 0 0 19 0;
#X connect 0 0 24 1;
#X connect 1 0 2 0;
#X connect 2 0 4 0;
#X connect 3 0 0 0;
#X connect 4 0 15 0;
#X connect 5 0 36 0;
#X connect 6 0 0 1;
#X connect 7 0 53 0;
#X connect 8 0 54 0;
#X connect 9 0 14 0;
#X connect 10 0 4 1;
#X connect 11 0 51 1;
#X connect 12 0 13 0;
#X connect 13 0 44 0;
#X connect 14 0 2 1;
#X connect 15 0 3 0;
#X connect 16 0 32 0;
#X connect 17 0 15 1;
#X connect 19 0 25 1;
#X connect 21 0 25 0;
#X connect 21 0 26 1;
#X connect 21 0 27 0;
#X connect 23 0 35 0;
#X connect 24 0 23 0;
#X connect 25 0 23 1;
#X connect 26 0 24 0;
#X connect 27 0 26 0;
#X connect 28 0 12 0;
#X connect 29 0 6 1;
#X connect 30 0 37 0;
#X connect 31 0 49 1;
#X connect 32 0 17 1;
#X connect 33 0 17 0;
#X connect 34 0 19 1;
#X connect 36 0 1 1;
#X connect 36 0 1 0;
#X connect 37 0 29 1;
#X connect 37 0 29 0;
#X connect 38 0 40 0;
#X connect 38 1 52 0;
#X connect 38 2 5 0;
#X connect 39 0 50 0;
#X connect 39 1 30 0;
#X connect 40 1 6 0;
#X connect 41 0 46 0;
#X connect 44 0 54 0;
#X connect 44 1 14 1;
#X connect 45 0 47 0;
#X connect 46 0 10 0;
#X connect 47 0 46 0;
#X connect 47 1 46 1;
#X connect 49 0 37 0;
#X connect 50 0 49 0;
#X connect 51 0 36 0;
#X connect 52 0 51 0;
#X connect 53 0 39 0;
#X connect 53 0 38 0;
#X connect 54 0 9 0;
#X coords 0 -1 1 1 140 70 1 100 100;
#X restore 964 266 pd fmddec;
#X text 362 7 monophonic synths to be triggered(!) by "midi"-events
(sequencers \, generators etc.) and samplers (midi- or other);
#X connect 2 0 1 0;
#X connect 5 0 1 0;
