#N canvas 355 171 1060 859 10;
#N canvas 226 187 1072 801 clk5 0;
#X obj 147 101 nbx 5 14 0 1000 0 1 empty empty empty 0 -8 0 10 -262144
-1 -1 117 256;
#X obj 219 101 nbx 3 14 -16 16 0 1 empty empty empty 0 -8 0 10 -262144
-1 -1 4 256;
#X obj 434 101 bng 15 250 50 0 empty empty S 5 8 0 10 -262144 -1 -1
;
#X obj 141 454 spigot;
#X obj 202 102 tgl 13 1 empty empty empty 17 7 0 10 -262144 -1 -1 1
1;
#X obj 256 102 tgl 13 1 empty empty empty 17 7 0 10 -262144 -1 -1 1
1;
#X obj 570 212 pow -1;
#X obj 571 235 * 60000;
#X obj 138 423 metro 500;
#X obj 305 483 spigot;
#X obj 309 448 metro 500;
#X obj 352 373 /;
#X obj 335 342 t b f;
#X obj 273 101 nbx 3 14 -16 16 0 1 empty empty empty 0 -8 0 10 -262144
-1 -1 0 256;
#X obj 310 102 tgl 13 1 empty empty empty 17 7 0 10 -262144 -1 -1 1
1;
#X obj 430 486 spigot;
#X obj 416 454 metro 500;
#X obj 508 383 /;
#X obj 517 350 t b f;
#X obj 327 101 nbx 3 14 -16 16 0 1 empty empty empty 0 -8 0 10 -262144
-1 -1 4 256;
#X obj 364 102 tgl 13 1 empty empty empty 17 7 0 10 -262144 -1 -1 1
1;
#X obj 582 489 spigot;
#X obj 579 456 metro 500;
#X obj 660 386 /;
#X obj 669 353 t b f;
#X obj 381 101 nbx 3 14 -16 16 0 1 empty empty empty 0 -8 0 10 -262144
-1 -1 4 256;
#X obj 418 102 tgl 13 1 empty empty empty 17 7 0 10 -262144 -1 -1 1
1;
#X obj 692 489 spigot;
#X obj 681 449 metro 500;
#X obj 799 381 /;
#X obj 808 348 t b f;
#X text 5 331 d/m;
#N canvas 1 77 508 492 plusminus2multdiv 0;
#X obj 94 14 inlet;
#X obj 153 330 outlet;
#X obj 177 166 abs;
#X obj 75 193 > 0;
#X obj 178 191 t b f;
#X msg 178 220 1;
#X obj 193 251 /;
#X obj 106 135 t f f;
#X obj 173 281 f;
#X obj 75 221 select 0 1;
#X obj 141 281 f;
#X obj 121 66 == 0;
#X obj 95 43 t f f;
#X obj 106 92 +;
#X connect 0 0 12 0;
#X connect 2 0 4 0;
#X connect 3 0 9 0;
#X connect 4 0 5 0;
#X connect 4 1 6 1;
#X connect 5 0 6 0;
#X connect 6 0 8 1;
#X connect 7 0 3 0;
#X connect 7 1 2 0;
#X connect 7 1 10 1;
#X connect 8 0 1 0;
#X connect 9 0 8 0;
#X connect 9 1 10 0;
#X connect 10 0 1 0;
#X connect 11 0 13 1;
#X connect 12 0 13 0;
#X connect 12 1 11 0;
#X connect 13 0 7 0;
#X restore 333 313 pd plusminus2multdiv;
#N canvas 1 77 508 492 plusminus2multdiv 0;
#X obj 94 14 inlet;
#X obj 153 330 outlet;
#X obj 177 166 abs;
#X obj 75 193 > 0;
#X obj 178 191 t b f;
#X msg 178 220 1;
#X obj 193 251 /;
#X obj 106 135 t f f;
#X obj 173 281 f;
#X obj 75 221 select 0 1;
#X obj 141 281 f;
#X obj 121 66 == 0;
#X obj 95 43 t f f;
#X obj 106 92 +;
#X connect 0 0 12 0;
#X connect 2 0 4 0;
#X connect 3 0 9 0;
#X connect 4 0 5 0;
#X connect 4 1 6 1;
#X connect 5 0 6 0;
#X connect 6 0 8 1;
#X connect 7 0 3 0;
#X connect 7 1 2 0;
#X connect 7 1 10 1;
#X connect 8 0 1 0;
#X connect 9 0 8 0;
#X connect 9 1 10 0;
#X connect 10 0 1 0;
#X connect 11 0 13 1;
#X connect 12 0 13 0;
#X connect 12 1 11 0;
#X connect 13 0 7 0;
#X restore 510 315 pd plusminus2multdiv;
#N canvas 1 77 508 492 plusminus2multdiv 0;
#X obj 94 14 inlet;
#X obj 153 330 outlet;
#X obj 177 166 abs;
#X obj 75 193 > 0;
#X obj 178 191 t b f;
#X msg 178 220 1;
#X obj 193 251 /;
#X obj 106 135 t f f;
#X obj 173 281 f;
#X obj 75 221 select 0 1;
#X obj 141 281 f;
#X obj 121 66 == 0;
#X obj 95 43 t f f;
#X obj 106 92 +;
#X connect 0 0 12 0;
#X connect 2 0 4 0;
#X connect 3 0 9 0;
#X connect 4 0 5 0;
#X connect 4 1 6 1;
#X connect 5 0 6 0;
#X connect 6 0 8 1;
#X connect 7 0 3 0;
#X connect 7 1 2 0;
#X connect 7 1 10 1;
#X connect 8 0 1 0;
#X connect 9 0 8 0;
#X connect 9 1 10 0;
#X connect 10 0 1 0;
#X connect 11 0 13 1;
#X connect 12 0 13 0;
#X connect 12 1 11 0;
#X connect 13 0 7 0;
#X restore 666 313 pd plusminus2multdiv;
#N canvas 1 77 508 492 plusminus2multdiv 0;
#X obj 94 14 inlet;
#X obj 153 330 outlet;
#X obj 177 166 abs;
#X obj 75 193 > 0;
#X obj 178 191 t b f;
#X msg 178 220 1;
#X obj 193 251 /;
#X obj 106 135 t f f;
#X obj 173 281 f;
#X obj 75 221 select 0 1;
#X obj 141 281 f;
#X obj 121 66 == 0;
#X obj 95 43 t f f;
#X obj 106 92 +;
#X connect 0 0 12 0;
#X connect 2 0 4 0;
#X connect 3 0 9 0;
#X connect 4 0 5 0;
#X connect 4 1 6 1;
#X connect 5 0 6 0;
#X connect 6 0 8 1;
#X connect 7 0 3 0;
#X connect 7 1 2 0;
#X connect 7 1 10 1;
#X connect 8 0 1 0;
#X connect 9 0 8 0;
#X connect 9 1 10 0;
#X connect 10 0 1 0;
#X connect 11 0 13 1;
#X connect 12 0 13 0;
#X connect 12 1 11 0;
#X connect 13 0 7 0;
#X restore 806 309 pd plusminus2multdiv;
#X obj 152 64 loadbang;
#X obj 133 549 outlet;
#X obj 310 557 outlet;
#X obj 436 556 outlet;
#X obj 592 551 outlet;
#X obj 702 551 outlet;
#X obj 9 194 t b;
#X obj 0 151 inlet;
#X text 216 40 bpm for 1st clock \, subdivisons for the 4 other clock-sources.
negative numbers are multiplications. mute-toggle;
#X text -3 127 sync/reset;
#X obj 536 6 r \$0globalbpm1;
#X obj 634 6 inlet;
#X text 673 7 bpm;
#X text 141 17 5 independent clocks \, one master-tempo (bpm) \, sync
button;
#X msg 129 511 127;
#X msg 308 523 127;
#X msg 453 519 127;
#X msg 597 520 127;
#X msg 704 517 127;
#X connect 0 0 6 0;
#X connect 1 0 32 0;
#X connect 2 0 8 0;
#X connect 2 0 10 0;
#X connect 2 0 16 0;
#X connect 2 0 22 0;
#X connect 2 0 28 0;
#X connect 3 0 50 0;
#X connect 4 0 3 1;
#X connect 5 0 9 1;
#X connect 6 0 7 0;
#X connect 7 0 8 1;
#X connect 7 0 11 0;
#X connect 7 0 17 0;
#X connect 7 0 23 0;
#X connect 7 0 29 0;
#X connect 8 0 3 0;
#X connect 9 0 51 0;
#X connect 10 0 9 0;
#X connect 11 0 10 1;
#X connect 12 0 11 0;
#X connect 12 1 11 1;
#X connect 13 0 33 0;
#X connect 14 0 15 1;
#X connect 15 0 52 0;
#X connect 16 0 15 0;
#X connect 17 0 16 1;
#X connect 18 0 17 0;
#X connect 18 1 17 1;
#X connect 19 0 34 0;
#X connect 20 0 21 1;
#X connect 21 0 53 0;
#X connect 22 0 21 0;
#X connect 23 0 22 1;
#X connect 24 0 23 0;
#X connect 24 1 23 1;
#X connect 25 0 35 0;
#X connect 26 0 27 1;
#X connect 27 0 54 0;
#X connect 28 0 27 0;
#X connect 29 0 28 1;
#X connect 30 0 29 0;
#X connect 30 1 29 1;
#X connect 32 0 12 0;
#X connect 33 0 18 0;
#X connect 34 0 24 0;
#X connect 35 0 30 0;
#X connect 36 0 2 0;
#X connect 42 0 8 0;
#X connect 42 0 10 0;
#X connect 42 0 16 0;
#X connect 42 0 22 0;
#X connect 42 0 28 0;
#X connect 43 0 42 0;
#X connect 46 0 0 0;
#X connect 47 0 0 0;
#X connect 50 0 37 0;
#X connect 51 0 38 0;
#X connect 52 0 39 0;
#X connect 53 0 40 0;
#X connect 54 0 41 0;
#X coords 0 -1 1 1 350 16 1 100 100;
#X restore 62 84 pd clk5;
#X obj 18 44 bng 15 250 50 0 empty empty empty 17 7 0 10 -262144 -1
-1;
#N canvas 1 77 450 300 tempo 0;
#X obj 99 185 s \$0globalbpm1;
#X obj 155 102 nbx 3 14 10 500 0 1 empty empty empty 0 -8 0 10 -262144
-1 -1 117 256;
#X obj 203 185 outlet;
#X obj 193 102 bng 15 250 50 0 empty empty empty 17 7 0 10 -262144
-1 -1;
#X connect 1 0 0 0;
#X connect 1 0 2 0;
#X connect 3 0 1 0;
#X coords 0 -1 1 1 110 20 1 100 100;
#X restore 437 63 pd tempo;
#N canvas 266 109 1043 820 scal3 0;
#X obj -104 41 inlet;
#X obj -205 470 outlet;
#X obj 104 134 tgl 15 1 empty empty empty 0 -6 0 8 -262144 -1 -1 0
1;
#X obj 125 134 tgl 15 1 empty empty empty 0 -6 0 8 -262144 -1 -1 1
1;
#X obj 146 134 tgl 15 1 empty empty empty 0 -6 0 8 -262144 -1 -1 1
1;
#X obj 167 134 tgl 15 1 empty empty empty 0 -6 0 8 -262144 -1 -1 0
1;
#X obj 188 134 tgl 15 1 empty empty empty 0 -6 0 8 -262144 -1 -1 1
1;
#X obj 209 134 tgl 15 1 empty empty empty 0 -6 0 8 -262144 -1 -1 0
1;
#X obj 230 134 tgl 15 1 empty empty empty 0 -6 0 8 -262144 -1 -1 1
1;
#X obj 114 116 tgl 15 1 empty empty empty 0 -6 0 8 -166441 -1 -1 0
1;
#X obj 136 116 tgl 15 1 empty empty empty 0 -6 0 8 -166441 -1 -1 0
1;
#X obj 176 116 tgl 15 1 empty empty empty 0 -6 0 8 -166441 -1 -1 1
1;
#X obj 198 116 tgl 15 1 empty empty empty 0 -6 0 8 -166441 -1 -1 0
1;
#X obj 220 116 tgl 15 1 empty empty empty 0 -6 0 8 -166441 -1 -1 1
1;
#X obj -56 39 inlet;
#X obj -74 469 outlet;
#N canvas 38 471 1143 398 notescalefilter12 0;
#X obj 139 40 inlet;
#X obj 228 93 inlet;
#X obj 297 104 inlet;
#X obj 395 106 inlet;
#X obj 497 109 inlet;
#X obj 1397 320 outlet;
#X obj 181 148 mod 12;
#X obj 181 171 == 0;
#X obj 194 227 +;
#X obj 152 124 t f f;
#X obj 209 193 *;
#X obj 291 154 mod 12;
#X obj 304 233 +;
#X obj 319 199 *;
#X obj 291 176 == 1;
#X obj 395 155 mod 12;
#X obj 408 234 +;
#X obj 423 200 *;
#X obj 395 176 == 2;
#X obj 228 124 == 0;
#X obj 312 129 == 0;
#X obj 413 130 == 0;
#X obj 500 157 mod 12;
#X obj 513 236 +;
#X obj 528 202 *;
#X obj 518 132 == 0;
#X obj 247 198 t f f;
#X obj 351 201 t f f;
#X obj 456 203 t f f;
#X obj 608 108 inlet;
#X obj 611 156 mod 12;
#X obj 624 235 +;
#X obj 639 201 *;
#X obj 629 131 == 0;
#X obj 567 202 t f f;
#X obj 500 178 == 3;
#X obj 611 177 == 4;
#X obj 723 103 inlet;
#X obj 828 105 inlet;
#X obj 930 108 inlet;
#X obj 717 153 mod 12;
#X obj 730 232 +;
#X obj 745 198 *;
#X obj 828 154 mod 12;
#X obj 841 233 +;
#X obj 856 199 *;
#X obj 738 128 == 0;
#X obj 846 129 == 0;
#X obj 933 156 mod 12;
#X obj 946 235 +;
#X obj 961 201 *;
#X obj 951 131 == 0;
#X obj 673 197 t f f;
#X obj 784 200 t f f;
#X obj 889 202 t f f;
#X obj 1041 107 inlet;
#X obj 1044 155 mod 12;
#X obj 1057 234 +;
#X obj 1072 200 *;
#X obj 1062 130 == 0;
#X obj 1000 201 t f f;
#X obj 717 175 == 5;
#X obj 827 175 == 6;
#X obj 933 177 == 7;
#X obj 1044 176 == 8;
#X obj 1154 106 inlet;
#X obj 1259 108 inlet;
#X obj 1361 111 inlet;
#X obj 1148 156 mod 12;
#X obj 1161 235 +;
#X obj 1176 201 *;
#X obj 1259 157 mod 12;
#X obj 1272 236 +;
#X obj 1287 202 *;
#X obj 1169 131 == 0;
#X obj 1277 132 == 0;
#X obj 1364 159 mod 12;
#X obj 1377 238 +;
#X obj 1392 204 *;
#X obj 1382 134 == 0;
#X obj 1104 200 t f f;
#X obj 1215 203 t f f;
#X obj 1320 205 t f f;
#X obj 1148 178 == 9;
#X obj 1259 178 == 10;
#X obj 1364 180 == 11;
#X floatatom 187 278 5 0 0 0 - - -, f 5;
#X connect 0 0 9 0;
#X connect 1 0 19 0;
#X connect 2 0 20 0;
#X connect 3 0 21 0;
#X connect 4 0 25 0;
#X connect 6 0 7 0;
#X connect 7 0 10 0;
#X connect 8 0 26 0;
#X connect 8 0 86 0;
#X connect 9 0 8 0;
#X connect 9 1 6 0;
#X connect 10 0 8 1;
#X connect 11 0 14 0;
#X connect 12 0 27 0;
#X connect 13 0 12 1;
#X connect 14 0 13 0;
#X connect 15 0 18 0;
#X connect 16 0 28 0;
#X connect 17 0 16 1;
#X connect 18 0 17 0;
#X connect 19 0 10 1;
#X connect 20 0 13 1;
#X connect 21 0 17 1;
#X connect 22 0 35 0;
#X connect 23 0 34 0;
#X connect 24 0 23 1;
#X connect 25 0 24 1;
#X connect 26 0 12 0;
#X connect 26 1 11 0;
#X connect 27 0 16 0;
#X connect 27 1 15 0;
#X connect 28 0 23 0;
#X connect 28 1 22 0;
#X connect 29 0 33 0;
#X connect 30 0 36 0;
#X connect 31 0 52 0;
#X connect 32 0 31 1;
#X connect 33 0 32 1;
#X connect 34 0 31 0;
#X connect 34 1 30 0;
#X connect 35 0 24 0;
#X connect 36 0 32 0;
#X connect 37 0 46 0;
#X connect 38 0 47 0;
#X connect 39 0 51 0;
#X connect 40 0 61 0;
#X connect 41 0 53 0;
#X connect 42 0 41 1;
#X connect 43 0 62 0;
#X connect 44 0 54 0;
#X connect 45 0 44 1;
#X connect 46 0 42 1;
#X connect 47 0 45 1;
#X connect 48 0 63 0;
#X connect 49 0 60 0;
#X connect 50 0 49 1;
#X connect 51 0 50 1;
#X connect 52 0 41 0;
#X connect 52 1 40 0;
#X connect 53 0 44 0;
#X connect 53 1 43 0;
#X connect 54 0 49 0;
#X connect 54 1 48 0;
#X connect 55 0 59 0;
#X connect 56 0 64 0;
#X connect 57 0 80 0;
#X connect 58 0 57 1;
#X connect 59 0 58 1;
#X connect 60 0 57 0;
#X connect 60 1 56 0;
#X connect 61 0 42 0;
#X connect 62 0 45 0;
#X connect 63 0 50 0;
#X connect 64 0 58 0;
#X connect 65 0 74 0;
#X connect 66 0 75 0;
#X connect 67 0 79 0;
#X connect 68 0 83 0;
#X connect 69 0 81 0;
#X connect 70 0 69 1;
#X connect 71 0 84 0;
#X connect 72 0 82 0;
#X connect 73 0 72 1;
#X connect 74 0 70 1;
#X connect 75 0 73 1;
#X connect 76 0 85 0;
#X connect 77 0 5 0;
#X connect 78 0 77 1;
#X connect 79 0 78 1;
#X connect 80 0 69 0;
#X connect 80 1 68 0;
#X connect 81 0 72 0;
#X connect 81 1 71 0;
#X connect 82 0 77 0;
#X connect 82 1 76 0;
#X connect 83 0 70 0;
#X connect 84 0 73 0;
#X connect 85 0 78 0;
#X restore -204 401 pd notescalefilter12;
#N canvas 38 471 1143 398 notescalefilter12 0;
#X obj 139 40 inlet;
#X obj 228 93 inlet;
#X obj 297 104 inlet;
#X obj 395 106 inlet;
#X obj 497 109 inlet;
#X obj 1397 320 outlet;
#X obj 181 148 mod 12;
#X obj 181 171 == 0;
#X obj 194 227 +;
#X obj 152 124 t f f;
#X obj 209 193 *;
#X obj 291 154 mod 12;
#X obj 304 233 +;
#X obj 319 199 *;
#X obj 291 176 == 1;
#X obj 395 155 mod 12;
#X obj 408 234 +;
#X obj 423 200 *;
#X obj 395 176 == 2;
#X obj 228 124 == 0;
#X obj 312 129 == 0;
#X obj 413 130 == 0;
#X obj 500 157 mod 12;
#X obj 513 236 +;
#X obj 528 202 *;
#X obj 518 132 == 0;
#X obj 247 198 t f f;
#X obj 351 201 t f f;
#X obj 456 203 t f f;
#X obj 608 108 inlet;
#X obj 611 156 mod 12;
#X obj 624 235 +;
#X obj 639 201 *;
#X obj 629 131 == 0;
#X obj 567 202 t f f;
#X obj 500 178 == 3;
#X obj 611 177 == 4;
#X obj 723 103 inlet;
#X obj 828 105 inlet;
#X obj 930 108 inlet;
#X obj 717 153 mod 12;
#X obj 730 232 +;
#X obj 745 198 *;
#X obj 828 154 mod 12;
#X obj 841 233 +;
#X obj 856 199 *;
#X obj 738 128 == 0;
#X obj 846 129 == 0;
#X obj 933 156 mod 12;
#X obj 946 235 +;
#X obj 961 201 *;
#X obj 951 131 == 0;
#X obj 673 197 t f f;
#X obj 784 200 t f f;
#X obj 889 202 t f f;
#X obj 1041 107 inlet;
#X obj 1044 155 mod 12;
#X obj 1057 234 +;
#X obj 1072 200 *;
#X obj 1062 130 == 0;
#X obj 1000 201 t f f;
#X obj 717 175 == 5;
#X obj 827 175 == 6;
#X obj 933 177 == 7;
#X obj 1044 176 == 8;
#X obj 1154 106 inlet;
#X obj 1259 108 inlet;
#X obj 1361 111 inlet;
#X obj 1148 156 mod 12;
#X obj 1161 235 +;
#X obj 1176 201 *;
#X obj 1259 157 mod 12;
#X obj 1272 236 +;
#X obj 1287 202 *;
#X obj 1169 131 == 0;
#X obj 1277 132 == 0;
#X obj 1364 159 mod 12;
#X obj 1377 238 +;
#X obj 1392 204 *;
#X obj 1382 134 == 0;
#X obj 1104 200 t f f;
#X obj 1215 203 t f f;
#X obj 1320 205 t f f;
#X obj 1148 178 == 9;
#X obj 1259 178 == 10;
#X obj 1364 180 == 11;
#X floatatom 187 278 5 0 0 0 - - -, f 5;
#X connect 0 0 9 0;
#X connect 1 0 19 0;
#X connect 2 0 20 0;
#X connect 3 0 21 0;
#X connect 4 0 25 0;
#X connect 6 0 7 0;
#X connect 7 0 10 0;
#X connect 8 0 26 0;
#X connect 8 0 86 0;
#X connect 9 0 8 0;
#X connect 9 1 6 0;
#X connect 10 0 8 1;
#X connect 11 0 14 0;
#X connect 12 0 27 0;
#X connect 13 0 12 1;
#X connect 14 0 13 0;
#X connect 15 0 18 0;
#X connect 16 0 28 0;
#X connect 17 0 16 1;
#X connect 18 0 17 0;
#X connect 19 0 10 1;
#X connect 20 0 13 1;
#X connect 21 0 17 1;
#X connect 22 0 35 0;
#X connect 23 0 34 0;
#X connect 24 0 23 1;
#X connect 25 0 24 1;
#X connect 26 0 12 0;
#X connect 26 1 11 0;
#X connect 27 0 16 0;
#X connect 27 1 15 0;
#X connect 28 0 23 0;
#X connect 28 1 22 0;
#X connect 29 0 33 0;
#X connect 30 0 36 0;
#X connect 31 0 52 0;
#X connect 32 0 31 1;
#X connect 33 0 32 1;
#X connect 34 0 31 0;
#X connect 34 1 30 0;
#X connect 35 0 24 0;
#X connect 36 0 32 0;
#X connect 37 0 46 0;
#X connect 38 0 47 0;
#X connect 39 0 51 0;
#X connect 40 0 61 0;
#X connect 41 0 53 0;
#X connect 42 0 41 1;
#X connect 43 0 62 0;
#X connect 44 0 54 0;
#X connect 45 0 44 1;
#X connect 46 0 42 1;
#X connect 47 0 45 1;
#X connect 48 0 63 0;
#X connect 49 0 60 0;
#X connect 50 0 49 1;
#X connect 51 0 50 1;
#X connect 52 0 41 0;
#X connect 52 1 40 0;
#X connect 53 0 44 0;
#X connect 53 1 43 0;
#X connect 54 0 49 0;
#X connect 54 1 48 0;
#X connect 55 0 59 0;
#X connect 56 0 64 0;
#X connect 57 0 80 0;
#X connect 58 0 57 1;
#X connect 59 0 58 1;
#X connect 60 0 57 0;
#X connect 60 1 56 0;
#X connect 61 0 42 0;
#X connect 62 0 45 0;
#X connect 63 0 50 0;
#X connect 64 0 58 0;
#X connect 65 0 74 0;
#X connect 66 0 75 0;
#X connect 67 0 79 0;
#X connect 68 0 83 0;
#X connect 69 0 81 0;
#X connect 70 0 69 1;
#X connect 71 0 84 0;
#X connect 72 0 82 0;
#X connect 73 0 72 1;
#X connect 74 0 70 1;
#X connect 75 0 73 1;
#X connect 76 0 85 0;
#X connect 77 0 5 0;
#X connect 78 0 77 1;
#X connect 79 0 78 1;
#X connect 80 0 69 0;
#X connect 80 1 68 0;
#X connect 81 0 72 0;
#X connect 81 1 71 0;
#X connect 82 0 77 0;
#X connect 82 1 76 0;
#X connect 83 0 70 0;
#X connect 84 0 73 0;
#X connect 85 0 78 0;
#X restore -73 400 pd notescalefilter12;
#X obj 153 102 hradio 12 1 1 8 empty empty empty 0 -8 0 10 -262144
-1 -1 0;
#X obj 12 40 inlet;
#X obj 64 471 outlet;
#N canvas 38 471 1143 398 notescalefilter12 0;
#X obj 139 40 inlet;
#X obj 228 93 inlet;
#X obj 297 104 inlet;
#X obj 395 106 inlet;
#X obj 497 109 inlet;
#X obj 1397 320 outlet;
#X obj 181 148 mod 12;
#X obj 181 171 == 0;
#X obj 194 227 +;
#X obj 152 124 t f f;
#X obj 209 193 *;
#X obj 291 154 mod 12;
#X obj 304 233 +;
#X obj 319 199 *;
#X obj 291 176 == 1;
#X obj 395 155 mod 12;
#X obj 408 234 +;
#X obj 423 200 *;
#X obj 395 176 == 2;
#X obj 228 124 == 0;
#X obj 312 129 == 0;
#X obj 413 130 == 0;
#X obj 500 157 mod 12;
#X obj 513 236 +;
#X obj 528 202 *;
#X obj 518 132 == 0;
#X obj 247 198 t f f;
#X obj 351 201 t f f;
#X obj 456 203 t f f;
#X obj 608 108 inlet;
#X obj 611 156 mod 12;
#X obj 624 235 +;
#X obj 639 201 *;
#X obj 629 131 == 0;
#X obj 567 202 t f f;
#X obj 500 178 == 3;
#X obj 611 177 == 4;
#X obj 723 103 inlet;
#X obj 828 105 inlet;
#X obj 930 108 inlet;
#X obj 717 153 mod 12;
#X obj 730 232 +;
#X obj 745 198 *;
#X obj 828 154 mod 12;
#X obj 841 233 +;
#X obj 856 199 *;
#X obj 738 128 == 0;
#X obj 846 129 == 0;
#X obj 933 156 mod 12;
#X obj 946 235 +;
#X obj 961 201 *;
#X obj 951 131 == 0;
#X obj 673 197 t f f;
#X obj 784 200 t f f;
#X obj 889 202 t f f;
#X obj 1041 107 inlet;
#X obj 1044 155 mod 12;
#X obj 1057 234 +;
#X obj 1072 200 *;
#X obj 1062 130 == 0;
#X obj 1000 201 t f f;
#X obj 717 175 == 5;
#X obj 827 175 == 6;
#X obj 933 177 == 7;
#X obj 1044 176 == 8;
#X obj 1154 106 inlet;
#X obj 1259 108 inlet;
#X obj 1361 111 inlet;
#X obj 1148 156 mod 12;
#X obj 1161 235 +;
#X obj 1176 201 *;
#X obj 1259 157 mod 12;
#X obj 1272 236 +;
#X obj 1287 202 *;
#X obj 1169 131 == 0;
#X obj 1277 132 == 0;
#X obj 1364 159 mod 12;
#X obj 1377 238 +;
#X obj 1392 204 *;
#X obj 1382 134 == 0;
#X obj 1104 200 t f f;
#X obj 1215 203 t f f;
#X obj 1320 205 t f f;
#X obj 1148 178 == 9;
#X obj 1259 178 == 10;
#X obj 1364 180 == 11;
#X floatatom 187 278 5 0 0 0 - - -, f 5;
#X connect 0 0 9 0;
#X connect 1 0 19 0;
#X connect 2 0 20 0;
#X connect 3 0 21 0;
#X connect 4 0 25 0;
#X connect 6 0 7 0;
#X connect 7 0 10 0;
#X connect 8 0 26 0;
#X connect 8 0 86 0;
#X connect 9 0 8 0;
#X connect 9 1 6 0;
#X connect 10 0 8 1;
#X connect 11 0 14 0;
#X connect 12 0 27 0;
#X connect 13 0 12 1;
#X connect 14 0 13 0;
#X connect 15 0 18 0;
#X connect 16 0 28 0;
#X connect 17 0 16 1;
#X connect 18 0 17 0;
#X connect 19 0 10 1;
#X connect 20 0 13 1;
#X connect 21 0 17 1;
#X connect 22 0 35 0;
#X connect 23 0 34 0;
#X connect 24 0 23 1;
#X connect 25 0 24 1;
#X connect 26 0 12 0;
#X connect 26 1 11 0;
#X connect 27 0 16 0;
#X connect 27 1 15 0;
#X connect 28 0 23 0;
#X connect 28 1 22 0;
#X connect 29 0 33 0;
#X connect 30 0 36 0;
#X connect 31 0 52 0;
#X connect 32 0 31 1;
#X connect 33 0 32 1;
#X connect 34 0 31 0;
#X connect 34 1 30 0;
#X connect 35 0 24 0;
#X connect 36 0 32 0;
#X connect 37 0 46 0;
#X connect 38 0 47 0;
#X connect 39 0 51 0;
#X connect 40 0 61 0;
#X connect 41 0 53 0;
#X connect 42 0 41 1;
#X connect 43 0 62 0;
#X connect 44 0 54 0;
#X connect 45 0 44 1;
#X connect 46 0 42 1;
#X connect 47 0 45 1;
#X connect 48 0 63 0;
#X connect 49 0 60 0;
#X connect 50 0 49 1;
#X connect 51 0 50 1;
#X connect 52 0 41 0;
#X connect 52 1 40 0;
#X connect 53 0 44 0;
#X connect 53 1 43 0;
#X connect 54 0 49 0;
#X connect 54 1 48 0;
#X connect 55 0 59 0;
#X connect 56 0 64 0;
#X connect 57 0 80 0;
#X connect 58 0 57 1;
#X connect 59 0 58 1;
#X connect 60 0 57 0;
#X connect 60 1 56 0;
#X connect 61 0 42 0;
#X connect 62 0 45 0;
#X connect 63 0 50 0;
#X connect 64 0 58 0;
#X connect 65 0 74 0;
#X connect 66 0 75 0;
#X connect 67 0 79 0;
#X connect 68 0 83 0;
#X connect 69 0 81 0;
#X connect 70 0 69 1;
#X connect 71 0 84 0;
#X connect 72 0 82 0;
#X connect 73 0 72 1;
#X connect 74 0 70 1;
#X connect 75 0 73 1;
#X connect 76 0 85 0;
#X connect 77 0 5 0;
#X connect 78 0 77 1;
#X connect 79 0 78 1;
#X connect 80 0 69 0;
#X connect 80 1 68 0;
#X connect 81 0 72 0;
#X connect 81 1 71 0;
#X connect 82 0 77 0;
#X connect 82 1 76 0;
#X connect 83 0 70 0;
#X connect 84 0 73 0;
#X connect 85 0 78 0;
#X restore 63 403 pd notescalefilter12;
#X obj 602 -4 inlet;
#X obj 589 23 clip 0 8;
#X obj 395 415 route 0 1 2 3 4 5 6 7;
#X obj 401 391 pack f s f f f f f f f f f f f f;
#X msg 516 308 symbol set;
#X obj 516 277 loadbang;
#X obj 343 -9 unpack f f f f f f f f f f f f;
#X msg 398 441 0 0 1 0 1 0 1 1 0 0 1 1;
#X obj 765 326 select 0 1 2 3 4 5 6 7;
#X obj 357 365 int;
#X obj 303 345 t b;
#X obj 303 372 delay 1;
#X text 9 -7 force to scale \, 3 in 3 out (same scale) \, 8 presets
;
#X text 650 -1 preset nr (0..7);
#X msg 410 468 1 1 1 1 1 1 1 1 1 1 1 1;
#X msg 427 504 1 1 1 1 1 1 1 1 1 1 1 1;
#X msg 439 531 1 1 1 1 1 1 1 1 1 1 1 1;
#X msg 457 558 1 1 1 1 1 1 1 1 1 1 1 1;
#X msg 469 585 1 1 1 1 1 1 1 1 1 1 1 1;
#X msg 483 620 1 1 1 1 1 1 1 1 1 1 1 1;
#X msg 498 648 1 1 1 1 1 1 1 1 1 1 1 1;
#X connect 0 0 16 0;
#X connect 2 0 16 1;
#X connect 2 0 17 1;
#X connect 2 0 21 1;
#X connect 2 0 25 2;
#X connect 2 0 32 0;
#X connect 3 0 16 3;
#X connect 3 0 17 3;
#X connect 3 0 21 3;
#X connect 3 0 25 4;
#X connect 3 0 32 0;
#X connect 4 0 16 5;
#X connect 4 0 17 5;
#X connect 4 0 21 5;
#X connect 4 0 25 6;
#X connect 4 0 32 0;
#X connect 5 0 16 6;
#X connect 5 0 17 6;
#X connect 5 0 21 6;
#X connect 5 0 25 7;
#X connect 5 0 32 0;
#X connect 6 0 16 8;
#X connect 6 0 17 8;
#X connect 6 0 21 8;
#X connect 6 0 25 9;
#X connect 6 0 32 0;
#X connect 7 0 16 10;
#X connect 7 0 17 10;
#X connect 7 0 21 10;
#X connect 7 0 25 11;
#X connect 7 0 32 0;
#X connect 8 0 16 12;
#X connect 8 0 17 12;
#X connect 8 0 21 12;
#X connect 8 0 25 13;
#X connect 8 0 32 0;
#X connect 9 0 16 2;
#X connect 9 0 17 2;
#X connect 9 0 21 2;
#X connect 9 0 25 3;
#X connect 9 0 32 0;
#X connect 10 0 16 4;
#X connect 10 0 17 4;
#X connect 10 0 21 4;
#X connect 10 0 25 5;
#X connect 10 0 32 0;
#X connect 11 0 16 7;
#X connect 11 0 17 7;
#X connect 11 0 21 7;
#X connect 11 0 25 8;
#X connect 11 0 32 0;
#X connect 12 0 16 9;
#X connect 12 0 17 9;
#X connect 12 0 21 9;
#X connect 12 0 25 10;
#X connect 12 0 32 0;
#X connect 13 0 16 11;
#X connect 13 0 17 11;
#X connect 13 0 21 11;
#X connect 13 0 25 12;
#X connect 13 0 32 0;
#X connect 14 0 17 0;
#X connect 16 0 1 0;
#X connect 17 0 15 0;
#X connect 18 0 30 0;
#X connect 18 0 31 1;
#X connect 19 0 21 0;
#X connect 21 0 20 0;
#X connect 22 0 23 0;
#X connect 23 0 18 0;
#X connect 24 0 29 0;
#X connect 24 1 36 0;
#X connect 24 2 37 0;
#X connect 24 3 38 0;
#X connect 24 4 39 0;
#X connect 24 5 40 0;
#X connect 24 6 41 0;
#X connect 24 7 42 0;
#X connect 25 0 24 0;
#X connect 26 0 25 1;
#X connect 27 0 26 0;
#X connect 28 0 2 0;
#X connect 28 1 9 0;
#X connect 28 2 3 0;
#X connect 28 3 10 0;
#X connect 28 4 4 0;
#X connect 28 5 5 0;
#X connect 28 6 11 0;
#X connect 28 7 6 0;
#X connect 28 8 12 0;
#X connect 28 9 7 0;
#X connect 28 10 13 0;
#X connect 28 11 8 0;
#X connect 29 0 28 0;
#X connect 30 0 29 0;
#X connect 30 1 36 0;
#X connect 30 2 37 0;
#X connect 30 3 38 0;
#X connect 30 4 39 0;
#X connect 30 5 40 0;
#X connect 30 6 41 0;
#X connect 30 7 42 0;
#X connect 31 0 25 0;
#X connect 32 0 33 0;
#X connect 33 0 31 0;
#X connect 36 0 28 0;
#X connect 37 0 28 0;
#X connect 38 0 28 0;
#X connect 39 0 28 0;
#X connect 40 0 28 0;
#X connect 41 0 28 0;
#X connect 42 0 28 0;
#X coords 0 -1 1 1 150 50 1 100 100;
#X restore 37 465 pd scal3;
#N canvas 656 121 1011 709 monominimalrnd3 0;
#X obj 191 287 / 100;
#X obj 162 114 nbx 3 14 1 99 0 1 empty empty empty 0 -8 0 10 -262144
-1 -1 50.1814 256;
#X obj 103 114 bng 15 250 50 0 empty empty r 4 7 0 10 -262144 -1 -1
;
#X obj 76 273 + 50;
#X obj 86 252 random 30;
#X obj 123 114 nbx 3 14 2 32 0 1 empty empty empty 0 -8 0 10 -262144
-1 -1 12 256;
#X obj 106 130 hsl 110 8 0 1 0 0 empty empty empty -2 -8 0 10 -262144
-1 -1 0 1;
#X obj 257 289 /;
#X obj 317 43 inlet;
#X text 362 41 tp;
#X obj 3 57 inlet;
#X text 6 37 advance clock;
#X obj 71 321 abs_mono_minimal_random_seq3;
#X obj 63 382 outlet;
#X obj 120 382 outlet;
#X obj 174 380 outlet;
#X text 131 364 vel;
#X text 74 364 pitch;
#X text 174 362 duration;
#X text 203 8 repetitive random pattern with slight variation;
#X obj 4 95 t b;
#X obj 142 41 inlet;
#X text 182 36 reset;
#X obj 222 64 / 1.28;
#X obj 238 41 inlet;
#X text 238 25 threshold;
#X obj 202 113 bng 15 250 50 0 empty empty s 4 7 0 10 -262144 -1 -1
;
#X msg 401 436 0.428 0.53 0.728 1 0.471 0.462 0.152 0.0503226 0.921
0.373 0.396 0.640645 0.094 0.192 0.339 0.604516 0.76 0.768 0.595 0.147742
0.835 0.396 0.798 0.291613 0.609 0.717 0.897 0.492258 0.735 0.673 0.175
0.0974194 0.75 0.713 0.273 0.0445161 0.465 0.027 0.052 0.540645 0.136
0.161 0.702 0.305806 0.873 0.906 0.062 0.605161 0.319 0.924 0.671 0.6
0.182 0.144 0.651 0.179355 0.785 0.52 0.065 0.0632258 0.328 0.289 0.973
0.683871 0.169 0.463 0.95 0.511613 0.931 0.818 0.427 0.28129 0.865
0.231 0.738 0.463871 0.415 0.749 0.342 0.252903 0.524 0.386 0.258 0.611613
0.764 0.138 0.289 0.952903 0.945 0.336 0.2 0.163226 0.42 0.971 0.548
0.587097 0.856 0.223 0.464 0.433548 0.823 0.945 0.205 0.395484 0.087
0.472 0.892 0.0477419 0.089 0.636 0.395 0.587097 0.627 0.462 0.892
0.06 0.33 0.566 0.187 0.361935 0.083 0.851 0.454 0.823871 0.113 0.652
0.603 0.101935;
#X obj 386 211 loadbang;
#X obj 401 249 delay 2;
#X obj 401 43 inlet;
#X text 439 45 randomize;
#X obj 289 343 outlet;
#X text 334 346 length;
#X connect 0 0 12 4;
#X connect 1 0 0 0;
#X connect 2 0 4 0;
#X connect 2 0 12 0;
#X connect 3 0 1 0;
#X connect 4 0 3 0;
#X connect 5 0 7 1;
#X connect 5 0 12 1;
#X connect 5 0 32 0;
#X connect 7 0 6 0;
#X connect 8 0 12 5;
#X connect 10 0 20 0;
#X connect 12 0 5 0;
#X connect 12 1 13 0;
#X connect 12 2 14 0;
#X connect 12 3 15 0;
#X connect 12 4 7 0;
#X connect 12 5 27 0;
#X connect 20 0 12 2;
#X connect 21 0 26 0;
#X connect 23 0 1 0;
#X connect 24 0 23 0;
#X connect 26 0 12 3;
#X connect 27 0 12 6;
#X connect 28 0 29 0;
#X connect 29 0 27 0;
#X connect 30 0 2 0;
#X coords 0 -1 1 1 120 40 1 100 100;
#X restore 21 341 pd monominimalrnd3;
#N canvas 658 122 1011 709 monominimalrnd3 0;
#X obj 191 287 / 100;
#X obj 162 114 nbx 3 14 1 99 0 1 empty empty empty 0 -8 0 10 -262144
-1 -1 52.4766 256;
#X obj 103 114 bng 15 250 50 0 empty empty r 4 7 0 10 -262144 -1 -1
;
#X obj 76 273 + 50;
#X obj 86 252 random 30;
#X obj 123 114 nbx 3 14 2 32 0 1 empty empty empty 0 -8 0 10 -262144
-1 -1 12 256;
#X obj 106 130 hsl 110 8 0 1 0 0 empty empty empty -2 -8 0 10 -262144
-1 -1 0 1;
#X obj 257 289 /;
#X obj 317 43 inlet;
#X text 362 41 tp;
#X obj 3 57 inlet;
#X text 6 37 advance clock;
#X obj 71 321 abs_mono_minimal_random_seq3;
#X obj 63 382 outlet;
#X obj 120 382 outlet;
#X obj 174 380 outlet;
#X text 131 364 vel;
#X text 74 364 pitch;
#X text 174 362 duration;
#X text 203 8 repetitive random pattern with slight variation;
#X obj 4 95 t b;
#X obj 142 41 inlet;
#X text 182 36 reset;
#X obj 222 64 / 1.28;
#X obj 238 41 inlet;
#X text 238 25 threshold;
#X obj 202 113 bng 15 250 50 0 empty empty s 4 7 0 10 -262144 -1 -1
;
#X msg 401 436 0 0.946 0.861 0.270372 0.775 0.557 0.635 0.504048 0.383
0.691 0.268 0.27415 0.376 0.421 0.988 0.295197 0.206 0.242 0.485 0.685375
0.528 0.428 0.277 0.22558 0.2 0.368 0.749 0.688613 0.697 0.046 0.063
0.522396 0.222 0.364 0.738 0.56449 0.328 0.591 0.223 0.473287 0.496
0.785 0.368 0.405289 0.586 0.58 0.264 0.510523 0.733 0.309 0.477 0.899622
0.741 0.985 0.261 0.329196 0.649 0.243 0.906 0.460874 0.686 0.871 0.944
0.312466 0.368 0.174 0.466 0.556935 0.109 0.926 0.425 0.0723152 0.221
0.257 0.295 0.0917431 0.788 0.385 0.067 0.296816 0.428 0.643 0.112
0.486778 0.541 0.84 0.986 0.0906638 0.185 0.547 0.851 0.747437 0.312
0.444 0.703 0.328656 0.623 0.464 0.199 1 0.894 0.002 0.429 0.332974
0.17 0.016 0.511 0.331355 0.797 0.456 0.5 0.0318403 0.804 0.944 0.624
0.459795 0.756 0.263 0.44 0.298435 0.688 0.739 0.063 0.603346 0.378
0.154 0.178 0.130059;
#X obj 386 211 loadbang;
#X obj 401 249 delay 2;
#X obj 401 43 inlet;
#X text 439 45 randomize;
#X obj 289 343 outlet;
#X text 334 346 length;
#X connect 0 0 12 4;
#X connect 1 0 0 0;
#X connect 2 0 4 0;
#X connect 2 0 12 0;
#X connect 3 0 1 0;
#X connect 4 0 3 0;
#X connect 5 0 7 1;
#X connect 5 0 12 1;
#X connect 5 0 32 0;
#X connect 7 0 6 0;
#X connect 8 0 12 5;
#X connect 10 0 20 0;
#X connect 12 0 5 0;
#X connect 12 1 13 0;
#X connect 12 2 14 0;
#X connect 12 3 15 0;
#X connect 12 4 7 0;
#X connect 12 5 27 0;
#X connect 20 0 12 2;
#X connect 21 0 26 0;
#X connect 23 0 1 0;
#X connect 24 0 23 0;
#X connect 26 0 12 3;
#X connect 27 0 12 6;
#X connect 28 0 29 0;
#X connect 29 0 27 0;
#X connect 30 0 2 0;
#X coords 0 -1 1 1 120 40 1 100 100;
#X restore 168 342 pd monominimalrnd3;
#N canvas 1014 327 755 431 polynotes 0;
#X obj 243 14 inlet;
#X obj 242 40 / 128;
#X text 244 -2 notelen;
#X obj 333 175 + 1;
#X obj 360 204 *;
#X obj 261 267 *;
#X obj 330 46 pow -1;
#X obj 331 69 * 60000;
#X obj 331 3 r \$0globalbpm1;
#X obj 429 3 inlet;
#X text 473 5 bpm;
#X obj 354 150 t b f;
#X obj 175 103 hradio 11 1 1 5 empty empty l 0 5 0 10 -262144 -1 -1
0;
#X obj 26 22 inlet;
#X obj 96 21 inlet;
#X text 30 2 pitch/trigger;
#X obj 261 378 outlet;
#X obj 338 380 outlet;
#X text 279 357 pitch/gate;
#X obj 216 321 makenote;
#X obj 233 101 nbx 3 14 0 127 0 1 empty empty empty 0 -8 0 10 -262144
-1 -1 127 256;
#X obj 271 124 / 128;
#X obj 355 127 *;
#X obj 182 -4 loadbang;
#X msg 198 36 1;
#X obj 376 87 t b f;
#X connect 0 0 1 0;
#X connect 1 0 22 0;
#X connect 3 0 4 0;
#X connect 4 0 5 0;
#X connect 5 0 19 2;
#X connect 6 0 7 0;
#X connect 7 0 5 1;
#X connect 8 0 6 0;
#X connect 9 0 6 0;
#X connect 11 0 4 0;
#X connect 11 1 4 1;
#X connect 12 0 3 0;
#X connect 13 0 19 0;
#X connect 14 0 19 1;
#X connect 19 0 16 0;
#X connect 19 1 17 0;
#X connect 20 0 21 0;
#X connect 21 0 25 0;
#X connect 22 0 11 0;
#X connect 23 0 24 0;
#X connect 24 0 22 0;
#X connect 25 0 22 0;
#X connect 25 1 22 1;
#X coords 0 -1 1 1 170 15 1 100 100;
#X restore 65 565 pd polynotes;
#N canvas 1 77 977 518 reverb2 0;
#X obj 25 29 inlet~;
#X obj 6 365 outlet~;
#X obj 97 366 outlet~;
#X obj 105 113 hsl 80 10 1 0 0 1 empty empty lv 2 5 0 10 -262144 -1
-1 3200 1;
#X obj 107 195 *;
#X obj 114 228 *;
#X obj 84 164 t b f f;
#X obj 98 253 -;
#X msg 82 231 1;
#X obj 117 285 * 100;
#X obj 76 321 rev2~ 100 90 3000 20;
#X obj 105 126 hsl 80 10 1 0 0 1 empty empty dp 2 5 0 10 -262144 -1
-1 5400 1;
#X obj 180 215 *;
#X obj 184 239 *;
#X obj 171 188 t f f;
#X obj 186 271 * 100;
#X obj 105 138 hsl 80 10 1 0 0 1 empty empty co 2 5 0 10 -262144 -1
-1 5700 1;
#X obj 167 294 * 6000;
#X connect 0 0 10 0;
#X connect 3 0 6 0;
#X connect 4 0 5 1;
#X connect 4 0 5 0;
#X connect 5 0 7 1;
#X connect 6 0 8 0;
#X connect 6 1 4 0;
#X connect 6 2 4 1;
#X connect 7 0 9 0;
#X connect 8 0 7 0;
#X connect 9 0 10 2;
#X connect 10 0 1 0;
#X connect 10 1 2 0;
#X connect 11 0 14 0;
#X connect 12 0 13 1;
#X connect 12 0 13 0;
#X connect 13 0 15 0;
#X connect 14 0 12 0;
#X connect 14 1 12 1;
#X connect 15 0 10 4;
#X connect 16 0 17 0;
#X connect 17 0 10 3;
#X coords 0 -1 1 1 90 50 1 100 100;
#X restore 183 720 pd reverb2;
#N canvas 414 349 647 536 lvl1 0;
#X obj -8 -12 inlet~;
#X obj 53 358 outlet~;
#X obj 154 227 *;
#X obj 53 330 *~;
#X obj 106 119 hsl 80 8 0 80 0 1 empty empty empty -2 -8 0 10 -262144
-1 -1 1500 1;
#X obj 103 251 *;
#X obj 119 -7 inlet;
#X obj 152 103 nbx 3 14 1 999 0 1 empty empty empty 0 -8 0 10 -262144
-1 -1 100 256;
#X obj 85 209 / 100;
#X obj 155 205 t f f;
#X obj 59 149 t b f;
#X text 201 54 adjust volume level (mono);
#X text 120 -23 lvl (0..127);
#X text 197 102 scale (percent);
#X obj 78 312 line~;
#X msg 86 287 \$1 10;
#X obj 73 12 int;
#X obj 74 32 change;
#X obj 120 22 / 128;
#X msg 78 59 set \$1;
#X obj 149 184 f;
#X obj 64 -11 * 80;
#X obj 176 185 / 80;
#X connect 0 0 3 0;
#X connect 2 0 5 0;
#X connect 3 0 1 0;
#X connect 4 0 22 0;
#X connect 5 0 15 0;
#X connect 6 0 18 0;
#X connect 7 0 10 0;
#X connect 8 0 5 1;
#X connect 9 0 2 0;
#X connect 9 1 2 1;
#X connect 10 0 20 0;
#X connect 10 0 4 0;
#X connect 10 1 8 0;
#X connect 14 0 3 1;
#X connect 15 0 14 0;
#X connect 16 0 17 0;
#X connect 17 0 19 0;
#X connect 18 0 20 0;
#X connect 19 0 4 0;
#X connect 20 0 9 0;
#X connect 20 0 21 0;
#X connect 21 0 16 0;
#X connect 22 0 9 0;
#X coords 0 -1 1 1 90 30 1 100 100;
#X restore 180 680 pd lvl1;
#N canvas 658 122 1011 709 monominimalrnd3 0;
#X obj 191 287 / 100;
#X obj 162 114 nbx 3 14 1 99 0 1 empty empty empty 0 -8 0 10 -262144
-1 -1 61.54 256;
#X obj 103 114 bng 15 250 50 0 empty empty r 4 7 0 10 -262144 -1 -1
;
#X obj 76 273 + 50;
#X obj 86 252 random 30;
#X obj 123 114 nbx 3 14 2 32 0 1 empty empty empty 0 -8 0 10 -262144
-1 -1 21 256;
#X obj 106 130 hsl 110 8 0 1 0 0 empty empty empty -2 -8 0 10 -262144
-1 -1 6229 1;
#X obj 257 289 /;
#X obj 317 43 inlet;
#X text 362 41 tp;
#X obj 3 57 inlet;
#X text 6 37 advance clock;
#X obj 71 321 abs_mono_minimal_random_seq3;
#X obj 63 382 outlet;
#X obj 120 382 outlet;
#X obj 174 380 outlet;
#X text 131 364 vel;
#X text 74 364 pitch;
#X text 174 362 duration;
#X text 203 8 repetitive random pattern with slight variation;
#X obj 4 95 t b;
#X obj 142 41 inlet;
#X text 182 36 reset;
#X obj 222 64 / 1.28;
#X obj 238 41 inlet;
#X text 238 25 threshold;
#X obj 202 113 bng 15 250 50 0 empty empty s 4 7 0 10 -262144 -1 -1
;
#X msg 401 436 0.153 0.677 0.693 0.446744 0.57 0.455 0.289 0.21546
0.286 0.377 0.434 0.0839927 0.222 0.54 0.277 0.0505173 0.043 0.722
0.467 0.58734 0.354 0.163 0.374 0.541083 0.366 0.543 0.266 0.528302
0.269 0.823 0.142 0.853926 0.063 0.149 0.511 0.465003 0.207 0.599 0.947
0.334145 0.981 0.123 0.825 0.00791236 0.02 0.566 0.206 0.0292149 0.064
0.245 0.397 0.363968 0.493 0.11 0.27 0.100426 0.812 0.066 0 0.76689
0.805 0.631 0.44 0.391966 0.618 0.616 0.891 0.127815 0.631 0.135 0.637
0.0395618 0.506 0.757 0.114 0.301278 0.383 0.221 0.206 0.125989 0.753
0.672 0.681 0.145466 0.09 0.948 0.356 0.642727 0.905 0 0.154 0.329276
0.425 0.11 0.751 0.591601 0.684 0.108 0.111 0.578211 0.365 0.384 0.732
0.262934 0.284 0.005 0.008 0.541083 0.998 0.88 0.686 0.0042605 0.555
0.394 0.923 1 0.967 0.577 0.053 0.552039 0.584 0.37 0.701 0.41692 0.053
0.153 0.472 0.425441;
#X obj 386 211 loadbang;
#X obj 401 249 delay 2;
#X obj 401 43 inlet;
#X text 439 45 randomize;
#X obj 289 343 outlet;
#X text 334 346 length;
#X connect 0 0 12 4;
#X connect 1 0 0 0;
#X connect 2 0 4 0;
#X connect 2 0 12 0;
#X connect 3 0 1 0;
#X connect 4 0 3 0;
#X connect 5 0 7 1;
#X connect 5 0 12 1;
#X connect 5 0 32 0;
#X connect 7 0 6 0;
#X connect 8 0 12 5;
#X connect 10 0 20 0;
#X connect 12 0 5 0;
#X connect 12 1 13 0;
#X connect 12 2 14 0;
#X connect 12 3 15 0;
#X connect 12 4 7 0;
#X connect 12 5 27 0;
#X connect 20 0 12 2;
#X connect 21 0 26 0;
#X connect 23 0 1 0;
#X connect 24 0 23 0;
#X connect 26 0 12 3;
#X connect 27 0 12 6;
#X connect 28 0 29 0;
#X connect 29 0 27 0;
#X connect 30 0 2 0;
#X coords 0 -1 1 1 120 40 1 100 100;
#X restore 317 341 pd monominimalrnd3;
#N canvas 656 121 1011 709 monominimalrnd3 0;
#X obj 191 287 / 100;
#X obj 162 114 nbx 3 14 1 99 0 1 empty empty empty 0 -8 0 10 -262144
-1 -1 70.6964 256;
#X obj 103 114 bng 15 250 50 0 empty empty r 4 7 0 10 -262144 -1 -1
;
#X obj 76 273 + 50;
#X obj 86 252 random 30;
#X obj 123 114 nbx 3 14 2 32 0 1 empty empty empty 0 -8 0 10 -262144
-1 -1 12 256;
#X obj 106 130 hsl 110 8 0 1 0 0 empty empty empty -2 -8 0 10 -262144
-1 -1 0 1;
#X obj 257 289 /;
#X obj 317 43 inlet;
#X text 362 41 tp;
#X obj 3 57 inlet;
#X text 6 37 advance clock;
#X obj 71 321 abs_mono_minimal_random_seq3;
#X obj 63 382 outlet;
#X obj 120 382 outlet;
#X obj 174 380 outlet;
#X text 131 364 vel;
#X text 74 364 pitch;
#X text 174 362 duration;
#X text 203 8 repetitive random pattern with slight variation;
#X obj 4 95 t b;
#X obj 142 41 inlet;
#X text 182 36 reset;
#X obj 222 64 / 1.28;
#X obj 238 41 inlet;
#X text 238 25 threshold;
#X obj 202 113 bng 15 250 50 0 empty empty s 4 7 0 10 -262144 -1 -1
;
#X msg 401 436 0.303 0.064 0.48 0.81007 0.279 0.804 0.616 0.455067
0.324 0.965 0.342 0.0707457 0.945 0.659 0.26 0.590185 0.447 0.93 0.687
0.75972 0.675 0.053 0.889 0.356915 0.511 0.752 0.049 0.521351 0.845
0.494 0.186 0.622052 0.302 0.564 0.781 0.346718 0.561 0.209 0.475 0.425112
0.662 0.688 0.726 0.312301 0.281 0.623 0.894 0.00382409 0.486 0.629
0.781 0.433397 0.07 0.736 0.218 0.397706 0.115 0.706 0.848 0.0975143
0.998 0.886 0.82 0.595284 0.616 0.825 0.677 0.251115 0.179 0.41 0.269
0.188655 0.453 0.893 0.101 0.328235 0.949 0.682 0.077 0.205226 0.049
0.374 0.163 1 0.689 0.059 0.075 0.520714 0.737 0.479 0.624 0.128744
0.781 0.2 0.942 0.552581 0.609 0.505 0.375 0.613767 0.214 0.292 0.364
0.360102 0.741 0.812 0.232 0.629063 0.32 0.654 0.339 0.559592 0.328
0.936 0.623 0.717017 0.162 0.238 0.126 0.0975143 0.188 0.351 0.661
0.0203952 0.053 0.519 0.323 0.488209;
#X obj 386 211 loadbang;
#X obj 401 249 delay 2;
#X obj 401 43 inlet;
#X text 439 45 randomize;
#X obj 289 343 outlet;
#X text 334 346 length;
#X connect 0 0 12 4;
#X connect 1 0 0 0;
#X connect 2 0 4 0;
#X connect 2 0 12 0;
#X connect 3 0 1 0;
#X connect 4 0 3 0;
#X connect 5 0 7 1;
#X connect 5 0 12 1;
#X connect 5 0 32 0;
#X connect 7 0 6 0;
#X connect 8 0 12 5;
#X connect 10 0 20 0;
#X connect 12 0 5 0;
#X connect 12 1 13 0;
#X connect 12 2 14 0;
#X connect 12 3 15 0;
#X connect 12 4 7 0;
#X connect 12 5 27 0;
#X connect 20 0 12 2;
#X connect 21 0 26 0;
#X connect 23 0 1 0;
#X connect 24 0 23 0;
#X connect 26 0 12 3;
#X connect 27 0 12 6;
#X connect 28 0 29 0;
#X connect 29 0 27 0;
#X connect 30 0 2 0;
#X coords 0 -1 1 1 120 40 1 100 100;
#X restore 495 337 pd monominimalrnd3;
#N canvas 215 103 1409 952 bigplayer1 0;
#X obj 240 255 soundfiler;
#X obj 378 160 int;
#X msg 403 138 0;
#X obj 406 164 + 1;
#X obj 240 279 t b;
#X obj -115 -23 inlet;
#X obj -56 -23 inlet;
#X obj 184 29 t b f;
#X obj -228 854 outlet~;
#X obj -116 150 pack 0 0 0;
#X obj -115 10 pack f f;
#X obj 106 117 hsl 100 8 1 1000 1 1 empty empty attack 2 4 0 10 -262144
-258113 -1 0 1;
#X obj 106 129 hsl 100 8 30 3000 1 1 empty empty release 2 4 0 10 -262144
-258113 -1 5200 1;
#X obj 240 190 pack s s f f;
#X obj 338 65 t b b b;
#X msg 573 -98 symbol /home/mnb/samplelib/mis_neatonk_piano/;
#X obj -94 113 clip 0 87;
#X msg 456 65 148587__neatonk__piano-med-b0.wav \, 148554__neatonk__piano-med-c1.wav
\, 148277__neatonk__piano-med-db1.wav \, 148606__neatonk__piano-med-d1.wav
\, 148570__neatonk__piano-med-eb1.wav \, 148573__neatonk__piano-med-e1.wav
\, 148568__neatonk__piano-med-f1.wav \, 148596__neatonk__piano-med-gb1.wav
\, 148567__neatonk__piano-med-g1.wav \, 148535__neatonk__piano-med-ab1.wav
\, 148534__neatonk__piano-med-a1.wav \, 148559__neatonk__piano-med-bb1.wav
\, 148586__neatonk__piano-med-b1.wav \, 148601__neatonk__piano-med-c2.wav
\, 148276__neatonk__piano-med-db2.wav \, 148594__neatonk__piano-med-d2.wav
\, 148597__neatonk__piano-med-eb2.wav \, 148555__neatonk__piano-med-e2.wav
\, 148599__neatonk__piano-med-f2.wav \, 148578__neatonk__piano-med-gb2.wav
\, 148549__neatonk__piano-med-g2.wav \, 148540__neatonk__piano-med-ab2.wav
\, 148533__neatonk__piano-med-a2.wav \, 148560__neatonk__piano-med-bb2.wav
\, 148585__neatonk__piano-med-b2.wav \, 148600__neatonk__piano-med-c3.wav
\, 148271__neatonk__piano-med-db3.wav \, 148593__neatonk__piano-med-d3.wav
\, 148592__neatonk__piano-med-eb3.wav \, 148556__neatonk__piano-med-e3.wav
\, 148598__neatonk__piano-med-f3.wav \, 148544__neatonk__piano-med-gb3.wav
\, 148547__neatonk__piano-med-g3.wav \, 148539__neatonk__piano-med-ab3.wav
\, 148532__neatonk__piano-med-a3.wav \, 148565__neatonk__piano-med-bb3.wav
\, 148584__neatonk__piano-med-b3.wav \, 148603__neatonk__piano-med-c4.wav
\, 148270__neatonk__piano-med-db4.wav \, 148551__neatonk__piano-med-d4.wav
\, 148588__neatonk__piano-med-eb4.wav \, 148557__neatonk__piano-med-e4.wav
\, 148569__neatonk__piano-med-f4.wav \, 148576__neatonk__piano-med-gb4.wav
\, 148548__neatonk__piano-med-g4.wav \, 148583__neatonk__piano-med-ab4.wav
\, 148531__neatonk__piano-med-a4.wav \, 148566__neatonk__piano-med-bb4.wav
\, 148590__neatonk__piano-med-b4.wav \, 148602__neatonk__piano-med-c5.wav
\, 148273__neatonk__piano-med-db5.wav \, 148552__neatonk__piano-med-d5.wav
\, 148574__neatonk__piano-med-eb5.wav \, 148558__neatonk__piano-med-e5.wav
\, 148571__neatonk__piano-med-f5.wav \, 148545__neatonk__piano-med-gb5.wav
\, 148595__neatonk__piano-med-g5.wav \, 148582__neatonk__piano-med-ab5.wav
\, 148538__neatonk__piano-med-a5.wav \, 148563__neatonk__piano-med-bb5.wav
\, 148589__neatonk__piano-med-b5.wav \, 148605__neatonk__piano-med-c6.wav
\, 148272__neatonk__piano-med-db6.wav \, 148275__neatonk__piano-med-d6.wav
\, 148579__neatonk__piano-med-eb6.wav \, 148575__neatonk__piano-med-e6.wav
\, 148591__neatonk__piano-med-f6.wav \, 148541__neatonk__piano-med-gb6.wav
\, 148542__neatonk__piano-med-g6.wav \, 148581__neatonk__piano-med-ab6.wav
\, 148537__neatonk__piano-med-a6.wav \, 148564__neatonk__piano-med-bb6.wav
\, 148561__neatonk__piano-med-b6.wav \, 148604__neatonk__piano-med-c7.wav
\, 148550__neatonk__piano-med-db7.wav \, 148274__neatonk__piano-med-d7.wav
\, 148543__neatonk__piano-med-eb7.wav \, 148577__neatonk__piano-med-e7.wav
\, 148572__neatonk__piano-med-f7.wav \, 148546__neatonk__piano-med-g7.wav
\, 148580__neatonk__piano-med-ab7.wav \, 148536__neatonk__piano-med-a7.wav
\, 148553__neatonk__piano-med-bb7.wav \, 148562__neatonk__piano-med-b7.wav
\, 148607__neatonk__piano-med-c8.wav;
#X obj -96 70 - 24;
#X text -58 68 shift low c to 0 \, transpose;
#X text 587 8 about 88 samples;
#X obj -116 35 poly 24 1;
#X text -173 352 24 note polyphony should be enough...;
#X obj -270 175 route 1 2 3 4 5 6 7 8 9 10 11 12 13 14 15 16 17 18
19 20 21 22 23 24;
#X msg 240 218 read -resize \$2\$1 \$3sp\$4 \$3spr\$4;
#X obj -219 478 abs_bigplayer1voice;
#X obj -64 849 outlet~;
#X obj -283 387 abs_bigplayer1voice;
#X obj -140 387 abs_bigplayer1voice;
#X obj -259 418 abs_bigplayer1voice;
#X obj -243 447 abs_bigplayer1voice;
#X obj -119 419 abs_bigplayer1voice;
#X obj -100 447 abs_bigplayer1voice;
#X obj -76 478 abs_bigplayer1voice;
#X obj -10 386 abs_bigplayer1voice;
#X obj 133 386 abs_bigplayer1voice;
#X obj 14 417 abs_bigplayer1voice;
#X obj 30 446 abs_bigplayer1voice;
#X obj 54 477 abs_bigplayer1voice;
#X obj 154 418 abs_bigplayer1voice;
#X obj 173 446 abs_bigplayer1voice;
#X obj 197 477 abs_bigplayer1voice;
#X obj -36 542 abs_bigplayer1voice;
#X obj 102 544 abs_bigplayer1voice;
#X obj -16 575 abs_bigplayer1voice;
#X obj 5 604 abs_bigplayer1voice;
#X obj 23 635 abs_bigplayer1voice;
#X obj 123 576 abs_bigplayer1voice;
#X obj 145 606 abs_bigplayer1voice;
#X obj 166 635 abs_bigplayer1voice;
#X obj 184 3 abs_bigplayer1tables;
#X obj -227 817 *~ 0.5;
#X obj -63 803 *~ 0.5;
#X text -116 -45 pitch \, velocity;
#X text 50 -35 stereo tabplay sampleplayer for up to 88 samples asigned
to 88 keys (a complete piano). 2013 martin brinkmann;
#X text 457 34 samplelist for neatonk piano available from freesounds.
e1 needs trimming and some names are mixed up from f7 on(?);
#X obj 557 -48 spigot 1;
#X obj 718 -39 spigot 0;
#X obj 472 -118 hradio 15 1 1 2 empty empty empty 0 -8 0 10 -262144
-1 -1 0;
#X obj 466 -79 == 0;
#X obj 500 -79 == 1;
#X msg 762 67 148477__neatonk__piano-loud-b0.wav \, 148427__neatonk__piano-loud-c1.wav
\, 148517__neatonk__piano-loud-db1.wav \, 148425__neatonk__piano-loud-d1.wav
\, 148497__neatonk__piano-loud-eb1.wav \, 148527__neatonk__piano-loud-e1.wav
\, 148492__neatonk__piano-loud-f1.wav \, 148440__neatonk__piano-loud-gb1.wav
\, 148502__neatonk__piano-loud-g1.wav \, 148490__neatonk__piano-loud-ab1.wav
\, 148483__neatonk__piano-loud-a1.wav \, 148423__neatonk__piano-loud-bb1.wav
\, 148476__neatonk__piano-loud-b1.wav \, 148430__neatonk__piano-loud-c2.wav
\, 148518__neatonk__piano-loud-db2.wav \, 148511__neatonk__piano-loud-d2.wav
\, 148498__neatonk__piano-loud-eb2.wav \, 148526__neatonk__piano-loud-e2.wav
\, 148499__neatonk__piano-loud-f2.wav \, 148441__neatonk__piano-loud-gb2.wav
\, 148501__neatonk__piano-loud-g2.wav \, 148489__neatonk__piano-loud-ab2.wav
\, 148482__neatonk__piano-loud-a2.wav \, 148424__neatonk__piano-loud-bb2.wav
\, 148475__neatonk__piano-loud-b2.wav \, 148429__neatonk__piano-loud-c3.wav
\, 148519__neatonk__piano-loud-db3.wav \, 148512__neatonk__piano-loud-d3.wav
\, 148495__neatonk__piano-loud-eb3.wav \, 148525__neatonk__piano-loud-e3.wav
\, 148500__neatonk__piano-loud-f3.wav \, 148442__neatonk__piano-loud-gb3.wav
\, 148504__neatonk__piano-loud-g3.wav \, 148474__neatonk__piano-loud-ab3.wav
\, 148481__neatonk__piano-loud-a3.wav \, 148407__neatonk__piano-loud-bb3.wav
\, 148480__neatonk__piano-loud-b3.wav \, 148432__neatonk__piano-loud-c4.wav
\, 148520__neatonk__piano-loud-db4.wav \, 148513__neatonk__piano-loud-d4.wav
\, 148496__neatonk__piano-loud-eb4.wav \, 148524__neatonk__piano-loud-e4.wav
\, 148506__neatonk__piano-loud-f4.wav \, 148435__neatonk__piano-loud-gb4.wav
\, 148503__neatonk__piano-loud-g4.wav \, 148473__neatonk__piano-loud-ab4.wav
\, 148488__neatonk__piano-loud-a4.wav \, 148408__neatonk__piano-loud-bb4.wav
\, 148479__neatonk__piano-loud-b4.wav \, 148431__neatonk__piano-loud-c5.wav
\, 148530__neatonk__piano-loud-db5.wav \, 148514__neatonk__piano-loud-d5.wav
\, 148493__neatonk__piano-loud-eb5.wav \, 148523__neatonk__piano-loud-e5.wav
\, 148505__neatonk__piano-loud-f5.wav \, 148436__neatonk__piano-loud-gb5.wav
\, 148510__neatonk__piano-loud-g5.wav \, 148472__neatonk__piano-loud-ab5.wav
\, 148487__neatonk__piano-loud-a5.wav \, 148401__neatonk__piano-loud-bb5.wav
\, 148405__neatonk__piano-loud-b5.wav \, 148434__neatonk__piano-loud-c6.wav
\, 148529__neatonk__piano-loud-db6.wav \, 148515__neatonk__piano-loud-d6.wav
\, 148494__neatonk__piano-loud-eb6.wav \, 148522__neatonk__piano-loud-e6.wav
\, 148508__neatonk__piano-loud-f6.wav \, 148437__neatonk__piano-loud-gb6.wav
\, 148509__neatonk__piano-loud-g6.wav \, 148471__neatonk__piano-loud-ab6.wav
\, 148486__neatonk__piano-loud-a6.wav \, 148402__neatonk__piano-loud-bb6.wav
\, 148406__neatonk__piano-loud-b6.wav \, 148433__neatonk__piano-loud-c7.wav
\, 148528__neatonk__piano-loud-db7.wav \, 148516__neatonk__piano-loud-d7.wav
\, 148491__neatonk__piano-loud-eb7.wav \, 148521__neatonk__piano-loud-e7.wav
\, 148507__neatonk__piano-loud-f7.wav \, 148438__neatonk__piano-loud-gb7.wav
\, 148439__neatonk__piano-loud-g7.wav \, 148478__neatonk__piano-loud-ab7.wav
\, 148485__neatonk__piano-loud-a7.wav \, 148428__neatonk__piano-loud-bb7.wav
\, 148403__neatonk__piano-loud-b7.wav \, 148426__neatonk__piano-loud-c8.wav
;
#X obj 444 -119 bng 15 250 50 0 empty empty empty 17 7 0 10 -262144
-1 -1;
#X text 822 46 bright (loud) version;
#X text 569 -116 sample path \, adjust to your needs;
#X connect 0 0 4 0;
#X connect 1 0 3 0;
#X connect 1 0 13 3;
#X connect 2 0 1 1;
#X connect 3 0 1 1;
#X connect 4 0 1 0;
#X connect 5 0 10 0;
#X connect 6 0 10 1;
#X connect 7 0 14 0;
#X connect 7 1 13 2;
#X connect 7 1 25 0;
#X connect 7 1 27 0;
#X connect 7 1 28 0;
#X connect 7 1 29 0;
#X connect 7 1 30 0;
#X connect 7 1 31 0;
#X connect 7 1 32 0;
#X connect 7 1 33 0;
#X connect 7 1 34 0;
#X connect 7 1 35 0;
#X connect 7 1 36 0;
#X connect 7 1 37 0;
#X connect 7 1 38 0;
#X connect 7 1 39 0;
#X connect 7 1 40 0;
#X connect 7 1 41 0;
#X connect 7 1 42 0;
#X connect 7 1 43 0;
#X connect 7 1 44 0;
#X connect 7 1 45 0;
#X connect 7 1 46 0;
#X connect 7 1 47 0;
#X connect 7 1 48 0;
#X connect 7 1 49 0;
#X connect 9 0 23 0;
#X connect 10 0 21 0;
#X connect 11 0 25 2;
#X connect 11 0 27 2;
#X connect 11 0 28 2;
#X connect 11 0 29 2;
#X connect 11 0 30 2;
#X connect 11 0 31 2;
#X connect 11 0 32 2;
#X connect 11 0 33 2;
#X connect 11 0 34 2;
#X connect 11 0 35 2;
#X connect 11 0 36 2;
#X connect 11 0 37 2;
#X connect 11 0 38 2;
#X connect 11 0 39 2;
#X connect 11 0 40 2;
#X connect 11 0 41 2;
#X connect 11 0 42 2;
#X connect 11 0 43 2;
#X connect 11 0 44 2;
#X connect 11 0 45 2;
#X connect 11 0 46 2;
#X connect 11 0 47 2;
#X connect 11 0 48 2;
#X connect 11 0 49 2;
#X connect 12 0 25 3;
#X connect 12 0 27 3;
#X connect 12 0 28 3;
#X connect 12 0 29 3;
#X connect 12 0 30 3;
#X connect 12 0 31 3;
#X connect 12 0 32 3;
#X connect 12 0 33 3;
#X connect 12 0 34 3;
#X connect 12 0 35 3;
#X connect 12 0 36 3;
#X connect 12 0 37 3;
#X connect 12 0 38 3;
#X connect 12 0 39 3;
#X connect 12 0 40 3;
#X connect 12 0 41 3;
#X connect 12 0 42 3;
#X connect 12 0 43 3;
#X connect 12 0 44 3;
#X connect 12 0 45 3;
#X connect 12 0 46 3;
#X connect 12 0 47 3;
#X connect 12 0 48 3;
#X connect 12 0 49 3;
#X connect 13 0 24 0;
#X connect 14 0 56 0;
#X connect 14 0 57 0;
#X connect 14 1 2 0;
#X connect 14 2 15 0;
#X connect 15 0 13 1;
#X connect 16 0 9 1;
#X connect 17 0 13 0;
#X connect 18 0 16 0;
#X connect 21 0 9 0;
#X connect 21 1 18 0;
#X connect 21 2 9 2;
#X connect 23 0 27 1;
#X connect 23 1 29 1;
#X connect 23 2 30 1;
#X connect 23 3 25 1;
#X connect 23 4 28 1;
#X connect 23 5 31 1;
#X connect 23 6 32 1;
#X connect 23 7 33 1;
#X connect 23 8 34 1;
#X connect 23 9 36 1;
#X connect 23 10 37 1;
#X connect 23 11 38 1;
#X connect 23 12 35 1;
#X connect 23 13 39 1;
#X connect 23 14 40 1;
#X connect 23 15 41 1;
#X connect 23 16 42 1;
#X connect 23 17 44 1;
#X connect 23 18 45 1;
#X connect 23 19 46 1;
#X connect 23 20 43 1;
#X connect 23 21 47 1;
#X connect 23 22 48 1;
#X connect 23 23 49 1;
#X connect 24 0 0 0;
#X connect 25 0 51 0;
#X connect 25 1 52 0;
#X connect 27 0 51 0;
#X connect 27 1 52 0;
#X connect 28 0 51 0;
#X connect 28 1 52 0;
#X connect 29 0 51 0;
#X connect 29 1 52 0;
#X connect 30 0 51 0;
#X connect 30 1 52 0;
#X connect 31 0 51 0;
#X connect 31 1 52 0;
#X connect 32 0 51 0;
#X connect 32 1 52 0;
#X connect 33 0 51 0;
#X connect 33 1 52 0;
#X connect 34 0 51 0;
#X connect 34 1 52 0;
#X connect 35 0 51 0;
#X connect 35 1 52 0;
#X connect 36 0 51 0;
#X connect 36 1 52 0;
#X connect 37 0 51 0;
#X connect 37 1 52 0;
#X connect 38 0 51 0;
#X connect 38 1 52 0;
#X connect 39 0 51 0;
#X connect 39 1 52 0;
#X connect 40 0 51 0;
#X connect 40 1 52 0;
#X connect 41 0 51 0;
#X connect 41 1 52 0;
#X connect 42 0 51 0;
#X connect 42 1 52 0;
#X connect 43 0 51 0;
#X connect 43 1 52 0;
#X connect 44 0 51 0;
#X connect 44 1 52 0;
#X connect 45 0 51 0;
#X connect 45 1 52 0;
#X connect 46 0 51 0;
#X connect 46 1 52 0;
#X connect 47 0 51 0;
#X connect 47 1 52 0;
#X connect 48 0 51 0;
#X connect 48 1 52 0;
#X connect 49 0 51 0;
#X connect 49 1 52 0;
#X connect 50 0 7 0;
#X connect 51 0 8 0;
#X connect 52 0 26 0;
#X connect 56 0 17 0;
#X connect 57 0 61 0;
#X connect 58 0 59 0;
#X connect 58 0 60 0;
#X connect 59 0 56 1;
#X connect 60 0 57 1;
#X connect 61 0 13 0;
#X connect 62 0 14 0;
#X coords 0 -1 1 1 110 40 1 100 100;
#X restore 67 604 pd bigplayer1;
#N canvas 1 77 617 606 valv 0;
#X obj 28 17 inlet;
#X obj 72 461 outlet;
#X obj 145 101 nbx 3 14 0 127 0 1 empty empty empty 0 -8 0 10 -262144
-1 -1 0 256;
#X obj 187 101 nbx 2 14 0 99 0 1 empty empty + -5 7 0 10 -262144 -1
-1 12 256;
#X obj 221 101 nbx 2 14 0 99 0 1 empty empty - -5 7 0 10 -262144 -1
-1 12 256;
#X text 32 -1 trigger;
#X obj 199 210 +;
#X obj 207 137 t b f;
#X obj 81 294 -;
#X obj 168 280 random;
#X obj 203 249 * 100;
#X obj 167 307 / 100;
#X obj 35 49 t b;
#X obj 71 368 +;
#X text 118 1 value + random variation;
#X obj 75 416 clip -127 127;
#X obj 202 463 int;
#X obj 205 497 outlet;
#X connect 0 0 12 0;
#X connect 2 0 8 0;
#X connect 3 0 6 0;
#X connect 4 0 7 0;
#X connect 6 0 10 0;
#X connect 7 0 6 0;
#X connect 7 0 8 0;
#X connect 7 1 6 1;
#X connect 7 1 8 1;
#X connect 8 0 13 1;
#X connect 9 0 11 0;
#X connect 10 0 9 1;
#X connect 11 0 13 0;
#X connect 12 0 9 0;
#X connect 13 0 15 0;
#X connect 15 0 1 0;
#X connect 15 0 16 0;
#X connect 16 0 17 0;
#X coords 0 -1 1 1 150 15 1 100 100;
#X restore 18 283 pd valv;
#N canvas 1 77 617 606 valv 0;
#X obj 28 17 inlet;
#X obj 72 461 outlet;
#X obj 145 101 nbx 3 14 0 127 0 1 empty empty empty 0 -8 0 10 -262144
-1 -1 12 256;
#X obj 187 101 nbx 2 14 0 99 0 1 empty empty + -5 7 0 10 -262144 -1
-1 12 256;
#X obj 221 101 nbx 2 14 0 99 0 1 empty empty - -5 7 0 10 -262144 -1
-1 12 256;
#X text 32 -1 trigger;
#X obj 199 210 +;
#X obj 207 137 t b f;
#X obj 81 294 -;
#X obj 168 280 random;
#X obj 203 249 * 100;
#X obj 167 307 / 100;
#X obj 35 49 t b;
#X obj 71 368 +;
#X text 118 1 value + random variation;
#X obj 75 416 clip -127 127;
#X obj 202 463 int;
#X obj 205 497 outlet;
#X connect 0 0 12 0;
#X connect 2 0 8 0;
#X connect 3 0 6 0;
#X connect 4 0 7 0;
#X connect 6 0 10 0;
#X connect 7 0 6 0;
#X connect 7 0 8 0;
#X connect 7 1 6 1;
#X connect 7 1 8 1;
#X connect 8 0 13 1;
#X connect 9 0 11 0;
#X connect 10 0 9 1;
#X connect 11 0 13 0;
#X connect 12 0 9 0;
#X connect 13 0 15 0;
#X connect 15 0 1 0;
#X connect 15 0 16 0;
#X connect 16 0 17 0;
#X coords 0 -1 1 1 150 15 1 100 100;
#X restore 210 282 pd valv;
#N canvas 1 77 617 606 valv 0;
#X obj 28 17 inlet;
#X obj 72 461 outlet;
#X obj 145 101 nbx 3 14 0 127 0 1 empty empty empty 0 -8 0 10 -262144
-1 -1 0 256;
#X obj 187 101 nbx 2 14 0 99 0 1 empty empty + -5 7 0 10 -262144 -1
-1 12 256;
#X obj 221 101 nbx 2 14 0 99 0 1 empty empty - -5 7 0 10 -262144 -1
-1 12 256;
#X text 32 -1 trigger;
#X obj 199 210 +;
#X obj 207 137 t b f;
#X obj 81 294 -;
#X obj 168 280 random;
#X obj 203 249 * 100;
#X obj 167 307 / 100;
#X obj 35 49 t b;
#X obj 71 368 +;
#X text 118 1 value + random variation;
#X obj 75 416 clip -127 127;
#X obj 202 463 int;
#X obj 205 497 outlet;
#X connect 0 0 12 0;
#X connect 2 0 8 0;
#X connect 3 0 6 0;
#X connect 4 0 7 0;
#X connect 6 0 10 0;
#X connect 7 0 6 0;
#X connect 7 0 8 0;
#X connect 7 1 6 1;
#X connect 7 1 8 1;
#X connect 8 0 13 1;
#X connect 9 0 11 0;
#X connect 10 0 9 1;
#X connect 11 0 13 0;
#X connect 12 0 9 0;
#X connect 13 0 15 0;
#X connect 15 0 1 0;
#X connect 15 0 16 0;
#X connect 16 0 17 0;
#X coords 0 -1 1 1 150 15 1 100 100;
#X restore 422 263 pd valv;
#N canvas 1 77 617 606 valv 0;
#X obj 28 17 inlet;
#X obj 72 461 outlet;
#X obj 145 101 nbx 3 14 0 127 0 1 empty empty empty 0 -8 0 10 -262144
-1 -1 12 256;
#X obj 187 101 nbx 2 14 0 99 0 1 empty empty + -5 7 0 10 -262144 -1
-1 12 256;
#X obj 221 101 nbx 2 14 0 99 0 1 empty empty - -5 7 0 10 -262144 -1
-1 12 256;
#X text 32 -1 trigger;
#X obj 199 210 +;
#X obj 207 137 t b f;
#X obj 81 294 -;
#X obj 168 280 random;
#X obj 203 249 * 100;
#X obj 167 307 / 100;
#X obj 35 49 t b;
#X obj 71 368 +;
#X text 118 1 value + random variation;
#X obj 75 416 clip -127 127;
#X obj 202 463 int;
#X obj 205 497 outlet;
#X connect 0 0 12 0;
#X connect 2 0 8 0;
#X connect 3 0 6 0;
#X connect 4 0 7 0;
#X connect 6 0 10 0;
#X connect 7 0 6 0;
#X connect 7 0 8 0;
#X connect 7 1 6 1;
#X connect 7 1 8 1;
#X connect 8 0 13 1;
#X connect 9 0 11 0;
#X connect 10 0 9 1;
#X connect 11 0 13 0;
#X connect 12 0 9 0;
#X connect 13 0 15 0;
#X connect 15 0 1 0;
#X connect 15 0 16 0;
#X connect 16 0 17 0;
#X coords 0 -1 1 1 150 15 1 100 100;
#X restore 599 271 pd valv;
#X obj 37 435 +;
#X floatatom 82 390 5 0 0 0 - - -, f 5;
#X obj 157 305 nbx 3 14 -24 24 0 1 empty empty empty 0 -8 0 10 -262144
-1 -1 -3 256;
#X obj 271 315 nbx 3 14 -24 24 0 1 empty empty empty 0 -8 0 10 -262144
-1 -1 23 256;
#X obj 479 288 nbx 3 14 -24 24 0 1 empty empty empty 0 -8 0 10 -262144
-1 -1 2 256;
#X obj 618 311 nbx 3 14 -24 24 0 1 empty empty empty 0 -8 0 10 -262144
-1 -1 11 256;
#N canvas 1 77 450 300 dice6 0;
#X obj 41 13 inlet;
#X obj 45 62 random 6;
#X obj 289 214 outlet;
#X text 146 32 a simple dice with 6 values;
#X obj 103 130 nbx 3 14 -127 127 0 1 empty empty empty 0 -8 0 10 -262144
-1 -1 4 256;
#X obj 142 130 nbx 3 14 -127 127 0 1 empty empty empty 0 -8 0 10 -262144
-1 -1 -3 256;
#X obj 181 130 nbx 3 14 -127 127 0 1 empty empty empty 0 -8 0 10 -262144
-1 -1 0 256;
#X obj 103 114 nbx 3 14 -127 127 0 1 empty empty empty 0 -8 0 10 -262144
-1 -1 2 256;
#X obj 142 114 nbx 3 14 -127 127 0 1 empty empty empty 0 -8 0 10 -262144
-1 -1 -5 256;
#X obj 181 114 nbx 3 14 -127 127 0 1 empty empty empty 0 -8 0 10 -262144
-1 -1 6 256;
#X obj 123 71 select 0 1 2 3 4 5;
#X obj 50 41 t b;
#X connect 0 0 11 0;
#X connect 1 0 10 0;
#X connect 4 0 2 0;
#X connect 5 0 2 0;
#X connect 6 0 2 0;
#X connect 7 0 2 0;
#X connect 8 0 2 0;
#X connect 9 0 2 0;
#X connect 10 0 7 0;
#X connect 10 1 8 0;
#X connect 10 2 9 0;
#X connect 10 3 4 0;
#X connect 10 4 5 0;
#X connect 10 5 6 0;
#X connect 11 0 1 0;
#X coords 0 -1 1 1 120 45 1 100 100;
#X restore 639 450 pd dice6;
#N canvas 544 240 997 685 ramp 0;
#X obj 28 17 inlet;
#X obj 51 438 outlet;
#X obj 147 101 nbx 3 14 -127 127 0 1 empty empty empty 0 -8 0 10 -262144
-1 -1 114 256;
#X obj 185 101 nbx 3 14 -127 127 0 1 empty empty empty 0 -8 0 10 -262144
-1 -1 56 256;
#X obj 223 101 nbx 3 14 0 999 0 1 empty empty empty 0 -8 0 10 -262144
-1 -1 112 256;
#X obj 414 96 pow -1;
#X obj 401 121 * 60000;
#X obj 425 11 r \$0globalbpm1;
#X obj 561 32 inlet;
#X text 567 13 bpm;
#X obj 51 370 line;
#X obj 275 167 t b f;
#X obj 35 49 t b b;
#X obj 55 232 f;
#X obj 113 276 pack f f;
#X obj 113 232 f;
#X obj 128 14 inlet;
#X text 32 -1 trigger;
#X text 127 -3 start val;
#X obj 198 12 inlet;
#X text 197 -5 end val;
#X obj 260 10 inlet;
#X text 260 -6 duration (beats);
#X text 371 -16 line from 1st to 2nd value;
#X obj -2 186 spigot;
#X obj 204 425 outlet;
#X obj 261 102 tgl 12 1 empty empty lp 1 6 0 10 -262144 -1 -128992
1 1;
#X obj 121 371 delay 123;
#X obj 225 206 * 250;
#X connect 0 0 12 0;
#X connect 2 0 13 1;
#X connect 3 0 15 1;
#X connect 4 0 28 0;
#X connect 5 0 6 0;
#X connect 6 0 11 0;
#X connect 7 0 5 0;
#X connect 8 0 5 0;
#X connect 10 0 1 0;
#X connect 11 0 28 0;
#X connect 11 1 28 1;
#X connect 12 0 15 0;
#X connect 12 0 27 0;
#X connect 12 1 13 0;
#X connect 13 0 10 0;
#X connect 14 0 10 0;
#X connect 15 0 14 0;
#X connect 16 0 2 0;
#X connect 19 0 3 0;
#X connect 21 0 4 0;
#X connect 24 0 12 0;
#X connect 26 0 24 1;
#X connect 27 0 24 0;
#X connect 27 0 25 0;
#X connect 28 0 14 1;
#X connect 28 0 27 1;
#X coords 0 -1 1 1 175 15 1 100 100;
#X restore 601 233 pd ramp;
#N canvas 185 297 704 358 once 0;
#X obj 34 25 inlet;
#X obj 20 240 outlet;
#X obj 39 67 spigot 1;
#X msg 173 35 0;
#X msg 115 34 1;
#X obj 36 93 t f b b;
#X obj 145 101 nbx 4 14 0 9999 0 1 empty empty empty 0 -8 0 10 -262144
-1 -1 32 256;
#X obj 447 98 pow -1;
#X obj 392 137 * 60000;
#X obj 416 27 r \$0globalbpm1;
#X obj 552 48 inlet;
#X text 558 29 bpm;
#X obj 277 187 *;
#X obj 327 148 t b f;
#X obj 251 26 inlet;
#X text 251 10 duration (beats);
#X obj 136 11 delay;
#X text 372 3 let only pass 1 message per duration in beats;
#X connect 0 0 2 0;
#X connect 2 0 5 0;
#X connect 3 0 2 1;
#X connect 4 0 2 1;
#X connect 5 0 1 0;
#X connect 5 1 16 0;
#X connect 5 2 3 0;
#X connect 6 0 12 0;
#X connect 7 0 8 0;
#X connect 8 0 13 0;
#X connect 9 0 7 0;
#X connect 10 0 7 0;
#X connect 12 0 16 1;
#X connect 13 0 12 0;
#X connect 13 1 12 1;
#X connect 14 0 6 0;
#X connect 16 0 4 0;
#X coords 0 -1 1 1 90 15 1 100 100;
#X restore 641 425 pd once;
#N canvas 544 240 997 685 ramp 0;
#X obj 28 17 inlet;
#X obj 51 438 outlet;
#X obj 147 101 nbx 3 14 -127 127 0 1 empty empty empty 0 -8 0 10 -262144
-1 -1 105 256;
#X obj 185 101 nbx 3 14 -127 127 0 1 empty empty empty 0 -8 0 10 -262144
-1 -1 53 256;
#X obj 223 101 nbx 3 14 0 999 0 1 empty empty empty 0 -8 0 10 -262144
-1 -1 90 256;
#X obj 414 96 pow -1;
#X obj 401 121 * 60000;
#X obj 425 11 r \$0globalbpm1;
#X obj 550 10 inlet;
#X text 556 -9 bpm;
#X obj 51 370 line;
#X obj 225 206 *;
#X obj 275 167 t b f;
#X obj 35 49 t b b;
#X obj 55 232 f;
#X obj 113 276 pack f f;
#X obj 113 232 f;
#X obj 128 14 inlet;
#X text 32 -1 trigger;
#X text 127 -3 start val;
#X obj 198 12 inlet;
#X text 197 -5 end val;
#X obj 260 10 inlet;
#X text 260 -6 duration (beats);
#X text 371 -16 line from 1st to 2nd value;
#X obj -2 186 spigot;
#X obj 204 425 outlet;
#X obj 261 102 tgl 12 1 empty empty lp 1 6 0 10 -262144 -1 -128992
1 1;
#X obj 121 371 delay 123;
#X obj 604 15 loadbang;
#X obj 431 68 max;
#X msg 603 36 10;
#X connect 0 0 13 0;
#X connect 2 0 14 1;
#X connect 3 0 16 1;
#X connect 4 0 11 0;
#X connect 5 0 6 0;
#X connect 6 0 12 0;
#X connect 7 0 30 0;
#X connect 8 0 30 0;
#X connect 10 0 1 0;
#X connect 11 0 15 1;
#X connect 11 0 28 1;
#X connect 12 0 11 0;
#X connect 12 1 11 1;
#X connect 13 0 16 0;
#X connect 13 0 28 0;
#X connect 13 1 14 0;
#X connect 14 0 10 0;
#X connect 15 0 10 0;
#X connect 16 0 15 0;
#X connect 17 0 2 0;
#X connect 20 0 3 0;
#X connect 22 0 4 0;
#X connect 25 0 13 0;
#X connect 27 0 25 1;
#X connect 28 0 25 0;
#X connect 28 0 26 0;
#X connect 29 0 31 0;
#X connect 30 0 5 0;
#X connect 31 0 30 1;
#X coords 0 -1 1 1 175 15 1 100 100;
#X restore 359 234 pd ramp;
#N canvas 544 240 997 685 ramp 0;
#X obj 28 17 inlet;
#X obj 51 438 outlet;
#X obj 147 101 nbx 3 14 -127 127 0 1 empty empty empty 0 -8 0 10 -262144
-1 -1 105 256;
#X obj 185 101 nbx 3 14 -127 127 0 1 empty empty empty 0 -8 0 10 -262144
-1 -1 45 256;
#X obj 223 101 nbx 3 14 0 999 0 1 empty empty empty 0 -8 0 10 -262144
-1 -1 72 256;
#X obj 414 96 pow -1;
#X obj 401 121 * 60000;
#X obj 425 11 r \$0globalbpm1;
#X obj 550 10 inlet;
#X text 556 -9 bpm;
#X obj 51 370 line;
#X obj 225 206 *;
#X obj 275 167 t b f;
#X obj 35 49 t b b;
#X obj 55 232 f;
#X obj 113 276 pack f f;
#X obj 113 232 f;
#X obj 128 14 inlet;
#X text 32 -1 trigger;
#X text 127 -3 start val;
#X obj 198 12 inlet;
#X text 197 -5 end val;
#X obj 260 10 inlet;
#X text 260 -6 duration (beats);
#X text 371 -16 line from 1st to 2nd value;
#X obj -2 186 spigot;
#X obj 204 425 outlet;
#X obj 261 102 tgl 12 1 empty empty lp 1 6 0 10 -262144 -1 -128992
1 1;
#X obj 121 371 delay 123;
#X obj 604 15 loadbang;
#X obj 431 68 max;
#X msg 603 36 10;
#X connect 0 0 13 0;
#X connect 2 0 14 1;
#X connect 3 0 16 1;
#X connect 4 0 11 0;
#X connect 5 0 6 0;
#X connect 6 0 12 0;
#X connect 7 0 30 0;
#X connect 8 0 30 0;
#X connect 10 0 1 0;
#X connect 11 0 15 1;
#X connect 11 0 28 1;
#X connect 12 0 11 0;
#X connect 12 1 11 1;
#X connect 13 0 16 0;
#X connect 13 0 28 0;
#X connect 13 1 14 0;
#X connect 14 0 10 0;
#X connect 15 0 10 0;
#X connect 16 0 15 0;
#X connect 17 0 2 0;
#X connect 20 0 3 0;
#X connect 22 0 4 0;
#X connect 25 0 13 0;
#X connect 27 0 25 1;
#X connect 28 0 25 0;
#X connect 28 0 26 0;
#X connect 29 0 31 0;
#X connect 30 0 5 0;
#X connect 31 0 30 1;
#X coords 0 -1 1 1 175 15 1 100 100;
#X restore 141 218 pd ramp;
#N canvas 544 240 997 685 ramp 0;
#X obj 28 17 inlet;
#X obj 51 438 outlet;
#X obj 147 101 nbx 3 14 -127 127 0 1 empty empty empty 0 -8 0 10 -262144
-1 -1 102 256;
#X obj 185 101 nbx 3 14 -127 127 0 1 empty empty empty 0 -8 0 10 -262144
-1 -1 62 256;
#X obj 223 101 nbx 3 14 0 999 0 1 empty empty empty 0 -8 0 10 -262144
-1 -1 61 256;
#X obj 414 96 pow -1;
#X obj 401 121 * 60000;
#X obj 425 11 r \$0globalbpm1;
#X obj 561 32 inlet;
#X text 567 13 bpm;
#X obj 51 370 line;
#X obj 275 167 t b f;
#X obj 35 49 t b b;
#X obj 55 232 f;
#X obj 113 276 pack f f;
#X obj 113 232 f;
#X obj 128 14 inlet;
#X text 32 -1 trigger;
#X text 127 -3 start val;
#X obj 198 12 inlet;
#X text 197 -5 end val;
#X obj 260 10 inlet;
#X text 260 -6 duration (beats);
#X text 371 -16 line from 1st to 2nd value;
#X obj -2 186 spigot;
#X obj 204 425 outlet;
#X obj 261 102 tgl 12 1 empty empty lp 1 6 0 10 -262144 -1 -128992
1 1;
#X obj 121 371 delay 123;
#X obj 225 206 * 250;
#X connect 0 0 12 0;
#X connect 2 0 13 1;
#X connect 3 0 15 1;
#X connect 4 0 28 0;
#X connect 5 0 6 0;
#X connect 6 0 11 0;
#X connect 7 0 5 0;
#X connect 8 0 5 0;
#X connect 10 0 1 0;
#X connect 11 0 28 0;
#X connect 11 1 28 1;
#X connect 12 0 15 0;
#X connect 12 0 27 0;
#X connect 12 1 13 0;
#X connect 13 0 10 0;
#X connect 14 0 10 0;
#X connect 15 0 14 0;
#X connect 16 0 2 0;
#X connect 19 0 3 0;
#X connect 21 0 4 0;
#X connect 24 0 12 0;
#X connect 26 0 24 1;
#X connect 27 0 24 0;
#X connect 27 0 25 0;
#X connect 28 0 14 1;
#X connect 28 0 27 1;
#X coords 0 -1 1 1 175 15 1 100 100;
#X restore 1 251 pd ramp;
#X obj 12 16 loadbang;
#N canvas 1 77 450 300 add2 0;
#X obj 49 43 inlet;
#X obj 117 44 inlet;
#X obj 46 271 outlet;
#X obj 50 230 +;
#X obj 68 196 t b f;
#X obj 71 121 * 2;
#X obj 71 146 - 1;
#X obj 146 101 tgl 15 1 empty empty +- 2 7 0 10 -262144 -1 -128992
1 1;
#X obj 48 173 *;
#X obj 148 122 * 2;
#X obj 148 147 - 1;
#X obj 164 101 tgl 15 1 empty empty +- 2 7 0 10 -262144 -1 -128992
1 1;
#X obj 132 172 *;
#X connect 0 0 8 0;
#X connect 1 0 12 0;
#X connect 3 0 2 0;
#X connect 4 0 3 0;
#X connect 4 1 3 1;
#X connect 5 0 6 0;
#X connect 6 0 8 1;
#X connect 7 0 5 0;
#X connect 8 0 3 0;
#X connect 9 0 10 0;
#X connect 10 0 12 1;
#X connect 11 0 9 0;
#X connect 12 0 4 0;
#X coords 0 -1 1 1 80 15 1 100 100;
#X restore 65 312 pd add2;
#N canvas 530 233 997 685 spk 0;
#X obj 15 -6 inlet;
#X obj 62 466 outlet;
#X obj 253 102 nbx 3 14 -127 127 0 1 empty empty empty 0 -8 0 10 -262144
-1 -1 -24 256;
#X obj 215 102 nbx 3 14 0 999 0 1 empty empty empty 0 -8 0 10 -262144
-1 -1 4 256;
#X obj 531 52 pow -1;
#X obj 518 77 * 60000;
#X obj 503 18 r \$0globalbpm1;
#X obj 639 39 inlet;
#X text 645 20 bpm;
#X obj 64 407 line;
#X obj 368 116 t b f;
#X obj 123 274 pack f f;
#X obj 119 238 f;
#X obj 173 -1 inlet;
#X text 19 -24 trigger;
#X obj 243 -3 inlet;
#X obj 89 -6 inlet;
#X text 449 -9 line from 1st to 2nd value;
#X obj 374 469 outlet;
#X text 89 -22 wait (beats);
#X text 172 -18 up;
#X text 242 -20 down;
#X obj 310 -5 inlet;
#X text 309 -21 value;
#X obj 140 102 nbx 3 14 0 999 0 1 empty empty empty 0 -8 0 10 -262144
-1 -1 44 256;
#X obj 178 102 nbx 3 14 0 999 0 1 empty empty empty 0 -8 0 10 -262144
-1 -1 4 256;
#X msg 26 330 0;
#X obj 104 199 delay;
#X obj 235 159 *;
#X obj 35 49 t b;
#X obj 251 200 *;
#X obj 77 261 delay;
#X obj 176 346 pack f f;
#X obj 298 226 *;
#X msg 152 316 0;
#X obj 188 387 delay;
#X obj 113 468 outlet;
#X obj 110 446 int;
#X text 71 486 value/int value;
#X text 380 497 done;
#X connect 0 0 29 0;
#X connect 2 0 12 1;
#X connect 3 0 33 0;
#X connect 4 0 5 0;
#X connect 5 0 10 0;
#X connect 6 0 4 0;
#X connect 7 0 4 0;
#X connect 9 0 1 0;
#X connect 9 0 37 0;
#X connect 10 0 28 0;
#X connect 10 0 30 0;
#X connect 10 0 33 0;
#X connect 10 1 28 1;
#X connect 10 1 30 1;
#X connect 10 1 33 1;
#X connect 11 0 9 0;
#X connect 12 0 11 0;
#X connect 13 0 25 0;
#X connect 15 0 3 0;
#X connect 16 0 24 0;
#X connect 22 0 2 0;
#X connect 24 0 28 0;
#X connect 25 0 30 0;
#X connect 26 0 9 0;
#X connect 27 0 12 0;
#X connect 27 0 31 0;
#X connect 28 0 27 1;
#X connect 29 0 26 0;
#X connect 29 0 27 0;
#X connect 30 0 11 1;
#X connect 30 0 31 1;
#X connect 31 0 34 0;
#X connect 31 0 35 0;
#X connect 32 0 9 0;
#X connect 33 0 32 1;
#X connect 33 0 35 1;
#X connect 34 0 32 0;
#X connect 35 0 18 0;
#X connect 37 0 36 0;
#X coords 0 -1 1 1 190 15 1 100 100;
#X restore 20 172 pd spk;
#N canvas 530 233 997 685 spk 0;
#X obj 15 -6 inlet;
#X obj 62 466 outlet;
#X obj 253 102 nbx 3 14 -127 127 0 1 empty empty empty 0 -8 0 10 -262144
-1 -1 24 256;
#X obj 215 102 nbx 3 14 0 999 0 1 empty empty empty 0 -8 0 10 -262144
-1 -1 2 256;
#X obj 531 52 pow -1;
#X obj 518 77 * 60000;
#X obj 503 18 r \$0globalbpm1;
#X obj 639 39 inlet;
#X text 645 20 bpm;
#X obj 64 407 line;
#X obj 368 116 t b f;
#X obj 123 274 pack f f;
#X obj 119 238 f;
#X obj 173 -1 inlet;
#X text 19 -24 trigger;
#X obj 243 -3 inlet;
#X obj 89 -6 inlet;
#X text 449 -9 line from 1st to 2nd value;
#X obj 374 469 outlet;
#X text 89 -22 wait (beats);
#X text 172 -18 up;
#X text 242 -20 down;
#X obj 310 -5 inlet;
#X text 309 -21 value;
#X obj 140 102 nbx 3 14 0 999 0 1 empty empty empty 0 -8 0 10 -262144
-1 -1 36 256;
#X obj 178 102 nbx 3 14 0 999 0 1 empty empty empty 0 -8 0 10 -262144
-1 -1 2 256;
#X msg 26 330 0;
#X obj 104 199 delay;
#X obj 235 159 *;
#X obj 35 49 t b;
#X obj 251 200 *;
#X obj 77 261 delay;
#X obj 176 346 pack f f;
#X obj 298 226 *;
#X msg 152 316 0;
#X obj 188 387 delay;
#X obj 113 468 outlet;
#X obj 110 446 int;
#X text 71 486 value/int value;
#X text 380 497 done;
#X connect 0 0 29 0;
#X connect 2 0 12 1;
#X connect 3 0 33 0;
#X connect 4 0 5 0;
#X connect 5 0 10 0;
#X connect 6 0 4 0;
#X connect 7 0 4 0;
#X connect 9 0 1 0;
#X connect 9 0 37 0;
#X connect 10 0 28 0;
#X connect 10 0 30 0;
#X connect 10 0 33 0;
#X connect 10 1 28 1;
#X connect 10 1 30 1;
#X connect 10 1 33 1;
#X connect 11 0 9 0;
#X connect 12 0 11 0;
#X connect 13 0 25 0;
#X connect 15 0 3 0;
#X connect 16 0 24 0;
#X connect 22 0 2 0;
#X connect 24 0 28 0;
#X connect 25 0 30 0;
#X connect 26 0 9 0;
#X connect 27 0 12 0;
#X connect 27 0 31 0;
#X connect 28 0 27 1;
#X connect 29 0 26 0;
#X connect 29 0 27 0;
#X connect 30 0 11 1;
#X connect 30 0 31 1;
#X connect 31 0 34 0;
#X connect 31 0 35 0;
#X connect 32 0 9 0;
#X connect 33 0 32 1;
#X connect 33 0 35 1;
#X connect 34 0 32 0;
#X connect 35 0 18 0;
#X connect 37 0 36 0;
#X coords 0 -1 1 1 190 15 1 100 100;
#X restore 371 205 pd spk;
#N canvas 1 77 450 300 add2 0;
#X obj 49 43 inlet;
#X obj 117 44 inlet;
#X obj 46 271 outlet;
#X obj 50 230 +;
#X obj 68 196 t b f;
#X obj 71 121 * 2;
#X obj 71 146 - 1;
#X obj 146 101 tgl 15 1 empty empty +- 2 7 0 10 -262144 -1 -128992
1 1;
#X obj 48 173 *;
#X obj 148 122 * 2;
#X obj 148 147 - 1;
#X obj 164 101 tgl 15 1 empty empty +- 2 7 0 10 -262144 -1 -128992
1 1;
#X obj 132 172 *;
#X connect 0 0 8 0;
#X connect 1 0 12 0;
#X connect 3 0 2 0;
#X connect 4 0 3 0;
#X connect 4 1 3 1;
#X connect 5 0 6 0;
#X connect 6 0 8 1;
#X connect 7 0 5 0;
#X connect 8 0 3 0;
#X connect 9 0 10 0;
#X connect 10 0 12 1;
#X connect 11 0 9 0;
#X connect 12 0 4 0;
#X coords 0 -1 1 1 80 15 1 100 100;
#X restore 396 312 pd add2;
#N canvas 690 175 450 300 randroute 0;
#X obj 35 14 inlet;
#X obj 180 101 nbx 1 14 2 8 0 1 empty empty empty 0 -8 0 10 -262144
-1 -1 4 256;
#X obj 47 252 outlet;
#X obj 101 253 outlet;
#X obj 36 56 t b f;
#X obj 26 88 random;
#X obj 114 180 route 0 1 2 3 4 5 6 7;
#X text 118 15 send a message to a randomly chosen outlet;
#X obj 48 136 pack f f;
#X obj 148 254 outlet;
#X obj 195 252 outlet;
#X obj 249 252 outlet;
#X obj 297 248 outlet;
#X obj 344 249 outlet;
#X obj 391 247 outlet;
#X connect 0 0 4 0;
#X connect 1 0 5 1;
#X connect 4 0 5 0;
#X connect 4 1 8 1;
#X connect 5 0 8 0;
#X connect 6 0 2 0;
#X connect 6 1 3 0;
#X connect 6 2 9 0;
#X connect 6 3 10 0;
#X connect 6 4 11 0;
#X connect 6 5 12 0;
#X connect 6 6 13 0;
#X connect 6 7 14 0;
#X connect 8 0 6 0;
#X coords 0 -1 1 1 100 15 1 100 100;
#X restore 727 113 pd randroute;
#N canvas 690 175 450 300 randroute 0;
#X obj 35 14 inlet;
#X obj 180 101 nbx 1 14 2 8 0 1 empty empty empty 0 -8 0 10 -262144
-1 -1 4 256;
#X obj 47 252 outlet;
#X obj 101 253 outlet;
#X obj 36 56 t b f;
#X obj 26 88 random;
#X obj 114 180 route 0 1 2 3 4 5 6 7;
#X text 118 15 send a message to a randomly chosen outlet;
#X obj 48 136 pack f f;
#X obj 148 254 outlet;
#X obj 195 252 outlet;
#X obj 249 252 outlet;
#X obj 297 248 outlet;
#X obj 344 249 outlet;
#X obj 391 247 outlet;
#X connect 0 0 4 0;
#X connect 1 0 5 1;
#X connect 4 0 5 0;
#X connect 4 1 8 1;
#X connect 5 0 8 0;
#X connect 6 0 2 0;
#X connect 6 1 3 0;
#X connect 6 2 9 0;
#X connect 6 3 10 0;
#X connect 6 4 11 0;
#X connect 6 5 12 0;
#X connect 6 6 13 0;
#X connect 6 7 14 0;
#X connect 8 0 6 0;
#X coords 0 -1 1 1 100 15 1 100 100;
#X restore 611 113 pd randroute;
#X obj 704 25 bng 15 250 50 0 empty empty empty 17 7 0 10 -262144 -1
-1;
#X obj 586 27 bng 15 250 50 0 empty empty empty 17 7 0 10 -262144 -1
-1;
#N canvas 757 117 921 648 outrc 0;
#X obj -24 540 writesf~ 2;
#X obj -15 21 inlet~;
#X obj 47 22 inlet~;
#X obj -63 540 dac~;
#X obj 225 103 bng 15 250 50 0 empty empty R 6 9 0 8 -258113 -1 -1
;
#X msg 79 241 stop;
#X obj 207 103 bng 15 250 50 0 empty empty S 5 8 0 8 -262144 -1 -262144
;
#X msg 122 22 color 1;
#X msg 211 19 color 0;
#X obj -50 359 line~;
#X obj 52 475 *~;
#X obj 90 474 *~;
#X obj 70 438 hip~ 3;
#X obj 126 440 hip~ 3;
#X obj -76 38 *;
#X obj -65 11 t f f;
#X obj -55 330 pack 0 30;
#X obj 146 196 symbol;
#X obj 197 57 t b b;
#X obj 243 104 nbx 3 14 0 999 0 1 empty empty empty 0 -8 0 10 -262144
-1 -1 101 256;
#X obj 50 139 / 100;
#X symbolatom 155 104 8 0 0 0 - - -, f 8;
#X obj 209 183 random 1000;
#X text 323 132 append a random nr to minimize the risk of overwriting
old recordings;
#X msg 154 247 open -bytes 4 rec_\$1_\$2.wav \, start;
#X obj 156 227 pack s f;
#X obj 264 32 loadbang;
#X text -41 -36 audio out and recorder \, level \, filename \, stop/start
\, saves in the current working-directory;
#X obj 35 207 moses 1;
#X text -15 0 audio-in stereo;
#X msg 266 60 symbol gen;
#X obj 468 18 inlet;
#X obj 463 45 / 128;
#X text 474 -4 volume fade;
#X obj 48 174 * 1;
#X obj 458 71 clip 0 1;
#X obj 238 127 delay 100;
#X msg 237 150 1;
#X obj 405 74 t b f;
#X connect 1 0 12 0;
#X connect 2 0 13 0;
#X connect 4 0 7 0;
#X connect 4 0 18 0;
#X connect 5 0 0 0;
#X connect 6 0 5 0;
#X connect 6 0 8 0;
#X connect 7 0 6 0;
#X connect 8 0 6 0;
#X connect 9 0 11 0;
#X connect 9 0 10 0;
#X connect 10 0 3 0;
#X connect 10 0 0 0;
#X connect 11 0 3 1;
#X connect 11 0 0 1;
#X connect 12 0 10 1;
#X connect 13 0 11 1;
#X connect 14 0 16 0;
#X connect 15 0 14 0;
#X connect 15 1 14 1;
#X connect 16 0 9 0;
#X connect 17 0 25 0;
#X connect 18 0 17 0;
#X connect 18 1 22 0;
#X connect 19 0 20 0;
#X connect 19 0 36 0;
#X connect 20 0 34 0;
#X connect 21 0 17 1;
#X connect 22 0 25 1;
#X connect 24 0 0 0;
#X connect 25 0 24 0;
#X connect 26 0 30 0;
#X connect 28 0 15 0;
#X connect 28 1 16 0;
#X connect 30 0 21 0;
#X connect 31 0 32 0;
#X connect 32 0 35 0;
#X connect 34 0 28 0;
#X connect 35 0 38 0;
#X connect 36 0 37 0;
#X connect 37 0 34 1;
#X connect 38 0 34 0;
#X connect 38 1 34 1;
#X coords 0 -1 1 1 180 20 1 100 100;
#X restore 93 791 pd outrc;
#N canvas 544 240 997 685 ramp 0;
#X obj 28 17 inlet;
#X obj 51 438 outlet;
#X obj 147 101 nbx 3 14 -127 127 0 1 empty empty empty 0 -8 0 10 -262144
-1 -1 0 256;
#X obj 185 101 nbx 3 14 -127 127 0 1 empty empty empty 0 -8 0 10 -262144
-1 -1 127 256;
#X obj 223 101 nbx 3 14 0 999 0 1 empty empty empty 0 -8 0 10 -262144
-1 -1 5 256;
#X obj 414 96 pow -1;
#X obj 401 121 * 60000;
#X obj 425 11 r \$0globalbpm1;
#X obj 550 10 inlet;
#X text 556 -9 bpm;
#X obj 51 370 line;
#X obj 225 206 *;
#X obj 275 167 t b f;
#X obj 35 49 t b b;
#X obj 55 232 f;
#X obj 113 276 pack f f;
#X obj 113 232 f;
#X obj 128 14 inlet;
#X text 32 -1 trigger;
#X text 127 -3 start val;
#X obj 198 12 inlet;
#X text 197 -5 end val;
#X obj 260 10 inlet;
#X text 260 -6 duration (beats);
#X text 371 -16 line from 1st to 2nd value;
#X obj -2 186 spigot;
#X obj 204 425 outlet;
#X obj 261 102 tgl 12 1 empty empty lp 1 6 0 10 -262144 -1 -128992
0 1;
#X obj 121 371 delay 123;
#X obj 604 15 loadbang;
#X obj 431 68 max;
#X msg 603 36 10;
#X connect 0 0 13 0;
#X connect 2 0 14 1;
#X connect 3 0 16 1;
#X connect 4 0 11 0;
#X connect 5 0 6 0;
#X connect 6 0 12 0;
#X connect 7 0 30 0;
#X connect 8 0 30 0;
#X connect 10 0 1 0;
#X connect 11 0 15 1;
#X connect 11 0 28 1;
#X connect 12 0 11 0;
#X connect 12 1 11 1;
#X connect 13 0 16 0;
#X connect 13 0 28 0;
#X connect 13 1 14 0;
#X connect 14 0 10 0;
#X connect 15 0 10 0;
#X connect 16 0 15 0;
#X connect 17 0 2 0;
#X connect 20 0 3 0;
#X connect 22 0 4 0;
#X connect 25 0 13 0;
#X connect 27 0 25 1;
#X connect 28 0 25 0;
#X connect 28 0 26 0;
#X connect 29 0 31 0;
#X connect 30 0 5 0;
#X connect 31 0 30 1;
#X coords 0 -1 1 1 175 15 1 100 100;
#X restore 318 721 pd ramp;
#X connect 0 1 4 0;
#X connect 0 1 5 0;
#X connect 0 1 9 0;
#X connect 0 1 10 0;
#X connect 1 0 0 0;
#X connect 1 0 4 1;
#X connect 1 0 5 1;
#X connect 1 0 9 1;
#X connect 1 0 10 1;
#X connect 1 0 23 0;
#X connect 1 0 25 0;
#X connect 1 0 26 0;
#X connect 1 0 27 0;
#X connect 1 0 22 0;
#X connect 1 0 30 0;
#X connect 1 0 31 0;
#X connect 1 0 38 0;
#X connect 3 0 6 0;
#X connect 4 0 16 0;
#X connect 4 1 6 1;
#X connect 4 2 6 2;
#X connect 5 0 16 0;
#X connect 5 1 6 1;
#X connect 5 2 6 2;
#X connect 6 0 11 0;
#X connect 6 1 11 1;
#X connect 7 0 37 0;
#X connect 7 1 37 1;
#X connect 8 0 7 0;
#X connect 9 0 16 0;
#X connect 9 1 6 1;
#X connect 9 2 6 2;
#X connect 10 0 16 0;
#X connect 10 1 6 1;
#X connect 10 2 6 2;
#X connect 11 0 8 0;
#X connect 11 0 37 0;
#X connect 11 1 8 0;
#X connect 11 1 37 1;
#X connect 12 1 18 0;
#X connect 13 1 19 0;
#X connect 14 1 20 0;
#X connect 15 1 21 0;
#X connect 16 0 3 0;
#X connect 17 0 16 1;
#X connect 18 0 4 3;
#X connect 19 0 5 3;
#X connect 20 0 32 1;
#X connect 21 0 10 3;
#X connect 22 0 17 0;
#X connect 23 0 10 2;
#X connect 23 1 24 0;
#X connect 23 1 31 0;
#X connect 24 0 22 0;
#X connect 25 0 9 2;
#X connect 25 1 24 0;
#X connect 26 0 5 2;
#X connect 26 1 24 0;
#X connect 26 1 30 0;
#X connect 27 0 29 0;
#X connect 27 1 24 0;
#X connect 28 0 1 0;
#X connect 29 0 4 2;
#X connect 30 1 29 1;
#X connect 30 2 31 0;
#X connect 31 1 32 0;
#X connect 32 0 9 3;
#X connect 33 0 4 4;
#X connect 33 1 5 4;
#X connect 33 2 9 4;
#X connect 33 3 10 4;
#X connect 34 0 12 0;
#X connect 34 1 13 0;
#X connect 34 2 14 0;
#X connect 34 3 15 0;
#X connect 35 0 33 0;
#X connect 36 0 34 0;
#X connect 38 0 37 2;
