#N canvas 182 102 716 538 10;
#X obj 342 166 active;
#N canvas 424 161 167 191 clic 0;
#X obj 23 17 MouseState;
#X obj 23 82 &;
#X obj 23 100 == 0;
#X obj 23 136 s \$0-SendClic;
#X obj 48 51 t b f;
#X obj 23 118 metro 200;
#X obj 94 17 inlet;
#X connect 0 0 1 0;
#X connect 1 0 2 0;
#X connect 2 0 5 0;
#X connect 4 0 1 0;
#X connect 4 1 1 1;
#X connect 5 0 3 0;
#X connect 6 0 4 0;
#X restore 342 187 pd clic;
#X obj -136 338 dac~ 1 2;
#N canvas 608 166 249 182 ARGOnOff 0;
#X obj 100 100 tgl 18 1 \$0-SendOnOff \$0-ReceiveOnOff On/Off 20 9
0 12 -4033 -1 -1 1 1;
#X obj 99 39 loadbang;
#X msg 99 62 \; pd dsp 1;
#X obj 100 129 outlet;
#X connect 0 0 3 0;
#X connect 1 0 2 0;
#X coords 0 -1 1 1 65 18 2 100 100;
#X restore 268 165 pd ARGOnOff;
#X obj 268 190 switch~;
#N canvas 148 112 547 429 ARGO 0;
#X obj 368 103 cnv 10 20 10 empty empty Play 1 5 1 14 -262144 -1 1.04858e+06
;
#X obj 101 131 cnv 4 10 4 empty empty empty 20 12 0 14 -1 -66577 0
;
#X obj 216 399 outlet~;
#X obj 261 7 openpanel;
#X msg 212 301 1;
#X msg 141 275 0;
#X msg 289 53 set \$1;
#X msg 242 326 open \$1;
#X obj 191 233 t b b;
#X msg 124 394 set 0;
#X obj 179 138 sel 1 0;
#X floatatom 230 180 5 0 0 0 - - -;
#X msg 230 157 set \$1;
#X obj 204 210 sel 1;
#X msg 173 334 set 1;
#X obj 48 5 key;
#X obj 49 28 select 32;
#X obj -11 6 loadbang;
#X obj 243 353 readsf~ 2;
#X obj 274 272 list2symbol;
#X obj 242 301 symbol;
#X obj 262 27 t b s;
#X text 369 281 avec espace;
#X text 351 269 -> pour les noms de fichier;
#X obj 151 101 tgl 12 1 \$0-SendPlay \$0-ReceivePlay Play(Space) 14
6 1 9 -262144 -1 -1 1 1;
#X obj 100 114 bng 16 250 50 0 \$0-SendOpen \$0-ReceiveOpen empty 0
0 1 9 -262144 -1 -1;
#X obj 311 101 bng 12 250 50 0 \$0-SendStop \$0-ReceiveStop Stop 14
6 1 9 -262144 -1 -1;
#X obj 249 101 tgl 12 1 \$0-SendLoop \$0-ReceiveLoop Loop 15 6 1 9
-262144 -1 -1 1 1;
#X symbolatom 117 114 46 0 0 0 - - -;
#X obj 276 401 outlet~;
#X obj 389 131 cnv 4 10 4 empty empty empty 20 12 0 14 -1 -66577 0
;
#X msg 8 147 set \$1;
#X obj -7 196 list2symbol;
#X obj -11 40 t b b;
#X obj 139 101 bng 12 250 50 0 \$0-A \$0-B empty 14 6 1 9 -262144 -1
-1;
#X obj 139 101 bng 12 250 50 0 \$0-A \$0-B empty 14 6 1 9 -262144 -1
-1;
#X obj 174 277 delay 5;
#X obj 101 101 cnv 4 10 4 empty empty empty 20 12 0 14 -1 -66577 0
;
#X obj 113 5 inlet~;
#X obj 113 28 threshold~ 0.5 5 0.49 5;
#X msg -7 172 Lorsqu'on.aiff;
#X connect 3 0 21 0;
#X connect 4 0 18 0;
#X connect 5 0 18 0;
#X connect 6 0 28 0;
#X connect 7 0 18 0;
#X connect 8 0 36 0;
#X connect 8 1 20 0;
#X connect 9 0 24 0;
#X connect 10 0 8 0;
#X connect 10 1 9 0;
#X connect 10 1 5 0;
#X connect 11 0 13 0;
#X connect 12 0 11 0;
#X connect 13 0 8 0;
#X connect 14 0 24 0;
#X connect 14 0 35 0;
#X connect 15 0 16 0;
#X connect 16 0 24 0;
#X connect 17 0 33 0;
#X connect 18 0 2 0;
#X connect 18 1 29 0;
#X connect 18 2 11 0;
#X connect 18 2 9 0;
#X connect 19 0 20 1;
#X connect 20 0 7 0;
#X connect 21 0 28 0;
#X connect 21 1 6 0;
#X connect 24 0 10 0;
#X connect 25 0 3 0;
#X connect 26 0 5 0;
#X connect 26 0 9 0;
#X connect 27 0 12 0;
#X connect 28 0 19 0;
#X connect 28 0 31 0;
#X connect 31 0 40 0;
#X connect 32 0 6 0;
#X connect 33 0 28 0;
#X connect 33 1 40 0;
#X connect 34 0 24 0;
#X connect 36 0 4 0;
#X connect 36 0 14 0;
#X connect 38 0 39 0;
#X connect 39 0 34 0;
#X connect 40 0 32 0;
#X coords 0 -1 1 1 300 36 2 100 100;
#X restore 121 -85 pd ARGO;
#X obj -280 -163 cnv 15 15 15 empty empty ExMM23-FFTConvolution 0 8
1 14 -262144 -66577 0;
#X text 67 -89 Click ->;
#X text 73 -78 Play;
#N canvas 585 156 393 346 ARGO 0;
#X obj 40 -36 inlet~;
#X obj 101 101 cnv 12 198 18 empty empty empty 20 12 0 14 -262144 -1
1.04858e+06;
#X obj 254 105 cnv 10 44 10 empty empty Scope 1 5 1 14 -262144 -1 1.04858e+06
;
#X obj 101 101 cnv 4 10 4 empty empty empty 20 12 0 14 -1 -66577 0
;
#X msg 186 31 frgb 255 0 0;
#X text 64 254 Voir examples:cyclone:pink-test.pd;
#X text 64 265 Voir examples:cyclone:scope-...;
#X obj 128 103 nbx 4 12 1 2000 0 1 empty ColorTime ms/div 40 7 1 9
-208064 -1 -1 20 256;
#X msg -19 30 range -1 1;
#X obj 101 120 Scope~ 198 129 40 3 176 -1 1 0 0 0 0 255 0 0 255 255
255 0;
#X text 64 276 Voir MSP46ReferenceManual.pdf;
#X obj 217 103 tgl 12 1 \$0-A \$0-B Sync 15 6 1 9 -262144 -1 -1 0 1
;
#X msg 142 6 delay 0 \, triglevel 0 \, trigger 0;
#X obj 140 -41 sel 0 1;
#X msg 183 55 brgb 255 255 255;
#X msg 62 14 bufsize 176;
#X obj 94 63 * 2;
#X msg 159 -19 delay 1 \, triglevel 0.1 \, trigger 1;
#X obj 41 -8 clip~ -1 1;
#X connect 0 0 18 0;
#X connect 4 0 9 0;
#X connect 7 0 16 0;
#X connect 8 0 9 0;
#X connect 11 0 13 0;
#X connect 12 0 9 0;
#X connect 13 0 12 0;
#X connect 13 1 17 0;
#X connect 14 0 9 0;
#X connect 15 0 9 0;
#X connect 16 0 9 0;
#X connect 17 0 9 0;
#X connect 18 0 9 0;
#X coords 0 -1 1 1 200 150 2 100 100;
#X restore -2 205 pd ARGO;
#N canvas 350 62 279 383 ARGO 0;
#X obj 101 101 cnv 20 104 34 empty ColorAmpli empty 20 12 0 14 -261299
-1 1.04858e+06;
#X obj 85 274 outlet~;
#X obj 134 104 cnv 10 20 10 empty ColorAmpli Ampli 1 5 1 14 -261299
-1 1.04858e+06;
#X obj 89 -82 inlet~;
#X obj 85 245 *~;
#X obj 103 118 hsl 101 12 0 1.25 0 1 \$0-A ColorAmpli -17dB 0 7 1 9
-261299 -1 -1 6300 0;
#X obj 100 161 pow~ 10000;
#X obj 100 201 /~ 10000;
#X msg 115 77 label \$1;
#X obj 114 54 tosymbol;
#X obj 115 -45 * 80;
#X obj 115 -23 - 80;
#X obj 114 19 sprintf %ddB;
#X obj 101 101 cnv 4 10 4 empty empty empty 20 12 0 14 -1 -66577 0
;
#X obj 101 131 cnv 4 10 4 empty empty empty 20 12 0 14 -1 -66577 0
;
#X text 123 36 -> -80dB..20dB;
#X text 120 0 -> -80 .. 20;
#X text 104 139 -> 0..1.2;
#X text 109 179 -> 1..100000;
#X text 104 221 -> 0.0001..10 = -80dB..20dB;
#X obj 195 101 cnv 4 10 4 empty empty empty 20 12 0 14 -1 -66577 0
;
#X obj 195 131 cnv 4 10 4 empty empty empty 20 12 0 14 -1 -66577 0
;
#X obj 210 273 outlet~;
#X obj 214 -83 inlet~;
#X obj 210 244 *~;
#X connect 3 0 4 0;
#X connect 4 0 1 0;
#X connect 5 0 10 0;
#X connect 5 0 6 0;
#X connect 6 0 7 0;
#X connect 7 0 4 1;
#X connect 7 0 24 1;
#X connect 8 0 5 0;
#X connect 9 0 8 0;
#X connect 10 0 11 0;
#X connect 11 0 12 0;
#X connect 12 0 9 0;
#X connect 23 0 24 0;
#X connect 24 0 22 0;
#X coords 0 -1 1 1 106 36 1 100 100;
#X restore -160 290 pd ARGO;
#X text -148 273 General level;
#N canvas 295 212 233 221 ARGO 0;
#X obj 110 105 cnv 10 20 10 empty empty WhiteNoise 1 5 1 14 -262144
-1 1.04858e+06;
#X obj 101 113 cnv 4 10 4 empty empty empty 20 12 0 14 -1 -66577 0
;
#X obj 45 173 outlet~;
#X obj 44 101 noise~;
#X connect 3 0 2 0;
#X coords 0 -1 1 1 95 18 2 100 100;
#X restore 61 -117 pd ARGO;
#N canvas 302 22 582 408 ARGO 0;
#X obj 101 101 cnv 20 244 34 empty ColorTime empty 20 12 0 14 -208064
-1 1.04858e+06;
#X obj 356 280 outlet~;
#X obj 103 118 hsl 241 12 0 1 0 0 \$0-A ColorTime B2 0 7 1 9 -208064
-1 -1 16700 0;
#X obj 100 106 nbx 7 12 0 20000 0 1 \$0-A ColorTime Hz 60 7 1 9 -208064
-1 -1 246.942 256;
#X obj 194 104 cnv 10 65 10 empty ColorTime Oscill 1 5 1 14 -208064
-1 1.04858e+06;
#X obj 231 104 cnv 10 10 10 empty ColorTime Tri/Rectangle 1 5 1 14
-208064 -1 1.04858e+06;
#X obj 312 31 clip~ 0 20000;
#X obj 17 130 ftom;
#X obj 218 50 mtof;
#X obj 311 -76 +~;
#X obj 188 -43 snapshot~;
#X obj 188 -21 change;
#X obj 217 3 * 240;
#X obj 218 26 - 108;
#X obj 312 9 mtof~;
#X obj 310 -38 *~ 240;
#X obj 311 -16 -~ 108;
#X obj 18 153 + 108;
#X obj 19 175 / 240;
#X msg 113 5 set \$1;
#X msg 219 72 set \$1;
#X obj 188 -76 r \$0-SendClic;
#N canvas 60 186 518 313 pitch 0;
#X obj 76 111 mod 12;
#X obj 76 135 sel 0 1 2 3 4 5 6 7 8 9 10 11;
#X msg 252 170 A;
#X msg 279 170 A#;
#X msg 306 170 B;
#X msg 225 170 G#;
#X msg 198 170 G;
#X msg 171 170 F#;
#X msg 9 170 C;
#X msg 36 170 C#;
#X msg 63 170 D;
#X msg 90 170 D#;
#X msg 117 170 E;
#X msg 144 170 F;
#X obj 211 9 inlet;
#X obj 376 115 div 12;
#X obj 376 137 - 2;
#X obj 307 238 tosymbol;
#X obj 210 69 t f f;
#X obj 307 213 sprintf %s%d;
#X text 383 170 -> Numero de l'octave;
#X text 217 30 -> Numero MIDI de la note (69 = A3 = 440Hz);
#X msg 307 260 label \$1;
#X obj 307 283 outlet;
#X connect 0 0 1 0;
#X connect 1 0 8 0;
#X connect 1 1 9 0;
#X connect 1 2 10 0;
#X connect 1 3 11 0;
#X connect 1 4 12 0;
#X connect 1 5 13 0;
#X connect 1 6 7 0;
#X connect 1 7 6 0;
#X connect 1 8 5 0;
#X connect 1 9 2 0;
#X connect 1 10 3 0;
#X connect 1 11 4 0;
#X connect 2 0 19 0;
#X connect 3 0 19 0;
#X connect 4 0 19 0;
#X connect 5 0 19 0;
#X connect 6 0 19 0;
#X connect 7 0 19 0;
#X connect 8 0 19 0;
#X connect 9 0 19 0;
#X connect 10 0 19 0;
#X connect 11 0 19 0;
#X connect 12 0 19 0;
#X connect 13 0 19 0;
#X connect 14 0 18 0;
#X connect 15 0 16 0;
#X connect 16 0 19 1;
#X connect 17 0 22 0;
#X connect 18 0 0 0;
#X connect 18 1 15 0;
#X connect 19 0 17 0;
#X connect 22 0 23 0;
#X restore 114 53 pd pitch;
#X obj 311 -100 inlet~;
#X obj 101 131 cnv 4 10 4 empty empty empty 20 12 0 14 -1 -66577 0
;
#X obj 101 101 cnv 4 10 4 empty empty empty 20 12 0 14 -1728 -66577
0;
#X obj 409 279 outlet~;
#X obj 335 131 cnv 4 10 4 empty empty empty 0 0 0 9 -1 -66577 0;
#X obj 352 61 phasor~;
#X obj 353 87 -~ 0.5;
#X obj 493 158 -~ 0.5;
#X obj 513 195 *~;
#X obj 513 218 +~ 0.125;
#X obj 463 278 outlet~;
#X obj 493 136 expr~ $v1 < 0;
#X obj 355 252 *~ 2;
#X obj 409 247 *~ -2;
#X obj 463 242 *~ 2;
#X obj 513 242 *~ 8;
#X obj 514 277 outlet~;
#X obj 254 131 cnv 4 10 4 empty empty empty 0 0 0 9 -1 -66577 0;
#X obj 180 131 cnv 4 10 4 empty empty empty 0 0 0 9 -1 -66577 0;
#X text 84 134 Ramp up;
#X text 158 135 Ramp down;
#X text 231 136 Rectangle;
#X text 313 136 Triangle;
#X connect 2 0 9 1;
#X connect 3 0 7 0;
#X connect 6 0 28 0;
#X connect 7 0 17 0;
#X connect 8 0 20 0;
#X connect 9 0 10 0;
#X connect 9 0 15 0;
#X connect 10 0 11 0;
#X connect 11 0 12 0;
#X connect 11 0 19 0;
#X connect 12 0 13 0;
#X connect 13 0 8 0;
#X connect 13 0 22 0;
#X connect 14 0 6 0;
#X connect 15 0 16 0;
#X connect 16 0 14 0;
#X connect 17 0 18 0;
#X connect 18 0 9 1;
#X connect 19 0 2 0;
#X connect 20 0 3 0;
#X connect 21 0 10 0;
#X connect 22 0 2 0;
#X connect 23 0 9 0;
#X connect 28 0 29 0;
#X connect 29 0 35 0;
#X connect 29 0 36 0;
#X connect 29 0 31 0;
#X connect 29 0 34 0;
#X connect 30 0 31 1;
#X connect 30 0 37 0;
#X connect 31 0 32 0;
#X connect 32 0 38 0;
#X connect 34 0 30 0;
#X connect 35 0 1 0;
#X connect 36 0 26 0;
#X connect 37 0 33 0;
#X connect 38 0 39 0;
#X coords 0 -1 1 1 246 36 1 100 100;
#X restore -39 -165 pd ARGO;
#N canvas 585 156 393 346 ARGO 0;
#X obj 40 -36 inlet~;
#X obj 101 101 cnv 12 198 18 empty empty empty 20 12 0 14 -262144 -1
1.04858e+06;
#X obj 254 105 cnv 10 44 10 empty empty Scope 1 5 1 14 -262144 -1 1.04858e+06
;
#X obj 101 101 cnv 4 10 4 empty empty empty 20 12 0 14 -1 -66577 0
;
#X msg 186 31 frgb 255 0 0;
#X text 64 254 Voir examples:cyclone:pink-test.pd;
#X text 64 265 Voir examples:cyclone:scope-...;
#X obj 128 103 nbx 4 12 1 2000 0 1 empty ColorTime ms/div 40 7 1 9
-208064 -1 -1 20 256;
#X msg -19 30 range -1 1;
#X obj 101 120 Scope~ 198 129 40 3 176 -1 1 0 0 0 0 255 0 0 255 255
255 0;
#X text 64 276 Voir MSP46ReferenceManual.pdf;
#X obj 217 103 tgl 12 1 \$0-A \$0-B Sync 15 6 1 9 -262144 -1 -1 0 1
;
#X msg 142 6 delay 0 \, triglevel 0 \, trigger 0;
#X obj 140 -41 sel 0 1;
#X msg 183 55 brgb 255 255 255;
#X msg 62 14 bufsize 176;
#X obj 94 63 * 2;
#X msg 159 -19 delay 1 \, triglevel 0.1 \, trigger 1;
#X obj 41 -8 clip~ -1 1;
#X connect 0 0 18 0;
#X connect 4 0 9 0;
#X connect 7 0 16 0;
#X connect 8 0 9 0;
#X connect 11 0 13 0;
#X connect 12 0 9 0;
#X connect 13 0 12 0;
#X connect 13 1 17 0;
#X connect 14 0 9 0;
#X connect 15 0 9 0;
#X connect 16 0 9 0;
#X connect 17 0 9 0;
#X connect 18 0 9 0;
#X coords 0 -1 1 1 200 150 2 100 100;
#X restore 220 4 pd ARGO;
#X text -136 -145 Change pitch ->;
#N canvas 350 62 236 332 ARGO 0;
#X obj 101 101 cnv 20 104 34 empty ColorAmpli empty 20 12 0 14 -261299
-1 1.04858e+06;
#X obj 92 302 outlet~;
#X obj 141 104 cnv 10 20 10 empty ColorAmpli Mix 1 5 1 14 -261299 -1
1.04858e+06;
#X obj 88 75 inlet~;
#X obj 181 75 inlet~;
#X obj 86 272 *~;
#X obj 103 118 hsl 101 12 -1 1 0 1 \$0-A ColorAmpli -1 0 7 1 9 -261299
-1 -1 0 0;
#X msg 22 132 label \$1;
#X obj 21 109 tosymbol;
#X obj 101 101 cnv 4 10 4 empty empty empty 20 12 0 14 -1 -66577 0
;
#X obj 101 131 cnv 4 10 4 empty empty empty 20 12 0 14 -1 -66577 0
;
#X obj 195 101 cnv 4 10 4 empty empty empty 20 12 0 14 -1 -66577 0
;
#X obj 179 271 *~;
#X obj 136 145 + 1;
#X obj 136 170 / 2;
#X obj 101 196 t b f;
#X msg 101 220 1;
#X obj 101 247 -;
#X connect 3 0 5 0;
#X connect 4 0 12 0;
#X connect 5 0 1 0;
#X connect 6 0 8 0;
#X connect 6 0 13 0;
#X connect 7 0 6 0;
#X connect 8 0 7 0;
#X connect 12 0 1 0;
#X connect 13 0 14 0;
#X connect 14 0 15 0;
#X connect 14 0 12 1;
#X connect 15 0 16 0;
#X connect 15 1 17 1;
#X connect 16 0 17 0;
#X connect 17 0 5 1;
#X coords 0 -1 1 1 106 36 1 100 100;
#X restore -39 -55 pd ARGO;
#X text -170 -39 Mix Oscill / Noise ->;
#N canvas 350 62 236 332 ARGO 0;
#X obj 101 101 cnv 20 104 34 empty ColorAmpli empty 20 12 0 14 -261299
-1 1.04858e+06;
#X obj 92 302 outlet~;
#X obj 141 104 cnv 10 20 10 empty ColorAmpli Mix 1 5 1 14 -261299 -1
1.04858e+06;
#X obj 88 75 inlet~;
#X obj 181 75 inlet~;
#X obj 86 272 *~;
#X obj 103 118 hsl 101 12 -1 1 0 1 \$0-A ColorAmpli 0 0 7 1 9 -261299
-1 -1 5000 0;
#X msg 22 132 label \$1;
#X obj 21 109 tosymbol;
#X obj 101 101 cnv 4 10 4 empty empty empty 20 12 0 14 -1 -66577 0
;
#X obj 101 131 cnv 4 10 4 empty empty empty 20 12 0 14 -1 -66577 0
;
#X obj 195 101 cnv 4 10 4 empty empty empty 20 12 0 14 -1 -66577 0
;
#X obj 179 271 *~;
#X obj 136 145 + 1;
#X obj 136 170 / 2;
#X obj 101 196 t b f;
#X msg 101 220 1;
#X obj 101 247 -;
#X connect 3 0 5 0;
#X connect 4 0 12 0;
#X connect 5 0 1 0;
#X connect 6 0 8 0;
#X connect 6 0 13 0;
#X connect 7 0 6 0;
#X connect 8 0 7 0;
#X connect 12 0 1 0;
#X connect 13 0 14 0;
#X connect 14 0 15 0;
#X connect 14 0 12 1;
#X connect 15 0 16 0;
#X connect 15 1 17 1;
#X connect 16 0 17 0;
#X connect 17 0 5 1;
#X coords 0 -1 1 1 106 36 1 100 100;
#X restore -127 160 pd ARGO;
#X text -278 153 Connecter 2 des 5 FFT ->;
#X text -235 173 Comparer les 2 ->;
#X text -192 94 Inverser les 2 entrées ->;
#N canvas 374 240 400 278 ARGO 0;
#X obj 101 101 cnv 10 164 15 empty ColorForm empty 20 12 0 14 -188398
-1 1.04858e+06;
#X obj 101 112 cnv 4 10 4 empty empty empty 20 12 0 14 -1 -66577 0
;
#X obj 93 51 inlet~;
#X obj 101 101 cnv 4 10 4 empty empty empty 20 12 0 14 -1 -66577 0
;
#X obj 92 163 outlet~;
#X obj 139 105 cnv 10 20 10 empty ColorForm FFT-Convolution2 1 5 1
14 -188398 -1 1.04858e+06;
#X obj 236 52 inlet~;
#X obj 255 101 cnv 4 10 4 empty empty empty 20 12 0 14 -1 -66577 0
;
#N canvas 333 261 472 334 fft-analysis 0;
#X obj 106 137 *~;
#X obj 67 137 *~;
#X obj 16 64 *~;
#X obj 16 21 inlet~;
#X obj 16 87 rfft~;
#X obj 65 209 *~;
#X obj 165 91 rfft~;
#X obj 66 161 rifft~;
#X obj 188 290 outlet~;
#X obj 38 42 tabreceive~ \$0-hann;
#X obj 80 185 tabreceive~ \$0-hann;
#X obj 166 65 *~;
#X obj 166 20 inlet~;
#X obj 181 41 tabreceive~ \$0-hann;
#X obj 344 288 switch~ 1024 4 1;
#X obj 344 184 t b f b;
#X msg 377 211 0;
#X msg 335 211 1;
#X text 344 14 64..65536;
#X obj 307 56 t b f;
#X obj 308 106 /;
#X msg 364 239 set \$1 4 1;
#X obj 188 249 *~;
#X text 214 248 normalize;
#X msg 307 81 0.1;
#X obj 345 30 r \$0-FFTSize;
#X connect 0 0 7 1;
#X connect 1 0 7 0;
#X connect 2 0 4 0;
#X connect 3 0 2 0;
#X connect 4 0 1 0;
#X connect 4 1 0 0;
#X connect 5 0 22 0;
#X connect 6 0 1 1;
#X connect 6 1 0 1;
#X connect 7 0 5 0;
#X connect 9 0 2 1;
#X connect 10 0 5 1;
#X connect 11 0 6 0;
#X connect 12 0 11 0;
#X connect 13 0 11 1;
#X connect 15 0 17 0;
#X connect 15 1 21 0;
#X connect 15 2 16 0;
#X connect 16 0 14 0;
#X connect 17 0 14 0;
#X connect 19 0 24 0;
#X connect 19 1 20 1;
#X connect 20 0 22 1;
#X connect 21 0 14 0;
#X connect 22 0 8 0;
#X connect 24 0 20 0;
#X connect 25 0 15 0;
#X connect 25 0 19 0;
#X restore 92 132 pd fft-analysis;
#X text 22 185 "Simple convolution of two signals by frequency-domain
multiplication.";
#X text 19 -9 Convolution de 2 signaux Audio = multiplication du spectre
des 2 signaux;
#X text 20 19 Convolution of 2 Audio signals = multiplication of the
spectrum of the 2 signals;
#X text 23 218 cf MaxMSP463 -> Documentation -> MSP46TutorialsAndTopics.pdf
;
#X text 38 231 -> Tutorial 26: Frequency Domain Signal Processing with...
;
#X connect 2 0 8 0;
#X connect 6 0 8 1;
#X connect 8 0 4 0;
#X coords 0 -1 1 1 166 17 1 100 100;
#X restore -59 33 pd ARGO;
#N canvas 368 241 413 256 ARGO 0;
#X obj 101 101 cnv 10 164 15 empty ColorForm empty 20 12 0 14 -188398
-1 1.04858e+06;
#X obj 101 112 cnv 4 10 4 empty empty empty 20 12 0 14 -1 -66577 0
;
#X obj 93 51 inlet~;
#X obj 101 101 cnv 4 10 4 empty empty empty 20 12 0 14 -1 -66577 0
;
#X obj 92 163 outlet~;
#X obj 138 105 cnv 10 20 10 empty ColorForm FFT-Convolution1 1 5 1
14 -188398 -1 1.04858e+06;
#X obj 236 52 inlet~;
#X obj 255 101 cnv 4 10 4 empty empty empty 20 12 0 14 -1 -66577 0
;
#N canvas 316 186 487 369 fft-analysis 0;
#X obj 56 145 *~;
#X obj 16 64 *~;
#X obj 16 21 inlet~;
#X obj 16 87 rfft~;
#X obj 63 244 *~;
#X obj 165 91 rfft~;
#X obj 64 196 rifft~;
#X obj 186 325 outlet~;
#X obj 38 42 tabreceive~ \$0-hann;
#X obj 78 220 tabreceive~ \$0-hann;
#X obj 166 65 *~;
#X obj 166 20 inlet~;
#X obj 181 41 tabreceive~ \$0-hann;
#X obj 344 288 switch~ 1024 4 1;
#X obj 344 184 t b f b;
#X msg 377 211 0;
#X msg 335 211 1;
#X text 344 14 64..65536;
#X obj 307 56 t b f;
#X obj 308 106 /;
#X msg 364 239 set \$1 4 1;
#X obj 186 284 *~;
#X text 212 283 normalize;
#X msg 307 81 0.1;
#X obj 6 113 cartopol~;
#X obj 56 170 poltocar~;
#X text 33 346 cartopol~ poltocar~ cyclone library;
#X obj 152 113 cartopol~;
#X obj 106 145 +~;
#X obj 345 30 r \$0-FFTSize;
#X connect 0 0 25 0;
#X connect 1 0 3 0;
#X connect 2 0 1 0;
#X connect 3 0 24 0;
#X connect 3 1 24 1;
#X connect 4 0 21 0;
#X connect 5 0 27 0;
#X connect 5 1 27 1;
#X connect 6 0 4 0;
#X connect 8 0 1 1;
#X connect 9 0 4 1;
#X connect 10 0 5 0;
#X connect 11 0 10 0;
#X connect 12 0 10 1;
#X connect 14 0 16 0;
#X connect 14 1 20 0;
#X connect 14 2 15 0;
#X connect 15 0 13 0;
#X connect 16 0 13 0;
#X connect 18 0 23 0;
#X connect 18 1 19 1;
#X connect 19 0 21 1;
#X connect 20 0 13 0;
#X connect 21 0 7 0;
#X connect 23 0 19 0;
#X connect 24 0 0 0;
#X connect 24 1 28 0;
#X connect 25 0 6 0;
#X connect 25 1 6 1;
#X connect 27 0 0 1;
#X connect 27 1 28 1;
#X connect 28 0 25 1;
#X connect 29 0 14 0;
#X connect 29 0 18 0;
#X restore 92 132 pd fft-analysis;
#X text 21 -15 Convolution de 2 signaux Audio = multiplication du spectre
des 2 signaux;
#X text 22 13 Convolution of 2 Audio signals = multiplication of the
spectrum of the 2 signals;
#X text 20 190 cf MaxMSP463 -> Documentation -> MSP46TutorialsAndTopics.pdf
;
#X text 35 203 -> Tutorial 26: Frequency Domain Signal Processing with...
;
#X connect 2 0 8 0;
#X connect 6 0 8 1;
#X connect 8 0 4 0;
#X coords 0 -1 1 1 166 17 1 100 100;
#X restore -69 7 pd ARGO;
#N canvas 383 239 382 206 ARGO 0;
#X obj 101 101 cnv 10 164 15 empty ColorForm empty 20 12 0 14 -188398
-1 1.04858e+06;
#X obj 101 112 cnv 4 10 4 empty empty empty 20 12 0 14 -1 -66577 0
;
#X obj 93 51 inlet~;
#X obj 101 101 cnv 4 10 4 empty empty empty 20 12 0 14 -1 -66577 0
;
#X obj 92 163 outlet~;
#X obj 138 105 cnv 10 20 10 empty ColorForm FFT-Convolution3 1 5 1
14 -188398 -1 1.04858e+06;
#X obj 236 52 inlet~;
#X obj 255 101 cnv 4 10 4 empty empty empty 20 12 0 14 -1 -66577 0
;
#N canvas 334 260 487 369 fft-analysis 0;
#X obj 56 145 *~;
#X obj 16 64 *~;
#X obj 16 21 inlet~;
#X obj 16 87 rfft~;
#X obj 63 244 *~;
#X obj 165 91 rfft~;
#X obj 64 196 rifft~;
#X obj 186 325 outlet~;
#X obj 38 42 tabreceive~ \$0-hann;
#X obj 78 220 tabreceive~ \$0-hann;
#X obj 166 65 *~;
#X obj 166 20 inlet~;
#X obj 181 41 tabreceive~ \$0-hann;
#X obj 344 288 switch~ 1024 4 1;
#X obj 344 184 t b f b;
#X msg 377 211 0;
#X msg 335 211 1;
#X text 344 14 64..65536;
#X obj 307 56 t b f;
#X obj 308 106 /;
#X msg 364 239 set \$1 4 1;
#X obj 186 284 *~;
#X text 212 283 normalize;
#X msg 307 81 0.1;
#X text 33 346 cartopol~ poltocar~ cyclone library;
#X obj 152 113 cartopol~;
#X obj 106 145 *~;
#X obj 345 30 r \$0-FFTSize;
#X connect 0 0 6 0;
#X connect 1 0 3 0;
#X connect 2 0 1 0;
#X connect 3 0 0 0;
#X connect 3 1 26 0;
#X connect 4 0 21 0;
#X connect 5 0 25 0;
#X connect 5 1 25 1;
#X connect 6 0 4 0;
#X connect 8 0 1 1;
#X connect 9 0 4 1;
#X connect 10 0 5 0;
#X connect 11 0 10 0;
#X connect 12 0 10 1;
#X connect 14 0 16 0;
#X connect 14 1 20 0;
#X connect 14 2 15 0;
#X connect 15 0 13 0;
#X connect 16 0 13 0;
#X connect 18 0 23 0;
#X connect 18 1 19 1;
#X connect 19 0 21 1;
#X connect 20 0 13 0;
#X connect 21 0 7 0;
#X connect 23 0 19 0;
#X connect 25 0 0 1;
#X connect 25 0 26 1;
#X connect 26 0 6 1;
#X connect 27 0 14 0;
#X connect 27 0 18 0;
#X restore 92 132 pd fft-analysis;
#X text 21 -15 Convolution de 2 signaux Audio = multiplication du spectre
des 2 signaux;
#X text 22 13 Convolution of 2 Audio signals = multiplication of the
spectrum of the 2 signals;
#X text 170 159 "Amplitude-only comvolution";
#X connect 2 0 8 0;
#X connect 6 0 8 1;
#X connect 8 0 4 0;
#X coords 0 -1 1 1 166 17 1 100 100;
#X restore -48 62 pd ARGO;
#N canvas 366 240 414 259 ARGO 0;
#X obj 101 101 cnv 10 164 15 empty ColorForm empty 20 12 0 14 -188398
-1 1.04858e+06;
#X obj 101 112 cnv 4 10 4 empty empty empty 20 12 0 14 -1 -66577 0
;
#X obj 93 51 inlet~;
#X obj 101 101 cnv 4 10 4 empty empty empty 20 12 0 14 -1 -66577 0
;
#X obj 92 163 outlet~;
#X obj 117 105 cnv 10 20 10 empty ColorForm FFT-CrossSynthesis1 1 5
1 14 -188398 -1 1.04858e+06;
#X obj 236 52 inlet~;
#X obj 255 101 cnv 4 10 4 empty empty empty 20 12 0 14 -1 -66577 0
;
#N canvas 331 262 487 369 fft-analysis 0;
#X obj 16 64 *~;
#X obj 16 21 inlet~;
#X obj 16 87 rfft~;
#X obj 63 244 *~;
#X obj 165 91 rfft~;
#X obj 64 196 rifft~;
#X obj 186 325 outlet~;
#X obj 38 42 tabreceive~ \$0-hann;
#X obj 78 220 tabreceive~ \$0-hann;
#X obj 166 65 *~;
#X obj 166 20 inlet~;
#X obj 181 41 tabreceive~ \$0-hann;
#X obj 344 288 switch~ 1024 4 1;
#X obj 344 184 t b f b;
#X msg 377 211 0;
#X msg 335 211 1;
#X text 344 14 64..65536;
#X obj 307 56 t b f;
#X obj 308 106 /;
#X msg 364 239 set \$1 4 1;
#X obj 186 284 *~;
#X text 212 283 normalize;
#X msg 307 81 0.1;
#X obj 6 113 cartopol~;
#X obj 56 170 poltocar~;
#X text 33 346 cartopol~ poltocar~ cyclone library;
#X obj 152 113 cartopol~;
#X obj 345 30 r \$0-FFTSize;
#X connect 0 0 2 0;
#X connect 1 0 0 0;
#X connect 2 0 23 0;
#X connect 2 1 23 1;
#X connect 3 0 20 0;
#X connect 4 0 26 0;
#X connect 4 1 26 1;
#X connect 5 0 3 0;
#X connect 7 0 0 1;
#X connect 8 0 3 1;
#X connect 9 0 4 0;
#X connect 10 0 9 0;
#X connect 11 0 9 1;
#X connect 13 0 15 0;
#X connect 13 1 19 0;
#X connect 13 2 14 0;
#X connect 14 0 12 0;
#X connect 15 0 12 0;
#X connect 17 0 22 0;
#X connect 17 1 18 1;
#X connect 18 0 20 1;
#X connect 19 0 12 0;
#X connect 20 0 6 0;
#X connect 22 0 18 0;
#X connect 23 0 24 0;
#X connect 24 0 5 0;
#X connect 24 1 5 1;
#X connect 26 1 24 1;
#X connect 27 0 13 0;
#X connect 27 0 17 0;
#X restore 92 132 pd fft-analysis;
#X text 20 190 cf MaxMSP463 -> Documentation -> MSP46TutorialsAndTopics.pdf
;
#X text 35 203 -> Tutorial 26: Frequency Domain Signal Processing with...
;
#X connect 2 0 8 0;
#X connect 6 0 8 1;
#X connect 8 0 4 0;
#X coords 0 -1 1 1 166 17 1 100 100;
#X restore -37 90 pd ARGO;
#N canvas 365 240 413 256 ARGO 0;
#X obj 101 101 cnv 10 164 15 empty ColorForm empty 20 12 0 14 -188398
-1 1.04858e+06;
#X obj 101 112 cnv 4 10 4 empty empty empty 20 12 0 14 -1 -66577 0
;
#X obj 93 51 inlet~;
#X obj 101 101 cnv 4 10 4 empty empty empty 20 12 0 14 -1 -66577 0
;
#X obj 92 163 outlet~;
#X obj 116 105 cnv 10 20 10 empty ColorForm FFT-CrossSynthesis2 1 5
1 14 -188398 -1 1.04858e+06;
#X obj 236 52 inlet~;
#X obj 255 101 cnv 4 10 4 empty empty empty 20 12 0 14 -1 -66577 0
;
#N canvas 327 261 487 369 fft-analysis 0;
#X obj 56 145 *~;
#X obj 16 64 *~;
#X obj 16 21 inlet~;
#X obj 16 87 rfft~;
#X obj 63 244 *~;
#X obj 165 91 rfft~;
#X obj 64 196 rifft~;
#X obj 186 325 outlet~;
#X obj 38 42 tabreceive~ \$0-hann;
#X obj 78 220 tabreceive~ \$0-hann;
#X obj 166 65 *~;
#X obj 166 20 inlet~;
#X obj 181 41 tabreceive~ \$0-hann;
#X obj 344 288 switch~ 1024 4 1;
#X obj 344 184 t b f b;
#X msg 377 211 0;
#X msg 335 211 1;
#X text 344 14 64..65536;
#X obj 307 56 t b f;
#X obj 308 106 /;
#X msg 364 239 set \$1 4 1;
#X obj 186 284 *~;
#X text 212 283 normalize;
#X msg 307 81 0.1;
#X obj 6 113 cartopol~;
#X obj 56 170 poltocar~;
#X text 33 346 cartopol~ poltocar~ cyclone library;
#X obj 152 113 cartopol~;
#X obj 106 145 *~;
#X obj 345 30 r \$0-FFTSize;
#X connect 0 0 25 0;
#X connect 1 0 3 0;
#X connect 2 0 1 0;
#X connect 3 0 24 0;
#X connect 3 1 24 1;
#X connect 4 0 21 0;
#X connect 5 0 27 0;
#X connect 5 1 27 1;
#X connect 6 0 4 0;
#X connect 8 0 1 1;
#X connect 9 0 4 1;
#X connect 10 0 5 0;
#X connect 11 0 10 0;
#X connect 12 0 10 1;
#X connect 14 0 16 0;
#X connect 14 1 20 0;
#X connect 14 2 15 0;
#X connect 15 0 13 0;
#X connect 16 0 13 0;
#X connect 18 0 23 0;
#X connect 18 1 19 1;
#X connect 19 0 21 1;
#X connect 20 0 13 0;
#X connect 21 0 7 0;
#X connect 23 0 19 0;
#X connect 24 0 0 0;
#X connect 24 1 28 0;
#X connect 25 0 6 0;
#X connect 25 1 6 1;
#X connect 27 0 0 1;
#X connect 27 1 28 1;
#X connect 28 0 25 1;
#X connect 29 0 14 0;
#X connect 29 0 18 0;
#X restore 92 132 pd fft-analysis;
#X text 20 190 cf MaxMSP463 -> Documentation -> MSP46TutorialsAndTopics.pdf
;
#X text 35 203 -> Tutorial 26: Frequency Domain Signal Processing with...
;
#X connect 2 0 8 0;
#X connect 6 0 8 1;
#X connect 8 0 4 0;
#X coords 0 -1 1 1 166 17 1 100 100;
#X restore -27 118 pd ARGO;
#N canvas 123 78 514 501 ARGO 0;
#X obj 101 101 cnv 10 228 15 empty ColorForm empty 20 12 0 14 -188398
-1 1.04858e+06;
#X obj 101 105 cnv 10 20 10 empty ColorForm Init-FFT 1 5 1 14 -188398
-1 1.04858e+06;
#X obj 155 103 hradio 12 1 1 11 \$0-A ColorForm empty 0 -8 0 10 -188398
-1 -1 5;
#X obj 287 103 nbx 5 12 1 99999 0 1 \$0-A ColorForm empty 0 0 1 9 -188398
-1 -1 2048 256;
#X text 127 80 Nommer FFTGeneral???;
#N canvas 0 22 450 300 (subpatch) 0;
#X array \$0-hann 2048 float 0;
#X coords 0 0 2047 1 300 100 0;
#X restore 79 203 graph;
#X obj 133 391 osc~;
#X obj 133 417 *~ -0.5;
#X obj 133 441 +~ 0.5;
#X obj 106 467 tabwrite~ \$0-hann;
#X obj 173 261 samplerate~;
#X obj 154 286 swap;
#X obj 154 310 /;
#X obj 153 237 t f b f;
#X msg 378 439 resize \$1;
#X obj 350 464 s \$0-hann;
#X msg 181 360 0;
#X obj 154 335 t f b;
#X obj 154 200 pow 2;
#X msg 154 177 2;
#X obj 154 154 t b f;
#X obj 154 123 + 6;
#X text 22 50 calculate Hann window table (variable window size);
#X text 161 219 <- window-size;
#X text 249 220 64..65536;
#X text 163 137 <- 6..16;
#X text 23 14 Voir Pd-0.40.3-extended -> 3.audio.examples/I05.compressor.pd
-> pd hann-window;
#X obj 180 387 phasor~;
#N canvas 0 22 450 300 (subpatch) 0;
#X array \$0-FFTIndex 2048 float 0;
#X coords 0 0 2047 1 300 100 0;
#X restore 78 231 graph;
#X obj 216 465 tabwrite~ \$0-FFTIndex;
#X obj 412 462 s \$0-FFTIndex;
#X obj 24 468 s \$0-FFTSize;
#X connect 2 0 21 0;
#X connect 6 0 7 0;
#X connect 7 0 8 0;
#X connect 8 0 9 0;
#X connect 10 0 11 1;
#X connect 11 0 12 0;
#X connect 11 1 12 1;
#X connect 12 0 17 0;
#X connect 13 0 11 0;
#X connect 13 1 10 0;
#X connect 13 2 14 0;
#X connect 14 0 15 0;
#X connect 14 0 30 0;
#X connect 16 0 6 1;
#X connect 16 0 27 1;
#X connect 17 0 6 0;
#X connect 17 0 27 0;
#X connect 17 1 9 0;
#X connect 17 1 16 0;
#X connect 17 1 29 0;
#X connect 18 0 13 0;
#X connect 18 0 3 0;
#X connect 18 0 31 0;
#X connect 19 0 18 0;
#X connect 20 0 19 0;
#X connect 20 1 18 1;
#X connect 21 0 20 0;
#X connect 27 0 29 0;
#X coords 0 -1 1 1 230 17 1 100 100;
#X restore -213 -92 pd ARGO;
#X text -272 -93 Change ->;
#X connect 0 0 1 0;
#X connect 3 0 4 0;
#X connect 5 0 14 0;
#X connect 5 0 23 1;
#X connect 5 0 22 1;
#X connect 5 0 24 1;
#X connect 5 0 26 1;
#X connect 5 0 25 0;
#X connect 10 0 2 0;
#X connect 10 1 2 1;
#X connect 12 0 16 1;
#X connect 13 0 16 0;
#X connect 16 0 23 0;
#X connect 16 0 22 0;
#X connect 16 0 24 0;
#X connect 16 0 26 0;
#X connect 16 0 25 1;
#X connect 18 0 10 0;
#X connect 18 0 10 1;
#X connect 18 0 9 0;
#X connect 24 0 18 0;
#X connect 26 0 18 1;
