#N canvas 523 50 450 300 10;
#X obj 85 159 osc~;
#X obj 67 254 ehu/out~;
#X msg 263 209 1;
#X msg 293 208 0;
#X obj 276 128 bng 15 250 50 0 empty empty empty 17 7 0 10 -262144
-1 -1;
#X obj 255 264 ehu/gem/win 800 600;
#X obj 66 21 gemkeyboard;
#X obj 24 22 print;
#X obj 95 102 t b f;
#X obj 85 135 mtof;
#X msg 66 68 60;
#X msg 93 68 62;
#X msg 120 67 64;
#X msg 148 68 65;
#X msg 173 68 67;
#X msg 205 68 69;
#X obj 67 43 select 25 38 39 40 41 42 111 116 113 114;
#X msg 238 68 71;
#X msg 266 69 72;
#X msg 291 68 74;
#X msg 324 68 76;
#X obj 263 238 line;
#X obj 275 145 tgl 15 0 empty empty empty 17 7 0 10 -262144 -1 -1 0
1;
#X obj 264 166 select 1;
#X msg 336 147;
#X obj 140 131 hsl 128 15 0 200 0 0 empty empty empty -2 -8 0 10 -262144
-1 -1 5300 1;
#X obj 84 199 +~;
#X obj 130 150 osc~;
#X connect 0 0 26 0;
#X connect 2 0 21 0;
#X connect 3 0 21 0;
#X connect 4 0 22 0;
#X connect 6 0 7 0;
#X connect 6 0 16 0;
#X connect 8 0 4 0;
#X connect 8 1 9 0;
#X connect 9 0 0 0;
#X connect 10 0 8 0;
#X connect 11 0 8 0;
#X connect 12 0 8 0;
#X connect 13 0 8 0;
#X connect 14 0 8 0;
#X connect 15 0 8 0;
#X connect 16 0 10 0;
#X connect 16 1 11 0;
#X connect 16 2 12 0;
#X connect 16 3 13 0;
#X connect 16 4 14 0;
#X connect 16 5 15 0;
#X connect 16 6 17 0;
#X connect 16 7 18 0;
#X connect 16 8 19 0;
#X connect 16 9 20 0;
#X connect 17 0 8 0;
#X connect 18 0 8 0;
#X connect 19 0 8 0;
#X connect 20 0 8 0;
#X connect 21 0 1 2;
#X connect 22 0 23 0;
#X connect 23 0 2 0;
#X connect 24 0 22 0;
#X connect 25 0 27 0;
#X connect 26 0 1 0;
#X connect 26 0 1 1;
#X connect 27 0 26 1;
