#N canvas 513 63 402 465 10;
#X obj 164 270 ehu/out~;
#X obj 231 10 ehu/gem/win 800 600;
#X obj 70 31 gemkeyboard;
#X obj 24 32 print;
#X obj 70 54 select 25 38 39 40 41 42 111 116 113 114;
#X obj 70 80 tgl 15 0 empty empty empty 17 7 0 10 -262144 -1 -1 1 1
;
#X obj 93 80 tgl 15 0 empty empty empty 17 7 0 10 -262144 -1 -1 1 1
;
#X obj 117 80 tgl 15 0 empty empty empty 17 7 0 10 -262144 -1 -1 1
1;
#X obj 141 80 tgl 15 0 empty empty empty 17 7 0 10 -262144 -1 -1 1
1;
#X obj 164 80 tgl 15 0 empty empty empty 17 7 0 10 -262144 -1 -1 1
1;
#X obj 188 80 tgl 15 0 empty empty empty 17 7 0 10 -262144 -1 -1 1
1;
#X obj 212 80 tgl 15 0 empty empty empty 17 7 0 10 -262144 -1 -1 1
1;
#X obj 235 80 tgl 15 0 empty empty empty 17 7 0 10 -262144 -1 -1 1
1;
#X obj 259 80 tgl 15 0 empty empty empty 17 7 0 10 -262144 -1 -1 1
1;
#X obj 283 80 tgl 15 0 empty empty empty 17 7 0 10 -262144 -1 -1 1
1;
#X obj 164 322 ehu/plot;
#X obj 165 230 *~ 1;
#X obj 25 228 key;
#X obj 65 235 keyup;
#X obj 29 277 keyname;
#X obj 188 101 niko_synth 71;
#X obj 70 100 niko_synth 62;
#X obj 93 120 niko_synth 64;
#X obj 117 141 niko_synth 65;
#X obj 141 163 niko_synth 67;
#X obj 164 184 niko_synth 69;
#X obj 212 122 niko_synth 72;
#X obj 235 145 niko_synth 74;
#X obj 259 165 niko_synth 76;
#X obj 283 186 niko_synth 78;
#X floatatom 22 248 5 0 0 0 - - -;
#X floatatom 65 258 5 0 0 0 - - -;
#X floatatom 27 305 5 0 0 0 - - -;
#X symbolatom 69 305 10 0 0 0 - - -;
#X obj 25 336 ehu/foldover~;
#X connect 0 0 15 0;
#X connect 2 0 3 0;
#X connect 2 0 4 0;
#X connect 4 0 5 0;
#X connect 4 1 6 0;
#X connect 4 2 7 0;
#X connect 4 3 8 0;
#X connect 4 4 9 0;
#X connect 4 5 10 0;
#X connect 4 6 11 0;
#X connect 4 7 12 0;
#X connect 4 8 13 0;
#X connect 4 9 14 0;
#X connect 5 0 21 0;
#X connect 6 0 22 0;
#X connect 7 0 23 0;
#X connect 8 0 24 0;
#X connect 9 0 25 0;
#X connect 10 0 20 0;
#X connect 11 0 26 0;
#X connect 12 0 27 0;
#X connect 13 0 28 0;
#X connect 14 0 29 0;
#X connect 16 0 0 0;
#X connect 16 0 0 1;
#X connect 17 0 30 0;
#X connect 18 0 31 0;
#X connect 19 0 32 0;
#X connect 19 1 33 0;
#X connect 20 0 16 0;
#X connect 21 0 16 0;
#X connect 22 0 16 0;
#X connect 23 0 16 0;
#X connect 24 0 16 0;
#X connect 25 0 16 0;
#X connect 26 0 16 0;
#X connect 27 0 16 0;
#X connect 28 0 16 0;
#X connect 29 0 16 0;
