#N canvas 441 92 465 427 10;
#X declare -lib flatspace;
#X obj 10 5 bng 50 250 50 0 empty empty empty 17 7 0 10 -258113 -1
-1;
#X msg 261 73 5;
#X obj 205 333 osc~;
#X obj 206 367 ehu/out~;
#X obj 141 20 ehu/dsp;
#X obj 205 208 autoscale 0 127;
#X floatatom 205 257 5 0 0 0 - - -;
#X floatatom 205 309 5 0 0 0 - - -;
#X text 244 309 freq;
#X obj 205 278 mtof;
#X text 238 279 MIDI to freq;
#X obj 205 232 int;
#X text 12 208 interpret as if were MIDI note;
#X text 231 233 get rid of the float;
#X obj 49 96 ehu/arduino/control 2;
#X obj 10 150 ehu/arduino/get_analog;
#X obj 261 96 ehu/arduino/set_analog;
#X connect 0 0 1 0;
#X connect 0 0 4 0;
#X connect 0 0 14 0;
#X connect 0 0 15 0;
#X connect 1 0 16 0;
#X connect 2 0 3 0;
#X connect 2 0 3 1;
#X connect 5 0 11 0;
#X connect 6 0 9 0;
#X connect 7 0 2 0;
#X connect 9 0 7 0;
#X connect 11 0 6 0;
#X connect 15 5 5 0;
