#N canvas 362 222 397 404 10;
#X obj -258 99 ehu/gem/cam 0;
#X obj -149 252 ehu/gem/texture 150 100 300 200;
#X obj -142 -6 cnv 15 175 215 empty empty empty 20 12 0 14 -106138
-66577 0;
#X obj -152 212 cnv 15 120 25 empty empty empty 20 12 0 14 -24198 -66577
0;
#X floatatom -134 -3 5 0 64 1 segments - -;
#X floatatom -119 17 5 0 0 1 sourceAngle - -;
#X obj -149 217 pix_kaleidoscope;
#X floatatom -88 93 5 0 0 1 outputAngle - -;
#X floatatom -42 189 5 0.1 10 1 sap - -;
#X floatatom -58 173 5 0 1 1 rlp - -;
#X obj -73 152 pack;
#X obj -19 152 t b f;
#X floatatom -73 113 4 0 100 0 - - -;
#X floatatom -21 113 4 0 100 0 - - -;
#X obj -73 132 * 0.01;
#X obj -21 132 * 0.01;
#X obj -103 74 pack;
#X obj -49 74 t b f;
#X floatatom -103 35 4 0 100 0 - - -;
#X floatatom -51 35 4 0 100 0 - - -;
#X obj -103 54 * 0.01;
#X obj -51 54 * 0.01;
#X obj -293 29 ehu/gem/win 300 200;
#X connect 0 0 6 0;
#X connect 4 0 6 1;
#X connect 5 0 6 2;
#X connect 6 0 1 0;
#X connect 7 0 6 4;
#X connect 8 0 6 7;
#X connect 9 0 6 6;
#X connect 10 0 6 5;
#X connect 11 0 10 0;
#X connect 11 1 10 1;
#X connect 12 0 14 0;
#X connect 13 0 15 0;
#X connect 14 0 10 0;
#X connect 15 0 11 0;
#X connect 16 0 6 3;
#X connect 17 0 16 0;
#X connect 17 1 16 1;
#X connect 18 0 20 0;
#X connect 19 0 21 0;
#X connect 20 0 16 0;
#X connect 21 0 17 0;
