#N canvas 519 60 430 523 10;
#X obj -39 157 cnv 15 400 60 empty empty empty 20 12 0 14 -162280 -66577
0;
#X text 156 197 GEM SEPARATES EACH SIGNAL LINE;
#X text 156 185 ALWAYS USE THIS TO MAKE SURE;
#X text 158 172 FROM SAME VIDEO OUTLET;
#X obj -45 59 cnv 15 330 90 empty empty empty 20 12 0 14 -4034 -66577
0;
#X obj 10 223 cnv 15 190 170 empty empty empty 20 12 0 14 -233017 -66577
0;
#X obj 16 14 bng 35 250 50 0 empty empty click_me 40 10 0 10 -258079
-1 -1;
#X obj 45 274 pix_delay;
#X obj 75 304 hsl 100 15 0 1 0 0 empty empty fade -2 -6 0 8 -4034 -1
-1 0 1;
#X obj 20 324 pix_mix 0;
#X msg 162 273 0.5;
#X obj 120 109 bng 15 250 50 0 empty empty empty 0 -6 0 10 -262144
-1 -1;
#X msg 133 232 100;
#X text 209 40 inits window;
#X text 135 107 inits video and effect;
#X obj 96 257 nbx 5 14 -1e+37 1e+37 0 0 empty empty delay_in_frames
0 -6 0 10 -262144 -1 -1 0 256;
#X floatatom 111 332 5 0 100 0 blur - -;
#X obj 20 368 pix_motionblur;
#X obj 111 351 / 100;
#X msg 162 334 70;
#X obj 208 22 ehu/gem/win 800 600;
#X obj -35 166 separator;
#X obj -35 186 pix_separator;
#X obj 64 165 separator;
#X obj 64 185 pix_separator;
#X text 144 161 < WHEN TAKING MORE THAN ONE CABLE;
#X obj -35 96 ehu/gem/cam 0;
#X obj 20 415 ehu/gem/texture 400 300 800 600;
#X connect 6 0 11 0;
#X connect 6 0 20 0;
#X connect 7 0 9 1;
#X connect 8 0 9 2;
#X connect 9 0 17 0;
#X connect 10 0 8 0;
#X connect 11 0 10 0;
#X connect 11 0 12 0;
#X connect 11 0 19 0;
#X connect 12 0 15 0;
#X connect 15 0 7 1;
#X connect 16 0 18 0;
#X connect 17 0 27 0;
#X connect 18 0 17 1;
#X connect 19 0 16 0;
#X connect 21 0 22 0;
#X connect 22 0 9 0;
#X connect 23 0 24 0;
#X connect 24 0 7 0;
#X connect 26 0 21 0;
#X connect 26 0 23 0;
