#N canvas 3 49 1009 717 10;
#X obj 148 325 ehu/rev~;
#X obj 402 -7 ehu/dsp;
#X obj 150 507 ehu/plot;
#X obj 318 459 ehu/hit_sensor;
#X obj 317 339 ehu/pitch_sensor;
#X text 76 8 sound in;
#X text 49 191 just a delay;
#X text 5 260 basic ring modulator;
#X text 70 465 sound out;
#X text 299 -6 PD dsp on/off;
#X text 431 491 listens for beats or hits;
#X obj 147 -1 ehu/in~;
#X obj 147 119 ehu/vol~;
#X obj 149 454 ehu/out~;
#X obj 148 247 ehu/ring~;
#X obj 147 167 ehu/del~ 1000;
#X obj 147 42 ehu/mix~;
#N canvas 335 380 559 305 others 0;
#X obj 22 47 pddp/dsp;
#X obj 329 51 grid grid1 200 0 199 200 0 199 1 1 1 10 10 408 68;
#X text 39 89 envgen;
#X text 22 29 pddp/dsp;
#X text 329 22 unauthorized/grid;
#X text 34 -14 right click for help on each object;
#X obj 137 48 pan/equal_power_pan~;
#X obj 42 115 ggee/envgen 200 140 1 0  ;
#X restore 863 16 pd others;
#X text 659 -6 interesting abstractions and object;
#X text 660 7 from other libraries here >;
#X text -36 -57 these are some basic abstractions that deal with sound.
note that rev~ just wraps freeverb~ external so that must be installed
and loaded;
#X obj 323 75 ehu/splayer2~;
#X obj 328 310 ehu/splayer~;
#X obj 328 287 tgl 15 0 empty empty empty 17 7 0 10 -262144 -1 -1 0
1;
#X text 467 128 with loads of options;
#X text 468 110 plays a sound file;
#X obj 660 281 ehu/recorder~ rec1.wav;
#X text 439 385 analyses sound pitch;
#X obj 351 286 ehu/abs_path;
#X obj 333 55 ehu/abs_path;
#X obj 658 169 ehu/foldover~;
#X obj 658 61 ehu/limiter~;
#X text 514 -50 RIGHT CLICK > HELP to open help patches for each abstraction
;
#X text 769 114 just a distortion;
#X text 779 201 kind of distortion;
#X obj 658 95 ehu/distortion~;
#X text 658 262 records input to a stereo file;
#X text 421 312 basic play of a sound file;
#X text 751 59 just wraps zexy's limiter;
#X text 779 132 wraps dist~;
#X text 780 218 wraps foldover~;
#X text 36 374 wraps freeverb~;
#X text 64 351 a reverb;
#X msg 333 36 sounds/whistle2.wav;
#X msg 351 267 sounds/whistle2.wav;
#X obj 662 342 ehu/fuzz~;
#X obj 662 403 ehu/vibrato~;
#X obj 662 474 ehu/phaser~;
#X obj 663 549 ehu/tremolo~;
#X text 762 356 clip distortion;
#X text 62 125 volume;
#X text 16 57 mixes two signals;
#X obj 318 581 ehu/signal_sensor;
#X text 450 577 listens for signal/silence;
#X text 451 590 changes;
#X text 6 542 plots audio signal;
#X connect 23 0 22 0;
#X connect 28 0 22 1;
#X connect 29 0 21 1;
#X connect 43 0 29 0;
#X connect 44 0 28 0;
