#N canvas 296 190 401 357 10;
#X declare -lib ggee;
#X obj 14 -30 bng 35 250 50 0 empty empty click_me 40 10 0 10 -258079
-1 -1;
#X obj 222 173 nbx 5 25 -1e+37 1e+37 0 0 empty empty x_position 0 -10
0 10 -4032 -1 -1 0 256;
#X obj 306 174 nbx 5 25 -1e+37 1e+37 0 0 empty empty y_position 0 -10
0 10 -4032 -1 -1 0 256;
#X msg 14 66 set 3;
#X obj 31 16 ehu/gem/win 640 450;
#X obj 222 78 ehu/gem/track;
#X obj 117 223 ehu/gem/texture 200 200 200 150;
#X obj 222 22 ehu/gem/cam 0;
#X obj 14 97 ehu/gem/picture picts/alpha.tif;
#X text 55 65 above the cam;
#X connect 0 0 3 0;
#X connect 0 0 4 0;
#X connect 1 0 6 2;
#X connect 2 0 6 3;
#X connect 3 0 8 0;
#X connect 5 0 1 0;
#X connect 5 1 2 0;
#X connect 7 0 5 0;
#X connect 8 0 6 0;
