#N canvas 119 53 490 702 12;
#X declare -lib ggee;
#X obj 35 640 ehu/out~;
#X obj 33 447 ehu/distortion~;
#X obj 31 236 ehu/rev~;
#X obj 30 159 ehu/ring~;
#X text 170 464 ehu/distortion~;
#X text 209 380 ehu/del~;
#X text 169 276 ehu/rev~;
#X text 139 176 ehu/ring~;
#X obj 34 526 ehu/foldover~;
#X obj 29 80 tgl 15 0 empty empty empty 17 7 0 10 -262144 -1 -1 1 1
;
#X obj 32 368 ehu/del~ 3000;
#X obj 321 567 ehu/plot;
#X text 168 549 ehu/foldover~;
#X obj 272 47 ehu/dsp;
#X obj 272 18 loadbang;
#X obj 29 103 ehu/splayer~ sounds/whistle2.wav;
#X text 333 97 you could also use;
#X obj 334 121 ehu/in~;
#X connect 1 0 8 0;
#X connect 1 1 8 1;
#X connect 2 0 10 0;
#X connect 2 1 10 1;
#X connect 3 0 2 0;
#X connect 3 1 2 1;
#X connect 8 0 0 0;
#X connect 8 1 0 1;
#X connect 8 1 11 0;
#X connect 9 0 15 0;
#X connect 10 0 1 0;
#X connect 10 1 1 1;
#X connect 14 0 13 0;
#X connect 14 0 9 0;
#X connect 15 0 3 0;
#X connect 15 1 3 1;
