#N canvas 416 179 458 473 10;
#X declare -lib ggee;
#X declare -lib ggee;
#X obj 3 146 cnv 15 180 130 empty empty empty 20 12 0 14 -4034 -66577
0;
#X obj 36 26 bng 35 250 50 0 empty empty click_me 40 10 0 10 -258079
-1 -1;
#X text 147 5 open video window;
#X obj 232 130 cnv 15 160 60 empty empty empty 20 12 0 14 -24198 -66577
0;
#X floatatom 319 132 5 0 99 0 blur - -;
#X obj 238 170 pix_motionblur;
#X obj 319 151 / 100;
#X obj 233 372 cnv 15 160 90 empty empty empty 20 12 0 14 -24198 -66577
0;
#X obj 238 442 pix_lumaoffset;
#X floatatom 279 391 5 0 0 2 offset - -;
#X floatatom 340 386 5 0 0 2 gap - -;
#X obj 317 402 tgl 15 0 empty empty empty 0 -6 0 8 -262144 -1 -1 0
1;
#X msg 239 421 fill \$1;
#X msg 317 420 smooth \$1;
#X obj 239 403 tgl 15 0 empty empty empty 0 -6 0 8 -262144 -1 -1 0
1;
#X obj 233 63 cnv 15 160 60 empty empty empty 20 12 0 14 -24198 -66577
0;
#X floatatom 273 80 5 0 255 2 contrast - -;
#X floatatom 324 85 5 0 1 2 saturation - -;
#X obj 238 99 pix_contrast;
#X obj 233 198 cnv 15 160 80 empty empty empty 20 12 0 14 -24198 -66577
0;
#X obj 238 254 pix_gain;
#X floatatom 260 229 5 0 0 1 common - -;
#X msg 339 230 1 0.5 0;
#X msg 317 254 0 0.4 0.8 1;
#X obj 231 285 cnv 15 160 80 empty empty empty 20 12 0 14 -24198 -66577
0;
#X floatatom 333 313 5 0 0 2 interlace - -;
#X obj 238 329 pix_scanline;
#X obj 252 286 tgl 15 0 empty empty empty 0 -6 0 8 -262144 -1 -1 0
1;
#X msg 252 305 mode \$1;
#X msg 421 70 1.2;
#X msg 421 92 1;
#X msg 421 200 2.07;
#X msg 421 297 1;
#X msg 421 329 5;
#X msg 421 379 30;
#X msg 421 399 4;
#X msg 421 424 1;
#X obj 421 26 bng 15 250 50 0 empty empty empty 0 -6 0 10 -257985 -1
-1;
#X msg 421 136 30;
#X obj 166 28 ehu/gem/win 600 400;
#X obj 17 348 ehu/gem/texture 300 200 600 400;
#X obj 7 166 ehu/gem/video videos/whistle.mp4;
#X connect 1 0 39 0;
#X connect 1 0 41 1;
#X connect 4 0 6 0;
#X connect 5 0 20 0;
#X connect 6 0 5 1;
#X connect 8 0 40 0;
#X connect 9 0 8 1;
#X connect 10 0 8 2;
#X connect 11 0 13 0;
#X connect 12 0 8 0;
#X connect 13 0 8 0;
#X connect 14 0 12 0;
#X connect 16 0 18 1;
#X connect 17 0 18 2;
#X connect 18 0 5 0;
#X connect 20 0 26 0;
#X connect 21 0 20 1;
#X connect 22 0 20 2;
#X connect 23 0 20 2;
#X connect 25 0 26 1;
#X connect 26 0 8 0;
#X connect 27 0 28 0;
#X connect 28 0 26 0;
#X connect 29 0 16 0;
#X connect 30 0 17 0;
#X connect 31 0 21 0;
#X connect 32 0 27 0;
#X connect 33 0 25 0;
#X connect 34 0 9 0;
#X connect 35 0 10 0;
#X connect 36 0 11 0;
#X connect 37 0 29 0;
#X connect 37 0 30 0;
#X connect 37 0 31 0;
#X connect 37 0 32 0;
#X connect 37 0 33 0;
#X connect 37 0 34 0;
#X connect 37 0 35 0;
#X connect 37 0 36 0;
#X connect 37 0 38 0;
#X connect 38 0 4 0;
#X connect 41 0 18 0;
