#N canvas 240 77 531 449 10;
#X text 8 6 schedule_max_min;
#X text 34 38 float_1;
#X text 98 38 float_2;
#X text 37 299 schedule float_1 and float_2;
#X text 275 314 (float_1 >= float_2);
#X text 297 330 (float_1 < float_2);
#X obj 49 55 inlet;
#X obj 49 261 outlet;
#X obj 100 55 inlet;
#X obj 49 140 < 0;
#X msg 78 223 \$2 \$1;
#X obj 49 171 pack 0 0 0;
#X obj 49 119 -;
#X obj 49 80 t f f;
#X obj 100 78 t b f;
#X obj 49 193 route 0 1;
#X text 47 315 to a list of float_1 float_2 \, if;
#X text 48 330 or to a list of float_2 float_1 \, if;
#X connect 6 0 13 0;
#X connect 8 0 14 0;
#X connect 9 0 11 0;
#X connect 10 0 7 0;
#X connect 11 0 15 0;
#X connect 12 0 9 0;
#X connect 13 0 12 0;
#X connect 13 1 11 1;
#X connect 14 0 12 0;
#X connect 14 1 11 2;
#X connect 14 1 12 1;
#X connect 15 0 7 0;
#X connect 15 1 10 0;
