#N canvas 210 304 917 708 10;
#X obj 483 630 throw~ \$1-catch;
#X obj 152 93 \$3;
#X obj 483 585 *~;
#X obj 267 352 line~;
#X obj 518 456 mtof;
#X msg 451 456 clear;
#X floatatom 582 495 5 0 0 0 - - -;
#N canvas 1 89 450 300 5_line~ 0;
#X obj 80 123 line~;
#X obj 79 147 outlet~;
#X obj 80 73 inlet;
#X obj 136 123 line~;
#X obj 135 147 outlet~;
#X obj 136 73 inlet;
#X obj 193 123 line~;
#X obj 192 147 outlet~;
#X obj 193 73 inlet;
#X obj 247 123 line~;
#X obj 246 147 outlet~;
#X obj 247 73 inlet;
#X obj 304 123 line~;
#X obj 303 147 outlet~;
#X obj 304 73 inlet;
#X msg 81 96 \$1 20;
#X msg 136 96 \$1 20;
#X msg 193 96 \$1 20;
#X msg 247 96 \$1 20;
#X msg 305 96 \$1 20;
#X connect 0 0 1 0;
#X connect 2 0 15 0;
#X connect 3 0 4 0;
#X connect 5 0 16 0;
#X connect 6 0 7 0;
#X connect 8 0 17 0;
#X connect 9 0 10 0;
#X connect 11 0 18 0;
#X connect 12 0 13 0;
#X connect 14 0 19 0;
#X connect 15 0 0 0;
#X connect 16 0 3 0;
#X connect 17 0 6 0;
#X connect 18 0 9 0;
#X connect 19 0 12 0;
#X restore 518 532 pd 5_line~;
#X obj 582 452 loadbang;
#X obj 502 554 bq~ --------;
#X msg 267 331 \$1 20;
#X obj 386 284 *~ 1000;
#X obj 386 306 min~ 1;
#X obj 386 328 max~ -0.1;
#X obj 518 415 min 80;
#X obj 624 356 random 30;
#X obj 700 511 \$3;
#X obj 700 535 > 23;
#X obj 700 557 pack f \$1;
#X msg 700 585 set \$2-catch-\$1;
#X obj 700 488 loadbang;
#X obj 624 337 loadbang;
#X obj 153 70 loadbang;
#X obj 518 484 + 80;
#X obj 518 353 sqrt;
#X obj 519 511 bq_coef_bp;
#X obj 624 378 + 70;
#X obj 518 373 sqrt;
#X obj 267 236 * 5;
#X obj 133 27 r metro_sound_part_fluide;
#X obj 301 305 min 0.1;
#X obj 386 263 -~ 0.98;
#X obj 384 236 phasor~;
#X obj 463 66 loadbang;
#X obj 464 88 random 10000;
#X obj 465 110 / 10000;
#X obj 385 205 mtof;
#X obj 266 269 pow 2;
#X obj 463 162 + 25;
#X obj 464 137 * 45;
#X obj 461 210 mtof;
#X obj 458 237 phasor~;
#X obj 459 282 *~ 1000;
#X obj 459 304 min~ 1;
#X obj 459 326 max~ -0.1;
#X obj 459 261 -~ 0.98;
#X obj 462 185 + 4;
#X obj 152 114 * 8;
#X obj 519 434 + 50;
#X msg 582 474 2;
#X obj 518 393 * 10;
#X obj 132 147 f;
#X msg 132 172 \$1 8;
#X obj 133 197 tab_min_max tab_link-\$2;
#X connect 1 0 47 0;
#X connect 2 0 0 0;
#X connect 3 0 2 0;
#X connect 4 0 23 0;
#X connect 5 0 9 0;
#X connect 6 0 25 1;
#X connect 7 0 9 1;
#X connect 7 1 9 2;
#X connect 7 2 9 3;
#X connect 7 3 9 4;
#X connect 7 4 9 5;
#X connect 8 0 49 0;
#X connect 9 0 2 1;
#X connect 10 0 3 0;
#X connect 11 0 12 0;
#X connect 12 0 13 0;
#X connect 13 0 9 0;
#X connect 14 0 48 0;
#X connect 15 0 26 0;
#X connect 16 0 17 0;
#X connect 17 0 18 0;
#X connect 18 0 19 0;
#X connect 19 0 0 0;
#X connect 20 0 16 0;
#X connect 21 0 15 0;
#X connect 22 0 1 0;
#X connect 23 0 25 0;
#X connect 24 0 27 0;
#X connect 25 0 7 0;
#X connect 25 1 7 1;
#X connect 25 2 7 2;
#X connect 25 3 7 3;
#X connect 25 4 7 4;
#X connect 26 0 14 1;
#X connect 27 0 50 0;
#X connect 28 0 37 0;
#X connect 29 0 51 0;
#X connect 30 0 10 0;
#X connect 31 0 11 0;
#X connect 32 0 31 0;
#X connect 33 0 34 0;
#X connect 34 0 35 0;
#X connect 35 0 39 0;
#X connect 36 0 32 0;
#X connect 37 0 10 0;
#X connect 38 0 36 0;
#X connect 38 0 46 0;
#X connect 39 0 38 0;
#X connect 40 0 41 0;
#X connect 41 0 45 0;
#X connect 42 0 43 0;
#X connect 43 0 44 0;
#X connect 44 0 9 0;
#X connect 45 0 42 0;
#X connect 46 0 40 0;
#X connect 47 0 51 0;
#X connect 48 0 4 0;
#X connect 49 0 6 0;
#X connect 50 0 14 0;
#X connect 51 0 52 0;
#X connect 52 0 53 0;
#X connect 53 2 28 0;
#X connect 53 2 24 0;
