#N canvas 526 346 700 404 10;
#X obj 394 28 keyname;
#X obj 394 142 pack s f;
#X obj 394 195 route a w s e d f t g y h u j k o l p;
#X msg 394 217 60 \$1;
#X msg 404 237 61 \$1;
#X msg 414 257 62 \$1;
#X msg 424 277 63 \$1;
#X msg 434 297 64 \$1;
#X obj 394 164 list trim;
#X msg 454 217 65 \$1;
#X msg 464 237 66 \$1;
#X msg 474 257 67 \$1;
#X msg 484 277 68 \$1;
#X msg 494 297 69 \$1;
#X msg 514 217 70 \$1;
#X msg 524 237 71 \$1;
#X msg 534 257 72 \$1;
#X msg 544 277 73 \$1;
#X msg 554 297 74 \$1;
#X msg 594 217 75 \$1;
#X text 7 8 Generate simple MIDI notes from the computer keyboard \;
\; Use the 'ASDF...' row (starts at middle C). W \, E \, T \, Y and
U are black keys. \; \; out1 MIDI note/velocity pairs (float);
#X obj 439 53 * -1;
#X obj 439 75 + 1;
#X obj 439 117 * 127;
#X text 476 55 0 is key down so we need to invert, f 17;
#X text 480 118 then scale to 0-127 range;
#X obj 394 352 outlet;
#X connect 0 0 21 0;
#X connect 0 1 1 0;
#X connect 1 0 8 0;
#X connect 2 0 3 0;
#X connect 2 1 4 0;
#X connect 2 2 5 0;
#X connect 2 3 6 0;
#X connect 2 4 7 0;
#X connect 2 5 9 0;
#X connect 2 6 10 0;
#X connect 2 7 11 0;
#X connect 2 8 12 0;
#X connect 2 9 13 0;
#X connect 2 10 14 0;
#X connect 2 11 15 0;
#X connect 2 12 16 0;
#X connect 2 13 17 0;
#X connect 2 14 18 0;
#X connect 2 15 19 0;
#X connect 3 0 26 0;
#X connect 4 0 26 0;
#X connect 5 0 26 0;
#X connect 6 0 26 0;
#X connect 7 0 26 0;
#X connect 8 0 2 0;
#X connect 9 0 26 0;
#X connect 10 0 26 0;
#X connect 11 0 26 0;
#X connect 12 0 26 0;
#X connect 13 0 26 0;
#X connect 14 0 26 0;
#X connect 15 0 26 0;
#X connect 16 0 26 0;
#X connect 17 0 26 0;
#X connect 18 0 26 0;
#X connect 19 0 26 0;
#X connect 21 0 22 0;
#X connect 22 0 23 0;
#X connect 23 0 1 1;
