#N canvas 210 494 928 304 10;
#X obj 11 11 cnv 15 15 15 empty empty E 4 9 1 11 -1 -204800 0;
#X obj 29 11 cnv 15 15 15 empty empty A 4 9 1 11 -1 -204800 0;
#X obj 47 11 cnv 15 15 15 empty empty T 4 9 1 11 -1 -204800 0;
#X obj 27 11 cnv 1 1 15 empty empty empty 20 12 0 14 -66577 -66577
0;
#X obj 45 11 cnv 1 1 15 empty empty empty 20 12 0 14 -66577 -66577
0;
#X obj 63 11 cnv 1 1 15 empty empty empty 20 12 0 14 -66577 -66577
0;
#X obj 11 162 cnv 1 498 1 empty empty empty 4 9 1 11 -66577 -204800
0;
#X obj 11 29 cnv 11 55 11 empty empty Channel 1 6 1 10 -1 -204800 0
;
#X obj 11 41 cnv 1 55 1 empty empty empty 4 9 1 11 -66577 -204800 0
;
#X obj 11 43 cnv 11 55 11 empty empty Mix 2 6 1 10 -1 -204800 0;
#X obj 11 67 cnv 1 55 1 empty empty empty 4 9 1 11 -66577 -204800 0
;
#X obj 11 69 cnv 11 55 11 empty empty Cutoff 1 6 1 10 -1 -204800 0
;
#X obj 11 93 cnv 1 55 1 empty empty empty 4 9 1 11 -66577 -204800 0
;
#X obj 11 95 cnv 11 55 11 empty empty Interp. 1 6 1 10 -1 -204800 0
;
#X obj 11 119 cnv 1 55 1 empty empty empty 4 9 1 11 -66577 -204800
0;
#X obj 11 121 cnv 11 55 11 empty empty Bypass 2 6 1 10 -1 -204800 0
;
#X obj 11 133 cnv 1 55 1 empty empty empty 4 9 1 11 -66577 -204800
0;
#X obj 11 161 cnv 1 44 1 empty empty empty 4 9 1 11 -66577 -204800
0;
#X obj 25 135 bng 26 500 50 0 \$2-help empty empty 17 7 0 10 -1 -204800
-1;
#X obj 21 149 cnv 3 1 1 empty empty HELP 8 0 1 9 -262144 -204800 0
;
#X obj 11 135 cnv 13 13 26 empty empty empty 20 12 0 14 -1 -66577 0
;
#X obj 52 135 cnv 14 14 26 empty empty empty 20 12 0 14 -1 -66577 0
;
#X obj 11 55 cnv 11 55 11 empty empty (0–1) 2 6 1 10 -1 -128992 0
;
#X obj 11 81 cnv 11 55 11 empty empty (Hz) 1 6 1 10 -1 -128992 0;
#X obj 11 107 cnv 11 55 11 empty empty (ms) 2 6 1 10 -1 -128992 0;
#X obj 11 27 cnv 1 498 1 empty empty empty 4 9 1 11 -66577 -204800
0;
#X obj 11 162 cnv 1 498 1 empty empty empty 4 9 1 11 -66577 -204800
0;
#N canvas 1 22 986 188 demultiplex_channels 0;
#X obj -58 29 loadbang;
#X obj -58 80 route 1 2 3 4 5 6 7 8 9 10 11 12 13;
#X obj 26 60 s \$0-messageset;
#X obj -58 46 t b b;
#X obj -58 163 s \$0-demultiplex;
#N canvas 0 22 1440 742 ch13 0;
#X msg 966 498 13;
#X obj 966 515 prepend;
#X obj 498 7 r \$0-messageset;
#X obj 966 532 prepend obj 475 28;
#X obj 460 7 inlet;
#X obj 831 515 prepend;
#X msg 831 498 12;
#X obj 831 532 prepend obj 441 28;
#X obj 696 515 prepend;
#X obj 561 515 prepend;
#X obj 426 515 prepend;
#X obj 291 515 prepend;
#X obj 156 515 prepend;
#X obj 21 515 prepend;
#X msg 696 498 11;
#X obj 696 532 prepend obj 407 28;
#X obj 561 532 prepend obj 373 28;
#X obj 426 532 prepend obj 339 28;
#X obj 291 532 prepend obj 305 28;
#X obj 156 532 prepend obj 271 28;
#X obj 21 532 prepend obj 237 28;
#X msg 561 498 10;
#X msg 426 498 9;
#X msg 291 498 8;
#X msg 156 498 7;
#X msg 21 498 6;
#X obj 733 256 prepend;
#X obj 598 256 prepend;
#X obj 463 256 prepend;
#X obj 328 256 prepend;
#X obj 193 256 prepend;
#X msg 193 239 1;
#X msg 328 239 2;
#X msg 463 239 3;
#X msg 598 239 4;
#X msg 733 239 5;
#X obj 121 273 io;
#X obj 507 348 io;
#X obj 733 273 prepend obj 203 28;
#X obj 598 273 prepend obj 169 28;
#X obj 463 273 prepend obj 135 28;
#X obj 328 273 prepend obj 101 28;
#X obj 193 273 prepend obj 67 28;
#X obj 849 273 io;
#X obj 533 348 io;
#X obj 503 638 outlet;
#X connect 0 0 1 0;
#X connect 1 0 3 0;
#X connect 2 0 30 1;
#X connect 2 0 29 1;
#X connect 2 0 28 1;
#X connect 2 0 27 1;
#X connect 2 0 26 1;
#X connect 2 0 43 0;
#X connect 3 0 45 0;
#X connect 4 0 36 0;
#X connect 4 0 31 0;
#X connect 4 0 32 0;
#X connect 4 0 33 0;
#X connect 4 0 34 0;
#X connect 4 0 35 0;
#X connect 5 0 7 0;
#X connect 6 0 5 0;
#X connect 7 0 45 0;
#X connect 8 0 15 0;
#X connect 9 0 16 0;
#X connect 10 0 17 0;
#X connect 11 0 18 0;
#X connect 12 0 19 0;
#X connect 13 0 20 0;
#X connect 14 0 8 0;
#X connect 15 0 45 0;
#X connect 16 0 45 0;
#X connect 17 0 45 0;
#X connect 18 0 45 0;
#X connect 19 0 45 0;
#X connect 20 0 45 0;
#X connect 21 0 9 0;
#X connect 22 0 10 0;
#X connect 23 0 11 0;
#X connect 24 0 12 0;
#X connect 25 0 13 0;
#X connect 26 0 38 0;
#X connect 27 0 39 0;
#X connect 28 0 40 0;
#X connect 29 0 41 0;
#X connect 30 0 42 0;
#X connect 31 0 30 0;
#X connect 32 0 29 0;
#X connect 33 0 28 0;
#X connect 34 0 27 0;
#X connect 35 0 26 0;
#X connect 36 0 37 0;
#X connect 37 0 25 0;
#X connect 37 0 24 0;
#X connect 37 0 23 0;
#X connect 37 0 22 0;
#X connect 37 0 21 0;
#X connect 37 0 14 0;
#X connect 37 0 6 0;
#X connect 37 0 0 0;
#X connect 38 0 45 0;
#X connect 39 0 45 0;
#X connect 40 0 45 0;
#X connect 41 0 45 0;
#X connect 42 0 45 0;
#X connect 43 0 44 0;
#X connect 44 0 13 1;
#X connect 44 0 12 1;
#X connect 44 0 11 1;
#X connect 44 0 10 1;
#X connect 44 0 9 1;
#X connect 44 0 8 1;
#X connect 44 0 5 1;
#X connect 44 0 1 1;
#X restore 542 122 pd ch13;
#N canvas 0 22 1440 742 ch12 0;
#X obj 498 7 r \$0-messageset;
#X obj 460 7 inlet;
#X obj 831 515 prepend;
#X msg 831 498 12;
#X obj 831 532 prepend obj 441 28;
#X obj 696 515 prepend;
#X obj 561 515 prepend;
#X obj 426 515 prepend;
#X obj 291 515 prepend;
#X obj 156 515 prepend;
#X obj 21 515 prepend;
#X msg 696 498 11;
#X obj 696 532 prepend obj 407 28;
#X obj 561 532 prepend obj 373 28;
#X obj 426 532 prepend obj 339 28;
#X obj 291 532 prepend obj 305 28;
#X obj 156 532 prepend obj 271 28;
#X obj 21 532 prepend obj 237 28;
#X msg 561 498 10;
#X msg 426 498 9;
#X msg 291 498 8;
#X msg 156 498 7;
#X msg 21 498 6;
#X obj 733 256 prepend;
#X obj 598 256 prepend;
#X obj 463 256 prepend;
#X obj 328 256 prepend;
#X obj 193 256 prepend;
#X msg 193 239 1;
#X msg 328 239 2;
#X msg 463 239 3;
#X msg 598 239 4;
#X msg 733 239 5;
#X obj 121 273 io;
#X obj 507 348 io;
#X obj 733 273 prepend obj 203 28;
#X obj 598 273 prepend obj 169 28;
#X obj 463 273 prepend obj 135 28;
#X obj 328 273 prepend obj 101 28;
#X obj 193 273 prepend obj 67 28;
#X obj 849 273 io;
#X obj 533 348 io;
#X obj 503 638 outlet;
#X connect 0 0 27 1;
#X connect 0 0 26 1;
#X connect 0 0 25 1;
#X connect 0 0 24 1;
#X connect 0 0 23 1;
#X connect 0 0 40 0;
#X connect 1 0 33 0;
#X connect 1 0 28 0;
#X connect 1 0 29 0;
#X connect 1 0 30 0;
#X connect 1 0 31 0;
#X connect 1 0 32 0;
#X connect 2 0 4 0;
#X connect 3 0 2 0;
#X connect 4 0 42 0;
#X connect 5 0 12 0;
#X connect 6 0 13 0;
#X connect 7 0 14 0;
#X connect 8 0 15 0;
#X connect 9 0 16 0;
#X connect 10 0 17 0;
#X connect 11 0 5 0;
#X connect 12 0 42 0;
#X connect 13 0 42 0;
#X connect 14 0 42 0;
#X connect 15 0 42 0;
#X connect 16 0 42 0;
#X connect 17 0 42 0;
#X connect 18 0 6 0;
#X connect 19 0 7 0;
#X connect 20 0 8 0;
#X connect 21 0 9 0;
#X connect 22 0 10 0;
#X connect 23 0 35 0;
#X connect 24 0 36 0;
#X connect 25 0 37 0;
#X connect 26 0 38 0;
#X connect 27 0 39 0;
#X connect 28 0 27 0;
#X connect 29 0 26 0;
#X connect 30 0 25 0;
#X connect 31 0 24 0;
#X connect 32 0 23 0;
#X connect 33 0 34 0;
#X connect 34 0 22 0;
#X connect 34 0 21 0;
#X connect 34 0 20 0;
#X connect 34 0 19 0;
#X connect 34 0 18 0;
#X connect 34 0 11 0;
#X connect 34 0 3 0;
#X connect 35 0 42 0;
#X connect 36 0 42 0;
#X connect 37 0 42 0;
#X connect 38 0 42 0;
#X connect 39 0 42 0;
#X connect 40 0 41 0;
#X connect 41 0 10 1;
#X connect 41 0 9 1;
#X connect 41 0 8 1;
#X connect 41 0 7 1;
#X connect 41 0 6 1;
#X connect 41 0 5 1;
#X connect 41 0 2 1;
#X restore 492 122 pd ch12;
#N canvas 0 22 1440 742 ch11 0;
#X obj 498 7 r \$0-messageset;
#X obj 460 7 inlet;
#X obj 696 515 prepend;
#X obj 561 515 prepend;
#X obj 426 515 prepend;
#X obj 291 515 prepend;
#X obj 156 515 prepend;
#X obj 21 515 prepend;
#X msg 696 498 11;
#X obj 696 532 prepend obj 407 28;
#X obj 561 532 prepend obj 373 28;
#X obj 426 532 prepend obj 339 28;
#X obj 291 532 prepend obj 305 28;
#X obj 156 532 prepend obj 271 28;
#X obj 21 532 prepend obj 237 28;
#X msg 561 498 10;
#X msg 426 498 9;
#X msg 291 498 8;
#X msg 156 498 7;
#X msg 21 498 6;
#X obj 733 256 prepend;
#X obj 598 256 prepend;
#X obj 463 256 prepend;
#X obj 328 256 prepend;
#X obj 193 256 prepend;
#X msg 193 239 1;
#X msg 328 239 2;
#X msg 463 239 3;
#X msg 598 239 4;
#X msg 733 239 5;
#X obj 121 273 io;
#X obj 507 348 io;
#X obj 733 273 prepend obj 203 28;
#X obj 598 273 prepend obj 169 28;
#X obj 463 273 prepend obj 135 28;
#X obj 328 273 prepend obj 101 28;
#X obj 193 273 prepend obj 67 28;
#X obj 849 273 io;
#X obj 533 348 io;
#X obj 503 638 outlet;
#X connect 0 0 24 1;
#X connect 0 0 23 1;
#X connect 0 0 22 1;
#X connect 0 0 21 1;
#X connect 0 0 20 1;
#X connect 0 0 37 0;
#X connect 1 0 30 0;
#X connect 1 0 25 0;
#X connect 1 0 26 0;
#X connect 1 0 27 0;
#X connect 1 0 28 0;
#X connect 1 0 29 0;
#X connect 2 0 9 0;
#X connect 3 0 10 0;
#X connect 4 0 11 0;
#X connect 5 0 12 0;
#X connect 6 0 13 0;
#X connect 7 0 14 0;
#X connect 8 0 2 0;
#X connect 9 0 39 0;
#X connect 10 0 39 0;
#X connect 11 0 39 0;
#X connect 12 0 39 0;
#X connect 13 0 39 0;
#X connect 14 0 39 0;
#X connect 15 0 3 0;
#X connect 16 0 4 0;
#X connect 17 0 5 0;
#X connect 18 0 6 0;
#X connect 19 0 7 0;
#X connect 20 0 32 0;
#X connect 21 0 33 0;
#X connect 22 0 34 0;
#X connect 23 0 35 0;
#X connect 24 0 36 0;
#X connect 25 0 24 0;
#X connect 26 0 23 0;
#X connect 27 0 22 0;
#X connect 28 0 21 0;
#X connect 29 0 20 0;
#X connect 30 0 31 0;
#X connect 31 0 19 0;
#X connect 31 0 18 0;
#X connect 31 0 17 0;
#X connect 31 0 16 0;
#X connect 31 0 15 0;
#X connect 31 0 8 0;
#X connect 32 0 39 0;
#X connect 33 0 39 0;
#X connect 34 0 39 0;
#X connect 35 0 39 0;
#X connect 36 0 39 0;
#X connect 37 0 38 0;
#X connect 38 0 7 1;
#X connect 38 0 6 1;
#X connect 38 0 5 1;
#X connect 38 0 4 1;
#X connect 38 0 3 1;
#X connect 38 0 2 1;
#X restore 442 122 pd ch11;
#N canvas 0 22 1440 742 ch10 0;
#X obj 498 7 r \$0-messageset;
#X obj 460 7 inlet;
#X obj 561 515 prepend;
#X obj 426 515 prepend;
#X obj 291 515 prepend;
#X obj 156 515 prepend;
#X obj 21 515 prepend;
#X obj 561 532 prepend obj 373 28;
#X obj 426 532 prepend obj 339 28;
#X obj 291 532 prepend obj 305 28;
#X obj 156 532 prepend obj 271 28;
#X obj 21 532 prepend obj 237 28;
#X msg 561 498 10;
#X msg 426 498 9;
#X msg 291 498 8;
#X msg 156 498 7;
#X msg 21 498 6;
#X obj 733 256 prepend;
#X obj 598 256 prepend;
#X obj 463 256 prepend;
#X obj 328 256 prepend;
#X obj 193 256 prepend;
#X msg 193 239 1;
#X msg 328 239 2;
#X msg 463 239 3;
#X msg 598 239 4;
#X msg 733 239 5;
#X obj 121 273 io;
#X obj 507 348 io;
#X obj 733 273 prepend obj 203 28;
#X obj 598 273 prepend obj 169 28;
#X obj 463 273 prepend obj 135 28;
#X obj 328 273 prepend obj 101 28;
#X obj 193 273 prepend obj 67 28;
#X obj 849 273 io;
#X obj 533 348 io;
#X obj 503 638 outlet;
#X connect 0 0 21 1;
#X connect 0 0 20 1;
#X connect 0 0 19 1;
#X connect 0 0 18 1;
#X connect 0 0 17 1;
#X connect 0 0 34 0;
#X connect 1 0 27 0;
#X connect 1 0 22 0;
#X connect 1 0 23 0;
#X connect 1 0 24 0;
#X connect 1 0 25 0;
#X connect 1 0 26 0;
#X connect 2 0 7 0;
#X connect 3 0 8 0;
#X connect 4 0 9 0;
#X connect 5 0 10 0;
#X connect 6 0 11 0;
#X connect 7 0 36 0;
#X connect 8 0 36 0;
#X connect 9 0 36 0;
#X connect 10 0 36 0;
#X connect 11 0 36 0;
#X connect 12 0 2 0;
#X connect 13 0 3 0;
#X connect 14 0 4 0;
#X connect 15 0 5 0;
#X connect 16 0 6 0;
#X connect 17 0 29 0;
#X connect 18 0 30 0;
#X connect 19 0 31 0;
#X connect 20 0 32 0;
#X connect 21 0 33 0;
#X connect 22 0 21 0;
#X connect 23 0 20 0;
#X connect 24 0 19 0;
#X connect 25 0 18 0;
#X connect 26 0 17 0;
#X connect 27 0 28 0;
#X connect 28 0 16 0;
#X connect 28 0 15 0;
#X connect 28 0 14 0;
#X connect 28 0 13 0;
#X connect 28 0 12 0;
#X connect 29 0 36 0;
#X connect 30 0 36 0;
#X connect 31 0 36 0;
#X connect 32 0 36 0;
#X connect 33 0 36 0;
#X connect 34 0 35 0;
#X connect 35 0 6 1;
#X connect 35 0 5 1;
#X connect 35 0 4 1;
#X connect 35 0 3 1;
#X connect 35 0 2 1;
#X restore 392 122 pd ch10;
#N canvas 0 22 1440 742 ch9 0;
#X obj 498 7 r \$0-messageset;
#X obj 460 7 inlet;
#X obj 426 515 prepend;
#X obj 291 515 prepend;
#X obj 156 515 prepend;
#X obj 21 515 prepend;
#X obj 426 532 prepend obj 339 28;
#X obj 291 532 prepend obj 305 28;
#X obj 156 532 prepend obj 271 28;
#X obj 21 532 prepend obj 237 28;
#X msg 426 498 9;
#X msg 291 498 8;
#X msg 156 498 7;
#X msg 21 498 6;
#X obj 733 256 prepend;
#X obj 598 256 prepend;
#X obj 463 256 prepend;
#X obj 328 256 prepend;
#X obj 193 256 prepend;
#X msg 193 239 1;
#X msg 328 239 2;
#X msg 463 239 3;
#X msg 598 239 4;
#X msg 733 239 5;
#X obj 121 273 io;
#X obj 507 348 io;
#X obj 733 273 prepend obj 203 28;
#X obj 598 273 prepend obj 169 28;
#X obj 463 273 prepend obj 135 28;
#X obj 328 273 prepend obj 101 28;
#X obj 193 273 prepend obj 67 28;
#X obj 849 273 io;
#X obj 533 348 io;
#X obj 503 638 outlet;
#X connect 0 0 18 1;
#X connect 0 0 17 1;
#X connect 0 0 16 1;
#X connect 0 0 15 1;
#X connect 0 0 14 1;
#X connect 0 0 31 0;
#X connect 1 0 24 0;
#X connect 1 0 19 0;
#X connect 1 0 20 0;
#X connect 1 0 21 0;
#X connect 1 0 22 0;
#X connect 1 0 23 0;
#X connect 2 0 6 0;
#X connect 3 0 7 0;
#X connect 4 0 8 0;
#X connect 5 0 9 0;
#X connect 6 0 33 0;
#X connect 7 0 33 0;
#X connect 8 0 33 0;
#X connect 9 0 33 0;
#X connect 10 0 2 0;
#X connect 11 0 3 0;
#X connect 12 0 4 0;
#X connect 13 0 5 0;
#X connect 14 0 26 0;
#X connect 15 0 27 0;
#X connect 16 0 28 0;
#X connect 17 0 29 0;
#X connect 18 0 30 0;
#X connect 19 0 18 0;
#X connect 20 0 17 0;
#X connect 21 0 16 0;
#X connect 22 0 15 0;
#X connect 23 0 14 0;
#X connect 24 0 25 0;
#X connect 25 0 13 0;
#X connect 25 0 12 0;
#X connect 25 0 11 0;
#X connect 25 0 10 0;
#X connect 26 0 33 0;
#X connect 27 0 33 0;
#X connect 28 0 33 0;
#X connect 29 0 33 0;
#X connect 30 0 33 0;
#X connect 31 0 32 0;
#X connect 32 0 5 1;
#X connect 32 0 4 1;
#X connect 32 0 3 1;
#X connect 32 0 2 1;
#X restore 342 122 pd ch9;
#N canvas 0 22 1440 742 ch8 0;
#X obj 498 7 r \$0-messageset;
#X obj 460 7 inlet;
#X obj 291 515 prepend;
#X obj 156 515 prepend;
#X obj 21 515 prepend;
#X obj 291 532 prepend obj 305 28;
#X obj 156 532 prepend obj 271 28;
#X obj 21 532 prepend obj 237 28;
#X msg 291 498 8;
#X msg 156 498 7;
#X msg 21 498 6;
#X obj 733 256 prepend;
#X obj 598 256 prepend;
#X obj 463 256 prepend;
#X obj 328 256 prepend;
#X obj 193 256 prepend;
#X msg 193 239 1;
#X msg 328 239 2;
#X msg 463 239 3;
#X msg 598 239 4;
#X msg 733 239 5;
#X obj 121 273 io;
#X obj 507 348 io;
#X obj 733 273 prepend obj 203 28;
#X obj 598 273 prepend obj 169 28;
#X obj 463 273 prepend obj 135 28;
#X obj 328 273 prepend obj 101 28;
#X obj 193 273 prepend obj 67 28;
#X obj 849 273 io;
#X obj 533 348 io;
#X obj 503 638 outlet;
#X connect 0 0 15 1;
#X connect 0 0 14 1;
#X connect 0 0 13 1;
#X connect 0 0 12 1;
#X connect 0 0 11 1;
#X connect 0 0 28 0;
#X connect 1 0 21 0;
#X connect 1 0 16 0;
#X connect 1 0 17 0;
#X connect 1 0 18 0;
#X connect 1 0 19 0;
#X connect 1 0 20 0;
#X connect 2 0 5 0;
#X connect 3 0 6 0;
#X connect 4 0 7 0;
#X connect 5 0 30 0;
#X connect 6 0 30 0;
#X connect 7 0 30 0;
#X connect 8 0 2 0;
#X connect 9 0 3 0;
#X connect 10 0 4 0;
#X connect 11 0 23 0;
#X connect 12 0 24 0;
#X connect 13 0 25 0;
#X connect 14 0 26 0;
#X connect 15 0 27 0;
#X connect 16 0 15 0;
#X connect 17 0 14 0;
#X connect 18 0 13 0;
#X connect 19 0 12 0;
#X connect 20 0 11 0;
#X connect 21 0 22 0;
#X connect 22 0 10 0;
#X connect 22 0 9 0;
#X connect 22 0 8 0;
#X connect 23 0 30 0;
#X connect 24 0 30 0;
#X connect 25 0 30 0;
#X connect 26 0 30 0;
#X connect 27 0 30 0;
#X connect 28 0 29 0;
#X connect 29 0 4 1;
#X connect 29 0 3 1;
#X connect 29 0 2 1;
#X restore 292 122 pd ch8;
#N canvas 0 22 1440 742 ch7 0;
#X obj 498 7 r \$0-messageset;
#X obj 460 7 inlet;
#X obj 156 515 prepend;
#X obj 21 515 prepend;
#X obj 156 532 prepend obj 271 28;
#X obj 21 532 prepend obj 237 28;
#X msg 156 498 7;
#X msg 21 498 6;
#X obj 733 256 prepend;
#X obj 598 256 prepend;
#X obj 463 256 prepend;
#X obj 328 256 prepend;
#X obj 193 256 prepend;
#X msg 193 239 1;
#X msg 328 239 2;
#X msg 463 239 3;
#X msg 598 239 4;
#X msg 733 239 5;
#X obj 121 273 io;
#X obj 507 348 io;
#X obj 733 273 prepend obj 203 28;
#X obj 598 273 prepend obj 169 28;
#X obj 463 273 prepend obj 135 28;
#X obj 328 273 prepend obj 101 28;
#X obj 193 273 prepend obj 67 28;
#X obj 849 273 io;
#X obj 533 348 io;
#X obj 503 638 outlet;
#X connect 0 0 12 1;
#X connect 0 0 11 1;
#X connect 0 0 10 1;
#X connect 0 0 9 1;
#X connect 0 0 8 1;
#X connect 0 0 25 0;
#X connect 1 0 18 0;
#X connect 1 0 13 0;
#X connect 1 0 14 0;
#X connect 1 0 15 0;
#X connect 1 0 16 0;
#X connect 1 0 17 0;
#X connect 2 0 4 0;
#X connect 3 0 5 0;
#X connect 4 0 27 0;
#X connect 5 0 27 0;
#X connect 6 0 2 0;
#X connect 7 0 3 0;
#X connect 8 0 20 0;
#X connect 9 0 21 0;
#X connect 10 0 22 0;
#X connect 11 0 23 0;
#X connect 12 0 24 0;
#X connect 13 0 12 0;
#X connect 14 0 11 0;
#X connect 15 0 10 0;
#X connect 16 0 9 0;
#X connect 17 0 8 0;
#X connect 18 0 19 0;
#X connect 19 0 7 0;
#X connect 19 0 6 0;
#X connect 20 0 27 0;
#X connect 21 0 27 0;
#X connect 22 0 27 0;
#X connect 23 0 27 0;
#X connect 24 0 27 0;
#X connect 25 0 26 0;
#X connect 26 0 3 1;
#X connect 26 0 2 1;
#X restore 242 122 pd ch7;
#N canvas 0 22 1440 742 ch6 0;
#X obj 498 7 r \$0-messageset;
#X obj 460 7 inlet;
#X obj 21 515 prepend;
#X obj 21 532 prepend obj 237 28;
#X msg 21 498 6;
#X obj 733 256 prepend;
#X obj 598 256 prepend;
#X obj 463 256 prepend;
#X obj 328 256 prepend;
#X obj 193 256 prepend;
#X msg 193 239 1;
#X msg 328 239 2;
#X msg 463 239 3;
#X msg 598 239 4;
#X msg 733 239 5;
#X obj 121 273 io;
#X obj 507 348 io;
#X obj 733 273 prepend obj 203 28;
#X obj 598 273 prepend obj 169 28;
#X obj 463 273 prepend obj 135 28;
#X obj 328 273 prepend obj 101 28;
#X obj 193 273 prepend obj 67 28;
#X obj 849 273 io;
#X obj 533 348 io;
#X obj 503 638 outlet;
#X connect 0 0 9 1;
#X connect 0 0 8 1;
#X connect 0 0 7 1;
#X connect 0 0 6 1;
#X connect 0 0 5 1;
#X connect 0 0 22 0;
#X connect 1 0 15 0;
#X connect 1 0 10 0;
#X connect 1 0 11 0;
#X connect 1 0 12 0;
#X connect 1 0 13 0;
#X connect 1 0 14 0;
#X connect 2 0 3 0;
#X connect 3 0 24 0;
#X connect 4 0 2 0;
#X connect 5 0 17 0;
#X connect 6 0 18 0;
#X connect 7 0 19 0;
#X connect 8 0 20 0;
#X connect 9 0 21 0;
#X connect 10 0 9 0;
#X connect 11 0 8 0;
#X connect 12 0 7 0;
#X connect 13 0 6 0;
#X connect 14 0 5 0;
#X connect 15 0 16 0;
#X connect 16 0 4 0;
#X connect 17 0 24 0;
#X connect 18 0 24 0;
#X connect 19 0 24 0;
#X connect 20 0 24 0;
#X connect 21 0 24 0;
#X connect 22 0 23 0;
#X connect 23 0 2 1;
#X restore 192 122 pd ch6;
#N canvas 0 22 1440 742 ch5 0;
#X obj 498 7 r \$0-messageset;
#X obj 460 7 inlet;
#X obj 733 256 prepend;
#X obj 598 256 prepend;
#X obj 463 256 prepend;
#X obj 328 256 prepend;
#X obj 193 256 prepend;
#X msg 193 239 1;
#X msg 328 239 2;
#X msg 463 239 3;
#X msg 598 239 4;
#X msg 733 239 5;
#X obj 121 273 io;
#X obj 733 273 prepend obj 203 28;
#X obj 598 273 prepend obj 169 28;
#X obj 463 273 prepend obj 135 28;
#X obj 328 273 prepend obj 101 28;
#X obj 193 273 prepend obj 67 28;
#X obj 849 273 io;
#X obj 503 638 outlet;
#X connect 0 0 6 1;
#X connect 0 0 5 1;
#X connect 0 0 4 1;
#X connect 0 0 3 1;
#X connect 0 0 2 1;
#X connect 0 0 18 0;
#X connect 1 0 12 0;
#X connect 1 0 7 0;
#X connect 1 0 8 0;
#X connect 1 0 9 0;
#X connect 1 0 10 0;
#X connect 1 0 11 0;
#X connect 2 0 13 0;
#X connect 3 0 14 0;
#X connect 4 0 15 0;
#X connect 5 0 16 0;
#X connect 6 0 17 0;
#X connect 7 0 6 0;
#X connect 8 0 5 0;
#X connect 9 0 4 0;
#X connect 10 0 3 0;
#X connect 11 0 2 0;
#X connect 13 0 19 0;
#X connect 14 0 19 0;
#X connect 15 0 19 0;
#X connect 16 0 19 0;
#X connect 17 0 19 0;
#X restore 142 122 pd ch5;
#N canvas 0 22 1440 742 ch4 0;
#X obj 498 7 r \$0-messageset;
#X obj 460 7 inlet;
#X obj 598 256 prepend;
#X obj 463 256 prepend;
#X obj 328 256 prepend;
#X obj 193 256 prepend;
#X msg 193 239 1;
#X msg 328 239 2;
#X msg 463 239 3;
#X msg 598 239 4;
#X obj 598 273 prepend obj 169 28;
#X obj 463 273 prepend obj 135 28;
#X obj 328 273 prepend obj 101 28;
#X obj 193 273 prepend obj 67 28;
#X obj 503 638 outlet;
#X connect 0 0 5 1;
#X connect 0 0 4 1;
#X connect 0 0 3 1;
#X connect 0 0 2 1;
#X connect 1 0 6 0;
#X connect 1 0 7 0;
#X connect 1 0 8 0;
#X connect 1 0 9 0;
#X connect 2 0 10 0;
#X connect 3 0 11 0;
#X connect 4 0 12 0;
#X connect 5 0 13 0;
#X connect 6 0 5 0;
#X connect 7 0 4 0;
#X connect 8 0 3 0;
#X connect 9 0 2 0;
#X connect 10 0 14 0;
#X connect 11 0 14 0;
#X connect 12 0 14 0;
#X connect 13 0 14 0;
#X restore 92 122 pd ch4;
#N canvas 0 22 1440 742 ch3 0;
#X obj 498 7 r \$0-messageset;
#X obj 460 7 inlet;
#X obj 463 256 prepend;
#X obj 328 256 prepend;
#X obj 193 256 prepend;
#X msg 193 239 1;
#X msg 328 239 2;
#X msg 463 239 3;
#X obj 463 273 prepend obj 135 28;
#X obj 328 273 prepend obj 101 28;
#X obj 193 273 prepend obj 67 28;
#X obj 503 638 outlet;
#X connect 0 0 4 1;
#X connect 0 0 3 1;
#X connect 0 0 2 1;
#X connect 1 0 5 0;
#X connect 1 0 6 0;
#X connect 1 0 7 0;
#X connect 2 0 8 0;
#X connect 3 0 9 0;
#X connect 4 0 10 0;
#X connect 5 0 4 0;
#X connect 6 0 3 0;
#X connect 7 0 2 0;
#X connect 8 0 11 0;
#X connect 9 0 11 0;
#X connect 10 0 11 0;
#X restore 42 122 pd ch3;
#N canvas 0 22 1440 742 ch2 0;
#X obj 498 7 r \$0-messageset;
#X obj 460 7 inlet;
#X obj 328 256 prepend;
#X obj 193 256 prepend;
#X msg 193 239 1;
#X msg 328 239 2;
#X obj 328 273 prepend obj 101 28;
#X obj 193 273 prepend obj 67 28;
#X obj 503 638 outlet;
#X connect 0 0 3 1;
#X connect 0 0 2 1;
#X connect 1 0 4 0;
#X connect 1 0 5 0;
#X connect 2 0 6 0;
#X connect 3 0 7 0;
#X connect 4 0 3 0;
#X connect 5 0 2 0;
#X connect 6 0 8 0;
#X connect 7 0 8 0;
#X restore -8 122 pd ch2;
#N canvas 0 22 1440 742 ch1 0;
#X obj 498 7 r \$0-messageset;
#X obj 460 7 inlet;
#X obj 193 256 prepend;
#X msg 193 239 1;
#X obj 193 273 prepend obj 67 28;
#X obj 503 638 outlet;
#X connect 0 0 2 1;
#X connect 1 0 3 0;
#X connect 2 0 4 0;
#X connect 3 0 2 0;
#X connect 4 0 5 0;
#X restore -58 122 pd ch1;
#X obj 211 79 s \$0-background;
#X msg 211 62 label ERROR!_You_have_entered_incorrect_creation_arguments!
;
#X obj 576 79 s \$0-background2;
#X msg 576 62 label Consult_EAT_documentation_for_more_information.
;
#X obj 26 26 float \$2;
#X obj -58 63 float \$2;
#X obj 26 43 prepend EAT_Lowpass-GUI \$1;
#X connect 0 0 3 0;
#X connect 1 0 17 0;
#X connect 1 1 16 0;
#X connect 1 2 15 0;
#X connect 1 3 14 0;
#X connect 1 4 13 0;
#X connect 1 5 12 0;
#X connect 1 6 11 0;
#X connect 1 7 10 0;
#X connect 1 8 9 0;
#X connect 1 9 8 0;
#X connect 1 10 7 0;
#X connect 1 11 6 0;
#X connect 1 12 5 0;
#X connect 1 13 19 0;
#X connect 1 13 21 0;
#X connect 3 0 23 0;
#X connect 3 1 22 0;
#X connect 5 0 4 0;
#X connect 6 0 4 0;
#X connect 7 0 4 0;
#X connect 8 0 4 0;
#X connect 9 0 4 0;
#X connect 10 0 4 0;
#X connect 11 0 4 0;
#X connect 12 0 4 0;
#X connect 13 0 4 0;
#X connect 14 0 4 0;
#X connect 15 0 4 0;
#X connect 16 0 4 0;
#X connect 17 0 4 0;
#X connect 19 0 18 0;
#X connect 21 0 20 0;
#X connect 22 0 24 0;
#X connect 23 0 1 0;
#X connect 24 0 2 0;
#X restore 515 30 pd demultiplex_channels;
#X obj 515 10 namecanvas \$0-demultiplex;
#X obj 67 29 cnv 15 442 25 empty \$0-background empty 5 12 0 14 -1
-204800 0;
#X obj 67 55 cnv 15 442 106 empty \$0-background2 empty 5 12 0 14 -1
-204800 0;
#N canvas 0 22 613 153 Pole 0;
#X obj 14 1 loadbang;
#X obj 14 35 < 10;
#X obj 14 52 sel 1;
#X msg 41 69 2 9;
#X obj 14 103 s \$0-poledisplay;
#X msg 14 69 8 9;
#X msg 14 86 label_pos \$1 \$2;
#X obj 14 18 float \$3;
#X connect 0 0 7 0;
#X connect 1 0 2 0;
#X connect 2 0 5 0;
#X connect 2 1 3 0;
#X connect 3 0 6 0;
#X connect 5 0 6 0;
#X connect 6 0 4 0;
#X connect 7 0 1 0;
#X restore 515 50 pd Pole Display;
#N canvas 0 22 528 110 Channel 0;
#X obj 14 1 loadbang;
#X obj 14 35 < 10;
#X obj 14 52 sel 1;
#X msg 14 86 label_pos \$1 \$2;
#X msg 14 69 6 9;
#X obj 14 103 s \$0-chdisplay;
#X msg 41 69 2 9;
#X obj 14 18 float \$2;
#X connect 0 0 7 0;
#X connect 1 0 2 0;
#X connect 2 0 4 0;
#X connect 2 1 6 0;
#X connect 3 0 5 0;
#X connect 4 0 3 0;
#X connect 6 0 3 0;
#X connect 7 0 1 0;
#X restore 515 70 pd Channel Display;
#X obj 449 11 cnv 15 60 15 empty empty LOWPASS 4 9 1 11 -1 -204800
0;
#X obj 339 11 cnv 15 60 15 empty \$0-uniqueid \$1 1 9 1 11 -1 -128992
0;
#X obj 65 11 cnv 15 15 15 empty \$0-chdisplay \$2 2 9 1 11 -1 -128992
0;
#X obj 81 11 cnv 15 43 15 empty empty Channel 1 9 1 11 -1 -128992 0
;
#X obj 125 11 cnv 15 213 15 empty empty Processing 1 9 1 11 -1 -128992
0;
#X obj 400 11 cnv 15 15 15 empty \$0-poledisplay \$3 8 9 1 11 -1 -204800
0;
#X obj 416 11 cnv 15 32 15 empty empty -POLE -1 9 1 11 -1 -204800 0
;
#X coords 0 -1 1 1 500 154 1 10 10;
