#N canvas 497 22 309 199 10;
#X obj 14 169 bng 26 500 50 0 \$0-midi empty empty 17 7 0 10 -1 -204800
-1;
#X obj 12 183 cnv 1 1 1 empty empty MIDI 7 0 1 9 -262144 -204800 0
;
#X obj 11 169 cnv 2 2 26 empty empty empty 20 12 0 14 -1 -66577 0;
#X obj 14 25 hsl 27 11 0 1 0 0 EAT_Delay.Mix.\$1.Send.\$3 EAT_Delay.Mix.\$1.\$3
empty -2 -8 0 10 -204800 -1 -1 0 1;
#X obj 11 37 cnv 11 32 11 empty EAT_Delay.MixNum.\$1.\$3 1 2 6 1 10
-1 -128992 0;
#X obj 11 11 cnv 11 32 11 empty empty \$3 14 6 1 10 -1 -204800 0;
#X obj 11 23 cnv 1 32 1 empty empty empty 4 9 1 11 -66577 -204800 0
;
#X obj 11 49 cnv 1 32 1 empty empty empty 4 9 1 11 -66577 -204800 0
;
#X obj 11 167 cnv 1 32 1 empty empty empty 4 9 1 11 -66577 -204800
0;
#X obj 23 155 bng 11 250 50 0 EAT_Delay.Mute.\$1.Send.\$3 EAT_Delay.Mute.\$1.\$3
empty 17 7 0 10 -204800 -1 -1;
#X obj 11 155 cnv 10 11 11 empty empty empty 20 12 0 14 -1 -66577 0
;
#X obj 33 155 cnv 10 10 11 empty empty empty 20 12 0 14 -1 -66577 0
;
#X obj 41 169 cnv 2 2 26 empty empty empty 20 12 0 14 -1 -66577 0;
#X obj 14 51 hsl 27 11 10 10000 0 0 EAT_Delay.Time.\$1.Send.\$3 EAT_Delay.Time.\$1.\$3
empty -2 -8 0 10 -204800 -1 -1 0 1;
#X obj 11 63 cnv 11 32 11 empty EAT_Delay.TimeNum.\$1.\$3 10 2 6 1
10 -1 -128992 0;
#X obj 11 75 cnv 1 32 1 empty empty empty 4 9 1 11 -66577 -204800 0
;
#X obj 14 77 hsl 27 11 0.1 0.98 0 0 EAT_Delay.Feedback.\$1.Send.\$3
EAT_Delay.Feedback.\$1.\$3 empty -2 -8 0 10 -204800 -1 -1 0 1;
#X obj 11 89 cnv 11 32 11 empty EAT_Delay.FeedbackNum.\$1.\$3 0.98
2 6 1 10 -1 -128992 0;
#X obj 11 101 cnv 1 32 1 empty empty empty 4 9 1 11 -66577 -204800
0;
#X obj 14 103 hsl 27 11 1300 15000 0 0 EAT_Delay.HighCut.\$1.Send.\$3
EAT_Delay.HighCut.\$1.\$3 empty -2 -8 0 10 -204800 -1 -1 0 1;
#X obj 11 115 cnv 11 32 11 empty EAT_Delay.HighCutNum.\$1.\$3 15 2
6 1 10 -1 -128992 0;
#X obj 11 127 cnv 1 32 1 empty empty empty 4 9 1 11 -66577 -204800
0;
#X obj 14 129 hsl 27 11 0 1000 0 0 EAT_Delay.LowCut.\$1.Send.\$3 EAT_Delay.LowCut.\$1.\$3
empty -2 -8 0 10 -204800 -1 -1 0 1;
#X obj 11 141 cnv 11 32 11 empty EAT_Delay.LowCutNum.\$1.\$3 1 2 6
1 10 -1 -128992 0;
#X obj 11 153 cnv 1 32 1 empty empty empty 4 9 1 11 -66577 -204800
0;
#N canvas 516 121 450 300 display 0;
#N canvas 0 22 450 300 Mix 0;
#X obj 59 178 prepend label;
#X obj 59 161 list2symbol;
#X obj 59 127 int;
#X obj 59 93 * 1000;
#X obj 59 144 / 1000;
#X obj 59 110 + 0.4;
#X obj 59 76 r EAT_Delay.Mix.\$1.Send.\$3;
#X obj 59 195 s EAT_Delay.MixNum.\$1.\$3;
#X connect 0 0 7 0;
#X connect 1 0 0 0;
#X connect 2 0 4 0;
#X connect 3 0 5 0;
#X connect 4 0 1 0;
#X connect 5 0 2 0;
#X connect 6 0 3 0;
#X restore 35 11 pd Mix;
#N canvas 720 298 450 300 Time 0;
#X obj 49 167 prepend label;
#X obj 49 150 list2symbol;
#X obj 49 99 int;
#X obj 49 82 + 0.4;
#X obj 49 126 / 1000;
#X obj 49 36 r EAT_Delay.Time.\$1.Send.\$3;
#X obj 49 184 s EAT_Delay.TimeNum.\$1.\$3;
#X connect 0 0 6 0;
#X connect 1 0 0 0;
#X connect 2 0 4 0;
#X connect 3 0 2 0;
#X connect 4 0 1 0;
#X connect 5 0 3 0;
#X restore 35 31 pd Time;
#N canvas 716 105 450 300 Feedback 0;
#X obj 59 178 prepend label;
#X obj 59 161 list2symbol;
#X obj 59 127 int;
#X obj 59 93 * 1000;
#X obj 59 144 / 1000;
#X obj 59 110 + 0.4;
#X obj 59 76 r EAT_Delay.Feedback.\$1.Send.\$3;
#X obj 59 195 s EAT_Delay.FeedbackNum.\$1.\$3;
#X connect 0 0 7 0;
#X connect 1 0 0 0;
#X connect 2 0 4 0;
#X connect 3 0 5 0;
#X connect 4 0 1 0;
#X connect 5 0 2 0;
#X connect 6 0 3 0;
#X restore 35 51 pd Feedback;
#N canvas 720 298 450 300 High 0;
#X obj 49 167 prepend label;
#X obj 49 150 list2symbol;
#X obj 49 99 int;
#X obj 49 82 + 0.4;
#X obj 49 126 / 1000;
#X obj 49 36 r EAT_Delay.HighCut.\$1.Send.\$3;
#X obj 49 184 s EAT_Delay.HighCutNum.\$1.\$3;
#X connect 0 0 6 0;
#X connect 1 0 0 0;
#X connect 2 0 4 0;
#X connect 3 0 2 0;
#X connect 4 0 1 0;
#X connect 5 0 3 0;
#X restore 35 71 pd High Cut;
#N canvas 720 298 450 300 Low 0;
#X obj 49 167 prepend label;
#X obj 49 150 list2symbol;
#X obj 49 99 int;
#X obj 49 82 + 0.4;
#X obj 49 126 / 1000;
#X obj 49 36 r EAT_Delay.LowCut.\$1.Send.\$3;
#X obj 49 184 s EAT_Delay.LowCutNum.\$1.\$3;
#X connect 0 0 6 0;
#X connect 1 0 0 0;
#X connect 2 0 4 0;
#X connect 3 0 2 0;
#X connect 4 0 1 0;
#X connect 5 0 3 0;
#X restore 35 91 pd Low Cut;
#X restore 50 10 pd display;
#N canvas 625 56 428 373 midicc 0;
#X obj 1 -5 EATi_MIDICCMONO EAT_Delay Mix \$1 \$3 0 127 0 1;
#X obj 142 -5 EATi_MIDICCMONO EAT_Delay Time \$1 \$3 0 127 10 10000
;
#X obj 283 -5 EATi_MIDICCMONO EAT_Delay Feedback \$1 \$3 0 127 0 1;
#X obj 1 173 EATi_MIDICCMONO EAT_Delay HighCut \$1 \$3 0 127 1300 15000
;
#X obj 142 173 EATi_MIDICCMONO EAT_Delay LowCut \$1 \$3 0 127 0 1000
;
#X obj 283 173 EATi_MIDICCMONO EAT_Delay Mute \$1 \$3 0 127 1 1;
#X restore 50 29 pd midicc;
#N canvas 260 264 288 230 midiall 0;
#X obj 2 -2 r EAT_Delay.Mix.\$1.Send.all;
#X obj 2 15 s EAT_Delay.Mix.\$1.\$3;
#X obj 2 34 r EAT_Delay.Time.\$1.Send.all;
#X obj 2 51 s EAT_Delay.Time.\$1.\$3;
#X obj 2 70 r EAT_Delay.Feedback.\$1.Send.all;
#X obj 2 87 s EAT_Delay.Feedback.\$1.\$3;
#X obj 2 106 r EAT_Delay.HighCut.\$1.Send.all;
#X obj 2 123 s EAT_Delay.HighCut.\$1.\$3;
#X obj 2 142 r EAT_Delay.LowCut.\$1.Send.all;
#X obj 2 159 s EAT_Delay.LowCut.\$1.\$3;
#X obj 2 178 r EAT_Delay.Mute.\$1.Send.all;
#X obj 2 195 s EAT_Delay.Mute.\$1.\$3;
#X connect 0 0 1 0;
#X connect 2 0 3 0;
#X connect 4 0 5 0;
#X connect 6 0 7 0;
#X connect 8 0 9 0;
#X connect 10 0 11 0;
#X restore 50 48 pd midiall;
#N canvas 742 102 131 214 \$0_midi 0;
#X obj 27 -35 cnv 15 25 15 empty empty MIDI 2 9 1 11 -1 -204800 0;
#X obj 53 -35 cnv 15 68 15 empty empty CONTROL 2 9 1 11 -1 -204800
0;
#X obj -4 -38 cnv 1 2 163 empty empty empty 2 8 1 11 -66577 -204800
0;
#X obj -4 126 cnv 1 128 2 empty empty empty 2 8 1 11 -66577 -204800
0;
#X obj -1 -38 cnv 1 124 2 empty empty empty 2 8 1 11 -66577 -204800
0;
#X obj 122 -38 cnv 2 2 163 empty empty empty 2 8 1 11 -66577 -204800
0;
#X obj -1 -35 cnv 15 27 15 empty empty empty 2 9 1 11 -1 -204800 0
;
#X obj 27 -19 cnv 15 94 15 empty empty EAT_Delay 2 9 1 11 -1 -204800
0;
#X obj -1 -19 cnv 15 27 15 empty empty empty 2 9 1 11 -1 -204800 0
;
#X obj 27 -3 cnv 15 94 15 empty empty ID_\$1 2 9 1 11 -1 -204800 0
;
#X obj -1 -3 cnv 15 27 15 empty empty empty 2 9 1 11 -1 -204800 0;
#X obj -1 29 EATi_MIDILC EAT_Delay Mix \$1 \$3;
#X obj -1 45 EATi_MIDILC EAT_Delay Time \$1 \$3;
#X obj -1 61 EATi_MIDILC EAT_Delay Feedback \$1 \$3;
#X obj -1 77 EATi_MIDILC EAT_Delay HighCut \$1 \$3;
#X obj -1 93 EATi_MIDILC EAT_Delay LowCut \$1 \$3;
#X obj -1 109 EATi_MIDILC EAT_Delay Mute \$1 \$3;
#X obj 27 13 cnv 15 94 15 empty empty Channel_\$3 2 9 1 11 -1 -204800
0;
#X obj -1 13 cnv 15 27 15 empty empty empty 2 9 1 11 -1 -204800 0;
#X obj 9 144 pddplink eat_transport.pd -text GLOBAL TRANSPORT;
#X obj 7 157 pddplink eat_transport.pd -text WITH MIDI PRESETS;
#X obj 4 131 pddplink eat_transport.pd -text CLICK HERE TO OPEN;
#X restore 50 133 pd \$0_midi;
#X obj 50 84 float \$0;
#X obj 50 67 r \$0-midi;
#X msg 50 101 \; pd-\$1_midi vis 1;
#N canvas 353 260 427 200 presets 0;
#X obj 2 0 EATi_PRESET EAT_Delay Mix \$1 \$3;
#X obj 143 0 EATi_PRESET EAT_Delay Time \$1 \$3;
#X obj 284 0 EATi_PRESET EAT_Delay Feedback \$1 \$3;
#X obj 2 98 EATi_PRESET EAT_Delay HighCut \$1 \$3;
#X obj 143 98 EATi_PRESET EAT_Delay LowCut \$1 \$3;
#X restore 50 152 pd presets;
#X text 117 29 Individual Delay channel GUI;
#X text 119 51 Nested in Delay Advanced GUI;
#X connect 29 0 31 0;
#X connect 30 0 29 0;
#X coords 0 -1 1 1 34 186 2 10 10;
