#N canvas 0 209 999 68 16;
#X obj -81 48 cnv 3 1 1 empty empty CLOSE 1 0 1 20 -262144 -258113
0;
#N canvas 158 184 1045 337 (subpatch) 0;
#X obj -1 102 gemwin;
#X msg 57 45 create;
#X obj -1 187 pix_draw;
#X obj -1 133 gemhead;
#X msg 1059 45 reset;
#X msg -1 45 1;
#X msg 362 45 topmost 1;
#X obj -1 18 t b b b b;
#X msg 1129 45 destroy;
#X msg 466 45 title EAT_Audiofile_GUI_Help;
#X obj -1 1 loadbang;
#X msg 152 45 border 0;
#X msg 249 45 menubar 0;
#X msg 928 45 offset 0 300;
#X obj -1 160 pix_image EAT_mexicanwave-help-image.jpg;
#X msg 764 45 dimen 1014 339;
#X connect 1 0 0 0;
#X connect 3 0 14 0;
#X connect 4 0 0 0;
#X connect 5 0 0 0;
#X connect 6 0 0 0;
#X connect 7 0 5 0;
#X connect 7 1 1 0;
#X connect 7 2 6 0;
#X connect 7 2 9 0;
#X connect 7 2 15 0;
#X connect 7 2 11 0;
#X connect 7 2 12 0;
#X connect 7 2 13 0;
#X connect 7 3 4 0;
#X connect 7 3 8 0;
#X connect 8 0 0 0;
#X connect 9 0 0 0;
#X connect 10 0 7 0;
#X connect 11 0 0 0;
#X connect 12 0 0 0;
#X connect 13 0 0 0;
#X connect 14 0 2 0;
#X connect 15 0 0 0;
#X restore -385 -3 pd;
#X obj -13 48 cnv 3 1 1 empty empty THIS 10 0 1 20 -262144 -258113
0;
#X obj 43 48 cnv 3 1 1 empty empty WINDOW 10 0 1 20 -262144 -258113
0;
#X obj 140 48 cnv 3 1 1 empty empty TO 10 0 1 20 -262144 -258113 0
;
#X obj 178 48 cnv 3 1 1 empty empty CLOSE 10 0 1 20 -262144 -258113
0;
#X obj 255 48 cnv 3 1 1 empty empty HELP 10 0 1 20 -262144 -258113
0;
#X obj -125 1 pddplink EAT_mexicanwave-help-text.txt -text Click HERE
for information about EAT_MexicanWave;
