#N canvas 493 292 626 309 10;
#X obj 508 31 outlet~;
#X obj 508 -20 inlet~;
#X obj 508 14 freeverb~;
#X obj 508 -3 *~ 0.5;
#X obj 59 -89 loadbang;
#X msg 170 -43 bypass \$1;
#X msg 59 -43 width 1;
#X msg 374 -43 wet \$1;
#X msg 418 -43 dry \$1;
#X obj 418 -77 * -1;
#X obj 418 -60 + 1;
#X msg 232 -43 roomsize \$1;
#X msg 306 -43 damping \$1;
#X msg 108 -43 freeze \$1;
#X obj 108 -162 r EAT_Reverb.Freeze.\$1.Send.\$2;
#X obj 170 -145 r EAT_Reverb.Bypass.\$1.Send.\$2;
#X obj 232 -128 r EAT_Reverb.Roomsize.\$1.Send.\$2;
#X obj 306 -111 r EAT_Reverb.Damping.\$1.Send.\$2;
#X obj 374 -94 r EAT_Reverb.Mix.\$1.Send.\$2;
#X msg 68 -66 0;
#X text 76 14 Mono reverb line with sends and receives.;
#X connect 1 0 3 0;
#X connect 2 0 0 0;
#X connect 2 1 0 0;
#X connect 3 0 2 0;
#X connect 3 0 2 1;
#X connect 4 0 6 0;
#X connect 4 0 19 0;
#X connect 5 0 2 0;
#X connect 6 0 2 0;
#X connect 7 0 2 0;
#X connect 8 0 2 0;
#X connect 9 0 10 0;
#X connect 10 0 8 0;
#X connect 11 0 2 0;
#X connect 12 0 2 0;
#X connect 13 0 2 0;
#X connect 14 0 13 0;
#X connect 15 0 5 0;
#X connect 16 0 11 0;
#X connect 17 0 12 0;
#X connect 18 0 7 0;
#X connect 18 0 9 0;
#X connect 19 0 11 0;
#X connect 19 0 12 0;
#X connect 19 0 7 0;
#X connect 19 0 9 0;
