#N canvas 168 243 761 367 10;
#X obj 74 91 cnv 15 75 15 empty \$0-status 1 3 9 1 11 -1 -204800 0
;
#X obj 11 59 cnv 15 62 15 empty empty Instance: 17 9 1 11 -1 -204800
0;
#X obj 74 59 cnv 15 75 15 empty empty \$3 3 9 1 11 -1 -204800 0;
#X obj 11 43 cnv 15 62 15 empty empty Parameter: 8 9 1 11 -1 -204800
0;
#X obj 74 43 cnv 15 75 15 empty empty \$2 3 9 1 11 -1 -204800 0;
#X obj 11 27 cnv 15 62 15 empty empty Abstraction: 4 9 1 11 -1 -204800
0;
#X obj 74 27 cnv 15 75 15 empty empty \$1 3 9 1 11 -1 -204800 0;
#X obj 424 189 s \$0-allow;
#X msg 424 172 0;
#X msg 452 172 1;
#X obj 495 189 spigot;
#X obj 528 172 r \$0-allow;
#X obj 495 206 prepend \$1 \$2 \$3 \$4;
#X obj 50 75 cnv 15 23 15 empty empty No: 6 9 1 11 -1 -204800 0;
#X obj 74 75 cnv 15 75 15 empty empty \$4 3 9 1 11 -1 -204800 0;
#X obj 11 75 cnv 15 38 15 empty empty Channel 1 9 1 11 -1 -204800 0
;
#X obj 476 138 r presetrequest;
#X obj 277 6 r pload.\$1;
#X obj 495 223 s presetsave;
#X obj 527 155 r \$1.\$2.\$3.Send.\$4;
#X obj 495 172 f;
#X obj 476 155 t b b b;
#X obj 11 91 cnv 15 62 15 empty empty Status: 28 9 1 11 -1 -204800
0;
#X obj 11 11 cnv 15 138 15 empty empty PRESETS 43 9 1 11 -1 -204800
0;
#X obj 277 23 route \$2;
#X obj 277 40 route \$3;
#X obj 277 57 route \$4;
#X obj 225 231 s \$1.\$2.\$3.\$4;
#X obj 395 316 ctlout;
#X obj 395 299 spigot;
#X obj 428 282 r presetmidionoff.\$1.\$2.\$3.\$4;
#X obj 437 248 r presetmidicc.\$1.\$2.\$3.\$4;
#X obj 395 282 pack;
#X obj 395 248 t f b;
#X obj 422 265 f;
#X obj 599 231 loadbang;
#X obj 599 248 999;
#X text 8 106 Argument 1: Abstraction \; Argument 2: Parameter \; Argument
3: \$1 (uniqueID) \; Argument 4: \$3/all (Ch Num) \;;
#X obj 225 194 line;
#X obj 225 214 spigot;
#X msg 271 197 1;
#X obj 310 231 io;
#X msg 178 197 0;
#X obj 326 126 r \$1.\$2.\$3.Send.\$4;
#X obj 311 143 f;
#X obj 446 125 io;
#X obj 446 145 tgl 15 0 empty empty empty 17 7 0 10 -262144 -1 -1 0
1;
#X obj 311 160 spigot;
#X msg 311 177 \$1 1;
#X obj 232 91 pipe 2;
#X obj 232 118 t b f b;
#X obj 277 74 t f b b b;
#X msg 225 173 \$1 1000;
#X obj 178 135 pipe 1001;
#X obj 618 189 prepend label;
#X obj 618 206 s \$0-status;
#X obj 618 172 l2s;
#X text 19 276 Manages parameter status to save instance specific preset.
;
#X connect 8 0 7 0;
#X connect 9 0 7 0;
#X connect 10 0 12 0;
#X connect 11 0 10 1;
#X connect 12 0 18 0;
#X connect 16 0 21 0;
#X connect 17 0 24 0;
#X connect 19 0 20 1;
#X connect 19 0 56 0;
#X connect 20 0 10 0;
#X connect 21 0 8 0;
#X connect 21 1 20 0;
#X connect 21 2 9 0;
#X connect 24 0 25 0;
#X connect 25 0 26 0;
#X connect 26 0 51 0;
#X connect 29 0 28 0;
#X connect 30 0 29 1;
#X connect 31 0 34 1;
#X connect 32 0 29 0;
#X connect 33 0 32 0;
#X connect 33 1 34 0;
#X connect 34 0 32 1;
#X connect 35 0 36 0;
#X connect 36 0 34 1;
#X connect 38 0 39 0;
#X connect 39 0 41 0;
#X connect 39 0 27 0;
#X connect 40 0 39 1;
#X connect 41 0 33 0;
#X connect 42 0 39 1;
#X connect 43 0 44 1;
#X connect 44 0 47 0;
#X connect 45 0 46 0;
#X connect 46 0 47 1;
#X connect 47 0 48 0;
#X connect 48 0 38 0;
#X connect 49 0 50 0;
#X connect 50 0 53 0;
#X connect 50 1 52 0;
#X connect 50 2 40 0;
#X connect 51 0 49 0;
#X connect 51 1 45 0;
#X connect 51 2 44 0;
#X connect 51 3 45 0;
#X connect 52 0 38 0;
#X connect 53 0 42 0;
#X connect 54 0 55 0;
#X connect 56 0 54 0;
#X coords 0 -1 1 1 140 97 2 10 10;
