#N canvas 357 -884 733 664 10;
#X obj 424 206 ctlin;
#X obj 437 257 spigot;
#X obj 437 274 bng 15 250 50 0 empty empty empty 17 7 0 10 -262144
-1 -1;
#X obj 62 327 ==;
#X obj 360 293 prepend set;
#X obj 62 344 tgl 15 0 empty empty empty 17 7 0 10 -262144 -1 -1 0
1;
#X obj 29 359 spigot;
#X obj 29 502 spigot;
#X text 442 225 MIDI LEARN;
#X text 8 288 MIDI CONTROL;
#X msg 701 522 1;
#X msg 504 522 0;
#X obj 477 448 t b b;
#X obj 457 487 tgl 15 0 empty empty empty 17 7 0 10 -262144 -1 -1 0
1;
#X obj 457 539 spigot;
#X obj 457 556 * -1;
#X obj 457 573 + 1;
#X obj 310 8 r midirequest;
#X obj 327 644 s midisave;
#X obj 674 42 io;
#X obj 327 42 io;
#X obj 327 590 pack;
#X obj 451 96 prepend set;
#X msg 360 170 999 0;
#X obj 360 187 unpack;
#X obj 487 556 s \$0-spig;
#X obj 477 431 r \$0-spig;
#X obj 637 204 io;
#X obj 637 411 io;
#X obj 457 428 io;
#X obj 451 153 io;
#X obj 17 11 cnv 15 24 15 empty empty MIDI 1 9 1 11 -1 -204800 0;
#X obj 360 45 r midiload.\$1;
#X obj 11 139 cnv 15 34 15 empty empty Output 1 9 1 11 -1 -204800 0
;
#X obj 42 11 cnv 15 19 15 empty empty CC 3 9 1 11 -1 -204800 0;
#X obj 62 11 cnv 15 40 15 empty empty LEARN 3 9 1 11 -1 -204800 0;
#X obj 46 139 cnv 15 27 15 empty empty Max: 3 9 1 11 -1 -204800 0;
#X obj 74 139 cnv 15 75 15 empty empty \$8 3 9 1 11 -1 -204800 0;
#X obj 11 123 cnv 15 38 15 empty empty Output 5 9 1 11 -1 -204800 0
;
#X obj 50 123 cnv 15 23 15 empty empty Min: 3 9 1 11 -1 -204800 0;
#X obj 74 123 cnv 15 75 15 empty empty \$7 3 9 1 11 -1 -204800 0;
#X obj 11 107 cnv 15 34 15 empty empty Input 10 9 1 11 -1 -204800 0
;
#X obj 46 107 cnv 15 27 15 empty empty Max: 3 9 1 11 -1 -204800 0;
#X obj 74 107 cnv 15 75 15 empty empty \$6 3 9 1 11 -1 -204800 0;
#X obj 50 91 cnv 15 23 15 empty empty Min: 3 9 1 11 -1 -204800 0;
#X obj 74 91 cnv 15 75 15 empty empty \$5 3 9 1 11 -1 -204800 0;
#X obj 11 91 cnv 15 38 15 empty empty Input 14 9 1 11 -1 -204800 0
;
#X obj 11 59 cnv 15 62 15 empty empty Instance: 17 9 1 11 -1 -204800
0;
#X obj 74 59 cnv 15 75 15 empty empty \$3 3 9 1 11 -1 -204800 0;
#X obj 11 43 cnv 15 62 15 empty empty Parameter: 8 9 1 11 -1 -204800
0;
#X obj 74 43 cnv 15 75 15 empty empty \$2 3 9 1 11 -1 -204800 0;
#X obj 11 27 cnv 15 62 15 empty empty Abstraction: 4 9 1 11 -1 -204800
0;
#X obj 74 27 cnv 15 75 15 empty empty \$1 3 9 1 11 -1 -204800 0;
#X obj 144 11 cnv 5 5 15 empty empty empty 1 9 1 11 -1 -204800 0;
#X obj 674 470 t b b;
#X obj 360 62 route \$2;
#X obj 11 155 cnv 15 39 15 empty empty MIDI 17 9 1 11 -1 -204800 0
;
#X obj 51 155 cnv 15 22 15 empty empty CC: 3 9 1 11 -1 -204800 0;
#X obj 74 155 cnv 15 75 15 empty \$0-midicc 74 3 9 1 11 -1 -204800
0;
#X obj 354 451 s \$0-midicc;
#X obj 354 417 l2s;
#X obj 354 434 prepend label;
#X obj 349 536 l2s;
#X obj 349 553 prepend label;
#X obj 349 570 s \$0-midionoff;
#X obj 11 171 cnv 15 38 15 empty empty MIDI 16 9 1 11 -1 -204800 0
;
#X obj 50 171 cnv 15 23 15 empty empty ON: 3 9 1 11 -1 -204800 0;
#X obj 74 171 cnv 15 75 15 empty \$0-midionoff 0 3 9 1 11 -1 -204800
0;
#X obj 333 226 t b f;
#X obj 392 274 io;
#X obj 392 209 io;
#X obj 310 25 t b b b b;
#X obj 254 59 s \$0-allow;
#X msg 254 42 0;
#X msg 282 42 1;
#X obj 327 610 spigot;
#X obj 360 593 r \$0-allow;
#X obj 274 293 loadbang;
#X msg 274 519 ---;
#X msg 382 310 ---;
#X obj 404 228 t f b;
#X obj 29 376 range \$5 \$6 \$7 \$8;
#X obj 330 470 r \$1.\$2.\$3.\$4.midiccs;
#X obj 542 428 s \$1.\$2.\$3.\$4.midiccr;
#X obj 360 113 route \$3;
#X obj 29 519 s \$1.\$2.\$3.\$4;
#X obj 327 627 prepend \$1 \$2 \$3 \$4;
#X obj 470 240 r \$1.\$2.\$3.\$4.midilearns;
#X obj 437 289 s \$1.\$2.\$3.\$4.midilearnr;
#X obj 50 75 cnv 15 23 15 empty empty No: 6 9 1 11 -1 -204800 0;
#X obj 74 75 cnv 15 75 15 empty empty \$4 3 9 1 11 -1 -204800 0;
#X obj 11 75 cnv 15 38 15 empty empty Channel 1 9 1 11 -1 -204800 0
;
#X obj 103 11 cnv 15 40 15 empty empty MONO 3 9 1 11 -1 -204800 0;
#X obj 11 11 cnv 5 5 15 empty empty empty 1 9 1 11 -1 -204800 0;
#X obj 360 79 list-splat 2;
#X obj 360 153 route \$4;
#X obj 360 96 route list;
#X msg 327 310 74;
#X text 8 185 Argument 1: Abstraction \; Argument 2: Parameter \; Argument
3: \$1 (uniqueID) \; Argument 4: \$3/all (Ch Num) \; Argument 5: Input
Min \; Argument 6: Input Max \; Argument 7: Output Min \; Argument
8: Output Max;
#X obj 514 502 s presetmidionoff.\$1.\$2.\$3.\$4;
#X obj 93 343 s presetmidicc.\$1.\$2.\$3.\$4;
#X text 22 584 Learns \, manages \, and saves MIDI information.;
#X obj 247 223 io;
#X obj 247 298 io;
#X obj 29 315 io;
#X connect 0 0 102 0;
#X connect 0 1 1 0;
#X connect 0 1 80 0;
#X connect 1 0 2 0;
#X connect 1 0 69 0;
#X connect 2 0 88 0;
#X connect 3 0 5 0;
#X connect 4 0 97 0;
#X connect 5 0 6 1;
#X connect 6 0 81 0;
#X connect 7 0 85 0;
#X connect 10 0 14 1;
#X connect 11 0 14 1;
#X connect 12 0 13 0;
#X connect 12 1 11 0;
#X connect 13 0 14 0;
#X connect 13 0 7 1;
#X connect 13 0 99 0;
#X connect 14 0 15 0;
#X connect 14 0 25 0;
#X connect 15 0 16 0;
#X connect 16 0 21 1;
#X connect 17 0 71 0;
#X connect 19 0 54 0;
#X connect 20 0 97 0;
#X connect 21 0 75 0;
#X connect 22 0 30 0;
#X connect 23 0 24 0;
#X connect 24 0 68 0;
#X connect 24 1 27 0;
#X connect 26 0 12 0;
#X connect 27 0 28 0;
#X connect 28 0 29 0;
#X connect 28 0 83 0;
#X connect 29 0 13 0;
#X connect 30 0 23 0;
#X connect 32 0 55 0;
#X connect 54 0 13 0;
#X connect 54 1 10 0;
#X connect 55 0 94 0;
#X connect 60 0 61 0;
#X connect 61 0 59 0;
#X connect 62 0 63 0;
#X connect 63 0 64 0;
#X connect 68 0 97 0;
#X connect 68 1 4 0;
#X connect 69 0 70 0;
#X connect 70 0 68 0;
#X connect 71 0 73 0;
#X connect 71 1 20 0;
#X connect 71 2 19 0;
#X connect 71 3 74 0;
#X connect 73 0 72 0;
#X connect 74 0 72 0;
#X connect 75 0 86 0;
#X connect 76 0 75 1;
#X connect 77 0 78 0;
#X connect 77 0 79 0;
#X connect 78 0 62 0;
#X connect 79 0 60 0;
#X connect 80 0 3 0;
#X connect 80 1 97 0;
#X connect 81 0 7 0;
#X connect 82 0 13 0;
#X connect 82 0 62 0;
#X connect 84 0 95 0;
#X connect 86 0 18 0;
#X connect 87 0 1 1;
#X connect 94 0 96 0;
#X connect 94 1 22 0;
#X connect 95 0 23 0;
#X connect 96 0 84 0;
#X connect 97 0 3 1;
#X connect 97 0 21 0;
#X connect 97 0 60 0;
#X connect 97 0 100 0;
#X connect 102 0 103 0;
#X connect 103 0 104 0;
#X connect 104 0 6 0;
#X coords 0 -1 1 1 140 177 2 10 10;
