#N canvas 46 154 759 635 10;
#X obj -11217 -2733 square~;
#X obj -11219 -2584 dac~;
#X obj -11218 -2620 *~ 0.02;
#X obj -11218 -2652 *~;
#X floatatom -11165 -2805 5 0 2000 0 - - -;
#X floatatom -11125 -2805 5 0 2000 0 - - -;
#X floatatom -11088 -2805 5 0 100 0 - - -;
#X floatatom -11047 -2805 5 0 2000 0 - - -;
#X obj -11202 -2762 adsr 0 0 0 0 0 0;
#X obj -11253 -2829 t f f;
#X msg -11047 -2833 1000;
#X msg -11165 -2833 0;
#X msg -11125 -2833 500;
#X obj -11042 -2953 loadbang;
#X symbolatom -11469 -3033 10 0 0 0 - - -;
#X obj -11498 -3118 key-rep-filt 50;
#X floatatom -11440 -3056 5 0 0 0 - - -;
#X floatatom -11411 -3078 5 0 0 0 - - -;
#X text -11371 -3079 keyup code;
#X text -11399 -3055 key code;
#X text -11490 -2976 repeat filtered key state;
#X floatatom -11483 -2990 5 0 0 0 - - -;
#X text -11399 -3036 keyname (symbol);
#X obj -11218 -3083 route 113 50 119 51 101 114 53 116 54 121 55 117
;
#X obj -11219 -3042 f 60;
#X obj -11219 -2924 mtof;
#X obj -11189 -3042 f 61;
#X obj -11159 -3042 f 62;
#X obj -11129 -3042 f 63;
#X obj -11099 -3042 f 64;
#X obj -11070 -3042 f 65;
#X obj -11039 -3042 f 66;
#X obj -11010 -3042 f 67;
#X obj -10979 -3042 f 68;
#X obj -10949 -3042 f 69;
#X obj -10919 -3042 f 70;
#X obj -10889 -3042 f 71;
#X msg -11088 -2833 30;
#X text -11389 -3124 creation arg is for catching the sweetspot to
filter key repeats - it is mandatory - 50 seems a good start;
#X text -11005 -2589 Balwyn 2015;
#X text -11480 -2818 play keys: Q W E R T Y U;
#X text -11407 -2830 2 3 - 5 6 7;
#X obj -11485 -2951 s \$0-;
#X connect 0 0 3 0;
#X connect 2 0 1 0;
#X connect 2 0 1 1;
#X connect 3 0 2 0;
#X connect 4 0 8 2;
#X connect 5 0 8 3;
#X connect 6 0 8 4;
#X connect 7 0 8 5;
#X connect 8 0 3 1;
#X connect 9 0 8 0;
#X connect 9 1 8 1;
#X connect 10 0 7 0;
#X connect 11 0 4 0;
#X connect 12 0 5 0;
#X connect 13 0 11 0;
#X connect 13 0 12 0;
#X connect 13 0 37 0;
#X connect 13 0 10 0;
#X connect 15 0 9 0;
#X connect 15 0 21 0;
#X connect 15 1 14 0;
#X connect 15 2 16 0;
#X connect 15 2 23 0;
#X connect 15 3 17 0;
#X connect 23 0 24 0;
#X connect 23 1 26 0;
#X connect 23 2 27 0;
#X connect 23 3 28 0;
#X connect 23 4 29 0;
#X connect 23 5 30 0;
#X connect 23 6 31 0;
#X connect 23 7 32 0;
#X connect 23 8 33 0;
#X connect 23 9 34 0;
#X connect 23 10 35 0;
#X connect 23 11 36 0;
#X connect 24 0 25 0;
#X connect 25 0 0 0;
#X connect 26 0 25 0;
#X connect 27 0 25 0;
#X connect 28 0 25 0;
#X connect 29 0 25 0;
#X connect 30 0 25 0;
#X connect 31 0 25 0;
#X connect 32 0 25 0;
#X connect 33 0 25 0;
#X connect 34 0 25 0;
#X connect 35 0 25 0;
#X connect 36 0 25 0;
#X connect 37 0 6 0;
