#N canvas 649 252 433 394 10;
#X obj -11552 -3329 keyname;
#X obj -11552 -3192 line;
#X msg -11552 -3052 0;
#X msg -11475 -3054 1;
#X obj -11519 -3114 == 0;
#X obj -11552 -3087 spigot;
#X obj -11475 -3086 spigot;
#X obj -11442 -3114 == 1;
#X obj -11552 -3018 change;
#X obj -11552 -3222 pack \$1 50;
#X obj -11552 -2989 outlet;
#X obj -11513 -3304 outlet;
#X obj -11495 -3273 loadbang;
#X obj -11495 -3247 f \$1;
#X text -11311 -3260 Balwyn 2015;
#X obj -11259 -3009 key;
#X obj -11259 -2982 outlet;
#X obj -11208 -3009 keyup;
#X obj -11208 -2982 outlet;
#X connect 0 0 9 0;
#X connect 0 1 11 0;
#X connect 1 0 4 0;
#X connect 1 0 7 0;
#X connect 1 0 6 0;
#X connect 1 0 5 0;
#X connect 2 0 8 0;
#X connect 3 0 8 0;
#X connect 4 0 5 1;
#X connect 5 0 2 0;
#X connect 6 0 3 0;
#X connect 7 0 6 1;
#X connect 8 0 10 0;
#X connect 9 0 1 0;
#X connect 12 0 13 0;
#X connect 13 0 9 1;
#X connect 15 0 16 0;
#X connect 17 0 18 0;
