#N canvas 398 195 512 224 10;
#N canvas 194 151 336 317 ARGO 0;
#X obj 101 101 cnv 20 130 34 empty ColorForm empty 20 12 0 14 -188398
-1 1.04858e+06;
#X obj 179 105 cnv 10 40 10 empty ColorForm Flt-LP 1 5 1 14 -188398
-1 1.04858e+06;
#X obj 101 131 cnv 4 10 4 empty empty empty 20 12 0 14 -1 -66577 0
;
#X obj 221 101 cnv 4 10 4 empty empty empty 20 12 0 14 -1728 -66577
0;
#X obj 221 131 cnv 4 10 4 empty empty empty 0 0 0 9 -1 -66577 0;
#X obj 90 50 inlet~;
#X obj 190 282 outlet~;
#X obj 241 282 outlet~;
#X obj 103 118 hsl 127 12 0 1 0 0 \$0-A ColorTime A3 0 7 1 9 -208064
-1 -1 6300 0;
#X obj 100 106 nbx 7 12 0 20000 0 1 \$0-A ColorTime Hz 60 7 1 9 -208064
-1 -1 440 256;
#N canvas 45 224 407 326 Freqv4 0;
#X obj 55 142 ftom;
#X obj 161 171 mtof;
#X obj 155 42 +~;
#X obj 64 74 snapshot~;
#X obj 64 96 change;
#X msg 8 186 set \$1;
#X msg 162 193 set \$1;
#X obj 160 124 * 126;
#X obj 161 147 + 6;
#X obj 57 187 / 126;
#X obj 56 165 - 6;
#X obj 111 1 *~ 1.90476;
#X obj 23 -23 r \$0-SendClic;
#X obj 221 -45 inlet;
#X obj 286 -18 inlet;
#X obj 58 219 outlet;
#X obj 162 217 outlet;
#N canvas 60 186 488 293 pitch 0;
#X obj 73 85 mod 12;
#X obj 73 109 sel 0 1 2 3 4 5 6 7 8 9 10 11;
#X msg 249 144 A;
#X msg 276 144 A#;
#X msg 303 144 B;
#X msg 222 144 G#;
#X msg 195 144 G;
#X msg 168 144 F#;
#X msg 6 144 C;
#X msg 33 144 C#;
#X msg 60 144 D;
#X msg 87 144 D#;
#X msg 114 144 E;
#X msg 141 144 F;
#X obj 207 4 inlet;
#X obj 332 89 div 12;
#X obj 332 118 - 2;
#X obj 263 212 tosymbol;
#X obj 207 43 t f f;
#X obj 263 187 sprintf %s%d;
#X text 337 164 -> Numero de l'octave;
#X text 213 25 -> Numero MIDI de la note (69 = A3 = 440Hz);
#X msg 263 234 label \$1;
#X obj 263 257 outlet;
#X connect 0 0 1 0;
#X connect 1 0 8 0;
#X connect 1 1 9 0;
#X connect 1 2 10 0;
#X connect 1 3 11 0;
#X connect 1 4 12 0;
#X connect 1 5 13 0;
#X connect 1 6 7 0;
#X connect 1 7 6 0;
#X connect 1 8 5 0;
#X connect 1 9 2 0;
#X connect 1 10 3 0;
#X connect 1 11 4 0;
#X connect 2 0 19 0;
#X connect 3 0 19 0;
#X connect 4 0 19 0;
#X connect 5 0 19 0;
#X connect 6 0 19 0;
#X connect 7 0 19 0;
#X connect 8 0 19 0;
#X connect 9 0 19 0;
#X connect 10 0 19 0;
#X connect 11 0 19 0;
#X connect 12 0 19 0;
#X connect 13 0 19 0;
#X connect 14 0 18 0;
#X connect 15 0 16 0;
#X connect 16 0 19 1;
#X connect 17 0 22 0;
#X connect 18 0 0 0;
#X connect 18 1 15 0;
#X connect 19 0 17 0;
#X connect 22 0 23 0;
#X restore 98 186 pd pitch;
#X text 55 237 Hslider;
#X text 268 -35 number Freq;
#X text 217 -64 Hslider;
#X text 148 236 number Freq;
#X obj 220 -16 * 126;
#X obj 221 7 + 6;
#X obj 111 -23 inlet~;
#X obj 341 -43 loadbang;
#X obj 234 195 clip 0 20000;
#X obj 341 6 metro 10;
#X obj 234 171 mtof;
#X obj 234 86 snapshot~;
#X obj 234 108 change;
#X obj 233 131 * 126;
#X obj 234 151 + 6;
#X obj 234 217 outlet;
#X connect 0 0 10 0;
#X connect 1 0 6 0;
#X connect 2 0 3 0;
#X connect 2 0 29 0;
#X connect 3 0 4 0;
#X connect 4 0 5 0;
#X connect 4 0 7 0;
#X connect 5 0 15 0;
#X connect 6 0 16 0;
#X connect 7 0 8 0;
#X connect 8 0 1 0;
#X connect 9 0 15 0;
#X connect 10 0 9 0;
#X connect 11 0 2 0;
#X connect 12 0 3 0;
#X connect 13 0 2 1;
#X connect 13 0 22 0;
#X connect 14 0 0 0;
#X connect 17 0 15 0;
#X connect 22 0 23 0;
#X connect 23 0 17 0;
#X connect 24 0 11 0;
#X connect 25 0 27 0;
#X connect 26 0 33 0;
#X connect 27 0 29 0;
#X connect 28 0 26 0;
#X connect 29 0 30 0;
#X connect 30 0 31 0;
#X connect 31 0 32 0;
#X connect 32 0 28 0;
#X restore 265 110 pd Freqv4;
#X obj 232 49 inlet~;
#X obj 101 101 cnv 4 10 4 empty empty empty 20 12 0 14 -1 -66577 0
;
#X obj 88 282 outlet~;
#X obj 139 282 outlet~;
#X obj 177 131 cnv 4 10 4 empty empty empty 0 0 0 9 -1 -66577 0;
#X obj 137 131 cnv 4 10 4 empty empty empty 0 0 0 9 -1 -66577 0;
#X obj 88 173 lop~;
#X obj 141 199 lop~;
#X obj 191 226 lop~;
#X obj 241 256 lop~;
#X text 12 10 Controlled low pass filter;
#X text 80 136 1 Filter;
#X text 116 146 2 Filter;
#X text 158 136 3 Filter;
#X text 200 146 4 Filter;
#X text 207 72 Cutoff;
#X text 197 81 frequency;
#X connect 5 0 17 0;
#X connect 8 0 10 1;
#X connect 9 0 10 2;
#X connect 10 0 8 0;
#X connect 10 1 9 0;
#X connect 10 2 17 1;
#X connect 10 2 18 1;
#X connect 10 2 19 1;
#X connect 10 2 20 1;
#X connect 11 0 10 0;
#X connect 17 0 13 0;
#X connect 17 0 18 0;
#X connect 18 0 14 0;
#X connect 18 0 19 0;
#X connect 19 0 6 0;
#X connect 19 0 20 0;
#X connect 20 0 7 0;
#X coords 0 -1 1 1 132 36 1 100 100;
#X restore 7 8 pd ARGO;
#N canvas 536 136 344 321 ARGO 0;
#X obj 101 101 cnv 20 130 34 empty ColorForm empty 20 12 0 14 -188398
-1 1.04858e+06;
#X obj 179 105 cnv 10 40 10 empty ColorForm Flt-HP 1 5 1 14 -188398
-1 1.04858e+06;
#X obj 101 131 cnv 4 10 4 empty empty empty 20 12 0 14 -1 -66577 0
;
#X obj 221 101 cnv 4 10 4 empty empty empty 20 12 0 14 -1728 -66577
0;
#X obj 221 131 cnv 4 10 4 empty empty empty 0 0 0 9 -1 -66577 0;
#X obj 86 49 inlet~;
#X obj 190 275 outlet~;
#X obj 241 275 outlet~;
#X obj 103 118 hsl 127 12 0 1 0 0 \$0-A ColorTime A3 0 7 1 9 -208064
-1 -1 6300 0;
#X obj 100 106 nbx 7 12 0 20000 0 1 \$0-A ColorTime Hz 60 7 1 9 -208064
-1 -1 440 256;
#N canvas 346 185 404 319 Freqv4 0;
#X obj 60 167 ftom;
#X obj 159 209 mtof;
#X obj 153 80 +~;
#X obj 57 112 snapshot~;
#X obj 57 134 change;
#X msg 14 213 set \$1;
#X msg 160 231 set \$1;
#X obj 158 162 * 126;
#X obj 159 185 + 6;
#X obj 62 212 / 126;
#X obj 61 190 - 6;
#X obj 138 23 *~ 1.90476;
#X obj 51 -6 r \$0-SendClic;
#X obj 219 -7 inlet;
#X obj 285 -9 inlet;
#X obj 63 254 outlet;
#X obj 160 255 outlet;
#N canvas 60 186 488 293 pitch 0;
#X obj 73 85 mod 12;
#X obj 73 109 sel 0 1 2 3 4 5 6 7 8 9 10 11;
#X msg 249 144 A;
#X msg 276 144 A#;
#X msg 303 144 B;
#X msg 222 144 G#;
#X msg 195 144 G;
#X msg 168 144 F#;
#X msg 6 144 C;
#X msg 33 144 C#;
#X msg 60 144 D;
#X msg 87 144 D#;
#X msg 114 144 E;
#X msg 141 144 F;
#X obj 207 4 inlet;
#X obj 332 89 div 12;
#X obj 332 118 - 2;
#X obj 263 212 tosymbol;
#X obj 207 43 t f f;
#X obj 263 187 sprintf %s%d;
#X text 337 164 -> Numero de l'octave;
#X text 213 25 -> Numero MIDI de la note (69 = A3 = 440Hz);
#X msg 263 234 label \$1;
#X obj 263 257 outlet;
#X connect 0 0 1 0;
#X connect 1 0 8 0;
#X connect 1 1 9 0;
#X connect 1 2 10 0;
#X connect 1 3 11 0;
#X connect 1 4 12 0;
#X connect 1 5 13 0;
#X connect 1 6 7 0;
#X connect 1 7 6 0;
#X connect 1 8 5 0;
#X connect 1 9 2 0;
#X connect 1 10 3 0;
#X connect 1 11 4 0;
#X connect 2 0 19 0;
#X connect 3 0 19 0;
#X connect 4 0 19 0;
#X connect 5 0 19 0;
#X connect 6 0 19 0;
#X connect 7 0 19 0;
#X connect 8 0 19 0;
#X connect 9 0 19 0;
#X connect 10 0 19 0;
#X connect 11 0 19 0;
#X connect 12 0 19 0;
#X connect 13 0 19 0;
#X connect 14 0 18 0;
#X connect 15 0 16 0;
#X connect 16 0 19 1;
#X connect 17 0 22 0;
#X connect 18 0 0 0;
#X connect 18 1 15 0;
#X connect 19 0 17 0;
#X connect 22 0 23 0;
#X restore 103 211 pd pitch;
#X text 60 272 Hslider;
#X text 267 -26 number Freq;
#X text 215 -26 Hslider;
#X text 146 274 number Freq;
#X obj 218 22 * 126;
#X obj 219 45 + 6;
#X obj 138 -6 inlet~;
#X obj 339 -8 loadbang;
#X obj 232 233 clip 0 20000;
#X obj 340 54 metro 10;
#X obj 232 209 mtof;
#X obj 232 124 snapshot~;
#X obj 232 146 change;
#X obj 231 169 * 126;
#X obj 232 189 + 6;
#X obj 232 255 outlet;
#X connect 0 0 10 0;
#X connect 1 0 6 0;
#X connect 2 0 3 0;
#X connect 2 0 29 0;
#X connect 3 0 4 0;
#X connect 4 0 5 0;
#X connect 4 0 7 0;
#X connect 5 0 15 0;
#X connect 6 0 16 0;
#X connect 7 0 8 0;
#X connect 8 0 1 0;
#X connect 9 0 15 0;
#X connect 10 0 9 0;
#X connect 11 0 2 0;
#X connect 12 0 3 0;
#X connect 13 0 2 1;
#X connect 13 0 22 0;
#X connect 14 0 0 0;
#X connect 17 0 15 0;
#X connect 22 0 23 0;
#X connect 23 0 17 0;
#X connect 24 0 11 0;
#X connect 25 0 27 0;
#X connect 26 0 33 0;
#X connect 27 0 29 0;
#X connect 28 0 26 0;
#X connect 29 0 30 0;
#X connect 30 0 31 0;
#X connect 31 0 32 0;
#X connect 32 0 28 0;
#X restore 269 108 pd Freqv4;
#X obj 204 49 inlet~;
#X obj 101 101 cnv 4 10 4 empty empty empty 20 12 0 14 -1 -66577 0
;
#X obj 88 275 outlet~;
#X obj 139 275 outlet~;
#X obj 177 131 cnv 4 10 4 empty empty empty 0 0 0 9 -1 -66577 0;
#X obj 137 131 cnv 4 10 4 empty empty empty 0 0 0 9 -1 -66577 0;
#X obj 88 166 hip~;
#X obj 141 192 hip~;
#X obj 191 219 hip~;
#X obj 241 250 hip~;
#X text 80 136 1 Filter;
#X text 116 146 2 Filter;
#X text 158 136 3 Filter;
#X text 200 146 4 Filter;
#X text 207 72 Cutoff;
#X text 197 81 frequency;
#X text 12 10 Controlled high pass filter;
#X connect 5 0 17 0;
#X connect 8 0 10 1;
#X connect 9 0 10 2;
#X connect 10 0 8 0;
#X connect 10 1 9 0;
#X connect 10 2 17 1;
#X connect 10 2 18 1;
#X connect 10 2 19 1;
#X connect 10 2 20 1;
#X connect 11 0 10 0;
#X connect 17 0 13 0;
#X connect 17 0 18 0;
#X connect 18 0 14 0;
#X connect 18 0 19 0;
#X connect 19 0 6 0;
#X connect 19 0 20 0;
#X connect 20 0 7 0;
#X coords 0 -1 1 1 132 36 1 100 100;
#X restore 7 52 pd ARGO;
#N canvas 540 328 458 273 ARGO 0;
#X obj 101 101 cnv 10 100 15 empty ColorForm empty 20 12 0 14 -188398
-1 1.04858e+06;
#X obj 101 112 cnv 4 10 4 empty empty empty 20 12 0 14 -1 -66577 0
;
#X obj 85 73 inlet~;
#X obj 114 102 nbx 4 12 0.01 1000 0 1 \$0-A ColorTime ms 40 7 1 9 -208064
-1 -1 1 256;
#X obj 101 101 cnv 4 10 4 empty empty empty 20 12 0 14 -1 -66577 0
;
#X obj 85 234 outlet~;
#X obj 85 203 lop~;
#X obj 115 125 t b f;
#X obj 128 175 /;
#X text 140 17 freq(Hz) = 1 / (2 x pi x Time constant(sec));
#X text 139 33 freq(Hz) = 1000 / (2 x pi x Time constant(ms));
#X obj 168 105 cnv 10 20 10 empty ColorForm Gliss 1 5 1 14 -188398
-1 1.04858e+06;
#X text 119 201 <- First order (one-pole) lowpass filter (-6dB/octave)
;
#X text 139 49 freq(Hz) = 159 / (Time constant(ms));
#X msg 115 151 159;
#X connect 2 0 6 0;
#X connect 3 0 7 0;
#X connect 6 0 5 0;
#X connect 7 0 14 0;
#X connect 7 1 8 1;
#X connect 8 0 6 1;
#X connect 14 0 8 0;
#X coords 0 -1 1 1 102 17 1 100 100;
#X restore 7 191 pd ARGO;
#X text 240 144 Comb Filter;
#X text 240 157 Filtre en peigne;
#X text 240 181 Low-pass Filter (1st order in ms);
#X text 240 194 Filtre Passe-bas (1er ordre gradué en ms);
#X text 240 12 Low-pass Filter (1st \, 2nd \, 3rd \, 4th order);
#X text 240 55 High-pass Filter (1st \, 2nd \, 3rd \, 4th order);
#X text 240 97 Band-pass Filter (1st \, 2nd \, 3rd \, 4th order);
#X text 240 25 Filtre Passe-bas (1er \, 2e \, 3e \, 4e ordre);
#X text 240 68 Filtre Passe-haut (1er \, 2e \, 3e \, 4e ordre);
#X text 240 110 Filtre Passe-bande (1er \, 2e \, 3e \, 4e ordre);
#N canvas 219 113 406 349 ARGO 0;
#X obj 101 101 cnv 20 215 34 empty ColorForm empty 20 12 0 14 -188398
-1 1.04858e+06;
#X obj 248 104 cnv 10 65 10 empty ColorForm Flt-BP 1 5 1 14 -188398
-1 1.04858e+06;
#X obj 101 131 cnv 4 10 4 empty empty empty 20 12 0 14 -1 -66577 0
;
#X obj 203 101 cnv 4 10 4 empty empty empty 20 12 0 14 -1728 -66577
0;
#X obj 306 131 cnv 4 10 4 empty empty empty 0 0 0 9 -1 -66577 0;
#X obj 87 44 inlet~;
#X obj 209 288 outlet~;
#X obj 271 288 outlet~;
#X obj 234 118 hsl 81 12 0 1 0 1 \$0-A ColorForm 50 0 7 1 9 -188398
-1 -1 4000 0;
#X obj 103 118 hsl 127 12 0 1 0 0 \$0-A ColorTime A3 0 7 1 9 -208064
-1 -1 6300 0;
#X obj 100 106 nbx 7 12 0 20000 0 1 \$0-A ColorTime Hz 60 7 1 9 -208064
-1 -1 440 256;
#N canvas 320 116 287 327 Q 0;
#X obj 73 278 line;
#X obj 11 9 loadbang;
#X msg 148 128 set \$1;
#X obj 78 56 +~;
#X obj 78 89 snapshot~;
#X obj 78 109 change;
#X obj 10 54 metro 10;
#X obj 76 215 + 1;
#X obj 75 236 clip 1 200;
#X msg 74 257 \$1 100;
#X obj 76 173 * 1;
#X obj 77 152 * 1;
#X obj 78 129 t f f f;
#X obj 73 300 outlet;
#X obj 75 194 * 200;
#X obj 163 9 r \$0-SendClic;
#X obj 149 88 snapshot~;
#X obj 149 108 change;
#X obj 124 9 inlet;
#X obj 148 300 outlet;
#X obj 77 9 inlet~;
#X msg 218 132 label \$1;
#X obj 218 110 tosymbol;
#X obj 218 88 * 100;
#X connect 0 0 13 0;
#X connect 1 0 6 0;
#X connect 2 0 19 0;
#X connect 3 0 4 0;
#X connect 3 0 16 0;
#X connect 4 0 5 0;
#X connect 5 0 12 0;
#X connect 6 0 4 0;
#X connect 7 0 8 0;
#X connect 8 0 9 0;
#X connect 9 0 0 0;
#X connect 10 0 14 0;
#X connect 11 0 10 0;
#X connect 12 0 11 0;
#X connect 12 1 11 1;
#X connect 12 2 10 1;
#X connect 14 0 7 0;
#X connect 15 0 16 0;
#X connect 16 0 17 0;
#X connect 17 0 2 0;
#X connect 18 0 3 1;
#X connect 18 0 23 0;
#X connect 20 0 3 0;
#X connect 21 0 19 0;
#X connect 22 0 21 0;
#X connect 23 0 22 0;
#X restore 354 114 pd Q;
#N canvas 45 224 344 321 Freqv4 0;
#X obj 58 175 ftom;
#X obj 164 204 mtof;
#X obj 182 59 +~;
#X obj 67 107 snapshot~;
#X obj 67 129 change;
#X msg 9 221 set \$1;
#X msg 165 226 set \$1;
#X obj 163 157 * 126;
#X obj 164 180 + 6;
#X obj 60 220 / 126;
#X obj 59 198 - 6;
#X obj 141 17 *~ 1.90476;
#X obj 237 223 clip~ 0 20000;
#X obj 237 201 mtof~;
#X obj 237 250 outlet~;
#X obj 236 154 *~ 126;
#X obj 237 176 +~ 6;
#X obj 53 -8 r \$0-SendClic;
#X obj 224 -12 inlet;
#X obj 289 15 inlet;
#X obj 61 252 outlet;
#X obj 165 250 outlet;
#N canvas 60 186 488 293 pitch 0;
#X obj 73 85 mod 12;
#X obj 73 109 sel 0 1 2 3 4 5 6 7 8 9 10 11;
#X msg 249 144 A;
#X msg 276 144 A#;
#X msg 303 144 B;
#X msg 222 144 G#;
#X msg 195 144 G;
#X msg 168 144 F#;
#X msg 6 144 C;
#X msg 33 144 C#;
#X msg 60 144 D;
#X msg 87 144 D#;
#X msg 114 144 E;
#X msg 141 144 F;
#X obj 207 4 inlet;
#X obj 332 89 div 12;
#X obj 332 118 - 2;
#X obj 263 212 tosymbol;
#X obj 207 43 t f f;
#X obj 263 187 sprintf %s%d;
#X text 337 164 -> Numero de l'octave;
#X text 213 25 -> Numero MIDI de la note (69 = A3 = 440Hz);
#X msg 263 234 label \$1;
#X obj 263 257 outlet;
#X connect 0 0 1 0;
#X connect 1 0 8 0;
#X connect 1 1 9 0;
#X connect 1 2 10 0;
#X connect 1 3 11 0;
#X connect 1 4 12 0;
#X connect 1 5 13 0;
#X connect 1 6 7 0;
#X connect 1 7 6 0;
#X connect 1 8 5 0;
#X connect 1 9 2 0;
#X connect 1 10 3 0;
#X connect 1 11 4 0;
#X connect 2 0 19 0;
#X connect 3 0 19 0;
#X connect 4 0 19 0;
#X connect 5 0 19 0;
#X connect 6 0 19 0;
#X connect 7 0 19 0;
#X connect 8 0 19 0;
#X connect 9 0 19 0;
#X connect 10 0 19 0;
#X connect 11 0 19 0;
#X connect 12 0 19 0;
#X connect 13 0 19 0;
#X connect 14 0 18 0;
#X connect 15 0 16 0;
#X connect 16 0 19 1;
#X connect 17 0 22 0;
#X connect 18 0 0 0;
#X connect 18 1 15 0;
#X connect 19 0 17 0;
#X connect 22 0 23 0;
#X restore 101 219 pd pitch;
#X text 58 270 Hslider;
#X text 271 -2 number Freq;
#X text 220 -31 Hslider;
#X text 151 269 number Freq;
#X obj 223 17 * 126;
#X obj 224 40 + 6;
#X obj 141 -8 inlet~;
#X connect 0 0 10 0;
#X connect 1 0 6 0;
#X connect 2 0 3 0;
#X connect 2 0 15 0;
#X connect 3 0 4 0;
#X connect 4 0 5 0;
#X connect 4 0 7 0;
#X connect 5 0 20 0;
#X connect 6 0 21 0;
#X connect 7 0 8 0;
#X connect 8 0 1 0;
#X connect 9 0 20 0;
#X connect 10 0 9 0;
#X connect 11 0 2 0;
#X connect 12 0 14 0;
#X connect 13 0 12 0;
#X connect 15 0 16 0;
#X connect 16 0 13 0;
#X connect 17 0 3 0;
#X connect 18 0 2 1;
#X connect 18 0 27 0;
#X connect 19 0 0 0;
#X connect 22 0 20 0;
#X connect 27 0 28 0;
#X connect 28 0 22 0;
#X connect 29 0 11 0;
#X restore 3 114 pd Freqv4;
#X obj 188 44 inlet~;
#X obj 297 44 inlet~;
#X obj 101 101 cnv 4 10 4 empty empty empty 20 12 0 14 -1 -66577 0
;
#X obj 306 101 cnv 4 10 4 empty empty empty 20 12 0 14 -3522 -66577
0;
#X obj 83 180 vcf~;
#X obj 149 203 vcf~;
#X obj 209 232 vcf~;
#X obj 271 262 vcf~;
#X obj 81 289 outlet~;
#X obj 147 286 outlet~;
#X obj 241 131 cnv 4 10 4 empty empty empty 0 0 0 9 -1 -66577 0;
#X obj 166 131 cnv 4 10 4 empty empty empty 0 0 0 9 -1 -66577 0;
#X text 187 74 center;
#X text 179 84 frequency;
#X text 6 4 Controlled bandpass filter;
#X text 80 136 1 filter;
#X text 145 136 2 filters;
#X text 218 136 3 filters;
#X text 286 137 4 filters;
#X text 331 66 24 5 2009;
#X text 282 81 Resonance;
#X text 11 312 Resonance = "Q" = filter sharpness - Coefficient of
Quality;
#X text 7 18 Filtre Passe-bande controllable;
#X connect 5 0 17 0;
#X connect 8 0 11 1;
#X connect 9 0 12 1;
#X connect 10 0 12 2;
#X connect 11 0 17 2;
#X connect 11 0 18 2;
#X connect 11 0 19 2;
#X connect 11 0 20 2;
#X connect 11 1 8 0;
#X connect 12 0 9 0;
#X connect 12 1 10 0;
#X connect 12 2 17 1;
#X connect 12 2 18 1;
#X connect 12 2 19 1;
#X connect 12 2 20 1;
#X connect 13 0 12 0;
#X connect 14 0 11 0;
#X connect 17 0 18 0;
#X connect 17 0 21 0;
#X connect 18 0 19 0;
#X connect 18 0 22 0;
#X connect 19 0 20 0;
#X connect 19 0 6 0;
#X connect 20 0 7 0;
#X coords 0 -1 1 1 217 36 1 100 100;
#X restore 7 96 pd ARGO;
#N canvas 87 121 403 313 ARGO 0;
#X obj 101 101 cnv 20 215 41 empty ColorForm empty 20 12 0 14 -188398
-1 1.04858e+06;
#X obj 248 105 cnv 10 65 10 empty ColorForm Flt-Comb 1 5 1 14 -188398
-1 1.04858e+06;
#X obj 101 138 cnv 4 10 4 empty empty empty 20 12 0 14 -1 -66577 0
;
#X obj 203 101 cnv 4 10 4 empty empty empty 20 12 0 14 -1728 -66577
0;
#X obj 87 56 inlet~;
#X obj 234 125 hsl 81 12 0 1 0 1 \$0-A ColorForm 50 0 7 1 9 -188398
-1 -1 4000 0;
#X obj 103 125 hsl 127 12 0 1 0 0 \$0-A ColorTime A3 0 7 1 9 -208064
-1 -1 6300 0;
#X obj 100 113 nbx 7 12 0 20000 0 1 \$0-A ColorTime Hz 60 7 1 9 -208064
-1 -1 440 256;
#X obj 188 56 inlet~;
#X obj 295 56 inlet~;
#X obj 101 101 cnv 4 10 4 empty empty empty 20 12 0 14 -1 -66577 0
;
#X obj 306 101 cnv 4 10 4 empty empty empty 20 12 0 14 -3522 -66577
0;
#X obj 86 287 outlet~;
#X text 322 72 24 5 2009;
#N canvas 45 224 376 364 Freqv5 0;
#X obj 58 175 ftom;
#X obj 164 204 mtof;
#X obj 182 59 +~;
#X obj 67 107 snapshot~;
#X obj 67 129 change;
#X msg 9 221 set \$1;
#X msg 165 226 set \$1;
#X obj 163 157 * 126;
#X obj 164 180 + 6;
#X obj 60 220 / 126;
#X obj 59 198 - 6;
#X obj 141 17 *~ 1.90476;
#X obj 268 155 mtof~;
#X obj 233 250 outlet~;
#X obj 267 95 *~ 126;
#X obj 268 117 +~ 6;
#X obj 53 -8 r \$0-SendClic;
#X obj 224 -12 inlet;
#X obj 289 15 inlet;
#X obj 61 252 outlet;
#X obj 165 250 outlet;
#N canvas 60 186 488 293 pitch 0;
#X obj 73 85 mod 12;
#X obj 73 109 sel 0 1 2 3 4 5 6 7 8 9 10 11;
#X msg 249 144 A;
#X msg 276 144 A#;
#X msg 303 144 B;
#X msg 222 144 G#;
#X msg 195 144 G;
#X msg 168 144 F#;
#X msg 6 144 C;
#X msg 33 144 C#;
#X msg 60 144 D;
#X msg 87 144 D#;
#X msg 114 144 E;
#X msg 141 144 F;
#X obj 207 4 inlet;
#X obj 332 89 div 12;
#X obj 332 118 - 2;
#X obj 263 212 tosymbol;
#X obj 207 43 t f f;
#X obj 263 187 sprintf %s%d;
#X text 337 164 -> Numero de l'octave;
#X text 213 25 -> Numero MIDI de la note (69 = A3 = 440Hz);
#X msg 263 234 label \$1;
#X obj 263 257 outlet;
#X connect 0 0 1 0;
#X connect 1 0 8 0;
#X connect 1 1 9 0;
#X connect 1 2 10 0;
#X connect 1 3 11 0;
#X connect 1 4 12 0;
#X connect 1 5 13 0;
#X connect 1 6 7 0;
#X connect 1 7 6 0;
#X connect 1 8 5 0;
#X connect 1 9 2 0;
#X connect 1 10 3 0;
#X connect 1 11 4 0;
#X connect 2 0 19 0;
#X connect 3 0 19 0;
#X connect 4 0 19 0;
#X connect 5 0 19 0;
#X connect 6 0 19 0;
#X connect 7 0 19 0;
#X connect 8 0 19 0;
#X connect 9 0 19 0;
#X connect 10 0 19 0;
#X connect 11 0 19 0;
#X connect 12 0 19 0;
#X connect 13 0 19 0;
#X connect 14 0 18 0;
#X connect 15 0 16 0;
#X connect 16 0 19 1;
#X connect 17 0 22 0;
#X connect 18 0 0 0;
#X connect 18 1 15 0;
#X connect 19 0 17 0;
#X connect 22 0 23 0;
#X restore 101 219 pd pitch;
#X text 58 270 Hslider;
#X text 271 -2 number Freq;
#X text 220 -31 Hslider;
#X text 151 269 number Freq;
#X obj 223 17 * 126;
#X obj 224 40 + 6;
#X obj 141 -8 inlet~;
#X obj 268 182 clip~ 2 20000;
#X obj 232 223 /~;
#X text 236 268 Out ms;
#X obj 204 156 sig~ 1000;
#X connect 0 0 10 0;
#X connect 1 0 6 0;
#X connect 2 0 3 0;
#X connect 2 0 14 0;
#X connect 3 0 4 0;
#X connect 4 0 5 0;
#X connect 4 0 7 0;
#X connect 5 0 19 0;
#X connect 6 0 20 0;
#X connect 7 0 8 0;
#X connect 8 0 1 0;
#X connect 9 0 19 0;
#X connect 10 0 9 0;
#X connect 11 0 2 0;
#X connect 12 0 29 0;
#X connect 14 0 15 0;
#X connect 15 0 12 0;
#X connect 16 0 3 0;
#X connect 17 0 2 1;
#X connect 17 0 26 0;
#X connect 18 0 0 0;
#X connect 21 0 19 0;
#X connect 26 0 27 0;
#X connect 27 0 21 0;
#X connect 28 0 11 0;
#X connect 29 0 30 1;
#X connect 30 0 13 0;
#X connect 32 0 30 0;
#X restore 3 126 pd Freqv5;
#N canvas 620 139 241 330 Q~ 0;
#X msg 101 128 set \$1;
#X obj 31 56 +~;
#X obj 106 299 outlet;
#X obj 116 9 r \$0-SendClic;
#X obj 102 88 snapshot~;
#X obj 102 108 change;
#X obj 77 9 inlet;
#X obj 30 9 inlet~;
#X obj 34 298 outlet~;
#X msg 171 130 label \$1;
#X obj 171 108 tosymbol;
#X obj 171 86 * 100;
#X connect 0 0 2 0;
#X connect 1 0 4 0;
#X connect 1 0 8 0;
#X connect 3 0 4 0;
#X connect 4 0 5 0;
#X connect 5 0 0 0;
#X connect 6 0 1 1;
#X connect 6 0 11 0;
#X connect 7 0 1 0;
#X connect 9 0 2 0;
#X connect 10 0 9 0;
#X connect 11 0 10 0;
#X restore 295 157 pd Q~;
#X obj 86 250 comb~ 100 0 1 0.9;
#X text 179 84 Frequency;
#X msg 177 149 clear;
#X obj 177 113 bng 12 250 50 0 \$0-A \$0-B Silence 15 7 1 9 -262144
-1 -1;
#X text 286 84 Resonance;
#X text 6 16 Controlled Comb filter;
#X text 6 31 Filtre en peigne controllable;
#X text 319 121 <- Resonance;
#X text 220 275 Library Cyclone;
#X obj 294 221 *~ -1;
#X obj 228 150 sel 0 1;
#X msg 260 181 1;
#X msg 227 180 -1;
#X obj 227 113 tgl 12 1 \$0-A \$0-B Invert 15 6 1 9 -262144 -1 -1 0
1;
#X connect 4 0 16 0;
#X connect 5 0 15 1;
#X connect 6 0 14 1;
#X connect 7 0 14 2;
#X connect 8 0 14 0;
#X connect 9 0 15 0;
#X connect 14 0 6 0;
#X connect 14 1 7 0;
#X connect 14 2 16 1;
#X connect 15 0 25 0;
#X connect 15 1 5 0;
#X connect 16 0 12 0;
#X connect 18 0 16 0;
#X connect 19 0 18 0;
#X connect 25 0 16 4;
#X connect 26 0 28 0;
#X connect 26 1 27 0;
#X connect 27 0 25 1;
#X connect 27 0 16 3;
#X connect 28 0 25 1;
#X connect 28 0 16 3;
#X connect 29 0 26 0;
#X coords 0 -1 1 1 217 43 1 100 100;
#X restore 7 140 pd ARGO;
#X obj 168 16 active;
#N canvas 424 161 167 191 clic 0;
#X obj 23 17 MouseState;
#X obj 23 82 &;
#X obj 23 100 == 0;
#X obj 23 136 s \$0-SendClic;
#X obj 48 51 t b f;
#X obj 23 118 metro 200;
#X obj 94 17 inlet;
#X connect 0 0 1 0;
#X connect 1 0 2 0;
#X connect 2 0 5 0;
#X connect 4 0 1 0;
#X connect 4 1 1 1;
#X connect 5 0 3 0;
#X connect 6 0 4 0;
#X restore 168 37 pd clic;
#X obj 455 143 cnv 15 41 30 empty empty empty 20 12 0 14 -24198 -66577
0;
#N canvas 350 196 381 103 ? 0;
#X obj 5 49 cnv 15 370 38 empty empty empty 20 12 0 14 -224896 -66577
0;
#X text 6 65 Voir/Look at: http://puredata.info/downloads;
#X obj 4 12 cnv 18 370 30 empty empty ARGOPdMiniModules 1 10 1 14 -4033
-1 1.04858e+06;
#X obj 7 31 cnv 10 10 10 empty empty Gerard 0 5 1 9 -4033 -1 1.04858e+06
;
#X obj 38 31 cnv 10 10 10 empty empty Paresys 0 5 1 9 -4033 -1 1.04858e+06
;
#X obj 175 20 cnv 10 10 10 empty empty http://pagesperso-orange.fr/Paresys/ARGOPd/
0 5 1 9 -4033 -1 1.04858e+06;
#X text 6 51 Construit sous / Build under Pd 0.40.3-extended;
#X obj 175 31 cnv 10 10 10 empty empty http://gerard.paresys.free.fr/ARGOPd/
0 5 1 9 -4033 -1 1.04858e+06;
#X restore 461 150 pd ?;
#X connect 15 0 16 0;
