#N canvas 194 132 784 529 10;
#X text 282 127 2 Sorties Audio;
#X text 282 100 Entree Contrôle Frame;
#X text 281 -6 2 Sorties Audio;
#X obj -25 338 cnv 15 330 30 empty empty empty 20 12 0 14 -258113 -66577
0;
#X text -16 344 Ne fonctionne pas sous Windows;
#X text 281 7 cf ExMM50a-PDP-Film.pd;
#N canvas 315 50 358 361 ARGO 0;
#X obj 101 114 cnv 10 150 41 \$0-A \$0-B empty 20 12 0 14 -228856 -1
1.04858e+06;
#X obj 101 101 cnv 10 150 12 \$0-A \$0-B empty 20 12 0 14 -128992 -1
1.04858e+06;
#X obj 101 151 cnv 4 10 4 empty empty empty 20 12 0 14 -128992 -66577
0;
#X obj 143 104 cnv 5 20 5 empty ColorGEM PDP-GEM 1 5 1 14 -128992 -1
1.04858e+06;
#X obj 147 126 nbx 3 12 1 100 0 1 \$0-A \$0-B Render 35 7 1 9 -262144
-1 -1 50 256;
#X obj 144 215 gemhead;
#X msg 144 191 set \$1;
#X obj 92 329 outlet;
#X obj 20 41 loadbang;
#X obj 20 65 delay 1000;
#X obj 101 114 vradio 12 1 1 3 \$0-A ColorGEM RGBA 14 7 1 9 -262144
-1 -1 1;
#X obj 115 141 cnv 5 20 5 empty empty YUV 0 4 1 9 -228856 -1 0;
#X msg 19 205 colorspace RGBA;
#X msg 36 247 colorspace YUV;
#X obj 19 164 change;
#X obj 14 273 t b a;
#X obj 263 136 cnv 15 60 30 empty empty empty 20 12 0 14 -24198 -66577
0;
#N canvas 564 35 414 536 Help 0;
#X obj 8 352 cnv 15 400 230 empty empty empty 20 12 0 14 -224896 -66577
0;
#X text 19 15 YUV = Luma \, ChromaB \, ChromaR;
#X text 7 3 - RGB = Red \, Green \, Blue;
#X obj 7 38 cnv 15 400 310 empty empty empty 20 12 0 14 -233017 -66577
0;
#X text 10 37 Citation;
#X text 18 155 the colorspace indicates what format to transform pdp's
native YV12 to...YUV is default (and fastest);
#X text 19 93 pdp2gem : pdp to gem bridge;
#X text 19 111 written by Yves Degoyon (ydegoyon@free.fr);
#X text 33 125 and James Tittle (tigital@mac.com);
#X restore 270 142 pd Help;
#X obj 132 42 r \$0-SendOnOff;
#X obj 151 241 cnv 15 200 40 empty empty empty 20 12 0 14 -258113 -66577
0;
#X text 154 241 Ne fonctionne pas sous Windows;
#X obj 92 305 pdp2gem;
#X obj 115 129 cnv 10 20 10 empty empty RGB 0 4 1 9 -228856 -1 0;
#X obj 19 184 select 0 1 2;
#X msg 29 226 colorspace RGB;
#X text 97 344 GEM;
#X text 97 157 GEM;
#X obj 101 101 cnv 4 10 4 empty empty empty 20 12 0 14 -228856 -66577
0;
#X text 96 83 PDP;
#X obj 92 42 inlet;
#X text 255 97 10 2 2009;
#X connect 4 0 6 0;
#X connect 5 0 21 0;
#X connect 6 0 5 0;
#X connect 8 0 9 0;
#X connect 9 0 14 0;
#X connect 10 0 14 0;
#X connect 12 0 15 0;
#X connect 13 0 15 0;
#X connect 14 0 23 0;
#X connect 15 1 21 0;
#X connect 18 0 5 0;
#X connect 21 0 7 0;
#X connect 23 0 12 0;
#X connect 23 1 24 0;
#X connect 23 2 13 0;
#X connect 24 0 15 0;
#X connect 29 0 21 0;
#X coords 0 -1 1 1 152 56 1 100 100;
#X restore 142 276 pd ARGO;
#N canvas 310 85 629 376 ARGO 0;
#X obj 101 101 cnv 10 298 53 \$0-A \$0-B empty 20 12 0 14 -128992 -1
1.04858e+06;
#X obj 288 104 cnv 10 20 10 empty ColorGEM PDP-Film 1 5 1 14 -128992
-1 1.04858e+06;
#X obj 205 135 bng 12 250 50 0 \$0-A \$0-B Begin 15 7 1 9 -262144 -1
-1;
#X obj 53 -45 loadbang;
#X obj 53 -21 delay 1000;
#X obj 143 -3 openpanel;
#X msg 170 44 set \$1;
#X msg 253 232 open \$1;
#X obj 252 175 list2symbol;
#X obj 143 21 t b s;
#X obj 100 114 bng 16 250 50 0 \$0-A \$0-B empty 0 0 1 9 -262144 -1
-1;
#X symbolatom 117 114 46 0 0 0 - - -;
#X msg 39 62 set \$1;
#X obj -3 120 list2symbol;
#X obj 53 5 t b b;
#X obj 134 135 tgl 12 1 \$0-A \$0-B Play(Space) 15 7 1 9 -262144 -1
-1 1 1;
#X obj 249 135 tgl 12 1 \$0-A \$0-B Loop 15 7 1 9 -262144 -1 -1 0 1
;
#X obj 121 -46 key;
#X obj 303 130 nbx 4 12 -2 1e+08 0 0 \$0-A ColorGEM TotalFrames 40
7 1 9 -262144 -1 -1 472 256;
#X obj 431 118 cnv 15 60 30 empty empty empty 20 12 0 14 -24198 -66577
0;
#N canvas 564 35 414 536 Help 0;
#X text 10 415 - Si le module est sauvé avec 1 nom de fichier \, Ce
fichier sera lu automatiquement a la prochaine ouverture s'il n'a pas
changé d'emplacement.;
#X text 9 6 - Ouvre des fichiers Film (.mov .avi...);
#X obj 7 462 cnv 15 400 230 empty empty empty 20 12 0 14 -224896 -66577
0;
#X text 11 462 - Erreur dans la fenêtre Pd:;
#X text 8 24 - ATTENTION: Ouvrir la fenetre GEM avant l'ouverture d'un
fichier film (ou avant l'ouverture du module si un fichier film s'ouvre
automatiquement). Voir module ARGOGeneral;
#X text 20 80 YUV = Luma \, ChromaB \, ChromaR;
#X text 8 68 - RGB = Red \, Green \, Blue;
#X obj 8 103 cnv 15 400 310 empty empty empty 20 12 0 14 -233017 -66577
0;
#X text 11 102 Citation;
#X text 19 129 pdp_qt~ is the same as pdp_qt exept that it also outputs
the audio data corresponding to the current frame on its 2 rightmost
outlets. if there is a lag between audio and video a pdp_del object
can be inserted to delay the image. note that in order to get acceptable
audio quality with relatively few dropouts you might need to increase
the pd audio latency.;
#X text 19 115 pdp_qt plays a quicktime movie.;
#X text 36 477 - pdp_qt: error decoding audio;
#X text 49 494 ???;
#X text 35 509 - GL: invalid operation;
#X text 49 525 en RGBA ???;
#X text 18 234 pdp_glx ouputs video in a window using the openGL extension
on an X11 window system. if a pdp message is received and a window
is not open \, one is created automaticly.;
#X restore 438 125 pd Help;
#X obj -39 -45 r \$0-SendOnOff;
#X obj 240 -16 cnv 15 340 70 empty empty empty 20 12 0 14 -258113 -66577
0;
#X text 243 -16 Ne fonctionne pas sous Windows;
#X obj 254 268 pdp_qt~;
#X msg 218 233 play;
#X msg 71 234 stop;
#X obj 244 150 cnv 4 10 4 empty empty empty 20 12 0 14 -1 -66577 0
;
#X obj 389 150 cnv 4 10 4 empty empty empty 20 12 0 14 -1 -66577 0
;
#X text 360 155 Audio Right;
#X text 217 154 Audio Left;
#X obj 233 304 outlet~;
#X obj 374 304 outlet~;
#X msg 308 232 loop \$1;
#X msg 141 233 autoplay \$1;
#X obj 71 208 sel 0;
#X msg 106 233 cont;
#X obj 185 171 t b b;
#X msg 183 194 1;
#X obj 71 183 t f f;
#X text 243 -1 N'ouvre pas un fichier sans chemin d'acces dans le meme
dossier que lui.;
#X text 243 26 Fen Pd -> pdp_qt: error decoding audio;
#X text 253 38 (Alors que l'Audio fonctionne);
#X msg 97 64 /Movies/Ex10LeJourLaNuit.mp4;
#X obj 303 142 nbx 4 12 -2 1e+08 0 0 \$0-A ColorGEM Frame 40 7 1 9
-262144 -1 -1 471 256;
#X obj 101 150 cnv 4 10 4 empty empty empty 20 12 0 14 -228856 -66577
0;
#X obj 86 305 outlet;
#X text 95 154 PDP;
#X obj -12 6 sel 0 1;
#X msg -11 32 0;
#X text 404 98 7 3 2009;
#X obj 122 -25 select 32;
#X connect 2 0 37 0;
#X connect 3 0 4 0;
#X connect 4 0 14 0;
#X connect 5 0 9 0;
#X connect 6 0 11 0;
#X connect 7 0 24 0;
#X connect 8 0 7 0;
#X connect 9 0 11 0;
#X connect 9 1 6 0;
#X connect 10 0 5 0;
#X connect 11 0 8 0;
#X connect 11 0 12 0;
#X connect 12 0 43 0;
#X connect 13 0 6 0;
#X connect 14 0 11 0;
#X connect 14 1 43 0;
#X connect 15 0 39 0;
#X connect 16 0 33 0;
#X connect 17 0 51 0;
#X connect 21 0 48 0;
#X connect 24 0 46 0;
#X connect 24 1 44 0;
#X connect 24 2 18 0;
#X connect 24 3 31 0;
#X connect 24 4 32 0;
#X connect 25 0 24 0;
#X connect 26 0 24 0;
#X connect 33 0 24 0;
#X connect 34 0 24 0;
#X connect 35 0 26 0;
#X connect 35 1 36 0;
#X connect 36 0 24 0;
#X connect 37 0 38 0;
#X connect 37 1 25 0;
#X connect 38 0 15 0;
#X connect 39 0 35 0;
#X connect 39 1 34 0;
#X connect 43 0 13 0;
#X connect 48 0 49 0;
#X connect 48 1 43 0;
#X connect 49 0 15 0;
#X connect 51 0 15 0;
#X coords 0 -1 1 1 300 55 1 100 100;
#X restore -25 -23 pd ARGO;
#N canvas 208 58 616 354 ARGO 0;
#X obj 101 101 cnv 10 298 58 \$0-A \$0-B empty 20 12 0 14 -128992 -1
1.04858e+06;
#X obj 101 155 cnv 4 10 4 empty empty empty 20 12 0 14 -228856 -66577
0;
#X obj 288 104 cnv 10 20 10 empty ColorGEM PDP-Film 1 5 1 14 -128992
-1 1.04858e+06;
#X obj 86 324 outlet;
#X obj 40 -2 loadbang;
#X obj 40 22 delay 1000;
#X obj 142 14 openpanel;
#X msg 170 62 set \$1;
#X msg 195 241 open \$1;
#X obj 140 211 list2symbol;
#X obj 143 38 t b s;
#X symbolatom 116 114 46 0 0 0 - - -;
#X msg 4 147 set \$1;
#X obj 29 217 list2symbol;
#X obj 53 62 t b b;
#X obj 201 134 cnv 10 8 8 empty empty I 0 8 1 18 -128992 -1 0;
#N canvas 0 202 422 280 Frame 0;
#X obj 283 39 inlet;
#X obj 87 234 outlet;
#X msg 281 206 range 0 \$1;
#X msg 188 207 set \$1;
#X obj 134 91 +~;
#X obj 188 133 snapshot~;
#X obj 188 183 change;
#X obj 193 38 r \$0-SendClic;
#X obj 24 37 loadbang;
#X obj 24 135 snapshot~;
#X obj 87 207 change;
#X obj 24 64 metro 40;
#X obj 188 158 int;
#X obj 24 157 int;
#X obj 24 182 clip 0 10;
#X obj 95 63 *~ 10;
#X obj 347 39 inlet;
#X text 336 16 Actualiser;
#X text 353 2 bang;
#X obj 95 38 inlet~;
#X obj 188 236 outlet;
#X obj 151 38 inlet;
#X obj 282 83 max 1;
#X text 322 82 Bug si 0 frame;
#X obj 258 111 / 2;
#X text 286 4 Total;
#X text 282 19 Frames;
#X connect 0 0 14 2;
#X connect 0 0 22 0;
#X connect 2 0 20 0;
#X connect 3 0 20 0;
#X connect 4 0 5 0;
#X connect 4 0 9 0;
#X connect 5 0 12 0;
#X connect 6 0 3 0;
#X connect 7 0 5 0;
#X connect 8 0 11 0;
#X connect 9 0 13 0;
#X connect 10 0 1 0;
#X connect 11 0 9 0;
#X connect 12 0 6 0;
#X connect 13 0 14 0;
#X connect 14 0 10 0;
#X connect 15 0 4 0;
#X connect 16 0 10 0;
#X connect 19 0 15 0;
#X connect 21 0 4 1;
#X connect 22 0 2 0;
#X connect 22 0 24 0;
#X connect 24 0 15 1;
#X restore 249 240 pd Frame;
#X text 92 82 Frame;
#X obj 91 62 inlet~;
#X obj 264 130 nbx 5 12 -2 1e+08 0 0 \$0-A ColorGEM TotalFrames 45
7 1 9 -262144 -1 -1 472 256;
#X obj 101 101 cnv 4 10 4 empty empty empty 20 12 0 14 -1 -66577 0
;
#X obj 420 123 cnv 15 60 30 empty empty empty 20 12 0 14 -24198 -66577
0;
#N canvas 40 32 414 536 Help 0;
#X text 10 415 - Si le module est sauvé avec 1 nom de fichier \, Ce
fichier sera lu automatiquement a la prochaine ouverture s'il n'a pas
changé d'emplacement.;
#X text 9 6 - Ouvre des fichiers Film (.mov .avi...);
#X obj 7 538 cnv 15 400 230 empty empty empty 20 12 0 14 -224896 -66577
0;
#X text 11 538 - Erreur dans la fenêtre Pd:;
#X text 8 24 - ATTENTION: Ouvrir la fenetre GEM avant l'ouverture d'un
fichier film (ou avant l'ouverture du module si un fichier film s'ouvre
automatiquement). Voir module ARGOGeneral;
#X text 20 80 YUV = Luma \, ChromaB \, ChromaR;
#X text 8 68 - RGB = Red \, Green \, Blue;
#X text 10 456 - Peut Ouvrir automatiquement 1 fichier qui se trouve
dans le même dossier que lui \, quelquesoit l'emplacement du dossier.
Pour cela taper le nom du fichier (sans chemin d'accés) dans le message.
Sauver le patch. Fermer le patch. Ré-ouvrir le patch. Le dossier contenant
le module ARGO et le fichier image est ainsi transportable.;
#X obj 8 103 cnv 15 400 310 empty empty empty 20 12 0 14 -233017 -66577
0;
#X text 11 102 Citation;
#X text 19 130 pdp_qt~ is the same as pdp_qt exept that it also outputs
the audio data corresponding to the current frame on its 2 rightmost
outlets. if there is a lag between audio and video a pdp_del object
can be inserted to delay the image. note that in order to get acceptable
audio quality with relatively few dropouts you might need to increase
the pd audio latency.;
#X text 19 115 pdp_qt plays a quicktime movie.;
#X text 36 553 - pdp_qt: error decoding audio;
#X text 49 570 ???;
#X text 35 585 - GL: invalid operation;
#X text 49 601 en RGBA ???;
#X text 18 223 In pdp_qt~ playback is synchronized to the audio stream.
;
#X restore 427 129 pd Help;
#X obj -52 -2 r \$0-SendOnOff;
#X obj -52 63 sel 1;
#X obj -52 21 t f f;
#X obj -15 63 delay 1000;
#X obj 195 280 pdp_qt~;
#X obj 245 155 cnv 4 10 4 empty empty empty 20 12 0 14 -1 -66577 0
;
#X obj 389 155 cnv 4 10 4 empty empty empty 20 12 0 14 -1 -66577 0
;
#X text 361 159 Audio Right;
#X text 218 159 Audio Left;
#X obj 225 327 outlet~;
#X obj 367 325 outlet~;
#X msg -28 182 /Movies/Ex10LeJourLaNuit.mp4;
#X msg 123 240 autoplay 0;
#X msg 75 240 loop 0;
#X obj 219 4 cnv 15 340 90 empty empty empty 20 12 0 14 -258113 -66577
0;
#X text 222 5 Ne fonctionne pas sous Windows;
#X text 222 20 N'ouvre pas un fichier sans chemin d'acces dans le meme
dossier que lui.;
#X text 222 47 Fen Pd -> pdp_qt: error decoding audio;
#X text 222 74 Sous MacOSX le son est haché;
#X obj 380 233 print;
#X obj 100 114 bng 16 250 50 0 \$0-A \$0-B empty 0 0 1 9 -262144 -1
-1;
#X obj 307 142 nbx 5 12 0 472 0 0 \$0-SendFrame \$0-ReceiveFrame empty
0 -5 1 9 -262144 -1 -1 0 256;
#X obj 104 142 hsl 201 12 0 472 0 1 \$0-SendFrame \$0-ReceiveFrame
Frame 0 7 1 9 -262144 -1 -1 10000 0;
#X text 96 160 PDP;
#X text 406 98 10 2 2009;
#X connect 4 0 5 0;
#X connect 5 0 14 0;
#X connect 5 0 26 0;
#X connect 6 0 10 0;
#X connect 7 0 11 0;
#X connect 8 0 27 0;
#X connect 9 0 8 0;
#X connect 10 0 11 0;
#X connect 10 1 7 0;
#X connect 11 0 9 0;
#X connect 11 0 12 0;
#X connect 12 0 34 0;
#X connect 13 0 7 0;
#X connect 14 0 11 0;
#X connect 14 1 34 0;
#X connect 16 0 27 0;
#X connect 16 1 44 0;
#X connect 16 1 45 0;
#X connect 18 0 16 0;
#X connect 23 0 25 0;
#X connect 24 0 34 0;
#X connect 25 0 24 0;
#X connect 26 0 35 0;
#X connect 26 0 36 0;
#X connect 27 0 3 0;
#X connect 27 2 19 0;
#X connect 27 2 16 2;
#X connect 27 3 32 0;
#X connect 27 4 33 0;
#X connect 34 0 13 0;
#X connect 35 0 27 0;
#X connect 36 0 27 0;
#X connect 43 0 6 0;
#X connect 44 0 16 1;
#X connect 45 0 16 1;
#X coords 0 -1 1 1 300 60 1 100 100;
#X restore -25 97 pd ARGO;
#X text 280 -17 Sortie PDP;
#X text 281 114 Sortie PDP;
#N canvas 310 85 625 375 ARGO 0;
#X obj 101 101 cnv 10 298 53 \$0-A \$0-B empty 20 12 0 14 -128992 -1
1.04858e+06;
#X obj 288 104 cnv 10 20 10 empty ColorGEM PDP-Film 1 5 1 14 -128992
-1 1.04858e+06;
#X obj 205 135 bng 12 250 50 0 \$0-A \$0-B Begin 15 7 1 9 -262144 -1
-1;
#X obj 62 -45 loadbang;
#X obj 62 -21 delay 1000;
#X obj 143 -3 openpanel;
#X msg 170 44 set \$1;
#X msg 253 232 open \$1;
#X obj 252 175 list2symbol;
#X obj 143 21 t b s;
#X obj 100 114 bng 16 250 50 0 \$0-A \$0-B empty 0 0 1 9 -262144 -1
-1;
#X symbolatom 117 114 46 0 0 0 - - -;
#X msg 39 62 set \$1;
#X obj 13 118 list2symbol;
#X obj 70 17 t b b;
#X obj 134 135 tgl 12 1 \$0-A \$0-B Play(Space) 15 7 1 9 -262144 -1
-1 1 1;
#X obj 249 135 tgl 12 1 \$0-A \$0-B Loop 15 7 1 9 -262144 -1 -1 0 1
;
#X obj 130 -46 key;
#X obj 303 130 nbx 4 12 -2 1e+08 0 0 \$0-A ColorGEM TotalFrames 40
7 1 9 -262144 -1 -1 472 256;
#X obj 411 127 cnv 15 60 30 empty empty empty 20 12 0 14 -24198 -66577
0;
#N canvas 564 35 414 536 Help 0;
#X text 10 415 - Si le module est sauvé avec 1 nom de fichier \, Ce
fichier sera lu automatiquement a la prochaine ouverture s'il n'a pas
changé d'emplacement.;
#X text 9 6 - Ouvre des fichiers Film (.mov .avi...);
#X obj 7 462 cnv 15 400 230 empty empty empty 20 12 0 14 -224896 -66577
0;
#X text 11 462 - Erreur dans la fenêtre Pd:;
#X text 8 24 - ATTENTION: Ouvrir la fenetre GEM avant l'ouverture d'un
fichier film (ou avant l'ouverture du module si un fichier film s'ouvre
automatiquement). Voir module ARGOGeneral;
#X text 20 80 YUV = Luma \, ChromaB \, ChromaR;
#X text 8 68 - RGB = Red \, Green \, Blue;
#X obj 8 103 cnv 15 400 310 empty empty empty 20 12 0 14 -233017 -66577
0;
#X text 11 102 Citation;
#X text 19 129 pdp_qt~ is the same as pdp_qt exept that it also outputs
the audio data corresponding to the current frame on its 2 rightmost
outlets. if there is a lag between audio and video a pdp_del object
can be inserted to delay the image. note that in order to get acceptable
audio quality with relatively few dropouts you might need to increase
the pd audio latency.;
#X text 19 115 pdp_qt plays a quicktime movie.;
#X text 36 477 - pdp_qt: error decoding audio;
#X text 49 494 ???;
#X text 35 509 - GL: invalid operation;
#X text 49 525 en RGBA ???;
#X text 18 234 pdp_glx ouputs video in a window using the openGL extension
on an X11 window system. if a pdp message is received and a window
is not open \, one is created automaticly.;
#X restore 418 134 pd Help;
#X obj 240 -16 cnv 15 340 70 empty empty empty 20 12 0 14 -258113 -66577
0;
#X text 243 -16 Ne fonctionne pas sous Windows;
#X msg 218 233 play;
#X msg 71 234 stop;
#X msg 308 232 loop \$1;
#X msg 141 233 autoplay \$1;
#X obj 71 208 sel 0;
#X msg 106 233 cont;
#X obj 185 171 t b b;
#X msg 183 194 1;
#X obj 71 183 t f f;
#X text 243 -1 N'ouvre pas un fichier sans chemin d'acces dans le meme
dossier que lui.;
#X msg 97 64 /Movies/Ex10LeJourLaNuit.mp4;
#X obj 131 -25 select 32 70 102;
#X obj 303 142 nbx 4 12 -2 1e+08 0 0 \$0-A ColorGEM Frame 40 7 1 9
-262144 -1 -1 471 256;
#X obj 101 150 cnv 4 10 4 empty empty empty 20 12 0 14 -228856 -66577
0;
#X obj 86 305 outlet;
#X text 95 154 PDP;
#X obj 254 268 pdp_qt;
#X obj -30 -44 r \$0-SendOnOff;
#X obj -12 6 sel 0 1;
#X msg -11 32 0;
#X text 404 98 7 3 2009;
#X connect 2 0 29 0;
#X connect 3 0 4 0;
#X connect 4 0 14 0;
#X connect 5 0 9 0;
#X connect 6 0 11 0;
#X connect 7 0 39 0;
#X connect 8 0 7 0;
#X connect 9 0 11 0;
#X connect 9 1 6 0;
#X connect 10 0 5 0;
#X connect 11 0 8 0;
#X connect 11 0 12 0;
#X connect 12 0 33 0;
#X connect 13 0 6 0;
#X connect 14 0 11 0;
#X connect 14 1 33 0;
#X connect 15 0 31 0;
#X connect 16 0 25 0;
#X connect 17 0 34 0;
#X connect 23 0 39 0;
#X connect 24 0 39 0;
#X connect 25 0 39 0;
#X connect 26 0 39 0;
#X connect 27 0 24 0;
#X connect 27 1 28 0;
#X connect 28 0 39 0;
#X connect 29 0 30 0;
#X connect 29 1 23 0;
#X connect 30 0 15 0;
#X connect 31 0 27 0;
#X connect 31 1 26 0;
#X connect 33 0 13 0;
#X connect 34 0 15 0;
#X connect 39 0 37 0;
#X connect 39 1 35 0;
#X connect 39 2 18 0;
#X connect 40 0 41 0;
#X connect 41 0 42 0;
#X connect 41 1 33 0;
#X connect 42 0 15 0;
#X coords 0 -1 1 1 300 55 1 100 100;
#X restore -25 37 pd ARGO;
#X text 283 47 Sortie PDP;
#X text 282 166 Entree Contrôle Frame;
#N canvas 208 58 616 354 ARGO 0;
#X obj 101 101 cnv 10 298 58 \$0-A \$0-B empty 20 12 0 14 -128992 -1
1.04858e+06;
#X obj 101 155 cnv 4 10 4 empty empty empty 20 12 0 14 -228856 -66577
0;
#X obj 288 104 cnv 10 20 10 empty ColorGEM PDP-Film 1 5 1 14 -128992
-1 1.04858e+06;
#X obj 86 324 outlet;
#X obj 40 -2 loadbang;
#X obj 40 22 delay 1000;
#X obj 142 14 openpanel;
#X msg 170 62 set \$1;
#X msg 195 241 open \$1;
#X obj 140 211 list2symbol;
#X obj 143 38 t b s;
#X symbolatom 116 114 46 0 0 0 - - -;
#X msg 4 147 set \$1;
#X obj 29 217 list2symbol;
#X obj 53 62 t b b;
#X obj 201 134 cnv 10 8 8 empty empty I 0 8 1 18 -128992 -1 0;
#N canvas 0 202 422 280 Frame 0;
#X obj 283 39 inlet;
#X obj 87 234 outlet;
#X msg 281 206 range 0 \$1;
#X msg 188 207 set \$1;
#X obj 134 91 +~;
#X obj 188 133 snapshot~;
#X obj 188 183 change;
#X obj 193 38 r \$0-SendClic;
#X obj 24 37 loadbang;
#X obj 24 135 snapshot~;
#X obj 87 207 change;
#X obj 24 64 metro 40;
#X obj 188 158 int;
#X obj 24 157 int;
#X obj 24 182 clip 0 10;
#X obj 95 63 *~ 10;
#X obj 347 39 inlet;
#X text 336 16 Actualiser;
#X text 353 2 bang;
#X obj 95 38 inlet~;
#X obj 188 236 outlet;
#X obj 151 38 inlet;
#X obj 282 83 max 1;
#X text 322 82 Bug si 0 frame;
#X obj 258 111 / 2;
#X text 286 4 Total;
#X text 282 19 Frames;
#X connect 0 0 14 2;
#X connect 0 0 22 0;
#X connect 2 0 20 0;
#X connect 3 0 20 0;
#X connect 4 0 5 0;
#X connect 4 0 9 0;
#X connect 5 0 12 0;
#X connect 6 0 3 0;
#X connect 7 0 5 0;
#X connect 8 0 11 0;
#X connect 9 0 13 0;
#X connect 10 0 1 0;
#X connect 11 0 9 0;
#X connect 12 0 6 0;
#X connect 13 0 14 0;
#X connect 14 0 10 0;
#X connect 15 0 4 0;
#X connect 16 0 10 0;
#X connect 19 0 15 0;
#X connect 21 0 4 1;
#X connect 22 0 2 0;
#X connect 22 0 24 0;
#X connect 24 0 15 1;
#X restore 249 240 pd Frame;
#X text 92 82 Frame;
#X obj 91 62 inlet~;
#X obj 264 130 nbx 5 12 -2 1e+08 0 0 \$0-A ColorGEM TotalFrames 45
7 1 9 -262144 -1 -1 472 256;
#X obj 101 101 cnv 4 10 4 empty empty empty 20 12 0 14 -1 -66577 0
;
#X obj 420 123 cnv 15 60 30 empty empty empty 20 12 0 14 -24198 -66577
0;
#N canvas 40 32 414 536 Help 0;
#X text 10 415 - Si le module est sauvé avec 1 nom de fichier \, Ce
fichier sera lu automatiquement a la prochaine ouverture s'il n'a pas
changé d'emplacement.;
#X text 9 6 - Ouvre des fichiers Film (.mov .avi...);
#X obj 7 538 cnv 15 400 230 empty empty empty 20 12 0 14 -224896 -66577
0;
#X text 11 538 - Erreur dans la fenêtre Pd:;
#X text 8 24 - ATTENTION: Ouvrir la fenetre GEM avant l'ouverture d'un
fichier film (ou avant l'ouverture du module si un fichier film s'ouvre
automatiquement). Voir module ARGOGeneral;
#X text 20 80 YUV = Luma \, ChromaB \, ChromaR;
#X text 8 68 - RGB = Red \, Green \, Blue;
#X text 10 456 - Peut Ouvrir automatiquement 1 fichier qui se trouve
dans le même dossier que lui \, quelquesoit l'emplacement du dossier.
Pour cela taper le nom du fichier (sans chemin d'accés) dans le message.
Sauver le patch. Fermer le patch. Ré-ouvrir le patch. Le dossier contenant
le module ARGO et le fichier image est ainsi transportable.;
#X obj 8 103 cnv 15 400 310 empty empty empty 20 12 0 14 -233017 -66577
0;
#X text 11 102 Citation;
#X text 19 130 pdp_qt~ is the same as pdp_qt exept that it also outputs
the audio data corresponding to the current frame on its 2 rightmost
outlets. if there is a lag between audio and video a pdp_del object
can be inserted to delay the image. note that in order to get acceptable
audio quality with relatively few dropouts you might need to increase
the pd audio latency.;
#X text 19 115 pdp_qt plays a quicktime movie.;
#X text 36 553 - pdp_qt: error decoding audio;
#X text 49 570 ???;
#X text 35 585 - GL: invalid operation;
#X text 49 601 en RGBA ???;
#X text 18 223 In pdp_qt~ playback is synchronized to the audio stream.
;
#X restore 427 129 pd Help;
#X obj -52 -2 r \$0-SendOnOff;
#X obj -52 63 sel 1;
#X obj -52 21 t f f;
#X obj -15 63 delay 1000;
#X msg -28 182 /Movies/Ex10LeJourLaNuit.mp4;
#X msg 123 240 autoplay 0;
#X msg 75 240 loop 0;
#X obj 219 4 cnv 15 340 90 empty empty empty 20 12 0 14 -258113 -66577
0;
#X text 222 5 Ne fonctionne pas sous Windows;
#X text 222 20 N'ouvre pas un fichier sans chemin d'acces dans le meme
dossier que lui.;
#X obj 100 114 bng 16 250 50 0 \$0-A \$0-B empty 0 0 1 9 -262144 -1
-1;
#X obj 307 142 nbx 5 12 0 472 0 0 \$0-SendFrame \$0-ReceiveFrame empty
0 -5 1 9 -262144 -1 -1 0 256;
#X obj 104 142 hsl 201 12 0 472 0 1 \$0-SendFrame \$0-ReceiveFrame
Frame 0 7 1 9 -262144 -1 -1 10000 0;
#X text 96 160 PDP;
#X text 406 98 10 2 2009;
#X obj 195 280 pdp_qt;
#X connect 4 0 5 0;
#X connect 5 0 14 0;
#X connect 5 0 26 0;
#X connect 6 0 10 0;
#X connect 7 0 11 0;
#X connect 8 0 38 0;
#X connect 9 0 8 0;
#X connect 10 0 11 0;
#X connect 10 1 7 0;
#X connect 11 0 9 0;
#X connect 11 0 12 0;
#X connect 12 0 27 0;
#X connect 13 0 7 0;
#X connect 14 0 11 0;
#X connect 14 1 27 0;
#X connect 16 0 38 0;
#X connect 16 1 34 0;
#X connect 16 1 35 0;
#X connect 18 0 16 0;
#X connect 23 0 25 0;
#X connect 24 0 27 0;
#X connect 25 0 24 0;
#X connect 26 0 28 0;
#X connect 26 0 29 0;
#X connect 27 0 13 0;
#X connect 28 0 38 0;
#X connect 29 0 38 0;
#X connect 33 0 6 0;
#X connect 34 0 16 1;
#X connect 35 0 16 1;
#X connect 38 0 3 0;
#X connect 38 2 19 0;
#X connect 38 2 16 2;
#X coords 0 -1 1 1 300 60 1 100 100;
#X restore -25 162 pd ARGO;
#X text 281 180 Sortie PDP;
#X text 281 18 cf ExMM50b-PDP-Film.pd;
#X text 281 140 cf ExMM50c-PDP-Film.pd;
#N canvas 413 140 400 248 ARGO 0;
#X obj 101 101 cnv 10 81 41 \$0-A \$0-B empty 20 12 0 14 -128992 -1
1.04858e+06;
#X obj 101 104 cnv 10 20 10 empty ColorGEM PDP-Control 1 5 1 14 -128992
-1 1.04858e+06;
#X obj 207 161 cnv 15 60 30 empty empty empty 20 12 0 14 -24198 -66577
0;
#N canvas 590 196 410 312 Help 0;
#X obj 6 322 cnv 15 400 230 empty empty empty 20 12 0 14 -224896 -66577
0;
#X obj 6 7 cnv 15 400 310 empty empty empty 20 12 0 14 -233017 -66577
0;
#X text 9 6 Citation;
#X text 15 23 pdp_glx ouputs video in a window using the openGL extension
on an X11 window system. if a pdp message is received and a window
is not open \, one is created automaticly.;
#X restore 214 168 pd Help;
#X obj 20 20 cnv 15 340 30 empty empty empty 20 12 0 14 -258113 -66577
0;
#X text 24 26 Ne fonctionne pas sous Windows;
#X obj 122 120 tgl 12 1 \$0-A \$0-B Thread 15 7 1 9 -262144 -1 -1 0
1;
#X obj 122 182 pdp_control;
#X msg 122 155 thread \$1;
#X text 186 97 17 2 2009;
#X text 187 117 switch thread processing on or of;
#X text 42 220 pdp_control: fine tune the pdp system. (threads & memory).
;
#X connect 6 0 8 0;
#X connect 8 0 7 0;
#X coords 0 -1 1 1 83 43 1 100 100;
#X restore 480 -21 pd ARGO;
#N canvas 433 73 417 270 ARGO 0;
#X obj 101 101 cnv 10 150 41 \$0-A \$0-B empty 20 12 0 14 -128992 -1
1.04858e+06;
#X obj 170 104 cnv 10 20 10 empty ColorGEM PDP-Noise 1 5 1 14 -128992
-1 1.04858e+06;
#X obj 276 129 cnv 15 60 30 empty empty empty 20 12 0 14 -24198 -66577
0;
#N canvas 554 227 410 324 Help 0;
#X obj 5 5 cnv 15 400 310 empty empty empty 20 12 0 14 -233017 -66577
0;
#X text 8 4 Citation;
#X text 23 20 pdp_noise creates a random image (with uniform distribution
between -1 and 1) when a bang is received;
#X restore 283 136 pd Help;
#X obj 20 20 cnv 15 340 30 empty empty empty 20 12 0 14 -258113 -66577
0;
#X text 24 26 Ne fonctionne pas sous Windows;
#X obj 136 120 tgl 12 1 \$0-A \$0-B Color 15 7 1 9 -262144 -1 -1 1
1;
#X text 255 96 17 2 2009;
#X obj 100 154 sel 0;
#X obj 127 215 pdp_noise;
#X msg 59 179 type grey;
#X msg 127 179 type yv12;
#X msg 193 179 dim \$1 \$1;
#X obj 98 243 outlet;
#X obj 179 120 nbx 3 12 1 999 0 1 \$0-A ColorPDP Quantity 32 7 1 9
-262144 -1 -1 17 256;
#X obj 101 105 bng 12 250 50 0 \$0-A ColorPDP empty 16 7 1 9 -262144
-1 -1;
#X obj 87 77 inlet~;
#X obj -50 112 threshold~ 0.5 5 0.49 5;
#X obj 101 101 cnv 2 10 4 empty empty empty 20 12 0 14 -1 -66577 0
;
#X obj 102 102 cnv 2 8 2 empty empty empty 20 12 0 14 -262144 -66577
0;
#X text 78 61 Trig Decl;
#X obj 101 138 cnv 4 10 4 empty empty empty 20 12 0 14 -228856 -66577
0;
#X connect 6 0 8 0;
#X connect 8 0 10 0;
#X connect 8 1 11 0;
#X connect 9 0 13 0;
#X connect 10 0 9 0;
#X connect 11 0 9 0;
#X connect 12 0 9 0;
#X connect 14 0 12 0;
#X connect 15 0 9 0;
#X connect 16 0 17 0;
#X connect 17 0 15 0;
#X coords 0 -1 1 1 152 43 1 100 100;
#X restore 590 -71 pd ARGO;
#N canvas 377 139 539 398 ARGO 0;
#X obj 101 101 cnv 10 186 53 \$0-A \$0-B empty 20 12 0 14 -128992 -1
1.04858e+06;
#X obj 184 104 cnv 10 20 10 empty ColorGEM PDP-Video-ieee 1 5 1 14
-128992 -1 1.04858e+06;
#X obj 181 137 tgl 12 1 \$0-A \$0-B Capture 15 7 1 9 -262144 -1 -1
0 1;
#X obj 303 121 cnv 15 60 30 empty empty empty 20 12 0 14 -24198 -66577
0;
#N canvas 532 109 425 393 Help 0;
#X obj 12 59 cnv 15 400 310 empty empty empty 20 12 0 14 -233017 -66577
0;
#X text 15 58 Citation;
#X text 57 28 Philips SPC900NC;
#X text 58 40 Logitech;
#X text 15 0 Contrairement a son nom l'objet pdp_ieee1394 fonctionne
sous MacOSX avec certaines webcam USB;
#X text 26 116 written by Lluis Gomez i Bigorda ( lluisgomez@hangar.org
);
#X text 25 74 pdp_ieee1394 ( source pdp_ieee1394l.c ) : fire wire capture
object for linux;
#X text 26 101 Constructor : pdp_ieee1394;
#X text 15 216 ATTENTION;
#X text 28 231 Les objets pdp_ieee1394 pour MacOSX et Linux sont tres
différents;
#X restore 310 128 pd Help;
#X obj 138 11 r \$0-SendOnOff;
#X obj 138 34 t f f;
#X obj 191 36 cnv 15 340 30 empty empty empty 20 12 0 14 -258113 -66577
0;
#X text 194 41 Ne fonctionne pas sous Windows;
#X msg 172 264 stop;
#X msg 253 290 open;
#X msg 153 291 close;
#X obj 172 216 sel 0;
#X msg 131 78 0;
#X obj 214 241 t b b b b;
#X obj 153 241 t b b b;
#X obj 101 150 cnv 4 10 4 empty empty empty 20 12 0 14 -228856 -66577
0;
#X obj 93 371 outlet;
#X obj 197 330 pdp_ieee1394;
#X obj 172 193 int;
#X obj 138 57 sel 0 1;
#X obj 182 160 change;
#X obj 196 290 metro 70;
#X text 305 97 17 2 2009;
#X msg 285 238 open /dev/video0;
#X text 233 162 "Set Quality before starting capture";
#X obj 181 119 nbx 3 12 0 10 0 1 \$0-A ColorPDP Device 32 7 1 9 -262144
-1 -1 0 256;
#X obj 406 259 tosymbol;
#X obj 405 236 sprintf /dev/video%d;
#X msg 407 305 open /dev/video0;
#X msg 406 280 set open \$1;
#X obj 81 181 bng 15 250 50 0 empty empty empty 17 7 0 10 -262144 -1
-1;
#X msg 42 231 1;
#X obj 243 133 cnv 10 20 10 empty ColorGEM (Linux) 1 5 1 14 -128992
-1 1.04858e+06;
#X connect 2 0 21 0;
#X connect 5 0 6 0;
#X connect 6 0 20 0;
#X connect 9 0 22 0;
#X connect 10 0 18 0;
#X connect 11 0 18 0;
#X connect 12 0 15 0;
#X connect 12 1 14 0;
#X connect 13 0 2 0;
#X connect 14 0 22 0;
#X connect 14 1 29 0;
#X connect 15 0 11 0;
#X connect 15 1 9 0;
#X connect 18 0 17 0;
#X connect 19 0 12 0;
#X connect 20 0 13 0;
#X connect 20 1 19 0;
#X connect 21 0 19 0;
#X connect 22 0 18 0;
#X connect 24 0 18 0;
#X connect 26 0 28 0;
#X connect 27 0 30 0;
#X connect 28 0 27 0;
#X connect 29 0 18 0;
#X connect 30 0 29 0;
#X connect 31 0 18 0;
#X coords 0 -1 1 1 188 55 1 100 100;
#X restore -25 -83 pd ARGO;
#N canvas 311 65 541 395 ARGO 0;
#X obj 101 101 cnv 10 180 53 \$0-A \$0-B empty 20 12 0 14 -128992 -1
1.04858e+06;
#X obj 181 104 cnv 10 20 10 empty ColorPDP PDP-Video-v4l 1 5 1 14 -128992
-1 1.04858e+06;
#X obj 181 137 tgl 12 1 \$0-A \$0-B Capture 15 7 1 9 -262144 -1 -1
0 1;
#X obj 287 121 cnv 15 60 30 empty empty empty 20 12 0 14 -24198 -66577
0;
#N canvas 540 89 413 384 Help 0;
#X obj 6 63 cnv 15 400 310 empty empty empty 20 12 0 14 -233017 -66577
0;
#X text 9 62 Citation;
#X text 26 19 Philips SPC900NC;
#X text 20 79 pdp_v4l grabs video from the video4linux device. it sends
out the most recently grabbed frame whenever a bang message is received
\, and will then discard that frame (it will be sent out on time at
most). the output framerate is limited by the device only.;
#X text 20 146 (to make sure you receive every frame with little jitter
\, poll pdp_v4l with a high rate metronome);
#X text 9 4 Fonctionne sous Linux avec webcam USB;
#X text 21 213 "Philips webcam detection is now automatic. However
this requires a fairly recent kernel (one which includes the pwc driver
version 8.6 or higher). If you have a pwc and pdp_v4l does not display
a "pwc detected" message \, you can conifigure with --enable-pwc. This
forces pdp_v4l to use the pwc api extensions.";
#X text 8 199 http://www.debian-doc.org/packages/p/pd-pdp/README.html
;
#X restore 294 128 pd Help;
#X obj 138 11 r \$0-SendOnOff;
#X obj 138 34 t f f;
#X obj 191 36 cnv 15 340 30 empty empty empty 20 12 0 14 -258113 -66577
0;
#X msg 172 264 stop;
#X msg 153 291 close;
#X obj 172 216 sel 0;
#X msg 131 78 0;
#X obj 153 241 t b b b;
#X obj 101 150 cnv 4 10 4 empty empty empty 20 12 0 14 -228856 -66577
0;
#X obj 93 371 outlet;
#X obj 172 193 int;
#X obj 138 57 sel 0 1;
#X obj 182 160 change;
#X obj 196 290 metro 70;
#X text 194 41 Ne fonctionne pas sous Windows \, MacOSX;
#X obj 182 119 nbx 3 12 0 10 0 1 \$0-A ColorPDP Device 32 7 1 9 -262144
-1 -1 0 256;
#X obj 269 244 tosymbol;
#X obj 268 221 sprintf /dev/video%d;
#X msg 270 290 open /dev/video0;
#X obj 271 366 print;
#X msg 269 265 set open \$1;
#X obj 214 241 t b b b;
#X text 97 157 PDP;
#X obj 197 330 pdp_v4l;
#X obj 236 138 cnv 10 20 10 empty ColorGEM (Linux) 1 5 1 14 -128992
-1 1.04858e+06;
#X text 291 101 8 3 2009;
#X connect 2 0 17 0;
#X connect 5 0 6 0;
#X connect 6 0 16 0;
#X connect 8 0 18 0;
#X connect 9 0 28 0;
#X connect 10 0 12 0;
#X connect 10 1 26 0;
#X connect 11 0 2 0;
#X connect 12 0 9 0;
#X connect 12 1 8 0;
#X connect 15 0 10 0;
#X connect 16 0 11 0;
#X connect 16 1 15 0;
#X connect 17 0 15 0;
#X connect 18 0 28 0;
#X connect 20 0 22 0;
#X connect 21 0 25 0;
#X connect 22 0 21 0;
#X connect 23 0 24 0;
#X connect 23 0 28 0;
#X connect 25 0 23 0;
#X connect 26 0 18 0;
#X connect 26 1 23 0;
#X connect 28 0 14 0;
#X coords 0 -1 1 1 182 55 1 100 100;
#X restore 169 -83 pd ARGO;
#N canvas 311 65 641 403 ARGO 0;
#X obj 101 101 cnv 10 180 53 \$0-A \$0-B empty 20 12 0 14 -128992 -1
1.04858e+06;
#X obj 180 104 cnv 10 20 10 empty ColorPDP PDP-Video-v4l2 1 5 1 14
-128992 -1 1.04858e+06;
#X obj 181 137 tgl 12 1 \$0-A \$0-B Capture 15 7 1 9 -262144 -1 -1
0 1;
#X obj 287 121 cnv 15 60 30 empty empty empty 20 12 0 14 -24198 -66577
0;
#N canvas 578 144 414 309 Help 0;
#X obj 6 5 cnv 15 400 310 empty empty empty 20 12 0 14 -233017 -66577
0;
#X text 9 4 Citation;
#X text 18 18 pdp_v4l2 is an interface for video 4 linux 2 devices
;
#X text 17 33 it's very similar to pdp_v4l but should support more
recent cameras \, if it doesn't with yours report bugs to ydegoyon@free.fr
;
#X text 17 73 authors : Yves Degoyon and Lluis Gomez i Bigorda;
#X text 18 87 code was inspired by pdp_v4l by Tom Schouten and xawtv
by Gerd Knorr;
#X restore 294 128 pd Help;
#X obj 138 11 r \$0-SendOnOff;
#X obj 138 34 t f f;
#X obj 191 36 cnv 15 340 30 empty empty empty 20 12 0 14 -258113 -66577
0;
#X msg 172 264 stop;
#X msg 153 291 close;
#X obj 172 216 sel 0;
#X msg 131 78 0;
#X obj 153 241 t b b b;
#X obj 101 150 cnv 4 10 4 empty empty empty 20 12 0 14 -228856 -66577
0;
#X obj 93 371 outlet;
#X obj 172 193 int;
#X obj 138 57 sel 0 1;
#X obj 182 160 change;
#X obj 196 290 metro 70;
#X obj 197 330 pdp_v4l2;
#X text 194 41 Ne fonctionne pas sous Windows \, MacOSX;
#X obj 182 119 nbx 3 12 0 10 0 1 \$0-A ColorPDP Device 32 7 1 9 -262144
-1 -1 0 256;
#X obj 269 244 tosymbol;
#X obj 268 221 sprintf /dev/video%d;
#X msg 270 290 open /dev/video0;
#X obj 271 366 print;
#X msg 269 265 set open \$1;
#X obj 214 241 t b b b;
#X text 291 101 17 2 2009;
#X text 97 157 PDP;
#X obj 235 140 cnv 10 20 10 empty ColorGEM (Linux) 1 5 1 14 -128992
-1 1.04858e+06;
#X floatatom 399 108 5 0 0 0 - - -;
#X floatatom 402 273 5 0 0 0 - - -;
#X msg 402 297 freq \$1;
#X floatatom 463 273 5 0 0 0 - - -;
#X msg 463 297 freqMHz \$1;
#X text 507 271 sets the v4l tuner frequency (in v4l units and MHz)
;
#X floatatom 400 156 5 0 0 0 - - -;
#X msg 400 176 format \$1;
#X text 484 154 sets the pixel format (like YUYV \, RGB32 \, ...);
#X msg 399 128 input \$1;
#X text 483 106 sets the v4l input (like camera \, tuner \, svideo
\, ...);
#X text 482 117 see initialization phase for valid inputs;
#X text 487 205 sets the video standard ( for tuner cards );
#X text 484 165 see initialization phase for valid formats;
#X text 487 217 see initialization phase for valid standards;
#X floatatom 403 207 5 0 0 0 - - -;
#X msg 403 227 standard \$1;
#X msg 102 295 model;
#X connect 2 0 17 0;
#X connect 5 0 6 0;
#X connect 6 0 16 0;
#X connect 8 0 18 0;
#X connect 9 0 19 0;
#X connect 10 0 12 0;
#X connect 10 1 27 0;
#X connect 11 0 2 0;
#X connect 12 0 9 0;
#X connect 12 1 8 0;
#X connect 15 0 10 0;
#X connect 16 0 11 0;
#X connect 16 1 15 0;
#X connect 17 0 15 0;
#X connect 18 0 19 0;
#X connect 19 0 14 0;
#X connect 21 0 23 0;
#X connect 22 0 26 0;
#X connect 23 0 22 0;
#X connect 24 0 25 0;
#X connect 24 0 19 0;
#X connect 26 0 24 0;
#X connect 27 0 18 0;
#X connect 27 1 24 0;
#X connect 31 0 40 0;
#X connect 32 0 33 0;
#X connect 33 0 19 0;
#X connect 34 0 35 0;
#X connect 35 0 19 0;
#X connect 37 0 38 0;
#X connect 38 0 19 0;
#X connect 40 0 19 0;
#X connect 46 0 47 0;
#X connect 47 0 19 0;
#X connect 48 0 19 0;
#X coords 0 -1 1 1 182 55 1 100 100;
#X restore 357 -83 pd ARGO;
#N canvas 413 140 399 318 ARGO 0;
#X obj 101 101 cnv 10 150 41 \$0-A \$0-B empty 20 12 0 14 -128992 -1
1.04858e+06;
#X obj 174 104 cnv 10 20 10 empty ColorGEM PDP-Out-xv 1 5 1 14 -128992
-1 1.04858e+06;
#X obj 139 55 key;
#X obj 276 129 cnv 15 60 30 empty empty empty 20 12 0 14 -24198 -66577
0;
#N canvas 590 196 410 312 Help 0;
#X obj 4 -6 cnv 15 400 310 empty empty empty 20 12 0 14 -233017 -66577
0;
#X text 7 -7 Citation;
#X text 14 10 pdp_xv ouputs video in a window using the xVideo extension.
if your graphics card/driver supports it you can have multiple output
windows. if a pdp message is received and a window is not open \, one
is created automaticly.;
#X restore 283 136 pd Help;
#X obj 20 20 cnv 15 340 30 empty empty empty 20 12 0 14 -258113 -66577
0;
#X text 24 26 Ne fonctionne pas sous Windows;
#X msg 221 262 fullscreen;
#X msg 143 262 dim 400 300;
#X obj 101 130 tgl 12 1 \$0-A \$0-B (F)ullScreen 15 7 1 9 -262144 -1
-1 0 1;
#X obj 171 238 sel 0;
#X obj 140 76 select 32 70 102;
#X msg 346 262 create;
#X msg 292 261 destroy;
#X obj 101 106 tgl 12 1 \$0-A \$0-B PDPWindow 15 7 1 9 -262144 -1 -1
0 1;
#X obj 191 154 sel 0;
#X obj 171 215 int;
#X obj 179 181 t b b;
#X obj 101 101 cnv 4 10 4 empty empty empty 20 12 0 14 -228856 -66577
0;
#X obj 91 78 inlet;
#X obj 95 261 spigot;
#X msg 207 210 0;
#X obj 226 181 t b b b;
#X msg 241 210 1;
#X obj 95 292 pdp_xv;
#X text 255 96 17 2 2009;
#X obj 207 118 cnv 10 20 10 empty ColorGEM (Linux) 1 5 1 14 -128992
-1 1.04858e+06;
#X connect 2 0 11 0;
#X connect 7 0 24 0;
#X connect 8 0 24 0;
#X connect 9 0 16 0;
#X connect 10 0 8 0;
#X connect 10 1 7 0;
#X connect 11 1 9 0;
#X connect 11 2 9 0;
#X connect 12 0 24 0;
#X connect 13 0 24 0;
#X connect 14 0 15 0;
#X connect 15 0 17 0;
#X connect 15 1 22 0;
#X connect 16 0 10 0;
#X connect 17 0 13 0;
#X connect 17 1 21 0;
#X connect 19 0 20 0;
#X connect 20 0 24 0;
#X connect 21 0 20 1;
#X connect 22 0 23 0;
#X connect 22 1 16 0;
#X connect 22 2 12 0;
#X connect 23 0 20 1;
#X coords 0 -1 1 1 152 43 1 100 100;
#X restore 132 228 pd ARGO;
#N canvas 242 78 604 407 ARGO 0;
#X obj 101 101 cnv 10 186 72 \$0-A \$0-B empty 20 12 0 14 -128992 -1
1.04858e+06;
#X obj 217 104 cnv 10 20 10 empty ColorGEM PDP-Scale 1 5 1 14 -128992
-1 1.04858e+06;
#X obj 205 131 tgl 12 1 \$0-A \$0-B Quality 15 7 1 9 -262144 -1 -1
1 1;
#X obj 303 121 cnv 15 60 30 empty empty empty 20 12 0 14 -24198 -66577
0;
#N canvas 532 109 425 393 Help 0;
#X obj 12 59 cnv 15 400 310 empty empty empty 20 12 0 14 -233017 -66577
0;
#X text 15 58 Citation;
#X text 24 73 pdp_ieee1394 : fire wire capture object for OSX;
#X text 24 102 inspired by pix_video from Gem;
#X text 24 116 written by Yves Degoyon (ydegoyon@free.fr);
#X text 25 89 Constructor : pdp_ieee1394 <width> <height>;
#X text 57 28 Philips SPC900NC;
#X text 58 40 Logitech;
#X text 15 0 Contrairement a son nom l'objet pdp_ieee1394 fonctionne
sous MacOSX avec certaines webcam USB;
#X text 15 216 ATTENTION;
#X text 28 231 Les objets pdp_ieee1394 pour MacOSX et Linux sont tres
différents;
#X restore 310 128 pd Help;
#X obj 135 -5 cnv 15 340 100 empty empty empty 20 12 0 14 -258113 -66577
0;
#X text 138 0 Ne fonctionne pas sous Windows;
#X msg 184 214 quality \$1;
#X obj 112 101 vradio 12 1 1 6 \$0-A ColorGEM 1000x752 14 7 1 9 -262144
-1 -1 3;
#X obj 127 116 cnv 10 20 10 empty empty 800x600 0 4 1 9 -128992 -1
0;
#X obj 127 128 cnv 10 20 10 empty empty 640x480 0 4 1 9 -128992 -1
0;
#X obj 127 140 cnv 5 20 5 empty empty 320x240 0 4 1 9 -128992 -1 0
;
#X obj 101 169 cnv 4 10 4 empty empty empty 20 12 0 14 -228856 -66577
0;
#X obj 90 375 outlet;
#X obj 101 101 cnv 4 10 4 empty empty empty 20 12 0 14 -228856 -66577
0;
#X obj 93 76 inlet;
#X obj 127 153 cnv 5 20 5 empty empty 160x120 0 4 1 9 -128992 -1 0
;
#X obj 127 164 cnv 5 20 5 empty empty 64x48 0 4 1 9 -128992 -1 0;
#X text 305 97 4 3 2009;
#X floatatom 35 194 5 0 0 0 - - -;
#X obj 75 195 sel 0 1 2 3 4 5;
#X msg 105 296 dim 320 240;
#X obj 91 345 pdp_scale 320 240;
#X text 262 205 0 = nearest neighbour;
#X text 262 220 1 = bilinear;
#X msg 45 268 dim 800 600;
#X msg 86 247 dim 640 480;
#X msg 127 270 dim 160 120;
#X text 234 247 set new packet dimensions;
#X text 236 263 pdp_scale rescales the packet format.;
#X text 236 291 use this if you want to combine different packet sizes.
or have movies that don't have a legal size (not a multiple of 8x8)
;
#X text 234 334 (try to avoid rescaling by using movies with equal
(legal) dimensions \, it is not a cheap operation and can easily be
done in advance);
#X msg 165 247 dim 64 48;
#X text 138 14 WARNING: request to create image packet with illegal
dimensions 1600 x 1200;
#X text 171 40 Dimensions interdites: 1600x1200 1280 960;
#X msg 13 294 dim 1000 752;
#X connect 2 0 7 0;
#X connect 7 0 22 0;
#X connect 8 0 19 0;
#X connect 8 0 20 0;
#X connect 15 0 22 0;
#X connect 20 0 35 0;
#X connect 20 1 25 0;
#X connect 20 2 26 0;
#X connect 20 3 21 0;
#X connect 20 4 27 0;
#X connect 20 5 32 0;
#X connect 21 0 22 0;
#X connect 22 0 13 0;
#X connect 25 0 22 0;
#X connect 26 0 22 0;
#X connect 27 0 22 0;
#X connect 32 0 22 0;
#X connect 35 0 22 0;
#X coords 0 -1 1 1 188 74 1 100 100;
#X restore 480 28 pd ARGO;
#N canvas 242 78 375 259 ARGO 0;
#X obj 101 101 cnv 10 186 30 \$0-A \$0-B empty 20 12 0 14 -128992 -1
1.04858e+06;
#X obj 227 104 cnv 10 20 10 empty ColorGEM PDP-Info 1 5 1 14 -128992
-1 1.04858e+06;
#X obj 7 144 cnv 15 340 100 empty empty empty 20 12 0 14 -258113 -66577
0;
#X text 10 149 Ne fonctionne pas sous Windows;
#X obj 101 101 cnv 4 10 4 empty empty empty 20 12 0 14 -228856 -66577
0;
#X obj 99 53 inlet;
#X text 235 83 4 3 2009;
#X symbolatom 101 115 30 0 0 0 - - -;
#X obj 100 77 pdp_description;
#X text 140 52 output packet description as a symbol;
#X connect 5 0 8 0;
#X connect 8 0 7 0;
#X coords 0 -1 1 1 188 32 1 100 100;
#X restore 454 287 pd ARGO;
#N canvas 400 221 539 398 ARGO 0;
#X obj 101 101 cnv 10 186 53 \$0-A \$0-B empty 20 12 0 14 -128992 -1
1.04858e+06;
#X obj 184 104 cnv 10 20 10 empty ColorGEM PDP-Video-ieee 1 5 1 14
-128992 -1 1.04858e+06;
#X obj 179 137 tgl 12 1 \$0-A \$0-B Capture 15 7 1 9 -262144 -1 -1
0 1;
#X obj 303 121 cnv 15 60 30 empty empty empty 20 12 0 14 -24198 -66577
0;
#N canvas 532 109 425 393 Help 0;
#X obj 12 59 cnv 15 400 310 empty empty empty 20 12 0 14 -233017 -66577
0;
#X text 15 58 Citation;
#X text 24 73 pdp_ieee1394 : fire wire capture object for OSX;
#X text 24 102 inspired by pix_video from Gem;
#X text 24 116 written by Yves Degoyon (ydegoyon@free.fr);
#X text 25 89 Constructor : pdp_ieee1394 <width> <height>;
#X text 57 28 Philips SPC900NC;
#X text 58 40 Logitech;
#X text 15 0 Contrairement a son nom l'objet pdp_ieee1394 fonctionne
sous MacOSX avec certaines webcam USB;
#X restore 310 128 pd Help;
#X obj 138 11 r \$0-SendOnOff;
#X obj 138 34 t f f;
#X obj 191 36 cnv 15 340 30 empty empty empty 20 12 0 14 -258113 -66577
0;
#X text 194 41 Ne fonctionne pas sous Windows;
#X msg 172 264 stop;
#X msg 430 185 open;
#X msg 153 291 close;
#X msg 371 289 reset;
#X msg 81 291 quality \$1;
#X obj 172 216 sel 0;
#X obj 101 101 vradio 12 1 1 4 \$0-A ColorGEM Normal_Quality 14 7 1
9 -262144 -1 -1 0;
#X obj 115 116 cnv 10 20 10 empty empty High_Quality 0 4 1 9 -128992
-1 0;
#X obj 115 128 cnv 10 20 10 empty empty Fast_Quality 0 4 1 9 -128992
-1 0;
#X obj 115 140 cnv 5 20 5 empty empty All_data 0 4 1 9 -128992 -1 0
;
#X msg 131 78 0;
#X obj 214 241 t b b b b;
#X obj 153 241 t b b b;
#X obj 101 150 cnv 4 10 4 empty empty empty 20 12 0 14 -228856 -66577
0;
#X obj 93 371 outlet;
#X obj 172 193 int;
#X obj 138 57 sel 0 1;
#X obj 182 160 change;
#X obj 179 119 bng 12 250 50 0 \$0-A ColorGEM Reset 16 7 1 9 -262144
-1 -1;
#X obj 196 290 metro 70;
#X text 233 162 "Set Quality before starting capture";
#X obj 229 130 cnv 10 20 10 empty ColorGEM MacOSX 1 5 1 14 -128992
-1 1.04858e+06;
#X obj 197 330 pdp_ieee1394 640 480;
#X msg 257 289 open /dev/video0/;
#X obj 230 117 cnv 10 20 10 empty ColorGEM 640x480 1 5 1 14 -128992
-1 1.04858e+06;
#X text 305 97 4 3 2009;
#X connect 2 0 26 0;
#X connect 5 0 6 0;
#X connect 6 0 25 0;
#X connect 9 0 28 0;
#X connect 10 0 31 0;
#X connect 11 0 31 0;
#X connect 12 0 31 0;
#X connect 13 0 31 0;
#X connect 14 0 21 0;
#X connect 14 1 20 0;
#X connect 15 0 13 0;
#X connect 19 0 2 0;
#X connect 20 0 28 0;
#X connect 20 1 32 0;
#X connect 20 2 15 0;
#X connect 21 0 11 0;
#X connect 21 1 9 0;
#X connect 24 0 14 0;
#X connect 25 0 19 0;
#X connect 25 1 24 0;
#X connect 26 0 24 0;
#X connect 27 0 12 0;
#X connect 28 0 31 0;
#X connect 31 0 23 0;
#X connect 32 0 31 0;
#X coords 0 -1 1 1 188 55 1 100 100;
#X restore -25 -144 pd ARGO;
#N canvas 400 221 539 398 ARGO 0;
#X obj 101 101 cnv 10 186 53 \$0-A \$0-B empty 20 12 0 14 -128992 -1
1.04858e+06;
#X obj 184 104 cnv 10 20 10 empty ColorGEM PDP-Video-ieee 1 5 1 14
-128992 -1 1.04858e+06;
#X obj 179 137 tgl 12 1 \$0-A \$0-B Capture 15 7 1 9 -262144 -1 -1
0 1;
#X obj 303 121 cnv 15 60 30 empty empty empty 20 12 0 14 -24198 -66577
0;
#N canvas 532 109 425 393 Help 0;
#X obj 12 59 cnv 15 400 310 empty empty empty 20 12 0 14 -233017 -66577
0;
#X text 15 58 Citation;
#X text 24 73 pdp_ieee1394 : fire wire capture object for OSX;
#X text 24 102 inspired by pix_video from Gem;
#X text 24 116 written by Yves Degoyon (ydegoyon@free.fr);
#X text 25 89 Constructor : pdp_ieee1394 <width> <height>;
#X text 57 28 Philips SPC900NC;
#X text 58 40 Logitech;
#X text 15 0 Contrairement a son nom l'objet pdp_ieee1394 fonctionne
sous MacOSX avec certaines webcam USB;
#X restore 310 128 pd Help;
#X obj 138 11 r \$0-SendOnOff;
#X obj 138 34 t f f;
#X obj 191 36 cnv 15 340 30 empty empty empty 20 12 0 14 -258113 -66577
0;
#X text 194 41 Ne fonctionne pas sous Windows;
#X msg 172 264 stop;
#X msg 430 185 open;
#X msg 153 291 close;
#X msg 371 289 reset;
#X msg 81 291 quality \$1;
#X obj 172 216 sel 0;
#X obj 101 101 vradio 12 1 1 4 \$0-A ColorGEM Normal_Quality 14 7 1
9 -262144 -1 -1 3;
#X obj 115 116 cnv 10 20 10 empty empty High_Quality 0 4 1 9 -128992
-1 0;
#X obj 115 128 cnv 10 20 10 empty empty Fast_Quality 0 4 1 9 -128992
-1 0;
#X obj 115 140 cnv 5 20 5 empty empty All_data 0 4 1 9 -128992 -1 0
;
#X msg 131 78 0;
#X obj 214 241 t b b b b;
#X obj 153 241 t b b b;
#X obj 101 150 cnv 4 10 4 empty empty empty 20 12 0 14 -228856 -66577
0;
#X obj 93 371 outlet;
#X obj 172 193 int;
#X obj 138 57 sel 0 1;
#X obj 182 160 change;
#X obj 179 119 bng 12 250 50 0 \$0-A ColorGEM Reset 16 7 1 9 -262144
-1 -1;
#X obj 196 290 metro 70;
#X text 233 162 "Set Quality before starting capture";
#X obj 229 130 cnv 10 20 10 empty ColorGEM MacOSX 1 5 1 14 -128992
-1 1.04858e+06;
#X msg 257 289 open /dev/video0/;
#X obj 230 117 cnv 10 20 10 empty ColorGEM 160x120 1 5 1 14 -128992
-1 1.04858e+06;
#X text 305 97 4 3 2009;
#X obj 197 329 pdp_ieee1394 160 120;
#X connect 2 0 26 0;
#X connect 5 0 6 0;
#X connect 6 0 25 0;
#X connect 9 0 28 0;
#X connect 10 0 34 0;
#X connect 11 0 34 0;
#X connect 12 0 34 0;
#X connect 13 0 34 0;
#X connect 14 0 21 0;
#X connect 14 1 20 0;
#X connect 15 0 13 0;
#X connect 19 0 2 0;
#X connect 20 0 28 0;
#X connect 20 1 31 0;
#X connect 20 2 15 0;
#X connect 21 0 11 0;
#X connect 21 1 9 0;
#X connect 24 0 14 0;
#X connect 25 0 19 0;
#X connect 25 1 24 0;
#X connect 26 0 24 0;
#X connect 27 0 12 0;
#X connect 28 0 34 0;
#X connect 31 0 34 0;
#X connect 34 0 23 0;
#X coords 0 -1 1 1 188 55 1 100 100;
#X restore 363 -144 pd ARGO;
#N canvas 400 221 539 398 ARGO 0;
#X obj 101 101 cnv 10 186 53 \$0-A \$0-B empty 20 12 0 14 -128992 -1
1.04858e+06;
#X obj 184 104 cnv 10 20 10 empty ColorGEM PDP-Video-ieee 1 5 1 14
-128992 -1 1.04858e+06;
#X obj 179 137 tgl 12 1 \$0-A \$0-B Capture 15 7 1 9 -262144 -1 -1
0 1;
#X obj 303 121 cnv 15 60 30 empty empty empty 20 12 0 14 -24198 -66577
0;
#N canvas 532 109 425 393 Help 0;
#X obj 12 59 cnv 15 400 310 empty empty empty 20 12 0 14 -233017 -66577
0;
#X text 15 58 Citation;
#X text 24 73 pdp_ieee1394 : fire wire capture object for OSX;
#X text 24 102 inspired by pix_video from Gem;
#X text 24 116 written by Yves Degoyon (ydegoyon@free.fr);
#X text 25 89 Constructor : pdp_ieee1394 <width> <height>;
#X text 57 28 Philips SPC900NC;
#X text 58 40 Logitech;
#X text 15 0 Contrairement a son nom l'objet pdp_ieee1394 fonctionne
sous MacOSX avec certaines webcam USB;
#X restore 310 128 pd Help;
#X obj 138 11 r \$0-SendOnOff;
#X obj 138 34 t f f;
#X obj 191 36 cnv 15 340 30 empty empty empty 20 12 0 14 -258113 -66577
0;
#X text 194 41 Ne fonctionne pas sous Windows;
#X msg 172 264 stop;
#X msg 430 185 open;
#X msg 153 291 close;
#X msg 371 289 reset;
#X msg 81 291 quality \$1;
#X obj 172 216 sel 0;
#X obj 101 101 vradio 12 1 1 4 \$0-A ColorGEM Normal_Quality 14 7 1
9 -262144 -1 -1 3;
#X obj 115 116 cnv 10 20 10 empty empty High_Quality 0 4 1 9 -128992
-1 0;
#X obj 115 128 cnv 10 20 10 empty empty Fast_Quality 0 4 1 9 -128992
-1 0;
#X obj 115 140 cnv 5 20 5 empty empty All_data 0 4 1 9 -128992 -1 0
;
#X msg 131 78 0;
#X obj 214 241 t b b b b;
#X obj 153 241 t b b b;
#X obj 101 150 cnv 4 10 4 empty empty empty 20 12 0 14 -228856 -66577
0;
#X obj 93 371 outlet;
#X obj 172 193 int;
#X obj 138 57 sel 0 1;
#X obj 182 160 change;
#X obj 179 119 bng 12 250 50 0 \$0-A ColorGEM Reset 16 7 1 9 -262144
-1 -1;
#X obj 196 290 metro 70;
#X text 233 162 "Set Quality before starting capture";
#X obj 229 130 cnv 10 20 10 empty ColorGEM MacOSX 1 5 1 14 -128992
-1 1.04858e+06;
#X msg 257 289 open /dev/video0/;
#X obj 230 117 cnv 10 20 10 empty ColorGEM 64x48 1 5 1 14 -128992 -1
1.04858e+06;
#X text 305 97 4 3 2009;
#X obj 197 329 pdp_ieee1394 64 48;
#X connect 2 0 26 0;
#X connect 5 0 6 0;
#X connect 6 0 25 0;
#X connect 9 0 28 0;
#X connect 10 0 34 0;
#X connect 11 0 34 0;
#X connect 12 0 34 0;
#X connect 13 0 34 0;
#X connect 14 0 21 0;
#X connect 14 1 20 0;
#X connect 15 0 13 0;
#X connect 19 0 2 0;
#X connect 20 0 28 0;
#X connect 20 1 31 0;
#X connect 20 2 15 0;
#X connect 21 0 11 0;
#X connect 21 1 9 0;
#X connect 24 0 14 0;
#X connect 25 0 19 0;
#X connect 25 1 24 0;
#X connect 26 0 24 0;
#X connect 27 0 12 0;
#X connect 28 0 34 0;
#X connect 31 0 34 0;
#X connect 34 0 23 0;
#X coords 0 -1 1 1 188 55 1 100 100;
#X restore 556 -145 pd ARGO;
#X obj 608 -15 cnv 15 60 30 empty empty empty 20 12 0 14 -24198 -66577
0;
#N canvas 532 109 422 332 Help 0;
#X obj 9 7 cnv 15 400 310 empty empty empty 20 12 0 14 -233017 -66577
0;
#X text 12 6 Citation;
#X text 28 172 pdp was all coded mostly in yuv since the beginning
for efficiency and speed reasons \, so we have to pass throough conversions
to connect to other pieces of code. _______________________________________________
Pd-list@iem.at mailing list;
#X text 29 159 From: ydegoyon@gmail.com;
#X text 25 252 If you want to use PDP on Mac OS X 10.4/Tiger or 10.3/Panther
\, you will need to install X11 (X11 comes installed with 10.5/Leopard).
It comes on the install CD/DVD that your computer came with.;
#X text 24 22 PDP - Pure Data Packet a packet processing library for
pure data;
#X text 23 52 This external pd library is a framework for image/video
processing (and other raw data packets) that is fast \, simple and
flexible and as much as possible compatible with the pd messaging system.
;
#X restore 615 -8 pd Help;
#N canvas 230 22 749 493 ARGO 0;
#X obj 101 101 cnv 10 150 41 \$0-A \$0-Canvas empty 20 12 0 14 -128992
-1 1.04858e+06;
#X obj 171 109 cnv 10 20 10 empty \$0-Canvas PDP-Record 1 5 1 14 -128992
-1 1.04858e+06;
#X obj 276 129 cnv 15 60 30 empty empty empty 20 12 0 14 -24198 -66577
0;
#N canvas 596 134 412 319 Help 0;
#X obj 5 3 cnv 15 400 310 empty empty empty 20 12 0 14 -233017 -66577
0;
#X text 8 2 Citation;
#X text 19 73 written by Yves Degoyon ( ydegoyon@free.fr );
#X text 18 45 it records in quicktime format;
#X text 19 31 pdp_rec~ : records video and audio output to file;
#X text 19 18 library PiDiP;
#X text 17 58 using YUV420P color model ( hard-coded);
#X text 18 96 pdp_rec~ will record 2 channels \, 8 bits audio at the
samplerate of PD;
#X restore 283 136 pd Help;
#X obj 39 3 cnv 15 340 70 empty empty empty 20 12 0 14 -258113 -66577
0;
#X text 44 5 Ne fonctionne pas sous Windows;
#X obj 101 101 cnv 4 10 4 empty empty empty 20 12 0 14 -228856 -66577
0;
#X obj 91 78 inlet;
#X msg 57 251 stop;
#X msg 128 320 start;
#X msg 310 328 jpeg \$1;
#X floatatom 373 329 5 0 0 0 - - -;
#X text 422 327 JPEG quality factor ( if using jpeg compressor );
#X msg 308 353 framerate \$1;
#X floatatom 405 353 5 0 0 0 - - -;
#X text 454 352 Frame rate : if not set \, it will be calculated;
#X text 415 306 Set a compressor supported by libquicktime ( 0.9.1
);
#X msg 308 251 symbol jpeg;
#X msg 309 305 compressor \$1;
#X msg 281 276 symbol raw;
#X msg 394 275 symbol divx;
#X msg 476 275 symbol dv;
#X msg 388 251 symbol yuv2;
#X text 309 231 ==== VIDEOS SETTINGS ========;
#X text 413 430 Set a compressor supported by libquicktime ( 0.9.1
);
#X text 312 380 ==== AUDIO SETTINGS ========;
#X msg 311 430 acompressor \$1;
#X msg 311 404 symbol twos;
#X msg 402 404 symbol raw;
#X obj 152 78 inlet~;
#X obj 227 78 inlet~;
#X obj 170 101 cnv 4 10 4 empty empty empty 20 12 0 14 -1 -66577 0
;
#X obj 241 101 cnv 4 10 4 empty empty empty 20 12 0 14 -1 -66577 0
;
#X obj 138 289 delay 1000;
#X msg 207 289 open \$1;
#X obj 178 220 list2symbol;
#X obj 178 198 savepanel;
#X text 394 14 compressor jpeg ne fonctionne pas sous MacOSX PPC;
#X text 394 28 compressor yuv2 ne fonctionne pas sous MacOSX PPC;
#X text 396 41 L'Audio est toujours 8 bits: comment changer?;
#X msg 314 184 pdp;
#X msg 313 208 dsp;
#X obj 86 471 pdp_rec~;
#X text 344 183 <-- voir source;
#X text 349 209 <-- voir source;
#X obj 42 384 s \$0-Canvas;
#X msg 29 329 0;
#X msg 60 329 1;
#N canvas 317 143 290 366 CouleurPDPRecord 0;
#X obj 122 -19 +;
#X obj 122 37 +;
#X obj 61 -75 * -65536;
#X obj 117 -75 * -256;
#X obj 163 -77 * -1;
#X obj 122 68 - 1;
#X obj 115 -202 inlet;
#X text 77 -97 R;
#X text 123 -99 G;
#X text 172 -98 B;
#X obj 122 123 outlet;
#X text 170 -169 Rouge;
#X msg 134 -121 255;
#X msg 167 -121 0;
#X obj 115 -178 sel 0 1;
#X msg 122 96 color \$1 -1;
#X obj 79 -121 t f f f;
#X obj 134 -148 t b b b;
#X msg 202 -121 0;
#X msg 79 -145 124;
#X text 56 -170 Gris PDP;
#X connect 0 0 1 1;
#X connect 1 0 5 0;
#X connect 2 0 1 0;
#X connect 3 0 0 0;
#X connect 4 0 0 1;
#X connect 5 0 15 0;
#X connect 6 0 14 0;
#X connect 12 0 2 0;
#X connect 13 0 3 0;
#X connect 14 0 19 0;
#X connect 14 1 17 0;
#X connect 15 0 10 0;
#X connect 16 0 2 0;
#X connect 16 1 3 0;
#X connect 16 2 4 0;
#X connect 17 0 12 0;
#X connect 17 1 13 0;
#X connect 17 2 18 0;
#X connect 18 0 4 0;
#X connect 19 0 16 0;
#X restore 42 360 pd CouleurPDPRecord;
#X obj 30 227 t b b;
#X obj 101 122 tgl 15 0 \$0-A \$0-B Record 19 9 1 12 -262144 -258113
-1 0 1;
#X obj 164 122 nbx 4 15 0 9999 0 0 \$0-SendFrame \$0-ReceiveFrame Frame
50 9 1 12 -208064 -1 -1 0 256;
#X obj 183 470 print MM---;
#X text 255 96 5 3 2009;
#X obj 112 151 sel 0 1;
#X msg 112 199 set 0;
#X obj 177 241 t b s b b;
#X msg 219 268 set 1;
#X obj 132 174 t b b;
#X text 44 20 Pb -> le nombre de frames/sec enregistré dans le 1er
fichier enregistré est faux. Il est correct dans le 2e fichier enregistré.
;
#X connect 7 0 42 0;
#X connect 8 0 42 0;
#X connect 9 0 42 0;
#X connect 10 0 42 0;
#X connect 11 0 10 0;
#X connect 13 0 42 0;
#X connect 14 0 13 0;
#X connect 17 0 18 0;
#X connect 18 0 42 0;
#X connect 19 0 18 0;
#X connect 20 0 18 0;
#X connect 21 0 18 0;
#X connect 22 0 18 0;
#X connect 26 0 42 0;
#X connect 27 0 26 0;
#X connect 28 0 26 0;
#X connect 29 0 42 0;
#X connect 30 0 42 1;
#X connect 33 0 9 0;
#X connect 33 0 47 0;
#X connect 34 0 42 0;
#X connect 35 0 56 0;
#X connect 36 0 35 0;
#X connect 40 0 42 0;
#X connect 41 0 42 0;
#X connect 42 0 51 0;
#X connect 46 0 48 0;
#X connect 47 0 48 0;
#X connect 48 0 45 0;
#X connect 49 0 46 0;
#X connect 49 1 8 0;
#X connect 50 0 54 0;
#X connect 54 0 49 0;
#X connect 54 1 58 0;
#X connect 55 0 50 0;
#X connect 56 0 33 0;
#X connect 56 1 34 0;
#X connect 56 2 19 0;
#X connect 56 3 57 0;
#X connect 57 0 50 0;
#X connect 58 0 55 0;
#X connect 58 1 36 0;
#X coords 0 -1 1 1 152 43 1 100 100;
#X restore 298 228 pd ARGO;
#N canvas 292 146 556 449 ARGO 0;
#X obj 276 129 cnv 15 60 30 empty empty empty 20 12 0 14 -24198 -66577
0;
#N canvas 589 157 418 337 Help 0;
#X obj 6 7 cnv 15 400 310 empty empty empty 20 12 0 14 -233017 -66577
0;
#X text 9 6 Citation;
#X text 13 105 Voir:;
#X text 26 120 http://zwizwa.be/darcs/pdp-12/doc/misc/rawout.txt;
#X text 15 25 pdp_rawout;
#X text 14 44 Send a video stream through [pdp_convert bitmap/i420/*]
then stream it to disk using [pdp_rawout /tmp/video.i420] while you
are performing. You can convert it to divx avi using ffmpegfffff;
#X text 24 134 Some observations * pdp is a real time performance tool
* ffmpeg and mencoder are very nice pieces of software that solve the
video encoding problem * encoding video is cpu intensive * large harddisks
are cheap For these reason \, I decide to not implement container/codec
recording in pdp. Using [pdp_rawout] and [pdp_rawout~] it is possible
to dump video and audio streams directly to harddisk using the minimal
amount of cpu time. There they can be picked up later by tools like
mencoder and ffmpeg.;
#X restore 283 136 pd Help;
#X obj 40 39 cnv 15 340 30 empty empty empty 20 12 0 14 -258113 -66577
0;
#X text 45 41 Ne fonctionne pas sous Windows;
#X obj 91 78 inlet;
#X obj 168 271 delay 1000;
#X msg 238 271 open \$1;
#X obj 212 224 list2symbol;
#X obj 212 202 savepanel;
#X obj 160 402 print MM---;
#X obj 211 247 t b s b;
#X obj 56 425 print done;
#X msg 87 298 close;
#X msg 116 375 open;
#X obj 116 351 spigot;
#X obj 150 325 tgl 15 0 empty empty empty 0 -6 0 8 -262144 -1 -1 0
1;
#X msg 168 295 1;
#X msg 134 297 0;
#X obj 44 224 pdp_convert bitmap/i420/*;
#X text 303 241 pdp_convert image/YCrCb/*;
#X text 303 229 pdp_convert image/*/*;
#X text 303 215 pdp_convert convert between packet types;
#X text 303 253 pdp_convert image/grey/*;
#X text 303 264 pdp_convert bitmap/yv12/*;
#X text 303 299 pdp_convert texture/*/*;
#X text 303 276 pdp_convert texture/*/*;
#X text 303 288 pdp_convert bitmap/*/*;
#X obj 56 400 pdp_rawout;
#X obj 158 152 sel 0 1;
#X obj 101 101 cnv 10 150 41 \$0-A \$0-CanvasPDPRecordRaw empty 20
12 0 14 -128992 -1 1.04858e+06;
#X msg 223 325 0;
#X msg 254 325 1;
#X obj 141 109 cnv 10 20 10 empty \$0-CanvasPDPRecordRaw PDP-Record-raw
1 5 1 14 -128992 -1 1.04858e+06;
#X obj 101 101 cnv 4 10 4 empty empty empty 20 12 0 14 -228856 -66577
0;
#X obj 101 122 tgl 15 0 \$0-A \$0-B Record 19 9 1 12 -262144 -258113
-1 0 1;
#N canvas 317 143 290 366 CouleurPDPRecordRaw 0;
#X obj 122 -19 +;
#X obj 122 37 +;
#X obj 61 -75 * -65536;
#X obj 117 -75 * -256;
#X obj 163 -77 * -1;
#X obj 122 68 - 1;
#X obj 115 -202 inlet;
#X text 77 -97 R;
#X text 123 -99 G;
#X text 172 -98 B;
#X obj 122 123 outlet;
#X text 170 -169 Rouge;
#X msg 134 -121 255;
#X msg 167 -121 0;
#X obj 115 -178 sel 0 1;
#X msg 122 96 color \$1 -1;
#X obj 79 -121 t f f f;
#X obj 134 -148 t b b b;
#X msg 202 -121 0;
#X msg 79 -145 124;
#X text 56 -170 Gris PDP;
#X connect 0 0 1 1;
#X connect 1 0 5 0;
#X connect 2 0 1 0;
#X connect 3 0 0 0;
#X connect 4 0 0 1;
#X connect 5 0 15 0;
#X connect 6 0 14 0;
#X connect 12 0 2 0;
#X connect 13 0 3 0;
#X connect 14 0 19 0;
#X connect 14 1 17 0;
#X connect 15 0 10 0;
#X connect 16 0 2 0;
#X connect 16 1 3 0;
#X connect 16 2 4 0;
#X connect 17 0 12 0;
#X connect 17 1 13 0;
#X connect 17 2 18 0;
#X connect 18 0 4 0;
#X connect 19 0 16 0;
#X restore 236 356 pd CouleurPDPRecordRaw;
#X obj 236 380 s \$0-CanvasPDPRecordRaw;
#X obj 101 269 t b b b;
#X text 201 83 1 5 2009;
#X connect 4 0 18 0;
#X connect 5 0 16 0;
#X connect 5 0 31 0;
#X connect 6 0 9 0;
#X connect 6 0 27 0;
#X connect 7 0 10 0;
#X connect 8 0 7 0;
#X connect 10 0 5 0;
#X connect 10 1 6 0;
#X connect 12 0 9 0;
#X connect 12 0 27 0;
#X connect 13 0 27 0;
#X connect 14 0 13 0;
#X connect 15 0 14 1;
#X connect 16 0 15 0;
#X connect 17 0 15 0;
#X connect 18 0 27 0;
#X connect 27 0 11 0;
#X connect 27 0 14 0;
#X connect 28 0 37 0;
#X connect 28 1 8 0;
#X connect 30 0 35 0;
#X connect 31 0 35 0;
#X connect 34 0 28 0;
#X connect 35 0 36 0;
#X connect 37 0 30 0;
#X connect 37 1 12 0;
#X connect 37 2 17 0;
#X coords 0 -1 1 1 152 43 1 100 100;
#X restore 298 276 pd ARGO;
#N canvas 581 217 539 398 ARGO 0;
#X obj 101 101 cnv 10 186 53 \$0-A \$0-B empty 20 12 0 14 -128992 -1
1.04858e+06;
#X obj 184 104 cnv 10 20 10 empty ColorGEM PDP-Video-ieee 1 5 1 14
-128992 -1 1.04858e+06;
#X obj 175 130 tgl 12 1 \$0-A \$0-B Capture 15 7 1 9 -262144 -1 -1
0 1;
#X obj 303 121 cnv 15 60 30 empty empty empty 20 12 0 14 -24198 -66577
0;
#N canvas 532 109 425 393 Help 0;
#X obj 12 59 cnv 15 400 310 empty empty empty 20 12 0 14 -233017 -66577
0;
#X text 15 58 Citation;
#X text 24 73 pdp_ieee1394 : fire wire capture object for OSX;
#X text 24 102 inspired by pix_video from Gem;
#X text 24 116 written by Yves Degoyon (ydegoyon@free.fr);
#X text 25 89 Constructor : pdp_ieee1394 <width> <height>;
#X text 57 28 Philips SPC900NC;
#X text 58 40 Logitech;
#X text 15 0 Contrairement a son nom l'objet pdp_ieee1394 fonctionne
sous MacOSX avec certaines webcam USB;
#X restore 310 128 pd Help;
#X obj 138 11 r \$0-SendOnOff;
#X obj 138 34 t f f;
#X obj 191 36 cnv 15 340 30 empty empty empty 20 12 0 14 -258113 -66577
0;
#X text 194 35 Ne fonctionne pas sous Windows;
#X msg 172 264 stop;
#X msg 375 264 open;
#X msg 153 291 close;
#X msg 371 289 reset;
#X msg 81 291 quality \$1;
#X obj 160 214 sel 0;
#X obj 101 101 vradio 12 1 1 4 \$0-A ColorGEM Normal_Quality 14 7 1
9 -262144 -1 -1 3;
#X obj 115 116 cnv 10 20 10 empty empty High_Quality 0 4 1 9 -128992
-1 0;
#X obj 115 128 cnv 10 20 10 empty empty Fast_Quality 0 4 1 9 -128992
-1 0;
#X obj 115 140 cnv 5 20 5 empty empty All_data 0 4 1 9 -128992 -1 0
;
#X msg 131 78 0;
#X obj 214 241 t b b b b;
#X obj 153 241 t b b b;
#X obj 101 150 cnv 4 10 4 empty empty empty 20 12 0 14 -228856 -66577
0;
#X obj 93 371 outlet;
#X obj 160 191 int;
#X obj 138 57 sel 0 1;
#X obj 114 165 change;
#X obj 175 118 bng 12 250 50 0 \$0-A ColorGEM Reset 16 7 1 9 -262144
-1 -1;
#X obj 196 290 metro 70;
#X text 233 162 "Set Quality before starting capture";
#X obj 229 130 cnv 10 20 10 empty ColorGEM MacOSX 1 5 1 14 -128992
-1 1.04858e+06;
#X msg 257 289 open /dev/video0/;
#X obj 230 117 cnv 10 20 10 empty ColorGEM 320x240 1 5 1 14 -128992
-1 1.04858e+06;
#X obj 197 330 pdp_ieee1394 320 240;
#X text 305 97 5 3 2009;
#X obj 175 142 nbx 3 12 1 60 0 1 \$0-A ColorPDP Frames/sec 32 7 1 9
-262144 -1 -1 20 256;
#X obj 266 196 t b f;
#X msg 258 218 1000;
#X obj 277 241 /;
#X connect 2 0 26 0;
#X connect 5 0 6 0;
#X connect 6 0 25 0;
#X connect 9 0 28 0;
#X connect 10 0 33 0;
#X connect 11 0 33 0;
#X connect 12 0 33 0;
#X connect 13 0 33 0;
#X connect 14 0 21 0;
#X connect 14 1 20 0;
#X connect 15 0 13 0;
#X connect 19 0 2 0;
#X connect 20 0 28 0;
#X connect 20 1 31 0;
#X connect 20 2 15 0;
#X connect 21 0 11 0;
#X connect 21 1 9 0;
#X connect 24 0 14 0;
#X connect 25 0 19 0;
#X connect 25 1 24 0;
#X connect 26 0 24 0;
#X connect 27 0 12 0;
#X connect 28 0 33 0;
#X connect 31 0 33 0;
#X connect 33 0 23 0;
#X connect 35 0 36 0;
#X connect 36 0 37 0;
#X connect 36 1 38 1;
#X connect 37 0 38 0;
#X connect 38 0 28 1;
#X coords 0 -1 1 1 188 55 1 100 100;
#X restore 169 -144 pd ARGO;
#N canvas 215 138 461 476 ARGO 0;
#X obj 101 101 cnv 10 160 41 \$0-A \$0-B empty 20 12 0 14 -128992 -1
1.04858e+06;
#X obj 166 108 cnv 10 20 10 empty ColorGEM PDP-2xOut-glx 1 5 1 14 -128992
-1 1.04858e+06;
#X obj 139 55 key;
#X obj 276 129 cnv 15 60 30 empty empty empty 20 12 0 14 -24198 -66577
0;
#N canvas 673 201 412 249 Help 0;
#X obj 6 7 cnv 15 400 160 empty empty empty 20 12 0 14 -233017 -66577
0;
#X text 9 8 Citation;
#X text 14 27 pdp_glx ouputs video in a window using the openGL extension
on an X11 window system. if a pdp message is received and a window
is not open \, one is created automaticly.;
#X text 5 175 Fonctionne sous MacOSX + PD 0.41.4-extended;
#X text 14 138 written by Yves Degoyon ( ydegoyon@free.fr );
#X text 15 83 pdp_canvas : displaying several video sources;
#X text 14 96 constructor : pdp_canvas <width> <height> <nb inputs>
;
#X text 16 109 note : the maximum number of inputs is 10;
#X text 14 122 ( easily hackable in the code );
#X restore 283 136 pd Help;
#X obj 20 20 cnv 15 340 30 empty empty empty 20 12 0 14 -258113 -66577
0;
#X text 24 26 Ne fonctionne pas sous Windows;
#X obj 158 390 pdp_glx;
#X msg 236 349 fullscreen;
#X msg 14 348 interpol \$1;
#X msg 156 349 dim 400 300;
#X obj 101 130 tgl 12 1 \$0-A \$0-B (F)ullScreen 15 7 1 9 -262144 -1
-1 0 8;
#X obj 166 277 sel 0;
#X obj 101 118 tgl 12 1 \$0-A \$0-B Interpol 15 7 1 9 -262144 -1 -1
0 1;
#X msg 356 352 create;
#X msg 310 351 destroy;
#X obj 101 106 tgl 12 1 \$0-A \$0-B PDPWindow 15 7 1 9 -262144 -1 -1
0 1;
#X obj 167 239 int;
#X obj 175 205 t b b;
#X obj 101 101 cnv 4 10 4 empty empty empty 20 12 0 14 -228856 -66577
0;
#X obj 91 78 inlet;
#X obj 92 278 spigot;
#X msg 203 234 0;
#X obj 222 205 t b b b;
#X msg 237 234 1;
#X obj 187 155 int;
#X obj 13 54 r \$0-SendOnOff;
#X obj 187 178 sel 0 1;
#X obj 13 100 sel 0 1;
#X obj 339 87 loadbang;
#X msg 117 446 select \$1 \$2;
#X msg 205 446 drag \$1 \$2;
#X msg 277 446 unselect;
#X msg 92 348 cursor 1;
#X obj 157 415 route press drag release;
#X obj 91 324 pdp_canvas 400 300 2;
#X obj 251 101 cnv 4 10 4 empty empty empty 20 12 0 14 -228856 -66577
0;
#X text 279 64 7 3 2009;
#X obj 140 76 select 70 102;
#X obj 240 78 inlet;
#X msg 352 118 offset 2 200 0;
#X obj 239 278 spigot;
#X connect 2 0 38 0;
#X connect 7 0 34 0;
#X connect 8 0 7 0;
#X connect 9 0 7 0;
#X connect 10 0 7 0;
#X connect 11 0 17 0;
#X connect 12 0 10 0;
#X connect 12 1 8 0;
#X connect 13 0 9 0;
#X connect 14 0 7 0;
#X connect 15 0 7 0;
#X connect 16 0 25 0;
#X connect 17 0 12 0;
#X connect 18 0 15 0;
#X connect 18 1 22 0;
#X connect 20 0 21 0;
#X connect 21 0 35 1;
#X connect 22 0 21 1;
#X connect 22 0 41 1;
#X connect 23 0 24 0;
#X connect 23 1 17 0;
#X connect 23 2 14 0;
#X connect 24 0 21 1;
#X connect 24 0 41 1;
#X connect 25 0 27 0;
#X connect 26 0 28 0;
#X connect 27 0 18 0;
#X connect 27 1 23 0;
#X connect 28 0 18 0;
#X connect 28 1 25 0;
#X connect 29 0 40 0;
#X connect 30 0 35 0;
#X connect 31 0 35 0;
#X connect 32 0 35 0;
#X connect 33 0 7 0;
#X connect 34 0 30 0;
#X connect 34 1 31 0;
#X connect 34 2 32 0;
#X connect 35 0 33 0;
#X connect 35 0 7 0;
#X connect 38 0 11 0;
#X connect 38 1 11 0;
#X connect 39 0 41 0;
#X connect 40 0 35 0;
#X connect 41 0 35 2;
#X coords 0 -1 1 1 162 43 1 100 100;
#X restore -24 276 pd ARGO;
#N canvas 34 242 353 253 ARGO 0;
#X obj 101 101 cnv 10 150 22 \$0-A \$0-B empty 20 12 0 14 -128992 -1
1.04858e+06;
#X obj 149 108 cnv 10 20 10 empty ColorGEM PDP-Movement 1 5 1 14 -128992
-1 1.04858e+06;
#X obj 6 43 cnv 15 340 30 empty empty empty 20 12 0 14 -258113 -66577
0;
#X text 10 49 Ne fonctionne pas sous Windows;
#X obj 101 101 cnv 4 10 4 empty empty empty 20 12 0 14 -228856 -66577
0;
#X obj 91 78 inlet;
#X obj 101 119 cnv 4 10 4 empty empty empty 20 12 0 14 -228856 -66577
0;
#X text 202 84 7 3 2009;
#X obj 90 230 outlet;
#X obj 90 205 pdp_sub;
#X obj 90 177 pdp_reg;
#X obj 90 145 pdp_trigger bang pdp;
#X text 6 12 compute the difference between current;
#X text 5 23 and previous frame;
#X connect 5 0 11 0;
#X connect 9 0 8 0;
#X connect 10 0 9 1;
#X connect 11 0 10 0;
#X connect 11 1 10 1;
#X connect 11 1 9 0;
#X coords 0 -1 1 1 152 24 1 100 100;
#X restore 480 107 pd ARGO;
#N canvas 572 177 399 343 ARGO 0;
#X obj 101 101 cnv 10 150 41 \$0-A \$0-B empty 20 12 0 14 -128992 -1
1.04858e+06;
#X obj 170 104 cnv 10 20 10 empty ColorGEM PDP-Out-glx 1 5 1 14 -128992
-1 1.04858e+06;
#X obj 139 55 key;
#X obj 276 129 cnv 15 60 30 empty empty empty 20 12 0 14 -24198 -66577
0;
#N canvas 583 196 410 312 Help 0;
#X obj 6 7 cnv 15 400 160 empty empty empty 20 12 0 14 -233017 -66577
0;
#X text 27 6 Citation;
#X text 15 23 pdp_glx ouputs video in a window using the openGL extension
on an X11 window system. if a pdp message is received and a window
is not open \, one is created automaticly.;
#X text 5 175 Fonctionne sous MacOSX + PD 0.41.4-extended;
#X text 5 188 Fonctionne sous Linux Ubuntu 8.04 + PD 0.41.4-extended
;
#X restore 283 136 pd Help;
#X obj 20 20 cnv 15 340 30 empty empty empty 20 12 0 14 -258113 -66577
0;
#X text 24 26 Ne fonctionne pas sous Windows;
#X obj 91 316 pdp_glx;
#X msg 217 286 fullscreen;
#X msg 14 285 interpol \$1;
#X msg 139 286 dim 400 300;
#X obj 101 130 tgl 12 1 \$0-A \$0-B (F)ullScreen 15 7 1 9 -262144 -1
-1 0 1;
#X obj 167 262 sel 0;
#X obj 140 76 select 32 70 102;
#X obj 101 118 tgl 12 1 \$0-A \$0-B Interpol 15 7 1 9 -262144 -1 -1
0 1;
#X msg 342 286 create;
#X msg 288 285 destroy;
#X obj 101 106 tgl 12 1 \$0-A \$0-B PDPWindow 15 7 1 9 -262144 -1 -1
0 1;
#X obj 167 239 int;
#X obj 175 205 t b b;
#X obj 101 101 cnv 4 10 4 empty empty empty 20 12 0 14 -228856 -66577
0;
#X obj 91 78 inlet;
#X obj 91 285 spigot;
#X msg 203 234 0;
#X obj 222 205 t b b b;
#X msg 237 234 1;
#X obj 187 155 int;
#X obj 13 54 r \$0-SendOnOff;
#X obj 187 178 sel 0 1;
#X obj 13 100 sel 0 1;
#X msg 267 179 set \$1;
#X msg 59 136 0;
#X msg 17 136 set 0;
#X text 255 96 8 3 2009;
#X connect 2 0 13 0;
#X connect 8 0 7 0;
#X connect 9 0 7 0;
#X connect 10 0 7 0;
#X connect 11 0 18 0;
#X connect 12 0 10 0;
#X connect 12 1 8 0;
#X connect 13 1 11 0;
#X connect 13 2 11 0;
#X connect 14 0 9 0;
#X connect 15 0 7 0;
#X connect 16 0 7 0;
#X connect 17 0 26 0;
#X connect 18 0 12 0;
#X connect 19 0 16 0;
#X connect 19 1 23 0;
#X connect 21 0 22 0;
#X connect 22 0 7 0;
#X connect 23 0 22 1;
#X connect 24 0 25 0;
#X connect 24 1 18 0;
#X connect 24 2 15 0;
#X connect 25 0 22 1;
#X connect 26 0 28 0;
#X connect 26 0 30 0;
#X connect 27 0 29 0;
#X connect 28 0 19 0;
#X connect 28 1 24 0;
#X connect 29 0 32 0;
#X connect 29 0 31 0;
#X connect 29 1 26 0;
#X connect 30 0 17 0;
#X connect 31 0 28 0;
#X connect 32 0 17 0;
#X coords 0 -1 1 1 152 43 1 100 100;
#X restore -25 228 pd ARGO;
#N canvas 323 82 356 447 ARGO 0;
#X obj 101 101 cnv 10 183 105 \$0-A \$0-B empty 20 12 0 14 -128992
-1 1.04858e+06;
#X obj 290 159 cnv 15 60 30 empty empty empty 20 12 0 14 -24198 -66577
0;
#N canvas 583 196 410 312 Help 0;
#X obj 6 7 cnv 15 400 160 empty empty empty 20 12 0 14 -233017 -66577
0;
#X text 10 8 Citation;
#X text 15 22 pdp_cog: compute intensity \, center of gravity and standard
deviation. (interpret an image as a gaussian blob).;
#X text 15 49 creation argument is threshold;
#X text 14 76 pdp_cog_abs_thresh: the same \, but takes the absolute
value and performs a thresholding operation;
#X restore 297 166 pd Help;
#X obj 3 359 cnv 15 340 30 empty empty empty 20 12 0 14 -258113 -66577
0;
#X text 7 365 Ne fonctionne pas sous Windows;
#X obj 101 101 cnv 4 10 4 empty empty empty 20 12 0 14 -228856 -66577
0;
#X obj 98 -47 inlet;
#X obj 98 -22 pdp_cog_abs_thresh 0.15;
#X obj 253 104 vsl 10 100 0 0.1 0 0 \$0-A \$0-B empty 0 -9 1 10 -258113
-1 -1 0 0;
#X text 258 205 average;
#X text 251 216 intensity;
#X obj 104 148 hsl 100 10 1 0 0 0 \$0-A \$0-B empty -2 -8 0 10 -262144
-1 -1 0 1;
#X obj 98 4 >;
#X obj 243 104 vsl 10 100 0 0.1 0 1 \$0-A \$0-B empty 0 -9 0 10 -262144
-1 -1 500 0;
#X obj 148 54 float;
#X obj 85 54 float;
#X obj 98 27 sel 1;
#X obj 149 103 vsl 10 100 1 0 0 0 \$0-A \$0-B empty 0 -9 0 10 -262144
-1 -1 0 1;
#X obj 227 103 vsl 10 100 0 1 0 1 \$0-A \$0-B empty 0 -9 0 10 -262144
-1 -1 1900 0;
#X obj 161 105 cnv 10 20 10 empty ColorGEM PDP-CenterGravity 1 5 1
14 -128992 -1 1.04858e+06;
#X obj 101 202 cnv 4 10 4 empty empty empty 20 12 0 14 -1 -66577 0
;
#X obj 274 202 cnv 4 10 4 empty empty empty 20 12 0 14 -1 -66577 0
;
#X obj 190 202 cnv 4 10 4 empty empty empty 20 12 0 14 -1 -66577 0
;
#X obj 91 339 outlet~;
#X obj 170 339 outlet~;
#X obj 253 338 outlet~;
#X obj 162 171 nbx 4 12 0 9999 0 1 \$0-A \$0-B Gliss 40 7 1 9 -228856
-1 -1 50 256;
#X obj 90 317 line~;
#X obj 118 295 int;
#X obj 170 317 line~;
#X obj 198 295 int;
#X obj 253 316 line~;
#X obj 280 294 int;
#X obj 252 248 t f b;
#X text 102 208 X;
#X text 189 207 Y;
#X text 286 97 10 3 2009;
#X obj 90 296 -;
#X msg 79 274 1;
#X obj 79 228 * 2;
#X obj 170 296 -;
#X msg 159 272 1;
#X obj 159 227 * 2;
#X obj 85 77 change;
#X obj 148 77 change;
#X obj 253 77 change;
#X obj 79 251 t b f b;
#X obj 159 249 t b f b;
#X connect 6 0 7 0;
#X connect 7 0 12 0;
#X connect 7 0 45 0;
#X connect 7 1 15 1;
#X connect 7 2 14 1;
#X connect 8 0 33 0;
#X connect 11 0 39 0;
#X connect 12 0 16 0;
#X connect 13 0 12 1;
#X connect 14 0 44 0;
#X connect 15 0 43 0;
#X connect 16 0 14 0;
#X connect 16 0 15 0;
#X connect 17 0 42 0;
#X connect 18 0 7 1;
#X connect 26 0 28 0;
#X connect 26 0 30 0;
#X connect 26 0 32 0;
#X connect 27 0 23 0;
#X connect 28 0 27 1;
#X connect 29 0 24 0;
#X connect 30 0 29 1;
#X connect 31 0 25 0;
#X connect 32 0 31 1;
#X connect 33 0 31 0;
#X connect 33 1 32 0;
#X connect 37 0 27 0;
#X connect 38 0 37 0;
#X connect 39 0 46 0;
#X connect 40 0 29 0;
#X connect 41 0 40 0;
#X connect 42 0 47 0;
#X connect 43 0 11 0;
#X connect 44 0 17 0;
#X connect 45 0 8 0;
#X connect 46 0 38 0;
#X connect 46 1 37 1;
#X connect 46 2 28 0;
#X connect 47 0 41 0;
#X connect 47 1 40 1;
#X connect 47 2 30 0;
#X coords 0 -1 1 1 185 107 1 100 100;
#X restore 480 136 pd ARGO;
