#N canvas 366 158 302 283 10;
#X obj 26 22 *~;
#X obj 25 90 max~;
#X obj 26 64 /~;
#X obj 25 116 min~;
#X text 54 12 -> example ->;
#X obj 141 13 *~ -1;
#X obj 25 142 clip~;
#X text 62 139 -> example ->;
#X obj 146 139 clip~ -1 1;
#X obj 26 168 abs~;
#X text 55 30 -> Voir ExMM4-RingModulation;
#X obj 26 193 lop~ 4000;
#X obj 26 220 hip~ 40;
#X obj 27 247 bp~ 400 10;
#X text 103 191 -> LowPass filter 4000 Hz;
#X text 97 219 -> HighPass filter 40 Hz;
#X text 73 245 -> -> BandPass filter 400 Hz Q= 10;
