#N canvas 108 155 885 530 10;
#X obj -16 72 inlet~;
#X obj 150 73 inlet~;
#X text -21 55 original;
#X text 150 56 delayed;
#X obj 125 187 rfft~;
#X obj 25 188 rfft~;
#X obj 65 297 *~ 1;
#X obj 46 236 rifft~;
#N canvas 399 424 713 396 compl-div 0;
#X obj 129 82 inlet~;
#X obj 180 82 inlet~;
#X obj 341 86 inlet~;
#X obj 392 86 inlet~;
#X obj 213 329 outlet~;
#X obj 263 330 outlet~;
#X obj 129 177 *~;
#X obj 156 177 *~;
#X text 142 65 a;
#X text 184 66 b;
#X text 352 69 c;
#X text 398 68 d;
#X text 151 49 a + jb;
#X text 361 49 c + jd;
#X text 224 346 x;
#X text 276 345 y;
#X text 241 362 x + jy;
#X obj 129 200 +~;
#X obj 328 178 *~;
#X obj 355 178 *~;
#X obj 328 201 -~;
#X obj 456 178 *~;
#X obj 482 178 *~;
#X obj 456 199 +~;
#X obj 443 239 /~;
#X obj 443 220 sig~ 1;
#X obj 263 307 *~;
#X obj 213 306 *~;
#X obj 564 163 sig~ 1.5e-20;
#X connect 0 0 6 0;
#X connect 0 0 19 0;
#X connect 1 0 7 0;
#X connect 1 0 18 0;
#X connect 2 0 6 1;
#X connect 2 0 18 1;
#X connect 2 0 21 1;
#X connect 2 0 21 0;
#X connect 3 0 7 1;
#X connect 3 0 19 1;
#X connect 3 0 22 0;
#X connect 3 0 22 1;
#X connect 6 0 17 0;
#X connect 7 0 17 1;
#X connect 17 0 27 0;
#X connect 18 0 20 0;
#X connect 19 0 20 1;
#X connect 20 0 26 0;
#X connect 21 0 23 0;
#X connect 22 0 23 1;
#X connect 23 0 24 1;
#X connect 24 0 27 1;
#X connect 24 0 26 1;
#X connect 25 0 24 0;
#X connect 26 0 5 0;
#X connect 27 0 4 0;
#X connect 28 0 23 0;
#X restore 46 209 pd compl-div;
#X obj 65 316 abs~;
#X obj 56 444 block~ \$1 1;
#X text 80 425 16384;
#X obj 65 335 pack~;
#X obj 65 353 outlet;
#X obj 129 282 /;
#X msg 129 264 1 \$1;
#X obj 129 245 f \$1;
#X obj 129 226 loadbang;
#X obj 254 307 r t_scope;
#X obj 254 331 tabwrite~ scope;
#X obj 654 236 table \$0_hann;
#X msg 446 154 resize \$1;
#X obj 400 245 -~;
#X obj 400 227 sig~ 1;
#X msg 475 213 0;
#X text 513 18 CALCULATE HANNING;
#X text 513 32 WINDOW TABLE;
#X text 547 153 sample rate / window size;
#X msg 395 149 bang;
#X obj 444 196 samplerate~;
#X obj 444 213 /;
#X obj 400 264 *~ 0.5;
#X obj 444 230 osc~ 0;
#X obj 395 333 tabwrite~ \$0_hann;
#X obj 395 110 f \$1;
#X obj 395 128 t b f f;
#X obj 395 92 loadbang;
#X msg 470 89 bang;
#X obj 138 148 tabreceive~ \$0_hann;
#X obj 38 127 tabreceive~ \$0_hann;
#X obj 586 328 f \$0;
#X floatatom 586 349 4 0 0 0 - - -;
#X msg 586 306 bang;
#X msg 586 390 \; \$1 write hann.dat;
#X obj 586 369 makefilename %d_hann;
#X obj 125 168 *~;
#X obj 25 147 *~;
#X obj 446 174 s \$0_hann;
#X connect 0 0 45 0;
#X connect 1 0 46 0;
#X connect 4 0 8 2;
#X connect 4 1 8 3;
#X connect 5 0 8 0;
#X connect 5 1 8 1;
#X connect 6 0 9 0;
#X connect 7 0 6 0;
#X connect 8 0 7 0;
#X connect 8 1 7 1;
#X connect 9 0 12 0;
#X connect 9 0 19 0;
#X connect 12 0 13 0;
#X connect 14 0 6 1;
#X connect 15 0 14 0;
#X connect 16 0 15 0;
#X connect 17 0 16 0;
#X connect 18 0 19 0;
#X connect 21 0 47 0;
#X connect 22 0 31 0;
#X connect 23 0 22 0;
#X connect 24 0 32 1;
#X connect 28 0 24 0;
#X connect 28 0 33 0;
#X connect 29 0 30 0;
#X connect 30 0 32 0;
#X connect 31 0 33 0;
#X connect 32 0 22 1;
#X connect 34 0 35 0;
#X connect 35 0 29 0;
#X connect 35 0 28 0;
#X connect 35 1 30 1;
#X connect 35 2 21 0;
#X connect 36 0 34 0;
#X connect 37 0 34 0;
#X connect 38 0 45 1;
#X connect 39 0 46 1;
#X connect 40 0 41 0;
#X connect 41 0 44 0;
#X connect 42 0 40 0;
#X connect 44 0 43 0;
#X connect 45 0 4 0;
#X connect 46 0 5 0;
