#N canvas 247 53 811 795 10;
#X declare -path ../in -path ../out -path ../tools -path ../filters
-path ../lib;
#X obj -25 187 cnv 1 396 1 empty empty FILTERS 2 -6 1 12 -228856 -191407
0;
#N canvas 400 311 645 287 INIT 0;
#X obj 240 100 bng 10 250 50 0 empty empty SAVE-AS -45 6 0 9 -260097
-1 -1;
#X obj 103 200 namecanvas \$0-patch-name;
#X obj 100 160 s \$0-patch-name;
#X msg 100 131 menusaveas;
#X obj 220 130 savepanel;
#X obj 220 157 s UPDATE_PATCH;
#X obj 50 33 declare -path ../in -path ../out -path ../tools -path
../filters -path ../lib;
#X text 50 4 Always use this subpatch in the presets;
#X obj 101 101 cnv 8 80 8 empty empty INIT 5 5 0 10 -233017 -66577
0;
#X connect 0 0 3 0;
#X connect 0 0 4 0;
#X connect 3 0 2 0;
#X connect 4 0 5 0;
#X coords 0 -1 1 1 150 10 2 100 100;
#X restore 625 -2 pd INIT;
#X obj -25 354 cnv 1 800 1 empty empty OUT 2 -6 1 12 -228856 -191407
0;
#X obj -25 63 cnv 1 800 1 empty empty IN 2 -6 1 12 -228856 -191407
0;
#X obj -25 187 cnv 1 800 1 empty empty TOOLS 400 -6 1 12 -228856 -191407
0;
#X obj 356 328 synth-drums;
#X obj 467 454 audio-out;
#X obj 63 107 tgl 15 0 empty empty on/off 17 7 0 10 -262144 -1 -1 0
1;
#X floatatom 208 71 5 0 0 2 time - -;
#X msg 63 126 onoff \$1;
#X msg 208 90 time \$1;
#X obj 535 441 audio-disto;
#X obj 536 536 audio-out;
#X obj 536 483 audio-reverb;
#X obj 208 143 seq-sliders;
#X obj 373 143 seq-sliders;
#X obj 541 143 seq-sliders;
#X msg 281 80 seq 0.8 0 0.7 0 0 0.3 0 0.4;
#X msg 406 103 seq 0 0 0 0.3 0.8 0 0 0.3;
#X msg 541 75 seq 0.8 0.5 0.8 0.5 0.8 0.5 0.8 0.5;
#X obj 407 40 loadbang;
#X text 641 447 << distortion !;
#X text 691 495 << reverb !;
#X text 117 233 probabilités >;
#X text 153 211 forte;
#X text 154 255 faible;
#X obj 304 514 audio-pitchshift;
#X obj 334 444 random 50;
#X obj 305 588 audio-out;
#X obj 395 439 random 1000;
#X floatatom 446 408 5 0 0 0 - - -;
#X obj 334 472 fade 500;
#X obj 395 467 fade 100;
#X obj 9 459 synth;
#X obj 10 514 audio-out;
#X obj 10 353 map 0 1 20 55;
#X obj 9 373 gamme;
#X obj 164 460 synth;
#X obj 165 515 audio-out;
#X obj 164 374 gamme;
#X obj 77 597 audio-freeze;
#X obj 229 652 audio-out;
#X obj 165 354 map 0 1 20 55;
#X obj 425 614 audio-pitchshift;
#X obj 426 688 audio-out;
#X connect 5 4 6 0;
#X connect 5 4 6 1;
#X connect 5 4 11 0;
#X connect 5 4 26 0;
#X connect 7 0 9 0;
#X connect 8 0 10 0;
#X connect 9 0 14 0;
#X connect 9 0 15 0;
#X connect 9 0 16 0;
#X connect 10 0 15 0;
#X connect 10 0 16 0;
#X connect 10 0 14 0;
#X connect 11 0 13 0;
#X connect 11 0 43 0;
#X connect 13 0 12 0;
#X connect 13 1 12 1;
#X connect 14 0 35 0;
#X connect 14 1 5 0;
#X connect 14 1 29 0;
#X connect 15 1 5 1;
#X connect 15 1 27 0;
#X connect 16 0 42 0;
#X connect 16 1 5 2;
#X connect 17 0 14 0;
#X connect 18 0 15 0;
#X connect 19 0 16 0;
#X connect 20 0 17 0;
#X connect 20 0 18 0;
#X connect 20 0 19 0;
#X connect 26 0 28 0;
#X connect 26 0 28 1;
#X connect 27 0 31 0;
#X connect 29 0 32 0;
#X connect 30 0 29 1;
#X connect 31 0 26 1;
#X connect 32 0 26 2;
#X connect 33 0 34 0;
#X connect 33 0 34 1;
#X connect 34 0 40 0;
#X connect 35 0 36 0;
#X connect 36 0 33 0;
#X connect 37 0 38 0;
#X connect 37 0 38 1;
#X connect 37 0 26 0;
#X connect 38 0 40 0;
#X connect 39 0 37 0;
#X connect 40 0 41 0;
#X connect 40 0 41 1;
#X connect 40 0 11 0;
#X connect 42 0 39 0;
#X connect 43 0 44 0;
#X connect 43 0 44 1;
