#N canvas 1415 461 796 402 10;
#X text 130 144 open_close_EDIT;
#X msg 108 129 1;
#X obj 11 11 cnv 15 63 198 empty empty REV 2 10 0 12 -228992 -66577
0;
#X obj 16 42 tgl 15 0 \$0_ON_fromgui \$0_ON_togui ON 0 -6 0 8 -233017
-1 -1 0 1;
#X obj 44 42 bng 15 250 50 0 \$0sEDIT \$0rEDIT EDIT 0 -6 0 8 -62784
-1 -1;
#X obj 317 29 r \$0_AUXSRC_fromgui;
#X obj 317 48 route list;
#X obj 317 72 unpack 0 s;
#X obj 318 98 uglifysymbol;
#X obj 318 144 beautifysymbol;
#X obj 318 188 s \$0_AUXSRC_togui;
#X msg 318 166 set \$1;
#X text 266 1 Reverb from Thomas Musil \, IEM mono to quad;
#X obj 318 121 sendreceive /EXT/REV/SRC;
#X obj 203 213 gui_sr_offset \$0_ON /EXT/REV/ON 0;
#X obj 121 236 sendreceive /EXT/REV/PARAM;
#X obj 55 68 vfad_scale -1;
#X obj 13 107 cnv 2 40 2 empty empty empty 20 12 0 14 -1 -66577 0;
#X obj 19 64 vsl 30 131 0 130 0 0 \$0_rev_vol_gui \$0_rev_vol_gui -inf
1 140 0 8 -233017 -1 -1 0 1;
#X text 127 293 should load send PBANK File;
#X obj 499 67 route float;
#X obj 579 274 - 100;
#X msg 500 335 label \$1;
#X msg 500 313 symbol -inf;
#X obj 499 174 max 0;
#X obj 499 195 select 0 100;
#X obj 539 253 makefilename %03d;
#X msg 539 232 0;
#X obj 579 293 makefilename %+03d;
#X obj 499 134 t f f;
#X obj 499 111 fadtodb;
#X obj 590 216 dbtofad;
#X obj 499 46 r \$0_rev_vol_gui;
#X obj 590 195 sendreceive /EXT/REV/GAIN;
#X obj 500 358 s \$0_rev_vol_gui;
#X obj 121 186 REV/REV/room_EDIT 12;
#X connect 1 0 35 0;
#X connect 4 0 1 0;
#X connect 5 0 6 0;
#X connect 6 0 7 0;
#X connect 7 1 8 0;
#X connect 8 0 13 0;
#X connect 9 0 11 0;
#X connect 11 0 10 0;
#X connect 13 0 9 0;
#X connect 20 0 30 0;
#X connect 21 0 28 0;
#X connect 22 0 34 0;
#X connect 23 0 22 0;
#X connect 24 0 25 0;
#X connect 25 0 23 0;
#X connect 25 1 27 0;
#X connect 25 2 21 0;
#X connect 26 0 22 0;
#X connect 27 0 26 0;
#X connect 28 0 22 0;
#X connect 29 0 24 0;
#X connect 29 1 33 0;
#X connect 30 0 29 0;
#X connect 31 0 34 0;
#X connect 32 0 20 0;
#X connect 33 0 31 0;
#X connect 35 0 15 0;
#X coords 0 -1 1 1 65 200 1 10 10;
