#N canvas -8 -8 1366 693 12;
#X declare -lib Gem;
#X declare -lib zexy;
#X obj 37 232 gemwin;
#N canvas 661 23 699 654 display 0;
#X obj 129 34 gemhead;
#N canvas 0 23 1360 654 nrepeat 0;
#N canvas 782 802 450 257 stack 0;
#X obj 11 9 inlet;
#X text 25 9 pop;
#X obj 56 9 inlet;
#X text 71 9 push;
#X obj 11 20 t b b;
#X obj 11 52 list prepend;
#X msg 31 44 0;
#X msg 42 44 1;
#X obj 11 61 route 0 1;
#X obj 11 83 list split 1;
#X obj 11 98 outlet;
#X obj 11 34 list;
#X text 28 98 popped;
#X obj 56 98 outlet;
#X text 73 98 empty;
#X obj 56 18 t b a b;
#X obj 38 72 list prepend;
#X obj 41 61 print stack-internal-error;
#X text 9 108 stack.pd (GPL) <claudiusmaximus@goto10.org>;
#X connect 0 0 4 0;
#X connect 2 0 15 0;
#X connect 4 0 11 0;
#X connect 4 1 6 0;
#X connect 5 0 8 0;
#X connect 6 0 5 1;
#X connect 7 0 5 1;
#X connect 8 0 9 0;
#X connect 8 1 16 0;
#X connect 8 2 17 0;
#X connect 9 0 10 0;
#X connect 9 1 11 1;
#X connect 9 2 13 0;
#X connect 11 0 5 0;
#X connect 15 0 11 0;
#X connect 15 1 16 1;
#X connect 15 2 7 0;
#X connect 16 0 11 1;
#X restore -20 240 pd stack;
#X obj -5 75 inlet;
#X obj -4 107 t b a b;
#X obj -3 155 repeat \$1;
#X obj 67 58 inlet;
#X msg 73 148 0;
#X msg 193 134 0;
#X obj -72 159 t b b;
#X obj 36 188 t a b;
#X obj 110 144 t b b;
#X msg 156 169 1;
#X obj 213 313 list prepend;
#X obj 213 322 route 0 1;
#X text 211 327 nop;
#X obj 222 330 t f f;
#X obj 246 111 + 1;
#X obj 239 399 outlet;
#X obj 74 248 outlet;
#X obj 243 323 print nrepeat-stack-underflow;
#X obj 243 332 print nrepeat-internal-error;
#X text -9 43 repeatee;
#X text 87 75 count;
#X text -27 138 repeated;
#X text 221 349 counter;
#X text 193 361 nrepeat.pd (GPL) <claudiusmaximus@goto10.org>;
#X connect 0 0 11 0;
#X connect 0 1 11 1;
#X connect 1 0 2 0;
#X connect 2 0 7 0;
#X connect 2 1 3 0;
#X connect 2 2 5 0;
#X connect 3 0 8 0;
#X connect 4 0 3 1;
#X connect 5 0 0 1;
#X connect 6 0 11 1;
#X connect 7 0 0 0;
#X connect 7 1 6 0;
#X connect 8 0 17 0;
#X connect 8 1 9 0;
#X connect 9 0 0 0;
#X connect 9 1 10 0;
#X connect 10 0 11 1;
#X connect 11 0 12 0;
#X connect 12 1 14 0;
#X connect 12 2 19 0;
#X connect 14 0 16 0;
#X connect 14 1 15 0;
#X connect 15 0 0 1;
#X restore 207 121 pd nrepeat;
#X obj 220 162 separator;
#X obj 333 8 r l;
#X msg 308 41 100;
#X obj 152 325 r l;
#X obj 373 4 r total;
#X obj 196 90 rotateXYZ;
#X obj 229 28 inlet;
#X floatatom 386 34 5 0 0 0 - - -;
#X obj 241 559 curve 5;
#N canvas 0 0 1411 772 coord 0;
#X obj 512 219 r scale;
#X obj 528 244 r Xscroll;
#X obj 534 273 r Yscroll;
#X obj 427 187 sin;
#X obj 426 227 *;
#X obj 469 225 *;
#X obj 470 191 cos;
#X obj 464 104 t f f;
#X obj 419 269 *;
#X obj 468 267 *;
#X obj 423 298 +;
#X obj 464 293 +;
#X obj 478 157 tabread lengthsX;
#X obj 465 133 tabread anglesX;
#X obj 484 -22 t f f;
#X obj 534 0 /;
#X obj 534 26 i;
#X obj 458 60 +;
#X obj 530 50 + 1;
#X obj 429 331 pack f f f;
#X obj 596 -49 r total;
#X obj 546 -49 inlet;
#X obj 576 -8 *;
#X obj 388 -43 inlet;
#X obj 429 356 outlet;
#X obj 534 77 * 0.5;
#X obj 584 76 r depth;
#X connect 0 0 8 1;
#X connect 0 0 9 1;
#X connect 1 0 10 1;
#X connect 2 0 11 1;
#X connect 3 0 4 0;
#X connect 4 0 8 0;
#X connect 5 0 9 0;
#X connect 6 0 5 0;
#X connect 7 0 13 0;
#X connect 7 1 12 0;
#X connect 8 0 10 0;
#X connect 9 0 11 0;
#X connect 10 0 19 0;
#X connect 11 0 19 1;
#X connect 12 0 4 1;
#X connect 12 0 5 1;
#X connect 13 0 6 0;
#X connect 13 0 3 0;
#X connect 14 0 17 0;
#X connect 14 1 15 0;
#X connect 15 0 16 0;
#X connect 16 0 18 0;
#X connect 17 0 7 0;
#X connect 18 0 25 0;
#X connect 19 0 24 0;
#X connect 20 0 22 1;
#X connect 20 0 15 1;
#X connect 21 0 22 0;
#X connect 21 0 18 1;
#X connect 22 0 17 1;
#X connect 23 0 14 0;
#X connect 25 0 19 2;
#X connect 26 0 25 1;
#X restore 313 251 pd coord;
#X msg 344 224 0;
#X obj 304 200 t f b;
#X obj 375 197 t f b;
#X obj 444 195 t f b;
#X obj 518 192 t f b;
#X obj 588 195 t f b;
#X msg 628 219 4;
#X msg 558 216 3;
#X msg 484 219 2;
#X msg 415 221 1;
#X msg 277 2 1;
#X msg 152 350 draw linestrip;
#X obj 300 108 t f f f f f f;
#X obj 232 465 colorRGB 1 1 1;
#X obj 286 386 tabread lengthsX;
#X obj 415 387 tabread lengthsX;
#X obj 538 390 tabread lengthsX;
#X obj 416 359 +;
#X obj 544 357 +;
#X floatatom 515 483 5 0 0 0 - - -;
#X obj 515 418 * 0.5;
#X obj 392 415 * 0.5;
#X obj 263 414 * 0.5;
#X obj 435 323 * 2;
#X obj 563 321 * 4;
#N canvas 0 0 1411 772 coord 0;
#X obj 512 219 r scale;
#X obj 528 244 r Xscroll;
#X obj 534 273 r Yscroll;
#X obj 427 187 sin;
#X obj 426 227 *;
#X obj 469 225 *;
#X obj 470 191 cos;
#X obj 464 104 t f f;
#X obj 419 269 *;
#X obj 468 267 *;
#X obj 423 298 +;
#X obj 464 293 +;
#X obj 478 157 tabread lengthsX;
#X obj 465 133 tabread anglesX;
#X obj 484 -22 t f f;
#X obj 534 0 /;
#X obj 534 26 i;
#X obj 458 60 +;
#X obj 530 50 + 1;
#X obj 429 331 pack f f f;
#X obj 596 -49 r total;
#X obj 546 -49 inlet;
#X obj 576 -8 *;
#X obj 388 -43 inlet;
#X obj 429 356 outlet;
#X obj 534 77 * 0.5;
#X obj 584 76 r depth;
#X connect 0 0 8 1;
#X connect 0 0 9 1;
#X connect 1 0 10 1;
#X connect 2 0 11 1;
#X connect 3 0 4 0;
#X connect 4 0 8 0;
#X connect 5 0 9 0;
#X connect 6 0 5 0;
#X connect 7 0 13 0;
#X connect 7 1 12 0;
#X connect 8 0 10 0;
#X connect 9 0 11 0;
#X connect 10 0 19 0;
#X connect 11 0 19 1;
#X connect 12 0 4 1;
#X connect 12 0 5 1;
#X connect 13 0 6 0;
#X connect 13 0 3 0;
#X connect 14 0 17 0;
#X connect 14 1 15 0;
#X connect 15 0 16 0;
#X connect 16 0 18 0;
#X connect 17 0 7 0;
#X connect 18 0 25 0;
#X connect 19 0 24 0;
#X connect 20 0 22 1;
#X connect 20 0 15 1;
#X connect 21 0 22 0;
#X connect 21 0 18 1;
#X connect 22 0 17 1;
#X connect 23 0 14 0;
#X connect 25 0 19 2;
#X connect 26 0 25 1;
#X restore 384 254 pd coord;
#N canvas 0 0 1411 772 coord 0;
#X obj 512 219 r scale;
#X obj 528 244 r Xscroll;
#X obj 534 273 r Yscroll;
#X obj 427 187 sin;
#X obj 426 227 *;
#X obj 469 225 *;
#X obj 470 191 cos;
#X obj 464 104 t f f;
#X obj 419 269 *;
#X obj 468 267 *;
#X obj 423 298 +;
#X obj 464 293 +;
#X obj 478 157 tabread lengthsX;
#X obj 465 133 tabread anglesX;
#X obj 484 -22 t f f;
#X obj 534 0 /;
#X obj 534 26 i;
#X obj 458 60 +;
#X obj 530 50 + 1;
#X obj 429 331 pack f f f;
#X obj 596 -49 r total;
#X obj 546 -49 inlet;
#X obj 576 -8 *;
#X obj 388 -43 inlet;
#X obj 429 356 outlet;
#X obj 534 77 * 0.5;
#X obj 584 76 r depth;
#X connect 0 0 8 1;
#X connect 0 0 9 1;
#X connect 1 0 10 1;
#X connect 2 0 11 1;
#X connect 3 0 4 0;
#X connect 4 0 8 0;
#X connect 5 0 9 0;
#X connect 6 0 5 0;
#X connect 7 0 13 0;
#X connect 7 1 12 0;
#X connect 8 0 10 0;
#X connect 9 0 11 0;
#X connect 10 0 19 0;
#X connect 11 0 19 1;
#X connect 12 0 4 1;
#X connect 12 0 5 1;
#X connect 13 0 6 0;
#X connect 13 0 3 0;
#X connect 14 0 17 0;
#X connect 14 1 15 0;
#X connect 15 0 16 0;
#X connect 16 0 18 0;
#X connect 17 0 7 0;
#X connect 18 0 25 0;
#X connect 19 0 24 0;
#X connect 20 0 22 1;
#X connect 20 0 15 1;
#X connect 21 0 22 0;
#X connect 21 0 18 1;
#X connect 22 0 17 1;
#X connect 23 0 14 0;
#X connect 25 0 19 2;
#X connect 26 0 25 1;
#X restore 455 249 pd coord;
#N canvas 0 0 1411 772 coord 0;
#X obj 512 219 r scale;
#X obj 528 244 r Xscroll;
#X obj 534 273 r Yscroll;
#X obj 427 187 sin;
#X obj 426 227 *;
#X obj 469 225 *;
#X obj 470 191 cos;
#X obj 464 104 t f f;
#X obj 419 269 *;
#X obj 468 267 *;
#X obj 423 298 +;
#X obj 464 293 +;
#X obj 478 157 tabread lengthsX;
#X obj 465 133 tabread anglesX;
#X obj 484 -22 t f f;
#X obj 534 0 /;
#X obj 534 26 i;
#X obj 458 60 +;
#X obj 530 50 + 1;
#X obj 429 331 pack f f f;
#X obj 596 -49 r total;
#X obj 546 -49 inlet;
#X obj 576 -8 *;
#X obj 388 -43 inlet;
#X obj 429 356 outlet;
#X obj 534 77 * 0.5;
#X obj 584 76 r depth;
#X connect 0 0 8 1;
#X connect 0 0 9 1;
#X connect 1 0 10 1;
#X connect 2 0 11 1;
#X connect 3 0 4 0;
#X connect 4 0 8 0;
#X connect 5 0 9 0;
#X connect 6 0 5 0;
#X connect 7 0 13 0;
#X connect 7 1 12 0;
#X connect 8 0 10 0;
#X connect 9 0 11 0;
#X connect 10 0 19 0;
#X connect 11 0 19 1;
#X connect 12 0 4 1;
#X connect 12 0 5 1;
#X connect 13 0 6 0;
#X connect 13 0 3 0;
#X connect 14 0 17 0;
#X connect 14 1 15 0;
#X connect 15 0 16 0;
#X connect 16 0 18 0;
#X connect 17 0 7 0;
#X connect 18 0 25 0;
#X connect 19 0 24 0;
#X connect 20 0 22 1;
#X connect 20 0 15 1;
#X connect 21 0 22 0;
#X connect 21 0 18 1;
#X connect 22 0 17 1;
#X connect 23 0 14 0;
#X connect 25 0 19 2;
#X connect 26 0 25 1;
#X restore 524 243 pd coord;
#N canvas 0 0 1411 772 coord 0;
#X obj 512 219 r scale;
#X obj 528 244 r Xscroll;
#X obj 534 273 r Yscroll;
#X obj 427 187 sin;
#X obj 426 227 *;
#X obj 469 225 *;
#X obj 470 191 cos;
#X obj 464 104 t f f;
#X obj 419 269 *;
#X obj 468 267 *;
#X obj 423 298 +;
#X obj 464 293 +;
#X obj 478 157 tabread lengthsX;
#X obj 465 133 tabread anglesX;
#X obj 484 -22 t f f;
#X obj 534 0 /;
#X obj 534 26 i;
#X obj 458 60 +;
#X obj 530 50 + 1;
#X obj 429 331 pack f f f;
#X obj 596 -49 r total;
#X obj 546 -49 inlet;
#X obj 576 -8 *;
#X obj 388 -43 inlet;
#X obj 429 356 outlet;
#X obj 534 77 * 0.5;
#X obj 584 76 r depth;
#X connect 0 0 8 1;
#X connect 0 0 9 1;
#X connect 1 0 10 1;
#X connect 2 0 11 1;
#X connect 3 0 4 0;
#X connect 4 0 8 0;
#X connect 5 0 9 0;
#X connect 6 0 5 0;
#X connect 7 0 13 0;
#X connect 7 1 12 0;
#X connect 8 0 10 0;
#X connect 9 0 11 0;
#X connect 10 0 19 0;
#X connect 11 0 19 1;
#X connect 12 0 4 1;
#X connect 12 0 5 1;
#X connect 13 0 6 0;
#X connect 13 0 3 0;
#X connect 14 0 17 0;
#X connect 14 1 15 0;
#X connect 15 0 16 0;
#X connect 16 0 18 0;
#X connect 17 0 7 0;
#X connect 18 0 25 0;
#X connect 19 0 24 0;
#X connect 20 0 22 1;
#X connect 20 0 15 1;
#X connect 21 0 22 0;
#X connect 21 0 18 1;
#X connect 22 0 17 1;
#X connect 23 0 14 0;
#X connect 25 0 19 2;
#X connect 26 0 25 1;
#X restore 595 248 pd coord;
#X obj 138 66 polygon_smooth;
#X floatatom 74 172 2 0 0 0 - - -;
#X obj 74 136 hradio 15 1 1 3 empty empty empty 0 -6 0 8 -262144 -1
-1 2;
#X obj 74 153 - 1;
#X msg 38 534 draw line;
#X msg 38 489 draw fill;
#X msg 38 511 draw point;
#X msg 38 554 draw linestrip;
#X msg 38 574 draw tri;
#X msg 38 596 draw tristrip;
#X msg 37 619 draw trifan;
#X msg 37 640 draw quad;
#X msg 37 662 draw quadstrip;
#X connect 0 0 41 0;
#X connect 1 0 2 0;
#X connect 1 1 24 0;
#X connect 2 0 25 0;
#X connect 3 0 4 0;
#X connect 4 0 1 1;
#X connect 5 0 23 0;
#X connect 6 0 9 0;
#X connect 6 0 1 1;
#X connect 6 0 35 0;
#X connect 6 0 36 0;
#X connect 7 0 1 0;
#X connect 8 0 7 2;
#X connect 11 0 10 1;
#X connect 12 0 11 1;
#X connect 13 0 11 0;
#X connect 13 1 12 0;
#X connect 14 0 37 0;
#X connect 14 1 21 0;
#X connect 15 0 38 0;
#X connect 15 1 20 0;
#X connect 16 0 39 0;
#X connect 16 1 19 0;
#X connect 17 0 40 0;
#X connect 17 1 18 0;
#X connect 18 0 40 1;
#X connect 19 0 39 1;
#X connect 20 0 38 1;
#X connect 21 0 37 1;
#X connect 22 0 1 1;
#X connect 23 0 10 0;
#X connect 24 0 13 0;
#X connect 24 1 14 0;
#X connect 24 2 15 0;
#X connect 24 3 16 0;
#X connect 24 4 17 0;
#X connect 24 5 26 0;
#X connect 24 5 29 0;
#X connect 24 5 30 0;
#X connect 25 0 10 0;
#X connect 26 0 34 0;
#X connect 27 0 33 0;
#X connect 28 0 32 0;
#X connect 29 0 27 0;
#X connect 30 0 28 0;
#X connect 31 0 32 1;
#X connect 32 0 25 3;
#X connect 33 0 25 2;
#X connect 34 0 25 1;
#X connect 35 0 29 1;
#X connect 36 0 30 1;
#X connect 41 0 7 0;
#X connect 42 0 41 0;
#X connect 43 0 44 0;
#X connect 44 0 42 0;
#X connect 45 0 10 0;
#X connect 46 0 10 0;
#X connect 47 0 10 0;
#X connect 48 0 10 0;
#X connect 49 0 10 0;
#X connect 50 0 10 0;
#X connect 51 0 10 0;
#X connect 52 0 10 0;
#X connect 53 0 10 0;
#X restore 48 677 pd display;
#X obj 324 116 vsl 40 400 0 10 0 0 empty empty empty 0 -9 0 10 -262144
-1 -1 3990 1;
#X obj 326 571 s scale;
#X obj 267 116 vsl 40 400 -5 5 0 0 empty empty empty 0 -9 0 10 -262144
-1 -1 19950 1;
#X obj 211 116 vsl 40 400 -5 5 0 0 empty empty empty 0 -9 0 10 -262144
-1 -1 19950 1;
#X obj 165 574 s Xscroll;
#X obj 250 571 s Yscroll;
#X floatatom 336 536 5 0 0 0 - - -;
#N canvas 0 0 1411 772 one 0;
#N canvas 0 0 3200 1615 invjulia 0;
#X obj 359 174 sin;
#X obj 360 234 *;
#X obj 411 228 *;
#X obj 410 169 cos;
#X obj 361 287 +;
#X obj 414 285 +;
#X obj 363 413 /;
#X obj 411 414 /;
#X obj 361 458 asin;
#X obj 469 326 *;
#X obj 511 325 *;
#X obj 412 337 t f f;
#X obj 347 337 t b f f;
#X obj 361 379 f;
#X obj 405 381 f;
#X obj 517 397 +;
#X obj 494 441 sqrt;
#X obj 424 37 t b b;
#X obj 315 29 f;
#X obj 575 48 f;
#X obj 424 18 bng 15 250 50 0 empty empty empty 17 7 0 10 -262144 -1
-1;
#X obj 320 -13 inlet;
#X obj 576 0 inlet;
#X obj 74 465 outlet;
#X obj 620 478 outlet;
#X obj 226 -8 inlet;
#X obj 620 198 r cy;
#X obj 553 198 r cx;
#X obj 486 -2 bng 15 250 50 0 empty empty empty 17 7 0 10 -262144 -1
-1;
#X msg 333 6 3;
#X msg 623 25 3;
#X obj 478 13 Uzi 1;
#X obj 225 148 t f b;
#X obj 254 179 pi;
#X obj 248 216 / 2;
#X obj 224 245 /;
#X obj 328 103 t f f f;
#X obj 221 297 i;
#X obj 224 400 pi;
#X obj 226 426 / 2;
#X obj 242 453 -;
#X obj 256 404 t b f;
#X obj 190 457 +;
#X obj 247 380 f;
#X obj 210 377 f;
#X obj 68 284 pi;
#X obj 33 334 +;
#X obj 70 271 bng 15 250 50 0 empty empty empty 17 7 0 10 -262144 -1
-1;
#X obj 60 316 * 2;
#X obj 41 227 f;
#X obj 39 247 t f b;
#X obj 199 344 select 0 1 2 3 4;
#X obj 325 84 / 1;
#X obj 577 85 + 0;
#X obj 75 434 / 2;
#X obj 573 475 sqrt;
#X connect 0 0 1 0;
#X connect 1 0 4 0;
#X connect 2 0 5 0;
#X connect 3 0 2 0;
#X connect 4 0 12 0;
#X connect 5 0 11 0;
#X connect 6 0 8 0;
#X connect 8 0 43 1;
#X connect 8 0 49 1;
#X connect 8 0 44 1;
#X connect 9 0 15 0;
#X connect 10 0 15 1;
#X connect 11 0 10 1;
#X connect 11 0 10 0;
#X connect 11 1 14 1;
#X connect 12 0 14 0;
#X connect 12 0 13 0;
#X connect 12 1 9 1;
#X connect 12 1 9 0;
#X connect 12 2 13 1;
#X connect 13 0 6 0;
#X connect 14 0 7 0;
#X connect 15 0 16 0;
#X connect 16 0 7 1;
#X connect 16 0 6 1;
#X connect 16 0 55 0;
#X connect 17 0 18 0;
#X connect 17 1 19 0;
#X connect 18 0 52 0;
#X connect 19 0 53 0;
#X connect 20 0 17 0;
#X connect 21 0 18 1;
#X connect 22 0 19 1;
#X connect 25 0 31 0;
#X connect 26 0 5 1;
#X connect 27 0 4 1;
#X connect 28 0 31 0;
#X connect 29 0 18 1;
#X connect 30 0 19 1;
#X connect 31 0 17 0;
#X connect 32 0 35 0;
#X connect 32 1 33 0;
#X connect 33 0 34 0;
#X connect 34 0 35 1;
#X connect 35 0 37 0;
#X connect 36 0 32 0;
#X connect 36 1 0 0;
#X connect 36 2 3 0;
#X connect 37 0 51 0;
#X connect 38 0 39 0;
#X connect 39 0 42 1;
#X connect 39 0 40 0;
#X connect 40 0 42 0;
#X connect 41 0 38 0;
#X connect 41 1 40 1;
#X connect 42 0 54 0;
#X connect 43 0 41 0;
#X connect 44 0 54 0;
#X connect 45 0 48 0;
#X connect 46 0 54 0;
#X connect 47 0 45 0;
#X connect 48 0 46 1;
#X connect 49 0 50 0;
#X connect 50 0 46 0;
#X connect 50 1 47 0;
#X connect 51 0 44 0;
#X connect 51 1 43 0;
#X connect 51 2 43 0;
#X connect 51 3 49 0;
#X connect 51 4 49 0;
#X connect 52 0 36 0;
#X connect 53 0 2 1;
#X connect 53 0 1 1;
#X connect 54 0 18 1;
#X connect 54 0 23 0;
#X connect 55 0 19 1;
#X connect 55 0 24 0;
#X restore 84 367 pd invjulia;
#X obj 93 339 bng 15 250 50 0 empty empty empty 17 7 0 10 -262144 -1
-1;
#X obj 108 160 counter;
#X obj 94 124 Uzi 100;
#X obj 100 95 bng 15 250 50 0 empty empty empty 17 7 0 10 -262144 -1
-1;
#X obj 131 265 tabread angles;
#X obj 241 267 tabread lengths;
#X obj 111 196 t b f;
#X obj 84 411 tabwrite angles;
#X obj 198 411 tabwrite lengths;
#X obj 598 113 counter;
#X obj 598 89 Uzi 100;
#X obj 603 60 bng 15 250 50 0 empty empty empty 17 7 0 10 -262144 -1
-1;
#X obj 583 375 tabwrite angles;
#X obj 713 332 tabwrite lengths;
#X obj 670 92 s cx;
#X obj 702 93 s cy;
#X obj 175 78 counter;
#X obj 132 64 bng 15 250 50 0 empty empty empty 17 7 0 10 -262144 -1
-1;
#X obj 676 543 Uzi;
#X obj 687 523 bng 15 250 50 0 empty empty empty 17 7 0 10 -262144
-1 -1;
#X obj 677 572 counter;
#X obj 722 495 pow;
#X obj 724 527 * 100;
#X obj 676 594 tabread lengths;
#X obj 776 575 +;
#X obj 699 615 tabwrite lengths;
#X obj 827 522 tabread angles;
#X obj 821 572 tabwrite angles;
#X msg 725 468 2;
#X obj 680 422 t b b f;
#X msg 589 521 100;
#X obj 752 451 - 0;
#X obj 218 215 f;
#X obj 104 73 t b b b;
#X obj 883 547 pi;
#X obj 824 547 +;
#X obj 842 484 bng 15 250 50 0 empty empty empty 17 7 0 10 -262144
-1 -1;
#X obj 292 207 pow;
#X obj 295 239 * 100;
#X msg 296 180 2;
#X obj 323 164 - 0;
#X obj 563 562 * 2;
#X obj 735 26 t b b b b;
#X obj 733 -9 bng 15 250 50 0 empty empty empty 17 7 0 10 -262144 -1
-1;
#X obj 674 67 f;
#X obj 708 67 f;
#X floatatom 660 35 5 0 0 0 - - -;
#X floatatom 687 18 5 0 0 0 - - -;
#X obj 565 591 s total;
#X obj 770 84 Uzi 3;
#X obj 878 9 inlet;
#X obj 927 13 inlet;
#X obj 976 15 inlet;
#X obj 493 -10 inlet;
#X obj 250 115 t f f;
#X obj 617 199 / 10;
#X obj 617 219 i;
#X obj 614 240 * 10;
#X obj 596 140 t f f;
#X obj 581 181 t f f;
#X obj 586 264 -;
#X obj 584 291 / 10;
#X obj 685 262 / 100;
#X obj 580 320 * 6.28;
#X obj 610 349 / 100;
#X obj 580 344 -;
#X obj 132 232 t f f f;
#X connect 0 0 8 0;
#X connect 0 1 9 0;
#X connect 1 0 0 0;
#X connect 2 0 7 0;
#X connect 3 0 2 0;
#X connect 4 0 2 2;
#X connect 4 0 3 0;
#X connect 5 0 0 1;
#X connect 6 0 0 2;
#X connect 7 0 1 0;
#X connect 7 1 67 0;
#X connect 10 0 59 0;
#X connect 11 0 10 0;
#X connect 12 0 10 2;
#X connect 12 0 11 0;
#X connect 12 0 17 2;
#X connect 12 0 31 0;
#X connect 17 0 55 0;
#X connect 18 0 34 0;
#X connect 19 0 21 0;
#X connect 20 0 21 2;
#X connect 20 0 19 0;
#X connect 21 0 25 0;
#X connect 21 0 24 0;
#X connect 21 0 27 0;
#X connect 22 0 23 0;
#X connect 23 0 19 1;
#X connect 23 0 25 1;
#X connect 23 0 42 0;
#X connect 24 0 26 0;
#X connect 25 0 26 1;
#X connect 25 0 28 1;
#X connect 27 0 36 0;
#X connect 29 0 22 0;
#X connect 30 0 20 0;
#X connect 30 1 20 0;
#X connect 30 2 32 0;
#X connect 30 2 37 0;
#X connect 31 0 49 0;
#X connect 32 0 22 1;
#X connect 32 0 29 0;
#X connect 33 0 30 0;
#X connect 34 0 33 0;
#X connect 34 1 4 0;
#X connect 34 2 17 0;
#X connect 35 0 36 1;
#X connect 36 0 28 0;
#X connect 37 0 35 0;
#X connect 38 0 39 0;
#X connect 39 0 3 1;
#X connect 40 0 38 0;
#X connect 41 0 38 1;
#X connect 41 0 40 0;
#X connect 42 0 49 0;
#X connect 43 0 50 0;
#X connect 43 1 12 0;
#X connect 43 2 46 0;
#X connect 43 3 45 0;
#X connect 44 0 43 0;
#X connect 45 0 15 0;
#X connect 46 0 16 0;
#X connect 47 0 45 1;
#X connect 48 0 46 1;
#X connect 50 0 18 0;
#X connect 51 0 47 0;
#X connect 52 0 48 0;
#X connect 53 0 50 1;
#X connect 54 0 44 0;
#X connect 55 0 41 0;
#X connect 55 1 33 1;
#X connect 56 0 57 0;
#X connect 57 0 58 0;
#X connect 58 0 61 1;
#X connect 58 0 63 0;
#X connect 59 0 60 0;
#X connect 59 1 13 1;
#X connect 59 1 14 1;
#X connect 59 1 65 0;
#X connect 60 0 61 0;
#X connect 60 1 56 0;
#X connect 61 0 62 0;
#X connect 62 0 64 0;
#X connect 63 0 14 0;
#X connect 64 0 66 0;
#X connect 65 0 66 1;
#X connect 66 0 13 0;
#X connect 67 0 5 0;
#X connect 67 1 6 0;
#X connect 67 2 9 1;
#X connect 67 2 8 1;
#X restore 806 445 pd one;
#X floatatom 791 381 5 0 0 0 - - -;
#X floatatom 833 379 5 0 0 0 - - -;
#X floatatom 879 377 5 0 0 0 - - -;
#X obj 46 649 counter;
#X obj 51 598 tgl 15 0 empty empty empty 17 7 0 10 -262144 -1 -1 0
1;
#X obj 52 619 metro 25;
#X msg 119 637 0;
#N canvas 0 0 1411 772 arrays 0;
#N canvas 0 0 450 300 (subpatch) 0;
#X array angles 6e+006 float 2;
#X coords 0 100 6e+006 0 200 140 1;
#X restore 260 -271 graph;
#N canvas 0 0 450 300 (subpatch) 0;
#X array lengths 6e+006 float 2;
#X coords 0 10 6e+006 0 200 140 1;
#X restore 287 -101 graph;
#N canvas 0 0 450 300 (subpatch) 0;
#X array anglesX 6e+006 float 2;
#X coords 0 100 6e+006 0 200 140 1;
#X restore 519 -319 graph;
#N canvas 0 0 450 300 (subpatch) 0;
#X array lengthsX 6e+006 float 2;
#X coords 0 10 6e+006 0 200 140 1;
#X restore 546 -149 graph;
#X restore 34 703 pd arrays;
#X msg 309 77 1;
#X obj 240 29 loadbang;
#X obj 662 365 r total;
#X obj 507 334 Uzi;
#X obj 507 362 counter;
#X obj 504 302 t b b;
#X obj 502 271 bng 15 250 50 0 empty empty empty 17 7 0 10 -262144
-1 -1;
#X obj 508 396 t f f;
#X obj 625 438 +;
#X obj 641 405 *;
#X obj 504 438 tabread angles;
#X obj 503 476 tabwrite anglesX;
#X obj 505 517 tabread lengths;
#X obj 504 555 tabwrite lengthsX;
#X obj 683 72 bng 15 250 50 0 empty empty empty 17 7 0 10 -262144 -1
-1;
#X obj 686 163 counter;
#X obj 682 97 t b b;
#X obj 760 385 bng 15 250 50 0 empty empty empty 17 7 0 10 -262144
-1 -1;
#X obj 685 129 Uzi 5;
#X obj 686 192 t b f;
#X obj 803 239 t f f b;
#X obj 759 212 t b f;
#X obj 823 297 + -0;
#X obj 775 299 + 0;
#X obj 775 272 * 0.2;
#X obj 823 270 * -0.2;
#X obj 629 30 metro 50;
#X obj 576 36 tgl 15 0 empty empty empty 17 7 0 10 -262144 -1 -1 0
1;
#X floatatom 798 149 5 0 0 0 - - -;
#X floatatom 850 160 5 0 0 0 - - -;
#X floatatom 873 233 5 0 0 0 - - -;
#X floatatom 818 207 5 0 0 0 - - -;
#X obj 816 112 - 16;
#X obj 817 87 * 20;
#X obj 816 58 line;
#X msg 829 27 1 5000;
#X msg 765 28 0 5000;
#X floatatom 68 491 5 0 0 0 - - -;
#X obj 52 526 s depth;
#X msg 880 297 4;
#X msg 231 76 0;
#X obj 1103 33 declare -lib Gem;
#X msg 26 205 create \, 1;
#X msg 100 241 0 \, destroy;
#X obj 1117 104 declare -lib zexy;
#X connect 2 0 3 0;
#X connect 2 0 8 0;
#X connect 4 0 7 0;
#X connect 5 0 6 0;
#X connect 10 0 9 1;
#X connect 11 0 9 2;
#X connect 12 0 9 3;
#X connect 13 0 1 0;
#X connect 14 0 15 0;
#X connect 15 0 13 0;
#X connect 16 0 1 0;
#X connect 18 0 2 0;
#X connect 19 0 18 0;
#X connect 19 0 58 0;
#X connect 20 0 21 1;
#X connect 20 0 27 1;
#X connect 21 0 22 0;
#X connect 22 0 25 0;
#X connect 23 0 21 0;
#X connect 23 1 22 2;
#X connect 24 0 23 0;
#X connect 25 0 28 0;
#X connect 25 0 30 0;
#X connect 25 1 26 0;
#X connect 26 0 29 1;
#X connect 26 0 31 1;
#X connect 27 0 26 1;
#X connect 28 0 29 0;
#X connect 30 0 31 0;
#X connect 32 0 34 0;
#X connect 33 0 37 0;
#X connect 34 0 36 0;
#X connect 34 1 33 2;
#X connect 35 0 9 0;
#X connect 36 0 33 0;
#X connect 37 0 24 0;
#X connect 37 1 27 0;
#X connect 37 1 39 0;
#X connect 38 0 42 0;
#X connect 38 1 43 0;
#X connect 38 2 57 0;
#X connect 39 0 35 0;
#X connect 39 1 38 0;
#X connect 40 0 11 0;
#X connect 41 0 10 0;
#X connect 42 0 41 0;
#X connect 43 0 40 0;
#X connect 44 0 32 0;
#X connect 45 0 44 0;
#X connect 46 0 42 1;
#X connect 47 0 43 1;
#X connect 48 0 40 1;
#X connect 49 0 41 1;
#X connect 50 0 48 0;
#X connect 51 0 50 0;
#X connect 52 0 51 0;
#X connect 53 0 52 0;
#X connect 54 0 52 0;
#X connect 55 0 56 0;
#X connect 57 0 12 0;
#X connect 58 0 5 0;
#X connect 58 0 4 0;
#X connect 60 0 0 0;
#X connect 61 0 0 0;
