#N canvas 0 0 450 300 10;
#X obj 50 143 transf_fader;
#X obj 66 87 loadbang;
#X obj 50 49 inlet;
#X obj 50 174 outlet;
#X msg 66 108 pairs 0 0 88 15 100 63 112 111 125 128;
#X obj 183 151 dbtofad;
#X connect 0 0 3 0;
#X connect 1 0 4 0;
#X connect 2 0 0 0;
#X connect 4 0 0 0;
